<svg xmlns="http://www.w3.org/2000/svg" width="357.981" height="446.627" viewBox="0 0 357.98129 446.62656"><g><g><path fill="#dc8c8f" d="M63.2 445.94c-29.54-3.92-53.57-24.38-61.17-52.07-2.05-7.5-2.06-8.42-1.8-172.96L.5 55.5l2.67-7.34C11.93 24.2 32.1 6.73 57.1 1.46 63.06.23 81.42 0 179.3 0c111.75 0 115.44.07 123.54 2 24.6 5.9 43.47 22.84 51.83 46.5l2.83 8 .26 164.27c.3 183.76.8 170.33-7 186.22-3.37 6.86-5.92 10.25-13.25 17.62-7.72 7.76-10.47 9.8-18.54 13.7-17.82 8.66-7.93 8.06-135.96 8.27-62.43.1-116.34-.2-119.8-.66zm235.6-5.47c4.57-.9 11.54-3.4 17.2-6.15 7.93-3.86 10.9-6.04 18.1-13.22 7.06-7.04 9.36-10.15 12.66-17.1 7.2-15.2 6.74-2.4 6.74-181.5v-162l-2.93-8.94C342.3 26.36 320.4 8.52 293.3 4.93 288.2 4.25 247 4 173.5 4.23 47.8 4.64 57.92 4 41 12.27 28.98 18.12 17.12 29.96 11.26 42 3.56 57.76 4 47 4 223.7c.03 134.7.24 158.8 1.5 164.7 5.4 25.58 26.54 46.36 53 52.13 4.73 1.03 29.9 1.32 119.3 1.38 97.8.08 114.33-.12 121-1.43zM64.53 387.9c-4.5-3.95-6.34-9.57-4.55-13.9.7-1.7 4.13-5.7 7.63-8.9l6.37-5.84v-25.8l-6.57-4.75c-13.44-9.74-13.3-19.7.5-33.17l5.07-4.96v-22.71l-5.65-5.38c-10.48-9.98-11.74-14.2-5.83-19.38 15.1-13.26 42.47-14.16 60.84-2 8.02 5.32 7.56 10.06-1.92 19.88l-6.44 6.67v23.2l5.03 5.18c9.15 9.4 12 18.13 8.02 24.65-1.93 3.16-11.4 11.3-13.14 11.3-.5 0-.9 6.2-.9 13.84v13.83l7 7c5.75 5.75 7 7.57 7 10.2 0 7.73-5.8 14.13-12.8 14.14-3.25 0-12.5-4.04-13.7-6-.34-.55-3.24-1-6.44-1-4.88 0-6.76.56-11.63 3.5-7.75 4.66-12.9 4.78-17.9.4zm36.8-19.06c.36-5.03.66-15.62.66-23.52v-14.38l-2.57-.97c-1.4-.54-4.3-.98-6.43-.98s-5.03.43-6.44.97l-2.56.97V378h16.7l.65-9.16zm4.45-48.73c.67-2.04-2.64-4.8-7.35-6.12-7.8-2.18-18.45.88-18.45 5.3 0 2.23.17 2.26 12.7 2.16 9.1-.06 12.8-.44 13.1-1.33zm-16.07-10.65c2.62-.34 6.73-.16 9.14.4 5.27 1.2 7.33.57 6.93-2.12-1.1-7.2-24.3-7.52-25.65-.36-.4 2.08 1.64 3.86 3.58 3.15.68-.25 3.38-.73 6-1.07zm14.52-52.16c2.62-4.8 2.25-8.96-1.1-12.3-5-5-14.58-5-19.93 0-3.4 3.17-3.8 6.6-1.36 11.64 1.93 4 2.14 6.06 2.14 22v17.58l5.25-.6c2.88-.32 6.82-.24 8.75.18l3.5.78.5-18.04c.4-14.63.83-18.65 2.25-21.25zm134.82 130.93c-3.98-2.2-7.07-7.37-7.07-11.83 0-3.48 3.04-7.8 9.75-13.82l4.25-3.82-.03-13.63-.03-13.64-5.14-3.5c-13.8-9.36-14.15-18.54-1.3-32.76l5.5-6.06v-23.4l-5.6-5.14c-6.3-5.78-8.4-9.16-8.4-13.6 0-2.46.9-3.68 4.75-6.52 10.44-7.7 25.72-10.93 39.08-8.3 9.74 1.92 18.5 5.75 22.92 10.02 5.22 5.05 4.44 7.64-5.4 17.9L286 266.8v22.78l5.07 4.95c10.14 9.9 12.86 18.55 8.06 25.57-1.3 1.9-5.02 5.45-8.25 7.9l-5.88 4.45v25.85l6.03 5.46c7.32 6.62 9.38 10.23 8.5 14.88-.88 4.7-5.9 10.14-10.05 10.92-4.04.76-9.83-.95-14.17-4.2-2.52-1.88-4.4-2.37-9.2-2.37-5.15 0-6.7.45-10.46 3.1-5.64 3.98-11.78 4.77-16.57 2.13zM274 353.1v-23.87l-2.25-.6c-3.45-.93-10.33-.75-13.2.34l-2.55.97v45.96l6.75.35c3.7.2 7.76.44 9 .55l2.25.2v-23.9zm-6.5-33.15c10.34.6 9.98.67 10.32-1.73.48-3.4-7.33-6.66-14.25-5.94-8.47.87-12.37 3.48-10.9 7.3.5 1.28 1.53 1.43 5.7.85 2.82-.4 6.93-.6 9.13-.48zm11.18-12.52c.2-.58-.8-2.14-2.2-3.46-5.52-5.17-23.48-3.27-23.48 2.48 0 2.2.2 2.23 12.66 2.13 7.9-.06 12.8-.5 13.02-1.15zm-1.3-52.58c2.23-4.3 1.65-7.9-1.8-11.38-4.7-4.68-14.8-4.42-19.74.52-3.44 3.43-3.7 7.4-.84 13 1.76 3.46 2 5.9 2 21v17.1l5.75-.6c3.16-.32 7.1-.2 8.75.27l3 .87.5-18.57c.4-15.6.8-19.16 2.38-22.22zm-122 51.76c-3.67-1.65-7.16-6.23-8.02-10.53-.77-3.87 2.55-9.23 9.1-14.7l4.54-3.8v-28.4l-4.9-3.5c-11.06-7.95-13.23-15.15-7.3-24.35 1.7-2.65 5.14-6.83 7.64-9.28l4.56-4.46v-23.4l-4.63-4.35c-6.15-5.77-10.37-11.63-10.37-14.38 0-5.2 12.3-12.42 25.93-15.24 6.76-1.4 9.14-1.46 16.17-.43 14.33 2.1 27.9 10.07 27.9 16.42 0 2.1-1.76 4.63-7 10.16l-7 7.37v24.58l5.52 5.8c8.45 8.86 11.06 15.92 8.05 21.75-1.55 3-9 10.23-12.43 12.07-2.03 1.08-2.14 1.86-2.14 15v13.87l7 7c5.96 5.95 7 7.5 7 10.44 0 4.57-3.6 9.8-8.37 12.13-4.48 2.2-8.77 1.38-15.04-2.87-3-2.03-4.9-2.5-10.08-2.5-5.38 0-7.17.47-11.27 3.03-5.85 3.63-10.66 4.47-14.86 2.58zm33.96-26.86c1.1-24.4.9-32.44-.93-33.14-2.04-.8-12.77-.8-14.82 0-1.38.53-1.58 3.6-1.58 24V294h16.68l.66-14.26zM183 237.87c11.06.7 10.5.8 10.5-1.76 0-5.33-12.73-8-21.48-4.5-3.46 1.38-4.02 2.04-4.02 4.63v3.02l5.25-.83c2.88-.46 7.27-.7 9.75-.55zm11-12.9c0-4.45-9.73-7.72-17.63-5.95-6.43 1.44-8.37 2.68-8.37 5.32 0 2.25.14 2.27 13 2.27 11.43 0 13-.2 13-1.64zm-4-29.23c0-14.85.23-17.3 2-20.75 2.2-4.3 2.57-9.07.97-12.06-3.5-6.56-18.7-6.45-23.34.17-2.18 3.1-2.06 6.64.37 11.4 1.76 3.46 2 5.9 2 21v17.06h18v-16.82zM64.42 213.17c-3.37-2.12-6.42-7.56-6.42-11.43 0-3.1 4.65-9.57 9.93-13.8l4.07-3.28V157.17l-5.04-3.7c-13.87-10.17-14.16-18.7-1.1-32.66l6.14-6.56v-21.8l-6.08-5.98c-10.12-9.94-11.26-14.2-5.23-19.5C67.92 60.6 79.2 57 92 57c12.78 0 24.06 3.58 31.3 9.93 6.03 5.3 4.9 9.57-5.23 19.5L112 92.44v21.82l6.37 6.76c13 13.78 12.4 23.16-2.03 33.1l-4.34 3v27l6.43 6.2c7.3 7.03 8.55 10.12 6.47 16.1-3.33 9.55-15.5 11.42-24.24 3.74-1.26-1.1-3.78-1.62-8.08-1.63-5.3 0-6.9.44-10.47 2.92-5.5 3.82-13.18 4.58-17.68 1.75zM100 178.05v-23.93l-4.47-.67c-2.45-.37-6.17-.27-8.25.22l-3.78.9-.27 23.7-.27 23.72H100v-23.95zm4.4-33.84c-.06-.66-.17-1.64-.25-2.18-.32-2.02-6.8-4.35-12.15-4.37-7.3-.03-13 2.43-13 5.6v2.36l12.75-.1c9.32-.06 12.72-.4 12.65-1.3zM94 133.84c10.48.76 10.5.76 10.5-1.23 0-5.03-11.88-8.2-19.95-5.35-4.43 1.58-6.2 3.65-5.22 6.17.55 1.44 1.4 1.57 5.4.9 2.62-.45 6.8-.67 9.27-.5zm7-30.63c0-15.3.22-17.73 2-21.2 2.85-5.6 2.58-9.27-.96-12.8-5.33-5.34-15.17-4.97-20.3.76-3.24 3.62-3.4 6-.72 11.9 1.72 3.8 1.98 6.55 1.98 21.5v17.13h18v-17.3zm136.3 108.83c-3.96-2.4-6.3-6.75-6.3-11.66 0-3.27.84-4.56 7-10.72l7-7v-26.53l-3.25-2.23c-15.84-10.85-16.7-20.32-3.16-34.64l5.4-5.72v-22.8l-7-7.38c-6.24-6.57-7-7.8-7-11.32 0-3.28.54-4.35 3.25-6.38 12.15-9.1 30.24-12.37 45.7-8.24 7.9 2.12 12.38 4.37 17.44 8.78 3.6 3.13 3.84 3.67 3.2 7.1-.52 2.77-2.42 5.4-7.65 10.6L285 90.8v22.43l5.8 6.2c6.85 7.33 9.2 11.82 9.2 17.6 0 5.67-2.7 9.72-10 15.04l-6 4.38v26.23l5.05 4.26c2.78 2.35 6.2 6 7.62 8.14 3.46 5.23 2.62 9.85-2.77 15.24-3.73 3.73-4.17 3.9-8.92 3.45-3.23-.3-6.78-1.6-10.06-3.63-4.16-2.6-6.1-3.15-10.87-3.15-4.2 0-6.2.46-7.18 1.65-2.04 2.47-8.9 5.3-12.87 5.32-1.93 0-4.95-.86-6.7-1.94zm35.7-34.98v-23.93l-4.58-.7c-2.52-.37-6.46-.28-8.75.2l-4.17.88-.27 23.75-.27 23.74H273v-23.95zm3.8-34.8c.92-6.26-19.04-8.07-24.34-2.2-3.44 3.8-1.53 4.5 11.67 4.4 11.82-.08 12.38-.17 12.68-2.2zm-15.63-9.8c2.03-.35 6.02-.15 8.88.46 6.17 1.33 8.62.22 6.84-3.1-1.45-2.68-6.9-4.8-12.35-4.8-5.28 0-12.14 2.48-13 4.7-.84 2.2 1.43 4.5 3.87 3.93 1.14-.28 3.73-.8 5.75-1.17zm15.16-53.85c2.14-4.6 1.66-7.34-1.9-10.9-3.73-3.73-9.9-4.47-15.74-1.9-7 3.1-8.47 7.8-4.7 15.2 1.77 3.46 2 5.9 2 21.1v17.17l4.75-.54c2.6-.3 6.55-.24 8.75.13l4 .67.5-18.52c.42-15 .86-19.24 2.33-22.4z"/><path fill="#8c948b" d="M63.45 445.93c-8.57-1.02-21.26-5.4-29.08-10-13.1-7.76-26.2-23.9-31.56-38.94l-2.3-6.5-.27-164.93C-.07 43.23-.5 55.93 6.38 41.5 15.28 22.74 31.08 9.36 52 2.83L59.5.5h239L306 2.8C325.88 9 342.45 22.86 351.02 40.5c7.42 15.25 6.94 2.75 6.96 182.58 0 156.45-.05 161.83-1.92 169.15-6.45 25.23-25.9 44.46-52.62 52l-7.94 2.22-112.5.16c-61.88.1-115.67-.2-119.55-.67zm243.07-7.16c25-8.48 42.7-28.8 46.47-53.36.72-4.73.96-57.16.75-166.4-.34-177.5.27-162.52-7.18-177.5-6.5-13.05-16.42-22.8-30.07-29.54-16.14-7.96-6.46-7.4-133.4-7.73C89.14 4 68.3 4.18 61.55 5.33c-22.42 3.88-40.7 17-50.03 35.9-8.1 16.38-7.6 3.9-7.3 185.03L4.5 387.5l2.78 8.2c6.44 19.03 22.1 35.1 40.76 41.85 12.1 4.36 10.6 4.32 133.46 4.13l117-.2 8.02-2.7zM66.3 389.1c-3.94-2.48-6.23-5.85-6.94-10.25-.62-3.82 1.68-7.25 9.9-14.76l4.74-4.36V333.1l-4.3-2.97c-5.97-4.1-11.37-10.32-12.18-14.02-.98-4.45 2.92-12.32 9.8-19.76l5.68-6.1v-22.6l-6.94-7.15c-10-10.32-10.24-13.54-1.47-19.57 5.66-3.9 13.08-6.56 22.27-7.98 12.37-1.92 28.86 2.5 37.42 10 6.14 5.4 4.77 9.55-6.55 19.86l-3.75 3.43v25l5.64 6.1c5.95 6.42 9.3 12.43 9.33 16.77.04 4.4-6.26 12.3-13.22 16.62l-2.75 1.7v27.6l6.43 6.3c9.03 8.85 9.7 13.28 3.1 20.47-3.02 3.3-3.9 3.7-8.3 3.7-3.8 0-6.1-.74-10.14-3.26-4.37-2.7-6.22-3.25-11.14-3.25-5 0-6.6.47-10.32 3.1-5.73 4.04-11.9 4.8-16.34 2zm35.05-20.26c.35-5.03.65-15.78.65-23.88 0-16.7.43-15.94-9-15.94-2.48 0-5.52.27-6.75.6l-2.25.6V378h16.7l.65-9.16zm4.44-49c.74-3.93-7.95-7.5-15.65-6.45-6.4.86-9.6 2.7-9.95 5.66l-.3 2.55 12.8-.1c10.84-.07 12.83-.32 13.1-1.67zm-12.3-10.28c2.2 0 5.8.23 8 .48 3.72.42 4 .28 4-2.05 0-1.86-.9-2.96-3.5-4.25-7.2-3.6-22-1.12-22 3.7 0 3.23.96 3.74 5.46 2.86 2.22-.42 5.84-.76 8.04-.74zm4.4-13.7l4.1.92V279.6c0-15.2.22-17.63 2-21.1 5.26-10.33-.68-18.53-12.4-17.15-9.66 1.15-13.4 6.48-10.12 14.46 1.6 3.9 1.98 7.77 2.26 22.8l.34 18.1 4.86-.88c2.88-.52 6.53-.5 8.96.04zM239.24 388c-4.17-2.54-7.24-7.57-7.24-11.86 0-2.82 1.1-4.47 7-10.35l7-7v-13.87c0-13.15-.12-13.93-2.15-15-3.43-1.85-10.88-9.1-12.43-12.08-3.1-6-.6-12.68 8.2-21.9l5.38-5.64v-24.66l-7-7.2c-5.5-5.7-7-7.87-7-10.24 0-8.46 22.82-18.34 38.72-16.77 12.44 1.23 26.04 7.22 29.95 13.2 2.37 3.6.98 6.67-6.7 14.75l-6.97 7.35v22.5l5.5 5.96c9.65 10.4 12.04 18.4 7.44 24.87-2.3 3.23-11.48 10.92-13.03 10.92-.5 0-.9 6.22-.9 13.93v13.94l4.93 4.16c7.36 6.2 10.42 11.06 9.55 15.15-1.58 7.44-8.82 12.78-15.38 11.34-1.6-.35-4.98-1.96-7.53-3.58-3.88-2.46-5.7-2.95-10.97-2.95-4.85 0-6.94.47-8.9 2.02-3.32 2.6-9 4.97-11.92 4.97-1.26 0-3.75-.9-5.54-2zM274 353.1c0-27.03.66-25.1-8.65-25.1-9.83 0-9.35-1.28-9.35 24.98v22.92l6.75.35c3.7.2 7.76.44 9 .55l2.25.2v-23.9zm3.8-35.1c-.63-5.3-12.33-7.78-20.75-4.4-3.67 1.46-5.85 4.3-4.7 6.15.25.42 6.15.76 13.1.75h12.63l-.3-2.5zm1-11.23c.58-3-5.44-5.77-12.6-5.77-8.15 0-13.2 2.03-13.2 5.32v2.43l12.73-.13c11.2-.1 12.78-.33 13.07-1.85zm-1.54-51c2.44-5.2 2.17-8.26-1.05-11.86-3.27-3.66-9.74-4.88-15.63-2.93-7.52 2.48-9.64 8.7-5.57 16.28 1.77 3.32 2 5.65 2 20.8v17.1l5.25-.6c2.88-.3 6.82-.2 8.75.23l3.5.8.5-18.04c.4-14.25.9-18.83 2.26-21.76zm-123.5 49.72c-3.6-2.04-5.76-6.4-5.76-11.6 0-3.88.5-4.7 7-10.9l7-6.72-.06-13.4-.05-13.4-5.97-4.24c-3.28-2.34-6.86-5.7-7.95-7.5-4.2-6.9-1.7-15 7.64-24.8l5.38-5.63v-23l-6.85-6.94c-9.33-9.48-9.85-13.3-2.58-18.86 6.23-4.75 15.67-7.68 26.56-8.26 14.1-.74 26.17 2.7 34.17 9.72 5.8 5.08 4.78 8.67-5.23 18.5l-6.07 5.97v22.89l6.02 6.28c6.85 7.13 8.98 11.36 8.98 17.86 0 3.8-.6 5.17-3.58 8.5-1.97 2.17-5.57 5.2-8 6.74l-4.42 2.8v26.8l6.03 5.46c3.32 3 6.7 6.77 7.54 8.38 2.1 4.05.92 9.2-3.07 13.4-2.8 2.98-3.88 3.45-7.92 3.45-4.6 0-9.42-1.8-12.8-4.75-1.12-.98-3.9-1.53-8-1.56-5.3-.06-6.96.38-10.6 2.78-5.23 3.47-13.2 4.4-17.42 2zm36-34.78c.3-27.22 1.05-25.24-9.38-25.2-9.72.02-9.38-.9-9.38 25.43 0 12.5.3 23.03.7 23.4.38.4 4.55.6 9.25.43l8.55-.3.26-23.76zm3.74-34.7c0-3.6-5.38-6.37-12.38-6.34-6.15.03-12.8 2.34-13.75 4.77-1.43 3.73 0 4.16 13.27 4.06l12.86-.08v-2.4zm-10.5-9.16c10.97.73 10.5.8 10.5-1.76 0-5.7-11.43-8.93-20.03-5.65-8.6 3.3-8.23 9.44.47 7.9 2.5-.43 6.58-.66 9.06-.5zm8-30.85c0-15.6.22-18.02 2.15-22.66 1.88-4.55 2-5.58.87-8.3-3.43-8.28-16.12-10.16-23.14-3.44-3.27 3.14-3.83 8.12-1.38 12.4 1.1 1.9 1.43 6.8 1.46 20.58.02 9.94.23 18.27.46 18.5.23.23 4.73.4 10 .4H191v-17.47zM64.04 212.38c-1.72-1.44-3.78-3.9-4.58-5.45-2.78-5.37-1.97-7.62 5.54-15.36l7-7.22v-27.92l-2.75-1.7C62.63 150.62 56 142.54 56 138.6c.02-3.96 4.67-12.1 10.34-18.08l5.66-5.98V91.88L64.5 84c-8.7-9.15-9.34-11.5-4.3-16.2 15.18-14.18 46.95-14.33 63.65-.27 5.53 4.65 4.1 8.84-6.6 19.23l-5.25 5.1V115l3.88 3.5c5.43 4.9 11.07 13.4 11.77 17.75.82 5.07-2.96 11.2-10.02 16.27l-5.54 3.97-.06 14-.04 14 6.53 6.45c9.2 9.1 9.67 13.07 2.4 20.35-3.7 3.7-4.25 3.92-8.7 3.5-2.86-.28-6.52-1.6-9.23-3.32-2.92-1.85-6.26-3-9.5-3.26-5.23-.42-7.37.24-14 4.3-5.52 3.37-11.35 3.3-15.46-.15zM100 178.05v-23.93l-4.66-.7c-2.57-.4-6.28-.3-8.25.2l-3.6.87-.27 23.74-.27 23.75H100v-23.95zm4.77-33.87c1.26-3.8-8.7-7.87-16.2-6.63-6.13 1.02-9.57 3.1-9.57 5.8 0 2.32.06 2.33 12.66 2.23 9.46-.07 12.78-.42 13.1-1.4zM94.5 133.96c9.2.76 9.98.64 10.3-1.57.5-3.6-4.2-5.86-12.3-5.9-9.36 0-13.5 1.74-13.5 5.73v3l5.75-.8c3.16-.44 7.55-.65 9.75-.47zm6.5-30.5c0-15.07.23-17.5 2-20.97 2.86-5.62 2.6-10.05-.77-13.43C95.1 61.94 79 66.04 79 75c0 1.68.9 4.84 2 7 1.77 3.47 2 5.9 2 21.2v17.3h18v-17.05zM235.98 210.3c-3.47-3.24-4.27-4.7-4.7-8.62l-.55-4.7 7.13-7.02 7.14-7-.03-13.74-.03-13.75-5.14-3.5c-6.56-4.45-10.8-10.23-10.8-14.7 0-4.74 3.33-10.76 9.62-17.35l5.38-5.64V89.7l-5.05-4.64c-10-9.2-11.27-13.8-5.25-19.1 8.48-7.44 25.16-11.87 37.52-9.97 8.36 1.3 16.07 4.12 22.15 8.15 8.82 5.84 8.58 9.03-1.44 19.37L285 90.63v23.29l4.5 4.52c7.07 7.06 10.5 13.12 10.5 18.55 0 3.87-.6 5.33-3.6 8.83-1.97 2.3-5.57 5.56-8 7.23l-4.4 3.03v26.75l6.1 5.82c9.4 8.97 10.48 12.7 5.67 19.6-4.6 6.57-12.7 7.28-20.47 1.8-3.7-2.6-5.27-3.08-10.4-3.08-5.15 0-6.73.46-10.64 3.16-3.05 2.1-6.2 3.3-9.34 3.62-4.4.42-5.04.18-8.94-3.46zm37.02-33.2v-23.9l-2.25-.6c-3.45-.92-10.33-.74-13.2.35l-2.55.97V201h18v-23.9zm4-34.93c0-3.52-7.67-6.62-14.56-5.9-6.37.64-11.44 3.1-11.44 5.55 0 1 .2 2.02.45 2.27.26.25 6.1.44 13 .42 12.42-.05 12.55-.07 12.55-2.35zm-17.05-9.3c3.65-.77 6.48-.77 10.23.04 4.16.9 5.45.84 6.54-.24 3.3-3.3-3.2-7.7-11.38-7.7-9.77 0-16.42 3.8-13.3 7.56 1.44 1.72 1.5 1.72 7.9.35zm7.9-14.3c1.46.32 3.43.8 4.4 1.05 1.6.44 1.75-.84 1.75-16.96 0-15.53.23-17.97 2.1-22.18 2.54-5.76 1.94-10.56-1.7-13.4-5.2-4.1-14.2-3.84-19.44.56-2.4 2.03-2.96 3.26-2.96 6.65 0 2.4.85 5.56 2 7.44 1.8 2.94 2 5.04 2 20.62v17.34l4.6-.87c2.54-.47 5.8-.6 7.26-.27z"/><path fill="#7f7f7f" d="M63.45 445.93c-8.57-1.02-21.26-5.4-29.08-10-13.1-7.76-26.2-23.9-31.56-38.94l-2.3-6.5-.27-164.93C-.07 43.23-.5 55.93 6.38 41.5 15.28 22.74 31.08 9.36 52 2.83L59.5.5h239L306 2.8C325.88 9 342.45 22.86 351.02 40.5c7.42 15.25 6.94 2.75 6.96 182.58 0 156.45-.05 161.83-1.92 169.15-6.45 25.23-25.9 44.46-52.62 52l-7.94 2.22-112.5.16c-61.88.1-115.67-.2-119.55-.67zm243.07-7.16c25-8.48 42.7-28.8 46.47-53.36.72-4.73.96-57.16.75-166.4-.34-177.5.27-162.52-7.18-177.5-6.5-13.05-16.42-22.8-30.07-29.54-16.14-7.96-6.46-7.4-133.4-7.73C89.14 4 68.3 4.18 61.55 5.33c-22.42 3.88-40.7 17-50.03 35.9-8.1 16.38-7.6 3.9-7.3 185.03L4.5 387.5l2.78 8.2c6.44 19.03 22.1 35.1 40.76 41.85 12.1 4.36 10.6 4.32 133.46 4.13l117-.2 8.02-2.7zm-241.3-50.34c-3.03-2.1-5.22-6.63-5.22-10.73 0-3.9 3.16-8.4 9.6-13.7l4.27-3.5.06-14.26c.04-7.94-.34-14.25-.85-14.25-1.74 0-11.2-8.16-13.14-11.32-4.05-6.65-1.52-14.72 7.65-24.42l5.4-5.72v-22.91l-7-7.2c-6.3-6.5-7-7.64-7-11.22 0-3.33.54-4.4 3.25-6.46 15.06-11.47 39.03-12.93 56.2-3.42 7.3 4.04 10.07 7.43 9.13 11.16-.37 1.48-3.8 6-7.63 10.04L113 267.9v22.34l5.8 6.2c6.95 7.44 9.2 11.8 9.2 17.95 0 3.9-.57 5.2-3.7 8.68-2.03 2.24-5.63 5.42-8 7.05l-4.3 2.96v26.6l5.86 5.1c7.48 6.5 9.6 10.7 8.16 16.1-.62 2.32-2.38 5.05-4.25 6.63-2.8 2.35-3.85 2.63-8.73 2.27-3.9-.28-6.72-1.2-9.53-3.1-3.34-2.28-5.03-2.7-10.68-2.7-3.7 0-7 .45-7.33 1-2.64 4.26-15.9 6.5-20.3 3.43zM102 354v-23.97l-2.75-.74c-3.9-1.06-11.62-.72-14.13.63-2.07 1.1-2.12 1.7-2.12 24.6V378h19v-24zm-6-32.5c9.33 0 9.5-.05 9.5-2.4 0-7.4-23.76-8.2-26.1-.84-.84 2.68 2.14 5.05 5.04 4 1.13-.4 6.33-.73 11.56-.75zm9.8-13.12c.15-1.1-.52-2.7-1.5-3.55-2.14-1.84-7.73-3.84-10.77-3.84-4.32 0-12.5 3.06-13.6 5.1-2.02 3.8.02 4.46 13.26 4.36 11.48-.08 12.3-.22 12.6-2.08zM103 279c0-15.52.23-18.04 2.12-22.58 2.05-4.96 2.06-5.23.36-8.82-2.15-4.52-5.92-6.6-11.98-6.6-11.22 0-16.5 7.93-11.5 17.26 1.86 3.48 1.96 4.93 1.35 21l-.65 17.23H103V279zm134.22 107.53c-1.93-1.62-3.63-4.3-4.3-6.8-1.5-5.58.22-9 8-15.83l6.08-5.35V332.1l-4.3-2.97c-2.38-1.63-5.98-4.8-8-7.05-3.3-3.63-3.7-4.7-3.7-9.4 0-6.2 2.93-11.47 10.37-18.64l4.63-4.46V266.9l-6.96-7.36c-7.05-7.45-9.14-11.56-7.35-14.45.54-.9 2.82-3.02 5.06-4.74 12.38-9.5 37.1-11 52.68-3.18 8.2 4.13 10.56 6.54 10.56 10.86 0 3.52-.77 4.75-7 11.32l-7 7.37v22.5l5.64 6.1c12.64 13.65 12.48 22.6-.58 31.9l-5.96 4.26-.05 13.7-.05 13.7 4.52 3.78c8.88 7.42 11.36 13.76 7.96 20.35-3.4 6.55-13.4 7.8-21.03 2.63-3.25-2.2-5.03-2.67-10.38-2.67-5.4 0-7.1.44-10.35 2.7-2.8 1.92-5.5 2.8-9.6 3.1-5.07.36-6.08.1-8.9-2.27zm37.78-33.5V329.1l-3.75-1.05c-4.7-1.3-6.8-1.3-11.5 0L256 329.1v47.89h19v-23.96zm3.77-34.08c.45-2.34-3.77-5.72-8.47-6.78-4.8-1.08-12.47.05-16 2.35-2.1 1.38-3.06 4.4-1.8 5.65.28.28 6.24.46 13.24.4 10.62-.07 12.78-.34 13.03-1.62zm.06-11.35c1.54-7.96-21.4-10.15-26.15-2.5-2.37 3.83-.53 4.44 12.95 4.34 11.42-.08 12.9-.3 13.2-1.84zM275 278.2c0-15.3.22-17.73 2-21.2 3-5.9 2.62-9.58-1.4-13.6-3.08-3.08-3.95-3.4-9.14-3.4-6.83 0-11.6 2.5-13.5 7.08-1.1 2.67-1 3.73.88 8.26 1.92 4.62 2.16 7.06 2.16 22.26 0 9.38.18 17.25.4 17.48.24.23 4.52.4 9.5.4h9.1V278.2zm-121.24 27.3c-3.6-2.04-5.76-6.4-5.76-11.6 0-3.88.5-4.7 7-10.9l7-6.72-.06-13.4-.05-13.4-5.97-4.24c-3.28-2.34-6.86-5.7-7.95-7.5-4.2-6.9-1.7-15 7.64-24.8l5.38-5.63v-23l-6.85-6.94c-9.33-9.48-9.85-13.3-2.58-18.86 6.23-4.75 15.67-7.68 26.56-8.26 14.1-.74 26.17 2.7 34.17 9.72 5.8 5.08 4.78 8.67-5.23 18.5l-6.07 5.97v22.89l6.02 6.28c6.85 7.13 8.98 11.36 8.98 17.86 0 3.8-.6 5.17-3.58 8.5-1.97 2.17-5.57 5.2-8 6.74l-4.42 2.8v26.8l6.03 5.46c3.32 3 6.7 6.77 7.54 8.38 2.1 4.05.92 9.2-3.07 13.4-2.8 2.98-3.88 3.45-7.92 3.45-4.6 0-9.42-1.8-12.8-4.75-1.12-.98-3.9-1.53-8-1.56-5.3-.06-6.96.38-10.6 2.78-5.23 3.47-13.2 4.4-17.42 2zm36-34.78c.3-27.22 1.05-25.24-9.38-25.2-9.72.02-9.38-.9-9.38 25.43 0 12.5.3 23.03.7 23.4.38.4 4.55.6 9.25.43l8.55-.3.26-23.76zm3.74-34.7c0-3.6-5.38-6.37-12.38-6.34-6.15.03-12.8 2.34-13.75 4.77-1.43 3.73 0 4.16 13.27 4.06l12.86-.08v-2.4zm-10.5-9.16c10.97.73 10.5.8 10.5-1.76 0-5.7-11.43-8.93-20.03-5.65-8.6 3.3-8.23 9.44.47 7.9 2.5-.43 6.58-.66 9.06-.5zm8-30.85c0-15.6.22-18.02 2.15-22.66 1.88-4.55 2-5.58.87-8.3-3.43-8.28-16.12-10.16-23.14-3.44-3.27 3.14-3.83 8.12-1.38 12.4 1.1 1.9 1.43 6.8 1.46 20.58.02 9.94.23 18.27.46 18.5.23.23 4.73.4 10 .4H191v-17.47zM66.4 213.63c-4.8-2.17-7.4-6.18-7.4-11.43 0-4.3.4-4.94 7-11.55l7-7v-26.42l-5.85-4.3c-11.6-8.48-13.17-15.2-6.04-25.87 2.28-3.4 5.65-7.38 7.5-8.87l3.4-2.7V91.9l-6.84-7.23c-10.32-10.9-10.32-14.23 0-20.42 7.9-4.73 20.38-7.65 29.8-6.96 9.4.67 19.16 3.68 25.42 7.82 8.88 5.9 8.45 10.13-2.1 20.47L112 91.75v22.78l5.55 5.88c6.77 7.16 9.45 12.16 9.45 17.67 0 5.6-2.73 9.67-10 14.97l-6 4.38v26.11l6.07 5.96c7.96 7.82 9.3 10.38 7.98 15.3-2.64 9.8-12.1 12.56-21.96 6.42-4.37-2.7-6.22-3.25-11.14-3.25-4.93 0-6.62.5-10.2 2.97-5.1 3.56-11.05 4.6-15.35 2.65zm34.6-35.1c0-22.17-.1-23.5-1.94-24.5-2.44-1.3-11.12-1.34-14.5-.05l-2.56.97V202h19v-23.47zm-14.05-32.6c3.65-.8 6.48-.8 10.23.02 4.37.94 5.43.87 6.73-.44 2.03-2 .65-4.37-3.98-6.82-8.38-4.44-25.6 1.18-20.9 6.83 1.46 1.78 1.5 1.8 7.93.4zM104.5 132c0-5.64-13.5-8.5-21.72-4.6-3.54 1.7-5.52 4.58-4.4 6.4.3.48 6.3.8 13.33.73l12.8-.14V132zm-2.5-29.14c0-15.54.24-18.18 2.02-22.22 2.4-5.45 1.92-8.38-2.03-12.17-5.22-5-16.63-4.35-21 1.2-2.35 3-2.6 8.65-.5 12.3 1.08 1.9 1.43 6.78 1.46 20.5l.04 18.02h20v-17.64zm137.4 109.7c-3.94-1.73-7.18-5.86-8-10.2-.8-4.32 2.3-9.32 9.54-15.44l5.06-4.26v-26.22l-6.02-4.4c-7.25-5.27-10.14-9.62-10.23-15.33-.08-5.52 1.96-9.3 9.26-17.1l6-6.4v-22.2l-7-7.1c-9.98-10.14-10.4-13.17-2.6-19.06 10.5-7.93 27.67-10.77 42.5-7.02 13.55 3.43 21.1 8.67 21.1 14.64 0 2.95-1.08 4.62-7 10.86l-7 7.37v23.08l5.45 5.7c9.15 9.5 11.66 17.5 7.6 24.18-1.93 3.16-11.4 11.3-13.14 11.3-.5 0-.9 6.2-.9 13.84v13.83l7 7c6.3 6.3 7 7.4 7 10.92-.02 11.57-11.1 16.4-22.04 9.6-7.04-4.4-14.68-4.48-21.65-.27-5.9 3.57-10.8 4.45-14.9 2.67zm34.6-35.03c0-16.2-.35-23.65-1.12-24.13-2.7-1.66-8.63-2.25-13.1-1.3l-4.78 1.04v47.82h19v-23.43zm-11.75-33.16c2.33-.32 6.14-.13 8.46.4 8.27 1.9 9.82-3.1 2.22-7.1-4.05-2.15-13.67-1.96-18.42.35-5.26 2.56-4.23 8.72 1.25 7.43 1.23-.3 4.16-.78 6.5-1.1zM277.5 131c0-3.75-5.6-6.52-13-6.42-8.63.1-14.76 3.7-13.22 7.72.38 1 3.63 1.3 13.36 1.2l12.86-.08v-2.4zm-3.5-28.8c0-15.3.22-17.73 2-21.2 2.83-5.56 2.56-9.34-.92-13.24-2.78-3.1-3.26-3.27-10.08-3.27-7 0-7.24.08-10.58 3.73-3.95 4.3-4.2 6.33-1.42 11.76 1.77 3.48 2 5.9 2 21.7v17.8h19v-17.3z"/><path fill="#ba1a21" d="M59.07 444.92c-22.74-4.52-41.82-18.64-51.33-37.96C-.6 390-.1 402.56.22 219.5l.28-162 2.65-7.78c9.06-26.58 31.7-45 59.86-48.7C68.96.22 105.4 0 184.5.22l113 .32 7.4 2.27c26.04 8 43.76 25.53 50.76 50.2 1.75 6.18 1.84 14.32 1.84 170 0 182.5.54 168.26-6.98 183.5-8.58 17.4-23.38 29.72-44.02 36.64l-7 2.35-118 .15c-64.9.08-120-.25-122.43-.73zm242.43-4.2c3.3-.96 10.18-3.8 15.3-6.3 15.68-7.7 28.72-22.6 34.47-39.43l2.23-6.5.27-162.5c.3-179.9.66-169.66-6.14-183.17-9.37-18.6-25.82-31.7-46.42-36.9-7.58-1.92-11.1-1.97-124.75-1.7L59.5 4.48l-8 2.72c-11.2 3.8-19.72 9.1-27.95 17.35-7.78 7.8-12.46 14.97-16.43 25.18L4.5 56.5l-.27 163.9c-.3 182.55-.8 168.8 6.72 184.14 9.5 19.4 30.8 34.45 52.85 37.36 3.68.48 57.32.8 119.2.7 103.37-.14 112.98-.3 118.5-1.9zM65.2 388.4c-3-2.1-5.2-6.62-5.2-10.72 0-3.9 3.16-8.4 9.6-13.7l4.27-3.5.06-14.26c.04-7.94-.34-14.25-.85-14.25-1.74 0-11.2-8.16-13.14-11.32-4.05-6.65-1.52-14.72 7.65-24.42l5.4-5.72v-22.91l-7-7.2c-6.3-6.5-7-7.64-7-11.22 0-3.33.54-4.4 3.25-6.46 15.06-11.47 39.03-12.93 56.2-3.42 7.3 4.04 10.07 7.43 9.13 11.16-.37 1.48-3.8 6-7.63 10.04L113 267.9v22.34l5.8 6.2c6.95 7.44 9.2 11.8 9.2 17.95 0 3.9-.57 5.2-3.7 8.68-2.03 2.24-5.63 5.42-8 7.05l-4.3 2.96v26.6l5.86 5.1c7.48 6.5 9.6 10.7 8.16 16.1-.62 2.32-2.38 5.05-4.25 6.63-2.8 2.35-3.85 2.63-8.73 2.27-3.9-.28-6.72-1.2-9.53-3.1-3.34-2.28-5.03-2.7-10.68-2.7-3.7 0-7 .45-7.33 1-2.64 4.26-15.9 6.5-20.3 3.43zm36.8-34.4v-24l-2.75-.73c-3.9-1.06-11.62-.72-14.13.63-2.07 1.1-2.12 1.7-2.12 24.6V378h19v-24zm-6-32.5c9.33-.03 9.5-.07 9.5-2.4 0-7.43-23.76-8.2-26.1-.86-.84 2.68 2.14 5.05 5.04 4 1.13-.4 6.33-.73 11.56-.75zm9.8-13.14c.15-1.1-.52-2.7-1.5-3.55-2.14-1.84-7.73-3.84-10.77-3.84-4.32 0-12.5 3.06-13.6 5.1-2.02 3.8.02 4.46 13.26 4.36 11.48-.08 12.3-.22 12.6-2.08zM103 279c0-15.52.23-18.04 2.12-22.58 2.05-4.96 2.06-5.23.36-8.82-2.15-4.52-5.92-6.6-11.98-6.6-11.22 0-16.5 7.93-11.5 17.26 1.86 3.48 1.96 4.93 1.35 21l-.65 17.23H103V279zm134.22 107.53c-1.93-1.62-3.63-4.3-4.3-6.8-1.5-5.58.22-9 8-15.83l6.08-5.35V332.1l-4.3-2.97c-2.38-1.63-5.98-4.8-8-7.05-3.3-3.63-3.7-4.7-3.7-9.4 0-6.2 2.93-11.47 10.37-18.64l4.63-4.46V266.9l-6.96-7.36c-7.05-7.45-9.14-11.56-7.35-14.45.54-.9 2.82-3.02 5.06-4.74 12.38-9.5 37.1-11 52.68-3.18 8.2 4.13 10.56 6.54 10.56 10.86 0 3.52-.77 4.75-7 11.32l-7 7.37v22.5l5.64 6.1c12.64 13.65 12.48 22.6-.58 31.9l-5.96 4.26-.05 13.7-.05 13.7 4.52 3.78c8.88 7.42 11.36 13.76 7.96 20.35-3.4 6.55-13.4 7.8-21.03 2.63-3.25-2.2-5.03-2.67-10.38-2.67-5.4 0-7.1.44-10.35 2.7-2.8 1.92-5.5 2.8-9.6 3.1-5.07.36-6.08.1-8.9-2.27zm37.78-33.5V329.1l-3.75-1.05c-4.7-1.3-6.8-1.3-11.5 0L256 329.1v47.89h19v-23.96zm3.77-34.08c.45-2.34-3.77-5.72-8.47-6.78-4.8-1.08-12.47.05-16 2.35-2.1 1.38-3.06 4.4-1.8 5.65.28.28 6.24.46 13.24.4 10.62-.07 12.78-.34 13.03-1.62zm.06-11.35c1.54-7.96-21.4-10.15-26.15-2.5-2.37 3.83-.53 4.44 12.95 4.34 11.42-.08 12.9-.3 13.2-1.84zM275 278.2c0-15.3.22-17.73 2-21.2 3-5.9 2.62-9.58-1.4-13.6-3.08-3.08-3.95-3.4-9.14-3.4-6.83 0-11.6 2.5-13.5 7.08-1.1 2.67-1 3.73.88 8.26 1.92 4.62 2.16 7.06 2.16 22.26 0 9.38.18 17.25.4 17.48.24.23 4.52.4 9.5.4h9.1V278.2zm-121.24 27.3c-3.6-2.04-5.76-6.4-5.76-11.6 0-3.88.5-4.7 7-10.9l7-6.72-.06-13.4-.05-13.4-5.97-4.24c-3.28-2.34-6.86-5.7-7.95-7.5-4.2-6.9-1.7-15 7.64-24.8l5.38-5.63v-23l-6.85-6.94c-9.33-9.48-9.85-13.3-2.58-18.86 6.23-4.75 15.67-7.68 26.56-8.26 14.1-.74 26.17 2.7 34.17 9.72 5.8 5.08 4.78 8.67-5.23 18.5l-6.07 5.97v22.89l6.02 6.28c6.85 7.13 8.98 11.36 8.98 17.86 0 3.8-.6 5.17-3.58 8.5-1.97 2.17-5.57 5.2-8 6.74l-4.42 2.8v26.8l6.03 5.46c3.32 3 6.7 6.77 7.54 8.38 2.1 4.05.92 9.2-3.07 13.4-2.8 2.98-3.88 3.45-7.92 3.45-4.6 0-9.42-1.8-12.8-4.75-1.12-.98-3.9-1.53-8-1.56-5.3-.06-6.96.38-10.6 2.78-5.23 3.47-13.2 4.4-17.42 2zm36-34.78c.3-27.22 1.05-25.24-9.38-25.2-9.72.02-9.38-.9-9.38 25.43 0 12.5.3 23.03.7 23.4.38.4 4.55.6 9.25.43l8.55-.3.26-23.76zm3.74-34.7c0-3.6-5.38-6.37-12.38-6.34-6.15.03-12.8 2.34-13.75 4.77-1.43 3.73 0 4.16 13.27 4.06l12.86-.08v-2.4zm-10.5-9.16c10.97.73 10.5.8 10.5-1.76 0-5.7-11.43-8.93-20.03-5.65-8.6 3.3-8.23 9.44.47 7.9 2.5-.43 6.58-.66 9.06-.5zm8-30.85c0-15.6.22-18.02 2.15-22.66 1.88-4.55 2-5.58.87-8.3-3.43-8.28-16.12-10.16-23.14-3.44-3.27 3.14-3.83 8.12-1.38 12.4 1.1 1.9 1.43 6.8 1.46 20.58.02 9.94.23 18.27.46 18.5.23.23 4.73.4 10 .4H191v-17.47zM66.4 213.63c-4.8-2.17-7.4-6.18-7.4-11.43 0-4.3.4-4.94 7-11.55l7-7v-26.42l-5.85-4.3c-11.6-8.48-13.17-15.2-6.04-25.87 2.28-3.4 5.65-7.38 7.5-8.87l3.4-2.7V91.9l-6.84-7.23c-10.32-10.9-10.32-14.23 0-20.42 7.9-4.73 20.38-7.65 29.8-6.96 9.4.67 19.16 3.68 25.42 7.82 8.88 5.9 8.45 10.13-2.1 20.47L112 91.75v22.78l5.55 5.88c6.77 7.16 9.45 12.16 9.45 17.67 0 5.6-2.73 9.67-10 14.97l-6 4.38v26.11l6.07 5.96c7.96 7.82 9.3 10.38 7.98 15.3-2.64 9.8-12.1 12.56-21.96 6.42-4.37-2.7-6.22-3.25-11.14-3.25-4.93 0-6.62.5-10.2 2.97-5.1 3.56-11.05 4.6-15.35 2.65zm34.6-35.1c0-22.17-.1-23.5-1.94-24.5-2.44-1.3-11.12-1.34-14.5-.05l-2.56.97V202h19v-23.47zm-14.05-32.6c3.65-.8 6.48-.8 10.23.02 4.37.94 5.43.87 6.73-.44 2.03-2 .65-4.37-3.98-6.82-8.38-4.44-25.6 1.18-20.9 6.83 1.46 1.78 1.5 1.8 7.93.4zM104.5 132c0-5.64-13.5-8.5-21.72-4.6-3.54 1.7-5.52 4.58-4.4 6.4.3.48 6.3.8 13.33.73l12.8-.14V132zm-2.5-29.14c0-15.54.24-18.18 2.02-22.22 2.4-5.45 1.92-8.38-2.03-12.17-5.22-5-16.63-4.35-21 1.2-2.35 3-2.6 8.65-.5 12.3 1.08 1.9 1.43 6.78 1.46 20.5l.04 18.02h20v-17.64zm137.4 109.7c-3.94-1.73-7.18-5.86-8-10.2-.8-4.32 2.3-9.32 9.54-15.44l5.06-4.26v-26.22l-6.02-4.4c-7.25-5.27-10.14-9.62-10.23-15.33-.08-5.52 1.96-9.3 9.26-17.1l6-6.4v-22.2l-7-7.1c-9.98-10.14-10.4-13.17-2.6-19.06 10.5-7.93 27.67-10.77 42.5-7.02 13.55 3.43 21.1 8.67 21.1 14.64 0 2.95-1.08 4.62-7 10.86l-7 7.37v23.08l5.45 5.7c9.15 9.5 11.66 17.5 7.6 24.18-1.93 3.16-11.4 11.3-13.14 11.3-.5 0-.9 6.2-.9 13.84v13.83l7 7c6.3 6.3 7 7.4 7 10.92-.02 11.57-11.1 16.4-22.04 9.6-7.04-4.4-14.68-4.48-21.65-.27-5.9 3.57-10.8 4.45-14.9 2.67zm34.6-35.03c0-16.2-.35-23.65-1.12-24.13-2.7-1.66-8.63-2.25-13.1-1.3l-4.78 1.04v47.82h19v-23.43zm-11.75-33.16c2.33-.32 6.14-.13 8.46.4 8.27 1.9 9.82-3.1 2.22-7.1-4.05-2.15-13.67-1.96-18.42.35-5.26 2.56-4.23 8.72 1.25 7.43 1.23-.3 4.16-.78 6.5-1.1zM277.5 131c0-3.75-5.6-6.52-13-6.42-8.63.1-14.76 3.7-13.22 7.72.38 1 3.63 1.3 13.36 1.2l12.86-.08v-2.4zm-3.5-28.8c0-15.3.22-17.73 2-21.2 2.83-5.56 2.56-9.34-.92-13.24-2.78-3.1-3.26-3.27-10.08-3.27-7 0-7.24.08-10.58 3.73-3.95 4.3-4.2 6.33-1.42 11.76 1.77 3.48 2 5.9 2 21.7v17.8h19v-17.3z"/><path fill="#485346" d="M59.07 444.92c-22.74-4.52-41.82-18.64-51.33-37.96C-.6 390-.1 402.56.22 219.5l.28-162 2.65-7.78c9.06-26.58 31.7-45 59.86-48.7C68.96.22 105.4 0 184.5.22l113 .32 7.4 2.27c26.04 8 43.76 25.53 50.76 50.2 1.75 6.18 1.84 14.32 1.84 170 0 182.5.54 168.26-6.98 183.5-8.58 17.4-23.38 29.72-44.02 36.64l-7 2.35-118 .15c-64.9.08-120-.25-122.43-.73zm242.43-4.2c3.3-.96 10.18-3.8 15.3-6.3 15.68-7.7 28.72-22.6 34.47-39.43l2.23-6.5.27-162.5c.3-179.9.66-169.66-6.14-183.17-9.37-18.6-25.82-31.7-46.42-36.9-7.58-1.92-11.1-1.97-124.75-1.7L59.5 4.48l-8 2.72c-11.2 3.8-19.72 9.1-27.95 17.35-7.78 7.8-12.46 14.97-16.43 25.18L4.5 56.5l-.27 163.9c-.3 182.55-.8 168.8 6.72 184.14 9.5 19.4 30.8 34.45 52.85 37.36 3.68.48 57.32.8 119.2.7 103.37-.14 112.98-.3 118.5-1.9zM65.2 388.4c-3-2.1-5.2-6.62-5.2-10.72 0-3.9 3.16-8.4 9.6-13.7l4.27-3.5.06-14.26c.04-7.94-.34-14.25-.85-14.25-1.74 0-11.2-8.16-13.14-11.32-4.05-6.65-1.52-14.72 7.65-24.42l5.4-5.72v-22.91l-7-7.2c-6.3-6.5-7-7.64-7-11.22 0-3.33.54-4.4 3.25-6.46 15.06-11.47 39.03-12.93 56.2-3.42 7.3 4.04 10.07 7.43 9.13 11.16-.37 1.48-3.8 6-7.63 10.04L113 267.9v22.34l5.8 6.2c6.95 7.44 9.2 11.8 9.2 17.95 0 3.9-.57 5.2-3.7 8.68-2.03 2.24-5.63 5.42-8 7.05l-4.3 2.96v26.6l5.86 5.1c7.48 6.5 9.6 10.7 8.16 16.1-.62 2.32-2.38 5.05-4.25 6.63-2.8 2.35-3.85 2.63-8.73 2.27-3.9-.28-6.72-1.2-9.53-3.1-3.34-2.28-5.03-2.7-10.68-2.7-3.7 0-7 .45-7.33 1-2.64 4.26-15.9 6.5-20.3 3.43zm36.8-34.4v-24l-2.75-.73c-3.9-1.06-11.62-.72-14.13.63-2.07 1.1-2.12 1.7-2.12 24.6V378h19v-24zm-6-32.5c9.33-.03 9.5-.07 9.5-2.4 0-7.43-23.76-8.2-26.1-.86-.84 2.68 2.14 5.05 5.04 4 1.13-.4 6.33-.73 11.56-.75zm9.8-13.14c.15-1.1-.52-2.7-1.5-3.55-2.14-1.84-7.73-3.84-10.77-3.84-4.32 0-12.5 3.06-13.6 5.1-2.02 3.8.02 4.46 13.26 4.36 11.48-.08 12.3-.22 12.6-2.08zM103 279c0-15.52.23-18.04 2.12-22.58 2.05-4.96 2.06-5.23.36-8.82-2.15-4.52-5.92-6.6-11.98-6.6-11.22 0-16.5 7.93-11.5 17.26 1.86 3.48 1.96 4.93 1.35 21l-.65 17.23H103V279zm134.22 107.53c-1.93-1.62-3.63-4.3-4.3-6.8-1.5-5.58.22-9 8-15.83l6.08-5.35V332.1l-4.3-2.97c-2.38-1.63-5.98-4.8-8-7.05-3.3-3.63-3.7-4.7-3.7-9.4 0-6.2 2.93-11.47 10.37-18.64l4.63-4.46V266.9l-6.96-7.36c-7.05-7.45-9.14-11.56-7.35-14.45.54-.9 2.82-3.02 5.06-4.74 12.38-9.5 37.1-11 52.68-3.18 8.2 4.13 10.56 6.54 10.56 10.86 0 3.52-.77 4.75-7 11.32l-7 7.37v22.5l5.64 6.1c12.64 13.65 12.48 22.6-.58 31.9l-5.96 4.26-.05 13.7-.05 13.7 4.52 3.78c8.88 7.42 11.36 13.76 7.96 20.35-3.4 6.55-13.4 7.8-21.03 2.63-3.25-2.2-5.03-2.67-10.38-2.67-5.4 0-7.1.44-10.35 2.7-2.8 1.92-5.5 2.8-9.6 3.1-5.07.36-6.08.1-8.9-2.27zm37.78-33.5V329.1l-3.75-1.05c-4.7-1.3-6.8-1.3-11.5 0L256 329.1v47.89h19v-23.96zm3.77-34.08c.45-2.34-3.77-5.72-8.47-6.78-4.8-1.08-12.47.05-16 2.35-2.1 1.38-3.06 4.4-1.8 5.65.28.28 6.24.46 13.24.4 10.62-.07 12.78-.34 13.03-1.62zm.06-11.35c1.54-7.96-21.4-10.15-26.15-2.5-2.37 3.83-.53 4.44 12.95 4.34 11.42-.08 12.9-.3 13.2-1.84zM275 278.2c0-15.3.22-17.73 2-21.2 3-5.9 2.62-9.58-1.4-13.6-3.08-3.08-3.95-3.4-9.14-3.4-6.83 0-11.6 2.5-13.5 7.08-1.1 2.67-1 3.73.88 8.26 1.92 4.62 2.16 7.06 2.16 22.26 0 9.38.18 17.25.4 17.48.24.23 4.52.4 9.5.4h9.1V278.2zM66.4 213.62c-4.8-2.17-7.4-6.18-7.4-11.43 0-4.3.4-4.94 7-11.55l7-7v-26.42l-5.85-4.3c-11.6-8.48-13.17-15.2-6.04-25.87 2.28-3.4 5.65-7.38 7.5-8.87l3.4-2.7V91.9l-6.84-7.23c-10.32-10.9-10.32-14.23 0-20.42 7.9-4.73 20.38-7.65 29.8-6.96 9.4.67 19.16 3.68 25.42 7.82 8.88 5.9 8.45 10.13-2.1 20.47L112 91.75v22.78l5.55 5.88c6.77 7.16 9.45 12.16 9.45 17.67 0 5.6-2.73 9.67-10 14.97l-6 4.38v26.11l6.07 5.96c7.96 7.82 9.3 10.38 7.98 15.3-2.64 9.8-12.1 12.56-21.96 6.42-4.37-2.7-6.22-3.25-11.14-3.25-4.93 0-6.62.5-10.2 2.97-5.1 3.56-11.05 4.6-15.35 2.65zm34.6-35.1c0-22.17-.1-23.5-1.94-24.5-2.44-1.3-11.12-1.34-14.5-.05l-2.56.97V202h19v-23.47zm-14.05-32.6c3.65-.8 6.48-.8 10.23.02 4.37.94 5.43.87 6.73-.44 2.03-2 .65-4.37-3.98-6.82-8.38-4.44-25.6 1.18-20.9 6.83 1.46 1.78 1.5 1.8 7.93.4zM104.5 132c0-5.64-13.5-8.5-21.72-4.6-3.54 1.7-5.52 4.58-4.4 6.4.3.48 6.3.8 13.33.73l12.8-.14V132zm-2.5-29.14c0-15.54.24-18.18 2.02-22.22 2.4-5.45 1.92-8.38-2.03-12.17-5.22-5-16.63-4.35-21 1.2-2.35 3-2.6 8.65-.5 12.3 1.08 1.9 1.43 6.78 1.46 20.5l.04 18.02h20v-17.64zm137.4 109.7c-3.94-1.73-7.18-5.86-8-10.2-.8-4.32 2.3-9.32 9.54-15.44l5.06-4.26v-26.22l-6.02-4.4c-7.25-5.27-10.14-9.62-10.23-15.33-.08-5.52 1.96-9.3 9.26-17.1l6-6.4v-22.2l-7-7.1c-9.98-10.14-10.4-13.17-2.6-19.06 10.5-7.93 27.67-10.77 42.5-7.02 13.55 3.43 21.1 8.67 21.1 14.64 0 2.95-1.08 4.62-7 10.86l-7 7.37v23.08l5.45 5.7c9.15 9.5 11.66 17.5 7.6 24.18-1.93 3.16-11.4 11.3-13.14 11.3-.5 0-.9 6.2-.9 13.84v13.83l7 7c6.3 6.3 7 7.4 7 10.92-.02 11.57-11.1 16.4-22.04 9.6-7.04-4.4-14.68-4.48-21.65-.27-5.9 3.57-10.8 4.45-14.9 2.67zm34.6-35.03c0-16.2-.35-23.65-1.12-24.13-2.7-1.66-8.63-2.25-13.1-1.3l-4.78 1.04v47.82h19v-23.43zm-11.75-33.16c2.33-.32 6.14-.13 8.46.4 8.27 1.9 9.82-3.1 2.22-7.1-4.05-2.15-13.67-1.96-18.42.35-5.26 2.56-4.23 8.72 1.25 7.43 1.23-.3 4.16-.78 6.5-1.1zM277.5 131c0-3.75-5.6-6.52-13-6.42-8.63.1-14.76 3.7-13.22 7.72.38 1 3.63 1.3 13.36 1.2l12.86-.08v-2.4zm-3.5-28.8c0-15.3.22-17.73 2-21.2 2.83-5.56 2.56-9.34-.92-13.24-2.78-3.1-3.26-3.27-10.08-3.27-7 0-7.24.08-10.58 3.73-3.95 4.3-4.2 6.33-1.42 11.76 1.77 3.48 2 5.9 2 21.7v17.8h19v-17.3z"/><path fill="#0e1f0b" d="M57.5 444.34c-23.5-5.02-43.57-21.4-52.2-42.63-5.47-13.46-5.27-6.64-5.3-178C0 44.8-.5 56.78 7.7 40 16.3 22.34 33.4 8.47 53.63 2.74L61.5.52l113.4-.3C273.64-.02 289.43.15 297.25 1.5c27.23 4.7 48.7 22.96 57.5 48.97l2.74 8.02v164c0 156.1-.1 164.3-1.84 170.5-5.84 20.67-22.5 39.38-42.23 47.4-14.07 5.7-11.3 5.6-135.14 5.5-96.9-.06-114.84-.3-120.8-1.56zm244.5-3.68c22.3-5.96 40.33-22.16 48.62-43.7l2.88-7.47.27-163c.32-182.7.8-170.14-7.04-185.8-7.6-15.18-21.9-27.08-40.73-33.86l-6.5-2.35-117.2-.28c-132.2-.3-124.88-.7-141.23 7.38C23.74 20.16 9.72 37.3 5.53 55.1 4.23 60.66 4.03 82.76 4 223.36c0 179.2-.46 166.7 6.52 181.14 9.74 20.2 29.95 34.3 53.67 37.44 3.46.46 56.92.75 118.8.65 103.3-.18 113.03-.34 119-1.94zM63.88 386.1C60.58 382.83 60 381.6 60 378c0-3.94.5-4.75 7-11.12l7-6.88-.05-13.74-.05-13.75-5.05-3.5c-13.82-9.58-14.16-18.5-1.23-32.05L73 291.3V266.62l-5.15-4.74c-10.23-9.45-11.25-13.66-4.68-19.28 14.03-12 41.3-12.5 58.56-1.06 8.6 5.7 8 9.43-3.18 20.44l-5.55 5.47V290.94l4.5 4.52c14.56 14.55 13.8 25.56-2.4 35.14l-3.1 1.82v27.42l6.1 5.83c8.5 8.1 9.54 10.35 7.4 15.93-3.35 8.78-11.98 11-20.84 5.4-4.06-2.58-5.7-3-11.45-3-5.77.03-7.3.44-11.1 3-3.43 2.33-5.5 3-9.37 3-4.44 0-5.38-.42-8.85-3.9zM102 354.07c0-21.94-.15-23.97-1.75-24.42-5.26-1.48-8.44-1.63-12.62-.58L83 330.23V378h19v-23.94zm-4.7-32.28l8.83.28-.32-2.78c-.43-3.87-5.54-6.28-13.3-6.28-9.6 0-15.94 4.35-12.45 8.56.9 1.1 2.15 1.27 4.83.7 2-.42 7.58-.64 12.43-.48zm9.17-12.58c1.6-4.15-4.94-7.73-13.97-7.66-8.56.08-14.77 3.7-13.23 7.73.73 1.9 26.47 1.82 27.2-.07zM103 279.06c0-15.68.2-17.87 2.1-21.78 3.9-8.07.2-15.05-8.48-16.03C86.34 240.1 80 243.95 80 251.38c0 2.33.86 5.52 1.97 7.35 1.84 3 1.93 4.45 1.35 20.5l-.62 17.26H103v-17.44zm135.36 108c-4-2.43-6.93-9.46-5.5-13.2.54-1.42 3.94-5.44 7.56-8.94l6.58-6.36-.06-13.53-.05-13.54-5.97-4.26c-13.2-9.4-13.3-18.7-.37-32.04l5.44-5.6V266.3l-6.96-7.06c-7.94-8.06-9.25-11.15-6.37-15.02 2.67-3.57 12.34-8.74 19.93-10.64 15.18-3.8 33.9-.23 43.7 8.37 6.1 5.37 5.27 8.2-5.68 19.16l-4.62 4.63v24.58l5.37 5.65c11.02 11.55 12.22 18.8 4.45 26.74-2.38 2.42-5.8 5.32-7.57 6.44l-3.25 2.02V358.8l7.12 7.1 7.13 7.14-.53 4.7c-.72 6.4-5.8 11.25-11.75 11.25-3.92 0-11.18-2.9-12.47-5-.34-.55-4.17-1-8.5-1-4.34 0-8.17.45-8.5 1-1.27 2.03-8.52 5-12.22 5-2.08 0-5.2-.87-6.92-1.93zm36.4-34.32l-.26-24.25-5.02-.86c-3.27-.55-6.5-.45-9.25.3l-4.23 1.13V377h19.03l-.27-24.26zm3.74-34.7c0-5.66-13.9-8.43-22.62-4.5-3.13 1.42-3.88 2.3-3.88 4.47v2.72l13.25-.1 13.25-.13v-2.45zm0-11c0-4.2-4.65-6.55-12.83-6.5-8.56.03-13.67 2.2-13.67 5.8 0 1.28.2 2.52.43 2.76.25.24 6.2.4 13.25.34 12.7-.1 12.82-.1 12.82-2.4zm-3.5-28.77c0-15.46.2-17.56 2-20.5 2.8-4.62 2.64-10.9-.38-14.43-2.1-2.44-3.2-2.8-9.25-3.1-7.9-.4-12.66 1.73-14.46 6.5-1.07 2.8.42 10.72 2.23 11.84.48.3.87 8.72.87 18.72v18.2h19v-17.23zm-208.74-64.7c-4.14-1.87-7.26-7-7.26-11.97 0-3.5.68-4.56 7-10.67l7-6.8v-14.06c0-7.8-.4-14.08-.92-14.08-1.74 0-11.2-8.16-13.14-11.32-4-6.57-1.6-14 7.68-23.73L72 115.3V91.66l-6.48-6.7c-8-8.3-9.37-11.33-6.74-14.9 2.53-3.44 11.3-8.63 18.13-10.73 7.47-2.3 22.7-2.33 30.1-.08 6.76 2.07 15.68 7.37 18.24 10.85 1.75 2.37 1.8 2.86.44 6-.8 1.86-4.2 6.08-7.57 9.36l-6.1 5.97v23.8l5.8 6.2c12.25 13.1 12.3 20.9.16 30.5-2.83 2.23-5.55 4.06-6.05 4.06s-.9 6.3-.9 14.15v14.15l5.85 5.3c7.05 6.38 9.28 10.43 8.07 14.65-2.28 7.96-8.37 11.8-15.38 9.74-2.22-.66-5.48-2.28-7.23-3.6-2.6-1.97-4.36-2.4-9.67-2.4-5.5 0-7.25.46-11.38 3.03-5.9 3.67-10.66 4.47-15 2.53zM101 178.1c0-27.14.74-25.1-9.15-25.1-10.42 0-9.85-1.47-9.85 25.53V202h19v-23.9zm-7-32.26c10.95.77 10.47.86 10.8-2.04.27-2.28-.32-3.03-3.7-4.75-7.96-4.06-23.1-1.3-23.1 4.23 0 3.5.9 3.92 6.47 3.04 2.77-.44 7.05-.65 9.53-.48zm11-13.38c0-5-8.85-8.3-17.33-6.5-6.2 1.34-9.67 3.45-9.67 5.9 0 1 .2 2 .47 2.28.26.26 6.34.47 13.5.47 12.67 0 13.03-.04 13.03-2.14zm-3-30.15c0-10.7.4-18.44.97-18.8.53-.32 1.45-2.36 2.03-4.5 2.16-8.04-3.18-14-12.52-14-4.94 0-7.65 1.03-11.23 4.3C78.6 71.7 78.22 78 80.5 82c1.08 1.9 1.43 6.78 1.46 20.5l.04 18.02h20v-18.2zm138.64 110.66c-3.83-1.14-6.62-3.76-8.34-7.82-2.2-5.2-.9-8.26 6.75-15.63l6.95-6.7-.03-13.65-.03-13.66-4.07-2.5c-5.93-3.65-11.85-10.43-12-13.73-.3-7.25 1.84-11.68 9.57-19.85l5.56-5.88V90.63l-6.94-7.15c-9.82-10.13-10.2-13.38-2.16-18.94 13.94-9.66 36.4-11.02 51.96-3.13 14.16 7.17 14.52 12 1.8 23.87L285 89.63v24.6l5.65 6.1c12.47 13.47 12.1 22.08-1.35 31.35l-5.3 3.65v28.42l4.56 3.74c6.78 5.55 9.84 10.63 9.1 15.13-.68 4.25-3.86 8.07-8.28 9.95-3.77 1.6-8.97.45-14.32-3.2-5.08-3.44-15.78-3.45-20.38 0-2.87 2.15-5.17 3.12-9.68 4.1-.83.18-2.8-.06-4.36-.52zM274 177v-23.97l-2.7-.68c-3.67-.92-10.2-.94-13.55-.05l-2.75.73V201h19v-24zm-12.83-32.54c2.03-.36 6.05-.16 8.94.46 4.32.93 5.52.88 6.68-.3 5.9-5.88-12.28-11.62-21.78-6.87-5.53 2.75-5.12 9.06.5 7.82 1.1-.24 3.65-.74 5.67-1.1zm16.62-13.02c.42-3-2.75-5.33-9-6.64-4.73-1-6.27-.9-11.4.77-3.96 1.3-6 2.52-6.24 3.73-.74 4.02.14 4.3 13.48 4.25 12.2-.05 12.87-.16 13.15-2.1zm-3.8-29.17c0-15.46.2-17.56 2-20.5 2.22-3.66 2.6-10.42.7-12.82-4.33-5.52-14.6-6.84-20.77-2.7-4.9 3.3-5.82 7.5-3.1 14.07 1.93 4.64 2.17 7.07 2.17 22.2v16.97h19v-17.23z"/><path d="M57.5 444.34c-23.5-5.02-43.57-21.4-52.2-42.63-5.47-13.46-5.27-6.64-5.3-178C0 44.8-.5 56.78 7.7 40 16.3 22.34 33.4 8.47 53.63 2.74L61.5.52l113.4-.3C273.64-.02 289.43.15 297.25 1.5c27.23 4.7 48.7 22.96 57.5 48.97l2.74 8.02v164c0 156.1-.1 164.3-1.84 170.5-5.84 20.67-22.5 39.38-42.23 47.4-14.07 5.7-11.3 5.6-135.14 5.5-96.9-.06-114.84-.3-120.8-1.56zm244.5-3.68c22.3-5.96 40.33-22.16 48.62-43.7l2.88-7.47.27-163c.32-182.7.8-170.14-7.04-185.8-7.6-15.18-21.9-27.08-40.73-33.86l-6.5-2.35-117.2-.28c-132.2-.3-124.88-.7-141.23 7.38C23.74 20.16 9.72 37.3 5.53 55.1 4.23 60.66 4.03 82.76 4 223.36c0 179.2-.46 166.7 6.52 181.14 9.74 20.2 29.95 34.3 53.67 37.44 3.46.46 56.92.75 118.8.65 103.3-.18 113.03-.34 119-1.94z"/></g></g></svg>