<svg xmlns="http://www.w3.org/2000/svg" width="358.506" height="446.549" viewBox="0 0 358.50583 446.54938"><g><g><path fill="#dc8c8f" d="M63.17 445.8c-29.48-3.87-53.3-24.42-61.33-52.88C.1 386.74 0 378.37 0 223.42 0 40.2-.63 55.95 7.68 38.92 11 32.1 13.5 28.72 20.4 21.82c9.5-9.47 17.65-14.6 29.95-18.8L58 .43l118-.3C307.9-.17 301.3-.5 317 6.87c15.85 7.42 27.23 18.5 34.48 33.56 7.48 15.54 7.03 3.84 7 182.7 0 179.38.48 167.4-7.37 183.3-9.2 18.63-25.77 31.9-47.6 38.08-6.1 1.74-13.04 1.85-120 2.02-62.6.1-116.55-.22-120.33-.72zm236.13-5.44c11.47-2.33 24.33-8.93 32.98-16.93 12.3-11.4 19.3-25.12 21.32-41.88.62-5.13.87-65.96.67-164.63-.36-172.7.17-159.02-6.63-173.54-9.72-20.78-29.57-34.98-53.72-38.44-5.63-.8-40.2-1.04-119.9-.8C48.4 4.5 58.27 3.9 41.5 12.07c-6.86 3.34-10.16 5.8-17.06 12.74-9.8 9.84-14.85 18.5-17.98 30.7-1.92 7.52-1.97 11.7-1.95 167.3.02 176.12-.32 166.58 6.4 180.4 9.05 18.67 27.1 32.67 48 37.2 4.83 1.07 29.28 1.35 119.37 1.42 98.9.07 114.28-.12 121-1.48zM75.43 394c-2.12-2.13-2.92-3.9-2.92-6.45 0-3 .77-4.18 5-7.83l5-4.3v-9l-.03-9-4.55-3c-4.64-3.06-7.4-6.9-7.4-10.28 0-2.63 5.27-10.3 8.93-13.02 2.93-2.17 3.06-2.57 3.06-9.63v-7.38l-5.5-5.3c-6.54-6.3-7.2-9.56-2.55-12.86 10.83-7.7 30.98-8.58 44.8-1.93 9.35 4.5 9.54 8.25.76 15.44l-4.5 3.7v7.66c0 7.67.02 7.68 4.1 11.63 8.28 8.03 9.2 14.14 3 19.76-2.15 1.94-4.85 4.03-6 4.65-1.88 1-2.1 2-2.1 10.08 0 4.93.38 8.97.83 8.97.45 0 2.93 2 5.5 4.48 5.4 5.17 6.08 8.8 2.43 13-3.42 3.93-8.37 4.3-15.28 1.13-7.12-3.26-10.82-3.3-17.62-.12-7.26 3.4-11.24 3.28-14.93-.4zM105.5 372c0-17.65.23-17.1-7-17.1-7.2 0-7-.55-7 17.1v15.9h14v-15.9zm2.26-23.37c-.14-.4-.25-1.15-.25-1.66 0-1.7-7.02-3.3-11.55-2.63-4.34.65-7.92 2.96-6.98 4.5.6.97 19.13.77 18.8-.22zm.75-7.7c0-.55-1.16-1.76-2.6-2.7-4.75-3.1-16.4-1.55-16.4 2.2 0 1.18 1.84 1.47 9.5 1.47 5.53 0 9.5-.4 9.5-.98zm-2.96-20.53c.03-8.97.4-12.5 1.5-13.95 3.66-4.83-.22-10.55-7.16-10.55-8.74 0-12.15 4.03-9 10.63 1.2 2.55 1.63 6.33 1.63 14.65v11.22h13l.04-12zm54.97 75.27c-1.36-.73-3.25-2.84-4.2-4.7-2.1-4.24-.9-7.04 5.1-11.88l4.1-3.3v-9.24c0-9.12-.02-9.25-2.88-10.94-4.04-2.4-9.1-8.4-9.1-10.8 0-3.06 2.38-7 6.9-11.38l4.1-3.95v-16.8l-5-4.7c-6.88-6.44-6.83-9 .24-13.04 9.97-5.7 24.72-6.94 36.9-3.1 6.47 2.02 12.85 6.54 12.85 9.1 0 .66-2.46 3.7-5.5 6.76l-5.5 5.55v8.3c0 7.72.18 8.4 2.48 9.92 3.5 2.28 8.53 10.25 8.53 13.5 0 2.97-3.93 7.6-9.04 10.6-2.92 1.73-2.95 1.85-2.95 10.7v8.95l5.5 5.12c6.55 6.1 6.9 8.35 2.1 13.15-4.13 4.14-7.07 4.32-14.44.9-6.5-3.04-11.8-3.18-17-.46-5.17 2.7-10.06 3.33-13.15 1.73zm27-24.28v-16.5h-4.9c-8.47 0-8.1-.8-8.1 17.1v15.9h13v-16.5zm3.02-22.75c0-.42 0-1.16 0-1.66 0-1.2-5.6-3.08-9.2-3.08-3.95 0-9.8 2.58-9.8 4.33 0 1.16 1.83 1.4 9.5 1.3 5.22-.07 9.5-.47 9.5-.88zm1-8.22c0-2.3-4.03-3.87-10-3.87-6 0-10 1.56-10 3.87 0 1.2 1.88 1.47 10 1.47 8.1 0 10-.28 10-1.47zm-2.97-19.53c.02-8.08.46-12.25 1.46-14 3.66-6.4.4-11-7.77-11-3.24 0-6.16.62-7.6 1.62-2 1.4-2.22 2.15-1.62 5.75.4 2.26.9 9.74 1.16 16.62l.46 12.5h13.89l.05-11.5zm48 73.25c-1.63-1.52-3.26-4.02-3.63-5.58-.58-2.5 0-3.48 4.97-8.28l5.6-5.45-.04-8.73-.06-8.72-4.7-3.1c-9.14-6-9.48-12-1.13-20.66l4.94-5.13v-15.2l-4.9-4.83c-6.36-6.26-6.82-8.1-2.92-11.74 10.5-9.8 42-9.18 51.2 1.02 1.65 1.8 1.73 2.48.66 5.08-.7 1.64-3.22 4.6-5.64 6.6l-4.4 3.6v8.03c0 7.46.2 8.17 2.62 10.08 4.43 3.48 8.4 9.77 8.4 13.3 0 3.9-3.32 8.2-8.43 10.96l-3.6 1.93v17.74l5.02 4.5c5.74 5.18 6.78 7.9 4.62 12.07-2.92 5.65-9.9 6.53-17.9 2.24-4.98-2.66-10.2-2.5-16.15.52-6.54 3.32-10.75 3.24-14.54-.25zm28.74-22.5l-.3-16.25-3.9-.32c-2.14-.18-4.95-.06-6.24.26-2.34.6-2.35.64-2.35 16.57v16H265.57l-.27-16.26zm3.2-23.3c0-3.64-9.42-5.56-15.27-3.1-2.04.84-3.72 2.18-3.72 2.96 0 1.12 1.97 1.4 9.5 1.37 6.7-.03 9.5-.4 9.5-1.24zm.48-7.4c1.14-1.85-4.55-4.44-9.58-4.36-4.74.08-9.9 2.33-9.9 4.34 0 1.27 18.7 1.3 19.48.02zm-2.43-20.55c.02-8.52.45-12.73 1.46-14.5 2.02-3.5 1.86-4.75-.94-7.55-1.9-1.9-3.5-2.45-7.07-2.45-8.2 0-11.45 3.6-8.87 9.87.9 2.2 1.38 7.36 1.38 15v11.62h14l.05-12zM75.6 273.32c-2.4-2-3.1-3.4-3.1-6.15 0-3 .8-4.3 5-8.16l5-4.6-.02-9-.04-8.98-4.5-2.85c-9.18-5.83-9.33-12.4-.46-21.12l5.03-4.96v-14.15l-5.5-5.43c-7.17-7.1-7.37-9.82-1-13.56 7.2-4.2 14.67-5.73 25.5-5.18 13.93.7 25 5.6 25 11.06 0 1.1-2.46 4.4-5.5 7.4l-5.5 5.4v7.44c0 7.43.02 7.45 4.08 11.1 4.93 4.47 6.93 8.12 6.93 12.67 0 2.72-.8 4.16-3.9 6.97-2.15 1.94-4.85 4.03-6 4.65-1.87 1-2.1 2.02-2.1 9.65v8.54l5.5 5.03c6.6 6.02 7.22 9.27 2.6 13.9-3.57 3.55-8.44 3.84-14.95.9-5.6-2.55-12.62-2.54-17.64.02-5.5 2.8-10.62 2.6-14.4-.6zm29.9-22.36V235l-3.5-.65c-1.9-.36-5.06-.36-7 0l-3.5.66v31.92h14v-15.96zm2.76-23.4c-.76-2.4-7.1-4.76-11.25-4.14-4.43.66-8.84 3.1-8.02 4.45.86 1.38 19.7 1.1 19.28-.3zm.02-7.45c.8-2.42-4.64-4.43-10.8-4-6.2.46-8.6 1.7-7.73 4 .63 1.65 17.98 1.66 18.53 0zM105.55 200c.02-8.14.46-12.3 1.46-14.06 3.4-5.94-.27-11-8-11-7.7 0-11.38 5.06-8 11 1.02 1.75 1.45 5.92 1.48 14.06l.03 11.56h13l.05-11.56zm53.06 73.2c-5.17-4.86-5-6.67 1.32-12.98l5.6-5.6v-9.12c0-9-.05-9.16-2.9-10.84-4.23-2.5-9.1-8.45-9.1-11.1 0-2.5 4.07-8.6 8.36-12.55 2.44-2.25 2.63-3.05 2.63-10.7v-8.25l-5-4.73c-2.98-2.84-5-5.6-5-6.9 0-5.42 10.8-10.46 24.13-11.25 9.9-.6 17.08.76 24.2 4.56 8.2 4.4 8.25 6.36.26 14.14l-4.6 4.46v16.18l4.1 3.96c8.25 8 8.97 12.86 2.77 18.6-2.28 2.1-4.98 4.08-6 4.4-1.63.52-1.86 1.7-1.86 9.72v9.12l5.5 5.24c3.37 3.2 5.5 6.1 5.5 7.4 0 1.2-1.52 3.7-3.4 5.58-4 4.02-7.7 4.4-13.6 1.4-5.14-2.63-13.36-2.64-19.13-.03-6.2 2.8-10.2 2.6-13.76-.73zm28.7-22.5l-.3-16.26-3.9-.32c-2.14-.18-4.95-.06-6.24.26-2.34.6-2.35.64-2.35 16.57v16H187.57l-.27-16.26zm4.2-22.76c0-1.9-3.24-3.92-7.25-4.5-5.12-.77-12.07 1.28-12.54 3.68-.27 1.5.86 1.7 9.75 1.7 5.53 0 10.06-.4 10.06-.88zm-.23-7.76c1.3-3.96-13.43-5.95-17.8-2.4-1.25 1-2.02 2.25-1.7 2.76.8 1.3 19.05.96 19.5-.36zm-2.72-20.14c.02-8.17.46-12.34 1.46-14.1 2.04-3.54 1.84-6.02-.66-8.7-1.72-1.82-3.24-2.3-7.28-2.3-3.1 0-6.02.64-7.42 1.62-2.02 1.4-2.23 2.15-1.63 5.75.4 2.26.9 9.8 1.16 16.72l.46 12.6h13.89l.05-11.6zm48.24 74.12c-1.23-.95-2.74-3.2-3.37-5-1.36-3.94-.03-6.43 6.07-11.33l4-3.22V237l-4.44-3.05c-5.37-3.7-7.55-6.6-7.55-10.06 0-3.24 5.04-11.3 8.45-13.54 2.4-1.57 2.56-2.17 2.56-10v-8.3l-4.4-3.63c-2.44-2-4.9-5-5.5-6.68-.96-2.76-.78-3.32 1.86-5.8 4.78-4.45 12.9-6.53 25.55-6.53 12.43 0 18.9 1.68 24.5 6.35 3.27 2.72 3.34 2.94 2.06 6.03-.73 1.77-3.3 4.82-5.7 6.8l-4.35 3.56v8.34c0 7.28.26 8.48 1.98 9.4 3.63 1.94 9.03 10.07 9.03 13.58 0 3.78-3.3 8.23-8.53 11.46l-3.46 2.14v17.34l5 4.3c5.77 4.96 6.82 7.73 4.58 12.06-2.87 5.56-8.63 6.65-16.43 3.1-5.66-2.56-13.08-2.55-18.14.04-4.78 2.44-10.73 2.54-13.7.22zm28.7-23.12c0-13.57-.22-15.98-1.57-16.5-2-.77-6.25-.76-9.17.03-2.2.6-2.25.86-2.25 16.48v15.9h13v-15.9zm2.8-23.98c-.17-.9-2.17-2.2-4.5-2.95-3.47-1.12-4.96-1.1-8.97.02-2.88.82-4.93 2-5.12 2.98-.26 1.4.98 1.62 9.3 1.6 8.3-.04 9.57-.26 9.3-1.66zm.98-6.56c.34-.34-.16-1.4-1.1-2.34-2.42-2.4-14.86-2.46-17.25-.07-.9.9-1.42 2.03-1.13 2.5.58.95 18.53.86 19.48-.1zm-2.77-20.66c0-8.4.43-12.48 1.5-14.54 2.04-3.9 1.9-5.06-.94-7.9-1.8-1.8-3.54-2.46-6.46-2.46-8.2 0-11.98 3.96-9.48 9.92.92 2.2 1.4 7.27 1.4 15.05v11.73l7-.07 7-.06v-11.68zM75.16 155.28c-4.1-4.1-3.62-8.35 1.56-13.33 2.32-2.22 4.57-4.03 5-4.03.45 0 .8-4.24.8-9.4v-9.42l-5.02-3.6c-8.8-6.32-8.88-11.33-.38-20.5l5.4-5.85v-13.8L77 70.2c-6.45-6.08-7-8.82-2.52-12.58 5.14-4.33 12.35-6.18 24.03-6.18 7.55 0 12.06.5 16 1.84 6.78 2.26 12 6.1 12 8.78 0 1.1-2.46 4.62-5.5 7.8l-5.5 5.76v7.26c0 6.64.24 7.44 2.62 9.32 4.74 3.72 8.4 9.74 8.4 13.8 0 4.13-3.58 8.63-9.1 11.5-2.87 1.47-2.9 1.6-2.9 10.2l.02 8.74 5.48 4.8c6.6 5.8 7.23 9.1 2.57 13.77-3.57 3.55-8.44 3.84-14.95.9-5.58-2.54-12.15-2.53-17.14.02-5.73 2.92-12.05 2.66-15.35-.64zm30.36-22.32V117l-3.56-.66c-1.96-.37-5-.26-6.75.24l-3.2.9-.26 15.72-.28 15.72H105.5v-15.96zm3-22.73c.3-.27-.55-1.35-1.85-2.4-4.58-3.7-20.5-1.48-17.27 2.43.93 1.12 17.97 1.1 19.13-.03zm-.5-8.4c0-3.36-10.58-5.2-15.94-2.75-1.4.63-2.55 1.88-2.55 2.76 0 1.37 1.4 1.6 9.26 1.5 7.1-.1 9.25-.45 9.25-1.5zm-2.45-19.66c.02-8.3.45-12.5 1.46-14.25 2.2-3.82 1.8-6.63-1.24-9.03-2.2-1.75-3.7-2.1-7.5-1.73-2.63.25-5.66 1.26-6.76 2.25-2.34 2.13-2.6 6.32-.52 9.05 1.1 1.45 1.48 4.95 1.5 13.7l.03 11.75h13l.05-11.75zm131.7 74.67c-2.58-1.5-5-6.8-4.3-9.48.3-1.28 2.82-4.23 5.57-6.55l5-4.2v-17.52l-3.47-2.14c-10.58-6.54-11.07-13.33-1.62-22.48l4.08-3.95V74.1l-4.02-3.2c-4.54-3.58-7.25-8.05-6.34-10.43.93-2.44 8.2-6.28 15.4-8.12 15.66-4.02 39.97 2.22 39.97 10.25 0 .97-2.46 4.1-5.5 6.96l-5.5 5.2v8.02c0 7.77.1 8.1 3 10.15 3.7 2.64 8 9.8 8 13.28 0 3.07-3.74 7.8-8.53 10.76l-3.46 2.14v17.17l5.65 5.25c5.22 4.86 5.6 5.5 5 8.6-1.4 7.3-9.5 9.97-17.64 5.82-2.3-1.2-5.88-2-8.74-2-2.85 0-6.43.8-8.75 2-4.2 2.14-10.88 2.58-13.74.92zM265.52 133v-15.93l-2.9-.64c-1.6-.35-4.53-.33-6.5.04l-3.6.67v31.78h13V133zm3-23.62c0-2.15-3.36-3.46-8.88-3.46-5.52 0-10.1 1.62-10.1 3.57 0 1.8.98 1.95 10.47 1.6 6.45-.25 8.5-.67 8.5-1.72zm0-6.76c0-.4 0-1.1 0-1.58 0-1.78-6.1-3.37-11.07-2.9-4.9.48-8.7 2.7-7.63 4.44.63 1 18.7 1.05 18.7.04zm-2-20.55c0-8.9.4-12.65 1.63-15.1 2.9-5.82-.98-10.05-9.26-10.05-2.56 0-4.32.8-6.47 2.95-2.9 2.9-2.93 3-1.42 6.62 1.08 2.6 1.53 7.13 1.53 15.54v11.88h14V82.07zm-107.25 72.85c-3.37-2.65-4.86-6.97-3.37-9.77.63-1.17 3.05-3.76 5.4-5.76l4.23-3.64v-9.2c0-9.1-.02-9.23-2.88-10.92-4.04-2.4-9.1-8.4-9.1-10.8 0-3.06 2.38-7 6.9-11.38l4.1-3.95V72.7l-5-4.7c-6.6-6.2-6.74-8.98-.6-12.6 5.23-3.05 8.93-4.2 17.22-5.4 11.25-1.64 28.4 2.96 32.08 8.6 1.8 2.72 1 4.3-5.13 10.27l-4.6 4.46V89.5l4.1 3.96c8.18 7.93 8.9 12.54 2.84 18.4-2.25 2.2-4.95 4.24-6 4.58-1.72.54-1.93 1.6-1.93 9.7v9.1l5.5 5.13c6.55 6.1 6.9 8.35 2.1 13.15-4.13 4.14-7.07 4.32-14.44.9-6.75-3.16-11.35-3.16-17.57 0-5.95 3-10.45 3.18-13.85.5zm28.04-23.25l-.3-16.25-3.9-.32c-2.14-.18-4.95-.06-6.24.26-2.34.6-2.35.64-2.35 16.57v16H187.57l-.27-16.26zm3.22-23c0-.42 0-1.16 0-1.66 0-1.2-5.6-3.08-9.2-3.08-4 0-9.8 2.6-9.8 4.37 0 1.2 1.7 1.44 9.5 1.3 5.22-.1 9.5-.52 9.5-.93zm.88-7.33c.94-.9-2.4-3.47-5.64-4.37-6.45-1.78-17.68 2.2-13.5 4.8 1.07.65 18.4.26 19.14-.43zm-2.85-20.38c.02-8.12.46-12.3 1.46-14.04 3.66-6.4.4-11-7.77-11-3.24 0-6.16.62-7.6 1.62-2 1.4-2.22 2.15-1.62 5.75.4 2.26.9 9.76 1.16 16.66l.46 12.54h13.89l.05-11.54z"/><path fill="#8d958c" d="M64 445.86c-16.5-1.98-31.04-9.27-43.6-21.9-6.8-6.85-9.44-10.38-12.73-17.1C-.63 389.94 0 405.6 0 222.93c0-154.2.1-162.84 1.83-169C7.73 32.88 21.07 17.06 41 7.42c16.54-8 9.2-7.6 141.5-7.3l117.5.3 8.77 3.13c11.6 4.15 18.58 8.4 27.45 16.76 8.62 8.12 15.06 18 18.98 29.12l2.8 8 .3 162.5c.3 181.65.74 169.84-6.82 185.5-9.05 18.74-26.24 32.7-47.83 38.8-7.6 2.15-8.12 2.16-120.14 2.3-61.86.1-115.64-.2-119.5-.66zm243-7.25c26.36-9.24 43.02-29.25 46.5-55.84.77-5.82 1-55.85.8-165.34-.36-175.6.3-160.48-7.55-176.5-2.78-5.7-5.73-9.57-12.2-16.03-9.64-9.65-17.76-14.47-30.58-18.18L296 4.42H179c-110.62 0-117.34.1-123.5 1.84C35.3 12 19.6 24.74 11 42.43c-6.86 14.12-6.46 3-6.47 180.58-.02 156.6.03 160.8 1.95 168.3 3.05 11.93 8.25 20.88 17.57 30.25 6.7 6.75 9.72 8.93 17.53 12.7 16.44 7.94 8.9 7.55 140.43 7.35l117-.18 8-2.8zM77.3 395.37c-6.47-3.5-6.4-8.67.2-14.85l5-4.66v-18.42l-4.73-3.52c-5.47-4.04-7.6-7.75-6.66-11.52.37-1.45 3.1-5.24 6.04-8.43l5.37-5.8V313.1l-5-4.2c-5.82-4.87-7.1-8.1-4.36-11.13 6.7-7.4 26.43-10.37 40.15-6.03 6.86 2.17 13.2 6.4 13.2 8.8 0 .84-2.46 4.12-5.5 7.3l-5.5 5.76v8.04c0 7.5.18 8.16 2.53 9.7 4.22 2.76 8.48 9.5 8.48 13.38 0 2.82-.8 4.24-4.13 7.33-2.28 2.1-4.98 4.1-6 4.4-1.63.53-1.86 1.7-1.86 9.62v9.02l5.5 5.2c6.54 6.17 6.9 8.43 2.1 13.22-4.15 4.15-7.35 4.36-14.17.9-2.8-1.43-6.63-2.5-8.92-2.5-2.27 0-6.1 1.07-8.9 2.5-5.6 2.83-8.88 3.07-12.8.94zm28-23.7l-.3-16.24-4.4-.32c-9.44-.67-9.1-1.32-9.1 16.83v16H105.57l-.27-16.26zm3.2-23.43c0-1.77-5.9-4.3-10-4.3-3.5 0-10 2.44-10 3.77 0 1.67 1 1.85 10.5 1.9 7.55.03 9.5-.25 9.5-1.37zm-.18-8.06c-.57-2.97-7.4-4.6-13.56-3.26-4.12.9-5.25 1.57-5.25 3.1 0 1.76.8 1.92 9.6 1.92 8.56 0 9.52-.2 9.22-1.75zm-2.77-19.25c.02-8.08.46-12.25 1.46-14 3.66-6.4.4-11-7.77-11-6.73 0-9.72 1.95-9.72 6.36 0 1.8.67 4.13 1.48 5.2 1.1 1.43 1.48 4.9 1.5 13.44l.03 11.5h13l.05-11.5zm132.2 74.5c-1.23-.9-2.97-3-3.84-4.7-2-3.88-.84-6.37 5.3-11.4l4.3-3.54v-9.22c0-9.1-.02-9.23-2.88-10.92-4.04-2.4-9.1-8.4-9.1-10.8 0-3.06 2.38-7 6.9-11.38l4.1-3.95v-17.16l-4.58-3.82c-7.85-6.57-7.74-9.5.55-14 10.4-5.67 24.9-6.46 38.13-2.07 4.93 1.64 10.88 6.3 10.88 8.5 0 .67-2.46 3.72-5.5 6.77l-5.5 5.55v16.22l4.1 3.96c8.57 8.3 8.97 12.42 1.8 18.86-2.8 2.53-5.5 4.6-6 4.6s-.9 4.12-.9 9.17v9.15l5.64 5.25c5 4.64 5.56 5.56 4.97 8.08-.9 3.84-5.95 8.34-9.35 8.33-1.5 0-5.15-1.12-8.1-2.5-6.52-3.03-11.8-3.16-17.1-.4-5.54 2.9-10.97 3.45-13.8 1.42zm27.76-24v-16.5h-4.9c-8.47 0-8.1-.8-8.1 17.1v15.9h13v-16.5zm3-23.6c0-3.7-13.66-5.08-17.64-1.78-3.34 2.77-1.43 3.6 8.15 3.56 8.36-.04 9.5-.26 9.5-1.8zm1-6.65c-.12-5.8-20-6.52-20-.72 0 1.2 1.9 1.47 10 1.47 5.5 0 10-.34 10-.75zm-2.95-20.25c.02-8.08.46-12.25 1.46-14 3.62-6.3.4-11-7.55-11-8.78 0-12.08 3.34-9.46 9.6 1.06 2.55 1.5 7.12 1.5 15.27v11.62h14l.05-11.5zm-108.58 72.54c-4.6-4.6-2.3-10.67 6.2-16.24 2.16-1.42 2.34-2.2 2.34-10.35v-8.82l-3.24-2.23c-7.13-4.9-8.75-7.03-8.75-11.53 0-3.8.64-4.95 5.5-10.2l5.5-5.95V313.1l-4.94-4.14c-7.55-6.32-7.87-10.1-1.2-13.85 12.42-6.96 33.74-6.54 45.8.9 5.17 3.2 4.63 6.43-2.15 12.74l-5.5 5.12.02 7.28v7.28l4.92 4.74c6.27 6.05 8.03 10.82 5.63 15.28-.94 1.74-3.7 4.43-6.13 5.97l-4.43 2.8v18.09l5 4.62c5.7 5.25 6.5 8.85 2.94 13.36-1.7 2.14-2.9 2.64-6.54 2.64-2.5 0-6.2-.9-8.4-2-2.22-1.14-5.88-2-8.5-2-2.6 0-6.26.86-8.5 2-5.63 2.87-12.4 2.67-15.53-.46zm30.32-21.76l-.3-16.2-3.24-.94c-2-.58-4.5-.58-6.5 0l-3.25.93-.26 16.2-.28 16.22h14.11l-.27-16.22zm2.92-22.15c.3-.3.27-1.25-.06-2.1-1.44-3.76-13.7-4.92-17.7-1.7-4.27 3.46-2.1 4.68 8 4.5 5.07-.1 9.46-.4 9.76-.7zm.1-8.9c.42-2.14-4.67-4.73-9.3-4.73-6.4 0-12.47 3.7-10.03 6.14.25.27 4.64.43 9.74.36 7.72-.1 9.32-.4 9.58-1.76zm-2.8-19.54c0-8.83.36-12.3 1.46-13.74 1.7-2.26 1.95-5.8.57-8.37-2.46-4.6-12.2-5.16-16.68-.95-2.74 2.57-2.92 4.27-.85 8.23 1.08 2.07 1.5 6.15 1.5 14.75v11.9h14V321.1zM75.4 273c-4.5-4.54-4-7.93 2.1-13.4l5-4.5v-9.37c0-9.28-.04-9.4-2.9-11.1-3.86-2.27-9.1-8.36-9.1-10.55 0-2.52 5.08-10.22 8.82-13.37 3.05-2.55 3.17-2.95 3.17-10.24v-7.6l-5.57-5.4c-6.66-6.45-6.82-8.65-.92-12.73 10.3-7.1 30.9-7.75 43.5-1.35 8.7 4.4 8.96 6.8 1.5 13.9l-5.5 5.25v8.12c0 7.53.2 8.27 2.58 10.14 4.7 3.7 8.43 9.24 8.43 12.53 0 4-1.96 6.78-7.53 10.62L114.5 237v17.6l4.95 4.16c5.66 4.78 6.73 7.14 5.05 11.18-2.47 5.98-8.23 7.4-15.85 3.95-2.58-1.18-6.5-1.98-9.64-1.98-3.1 0-7.05.8-9.63 1.97-6.36 2.88-10.4 2.62-13.94-.9zm30.1-21.98c0-17.45.1-17.12-6.34-17.1-7.97.04-7.67-.63-7.67 17.1v15.9h14v-15.9zm2.8-23.92c-1.04-5.34-19.8-4.56-19.8.82 0 .48 4.52.87 10.05.87 8.9 0 10.03-.2 9.74-1.7zm-.02-7.36c.4-2.1-4.06-3.82-9.9-3.82-5.8 0-8.9 1.32-8.9 3.8 0 1.52 1.1 1.7 9.26 1.6 7.27-.08 9.3-.42 9.54-1.58zm-2.76-19.76c.03-8.58.4-12.07 1.5-13.5 2.07-2.74 1.83-7.2-.53-9.56-2.33-2.35-9.97-2.74-14-.72-3.07 1.55-3.86 6.74-1.56 10.25 1.2 1.82 1.57 5.12 1.57 13.74v11.34h13l.04-11.56zm55.33 74.98c-2.93-1.23-5.36-4.93-5.36-8.17 0-1.98 1.47-4 5.5-7.7l5.5-5.04v-8.54c0-7.63-.2-8.65-2.08-9.65-1.15-.62-3.85-2.7-6-4.65-6.2-5.62-5.28-11.73 3-19.76 4.05-3.9 4.1-4.03 4.1-11.18v-7.24l-5.6-5.5c-6.5-6.38-6.78-8.8-1.47-12.37 11.45-7.7 34.08-7.72 46.8-.05 5 3 4.45 6.2-2.24 12.8l-5.5 5.43v14.14l5.05 4.95c8.86 8.73 8.72 15.3-.48 21.12l-4.5 2.85-.02 9.75c-.02 5.36.34 9.75.8 9.75.45 0 2.7 1.73 5 3.84 4.98 4.6 5.7 9.38 1.9 12.9-3.72 3.5-6.85 3.67-13.95.83-7.7-3.08-12.4-3.26-17.5-.65-4.7 2.4-10.1 3.3-12.93 2.1zm27.42-24.3l-.3-16.24h-13l-.26 16.25-.28 16.25h14.11l-.27-16.25zm3.02-23c.2-1-.9-2.26-2.9-3.3-6.1-3.15-18.27-.42-16.67 3.73.38.98 2.96 1.3 9.88 1.27 7.87-.04 9.42-.32 9.7-1.7zm-.02-7.87c.35-1.84-5.24-4.9-8.94-4.88-3.33 0-9.66 1.88-10.4 3.08-1.75 2.83.46 3.63 9.7 3.5 7.7-.1 9.38-.4 9.64-1.7zm-2.76-19.38c.03-8.97.4-12.5 1.5-13.95 5.4-7.14-3.66-15.03-12.86-11.2-5 2.1-6.67 5.84-4.38 9.83 1.36 2.36 1.7 5.5 1.7 15.15v12.17h14l.04-12zm48.07 72.75c-5.17-4.85-5-6.66 1.32-12.97l5.6-5.6v-9.34c0-5.14-.38-9.34-.83-9.34-1.85 0-9.17-6.55-10.25-9.16-1.7-4.08-.57-7 5.06-13.15l5-5.46v-16.1l-5-4.73c-5.84-5.54-6.3-8.14-2.02-11.72 5.24-4.4 12.32-6.2 24.53-6.16 9.04.03 12.02.44 16.65 2.28 5.72 2.3 10.86 6.18 10.86 8.22 0 .62-2.46 3.72-5.5 6.9l-5.5 5.76v15.91l4.1 3.96c8.18 7.93 8.9 12.54 2.84 18.4-2.25 2.2-4.95 4.24-6 4.58-1.72.54-1.93 1.6-1.93 9.74v9.12l5.5 5.24c3.37 3.2 5.5 6.1 5.5 7.4 0 1.2-1.52 3.7-3.4 5.58-4 4.02-7.7 4.4-13.6 1.4-5.14-2.63-13.36-2.64-19.13-.03-6.2 2.8-10.2 2.6-13.76-.73zm28.7-22.5l-.3-16.25-3.9-.32c-2.14-.18-4.95-.06-6.24.26-2.34.6-2.35.64-2.35 16.57v16H265.57l-.27-16.26zm3.2-23.2c0-5.25-17.78-5.58-18.8-.36-.27 1.5.8 1.7 9.25 1.68 7.17-.02 9.56-.35 9.56-1.32zm.78-7.34c.83-2.5-4.62-4.46-11.27-4.03-6.63.42-9.15 1.65-8.24 4.02.65 1.68 18.95 1.7 19.52 0zm-2.73-20.1c.02-8.18.46-12.35 1.46-14.1 3.55-6.2-.25-11-8.67-11-6.28 0-10.25 3.32-9.2 7.7.35 1.54 1.03 3.2 1.5 3.74.5.52.88 6.4.88 13.1v12.15h14l.05-11.6zM75.43 154.98c-4.52-4.54-4-7.93 2.08-13.4l5-4.5v-9.52c0-8.5-.2-9.6-1.9-10.14-2.7-.86-10.1-9.13-10.1-11.3 0-2.68 5.38-10.7 8.93-13.33 2.98-2.2 3.08-2.52 3.08-10v-7.76l-5.5-5.4c-7.56-7.46-7.23-9.88 2-14.48 12.26-6.1 31.1-5.4 42.5 1.58 6.56 4 6.5 6.23-.4 12.64l-5.6 5.2v15.58l5.5 5.93c4.7 5.04 5.5 6.5 5.5 9.76 0 3.18-.65 4.42-3.9 7.36-2.15 1.94-4.85 4.03-6 4.65-1.87 1-2.1 2.02-2.1 9.8v8.7l5.5 5.1c6.55 6.02 7.12 9 2.6 13.52-3.57 3.55-8.3 3.86-14.1.92-2.46-1.26-5.88-2-9.24-2-3.35 0-6.78.74-9.25 2-5.83 2.97-11 2.65-14.57-.93zm30.08-22.04V117l-3.5-.65c-1.9-.36-5.06-.36-7 0l-3.5.66v31.92h14v-15.96zm-4.24-22.03c5.4 0 7.25-.36 7.25-1.35 0-2-4.47-3.67-9.8-3.65-6.04.02-8.9.8-9.62 2.67-.86 2.25.4 3.56 2.8 2.92 1.17-.32 5.4-.58 9.38-.6zm7.25-8.7c0-2.24-4.37-4.3-9.15-4.3-6.02 0-9.84 1.44-9.84 3.73 0 1.6 1.04 1.8 9.5 1.8 6.8 0 9.5-.35 9.5-1.22zm-2.96-20.06c.03-8.75.4-12.25 1.5-13.7 1.56-2.06 1.93-6.32.7-8.15-1.3-1.94-5-3.4-8.62-3.4-7.74 0-11.26 4.3-8.56 10.42.8 1.82 1.5 7.9 1.7 14.83l.37 11.75h12.88l.04-11.75zm130.77 73c-4.8-5.14-4.6-6.75 1.62-12.97l5.6-5.6V119l-4.36-2.98c-5.03-3.46-7.65-7.03-7.65-10.42 0-2.54 4.05-8.62 8.38-12.6 2.43-2.25 2.63-3.06 2.63-10.55v-8.1l-5-4.93c-6.25-6.17-6.4-8.46-.9-12.45 11.5-8.34 37.92-7.58 47.7 1.38l3.6 3.3-1.85 2.9c-1.02 1.57-3.58 4.36-5.7 6.2l-3.84 3.32v16.15l4.97 5.24c8.14 8.6 7.96 13.35-.73 19.84l-5.23 3.9V136.75l5.66 5.42c4.96 4.77 5.56 5.77 4.96 8.17-1.77 7.06-9.05 9.38-17.47 5.55-5.66-2.58-13.08-2.57-18.14.02-5.73 2.92-11 2.64-14.2-.75zm29.2-22.15c0-13.57-.22-15.98-1.57-16.5-2-.77-6.25-.76-9.17.03-2.2.6-2.25.86-2.25 16.48v15.9h13v-15.9zm-3.74-22.1c5.26 0 6.75-.33 6.75-1.47 0-2.53-3.94-3.77-10.62-3.35-6.8.44-9.03 1.66-8 4.36.46 1.17 1.34 1.5 2.9 1.08 1.22-.33 5.27-.6 8.98-.6zm7.25-9.02c0-2.5-4.63-4.1-10.77-3.7-5.58.34-9.62 2.44-8.43 4.38.3.46 4.73.82 9.87.8 7.38-.05 9.34-.36 9.34-1.48zm-2.5-19.53c0-8.58.42-12.34 1.6-14.6 3.37-6.53-1.1-11.44-9.68-10.62-2.78.27-5.77 1.2-6.64 2.07-1.76 1.76-1.97 7.4-.33 9.03.63.64 1.06 6 1.06 13.37v12.3h14V82.37zm-108.53 71.1c-4.6-4.62-2.3-10.68 6.2-16.25 2.16-1.42 2.34-2.2 2.34-10.4 0-8.58-.07-8.9-2.74-10.56-1.5-.94-4.2-3.06-6-4.72-5.47-5.08-4.25-11.4 3.67-19.08 4.04-3.9 4.08-4.02 4.08-11.27v-7.33l-5.5-5.33c-3.15-3.06-5.5-6.2-5.5-7.38 0-2.9 5.17-6.9 11.3-8.8 12.5-3.8 28.85-2.48 38.44 3.14 6.16 3.6 5.9 6.47-1.23 13.33l-5.5 5.3V88.5l5 4.9c8.87 8.74 8.85 14.67-.06 20.7l-4.88 3.32-.02 8.94-.03 8.93 5 4.62c5.7 5.25 6.5 8.85 2.94 13.36-1.72 2.18-2.9 2.64-6.8 2.64-2.73 0-6.35-.84-8.63-2-2.15-1.1-5.86-2-8.24-2s-6.1.9-8.25 2c-5.63 2.87-12.4 2.67-15.53-.46zm30.32-21.74l-.3-16.2-3.24-.83c-1.8-.46-4.7-.46-6.5 0l-3.25.84-.26 16.2-.28 16.18h14.11l-.27-16.2zm3.02-23.1c.2-.97-.94-2.25-2.9-3.27-6.1-3.14-18.26-.42-16.67 3.73.37.97 2.95 1.3 9.88 1.23 7.77-.08 9.44-.37 9.7-1.7zm.02-8.04c.4-2.05-5.15-4.68-9.83-4.68-5.95 0-11.85 3.8-9.5 6.14.25.27 4.64.43 9.74.36 7.9-.1 9.32-.38 9.6-1.83zm-2.83-19.24c0-9.06.38-12.55 1.48-14 3.07-4.07 1.47-9.4-3.45-11.44-8.62-3.57-18.44 4.08-13.55 10.55 1.1 1.46 1.48 5.04 1.5 14.45l.03 12.5h14V81.36z"/><path fill="#cb5258" d="M64 445.86c-16.5-1.98-31.04-9.27-43.6-21.9-6.8-6.85-9.44-10.38-12.73-17.1C-.63 389.94 0 405.6 0 222.93c0-154.2.1-162.84 1.83-169C7.73 32.88 21.07 17.06 41 7.42c16.54-8 9.2-7.6 141.5-7.3l117.5.3 8.77 3.13c11.6 4.15 18.58 8.4 27.45 16.76 8.62 8.12 15.06 18 18.98 29.12l2.8 8 .3 162.5c.3 181.65.74 169.84-6.82 185.5-9.05 18.74-26.24 32.7-47.83 38.8-7.6 2.15-8.12 2.16-120.14 2.3-61.86.1-115.64-.2-119.5-.66zm243-7.25c26.36-9.24 43.02-29.25 46.5-55.84.77-5.82 1-55.85.8-165.34-.36-175.6.3-160.48-7.55-176.5-2.78-5.7-5.73-9.57-12.2-16.03-9.64-9.65-17.76-14.47-30.58-18.18L296 4.42H179c-110.62 0-117.34.1-123.5 1.84C35.3 12 19.6 24.74 11 42.43c-6.86 14.12-6.46 3-6.47 180.58-.02 156.6.03 160.8 1.95 168.3 3.05 11.93 8.25 20.88 17.57 30.25 6.7 6.75 9.72 8.93 17.53 12.7 16.44 7.94 8.9 7.55 140.43 7.35l117-.18 8-2.8zM76.75 395.26c-1.64-.66-4.23-5.67-4.23-8.18 0-1.1 2.45-4.18 5.5-6.98l5.5-5.04V358l-4.44-3.05c-5.46-3.76-7.55-6.6-7.55-10.3 0-3.96 2.2-7.77 6.95-12.06l4.06-3.68v-15.9l-4.44-3.72c-2.44-2.05-5-5.07-5.68-6.7-1.17-2.83-1.05-3.17 2-5.7 9.87-8.26 33.1-9.1 46.57-1.7 3.16 1.74 4.13 2.9 4.35 5.23.24 2.45-.6 3.88-4.75 7.95l-5.04 4.96v8.17c0 7.68.17 8.3 2.57 9.86 3.3 2.16 8.44 10.26 8.44 13.3 0 3.4-2.58 6.82-7.58 9.97l-4.4 2.8v17.66l5.62 5.3c5.02 4.76 5.56 5.65 4.93 8.18-.4 1.56-1.65 3.85-2.8 5.1-2.72 2.9-9.33 3-14.76.24-2.22-1.14-5.88-2-8.5-2-2.6 0-6.26.86-8.5 2-3.65 1.86-10.73 2.55-13.76 1.33zm28.77-23.77v-16.44l-4.24-.64c-2.34-.35-5.5-.16-7 .42l-2.75 1.05v32.04h14v-16.44zm2.82-22.84c.58-3-4.25-5-10.85-4.53-6.18.46-9.7 2.46-8.72 5 .37.97 2.95 1.3 9.88 1.23 7.75-.08 9.44-.37 9.7-1.7zm0-7.98c.42-2.15-4.67-4.74-9.3-4.74-6.4 0-12.47 3.7-10.03 6.14.25.27 4.64.43 9.74.36 7.72-.1 9.32-.4 9.58-1.76zm-1.8-19.62c0-8.06.45-12.98 1.43-15.32 1.15-2.75 1.2-3.9.23-5.85-3.17-6.35-14.22-6.6-18.27-.44-1.6 2.44-1.6 2.84-.04 6.08 1.25 2.64 1.65 6.38 1.65 15.45v11.97h15v-11.88zm51.45 72.42c-4.6-4.6-2.3-10.67 6.2-16.24 2.16-1.42 2.34-2.2 2.34-10.35v-8.82l-3.24-2.23c-7.13-4.9-8.75-7.03-8.75-11.53 0-3.8.64-4.95 5.5-10.2l5.5-5.95V313.1l-4.94-4.14c-7.55-6.32-7.87-10.1-1.2-13.85 12.42-6.96 33.74-6.54 45.8.9 5.17 3.2 4.63 6.43-2.15 12.74l-5.5 5.12.02 7.28v7.28l4.92 4.74c6.27 6.05 8.03 10.82 5.63 15.28-.94 1.74-3.7 4.43-6.13 5.97l-4.43 2.8v18.09l5 4.62c5.7 5.25 6.5 8.85 2.94 13.36-1.7 2.14-2.9 2.64-6.54 2.64-2.5 0-6.2-.9-8.4-2-2.22-1.14-5.88-2-8.5-2-2.6 0-6.26.86-8.5 2-5.63 2.87-12.4 2.67-15.53-.46zm30.32-21.76l-.3-16.2-3.24-.94c-2-.58-4.5-.58-6.5 0l-3.25.93-.26 16.2-.28 16.22h14.11l-.27-16.22zm2.92-22.15c.3-.3.27-1.25-.06-2.1-1.44-3.76-13.7-4.92-17.7-1.7-4.27 3.46-2.1 4.68 8 4.5 5.07-.1 9.46-.4 9.76-.7zm.1-8.9c.42-2.14-4.67-4.73-9.3-4.73-6.4 0-12.47 3.7-10.03 6.14.25.27 4.64.43 9.74.36 7.72-.1 9.32-.4 9.58-1.76zm-2.8-19.54c0-8.83.36-12.3 1.46-13.74 1.7-2.26 1.95-5.8.57-8.37-2.46-4.6-12.2-5.16-16.68-.95-2.74 2.57-2.92 4.27-.85 8.23 1.08 2.07 1.5 6.15 1.5 14.75v11.9h14V321.1zm47.45 72.36c-4.1-4.1-3.36-8.02 2.54-13.45l5-4.6v-9.12c0-8.88-.07-9.18-2.74-10.88-6.26-3.97-8.25-6.65-8.25-11.1 0-3.8.64-4.95 5.5-10.2l5.5-5.95v-14.27l-5.5-5.33c-7.04-6.83-7.3-9.48-1.22-13.04 5.24-3.07 15.4-5.55 22.73-5.55 7.35 0 17.5 2.48 22.75 5.55 6.07 3.56 5.8 6.2-1.24 13.04l-5.5 5.33V328.5l4.63 4.46c4.43 4.28 7.38 9.23 7.38 12.4 0 2.04-5.66 8.34-9.14 10.13-2.82 1.45-2.85 1.57-2.85 10.63v9.16l5 4.62c4.03 3.7 5 5.25 5 7.85 0 7.36-8.55 10.45-17 6.15-2.22-1.14-5.88-2-8.5-2-2.6 0-6.26.86-8.5 2-5.63 2.87-12.4 2.67-15.53-.46zm30.32-21.76l-.3-16.2-3.24-.94c-2-.58-4.5-.58-6.5 0l-3.25.93-.26 16.2-.28 16.22h14.11l-.27-16.22zm2.92-22.15c.3-.3.27-1.25-.06-2.1-1.44-3.76-13.7-4.92-17.7-1.7-4.27 3.46-2.1 4.68 8 4.5 5.07-.1 9.46-.4 9.76-.7zm.1-8.9c.42-2.14-4.67-4.73-9.3-4.73-6.4 0-12.47 3.7-10.03 6.14.25.27 4.64.43 9.74.36 7.72-.1 9.32-.4 9.58-1.76zm-.92-34.9c3.07-6.02-2.3-11.58-10.15-10.53-7.06.95-10.75 6.66-7.27 11.25 1.1 1.46 1.48 5 1.5 14.15l.03 12.2 6.76.3 6.75.3.52-12.5c.3-7.62 1.05-13.55 1.88-15.18zm-191.54-31.7c-3.93-2.47-5.23-7.14-2.95-10.6.87-1.33 3.4-3.87 5.6-5.64l4-3.22v-17.64l-3.86-2.45c-8.62-5.44-10.27-11.33-5.15-18.4 1.63-2.26 4.1-4.86 5.5-5.76 2.35-1.55 2.5-2.2 2.5-9.88v-8.23l-4.98-4.2c-5.7-4.8-7.1-8.25-4.56-11.06 2.67-2.95 10.93-6.04 19.45-7.28 9.6-1.4 21.62.56 28.65 4.68 6.32 3.7 6.2 6.87-.54 13.23l-5 4.73v8.22c0 7.78.16 8.34 2.76 10.37 4 3.13 8.25 9.87 8.25 13.07 0 3.37-3.6 7.85-8.4 10.44l-3.6 1.93v18.22l4.95 4.16c5.85 4.94 6.63 6.85 4.7 11.47-2.07 4.97-6.85 6.44-13.63 4.2-2.74-.92-5.24-2.08-5.56-2.6-1.03-1.66-9.7-.97-14.05 1.14-6.35 3.07-10.35 3.38-14.04 1.07zm28.43-23.38l-.3-16.25H92l-.26 16.25-.28 16.25h14.11l-.27-16.25zm3.02-23c.43-2.25-4.73-4.75-9.8-4.75-6.18 0-12 3.68-9.6 6.08.25.24 4.63.4 9.76.37 7.82-.04 9.37-.32 9.64-1.7zm-.3-8.23c0-1.32-1.2-2.4-3.72-3.35-6.34-2.43-16.96.33-15.54 4.03.47 1.2 2.45 1.48 9.92 1.38 8.53-.1 9.33-.28 9.33-2.06zm-1.5-19.46c0-8 .45-12.93 1.43-15.26 1.9-4.55.34-7.74-4.73-9.67-4.8-1.83-10.94-.24-13.37 3.47-1.53 2.34-1.53 2.76 0 6 1.26 2.62 1.66 6.35 1.66 15.38v11.92l6.76.3c3.7.16 7.1.16 7.5 0 .4-.18.75-5.64.75-12.14zm54.35 74.98c-2.93-1.23-5.36-4.93-5.36-8.17 0-1.98 1.47-4 5.5-7.7l5.5-5.04v-8.54c0-7.63-.2-8.65-2.08-9.65-1.15-.62-3.85-2.7-6-4.65-6.2-5.62-5.28-11.73 3-19.76 4.05-3.9 4.1-4.03 4.1-11.18v-7.24l-5.6-5.5c-6.5-6.38-6.78-8.8-1.47-12.37 11.45-7.7 34.08-7.72 46.8-.05 5 3 4.45 6.2-2.24 12.8l-5.5 5.43v14.14l5.05 4.95c8.86 8.73 8.72 15.3-.48 21.12l-4.5 2.85-.02 9.75c-.02 5.36.34 9.75.8 9.75.45 0 2.7 1.73 5 3.84 4.98 4.6 5.7 9.38 1.9 12.9-3.72 3.5-6.85 3.67-13.95.83-7.7-3.08-12.4-3.26-17.5-.65-4.7 2.4-10.1 3.3-12.93 2.1zm27.42-24.3l-.3-16.24h-13l-.26 16.25-.28 16.25h14.11l-.27-16.25zm3.02-23c.2-1-.9-2.26-2.9-3.3-6.1-3.15-18.27-.42-16.67 3.73.38.98 2.96 1.3 9.88 1.27 7.87-.04 9.42-.32 9.7-1.7zm-.02-7.87c.35-1.84-5.24-4.9-8.94-4.88-3.33 0-9.66 1.88-10.4 3.08-1.75 2.83.46 3.63 9.7 3.5 7.7-.1 9.38-.4 9.64-1.7zm-2.76-19.38c.03-8.97.4-12.5 1.5-13.95 5.4-7.14-3.66-15.03-12.86-11.2-5 2.1-6.67 5.84-4.38 9.83 1.36 2.36 1.7 5.5 1.7 15.15v12.17h14l.04-12zm50.33 74.54c-2.9-1.22-5.36-4.93-5.36-8.13 0-1.88 1.45-4 5-7.32l5-4.66v-9.25c0-9.08-.04-9.28-2.8-10.9-10.56-6.25-10.98-13.84-1.27-23.24 4.04-3.9 4.08-4.03 4.08-11.18v-7.24l-5.5-5.4c-3.2-3.16-5.5-6.3-5.5-7.52 0-5.73 17.5-11.96 30.5-10.87 7.64.65 17.04 3.5 20.96 6.36 4.06 2.96 3.3 6.14-2.95 12.32l-5.5 5.43v13.8l5.42 5.84c2.98 3.2 5.7 7.17 6.07 8.8.9 4.2-1.54 8.34-6.95 11.75l-4.53 2.87v9.75c0 5.36.35 9.75.8 9.75.43 0 2.68 1.8 5 4.03 4.96 4.77 5.46 8.37 1.78 12.66-2 2.32-3.18 2.8-6.75 2.72-2.4-.05-6.23-1.06-8.55-2.25-5.2-2.67-11.2-2.75-16.12-.24-4.73 2.4-10.03 3.3-12.8 2.13zm27.42-24.28l-.3-16.23-3.5-.55c-1.9-.3-4.84-.3-6.5 0l-3 .53-.26 16.24-.28 16.25h14.11l-.27-16.24zm3.02-23c.2-1.03-.9-2.28-2.9-3.32-6.1-3.15-18.27-.42-16.67 3.73.38.98 2.96 1.3 9.88 1.27 7.87-.04 9.42-.32 9.7-1.7zm-.22-7.02c1.17-1.17-2.52-4.57-5.7-5.27-6.2-1.37-14.82 1.63-13.64 4.73.46 1.2 2.42 1.48 9.6 1.38 4.95-.05 9.34-.44 9.74-.84zm-2.56-20.24c.03-8.97.4-12.5 1.5-13.95 4-5.3-.5-12.05-8.04-12.05-4.95 0-9.8 2.96-10.3 6.28-.17 1.14.4 3.44 1.25 5.1 1.16 2.23 1.56 6.08 1.56 14.82v11.8h14l.04-12zm-188.67-43.5c-1.18-.47-2.87-1.9-3.75-3.16-2.9-4.13-2.04-6.87 3.9-12.4l5.5-5.1v-8.64c0-7.73-.23-8.75-2.1-9.75-1.15-.62-3.85-2.7-6-4.65-3.2-2.9-3.9-4.2-3.9-7.22 0-4.06 4.14-10.64 8.5-13.5 2.3-1.5 2.5-2.2 2.5-9.54v-7.92l-5.5-5.4c-3.18-3.13-5.5-6.3-5.5-7.5 0-4.25 11.3-9.4 23.63-10.75 7.06-.78 18.8 1.45 25.36 4.8 3.8 1.95 4.56 2.85 4.83 5.6.28 2.86-.35 3.92-4.75 7.96l-5.07 4.66v15.8l4.97 5.24c8.14 8.6 7.96 13.35-.73 19.84l-5.23 3.9.03 9.1.02 9.12 4 2.82c5.4 3.82 7.26 7.53 5.83 11.62-1.15 3.32-5.27 6.06-9.07 6.05-1.25 0-4.7-1.12-7.64-2.5-6.75-3.14-11.35-3.14-17.57.02-5.1 2.58-8.52 3-12.23 1.5zm27.42-23.75l-.3-16.75-4.4-.32c-2.44-.17-5.48-.05-6.76.27-2.32.58-2.33.64-2.33 17.06v16.5H105.57l-.27-16.76zm3.03-23.53c.4-2.1-5.08-4.72-9.82-4.72-5.95 0-11.85 3.8-9.5 6.14.25.26 4.63.44 9.72.4 8.02-.06 9.3-.3 9.6-1.82zm.18-7.62c0-5.1-15-6.4-18.96-1.64-2.15 2.6-.23 3.26 9.45 3.26 8.1 0 9.5-.24 9.5-1.62zm-1.96-20.67c.3-7.12 1.03-14.06 1.63-15.43 3.87-8.8-13.74-13.48-18.53-4.93-1.28 2.27-1.25 2.96.2 5.9 1.27 2.52 1.67 6.13 1.67 15 0 6.43.2 11.87.43 12.1.23.23 3.5.38 7.25.35l6.83-.07.54-12.93zm130.02 73.77c-4.66-4.67-4.18-8 1.95-13.5l5-4.5v-9.54c0-8.32-.22-9.6-1.8-10.1-1-.32-3.47-2.1-5.5-3.96-6.05-5.54-4.9-12.56 3.25-19.93 4.03-3.65 4.06-3.74 4.06-10.84V75.6l-5.56-5.84c-6.45-6.77-6.73-9.07-1.5-12.6 11.2-7.5 34.93-7.5 46.13 0 5.35 3.6 5.04 6.25-1.52 12.72l-5.54 5.47v13.8l5.42 5.84c2.98 3.2 5.7 7.17 6.07 8.8.9 4.18-1.56 8.37-6.93 11.77l-4.5 2.85-.02 9.2-.04 9.22 5 4.67c5.27 4.93 6.46 8.94 3.73 12.5-3.43 4.47-8.08 4.9-15.57 1.4-6.46-3-11.88-3.17-16.42-.5-1.85 1.1-5.46 2.3-8 2.64-4.23.58-4.9.37-7.68-2.42zm29.73-21.63c.3-17.75.37-17.54-6.46-17.57-7.6-.03-7.33-.7-7.33 17.64V150l6.76-.3 6.75-.28.3-15.93zm2.8-22.84c1.27-1.26-2.7-4.68-6.23-5.34-6.4-1.2-14.3 1.66-13.13 4.76.44 1.13 2.57 1.44 9.6 1.4 4.96-.05 9.35-.4 9.76-.82zm-.1-8.74c0-.83-1.75-2.37-3.9-3.42-3.62-1.76-4.36-1.8-9.5-.5-4.44 1.12-5.65 1.86-5.9 3.6-.3 2.12-.06 2.17 9.5 2 7.97-.15 9.8-.47 9.8-1.68zm-2.46-19.5c.03-8.97.4-12.5 1.5-13.95 4.02-5.3-.37-11.9-7.94-11.9-8.15 0-12.32 5.1-9.17 11.2 1.18 2.27 1.58 6.04 1.58 14.85v11.8h14l.04-12zm-108.57 71.04c-4.6-4.6-2.3-10.67 6.2-16.24 2.16-1.42 2.34-2.2 2.34-10.4 0-8.58-.07-8.9-2.74-10.56-1.5-.94-4.2-3.06-6-4.72-5.47-5.08-4.25-11.4 3.67-19.08 4.04-3.9 4.08-4.02 4.08-11.27v-7.33l-5.5-5.33c-3.15-3.06-5.5-6.2-5.5-7.38 0-2.9 5.17-6.9 11.3-8.8 12.5-3.8 28.85-2.48 38.44 3.14 6.16 3.6 5.9 6.47-1.23 13.33l-5.5 5.3V88.5l5 4.9c8.87 8.74 8.85 14.67-.06 20.7l-4.88 3.32-.02 8.94-.03 8.93 5 4.62c5.7 5.25 6.5 8.85 2.94 13.36-1.72 2.18-2.9 2.64-6.8 2.64-2.73 0-6.35-.84-8.63-2-2.15-1.1-5.86-2-8.24-2s-6.1.9-8.25 2c-5.63 2.87-12.4 2.67-15.53-.46zm30.32-21.73l-.3-16.2-3.24-.83c-1.8-.46-4.7-.46-6.5 0l-3.25.84-.26 16.2-.28 16.18h14.11l-.27-16.2zm3.02-23.1c.2-.97-.94-2.25-2.9-3.27-6.1-3.14-18.26-.42-16.67 3.73.37.97 2.95 1.3 9.88 1.23 7.77-.08 9.44-.37 9.7-1.7zm.02-8.04c.4-2.05-5.15-4.68-9.83-4.68-5.95 0-11.85 3.8-9.5 6.14.25.27 4.64.43 9.74.36 7.9-.1 9.32-.38 9.6-1.83zm-2.83-19.24c0-9.06.38-12.55 1.48-14 3.07-4.07 1.47-9.4-3.45-11.44-8.62-3.57-18.44 4.08-13.55 10.55 1.1 1.46 1.48 5.04 1.5 14.45l.03 12.5h14V81.36z"/><path fill="#6d716d" d="M64 445.86c-16.5-1.98-31.04-9.27-43.6-21.9-6.8-6.85-9.44-10.38-12.73-17.1C-.63 389.94 0 405.6 0 222.93c0-154.2.1-162.84 1.83-169C7.73 32.88 21.07 17.06 41 7.42c16.54-8 9.2-7.6 141.5-7.3l117.5.3 8.77 3.13c11.6 4.15 18.58 8.4 27.45 16.76 8.62 8.12 15.06 18 18.98 29.12l2.8 8 .3 162.5c.3 181.65.74 169.84-6.82 185.5-9.05 18.74-26.24 32.7-47.83 38.8-7.6 2.15-8.12 2.16-120.14 2.3-61.86.1-115.64-.2-119.5-.66zm243-7.25c26.36-9.24 43.02-29.25 46.5-55.84.77-5.82 1-55.85.8-165.34-.36-175.6.3-160.48-7.55-176.5-2.78-5.7-5.73-9.57-12.2-16.03-9.64-9.65-17.76-14.47-30.58-18.18L296 4.42H179c-110.62 0-117.34.1-123.5 1.84C35.3 12 19.6 24.74 11 42.43c-6.86 14.12-6.46 3-6.47 180.58-.02 156.6.03 160.8 1.95 168.3 3.05 11.93 8.25 20.88 17.57 30.25 6.7 6.75 9.72 8.93 17.53 12.7 16.44 7.94 8.9 7.55 140.43 7.35l117-.18 8-2.8zM76.75 395.26c-1.64-.66-4.23-5.67-4.23-8.18 0-1.1 2.45-4.18 5.5-6.98l5.5-5.04V358l-4.44-3.05c-5.46-3.76-7.55-6.6-7.55-10.3 0-3.96 2.2-7.77 6.95-12.06l4.06-3.68v-15.9l-4.44-3.72c-2.44-2.05-5-5.07-5.68-6.7-1.17-2.83-1.05-3.17 2-5.7 9.87-8.26 33.1-9.1 46.57-1.7 3.16 1.74 4.13 2.9 4.35 5.23.24 2.45-.6 3.88-4.75 7.95l-5.04 4.96v8.17c0 7.68.17 8.3 2.57 9.86 3.3 2.16 8.44 10.26 8.44 13.3 0 3.4-2.58 6.82-7.58 9.97l-4.4 2.8v17.66l5.62 5.3c5.02 4.76 5.56 5.65 4.93 8.18-.4 1.56-1.65 3.85-2.8 5.1-2.72 2.9-9.33 3-14.76.24-2.22-1.14-5.88-2-8.5-2-2.6 0-6.26.86-8.5 2-3.65 1.86-10.73 2.55-13.76 1.33zm28.77-23.77v-16.44l-4.24-.64c-2.34-.35-5.5-.16-7 .42l-2.75 1.05v32.04h14v-16.44zm2.82-22.84c.58-3-4.25-5-10.85-4.53-6.18.46-9.7 2.46-8.72 5 .37.97 2.95 1.3 9.88 1.23 7.75-.08 9.44-.37 9.7-1.7zm0-7.98c.42-2.15-4.67-4.74-9.3-4.74-6.4 0-12.47 3.7-10.03 6.14.25.27 4.64.43 9.74.36 7.72-.1 9.32-.4 9.58-1.76zm-1.8-19.62c0-8.06.45-12.98 1.43-15.32 1.15-2.75 1.2-3.9.23-5.85-3.17-6.35-14.22-6.6-18.27-.44-1.6 2.44-1.6 2.84-.04 6.08 1.25 2.64 1.65 6.38 1.65 15.45v11.97h15v-11.88zm51.58 71.8c-3.95-4.7-3.4-7.1 2.9-12.6l5.5-4.82v-18l-4.5-2.85c-5.55-3.5-7.5-6.16-7.5-10.23 0-3.5 4.5-10.4 8.5-13 2.34-1.54 2.5-2.2 2.5-9.7v-8.04l-5.5-5.77c-3-3.17-5.5-6.44-5.5-7.27 0-2.14 4.27-5.2 10.84-7.8 4.6-1.82 7.65-2.24 16.17-2.23 11.48 0 17.92 1.64 23.76 6.04 4.62 3.47 4.17 5.8-2.26 11.74l-5.5 5.12v15.1l5.36 5.52c8.45 8.73 8.32 13.26-.6 19.86l-4.75 3.5v18.44l5 4.67c5.85 5.47 6.54 8.98 2.56 12.96-3.07 3.06-8.26 3.22-14.4.43-5.62-2.55-12.63-2.54-17.65.02-2.15 1.1-5.8 2-8.1 2-3.47 0-4.67-.54-6.8-3.08zm30.4-21.3v-16.4l-3.5-.66c-1.9-.36-5.06-.36-7 0l-3.5.66v32.78h14v-16.4zm2.82-22.88c.76-3.9-10.44-6.35-17.24-3.77-2.25.85-3.47 3.78-2.13 5.12.23.23 4.62.37 9.75.3 7.55-.1 9.37-.4 9.62-1.66zm0-8.17c-.6-4.07-9.6-5.95-16.66-3.5-2.25.8-3.15 1.74-3.15 3.32 0 2.13.37 2.2 10.06 2.2 9.52 0 10.02-.1 9.75-2.03zm-1.28-32.93c4.07-5.8-.1-12.65-7.7-12.65-8.54 0-12.62 5.02-9.46 11.63 1.2 2.56 1.63 6.35 1.63 14.85v11.42l6.76.3 6.75.3.3-11.88c.2-8.45.7-12.48 1.74-13.97zm45.93 85.9c-4.1-4.1-3.36-8.03 2.54-13.46l5-4.6v-9.12c0-8.88-.07-9.18-2.74-10.88-6.26-3.97-8.25-6.65-8.25-11.1 0-3.8.64-4.95 5.5-10.2l5.5-5.95v-14.27l-5.5-5.33c-7.04-6.83-7.3-9.48-1.22-13.04 5.24-3.07 15.4-5.55 22.73-5.55 7.35 0 17.5 2.48 22.75 5.55 6.07 3.56 5.8 6.2-1.24 13.04l-5.5 5.33V328.5l4.63 4.46c4.43 4.28 7.38 9.23 7.38 12.4 0 2.04-5.66 8.34-9.14 10.13-2.82 1.45-2.85 1.57-2.85 10.63v9.16l5 4.62c4.03 3.7 5 5.25 5 7.85 0 7.36-8.55 10.45-17 6.15-2.22-1.14-5.88-2-8.5-2-2.6 0-6.26.86-8.5 2-5.63 2.87-12.4 2.67-15.53-.46zm30.32-21.77l-.3-16.2-3.24-.94c-2-.58-4.5-.58-6.5 0l-3.25.93-.26 16.2-.28 16.22h14.11l-.27-16.22zm2.92-22.15c.3-.3.27-1.25-.06-2.1-1.44-3.76-13.7-4.92-17.7-1.7-4.27 3.46-2.1 4.68 8 4.5 5.07-.1 9.46-.4 9.76-.7zm.1-8.9c.42-2.14-4.67-4.73-9.3-4.73-6.4 0-12.47 3.7-10.03 6.14.25.27 4.64.43 9.74.36 7.72-.1 9.32-.4 9.58-1.76zm-.92-34.9c3.07-6.02-2.3-11.58-10.15-10.53-7.06.95-10.75 6.66-7.27 11.25 1.1 1.46 1.48 5 1.5 14.15l.03 12.2 6.76.3 6.75.3.52-12.5c.3-7.62 1.05-13.55 1.88-15.18zm-191.54-31.7c-3.93-2.47-5.23-7.14-2.95-10.6.87-1.33 3.4-3.87 5.6-5.64l4-3.22v-17.64l-3.86-2.45c-8.62-5.44-10.27-11.33-5.15-18.4 1.63-2.26 4.1-4.86 5.5-5.76 2.35-1.55 2.5-2.2 2.5-9.88v-8.23l-4.98-4.2c-5.7-4.8-7.1-8.25-4.56-11.06 2.67-2.95 10.93-6.04 19.45-7.28 9.6-1.4 21.62.56 28.65 4.68 6.32 3.7 6.2 6.87-.54 13.23l-5 4.73v8.22c0 7.78.16 8.34 2.76 10.37 4 3.13 8.25 9.87 8.25 13.07 0 3.37-3.6 7.85-8.4 10.44l-3.6 1.93v18.22l4.95 4.16c5.85 4.94 6.63 6.85 4.7 11.47-2.07 4.97-6.85 6.44-13.63 4.2-2.74-.92-5.24-2.08-5.56-2.6-1.03-1.66-9.7-.97-14.05 1.14-6.35 3.07-10.35 3.38-14.04 1.07zm28.43-23.38l-.3-16.25H92l-.26 16.25-.28 16.25h14.11l-.27-16.25zm3.02-23c.43-2.25-4.73-4.75-9.8-4.75-6.18 0-12 3.68-9.6 6.08.25.24 4.63.4 9.76.37 7.82-.04 9.37-.32 9.64-1.7zm-.3-8.23c0-1.32-1.2-2.4-3.72-3.35-6.34-2.43-16.96.33-15.54 4.03.47 1.2 2.45 1.48 9.92 1.38 8.53-.1 9.33-.28 9.33-2.06zm-1.5-19.46c0-8 .45-12.93 1.43-15.26 1.9-4.55.34-7.74-4.73-9.67-4.8-1.83-10.94-.24-13.37 3.47-1.53 2.34-1.53 2.76 0 6 1.26 2.62 1.66 6.35 1.66 15.38v11.92l6.76.3c3.7.16 7.1.16 7.5 0 .4-.18.75-5.64.75-12.14zm54.5 74.56c-3.7-1.63-5.98-5.6-5.13-9 .34-1.38 2.87-4.4 5.62-6.73l5-4.2v-18.23l-3.6-1.93c-5.08-2.74-8.4-7.06-8.4-10.92 0-3.52 3.6-9.03 8.24-12.62 2.6-2.02 2.75-2.57 2.75-10.34v-8.2l-5.56-5.24c-6.8-6.4-6.86-8.44-.37-12.44 7.02-4.33 18.53-6.35 28.22-4.95 11.9 1.7 20.7 6.18 20.7 10.5 0 1.1-2.44 4.36-5.5 7.3l-5.5 5.34v7.84c0 7.6.1 7.9 3.1 10.1 3.5 2.62 8.9 10.65 8.9 13.28 0 2.28-5.46 8.5-9.14 10.4-2.83 1.48-2.85 1.55-2.85 11.06v9.57l5 4.5c6.74 6.05 6.73 11.34 0 14.83-3.3 1.7-6.33 1.28-12.2-1.66-4.75-2.38-11.85-2.37-16.58.02-5.36 2.7-9.3 3.25-12.7 1.74zm27.27-23.83l-.3-16.2-3.24-.67c-1.8-.36-4.7-.36-6.5 0l-3.25.67-.26 16.2-.28 16.22h14.11l-.27-16.2zm2.7-23.33c0-3.88-9.34-5.8-16.34-3.36-2.27.8-3.15 1.74-3.15 3.36 0 2.2.26 2.25 9.76 2.08 8.85-.16 9.75-.35 9.75-2.07zm.5-7.66c0-2.22-5.34-4.78-10-4.78-4.63 0-10 2.56-10 4.8 0 1.73.86 1.9 10 1.9 9.17 0 10-.17 10-1.9zm-2.95-18.78c.02-8.08.46-12.25 1.46-14 2.06-3.58 1.86-8.38-.4-10.43-2.9-2.63-9.14-3.13-13.46-1.08-4.48 2.13-5.53 5.38-3.26 10.13 1.22 2.57 1.63 6.37 1.63 15.15v11.72h14l.05-11.5zm50.32 74.04c-2.9-1.22-5.36-4.93-5.36-8.13 0-1.88 1.45-4 5-7.32l5-4.66v-9.25c0-9.08-.04-9.28-2.8-10.9-10.56-6.25-10.98-13.84-1.27-23.24 4.04-3.9 4.08-4.03 4.08-11.18v-7.24l-5.5-5.4c-3.2-3.16-5.5-6.3-5.5-7.52 0-5.73 17.5-11.96 30.5-10.87 7.64.65 17.04 3.5 20.96 6.36 4.06 2.96 3.3 6.14-2.95 12.32l-5.5 5.43v13.8l5.42 5.84c2.98 3.2 5.7 7.17 6.07 8.8.9 4.2-1.54 8.34-6.95 11.75l-4.53 2.87v9.75c0 5.36.35 9.75.8 9.75.43 0 2.68 1.8 5 4.03 4.96 4.77 5.46 8.37 1.78 12.66-2 2.32-3.18 2.8-6.75 2.72-2.4-.05-6.23-1.06-8.55-2.25-5.2-2.67-11.2-2.75-16.12-.24-4.73 2.4-10.03 3.3-12.8 2.13zm27.42-24.28l-.3-16.23-3.5-.55c-1.9-.3-4.84-.3-6.5 0l-3 .53-.26 16.24-.28 16.25h14.11l-.27-16.24zm3.02-23c.2-1.03-.9-2.28-2.9-3.32-6.1-3.15-18.27-.42-16.67 3.73.38.98 2.96 1.3 9.88 1.27 7.87-.04 9.42-.32 9.7-1.7zm-.22-7.02c1.17-1.17-2.52-4.57-5.7-5.27-6.2-1.37-14.82 1.63-13.64 4.73.46 1.2 2.42 1.48 9.6 1.38 4.95-.05 9.34-.44 9.74-.84zm-2.56-20.24c.03-8.97.4-12.5 1.5-13.95 4-5.3-.5-12.05-8.04-12.05-4.95 0-9.8 2.96-10.3 6.28-.17 1.14.4 3.44 1.25 5.1 1.16 2.23 1.56 6.08 1.56 14.82v11.8h14l.04-12zm-188.67-43.5c-1.18-.47-2.87-1.9-3.75-3.16-2.9-4.13-2.04-6.87 3.9-12.4l5.5-5.1v-8.64c0-7.73-.23-8.75-2.1-9.75-1.15-.62-3.85-2.7-6-4.65-3.2-2.9-3.9-4.2-3.9-7.22 0-4.06 4.14-10.64 8.5-13.5 2.3-1.5 2.5-2.2 2.5-9.54v-7.92l-5.5-5.4c-3.18-3.13-5.5-6.3-5.5-7.5 0-4.25 11.3-9.4 23.63-10.75 7.06-.78 18.8 1.45 25.36 4.8 3.8 1.95 4.56 2.85 4.83 5.6.28 2.86-.35 3.92-4.75 7.96l-5.07 4.66v15.8l4.97 5.24c8.14 8.6 7.96 13.35-.73 19.84l-5.23 3.9.03 9.1.02 9.12 4 2.82c5.4 3.82 7.26 7.53 5.83 11.62-1.15 3.32-5.27 6.06-9.07 6.05-1.25 0-4.7-1.12-7.64-2.5-6.75-3.14-11.35-3.14-17.57.02-5.1 2.58-8.52 3-12.23 1.5zm27.42-23.75l-.3-16.75-4.4-.32c-2.44-.17-5.48-.05-6.76.27-2.32.58-2.33.64-2.33 17.06v16.5H105.57l-.27-16.76zm3.03-23.53c.4-2.1-5.08-4.72-9.82-4.72-5.95 0-11.85 3.8-9.5 6.14.25.26 4.63.44 9.72.4 8.02-.06 9.3-.3 9.6-1.82zm.18-7.62c0-5.1-15-6.4-18.96-1.64-2.15 2.6-.23 3.26 9.45 3.26 8.1 0 9.5-.24 9.5-1.62zm-1.96-20.67c.3-7.12 1.03-14.06 1.63-15.43 3.87-8.8-13.74-13.48-18.53-4.93-1.28 2.27-1.25 2.96.2 5.9 1.27 2.52 1.67 6.13 1.67 15 0 6.43.2 11.87.43 12.1.23.23 3.5.38 7.25.35l6.83-.07.54-12.93zm130.02 73.77c-4.66-4.67-4.18-8 1.95-13.5l5-4.5v-9.54c0-8.32-.22-9.6-1.8-10.1-1-.32-3.47-2.1-5.5-3.96-6.05-5.54-4.9-12.56 3.25-19.93 4.03-3.65 4.06-3.74 4.06-10.84V75.6l-5.56-5.84c-6.45-6.77-6.73-9.07-1.5-12.6 11.2-7.5 34.93-7.5 46.13 0 5.35 3.6 5.04 6.25-1.52 12.72l-5.54 5.47v13.8l5.42 5.84c2.98 3.2 5.7 7.17 6.07 8.8.9 4.18-1.56 8.37-6.93 11.77l-4.5 2.85-.02 9.2-.04 9.22 5 4.67c5.27 4.93 6.46 8.94 3.73 12.5-3.43 4.47-8.08 4.9-15.57 1.4-6.46-3-11.88-3.17-16.42-.5-1.85 1.1-5.46 2.3-8 2.64-4.23.58-4.9.37-7.68-2.42zm29.73-21.63c.3-17.75.37-17.54-6.46-17.57-7.6-.03-7.33-.7-7.33 17.64V150l6.76-.3 6.75-.28.3-15.93zm2.8-22.84c1.27-1.26-2.7-4.68-6.23-5.34-6.4-1.2-14.3 1.66-13.13 4.76.44 1.13 2.57 1.44 9.6 1.4 4.96-.05 9.35-.4 9.76-.82zm-.1-8.74c0-.83-1.75-2.37-3.9-3.42-3.62-1.76-4.36-1.8-9.5-.5-4.44 1.12-5.65 1.86-5.9 3.6-.3 2.12-.06 2.17 9.5 2 7.97-.15 9.8-.47 9.8-1.68zm-2.46-19.5c.03-8.97.4-12.5 1.5-13.95 4.02-5.3-.37-11.9-7.94-11.9-8.15 0-12.32 5.1-9.17 11.2 1.18 2.27 1.58 6.04 1.58 14.85v11.8h14l.04-12zm-107.1 72.2c-2.13-1.6-3.93-5.1-3.93-7.58 0-1.17 2.28-4 5.5-6.8l5.5-4.82v-18l-4.5-2.85c-5.55-3.5-7.5-6.16-7.5-10.23 0-3.5 4.5-10.4 8.5-13 2.34-1.55 2.5-2.2 2.5-9.82v-8.17L160 67.88c-6.37-6.28-6.63-8.28-1.53-11.7 11.75-7.9 35.95-7.7 46.8.4 4.66 3.48 4.2 5.84-2.24 11.8l-5.5 5.07v15.07l5.36 5.52c8.45 8.73 8.32 13.26-.6 19.86l-4.75 3.5v18.71l5 4.5c5.87 5.27 6.57 8.84 2.56 12.86-3.1 3.1-9 3.28-14.55.46-2.3-1.2-5.88-2-8.74-2-2.85 0-6.43.8-8.75 2-4.35 2.22-11.14 2.58-13.57.7zm29.07-23.1v-16.38l-3.5-.66c-1.9-.36-5.06-.36-7 0l-3.5.66v32.78h14v-16.4zm2.8-22.8c.8-4.05-10.92-6.52-17.24-3.64-2.23 1-3.38 3.68-2.13 4.92.24.24 4.62.4 9.75.37 7.74-.04 9.38-.33 9.63-1.66zm0-8.23c-.4-2.73-4.3-4.56-9.8-4.56-5.46 0-9.4 1.83-9.78 4.55-.28 1.92.23 2.02 9.8 2.02 9.56 0 10.06-.1 9.8-2.03zm-2.76-19.08c.03-8.97.4-12.5 1.5-13.95 2.08-2.75 1.85-7.9-.45-9.98-2.77-2.5-8.95-3.1-13.34-1.25-4.58 1.9-5.72 5.4-3.38 10.3 1.22 2.57 1.63 6.37 1.63 15.15v11.72h14l.04-12z"/><path fill="#ba1920" d="M57.06 444.28c-24.96-5.4-44.77-22.84-53.23-46.86l-2.82-8-.25-163.25C.45 46.77.18 55.64 6.5 42.12 13.63 26.92 25.2 15.08 40 7.88 56.35-.05 47.64.42 179.5.42H297l7.96 2.3c13.32 3.85 22.9 9.48 32.63 19.16 6.87 6.84 9.4 10.22 12.74 17.04 8.33 17 7.67 1.3 7.67 184 0 152.58-.1 162.9-1.76 169-5.66 20.7-18.85 37-37.23 46.04-16.22 7.98-5.9 7.4-137.5 7.62-101.22.17-118.45 0-124.44-1.3zm246.28-4.17c25.48-7.8 43-25.5 49.2-49.75 1.93-7.57 1.97-11.46 1.95-166.84-.02-135.8-.24-160.1-1.5-166.08-5.3-25.4-28.58-47.6-54.92-52.42-4.04-.74-42.23-1.08-119.3-1.08-100.92 0-114.16.17-120.57 1.62C33 11.22 12.83 30.24 5.86 54.92 4.1 61.1 4 69.24 4 222.92c0 180.9-.58 166 7.28 182 4.35 8.85 17.26 22.46 26.4 27.82 7.42 4.34 17.9 7.94 26.46 9.06 3.8.5 57 .82 119.37.73l112.5-.18 7.34-2.24zM75.44 393c-4.3-4.3-3.8-6.7 2.57-12.63l5.5-5.12v-9.14c0-9.06 0-9.14-2.88-10.63-5.2-2.7-9.1-7.4-9.1-11 0-3.42 4.45-10.08 8.77-13.1 1.98-1.4 2.2-2.42 2.2-9.84v-8.26l-5.5-5.55c-3-3.05-5.5-6.3-5.5-7.2 0-4.3 16.58-10.62 27.7-10.6 6.74.03 17 2.63 22.05 5.58 6 3.5 5.82 6.36-.74 12.42l-5 4.62v16.68l4.97 5.24c8.08 8.55 7.82 12.73-1.24 19.45l-4.72 3.5.04 9.5.02 9.52 4.07 3c5.66 4.16 7.08 7.12 5.37 11.2-2.37 5.63-8.45 6.86-16.35 3.27-5.6-2.55-12.62-2.54-17.64.02-5.83 2.97-11 2.65-14.57-.93zm30.07-21.47v-16.4l-3.5-.65c-1.9-.36-5.06-.36-7 0l-3.5.66v32.78h14v-16.4zm2.8-23.28c.4-2.62-3.48-4.33-9.8-4.33-5.8 0-10 1.67-10 4 0 .9.2 1.86.45 2.1.23.23 4.62.38 9.75.3 8.45-.1 9.34-.28 9.6-2.07zm0-7.8c-.45-3.08-4.55-4.66-11.07-4.26-5.97.36-9.45 2.38-8.47 4.9.38 1.02 3 1.36 10.17 1.36 9.1 0 9.64-.12 9.37-2zm-1.8-18.9c0-8.84.45-13.44 1.53-16.04 1.75-4.17.95-6.57-3.07-9.2-3.42-2.25-10.77-1.37-14 1.67-2.83 2.65-3.02 4.33-.94 8.3 1.08 2.08 1.5 6.16 1.5 14.7v11.85l6.74.35c3.7.2 7.1.44 7.5.55.4.1.75-5.37.75-12.18zm51.6 71.3c-3.95-4.7-3.4-7.1 2.9-12.62l5.5-4.8v-18l-4.5-2.86c-5.55-3.5-7.5-6.16-7.5-10.23 0-3.5 4.5-10.4 8.5-13 2.34-1.54 2.5-2.2 2.5-9.7v-8.04l-5.5-5.77c-3-3.17-5.5-6.44-5.5-7.27 0-2.14 4.27-5.2 10.84-7.8 4.6-1.82 7.65-2.24 16.17-2.23 11.48 0 17.92 1.64 23.76 6.04 4.62 3.47 4.17 5.8-2.26 11.74l-5.5 5.12v15.1l5.36 5.52c8.45 8.73 8.32 13.26-.6 19.86l-4.75 3.5v18.44l5 4.67c5.85 5.47 6.54 8.98 2.56 12.96-3.07 3.06-8.26 3.22-14.4.43-5.62-2.55-12.63-2.54-17.65.02-2.15 1.1-5.8 2-8.1 2-3.47 0-4.67-.54-6.8-3.08zm30.4-21.32v-16.4l-3.5-.65c-1.9-.36-5.06-.36-7 0l-3.5.66v32.78h14v-16.4zm2.82-22.87c.76-3.9-10.44-6.35-17.24-3.77-2.25.85-3.47 3.78-2.13 5.12.23.23 4.62.37 9.75.3 7.55-.1 9.37-.4 9.62-1.66zm0-8.17c-.6-4.07-9.6-5.95-16.66-3.5-2.25.8-3.15 1.74-3.15 3.32 0 2.13.37 2.2 10.06 2.2 9.52 0 10.02-.1 9.75-2.03zm-1.28-32.93c4.07-5.8-.1-12.65-7.7-12.65-8.54 0-12.62 5.02-9.46 11.63 1.2 2.56 1.63 6.35 1.63 14.85v11.42l6.76.3 6.75.3.3-11.88c.2-8.45.7-12.48 1.74-13.97zm47.4 87.06c-2.12-1.6-3.93-5.1-3.93-7.56 0-1.1 2.22-3.95 5-6.46l5-4.5v-19.09l-4.47-3.07c-5.1-3.5-6.52-5.64-6.52-9.8 0-3.28 4.64-10.27 8.5-12.8 2.34-1.54 2.5-2.2 2.5-9.8v-8.18l-5.5-5.43c-3-3-5.5-6.2-5.5-7.15 0-2.34 4.06-5.33 10.84-8 7.48-2.96 24.03-3.2 31.67-.44 6.43 2.3 11.5 6.14 11.5 8.68 0 1.13-2.4 4.27-5.5 7.18l-5.5 5.18v15.56l4.17 3.75c5.27 4.74 8.25 11.05 6.9 14.6-.53 1.4-3.24 4.23-6 6.3l-5.06 3.77V375.83l5 4.67c5.85 5.47 6.54 8.98 2.56 12.96-3.07 3.06-8.26 3.22-14.4.43-5.68-2.58-13.06-2.57-17.9.02-4.14 2.22-10.9 2.58-13.33.7zm29.07-23.1v-16.4l-3.5-.65c-1.9-.36-5.06-.36-7 0l-3.5.66v32.78h14v-16.4zm2.82-22.87c.76-3.9-10.44-6.35-17.24-3.77-2.25.85-3.47 3.78-2.13 5.12.23.23 4.62.37 9.75.3 7.55-.1 9.37-.4 9.62-1.66zm-.3-8.24c0-3.92-9.3-5.86-16.36-3.4-2.27.8-3.15 1.72-3.15 3.34 0 2.18.3 2.24 9.76 2.12 8.95-.1 9.75-.27 9.75-2.06zm-.98-32.85c4.07-5.8-.1-12.65-7.7-12.65-8.54 0-12.62 5.02-9.46 11.63 1.2 2.56 1.63 6.35 1.63 14.85v11.42l6.76.3 6.75.3.3-11.88c.2-8.45.7-12.48 1.74-13.97zM78.6 274.67c-1.3-.7-3.28-2.45-4.37-3.92-2.84-3.82-1.63-7.1 4.24-11.58l4.93-3.75.05-9.7c.06-8.57-.15-9.74-1.8-10.26-1.02-.32-3.72-2.3-6-4.4-6.2-5.74-5.47-10.6 2.78-18.6l4.08-3.95v-15.9l-5.5-5.77c-3-3.17-5.5-6.27-5.5-6.9 0-2.27 5.38-5.97 11.85-8.17 12.25-4.16 29.2-2.64 38.22 3.4 5.34 3.6 5.1 6.53-1 12.02l-5.06 4.54v16.42l4.93 5.38c8.06 8.8 7.7 13.02-1.7 19.9l-4.1 3-.06 9.22-.06 9.23 5.43 5.27c4.54 4.4 5.34 5.7 4.9 7.95-1.35 6.9-8.92 9.1-17.06 4.95-5.2-2.66-12.1-2.76-17.05-.26-5.32 2.7-9.33 3.3-12.1 1.86zm26.9-24.15v-16.4l-3.72-.42c-2.05-.24-5.1-.16-6.75.18l-3.02.62-.26 16.2-.28 16.22H105.5v-16.4zm2.8-23.08c-.58-4-9.62-5.87-16.64-3.43-2.25.8-3.15 1.74-3.15 3.32 0 2.15.34 2.22 10.05 2.16 9.42-.05 10.02-.18 9.75-2.04zm.2-7.72c0-2.24-5.34-4.8-10-4.8-4.68 0-10 2.56-10 4.83 0 1.8.77 1.94 10 1.9 9.16-.03 10-.2 10-1.93zm-2-19.4c0-9.27.4-12.88 1.67-15.42 1.47-2.94 1.5-3.63.22-5.9-2.12-3.75-5.65-5.26-10.83-4.62-7.66.95-10.84 5.8-7.56 11.54 1.03 1.77 1.45 5.98 1.48 14.5l.03 12h15v-12.1zm54.5 74.22c-3.7-1.63-5.96-5.6-5.1-9 .34-1.38 2.87-4.4 5.62-6.73l5-4.2v-18.23l-3.6-1.93c-5.08-2.74-8.4-7.06-8.4-10.92 0-3.52 3.6-9.03 8.24-12.62 2.6-2.02 2.75-2.57 2.75-10.34v-8.2l-5.56-5.24c-6.8-6.4-6.86-8.44-.37-12.44 7.02-4.33 18.53-6.35 28.22-4.95 11.9 1.7 20.7 6.18 20.7 10.5 0 1.1-2.44 4.36-5.5 7.3l-5.5 5.34v7.84c0 7.6.1 7.9 3.1 10.1 3.5 2.62 8.9 10.65 8.9 13.28 0 2.28-5.46 8.5-9.14 10.4-2.83 1.48-2.85 1.55-2.85 11.06v9.57l5 4.5c6.74 6.05 6.73 11.34 0 14.83-3.3 1.7-6.33 1.28-12.2-1.66-4.75-2.38-11.85-2.37-16.58.02-5.36 2.7-9.3 3.25-12.7 1.74zm27.3-23.83l-.3-16.2-3.24-.67c-1.8-.36-4.7-.36-6.5 0l-3.25.67-.26 16.2-.28 16.22h14.11l-.27-16.2zm2.7-23.33c0-3.88-9.34-5.8-16.34-3.36-2.27.8-3.15 1.74-3.15 3.36 0 2.2.26 2.25 9.76 2.08 8.85-.16 9.75-.35 9.75-2.07zm.5-7.66c0-2.22-5.34-4.78-10-4.78-4.63 0-10 2.56-10 4.8 0 1.73.86 1.9 10 1.9 9.17 0 10-.17 10-1.9zm-2.95-18.78c.02-8.08.46-12.25 1.46-14 2.06-3.58 1.86-8.38-.4-10.43-2.9-2.63-9.14-3.13-13.46-1.08-4.48 2.13-5.53 5.38-3.26 10.13 1.22 2.57 1.63 6.37 1.63 15.15v11.72h14l.05-11.5zm50.3 73.55c-1.75-.77-3.67-2.3-4.26-3.4-2.1-3.9-1.22-6.43 3.9-11.25l5-4.7v-9.48c0-9.27-.05-9.54-2.74-11.24-9.08-5.76-10.57-10.93-5.24-18.17 1.65-2.25 4.12-4.83 5.5-5.72 2.32-1.52 2.5-2.2 2.5-9.8v-8.17l-5.58-5.3c-6.8-6.5-6.87-8.54-.37-12.55 7-4.32 18.53-6.35 28.16-4.96 8.4 1.2 16.67 4.3 19.33 7.25 2.54 2.8 1.15 6.18-4.54 10.94l-5 4.2v16.12l3.9 3.35c2.16 1.84 4.9 5.36 6.08 7.8 1.9 3.95 2 4.8.83 7.25-.74 1.52-3.47 4.35-6.08 6.28l-4.74 3.5v18.71l5 4.5c3.65 3.28 5 5.23 5 7.2 0 3.75-2.4 6.77-6.5 8.1-3.06 1.03-4.16.86-9.1-1.4-6.86-3.15-13.85-3.4-18.58-.68-4.72 2.7-8.82 3.26-12.48 1.65zm27.44-23.76l-.3-16.2-3.24-.67c-1.8-.36-4.7-.36-6.5 0l-3.25.67-.26 16.2-.28 16.22h14.11l-.27-16.2zm2.7-23.33c0-3.88-9.34-5.8-16.34-3.36-2.27.8-3.15 1.74-3.15 3.36 0 2.2.26 2.25 9.76 2.08 8.85-.16 9.75-.35 9.75-2.07zm.5-7.66c0-2.22-5.34-4.78-10-4.78-4.63 0-10 2.56-10 4.8 0 1.73.86 1.9 10 1.9 9.17 0 10-.17 10-1.9zm-2.96-19.28c.03-8.97.4-12.5 1.5-13.95 2-2.64 1.85-7.9-.28-9.82-5.72-5.16-18.26-2.05-18.24 4.52 0 1.23.68 3.53 1.5 5.1 1.07 2.07 1.5 6.13 1.5 14.5v11.65h14l.02-12zM77.4 156.47c-1.44-.8-3.2-2.86-3.9-4.56-1.63-3.96-.43-6.37 5.54-11.04l4.4-3.44.03-9.53.04-9.53-3.57-1.93c-10.45-5.63-10.95-12.83-1.5-21.98l4.08-3.95V74.03l-4.38-3.68c-4.75-3.97-6.9-7.52-5.98-9.9.95-2.46 12.38-7.4 19.8-8.55 8.16-1.27 18.44-.02 25.48 3.1 9.7 4.28 10.33 7.28 3.1 14.42l-5 4.92v16.2l4.9 5.07c8 8.32 7.6 14.3-1.37 19.95l-4.53 2.87V136.87l5.6 5.43c6.32 6.13 6.5 7.98 1.3 12.87-3.62 3.38-5.9 3.42-12.76.24-6.56-3.05-12.7-3.2-18-.44-5.3 2.76-10.07 3.3-13.26 1.5zm27.9-23.3l-.3-16.75H92l-.26 16.75-.28 16.75h14.11l-.27-16.75zm3-23.68c-.46-3.2-4.53-4.74-11.08-4.23-6.17.5-8.7 1.84-8.7 4.62 0 1.5 1.17 1.7 10.04 1.67 9.5-.05 10.02-.16 9.75-2.08zm.2-7.73c0-2.84-6.26-5.23-11.75-4.47-5.6.76-8.24 2.23-8.24 4.58 0 1.72.86 1.88 10 1.86 9.26-.02 10-.17 10-1.97zm-2-18.98c0-8.2.47-12.73 1.54-15.3 2.04-4.87.4-8.46-4.72-10.4-4.92-1.88-11.55.05-13.75 4-1.34 2.4-1.32 3.04.22 6.28 1.3 2.77 1.7 6.3 1.7 15.32v11.72h15V82.8zm131.35 73.18c-6.06-3.7-5.64-9.05 1.16-14.62l4.5-3.7v-9.83c0-9.2-.14-9.92-2.24-11-1.24-.63-3.7-2.54-5.5-4.23-2.58-2.44-3.25-3.88-3.25-6.95 0-3.34.78-4.7 5.5-9.65l5.5-5.77V74.6l-5.5-5.12c-6.66-6.2-7-8.53-1.74-11.96 12.05-7.85 34.45-7.85 46.5 0 5.2 3.4 4.88 5.63-1.75 12.04l-5.5 5.33v15.4l4.6 4.37c5.46 5.25 7.8 10.13 6.5 13.58-.9 2.36-8.67 9.7-10.27 9.7-.45 0-.82 4.32-.82 9.6v9.6l5 4.7c5.76 5.4 6.37 8.4 2.62 12.77-3.03 3.5-8.17 3.7-14.67.54-5.95-2.9-11.47-2.8-18.1.27-6.44 3-8.37 3.1-12.5.58zm28.44-22.8l-.3-16.76h-13l-.26 16.75-.28 16.75h14.11l-.27-16.75zm3.02-23.48c.43-2.25-4.67-4.78-9.6-4.78-6.1 0-10.2 1.8-10.2 4.44 0 2.18.27 2.24 9.73 2.12 8.24-.1 9.8-.37 10.07-1.78zm.2-7.86c0-5.85-18.98-6.12-19.8-.28-.3 2.06.03 2.14 9.74 2.14 9.13 0 10.05-.17 10.05-1.86zm-2.77-19.42c.2-7.2.9-13.24 1.7-15.08 2.02-4.56.72-8.25-3.53-10.03-9.3-3.87-19.28 4.12-13.94 11.17 1.1 1.45 1.48 4.98 1.5 13.95l.03 12h13.9l.35-12zm-107.32 72.2c-2.12-1.6-3.92-5.1-3.92-7.58 0-1.17 2.28-4 5.5-6.8l5.5-4.82v-18l-4.5-2.85c-5.55-3.5-7.5-6.16-7.5-10.23 0-3.5 4.5-10.4 8.5-13 2.34-1.55 2.5-2.2 2.5-9.82v-8.17L160 67.88c-6.37-6.28-6.63-8.28-1.53-11.7 11.75-7.9 35.95-7.7 46.8.4 4.66 3.48 4.2 5.84-2.24 11.8l-5.5 5.07v15.07l5.36 5.52c8.45 8.73 8.32 13.26-.6 19.86l-4.75 3.5v18.71l5 4.5c5.87 5.27 6.57 8.84 2.56 12.86-3.1 3.1-9 3.28-14.55.46-2.3-1.2-5.88-2-8.74-2-2.85 0-6.43.8-8.75 2-4.35 2.22-11.14 2.58-13.57.7zm29.08-23.1v-16.38l-3.5-.66c-1.9-.36-5.06-.36-7 0l-3.5.66v32.78h14v-16.4zm2.8-22.8c.8-4.05-10.92-6.52-17.24-3.64-2.23 1-3.38 3.68-2.13 4.92.24.24 4.62.4 9.75.37 7.74-.04 9.38-.33 9.63-1.66zm0-8.23c-.4-2.73-4.3-4.56-9.8-4.56-5.46 0-9.4 1.83-9.78 4.55-.28 1.92.23 2.02 9.8 2.02 9.56 0 10.06-.1 9.8-2.03zm-2.76-19.08c.03-8.97.4-12.5 1.5-13.95 2.08-2.75 1.85-7.9-.45-9.98-2.77-2.5-8.95-3.1-13.34-1.25-4.58 1.9-5.72 5.4-3.38 10.3 1.22 2.57 1.63 6.37 1.63 15.15v11.72h14l.04-12z"/><path fill="#0e1f0b" d="M57.06 444.28c-24.96-5.4-44.77-22.84-53.23-46.86l-2.82-8-.25-163.25C.45 46.77.18 55.64 6.5 42.12 13.63 26.92 25.2 15.08 40 7.88 56.35-.05 47.64.42 179.5.42H297l7.96 2.3c13.32 3.85 22.9 9.48 32.63 19.16 6.87 6.84 9.4 10.22 12.74 17.04 8.33 17 7.67 1.3 7.67 184 0 152.58-.1 162.9-1.76 169-5.66 20.7-18.85 37-37.23 46.04-16.22 7.98-5.9 7.4-137.5 7.62-101.22.17-118.45 0-124.44-1.3zm246.28-4.17c25.48-7.8 43-25.5 49.2-49.75 1.93-7.57 1.97-11.46 1.95-166.84-.02-135.8-.24-160.1-1.5-166.08-5.3-25.4-28.58-47.6-54.92-52.42-4.04-.74-42.23-1.08-119.3-1.08-100.92 0-114.16.17-120.57 1.62C33 11.22 12.83 30.24 5.86 54.92 4.1 61.1 4 69.24 4 222.92c0 180.9-.58 166 7.28 182 4.35 8.85 17.26 22.46 26.4 27.82 7.42 4.34 17.9 7.94 26.46 9.06 3.8.5 57 .82 119.37.73l112.5-.18 7.34-2.24zM75.44 393c-4.3-4.3-3.8-6.7 2.57-12.63l5.5-5.12v-9.14c0-9.06 0-9.14-2.88-10.63-5.2-2.7-9.1-7.4-9.1-11 0-3.42 4.45-10.08 8.77-13.1 1.98-1.4 2.2-2.42 2.2-9.84v-8.26l-5.5-5.55c-3-3.05-5.5-6.3-5.5-7.2 0-4.3 16.58-10.62 27.7-10.6 6.74.03 17 2.63 22.05 5.58 6 3.5 5.82 6.36-.74 12.42l-5 4.62v16.68l4.97 5.24c8.08 8.55 7.82 12.73-1.24 19.45l-4.72 3.5.04 9.5.02 9.52 4.07 3c5.66 4.16 7.08 7.12 5.37 11.2-2.37 5.63-8.45 6.86-16.35 3.27-5.6-2.55-12.62-2.54-17.64.02-5.83 2.97-11 2.65-14.57-.93zm30.07-21.47v-16.4l-3.5-.65c-1.9-.36-5.06-.36-7 0l-3.5.66v32.78h14v-16.4zm2.8-23.28c.4-2.62-3.48-4.33-9.8-4.33-5.8 0-10 1.67-10 4 0 .9.2 1.86.45 2.1.23.23 4.62.38 9.75.3 8.45-.1 9.34-.28 9.6-2.07zm0-7.8c-.45-3.08-4.55-4.66-11.07-4.26-5.97.36-9.45 2.38-8.47 4.9.38 1.02 3 1.36 10.17 1.36 9.1 0 9.64-.12 9.37-2zm-1.8-18.9c0-8.84.45-13.44 1.53-16.04 1.75-4.17.95-6.57-3.07-9.2-3.42-2.25-10.77-1.37-14 1.67-2.83 2.65-3.02 4.33-.94 8.3 1.08 2.08 1.5 6.16 1.5 14.7v11.85l6.74.35c3.7.2 7.1.44 7.5.55.4.1.75-5.37.75-12.18zm130.93 73.08c-2.1-1.6-3.92-5.1-3.92-7.56 0-1.1 2.22-3.95 5-6.46l5-4.5v-19.09l-4.47-3.07c-5.1-3.5-6.52-5.64-6.52-9.8 0-3.28 4.64-10.27 8.5-12.8 2.34-1.54 2.5-2.2 2.5-9.8v-8.18l-5.5-5.43c-3-3-5.5-6.2-5.5-7.15 0-2.34 4.06-5.33 10.84-8 7.48-2.96 24.03-3.2 31.67-.44 6.43 2.3 11.5 6.14 11.5 8.68 0 1.13-2.4 4.27-5.5 7.18l-5.5 5.18v15.56l4.17 3.75c5.27 4.74 8.25 11.05 6.9 14.6-.53 1.4-3.24 4.23-6 6.3l-5.06 3.77V375.83l5 4.67c5.85 5.47 6.54 8.98 2.56 12.96-3.07 3.06-8.26 3.22-14.4.43-5.68-2.58-13.06-2.57-17.9.02-4.14 2.22-10.9 2.58-13.33.7zm29.08-23.1v-16.4l-3.5-.65c-1.9-.36-5.06-.36-7 0l-3.5.66v32.78h14v-16.4zm2.82-22.87c.76-3.9-10.44-6.35-17.24-3.77-2.25.85-3.47 3.78-2.13 5.12.23.23 4.62.37 9.75.3 7.55-.1 9.37-.4 9.62-1.66zm-.3-8.24c0-3.92-9.3-5.86-16.36-3.4-2.27.8-3.15 1.72-3.15 3.34 0 2.18.3 2.24 9.76 2.12 8.95-.1 9.75-.27 9.75-2.06zm-.98-32.85c4.07-5.8-.1-12.65-7.7-12.65-8.54 0-12.62 5.02-9.46 11.63 1.2 2.56 1.63 6.35 1.63 14.85v11.42l6.76.3 6.75.3.3-11.88c.2-8.45.7-12.48 1.74-13.97zM78.6 274.67c-1.3-.7-3.28-2.45-4.37-3.92-2.84-3.82-1.63-7.1 4.24-11.58l4.93-3.75.05-9.7c.06-8.57-.15-9.74-1.8-10.26-1.02-.32-3.72-2.3-6-4.4-6.2-5.74-5.47-10.6 2.78-18.6l4.08-3.95v-15.9l-5.5-5.77c-3-3.17-5.5-6.27-5.5-6.9 0-2.27 5.38-5.97 11.85-8.17 12.25-4.16 29.2-2.64 38.22 3.4 5.34 3.6 5.1 6.53-1 12.02l-5.06 4.54v16.42l4.93 5.38c8.06 8.8 7.7 13.02-1.7 19.9l-4.1 3-.06 9.22-.06 9.23 5.43 5.27c4.54 4.4 5.34 5.7 4.9 7.95-1.35 6.9-8.92 9.1-17.06 4.95-5.2-2.66-12.1-2.76-17.05-.26-5.32 2.7-9.33 3.3-12.1 1.86zm26.9-24.15v-16.4l-3.72-.42c-2.05-.24-5.1-.16-6.75.18l-3.02.62-.26 16.2-.28 16.22H105.5v-16.4zm2.8-23.08c-.58-4-9.62-5.87-16.64-3.43-2.25.8-3.15 1.74-3.15 3.32 0 2.15.34 2.22 10.05 2.16 9.42-.05 10.02-.18 9.75-2.04zm.2-7.72c0-2.24-5.34-4.8-10-4.8-4.68 0-10 2.56-10 4.83 0 1.8.77 1.94 10 1.9 9.16-.03 10-.2 10-1.93zm-2-19.4c0-9.27.4-12.88 1.67-15.42 1.47-2.94 1.5-3.63.22-5.9-2.12-3.75-5.65-5.26-10.83-4.62-7.66.95-10.84 5.8-7.56 11.54 1.03 1.77 1.45 5.98 1.48 14.5l.03 12h15v-12.1zm132.34 74.15c-1.74-.77-3.66-2.3-4.25-3.4-2.1-3.9-1.22-6.43 3.9-11.25l5-4.7v-9.48c0-9.27-.05-9.54-2.74-11.24-9.08-5.76-10.57-10.93-5.24-18.17 1.65-2.25 4.12-4.83 5.5-5.72 2.32-1.52 2.5-2.2 2.5-9.8v-8.17l-5.58-5.3c-6.8-6.5-6.87-8.54-.37-12.55 7-4.32 18.53-6.35 28.16-4.96 8.4 1.2 16.67 4.3 19.33 7.25 2.54 2.8 1.15 6.18-4.54 10.94l-5 4.2v16.12l3.9 3.35c2.16 1.84 4.9 5.36 6.08 7.8 1.9 3.95 2 4.8.83 7.25-.74 1.52-3.47 4.35-6.08 6.28l-4.74 3.5v18.71l5 4.5c3.65 3.28 5 5.23 5 7.2 0 3.75-2.4 6.77-6.5 8.1-3.06 1.03-4.16.86-9.1-1.4-6.86-3.15-13.85-3.4-18.58-.68-4.72 2.7-8.82 3.26-12.48 1.65zm27.45-23.76l-.3-16.2-3.24-.67c-1.8-.36-4.7-.36-6.5 0l-3.25.67-.26 16.2-.28 16.22h14.11l-.27-16.2zm2.7-23.33c0-3.88-9.34-5.8-16.34-3.36-2.27.8-3.15 1.74-3.15 3.36 0 2.2.26 2.25 9.76 2.08 8.85-.16 9.75-.35 9.75-2.07zm.5-7.66c0-2.22-5.34-4.78-10-4.78-4.63 0-10 2.56-10 4.8 0 1.73.86 1.9 10 1.9 9.17 0 10-.17 10-1.9zm-2.96-19.28c.03-8.97.4-12.5 1.5-13.95 2-2.64 1.85-7.9-.28-9.82-5.72-5.16-18.26-2.05-18.24 4.52 0 1.23.68 3.53 1.5 5.1 1.07 2.07 1.5 6.13 1.5 14.5v11.65h14l.02-12zM77.4 156.47c-1.44-.8-3.2-2.86-3.9-4.56-1.63-3.96-.43-6.37 5.54-11.04l4.4-3.44.03-9.53.04-9.53-3.57-1.93c-10.45-5.63-10.95-12.83-1.5-21.98l4.08-3.95V74.03l-4.38-3.68c-4.75-3.97-6.9-7.52-5.98-9.9.95-2.46 12.38-7.4 19.8-8.55 8.16-1.27 18.44-.02 25.48 3.1 9.7 4.28 10.33 7.28 3.1 14.42l-5 4.92v16.2l4.9 5.07c8 8.32 7.6 14.3-1.37 19.95l-4.53 2.87V136.87l5.6 5.43c6.32 6.13 6.5 7.98 1.3 12.87-3.62 3.38-5.9 3.42-12.76.24-6.56-3.05-12.7-3.2-18-.44-5.3 2.76-10.07 3.3-13.26 1.5zm27.9-23.3l-.3-16.75H92l-.26 16.75-.28 16.75h14.11l-.27-16.75zm3-23.68c-.46-3.2-4.53-4.74-11.08-4.23-6.17.5-8.7 1.84-8.7 4.62 0 1.5 1.17 1.7 10.04 1.67 9.5-.05 10.02-.16 9.75-2.08zm.2-7.73c0-2.84-6.26-5.23-11.75-4.47-5.6.76-8.24 2.23-8.24 4.58 0 1.72.86 1.88 10 1.86 9.26-.02 10-.17 10-1.97zm-2-18.98c0-8.2.47-12.73 1.54-15.3 2.04-4.87.4-8.46-4.72-10.4-4.92-1.88-11.55.05-13.75 4-1.34 2.4-1.32 3.04.22 6.28 1.3 2.77 1.7 6.3 1.7 15.32v11.72h15V82.8zm131.35 73.18c-6.06-3.7-5.64-9.05 1.16-14.62l4.5-3.7v-9.83c0-9.2-.14-9.92-2.24-11-1.24-.63-3.7-2.54-5.5-4.23-2.58-2.44-3.25-3.88-3.25-6.95 0-3.34.78-4.7 5.5-9.65l5.5-5.77V74.6l-5.5-5.12c-6.66-6.2-7-8.53-1.74-11.96 12.05-7.85 34.45-7.85 46.5 0 5.2 3.4 4.88 5.63-1.75 12.04l-5.5 5.33v15.4l4.6 4.37c5.46 5.25 7.8 10.13 6.5 13.58-.9 2.36-8.67 9.7-10.27 9.7-.45 0-.82 4.32-.82 9.6v9.6l5 4.7c5.76 5.4 6.37 8.4 2.62 12.77-3.03 3.5-8.17 3.7-14.67.54-5.95-2.9-11.47-2.8-18.1.27-6.44 3-8.37 3.1-12.5.58zm28.44-22.8l-.3-16.76h-13l-.26 16.75-.28 16.75h14.11l-.27-16.75zm3.02-23.48c.43-2.25-4.67-4.78-9.6-4.78-6.1 0-10.2 1.8-10.2 4.44 0 2.18.27 2.24 9.73 2.12 8.24-.1 9.8-.37 10.07-1.78zm.2-7.86c0-5.85-18.98-6.12-19.8-.28-.3 2.06.03 2.14 9.74 2.14 9.13 0 10.05-.17 10.05-1.86zm-2.77-19.42c.2-7.2.9-13.24 1.7-15.08 2.02-4.56.72-8.25-3.53-10.03-9.3-3.87-19.28 4.12-13.94 11.17 1.1 1.45 1.48 4.98 1.5 13.95l.03 12h13.9l.35-12z"/><path d="M58.5 444.42c-23-4.64-41.6-19.07-51.64-40.03C.22 390.5.56 399.95.53 222.82.5 65.7.55 62.06 2.5 54.33 5.84 41.08 10.7 32.67 21 22.38 31 12.36 40.05 6.88 53.53 2.75L61 .45l112.5-.3c75.95-.22 115.16.02 120.65.74 16.9 2.2 31.87 9.45 43.4 20.98 11.24 11.25 17.66 24.26 19.88 40.36 1.36 9.85 1.46 310.83.1 321.18-2.18 16.67-8.2 28.7-20.63 41.17-6.94 6.95-9.7 8.9-18.52 13.18-17.7 8.58-10.27 8.15-139.58 8.04-89.58-.07-115.17-.37-120.3-1.4zm234.78-2.53c17.3-2.18 29.3-8.07 41.84-20.55 6.35-6.32 9-9.9 12.27-16.5 7.5-15.26 7.08-4.07 7.1-181.74 0-176.58.4-166.24-6.54-180.68-6.7-13.97-17.27-24.38-31.95-31.47-15.4-7.45-9.04-7.14-140-6.82l-117 .3-8 2.8c-12.05 4.27-18.14 8.16-27.5 17.6-9.3 9.4-13.4 16.12-17.15 28.1L4 60.42v162c0 177.16-.35 166.24 6 180 9.96 21.6 30.3 36.35 54.5 39.5 8.98 1.18 219.42 1.13 228.78-.04z"/></g></g></svg>