<svg xmlns="http://www.w3.org/2000/svg" width="358.838" height="446.887" viewBox="0 0 358.83759 446.88733"><g><g><path fill="#c2c6c1" d="M63.9 446.02c-15.77-1.85-31.98-9.84-43.46-21.43-8.18-8.26-13.48-16.86-17.3-28.06l-2.72-8v-164.5c0-154.1.1-164.9 1.76-170.9 4.1-14.85 13.45-28.72 25.45-37.77C35.85 9.17 42.06 6 51.93 2.9l7.5-2.36h240l7.5 2.34c24.72 7.73 42.16 25.16 49.65 49.66 1.75 5.72 1.84 13.78 1.84 171v165l-2.72 8c-3.9 11.42-9.17 19.88-17.8 28.5-12.18 12.18-26.55 19-44.48 21.06-9.53 1.1-220.05 1.02-229.5-.08zm242.52-7.2c17.92-6.1 32.93-18.68 40.33-33.8 7.72-15.77 7.17-1.84 7.17-181.96 0-160.33-.02-161.62-2.07-169.03-5.22-18.85-18.07-33.87-36.43-42.6-15.38-7.32-6.8-6.9-136-6.9-108.04 0-116.45.13-122.5 1.8-20.28 5.53-36.82 18.7-45.42 36.12-6.96 14.1-6.55 2.8-6.57 181.23V384.8l2.27 7.9c7.04 24.28 26.53 42.15 52.22 47.87 4.84 1.08 28.47 1.3 122.5 1.15l116.5-.18 8-2.72zM81.4 386.72c-6.9-6.9-5.53-14.06 4.26-22.52l5.26-4.54-.02-13.56-.02-13.56-5.65-4.5c-6.97-5.56-9.2-8.5-9.96-13.2-.8-5.04 2.43-11.42 9.8-19.3l5.85-6.25V267.84l-6.37-6.66c-9.84-10.28-10.94-14.04-5.5-18.63 15.5-13.04 45.3-13.84 61.48-1.65 4.06 3.06 4.94 4.3 5.2 7.3.27 3.3-.4 4.35-7.26 11.7l-7.55 8.08v21.29l6.13 6.53c9.1 9.74 11.7 16.8 8.45 23.06-1.55 3-9 10.23-12.44 12.06-2.03 1.1-2.14 1.87-2.14 14.92v13.78l5.26 4.54c9.8 8.46 11.15 15.63 4.26 22.52-4.52 4.52-10.54 4.63-18.17.32-4.27-2.4-6.5-3-11.3-3-4.93 0-6.8.53-10.7 3-3.76 2.38-5.86 3-10.15 3-4.78 0-5.78-.38-8.72-3.32zm37.3-33.4l-.28-23.72-4.2-.83c-2.6-.5-5.75-.42-8.26.26l-4.04 1.1v46.91h17.04l-.27-23.72zm4.62-34.03c-.06-.7-.17-1.66-.25-2.15-.3-1.85-7.18-4.1-12.52-4.1-6.93 0-12.63 2.48-12.63 5.52 0 2.1.33 2.15 12.75 2.06 9.52-.07 12.72-.4 12.65-1.34zm.4-11.12c1.22-3.7-8.65-7.9-15.9-6.74-5.58.9-9.9 3.27-9.9 5.46 0 1 .2 2 .42 2.22.23.23 5.93.4 12.68.36 8.9-.04 12.4-.4 12.7-1.3zm-3.8-29.93c0-15.32.23-17.74 2-21.2 2.26-4.45 2.48-6.86.9-10.3-3.35-7.38-18.3-7.7-23.34-.5-2.1 3-1.97 6.08.44 10.8 1.77 3.46 2 5.9 2 21.2v17.3h18v-17.3zm100.1 109.22c-3.5-2.93-5.68-8.98-4.7-12.9.37-1.47 3.8-5.7 7.64-9.43l6.96-6.76v-25.91l-3.23-1.9c-5.82-3.44-11.73-9.64-12.9-13.53-1.9-6.34 2.3-15.05 11.54-23.95l3.58-3.45v-22.17l-6.08-5.97c-9.8-9.63-11.24-14.33-5.78-18.93 15.54-13.07 45.26-13.87 61.47-1.65 4.13 3.1 4.94 4.27 5.2 7.45.3 3.46-.24 4.32-6.75 11.04l-7.06 7.3v23.66l5.53 5.8c8.54 8.95 11.23 16.57 8.05 22.73-1.55 3-9 10.23-12.44 12.06-2.03 1.1-2.14 1.87-2.14 14.87v13.7l5.1 4.4c8.56 7.37 10.67 12.8 7.42 19.07-3.97 7.7-12 9.22-21.17 4.04-4.4-2.47-6.45-3-11.78-3-3.56 0-6.74.46-7.1 1-1.4 2.32-8.6 5-13.36 5-3.88 0-5.64-.56-8.03-2.57zm37.24-21.68c.36-6.2.65-16.75.66-23.46v-12.2l-3.75-1.05c-2.06-.58-4.42-1.05-5.25-1.05-.82 0-3.2.47-5.25 1.04l-3.75 1.03V377.03H256.6l.66-11.25zm4.06-46.5c-.06-.7-.17-1.66-.25-2.15-.08-.48-1.68-1.6-3.55-2.5-7.22-3.42-21.6-.86-21.6 3.84 0 2.2.2 2.22 12.75 2.13 9.52-.07 12.72-.4 12.65-1.34zm.1-11.7c0-1.02-1.27-2.8-2.82-3.95-5.7-4.25-22.68-1.8-22.68 3.25 0 1 .2 2 .42 2.22.23.23 5.96.4 12.75.36 11.27-.05 12.32-.2 12.32-1.9zm-3.5-29.1c0-15.06.23-17.5 2-20.96 4.83-9.47.23-16.5-10.8-16.5-5.8 0-11.16 3.1-12.63 7.27-.74 2.1-.46 3.92 1.23 8 1.96 4.72 2.2 7.07 2.2 22.26v16.98h18V278.5zM83.94 213.32c-4.3-2.2-8.02-7.58-8.02-11.62 0-3.8 3.55-9.02 9.47-13.98l4.52-3.78V156.5l-5.83-4.25C77.84 147.7 73.9 142 73.9 137.47c0-4.37 3.55-10.65 9.98-17.67l5.9-6.43-.58-11.42-.57-11.4-4.62-4.45c-6.78-6.53-9.1-10.04-9.1-13.7 0-2.7.78-3.87 4.6-6.78 7.54-5.76 19.84-9.58 30.87-9.58 6.13 0 18.73 3.05 24.25 5.86 6.27 3.2 10.27 7.5 10.27 11 0 2.42-1.55 4.72-7.5 11.08l-7.5 8.02v21.6l5.66 5.97c7.04 7.42 10.82 15.12 9.88 20.12-.74 3.9-6.8 11.1-12.16 14.42l-3.38 2.08v27.2l7.13 7.34c6.95 7.17 7.1 7.46 6.57 11.5-.68 5.06-3.25 8.73-7.77 11.08-4.36 2.27-8.83 1.6-15.25-2.33-4-2.46-5.9-2.96-11.2-2.96-3.5 0-6.64.46-7 1-.96 1.6-7.7 4.77-11.53 5.45-2.36.4-4.55.04-6.93-1.18zm33.98-35.67c0-26.47.65-24.6-8.65-24.6-9.1 0-9.35.32-9.35 12.87 0 5.94.3 16.28.65 22.96l.66 12.16H117.92v-23.4zM106.1 144.5c2.02-.36 6.04-.15 8.93.47 4.38.94 5.5.88 6.74-.35 1.28-1.28 1.3-1.7.06-3.18-2.12-2.56-7.3-4.4-12.36-4.4-5.27 0-12.14 2.5-13 4.7-.84 2.2 1.43 4.52 3.88 3.93 1.14-.27 3.73-.8 5.75-1.16zm16.63-12.72c.42-2.2-4.98-5.5-10.28-6.3-2.67-.38-5.9.03-9.53 1.24-4.57 1.5-5.55 2.25-5.8 4.38l-.3 2.55 12.8-.1c11.15-.07 12.83-.3 13.1-1.77zm-3.8-29.53c0-15.32.22-17.74 2-21.2 2.7-5.34 2.5-8.4-.82-12.12-4.98-5.6-16.5-5.1-21.2.88-2.52 3.2-2.5 6.78.02 11.74 1.77 3.47 2 5.9 2 20.96v17.04h18v-17.28zM221.98 213.3c-4.52-2.3-7.1-5.98-7.78-11.07-.54-4.03-.38-4.32 6.57-11.5l7.12-7.34v-27.2l-3.38-2.08c-5-3.1-11.3-10.35-12.1-13.93-1.3-5.93 3.94-15.97 12-23.05l3.48-3.05V91.9l-7.5-7.86c-6.1-6.4-7.5-8.47-7.5-11.03 0-5.85 8.3-11.58 21.74-15.02 9.6-2.46 16.93-2.45 26.54 0 8.6 2.2 12.56 4.03 17.97 8.28 6.55 5.15 5.2 9.42-6.53 20.9l-4.72 4.62v21.8l5.9 6.18c6.43 6.77 10.1 13.26 10.1 17.9 0 4.27-4.34 10.37-10.6 14.9l-5.4 3.92v27.47l4.53 3.78c9.32 7.8 11.5 13.98 7.2 20.42-4.93 7.4-12.05 8.35-21.05 2.85-6.42-3.94-15.15-4.2-20-.6-3.3 2.44-8.78 4.64-11.58 4.64-.88 0-3.14-.8-5.03-1.75zm33.92-35.65c0-26.44.63-24.6-8.5-24.6s-8.5-1.84-8.5 24.6v23.4h17v-23.4zm-11-33.12c1.92-.3 5.75-.13 8.5.4 3.92.77 5.3.68 6.4-.4 1.23-1.2 1.23-1.62 0-3.1-3.6-4.34-13.63-5.68-20.88-2.78-3 1.2-4.02 2.17-4.02 3.83 0 3 .92 3.73 3.95 3.13 1.4-.27 4.12-.75 6.05-1.07zm15.5-12.97c0-1.12-1.44-2.75-3.5-3.95-6.86-4-22-1.46-22 3.7v2.35l12.75-.1c11.84-.08 12.75-.22 12.75-2zm-3.5-29.05c0-15.06.23-17.5 2-20.96 2.75-5.4 2.54-8.87-.78-12.58-6.62-7.4-23.22-3.3-23.22 5.76 0 1.32.9 4.16 2 6.32 1.77 3.47 2 5.9 2 21.2v17.3h18v-17.03z"/><path fill="#bebebe" d="M63.9 446.02c-15.77-1.85-31.98-9.84-43.46-21.43-8.18-8.26-13.48-16.86-17.3-28.06l-2.72-8v-164.5c0-154.1.1-164.9 1.76-170.9 4.1-14.85 13.45-28.72 25.45-37.77C35.85 9.17 42.06 6 51.93 2.9l7.5-2.36h240l7.5 2.34c24.72 7.73 42.16 25.16 49.65 49.66 1.75 5.72 1.84 13.78 1.84 171v165l-2.72 8c-3.9 11.42-9.17 19.88-17.8 28.5-12.18 12.18-26.55 19-44.48 21.06-9.53 1.1-220.05 1.02-229.5-.08zm242.52-7.2c17.92-6.1 32.93-18.68 40.33-33.8 7.72-15.77 7.17-1.84 7.17-181.96 0-160.33-.02-161.62-2.07-169.03-5.22-18.85-18.07-33.87-36.43-42.6-15.38-7.32-6.8-6.9-136-6.9-108.04 0-116.45.13-122.5 1.8-20.28 5.53-36.82 18.7-45.42 36.12-6.96 14.1-6.55 2.8-6.57 181.23V384.8l2.27 7.9c7.04 24.28 26.53 42.15 52.22 47.87 4.84 1.08 28.47 1.3 122.5 1.15l116.5-.18 8-2.72zM83.75 388.4c-3.3-2.13-6.83-8.23-6.83-11.8 0-1.97 1.86-4.58 7-9.84l7-7.15v-27.2l-6.34-5.08c-6.12-4.9-9.66-10.03-9.66-13.98 0-3.6 5.02-11.97 10.5-17.5l5.5-5.54v-23.08l-6.96-7c-10.13-10.2-10.44-13.6-1.75-19.56 8.98-6.16 15.55-7.98 28.72-7.98 13.06 0 19.5 1.77 28.73 7.9 8.73 5.78 8.4 9.42-1.85 19.72l-6.88 6.92v22.86l5.66 5.73c6.7 6.8 10.85 14.92 9.94 19.5-.83 4.16-4.52 8.78-10.57 13.22l-5.03 3.7v27.09l7 7.38c7.62 8.02 8.25 9.92 5.33 16.08-3.62 7.62-12.5 9.46-20.67 4.28-4.1-2.6-5.67-3-11.76-3-6.08 0-7.5.36-10.54 2.67-4.5 3.44-12.54 4.25-16.53 1.7zm35.17-35.3V329.2l-5.25-.6c-2.9-.33-6.6-.22-8.25.25l-3 .85-.27 23.68-.27 23.68h17.04V353.1zm4.8-34.28c.58-3-5.43-5.77-12.58-5.78-8.16 0-13.22 2.04-13.22 5.33v2.42l12.74-.13c11.2-.1 12.77-.34 13.06-1.85zm-.26-10c1.6-1.6-.95-4.77-5.1-6.35-7.92-3.03-19.66-.34-20.24 4.64l-.3 2.55 12.5-.1c6.88-.04 12.8-.37 13.14-.72zm-3.54-30.32c0-15.06.23-17.5 2-20.96 2.9-5.7 2.62-10.04-.92-13.58-2.6-2.6-3.6-2.92-9.07-2.92-3.38 0-7.12.5-8.33 1.12-5.76 2.94-7.12 8.63-3.68 15.38 1.77 3.47 2 5.9 2 20.96v17.04h18V278.5zM220.52 387c-4.48-3.94-6.25-8.98-4.58-13.02.67-1.6 4.1-5.62 7.6-8.9l6.38-5.97v-26.58l-6.34-4.6c-13.4-9.72-13.32-19.06.26-32.34l5.08-4.96v-23.96l-5-4.63c-6.4-5.9-10-10.8-10-13.57 0-1.3 1.68-3.7 4.13-5.92 15.4-13.92 47.6-13.76 62.68.32 5.27 4.92 3.97 9.37-5.2 17.9l-5.6 5.22v24.6l5.5 5.9c12.66 13.63 12.28 21.94-1.48 32.04l-5.03 3.7v27.18l7 7.2c7.63 7.88 8.3 9.9 5.38 16.06-3.75 7.9-12.32 9.7-20.72 4.38-4.15-2.63-5.63-3-12.07-3-5.6 0-7.66.4-8.7 1.66-2.02 2.42-7.24 4.34-11.8 4.34-3.04 0-4.85-.74-7.48-3.05zm36.87-25.2c.37-8.4.53-19.08.35-23.75l-.33-8.5-4.73-.86c-2.7-.5-6.35-.5-8.5.02l-3.78.9-.27 23.7-.27 23.72h16.82l.7-15.25zm4.52-42.93c0-3.2-5.74-5.82-12.78-5.83-8.13 0-13.22 2.04-13.22 5.3v2.4h13c12 0 13-.15 13-1.87zm0-11.64c0-3.52-7.66-6.6-14.62-5.9-7.18.75-10.8 2.62-11.18 5.75l-.3 2.53 13.05-.03c12.95-.03 13.05-.05 13.05-2.34zm-4-28.48c0-14.82.23-17.25 2-20.7 2.95-5.78 2.63-10.53-.92-14.1-2.6-2.6-3.6-2.9-9.1-2.9-11.98 0-16.84 6.47-11.98 16 1.77 3.46 2 5.88 2 21.2v17.3h18v-16.8zM84 213.3c-4.5-2.3-7.1-5.98-7.78-11.03-.53-4-.35-4.3 6.58-11.38l7.12-7.3v-27.29l-4.02-2.77c-5.96-4.14-10.78-9.92-11.52-13.83-.94-5.02 2.33-11.57 9.48-19.02l6-6.25-.6-11.95-.58-11.94-5.77-6C73.47 74.7 72.9 72.1 79 66.6c9.73-8.8 27.65-12.6 42.7-9.05 11.13 2.63 23.22 10.3 23.22 14.73 0 3.03-3.22 7.64-9.43 13.53l-5.58 5.28v23.29l6.03 6.28c12.98 13.5 12.72 21.8-1 31.87l-5.03 3.7v27.98l5.55 5.06c6.85 6.26 8.84 9.86 8 14.42-.8 4.23-6.37 9.94-10.62 10.87-2.54.56-4.62-.02-10.3-2.9-5.97-3.03-8.16-3.62-13.5-3.6-5.28 0-6.83.4-9.27 2.45-2.57 2.17-8.47 4.52-11.36 4.53-.55 0-2.54-.78-4.43-1.74zm33.7-36l-.28-23.76-5.5-.3c-3.03-.18-6.96-.05-8.75.28l-3.25.6v11.3c0 6.22.3 16.78.65 23.46l.66 12.16h16.72l-.27-23.75zm-12.83-32.34c3.66-.8 6.48-.78 10.23.03 4.17.88 5.46.83 6.54-.25 3.3-3.3-3.2-7.7-11.37-7.7-9.77 0-16.42 3.8-13.3 7.55 1.43 1.73 1.5 1.73 7.9.36zm17.82-12.73c1.25-3.8-8.7-7.87-16.2-6.63-6.14 1.02-9.58 3.1-9.58 5.8 0 2.3.06 2.32 12.67 2.23 9.45-.07 12.77-.43 13.1-1.4zm-3.78-29.33c0-14.44.26-17.22 1.98-21 2.36-5.2 2.5-8.02.6-11.7-1.8-3.47-5.42-5.16-11.06-5.16-11.64 0-16.52 7.2-11.52 17 1.76 3.46 2 5.9 2 20.7v16.8h18V102.9zm105.2 111.43c-3.42-.66-9-6.77-9.74-10.65-.86-4.56 1.14-8.16 8-14.42l5.54-5.07v-28l-5.03-3.68c-13.73-10.07-14-18.36-1-31.87l6.02-6.28V91.45L221 84.46c-6.97-7.02-9.2-11.37-7.4-14.32 2.07-3.33 10.86-9 17.2-11.1 17.03-5.64 38.13-2.07 48.87 8.27 5.23 5.04 4.13 8.58-5.67 18.2l-6.08 5.98v22.89l6.03 6.28c13.14 13.7 12.68 22.62-1.7 32.5l-4.33 3v27.67l7.13 7.13c6.9 6.9 7.1 7.25 6.6 11.14-.74 5.43-4.86 10.6-9.58 12-3.28 1-4.5.85-8.94-1.06-2.83-1.22-5.67-2.84-6.3-3.6-.8-.96-3.42-1.4-8.34-1.4-6.1 0-7.7.38-10.6 2.5-2.93 2.18-9.45 4.76-10.98 4.36-.28-.07-1.53-.33-2.8-.57zm31.57-37.04l-.28-23.76-5.96-.3c-3.28-.17-7-.05-8.25.26l-2.28.58v46.96h17.04l-.27-23.75zm-12.86-32.34c3.68-.8 6.53-.76 10.66.1 6.28 1.3 8.05.53 6.92-3-.93-2.96-6.3-5.04-12.72-4.94-9.38.13-14.12 3-12.4 7.48.67 1.73 1.1 1.75 7.54.36zM260.92 132c0-2.42-2.9-4.62-7.86-5.94-7.76-2.06-18.14.98-18.14 5.32 0 2.26.13 2.28 13 2.28 11.43 0 13-.2 13-1.65zm-4-29.25c0-14.82.23-17.25 2-20.7 4.97-9.76.48-17-10.55-17-11.34 0-16.25 7.07-11.45 16.5 1.77 3.46 2 5.9 2 20.95v17.04h18v-16.8z"/><path fill="#868f85" d="M64.1 446c-17.1-2.28-29.98-8.73-42.8-21.43-7.8-7.72-9.78-10.4-13.72-18.53-8.24-16.97-7.76-4.76-7.44-186.5l.28-161 2.62-7.67c5.5-16.1 15.6-29.54 28.74-38.2 8.5-5.6 14.7-8.3 24.64-10.7C64.08.15 69.3.06 179.42.06c109.95 0 115.35.1 123 1.92 10.2 2.45 16.17 5.03 24.62 10.65 10.13 6.74 19.2 17.08 24.4 27.88 8.04 16.63 7.58 4.76 7.26 186.54l-.28 161.5-2.93 8.4c-7.87 22.52-27.5 40.64-51.3 47.36l-7.78 2.2-113 .16c-62.15.1-115.84-.2-119.3-.67zm235.82-5.46c25.93-5.45 46.68-25.07 52.46-49.6 1.3-5.57 1.5-27.34 1.52-167.94.02-180.05.56-166.18-7.12-181.87-3.17-6.5-5.87-10.16-11.74-16C323.47 13.6 311.1 7.36 295.32 5.08c-9.32-1.35-222.48-1.35-231.8 0-15.7 2.27-28 8.47-39.67 20-5.92 5.85-8.54 9.42-11.76 16C4.36 56.82 4.9 42.9 4.92 223c.02 179.3-.42 167.42 6.76 182.04 2.74 5.6 5.82 9.67 12.2 16.1 7.15 7.24 10.05 9.37 18.02 13.27 5.22 2.57 12.42 5.3 16 6.05 10.1 2.16 231.8 2.24 242 .1zM83.75 388.4c-3.3-2.13-6.83-8.23-6.83-11.8 0-1.97 1.86-4.58 7-9.84l7-7.15v-27.2l-6.34-5.08c-6.12-4.9-9.66-10.03-9.66-13.98 0-3.6 5.02-11.97 10.5-17.5l5.5-5.54v-23.08l-6.96-7c-10.13-10.2-10.44-13.6-1.75-19.56 8.98-6.16 15.55-7.98 28.72-7.98 13.06 0 19.5 1.77 28.73 7.9 8.73 5.78 8.4 9.42-1.85 19.72l-6.88 6.92v22.86l5.66 5.73c6.7 6.8 10.85 14.92 9.94 19.5-.83 4.16-4.52 8.78-10.57 13.22l-5.03 3.7v27.09l7 7.38c7.62 8.02 8.25 9.92 5.33 16.08-3.62 7.62-12.5 9.46-20.67 4.28-4.1-2.6-5.67-3-11.76-3-6.08 0-7.5.36-10.54 2.67-4.5 3.44-12.54 4.25-16.53 1.7zm35.17-35.3V329.2l-5.25-.6c-2.9-.33-6.6-.22-8.25.25l-3 .85-.27 23.68-.27 23.68h17.04V353.1zm4.8-34.28c.58-3-5.43-5.77-12.58-5.78-8.16 0-13.22 2.04-13.22 5.33v2.42l12.74-.13c11.2-.1 12.77-.34 13.06-1.85zm-.26-10c1.6-1.6-.95-4.77-5.1-6.35-7.92-3.03-19.66-.34-20.24 4.64l-.3 2.55 12.5-.1c6.88-.04 12.8-.37 13.14-.72zm-3.54-30.32c0-15.06.23-17.5 2-20.96 2.9-5.7 2.62-10.04-.92-13.58-2.6-2.6-3.6-2.92-9.07-2.92-3.38 0-7.12.5-8.33 1.12-5.76 2.94-7.12 8.63-3.68 15.38 1.77 3.47 2 5.9 2 20.96v17.04h18V278.5zM220.52 387c-4.48-3.94-6.25-8.98-4.58-13.02.67-1.6 4.1-5.62 7.6-8.9l6.38-5.97v-26.58l-6.34-4.6c-13.4-9.72-13.32-19.06.26-32.34l5.08-4.96v-23.96l-5-4.63c-6.4-5.9-10-10.8-10-13.57 0-1.3 1.68-3.7 4.13-5.92 15.4-13.92 47.6-13.76 62.68.32 5.27 4.92 3.97 9.37-5.2 17.9l-5.6 5.22v24.6l5.5 5.9c12.66 13.63 12.28 21.94-1.48 32.04l-5.03 3.7v27.18l7 7.2c7.63 7.88 8.3 9.9 5.38 16.06-3.75 7.9-12.32 9.7-20.72 4.38-4.15-2.63-5.63-3-12.07-3-5.6 0-7.66.4-8.7 1.66-2.02 2.42-7.24 4.34-11.8 4.34-3.04 0-4.85-.74-7.48-3.05zm36.87-25.2c.37-8.4.53-19.08.35-23.75l-.33-8.5-4.73-.86c-2.7-.5-6.35-.5-8.5.02l-3.78.9-.27 23.7-.27 23.72h16.82l.7-15.25zm4.52-42.93c0-3.2-5.74-5.82-12.78-5.83-8.13 0-13.22 2.04-13.22 5.3v2.4h13c12 0 13-.15 13-1.87zm0-11.64c0-3.52-7.66-6.6-14.62-5.9-7.18.75-10.8 2.62-11.18 5.75l-.3 2.53 13.05-.03c12.95-.03 13.05-.05 13.05-2.34zm-4-28.48c0-14.82.23-17.25 2-20.7 2.95-5.78 2.63-10.53-.92-14.1-2.6-2.6-3.6-2.9-9.1-2.9-11.98 0-16.84 6.47-11.98 16 1.77 3.46 2 5.88 2 21.2v17.3h18v-16.8zM84 213.3c-4.5-2.3-7.1-5.98-7.78-11.03-.53-4-.35-4.3 6.58-11.38l7.12-7.3v-27.29l-4.02-2.77c-5.96-4.14-10.78-9.92-11.52-13.83-.94-5.02 2.33-11.57 9.48-19.02l6-6.25-.6-11.95-.58-11.94-5.77-6C73.47 74.7 72.9 72.1 79 66.6c9.73-8.8 27.65-12.6 42.7-9.05 11.13 2.63 23.22 10.3 23.22 14.73 0 3.03-3.22 7.64-9.43 13.53l-5.58 5.28v23.29l6.03 6.28c12.98 13.5 12.72 21.8-1 31.87l-5.03 3.7v27.98l5.55 5.06c6.85 6.26 8.84 9.86 8 14.42-.8 4.23-6.37 9.94-10.62 10.87-2.54.56-4.62-.02-10.3-2.9-5.97-3.03-8.16-3.62-13.5-3.6-5.28 0-6.83.4-9.27 2.45-2.57 2.17-8.47 4.52-11.36 4.53-.55 0-2.54-.78-4.43-1.74zm33.7-36l-.28-23.76-5.5-.3c-3.03-.18-6.96-.05-8.75.28l-3.25.6v11.3c0 6.22.3 16.78.65 23.46l.66 12.16h16.72l-.27-23.75zm-12.83-32.34c3.66-.8 6.48-.78 10.23.03 4.17.88 5.46.83 6.54-.25 3.3-3.3-3.2-7.7-11.37-7.7-9.77 0-16.42 3.8-13.3 7.55 1.43 1.73 1.5 1.73 7.9.36zm17.82-12.73c1.25-3.8-8.7-7.87-16.2-6.63-6.14 1.02-9.58 3.1-9.58 5.8 0 2.3.06 2.32 12.67 2.23 9.45-.07 12.77-.43 13.1-1.4zm-3.78-29.33c0-14.44.26-17.22 1.98-21 2.36-5.2 2.5-8.02.6-11.7-1.8-3.47-5.42-5.16-11.06-5.16-11.64 0-16.52 7.2-11.52 17 1.76 3.46 2 5.9 2 20.7v16.8h18V102.9zm105.2 111.43c-3.42-.66-9-6.77-9.74-10.65-.86-4.56 1.14-8.16 8-14.42l5.54-5.07v-28l-5.03-3.68c-13.73-10.07-14-18.36-1-31.87l6.02-6.28V91.45L221 84.46c-6.97-7.02-9.2-11.37-7.4-14.32 2.07-3.33 10.86-9 17.2-11.1 17.03-5.64 38.13-2.07 48.87 8.27 5.23 5.04 4.13 8.58-5.67 18.2l-6.08 5.98v22.89l6.03 6.28c13.14 13.7 12.68 22.62-1.7 32.5l-4.33 3v27.67l7.13 7.13c6.9 6.9 7.1 7.25 6.6 11.14-.74 5.43-4.86 10.6-9.58 12-3.28 1-4.5.85-8.94-1.06-2.83-1.22-5.67-2.84-6.3-3.6-.8-.96-3.42-1.4-8.34-1.4-6.1 0-7.7.38-10.6 2.5-2.93 2.18-9.45 4.76-10.98 4.36-.28-.07-1.53-.33-2.8-.57zm31.57-37.04l-.28-23.76-5.96-.3c-3.28-.17-7-.05-8.25.26l-2.28.58v46.96h17.04l-.27-23.75zm-12.86-32.34c3.68-.8 6.53-.76 10.66.1 6.28 1.3 8.05.53 6.92-3-.93-2.96-6.3-5.04-12.72-4.94-9.38.13-14.12 3-12.4 7.48.67 1.73 1.1 1.75 7.54.36zM260.92 132c0-2.42-2.9-4.62-7.86-5.94-7.76-2.06-18.14.98-18.14 5.32 0 2.26.13 2.28 13 2.28 11.43 0 13-.2 13-1.65zm-4-29.25c0-14.82.23-17.25 2-20.7 4.97-9.76.48-17-10.55-17-11.34 0-16.25 7.07-11.45 16.5 1.77 3.46 2 5.9 2 20.95v17.04h18v-16.8z"/><path fill="#7f7f7f" d="M64.1 446c-17.1-2.28-29.98-8.73-42.8-21.43-7.8-7.72-9.78-10.4-13.72-18.53-8.24-16.97-7.76-4.76-7.44-186.5l.28-161 2.62-7.67c5.5-16.1 15.6-29.54 28.74-38.2 8.5-5.6 14.7-8.3 24.64-10.7C64.08.15 69.3.06 179.42.06c109.95 0 115.35.1 123 1.92 10.2 2.45 16.17 5.03 24.62 10.65 10.13 6.74 19.2 17.08 24.4 27.88 8.04 16.63 7.58 4.76 7.26 186.54l-.28 161.5-2.93 8.4c-7.87 22.52-27.5 40.64-51.3 47.36l-7.78 2.2-113 .16c-62.15.1-115.84-.2-119.3-.67zm235.82-5.46c25.93-5.45 46.68-25.07 52.46-49.6 1.3-5.57 1.5-27.34 1.52-167.94.02-180.05.56-166.18-7.12-181.87-3.17-6.5-5.87-10.16-11.74-16C323.47 13.6 311.1 7.36 295.32 5.08c-9.32-1.35-222.48-1.35-231.8 0-15.7 2.27-28 8.47-39.67 20-5.92 5.85-8.54 9.42-11.76 16C4.36 56.82 4.9 42.9 4.92 223c.02 179.3-.42 167.42 6.76 182.04 2.74 5.6 5.82 9.67 12.2 16.1 7.15 7.24 10.05 9.37 18.02 13.27 5.22 2.57 12.42 5.3 16 6.05 10.1 2.16 231.8 2.24 242 .1zM84.37 388.5c-4.06-2-6.45-6.3-6.45-11.58 0-4 .48-4.77 7-11.15l7-6.85V332.37l-5.6-3.85c-13.6-9.37-13.9-19.63-.93-32.5l5.5-5.48V278.6l.02-11.94-5.4-5.06c-5.64-5.27-9.6-10.9-9.6-13.67 0-4.73 12.6-11.9 25.64-14.6 6.45-1.3 9.2-1.4 15.38-.52 9.02 1.32 17.03 4.18 23.34 8.36 7.9 5.22 7.24 9.6-2.9 19.6l-6.46 6.37v23.07l4.68 4.67c13.92 13.9 13.9 24.02-.1 33.65l-5.58 3.85V358.92l7 6.85c6.52 6.38 7 7.14 7 11.15 0 7.45-5.16 13.12-11.94 13.12-3.14 0-12.37-4.07-13.55-5.98-.34-.56-3.7-1.02-7.45-1.02-5.13 0-7.15.4-8.2 1.66-1.93 2.35-8.82 5.3-12.36 5.3-1.65 0-4.37-.68-6.05-1.5zm35.32-34.73l.26-23.77-2.6-.98c-3.3-1.26-10.57-1.26-13.88 0l-2.56.97v46.91l3.25.44c1.8.23 5.95.37 9.25.3l6-.1.27-23.77zm4.06-34.13c.5-2.64-2.4-5.22-7.55-6.66-7.96-2.23-19.28 1.32-19.28 6.05 0 .92.2 1.87.44 2.12.24.24 6.2.4 13.25.34 11.38-.1 12.86-.3 13.16-1.86zm-9.84-10.08c9.33-.02 9.5-.06 9.5-2.4 0-7.55-21.52-8.22-25.93-.8-1.43 2.38 1.84 5.04 4.87 3.96 1.13-.4 6.32-.75 11.55-.76zm7-31.45c0-15.72.24-18.34 2.03-22.4 1.85-4.18 1.9-4.9.58-8.04-2.73-6.55-10.34-9.14-18.12-6.17-2.46.94-5.16 2.67-5.98 3.85-1.88 2.68-1.88 8.4 0 11.7 1.1 1.9 1.44 6.82 1.46 20.86l.04 18.37 6.25-.63c3.44-.35 7.6-.24 9.25.24 1.65.48 3.34.7 3.75.46.4-.23.75-8.43.75-18.23zm102.42 110.97c-4.16-1.68-7.42-6.84-7.42-11.74 0-4.3.36-4.9 7-11.43l7-6.87V332.5l-6-4.4c-13.24-9.62-13.46-18.08-.8-31.6l5.8-6.2v-23.66l-5.25-4.92c-6.7-6.27-8.74-9.4-8.74-13.34-.02-5.8 10.3-12.1 24.7-15.05 6.4-1.32 9.15-1.4 15.4-.5 13.84 2 27.14 8.38 28.47 13.67.9 3.6-2 8.62-8.63 14.92l-5.95 5.67v23.44l3.38 2.7c1.86 1.5 5.24 5.47 7.5 8.86 4.57 6.85 5.4 12.54 2.64 17.9-1.5 2.9-8.1 8.77-12.27 10.94-2.16 1.13-2.25 1.68-2.25 14.67v13.5l6.38 5.98c8.27 7.74 9.46 10.48 7.13 16.56-1.96 5.15-6.23 8.4-11 8.4-3.22-.02-12.82-4.07-13.95-5.9-.4-.63-3.6-1.1-7.5-1.1-5.13 0-7.15.4-8.2 1.66-3.34 4.06-12.53 6.36-17.44 4.37zm34.35-35.3l.26-23.77-2.6-.98c-3.5-1.33-10.78-1.24-13.9.18l-2.54 1.16v46.55l3.25.44c1.8.23 5.95.37 9.25.3l6-.1.27-23.77zm3.72-34.68c0-1.4-1.13-3.2-2.82-4.45-5.44-4.06-21.43-2.03-23.34 2.96-1.25 3.25 1.22 3.94 13.82 3.88 12.25-.05 12.34-.07 12.34-2.4zm-8.84-9.35c10.36.23 12.18-.96 7.94-5.2-5.54-5.54-23.26-4.02-25.33 2.2-.73 2.13 2.72 4.33 5.54 3.54 1.47-.42 6.8-.67 11.84-.55zm6.34-31.94c0-14.8.28-18.25 1.63-20.32.9-1.36 1.68-4.3 1.73-6.56.1-3.38-.43-4.55-3.08-6.92-3.94-3.52-9.17-4.6-14.5-3-8.18 2.44-11 8.95-7.08 16.34 1.45 2.73 1.65 5.78 1.4 20.8l-.3 17.6 10.1-.05 10.1-.05V277.8zM82.7 212.5c-2.9-1.58-4.48-3.9-5.85-8.7-1.28-4.43.9-8.52 7.93-14.88l6.14-5.55-.05-13.4-.06-13.4-5.95-4.26c-13.14-9.38-13.42-18.67-.96-31.65l6.02-6.28v-22.6l-6.9-7.26c-8.4-8.83-9.58-12.3-5.63-16.43 12.08-12.62 41.63-14.98 58.65-4.68 11 6.64 11.12 10.44.7 21l-6.83 6.96v23l5.37 5.63c9 9.42 11.64 17.24 8.14 24-1.5 2.9-8.1 8.77-12.27 10.94-2.17 1.13-2.25 1.68-2.25 14.7v13.55l7 6.77c6.48 6.28 7 7.1 7 10.98 0 13-13.03 17.3-24.7 8.12-3.3-2.62-14.32-2.92-16.36-.46-3.98 4.8-13.8 6.8-19.17 3.88zm36-34.37c.14-12.88-.12-23.8-.6-24.27-1.53-1.54-10.8-2.07-14.54-.83l-3.64 1.2v23.25c0 12.8.32 23.57.7 23.96.4.4 4.55.58 9.25.43l8.55-.3.27-23.42zm3.72-35.04c0-3.76-5.6-6.54-13-6.44-8.62.12-14.76 3.7-13.2 7.73.37 1 3.6 1.28 13.34 1.2l12.86-.1v-2.4zm-17.55-9.1c3.6-.77 6.48-.78 10-.02 5.9 1.26 8.27.6 7.85-2.18-.6-4-5.3-6.22-13.17-6.22-9.72 0-15.97 3.97-12.62 8 1.47 1.8 1.53 1.8 7.94.42zm9.55-13.92l4.5.68v-17.38c0-15.4.23-17.82 2-21.3 1.1-2.16 2-5.56 2-7.56 0-6.5-8.18-11.64-15.7-9.83C98.83 66.67 95 71.6 97 77.85c.65 2.03 1.58 4.12 2.06 4.64.48.5.88 9.1.88 19.07 0 9.98.23 18.37.5 18.64.3.3 2.54.2 5-.16 2.48-.38 6.52-.38 9 0zm106.26 92.5c-3.6-2.03-5.76-6.4-5.76-11.58 0-3.85.55-4.72 7-11.06l7-6.87-.05-13.25-.06-13.24-5.95-4.25c-7-5-9.92-9.3-9.93-14.6 0-5.4 2.47-10.02 9.2-17.2l5.8-6.2V91.35l-6.84-6.95c-10.4-10.56-10.28-14.36.7-21 17.03-10.3 46.58-7.95 58.67 4.67 3.95 4.13 2.76 7.6-5.63 16.44l-6.9 7.27v22.6l6.03 6.28c12.46 12.98 12.18 22.27-.96 31.64l-5.97 4.24-.06 13.4-.05 13.4 6.14 5.56c8.82 8 10.1 12.24 5.94 20-3.2 5.96-12.66 6.54-20.88 1.27-6.88-4.4-13.5-4.4-19.97.05-5.5 3.8-13.06 4.8-17.47 2.3zm36-34.43c.16-12.88-.1-23.8-.57-24.27-1.53-1.54-10.8-2.07-14.54-.83l-3.64 1.2v23.25c0 12.8.32 23.57.7 23.96.4.4 4.55.58 9.25.43l8.55-.3.27-23.42zm3.74-35.04c0-3.76-5.6-6.54-13-6.44-8.62.12-14.76 3.7-13.2 7.73.37 1 3.6 1.28 13.34 1.2l12.86-.1v-2.4zm-17.55-9.1c3.6-.77 6.48-.78 10-.02 5.9 1.26 8.27.6 7.85-2.18-.6-4-5.3-6.22-13.17-6.22-9.72 0-15.97 3.97-12.62 8 1.47 1.8 1.53 1.8 7.94.42zm9.54-13.92c2.48.37 4.73.45 5 .17.3-.26.52-8.72.52-18.77 0-10.63.4-18.52.96-18.87.53-.32 1.4-2.2 1.96-4.2 2.5-9.03-6.4-16.16-16.7-13.38-8.03 2.16-11.52 9.42-7.72 16.06 1.1 1.9 1.44 6.8 1.46 20.58.02 9.95.27 18.32.55 18.6.28.27 2.53.2 5-.18s6.5-.38 8.98 0z"/><path fill="#485346" d="M57.92 444.5c-27.65-6.02-49.47-26.74-55.47-52.68-1.38-5.96-1.53-25.4-1.3-171.5l.27-164.78 3.13-8.1c7.48-19.4 21.08-33.5 39.8-41.3C59.36-.12 57.88-.07 183.54.3 311.03.65 302.25.15 318.43 8c14.53 7.08 26.3 18.68 33 32.56 6.86 14.16 6.46 2.83 6.47 182.57.02 158.57-.03 162.78-1.95 170.3-3.17 12.37-8.18 20.83-18.5 31.16-7.36 7.36-10.6 9.8-17.53 13.18-17.05 8.3-6.03 7.67-138 7.9-98.08.2-118.57 0-124-1.2zm245.3-4.2c23.7-6.7 42.28-24.67 49.36-47.76 1.75-5.72 1.84-13.57 1.84-169v-163l-2.33-7.5c-3.6-11.58-8.52-19.55-17.66-28.62-6.6-6.56-9.98-9-17.6-12.77-16.1-7.96-9.2-7.57-137.42-7.57-127.9 0-121.37-.36-137.04 7.38-16.42 8.1-29.4 22.83-35.2 39.95l-2.76 8.14-.28 160c-.3 179.33-.73 168.42 6.96 184.5 3.38 7.07 5.62 10.04 13.27 17.64 12.38 12.3 24 18.07 40.94 20.33 3.37.46 56.52.75 118.12.66l112-.16 7.8-2.2zM84.37 388.5c-4.06-2-6.45-6.3-6.45-11.58 0-4 .48-4.77 7-11.15l7-6.85V332.37l-5.6-3.85c-13.6-9.37-13.9-19.63-.93-32.5l5.5-5.48V278.6l.02-11.94-5.4-5.06c-5.64-5.27-9.6-10.9-9.6-13.67 0-4.73 12.6-11.9 25.64-14.6 6.45-1.3 9.2-1.4 15.38-.52 9.02 1.32 17.03 4.18 23.34 8.36 7.9 5.22 7.24 9.6-2.9 19.6l-6.46 6.37v23.07l4.68 4.67c13.92 13.9 13.9 24.02-.1 33.65l-5.58 3.85V358.92l7 6.85c6.52 6.38 7 7.14 7 11.15 0 7.45-5.16 13.12-11.94 13.12-3.14 0-12.37-4.07-13.55-5.98-.34-.56-3.7-1.02-7.45-1.02-5.13 0-7.15.4-8.2 1.66-1.93 2.35-8.82 5.3-12.36 5.3-1.65 0-4.37-.68-6.05-1.5zm35.32-34.73l.26-23.77-2.6-.98c-3.3-1.26-10.57-1.26-13.88 0l-2.56.97v46.91l3.25.44c1.8.23 5.95.37 9.25.3l6-.1.27-23.77zm4.06-34.13c.5-2.64-2.4-5.22-7.55-6.66-7.96-2.23-19.28 1.32-19.28 6.05 0 .92.2 1.87.44 2.12.24.24 6.2.4 13.25.34 11.38-.1 12.86-.3 13.16-1.86zm-9.84-10.08c9.33-.02 9.5-.06 9.5-2.4 0-7.55-21.52-8.22-25.93-.8-1.43 2.38 1.84 5.04 4.87 3.96 1.13-.4 6.32-.75 11.55-.76zm7-31.45c0-15.72.24-18.34 2.03-22.4 1.85-4.18 1.9-4.9.58-8.04-2.73-6.55-10.34-9.14-18.12-6.17-2.46.94-5.16 2.67-5.98 3.85-1.88 2.68-1.88 8.4 0 11.7 1.1 1.9 1.44 6.82 1.46 20.86l.04 18.37 6.25-.63c3.44-.35 7.6-.24 9.25.24 1.65.48 3.34.7 3.75.46.4-.23.75-8.43.75-18.23zm102.42 110.97c-4.16-1.68-7.42-6.84-7.42-11.74 0-4.3.36-4.9 7-11.43l7-6.87V332.5l-6-4.4c-13.24-9.62-13.46-18.08-.8-31.6l5.8-6.2v-23.66l-5.25-4.92c-6.7-6.27-8.74-9.4-8.74-13.34-.02-5.8 10.3-12.1 24.7-15.05 6.4-1.32 9.15-1.4 15.4-.5 13.84 2 27.14 8.38 28.47 13.67.9 3.6-2 8.62-8.63 14.92l-5.95 5.67v23.44l3.38 2.7c1.86 1.5 5.24 5.47 7.5 8.86 4.57 6.85 5.4 12.54 2.64 17.9-1.5 2.9-8.1 8.77-12.27 10.94-2.16 1.13-2.25 1.68-2.25 14.67v13.5l6.38 5.98c8.27 7.74 9.46 10.48 7.13 16.56-1.96 5.15-6.23 8.4-11 8.4-3.22-.02-12.82-4.07-13.95-5.9-.4-.63-3.6-1.1-7.5-1.1-5.13 0-7.15.4-8.2 1.66-3.34 4.06-12.53 6.36-17.44 4.37zm34.35-35.3l.26-23.77-2.6-.98c-3.5-1.33-10.78-1.24-13.9.18l-2.54 1.16v46.55l3.25.44c1.8.23 5.95.37 9.25.3l6-.1.27-23.77zm3.72-34.68c0-1.4-1.13-3.2-2.82-4.45-5.44-4.06-21.43-2.03-23.34 2.96-1.25 3.25 1.22 3.94 13.82 3.88 12.25-.05 12.34-.07 12.34-2.4zm-8.84-9.35c10.36.23 12.18-.96 7.94-5.2-5.54-5.54-23.26-4.02-25.33 2.2-.73 2.13 2.72 4.33 5.54 3.54 1.47-.42 6.8-.67 11.84-.55zm6.34-31.94c0-14.8.28-18.25 1.63-20.32.9-1.36 1.68-4.3 1.73-6.56.1-3.38-.43-4.55-3.08-6.92-3.94-3.52-9.17-4.6-14.5-3-8.18 2.44-11 8.95-7.08 16.34 1.45 2.73 1.65 5.78 1.4 20.8l-.3 17.6 10.1-.05 10.1-.05V277.8zM82.7 212.5c-2.9-1.58-4.48-3.9-5.85-8.7-1.28-4.43.9-8.52 7.93-14.88l6.14-5.55-.05-13.4-.06-13.4-5.95-4.26c-13.14-9.38-13.42-18.67-.96-31.65l6.02-6.28v-22.6l-6.9-7.26c-8.4-8.83-9.58-12.3-5.63-16.43 12.08-12.62 41.63-14.98 58.65-4.68 11 6.64 11.12 10.44.7 21l-6.83 6.96v23l5.37 5.63c9 9.42 11.64 17.24 8.14 24-1.5 2.9-8.1 8.77-12.27 10.94-2.17 1.13-2.25 1.68-2.25 14.7v13.55l7 6.77c6.48 6.28 7 7.1 7 10.98 0 13-13.03 17.3-24.7 8.12-3.3-2.62-14.32-2.92-16.36-.46-3.98 4.8-13.8 6.8-19.17 3.88zm36-34.37c.14-12.88-.12-23.8-.6-24.27-1.53-1.54-10.8-2.07-14.54-.83l-3.64 1.2v23.25c0 12.8.32 23.57.7 23.96.4.4 4.55.58 9.25.43l8.55-.3.27-23.42zm3.72-35.04c0-3.76-5.6-6.54-13-6.44-8.62.12-14.76 3.7-13.2 7.73.37 1 3.6 1.28 13.34 1.2l12.86-.1v-2.4zm-17.55-9.1c3.6-.77 6.48-.78 10-.02 5.9 1.26 8.27.6 7.85-2.18-.6-4-5.3-6.22-13.17-6.22-9.72 0-15.97 3.97-12.62 8 1.47 1.8 1.53 1.8 7.94.42zm9.55-13.92l4.5.68v-17.38c0-15.4.23-17.82 2-21.3 1.1-2.16 2-5.56 2-7.56 0-6.5-8.18-11.64-15.7-9.83C98.83 66.67 95 71.6 97 77.85c.65 2.03 1.58 4.12 2.06 4.64.48.5.88 9.1.88 19.07 0 9.98.23 18.37.5 18.64.3.3 2.54.2 5-.16 2.48-.38 6.52-.38 9 0zm106.26 92.5c-3.6-2.03-5.76-6.4-5.76-11.58 0-3.85.55-4.72 7-11.06l7-6.87-.05-13.25-.06-13.24-5.95-4.25c-7-5-9.92-9.3-9.93-14.6 0-5.4 2.47-10.02 9.2-17.2l5.8-6.2V91.35l-6.84-6.95c-10.4-10.56-10.28-14.36.7-21 17.03-10.3 46.58-7.95 58.67 4.67 3.95 4.13 2.76 7.6-5.63 16.44l-6.9 7.27v22.6l6.03 6.28c12.46 12.98 12.18 22.27-.96 31.64l-5.97 4.24-.06 13.4-.05 13.4 6.14 5.56c8.82 8 10.1 12.24 5.94 20-3.2 5.96-12.66 6.54-20.88 1.27-6.88-4.4-13.5-4.4-19.97.05-5.5 3.8-13.06 4.8-17.47 2.3zm36-34.43c.16-12.88-.1-23.8-.57-24.27-1.53-1.54-10.8-2.07-14.54-.83l-3.64 1.2v23.25c0 12.8.32 23.57.7 23.96.4.4 4.55.58 9.25.43l8.55-.3.27-23.42zm3.74-35.04c0-3.76-5.6-6.54-13-6.44-8.62.12-14.76 3.7-13.2 7.73.37 1 3.6 1.28 13.34 1.2l12.86-.1v-2.4zm-17.55-9.1c3.6-.77 6.48-.78 10-.02 5.9 1.26 8.27.6 7.85-2.18-.6-4-5.3-6.22-13.17-6.22-9.72 0-15.97 3.97-12.62 8 1.47 1.8 1.53 1.8 7.94.42zm9.54-13.92c2.48.37 4.73.45 5 .17.3-.26.52-8.72.52-18.77 0-10.63.4-18.52.96-18.87.53-.32 1.4-2.2 1.96-4.2 2.5-9.03-6.4-16.16-16.7-13.38-8.03 2.16-11.52 9.42-7.72 16.06 1.1 1.9 1.44 6.8 1.46 20.58.02 9.95.27 18.32.55 18.6.28.27 2.53.2 5-.18s6.5-.38 8.98 0z"/><path fill="#0e1f0b" d="M58.3 444.55C43.8 441.4 31.57 434.67 20.9 424c-8.8-8.82-14.94-19.56-18-31.58C.96 384.92.9 380.58.9 223.04.92 66.46.98 61.12 2.85 53.8 9.92 26.18 34 5.2 63.3 1.12c10.74-1.5 221.5-1.5 232.24 0 24.65 3.43 45.4 18.37 55.98 40.32 6.85 14.2 6.5 3.47 6.18 185.1l-.28 164-3.2 8.27c-9.14 23.76-28.86 40.44-54.1 45.8-9.6 2.02-232.48 1.98-241.83-.05zM293.77 442c27.07-3.4 49.4-21.27 57.9-46.38l2.74-8.08.27-161.23c.28-178.67.63-168.54-6.28-183.1-8.9-18.75-25.13-31.88-45.9-37.15-7.7-1.95-11.1-2-123.1-2C67.7 4.04 64 4.1 56.32 6.02 35.7 11.23 19.4 24.53 10.27 43.6c-6.68 13.95-6.4 5.88-6.1 183.46l.26 160.48 3.1 8.62c8.84 24.73 30.73 42.45 56.56 45.8 9.66 1.26 219.74 1.3 229.7.04zM84.22 388.14c-3.93-2.47-6.3-6.83-6.3-11.6 0-3.14.9-4.47 7-10.43l7-6.83v-27.09l-3.25-2.23c-15.83-10.85-16.65-19.27-3.27-33.72l5.52-5.96v-23.8l-6.1-5.96c-7.53-7.34-9.68-11.6-7.52-14.9 2.36-3.62 10.5-8.46 18.1-10.8 13.97-4.28 31.66-2.08 42.85 5.34 9.8 6.48 9.66 9.5-.88 19.95l-6.45 6.38v23.88l5.37 5.63c6.53 6.84 9.62 12.63 9.62 18 0 3.25-.72 4.83-3.7 8.12-2.02 2.25-5.62 5.42-8 7.05l-4.3 2.97V359.27l7 6.84c6.24 6.1 7 7.26 7 10.64 0 7.83-7.08 14.26-14.2 12.92-1.9-.35-5.57-2-8.16-3.63-3.87-2.45-5.77-3-10.65-3-5.02 0-6.6.5-10.33 3.12-5.74 4.04-11.9 4.8-16.35 2zm35.7-34.48v-24.4l-2.25-.6c-3.47-.92-11.33-.73-14.2.36l-2.55.97v46.91l2.75.42c1.5.23 5.8.5 9.5.57l6.75.14v-24.38zm3.5-34.58c0-4.2-4.65-6.54-12.83-6.5-8.57.04-13.68 2.22-13.68 5.82 0 1.27.2 2.5.44 2.75.24.24 6.2.4 13.25.34 12.72-.1 12.82-.12 12.82-2.42zm-8.25-9.26l8.75.28v-2.55c0-5.88-14.67-8.92-23-4.76-6.26 3.12-4.8 8.94 1.9 7.5 1.97-.4 7.54-.63 12.35-.48zm6.02-31.53c.27-14.95.7-19.7 2.12-23.42 1.67-4.38 1.68-4.87.1-8.17-5.07-10.7-25.7-7.7-25.7 3.73 0 1.93.72 4.95 1.6 6.7 1.3 2.6 1.6 6.72 1.6 21.2v17.97l5.75-.6c3.16-.34 7.32-.2 9.25.26 1.92.48 3.82.92 4.2.98.4.05.87-8.34 1.07-18.65zM222.2 388.13c-3.68-2.3-6.3-6.78-6.3-10.75 0-3.5 3.7-8.85 9.47-13.68l4.52-3.78v-27.58l-6.03-4.68c-13.13-10.2-13.25-17.68-.5-31.45l5.52-5.96v-23.5l-7-7.37c-5.9-6.2-7-7.9-7-10.82s.7-3.98 4.6-6.96c5.58-4.26 12.5-6.94 22.1-8.54 14.03-2.34 32.2 2.77 40.17 11.3 3.4 3.66 2.3 6.53-5.92 15.2l-6.96 7.36V290.3l5.8 6.2c6.8 7.27 9.2 11.8 9.2 17.44 0 3.32-.7 4.87-3.7 8.18-2.02 2.25-5.62 5.42-8 7.05l-4.3 2.97v27.6l5.06 4.25c2.78 2.34 6.18 5.96 7.56 8.05 2.24 3.37 2.4 4.22 1.46 7.7-2.8 10.42-13.26 13.03-23.1 5.77-2.74-2.02-4.54-2.48-9.65-2.48-5.4 0-6.88.43-10.68 3.1-5.74 4.05-11.9 4.8-16.35 2zm35.7-34.48v-24.4l-2.25-.6c-3.47-.92-11.33-.73-14.2.36l-2.55.97v46.91l3.25.42c1.8.22 6.06.47 9.5.56l6.25.16v-24.38zm3.82-34.96c.92-7.85-24.48-8.86-26.44-1.04-.3 1.24-.34 2.64-.06 3.1.3.45 6.3.8 13.35.74l12.82-.1.32-2.7zm-9.37-8.93c9.4.24 11.26-.53 9.45-3.92-2.46-4.6-14.75-6.44-22.2-3.33-6.46 2.7-5.37 9.6 1.2 7.75 1.44-.4 6.63-.63 11.55-.5zm6.8-31.48c.3-15.68.66-19.53 2.26-23.44 1.8-4.4 1.83-4.9.3-8.1-2.85-5.97-11.76-8.44-19.2-5.33-6.36 2.66-8.4 9.24-4.95 15.9 1.38 2.7 1.6 6.1 1.43 21.1l-.22 17.88 5.82-.6c3.2-.33 7.4-.2 9.32.26 1.92.48 3.82.92 4.2.98.4.05.87-8.34 1.05-18.65zM81.6 211.06c-4.16-3.66-6.06-8.9-4.6-12.74.53-1.4 3.88-5.3 7.44-8.7l6.48-6.17v-26.98l-5.52-3.97c-13.66-9.82-13.92-18.3-1-32.27l5.52-5.96V90.78l-6.07-6.04c-10.63-10.6-11-13.8-2.34-19.76 15.15-10.42 38.06-10.8 55.15-.94 10.26 5.92 10.2 9.26-.3 20.14l-6.43 6.67v24.25l3.47 3.05c1.9 1.67 5.27 5.76 7.5 9.08 3.18 4.78 4.02 6.96 4.02 10.47 0 3.9-.57 5.03-4.64 9.4-2.56 2.72-6.16 5.9-8 7.03l-3.36 2.07v27.2l7.13 7.34 7.12 7.35-.52 4.68c-.7 6.13-5.82 11.26-11.25 11.26-3.47 0-12.72-3.96-13.97-5.98-.34-.56-3.5-1.02-7.04-1.02-5.6 0-7 .4-10.88 3.14-3.04 2.15-6 3.3-9.36 3.6-4.43.44-5.27.17-8.55-2.7zm37.32-33.05V154l-2.75-1.08c-2.75-1.07-13.16-.67-15.18.58-.72.44-1.08 8.7-1.08 24.6v23.94h19v-24.02zm3.8-34.57c.42-2.95-2.76-5.3-8.98-6.6-4.74-1-6.28-.9-11.4.77-3.98 1.3-6.03 2.5-6.25 3.73-.76 4.03.12 4.3 13.46 4.2 12.1-.07 12.88-.2 13.15-2.1zm-10.8-9.56c11.1.77 10.5.9 10.5-2.24 0-2.27-.74-3.28-3.48-4.75-7.4-3.95-23.02-.96-23.02 4.42 0 3.5.92 3.93 6.48 3.05 2.76-.44 7.04-.65 9.52-.48zm7-30.6c0-15.44.2-17.55 2-20.5 2.62-4.3 2.62-10.7-.02-14.05-4.37-5.56-15.48-5.9-21.35-.67-2.52 2.25-3.08 3.5-3 6.66.06 2.13.84 5.3 1.74 7.04 1.32 2.58 1.62 6.45 1.62 20.96v17.8h19V103.3zm99.88 106.86c-3.28-3.3-3.88-4.53-3.88-8.1 0-3.88.58-4.83 7-11.45l7-7.2v-27.2l-3.36-2.07c-1.84-1.14-5.44-4.3-8-7.04-4.08-4.37-4.64-5.5-4.64-9.4 0-3.5.83-5.67 3.93-10.3 2.16-3.22 5.53-7.4 7.5-9.3l3.57-3.45v-23.8l-6.43-6.67c-10.1-10.44-10.43-13.4-2.18-19.07 15.7-10.8 41.4-10.86 57-.12 8.67 5.96 8.32 8.94-2.32 19.7l-6.08 6.15v23.44l5.52 5.96c13.47 14.56 12.6 23.75-3.27 33.9l-3.25 2.07v27.67l4.75 4.17c2.6 2.3 5.94 5.93 7.4 8.08 2.26 3.35 2.52 4.45 1.8 7.67-.52 2.3-2.2 5-4.38 7-4.87 4.45-9.3 4.4-17-.26-5-3-6.7-3.5-12.08-3.5-4.6 0-6.62.44-7.63 1.66-2.12 2.55-8.95 5.3-13.25 5.32-3.17.02-4.56-.68-7.75-3.86zm38.12-32.14V154l-2.75-1.08c-2.75-1.07-13.16-.67-15.18.58-.72.44-1.08 8.7-1.08 24.6v23.94h19v-24.02zm3.83-34.34c.95-4.95-8.72-8.7-17.63-6.84-3.02.64-6.33 1.9-7.35 2.83-1.73 1.57-2.45 4.44-1.38 5.5.25.27 6.2.44 13.24.4 11.42-.1 12.8-.3 13.1-1.9zm-10.83-9.8c11.1.8 10.5.94 10.5-2.34 0-2.43-.67-3.33-3.5-4.75-9.37-4.7-26.94.8-21.93 6.83.95 1.15 2.26 1.3 5.82.7 2.53-.43 6.62-.63 9.1-.45zm-3.38-13.98c2.73-.06 6.38.2 8.13.58l3.17.7.33-18.82c.28-15.54.67-19.6 2.2-23.35 1.66-4 1.7-4.84.46-7.4-2.34-4.77-6.35-7.07-12.24-7-11.6.16-17.1 7.95-12.2 17.38 1.2 2.34 1.52 6.77 1.52 21.08 0 17.1.1 18.08 1.83 17.53 1-.33 4.07-.64 6.8-.7z"/><path d="M58.3 444.55C43.8 441.4 31.57 434.67 20.9 424c-8.8-8.82-14.94-19.56-18-31.58C.96 384.92.9 380.58.9 223.04.92 66.46.98 61.12 2.85 53.8 9.92 26.18 34 5.2 63.3 1.12c10.74-1.5 221.5-1.5 232.24 0 24.65 3.43 45.4 18.37 55.98 40.32 6.85 14.2 6.5 3.47 6.18 185.1l-.28 164-3.2 8.27c-9.14 23.76-28.86 40.44-54.1 45.8-9.6 2.02-232.48 1.98-241.83-.05zM293.77 442c27.07-3.4 49.4-21.27 57.9-46.38l2.74-8.08.27-161.23c.28-178.67.63-168.54-6.28-183.1-8.9-18.75-25.13-31.88-45.9-37.15-7.7-1.95-11.1-2-123.1-2C67.7 4.04 64 4.1 56.32 6.02 35.7 11.23 19.4 24.53 10.27 43.6c-6.68 13.95-6.4 5.88-6.1 183.46l.26 160.48 3.1 8.62c8.84 24.73 30.73 42.45 56.56 45.8 9.66 1.26 219.74 1.3 229.7.04z"/></g></g></svg>