<svg xmlns="http://www.w3.org/2000/svg" width="358.882" height="446.679" viewBox="0 0 358.88211 446.67926"><g><g><path fill="#dc8c8f" d="M63.88 446.02c-16.3-2-32.04-9.76-43.5-21.42-8.2-8.34-13.5-16.93-17.28-28.06l-2.72-8v-164.5c0-154.1.1-164.9 1.76-170.9C8.84 28.95 26.9 10.7 51.88 2.9l7.5-2.34h240l7.5 2.34c24.73 7.72 42.17 25.16 49.66 49.66 1.75 5.72 1.84 13.78 1.84 171v165l-2.73 8c-3.88 11.4-9.16 19.87-17.77 28.5-8.9 8.9-18.72 14.73-31.5 18.7l-9 2.77-113.5.16c-62.43.1-116.43-.2-120-.64zm242.5-7.2c17.92-6.1 32.92-18.68 40.33-33.8 7.73-15.77 7.18-1.9 7.16-181.44 0-178.1.4-166.92-6.5-181.02-6.65-13.68-17.53-24.26-31.98-31.14-15.4-7.3-6.8-6.88-136-6.88-108.04 0-116.45.12-122.5 1.78-20.3 5.54-37.18 19-45.52 36.24C4.5 56.7 4.9 45.54 4.9 223.58c-.02 179.06-.53 165.75 6.9 180.96 8.8 17.92 26.5 31.34 47.58 36.03 4.84 1.08 28.47 1.3 122.5 1.15l116.5-.18 8-2.72zm-230.73-40.3c-3.32-1.85-4.77-4.4-4.77-8.32 0-2.3 1.13-4 5-7.47l5-4.5-.03-9.34-.02-9.36-4.44-3c-2.46-1.63-5.2-4.36-6.13-6.06-2.34-4.35-.55-9.18 5.7-15.44l4.9-4.9v-14.67l-5.5-5.43c-7.17-7.1-7.37-9.8-1-13.54 6.5-3.8 13.83-5.55 23.5-5.6 13.92-.05 28 5.67 28 11.38 0 1.18-2.35 4.4-5.5 7.48l-5.5 5.4v15.47l4.1 3.96c8.28 8 9.2 14.13 3 19.74-2.16 1.94-4.86 4.04-6 4.65-1.88 1-2.1 2-2.1 9.92v8.8l5 4.22c5.62 4.74 6.82 7.72 4.95 12.24-2.47 5.96-9.65 7.04-18.15 2.74-4.8-2.43-10.87-2.4-15.74.1-5.47 2.78-10.97 3.37-14.28 1.5zm28.23-24.37c0-17.5.15-17.1-6.5-17.1s-6.5-.4-6.5 17.1v15.9h13v-15.9zm2.78-24.02c-.4-2.08-4.55-4.06-8.57-4.08-4.26 0-10.22 2.5-10.22 4.3 0 1.13 1.96 1.4 9.54 1.37 8.04-.04 9.5-.28 9.24-1.6zm.72-7.6c0-.54-1.58-1.8-3.5-2.8-5.3-2.72-16-.87-16 2.78 0 1.12 2 1.36 9.75 1.22 5.7-.1 9.75-.6 9.75-1.18zm-2.5-20.13c0-8.82.4-12.9 1.5-15 2.03-3.9 1.9-5.06-.96-7.9-1.96-1.97-3.47-2.46-7.54-2.46s-5.6.5-7.55 2.45c-2.8 2.8-3.1 5.3-.98 8.1 1.1 1.46 1.47 5.04 1.5 14.44l.03 12.5h14V322.4zm51.77 76.13c-3.3-1.86-4.77-4.4-4.77-8.3 0-2.2 1.2-4.04 5-7.6l5-4.67-.03-9.2-.03-9.22-4.1-2.5c-4.45-2.7-7.83-7.26-7.84-10.55 0-2.88 5.23-10.83 8.92-13.56 2.97-2.2 3.08-2.55 3.08-9.9v-7.6l-5.5-5.22c-7.27-6.9-7.5-9.93-1.02-13.72 13.5-7.9 37.02-7.42 48.05 1 4.88 3.7 4.5 6-2.02 12.17l-5.5 5.2v15.76l4.08 3.96c9.54 9.22 9.36 15.6-.63 22.47l-4.45 3.07v17.36l5.5 5.08c6.34 5.85 6.94 8.6 2.94 13.35-3.73 4.43-8 4.92-15 1.7-6.8-3.1-12.15-3.3-17.4-.62-5.46 2.8-10.96 3.4-14.27 1.53zm28.23-24.38c0-17.5.15-17.1-6.5-17.1s-6.5-.4-6.5 17.1v15.9h13v-15.9zm3-23.84c0-.75-1.68-2.06-3.72-2.92-5.9-2.46-15.28-.53-15.28 3.15 0 .9 2.58 1.22 9.5 1.2 7.35-.04 9.5-.36 9.5-1.42zm0-7.94c0-2.27-6.82-4.6-11.33-3.88-4.9.78-7.67 2.22-7.67 4 0 1.06 2.1 1.36 9.5 1.33 7.53 0 9.5-.3 9.5-1.44zm-2-20.12c0-8.97.4-13.08 1.5-15.2 2.95-5.7-.83-10-8.8-10-7.93 0-11.64 4.98-8.2 11 1 1.77 1.44 6 1.46 14.5l.04 12h14v-12.3zm53.33 76.24c-3.6-1.84-5.83-6.27-4.93-9.87.34-1.34 2.87-4.34 5.6-6.66l5-4.2V360.2l-3.45-2.13c-10.7-6.62-11.24-14.18-1.63-23.48l4.08-3.97v-15.46l-5.5-5.4c-3.2-3.17-5.5-6.3-5.5-7.53 0-1.22 1.45-3.2 3.47-4.74 11.03-8.42 34.56-8.9 48.04-1 6.36 3.73 6.15 6.45-1.02 13.54l-5.5 5.43v14.67l4.9 4.9c6.26 6.26 8.04 11.1 5.7 15.44-.92 1.7-3.67 4.43-6.1 6.07l-4.46 3-.02 9.34-.02 9.33 5 4.5c4.16 3.75 5 5.07 5 7.95 0 3.92-3.28 7.9-7.37 8.92-2.6.65-12.14-1.98-13.17-3.64-1.06-1.72-10.25-1-14.32 1.13-5.47 2.84-10 3.3-13.8 1.38zm28.05-11.56c.35-1.72.63-8.88.63-15.9 0-14 0-14-6.33-13.97-7.97.04-7.67-.63-7.67 17.1v15.9h6.37c6.34 0 6.38-.03 7-3.13zm2.63-36.13c0-.42 0-1.17 0-1.66 0-1.2-5.6-3.1-9.18-3.1-3.96 0-9.82 2.6-9.82 4.34 0 1.16 1.84 1.4 9.5 1.3 5.23-.08 9.5-.48 9.5-.9zm1-7.7c0-1.7-3.8-4-7.53-4.58-4.8-.75-11.82 1.34-12.26 3.66-.3 1.44.94 1.64 9.72 1.64 5.53 0 10.06-.33 10.06-.73zm-2.97-20.56c.04-8.5.46-12.73 1.48-14.5.78-1.37 1.44-3.48 1.46-4.68.05-3.15-4.5-6.32-9.05-6.32-8.03 0-11.8 4.02-9.3 9.92.92 2.2 1.38 7.33 1.38 15.44v12.14h14l.03-12zM73.8 274.12c-4.62-4.62-4.07-8.4 2.08-14.17l5-4.7v-18.12l-4.5-3.1c-9.25-6.36-9.4-12.73-.54-21.47l5.04-4.95v-15.14l-5.5-5.18c-6.93-6.52-7.2-9.02-1.42-13.2 5.68-4.12 16.8-6.48 27.3-5.8 12.5.82 24.62 6.18 24.62 10.9 0 1.1-2.48 4.58-5.5 7.75l-5.5 5.77v7.46c0 7.4.02 7.48 4.08 11.4 8.2 7.94 9.16 13.9 3.17 19.64-2.07 1.97-4.77 4.1-6 4.74-2.1 1.07-2.25 1.8-2.23 10.37l.02 9.2 4 2.97c5.54 4.1 7.28 7.02 6.53 11-1.36 7.24-8.78 9.4-17.75 5.15-6.9-3.26-10.98-3.3-17.24-.1-6.82 3.45-11.9 3.32-15.66-.43zm30.08-22.5V235.2l-3.08-.68c-1.7-.37-4.62-.38-6.5-.03l-3.42.63V268.03h13v-16.42zm2.8-24.33c-.95-5.02-18.8-4.75-18.8.28 0 1.18 1.83 1.46 9.57 1.46 8.58 0 9.54-.18 9.24-1.75zm.4-7.06c.68-.7.17-1.57-1.6-2.72-2-1.3-4.14-1.62-9.1-1.3-6.63.42-9.17 1.65-8.26 4 .6 1.6 17.35 1.62 18.95.02zm-2.2-20.33c0-8.2.45-12.7 1.54-15.3 1.9-4.57 1.18-7.13-2.56-9.07-3.7-1.9-8.3-1.9-12.02.03-3.67 1.9-4.6 5.33-2.54 9.32 1.18 2.28 1.58 6.06 1.58 14.86v11.8h14V199.9zm49.92 74.22c-2.12-2.13-2.92-3.9-2.92-6.45 0-2.98.76-4.18 5-7.82l5-4.3v-18.22l-5.18-3.9c-8.8-6.6-8.86-11.36-.27-20.36l5.45-5.7v-14.8l-5.5-5.07c-6.56-6.06-7.1-8.93-2.44-12.86 5.02-4.22 12.95-6.1 25.44-6.04 11.67.06 19.16 2.03 24.9 6.55 3.85 3.02 3.23 5.52-2.9 11.7l-5.5 5.54v7.92c0 7.36.2 8.08 2.6 9.98 4.72 3.7 8.4 9.75 8.4 13.77 0 3.08-.7 4.36-3.9 7.27-2.17 1.94-4.87 4.04-6 4.65-1.9 1-2.1 2-2.1 10.58 0 5.2.35 9.46.78 9.46 1.6 0 10.22 9.37 10.22 11.1 0 3.2-2.32 7-5.15 8.48-4 2.06-7.85 1.75-13.43-1.08-6.24-3.16-10.95-3.16-17.24 0-6.83 3.43-11.53 3.3-15.26-.42zm30.08-22.5V235.2l-3.08-.68c-1.7-.37-4.62-.38-6.5-.03l-3.42.63V268.03h13v-16.42zm2.8-24.33c-.95-5.02-18.8-4.75-18.8.28 0 1.18 1.83 1.46 9.57 1.46 8.58 0 9.54-.18 9.24-1.75zm.02-7.63c.47-2.4-4.36-3.87-11.1-3.4-5.96.4-8.36 1.68-7.48 3.95.37.97 2.87 1.3 9.38 1.2 7.33-.1 8.93-.4 9.2-1.75zm-1.82-20.23c0-8.83.4-12.92 1.52-15.15 3.7-7.42-5.93-13.2-14.56-8.74-3.67 1.9-4.6 5.33-2.54 9.32 1.18 2.28 1.58 6.06 1.58 14.86v11.8h14v-12.1zm53.1 76.2c-2.8-1.56-5.02-5.2-5.07-8.37-.02-2.14 8.2-11.23 10.16-11.23.45 0 .82-4.26.82-9.46 0-8.8-.16-9.55-2.25-10.62-1.24-.64-3.94-2.77-6-4.74-6-5.73-5.03-11.7 3.16-19.63 4.05-3.94 4.08-4 4.08-11.42v-7.46l-5.5-5.77c-3.03-3.17-5.5-6.66-5.5-7.76 0-4.72 12.12-10.08 24.6-10.9 10.5-.68 21.63 1.68 27.32 5.8 5.86 4.24 5.57 6.94-1.42 13.4l-5.5 5.08v15.04l5.03 4.95c8.88 8.74 8.73 15.1-.52 21.47l-4.5 3.1v18.4l5 4.3c4.24 3.65 5 4.85 5 7.83 0 2.56-.8 4.32-2.93 6.45-3.68 3.68-7.66 3.8-14.92.4-6.76-3.14-11.35-3.13-17.57.02-5.44 2.76-9.84 3.12-13.47 1.1zm28.26-11.35c.34-2.07.62-9.45.63-16.4v-12.64l-3.5-.65c-1.92-.36-5.07-.36-7 0l-3.5.66v32.78h12.75l.62-3.75zm3.64-36.24c0-1.37-3.95-3.7-7.5-4.44-4.06-.83-11.9 1.53-12.32 3.7-.3 1.53.78 1.72 9.74 1.72 5.9 0 10.08-.4 10.08-.98zm-.23-7.82c1.3-3.92-13.48-5.88-17.82-2.36-1.25 1-2.02 2.25-1.7 2.75.76 1.24 19.1.88 19.52-.4zm-2.77-20.42c0-8.88.4-12.56 1.67-15.22 1.35-2.83 1.45-4 .5-6.05-2.4-5.3-12.7-5.92-16.9-1.02-2.14 2.46-2.18 2.8-.77 6.18 1.05 2.5 1.5 7.22 1.5 15.7v12.14h14v-11.72zm-111.73-45.75c-6.1-3.73-5.63-9.86 1.2-15.46l4.53-3.7-.06-9.68-.07-9.68-4.1-3c-9.55-7-9.8-11.12-1.2-20.42l5.43-5.85v-14.8l-5.5-5.43c-7.66-7.56-7.3-10.1 2.02-14.8 13.36-6.7 37.8-4.74 45.87 3.7 2.67 2.77 2.7 3 1.22 5.88-.86 1.65-3.38 4.44-5.6 6.2l-4.02 3.2V87.34l4.95 5.23c8.14 8.6 7.97 13.36-.72 19.84l-5.22 3.9V134l5.5 5.33c6.5 6.3 6.86 8.54 2.1 13.3-4.14 4.15-7.08 4.33-14.45.9-6.84-3.2-12.27-3.18-18.57 0-5.93 3.02-9.03 3.14-13.3.54zm28.73-23.42c0-18.06.16-17.6-6.5-17.6-6.65 0-6.5-.4-6.5 16.93 0 8.65.3 16.03.66 16.4.37.36 3.3.66 6.5.66h5.84v-16.4zm3-24.24c0-2.42-6.73-4.63-11.8-3.87-6.15.92-7.2 1.44-7.2 3.56 0 1.64.94 1.82 9.5 1.8 7.7 0 9.5-.3 9.5-1.5zm-.5-8.06c0-1.2-1.3-2.2-3.83-3.05-6.32-2.08-15.77.44-14.46 3.85.4 1.07 2.58 1.35 9.4 1.18 7.78-.18 8.88-.43 8.88-2zm-1.5-19.43c0-8.06.46-12.7 1.5-15.2 1.98-4.76 1.92-5.33-.96-8.2-1.94-1.95-3.48-2.46-7.36-2.46-8.4 0-12.93 6-8.7 11.56 1.08 1.45 1.46 4.98 1.5 13.94l.02 12h14V78.9z"/><path fill="#8c948b" d="M64.07 446c-15.85-2.12-29.46-8.6-41.2-19.66-12.36-11.62-19.6-24.9-21.96-40.3-.83-5.5-1.05-50.4-.8-167.5.37-179-.33-162.82 7.72-179.1C14.58 25.77 28.7 12.54 43.38 6.1c2.75-1.2 8.6-3.06 13-4.12C64.04.14 69.26.05 179.06.05c124.18 0 121.17-.13 134.8 5.4 15.78 6.42 30.24 19.9 37.53 35.05 7.95 16.48 7.48 5.07 7.48 182.4 0 169 .1 165.25-4.9 177.9-7.93 20.05-27.6 37.23-49.82 43.5l-7.78 2.2-113 .16c-62.15.1-115.84-.2-119.3-.67zm235.8-5.46c25.52-5.37 46.8-25.45 52.45-49.5 1.34-5.7 1.53-26.7 1.54-168.04.02-180.05.56-166.18-7.12-181.87-3.18-6.5-5.87-10.16-11.74-16-11.58-11.53-23.96-17.77-39.73-20.05-9.3-1.35-222.47-1.35-231.8 0-15.76 2.28-28.14 8.52-39.7 20.05-5.9 5.84-8.58 9.5-11.75 16C4.32 56.83 4.88 42.95 4.9 223c0 141.34.2 162.35 1.53 168.04 5.57 23.68 26.8 43.97 51.7 49.43 9.76 2.14 231.62 2.2 241.75.07zM77.28 399.1c-3.06-1.3-6.4-5.92-6.4-8.88 0-1.8 1.52-3.96 5-7.18l5-4.62v-18.88l-4.74-3.5c-5.46-4.06-7.6-7.76-6.66-11.53.37-1.44 3.08-5.24 6.04-8.43l5.38-5.8v-15.91l-5-4.2c-8.08-6.83-7.67-10.67 1.6-15.16 10.97-5.32 28.08-5.47 39.37-.35 10.83 4.9 11.4 7.27 3.53 14.76l-5.5 5.26v8.3c0 7.75.17 8.43 2.6 10.34 4.58 3.6 8.4 9.76 8.4 13.54 0 2.83-.8 4.25-4.15 7.33-2.27 2.1-4.97 4.1-6 4.42-1.63.5-1.85 1.7-1.85 9.95v9.38l5.5 5.2c6.38 6.04 6.84 8.37 2.6 13.12-3.57 4-8.36 4.32-15.17 1-5.66-2.75-12-2.84-17.38-.23-5.15 2.5-9.44 3.22-12.15 2.08zm26.38-25.3l-.27-16.26-3.9-.32c-2.16-.18-4.97-.05-6.26.27-2.34.58-2.34.63-2.34 16.56v15.98h13.05l-.28-16.25zm3.23-23.84c0-1.9-4.63-3.92-8.9-3.9-5 0-10.1 1.97-10.1 3.9 0 1.62.97 1.8 9.5 1.76 8.3-.04 9.5-.26 9.5-1.76zm1-6.92c0-1.84-3.15-3.85-7.08-4.5-5.46-.93-12.92 1.1-12.92 3.53 0 1.58 1.1 1.78 10 1.8 5.5 0 10-.36 10-.83zm-2.97-20.5c.04-8.5.46-12.73 1.48-14.5 2.06-3.6 1.82-5.77-.96-8.55-1.94-1.95-3.48-2.46-7.36-2.46-8.42 0-12.22 4.8-8.68 11 1 1.77 1.44 6 1.46 14.5l.04 12h14l.03-12zm53.98 76.83c-.83-.32-2.74-1.73-4.25-3.14-4.37-4.07-3.76-7.64 2.25-13.28l5-4.7v-9.58c0-9.52-.02-9.6-2.85-11.05-3.53-1.83-9.15-8.1-9.15-10.2 0-2.98 3.07-8.03 7.53-12.4l4.48-4.4v-15.45l-5.58-5.5c-6.66-6.55-6.82-8.74-.92-12.8 8.04-5.58 24.73-7.62 36.26-4.45 6.3 1.73 13.76 5.92 14.64 8.23.82 2.12-1.65 5.97-6.56 10.22l-3.84 3.33v8.88c0 7.82.23 9.02 1.96 9.94 1.1.58 3.56 3.14 5.5 5.68 4.94 6.47 4.8 10.1-.54 15.3-2.24 2.17-4.94 4.23-6 4.56-1.72.55-1.92 1.62-1.92 10.1v9.47l5.7 5.3c5.5 5.12 5.65 5.4 4.7 8.68-.6 2.1-2.3 4.3-4.44 5.74-3.9 2.64-6.72 2.47-13.5-.82-5.27-2.55-12.3-2.55-17.2 0-4.27 2.23-9.03 3.22-11.26 2.35zm25.77-25.58l-.27-16.26-3.9-.32c-2.16-.18-4.97-.05-6.26.27-2.34.58-2.34.63-2.34 16.56v15.98h13.05l-.28-16.25zm3.23-23.8c0-2.03-4.63-3.96-9.5-3.96-4.88 0-9.5 1.93-9.5 3.96 0 1.57 1.08 1.77 9.5 1.77 8.4 0 9.5-.2 9.5-1.77zm0-8c0-1.88-5-3.95-9.5-3.95s-9.5 2.07-9.5 3.95c0 1.68.9 1.86 9.5 1.86s9.5-.18 9.5-1.86zm-2-19.1c0-8.06.46-12.7 1.5-15.2 1.98-4.76 1.92-5.33-.96-8.2-1.9-1.9-3.5-2.46-7.06-2.46-9.25 0-12.65 4.32-8.98 11.36 1.08 2.07 1.5 6.13 1.5 14.5v11.64h14V322.9zm54.4 76.2c-2.93-1.23-6.4-5.87-6.4-8.55 0-1.4 2.04-4.16 5.5-7.42l5.5-5.2v-9.38c0-8.26-.22-9.45-1.86-9.96-1.02-.34-3.72-2.33-6-4.43-3.34-3.08-4.14-4.5-4.14-7.33 0-3.78 3.8-9.94 8.4-13.54 2.44-1.92 2.6-2.58 2.6-10.6v-8.53l-4.4-3.6c-5.3-4.33-7.5-8.75-5.54-11.1 1.94-2.34 9.7-5.98 15.8-7.42 11.5-2.7 26.87-.58 34.64 4.8 5.9 4.1 5.73 6.28-.92 12.83l-5.58 5.5v15.09l5.37 5.8c2.95 3.2 5.67 7 6.03 8.44.95 3.78-1.2 7.48-6.66 11.53l-4.74 3.5v18.89l5 4.62c6 5.55 6.6 9.1 2.25 13.24-4.25 4.04-7.3 4.34-13.82 1.36-6.93-3.18-13.9-3.43-18.62-.67-4.05 2.36-9.6 3.3-12.4 2.12zm26.97-12.18c.35-1.72.63-8.88.63-15.9 0-14.18.1-13.98-7-13.98-7.23 0-7-.54-7 17.1v15.9h6.37c6.34 0 6.38-.02 7-3.12zm3.63-36.58c0-2.38-6.9-4.6-12.34-3.95-5.05.6-7.66 2-7.66 4.1 0 .9 2.77 1.24 10 1.24 7.9 0 10-.3 10-1.4zm0-7.95c0-.8-1.68-2.16-3.72-3.02-5.73-2.4-16.28-.37-16.28 3.12 0 1.1 2.12 1.38 10 1.37 8.06-.02 10-.3 10-1.48zm-2.97-19.86c.03-8.96.4-12.5 1.5-13.94 2.08-2.74 1.83-7.2-.52-9.56-3.1-3.1-12.26-2.83-15.55.45-2.85 2.84-3 4-.95 7.9 1.1 2.1 1.5 6.18 1.5 15v12.14h14l.03-12zM76.4 275.88c-3.1-1.7-5.46-5.1-5.48-7.88-.02-1.74 1.55-4.1 4.98-7.46l5-4.92v-9.8c0-5.38-.4-9.78-.86-9.78-1.85 0-9.96-8.1-10.57-10.58-.82-3.24 2.8-9.8 7.9-14.25 3.48-3.05 3.53-3.2 3.53-10.95v-7.86l-5.58-5.63c-6.8-6.87-6.88-8.96-.42-12.9 12.5-7.67 35-7.53 46.5.28 6.1 4.16 5.5 7.58-2.5 14l-4 3.22v8.78c0 7.94.2 8.93 2.22 10.33 1.22.86 3.7 3.43 5.5 5.7 5.5 6.96 4.18 12.2-4.65 18.3l-4.07 2.83V255l5.5 5.33c6.5 6.3 6.86 8.54 2.1 13.3-4.14 4.15-7.08 4.33-14.45.9-2.94-1.37-7.06-2.5-9.15-2.5-2.1 0-6.2 1.13-9.15 2.5-5.8 2.7-9.22 3.07-12.35 1.35zm27.5-24.23c0-14.03-.23-16.48-1.58-17-2-.77-6.26-.76-9.17.02-2.22.6-2.25.84-2.25 17v16.37h13v-16.4zm3-24.23c0-.82-1.66-2.17-3.68-3.02-6-2.5-16.5.1-15.12 3.75.8 2.08 18.8 1.4 18.8-.73zm.75-7.13c.74-2.24-4.15-4.26-10.28-4.26-6.4 0-10.2 1.68-9.26 4.1.65 1.74 18.95 1.88 19.53.15zm-2.75-20.5c0-8.86.4-12.63 1.58-14.92 3.36-6.5-1.1-11.43-9.6-10.6-8.13.77-10.8 4.75-7.48 11.12 1.08 2.07 1.5 6.13 1.5 14.5v11.64l7 .06 7 .05V199.8zm51.77 75.68c-6.5-3.53-6.42-8.9.23-15.25l5-4.77-.06-9.46-.07-9.46-4.1-3c-9.6-7.02-9.84-11.37-1.16-20.33l5.38-5.56v-15.18l-5.5-5.42c-6.2-6.1-6.85-8.8-2.92-11.9 7.82-6.14 24.8-8.7 37.4-5.6 7.52 1.84 15.22 6.6 15.84 9.8.2 1.06-1.85 3.82-5.25 7.08l-5.57 5.36v16.58l4.95 5.22c8.14 8.6 7.97 13.36-.72 19.84l-5.22 3.9v17.89l5.5 5.2c6.53 6.2 6.9 8.45 2.1 13.24-4.14 4.14-7.08 4.32-14.45.9-6.84-3.2-12.27-3.2-18.57 0-5.58 2.83-8.87 3.08-12.8.94zm28.23-23.83c0-14.03-.23-16.48-1.58-17-2-.77-6.26-.76-9.17.02-2.22.6-2.25.84-2.25 17v16.37h13v-16.4zm2.8-24.43c-.2-.93-2.1-2.27-4.32-3-5.25-1.76-14.48-.02-14.48 2.73 0 .96.18 1.94.4 2.17.24.23 4.54.27 9.57.1 7.92-.28 9.1-.55 8.82-2zm.2-7.4c0-2.52-3.16-3.78-9.5-3.78-6.35 0-9.5 1.26-9.5 3.8 0 1.48 1.2 1.7 9.5 1.7s9.5-.22 9.5-1.7zm-2-19.85c0-8.27.45-12.76 1.54-15.38 1.82-4.38 1.2-7.02-2.14-9.2-3.14-2.07-11.6-1.4-14.4 1.15-2.36 2.12-2.6 6.32-.53 9.05 1.1 1.45 1.47 4.98 1.5 13.94l.03 12 7 .06 7 .05v-11.68zm51.52 73.8c-4.9-4.9-4.58-7.1 1.98-13.44l5.5-5.33v-17.86l-4.46-3.07c-5.57-3.83-7.54-6.6-7.54-10.6 0-3.3 4.56-10.03 8.77-13 2.02-1.4 2.23-2.38 2.23-10.37v-8.82l-4.5-3.7c-7.68-6.27-8.12-9.27-2-13.43 11.5-7.8 33.98-7.95 46.5-.3 6.57 4.03 6.48 6.43-.46 13.06l-5.54 5.3v7.95c0 7.85.04 8 3.54 11.06 5.07 4.46 8.7 11.02 7.9 14.26-.63 2.47-8.74 10.58-10.58 10.58-.48 0-.86 4.4-.86 9.8v9.78l5 4.92c5.44 5.36 6.25 8.4 3.22 12.13-4.02 4.97-8.62 5.52-15.8 1.87-6.08-3.08-12-3.22-17.38-.4-2.2 1.14-5.8 2.33-8 2.62-3.57.48-4.36.16-7.52-3zm29.85-8.85c.35-1.72.63-9.13.63-16.46v-13.33l-3.5-.66c-1.93-.36-5.08-.36-7 0l-3.5.66V268.03h6.37c6.34 0 6.38-.02 7-3.12zm3.42-37.7c-.95-4.98-19.8-4.72-19.8.27 0 1.95.86 2.08 11.04 1.72 7.88-.28 9.05-.55 8.77-2zm.03-7.52c.48-2.46-4.33-3.9-11.57-3.45-6.4.4-8.9 1.64-8 3.97.36.97 2.97 1.3 9.87 1.23 7.9-.07 9.43-.35 9.7-1.75zm-2.8-19.66c.04-8.08.47-12.24 1.48-14 2.26-3.95 1.84-7.58-1.14-9.93-4.72-3.7-15.32-1.9-16.84 2.86-.33 1.06.08 3.6.93 5.63 1.1 2.6 1.55 7.1 1.55 15.37v11.68l7-.05 7-.06.03-11.5zm-113-46.97c-4.75-4.76-3.53-9.92 3.63-15.3l4.3-3.23.02-9.23c.03-9-.04-9.26-2.72-10.92-1.52-.93-4.22-3.06-6-4.72-5.5-5.1-4.18-11.84 3.68-18.94l4.08-3.67V71.18l-5.5-5.4c-3.32-3.28-5.5-6.3-5.5-7.6 0-3.4 7.57-7.58 17.62-9.7 7.44-1.55 9.74-1.64 16.54-.65 8.04 1.17 15.83 4 19.05 6.9 3.24 2.96 2.2 6.22-3.73 11.72l-5.5 5.1v15.08l5.04 4.95c8.88 8.74 8.73 15.3-.46 21.13l-4.5 2.84-.03 9.5-.02 9.5 5 4.3c4.22 3.64 5 4.85 5 7.8 0 7.66-8.76 10.86-17.5 6.4-2.32-1.18-5.9-2-8.75-2-2.86 0-6.44.82-8.75 2-5.2 2.65-12.34 2.66-14.98.03zm30.98-22.42c0-18.34.3-17.6-7.5-17.6s-7.5-.67-7.5 16.93c0 8.65.3 16.03.66 16.4.37.36 3.75.66 7.5.66h6.84v-16.4zm2.73-23.32c.73-2.15-4.85-5.3-9.4-5.3-7.12 0-13.43 3.57-10.86 6.14 1 1 19.92.2 20.27-.84zm-.02-7.9c.64-1.92-3.58-4.62-8.04-5.12-7.05-.8-14.16 2.5-12.2 5.67.72 1.18 19.83.68 20.24-.53zm-.67-37.17c1.77-4.04.78-6-4.28-8.52-3.02-1.5-4.3-1.63-7.63-.73-2.2.6-4.93 2.25-6.04 3.66-1.88 2.4-1.92 2.83-.55 6.1 1.03 2.46 1.48 7.26 1.48 15.86v12.33l7.25.3 7.25.3.55-13c.33-7.9 1.1-14.3 1.98-16.3z"/><path fill="#7f7f7f" d="M64.07 446c-15.85-2.12-29.46-8.6-41.2-19.66-12.36-11.62-19.6-24.9-21.96-40.3-.83-5.5-1.05-50.4-.8-167.5.37-179-.33-162.82 7.72-179.1C14.58 25.77 28.7 12.54 43.38 6.1c2.75-1.2 8.6-3.06 13-4.12C64.04.14 69.26.05 179.06.05c124.18 0 121.17-.13 134.8 5.4 15.78 6.42 30.24 19.9 37.53 35.05 7.95 16.48 7.48 5.07 7.48 182.4 0 169 .1 165.25-4.9 177.9-7.93 20.05-27.6 37.23-49.82 43.5l-7.78 2.2-113 .16c-62.15.1-115.84-.2-119.3-.67zm235.8-5.46c25.52-5.37 46.8-25.45 52.45-49.5 1.34-5.7 1.53-26.7 1.54-168.04.02-180.05.56-166.18-7.12-181.87-3.18-6.5-5.87-10.16-11.74-16-11.58-11.53-23.96-17.77-39.73-20.05-9.3-1.35-222.47-1.35-231.8 0-15.76 2.28-28.14 8.52-39.7 20.05-5.9 5.84-8.58 9.5-11.75 16C4.32 56.83 4.88 42.95 4.9 223c0 141.34.2 162.35 1.53 168.04 5.57 23.68 26.8 43.97 51.7 49.43 9.76 2.14 231.62 2.2 241.75.07zM73.8 396.12c-4.45-4.45-3.9-7.27 2.58-13.45l5.5-5.25v-17.28l-4.46-3.07c-9.98-6.87-10.16-13.25-.63-22.48l4.08-3.97v-16.1l-5.05-4.5c-6.5-5.8-7.05-9.26-2.04-12.68 11.25-7.7 34.3-8.07 46.8-.74 6.25 3.66 5.97 6.78-1.22 13.6l-5.5 5.2v7.63c0 7.34.1 7.7 3.07 9.9 3.57 2.63 8.93 10.63 8.93 13.34 0 3.44-2.92 7.5-7.47 10.38l-4.52 2.86v18.68l5 4.5c4.16 3.75 5 5.07 5 7.95 0 7.6-7.7 10.5-16.86 6.34-5.66-2.57-13.08-2.56-18.14.02-5.9 3-11.5 2.66-15.08-.92zm30.58-22.04v-16.46l-3.5-.74c-1.93-.4-5.2-.3-7.25.25l-3.75 1v15.78c0 8.7.32 16.13.7 16.5.4.4 3.66.6 7.25.43l6.55-.3V374.1zm2.75-22c1.98-.13.4-3.17-2.4-4.62-6.35-3.28-20.38-.18-17.1 3.78.9 1.1 10.38 1.5 19.5.85zm.55-9.28c1-5.1-16.9-6.43-19.98-1.48-1.48 2.4 1.23 3.23 10.34 3.18 7.83-.05 9.38-.32 9.64-1.7zm-2.77-20.16c.03-9.05.4-12.6 1.5-14.04 2.25-2.97 1.8-6.9-1.1-9.64-5.62-5.27-17.42-1.84-17.42 5.06 0 1.45.66 3.5 1.47 4.58 1.1 1.45 1.47 5 1.5 14.04l.03 12.1h14l.03-12.1zm49.9 73.48c-4.53-4.53-3.96-7.5 2.58-13.54l5.5-5.08v-17.36l-4.46-3.07c-9.98-6.87-10.16-13.25-.63-22.48l4.08-3.97V314.7l-5.6-5.2c-6.52-6.08-6.83-8.6-1.5-12.18 11.42-7.67 34.34-8 46.82-.7 6.2 3.63 5.93 6.62-1.22 13.5l-5.5 5.3v7.75c0 7.52.08 7.8 3.12 9.95 3.57 2.55 8.88 10.42 8.88 13.17 0 3.34-2.8 7.2-7.4 10.24l-4.56 3-.02 9.35-.02 9.33 5 4.5c4.16 3.75 5 5.07 5 7.95 0 7.6-7.7 10.5-16.86 6.34-2.4-1.1-6.5-1.98-9.14-1.98-2.63 0-6.75.9-9.14 1.98-6.5 2.95-11.38 2.65-14.94-.9zm30.58-22.04v-16.46l-3.5-.74c-1.93-.4-5.2-.3-7.25.25l-3.75 1v15.78c0 8.7.32 16.13.7 16.5.4.4 3.66.6 7.25.43l6.55-.3V374.1zm2.37-22.46c1.56-.97.34-3.16-2.48-4.44-3.06-1.4-10.37-1.48-13.85-.16-2.85 1.1-4.43 3.85-2.8 4.87 1.35.8 17.73.58 19.13-.28zm.94-8.84c.7-3.73-9.77-6.05-16.6-3.67-2.93 1.03-4.73 3.32-3.8 4.83.25.4 4.86.66 10.26.6 8.2-.1 9.87-.4 10.13-1.75zm-2.8-20.15c.04-8.6.46-12.8 1.48-14.6 2.08-3.63 1.8-6.34-.86-8.86-3.25-3.05-8.54-3.75-12.87-1.7-4.66 2.22-5.97 5.2-4.16 9.5.92 2.2 1.38 7.34 1.38 15.57v12.27l7.5-.04 7.5-.05.03-12.07zm51.43 73.96c-1.66-1.67-2.45-3.6-2.45-5.92 0-2.88.83-4.2 5-7.95l5-4.5v-18.7l-4.54-2.86c-4.54-2.88-7.46-6.94-7.46-10.4 0-2.74 5.3-10.6 8.88-13.16 3.03-2.15 3.12-2.43 3.12-9.95v-7.74l-5.5-5.2c-7.2-6.83-7.48-9.95-1.23-13.6 12.48-7.32 35.4-6.98 46.82.7 5.34 3.58 5.03 6.1-1.5 12.17l-5.6 5.2v15.93l4.1 3.96c9.53 9.22 9.35 15.6-.64 22.47l-4.45 3.07v17.28l5.5 5.25c6.5 6.18 7.02 9 2.57 13.45-3.55 3.55-8.43 3.85-14.93.9-5.6-2.54-12.62-2.53-17.9.02-5.85 2.82-11.7 2.64-14.8-.45zm30.05-22.5v-16.43l-3.25-.85c-1.8-.46-4.72-.46-6.5 0l-3.25.85-.28 16.73-.27 16.73 6.77-.3 6.78-.3V374.1zm3.3-23.3c.78-4-10.97-6.46-17.26-3.6-2.22 1-3.37 3.68-2.13 4.92.22.23 4.6.38 9.74.33 7.63-.07 9.4-.37 9.64-1.65zm-.3-8.28c0-2.96-4.24-4.6-10.78-4.2-5.96.36-9.45 2.38-8.48 4.9.37.98 2.95 1.32 9.88 1.28 8.56-.05 9.38-.23 9.38-1.98zm-2-19.34c-.58-10.47-.45-12.02 1.36-15.48 2.5-4.77 1.7-7.48-3-10.06-4.1-2.25-9.23-1.67-13.26 1.5-2.9 2.28-3.25 5.14-1.1 8.9 1 1.78 1.44 6 1.46 14.6l.04 12.07 7.58.06 7.58.05-.65-11.62zm-193.27-47.8c-1.63-.67-4.22-5.68-4.22-8.2 0-1.08 2.43-4.16 5.5-6.97l5.5-5V237.06L78 234.62c-8.6-5.44-10.26-11.33-5.14-18.4 1.64-2.26 4.1-4.85 5.5-5.76 2.36-1.54 2.52-2.18 2.52-9.97v-8.33l-5.5-5.4c-3.03-3-5.5-6.2-5.5-7.13 0-2.84 4.96-6.5 11.56-8.55 13.6-4.2 25.6-3.55 37.2 2.05 5.68 2.74 6.24 3.3 6.24 6.14 0 2.5-1.1 4.12-5.5 8.2l-5.5 5.08v7.66c0 7.48.08 7.72 3.38 10.48 4.65 3.87 8.62 10.04 8.62 13.38 0 3.4-3.6 7.87-8.42 10.47l-3.58 1.92v19.04l5 4.3c4.35 3.76 5 4.8 5 8.08 0 7.62-8.63 10.64-17.5 6.12-2.23-1.14-5.9-2-8.5-2-2.6 0-6.27.86-8.5 2-3.68 1.88-11.18 2.57-14.27 1.33zm29.78-23.73c0-14.03-.23-16.48-1.58-17-2.76-1.06-10.97-.66-12.22.6-.84.82-1.2 6.03-1.2 17v15.8h15v-16.4zm2.7-23.2c.64-1.94-3.58-4.64-8.04-5.14-7-.78-14.16 2.5-12.24 5.62.72 1.15 19.88.7 20.27-.47zm0-8c.2-.58-.6-1.92-1.78-2.98-4.3-3.9-20-1.4-18.34 2.9.64 1.68 19.56 1.74 20.12.07zm-1.1-34.93c3.7-5.62-.9-11.77-8.68-11.66-7.82.1-12.17 6.1-8.5 11.7 1.2 1.86 1.58 5.18 1.58 14.4v12l6.75.28 6.75.3.28-12.33c.2-9.04.7-12.95 1.82-14.68zm48.42 88.55c-2.68-2.7-3.54-6.7-2.03-9.5.68-1.3 3.2-3.8 5.62-5.62l4.38-3.28v-9.28c0-8.4-.2-9.4-2.1-10.4-1.14-.62-3.84-2.72-6-4.66-3.2-2.9-3.9-4.2-3.9-7.27 0-4.02 3.68-10.06 8.4-13.77 2.4-1.9 2.6-2.64 2.6-9.8v-7.78l-5.5-5.77c-3.03-3.17-5.5-6.7-5.5-7.82 0-2.7 5.78-6.44 13.5-8.73 16.06-4.77 40.34.52 41.32 9 .27 2.3-.66 3.7-5.26 7.97l-5.58 5.17v7.54l.02 7.54 5.03 4.95c8.88 8.74 8.73 15.3-.46 21.13l-4.5 2.84-.03 9.5-.02 9.5 5 4.3c4.12 3.56 5 4.9 5 7.62 0 1.83-.93 4.48-2.08 5.95-1.7 2.2-2.87 2.64-6.75 2.62-2.57 0-6.63-.9-9.03-2-5.57-2.53-11.66-2.52-16.64.02-5.25 2.67-12.82 2.7-15.48.03zm30.98-22.42c0-18.34.3-17.6-7.5-17.6-7.82 0-7.5-.74-7.5 17.6v16.4h15v-16.4zm2.7-23.2c.67-2.03-3.7-4.7-8.47-5.16-7.12-.7-14.6 3.03-11.76 5.87.97.97 19.9.3 20.23-.72zm0-8c.2-.58-.6-1.92-1.8-2.98-3.16-2.88-14.06-2.72-17.02.24-1.17 1.18-1.86 2.56-1.54 3.08.8 1.3 19.9 1 20.36-.34zm-1.05-35c1.04-1.97 1.4-4.08.98-5.75-1.6-6.45-12.35-8.1-17.73-2.7-2.9 2.9-2.93 3-1.43 6.62 1.1 2.62 1.54 7.18 1.54 16v12.33l7.25.3 7.25.3.26-12c.18-8.8.7-12.84 1.9-15.1zm49.52 88.28c-1.4-1.5-2.17-3.6-2.17-5.95 0-3.1.7-4.24 5-7.93l5-4.3v-19.06l-3.58-1.93c-10.77-5.8-10.95-13.18-.58-23l4.16-3.94v-15.05l-5.58-5.15c-4.63-4.27-5.52-5.64-5.25-8 1.03-8.88 25.53-13.88 42.4-8.64 7.34 2.27 12.43 5.9 12.43 8.84 0 .94-2.48 4.14-5.5 7.12l-5.5 5.4v8.05c0 7.5.18 8.2 2.6 10.1 4.44 3.5 8.4 9.77 8.4 13.3 0 3.8-3.32 8.24-8.55 11.47l-3.45 2.13v18l5.5 5c3.06 2.82 5.5 5.9 5.5 7 0 2.74-2.62 7.48-4.55 8.22-3.22 1.23-9.6.58-13.45-1.38-2.23-1.14-5.9-2-8.5-2-2.6 0-6.27.86-8.5 2-5.6 2.85-13 2.7-15.83-.3zm30.6-22.44l-.27-16.76-4.42-.32c-2.43-.17-5.47-.05-6.75.27-2.32.58-2.32.63-2.32 17.06v16.48h14.05l-.28-16.75zm3.04-23.5c.18-1.02-.93-2.28-2.92-3.3-6.15-3.2-18.26-.43-16.64 3.78.4 1.06 2.73 1.36 9.88 1.26 7.8-.1 9.4-.4 9.67-1.75zm0-8.04c.4-2.1-5.1-4.72-9.82-4.72-6.03 0-11.86 3.8-9.48 6.2.3.28 4.67.46 9.74.4 7.93-.1 9.26-.37 9.55-1.88zm-2.34-19.2c-.58-9.3-.44-11.94.73-13.76 2.8-4.37 2.8-6.7-.07-9.9-2.28-2.57-3.42-3.03-7.47-3.03-8.4 0-12.47 4.82-9.26 11 1.18 2.3 1.58 6.1 1.58 15.12v12.04h15.2l-.72-11.5zm-113.46-47.5c-4.75-4.75-3.53-9.9 3.63-15.3l4.3-3.22.02-9.23c.03-9-.04-9.26-2.72-10.92-1.52-.93-4.22-3.06-6-4.72-5.5-5.1-4.18-11.84 3.68-18.94l4.08-3.67V71.18l-5.5-5.4c-3.32-3.28-5.5-6.3-5.5-7.6 0-3.4 7.57-7.58 17.62-9.7 7.44-1.55 9.74-1.64 16.54-.65 8.04 1.17 15.83 4 19.05 6.9 3.24 2.96 2.2 6.22-3.73 11.72l-5.5 5.1v15.08l5.04 4.95c8.88 8.74 8.73 15.3-.46 21.13l-4.5 2.84-.03 9.5-.02 9.5 5 4.3c4.22 3.64 5 4.85 5 7.8 0 7.66-8.76 10.86-17.5 6.4-2.32-1.18-5.9-2-8.75-2-2.86 0-6.44.82-8.75 2-5.2 2.65-12.34 2.66-14.98.03zm30.98-22.4c0-18.35.3-17.62-7.5-17.62s-7.5-.66-7.5 16.94c0 8.65.3 16.03.66 16.4.37.36 3.75.66 7.5.66h6.84v-16.4zm2.73-23.33c.73-2.15-4.85-5.3-9.4-5.3-7.12 0-13.43 3.57-10.86 6.14 1 1 19.92.2 20.27-.84zm-.02-7.9c.64-1.92-3.58-4.62-8.04-5.12-7.05-.8-14.16 2.5-12.2 5.67.72 1.18 19.83.68 20.24-.53zm-.67-37.17c1.77-4.04.78-6-4.28-8.52-3.02-1.5-4.3-1.63-7.63-.73-2.2.6-4.93 2.25-6.04 3.66-1.88 2.4-1.92 2.83-.55 6.1 1.03 2.46 1.48 7.26 1.48 15.86v12.33l7.25.3 7.25.3.55-13c.33-7.9 1.1-14.3 1.98-16.3z"/><path fill="#ba1a21" d="M57.88 444.48c-15.7-3.38-28.32-10.56-39.1-22.23-7.84-8.47-13.2-18.2-15.93-28.82C.93 385.9.88 381.68.88 223.2.88 42.85.43 55 7.52 40.42c6.8-14 18.3-25.34 32.86-32.42C56.68.1 48.05.55 179.38.55 310.7.54 302.06.08 318.38 8c14.54 7.08 26.3 18.68 33.02 32.56 6.85 14.16 6.45 2.83 6.46 182.57.02 158.57-.03 162.78-1.96 170.3-5.2 20.32-21.63 38.9-41.6 47-14.06 5.73-11.26 5.62-135.63 5.53-94-.06-115.45-.33-120.8-1.48zm244-3.78c20.25-5.44 37.1-19.02 46.08-37.16 7.34-14.82 6.98-5.15 6.68-184l-.26-160-2.76-8.13c-7.6-22.38-28.52-41.12-51.24-45.86-10.45-2.18-231.56-2.18-242 0C35.66 10.28 14.72 29.02 7.13 51.4l-2.75 8.14-.28 160c-.3 179.36-.73 168.44 6.97 184.5 3.36 7 5.68 10.1 13.2 17.62 7.52 7.53 10.6 9.82 17.6 13.17 9.34 4.46 14.18 5.95 23.4 7.18 3.36.46 56.5.74 118.1.63 103.03-.17 112.53-.32 118.5-1.93zM73.8 396.12c-4.45-4.45-3.9-7.27 2.58-13.45l5.5-5.25v-17.28l-4.46-3.07c-9.98-6.87-10.16-13.25-.63-22.48l4.08-3.97v-16.1l-5.05-4.5c-6.5-5.8-7.05-9.26-2.04-12.68 11.25-7.7 34.3-8.07 46.8-.74 6.25 3.66 5.97 6.78-1.22 13.6l-5.5 5.2v7.63c0 7.34.1 7.7 3.07 9.9 3.57 2.63 8.93 10.63 8.93 13.34 0 3.44-2.92 7.5-7.47 10.38l-4.52 2.86v18.68l5 4.5c4.16 3.75 5 5.07 5 7.95 0 7.6-7.7 10.5-16.86 6.34-5.66-2.57-13.08-2.56-18.14.02-5.9 3-11.5 2.66-15.08-.92zm30.58-22.04v-16.46l-3.5-.74c-1.93-.4-5.2-.3-7.25.25l-3.75 1v15.78c0 8.7.32 16.13.7 16.5.4.4 3.66.6 7.25.43l6.55-.3V374.1zm2.75-22c1.98-.13.4-3.17-2.4-4.62-6.35-3.28-20.38-.18-17.1 3.78.9 1.1 10.38 1.5 19.5.85zm.55-9.28c1-5.1-16.9-6.43-19.98-1.48-1.48 2.4 1.23 3.23 10.34 3.18 7.83-.05 9.38-.32 9.64-1.7zm-2.77-20.16c.03-9.05.4-12.6 1.5-14.04 2.25-2.97 1.8-6.9-1.1-9.64-5.62-5.27-17.42-1.84-17.42 5.06 0 1.45.66 3.5 1.47 4.58 1.1 1.45 1.47 5 1.5 14.04l.03 12.1h14l.03-12.1zm49.9 73.48c-4.53-4.53-3.96-7.5 2.58-13.54l5.5-5.08v-17.36l-4.46-3.07c-9.98-6.87-10.16-13.25-.63-22.48l4.08-3.97V314.7l-5.6-5.2c-6.52-6.08-6.83-8.6-1.5-12.18 11.42-7.67 34.34-8 46.82-.7 6.2 3.63 5.93 6.62-1.22 13.5l-5.5 5.3v7.75c0 7.52.08 7.8 3.12 9.95 3.57 2.55 8.88 10.42 8.88 13.17 0 3.34-2.8 7.2-7.4 10.24l-4.56 3-.02 9.35-.02 9.33 5 4.5c4.16 3.75 5 5.07 5 7.95 0 7.6-7.7 10.5-16.86 6.34-2.4-1.1-6.5-1.98-9.14-1.98-2.63 0-6.75.9-9.14 1.98-6.5 2.95-11.38 2.65-14.94-.9zm30.58-22.04v-16.46l-3.5-.74c-1.93-.4-5.2-.3-7.25.25l-3.75 1v15.78c0 8.7.32 16.13.7 16.5.4.4 3.66.6 7.25.43l6.55-.3V374.1zm2.37-22.46c1.56-.97.34-3.16-2.48-4.44-3.06-1.4-10.37-1.48-13.85-.16-2.85 1.1-4.43 3.85-2.8 4.87 1.35.8 17.73.58 19.13-.28zm.94-8.84c.7-3.73-9.77-6.05-16.6-3.67-2.93 1.03-4.73 3.32-3.8 4.83.25.4 4.86.66 10.26.6 8.2-.1 9.87-.4 10.13-1.75zm-2.8-20.15c.04-8.6.46-12.8 1.48-14.6 2.08-3.63 1.8-6.34-.86-8.86-3.25-3.05-8.54-3.75-12.87-1.7-4.66 2.22-5.97 5.2-4.16 9.5.92 2.2 1.38 7.34 1.38 15.57v12.27l7.5-.04 7.5-.05.03-12.07zm51.43 73.96c-1.66-1.67-2.45-3.6-2.45-5.92 0-2.88.83-4.2 5-7.95l5-4.5v-18.7l-4.54-2.86c-4.54-2.88-7.46-6.94-7.46-10.4 0-2.74 5.3-10.6 8.88-13.16 3.03-2.15 3.12-2.43 3.12-9.95v-7.74l-5.5-5.2c-7.2-6.83-7.48-9.95-1.23-13.6 12.48-7.32 35.4-6.98 46.82.7 5.34 3.58 5.03 6.1-1.5 12.17l-5.6 5.2v15.93l4.1 3.96c9.53 9.22 9.35 15.6-.64 22.47l-4.45 3.07v17.28l5.5 5.25c6.5 6.18 7.02 9 2.57 13.45-3.55 3.55-8.43 3.85-14.93.9-5.6-2.54-12.62-2.53-17.9.02-5.85 2.82-11.7 2.64-14.8-.45zm30.05-22.5v-16.43l-3.25-.85c-1.8-.46-4.72-.46-6.5 0l-3.25.85-.28 16.73-.27 16.73 6.77-.3 6.78-.3V374.1zm3.3-23.3c.78-4-10.97-6.46-17.26-3.6-2.22 1-3.37 3.68-2.13 4.92.22.23 4.6.38 9.74.33 7.63-.07 9.4-.37 9.64-1.65zm-.3-8.28c0-2.96-4.24-4.6-10.78-4.2-5.96.36-9.45 2.38-8.48 4.9.37.98 2.95 1.32 9.88 1.28 8.56-.05 9.38-.23 9.38-1.98zm-2-19.34c-.58-10.47-.45-12.02 1.36-15.48 2.5-4.77 1.7-7.48-3-10.06-4.1-2.25-9.23-1.67-13.26 1.5-2.9 2.28-3.25 5.14-1.1 8.9 1 1.78 1.44 6 1.46 14.6l.04 12.07 7.58.06 7.58.05-.65-11.62zm-193.27-47.8c-1.63-.67-4.22-5.68-4.22-8.2 0-1.08 2.43-4.16 5.5-6.97l5.5-5V237.06L78 234.62c-8.6-5.44-10.26-11.33-5.14-18.4 1.64-2.26 4.1-4.85 5.5-5.76 2.36-1.54 2.52-2.18 2.52-9.97v-8.33l-5.5-5.4c-3.03-3-5.5-6.2-5.5-7.13 0-2.84 4.96-6.5 11.56-8.55 13.6-4.2 25.6-3.55 37.2 2.05 5.68 2.74 6.24 3.3 6.24 6.14 0 2.5-1.1 4.12-5.5 8.2l-5.5 5.08v7.66c0 7.48.08 7.72 3.38 10.48 4.65 3.87 8.62 10.04 8.62 13.38 0 3.4-3.6 7.87-8.42 10.47l-3.58 1.92v19.04l5 4.3c4.35 3.76 5 4.8 5 8.08 0 7.62-8.63 10.64-17.5 6.12-2.23-1.14-5.9-2-8.5-2-2.6 0-6.27.86-8.5 2-3.68 1.88-11.18 2.57-14.27 1.33zm29.78-23.73c0-14.03-.23-16.48-1.58-17-2.76-1.06-10.97-.66-12.22.6-.84.82-1.2 6.03-1.2 17v15.8h15v-16.4zm2.7-23.2c.64-1.94-3.58-4.64-8.04-5.14-7-.78-14.16 2.5-12.24 5.62.72 1.15 19.88.7 20.27-.47zm0-8c.2-.58-.6-1.92-1.78-2.98-4.3-3.9-20-1.4-18.34 2.9.64 1.68 19.56 1.74 20.12.07zm-1.1-34.93c3.7-5.62-.9-11.77-8.68-11.66-7.82.1-12.17 6.1-8.5 11.7 1.2 1.86 1.58 5.18 1.58 14.4v12l6.75.28 6.75.3.28-12.33c.2-9.04.7-12.95 1.82-14.68zm48.42 88.55c-2.68-2.7-3.54-6.7-2.03-9.5.68-1.3 3.2-3.8 5.62-5.62l4.38-3.28v-9.28c0-8.4-.2-9.4-2.1-10.4-1.14-.62-3.84-2.72-6-4.66-3.2-2.9-3.9-4.2-3.9-7.27 0-4.02 3.68-10.06 8.4-13.77 2.4-1.9 2.6-2.64 2.6-9.8v-7.78l-5.5-5.77c-3.03-3.17-5.5-6.7-5.5-7.82 0-2.7 5.78-6.44 13.5-8.73 16.06-4.77 40.34.52 41.32 9 .27 2.3-.66 3.7-5.26 7.97l-5.58 5.17v7.54l.02 7.54 5.03 4.95c8.88 8.74 8.73 15.3-.46 21.13l-4.5 2.84-.03 9.5-.02 9.5 5 4.3c4.12 3.56 5 4.9 5 7.62 0 1.83-.93 4.48-2.08 5.95-1.7 2.2-2.87 2.64-6.75 2.62-2.57 0-6.63-.9-9.03-2-5.57-2.53-11.66-2.52-16.64.02-5.25 2.67-12.82 2.7-15.48.03zm30.98-22.42c0-18.34.3-17.6-7.5-17.6-7.82 0-7.5-.74-7.5 17.6v16.4h15v-16.4zm2.7-23.2c.67-2.03-3.7-4.7-8.47-5.16-7.12-.7-14.6 3.03-11.76 5.87.97.97 19.9.3 20.23-.72zm0-8c.2-.58-.6-1.92-1.8-2.98-3.16-2.88-14.06-2.72-17.02.24-1.17 1.18-1.86 2.56-1.54 3.08.8 1.3 19.9 1 20.36-.34zm-1.05-35c1.04-1.97 1.4-4.08.98-5.75-1.6-6.45-12.35-8.1-17.73-2.7-2.9 2.9-2.93 3-1.43 6.62 1.1 2.62 1.54 7.18 1.54 16v12.33l7.25.3 7.25.3.26-12c.18-8.8.7-12.84 1.9-15.1zm49.52 88.28c-1.4-1.5-2.17-3.6-2.17-5.95 0-3.1.7-4.24 5-7.93l5-4.3v-19.06l-3.58-1.93c-10.77-5.8-10.95-13.18-.58-23l4.16-3.94v-15.05l-5.58-5.15c-4.63-4.27-5.52-5.64-5.25-8 1.03-8.88 25.53-13.88 42.4-8.64 7.34 2.27 12.43 5.9 12.43 8.84 0 .94-2.48 4.14-5.5 7.12l-5.5 5.4v8.05c0 7.5.18 8.2 2.6 10.1 4.44 3.5 8.4 9.77 8.4 13.3 0 3.8-3.32 8.24-8.55 11.47l-3.45 2.13v18l5.5 5c3.06 2.82 5.5 5.9 5.5 7 0 2.74-2.62 7.48-4.55 8.22-3.22 1.23-9.6.58-13.45-1.38-2.23-1.14-5.9-2-8.5-2-2.6 0-6.27.86-8.5 2-5.6 2.85-13 2.7-15.83-.3zm30.6-22.44l-.27-16.76-4.42-.32c-2.43-.17-5.47-.05-6.75.27-2.32.58-2.32.63-2.32 17.06v16.48h14.05l-.28-16.75zm3.04-23.5c.18-1.02-.93-2.28-2.92-3.3-6.15-3.2-18.26-.43-16.64 3.78.4 1.06 2.73 1.36 9.88 1.26 7.8-.1 9.4-.4 9.67-1.75zm0-8.04c.4-2.1-5.1-4.72-9.82-4.72-6.03 0-11.86 3.8-9.48 6.2.3.28 4.67.46 9.74.4 7.93-.1 9.26-.37 9.55-1.88zm-2.34-19.2c-.58-9.3-.44-11.94.73-13.76 2.8-4.37 2.8-6.7-.07-9.9-2.28-2.57-3.42-3.03-7.47-3.03-8.4 0-12.47 4.82-9.26 11 1.18 2.3 1.58 6.1 1.58 15.12v12.04h15.2l-.72-11.5zm-113.46-47.5c-4.75-4.75-3.53-9.9 3.63-15.3l4.3-3.22.02-9.23c.03-9-.04-9.26-2.72-10.92-1.52-.93-4.22-3.06-6-4.72-5.5-5.1-4.18-11.84 3.68-18.94l4.08-3.67V71.18l-5.5-5.4c-3.32-3.28-5.5-6.3-5.5-7.6 0-3.4 7.57-7.58 17.62-9.7 7.44-1.55 9.74-1.64 16.54-.65 8.04 1.17 15.83 4 19.05 6.9 3.24 2.96 2.2 6.22-3.73 11.72l-5.5 5.1v15.08l5.04 4.95c8.88 8.74 8.73 15.3-.46 21.13l-4.5 2.84-.03 9.5-.02 9.5 5 4.3c4.22 3.64 5 4.85 5 7.8 0 7.66-8.76 10.86-17.5 6.4-2.32-1.18-5.9-2-8.75-2-2.86 0-6.44.82-8.75 2-5.2 2.65-12.34 2.66-14.98.03zm30.98-22.4c0-18.35.3-17.62-7.5-17.62s-7.5-.66-7.5 16.94c0 8.65.3 16.03.66 16.4.37.36 3.75.66 7.5.66h6.84v-16.4zm2.73-23.33c.73-2.15-4.85-5.3-9.4-5.3-7.12 0-13.43 3.57-10.86 6.14 1 1 19.92.2 20.27-.84zm-.02-7.9c.64-1.92-3.58-4.62-8.04-5.12-7.05-.8-14.16 2.5-12.2 5.67.72 1.18 19.83.68 20.24-.53zm-.67-37.17c1.77-4.04.78-6-4.28-8.52-3.02-1.5-4.3-1.63-7.63-.73-2.2.6-4.93 2.25-6.04 3.66-1.88 2.4-1.92 2.83-.55 6.1 1.03 2.46 1.48 7.26 1.48 15.86v12.33l7.25.3 7.25.3.55-13c.33-7.9 1.1-14.3 1.98-16.3z"/><path fill="#485346" d="M57.88 444.48c-15.7-3.38-28.32-10.56-39.1-22.23-7.84-8.47-13.2-18.2-15.93-28.82C.93 385.9.88 381.68.88 223.2.88 42.85.43 55 7.52 40.42c6.8-14 18.3-25.34 32.86-32.42C56.68.1 48.05.55 179.38.55 310.7.54 302.06.08 318.38 8c14.54 7.08 26.3 18.68 33.02 32.56 6.85 14.16 6.45 2.83 6.46 182.57.02 158.57-.03 162.78-1.96 170.3-5.2 20.32-21.63 38.9-41.6 47-14.06 5.73-11.26 5.62-135.63 5.53-94-.06-115.45-.33-120.8-1.48zm244-3.78c20.25-5.44 37.1-19.02 46.08-37.16 7.34-14.82 6.98-5.15 6.68-184l-.26-160-2.76-8.13c-7.6-22.38-28.52-41.12-51.24-45.86-10.45-2.18-231.56-2.18-242 0C35.66 10.28 14.72 29.02 7.13 51.4l-2.75 8.14-.28 160c-.3 179.36-.73 168.44 6.97 184.5 3.36 7 5.68 10.1 13.2 17.62 7.52 7.53 10.6 9.82 17.6 13.17 9.34 4.46 14.18 5.95 23.4 7.18 3.36.46 56.5.74 118.1.63 103.03-.17 112.53-.32 118.5-1.93zM73.8 396.12c-4.45-4.45-3.9-7.27 2.58-13.45l5.5-5.25v-17.28l-4.46-3.07c-9.98-6.87-10.16-13.25-.63-22.48l4.08-3.97v-16.1l-5.05-4.5c-6.5-5.8-7.05-9.26-2.04-12.68 11.25-7.7 34.3-8.07 46.8-.74 6.25 3.66 5.97 6.78-1.22 13.6l-5.5 5.2v7.63c0 7.34.1 7.7 3.07 9.9 3.57 2.63 8.93 10.63 8.93 13.34 0 3.44-2.92 7.5-7.47 10.38l-4.52 2.86v18.68l5 4.5c4.16 3.75 5 5.07 5 7.95 0 7.6-7.7 10.5-16.86 6.34-5.66-2.57-13.08-2.56-18.14.02-5.9 3-11.5 2.66-15.08-.92zm30.58-22.04v-16.46l-3.5-.74c-1.93-.4-5.2-.3-7.25.25l-3.75 1v15.78c0 8.7.32 16.13.7 16.5.4.4 3.66.6 7.25.43l6.55-.3V374.1zm2.75-22c1.98-.13.4-3.17-2.4-4.62-6.35-3.28-20.38-.18-17.1 3.78.9 1.1 10.38 1.5 19.5.85zm.55-9.28c1-5.1-16.9-6.43-19.98-1.48-1.48 2.4 1.23 3.23 10.34 3.18 7.83-.05 9.38-.32 9.64-1.7zm-2.77-20.16c.03-9.05.4-12.6 1.5-14.04 2.25-2.97 1.8-6.9-1.1-9.64-5.62-5.27-17.42-1.84-17.42 5.06 0 1.45.66 3.5 1.47 4.58 1.1 1.45 1.47 5 1.5 14.04l.03 12.1h14l.03-12.1zm49.9 73.48c-4.53-4.53-3.96-7.5 2.58-13.54l5.5-5.08v-17.36l-4.46-3.07c-9.98-6.87-10.16-13.25-.63-22.48l4.08-3.97V314.7l-5.6-5.2c-6.52-6.08-6.83-8.6-1.5-12.18 11.42-7.67 34.34-8 46.82-.7 6.2 3.63 5.93 6.62-1.22 13.5l-5.5 5.3v7.75c0 7.52.08 7.8 3.12 9.95 3.57 2.55 8.88 10.42 8.88 13.17 0 3.34-2.8 7.2-7.4 10.24l-4.56 3-.02 9.35-.02 9.33 5 4.5c4.16 3.75 5 5.07 5 7.95 0 7.6-7.7 10.5-16.86 6.34-2.4-1.1-6.5-1.98-9.14-1.98-2.63 0-6.75.9-9.14 1.98-6.5 2.95-11.38 2.65-14.94-.9zm30.58-22.04v-16.46l-3.5-.74c-1.93-.4-5.2-.3-7.25.25l-3.75 1v15.78c0 8.7.32 16.13.7 16.5.4.4 3.66.6 7.25.43l6.55-.3V374.1zm2.37-22.46c1.56-.97.34-3.16-2.48-4.44-3.06-1.4-10.37-1.48-13.85-.16-2.85 1.1-4.43 3.85-2.8 4.87 1.35.8 17.73.58 19.13-.28zm.94-8.84c.7-3.73-9.77-6.05-16.6-3.67-2.93 1.03-4.73 3.32-3.8 4.83.25.4 4.86.66 10.26.6 8.2-.1 9.87-.4 10.13-1.75zm-2.8-20.15c.04-8.6.46-12.8 1.48-14.6 2.08-3.63 1.8-6.34-.86-8.86-3.25-3.05-8.54-3.75-12.87-1.7-4.66 2.22-5.97 5.2-4.16 9.5.92 2.2 1.38 7.34 1.38 15.57v12.27l7.5-.04 7.5-.05.03-12.07zm51.43 73.96c-1.66-1.67-2.45-3.6-2.45-5.92 0-2.88.83-4.2 5-7.95l5-4.5v-18.7l-4.54-2.86c-4.54-2.88-7.46-6.94-7.46-10.4 0-2.74 5.3-10.6 8.88-13.16 3.03-2.15 3.12-2.43 3.12-9.95v-7.74l-5.5-5.2c-7.2-6.83-7.48-9.95-1.23-13.6 12.48-7.32 35.4-6.98 46.82.7 5.34 3.58 5.03 6.1-1.5 12.17l-5.6 5.2v15.93l4.1 3.96c9.53 9.22 9.35 15.6-.64 22.47l-4.45 3.07v17.28l5.5 5.25c6.5 6.18 7.02 9 2.57 13.45-3.55 3.55-8.43 3.85-14.93.9-5.6-2.54-12.62-2.53-17.9.02-5.85 2.82-11.7 2.64-14.8-.45zm30.05-22.5v-16.43l-3.25-.85c-1.8-.46-4.72-.46-6.5 0l-3.25.85-.28 16.73-.27 16.73 6.77-.3 6.78-.3V374.1zm3.3-23.3c.78-4-10.97-6.46-17.26-3.6-2.22 1-3.37 3.68-2.13 4.92.22.23 4.6.38 9.74.33 7.63-.07 9.4-.37 9.64-1.65zm-.3-8.28c0-2.96-4.24-4.6-10.78-4.2-5.96.36-9.45 2.38-8.48 4.9.37.98 2.95 1.32 9.88 1.28 8.56-.05 9.38-.23 9.38-1.98zm-2-19.34c-.58-10.47-.45-12.02 1.36-15.48 2.5-4.77 1.7-7.48-3-10.06-4.1-2.25-9.23-1.67-13.26 1.5-2.9 2.28-3.25 5.14-1.1 8.9 1 1.78 1.44 6 1.46 14.6l.04 12.07 7.58.06 7.58.05-.65-11.62zm-193.27-47.8c-1.63-.67-4.22-5.68-4.22-8.2 0-1.08 2.43-4.16 5.5-6.97l5.5-5V237.06L78 234.62c-8.6-5.44-10.26-11.33-5.14-18.4 1.64-2.26 4.1-4.85 5.5-5.76 2.36-1.54 2.52-2.18 2.52-9.97v-8.33l-5.5-5.4c-3.03-3-5.5-6.2-5.5-7.13 0-2.84 4.96-6.5 11.56-8.55 13.6-4.2 25.6-3.55 37.2 2.05 5.68 2.74 6.24 3.3 6.24 6.14 0 2.5-1.1 4.12-5.5 8.2l-5.5 5.08v7.66c0 7.48.08 7.72 3.38 10.48 4.65 3.87 8.62 10.04 8.62 13.38 0 3.4-3.6 7.87-8.42 10.47l-3.58 1.92v19.04l5 4.3c4.35 3.76 5 4.8 5 8.08 0 7.62-8.63 10.64-17.5 6.12-2.23-1.14-5.9-2-8.5-2-2.6 0-6.27.86-8.5 2-3.68 1.88-11.18 2.57-14.27 1.33zm29.78-23.73c0-14.03-.23-16.48-1.58-17-2.76-1.06-10.97-.66-12.22.6-.84.82-1.2 6.03-1.2 17v15.8h15v-16.4zm2.7-23.2c.64-1.94-3.58-4.64-8.04-5.14-7-.78-14.16 2.5-12.24 5.62.72 1.15 19.88.7 20.27-.47zm0-8c.2-.58-.6-1.92-1.78-2.98-4.3-3.9-20-1.4-18.34 2.9.64 1.68 19.56 1.74 20.12.07zm-1.1-34.93c3.7-5.62-.9-11.77-8.68-11.66-7.82.1-12.17 6.1-8.5 11.7 1.2 1.86 1.58 5.18 1.58 14.4v12l6.75.28 6.75.3.28-12.33c.2-9.04.7-12.95 1.82-14.68zm48.42 88.55c-2.68-2.7-3.54-6.7-2.03-9.5.68-1.3 3.2-3.8 5.62-5.62l4.38-3.28v-9.28c0-8.4-.2-9.4-2.1-10.4-1.14-.62-3.84-2.72-6-4.66-3.2-2.9-3.9-4.2-3.9-7.27 0-4.02 3.68-10.06 8.4-13.77 2.4-1.9 2.6-2.64 2.6-9.8v-7.78l-5.5-5.77c-3.03-3.17-5.5-6.7-5.5-7.82 0-2.7 5.78-6.44 13.5-8.73 16.06-4.77 40.34.52 41.32 9 .27 2.3-.66 3.7-5.26 7.97l-5.58 5.17v7.54l.02 7.54 5.03 4.95c8.88 8.74 8.73 15.3-.46 21.13l-4.5 2.84-.03 9.5-.02 9.5 5 4.3c4.12 3.56 5 4.9 5 7.62 0 1.83-.93 4.48-2.08 5.95-1.7 2.2-2.87 2.64-6.75 2.62-2.57 0-6.63-.9-9.03-2-5.57-2.53-11.66-2.52-16.64.02-5.25 2.67-12.82 2.7-15.48.03zm30.98-22.42c0-18.34.3-17.6-7.5-17.6-7.82 0-7.5-.74-7.5 17.6v16.4h15v-16.4zm2.7-23.2c.67-2.03-3.7-4.7-8.47-5.16-7.12-.7-14.6 3.03-11.76 5.87.97.97 19.9.3 20.23-.72zm0-8c.2-.58-.6-1.92-1.8-2.98-3.16-2.88-14.06-2.72-17.02.24-1.17 1.18-1.86 2.56-1.54 3.08.8 1.3 19.9 1 20.36-.34zm-1.05-35c1.04-1.97 1.4-4.08.98-5.75-1.6-6.45-12.35-8.1-17.73-2.7-2.9 2.9-2.93 3-1.43 6.62 1.1 2.62 1.54 7.18 1.54 16v12.33l7.25.3 7.25.3.26-12c.18-8.8.7-12.84 1.9-15.1zm49.52 88.28c-1.4-1.5-2.17-3.6-2.17-5.95 0-3.1.7-4.24 5-7.93l5-4.3v-19.06l-3.58-1.93c-10.77-5.8-10.95-13.18-.58-23l4.16-3.94v-15.05l-5.58-5.15c-4.63-4.27-5.52-5.64-5.25-8 1.03-8.88 25.53-13.88 42.4-8.64 7.34 2.27 12.43 5.9 12.43 8.84 0 .94-2.48 4.14-5.5 7.12l-5.5 5.4v8.05c0 7.5.18 8.2 2.6 10.1 4.44 3.5 8.4 9.77 8.4 13.3 0 3.8-3.32 8.24-8.55 11.47l-3.45 2.13v18l5.5 5c3.06 2.82 5.5 5.9 5.5 7 0 2.74-2.62 7.48-4.55 8.22-3.22 1.23-9.6.58-13.45-1.38-2.23-1.14-5.9-2-8.5-2-2.6 0-6.27.86-8.5 2-5.6 2.85-13 2.7-15.83-.3zm30.6-22.44l-.27-16.76-4.42-.32c-2.43-.17-5.47-.05-6.75.27-2.32.58-2.32.63-2.32 17.06v16.48h14.05l-.28-16.75zm3.04-23.5c.18-1.02-.93-2.28-2.92-3.3-6.15-3.2-18.26-.43-16.64 3.78.4 1.06 2.73 1.36 9.88 1.26 7.8-.1 9.4-.4 9.67-1.75zm0-8.04c.4-2.1-5.1-4.72-9.82-4.72-6.03 0-11.86 3.8-9.48 6.2.3.28 4.67.46 9.74.4 7.93-.1 9.26-.37 9.55-1.88zm-2.34-19.2c-.58-9.3-.44-11.94.73-13.76 2.8-4.37 2.8-6.7-.07-9.9-2.28-2.57-3.42-3.03-7.47-3.03-8.4 0-12.47 4.82-9.26 11 1.18 2.3 1.58 6.1 1.58 15.12v12.04h15.2l-.72-11.5z"/><path fill="#0e1f0b" d="M58.24 444.55c-14.15-3.08-26.57-9.82-36.9-20.03-7.83-7.74-12.87-15.57-17.14-26.66l-2.82-7.32-.28-164C.85 81.34 1 61.74 2.37 55.5 8.55 27.46 33.4 5.27 63.27 1.12c10.72-1.5 221.5-1.5 232.22 0 29.9 4.16 54.7 26.3 60.88 54.38 1.38 6.23 1.52 25.84 1.28 171.04l-.28 164-3.2 8.27c-9.14 23.76-28.86 40.44-54.12 45.8-9.58 2.02-232.47 1.98-241.82-.05zm235.5-2.55c27.07-3.4 48.9-20.83 57.72-46.1l2.92-8.36.27-160c.2-109.75-.05-162.18-.78-166.95-3.72-24.2-21.85-44.93-46.7-53.4l-7.8-2.66h-240L51.6 7.2c-24.8 8.45-43 29.24-46.7 53.4-.75 4.76-1 57.04-.8 166.94l.28 160 3.08 8.62c8.86 24.73 30.75 42.45 56.58 45.8 9.65 1.26 219.73 1.3 229.7.04zm-218.1-44.04c-2.5-1.44-4.98-6.67-4.26-8.93.33-1.04 2.83-3.9 5.55-6.35l4.95-4.45v-9.6c0-5.27-.4-9.6-.9-9.6s-3.2-2.06-6-4.58c-3.62-3.26-5.1-5.34-5.1-7.16 0-3.5 4.32-10.64 8-13.26 2.93-2.1 3-2.33 3-10.73v-8.58l-5.5-5.77c-3.03-3.17-5.5-6.23-5.5-6.8 0-2.2 5.75-6.2 11.98-8.34 12.84-4.4 31.9-2.36 40.43 4.35 4 3.15 3.3 5.92-2.92 11.7l-5.5 5.13V330.36l5.45 5.7c8.62 9.06 8.47 13.15-.74 19.98l-4.72 3.5v19l5 4.3c6.03 5.2 6.72 9.2 2.36 13.56-3.24 3.25-7.76 3.46-13.6.64-2.63-1.27-6.2-2-9.74-2-3.63 0-6.98.7-9.52 2-4.23 2.15-9.93 2.56-12.75.92zm29-23.6l-.26-16.7-3.4-.87c-1.9-.5-4.97-.52-7-.04l-3.6.85-.28 16.73-.27 16.7h15.1l-.28-16.68zm3.05-23.56c.16-.9-.85-2.4-2.26-3.3-3.33-2.2-14.77-1.68-17.2.76-3.32 3.3-1.2 4.28 9.26 4.22 8.3-.05 9.92-.3 10.2-1.68zm-.32-8.3c0-3-4.25-4.58-11.27-4.2-6.48.35-10 2.3-8.97 4.96.4 1.06 2.86 1.35 10.4 1.26 8.97-.1 9.85-.3 9.85-2.02zm-2.26-19.86c.2-7.27.9-13.33 1.7-15.17 1.9-4.26.7-8.04-3.12-10.02-3.66-1.9-9.6-1.44-13.36 1.02-2.86 1.87-3.28 6.52-.96 10.57 1 1.76 1.44 5.93 1.46 14.1l.04 11.6h13.89l.35-12.1zm50.3 74.15c-1.4-1.25-2.8-3.64-3.13-5.33-.54-2.75-.03-3.6 5-8.17l5.58-5.1v-9.37c0-9.3-.02-9.37-2.95-11.1-5.53-3.27-9.05-7.6-9.05-11.12 0-3.5 5.4-11.63 9.03-13.58 1.74-.92 1.98-2.12 1.98-9.94v-8.88l-3.84-3.33c-4.9-4.25-7.38-8.1-6.57-10.22 1-2.63 8.33-6.4 15.93-8.17 11.43-2.7 26.5-.58 34.57 4.84 5.28 3.55 4.98 5.98-1.5 12.27l-5.6 5.4v15.27l5.42 5.85c8.56 9.25 8.35 13.6-1 20.18l-4.42 3.13v19l5 4.6c6.2 5.73 6.7 9.4 1.92 13.42-3.72 3.14-7.76 3.3-13.78.57-5.72-2.6-13.53-2.6-18.64.02-5.3 2.7-10.7 2.6-13.95-.25zm30.23-22.45l-.27-16.68-3.4-.88c-1.9-.5-4.97-.52-7-.04l-3.6.85-.28 16.73-.27 16.7h15.1l-.28-16.68zm3.03-23.52c.87-4.55-14-6.87-18.86-2.95-4.3 3.5-2.1 4.67 8.68 4.6 8.22-.04 9.92-.32 10.18-1.65zm-.3-8.28c0-3.05-4.2-4.63-11.27-4.25-6.47.35-10 2.3-8.97 4.96.4 1.03 2.9 1.35 10.4 1.3 9.08-.05 9.85-.2 9.85-2zm-2.47-19.92c.03-9.04.4-12.58 1.5-14.03 3.32-4.38.7-10.7-5-12.14-3.48-.88-8.93.28-11.6 2.45-2.4 1.95-2.97 7.5-1 9.48.65.64 1.08 6.12 1.08 13.75v12.68l7.5-.04 7.5-.05.03-12.07zm51.6 73.77c-4.36-4.37-3.65-8.37 2.38-13.46l5-4.2v-19.2l-4.72-3.5c-9.2-6.83-9.36-10.92-.73-19.97l5.45-5.7v-15.2l-5.58-5.5c-6.5-6.38-6.8-8.8-1.5-12.35 7.44-5 21.8-7.38 32.28-5.33 7.65 1.5 16.43 5.5 17.84 8.1 1.32 2.48.35 4.23-5.47 9.9l-4.57 4.46v8.77c0 8.24.15 8.86 2.5 10.4 4.08 2.67 8.5 9.45 8.5 13.03 0 3.47-3.57 7.83-9.05 11.07-2.94 1.73-2.95 1.8-2.95 11.12v9.38l4.94 4.45c5.88 5.28 6.68 7.25 4.6 11.28-2.83 5.48-8.6 6.62-15.54 3.08-5.16-2.63-13.38-2.64-19.14-.02-6.25 2.83-10.98 2.63-14.23-.62zm30.38-22.23V357.3l-3.5-.57c-1.93-.3-5.08-.3-7 0l-3.5.57v33.74h14v-16.87zm2.8-23.8c.4-2.6-3.5-4.33-9.78-4.33-6.78 0-10.02 1.4-10.02 4.3 0 2.28.15 2.32 9.75 2.14 8.83-.16 9.77-.36 10.04-2.12zm.2-7.92c0-2.74-3.78-4.4-10-4.4-6.28 0-10 1.65-10 4.46 0 2.07.4 2.16 10 2.1 9.46-.05 10-.16 10-2.15zm-2.45-18.77c-.6-10.06-.46-11.52 1.4-15.1 2.54-4.92 2.54-5.64 0-8.87-2.52-3.2-7.8-4.32-13.03-2.75-5.68 1.7-7.8 7.23-4.45 11.65 1.1 1.45 1.47 5 1.5 14.08l.03 12.14H269.1l-.67-11.14zm-193.96-49.9c-1.38-1.23-2.82-3.52-3.2-5.08-.58-2.52-.02-3.43 4.98-8.08l5.63-5.24v-9.6c0-8.48-.22-9.67-1.86-10.2-1.02-.32-3.72-2.3-6-4.4-6.2-5.74-5.48-10.6 2.77-18.6l4.08-3.95v-17.5l-4.1-3.3c-2.26-1.8-4.77-4.57-5.58-6.14-1.37-2.66-1.32-3.03.7-5.18 5.36-5.7 21.5-9.47 32.47-7.55 12.27 2.13 20.5 6.32 20.5 10.42 0 1.35-2.1 4.3-5.5 7.64l-5.5 5.43v15.17l5.4 5.57c8.68 8.97 8.43 13.32-1.17 20.34l-4.1 3-.06 9.5-.06 9.5 5 4.6c4 3.67 5 5.23 5 7.8 0 7.3-8.58 10.4-17 6.1-2.4-1.22-5.9-2-9-2-3.1 0-6.6.78-9 2-5.33 2.72-11.2 2.62-14.4-.25zm30.18-22.5l-.27-16.74-4.94-.3c-10.03-.65-9.56-1.5-9.56 17.32v16.48h15.05l-.28-16.75zm3.03-23.46c.78-4.07-11.82-6.37-17.85-3.25-2.7 1.4-3.73 3.36-2.44 4.65.27.28 4.88.45 10.23.4 8.23-.1 9.78-.4 10.05-1.8zm.2-7.9c0-3.98-9.87-6.22-16.77-3.8-2.96 1.02-4.72 3.3-3.76 4.86.26.4 4.98.76 10.5.76 9.04 0 10.04-.18 10.04-1.83zm-1.25-34.56c2.9-5.1.8-9.95-4.85-11.23-7.87-1.77-13.93 1.37-13.87 7.2.03 1.77.7 4.08 1.5 5.15 1.1 1.45 1.48 4.9 1.48 13.7v11.77l6.75.3 6.75.3.5-12.5c.3-7.25 1.02-13.43 1.75-14.7zm47.84 87.6c-3.82-4.53-3.33-6.65 2.9-12.55l5.5-5.2V236.5l-3.57-1.93c-5.17-2.8-8.42-7.05-8.42-11.05 0-2.7 1.1-4.55 5.5-9.3l5.5-5.95v-17l-4.27-3.48c-2.33-1.93-4.88-4.7-5.66-6.14-1.28-2.4-1.2-2.84.86-5.04 5.46-5.8 21.5-9.58 32.57-7.65 12.27 2.13 20.5 6.32 20.5 10.42 0 1.35-2.1 4.3-5.5 7.64l-5.5 5.43v15.58l4.08 3.67c4.06 3.67 7.93 9.9 7.93 12.75 0 1.97-5.46 8.13-9.12 10.3-2.88 1.7-2.88 1.7-2.88 12 0 5.64.36 10.27.8 10.27.43 0 2.68 1.82 5 4.04 5.02 4.83 5.56 8.7 1.74 12.5-3.1 3.1-9 3.3-14.54.46-2.4-1.22-5.9-2-9-2-3.1 0-6.6.78-9 2-2.2 1.1-5.9 2-8.37 2-3.74 0-4.86-.5-7.03-3.08zm31.18-21.67l-.27-16.76-4.94-.3c-10.03-.65-9.56-1.5-9.56 17.32v16.48h15.05l-.28-16.75zm3.03-23.48c.55-2.85-5.26-5.06-12-4.57-6.1.44-9.53 2.47-8.53 5.06.42 1.1 2.72 1.4 10.38 1.3 8.32-.1 9.88-.37 10.15-1.78zm0-8.05c.43-2.2-5.12-4.73-10.3-4.73-6.52 0-12.46 3.7-9.95 6.22.3.3 4.9.5 10.24.42 8.4-.12 9.73-.37 10.02-1.9zm-1.05-34.4c3.46-6.07-.6-11.56-8.54-11.56-8.87 0-12.55 4.14-9.72 10.9 1.04 2.5 1.5 7.18 1.5 15.42v11.83l7.25.3 7.25.3.5-12.5c.3-7.25 1.02-13.43 1.75-14.7zm49.7 88.22c-4.1-4.12-3.36-8.04 2.55-13.47l5-4.6-.06-9.5-.07-9.5-4.1-3c-9.6-7-9.84-11.36-1.16-20.32l5.38-5.56v-15.18l-5.5-5.42c-3.38-3.34-5.5-6.3-5.5-7.65 0-4.1 8.23-8.3 20.5-10.43 10.98-1.92 27.1 1.84 32.48 7.55 2 2.15 2.07 2.52.7 5.17-.8 1.56-3.32 4.32-5.58 6.14l-4.1 3.3V208.62l4.08 3.96c8.25 7.98 8.98 12.84 2.77 18.57-2.27 2.1-4.97 4.1-6 4.42-1.64.5-1.85 1.7-1.85 10.18v9.6l5.63 5.24c5 4.65 5.56 5.56 4.97 8.08-1.63 6.92-8.98 9.16-17.45 5.32-5.62-2.55-12.62-2.54-17.64.02-5.6 2.85-11.94 2.66-15.05-.45zm30.32-22.3l-.27-16.76h-13l-.28 16.75-.27 16.74h14.1l-.28-16.75zm3.02-23.68c-.6-4.06-9.6-5.94-16.64-3.48-2.25.78-3.15 1.73-3.15 3.3 0 2.13.35 2.2 10.04 2.2 9.52 0 10.03-.1 9.75-2.02zm0-8c-.46-3.2-4.53-4.74-11.08-4.22-6.2.5-8.72 1.83-8.72 4.6 0 1.54 1.18 1.73 10.04 1.7 9.5-.05 10.03-.16 9.75-2.08zm-2.23-18.1c-.65-10.6-.53-11.9 1.43-15.98 1.9-3.9 2-4.75.82-7.2-3.6-7.47-19.9-5.3-19.8 2.6.03 1.43.7 3.73 1.48 5.1 1 1.76 1.44 5.95 1.46 14.2l.04 11.7 6.75.36c3.7.2 7.15.44 7.63.54.5.12.58-4.74.18-11.33z"/><path d="M58.24 444.55c-14.15-3.08-26.57-9.82-36.9-20.03-7.83-7.74-12.87-15.57-17.14-26.66l-2.82-7.32-.28-164C.85 81.34 1 61.74 2.37 55.5 8.55 27.46 33.4 5.27 63.27 1.12c10.72-1.5 221.5-1.5 232.22 0 29.9 4.16 54.7 26.3 60.88 54.38 1.38 6.23 1.52 25.84 1.28 171.04l-.28 164-3.2 8.27c-9.14 23.76-28.86 40.44-54.12 45.8-9.58 2.02-232.47 1.98-241.82-.05zm235.5-2.55c27.07-3.4 48.9-20.83 57.72-46.1l2.92-8.36.27-160c.2-109.75-.05-162.18-.78-166.95-3.72-24.2-21.85-44.93-46.7-53.4l-7.8-2.66h-240L51.6 7.2c-24.8 8.45-43 29.24-46.7 53.4-.75 4.76-1 57.04-.8 166.94l.28 160 3.08 8.62c8.86 24.73 30.75 42.45 56.58 45.8 9.65 1.26 219.73 1.3 229.7.04z"/></g></g></svg>