<svg xmlns="http://www.w3.org/2000/svg" width="358.758" height="446.903" viewBox="0 0 358.75845 446.9028"><g><g><path fill="#c2c6c1" d="M63.5 445.9c-16.2-2.07-31.64-9.7-43.14-21.3-8.18-8.26-13.48-16.86-17.3-28.06l-2.72-8-.28-160.5c-.2-108.97.06-162.7.78-167.36C5.06 33.26 23.3 12.38 51.34 2.9l7-2.36 117.7-.27c127.5-.3 124.08-.43 137.76 5.1 19.84 8 34.94 24 41.9 44.4l2.64 7.77.28 162c.25 144.9.1 162.84-1.3 169.9-6.1 30.22-31.5 52.95-63.3 56.6-10.8 1.23-220.8 1.12-230.52-.13zm242.84-7.08c17.94-6.1 32.93-18.7 40.36-33.87 7.68-15.7 7.14-1.82 7.14-181.9 0-160.32-.02-161.6-2.07-169.02-5.22-18.85-18.07-33.88-36.43-42.6-15.38-7.32-6.8-6.9-136-6.9-130.1 0-120.86-.5-137 7.47-13.86 6.83-25.06 18.04-31.5 31.53-6.38 13.37-6.06 3.24-5.76 182.23l.26 162.78 2.22 6.52c7.8 22.9 27.33 40.07 51.78 45.5 4.84 1.1 28.47 1.3 122.5 1.16l116.5-.18 8-2.72zM63.86 392.85c-4.36-2.96-6-6.1-6-11.6-.02-4.02.45-4.76 6.98-11.14l7-6.83V337.14l-4.3-2.97c-2.38-1.63-5.98-4.8-8-7.05-6.58-7.28-4.83-15.43 5.78-26.9l5.52-5.95v-22.8l-6.1-5.96c-6.48-6.32-9.38-11.36-8.37-14.54.88-2.78 8.8-8.53 14.82-10.76 2.82-1.06 8.47-2.47 12.53-3.15 12.54-2.1 28.98 1.76 38 8.9l3.83 3.04 1.86-4.13c3.1-6.88 10.23-9.75 15.33-6.18 2.23 1.55 2.32 2.04 1.72 9.27l-.64 7.62 5.78 5.7c5.6 5.55 5.9 5.7 9.26 4.73 4.78-1.37 10.26-1.24 12.34.3 2.4 1.74 3.73 8.13 3.04 14.7-.55 5.27-.43 5.65 2.82 8.76l3.38 3.25 3.35-3.46c3.27-3.4 3.34-3.62 3.13-11.5-.2-7.4 0-8.23 2.3-10.54 2.8-2.8 5.47-3.1 12.26-1.38l4.53 1.15 5.82-5.9 5.8-5.9-.85-6c-1.1-7.66-.47-10.04 3.06-11.5 5.25-2.17 10.64.46 13.92 6.82l1.2 2.3 3.18-2.1c5.4-3.6 11.4-5.9 19.94-7.62 7.02-1.43 9.35-1.5 16.14-.45 9.6 1.47 17.02 4.13 22.44 8.06 8.26 5.98 7.95 9.15-1.88 19.55l-6.96 7.34v22.35l5.8 6.2c6.97 7.46 9.2 11.82 9.2 18 0 4.15-.5 5.18-4.64 9.6-2.56 2.74-6.16 5.9-8 7.05l-3.36 2.07v26.4l5.85 5.15c7.42 6.53 9.6 10.83 8.2 16.08-2.8 10.44-14.06 13.1-24.1 5.7-2.65-1.98-4.55-2.5-9.12-2.5-4.86 0-6.5.5-10.2 3.12-8.16 5.75-17.32 4.74-21.68-2.4-4.1-6.75-2.08-12.45 7.4-20.8l4.64-4.08V337.18l-3.25-2.23c-15.86-10.86-16.7-19.8-3.24-34.66 5.46-6.05 5.48-6.1 5.48-12.56 0-6.2-.12-6.5-2.68-7.16-2.32-.58-3.46.12-8.64 5.3l-5.97 5.97 1.15 4.54c1.5 5.94 1.45 10.84-.14 13-1.72 2.36-8.16 3.73-14.02 2.98-4.8-.6-4.8-.6-9.7 4.77l-4.9 5.4.57 7.5c.48 6.16.3 7.78-1 8.86-2.45 2.04-8.8.5-15.38-3.75l-5.78-3.73-4 2.77c-4.2 2.9-11.6 5.84-14.7 5.84-2.7 0-3.67-3.68-3.06-11.37l.55-6.77-4.86-4.93-4.85-4.93h-7.68c-10.33 0-12.47-1.6-12.22-9.17.1-2.94.6-6.46 1.13-7.84.84-2.2.3-3.22-4.76-8.86-5.7-6.32-5.75-6.36-9.9-5.66l-4.16.72v13.05l5.52 5.96c6.9 7.45 9.48 12.43 9.48 18.27 0 3.82-.58 5.17-3.7 8.62-2.02 2.25-5.62 5.42-8 7.05l-4.3 2.97V363.27l7 6.84c6.57 6.42 7 7.1 7 11.24 0 4.98-3.03 10.36-7.03 12.48-3.73 1.97-10.4.87-16.08-2.66-7.08-4.4-14-4.4-20.27.02-6.13 4.32-12.77 4.95-17.6 1.67zm35.98-34.7v-23.88l-2.25-.6c-3.45-.92-10.33-.74-13.2.35l-2.56.97v22.85c0 12.57.3 23.16.67 23.52.37.37 4.42.67 9 .67h8.34v-23.88zm176 0v-23.88l-2.25-.6c-3.45-.92-10.33-.74-13.2.35l-2.56.97v22.85c0 12.57.3 23.16.67 23.52.37.37 4.42.67 9 .67h8.34v-23.88zm-172.5-34.57c0-1-1.27-2.77-2.82-3.93-5.7-4.25-22.68-1.8-22.68 3.25 0 1 .2 2 .45 2.26.24.24 5.97.4 12.74.35 11.2-.08 12.3-.25 12.3-1.92zm176.3-.3c.4-2.6-3.74-5-10.16-5.88-7.9-1.08-17.62 3.63-15.28 7.4.27.45 6.04.76 12.82.7 11.77-.08 12.33-.18 12.63-2.2zm-89.73-.28c.53-.8 1.25-2.6 1.6-3.96.36-1.38 4.4-6.58 8.96-11.57l8.3-9.08-2.33-3.45c-1.3-1.9-3.54-4.08-5-4.87-2.64-1.4-2.78-1.3-11.38 7.78-4.8 5.06-9.46 9.2-10.38 9.2-.9-.02-5.52-4.16-10.24-9.2l-8.57-9.2-4.5 4.7c-2.5 2.6-4.52 5.07-4.52 5.5 0 .43 3.83 4.88 8.5 9.9 4.68 5 8.5 9.57 8.5 10.14 0 .58.52 2.18 1.15 3.57 1.1 2.45 1.38 2.52 10.05 2.26 6.5-.2 9.17-.66 9.86-1.73zm-100.8-9.56c2.33-.3 6.1-.13 8.4.4 4.7 1.07 6.7.3 6.2-2.42-1.17-6.2-21.5-7.17-25.2-1.2-1.5 2.4 1 5.13 4.02 4.36 1.28-.32 4.23-.83 6.57-1.14zm176 0c2.33-.3 6.1-.13 8.4.4 4.7 1.07 6.7.3 6.2-2.42-.52-2.7-6.56-5.38-12.1-5.38-5.45 0-12.33 2.45-13.2 4.7-.9 2.35 1.42 4.52 4.12 3.84 1.28-.32 4.23-.83 6.57-1.14zM96.23 299.82l4.22.9-.44-16.94c-.42-16.1-.33-17.13 1.8-20.9 3.33-5.94 3.1-10.23-.78-14.1-2.9-2.9-3.8-3.2-9.15-3.2-6.6 0-10.54 2.07-12.83 6.73-1.07 2.18-1 3.3.45 6.92 1.36 3.4 1.8 8.24 2.07 22.93l.32 18.6 5.05-.92c3.02-.54 6.75-.55 9.27 0zm176.2.04l4.4.94v-17.6c0-15.68.23-18.2 2.12-22.74 2.04-4.9 2.05-5.26.42-8.7-5.02-10.58-24.54-7.66-24.54 3.68 0 1.72.84 4.7 1.87 6.6 1.7 3.14 1.82 5.23 1.37 21.13l-.5 17.65 5.22-.95c3.27-.6 6.87-.6 9.63 0zM149.2 293c.96-1.62 3.53-4.38 5.7-6.12 4.44-3.58 5.07-5.84 1.62-5.84-2.97 0-10.03 6.02-11.66 9.94-2.5 6.06 1 7.7 4.34 2.03zm67.24 1.63c1.23-3.18-5.45-11.46-10.88-13.52-5.07-1.9-4.1 1.25 2.5 8.2 6.64 7.03 7.52 7.58 8.38 5.33zm-68.63-14.6l3.03-2.5-10.97-11.05-10.97-11.06-4.7 4.76-4.7 4.77 10.82 11.6 10.82 11.6 1.83-2.8c1-1.55 3.18-3.94 4.84-5.3zm92.8-14.9c.14-.36-1.9-2.78-4.55-5.38l-4.8-4.74-10.65 11.38-10.64 11.37 2.87 2.12c1.58 1.17 3.67 3.48 4.64 5.13l1.77 3 10.55-11.13c5.8-6.1 10.66-11.4 10.8-11.75zm-175.34-56c-1.15-.5-3.28-2.33-4.75-4.07-2.08-2.5-2.66-4.23-2.66-8.05 0-4.7.23-5.1 7-11.75l7-6.9V152.2l-3.36-2.07c-1.84-1.14-5.44-4.3-8-7.04-4.12-4.42-4.64-5.48-4.64-9.56 0-5.88 2.56-10.83 9.48-18.3l5.52-5.97V86.94l-6.96-7.35C53.9 69.03 53.68 66 62.44 59.96c9.4-6.46 24.36-9.77 35.86-7.94 9.03 1.45 16.35 4.1 21.94 7.94 8.76 6.03 8.54 9.07-1.44 19.62l-6.96 7.34v22.33l5.52 5.96c6.9 7.47 9.48 12.43 9.48 18.3 0 3.93-.55 5.15-4 8.9-2.2 2.4-5.8 5.6-8 7.1-4 2.78-4 2.8-4 9.5v6.75l4.25.62c4.2.62 4.3.55 10-5.6 3.73-4.04 5.55-6.78 5.15-7.75-1.43-3.5-1.57-13.53-.22-15.32 1.77-2.34 8.15-3.74 13.62-3 4.2.58 4.5.42 9.7-4.7l5.38-5.32-.58-6.22c-.77-8.3.06-11.44 3.06-11.44 3.37 0 8.44 1.92 13.87 5.25l4.73 2.9 6.1-3.78c4.7-2.9 7.18-3.78 10.77-3.82l4.67-.06V125l4.75 4.76 4.73 4.74 7.9.02c6.48.02 8.3.38 10.12 2.02 2 1.8 2.16 2.66 1.65 8.5-.32 3.57-.7 7.23-.87 8.12-.16.9 2.25 4.3 5.35 7.56 5.2 5.47 5.93 5.9 9.25 5.52l3.6-.42V159c0-6.58-.1-6.9-3.24-9.05-15.84-10.85-16.7-20.32-3.17-34.64l5.4-5.7v-23l-6.5-6.57c-9.8-9.88-10.26-14.3-2.04-19.96 5.5-3.8 13.68-6.72 22.6-8.1 14.62-2.27 35.9 4.66 40.87 13.3 2.08 3.62.14 7.52-7.57 15.23l-6.36 6.35v22.52l5.38 5.63c13.17 13.8 12.92 23.6-.86 33.5l-5.52 3.98v25.88l6.47 6.18c3.56 3.4 6.94 7.43 7.52 8.94 1.57 4.13-.34 9.8-4.53 13.47-5 4.37-10.14 4.25-17.9-.4-4.84-2.93-6.75-3.5-11.56-3.5-4.14 0-6.14.45-7.13 1.65-2 2.4-8.84 5.3-12.66 5.32-4.4.03-8.88-2.4-11.1-6.06l-1.8-2.98-2.65 3.45c-3.4 4.45-8.52 6.27-12.38 4.4-2.7-1.3-2.78-1.58-2.78-9.36v-8.02l-5.4-6.02-5.4-6.02-5.1 1.36c-11.2 2.97-15.36-1.05-14.3-13.84.56-6.55.53-6.66-2.95-10l-3.52-3.38-3.24 3.84c-2.97 3.5-3.2 4.3-2.8 9.2.64 7.76-.44 12.18-3.45 14.15-2.24 1.46-3.42 1.53-9.22.54l-6.64-1.15-5.65 5.58-5.65 5.57.53 7.78c.52 7.55.46 7.82-2.1 9.5-5 3.27-11.14.42-14.87-6.9l-1.47-2.9-.6 2.42c-1.1 4.36-6.07 8.1-11.4 8.6-4.14.36-5.58-.06-10.66-3.16-8-4.86-14.53-5-21.02-.42-4.73 3.33-12.15 4.68-16.2 2.95zm34.58-35.6v-23.54l-2.56-.98c-3.3-1.26-9.58-1.26-12.87 0l-2.56.97v47.04h18v-23.52zm176-.43v-23.94l-4.58-.68c-2.52-.38-6.45-.3-8.75.2l-4.16.87-.27 23.74-.27 23.74h18.04V173.1zm-126.2-4.57c.36-1.5-4.25-7.12-7.08-8.64-1.85-1-3.15.05-12.74 10.25l-10.68 11.37 4.56 5.17 4.56 5.17 10.54-11.06c5.8-6.07 10.67-11.6 10.84-12.27zm86.15 18.07l4.35-4.45-6.08-6.8c-3.33-3.75-8.33-9.02-11.1-11.73l-5.03-4.9-4.05 4.04c-2.24 2.22-4.06 4.8-4.06 5.72 0 1.55 19.5 22.56 20.95 22.56.34 0 2.6-2 5-4.44zM157.83 164c0-6.38-11.53-16.95-14.05-12.88-.54.86 1.14 3.17 5.12 7 3.26 3.13 5.92 6.2 5.92 6.8 0 .62.68 1.12 1.5 1.12.85 0 1.5-.9 1.5-2.05zm48.07-.58c.78-1.44 3.33-4.3 5.67-6.38 4.85-4.26 5.37-6 1.8-6-4.6 0-13.52 9.98-12.13 13.6.85 2.23 3.14 1.63 4.67-1.22zm-.23-13.98l2.32-1.62-8.58-8.76c-4.72-4.82-8.58-9.62-8.58-10.67 0-1.06-.74-2.97-1.64-4.25-1.4-2-2.22-2.26-5.75-1.77-2.26.3-5.62.03-7.46-.62-3.13-1.1-3.52-1-5.76 1.6-1.32 1.53-2.4 3.5-2.4 4.35 0 .87-3.67 5.6-8.16 10.52l-8.16 8.93 2.94 2.7c1.6 1.48 3.73 3.8 4.7 5.2l1.77 2.5 8.05-8.76c4.43-4.82 8.85-8.76 9.82-8.76.97 0 5.73 4.03 10.56 8.97l8.8 8.97 2.6-3.45c1.4-1.9 3.63-4.2 4.9-5.08zm-102.03-10.6c.45-2.33-4.34-5.6-9.27-6.35-5.07-.77-15.32 1.82-16.18 4.08-1.38 3.57.1 4.03 12.77 3.93 10.4-.08 12.42-.34 12.67-1.66zm176 0c.43-2.24-4.17-5.52-8.86-6.3-7.64-1.3-18.13 2.95-16.68 6.75.4 1 3.5 1.28 12.87 1.2 10.4-.08 12.42-.34 12.67-1.66zM91.34 128.6c2.2 0 5.8.23 8 .48 3.72.43 4 .3 4-2.04 0-5.48-12.74-7.9-21.25-4.03-4.33 1.97-5.22 3.68-3.05 5.85.8.8 2.4.95 4.75.45 1.95-.42 5.34-.74 7.54-.7zm176 0c2.2 0 5.8.23 8 .48 3.72.43 4 .3 4-2.04 0-5.23-11.93-7.8-20.4-4.42-4.33 1.73-5.76 3.92-3.98 6.07.84 1 2.15 1.17 4.77.6 2-.4 5.4-.74 7.6-.7zm-173.5-14.14c.83.22 2.65.65 4.06.96l2.57.56-.45-17.06c-.42-16.24-.33-17.26 1.8-21.04 3-5.37 3.04-10.13.07-13.3-5.1-5.4-14.65-5.67-20.36-.56-3.56 3.18-4 7.58-1.3 12.82 1.3 2.5 1.6 6.53 1.6 21v17.9l5.25-.83c2.88-.45 5.92-.65 6.74-.44zm178.6.5l4.4.82V98.04c0-15.66.24-18.3 2.03-22.33 2.45-5.53 1.88-8.72-2.17-12.12-4.1-3.46-8.96-4.15-14.4-2.08-7.44 2.84-9.43 8.4-5.6 15.55 1.7 3.13 1.82 5.22 1.37 21.1l-.5 17.64 5.22-.84c2.86-.46 7.2-.46 9.63 0z"/><path fill="#bebebe" d="M63.5 445.9c-16.2-2.07-31.64-9.7-43.14-21.3-8.18-8.26-13.48-16.86-17.3-28.06l-2.72-8-.28-160.5c-.2-108.97.06-162.7.78-167.36C5.06 33.26 23.3 12.38 51.34 2.9l7-2.36 117.7-.27c127.5-.3 124.08-.43 137.76 5.1 19.84 8 34.94 24 41.9 44.4l2.64 7.77.28 162c.25 144.9.1 162.84-1.3 169.9-6.1 30.22-31.5 52.95-63.3 56.6-10.8 1.23-220.8 1.12-230.52-.13zm242.84-7.08c17.94-6.1 32.93-18.7 40.36-33.87 7.68-15.7 7.14-1.82 7.14-181.9 0-160.32-.02-161.6-2.07-169.02-5.22-18.85-18.07-33.88-36.43-42.6-15.38-7.32-6.8-6.9-136-6.9-130.1 0-120.86-.5-137 7.47-13.86 6.83-25.06 18.04-31.5 31.53-6.38 13.37-6.06 3.24-5.76 182.23l.26 162.78 2.22 6.52c7.8 22.9 27.33 40.07 51.78 45.5 4.84 1.1 28.47 1.3 122.5 1.16l116.5-.18 8-2.72zM64.48 393.14c-4.15-2.73-6.63-7.04-6.63-11.52 0-3.53.7-4.63 7-10.93l7-7-.06-13.58-.07-13.58-5.96-4.25c-13.03-9.3-13.3-17.8-.96-30.65l6.04-6.28V271.1l-5.95-5.68c-7.42-7.05-9.82-11.58-7.98-15.03 4.07-7.6 26.25-15.5 38.8-13.82 10.9 1.46 22.04 5.85 27.32 10.76l2.7 2.52 1.1-3.36c1.46-4.38 7.26-9.46 10.8-9.46 1.52 0 3.8.74 5.1 1.64 2.2 1.55 2.3 2.03 1.67 9.28l-.66 7.65 5.35 5.9 5.34 5.88 4.64-1.17c7.18-1.8 10.12-1.47 12.84 1.42 2.2 2.34 2.4 3.36 2.27 10.9-.17 8.23-.14 8.34 3.25 11.63l3.43 3.32 3.2-3.2c3.1-3.12 3.2-3.45 2.9-10.6-.53-12.78 3.1-16.33 13.85-13.53l5.52 1.44 5.68-6.08 5.7-6.1-.85-5.93c-.98-6.98.2-10.44 4.04-11.8 3.64-1.27 8.97 1.5 11.96 6.24l2.4 3.82 3.9-2.8c8.7-6.32 23.73-9.7 35-7.9 12.28 1.96 25.55 8.5 27.94 13.74 1.5 3.32-.88 7.54-8.4 14.8l-5.88 5.7V295l4.52 4.5c9.98 9.98 12.78 18.26 8.53 25.22-1.93 3.16-11.4 11.32-13.15 11.32-.5 0-.9 6.22-.9 13.92v13.9l6.4 6.17c8.42 8.08 9.38 10.43 6.74 16.4-2.24 5.05-6.96 8.6-11.44 8.6-2.87 0-12.1-4.16-13.2-5.97-.35-.56-3.67-1.02-7.38-1.02-5.6 0-7.32.42-10.1 2.48-8 5.9-14.82 5.72-20.45-.5-2.9-3.2-3.6-4.78-3.6-8.1 0-3.73.62-4.7 7-11.1l7-7-.02-13.63v-13.66l-5.15-3.5c-6.56-4.44-10.8-10.22-10.8-14.7 0-4.74 3.33-10.75 9.62-17.35l5.37-5.64V281.2l-3.07-.68c-1.7-.37-3.15-.5-3.25-.3-.1.2-2.55 2.86-5.46 5.9l-5.28 5.54 1.22 7.08c1.07 6.26 1.02 7.38-.46 9.64-2.1 3.2-7.4 4.72-13.85 3.96-4.92-.6-5.07-.52-9.98 4.3l-5 4.9.67 7.12c.74 8.08-.38 11.4-3.84 11.37-2.67 0-11.88-4.18-15.46-7-2.34-1.84-2.76-1.9-4.67-.5-3.7 2.67-11 6.24-14.18 6.93-4.74 1.03-5.93-1.16-5.63-10.3.26-7.62.26-7.62-3.84-12.37l-4.1-4.76h-7.78c-12.22 0-15.2-3.43-12.57-14.52l1.4-5.98-5.8-5.86c-5.7-5.72-5.92-5.84-9.96-5.16l-4.13.7v14.14l6.03 6.28c12.34 12.85 12.07 21.34-.96 30.64l-5.95 4.24-.06 13.58-.06 13.57 7 7c6.2 6.2 7 7.42 7 10.8 0 4.72-3.2 10.07-7.26 12.17-4.23 2.2-10.07 1.22-15.44-2.56-3.84-2.7-5.17-3.06-11.2-3.06-5.17 0-7.2.4-8.23 1.66-1.92 2.34-8.8 5.3-12.36 5.3-1.65.02-4.3-.82-5.86-1.86zm35.36-34.98v-23.9l-2.25-.6c-3.45-.9-10.33-.73-13.2.36l-2.56.97v47.04h18v-23.88zm176 0v-23.9l-2.25-.6c-3.45-.9-10.33-.73-13.2.36l-2.56.97v47.04h18v-23.88zm-172-34.93c0-3.5-7.66-6.6-14.56-5.9-6.9.72-11.44 3.1-11.44 6.02 0 2.23.16 2.26 13 2.22 12.9-.03 13-.05 13-2.34zm79.93 1.53c4.8.64 6.68-.6 7.6-5.04.45-2.16 3.4-5.94 9.16-11.8l8.5-8.6-1.57-3.06c-1.67-3.22-6.12-7.22-8.03-7.22-.62 0-4.73 3.63-9.1 8.07-4.4 4.45-8.8 8.52-9.78 9.07-1.5.83-3.23-.5-10.5-8.1l-8.7-9.1-3 1.86c-1.67 1.04-3.9 3.5-4.96 5.5l-1.95 3.6 8.53 8.85c5.84 6.06 8.73 9.86 9.17 12.08.75 3.73 3.75 5.3 7.87 4.13 1.5-.44 4.52-.54 6.75-.24zm95.86-1.7c-.42-3.6-4.95-5.53-12.8-5.48-7.28.05-13 2.38-13 5.32 0 1 .2 2 .43 2.22.23.23 6.1.42 13.04.42h12.63l-.3-2.5zm-188.3-9.5c2.2.03 5.8.25 8 .5 3.7.44 4.03.28 4.3-2.06.25-2.06-.37-2.87-3.28-4.25-7.32-3.5-21.45-1.17-22.35 3.67-.5 2.63 1.73 3.7 5.84 2.86 1.93-.4 5.3-.72 7.5-.7zm173-.02c2.2-.33 6.26-.16 9 .38 5.47 1.08 8.13-.1 6.97-3.13-2.5-6.54-25.07-6-26.3.62-.43 2.3 1.63 3.8 4.34 3.18 1.1-.26 3.8-.73 6-1.06zm-170-13.95c1.66.32 3.73.8 4.6 1.04 1.45.4 1.57-1.28 1.13-16.37-.42-14.7-.26-17.25 1.27-20.22 3.08-5.94 3.56-8.96 2-12.66-3.52-8.45-20.55-8.25-24.1.27-1.23 2.92-1.2 3.84.3 7.6 1.35 3.35 1.8 8.27 2.06 22.88l.32 18.62 4.7-.9c2.6-.47 6.07-.6 7.72-.28zm176 0c1.66.32 3.8.8 4.76 1.08 1.6.46 1.74-.85 1.74-17.6 0-13.98.33-18.62 1.43-20.33 2.16-3.36 2.8-8.87 1.33-11.7-1.6-3.1-7.17-6-11.54-6-4.04 0-10.06 2.4-11.83 4.75-1.9 2.5-1.68 9.25.44 12.74 1.62 2.68 1.77 4.87 1.37 20.64l-.45 17.65 4.87-.92c2.68-.5 6.22-.63 7.87-.3zm-120.55-6.8c1.68-2.35 4.4-5.16 6.05-6.26 3.54-2.36 4.04-5.5.88-5.5-3.47 0-8.78 3.93-10.9 8.06-4.14 8.13-1.2 10.87 3.98 3.7zm67.06 1.7c0-6.8-12.72-17.96-14.67-12.87-.47 1.23.37 2.55 2.96 4.63 2 1.6 4.58 4.45 5.75 6.34 2.18 3.53 5.96 4.73 5.96 1.9zm-71.03-11.62l5-5.16-10.6-11.34c-5.8-6.24-10.85-11.34-11.2-11.34-.37 0-2.6 2.25-4.97 5-3.9 4.53-4.17 5.2-2.92 6.98 1.23 1.73 18.84 20.66 19.5 20.92.12.05 2.47-2.22 5.2-5.06zm95.04-18.35c0-.6-2.05-3.08-4.55-5.53l-4.57-4.46-11.03 11.26-11.04 11.25 4.84 5.48 4.84 5.48 10.75-11.2c5.9-6.16 10.74-11.7 10.74-12.27zm-176.7-56.45c-3.96-2.4-6.3-6.76-6.3-11.7 0-3.34.8-4.53 7-10.6l7-6.86v-13.94c0-7.7-.4-13.94-.9-13.94s-3.24-1.83-6.06-4.07c-12.1-9.56-12.12-17.77-.07-30.32l6.04-6.28V86.53L64 79.48c-8.65-8.9-9.45-11.5-4.96-16.14 7.9-8.17 25.73-13.26 39.15-11.18 12.42 1.92 23.17 7.18 27.18 13.3 1.48 2.26 1.48 2.73 0 5.87-.9 1.87-4.3 6-7.58 9.17l-5.96 5.76v24.11l6.03 6.28c12.05 12.55 12.04 20.76-.06 30.32-2.82 2.24-5.55 4.07-6.05 4.07s-.9 3.32-.9 7.37v7.38l4.2.68c4.1.65 4.32.53 10.08-5.23l5.9-5.9-1.1-3.9c-1.9-6.83-1.4-11.75 1.45-14.43 2.27-2.13 3.37-2.37 10.34-2.22l7.8.16 4.4-4.5 4.42-4.5v-8.58c0-6.6.35-8.8 1.52-9.55 2.24-1.42 8.94.68 14.84 4.65l5 3.36 3.63-2.45c5.22-3.55 11.6-6.26 14.74-6.3 3.43-.02 4.27 2.72 3.48 11.34l-.55 6.14 4.9 5.3 4.9 5.3 5.8-.65c7.38-.85 12.86 1.16 13.83 5.06.7 2.76.04 10.7-1.12 13.72-.48 1.27.92 3.37 5.2 7.75 5.56 5.73 6.02 5.98 9.6 5.38l3.74-.62-.03-7.12v-7.12l-5.15-3.5c-6.56-4.44-10.8-10.22-10.8-14.7 0-4.74 3.33-10.75 9.62-17.35l5.37-5.64V85.8l-5.04-4.58c-9.85-8.93-11.23-13.98-5.25-19.23 8.43-7.4 24.67-11.75 37.27-9.96 8.4 1.2 16.2 4.02 22.4 8.13 8.82 5.84 8.58 9.03-1.44 19.37l-6.94 7.15v23.5l4.68 4.67c13.97 13.95 13.9 22.62-.24 33.3l-5.44 4.1v26.6l6.4 6.16c8.43 8.08 9.4 10.43 6.75 16.4-4.03 9.08-12.9 11-21.8 4.72-3.76-2.65-5.3-3.1-10.46-3.1-5.13 0-6.72.46-10.6 3.13-8.22 5.65-17.47 4.52-21.28-2.6-.75-1.4-1.62-2.53-1.94-2.53-.32 0-1.6 1.57-2.82 3.47-2.72 4.2-7.35 5.8-11.76 4.04l-3-1.2v-17.23L211 184.7l-5.36-5.43-5.15 1.37c-7.02 1.87-8.1 1.77-11.35-1-2.66-2.3-2.8-2.87-2.84-10.88 0-8-.17-8.63-3.13-12l-3.1-3.54-3.36 3.45c-3.25 3.36-3.34 3.7-3.35 11.83 0 7.48-.27 8.65-2.43 10.96-2.72 2.9-4.63 3.1-12.12 1.38l-5.2-1.2-5.26 5.95-5.28 5.93.52 7.6c.5 7.15.38 7.7-1.83 9.26-1.3.9-3.27 1.64-4.38 1.64-3.44 0-8.2-3.62-10.15-7.73l-1.86-3.9-1.7 3.8c-3.72 8.3-12.9 10-21.47 3.95-3.9-2.75-5.22-3.1-11.27-3.1-5 0-7.2.4-8.15 1.56-2.1 2.54-8.6 5.44-12.15 5.44-1.8 0-4.73-.9-6.5-1.96zm35.7-34.92v-23.9l-2.25-.6c-3.45-.9-10.33-.73-13.2.36l-2.56.97v47.04h18v-23.88zm176 0v-23.9l-2.25-.6c-3.45-.9-10.33-.73-13.2.36l-2.56.97v47.04h18v-23.88zm-126-5.26c0-2.02-6.4-8.86-8.3-8.86-1.1 0-14.23 12.88-20.67 20.27l-2.42 2.78 4.95 5.07 4.94 5.06 10.75-11.25c5.9-6.2 10.74-12.06 10.74-13.05zm86.48 19.16l4.9-5-8.88-9.25c-4.9-5.1-9.9-10.36-11.16-11.7-2.1-2.27-2.45-2.34-4.95-1-1.48.8-3.8 3.1-5.15 5.15l-2.45 3.7 10.83 11.55c5.95 6.35 11.08 11.54 11.4 11.54.3 0 2.77-2.24 5.46-4.98zm-78.5-23.77c0-4.88-5.73-11.4-11.2-12.78-4.57-1.15-4.4 1.48.4 5.9 2.46 2.27 5.28 5.36 6.26 6.87 1 1.5 2.4 2.74 3.18 2.74.84 0 1.38-1.07 1.37-2.75zm48.95-.65c1.16-1.87 3.67-4.6 5.6-6.05 1.9-1.47 3.47-3.3 3.47-4.1 0-2-4.44-1.88-7.58.18-2.8 1.83-7.42 9.13-7.42 11.7 0 2.93 3.72 1.84 5.93-1.73zm-3.97-9.77l4.97-5.15-6.95-7.7c-3.82-4.25-7.63-8.28-8.46-8.98-.84-.7-1.52-2.3-1.52-3.56 0-3.7-2.73-5.65-7.4-5.33-2.25.15-5.54-.07-7.3-.5-4.25-1.02-6.98.6-7.8 4.6-.48 2.26-3.3 5.9-9.1 11.8l-8.44 8.55 5.14 5.32 5.13 5.33 8.82-8.78c8.7-8.68 8.83-8.76 11.25-7.18 1.35.9 5.5 5 9.24 9.16 3.72 4.16 6.93 7.56 7.1 7.56.2 0 2.57-2.32 5.3-5.16zm-98.96-14.54c0-3.44-5.2-5.73-13-5.73s-13 2.3-13 5.74c0 2.22.2 2.25 13 2.25 12.82 0 13-.04 13-2.26zm176-.1c0-3.62-7.67-6.63-14.75-5.8-6.6.78-11.26 3.03-11.26 5.46 0 1 .2 2 .46 2.27.25.25 6.1.44 13 .4 12.42-.03 12.54-.05 12.54-2.34zm-186.5-9.38c2.75.15 6.13.37 7.5.48 2.05.16 2.5-.25 2.5-2.3 0-3.4-5.32-6-12.28-6-8.78 0-14.45 3.36-12.8 7.6.5 1.35 1.4 1.48 5.34.78 2.6-.47 7-.72 9.74-.56zm169.45.1c3.65-.8 6.47-.78 10.23.03 4.16.88 5.45.83 6.53-.25 5.1-5.1-10.54-9.94-20.62-6.4-3.88 1.36-5.7 3.67-4.8 6.05.75 1.93 1.9 2 8.65.56zM93.13 114.5c.66.2 2.6.6 4.3.9l3.12.53-.5-16.5c-.48-15.85-.4-16.72 1.84-21.2 4.3-8.63 2.32-15.2-5.22-17.23-7.5-2.02-15.9.86-17.7 6.08-.86 2.45-.73 3.96.6 7.28 1.3 3.25 1.74 8.3 2 22.77l.34 18.6 5-.8c2.77-.43 5.57-.62 6.22-.42zm174.2.25c2.76 0 6 .32 7.22.7l2.2.7.34-18.3c.28-15.33.65-19.1 2.3-23.08 1.93-4.74 1.93-4.8-.06-8.46-3.7-6.86-14.84-8.2-21.5-2.6-2.45 2.05-3 3.28-3 6.68 0 2.3.83 5.5 1.83 7.16 1.62 2.7 1.77 4.87 1.36 20.86l-.45 17.86 2.37-.75c1.3-.4 4.63-.75 7.4-.75z"/><path fill="#868f85" d="M64.03 446c-17.13-2.3-30-8.74-42.76-21.43-6.96-6.93-10.02-10.9-13.16-17.03-8.44-16.5-7.76-.3-7.76-185v-164l2.73-8c8.37-24.6 27.9-42.5 52.92-48.5 8.1-1.93 11.78-2 123.03-2 124.18 0 121.17-.12 134.8 5.42 15.73 6.4 30.1 19.78 37.53 35 8.04 16.44 7.58 4.66 7.26 186.58l-.28 161.5-2.82 8c-3.46 9.78-7.14 16.35-13.08 23.3-10.1 11.8-23.3 20.22-38.3 24.46l-7.8 2.2-113 .16c-62.15.1-115.84-.2-119.3-.67zm243.2-7.25c18.53-6.55 32.23-18.26 40.05-34.2 7-14.33 6.56-1.86 6.55-181.15-.02-180.74.5-167.85-7.24-182.75-4.93-9.48-15.95-21.17-24.92-26.43-7.3-4.28-17.73-7.88-26.44-9.14-9.32-1.35-222.48-1.35-231.8 0-15.72 2.27-28.05 8.5-39.6 19.96-8.75 8.7-14.03 17.87-17.03 29.6C4.9 62.18 4.85 66.4 4.85 223.5c0 140.36.2 161.9 1.5 167.08 4.92 19.38 17.66 35.05 35.7 43.87 16.05 7.85 8.86 7.47 140.3 7.27l117-.18 7.9-2.8zm-242.75-45.6c-4.15-2.74-6.63-7.05-6.63-11.53 0-3.53.7-4.63 7-10.93l7-7-.06-13.58-.07-13.58-5.96-4.25c-13.03-9.3-13.3-17.8-.96-30.65l6.04-6.28V271.1l-5.95-5.68c-7.42-7.05-9.82-11.58-7.98-15.03 4.07-7.6 26.25-15.5 38.8-13.82 10.9 1.46 22.04 5.85 27.32 10.76l2.7 2.52 1.1-3.36c1.46-4.38 7.26-9.46 10.8-9.46 1.52 0 3.8.74 5.1 1.64 2.2 1.55 2.3 2.03 1.67 9.28l-.66 7.65 5.35 5.9 5.34 5.88 4.64-1.17c7.18-1.8 10.12-1.47 12.84 1.42 2.2 2.34 2.4 3.36 2.27 10.9-.17 8.23-.14 8.34 3.25 11.63l3.43 3.32 3.2-3.2c3.1-3.12 3.2-3.45 2.9-10.6-.53-12.78 3.1-16.33 13.85-13.53l5.52 1.44 5.68-6.08 5.7-6.1-.85-5.93c-.98-6.98.2-10.44 4.04-11.8 3.64-1.27 8.97 1.5 11.96 6.24l2.4 3.82 3.9-2.8c8.7-6.32 23.73-9.7 35-7.9 12.28 1.96 25.55 8.5 27.94 13.74 1.5 3.32-.88 7.54-8.4 14.8l-5.88 5.7V295l4.52 4.5c9.98 9.98 12.78 18.26 8.53 25.22-1.93 3.16-11.4 11.32-13.15 11.32-.5 0-.9 6.22-.9 13.92v13.9l6.4 6.17c8.42 8.08 9.38 10.43 6.74 16.4-2.24 5.05-6.96 8.6-11.44 8.6-2.87 0-12.1-4.16-13.2-5.97-.35-.56-3.67-1.02-7.38-1.02-5.6 0-7.32.42-10.1 2.48-8 5.9-14.82 5.72-20.45-.5-2.9-3.2-3.6-4.78-3.6-8.1 0-3.73.62-4.7 7-11.1l7-7-.02-13.63v-13.66l-5.15-3.5c-6.56-4.44-10.8-10.22-10.8-14.7 0-4.74 3.33-10.75 9.62-17.35l5.37-5.64V281.2l-3.07-.68c-1.7-.37-3.15-.5-3.25-.3-.1.2-2.55 2.86-5.46 5.9l-5.28 5.54 1.22 7.08c1.07 6.26 1.02 7.38-.46 9.64-2.1 3.2-7.4 4.72-13.85 3.96-4.92-.6-5.07-.52-9.98 4.3l-5 4.9.67 7.12c.74 8.08-.38 11.4-3.84 11.37-2.67 0-11.88-4.18-15.46-7-2.34-1.84-2.76-1.9-4.67-.5-3.7 2.67-11 6.24-14.18 6.93-4.74 1.03-5.93-1.16-5.63-10.3.26-7.62.26-7.62-3.84-12.37l-4.1-4.76h-7.78c-12.22 0-15.2-3.43-12.57-14.52l1.4-5.98-5.8-5.86c-5.7-5.72-5.92-5.84-9.96-5.16l-4.13.7v14.14l6.03 6.28c12.34 12.85 12.07 21.34-.96 30.64l-5.95 4.24-.06 13.58-.06 13.57 7 7c6.2 6.2 7 7.42 7 10.8 0 4.72-3.2 10.07-7.26 12.17-4.23 2.2-10.07 1.22-15.44-2.56-3.84-2.7-5.17-3.06-11.2-3.06-5.17 0-7.2.4-8.23 1.66-1.92 2.34-8.8 5.3-12.36 5.3-1.65.02-4.3-.82-5.86-1.86zm35.36-35v-23.88l-2.25-.6c-3.45-.92-10.33-.74-13.2.35l-2.56.97v47.04h18v-23.88zm176 0v-23.88l-2.25-.6c-3.45-.92-10.33-.74-13.2.35l-2.56.97v47.04h18v-23.88zm-172-34.92c0-3.5-7.66-6.6-14.56-5.9-6.9.72-11.44 3.1-11.44 6.02 0 2.23.16 2.26 13 2.22 12.9-.03 13-.05 13-2.34zm79.93 1.53c4.8.64 6.68-.6 7.6-5.04.45-2.16 3.4-5.94 9.16-11.8l8.5-8.6-1.57-3.06c-1.67-3.22-6.12-7.22-8.03-7.22-.62 0-4.73 3.63-9.1 8.07-4.4 4.45-8.8 8.52-9.78 9.07-1.5.83-3.23-.5-10.5-8.1l-8.7-9.1-3 1.86c-1.67 1.04-3.9 3.5-4.96 5.5l-1.95 3.6 8.53 8.85c5.84 6.06 8.73 9.86 9.17 12.08.75 3.73 3.75 5.3 7.87 4.13 1.5-.44 4.52-.54 6.75-.24zm95.86-1.7c-.42-3.6-4.95-5.53-12.8-5.48-7.28.05-13 2.38-13 5.32 0 1 .2 2 .43 2.22.23.23 6.1.42 13.04.42h12.63l-.3-2.5zm-188.3-9.5c2.2.03 5.8.25 8 .5 3.7.44 4.03.28 4.3-2.06.25-2.06-.37-2.87-3.28-4.25-7.32-3.5-21.45-1.17-22.35 3.67-.5 2.63 1.73 3.7 5.84 2.86 1.93-.4 5.3-.72 7.5-.7zm173-.02c2.2-.33 6.26-.16 9 .38 5.47 1.08 8.13-.1 6.97-3.13-2.5-6.54-25.07-6-26.3.62-.43 2.3 1.63 3.8 4.34 3.18 1.1-.26 3.8-.73 6-1.06zm-170-13.95c1.66.32 3.73.8 4.6 1.04 1.45.4 1.57-1.28 1.13-16.37-.42-14.7-.26-17.25 1.27-20.22 3.08-5.94 3.56-8.96 2-12.66-3.52-8.45-20.55-8.25-24.1.27-1.23 2.92-1.2 3.84.3 7.6 1.35 3.35 1.8 8.27 2.06 22.88l.32 18.62 4.7-.9c2.6-.47 6.07-.6 7.72-.28zm176 0c1.66.32 3.8.8 4.76 1.08 1.6.46 1.74-.85 1.74-17.6 0-13.98.33-18.62 1.43-20.33 2.16-3.36 2.8-8.87 1.33-11.7-1.6-3.1-7.17-6-11.54-6-4.04 0-10.06 2.4-11.83 4.75-1.9 2.5-1.68 9.25.44 12.74 1.62 2.68 1.77 4.87 1.37 20.64l-.45 17.65 4.87-.92c2.68-.5 6.22-.63 7.87-.3zm-120.55-6.8c1.68-2.35 4.4-5.16 6.05-6.26 3.54-2.36 4.04-5.5.88-5.5-3.47 0-8.78 3.93-10.9 8.06-4.14 8.13-1.2 10.87 3.98 3.7zm67.06 1.7c0-6.8-12.72-17.96-14.67-12.87-.47 1.23.37 2.55 2.96 4.63 2 1.6 4.58 4.45 5.75 6.34 2.18 3.53 5.96 4.73 5.96 1.9zm-71.03-11.62l5-5.16-10.6-11.34c-5.8-6.24-10.85-11.34-11.2-11.34-.37 0-2.6 2.25-4.97 5-3.9 4.53-4.17 5.2-2.92 6.98 1.23 1.73 18.84 20.66 19.5 20.92.12.05 2.47-2.22 5.2-5.06zm95.04-18.35c0-.6-2.05-3.08-4.55-5.53l-4.57-4.46-11.03 11.26-11.04 11.25 4.84 5.48 4.84 5.48 10.75-11.2c5.9-6.16 10.74-11.7 10.74-12.27zm-176.7-56.45c-3.96-2.4-6.3-6.76-6.3-11.7 0-3.34.8-4.53 7-10.6l7-6.86v-13.94c0-7.7-.4-13.94-.9-13.94s-3.24-1.83-6.06-4.07c-12.1-9.56-12.12-17.77-.07-30.32l6.04-6.28V86.53L64 79.48c-8.65-8.9-9.45-11.5-4.96-16.14 7.9-8.17 25.73-13.26 39.15-11.18 12.42 1.92 23.17 7.18 27.18 13.3 1.48 2.26 1.48 2.73 0 5.87-.9 1.87-4.3 6-7.58 9.17l-5.96 5.76v24.11l6.03 6.28c12.05 12.55 12.04 20.76-.06 30.32-2.82 2.24-5.55 4.07-6.05 4.07s-.9 3.32-.9 7.37v7.38l4.2.68c4.1.65 4.32.53 10.08-5.23l5.9-5.9-1.1-3.9c-1.9-6.83-1.4-11.75 1.45-14.43 2.27-2.13 3.37-2.37 10.34-2.22l7.8.16 4.4-4.5 4.42-4.5v-8.58c0-6.6.35-8.8 1.52-9.55 2.24-1.42 8.94.68 14.84 4.65l5 3.36 3.63-2.45c5.22-3.55 11.6-6.26 14.74-6.3 3.43-.02 4.27 2.72 3.48 11.34l-.55 6.14 4.9 5.3 4.9 5.3 5.8-.65c7.38-.85 12.86 1.16 13.83 5.06.7 2.76.04 10.7-1.12 13.72-.48 1.27.92 3.37 5.2 7.75 5.56 5.73 6.02 5.98 9.6 5.38l3.74-.62-.03-7.12v-7.12l-5.15-3.5c-6.56-4.44-10.8-10.22-10.8-14.7 0-4.74 3.33-10.75 9.62-17.35l5.37-5.64V85.8l-5.04-4.58c-9.85-8.93-11.23-13.98-5.25-19.23 8.43-7.4 24.67-11.75 37.27-9.96 8.4 1.2 16.2 4.02 22.4 8.13 8.82 5.84 8.58 9.03-1.44 19.37l-6.94 7.15v23.5l4.68 4.67c13.97 13.95 13.9 22.62-.24 33.3l-5.44 4.1v26.6l6.4 6.16c8.43 8.08 9.4 10.43 6.75 16.4-4.03 9.08-12.9 11-21.8 4.72-3.76-2.65-5.3-3.1-10.46-3.1-5.13 0-6.72.46-10.6 3.13-8.22 5.65-17.47 4.52-21.28-2.6-.75-1.4-1.62-2.53-1.94-2.53-.32 0-1.6 1.57-2.82 3.47-2.72 4.2-7.35 5.8-11.76 4.04l-3-1.2v-17.23L211 184.7l-5.36-5.43-5.15 1.37c-7.02 1.87-8.1 1.77-11.35-1-2.66-2.3-2.8-2.87-2.84-10.88 0-8-.17-8.63-3.13-12l-3.1-3.54-3.36 3.45c-3.25 3.36-3.34 3.7-3.35 11.83 0 7.48-.27 8.65-2.43 10.96-2.72 2.9-4.63 3.1-12.12 1.38l-5.2-1.2-5.26 5.95-5.28 5.93.52 7.6c.5 7.15.38 7.7-1.83 9.26-1.3.9-3.27 1.64-4.38 1.64-3.44 0-8.2-3.62-10.15-7.73l-1.86-3.9-1.7 3.8c-3.72 8.3-12.9 10-21.47 3.95-3.9-2.75-5.22-3.1-11.27-3.1-5 0-7.2.4-8.15 1.56-2.1 2.54-8.6 5.44-12.15 5.44-1.8 0-4.73-.9-6.5-1.96zm35.7-34.92v-23.9l-2.25-.6c-3.45-.9-10.33-.73-13.2.36l-2.56.97v47.04h18v-23.88zm176 0v-23.9l-2.25-.6c-3.45-.9-10.33-.73-13.2.36l-2.56.97v47.04h18v-23.88zm-126-5.26c0-2.02-6.4-8.86-8.3-8.86-1.1 0-14.23 12.88-20.67 20.27l-2.42 2.78 4.95 5.07 4.94 5.06 10.75-11.25c5.9-6.2 10.74-12.06 10.74-13.05zm86.48 19.16l4.9-5-8.88-9.25c-4.9-5.1-9.9-10.36-11.16-11.7-2.1-2.27-2.45-2.34-4.95-1-1.48.8-3.8 3.1-5.15 5.15l-2.45 3.7 10.83 11.55c5.95 6.35 11.08 11.54 11.4 11.54.3 0 2.77-2.24 5.46-4.98zm-78.5-23.77c0-4.88-5.73-11.4-11.2-12.78-4.57-1.15-4.4 1.48.4 5.9 2.46 2.27 5.28 5.36 6.26 6.87 1 1.5 2.4 2.74 3.18 2.74.84 0 1.38-1.07 1.37-2.75zm48.95-.65c1.16-1.87 3.67-4.6 5.6-6.05 1.9-1.47 3.47-3.3 3.47-4.1 0-2-4.44-1.88-7.58.18-2.8 1.83-7.42 9.13-7.42 11.7 0 2.93 3.72 1.84 5.93-1.73zm-3.97-9.77l4.97-5.15-6.95-7.7c-3.82-4.25-7.63-8.28-8.46-8.98-.84-.7-1.52-2.3-1.52-3.56 0-3.7-2.73-5.65-7.4-5.33-2.25.15-5.54-.07-7.3-.5-4.25-1.02-6.98.6-7.8 4.6-.48 2.26-3.3 5.9-9.1 11.8l-8.44 8.55 5.14 5.32 5.13 5.33 8.82-8.78c8.7-8.68 8.83-8.76 11.25-7.18 1.35.9 5.5 5 9.24 9.16 3.72 4.16 6.93 7.56 7.1 7.56.2 0 2.57-2.32 5.3-5.16zm-98.96-14.54c0-3.44-5.2-5.73-13-5.73s-13 2.3-13 5.74c0 2.22.2 2.25 13 2.25 12.82 0 13-.04 13-2.26zm176-.1c0-3.62-7.67-6.63-14.75-5.8-6.6.78-11.26 3.03-11.26 5.46 0 1 .2 2 .46 2.27.25.25 6.1.44 13 .4 12.42-.03 12.54-.05 12.54-2.34zm-186.5-9.38c2.75.15 6.13.37 7.5.48 2.05.16 2.5-.25 2.5-2.3 0-3.4-5.32-6-12.28-6-8.78 0-14.45 3.36-12.8 7.6.5 1.35 1.4 1.48 5.34.78 2.6-.47 7-.72 9.74-.56zm169.45.1c3.65-.8 6.47-.78 10.23.03 4.16.88 5.45.83 6.53-.25 5.1-5.1-10.54-9.94-20.62-6.4-3.88 1.36-5.7 3.67-4.8 6.05.75 1.93 1.9 2 8.65.56zM93.13 114.5c.66.2 2.6.6 4.3.9l3.12.53-.5-16.5c-.48-15.85-.4-16.72 1.84-21.2 4.3-8.63 2.32-15.2-5.22-17.23-7.5-2.02-15.9.86-17.7 6.08-.86 2.45-.73 3.96.6 7.28 1.3 3.25 1.74 8.3 2 22.77l.34 18.6 5-.8c2.77-.43 5.57-.62 6.22-.42zm174.2.25c2.76 0 6 .32 7.22.7l2.2.7.34-18.3c.28-15.33.65-19.1 2.3-23.08 1.93-4.74 1.93-4.8-.06-8.46-3.7-6.86-14.84-8.2-21.5-2.6-2.45 2.05-3 3.28-3 6.68 0 2.3.83 5.5 1.83 7.16 1.62 2.7 1.77 4.87 1.36 20.86l-.45 17.86 2.37-.75c1.3-.4 4.63-.75 7.4-.75z"/><path fill="#7f7f7f" d="M64.03 446c-17.13-2.3-30-8.74-42.76-21.43-6.96-6.93-10.02-10.9-13.16-17.03-8.44-16.5-7.76-.3-7.76-185v-164l2.73-8c8.37-24.6 27.9-42.5 52.92-48.5 8.1-1.93 11.78-2 123.03-2 124.18 0 121.17-.12 134.8 5.42 15.73 6.4 30.1 19.78 37.53 35 8.04 16.44 7.58 4.66 7.26 186.58l-.28 161.5-2.82 8c-3.46 9.78-7.14 16.35-13.08 23.3-10.1 11.8-23.3 20.22-38.3 24.46l-7.8 2.2-113 .16c-62.15.1-115.84-.2-119.3-.67zm243.2-7.25c18.53-6.55 32.23-18.26 40.05-34.2 7-14.33 6.56-1.86 6.55-181.15-.02-180.74.5-167.85-7.24-182.75-4.93-9.48-15.95-21.17-24.92-26.43-7.3-4.28-17.73-7.88-26.44-9.14-9.32-1.35-222.48-1.35-231.8 0-15.72 2.27-28.05 8.5-39.6 19.96-8.75 8.7-14.03 17.87-17.03 29.6C4.9 62.18 4.85 66.4 4.85 223.5c0 140.36.2 161.9 1.5 167.08 4.92 19.38 17.66 35.05 35.7 43.87 16.05 7.85 8.86 7.47 140.3 7.27l117-.18 7.9-2.8zM63.73 392.6c-3.15-1.78-5.9-7.16-5.9-11.56 0-2.64 1.26-4.45 7-10.2l7-7-.02-13.65v-13.66l-5.08-3.44c-13.77-9.35-14.04-18.78-.9-32.45l6.02-6.28V272.2l-6.96-7c-10.02-10.1-10.52-14.37-2.32-19.9 14.42-9.73 36.2-10.88 52.78-2.8 2.75 1.36 6.2 3.57 7.65 4.93l2.64 2.5 1.28-3.1c.7-1.7 2.36-4.37 3.7-5.94 1.94-2.3 3.2-2.86 6.56-2.84 6.47.02 6.9.64 6.52 9.47l-.32 7.76 5.7 6.23 5.67 6.24 5.26-1.36c7.24-1.87 8.55-1.74 11.45 1.16 2.32 2.32 2.5 3.15 2.3 10.58-.2 8.05-.2 8.07 3.42 11.7l3.63 3.63 3.6-3.47c3.48-3.37 3.55-3.6 2.93-9.06-.74-6.4.78-13.4 3.1-14.3 2.37-.9 8.5-.72 12.32.37 3.3.96 3.54.82 9.17-5.24l5.8-6.22-.6-7.22c-.66-8.42.3-10.28 5.3-10.28 4.93 0 7.9 1.75 10.34 6.07l2.18 3.88 4.14-3c6.97-5.05 16.53-7.45 29.26-7.36 12.26.1 18.9 1.9 27.68 7.53 8.24 5.3 7.8 10.14-1.75 19.8l-6.43 6.5v23.46l5.04 5.18c5.86 6 9.96 13.5 9.96 18.18 0 4.76-3.15 9.2-9.93 14.03l-5.95 4.24-.06 13.58-.06 13.57 7 7c5.66 5.66 7 7.6 7 10.1 0 12.02-11.34 17.22-22.34 10.24-3.96-2.5-5.74-3-10.94-2.98-5.23 0-6.92.5-10.62 3-8.9 6.03-19.48 3.1-22.25-6.13-1.63-5.4.25-9.1 8.06-16l6.08-5.34V337.08l-2.75-1.76c-10.1-6.4-15.04-13.42-13.72-19.54 1.13-5.26 3.4-8.86 9.66-15.4l5.9-6.13-.3-6.86c-.3-6.74-.35-6.86-3.3-7.4-2.68-.48-3.65.16-9.1 6-5.65 6-6.06 6.74-5.26 9.52 1.48 5.17 1.05 13.12-.8 14.65-1.04.87-4.58 1.44-9.66 1.55l-8.02.2-5.03 5.02-5.03 5.02.27 8.54.28 8.54h-3.9c-3.65 0-9.46-2.37-15.24-6.2-2.42-1.62-2.7-1.55-8.32 1.96-4.45 2.77-6.92 3.64-10.5 3.68l-4.68.06v-16.36l-4.6-5.32-4.6-5.32h-8.05c-11.98 0-14.08-2.9-11.2-15.43l1.03-4.42-6.15-6.2c-3.6-3.63-6.83-6.07-7.8-5.88-7.68 1.5-7.14.87-7.14 8.12v6.65l6.03 6.28c13.13 13.67 12.87 23.1-.9 32.45l-5.08 3.44-.03 13.65-.03 13.63 7 7c7.4 7.4 8.28 9.72 6 15.68-1.84 4.9-5.78 7.54-11.2 7.54-4.67 0-11.88-2.7-13.3-5-.34-.54-3.77-1-7.63-1-6.05 0-7.47.36-10.52 2.7-4.3 3.28-13.25 4.23-17.46 1.85zm36.1-34.54v-23.98l-2.74-.74c-3.98-1.07-11.64-.7-14.24.7-1.8.96-2.12 1.75-1.63 4.22.34 1.67.6 12.2.6 23.4v20.38h18v-23.98zm176.48 7.73c.4-8.95.55-19.63.37-23.76l-.33-7.5-4-1.33c-3.16-1.04-5.1-1.08-9.25-.17l-5.26 1.15V382.05h17.8l.67-16.25zM94.33 325.72c9.46.2 11.2-.54 9.37-3.97-2.45-4.56-15.2-6.3-21.86-2.97-5.86 2.92-5.03 9.15 1 7.45 1.37-.4 6.54-.62 11.48-.52zm176.02-.18c9.14 0 10-.17 10-1.9 0-5.5-15-8.78-22.5-4.9-5.52 2.83-5.07 9.52.5 7.53 1.1-.4 6.5-.72 12-.73zm-92.06-.5c1.55-.58 3.5-.6 4.9-.07 3.58 1.36 6.88-.82 8.7-5.74 1-2.77 4.33-7.04 9.45-12.2 7.7-7.74 7.86-8 6.5-10.55-.8-1.45-2.96-3.98-4.84-5.64l-3.44-3-9.13 9.1c-5.02 5-9.9 9.08-10.82 9.08-.92 0-5.47-3.92-10.1-8.7l-8.42-8.72-3.37 2.6c-1.84 1.42-4.12 3.9-5.06 5.53l-1.7 2.93 7.95 7.9c4.9 4.88 8.36 9.25 9.06 11.43 2.1 6.6 4.8 8.16 10.32 6.06zm-74.4-11.66c1.53-1.53.3-3.73-3.32-5.9-7.88-4.7-24.84-.43-22.5 5.7.44 1.1 3.07 1.38 12.68 1.3 6.77-.05 12.58-.54 13.15-1.1zm176.46-1.34c0-1.7-1.03-3-3.5-4.46-8.27-4.84-25.15-.6-22.73 5.7.37.94 3.88 1.26 13.37 1.22l12.87-.04v-2.42zM100.84 283c0-15.56.23-17.98 2-21.46 2.4-4.7 2.54-8.28.44-11.28-4.88-6.97-19.14-6.9-23.73.1-2.24 3.4-2.16 6.38.3 11.18 1.77 3.48 2 5.9 2 21.46v17.54h19V283zm176 .25c0-15.32.23-17.74 2-21.2 2.8-5.52 2.57-9.35-.83-13.15-6.92-7.75-24.16-3.02-24.16 6.63 0 .87.9 3.35 2 5.5 1.78 3.5 2 5.9 2 21.72v17.8h19v-17.3zm-123.98 6.63c5.5-5.66 6.73-7.44 5.83-8.52-3.28-3.94-14.86 6.23-14.86 13.05 0 1.46.46 2.64 1.02 2.64s4.16-3.22 8-7.16zm63.8 4.25c.7-4.6-8.07-14.08-13-14.1-3.6 0-3.1 2.42 1.37 6.44 2.5 2.24 5.54 5.55 6.77 7.37 2.48 3.64 4.36 3.75 4.87.3zm-70.86-11.25l4.97-5.15-8.85-9.6c-4.87-5.27-9.84-10.48-11.04-11.57l-2.2-1.97-4.38 4.96c-2.4 2.74-4.4 5.34-4.42 5.78-.03.64 19.87 22.4 20.7 22.63.14.04 2.5-2.25 5.22-5.1zm95.04-18.35c0-.6-2.04-3.08-4.54-5.53l-4.54-4.45-11.08 11.2-11.1 11.22 4.9 5.52 4.86 5.5 10.75-11.2c5.9-6.16 10.74-11.7 10.74-12.27zM67.38 209.3c-5.43-1.37-9.54-7.08-9.54-13.26 0-2.64 1.25-4.45 7-10.2l7-7-.03-13.65v-13.66l-5.08-3.44c-13.77-9.35-14.04-18.78-.9-32.45l6.02-6.28v-22.4l-6.08-5.72c-9.97-9.36-11.27-13.94-5.4-19.1 1.93-1.68 4.88-3.78 6.55-4.65 5.03-2.6 17.85-5.46 24.35-5.45 11.37.03 24.38 4.23 30.94 10 6.03 5.3 4.77 9.57-5.8 19.64l-5.56 5.3v22.38l6.03 6.27c13.13 13.67 12.87 23.1-.9 32.45l-5.08 3.44-.03 7.13c-.03 6.57.15 7.18 2.22 7.74 4.7 1.27 6.4.53 12.13-5.25l5.83-5.9-1.26-7.05c-1.12-6.26-1.07-7.34.4-9.6 2.06-3.14 5-3.92 12.7-3.36l6 .43 5.1-5.38 5.1-5.4-.68-6.74c-.85-8.64-.27-10.12 3.98-10.12 3.93 0 7.37 1.37 13.1 5.2l4.17 2.78 4.93-3.32c6.53-4.4 13.6-6.43 15.85-4.57 1.35 1.12 1.5 2.6.96 8.67l-.65 7.32 4.92 5.52 4.93 5.53 8.7.18c10.8.23 12.02 1.3 11.14 9.7-.32 3-.86 6.5-1.2 7.72-.5 1.8.57 3.47 5.3 8.37 5.85 6.05 6 6.13 10.12 5.43l4.18-.7V152.5l-6.57-4.77c-13.43-9.74-13.28-19.7.5-33.17l5.07-4.97V87.12l-6.96-6.95c-10-10-10.45-13.33-2.6-19.25 7.63-5.78 16.9-8.38 29.56-8.28 12.16.1 20.3 2.3 28.17 7.6 8.2 5.56 7.83 9.92-1.72 19.8l-6.44 6.68v11.92l.02 11.92 5.1 5c8.67 8.55 11.73 17.02 8.43 23.4-1.62 3.12-6.77 7.93-11.47 10.7l-3.1 1.83v27.44l7 6.85c6.4 6.25 7 7.2 7 10.9 0 8.58-7.75 14.6-15.96 12.38-2.07-.56-5.4-2.14-7.44-3.5-5.28-3.6-14.74-3.6-19.62 0-8.53 6.32-18.44 5.1-21.93-2.7l-1.65-3.67-1.9 3.5c-4.42 8.23-16.6 8.62-16.42.54.03-1.47.4-4.8.83-7.37l.78-4.7-6.1-6.05c-5.94-5.9-6.2-6.02-9.58-5.06-1.9.55-5.36 1-7.67 1-5.95 0-7.3-2.3-7.3-12.35 0-7.6-.15-8.07-3.4-11.68l-3.4-3.77-3.6 3.7c-3.53 3.6-3.6 3.84-3.6 11.66 0 10.47-1.28 12.44-8 12.44-2.68 0-6.15-.5-7.7-1.08-2.67-1.03-3.1-.77-8.58 5.25l-5.78 6.34.62 7.08c.73 8.3-.53 10.42-6.22 10.42-5.1 0-7.25-1.56-9.84-7.16l-2.32-5-.68 3.08c-.87 3.93-5.54 8.63-9.34 9.4-3.8.75-9-.7-13.6-3.83-3.02-2.05-4.87-2.5-10.5-2.5-4.98 0-7.2.43-8.13 1.58-2.77 3.32-10.97 5.83-15.42 4.7zm32.46-36.2c0-23.6-.03-23.93-2.15-24.6-3.28-1.04-11-.8-14.23.47-2.54.98-2.8 1.47-2.25 4.22.34 1.7.62 12.26.62 23.46v20.38h18V173.1zM276.2 184.9c1.03-19.4.8-34.62-.53-35.45-2.45-1.5-9.07-2.1-13.36-1.18l-4.46.95v47.84h17.68l.66-12.16zm-132.32-8.92l6.87-7.6-2.33-3.42c-1.28-1.9-3.53-4.07-5-4.85-2.6-1.4-2.8-1.28-9.7 5.5-3.86 3.82-8.86 9.1-11.1 11.76l-4.08 4.8 4.87 4.95 4.87 4.94 4.37-4.25c2.4-2.35 7.46-7.67 11.24-11.84zm92.4 11.15l4.84-4.92-10.9-11.56c-5.98-6.36-11.38-11.57-12-11.57-1.86 0-6.33 4-7.94 7.1l-1.52 2.95 10.76 11.47c5.92 6.3 11.02 11.47 11.33 11.47.3 0 2.75-2.22 5.42-4.93zm-77.85-24.37c-.82-4.08-4.6-8.84-8.84-11.13-6.37-3.42-9.38.38-3.5 4.43 1.78 1.23 4.7 4.2 6.5 6.6 3.84 5.12 6.84 5.18 5.83.1zm48.06.56c1.5-2.07 4.56-5.4 6.8-7.42 3.12-2.84 3.77-3.94 2.86-4.88-4.1-4.22-17.25 8.56-14.96 14.54.92 2.38 2.33 1.78 5.3-2.25zm-3.68-10.43l5-5.18-7.84-8.58c-4.58-5.02-8.35-10.16-9.1-12.4-1.52-4.68-4.84-6.55-8.6-4.84-1.76.8-3.14.86-4.43.16-4.7-2.5-10 .32-10 5.35 0 1.04-3.86 5.84-8.58 10.65l-8.57 8.76 5.2 5.2 5.22 5.22 8.13-8.1c5.13-5.1 8.93-8.08 10.3-8.08 1.42 0 4.74 2.86 9.88 8.5 4.25 4.67 7.9 8.5 8.07 8.5.18 0 2.58-2.33 5.32-5.17zM88.34 140.54c2.2-.33 6.13-.2 8.74.32 6.05 1.17 8.66-.26 6.8-3.73-3.82-7.16-24.84-6.5-25.88.8-.4 2.76 1.47 4.33 4.34 3.67 1.1-.26 3.8-.73 6-1.06zm176 0c2.2-.33 6.13-.2 8.74.32 8.74 1.7 10.5-3 2.7-7.12-4.07-2.14-13.7-1.95-18.44.36-5.1 2.48-4.26 8.7 1 7.5 1.1-.26 3.8-.73 6-1.06zm-159.98-12.4c.8-2.12-3.38-6-7.76-7.16-7.3-1.97-18.76 1.63-18.76 5.88 0 1 .2 2.03.42 2.26.23.23 6.07.42 13 .42 9.86 0 12.67-.3 13.1-1.4zm176.3-.33c.8-4.26-8.47-8.38-16.27-7.22-5.46.82-10.56 3.86-10.56 6.28 0 1 .2 2.06.47 2.32.28.26 6.23.43 13.26.38 11.02-.08 12.8-.32 13.1-1.75zM101.1 97.55c.28-14.92.67-18.8 2.26-22.68 2.38-5.8 1.43-9.26-3.43-12.54-5.84-3.93-14.8-2.86-19.63 2.36-2.98 3.22-3.12 6.65-.46 11.86 1.78 3.48 2 5.9 2 21.46v17.54h18.92l.34-18zm175.74.7c0-15.3.23-17.73 2-21.2 5.13-10.06-1.06-17.92-13.2-16.76-4.35.42-5.7 1.08-8.5 4.12-3.8 4.17-4.08 6.68-1.3 12.14 1.78 3.48 2 5.9 2 21.46v17.54h19v-17.3z"/><path fill="#495547" d="M57.84 444.5c-22-4.8-40.53-18.8-49.87-37.73-7.6-15.4-7.1-2.58-7.1-183.32C.83 65.08.88 61.18 2.8 53.6 8.02 33.28 21.12 17.37 40.34 8 56.64.1 48.08.55 178.84.55c132.2 0 124.04-.48 141.38 8.32 7.17 3.64 10.83 6.36 17.12 12.68 8.9 8.95 13.34 15.78 17.32 26.67l2.68 7.34.28 164.5c.3 183.85.75 171.73-6.8 186.8-6.78 13.5-17.8 24.4-31.48 31.14-16.37 8.07-5.8 7.47-137.5 7.7-98.08.2-118.57 0-124-1.2zm245.3-4.2c20.1-5.67 35.7-18.48 44.76-36.76 7.3-14.7 6.9-4.22 6.92-179.8.02-176.7.45-165.93-7.24-181.7-3.3-6.78-5.88-10.24-12.7-17.08-7.1-7.13-10.16-9.4-18.04-13.28-16.2-8-9.22-7.6-137.5-7.6-127.9 0-121.37-.36-137.04 7.38C25.65 19.68 12.97 34.2 7.27 51.6l-2.93 8.94v162c0 179.1-.47 166.3 6.74 181.5 3.3 6.96 5.6 10.05 12.65 17.1 12.33 12.3 24.92 18.7 40.83 20.8 3.73.48 57.18.8 118.78.72l112-.16 7.8-2.2zM63.72 392.6c-3.14-1.78-5.88-7.16-5.88-11.56 0-2.64 1.25-4.45 7-10.2l7-7-.03-13.65v-13.66l-5.08-3.44c-13.77-9.35-14.04-18.78-.9-32.45l6.02-6.28V272.2l-6.96-7c-10.02-10.1-10.52-14.37-2.32-19.9 14.42-9.73 36.2-10.88 52.78-2.8 2.75 1.36 6.2 3.57 7.65 4.93l2.64 2.5 1.28-3.1c.7-1.7 2.36-4.37 3.7-5.94 1.94-2.3 3.2-2.86 6.56-2.84 6.47.02 6.9.64 6.52 9.47l-.32 7.76 5.7 6.23 5.67 6.24 5.26-1.36c7.24-1.87 8.55-1.74 11.45 1.16 2.32 2.32 2.5 3.15 2.3 10.58-.2 8.05-.2 8.07 3.42 11.7l3.63 3.63 3.6-3.47c3.48-3.37 3.55-3.6 2.93-9.06-.74-6.4.78-13.4 3.1-14.3 2.37-.9 8.5-.72 12.32.37 3.3.96 3.54.82 9.17-5.24l5.8-6.22-.6-7.22c-.66-8.42.3-10.28 5.3-10.28 4.93 0 7.9 1.75 10.34 6.07l2.18 3.88 4.14-3c6.97-5.05 16.53-7.45 29.26-7.36 12.26.1 18.9 1.9 27.68 7.53 8.24 5.3 7.8 10.14-1.75 19.8l-6.43 6.5v23.46l5.04 5.18c5.86 6 9.96 13.5 9.96 18.18 0 4.76-3.15 9.2-9.93 14.03l-5.95 4.24-.06 13.58-.06 13.57 7 7c5.66 5.66 7 7.6 7 10.1 0 12.02-11.34 17.22-22.34 10.24-3.96-2.5-5.74-3-10.94-2.98-5.23 0-6.92.5-10.62 3-8.9 6.03-19.48 3.1-22.25-6.13-1.63-5.4.25-9.1 8.06-16l6.08-5.34V337.08l-2.75-1.76c-10.1-6.4-15.04-13.42-13.72-19.54 1.13-5.26 3.4-8.86 9.66-15.4l5.9-6.13-.3-6.86c-.3-6.74-.35-6.86-3.3-7.4-2.68-.48-3.65.16-9.1 6-5.65 6-6.06 6.74-5.26 9.52 1.48 5.17 1.05 13.12-.8 14.65-1.04.87-4.58 1.44-9.66 1.55l-8.02.2-5.03 5.02-5.03 5.02.27 8.54.28 8.54h-3.9c-3.65 0-9.46-2.37-15.24-6.2-2.42-1.62-2.7-1.55-8.32 1.96-4.45 2.77-6.92 3.64-10.5 3.68l-4.68.06v-16.36l-4.6-5.32-4.6-5.32h-8.05c-11.98 0-14.08-2.9-11.2-15.43l1.03-4.42-6.15-6.2c-3.6-3.63-6.83-6.07-7.8-5.88-7.68 1.5-7.14.87-7.14 8.12v6.65l6.03 6.28c13.13 13.67 12.87 23.1-.9 32.45l-5.08 3.44-.03 13.65-.03 13.63 7 7c7.4 7.4 8.28 9.72 6 15.68-1.84 4.9-5.78 7.54-11.2 7.54-4.67 0-11.88-2.7-13.3-5-.34-.54-3.77-1-7.63-1-6.05 0-7.47.36-10.52 2.7-4.3 3.28-13.25 4.23-17.46 1.85zm36.12-34.54v-23.98l-2.75-.74c-3.98-1.07-11.64-.7-14.24.7-1.8.96-2.12 1.75-1.63 4.22.34 1.67.6 12.2.6 23.4v20.38h18v-23.98zm176.47 7.73c.4-8.95.55-19.63.37-23.76l-.33-7.5-4-1.33c-3.16-1.04-5.1-1.08-9.25-.17l-5.26 1.15V382.05h17.8l.67-16.25zM94.33 325.72c9.46.2 11.2-.54 9.37-3.97-2.45-4.56-15.2-6.3-21.86-2.97-5.86 2.92-5.03 9.15 1 7.45 1.37-.4 6.54-.62 11.48-.52zm176.02-.18c9.14 0 10-.17 10-1.9 0-5.5-15-8.78-22.5-4.9-5.52 2.83-5.07 9.52.5 7.53 1.1-.4 6.5-.72 12-.73zm-92.06-.5c1.55-.58 3.5-.6 4.9-.07 3.58 1.36 6.88-.82 8.7-5.74 1-2.77 4.33-7.04 9.45-12.2 7.7-7.74 7.86-8 6.5-10.55-.8-1.45-2.96-3.98-4.84-5.64l-3.44-3-9.13 9.1c-5.02 5-9.9 9.08-10.82 9.08-.92 0-5.47-3.92-10.1-8.7l-8.42-8.72-3.37 2.6c-1.84 1.42-4.12 3.9-5.06 5.53l-1.7 2.93 7.95 7.9c4.9 4.88 8.36 9.25 9.06 11.43 2.1 6.6 4.8 8.16 10.32 6.06zm-74.4-11.66c1.53-1.53.3-3.73-3.32-5.9-7.88-4.7-24.84-.43-22.5 5.7.44 1.1 3.07 1.38 12.68 1.3 6.77-.05 12.58-.54 13.15-1.1zm176.46-1.34c0-1.7-1.03-3-3.5-4.46-8.27-4.84-25.15-.6-22.73 5.7.37.94 3.88 1.26 13.37 1.22l12.87-.04v-2.42zM100.84 283c0-15.56.23-17.98 2-21.46 2.4-4.7 2.54-8.28.44-11.28-4.88-6.97-19.14-6.9-23.73.1-2.24 3.4-2.16 6.38.3 11.18 1.77 3.48 2 5.9 2 21.46v17.54h19V283zm176 .25c0-15.32.23-17.74 2-21.2 2.8-5.52 2.57-9.35-.83-13.15-6.92-7.75-24.16-3.02-24.16 6.63 0 .87.9 3.35 2 5.5 1.78 3.5 2 5.9 2 21.72v17.8h19v-17.3zm-123.98 6.63c5.5-5.66 6.73-7.44 5.83-8.52-3.28-3.94-14.86 6.23-14.86 13.05 0 1.46.46 2.64 1.02 2.64s4.16-3.22 8-7.16zm63.8 4.25c.7-4.6-8.07-14.08-13-14.1-3.6 0-3.1 2.42 1.37 6.44 2.5 2.24 5.54 5.55 6.77 7.37 2.48 3.64 4.36 3.75 4.87.3zm-70.86-11.25l4.97-5.15-8.85-9.6c-4.87-5.27-9.84-10.48-11.04-11.57l-2.2-1.97-4.38 4.96c-2.4 2.74-4.4 5.34-4.42 5.78-.03.64 19.87 22.4 20.7 22.63.14.04 2.5-2.25 5.22-5.1zm95.04-18.35c0-.6-2.04-3.08-4.54-5.53l-4.54-4.45-11.08 11.2-11.1 11.22 4.9 5.52 4.86 5.5 10.75-11.2c5.9-6.16 10.74-11.7 10.74-12.27zM67.38 209.3c-5.43-1.37-9.54-7.08-9.54-13.26 0-2.64 1.25-4.45 7-10.2l7-7-.03-13.65v-13.66l-5.08-3.44c-13.77-9.35-14.04-18.78-.9-32.45l6.02-6.28v-22.4l-6.08-5.72c-9.97-9.36-11.27-13.94-5.4-19.1 1.93-1.68 4.88-3.78 6.55-4.65 5.03-2.6 17.85-5.46 24.35-5.45 11.37.03 24.38 4.23 30.94 10 6.03 5.3 4.77 9.57-5.8 19.64l-5.56 5.3v22.38l6.03 6.27c13.13 13.67 12.87 23.1-.9 32.45l-5.08 3.44-.03 7.13c-.03 6.57.15 7.18 2.22 7.74 4.7 1.27 6.4.53 12.13-5.25l5.83-5.9-1.26-7.05c-1.12-6.26-1.07-7.34.4-9.6 2.06-3.14 5-3.92 12.7-3.36l6 .43 5.1-5.38 5.1-5.4-.68-6.74c-.85-8.64-.27-10.12 3.98-10.12 3.93 0 7.37 1.37 13.1 5.2l4.17 2.78 4.93-3.32c6.53-4.4 13.6-6.43 15.85-4.57 1.35 1.12 1.5 2.6.96 8.67l-.65 7.32 4.92 5.52 4.93 5.53 8.7.18c10.8.23 12.02 1.3 11.14 9.7-.32 3-.86 6.5-1.2 7.72-.5 1.8.57 3.47 5.3 8.37 5.85 6.05 6 6.13 10.12 5.43l4.18-.7V152.5l-6.57-4.77c-13.43-9.74-13.28-19.7.5-33.17l5.07-4.97V87.12l-6.96-6.95c-10-10-10.45-13.33-2.6-19.25 7.63-5.78 16.9-8.38 29.56-8.28 12.16.1 20.3 2.3 28.17 7.6 8.2 5.56 7.83 9.92-1.72 19.8l-6.44 6.68v11.92l.02 11.92 5.1 5c8.67 8.55 11.73 17.02 8.43 23.4-1.62 3.12-6.77 7.93-11.47 10.7l-3.1 1.83v27.44l7 6.85c6.4 6.25 7 7.2 7 10.9 0 8.58-7.75 14.6-15.96 12.38-2.07-.56-5.4-2.14-7.44-3.5-5.28-3.6-14.74-3.6-19.62 0-8.53 6.32-18.44 5.1-21.93-2.7l-1.65-3.67-1.9 3.5c-4.42 8.23-16.6 8.62-16.42.54.03-1.47.4-4.8.83-7.37l.78-4.7-6.1-6.05c-5.94-5.9-6.2-6.02-9.58-5.06-1.9.55-5.36 1-7.67 1-5.95 0-7.3-2.3-7.3-12.35 0-7.6-.15-8.07-3.4-11.68l-3.4-3.77-3.6 3.7c-3.53 3.6-3.6 3.84-3.6 11.66 0 10.47-1.28 12.44-8 12.44-2.68 0-6.15-.5-7.7-1.08-2.67-1.03-3.1-.77-8.58 5.25l-5.78 6.34.62 7.08c.73 8.3-.53 10.42-6.22 10.42-5.1 0-7.25-1.56-9.84-7.16l-2.32-5-.68 3.08c-.87 3.93-5.54 8.63-9.34 9.4-3.8.75-9-.7-13.6-3.83-3.02-2.05-4.87-2.5-10.5-2.5-4.98 0-7.2.43-8.13 1.58-2.77 3.32-10.97 5.83-15.42 4.7zm32.46-36.2c0-23.6-.03-23.93-2.15-24.6-3.28-1.04-11-.8-14.23.47-2.54.98-2.8 1.47-2.25 4.22.34 1.7.62 12.26.62 23.46v20.38h18V173.1zM276.2 184.9c1.03-19.4.8-34.62-.53-35.45-2.45-1.5-9.07-2.1-13.36-1.18l-4.46.95v47.84h17.68l.66-12.16zm-132.32-8.92l6.87-7.6-2.33-3.42c-1.28-1.9-3.53-4.07-5-4.85-2.6-1.4-2.8-1.28-9.7 5.5-3.86 3.82-8.86 9.1-11.1 11.76l-4.08 4.8 4.87 4.95 4.87 4.94 4.37-4.25c2.4-2.35 7.46-7.67 11.24-11.84zm92.4 11.15l4.84-4.92-10.9-11.56c-5.98-6.36-11.38-11.57-12-11.57-1.86 0-6.33 4-7.94 7.1l-1.52 2.95 10.76 11.47c5.92 6.3 11.02 11.47 11.33 11.47.3 0 2.75-2.22 5.42-4.93zm-77.85-24.37c-.82-4.08-4.6-8.84-8.84-11.13-6.37-3.42-9.38.38-3.5 4.43 1.78 1.23 4.7 4.2 6.5 6.6 3.84 5.12 6.84 5.18 5.83.1zm48.06.56c1.5-2.07 4.56-5.4 6.8-7.42 3.12-2.84 3.77-3.94 2.86-4.88-4.1-4.22-17.25 8.56-14.96 14.54.92 2.38 2.33 1.78 5.3-2.25zm-3.68-10.43l5-5.18-7.84-8.58c-4.58-5.02-8.35-10.16-9.1-12.4-1.52-4.68-4.84-6.55-8.6-4.84-1.76.8-3.14.86-4.43.16-4.7-2.5-10 .32-10 5.35 0 1.04-3.86 5.84-8.58 10.65l-8.57 8.76 5.2 5.2 5.22 5.22 8.13-8.1c5.13-5.1 8.93-8.08 10.3-8.08 1.42 0 4.74 2.86 9.88 8.5 4.25 4.67 7.9 8.5 8.07 8.5.18 0 2.58-2.33 5.32-5.17zM88.34 140.54c2.2-.33 6.13-.2 8.74.32 6.05 1.17 8.66-.26 6.8-3.73-3.82-7.16-24.84-6.5-25.88.8-.4 2.76 1.47 4.33 4.34 3.67 1.1-.26 3.8-.73 6-1.06zm176 0c2.2-.33 6.13-.2 8.74.32 8.74 1.7 10.5-3 2.7-7.12-4.07-2.14-13.7-1.95-18.44.36-5.1 2.48-4.26 8.7 1 7.5 1.1-.26 3.8-.73 6-1.06zm-159.98-12.4c.8-2.12-3.38-6-7.76-7.16-7.3-1.97-18.76 1.63-18.76 5.88 0 1 .2 2.03.42 2.26.23.23 6.07.42 13 .42 9.86 0 12.67-.3 13.1-1.4zm176.3-.33c.8-4.26-8.47-8.38-16.27-7.22-5.46.82-10.56 3.86-10.56 6.28 0 1 .2 2.06.47 2.32.28.26 6.23.43 13.26.38 11.02-.08 12.8-.32 13.1-1.75zM101.1 97.55c.28-14.92.67-18.8 2.26-22.68 2.38-5.8 1.43-9.26-3.43-12.54-5.84-3.93-14.8-2.86-19.63 2.36-2.98 3.22-3.12 6.65-.46 11.86 1.78 3.48 2 5.9 2 21.46v17.54h18.92l.34-18zm175.74.7c0-15.3.23-17.73 2-21.2 5.13-10.06-1.06-17.92-13.2-16.76-4.35.42-5.7 1.08-8.5 4.12-3.8 4.17-4.08 6.68-1.3 12.14 1.78 3.48 2 5.9 2 21.46v17.54h19v-17.3z"/><path fill="#0e1f0b" d="M58.2 444.56c-14.5-3.2-26.7-9.9-37.38-20.57-8.8-8.82-14.94-19.57-18-31.58C.88 384.92.83 380.58.83 223.04.84 65.4.9 61.17 2.8 53.64 9.83 26.25 34.07 5.2 63.23 1.13c10.7-1.5 221.5-1.5 232.2 0 24.83 3.44 45.57 18.4 56.04 40.42 6.86 14.43 6.44 1.73 6.15 184.08l-.26 164.92-2.32 6.5c-7.8 21.9-25 38.2-48.68 46.15l-7 2.34-117.5.18c-95.3.15-118.66-.07-123.63-1.16zM293.7 442c27.07-3.4 49.4-21.27 57.9-46.38l2.74-8.08.27-161.23c.3-179.73.7-168.68-6.66-183.76-9.25-18.93-24.42-31.08-45.5-36.48-7.72-1.97-10.76-2.02-123.1-2.02C68 4.04 63.9 4.1 56.44 6 35.8 11.3 19.92 24 10.83 42.55c-7.45 15.17-7.07 5-6.76 184.5l.28 160.5 2.82 8C11.1 406.67 16 414.36 24.4 422.6c10.55 10.35 25.1 17.46 39.6 19.34 9.66 1.26 219.74 1.3 229.7.04zM62.32 390.72c-6.77-6.77-5.38-13.4 4.57-21.72l4.94-4.15v-14.37c0-13.67-.1-14.43-2.14-15.52-3.43-1.83-10.88-9.07-12.44-12.07-.78-1.52-1.42-3.77-1.42-5 0-3.88 4.1-10.9 10.15-17.36l5.84-6.26V272l-7.5-8.02c-8.76-9.37-9.48-12.1-4.36-16.4 16.32-13.73 46.4-13.75 62.68-.04l3.1 2.6 1.5-3.53c2.36-5.67 5.87-8.56 10.4-8.56 5.64 0 6.56 1.6 5.9 10.26l-.55 7.24 6 6.1 5.98 6.1 5.86-1.35c10.54-2.45 13.52.68 12.75 13.34-.45 7.18-.45 7.2 3.2 10.75l3.64 3.55 3.45-3.56c3.36-3.5 3.44-3.76 3.44-11.9 0-6.8.35-8.74 1.9-10.45 2.18-2.4 8.2-2.85 13.54-.98 3.15 1.1 3.4.97 9.2-4.75l5.94-5.88-.65-7.57c-.77-8.87.42-10.93 6.27-10.93 2.8 0 4.3.78 6.93 3.57 1.86 1.98 3.37 4.23 3.37 5 0 1.94 1.26 1.8 4.12-.42 15.92-12.44 45.1-11.77 60.74 1.4 5.16 4.34 4.43 7.34-3.86 15.9l-7 7.2v24.6l5.64 6.1c8.55 9.22 10.94 15.7 7.94 21.5-1.55 3-9 10.25-12.43 12.08-2.05 1.1-2.16 1.86-2.16 15.2v14.06l6.43 6.22c9 8.7 9.76 13.6 3.1 20.26-4.46 4.47-9.68 4.57-17.18.34-4.5-2.54-6.4-3-12.3-3-3.8 0-7.22.46-7.57 1-1.34 2.18-8.6 5-12.87 5-5.42 0-9.9-3.3-11.65-8.6-1.73-5.26-.63-7.63 7.04-15.1l7-6.8v-13.6c0-13.1-.08-13.6-2.25-14.6-4.67-2.14-12.7-10.4-13.87-14.27-1-3.37-.85-4.44 1.4-9.35 1.4-3.05 5.07-8.16 8.16-11.35l5.62-5.8-.3-6.98c-.28-6.96-.3-7-3.45-7.63-2.9-.6-3.7-.1-9.38 5.62-6.07 6.1-6.2 6.33-5.1 9.5.63 1.78 1.14 5.4 1.14 8.02 0 7.53-3.37 9.62-14 8.65l-5.8-.52-4.76 5.52-4.77 5.52-.07 8.1-.1 8.14-3.17.3c-3.18.32-9.1-2.14-14.7-6.1-2.53-1.78-3.13-1.85-5-.63-5.3 3.48-13.15 6.94-15.7 6.94-3.6 0-4.3-2.2-3.45-10.83l.67-6.66-5.1-5-5.1-5h-8.05c-7.38 0-8.22-.2-10.08-2.5-2.02-2.5-2.1-6.14-.3-15 .4-2-.65-3.74-5.25-8.75l-5.76-6.26-4.5.77-4.5.8-.3 6.8-.3 6.78 5.9 6.3c7.46 7.97 10.66 14.3 9.74 19.18-.74 3.96-6.77 11.13-12.16 14.46l-3.38 2.08v28.71l4.38 3.6c2.4 1.97 5.6 5.36 7.12 7.53 3.54 5.1 2.87 9.84-2.1 14.8-3.22 3.23-3.78 3.43-8.7 3.02-3.52-.3-6.56-1.32-9.2-3.12-3.33-2.26-5.04-2.7-10.7-2.7-5.76 0-7.4.44-11.46 3-6.88 4.37-13.3 4.26-17.86-.3zm37.3-32.93l-.28-24.26-5-.83c-3.5-.57-6.2-.4-9 .52-3.4 1.13-4 1.74-3.94 4.07.04 1.5.15 12.2.25 23.74l.2 21h18.03l-.27-24.25zm176.57 12.08c.35-6.68.64-17.45.64-23.93 0-12.97.46-12.1-7.1-13.44-1.96-.34-5.45-.12-7.74.5l-4.16 1.12v47.92h17.68l.66-12.16zM94.33 325.56c9.26-.02 10-.17 10-1.98 0-1.1-1.47-2.95-3.4-4.25-4.15-2.8-13-3.12-19.08-.68-3.36 1.34-4.02 2.07-4.02 4.42 0 3.1 1.46 4.12 4.5 3.15 1.1-.35 6.5-.65 12-.66zm177.2.24c8.46.26 9.9-.33 8.83-3.67-1.5-4.7-14.47-6.7-22.5-3.48-3.37 1.34-4.03 2.07-4.03 4.42 0 3.34 1.32 4.03 6 3.14 1.93-.36 7.2-.54 11.7-.4zm-92.82-.67c.77-.48 2.57-.55 4-.16 4.63 1.27 7.5-.13 8.9-4.36.75-2.28 4.58-7.47 9.45-12.8l8.2-9-2.1-3.62c-1.15-2-3.56-4.5-5.35-5.57l-3.26-1.9-8.6 9.2c-4.75 5.07-9.38 9.2-10.3 9.18-.92-.02-5.2-3.86-9.5-8.53s-8.35-8.5-9-8.5c-1.78 0-7.2 4.9-8.8 7.93-1.35 2.63-1.2 2.88 6.9 11.63 4.82 5.22 8.77 10.47 9.48 12.63.67 2.02 1.75 3.9 2.4 4.17 2 .8 6.12.66 7.58-.27zM104.34 312c0-3.9-7.35-7.24-14.6-6.64-7.72.64-11.9 2.93-11.9 6.54v2.8l13.25-.12 13.24-.14V312zm176.33.68c1.25-6.48-14.78-9.82-24.07-5.02-2.5 1.3-3.8 5-2.3 6.52.28.26 6.23.43 13.26.38 11.42-.1 12.8-.28 13.1-1.88zm-179.83-29.43c0-15.32.23-17.74 2-21.2 3-5.9 2.62-9.6-1.4-13.6-3.06-3.07-3.96-3.4-9.05-3.4-12.27 0-17.57 7.17-12.56 17 1.77 3.46 2 5.88 2 21.2v17.3h19v-17.3zm176 .25c0-15.06.23-17.5 2-20.96 3.43-6.73 1.92-13.85-3.47-16.3-4.48-2.05-12.78-1.5-16.62 1.08-4.86 3.28-5.8 6.73-3.42 12.54 1.6 3.88 1.97 7.76 2.25 22.68l.34 18h18.92V283.5zm-129 12.43c0-.6 2.7-3.7 6-6.9 4.14-3.97 5.82-6.3 5.4-7.4-2.14-5.56-15.4 5.24-15.4 12.56 0 2.17.47 2.84 2 2.84 1.1 0 2-.5 2-1.1zm68.64-.4c1.08-2.8-.77-6.88-5.08-11.2-4.42-4.4-9.06-5.74-10.15-2.9-.5 1.3 12.08 15.4 13.87 15.54.43.04 1.04-.6 1.36-1.43zM145.3 283.7c2.22-2.4 4.72-4.6 5.54-4.87 1.06-.36-1.7-3.86-9.5-12-6.05-6.3-11.47-11.54-12.04-11.62-.57-.08-3.23 2.08-5.9 4.8l-4.87 4.94 10.78 11.56c5.94 6.36 11.05 11.56 11.37 11.56.33 0 2.4-1.96 4.63-4.36zm86.06-7.44l10.8-11.3-5.4-5.5-5.42-5.5-11.02 11.7-11.02 11.7 5.02 5.27c2.76 2.92 5.3 5.22 5.63 5.12.33-.1 5.47-5.27 11.4-11.48zM65.86 208.3c-4.1-2.07-8.02-7.5-8.02-11.1 0-3.32 3.8-8.74 9.48-13.48l4.52-3.78v-14.4c0-13.73-.1-14.5-2.14-15.58-3.43-1.83-10.88-9.07-12.44-12.07-.78-1.52-1.42-3.77-1.42-5 0-3.83 3.84-10.4 10.04-17.16l5.96-6.5V86.9l-7.5-7.86c-9.14-9.6-9.67-12.1-3.58-16.94 7.45-5.9 20.1-10.06 30.58-10.06 10.48 0 23.13 4.16 30.58 10.06 6.1 4.83 5.56 7.35-3.58 16.94l-7.5 7.87v22.77l3.14 2.93c1.72 1.62 5.05 5.52 7.4 8.68 5 6.7 6.35 12.13 4.1 16.47-1.6 3.12-9 10.34-12.5 12.2-1.9 1.03-2.14 2.02-2.14 8.6 0 8.2-.64 7.4 7.25 8.96 1.13.23 3.8-1.9 7.58-6.1l5.84-6.47-1.38-5.2c-1.55-5.87-1.02-10.85 1.38-12.84 1.03-.87 4.52-1.4 9.55-1.48l7.93-.1 5-4.9 5.03-4.88-.57-6.5c-.32-3.58-.3-7.56.05-8.86.57-2.14 1.06-2.32 5.03-1.87 2.6.3 6.75 1.96 10.24 4.1l5.85 3.63 5.84-3.52c3.2-1.92 7.63-4 9.8-4.58 5.75-1.54 6.86.33 6.04 10.12l-.63 7.5 5.03 4.9 5.02 4.9 7.54-.2c6.97-.2 7.74-.03 10.2 2.4 2.78 2.8 2.76 2.5.86 14.5-.5 3.2-.08 3.98 5.15 9.34 5.6 5.74 5.78 5.83 10.04 5.2l4.34-.66v-7.28c0-6.82-.16-7.35-2.54-8.44-4.6-2.1-12.4-10.25-13.6-14.2-.97-3.27-.8-4.4 1.35-9.1 1.36-2.95 5-8.05 8.13-11.34l5.66-5.97V86.93l-6.96-7.35c-9.8-10.38-10.15-13.44-2.14-19 13.95-9.66 36.4-11 51.97-3.13 14.18 7.2 14.54 11.67 1.9 23.7l-4.76 4.53v24.53l5.95 6.5c6.76 7.4 9.6 13.5 8.64 18.63-.7 3.75-5.56 9.3-11.7 13.36l-3.9 2.6v28.53l4.95 4.15c5.68 4.76 9.04 9.7 9.04 13.26 0 3.65-4 9.02-8.26 11.1-3.2 1.6-4.24 1.67-7.48.6-2.07-.66-5.33-2.28-7.24-3.57-5.06-3.42-15.78-3.4-20.34.04-8.5 6.43-18.57 4.7-22.2-3.83l-1.25-2.9-1.6 3.08c-3.52 6.8-10.6 9.3-14.73 5.16-1.8-1.8-2-2.83-1.45-7.25.35-2.84.74-5.85.85-6.7.1-.85-2.35-4.36-5.46-7.8l-5.66-6.28-5.9 1.22c-11.15 2.3-13.3.2-13.3-12.97 0-7.57-.08-7.8-3.6-11.18l-3.57-3.46-3.42 3.92c-3.28 3.76-3.4 4.23-3.4 12.02 0 10.28-1.34 12.56-7.32 12.56-2.3 0-5.77-.45-7.7-1-3.4-.98-3.6-.86-9.62 5.25l-6.15 6.24 1.06 6.74c.95 6.02.87 6.96-.75 8.75-4.12 4.56-13 .85-15.67-6.55l-1.25-3.46-2.04 4.2c-4.3 8.82-11.6 10.57-20.66 4.95-4.36-2.7-5.95-3.13-11.9-3.13-3.8 0-7.16.46-7.5 1-.9 1.44-7.42 4.63-11 5.4-1.97.4-4.2.02-6.48-1.14zm33.75-35.48l-.26-24.23-4.4-.76c-4.4-.75-11.77.3-13 1.87-.35.47-.5 11.3-.3 24.1l.36 23.24h17.88l-.27-24.22zm176.6 12.06c.35-6.68.64-17.47.64-23.98v-11.82l-2.7-.68c-3.67-.92-10.2-.95-13.55-.06l-2.76.74v47.96h17.68l.66-12.16zm-135.92-4.62c10.6-10.97 10.84-11.34 9.5-13.83-1.44-2.7-7.43-8.4-8.82-8.4-.94 0-22.12 22.5-22.12 23.48 0 1.35 8.54 10.56 9.54 10.3.57-.14 5.93-5.33 11.9-11.54zm96 6.84l4.87-4.95-7.07-7.8c-3.9-4.3-9.12-9.8-11.62-12.23l-4.54-4.42-4.54 4.54c-2.5 2.5-4.54 5.27-4.54 6.16 0 1.53 20.5 23.64 21.92 23.64.36 0 2.85-2.22 5.53-4.94zm-77.8-21.56c1.82-4.75-6.96-15.5-12.66-15.5-4.35 0-3.8 2.4 1.77 7.86 2.6 2.55 5.52 5.65 6.48 6.9 2.02 2.6 3.58 2.87 4.4.74zm51.47-5.6c6.72-6.82 8.08-9.9 4.37-9.9-4.35 0-11.85 6.63-13.1 11.57-.6 2.42.03 5.44 1.14 5.44.32 0 3.73-3.2 7.6-7.1zm-3.77-10l2.84-2.18-8.5-8.6c-5.76-5.86-8.7-9.64-9.15-11.8-.98-4.75-2.78-5.65-11.83-5.94-8.72-.28-11.7.94-11.7 4.78 0 1-3.9 6.16-8.66 11.43l-8.67 9.6 3.45 3.15c1.9 1.74 4.24 4.28 5.2 5.66l1.8 2.5 8.2-8.78c4.5-4.83 8.92-8.77 9.8-8.75.9.03 5.6 4.08 10.42 9l8.78 8.98 2.6-3.4c1.42-1.9 3.87-4.42 5.43-5.63zm-120.26-9c3.8-.83 6.66-.83 10.76 0 4.6.92 5.83.86 7-.3 1.94-1.95.9-4.18-3.06-6.6-4.1-2.5-13.04-2.68-18.76-.4-3.32 1.34-4.02 2.1-4.02 4.34 0 4.44.4 4.6 8.08 2.95zm176 0c3.8-.83 6.66-.83 10.76 0 4.6.92 5.83.86 7-.3 1.94-1.95.9-4.18-3.06-6.6-4.1-2.5-13.04-2.68-18.76-.4-3.32 1.34-4.02 2.1-4.02 4.34 0 4.44.4 4.6 8.08 2.95zM104.66 127.3c.23-1.6-.58-2.75-2.97-4.2-5.12-3.1-10.97-3.6-17.62-1.43-5.2 1.7-5.77 2.16-6.04 4.95l-.3 3.08 13.3-.1c12.94-.08 13.3-.14 13.62-2.3zm176 0c.23-1.6-.58-2.75-2.97-4.2-5.12-3.1-10.97-3.6-17.62-1.43-5.2 1.7-5.77 2.16-6.04 4.95l-.3 3.08 13.3-.1c12.94-.08 13.3-.14 13.62-2.3zM100.84 98.26c0-15.32.23-17.74 2-21.2 3-5.9 2.62-9.6-1.4-13.6-3.06-3.07-3.96-3.4-9.05-3.4-12.27 0-17.57 7.17-12.56 17 1.77 3.46 2 5.88 2 21.2v17.3h19v-17.3zm176 .25c0-15.06.23-17.5 2-20.96 3.05-5.98 2.64-10.06-1.4-14.1-3.1-3.1-3.92-3.4-9.35-3.4-4.55 0-6.77.54-9.35 2.28-4.86 3.28-5.8 6.73-3.42 12.54 1.6 3.88 1.97 7.76 2.25 22.68l.34 18h18.92V98.5z"/><path d="M58.2 444.56c-14.5-3.2-26.7-9.9-37.38-20.57-8.8-8.82-14.94-19.57-18-31.58C.88 384.92.83 380.58.83 223.04.84 65.4.9 61.17 2.8 53.64 9.83 26.25 34.07 5.2 63.23 1.13c10.7-1.5 221.5-1.5 232.2 0 24.83 3.44 45.57 18.4 56.04 40.42 6.86 14.43 6.44 1.73 6.15 184.08l-.26 164.92-2.32 6.5c-7.8 21.9-25 38.2-48.68 46.15l-7 2.34-117.5.18c-95.3.15-118.66-.07-123.63-1.16zM293.7 442c27.07-3.4 49.4-21.27 57.9-46.38l2.74-8.08.27-161.23c.3-179.73.7-168.68-6.66-183.76-9.25-18.93-24.42-31.08-45.5-36.48-7.72-1.97-10.76-2.02-123.1-2.02C68 4.04 63.9 4.1 56.44 6 35.8 11.3 19.92 24 10.83 42.55c-7.45 15.17-7.07 5-6.76 184.5l.28 160.5 2.82 8C11.1 406.67 16 414.36 24.4 422.6c10.55 10.35 25.1 17.46 39.6 19.34 9.66 1.26 219.74 1.3 229.7.04z"/></g></g></svg>