<svg xmlns="http://www.w3.org/2000/svg" width="358.408" height="446.548" viewBox="0 0 358.40811 446.54807"><g><g><path fill="#c2c6c1" d="M63.63 445.88c-27.76-3.3-51.05-22-60.4-48.47L.4 389.43.13 226.2C-.17 44.13-.57 55.3 6.83 40.4 14.58 24.86 24.4 15.2 40.4 7.44c16.5-8 9.08-7.63 142-7.3l118 .28 8.76 3.13c12.44 4.45 19 8.65 28.84 18.4 6.9 6.86 9.42 10.23 12.74 17 8.3 16.96 7.66 1.24 7.66 184.47 0 155.2-.1 163.3-1.84 169.5-7.12 25.14-26.3 43.88-52.55 51.3-7.57 2.15-8.14 2.16-120.6 2.3-62.15.1-116.05-.2-119.77-.64zm242.77-7.27c21.5-7.54 36.6-22.17 44.3-42.9l2.7-7.28.28-162c.3-181.5.78-169.08-7-184.8-3.22-6.46-5.9-10-12.68-16.72-9.52-9.43-17.62-14.3-30.12-18.14l-7.48-2.3-112.87-.3C60.3 3.82 60.17 3.83 46.65 9.52c-19.45 8.18-34.3 24.7-40.38 44.9-1.7 5.65-1.83 15-2.13 163-.23 109.76 0 159.5.77 165.36 2.96 22.6 16.8 41.68 37.45 51.66 16 7.72 8.9 7.36 139.55 7.16l116.5-.18 8-2.8zM67.26 388c-2.02-1.23-3.76-3.54-4.88-6.48-2.3-6.05-1.2-8.64 7.1-16.62l6.42-6.15-.06-13.17-.05-13.16-5.97-4.26c-7.2-5.13-9.93-9.25-9.93-15.03 0-5.62 2.63-10.6 9.44-17.8l5.56-5.86V266.96l-5.57-5.27c-10.07-9.53-11.54-14-6.24-18.94 14.84-13.87 47.77-14.32 63.1-.86 6.26 5.5 5 10.14-5.55 20.17l-4.75 4.52v23.66l5.37 5.64c13.03 13.66 12.8 22.7-.86 32.52l-5.5 3.96v26.35l7.12 7.13 7.13 7.13-.5 5.17c-.42 4.34-1.07 5.7-4.1 8.47-3 2.74-4.42 3.32-8.18 3.32-4.35 0-11.6-2.8-12.97-5-.34-.55-3.94-1-8-1-4.06 0-7.67.45-8 1-1.33 2.14-8.6 5-12.7 5-2.47 0-5.64-.83-7.44-1.92zm36.64-34.54V330l-3.75-1.03c-2.07-.57-4.43-1.04-5.25-1.04-.83 0-3.2.47-5.25 1.04L85.9 330v46.92h18v-23.46zm3.5-35.05c0-7.2-24.28-7.07-25.3.14-.3 2.1-.03 2.13 12.5 2 12.08-.13 12.8-.24 12.8-2.13zm.3-10.7c.45-2.36-4.38-5.6-9.52-6.37-5.23-.78-15.04 1.77-15.95 4.16-1.36 3.52.15 3.98 12.8 3.88 10.4-.08 12.4-.35 12.67-1.67zm-3.8-29.5c0-15.47.2-17.57 2-20.5 2.16-3.57 2.6-8.8.97-11.84-3.94-7.36-21.04-6.15-24.03 1.7-1 2.65.2 8.67 2.18 10.8.48.53.88 9.08.88 19v18.06h18V278.2zm129.58 108.23c-3.6-3.6-5.3-8.7-4.1-12.44.36-1.16 3.77-5.13 7.58-8.84l6.92-6.74v-26l-4.4-2.8c-6.24-3.94-11.18-9.74-12-14.1-.96-5.14 2.6-12.52 9.76-20.26l5.66-6.1v-21.6l-6.94-7.15c-10.46-10.78-10.47-15-.03-21.27 8.58-5.16 14.93-6.7 27.47-6.7 13.05 0 21.06 2.28 29 8.27 4.23 3.2 5.04 4.36 5.3 7.54.3 3.47-.23 4.33-6.74 11.04l-7.06 7.3v23.65l5.53 5.8c8.53 8.95 11.23 16.57 8.04 22.74-1.55 3-9 10.23-12.43 12.07-2.03 1.08-2.14 1.87-2.14 14.6v13.46l7 6.88c6.15 6.04 7 7.32 7 10.56 0 12-11.02 17.14-22.66 10.58-4.38-2.48-6.44-3-11.77-3-3.55 0-6.74.45-7.08 1-1.44 2.32-8.63 5-13.43 5-4.4 0-5.44-.44-8.5-3.5zm38.18-33.2l.27-23.2-3.77-1.06c-4.7-1.3-5.84-1.3-10.5 0L253.9 330v47l8.75-.3 8.75-.28.26-23.2zm3.64-34.07c-.06-.68-.17-1.64-.25-2.13-.1-.5-1.68-1.6-3.56-2.5-7.22-3.42-21.6-.87-21.6 3.84 0 2.2.2 2.23 12.75 2.13 9.5-.07 12.72-.4 12.65-1.34zm.1-11.7c0-1-1.27-2.78-2.83-3.94-5.7-4.24-22.67-1.8-22.67 3.25 0 1 .18 2 .4 2.23.24.23 5.98.4 12.76.36 11.28-.05 12.34-.2 12.34-1.9zm-3.5-29.08c0-15.07.23-17.5 2-20.96 4.83-9.48.23-16.5-10.8-16.5-5.8 0-11.16 3.08-12.63 7.26-.73 2.1-.45 3.92 1.24 8 1.97 4.72 2.2 7.06 2.2 22.26v16.98h18v-17.04zm-118.98-65.22c-4.37-2.2-8.02-7.55-8.02-11.75 0-3.56 2.97-7.8 9.75-13.9l4.25-3.82v-13.85c0-13.13-.1-13.9-2.15-15-3.5-1.87-10.9-9.1-12.52-12.24-2.38-4.6-.98-10.58 4.04-17.4 2.35-3.2 5.7-7 7.45-8.48l3.18-2.68V91.8l-7.5-7.88c-6.4-6.7-7.5-8.4-7.5-11.36 0-5.68 8.22-11.25 21.7-14.7 9.63-2.46 16.96-2.46 26.58 0 8.6 2.2 12.56 4.03 17.97 8.28 3.05 2.4 3.75 3.6 3.75 6.42 0 2.97-1.12 4.65-7.5 11.36l-7.5 7.87v22.24l3.17 2.68c1.75 1.47 5.1 5.28 7.45 8.47 5.02 6.82 6.42 12.8 4.05 17.4-1.63 3.14-9.02 10.36-12.53 12.24-2.03 1.1-2.14 1.86-2.14 15v13.84l4.25 3.82c10.04 9.03 11.84 13.98 7.48 20.52-4.94 7.38-12.05 8.34-21.05 2.84-6.42-3.93-15.15-4.18-20-.58-3.3 2.44-8.78 4.64-11.58 4.63-.88 0-3.17-.77-5.08-1.74zm33.98-35.64c0-26.47.65-24.6-8.65-24.6-9.4 0-8.9-1.46-8.57 24.9l.3 23.1h16.92v-23.4zm-11-33.1c1.92-.33 5.75-.15 8.5.4 3.92.75 5.3.67 6.4-.42 1.23-1.2 1.23-1.62 0-3.1-3.6-4.34-13.64-5.68-20.88-2.78-3 1.2-4.02 2.17-4.02 3.84 0 3 .92 3.72 3.95 3.13 1.4-.3 4.12-.77 6.05-1.1zm15.5-13c0-1.1-1.44-2.73-3.5-3.94-6.86-4-22-1.47-22 3.7v2.35l12.75-.1c11.84-.08 12.75-.23 12.75-2zm-3.5-29.04c0-15.07.23-17.5 2-20.96 2.75-5.4 2.53-8.87-.8-12.6-6.6-7.4-23.2-3.27-23.2 5.77 0 1.3.9 4.16 2 6.32 1.77 3.47 2 5.9 2 21.2v17.3h18v-17.04z"/><path fill="#bebebe" d="M63.63 445.88c-27.76-3.3-51.05-22-60.4-48.47L.4 389.43.13 226.2C-.17 44.13-.57 55.3 6.83 40.4 14.58 24.86 24.4 15.2 40.4 7.44c16.5-8 9.08-7.63 142-7.3l118 .28 8.76 3.13c12.44 4.45 19 8.65 28.84 18.4 6.9 6.86 9.42 10.23 12.74 17 8.3 16.96 7.66 1.24 7.66 184.47 0 155.2-.1 163.3-1.84 169.5-7.12 25.14-26.3 43.88-52.55 51.3-7.57 2.15-8.14 2.16-120.6 2.3-62.15.1-116.05-.2-119.77-.64zm242.77-7.27c21.5-7.54 36.6-22.17 44.3-42.9l2.7-7.28.28-162c.3-181.5.78-169.08-7-184.8-3.22-6.46-5.9-10-12.68-16.72-9.52-9.43-17.62-14.3-30.12-18.14l-7.48-2.3-112.87-.3C60.3 3.82 60.17 3.83 46.65 9.52c-19.45 8.18-34.3 24.7-40.38 44.9-1.7 5.65-1.83 15-2.13 163-.23 109.76 0 159.5.77 165.36 2.96 22.6 16.8 41.68 37.45 51.66 16 7.72 8.9 7.36 139.55 7.16l116.5-.18 8-2.8zM66.44 386.83c-2.14-1.88-3.94-4.65-4.6-7.1-.97-3.6-.82-4.4 1.44-7.8 1.38-2.1 4.78-5.76 7.56-8.15l5.05-4.35v-27.34L72.54 330c-1.85-1.14-5.45-4.3-8-7.03-3.98-4.26-4.64-5.56-4.64-9.1 0-5.7 2.37-10.2 9.2-17.5l5.8-6.2v-23.38l-6.96-7.34c-3.83-4.04-7.27-8.6-7.66-10.14-.6-2.44-.13-3.3 3.7-6.74 15.64-14 46.22-14.06 62.77-.13 2.4 2 3.15 3.46 3.15 6.05 0 2.85-1.15 4.6-7 10.78l-7 7.37V290.1l5.48 6.06c8.8 9.7 11.24 16.56 8.1 22.56-1.57 3-6.38 7.7-11.33 11.1l-3.25 2.23v27.78l4.52 3.77c5.88 4.9 9.48 10.18 9.47 13.87 0 3.6-3.03 8.76-6.47 11.02-3.64 2.37-11.34 1.47-16.5-1.94-3.3-2.18-5.14-2.64-10.48-2.64-5.5 0-7.2.46-11.22 3-6.66 4.22-12.9 4.2-17.8-.1zm37.22-33.65l-.26-23.74-4.6-.84c-2.92-.54-6.1-.44-8.75.27L85.9 330v46.92h18.03l-.27-23.75zm4.24-34.42c0-3.2-5.75-5.83-12.8-5.83-8.1 0-13.2 2.03-13.2 5.3v2.4h13c12 0 13-.16 13-1.87zm0-11.64c0-3.5-7.67-6.6-14.56-5.9-6.92.72-11.44 3.1-11.44 6.02 0 2.23.16 2.26 13 2.23 12.9-.03 13-.05 13-2.34zm-4-28.44c0-14.84.22-17.18 2-20.48 3.02-5.64 2.65-10.77-1.04-14.45-2.9-2.9-3.32-3.02-10.12-2.64-6.48.36-7.32.67-9.96 3.62-3.38 3.8-3.55 6.13-.86 12.05 1.72 3.8 1.98 6.56 1.98 21.5v17.15h18v-16.76zm130.6 108.2c-4.48-3.92-6.25-8.96-4.58-13 .67-1.62 4.1-5.63 7.6-8.9l6.38-5.98v-26.56l-6.4-4.75c-13.35-9.87-13.26-18.95.32-32.22l5.08-4.96V266.5l-5.2-4.9c-6.64-6.22-9.8-10.5-9.8-13.28 0-2.74 6.76-9 12.44-11.5 18.18-8.04 39.53-5.94 53.8 5.3 6.1 4.78 4.93 9.44-4.66 18.63l-5.58 5.35v23.98l5.5 6.16c12.64 14.1 12.53 21.2-.48 31.3l-6.02 4.68v27.02l7 7.22c7.63 7.87 8.3 9.88 5.37 16.05-3.74 7.9-12.3 9.7-20.7 4.4-4.16-2.65-5.65-3-12.1-3-5.6 0-7.65.38-8.7 1.64-2 2.42-7.24 4.35-11.8 4.35-3.04 0-4.85-.74-7.48-3.05zm36.9-33.9v-23.48l-4.25-.84c-2.34-.46-6.17-.46-8.5 0l-4.25.84-.27 23.76-.27 23.75 8.77-.3 8.77-.28v-23.47zm4.5-34.2c0-3.22-5.75-5.84-12.8-5.84-8.1 0-13.2 2.03-13.2 5.3v2.4h13c12 0 13-.16 13-1.87zm0-11.65c0-3.5-7.67-6.6-14.63-5.88-7.17.74-10.8 2.6-11.17 5.74l-.3 2.52 13.05-.03c12.95-.03 13.05-.05 13.05-2.34zm-4-28.47c0-14.82.23-17.25 2-20.7 2.94-5.8 2.63-10.53-.93-14.1-2.54-2.54-3.66-2.9-8.6-2.9-7.12 0-11.9 2.18-13.57 6.2-1.1 2.67-1 3.74.6 7.7 1.57 3.77 1.96 7.77 2.24 22.6l.34 18h17.92v-16.8zm-118.8-65.38c-6.4-3.16-9.62-10.7-6.85-16.05.85-1.65 4.04-5.28 7.1-8.06l5.55-5.08V156.1l-4.9-3.5c-13.8-9.92-14.1-18.57-1.14-32.07l6.04-6.28V91.13l-6.1-5.86c-9.76-9.4-10.9-13.05-5.65-18.1 6.6-6.34 20.42-11.23 31.75-11.23 11.32 0 25.15 4.9 31.75 11.23 5.23 5.04 4.13 8.57-5.68 18.2l-6.07 5.97v22.9l6.03 6.28c12.96 13.5 12.66 22.15-1.15 32.06l-4.88 3.5v27.96l5.55 5.08c6.68 6.1 8.86 9.93 8.03 14.08-.93 4.67-5.15 9.5-9.43 10.77-3.28.97-4.5.83-8.94-1.1-2.82-1.2-5.66-2.83-6.3-3.6-.78-.94-3.42-1.38-8.33-1.38-6.1 0-7.7.37-10.6 2.5-3.05 2.26-8.84 4.5-11.47 4.47-.55-.02-2.48-.76-4.3-1.65zm33.56-36.08l-.26-23.75h-8.17c-4.5 0-8.32.22-8.5.5-.18.27-.2 10.96-.05 23.75l.3 23.25H186.92l-.27-23.75zm-7.76-32.72c1.92 0 5.07.3 7 .7 4.3.9 6.44-.26 5.57-3-1.47-4.62-13.48-6.74-21.57-3.82-3.5 1.26-4.7 3.34-3.6 6.23.48 1.23 1.44 1.37 4.85.72 2.33-.45 5.82-.82 7.75-.83zm13-12.57c0-2.42-2.9-4.62-7.87-5.94-7.76-2.07-18.13.97-18.13 5.3 0 2.27.12 2.3 13 2.3 11.43 0 13-.2 13-1.66zm-4-29.25c0-14.82.23-17.25 2-20.7 4.88-9.6.3-17-10.54-17-11.36 0-16.27 7.06-11.46 16.5 1.76 3.45 2 5.88 2 20.95v17.04h18v-16.8z"/><path fill="#868f85" d="M63.56 445.8c-19.1-2.5-38.08-13.35-49.15-28.08-5.66-7.54-8.6-13.17-11.7-22.4l-2.3-6.9v-330l2.9-8.86c3.65-11.15 10.2-21.2 19.25-29.64 8.6-8 15.7-12.3 27.08-16.37L58.4.42l117.5-.3c131.32-.3 124.8-.62 140.5 6.75 20.18 9.47 34.3 26 40.18 47.05 1.72 6.16 1.82 15.02 1.82 169 0 182.64.64 167.23-7.64 183.78-9.02 18-26.35 31.7-47.86 37.8-6.13 1.74-13.04 1.85-119.5 2.02-62.33.1-116.07-.22-119.84-.72zm236.13-5.44c4.4-.9 11.73-3.5 17.13-6.12 17.74-8.56 31.35-25.62 35.52-44.54 1.45-6.56 1.58-23.54 1.33-169.78l-.28-162.5-2.68-7.34c-6.94-18.98-20.47-33.12-38.9-40.63-13.87-5.64-13.48-5.63-137.05-5.3l-113.37.3-7.5 2.3c-12.6 3.88-20.6 8.7-30.03 18.14-6.37 6.36-9.46 10.4-12.24 16.02-7.8 15.72-7.23 1.23-7.23 182 0 175.52-.3 165.64 5.6 178.84 8.96 19.94 26.32 33.82 48.4 38.68 4.76 1.04 29.43 1.33 119.8 1.4 99.34.07 114.76-.12 121.5-1.48zM66.43 386.82c-2.14-1.88-3.94-4.65-4.6-7.1-.97-3.6-.82-4.4 1.44-7.8 1.38-2.1 4.78-5.76 7.56-8.15l5.05-4.35v-27.34L72.54 330c-1.85-1.14-5.45-4.3-8-7.03-3.98-4.26-4.64-5.56-4.64-9.1 0-5.7 2.37-10.2 9.2-17.5l5.8-6.2v-23.38l-6.96-7.34c-3.83-4.04-7.27-8.6-7.66-10.14-.6-2.44-.13-3.3 3.7-6.74 15.64-14 46.22-14.06 62.77-.13 2.4 2 3.15 3.46 3.15 6.05 0 2.85-1.15 4.6-7 10.78l-7 7.37V290.1l5.48 6.06c8.8 9.7 11.24 16.56 8.1 22.56-1.57 3-6.38 7.7-11.33 11.1l-3.25 2.23v27.78l4.52 3.77c5.88 4.9 9.48 10.18 9.47 13.87 0 3.6-3.03 8.76-6.47 11.02-3.64 2.37-11.34 1.47-16.5-1.94-3.3-2.18-5.14-2.64-10.48-2.64-5.5 0-7.2.46-11.22 3-6.66 4.22-12.9 4.2-17.8-.1zm37.22-33.65l-.26-23.74-4.6-.84c-2.92-.54-6.1-.44-8.75.27L85.9 330v46.92h18.03l-.27-23.75zm4.24-34.42c0-3.2-5.75-5.83-12.8-5.83-8.1 0-13.2 2.03-13.2 5.3v2.4h13c12 0 13-.16 13-1.87zm0-11.64c0-3.5-7.67-6.6-14.56-5.9-6.92.72-11.44 3.1-11.44 6.02 0 2.23.16 2.26 13 2.23 12.9-.03 13-.05 13-2.34zm-4-28.44c0-14.84.22-17.18 2-20.48 3.02-5.64 2.65-10.77-1.04-14.45-2.9-2.9-3.32-3.02-10.12-2.64-6.48.36-7.32.67-9.96 3.62-3.38 3.8-3.55 6.13-.86 12.05 1.72 3.8 1.98 6.56 1.98 21.5v17.15h18v-16.76zm130.6 108.2c-4.48-3.92-6.25-8.96-4.58-13 .67-1.62 4.1-5.63 7.6-8.9l6.38-5.98v-26.56l-6.4-4.75c-13.35-9.87-13.26-18.95.32-32.22l5.08-4.96V266.5l-5.2-4.9c-6.64-6.22-9.8-10.5-9.8-13.28 0-2.74 6.76-9 12.44-11.5 18.18-8.04 39.53-5.94 53.8 5.3 6.1 4.78 4.93 9.44-4.66 18.63l-5.58 5.35v23.98l5.5 6.16c12.64 14.1 12.53 21.2-.48 31.3l-6.02 4.68v27.02l7 7.22c7.63 7.87 8.3 9.88 5.37 16.05-3.74 7.9-12.3 9.7-20.7 4.4-4.16-2.65-5.65-3-12.1-3-5.6 0-7.65.38-8.7 1.64-2 2.42-7.24 4.35-11.8 4.35-3.04 0-4.85-.74-7.48-3.05zm36.9-33.9v-23.48l-4.25-.84c-2.34-.46-6.17-.46-8.5 0l-4.25.84-.27 23.76-.27 23.75 8.77-.3 8.77-.28v-23.47zm4.5-34.2c0-3.22-5.75-5.84-12.8-5.84-8.1 0-13.2 2.03-13.2 5.3v2.4h13c12 0 13-.16 13-1.87zm0-11.65c0-3.5-7.67-6.6-14.63-5.88-7.17.74-10.8 2.6-11.17 5.74l-.3 2.52 13.05-.03c12.95-.03 13.05-.05 13.05-2.34zm-4-28.47c0-14.82.23-17.25 2-20.7 2.94-5.8 2.63-10.53-.93-14.1-2.54-2.54-3.66-2.9-8.6-2.9-7.12 0-11.9 2.18-13.57 6.2-1.1 2.67-1 3.74.6 7.7 1.57 3.77 1.96 7.77 2.24 22.6l.34 18h17.92v-16.8zm-118.8-65.38c-6.4-3.16-9.62-10.7-6.85-16.05.85-1.65 4.04-5.28 7.1-8.06l5.55-5.08V156.1l-4.9-3.5c-13.8-9.92-14.1-18.57-1.14-32.07l6.04-6.28V91.13l-6.1-5.86c-9.76-9.4-10.9-13.05-5.65-18.1 6.6-6.34 20.42-11.23 31.75-11.23 11.32 0 25.15 4.9 31.75 11.23 5.23 5.04 4.13 8.57-5.68 18.2l-6.07 5.97v22.9l6.03 6.28c12.96 13.5 12.66 22.15-1.15 32.06l-4.88 3.5v27.96l5.55 5.08c6.68 6.1 8.86 9.93 8.03 14.08-.93 4.67-5.15 9.5-9.43 10.77-3.28.97-4.5.83-8.94-1.1-2.82-1.2-5.66-2.83-6.3-3.6-.78-.94-3.42-1.38-8.33-1.38-6.1 0-7.7.37-10.6 2.5-3.05 2.26-8.84 4.5-11.47 4.47-.55-.02-2.48-.76-4.3-1.65zm33.56-36.08l-.26-23.75h-8.17c-4.5 0-8.32.22-8.5.5-.18.27-.2 10.96-.05 23.75l.3 23.25H186.92l-.27-23.75zm-7.76-32.72c1.92 0 5.07.3 7 .7 4.3.9 6.44-.26 5.57-3-1.47-4.62-13.48-6.74-21.57-3.82-3.5 1.26-4.7 3.34-3.6 6.23.48 1.23 1.44 1.37 4.85.72 2.33-.45 5.82-.82 7.75-.83zm13-12.57c0-2.42-2.9-4.62-7.87-5.94-7.76-2.07-18.13.97-18.13 5.3 0 2.27.12 2.3 13 2.3 11.43 0 13-.2 13-1.66zm-4-29.25c0-14.82.23-17.25 2-20.7 4.88-9.6.3-17-10.54-17-11.36 0-16.27 7.06-11.46 16.5 1.76 3.45 2 5.88 2 20.95v17.04h18v-16.8z"/><path fill="#7f7f7f" d="M63.56 445.8c-19.1-2.5-38.08-13.35-49.15-28.08-5.66-7.54-8.6-13.17-11.7-22.4l-2.3-6.9v-330l2.9-8.86c3.65-11.15 10.2-21.2 19.25-29.64 8.6-8 15.7-12.3 27.08-16.37L58.4.42l117.5-.3c131.32-.3 124.8-.62 140.5 6.75 20.18 9.47 34.3 26 40.18 47.05 1.72 6.16 1.82 15.02 1.82 169 0 182.64.64 167.23-7.64 183.78-9.02 18-26.35 31.7-47.86 37.8-6.13 1.74-13.04 1.85-119.5 2.02-62.33.1-116.07-.22-119.84-.72zm236.13-5.44c4.4-.9 11.73-3.5 17.13-6.12 17.74-8.56 31.35-25.62 35.52-44.54 1.45-6.56 1.58-23.54 1.33-169.78l-.28-162.5-2.68-7.34c-6.94-18.98-20.47-33.12-38.9-40.63-13.87-5.64-13.48-5.63-137.05-5.3l-113.37.3-7.5 2.3c-12.6 3.88-20.6 8.7-30.03 18.14-6.37 6.36-9.46 10.4-12.24 16.02-7.8 15.72-7.23 1.23-7.23 182 0 175.52-.3 165.64 5.6 178.84 8.96 19.94 26.32 33.82 48.4 38.68 4.76 1.04 29.43 1.33 119.8 1.4 99.34.07 114.76-.12 121.5-1.48zM68.92 388.7c-3.84-2.04-7.03-7.52-7.03-12.08 0-3.63.63-4.6 7-10.77l7-6.78-.02-13.33-.02-13.32-5.7-4.5c-6.86-5.43-10.27-10.23-10.24-14.4.03-4.88 3.44-11.2 9.45-17.5l5.53-5.8v-23.65l-7-7.22c-5.98-6.16-7-7.74-7-10.74 0-2.73.72-4.12 3.25-6.26 4.7-3.96 12.53-7.3 21.46-9.14 12.8-2.62 28.27.47 38.9 7.8 7.76 5.32 7.04 9.86-3.15 19.97l-6.45 6.4v21.78l5.5 5.95c12.06 13.02 13.13 21.57 3.73 29.85-2.6 2.3-5.97 4.8-7.48 5.6l-2.75 1.42v26.7l4.75 4.35c10.3 9.43 11.8 12.86 8.58 19.63-3.74 7.88-12.12 9.2-21.45 3.4-4-2.48-6.1-3.1-10.38-3.1-4.27 0-6.4.62-10.4 3.1-5.67 3.54-12.34 4.64-16.07 2.66zm34.97-35.17v-24.38l-2.25-.6c-3.57-.96-10.17-.73-13.6.46l-3.15 1.1v46.7l3.75.4c2.06.2 6.33.46 9.5.55l5.75.17v-24.4zm3.5-34.56c0-1.4-1.13-3.18-2.8-4.43-5.3-3.96-20.2-2.28-22.8 2.58-1.96 3.63.14 4.3 13.26 4.24 12.24-.06 12.34-.07 12.34-2.4zm-9.03-9.36c9.47.2 11.2-.53 9.38-3.96-2.44-4.56-15.2-6.3-21.85-2.97-5.87 2.93-5.04 9.16 1 7.45 1.37-.4 6.54-.62 11.47-.5zm6.78-32.12c.3-15.08.66-18.85 2.3-22.83 1.77-4.35 1.8-5 .42-7.48-4.7-8.35-15.83-9.55-23.22-2.5-3.35 3.18-3.6 7.22-.75 12.5 1.78 3.33 2 5.65 2 21.06v17.32h18.91l.35-18.07zM237.4 388.96c-4.05-1.67-6.77-5.8-7.28-11.02l-.48-5.03 7.13-7 7.13-7v-26.54l-5.52-3.97c-13.65-9.83-13.9-18.87-.86-32.53l5.38-5.64v-23.66l-4.75-4.52c-10.3-9.78-11.8-14.8-6-19.7 4.7-3.97 12.53-7.3 21.46-9.15 6.4-1.3 9.15-1.4 15.4-.5 9.62 1.4 17.46 4.13 23.3 8.15 8.02 5.52 7.2 10.3-3.52 20.5l-5.88 5.62v23.44l3.38 2.7c1.86 1.48 5.24 5.47 7.5 8.86 4.57 6.84 5.4 12.54 2.63 17.9-1.48 2.9-8.07 8.77-12.25 10.94-2.17 1.12-2.25 1.68-2.25 14.55v13.38l6.4 6.15c8.32 7.98 9.42 10.57 7.1 16.62-1.95 5.14-6.22 8.4-11 8.38-3.22 0-12.8-4.06-13.94-5.88-.38-.62-3.47-1.1-7-1.1-4.8 0-6.9.47-8.87 2.02-5.53 4.35-12.5 5.97-17.2 4.02zm34.26-35.04c.25-21.2.1-23.63-1.44-24.75-2.1-1.55-9.94-1.63-14.17-.16l-3.15 1.1v46.7l3.75.4c2.06.24 6.22.38 9.25.32l5.5-.1.26-23.5zm3.74-34.95c0-1.4-1.14-3.18-2.83-4.45-5.43-4.05-21.42-2.03-23.34 2.96-1.24 3.24 1.23 3.94 13.83 3.88 12.24-.06 12.34-.07 12.34-2.4zm-8.84-9.35c10.36.23 12.18-.96 7.94-5.2-5.55-5.54-23.27-4-25.34 2.2-.7 2.13 2.74 4.34 5.56 3.55 1.47-.42 6.8-.66 11.84-.55zm6.34-31.6c0-15.66.2-17.92 2.08-21.77 2.6-5.35 1.9-9.32-2.2-12.77-8.23-6.93-22.9-2.24-22.88 7.33 0 2 .94 5.16 2.1 7.05 1.94 3.2 2.06 4.6 1.74 20.6l-.34 17.16 9.75-.03 9.75-.05v-17.5zm-121.24-65.6c-3.6-2.03-5.76-6.4-5.76-11.58 0-3.86.54-4.72 7-11.06l7-6.88-.06-13.24-.05-13.24-5.97-4.26c-7-5-9.93-9.28-9.93-14.6 0-5.38 2.46-10 9.2-17.2l5.8-6.2V91.24l-6.84-6.95c-7.8-7.93-9.26-11.42-6.4-15.3 4.9-6.67 20.24-12.38 33.24-12.38 13 0 28.32 5.7 33.23 12.37 2.85 3.86 1.42 7.32-6.4 15.36l-6.83 7.05v22.76l5.8 6.2c6.73 7.2 9.2 11.82 9.2 17.2 0 5.32-2.93 9.6-9.93 14.6l-5.97 4.26-.05 13.24-.05 13.24 7 6.88c6.45 6.34 7 7.2 7 11.06 0 13-13.04 17.27-24.7 8.1-4.23-3.33-12.3-2.8-18.07 1.16-5.52 3.8-13.06 4.8-17.47 2.3zm36-34.44c.15-12.88-.1-23.8-.57-24.27-1.55-1.53-10.8-2.07-14.57-.83l-3.63 1.2v23.26c0 12.8.3 23.57.7 23.96.4.37 4.55.56 9.25.4l8.55-.28.26-23.44zm3.74-35.05c0-3.76-5.6-6.53-13-6.43-8.63.1-14.76 3.7-13.22 7.72.38 1 3.63 1.3 13.36 1.22l12.86-.1v-2.4zm-17.55-9.1c3.6-.77 6.48-.77 10-.02 5.9 1.28 8.27.62 7.85-2.16-.6-4-5.3-6.22-13.18-6.22-9.7 0-15.97 3.97-12.6 8 1.46 1.8 1.52 1.8 7.93.4zm9.63-13.9c3.57.54 4.7.37 5.15-.77.3-.8.3-8.8 0-17.74-.45-12.3-.28-16.72.68-18.14 6.45-9.46 1.57-18.8-9.8-18.8-6.08.02-10.92 2.54-12.97 6.77-1.44 2.97-1.06 6.14 1.26 10.46.68 1.3 1.1 8.78 1.1 19.98 0 9.85.22 18.13.5 18.4.28.3 2.53.2 5-.17 2.47-.36 6.56-.35 9.08.03z"/><path fill="#485246" d="M57.9 444.4c-27.3-5.58-48.13-24.84-55.67-51.48C.48 386.72.4 378.62.4 223.42c0-183.27-.66-167.5 7.67-184.5 3.34-6.82 5.87-10.2 12.75-17.04 9.72-9.68 19.3-15.3 32.63-19.16L61.4.42h117.5c132.1 0 122.92-.5 139.58 7.6 14.93 7.28 26.3 18.87 33.42 34.1 6.34 13.53 6.06 4.64 5.76 184.07l-.26 163.22-2.83 8c-8.65 24.48-28.5 41.66-54.28 47-6.3 1.28-23.32 1.48-121.6 1.4-90.8-.07-115.64-.37-120.8-1.42zm235.02-2.54c16.06-2 28.27-7.72 40.06-18.72 11.97-11.2 18.82-24.4 20.9-40.36.77-5.85 1-55.6.78-165.36-.3-147.68-.43-157.36-2.12-162.93-7.53-24.84-27.6-43.54-52.64-49-6.76-1.5-19.06-1.62-124-1.37l-116.5.3-8 2.8c-17.32 6.1-32.64 19.22-40.3 34.52-7.77 15.5-7.3 3.2-6.98 184.67l.28 162 2.72 7.34c9.45 25.5 31.6 43.05 58.28 46.18 10.1 1.18 217.98 1.1 227.52-.08zm-224-53.17c-3.83-2.04-7.02-7.52-7.02-12.08 0-3.63.63-4.6 7-10.77l7-6.78-.02-13.33-.02-13.32-5.7-4.5c-6.86-5.43-10.27-10.23-10.24-14.4.03-4.88 3.44-11.2 9.45-17.5l5.53-5.8v-23.65l-7-7.22c-5.98-6.16-7-7.74-7-10.74 0-2.73.72-4.12 3.25-6.26 4.7-3.96 12.53-7.3 21.46-9.14 12.8-2.62 28.27.47 38.9 7.8 7.76 5.32 7.04 9.86-3.15 19.97l-6.45 6.4v21.78l5.5 5.95c12.06 13.02 13.13 21.57 3.73 29.85-2.6 2.3-5.97 4.8-7.48 5.6l-2.75 1.42v26.7l4.75 4.35c10.3 9.43 11.8 12.86 8.58 19.63-3.74 7.88-12.12 9.2-21.45 3.4-4-2.48-6.1-3.1-10.38-3.1-4.27 0-6.4.62-10.4 3.1-5.67 3.54-12.34 4.64-16.07 2.66zm34.98-35.17v-24.38l-2.25-.6c-3.57-.96-10.17-.73-13.6.46l-3.15 1.1v46.7l3.75.4c2.06.2 6.33.46 9.5.55l5.75.17v-24.4zm3.5-34.56c0-1.4-1.13-3.18-2.8-4.43-5.3-3.96-20.2-2.28-22.8 2.58-1.96 3.63.14 4.3 13.26 4.24 12.24-.06 12.34-.07 12.34-2.4zm-9.03-9.36c9.47.2 11.2-.53 9.38-3.96-2.44-4.56-15.2-6.3-21.85-2.97-5.87 2.93-5.04 9.16 1 7.45 1.37-.4 6.54-.62 11.47-.5zm6.78-32.12c.3-15.08.66-18.85 2.3-22.83 1.77-4.35 1.8-5 .42-7.48-4.7-8.35-15.83-9.55-23.22-2.5-3.35 3.18-3.6 7.22-.75 12.5 1.78 3.33 2 5.65 2 21.06v17.32h18.91l.35-18.07zM237.4 388.96c-4.05-1.67-6.77-5.8-7.28-11.02l-.48-5.03 7.13-7 7.13-7v-26.54l-5.52-3.97c-13.65-9.83-13.9-18.87-.86-32.53l5.38-5.64v-23.66l-4.75-4.52c-10.3-9.78-11.8-14.8-6-19.7 4.7-3.97 12.53-7.3 21.46-9.15 6.4-1.3 9.15-1.4 15.4-.5 9.62 1.4 17.46 4.13 23.3 8.15 8.02 5.52 7.2 10.3-3.52 20.5l-5.88 5.62v23.44l3.38 2.7c1.86 1.48 5.24 5.47 7.5 8.86 4.57 6.84 5.4 12.54 2.63 17.9-1.48 2.9-8.07 8.77-12.25 10.94-2.17 1.12-2.25 1.68-2.25 14.55v13.38l6.4 6.15c8.32 7.98 9.42 10.57 7.1 16.62-1.95 5.14-6.22 8.4-11 8.38-3.22 0-12.8-4.06-13.94-5.88-.38-.62-3.47-1.1-7-1.1-4.8 0-6.9.47-8.87 2.02-5.53 4.35-12.5 5.97-17.2 4.02zm34.26-35.04c.25-21.2.1-23.63-1.44-24.75-2.1-1.55-9.94-1.63-14.17-.16l-3.15 1.1v46.7l3.75.4c2.06.24 6.22.38 9.25.32l5.5-.1.26-23.5zm3.74-34.95c0-1.4-1.14-3.18-2.83-4.45-5.43-4.05-21.42-2.03-23.34 2.96-1.24 3.24 1.23 3.94 13.83 3.88 12.24-.06 12.34-.07 12.34-2.4zm-8.84-9.35c10.36.23 12.18-.96 7.94-5.2-5.55-5.54-23.27-4-25.34 2.2-.7 2.13 2.74 4.34 5.56 3.55 1.47-.42 6.8-.66 11.84-.55zm6.34-31.6c0-15.66.2-17.92 2.08-21.77 2.6-5.35 1.9-9.32-2.2-12.77-8.23-6.93-22.9-2.24-22.88 7.33 0 2 .94 5.16 2.1 7.05 1.94 3.2 2.06 4.6 1.74 20.6l-.34 17.16 9.75-.03 9.75-.05v-17.5zm-121.24-65.6c-3.6-2.03-5.76-6.4-5.76-11.58 0-3.86.54-4.72 7-11.06l7-6.88-.06-13.24-.05-13.24-5.97-4.26c-7-5-9.93-9.28-9.93-14.6 0-5.38 2.46-10 9.2-17.2l5.8-6.2V91.24l-6.84-6.95c-7.8-7.93-9.26-11.42-6.4-15.3 4.9-6.67 20.24-12.38 33.24-12.38 13 0 28.32 5.7 33.23 12.37 2.85 3.86 1.42 7.32-6.4 15.36l-6.83 7.05v22.76l5.8 6.2c6.73 7.2 9.2 11.82 9.2 17.2 0 5.32-2.93 9.6-9.93 14.6l-5.97 4.26-.05 13.24-.05 13.24 7 6.88c6.45 6.34 7 7.2 7 11.06 0 13-13.04 17.27-24.7 8.1-4.23-3.33-12.3-2.8-18.07 1.16-5.52 3.8-13.06 4.8-17.47 2.3zm36-34.44c.15-12.88-.1-23.8-.57-24.27-1.55-1.53-10.8-2.07-14.57-.83l-3.63 1.2v23.26c0 12.8.3 23.57.7 23.96.4.37 4.55.56 9.25.4l8.55-.28.26-23.44zm3.74-35.05c0-3.76-5.6-6.53-13-6.43-8.63.1-14.76 3.7-13.22 7.72.38 1 3.63 1.3 13.36 1.22l12.86-.1v-2.4zm-17.55-9.1c3.6-.77 6.48-.77 10-.02 5.9 1.28 8.27.62 7.85-2.16-.6-4-5.3-6.22-13.18-6.22-9.7 0-15.97 3.97-12.6 8 1.46 1.8 1.52 1.8 7.93.4zm9.63-13.9c3.57.54 4.7.37 5.15-.77.3-.8.3-8.8 0-17.74-.45-12.3-.28-16.72.68-18.14 6.45-9.46 1.57-18.8-9.8-18.8-6.08.02-10.92 2.54-12.97 6.77-1.44 2.97-1.06 6.14 1.26 10.46.68 1.3 1.1 8.78 1.1 19.98 0 9.85.22 18.13.5 18.4.28.3 2.53.2 5-.17 2.47-.36 6.56-.35 9.08.03z"/><path fill="#0e1f0b" d="M57.92 444.37c-21.74-4.76-40.5-18.93-49.88-37.67C-.24 390.15.4 405.56.4 222.92c0-153.98.1-162.84 1.8-169C9.34 28.46 29.16 9.22 55.4 2.27 62.02.52 68.7.42 179.4.42h117l7.94 2.3C328.4 9.7 347.16 27.2 354.5 49.56l2.9 8.86v330l-2.32 6.9c-6.56 19.6-18.8 33.8-36.68 42.63-16.2 8-5.96 7.42-137 7.64-97.7.15-118.07-.05-123.48-1.23zm245.8-4.26c23.88-7.3 40.22-22.87 47.96-45.68l2.72-8v-162.5c0-151.76-.12-162.93-1.76-169-5.88-21.8-23-39.86-45.24-47.7l-8-2.8-117-.3c-130.95-.3-124.6-.62-140 6.83-14.72 7.1-25.17 17.42-32.1 31.65-6.7 13.82-6.37 4.22-6.4 180.9 0 156.1.05 160.3 1.97 167.8 3.04 11.9 8.26 20.88 17.5 30.12 12.03 12 24.5 18.33 40.15 20.38 3.8.5 57.23.83 119.88.73l113-.18 7.32-2.24zM68.74 388.46c-3.57-2-6.84-7.53-6.84-11.5 0-2.66 1.26-4.55 7-10.47l7-7.22V345.1c0-7.86-.4-14.18-.9-14.18-1.76 0-11.23-8.16-13.16-11.32-3.88-6.38-1.6-13.4 7.56-23.23l5.5-5.9v-24.33l-5.93-5.74c-9.75-9.42-10.4-13.83-2.87-19.23 5.7-4.1 13.44-6.9 23.08-8.4 6-.95 8.6-.86 15.23.5 9.27 1.88 18.8 6.26 22.85 10.5 4.18 4.36 3.07 7.63-5.44 16.1l-6.9 6.87v23.77l5.07 4.95c5.42 5.3 9.28 11.18 10.35 15.8 1.1 4.8-2.67 11-10.02 16.42l-6.4 4.75v26.76l6.36 5.83c7.6 6.98 9.3 10.34 7.7 15.2-3.1 9.45-12.76 12.13-21.5 5.97-4.06-2.86-5.4-3.25-11.06-3.25-5.6 0-7.03.4-10.86 3.1-5.23 3.7-11.78 4.7-15.8 2.43zm35.16-34.92v-24.38l-2.25-.6c-3.48-.93-11.34-.74-14.2.34l-2.55.97v46.92l3.25.4c1.78.2 6.06.47 9.5.56l6.25.16v-24.4zm4.1-33.33c2.95-2.94-5.3-8.28-12.76-8.28-8.16 0-15.15 3.88-13.93 7.74.56 1.72 1.67 1.87 13.13 1.74 7.34-.08 12.96-.58 13.58-1.2zm-9.6-10.74c9.25-.04 10-.2 10-2 0-1.12-1.47-2.95-3.4-4.25-4.16-2.8-13-3.1-19.08-.68-3.36 1.35-4.02 2.08-4.02 4.42 0 3.1 1.44 4.12 4.5 3.2 1.1-.35 6.5-.65 12-.68zm6.5-30.58c0-16.07.2-18.47 2-21.96 2.5-4.92 2.5-7.64.04-11.7-2.45-4.03-7.94-5.85-14.6-4.85-9.4 1.4-12.94 8.74-8.44 17.55 1.77 3.47 2 5.9 2 21.07v17.15l5.25-.6c2.88-.33 6.82-.2 8.75.28 1.92.48 3.83.93 4.25.98.4.07.75-8 .75-17.92zM236.2 388c-3.7-2.3-6.3-6.76-6.3-10.73 0-3.5 3.7-8.85 9.47-13.67l4.53-3.78v-27.58l-6.03-4.68c-13-10.1-13.1-17.42-.46-31.4l5.5-6.06V266.65l-7-7.37c-5.92-6.23-7-7.9-7-10.86 0-3 .65-3.96 4.75-6.94 6.17-4.5 13.22-7.15 22.95-8.64 6.66-1.02 9.06-.96 15.82.42 9.27 1.9 18.78 6.27 22.86 10.54 3.96 4.13 3.08 6.67-5.43 15.66l-6.95 7.35v23.36l5.8 6.2c6.82 7.3 9.2 11.8 9.2 17.48 0 3.42-.7 4.86-4 8.47-2.2 2.4-5.8 5.6-8 7.12l-4 2.77v27.4l5.05 4.27c2.78 2.34 6.2 5.97 7.57 8.05 2.23 3.38 2.4 4.22 1.46 7.7-2.8 10.42-13.27 13.04-23.12 5.77-2.73-2.02-4.52-2.48-9.63-2.48-5.4 0-6.88.42-10.7 3.1-5.72 4.05-11.88 4.8-16.34 2zm35.7-34.47v-24.38l-2.25-.6c-3.48-.93-11.34-.74-14.2.34l-2.55.97v46.92l3.25.4c1.78.2 6.06.47 9.5.56l6.25.16v-24.4zm3.8-34.96c.94-7.85-24.46-8.85-26.42-1.04-.32 1.25-.34 2.65-.06 3.1.28.46 6.3.8 13.34.74l12.84-.1.3-2.7zm-9.35-8.93c9.4.24 11.26-.52 9.45-3.9-3.58-6.7-24.36-6.27-26.52.53-.86 2.73 2.13 4.83 5.53 3.87 1.43-.4 6.63-.62 11.55-.5zm6.8-31.47c.28-15.68.66-19.52 2.26-23.44 1.85-4.48 1.86-4.83.2-8.3-2.82-5.92-11.57-8.27-19.1-5.12-6.68 2.8-8.4 9.2-4.5 16.83 1.96 3.84 2.1 5.4 1.73 21.07l-.4 16.92 5.54-.57c3.04-.32 7.1-.2 9.03.3 1.92.47 3.8.9 4.2.96.4.07.86-8.32 1.05-18.63zm-123.25-68c-6.85-6.86-5.4-12.86 5.35-22.33l4.65-4.1V156.1l-3.36-2.08c-1.85-1.14-5.45-4.3-8-7.03-3.96-4.23-4.64-5.57-4.64-9.05 0-5.33 2.54-10.1 9.4-17.66l5.6-6.16V90.8l-6.88-7.25c-3.78-4-7.18-8.23-7.55-9.4-2.42-7.64 16.93-17.42 34.43-17.42 13.46 0 30.5 6.63 34.04 13.26 1.65 3.08.27 5.7-7.17 13.55l-6.87 7.26v23.3l5.6 6.16c6.85 7.56 9.4 12.33 9.4 17.66 0 3.48-.7 4.82-4.65 9.05-2.55 2.73-6.15 5.9-8 7.03l-3.35 2.08v27.68l4.64 4.1c10.7 9.4 12.2 15.47 5.47 22.18-5.17 5.2-9.4 5.28-17.53.4-4.88-2.95-6.75-3.5-11.67-3.5-4.94 0-6.53.47-10.3 3.13-3.1 2.18-6 3.28-9.52 3.62-4.84.47-5.24.3-9.08-3.52zm38-32.28v-24.03l-2.75-1.07c-2.75-1.07-13.16-.68-15.2.57-.7.44-1.05 8.7-1.05 24.6v23.95h19V177.9zm3.83-34.35c.95-4.95-8.73-8.7-17.64-6.83-3.03.63-6.33 1.9-7.35 2.83-1.74 1.57-2.45 4.43-1.38 5.5.26.27 6.22.44 13.24.38 11.44-.08 12.82-.28 13.13-1.88zm-10.83-9.8c11.1.8 10.5.95 10.5-2.33 0-2.43-.67-3.34-3.5-4.75-7.3-3.65-21.36-1.2-22.65 3.97-.85 3.4 1.13 4.44 6.65 3.53 2.47-.4 6.52-.6 9-.42zm-3.38-13.97c2.72-.07 6.47.22 8.3.62l3.37.74-.54-17.75c-.5-16.55-.4-18 1.48-21.17 6.28-10.65-1.88-20.28-14.76-17.4-9.18 2.06-12.35 8.64-8.12 16.83 1.34 2.58 1.64 6.47 1.64 21.27 0 17.1.1 18.1 1.83 17.54 1-.32 4.06-.63 6.8-.7z"/><path d="M57.92 444.37c-21.74-4.76-40.5-18.93-49.88-37.67C-.24 390.15.4 405.56.4 222.92c0-153.98.1-162.84 1.8-169C9.34 28.46 29.16 9.22 55.4 2.27 62.02.52 68.7.42 179.4.42h117l7.94 2.3C328.4 9.7 347.16 27.2 354.5 49.56l2.9 8.86v330l-2.32 6.9c-6.56 19.6-18.8 33.8-36.68 42.63-16.2 8-5.96 7.42-137 7.64-97.7.15-118.07-.05-123.48-1.23zm245.8-4.26c23.88-7.3 40.22-22.87 47.96-45.68l2.72-8v-162.5c0-151.76-.12-162.93-1.76-169-5.88-21.8-23-39.86-45.24-47.7l-8-2.8-117-.3c-130.95-.3-124.6-.62-140 6.83-14.72 7.1-25.17 17.42-32.1 31.65-6.7 13.82-6.37 4.22-6.4 180.9 0 156.1.05 160.3 1.97 167.8 3.04 11.9 8.26 20.88 17.5 30.12 12.03 12 24.5 18.33 40.15 20.38 3.8.5 57.23.83 119.88.73l113-.18 7.32-2.24z"/></g></g></svg>