<svg xmlns="http://www.w3.org/2000/svg" width="358.777" height="446.756" viewBox="0 0 358.77673 446.75555"><g><g><path fill="#c2c6c1" d="M63.12 445.84c-27.5-3.65-51.3-22.83-59.94-48.32L.42 389.4.14 225.9C-.16 41.72-.72 55.36 7.64 38.7c9-17.98 27.05-31.94 47.62-36.83C63.63-.1 66.22-.15 182.12.12l118.3.27 8.76 3.13c12.17 4.35 18.85 8.57 28.32 17.86 9.44 9.27 15.1 18.7 18.62 30.95l2.3 8.04v162.5c0 182.3.62 167.13-7.46 183.5-9.1 18.42-25.65 31.8-46.75 37.75l-7.78 2.2-113.5.16c-62.42.1-116.33-.2-119.8-.66zm243.3-7.26c24.07-8.47 41.08-27.05 46-50.22 2.2-10.42 2.2-320.42 0-330.97-3.85-18.42-18.32-36.86-35.5-45.24-17.08-8.34-6.88-7.77-138-7.77-109.52 0-116.9.1-123 1.8-24.6 6.88-43.2 25.18-49.78 49-1.6 5.73-1.72 18.14-1.72 168.2v162l2.34 7.5c3.55 11.43 8.53 19.53 17.58 28.6 6.64 6.65 9.77 8.92 17.58 12.72 16.3 7.94 9 7.56 140 7.35l116.5-.18 8-2.82zM57.8 388.28c-3.78-2.44-5.88-6.55-5.88-11.5 0-4.02.48-4.78 7-11.16l7-6.85-.04-13.2-.05-13.18-5.05-3.5c-13.98-9.7-14.4-20.05-1.35-33.2l5.5-5.55v-23.33l-6.3-6.22c-10.55-10.43-10.92-14.33-1.9-20.46 8.62-5.87 15.2-7.62 28.7-7.62 13.35 0 19.52 1.62 28.7 7.5 9.1 5.85 8.85 9.8-1.3 19.97l-6.9 6.9V290l5.5 5.63c13.04 13.37 12.62 23.6-1.36 33.3l-5.05 3.5-.05 13.18-.05 13.2 7 6.84c6.6 6.46 7 7.1 7 11.3-.02 11.67-11.55 16.8-22.34 9.97-4-2.55-5.72-3-11.26-3-5.55 0-7.06.4-10.06 2.7-4.5 3.42-13.4 4.28-17.46 1.67zm35.9-35.13l-.28-23.74-4.6-.83c-2.9-.53-6.1-.43-8.74.28l-4.16 1.12v46.92h18.04l-.27-23.75zm4.22-34.46c0-7.45-24.73-7.64-25.8-.2-.3 2.03.07 2.08 12.75 2.05 11.95-.04 13.05-.2 13.05-1.86zm-.18-11.56c.9-6.26-19.05-8.06-24.36-2.2-3.44 3.8-1.52 4.52 11.68 4.42 11.82-.1 12.38-.18 12.68-2.22zm-2.82-29.37c0-15.54.24-18.17 2.03-22.2 1.84-4.17 1.9-4.92.6-8-2.04-4.92-5.1-6.68-11.6-6.67-10.24 0-15.38 5.7-12.2 13.56 1.2 2.97 1.66 8.48 1.92 22.43l.33 18.5h18.92v-17.63zm57.37 110.2c-2.03-1.23-3.77-3.53-4.9-6.47-2.3-6.05-1.2-8.64 7.12-16.62l6.4-6.15-.05-13.17-.05-13.17-5.97-4.26c-11.28-8.04-12.94-15.5-5.8-26.18 2.25-3.4 5.63-7.38 7.5-8.87l3.37-2.7v-23.46l-5.95-5.67c-5.83-5.55-9.05-10.48-9.05-13.88 0-2.3 5.36-7.15 11.2-10.1 15.76-8 40.6-6.6 53.03 2.96 8.42 6.48 8.1 10.2-1.75 20.04l-6.48 6.48v23.36l5.8 6.2c12.73 13.6 12.4 22.67-1.2 32.04l-5.6 3.85v26.46l7.13 7.1 7.12 7.14-.5 5.16c-.4 4.34-1.07 5.7-4.1 8.48-3 2.74-4.4 3.3-8.17 3.3-4.35 0-11.6-2.78-12.97-4.97-.34-.55-3.95-1-8-1-4.07 0-7.67.45-8.02 1-1.3 2.14-8.58 5-12.7 5-2.44 0-5.62-.83-7.4-1.93zm36.62-34.53V330l-3.75-1.05c-2.06-.58-4.42-1.05-5.25-1.05-.82 0-3.18.47-5.25 1.05l-3.75 1.04v46.89h18v-23.46zm3.5-35.05c0-7.22-24.27-7.1-25.3.12-.3 2.08-.02 2.13 12.5 2 12.08-.13 12.8-.25 12.8-2.13zm.3-10.7c.46-2.38-4.37-5.62-9.52-6.4-5.22-.78-15.03 1.78-15.94 4.16-1.36 3.54.15 4 12.8 3.9 10.4-.08 12.4-.35 12.66-1.67zm-3.8-29.53c0-15.46.2-17.57 2-20.5 5.35-8.77.34-16.78-10.5-16.78-9.15 0-14.7 5.7-12.43 12.8.64 2.03 1.56 4.12 2.04 4.64.5.53.88 9.08.88 19v18.05h18v-17.23zm56.62 109.63c-1.46-1.14-3.32-3.37-4.14-4.95-3.24-6.27-1.13-11.7 7.42-19.06l5.1-4.4v-13.72c0-13-.1-13.78-2.14-14.86-3.43-1.84-10.88-9.08-12.43-12.08-3.2-6.16-.5-13.78 8.04-22.73l5.52-5.8v-23.66l-7.06-7.28c-6.5-6.7-7.04-7.58-6.75-11.04.27-3.17 1.1-4.34 5.22-7.45 16.2-12.22 45.92-11.42 61.46 1.66 5.47 4.6 4.03 9.3-5.78 18.93l-6.08 5.97v22.17l3.58 3.45c9.33 8.97 13.57 17.93 11.5 24.23-1.23 3.7-7.3 9.96-12.84 13.23l-3.24 1.92v25.91l6.97 6.76c3.82 3.7 7.25 7.95 7.62 9.4 1 4-1.23 10-4.82 13.02-2.8 2.36-3.84 2.63-8.73 2.27-3.78-.3-6.9-1.3-9.78-3.12-6.2-3.94-14.43-3.82-20.94.3-5.97 3.8-13.57 4.2-17.72.92zm36.15-34.6l-.28-23.72-4-.83c-2.5-.52-5.78-.4-8.75.3l-4.75 1.14v46.8h18.04l-.27-23.7zm4.63-33.93c.5-1.3-1.6-3.45-5.1-5.25-2.78-1.44-12.07-1.46-16.18-.02-3.14 1.1-5.68 4.2-4.72 5.74.83 1.34 25.48.9 26-.47zm.1-11.95c0-3.26-7.94-6.67-14.14-6.08-6.8.64-11.38 3.04-11.38 5.95 0 2.2.18 2.24 12.75 2.14 11.9-.1 12.75-.22 12.75-2.02zm-3.5-29.07c0-14.94.25-17.7 1.97-21.5 2.82-6.22 2.55-8.53-1.5-12.57-3.43-3.44-3.66-3.5-10.12-3.1-5.94.38-6.92.76-9.5 3.63-3.4 3.82-3.63 7.27-.86 12.45 1.78 3.32 2 5.65 2 21v17.24h18v-17.15zM58.3 213.45c-3.7-1.6-6.06-4.7-7.44-9.8-1.33-4.93.2-7.82 8-15.04l6.06-5.6v-13.55c0-7.48-.4-13.56-.9-13.56s-3.23-1.84-6.06-4.07c-12.2-9.66-12.23-18.66-.06-31.33l6.02-6.28v-22.6l-6.9-7.26c-8.78-9.24-9.65-12.27-4.97-17.1 9.54-9.84 32.05-14 48.37-8.97 6.34 1.94 15.27 7.32 17.74 10.67 2.86 3.88 1.4 7.38-6.4 15.3l-6.84 6.94v23l5.38 5.65c9.35 9.8 11.84 17.9 7.64 24.8-1.1 1.78-4.67 5.15-7.95 7.5l-5.97 4.24-.05 13.24-.06 13.24 7 6.88c6.56 6.44 7 7.15 7 11.25 0 5.65-2.7 10.06-7.6 12.37-3.28 1.56-4.45 1.66-8.2.66-2.4-.65-6-2.3-8-3.65-5.25-3.57-15.1-3.58-19.33-.03-2.8 2.35-8.66 4.57-11.88 4.5-.82-.02-2.9-.65-4.62-1.4zm34.62-35.95c0-20.4-.2-23.47-1.58-24-2.03-.78-11.23-.76-14.17.02l-2.25.6V200.9h18v-23.4zm-11.5-33.13c2.2-.35 5.97-.18 8.38.37 2.4.55 5 .75 5.8.45 2.45-.95 1-4.5-2.68-6.5-4.3-2.4-15.45-2.05-19.46.58-4.28 2.8-2.9 7.06 1.96 6.1 1.1-.2 3.8-.67 6-1zm15.5-12.54c0-3.95-8.8-7.47-15.86-6.34-6.53 1.03-11.95 5.24-9.68 7.5.24.26 6.1.46 13 .46 10.93 0 12.54-.2 12.54-1.63zm-4-29.23c0-14.8.24-17.25 2-20.7 2.2-4.3 2.58-9.07.97-12.06-3.8-7.08-19.7-6.24-23.58 1.25-1.24 2.4-1.3 3.58-.33 6.6.64 2.03 1.56 4.12 2.04 4.64.5.53.88 9.08.88 19v18.06h18v-16.8zm60.42 110.92c-6.5-2.94-9.92-10.82-7.06-16.34.84-1.63 4.25-5.5 7.6-8.57l6.04-5.6v-26.65l-3.52-1.9c-1.93-1.04-5.53-4.05-8-6.68-4.15-4.44-4.48-5.18-4.48-10.14 0-6.26 3.2-12.08 10.5-19.2l4.5-4.36V91.55L152 84.4c-7.55-7.8-9.22-11.43-6.98-15.3 3.58-6.17 21.66-13.23 33.8-13.2 11.68.05 24.53 4.28 31.96 10.53 5.67 4.77 3.96 10.53-5.8 19.5l-5.06 4.65V114.13l5.65 6.1c12.75 13.77 12.33 23.08-1.5 32.66l-5.05 3.5-.05 13.33-.05 13.35 6.44 6.2c3.53 3.43 6.73 7.44 7.1 8.93 1.08 4.27-.36 9.36-3.53 12.53-5.1 5.1-11.92 4.92-20-.5-2.7-1.83-4.83-2.34-9.7-2.34-5.3 0-6.9.44-10.53 2.97-5.12 3.56-11.06 4.6-15.36 2.65zm34.58-36.02c0-20.4-.2-23.47-1.58-24-2.03-.78-11.23-.76-14.17.02l-2.25.6V200.9h18v-23.4zm-8.5-33.1c2.2 0 5.37.3 7.05.68 6.5 1.46 7.2-3.5.9-6.5-6.46-3.1-19.48-1.38-21.07 2.77-1.3 3.43.36 4.77 4.88 3.9 2.33-.45 6.04-.83 8.24-.84zm12.3-12.7c.4-2-3.08-4.53-8.1-5.9-7.38-1.98-19 2.27-17.42 6.37.4 1.05 3.33 1.34 12.86 1.26 10.55-.08 12.4-.33 12.66-1.72zm-3.8-29.53c0-15.46.2-17.57 2-20.5 2.23-3.66 2.58-9.46.72-11.82-5.77-7.33-19.6-6.44-23.4 1.5-1.62 3.4-1.6 3.74.5 8.8 1.95 4.72 2.18 7.08 2.18 22.27v16.98h18v-17.23zm60.4 112.07c-3.7-.78-8.5-6.7-9.1-11.23-.68-5.02 2.18-9.9 9.14-15.6l4.56-3.75-.04-13.63-.05-13.63-5.55-3.98c-6.72-4.82-9.4-8.4-10.07-13.43-.7-5.32 2.2-11.36 9.07-18.77l5.65-6.1V90.58l-5.04-4.64c-9.77-8.97-11.5-14.74-5.82-19.5 10.92-9.2 28.97-12.68 44.87-8.67 9.22 2.33 18.64 7.44 20.9 11.34 2.2 3.83.62 7.34-6.95 15.34l-6.96 7.35V114.06l4.5 4.37c7.32 7.1 10.5 12.93 10.5 19.2 0 4.95-.33 5.7-4.48 10.13-2.46 2.63-6.06 5.64-8 6.68l-3.52 1.9V183l6.06 5.6c3.33 3.1 6.75 6.95 7.6 8.58 3 5.84-1.15 14.4-8.12 16.7-4.2 1.38-9.44.15-14.73-3.47-5.5-3.73-13.95-3.56-20.5.44-4.83 2.96-10 4.22-13.9 3.4zm32.6-36.74c0-26.47.66-24.6-8.64-24.6-9.83 0-9.36-1.28-9.36 25.03v22.96h18v-23.4zm-8.5-33.06c2.2.02 5.8.25 8 .5 3.72.42 4 .28 4-2.05 0-5.23-11.93-7.82-20.4-4.43-4.33 1.73-5.76 3.92-3.98 6.07.84 1 2.15 1.18 4.77.62 2-.42 5.42-.74 7.62-.72zm12.9-12.34c-.23-2.8-.52-3.22-3.15-4.55-8.74-4.42-24.72-.96-22.6 4.9.58 1.6 25.88 1.25 25.75-.35zm-3.4-29.83c0-15.24.24-17.65 2.1-21.88 1.63-3.68 1.9-5.5 1.23-7.87-1.24-4.3-6.48-7.64-12.02-7.64-10.86 0-16.46 8.3-11.3 16.77 1.8 2.93 2 5.04 2 20.5v17.22h18v-17.13z"/><path fill="#bebebe" d="M63.12 445.84c-27.5-3.65-51.3-22.83-59.94-48.32L.42 389.4.14 225.9C-.16 41.72-.72 55.36 7.64 38.7c9-17.98 27.05-31.94 47.62-36.83C63.63-.1 66.22-.15 182.12.12l118.3.27 8.76 3.13c12.17 4.35 18.85 8.57 28.32 17.86 9.44 9.27 15.1 18.7 18.62 30.95l2.3 8.04v162.5c0 182.3.62 167.13-7.46 183.5-9.1 18.42-25.65 31.8-46.75 37.75l-7.78 2.2-113.5.16c-62.42.1-116.33-.2-119.8-.66zm243.3-7.26c24.07-8.47 41.08-27.05 46-50.22 2.2-10.42 2.2-320.42 0-330.97-3.85-18.42-18.32-36.86-35.5-45.24-17.08-8.34-6.88-7.77-138-7.77-109.52 0-116.9.1-123 1.8-24.6 6.88-43.2 25.18-49.78 49-1.6 5.73-1.72 18.14-1.72 168.2v162l2.34 7.5c3.55 11.43 8.53 19.53 17.58 28.6 6.64 6.65 9.77 8.92 17.58 12.72 16.3 7.94 9 7.56 140 7.35l116.5-.18 8-2.82zM57.54 387.8c-3.53-2.77-5.62-7-5.62-11.4 0-3.14.9-4.5 7-10.5l7-6.9-.02-13.3-.02-13.3-5.7-4.5c-13.38-10.6-13.57-18-.78-31.8l5.52-5.97v-23.8l-6.1-5.97c-3.37-3.28-6.78-7.5-7.58-9.37-1.35-3.14-1.32-3.63.44-6 2.54-3.47 11.45-8.78 18.24-10.9 7.44-2.3 23.57-2.3 31 0 6.8 2.12 15.7 7.43 18.25 10.9 1.75 2.37 1.8 2.86.44 6-.8 1.86-4.2 6.08-7.57 9.36l-6.1 5.97v23.8l5.5 5.96c6.74 7.26 9.5 12.42 9.5 17.78 0 3.35-.7 4.82-4 8.4-2.2 2.4-5.8 5.6-8 7.12l-4 2.76v26.82l7 6.9c6.22 6.16 7 7.33 7 10.7 0 4.4-2.77 9.46-6.47 11.88-3.64 2.4-11.06 1.5-16.08-1.9-3.3-2.24-5-2.67-10.65-2.67-5.77 0-7.42.42-11.47 3-5.9 3.74-12.65 4.1-16.72.9zm36.15-34.65l-.28-23.74-4.6-.83c-2.9-.53-6.1-.43-8.74.28l-4.16 1.12v46.92h18.04l-.27-23.75zm4.22-34.3c0-3.4-3.82-5.38-11.15-5.8-8.53-.48-14.85 1.8-14.85 5.34 0 2.14.28 2.18 13 2.15 11.42-.03 13-.24 13-1.7zm-.2-11.95c-.42-3.58-4.96-5.52-12.8-5.46-7.3.04-13 2.38-13 5.3 0 1 .2 2 .42 2.24.23.23 6.1.4 13.04.4H98l-.28-2.48zm-2.8-28.8c0-14.06.3-17.9 1.64-20.47.9-1.73 1.68-4.9 1.73-7.04.08-3.23-.5-4.42-3.27-6.9-3.18-2.85-3.76-3-10.25-2.63-5.8.33-7.3.8-9.5 3-3.05 3.06-3.5 9.44-.92 13.37 1.27 1.93 1.56 5.73 1.56 20.17v17.8h19v-17.3zm56.55 108.7c-2.14-1.88-3.94-4.66-4.6-7.1-.97-3.6-.82-4.4 1.44-7.8 1.4-2.1 4.8-5.76 7.57-8.16l5.05-4.35v-27.34l-3.35-2.08c-1.85-1.14-5.45-4.3-8-7.04-3.98-4.25-4.65-5.56-4.65-9.1 0-5.7 2.38-10.2 9.2-17.5l5.8-6.2V266.8l-6.95-7.36c-8.17-8.63-9.33-11.56-5.98-15.12 6.6-7.04 20.93-12.44 32.9-12.4 11.77 0 24.34 4.16 31.88 10.5 2.4 2.02 3.14 3.46 3.14 6.06 0 2.85-1.14 4.6-7 10.78l-7 7.36V290.13l5.65 6.1c13.16 14.2 12.3 22.82-3.4 33.57l-3.25 2.23v27.78l4.53 3.78c5.88 4.9 9.47 10.18 9.47 13.87 0 3.6-3.03 8.76-6.46 11-3.64 2.4-11.34 1.5-16.5-1.9-3.3-2.2-5.14-2.66-10.48-2.66-5.5 0-7.2.45-11.22 3-6.67 4.22-12.9 4.2-17.8-.1zm37.22-33.65l-.28-23.74-4.6-.83c-2.9-.53-6.1-.43-8.74.28l-4.16 1.12v46.92h18.04l-.27-23.75zm4.22-34.43c0-3.2-5.74-5.82-12.78-5.82-8.12 0-13.22 2.03-13.22 5.3v2.38h13c12 0 13-.14 13-1.86zm0-11.63c0-3.52-7.66-6.63-14.55-5.9-6.92.7-11.45 3.08-11.45 6 0 2.23.17 2.26 13 2.23 12.9-.04 13-.06 13-2.34zm-4-28.46c0-14.84.23-17.18 2-20.5 1.1-2.04 2-5.6 2-7.9 0-3.46-.54-4.62-3.2-6.86-2.93-2.47-3.77-2.66-10.1-2.3-6.32.36-7.2.68-9.8 3.62-3.4 3.78-3.56 6.13-.87 12.05 1.72 3.8 1.97 6.56 1.97 21.5v17.14h18v-16.76zm57.42 109.43c-1.7-1.07-3.83-3.52-4.75-5.46-2.98-6.27-2.33-8.24 5.32-16.14l7-7.22v-27.18l-5.03-3.7c-13.76-10.1-14.15-18.4-1.47-32l5.5-5.92v-24.6l-5.6-5.2c-9.2-8.56-10.48-13-5.2-17.93 15.05-14.06 47.26-14.23 62.67-.3 2.44 2.2 4.12 4.62 4.12 5.9 0 2.75-3.27 7.24-9.88 13.58l-5.12 4.9V290.47l5.08 4.96c5.42 5.3 9.27 11.18 10.35 15.8 1.12 4.84-2.78 11.24-10.08 16.54l-6.35 4.6v26.6l6.38 5.96c3.5 3.28 6.93 7.3 7.6 8.9 2.74 6.62-4.34 16.06-12.05 16.06-3.88 0-11.14-2.92-12.42-5-.34-.55-4-1-8.13-1-6.6 0-7.93.32-11.02 2.67-4.7 3.58-12.53 4.27-16.94 1.5zm35.35-34.93l-.28-23.75-4.5-.87c-2.93-.56-5.97-.46-8.75.3l-4.25 1.14v46.92h18.04l-.27-23.76zm4.62-34c-.05-.68-.16-1.72-.25-2.3-.26-1.87-6.93-3.95-12.65-3.95-8.26 0-14.47 3.02-13.16 6.42.7 1.86 26.2 1.7 26.06-.18zm.1-11.68c0-5.15-11.53-8.05-20.37-5.1-4.5 1.48-5.13 2.03-5.13 4.42v2.73l12.75-.1c11.72-.08 12.75-.23 12.75-1.94zm-3.5-29.1c0-15.07.24-17.5 2-20.97 2.37-4.65 2.52-7.6.58-11.36-1.84-3.56-5.44-5.15-11.67-5.15-11.24 0-16.34 7.85-10.9 16.77 1.8 2.93 2 5.04 2 20.5v17.22h18v-17.05zm-223.5-64.87c-6.35-2.86-10.37-10.18-8.4-15.33.53-1.42 3.88-5.37 7.44-8.77l6.46-6.2v-26.86l-6-4.37c-13.24-9.64-13.37-18-.52-31.88l5.52-5.97V90.7l-6.35-6.35c-7.76-7.76-9.57-11.4-7.33-14.8 2.3-3.5 9.98-8.25 17.53-10.83 13.88-4.73 33.38-2.33 44.78 5.5 9.13 6.28 8.93 9.7-1.16 19.7l-6.48 6.4V114.1l5.5 6.06c6.45 7.14 9.5 12.95 9.5 18.1 0 3.07-.83 4.63-4.64 8.7-2.55 2.73-6.15 5.9-8 7.04l-3.36 2.08v27.18l7 7.22c7.82 8.06 8.72 11.1 5.05 17.13-4.53 7.4-11.75 8.64-20.15 3.42-4.36-2.7-5.94-3.13-11.9-3.13-3.78 0-7.16.45-7.5 1-.9 1.46-7.46 4.64-11 5.34-1.68.34-4.32 0-6-.75zm33.5-36c0-26.55.7-24.6-9-24.6s-9-1.95-9 24.6v23.4h18v-23.4zm-7.5-32.8c2.75.15 6.35.37 8 .5 2.6.16 3-.15 3-2.3 0-1.86-.9-2.96-3.5-4.26-7.2-3.6-22-1.1-22 3.7 0 3.24.97 3.75 5.47 2.85 2.2-.45 6.27-.68 9.02-.5zm11.5-13.5c0-4.97-11.87-7.6-20.5-4.57-4.05 1.43-5.05 2.25-5.3 4.33l-.3 2.56 13.06-.04c12.84-.04 13.04-.08 13.04-2.3zm-4-28.53c0-14.96.2-17.08 2-20 2.8-4.6 2.65-10.92-.36-14.42-2.03-2.35-3.28-2.8-8.75-3.14-5.44-.32-6.9-.04-9.84 1.97-4.9 3.32-5.82 7.26-3.14 13.32 1.87 4.22 2.1 6.63 2.1 21.87v17.12h18v-16.73zm62.25 111.38c-3.6-1.05-8.1-5.96-9.38-10.2-1.08-3.57-.96-4.24 1.42-7.82 1.42-2.16 4.87-5.84 7.65-8.2l5.05-4.25-.04-13.6-.05-13.6-5.05-3.5c-7-4.83-10.86-10.26-10.86-15.24 0-5.5 2.44-10.07 9.2-17.3l5.8-6.2V91.08l-6.88-6.92c-8.45-8.5-9.66-12.03-5.6-16.27 6.25-6.53 21.18-11.93 33.07-11.97 6.6 0 19.63 3.34 24.84 6.4 12.03 7.05 12.46 10.56 2.58 20.96l-7 7.36V114.75l5.52 5.78c8.72 9.15 11.23 16.07 8.06 22.2-1.55 3-9 10.24-12.43 12.08-2.04 1.08-2.15 1.86-2.15 14.94v13.8l7 7c6.02 6 7 7.48 7 10.5 0 4.6-3.55 9.86-8.2 12.14-4.37 2.14-9.23 1.24-15.2-2.8-5.53-3.76-14.7-3.57-21.28.4-5.26 3.2-9.58 4.28-13.07 3.25zm32.75-36.55c0-26.55.7-24.6-9-24.6s-9-1.95-9 24.6v23.4h18v-23.4zm-7.5-32.8c2.75.15 6.35.37 8 .5 2.6.16 3-.15 3-2.3 0-1.86-.9-2.96-3.5-4.26-7.2-3.6-22-1.1-22 3.7 0 3.24.97 3.75 5.47 2.85 2.2-.45 6.27-.68 9.02-.5zm11.5-13.5c0-3.3-5.18-5.64-12.5-5.67-7.77-.03-13.5 2.36-13.5 5.63v2.36l13-.04c12.8-.04 13-.08 13-2.3zm-4-28.56c0-14.84.23-17.18 2-20.5 2.18-4.05 2.6-9.27.97-12.3-2.77-5.17-14.1-6.68-20.07-2.67-5 3.37-5.76 6.56-3.1 12.98 1.96 4.73 2.2 7.07 2.2 22.26v17h18v-16.76zm59.02 110.5c-4.5-2.26-8.02-7.56-8.02-12.07 0-3.03 1-4.5 7-10.52l7-7-.02-13.58-.02-13.58-5.7-4.5c-13.25-10.5-13.4-18.1-.6-31.54l5.34-5.6V90.6l-7-7.36c-9.87-10.4-9.44-13.9 2.6-20.97 5.2-3.06 18.22-6.4 24.8-6.4 11.6.05 24.6 4.55 32.07 11.1 5.64 4.96 4.47 8.65-5.9 18.54l-5.58 5.3v23.29l5.8 6.2c6.74 7.2 9.2 11.8 9.2 17.2 0 5.3-2.7 9.25-9.83 14.44l-6.06 4.4-.06 13.6-.06 13.6 5.06 4.26c2.78 2.35 6.22 6.03 7.65 8.2 2.38 3.57 2.5 4.24 1.42 7.83-1.45 4.84-6 9.55-10.02 10.35-3.53.7-8.22-.72-13.1-4-2.8-1.88-4.8-2.33-10.34-2.33-5.86 0-7.33.36-9.8 2.45-2.6 2.17-8.5 4.52-11.38 4.54-.55 0-2.56-.8-4.48-1.76zm33.75-36l-.28-23.75-5.5-.32c-3.02-.17-6.96-.04-8.75.3l-3.25.6v46.91h18.04l-.27-23.76zm-6.28-32.47c2.75.14 6.13.36 7.5.5 2 .18 2.56-.28 2.8-2.32.4-3.42-4.86-5.96-12.36-5.96-9 0-14.68 3.3-13.03 7.6.5 1.35 1.4 1.47 5.36.76 2.6-.47 6.97-.73 9.72-.6zm11.3-13c.4-2.08-4.52-5.3-9.48-6.25-5.37-1-14.08 1.18-15.93 4-.85 1.3-1.3 2.78-1 3.27.3.48 6.3.83 13.32.78 11.24-.08 12.82-.3 13.1-1.8zm-3.8-29.32c0-15.06.24-17.5 2-20.96 4.67-9.16.03-16.5-10.43-16.5-11.93 0-16.7 6.98-11.58 17 1.77 3.45 2 5.9 2 20.7v16.8h18v-17.05z"/><path fill="#868f85" d="M63.58 445.76c-25.04-3.22-46.27-18.52-57.26-41.27-6.85-14.2-6.5-3.5-6.18-184.6L.42 56.4l2.34-6.5c4.07-11.36 9-19.03 18.07-28.1C30.3 12.32 38.46 7.2 50.76 3L58.42.4h240l7.47 2.34c25.53 8.02 43.18 26 50.72 51.65 1.65 5.6 1.8 16.45 2.08 161.5.2 104.5-.03 158.73-.74 165.37-1.2 11.13-4.3 21.1-9.22 29.44-4.3 7.33-17.76 20.75-25.17 25.12-8.37 4.92-20.45 8.9-30.46 10.06-10.8 1.24-219.8 1.13-229.52-.12zm241.84-6.72c12.1-4.05 20.4-9.04 28.6-17.14 8.3-8.2 13.4-16.4 17.08-27.5l2.32-7v-329l-2.82-8c-6.44-18.25-17.8-30.94-34.9-39-15.77-7.45-6.43-6.94-132.67-7.27C60.28 3.8 60.36 3.8 47.1 9.17c-9.42 3.8-16.62 8.54-23.48 15.45-7.64 7.7-12.92 16.26-16.48 26.75L4.42 59.4v163c0 155.12.1 163.3 1.84 169.5 6.98 24.7 26.42 42.8 52.16 48.52 4.85 1.08 28.56 1.3 123 1.16l117-.2 7-2.34zM57.54 387.8c-3.53-2.77-5.62-7-5.62-11.4 0-3.14.9-4.5 7-10.5l7-6.9-.02-13.3-.02-13.3-5.7-4.5c-13.38-10.6-13.57-18-.78-31.8l5.52-5.97v-23.8l-6.1-5.97c-3.37-3.28-6.78-7.5-7.58-9.37-1.35-3.14-1.32-3.63.44-6 2.54-3.47 11.45-8.78 18.24-10.9 7.44-2.3 23.57-2.3 31 0 6.8 2.12 15.7 7.43 18.25 10.9 1.75 2.37 1.8 2.86.44 6-.8 1.86-4.2 6.08-7.57 9.36l-6.1 5.97v23.8l5.5 5.96c6.74 7.26 9.5 12.42 9.5 17.78 0 3.35-.7 4.82-4 8.4-2.2 2.4-5.8 5.6-8 7.12l-4 2.76v26.82l7 6.9c6.22 6.16 7 7.33 7 10.7 0 4.4-2.77 9.46-6.47 11.88-3.64 2.4-11.06 1.5-16.08-1.9-3.3-2.24-5-2.67-10.65-2.67-5.77 0-7.42.42-11.47 3-5.9 3.74-12.65 4.1-16.72.9zm36.15-34.65l-.28-23.74-4.6-.83c-2.9-.53-6.1-.43-8.74.28l-4.16 1.12v46.92h18.04l-.27-23.75zm4.22-34.3c0-3.4-3.82-5.38-11.15-5.8-8.53-.48-14.85 1.8-14.85 5.34 0 2.14.28 2.18 13 2.15 11.42-.03 13-.24 13-1.7zm-.2-11.95c-.42-3.58-4.96-5.52-12.8-5.46-7.3.04-13 2.38-13 5.3 0 1 .2 2 .42 2.24.23.23 6.1.4 13.04.4H98l-.28-2.48zm-2.8-28.8c0-14.06.3-17.9 1.64-20.47.9-1.73 1.68-4.9 1.73-7.04.08-3.23-.5-4.42-3.27-6.9-3.18-2.85-3.76-3-10.25-2.63-5.8.33-7.3.8-9.5 3-3.05 3.06-3.5 9.44-.92 13.37 1.27 1.93 1.56 5.73 1.56 20.17v17.8h19v-17.3zm56.55 108.7c-2.14-1.88-3.94-4.66-4.6-7.1-.97-3.6-.82-4.4 1.44-7.8 1.4-2.1 4.8-5.76 7.57-8.16l5.05-4.35v-27.34l-3.35-2.08c-1.85-1.14-5.45-4.3-8-7.04-3.98-4.25-4.65-5.56-4.65-9.1 0-5.7 2.38-10.2 9.2-17.5l5.8-6.2V266.8l-6.95-7.36c-8.17-8.63-9.33-11.56-5.98-15.12 6.6-7.04 20.93-12.44 32.9-12.4 11.77 0 24.34 4.16 31.88 10.5 2.4 2.02 3.14 3.46 3.14 6.06 0 2.85-1.14 4.6-7 10.78l-7 7.36V290.13l5.65 6.1c13.16 14.2 12.3 22.82-3.4 33.57l-3.25 2.23v27.78l4.53 3.78c5.88 4.9 9.47 10.18 9.47 13.87 0 3.6-3.03 8.76-6.46 11-3.64 2.4-11.34 1.5-16.5-1.9-3.3-2.2-5.14-2.66-10.48-2.66-5.5 0-7.2.45-11.22 3-6.67 4.22-12.9 4.2-17.8-.1zm37.22-33.65l-.28-23.74-4.6-.83c-2.9-.53-6.1-.43-8.74.28l-4.16 1.12v46.92h18.04l-.27-23.75zm4.22-34.43c0-3.2-5.74-5.82-12.78-5.82-8.12 0-13.22 2.03-13.22 5.3v2.38h13c12 0 13-.14 13-1.86zm0-11.63c0-3.52-7.66-6.63-14.55-5.9-6.92.7-11.45 3.08-11.45 6 0 2.23.17 2.26 13 2.23 12.9-.04 13-.06 13-2.34zm-4-28.46c0-14.84.23-17.18 2-20.5 1.1-2.04 2-5.6 2-7.9 0-3.46-.54-4.62-3.2-6.86-2.93-2.47-3.77-2.66-10.1-2.3-6.32.36-7.2.68-9.8 3.62-3.4 3.78-3.56 6.13-.87 12.05 1.72 3.8 1.97 6.56 1.97 21.5v17.14h18v-16.76zm57.42 109.43c-1.7-1.07-3.83-3.52-4.75-5.46-2.98-6.27-2.33-8.24 5.32-16.14l7-7.22v-27.18l-5.03-3.7c-13.76-10.1-14.15-18.4-1.47-32l5.5-5.92v-24.6l-5.6-5.2c-9.2-8.56-10.48-13-5.2-17.93 15.05-14.06 47.26-14.23 62.67-.3 2.44 2.2 4.12 4.62 4.12 5.9 0 2.75-3.27 7.24-9.88 13.58l-5.12 4.9V290.47l5.08 4.96c5.42 5.3 9.27 11.18 10.35 15.8 1.12 4.84-2.78 11.24-10.08 16.54l-6.35 4.6v26.6l6.38 5.96c3.5 3.28 6.93 7.3 7.6 8.9 2.74 6.62-4.34 16.06-12.05 16.06-3.88 0-11.14-2.92-12.42-5-.34-.55-4-1-8.13-1-6.6 0-7.93.32-11.02 2.67-4.7 3.58-12.53 4.27-16.94 1.5zm35.35-34.93l-.28-23.75-4.5-.87c-2.93-.56-5.97-.46-8.75.3l-4.25 1.14v46.92h18.04l-.27-23.76zm4.62-34c-.05-.68-.16-1.72-.25-2.3-.26-1.87-6.93-3.95-12.65-3.95-8.26 0-14.47 3.02-13.16 6.42.7 1.86 26.2 1.7 26.06-.18zm.1-11.68c0-5.15-11.53-8.05-20.37-5.1-4.5 1.48-5.13 2.03-5.13 4.42v2.73l12.75-.1c11.72-.08 12.75-.23 12.75-1.94zm-3.5-29.1c0-15.07.24-17.5 2-20.97 2.37-4.65 2.52-7.6.58-11.36-1.84-3.56-5.44-5.15-11.67-5.15-11.24 0-16.34 7.85-10.9 16.77 1.8 2.93 2 5.04 2 20.5v17.22h18v-17.05zm-223.5-64.87c-6.35-2.86-10.37-10.18-8.4-15.33.53-1.42 3.88-5.37 7.44-8.77l6.46-6.2v-26.86l-6-4.37c-13.24-9.64-13.37-18-.52-31.88l5.52-5.97V90.7l-6.35-6.35c-7.76-7.76-9.57-11.4-7.33-14.8 2.3-3.5 9.98-8.25 17.53-10.83 13.88-4.73 33.38-2.33 44.78 5.5 9.13 6.28 8.93 9.7-1.16 19.7l-6.48 6.4V114.1l5.5 6.06c6.45 7.14 9.5 12.95 9.5 18.1 0 3.07-.83 4.63-4.64 8.7-2.55 2.73-6.15 5.9-8 7.04l-3.36 2.08v27.18l7 7.22c7.82 8.06 8.72 11.1 5.05 17.13-4.53 7.4-11.75 8.64-20.15 3.42-4.36-2.7-5.94-3.13-11.9-3.13-3.78 0-7.16.45-7.5 1-.9 1.46-7.46 4.64-11 5.34-1.68.34-4.32 0-6-.75zm33.5-36c0-26.55.7-24.6-9-24.6s-9-1.95-9 24.6v23.4h18v-23.4zm-7.5-32.8c2.75.15 6.35.37 8 .5 2.6.16 3-.15 3-2.3 0-1.86-.9-2.96-3.5-4.26-7.2-3.6-22-1.1-22 3.7 0 3.24.97 3.75 5.47 2.85 2.2-.45 6.27-.68 9.02-.5zm11.5-13.5c0-4.97-11.87-7.6-20.5-4.57-4.05 1.43-5.05 2.25-5.3 4.33l-.3 2.56 13.06-.04c12.84-.04 13.04-.08 13.04-2.3zm-4-28.53c0-14.96.2-17.08 2-20 2.8-4.6 2.65-10.92-.36-14.42-2.03-2.35-3.28-2.8-8.75-3.14-5.44-.32-6.9-.04-9.84 1.97-4.9 3.32-5.82 7.26-3.14 13.32 1.87 4.22 2.1 6.63 2.1 21.87v17.12h18v-16.73zm62.25 111.38c-3.6-1.05-8.1-5.96-9.38-10.2-1.08-3.57-.96-4.24 1.42-7.82 1.42-2.16 4.87-5.84 7.65-8.2l5.05-4.25-.04-13.6-.05-13.6-5.05-3.5c-7-4.83-10.86-10.26-10.86-15.24 0-5.5 2.44-10.07 9.2-17.3l5.8-6.2V91.08l-6.88-6.92c-8.45-8.5-9.66-12.03-5.6-16.27 6.25-6.53 21.18-11.93 33.07-11.97 6.6 0 19.63 3.34 24.84 6.4 12.03 7.05 12.46 10.56 2.58 20.96l-7 7.36V114.75l5.52 5.78c8.72 9.15 11.23 16.07 8.06 22.2-1.55 3-9 10.24-12.43 12.08-2.04 1.08-2.15 1.86-2.15 14.94v13.8l7 7c6.02 6 7 7.48 7 10.5 0 4.6-3.55 9.86-8.2 12.14-4.37 2.14-9.23 1.24-15.2-2.8-5.53-3.76-14.7-3.57-21.28.4-5.26 3.2-9.58 4.28-13.07 3.25zm32.75-36.55c0-26.55.7-24.6-9-24.6s-9-1.95-9 24.6v23.4h18v-23.4zm-7.5-32.8c2.75.15 6.35.37 8 .5 2.6.16 3-.15 3-2.3 0-1.86-.9-2.96-3.5-4.26-7.2-3.6-22-1.1-22 3.7 0 3.24.97 3.75 5.47 2.85 2.2-.45 6.27-.68 9.02-.5zm11.5-13.5c0-3.3-5.18-5.64-12.5-5.67-7.77-.03-13.5 2.36-13.5 5.63v2.36l13-.04c12.8-.04 13-.08 13-2.3zm-4-28.56c0-14.84.23-17.18 2-20.5 2.18-4.05 2.6-9.27.97-12.3-2.77-5.17-14.1-6.68-20.07-2.67-5 3.37-5.76 6.56-3.1 12.98 1.96 4.73 2.2 7.07 2.2 22.26v17h18v-16.76zm59.02 110.5c-4.5-2.26-8.02-7.56-8.02-12.07 0-3.03 1-4.5 7-10.52l7-7-.02-13.58-.02-13.58-5.7-4.5c-13.25-10.5-13.4-18.1-.6-31.54l5.34-5.6V90.6l-7-7.36c-9.87-10.4-9.44-13.9 2.6-20.97 5.2-3.06 18.22-6.4 24.8-6.4 11.6.05 24.6 4.55 32.07 11.1 5.64 4.96 4.47 8.65-5.9 18.54l-5.58 5.3v23.29l5.8 6.2c6.74 7.2 9.2 11.8 9.2 17.2 0 5.3-2.7 9.25-9.83 14.44l-6.06 4.4-.06 13.6-.06 13.6 5.06 4.26c2.78 2.35 6.22 6.03 7.65 8.2 2.38 3.57 2.5 4.24 1.42 7.83-1.45 4.84-6 9.55-10.02 10.35-3.53.7-8.22-.72-13.1-4-2.8-1.88-4.8-2.33-10.34-2.33-5.86 0-7.33.36-9.8 2.45-2.6 2.17-8.5 4.52-11.38 4.54-.55 0-2.56-.8-4.48-1.76zm33.75-36l-.28-23.75-5.5-.32c-3.02-.17-6.96-.04-8.75.3l-3.25.6v46.91h18.04l-.27-23.76zm-6.28-32.47c2.75.14 6.13.36 7.5.5 2 .18 2.56-.28 2.8-2.32.4-3.42-4.86-5.96-12.36-5.96-9 0-14.68 3.3-13.03 7.6.5 1.35 1.4 1.47 5.36.76 2.6-.47 6.97-.73 9.72-.6zm11.3-13c.4-2.08-4.52-5.3-9.48-6.25-5.37-1-14.08 1.18-15.93 4-.85 1.3-1.3 2.78-1 3.27.3.48 6.3.83 13.32.78 11.24-.08 12.82-.3 13.1-1.8zm-3.8-29.32c0-15.06.24-17.5 2-20.96 4.67-9.16.03-16.5-10.43-16.5-11.93 0-16.7 6.98-11.58 17 1.77 3.45 2 5.9 2 20.7v16.8h18v-17.05z"/><path fill="#7f7f7f" d="M63.58 445.76c-25.04-3.22-46.27-18.52-57.26-41.27-6.85-14.2-6.5-3.5-6.18-184.6L.42 56.4l2.34-6.5c4.07-11.36 9-19.03 18.07-28.1C30.3 12.32 38.46 7.2 50.76 3L58.42.4h240l7.47 2.34c25.53 8.02 43.18 26 50.72 51.65 1.65 5.6 1.8 16.45 2.08 161.5.2 104.5-.03 158.73-.74 165.37-1.2 11.13-4.3 21.1-9.22 29.44-4.3 7.33-17.76 20.75-25.17 25.12-8.37 4.92-20.45 8.9-30.46 10.06-10.8 1.24-219.8 1.13-229.52-.12zm241.84-6.72c12.1-4.05 20.4-9.04 28.6-17.14 8.3-8.2 13.4-16.4 17.08-27.5l2.32-7v-329l-2.82-8c-6.44-18.25-17.8-30.94-34.9-39-15.77-7.45-6.43-6.94-132.67-7.27C60.28 3.8 60.36 3.8 47.1 9.17c-9.42 3.8-16.62 8.54-23.48 15.45-7.64 7.7-12.92 16.26-16.48 26.75L4.42 59.4v163c0 155.12.1 163.3 1.84 169.5 6.98 24.7 26.42 42.8 52.16 48.52 4.85 1.08 28.56 1.3 123 1.16l117-.2 7-2.34zM57.92 387.7c-4.1-2.8-6.7-8.92-5.6-13.3.42-1.63 3.53-5.56 7.17-9.03l6.42-6.16V332l-4.25-2.96c-7.8-5.4-11.75-10.93-11.75-16.4 0-3.77 4.16-10.85 10.15-17.25l5.85-6.26V267.7l-6.36-6.65c-10.52-11-11.16-14.14-4.04-19.58 15.87-12.1 43.94-12.1 59.8 0 7.13 5.44 6.48 8.6-4.03 19.58l-6.38 6.65v21.44l5.86 6.25c5.98 6.4 10.14 13.47 10.14 17.24 0 5.47-3.95 11-11.75 16.4l-4.25 2.95v27.2l6.44 6.17c7.3 6.98 8.53 10.02 6.47 15.93-3.1 8.9-12.16 10.84-22.03 4.7-7.08-4.4-14-4.4-20.27.03-6.13 4.32-12.76 4.95-17.6 1.67zm36-34.2v-24.37l-2.25-.6c-3.44-.93-10.32-.75-13.18.34l-2.58.97v46.93l3.25.4c1.8.22 5.84.47 9 .56l5.75.16v-24.4zm4.1-33.3c1.7-1.7-.12-4.14-4.77-6.4-3.55-1.7-5.62-2.05-9.8-1.62-7.05.73-11.53 3.08-11.53 6.07 0 1.27.2 2.5.42 2.73.88.88 24.73.16 25.67-.77zm-9.6-10.8c9.27 0 10-.15 10-1.97 0-1.1-1.46-2.95-3.4-4.25-6.76-4.56-22.12-2.15-22.93 3.6-.4 2.84 1.54 4.35 4.32 3.35 1.1-.4 6.5-.72 12-.73zm8.75-53.2c2.2-4.03 2.2-6.72.05-10.4-4.46-7.53-17.34-7.76-23.13-.4-2.7 3.43-2.75 6.45-.18 11.5 1.78 3.47 2 5.9 2 21.55v17.64l5.75-.6c3.17-.34 7.33-.25 9.25.2l3.5.78.5-18.54c.4-15.1.83-19.14 2.25-21.75zM153.22 388c-1.76-1.1-3.9-3.37-4.75-5-3.33-6.45-1.24-11.88 7.35-19.12l5.1-4.3V332.03l-3.25-2.23C142 319.06 141.1 309.93 154.4 296l5.52-5.8v-23.66l-7.06-7.28c-6.5-6.7-7.04-7.58-6.75-11.03.27-3.06 1.1-4.34 4.54-6.96 9.1-6.92 24.58-10.4 37.22-8.38 9.3 1.48 15.34 3.7 21.4 7.88 8.05 5.54 7.42 9.95-2.9 20.16l-6.44 6.4v21.8l5.66 6.1c7.02 7.58 10.8 15.34 9.9 20.23-.8 4.23-4.9 9.04-11.52 13.54l-4.98 3.4-.03 12.95-.03 12.96 6.98 6.77c7.8 7.56 8.98 10.33 6.93 16.23-3.1 8.9-12.16 10.84-22.03 4.7-3.98-2.47-6.1-3.1-10.38-3.1-4.27 0-6.4.63-10.38 3.1-6.45 4.02-12.46 4.73-16.82 2zm35.7-34.5v-24.37l-2.25-.6c-3.56-.96-10.17-.74-13.6.46l-3.15 1.1v46.67l3.75.4c2.07.2 6.34.46 9.5.55l5.75.17v-24.4zm3.5-34.56c0-1.4-1.13-3.17-2.8-4.42-5.3-3.96-20.2-2.28-22.8 2.57-1.95 3.63.15 4.3 13.27 4.24 12.23-.06 12.32-.08 12.32-2.4zm-9-9.54c9.14 0 10-.17 10-1.9 0-5.5-15-8.78-22.5-4.9-5.5 2.83-5.07 9.52.5 7.53 1.1-.4 6.5-.72 12-.73zm6.5-31.08c0-15 .26-17.77 1.98-21.57 2.72-5.98 2.52-8.22-1.05-12.3-5.16-5.86-14.03-6.04-20.45-.4-4.12 3.62-4.54 7.38-1.48 13.1 1.78 3.32 2 5.65 2 21.06v17.33h19v-17.2zm56.37 109.65c-2.03-1.23-3.77-3.53-4.9-6.47-2.3-6.1-1.13-8.83 7.14-16.57l6.38-5.97V332.27l-5.7-3.93c-11.6-7.97-13.37-15.6-6.18-26.37 2.26-3.4 5.64-7.38 7.5-8.87l3.38-2.7v-23.42l-6.45-6.36c-10.13-9.98-10.8-14.4-2.96-19.8 8.53-5.85 23.5-9.6 33.76-8.46 12.2 1.36 25.45 7.22 29.15 12.88 1.48 2.23 1.48 2.8.1 6.1-.83 2-4.23 6.26-7.55 9.45l-6.03 5.78v23.56l5.8 6.2c6.7 7.15 9.2 11.8 9.2 17.1 0 5.13-2.9 9.38-9.98 14.53l-6.02 4.37V358.9l7 6.88c6.68 6.55 7 7.1 7 11.52 0 3.9-.55 5.25-3.42 8.38-3.16 3.44-3.85 3.73-8.92 3.73-4.6 0-6.26-.54-10.1-3.26-4.03-2.84-5.4-3.25-10.96-3.25-4.7 0-6.7.42-7.72 1.65-2.05 2.47-8.9 5.3-12.88 5.32-1.92 0-4.9-.85-6.63-1.9zm36.4-34.35l.26-23.76-2.58-1c-3.32-1.24-10.6-1.25-13.9 0l-2.56.98v46.93l3.25.42c1.8.22 5.95.36 9.25.3l6-.1.27-23.78zm3.54-32.66c.45-.04.68-1.08.5-2.32-.5-3.53-8.08-6.97-14.32-6.5-7.92.6-13.65 4.3-12.27 7.9.44 1.16 2.97 1.4 12.9 1.22 6.8-.13 12.74-.26 13.2-.3zm-9.32-11.55c8.77 0 9.5-.16 9.5-1.97 0-3.3-6-6.54-12.12-6.54-6.55 0-13.07 2.45-13.96 5.26-.85 2.67 2.13 5.05 5.03 4 1.13-.4 6.33-.74 11.55-.75zm8.02-51.77c5.83-9.56-1.62-19.07-13.52-17.3-5.13.78-8.75 3.36-10.45 7.44-1.04 2.52-.92 3.63.87 7.66 1.86 4.2 2.08 6.65 2.08 22.7v17.96l5.75-.6c3.17-.34 7.33-.25 9.25.2l3.5.78.28-17.8c.24-15.68.5-18.2 2.24-21.05zM56.64 211.9c-8.55-6.76-7.27-15.1 3.76-24.32l4.52-3.8V156.35l-5.82-4.24c-6.24-4.54-10.18-10.26-10.18-14.78 0-4.26 3.44-10.47 9.52-17.18l5.48-6.06V90.56l-4.75-4.52c-6.9-6.57-9.25-10.08-9.25-13.82 0-2.77.76-3.84 4.75-6.8 2.62-1.92 8.35-4.67 12.75-6.1 14.8-4.83 30.82-3.15 44.3 4.63 9.6 5.54 9.44 9.65-.84 20.5l-6.96 7.36v21.92l5.65 5.77c6.93 7.1 10.84 15 9.9 20-.74 3.96-5.54 9.73-11.53 13.88l-4.02 2.78v27.08l7 7.22c7.53 7.76 8.2 9.64 5.62 15.8-1.96 4.7-6.1 7.63-10.78 7.63-3.76 0-13.02-3.87-14.32-6-.35-.55-3.3-1-6.55-1-5.03 0-6.6.47-10.4 3.16-6.05 4.25-13.78 5.05-17.85 1.84zm36.28-34.03v-24.03l-2.75-1.07c-3.26-1.26-12.78-.5-14.82 1.18-1.6 1.32-1.97 20.1-.77 38.2l.65 9.74H92.92v-24.03zm4.2-33.78c1.98-2-2.75-5.96-8.66-7.3-9.05-2-21.25 3.1-17.66 7.44 1.36 1.65 24.66 1.52 26.32-.15zM79 133.87c3.6-.7 7.1-.68 10.84 0 4.56.85 5.76.76 7.03-.5 1.97-1.97.65-4.16-3.98-6.65-7.16-3.83-21.98-.83-21.98 4.45 0 4.04.37 4.16 8.07 2.7zm10.04-13.97c2.1.4 4.07.48 4.36.2.3-.3.52-8.36.52-17.9 0-15.4.23-17.83 2-21.3 2.66-5.22 2.53-8.23-.53-11.86-5.28-6.26-15.27-6.56-21.2-.62-3.87 3.86-4.2 7.24-1.28 12.97 1.78 3.48 2 5.9 2 21.52v17.6l5.15-.65c2.83-.36 6.87-.34 8.97.04zm62.64 92.3c-3.17-2.04-5.76-6.9-5.76-10.84 0-3.8 3.24-8.64 9.05-13.5l4.95-4.15v-27.47l-5.58-3.85c-13.46-9.27-13.76-18.44-1.06-32.16l5.64-6.1v-23.6l-5.14-4.76c-10.1-9.34-11.5-14.64-5.1-19.64 6.47-5.08 13.3-7.68 24.26-9.23 12.4-1.77 30.65 3.15 38.23 10.3 4.82 4.55 3.38 8.78-6.17 18.16l-6.08 5.97v22.74l4.5 4.37c7.3 7.1 10.5 12.94 10.5 19.15 0 4.66-.42 5.75-3.57 9.25-1.97 2.18-5.57 5.2-8 6.75l-4.42 2.8v26.56l6.37 5.97c7.74 7.24 9.37 10.54 7.78 15.82-1.85 6.2-5.3 8.64-12.16 8.64-4.97 0-6.52-.5-10.44-3.26-3.84-2.7-5.53-3.25-10.06-3.25-4.5 0-6.22.54-9.93 3.16-5.6 3.95-13.52 4.9-17.82 2.14zm36.24-34.33v-24.03l-2.75-1.06c-3.43-1.33-12.6-.67-14.7 1.06-1.32 1.1-1.55 4.65-1.55 24 0 12.5.3 23.02.67 23.4.36.35 4.63.65 9.5.65h8.82v-24.03zm3.82-34.74c.38-2.65-4.24-5.8-9.95-6.76-4.9-.82-14.46 1.88-15.85 4.47-2.2 4.14-.73 4.67 12.76 4.57 12.3-.07 12.73-.15 13.04-2.27zm-17.95-9.3c3.52-.76 6.65-.76 10.8 0 5.02.94 6 .87 7-.52 1.7-2.32.6-4.22-3.76-6.45-8.92-4.55-25.15 0-21.87 6.14 1.2 2.2 1.3 2.22 7.82.83zm9.9-13.9c2.33.34 4.47.38 4.74.12.26-.27.48-8.23.48-17.7 0-15.27.24-17.73 2.1-21.92 1.36-3.1 1.85-5.63 1.42-7.38-2.24-9-15.3-11.8-23.13-4.92-4.04 3.55-4.53 8.36-1.37 13.54 1.8 2.95 2 5.04 2 21.07v17.8l4.74-.6c2.62-.32 6.67-.32 9.02 0zm61.12 91.68c-4.42-2.96-6.7-9.36-4.88-13.74.67-1.63 4.1-5.65 7.6-8.93l6.38-5.97v-26.58l-4.42-2.78c-2.43-1.54-6.03-4.57-8-6.75-3.15-3.5-3.58-4.6-3.58-9.26 0-6.25 3.2-12.06 10.47-19.03l4.52-4.33V91.33l-6.07-5.97c-9.55-9.38-11-13.6-6.18-18.16 7.6-7.15 25.83-12.07 38.23-10.3 10.96 1.54 17.8 4.14 24.27 9.22 6.37 5 4.93 10.5-5.2 19.82l-5.05 4.64V114.13l5.52 5.96c12.93 13.95 12.67 22.9-.93 32.28l-5.58 3.85v26.9l7 6.83c6.14 6 7 7.3 7 10.48 0 12.3-10.67 17.03-22.43 9.95-4.86-2.93-6.77-3.5-11.58-3.5-4 0-6.15.47-7.06 1.57-2.22 2.68-8.67 5.42-12.75 5.42-2.38 0-5.2-.9-7.28-2.3zm36.87-33.64c.14-12.9-.12-23.8-.58-24.28-1.55-1.54-10.8-2.07-14.56-.83l-3.64 1.2v47.93l9.25-.3 9.25-.28.27-23.44zm4.02-34.26c.44-2.28-3.5-5.65-8.06-6.88-7.27-1.96-18.74 1.65-18.74 5.9 0 1 .22 2.05.48 2.3.26.27 6.22.44 13.24.4 10.93-.1 12.82-.34 13.08-1.72zm-17.85-9.9c3.66-.77 6.48-.77 10.24.04 4.38.94 5.44.87 6.74-.44 2.03-2.02.62-4.4-4-6.76-8.95-4.57-25.77.9-20.88 6.8 1.45 1.74 1.52 1.74 7.9.37zm14.05-30.45c0-15.56.23-17.98 2-21.46 2.94-5.76 2.63-10.23-.95-13.8-1.63-1.64-4.55-3.27-6.5-3.63-4.6-.86-11.17.96-14.12 3.9-3.5 3.5-3.9 6.66-1.5 12.06 1.84 4.2 2.07 6.65 2.07 22.06v17.34l8.04-.1c4.42-.06 8.32.18 8.67.52 1.9 1.9 2.3-.97 2.3-16.9z"/><path fill="#485447" d="M57.3 444.4C27.26 437.84 5.12 414.6.95 385.35.14 379.6-.1 333.14.16 217.9.52 38.55-.2 54.77 8.2 38.4c3.08-6 6.25-10.15 12.67-16.57C30.55 12.15 40.02 6.6 53.47 2.7L61.43.4h117.5C288.06.4 296.88.5 302.8 2.14c26.17 7.23 43.7 23.2 51.9 47.24l2.72 8 .27 162.72c.3 183.04.8 170.1-7.4 186.75-8.43 17.05-23.2 29.23-43.88 36.17l-7 2.35-118 .18c-95.7.14-119.15-.08-124.13-1.17zm235.5-2.55c23.05-2.9 43.66-16.93 53.95-36.76 8.24-15.88 7.55-.67 7.93-174.7.23-102.38 0-158.3-.7-164.68-1.82-17-7.76-29.5-19.62-41.3-8.28-8.23-16.82-13.52-27.94-17.3l-8-2.73-116.95-.28C67.83 3.86 64.3 3.92 56.7 5.82c-10.28 2.6-19.34 7.03-27.02 13.2-10.78 8.63-17.24 17.6-22.5 31.24L4.42 57.4v331l2.68 7.33c3.94 10.8 8.4 17.72 16.87 26.18 10.95 10.96 25.3 17.97 40.95 20 9.05 1.2 218.4 1.14 227.87-.05zM57.9 387.7c-4.1-2.8-6.7-8.92-5.6-13.3.42-1.63 3.53-5.56 7.17-9.03l6.42-6.16V332l-4.25-2.96c-7.8-5.4-11.75-10.93-11.75-16.4 0-3.77 4.16-10.85 10.15-17.25l5.85-6.26V267.7l-6.36-6.65c-10.52-11-11.16-14.14-4.04-19.58 15.87-12.1 43.94-12.1 59.8 0 7.13 5.44 6.48 8.6-4.03 19.58l-6.38 6.65v21.44l5.86 6.25c5.98 6.4 10.14 13.47 10.14 17.24 0 5.47-3.95 11-11.75 16.4l-4.25 2.95v27.2l6.44 6.17c7.3 6.98 8.53 10.02 6.47 15.93-3.1 8.9-12.16 10.84-22.03 4.7-7.08-4.4-14-4.4-20.27.03-6.13 4.32-12.76 4.95-17.6 1.67zm36-34.2v-24.37l-2.25-.6c-3.44-.93-10.32-.75-13.18.34l-2.58.97v46.93l3.25.4c1.8.22 5.84.47 9 .56l5.75.16v-24.4zm4.1-33.3c1.7-1.7-.12-4.14-4.77-6.4-3.55-1.7-5.62-2.05-9.8-1.62-7.05.73-11.53 3.08-11.53 6.07 0 1.27.2 2.5.42 2.73.88.88 24.73.16 25.67-.77zm-9.6-10.8c9.27 0 10-.15 10-1.97 0-1.1-1.46-2.95-3.4-4.25-6.76-4.56-22.12-2.15-22.93 3.6-.4 2.84 1.54 4.35 4.32 3.35 1.1-.4 6.5-.72 12-.73zm8.75-53.2c2.2-4.03 2.2-6.72.05-10.4-4.46-7.53-17.34-7.76-23.13-.4-2.7 3.43-2.75 6.45-.18 11.5 1.78 3.47 2 5.9 2 21.55v17.64l5.75-.6c3.17-.34 7.33-.25 9.25.2l3.5.78.5-18.54c.4-15.1.83-19.14 2.25-21.75zM153.22 388c-1.76-1.1-3.9-3.37-4.75-5-3.33-6.45-1.24-11.88 7.35-19.12l5.1-4.3V332.03l-3.25-2.23C142 319.06 141.1 309.93 154.4 296l5.52-5.8v-23.66l-7.06-7.28c-6.5-6.7-7.04-7.58-6.75-11.03.27-3.06 1.1-4.34 4.54-6.96 9.1-6.92 24.58-10.4 37.22-8.38 9.3 1.48 15.34 3.7 21.4 7.88 8.05 5.54 7.42 9.95-2.9 20.16l-6.44 6.4v21.8l5.66 6.1c7.02 7.58 10.8 15.34 9.9 20.23-.8 4.23-4.9 9.04-11.52 13.54l-4.98 3.4-.03 12.95-.03 12.96 6.98 6.77c7.8 7.56 8.98 10.33 6.93 16.23-3.1 8.9-12.16 10.84-22.03 4.7-3.98-2.47-6.1-3.1-10.38-3.1-4.27 0-6.4.63-10.38 3.1-6.45 4.02-12.46 4.73-16.82 2zm35.7-34.5v-24.37l-2.25-.6c-3.56-.96-10.17-.74-13.6.46l-3.15 1.1v46.67l3.75.4c2.07.2 6.34.46 9.5.55l5.75.17v-24.4zm3.5-34.56c0-1.4-1.13-3.17-2.8-4.42-5.3-3.96-20.2-2.28-22.8 2.57-1.95 3.63.15 4.3 13.27 4.24 12.23-.06 12.32-.08 12.32-2.4zm-9-9.54c9.14 0 10-.17 10-1.9 0-5.5-15-8.78-22.5-4.9-5.5 2.83-5.07 9.52.5 7.53 1.1-.4 6.5-.72 12-.73zm6.5-31.08c0-15 .26-17.77 1.98-21.57 2.72-5.98 2.52-8.22-1.05-12.3-5.16-5.86-14.03-6.04-20.45-.4-4.12 3.62-4.54 7.38-1.48 13.1 1.78 3.32 2 5.65 2 21.06v17.33h19v-17.2zm56.37 109.65c-2.03-1.23-3.77-3.53-4.9-6.47-2.3-6.1-1.13-8.83 7.14-16.57l6.38-5.97V332.27l-5.7-3.93c-11.6-7.97-13.37-15.6-6.18-26.37 2.26-3.4 5.64-7.38 7.5-8.87l3.38-2.7v-23.42l-6.45-6.36c-10.13-9.98-10.8-14.4-2.96-19.8 8.53-5.85 23.5-9.6 33.76-8.46 12.2 1.36 25.45 7.22 29.15 12.88 1.48 2.23 1.48 2.8.1 6.1-.83 2-4.23 6.26-7.55 9.45l-6.03 5.78v23.56l5.8 6.2c6.7 7.15 9.2 11.8 9.2 17.1 0 5.13-2.9 9.38-9.98 14.53l-6.02 4.37V358.9l7 6.88c6.68 6.55 7 7.1 7 11.52 0 3.9-.55 5.25-3.42 8.38-3.16 3.44-3.85 3.73-8.92 3.73-4.6 0-6.26-.54-10.1-3.26-4.03-2.84-5.4-3.25-10.96-3.25-4.7 0-6.7.42-7.72 1.65-2.05 2.47-8.9 5.3-12.88 5.32-1.92 0-4.9-.85-6.63-1.9zm36.4-34.35l.26-23.76-2.58-1c-3.32-1.24-10.6-1.25-13.9 0l-2.56.98v46.93l3.25.42c1.8.22 5.95.36 9.25.3l6-.1.27-23.78zm3.54-32.66c.45-.04.68-1.08.5-2.32-.5-3.53-8.08-6.97-14.32-6.5-7.92.6-13.65 4.3-12.27 7.9.44 1.16 2.97 1.4 12.9 1.22 6.8-.13 12.74-.26 13.2-.3zm-9.32-11.55c8.77 0 9.5-.16 9.5-1.97 0-3.3-6-6.54-12.12-6.54-6.55 0-13.07 2.45-13.96 5.26-.85 2.67 2.13 5.05 5.03 4 1.13-.4 6.33-.74 11.55-.75zm8.02-51.77c5.83-9.56-1.62-19.07-13.52-17.3-5.13.78-8.75 3.36-10.45 7.44-1.04 2.52-.92 3.63.87 7.66 1.86 4.2 2.08 6.65 2.08 22.7v17.96l5.75-.6c3.17-.34 7.33-.25 9.25.2l3.5.78.28-17.8c.24-15.68.5-18.2 2.24-21.05zM56.64 211.9c-8.55-6.76-7.27-15.1 3.76-24.32l4.52-3.8V156.35l-5.82-4.24c-6.24-4.54-10.18-10.26-10.18-14.78 0-4.26 3.44-10.47 9.52-17.18l5.48-6.06V90.56l-4.75-4.52c-6.9-6.57-9.25-10.08-9.25-13.82 0-2.77.76-3.84 4.75-6.8 2.62-1.92 8.35-4.67 12.75-6.1 14.8-4.83 30.82-3.15 44.3 4.63 9.6 5.54 9.44 9.65-.84 20.5l-6.96 7.36v21.92l5.65 5.77c6.93 7.1 10.84 15 9.9 20-.74 3.96-5.54 9.73-11.53 13.88l-4.02 2.78v27.08l7 7.22c7.53 7.76 8.2 9.64 5.62 15.8-1.96 4.7-6.1 7.63-10.78 7.63-3.76 0-13.02-3.87-14.32-6-.35-.55-3.3-1-6.55-1-5.03 0-6.6.47-10.4 3.16-6.05 4.25-13.78 5.05-17.85 1.84zm36.28-34.03v-24.03l-2.75-1.07c-3.26-1.26-12.78-.5-14.82 1.18-1.6 1.32-1.97 20.1-.77 38.2l.65 9.74H92.92v-24.03zm4.2-33.78c1.98-2-2.75-5.96-8.66-7.3-9.05-2-21.25 3.1-17.66 7.44 1.36 1.65 24.66 1.52 26.32-.15zM79 133.87c3.6-.7 7.1-.68 10.84 0 4.56.85 5.76.76 7.03-.5 1.97-1.97.65-4.16-3.98-6.65-7.16-3.83-21.98-.83-21.98 4.45 0 4.04.37 4.16 8.07 2.7zm10.04-13.97c2.1.4 4.07.48 4.36.2.3-.3.52-8.36.52-17.9 0-15.4.23-17.83 2-21.3 2.66-5.22 2.53-8.23-.53-11.86-5.28-6.26-15.27-6.56-21.2-.62-3.87 3.86-4.2 7.24-1.28 12.97 1.78 3.48 2 5.9 2 21.52v17.6l5.15-.65c2.83-.36 6.87-.34 8.97.04zm62.64 92.3c-3.17-2.04-5.76-6.9-5.76-10.84 0-3.8 3.24-8.64 9.05-13.5l4.95-4.15v-27.47l-5.58-3.85c-13.46-9.27-13.76-18.44-1.06-32.16l5.64-6.1v-23.6l-5.14-4.76c-10.1-9.34-11.5-14.64-5.1-19.64 6.47-5.08 13.3-7.68 24.26-9.23 12.4-1.77 30.65 3.15 38.23 10.3 4.82 4.55 3.38 8.78-6.17 18.16l-6.08 5.97v22.74l4.5 4.37c7.3 7.1 10.5 12.94 10.5 19.15 0 4.66-.42 5.75-3.57 9.25-1.97 2.18-5.57 5.2-8 6.75l-4.42 2.8v26.56l6.37 5.97c7.74 7.24 9.37 10.54 7.78 15.82-1.85 6.2-5.3 8.64-12.16 8.64-4.97 0-6.52-.5-10.44-3.26-3.84-2.7-5.53-3.25-10.06-3.25-4.5 0-6.22.54-9.93 3.16-5.6 3.95-13.52 4.9-17.82 2.14zm36.24-34.33v-24.03l-2.75-1.06c-3.43-1.33-12.6-.67-14.7 1.06-1.32 1.1-1.55 4.65-1.55 24 0 12.5.3 23.02.67 23.4.36.35 4.63.65 9.5.65h8.82v-24.03zm3.82-34.74c.38-2.65-4.24-5.8-9.95-6.76-4.9-.82-14.46 1.88-15.85 4.47-2.2 4.14-.73 4.67 12.76 4.57 12.3-.07 12.73-.15 13.04-2.27zm-17.95-9.3c3.52-.76 6.65-.76 10.8 0 5.02.94 6 .87 7-.52 1.7-2.32.6-4.22-3.76-6.45-8.92-4.55-25.15 0-21.87 6.14 1.2 2.2 1.3 2.22 7.82.83zm9.9-13.9c2.33.34 4.47.38 4.74.12.26-.27.48-8.23.48-17.7 0-15.27.24-17.73 2.1-21.92 1.36-3.1 1.85-5.63 1.42-7.38-2.24-9-15.3-11.8-23.13-4.92-4.04 3.55-4.53 8.36-1.37 13.54 1.8 2.95 2 5.04 2 21.07v17.8l4.74-.6c2.62-.32 6.67-.32 9.02 0zm61.12 91.68c-4.42-2.96-6.7-9.36-4.88-13.74.67-1.63 4.1-5.65 7.6-8.93l6.38-5.97v-26.58l-4.42-2.78c-2.43-1.54-6.03-4.57-8-6.75-3.15-3.5-3.58-4.6-3.58-9.26 0-6.25 3.2-12.06 10.47-19.03l4.52-4.33V91.33l-6.07-5.97c-9.55-9.38-11-13.6-6.18-18.16 7.6-7.15 25.83-12.07 38.23-10.3 10.96 1.54 17.8 4.14 24.27 9.22 6.37 5 4.93 10.5-5.2 19.82l-5.05 4.64V114.13l5.52 5.96c12.93 13.95 12.67 22.9-.93 32.28l-5.58 3.85v26.9l7 6.83c6.14 6 7 7.3 7 10.48 0 12.3-10.67 17.03-22.43 9.95-4.86-2.93-6.77-3.5-11.58-3.5-4 0-6.15.47-7.06 1.57-2.22 2.68-8.67 5.42-12.75 5.42-2.38 0-5.2-.9-7.28-2.3zm36.87-33.64c.14-12.9-.12-23.8-.58-24.28-1.55-1.54-10.8-2.07-14.56-.83l-3.64 1.2v47.93l9.25-.3 9.25-.28.27-23.44zm4.02-34.26c.44-2.28-3.5-5.65-8.06-6.88-7.27-1.96-18.74 1.65-18.74 5.9 0 1 .22 2.05.48 2.3.26.27 6.22.44 13.24.4 10.93-.1 12.82-.34 13.08-1.72zm-17.85-9.9c3.66-.77 6.48-.77 10.24.04 4.38.94 5.44.87 6.74-.44 2.03-2.02.62-4.4-4-6.76-8.95-4.57-25.77.9-20.88 6.8 1.45 1.74 1.52 1.74 7.9.37zm14.05-30.45c0-15.56.23-17.98 2-21.46 2.94-5.76 2.63-10.23-.95-13.8-1.63-1.64-4.55-3.27-6.5-3.63-4.6-.86-11.17.96-14.12 3.9-3.5 3.5-3.9 6.66-1.5 12.06 1.84 4.2 2.07 6.65 2.07 22.06v17.34l8.04-.1c4.42-.06 8.32.18 8.67.52 1.9 1.9 2.3-.97 2.3-16.9z"/><path fill="#0e1f0b" d="M57.6 444.28c-26.36-5.7-46.72-24.42-54.83-50.4l-2.35-7.5v-163C.42 70.93.54 60 2.18 53.9 7.63 33.8 21.53 17.06 40.42 7.87 56.74-.07 48.1.4 179.42.4h117l7.95 2.3c13.33 3.85 22.9 9.48 32.64 19.16 7.13 7.1 9.4 10.15 13.28 18.04 8.22 16.65 7.7 3.77 7.4 186.26l-.26 162.23-2.33 7c-7.82 23.42-26.18 40.87-50.68 48.18-5.6 1.67-13.82 1.8-123 1.98-100 .17-118-.02-123.83-1.28zm245.62-4.13c24.6-6.94 42.18-24.3 49.4-48.76 1.65-5.62 1.8-16.2 2.07-161.98.17-95.13-.1-159.33-.68-164.58-2.64-23.67-16.1-42.93-37.3-53.4-16.2-8-9-7.63-141.1-7.32l-117.2.27L51.22 7c-18.1 6.62-32.27 18.53-39.96 33.55-7.9 15.47-7.43 2.9-7.12 185.82l.28 163 2.2 5.77c4.38 11.44 8.64 18.13 16.77 26.3 11.67 11.76 24.53 18.25 40.25 20.32 3.72.48 57.4.8 119.27.7l112.5-.15 7.8-2.2zm-243.9-51.83c-3.54-1.75-7.4-7.94-7.4-11.88 0-1.96 1.86-4.57 7-9.83l7-7.14-.02-14.03-.03-14.04-5.06-3.45c-5.98-4.06-9.62-8.52-10.5-12.88-.9-4.5 3.27-12.47 10.1-19.35l5.52-5.57v-23.4l-5.64-5.37c-12.8-12.2-12.37-16.74 2.28-23.67 9.52-4.5 20.26-6.34 28.98-4.98 8.75 1.36 16.6 4.22 22.74 8.3 8.03 5.3 7.55 9.05-2.48 19.13l-6.88 6.92v23.02l5.46 5.47c6.76 6.76 11.06 15 10.16 19.5-.87 4.36-4.5 8.82-10.5 12.88l-5.06 3.44-.03 14.03-.03 14.03 7 7.15c7.62 7.8 8.3 9.77 5.4 15.88-1.86 3.92-6.95 7.4-10.8 7.4-2.78 0-12-4.2-13.08-5.97-.35-.55-3.93-1-7.95-1-5.6 0-7.65.38-8.7 1.65-1.83 2.2-8.76 5.3-11.88 5.3-1.37 0-3.9-.7-5.6-1.53zm34.6-34.8v-24.4l-2.25-.6c-1.23-.33-4.27-.6-6.75-.6-2.47 0-5.5.27-6.75.6l-2.25.6v47.65l3.25.4c1.8.22 5.84.47 9 .56l5.75.16v-24.4zm4.62-34c1.54-4.85-8.97-8.8-18.23-6.86-6.72 1.4-8.38 2.62-8.38 6.14v2.66l13.02-.03c11.8-.03 13.06-.2 13.6-1.9zm-8.95-9.84c8.48.3 9.93-.3 8.85-3.7-1.5-4.7-14.46-6.7-22.5-3.48-3.36 1.34-4.03 2.07-4.03 4.42 0 3.35 1.32 4.04 6 3.14 1.93-.37 7.18-.54 11.67-.38zm5.32-30.58c0-15.8.23-18.22 2-21.7 3.72-7.3 1.98-13.36-4.6-16.1-4.53-1.9-9.1-1.73-14.07.53-6.65 3.02-8.1 8.18-4.33 15.56 1.78 3.47 2 5.9 2 21.3v17.4l5.75-.64c3.17-.34 7.1-.2 8.75.32 1.65.52 3.34.98 3.75 1.03.42.05.75-7.9.75-17.7zM153.34 388c-1.7-1.03-3.83-3.45-4.75-5.4-2.98-6.27-2.33-8.24 5.32-16.14l7-7.22-.05-13.92-.06-13.93-4.68-3.1c-6.15-4.03-11.2-10.64-11.2-14.67 0-4.6 3.32-10.64 9.5-17.28l5.5-5.9v-24.6l-5.6-5.22c-9.8-9.14-10.86-13.92-4.15-18.84 5.9-4.34 11.43-6.58 21.02-8.52 9.4-1.9 18.1-1.1 28.13 2.66 5.7 2.14 13.06 7.1 14.9 10.05 1.8 2.9-.24 6.73-7.32 13.76l-6.98 6.95v23.77l5.08 4.96c5.42 5.3 9.27 11.18 10.35 15.8 1.1 4.8-2.67 10.98-10.02 16.42l-6.4 4.74v26.76l6.36 5.83c7.6 6.96 9.3 10.32 7.7 15.17-3.12 9.46-12.78 12.14-21.52 5.97-4.12-2.9-5.35-3.25-11.46-3.25-5.16 0-7.2.4-8.22 1.65-1.94 2.34-8.82 5.3-12.38 5.32-1.65 0-4.38-.83-6.08-1.86zm35.58-34.5v-24.37l-2.25-.6c-3.47-.94-11.33-.75-14.18.34l-2.58.97v46.93l3.25.4c1.8.22 6.07.47 9.5.56l6.25.16v-24.4zm4.12-33.33c2.94-2.93-5.3-8.28-12.77-8.28-8.16 0-15.15 3.88-13.93 7.74.55 1.72 1.66 1.87 13.12 1.74 7.34-.08 12.96-.58 13.58-1.2zm-8.62-10.76c8.27 0 9-.17 9-1.97 0-1.1-1.46-2.95-3.4-4.25-4.15-2.8-13-3.1-19.08-.68-3.35 1.34-4.02 2.07-4.02 4.42 0 3.3 1.38 4.1 5.5 3.17 1.65-.37 7.05-.68 12-.7zm5.5-30.3c0-15.8.23-18.22 2-21.7 2.52-4.93 2.53-8.14.05-12.2-2.46-4.03-7.94-5.85-14.6-4.85-9.4 1.4-12.94 8.74-8.45 17.54 1.77 3.46 2 5.9 2 21.07v17.15l5.25-.6c2.9-.33 6.83-.2 8.75.3 1.93.47 3.84.9 4.25.97.42.05.75-7.9.75-17.7zm58.5 109.68c-4.07-2.37-6.55-5.36-7.57-9.17-.94-3.5-.8-4.32 1.45-7.7 1.38-2.1 4.8-5.7 7.57-8.06l5.05-4.26v-27.6l-4.3-2.95c-2.37-1.63-5.97-4.8-8-7.06-6.46-7.14-4.87-14.54 5.5-25.63l5.8-6.2V266.8l-6.95-7.36c-8.4-8.9-9.38-11.55-5.6-15.5 9.7-10.1 31.64-14.32 48.18-9.25 7.8 2.38 16.22 7.6 18 11.12 1.77 3.48.6 5.84-6.8 13.6l-6.83 7.2V290.13l5.52 5.96c13.38 14.44 12.56 22.86-3.27 33.7l-3.25 2.23v27.78l4.53 3.78c9.15 7.64 11.4 13.66 7.48 20.08-4.27 7-11.6 7.8-20.36 2.22-6.74-4.27-14.5-4.24-21.47.1-5.5 3.4-11.62 4.58-14.68 2.8zm34.5-35.27v-24.37l-2.25-.6c-3.47-.94-11.33-.75-14.18.34l-2.58.97v46.93l3.25.4c1.8.22 6.07.47 9.5.56l6.25.16v-24.4zm3.5-34.53c0-4.23-4.6-6.58-12.82-6.55-8.56.03-13.68 2.2-13.68 5.83 0 1.27.2 2.5.43 2.74.24.23 6.2.4 13.25.38 12.8-.05 12.82-.05 12.82-2.4zm-8.18-9.3l8.82.3-.32-2.8c-.94-8.17-25.5-8.53-26.65-.4-.46 3.14 1.5 4.26 5.82 3.36 1.93-.4 7.47-.6 12.32-.45zm6.93-52.28c.96-1.66 1.74-4.84 1.75-7.07 0-3.23-.62-4.66-3.06-7-2.74-2.62-3.75-2.94-9.43-2.94-6.97 0-10.7 1.87-13.5 6.83-1.36 2.4-1.32 3.08.45 7.4 1.63 4 2 7.75 2.3 23.14l.33 18.37 5.72-.6c3.14-.33 7.28-.25 9.2.17l3.5.78.5-18.04c.4-14.7.83-18.6 2.25-21.05zM57.1 211.86c-1.8-1.1-3.94-3.57-4.74-5.47-2.65-6.34-2-8.14 5.56-15.7l7-7V156.06l-4.95-3.64C46.2 142.3 45.8 134.2 58.5 120.9l5.65-5.93-.16-12.3-.17-12.28-5.84-6c-9.32-9.57-10.1-12.53-4.55-17.4 15.6-13.7 46.35-13.7 61.95 0 1.94 1.7 3.52 4 3.52 5.13 0 3.03-3.2 7.65-9.43 13.53l-5.58 5.27v23.54l5.08 4.96c10.66 10.42 13.08 19 7.34 26.1-1.7 2.1-5.16 5.17-7.7 6.83l-4.6 3.03-.05 14.5-.05 14.5 5.5 4.82c9.27 8.13 10.6 14.1 4.6 20.54-4.97 5.32-11.53 5.36-19.26.13-3.75-2.55-5.33-2.97-11-3-4.83 0-7 .42-7.94 1.57-2.1 2.53-8.6 5.42-12.15 5.42-1.8 0-4.77-.92-6.6-2.03zm35.82-34.35v-24.38l-3.12-.62c-4.65-.93-9.2-.76-12.73.47l-3.15 1.1v14.14c0 7.78.3 18.54.66 23.9l.65 9.75H92.92V177.5zm4.48-33.43c1.55-4.05-4.9-7.72-13.5-7.68-8.72.05-15 3.65-13.44 7.7.76 2 26.18 1.96 26.94-.03zm-17.57-10.27c3.1-.7 6.03-.68 9.86.12 4.7.98 5.7.9 7.08-.48 2.08-2.08.75-4.4-3.93-6.9-2.64-1.4-4.97-1.7-10.14-1.38-7.7.48-11.78 2.58-11.78 6.05 0 3.97 1.28 4.34 8.9 2.58zm4.6-14.08c3 0 6.37.3 7.48.64 1.98.6 2.02.2 2.02-17.23 0-15.88.22-18.3 2-21.78 2.28-4.48 2.5-7.32.85-10.95-4.73-10.37-25.85-7-25.85 4.13 0 1.87.9 5.16 2 7.3 1.78 3.5 2 5.9 2 21.54 0 17.2.05 17.6 2.02 16.97 1.1-.36 4.47-.65 7.48-.65zm67.8 92.18c-3.82-2.32-6.3-6.73-6.3-11.16 0-2.66 1.22-4.45 7-10.22l7-7v-27.53l-3.26-2.23c-15.7-10.76-16.54-19.32-3.26-33.26l5.52-5.78V90.6l-7-7.36c-5.52-5.82-7-8.02-7-10.42 0-8.87 23.6-18.22 40.18-15.9 6.45.9 14.2 3.1 18.32 5.2 4.74 2.4 10.5 7.97 10.5 10.13 0 2.77-3.23 7.23-9.88 13.6l-5.12 4.9V114.15l5.8 6.2c12.73 13.6 12.4 22.67-1.2 32.04l-5.6 3.85V183.18l6.93 6.64c8.15 7.82 9.1 10.32 6.2 16.32-4.1 8.44-11.17 9.9-20.56 4.25-5-3.02-6.7-3.5-12.08-3.5-4.47 0-6.62.44-7.56 1.57-2.1 2.53-8.6 5.42-12.15 5.42-1.8 0-4.72-.9-6.48-1.97zm35.7-34.4v-24.4l-3.13-.6c-4.65-.94-9.2-.77-12.73.46l-3.15 1.1v47.8h19V177.5zm4-34.65c0-1.82-.95-3.12-3.26-4.52-6.2-3.74-21.56-1.72-23.4 3.08-1.37 3.56.12 4 13.54 4h13.12v-2.56zm-17.1-9.05c3.1-.7 6.03-.68 9.86.12 4.7.98 5.7.9 7.08-.48 2.1-2.1.73-4.44-3.93-6.83-9.18-4.68-26.86.8-21.9 6.8 1.42 1.7 2.9 1.77 8.88.4zm2.3-14.07c2.94-.06 6.8.2 8.58.6l3.22.7v-17.88c0-15.9.22-18.3 2-21.8 2.45-4.78 2.53-7.8.3-11.55-1.64-2.8-7.53-5.94-11.07-5.93-3.7 0-9.6 2.27-11.85 4.53-3 2.98-3.13 8.07-.38 13.46 1.78 3.47 2 5.9 2 21.5 0 10.3.38 17.38.9 17.05.5-.3 3.34-.62 6.3-.7zm68.5 92.42c-3.7-2.4-7.12-9.5-6.24-13.03.36-1.47 3.8-5.67 7.6-9.33l6.92-6.64V156.23l-5.58-3.85c-13.6-9.37-13.94-18.44-1.22-32.04l5.8-6.2V91.02l-6.9-7.04c-7.64-7.77-9.46-11.92-6.6-15.08 5.2-5.75 15.65-10.34 27.23-11.95 16.8-2.35 40.27 7 40.27 16 0 2.55-1.33 4.54-7 10.37l-7 7.22v12.56c0 12.1.1 12.62 2.37 14.1 3.7 2.44 11.48 13.43 12.2 17.24.35 1.9.36 4.56.02 5.93-.82 3.27-5.84 8.9-11.25 12.63l-4.35 3V183.54l7 7c6.02 6.02 7 7.5 7 10.52 0 4.07-3.4 9.68-7.03 11.6-3.86 2.04-10.58.9-15.62-2.67-3.74-2.63-5.32-3.1-10.36-3.1-5.04 0-6.6.46-10.4 3.13-5.57 3.93-12.68 4.83-16.88 2.15zm36.3-34.3v-24.04l-2.57-.97c-1.4-.54-4.53-.98-6.94-.98-2.4 0-5.52.43-6.93.97l-2.58.97v48.05h19v-24.03zm3.8-34.72c.24-1.6-.57-2.76-2.96-4.2-5.1-3.12-10.96-3.6-17.6-1.43-5.2 1.7-5.77 2.15-6.05 4.94l-.3 3.08 13.3-.1c12.94-.07 13.3-.14 13.62-2.3zm-10.8-9.42c10.95.77 10.47.86 10.8-2.05.27-2.3-.32-3.03-3.9-4.86-7.12-3.63-21.8-1.45-22.73 3.37-.78 4.08.5 4.93 6.08 4.05 2.88-.45 7.27-.68 9.74-.5zm7-30.6c0-15.34.22-17.67 2-21 2.93-5.47 2.64-10.76-.8-14.2-5.42-5.4-16.66-4.86-21.63 1.05-3.08 3.64-3.2 5.95-.55 11.75 1.73 3.82 1.97 6.56 1.97 22v17.64h19v-17.26z"/><path d="M57.6 444.28c-26.36-5.7-46.72-24.42-54.83-50.4l-2.35-7.5v-163C.42 70.93.54 60 2.18 53.9 7.63 33.8 21.53 17.06 40.42 7.87 56.74-.07 48.1.4 179.42.4h117l7.95 2.3c13.33 3.85 22.9 9.48 32.64 19.16 7.13 7.1 9.4 10.15 13.28 18.04 8.22 16.65 7.7 3.77 7.4 186.26l-.26 162.23-2.33 7c-7.82 23.42-26.18 40.87-50.68 48.18-5.6 1.67-13.82 1.8-123 1.98-100 .17-118-.02-123.83-1.28zm245.62-4.13c24.6-6.94 42.18-24.3 49.4-48.76 1.65-5.62 1.8-16.2 2.07-161.98.17-95.13-.1-159.33-.68-164.58-2.64-23.67-16.1-42.93-37.3-53.4-16.2-8-9-7.63-141.1-7.32l-117.2.27L51.22 7c-18.1 6.62-32.27 18.53-39.96 33.55-7.9 15.47-7.43 2.9-7.12 185.82l.28 163 2.2 5.77c4.38 11.44 8.64 18.13 16.77 26.3 11.67 11.76 24.53 18.25 40.25 20.32 3.72.48 57.4.8 119.27.7l112.5-.15 7.8-2.2z"/></g></g></svg>