<svg xmlns="http://www.w3.org/2000/svg" width="358.8" height="446.547" viewBox="0 0 358.7999 446.54688"><g><g><path fill="#c2c6c1" d="M63.2 445.83c-26.9-3.2-50.84-22.43-59.77-48.02L.5 389.4.2 225.9C-.1 43.57-.53 55.6 6.9 40.25c7.13-14.76 18.8-26.06 34.37-33.3C57.3-.52 50.5-.2 182.5.14l118 .27 8.76 3.15c12.26 4.4 18.98 8.62 28.33 17.86 9.4 9.3 15.1 18.8 18.6 30.97l2.3 8.04v162.5c0 181.22.53 166.9-6.9 182.5-8.92 18.8-25.95 32.74-47.32 38.78l-7.8 2.2-113 .15c-62.14.1-116.26-.23-120.27-.7zm243.3-7.22c21.72-7.62 36.82-22.48 44.3-43.6l2.7-7.6.26-161.23c.23-139.94.07-162.2-1.23-168.5-4.77-23.12-23.62-43.03-48.02-50.72l-8-2.52-112.87-.3c-122.72-.3-123.1-.3-136.7 5.23-19.43 7.9-34.85 25.2-40.6 45.55C4.58 61.1 4.5 69.26 4.5 223.4v162l2.33 7.5c3.6 11.6 8.5 19.56 17.64 28.63 6.65 6.6 9.94 8.98 17.6 12.73 16.2 7.92 8.95 7.54 139.92 7.33l116.5-.2 8-2.8zm-156.15-52c-3.04-2.8-3.7-4.13-4.1-8.5l-.5-5.2 7.12-7 7.12-7V332.35l-5.5-3.97c-6.98-5.05-9.66-8.7-10.25-13.94-.62-5.44 2.24-11.1 9.37-18.57l5.37-5.64v-23.58l-4.74-4.62c-10.66-10.4-11.84-14.65-5.57-20.16 9.75-8.56 28.4-12.14 44.06-8.45 11.65 2.75 22.23 9.77 22.23 14.74 0 2.9-3.97 8.52-10.4 14.7l-4.6 4.47V289.46l5.55 5.88c7.02 7.42 9.44 12.13 9.44 18.35 0 4.1-.55 5.5-3.5 8.94-1.93 2.25-5.53 5.37-8 6.93l-4.5 2.84v26.33l6.94 6.7c4.02 3.9 7.2 7.86 7.55 9.45.83 3.82-2.1 10.6-5.7 13.16-4.08 2.92-12.12 2.26-17.72-1.45-3.32-2.2-5.17-2.68-10.3-2.67-5.3.02-6.97.5-10.7 3-3.52 2.4-5.45 2.98-9.75 2.98-4.68 0-5.83-.4-8.98-3.3zM188 353.38c0-26.46.53-24.8-7.95-24.87-2.5-.02-5.8.3-7.3.7l-2.76.75v46.96h18V353.4zm4-34.66c0-1-1.47-2.73-3.26-3.82-7.23-4.4-24.5-1.03-22.43 4.38.37.94 3.8 1.28 13.1 1.28 11.55 0 12.6-.16 12.6-1.84zm.46-10.58c.74-1.92-2.85-4.96-7.5-6.36-7.7-2.3-20.1 2.04-18.4 6.44.68 1.77 25.22 1.7 25.9-.08zM189 278.3c0-15.15.23-17.67 2.06-21.8 2.56-5.8 1.9-9.58-2.22-13.06-2.3-1.94-4.12-2.53-7.86-2.53-12.04 0-16.95 6.78-12 16.5 1.78 3.48 2 5.9 2.02 20.97v17.04h18v-17.1zm-34-64c-6.64-2.34-10-6.83-10-13.38 0-3.96.5-4.76 7-11.14l7-6.88-.03-13.24-.03-13.25-5.14-3.48c-13.9-9.44-14.26-19.34-1.18-33.05l5.37-5.64V90.94l-5.63-5.27c-5.93-5.55-9.48-11.66-8.64-14.87 1.3-4.94 14.3-12.04 25.58-13.94 13.1-2.2 28 .68 37.9 7.33 9.1 6.1 8.86 9.77-1.27 20.2L199 91.57v22.94l4.62 4.46c7.5 7.22 10.37 12.43 10.37 18.75 0 5.3-.14 5.55-5.94 11.23-3.27 3.2-6.87 6.1-8 6.46-1.95.6-2.07 1.4-2.07 14.12v13.46l6.37 5.97c8.25 7.7 9.46 10.5 7.18 16.47-3.23 8.45-9.85 11.14-18.4 7.47-2.8-1.22-5.6-2.83-6.25-3.6-.76-.9-3.3-1.4-7.46-1.4-5.23 0-7.14.52-11.13 2.96-4.82 2.95-10.5 4.42-13.3 3.43zm32-36.78c0-20.4-.2-23.47-1.6-24-2-.78-11.22-.76-14.16.02l-2.25.6V200.92h18v-23.38zm-8.5-33.06c2.2.02 5.8.25 8 .5 3.72.42 4 .28 4-2.05 0-5.46-12.75-7.88-21.26-4-2.9 1.3-4.25 2.54-4.25 3.88 0 2.52 1.62 3.14 6 2.3 1.92-.36 5.3-.64 7.5-.62zm12.5-13.08c0-6.78-21.48-7.97-25.53-1.43-1.82 2.95.37 3.55 12.9 3.5 12.02-.03 12.62-.13 12.62-2.07zm-3-28.95c0-15.1.23-17.55 2.15-22.17 1.9-4.6 2-5.56.83-8.4-1.74-4.2-6.4-6.94-11.8-6.94-10.54 0-16.02 7.62-11.6 16.15 1.28 2.48 1.56 6.4 1.46 20.7l-.12 17.64H188v-16.97z"/><path fill="#bebebe" d="M63.2 445.83c-26.9-3.2-50.84-22.43-59.77-48.02L.5 389.4.2 225.9C-.1 43.57-.53 55.6 6.9 40.25c7.13-14.76 18.8-26.06 34.37-33.3C57.3-.52 50.5-.2 182.5.14l118 .27 8.76 3.15c12.26 4.4 18.98 8.62 28.33 17.86 9.4 9.3 15.1 18.8 18.6 30.97l2.3 8.04v162.5c0 181.22.53 166.9-6.9 182.5-8.92 18.8-25.95 32.74-47.32 38.78l-7.8 2.2-113 .15c-62.14.1-116.26-.23-120.27-.7zm243.3-7.22c21.72-7.62 36.82-22.48 44.3-43.6l2.7-7.6.26-161.23c.23-139.94.07-162.2-1.23-168.5-4.77-23.12-23.62-43.03-48.02-50.72l-8-2.52-112.87-.3c-122.72-.3-123.1-.3-136.7 5.23-19.43 7.9-34.85 25.2-40.6 45.55C4.58 61.1 4.5 69.26 4.5 223.4v162l2.33 7.5c3.6 11.6 8.5 19.56 17.64 28.63 6.65 6.6 9.94 8.98 17.6 12.73 16.2 7.92 8.95 7.54 139.92 7.33l116.5-.2 8-2.8zM151.7 387.8c-3.44-2.56-5.73-6.83-5.73-10.68 0-3.24 3.22-7.73 9.74-13.6l4.25-3.82V332.05l-3.26-2.23c-4.95-3.4-9.76-8.1-11.33-11.1-3.13-6-.68-12.85 8.1-22.56l5.5-6.06V266.65l-7-7.37c-5.87-6.17-7-7.93-7-10.8 0-2.74.72-3.97 3.74-6.35 17.32-13.63 46.88-13.5 62.13.3 6.04 5.44 5.5 7.45-4.7 17.94l-6.18 6.37v23.76l4.55 4.46c14.68 14.35 14 24.6-2.3 35.04l-3.26 2.08v27.33l5.05 4.36c2.78 2.4 6.22 6.12 7.65 8.28 2.37 3.58 2.5 4.27 1.43 7.8-1.67 5.58-7.12 10.07-12.2 10.07-3.9 0-11.15-2.9-12.43-4.97-.34-.56-4.17-1.02-8.5-1.02-4.34 0-8.17.47-8.5 1.03-.36.56-2.4 1.9-4.53 3-5.1 2.6-11.65 2.54-15.25-.15zm36.04-34.62l-.27-23.75-4.5-.85c-2.94-.56-5.98-.46-8.76.3l-4.25 1.14v46.91h18.03l-.27-23.74zm4.23-35c0-7.17-24.78-6.85-25.8.35-.3 2.05.06 2.1 12.75 2.07 13.03-.04 13.04-.04 13.04-2.4zm.5-10.68c0-1.02-1.27-2.8-2.82-3.95-5.37-4-21.7-2.26-23.22 2.48-.33 1.05-.37 2.26-.1 2.7.3.46 6.28.8 13.32.73 11.78-.08 12.8-.24 12.8-1.95zm-3.25-30.07c.28-14.8.67-18.8 2.23-22.58 1.65-4.02 1.72-5 .56-7.8-1.7-4.1-5.64-6.1-12.05-6.1-11.5 0-16.07 7.07-11 17 1.76 3.45 2 5.9 2 20.7v16.8h17.91l.35-18zM153 213.17c-4.45-2.24-8-7.57-8-12 0-2.93 1.07-4.57 7-10.68l7-7.22v-13.64c0-12.92-.12-13.7-2.15-14.78-3.43-1.84-10.88-9.08-12.43-12.07-3.16-6.1-.53-13.4 8.17-22.6l5.4-5.7v-23.9l-7.07-7.28c-6.5-6.72-7.04-7.58-6.75-11.05.28-3.28 1-4.24 5.8-7.58 15.48-10.8 39.97-11.13 56.3-.76 2.53 1.58 5.34 4.04 6.27 5.46 2.4 3.66.55 7.54-7.27 15.22l-6.3 6.17v23.4l5.53 5.96c13 14.03 12.6 23.14-1.36 32.8l-5.05 3.5-.06 13.42-.05 13.4 6.46 6.2c3.56 3.4 6.9 7.35 7.45 8.77 2.05 5.36-2.8 13.54-9.33 15.7-3.78 1.24-8.36.08-13.72-3.46-5.36-3.55-15.5-3.63-20.17-.16-3.04 2.25-8.74 4.64-11.08 4.63-.6 0-2.67-.78-4.6-1.74zm33.76-36l-.27-23.75-6.47-.3c-3.56-.16-7.5-.04-8.75.28l-2.3.57v46.96h18.06l-.27-23.74zm-6.27-32.45c2.74.18 6.12.4 7.5.5 2.05.18 2.5-.23 2.5-2.3 0-3.38-5.33-5.98-12.3-5.98-8.72 0-14.43 3.36-12.82 7.56.5 1.28 1.46 1.4 5.36.75 2.6-.45 7-.68 9.75-.52zm10.95-12.52c.77-2-2.87-5.03-7.56-6.3-4.2-1.12-8.5-.8-14.6 1.15-3 .94-5.05 3.87-3.94 5.66.27.43 6.13.78 13.04.78 9.4 0 12.67-.32 13.05-1.3zm-3.46-29.9c0-15.13.23-17.65 2.06-21.8 2.56-5.77 1.9-9.56-2.22-13.04-2.32-1.96-4.1-2.53-7.95-2.53-11.97 0-16.7 6.38-12.4 16.67 1.13 2.7 1.5 7.75 1.5 20.72v17.1h19v-17.1z"/><path fill="#868f85" d="M63.66 445.8c-24.72-3.25-45.8-18.26-56.75-40.4C-.37 390.68.04 401.43 0 223.1 0 43.7-.5 55.94 7.3 39.9c3.34-6.87 5.83-10.2 13.16-17.6C30.4 12.3 38.2 7.35 50.83 3.04L58.5.4h240l7.46 2.36C326.6 9.24 342.7 22.6 351.4 40.44c7.55 15.45 7 1.97 7.34 176.47.2 96.62-.06 159.84-.66 165.2-3.36 30.1-24.13 53.62-55.1 62.4-6.1 1.73-13.02 1.85-119.5 2.02-62.3.1-116.05-.22-119.82-.72zm236.13-5.45c4.4-.9 11.73-3.5 17.13-6.1 7.8-3.77 10.85-5.97 17.62-12.75 6.55-6.54 9.04-9.93 12.35-16.78 7.6-15.68 7.16-3.92 6.86-184.56L353.5 58.4l-2.34-7c-5.73-17.2-17.8-31.27-33.42-38.95C300.14 3.82 310.46 4.4 179 4.4 48.1 4.4 57.73 3.9 41.1 12.04c-6.03 2.95-10.53 6.16-16 11.4C16.34 31.8 11.1 40 7.2 51.4l-2.73 8v163c0 155.15.08 163.33 1.83 169.5 5.7 20.23 21.65 37.96 40.52 45.08 12.87 4.85 10.62 4.77 131.44 4.85 99.34.07 114.76-.1 121.5-1.48zM151.7 387.78c-3.44-2.56-5.73-6.83-5.73-10.68 0-3.24 3.22-7.73 9.74-13.6l4.25-3.82V332.05l-3.26-2.23c-4.95-3.4-9.76-8.1-11.33-11.1-3.13-6-.68-12.85 8.1-22.56l5.5-6.06V266.65l-7-7.37c-5.87-6.17-7-7.93-7-10.8 0-2.74.72-3.97 3.74-6.35 17.32-13.63 46.88-13.5 62.13.3 6.04 5.44 5.5 7.45-4.7 17.94l-6.18 6.37v23.76l4.55 4.46c14.68 14.35 14 24.6-2.3 35.04l-3.26 2.08v27.33l5.05 4.36c2.78 2.4 6.22 6.12 7.65 8.28 2.37 3.58 2.5 4.27 1.43 7.8-1.67 5.58-7.12 10.07-12.2 10.07-3.9 0-11.15-2.9-12.43-4.97-.34-.56-4.17-1.02-8.5-1.02-4.34 0-8.17.47-8.5 1.03-.36.56-2.4 1.9-4.53 3-5.1 2.6-11.65 2.54-15.25-.15zm36.04-34.62l-.27-23.75-4.5-.85c-2.94-.56-5.98-.46-8.76.3l-4.25 1.14v46.91h18.03l-.27-23.74zm4.23-35c0-7.17-24.78-6.85-25.8.35-.3 2.05.06 2.1 12.75 2.07 13.03-.04 13.04-.04 13.04-2.4zm.5-10.68c0-1.02-1.27-2.8-2.82-3.95-5.37-4-21.7-2.26-23.22 2.48-.33 1.05-.37 2.26-.1 2.7.3.46 6.28.8 13.32.73 11.78-.08 12.8-.24 12.8-1.95zm-3.25-30.07c.28-14.8.67-18.8 2.23-22.58 1.65-4.02 1.72-5 .56-7.8-1.7-4.1-5.64-6.1-12.05-6.1-11.5 0-16.07 7.07-11 17 1.76 3.45 2 5.9 2 20.7v16.8h17.91l.35-18zM153 213.17c-4.45-2.24-8-7.57-8-12 0-2.93 1.07-4.57 7-10.68l7-7.22v-13.64c0-12.92-.12-13.7-2.15-14.78-3.43-1.84-10.88-9.08-12.43-12.07-3.16-6.1-.53-13.4 8.17-22.6l5.4-5.7v-23.9l-7.07-7.28c-6.5-6.72-7.04-7.58-6.75-11.05.28-3.28 1-4.24 5.8-7.58 15.48-10.8 39.97-11.13 56.3-.76 2.53 1.58 5.34 4.04 6.27 5.46 2.4 3.66.55 7.54-7.27 15.22l-6.3 6.17v23.4l5.53 5.96c13 14.03 12.6 23.14-1.36 32.8l-5.05 3.5-.06 13.42-.05 13.4 6.46 6.2c3.56 3.4 6.9 7.35 7.45 8.77 2.05 5.36-2.8 13.54-9.33 15.7-3.78 1.24-8.36.08-13.72-3.46-5.36-3.55-15.5-3.63-20.17-.16-3.04 2.25-8.74 4.64-11.08 4.63-.6 0-2.67-.78-4.6-1.74zm33.76-36l-.27-23.75-6.47-.3c-3.56-.16-7.5-.04-8.75.28l-2.3.57v46.96h18.06l-.27-23.74zm-6.27-32.45c2.74.18 6.12.4 7.5.5 2.05.18 2.5-.23 2.5-2.3 0-3.38-5.33-5.98-12.3-5.98-8.72 0-14.43 3.36-12.82 7.56.5 1.28 1.46 1.4 5.36.75 2.6-.45 7-.68 9.75-.52zm10.95-12.52c.77-2-2.87-5.03-7.56-6.3-4.2-1.12-8.5-.8-14.6 1.15-3 .94-5.05 3.87-3.94 5.66.27.43 6.13.78 13.04.78 9.4 0 12.67-.32 13.05-1.3zm-3.46-29.9c0-15.13.23-17.65 2.06-21.8 2.56-5.77 1.9-9.56-2.22-13.04-2.32-1.96-4.1-2.53-7.95-2.53-11.97 0-16.7 6.38-12.4 16.67 1.13 2.7 1.5 7.75 1.5 20.72v17.1h19v-17.1z"/><path fill="#7f7f7f" d="M63.66 445.8c-24.72-3.25-45.8-18.26-56.75-40.4C-.37 390.68.04 401.43 0 223.1 0 43.7-.5 55.94 7.3 39.9c3.34-6.87 5.83-10.2 13.16-17.6C30.4 12.3 38.2 7.35 50.83 3.04L58.5.4h240l7.46 2.36C326.6 9.24 342.7 22.6 351.4 40.44c7.55 15.45 7 1.97 7.34 176.47.2 96.62-.06 159.84-.66 165.2-3.36 30.1-24.13 53.62-55.1 62.4-6.1 1.73-13.02 1.85-119.5 2.02-62.3.1-116.05-.22-119.82-.72zm236.13-5.45c4.4-.9 11.73-3.5 17.13-6.1 7.8-3.77 10.85-5.97 17.62-12.75 6.55-6.54 9.04-9.93 12.35-16.78 7.6-15.68 7.16-3.92 6.86-184.56L353.5 58.4l-2.34-7c-5.73-17.2-17.8-31.27-33.42-38.95C300.14 3.82 310.46 4.4 179 4.4 48.1 4.4 57.73 3.9 41.1 12.04c-6.03 2.95-10.53 6.16-16 11.4C16.34 31.8 11.1 40 7.2 51.4l-2.73 8v163c0 155.15.08 163.33 1.83 169.5 5.7 20.23 21.65 37.96 40.52 45.08 12.87 4.85 10.62 4.77 131.44 4.85 99.34.07 114.76-.1 121.5-1.48zm-146.9-51.88c-3.5-1.97-5.72-5.55-6.52-10.53-.65-4.07-.58-4.18 6.98-11.75l7.63-7.64V332.25l-4.98-3.22c-7.74-5.02-11.03-9.6-11.03-15.38 0-6.22 2.68-11.43 9.56-18.53l5.43-5.6v-22.16l-6.45-6.4c-10.2-10.1-10.92-14.64-3.16-19.97 6.25-4.32 13.26-6.84 22.8-8.2 7-1 9.5-.95 16.08.4 8.93 1.83 16.77 5.17 21.46 9.14 2.52 2.13 3.25 3.54 3.25 6.2 0 2.93-1.1 4.64-7 10.87l-7 7.4v23.42l5.37 5.65c11.12 11.66 12.4 19.6 4.5 27.7-2.4 2.46-5.84 5.37-7.63 6.5l-3.25 2v26.82l7 6.88c6.34 6.23 7 7.25 7 10.86 0 4.54-3.2 10.03-7.04 12.05-3.74 1.97-10.25.88-15.77-2.66-4-2.56-5.9-3.13-10.5-3.13-4.72 0-6.38.53-10.1 3.15-5.27 3.72-12.56 4.77-16.7 2.42zm35.86-34.82l.27-23.77-2.58-.98c-3.3-1.26-10.6-1.27-13.9 0l-2.56.96v46.93l3.24.4c1.8.24 5.95.38 9.25.32l6-.1.26-23.77zm3.43-33.53c3.27-3.28-6.35-8.74-14.1-8-6.6.65-12.1 3.48-12.1 6.24 0 1.22.2 2.43.45 2.68.97.97 24.7.12 25.74-.92zM182 309.44c9.75-.02 10.5-.17 10.5-2 0-3.37-6-6.53-12.4-6.5-7 .02-14.1 3-14.1 5.87 0 2.2 2.86 4.32 4.47 3.3.57-.34 5.75-.64 11.52-.66zm9-51.8c2.57-4.2 2.56-9.74-.02-13.02-4.65-5.9-15.86-6.03-21.67-.22-3.83 3.84-4.12 6.5-1.3 12 1.77 3.5 2 5.9 2 21.82v17.9l5.74-.6c3.17-.33 7.33-.25 9.25.2l3.5.78.27-17.8c.24-15.68.5-18.2 2.24-21.05zm-38.9-45c-3.6-1.83-6.18-5.88-6.82-10.64-.56-4.2-.5-4.3 7.07-11.73l7.64-7.5V157.08l-4.92-3.6c-6.8-5-10.87-9.9-11.64-14-.93-4.96 3-12.88 9.9-19.96l5.65-5.78V91.72l-6.37-6.65c-9.6-10.04-10.7-13.32-5.9-17.84 7.47-7.04 25.85-12.07 37.85-10.38 9.2 1.3 18.15 4.56 23.66 8.6 7.57 5.55 6.6 10.05-4.5 20.6L199 90.57v23.58l5.37 5.8c6.9 7.46 10.04 13.8 9.36 18.92-.66 4.94-3.43 8.6-10.24 13.5l-5.5 3.98v27.44l5.03 4.24c8.53 7.2 10.7 12.63 7.48 18.83-4.08 7.92-11.57 9.18-20.94 3.54-4.85-2.9-6.76-3.5-11.56-3.5-4.02 0-6.16.5-7.07 1.6-3.8 4.6-13.73 6.78-18.84 4.15zm35.24-24.38c.36-7.52.65-18.27.65-23.9V154.1l-3.15-1.1c-4.02-1.4-8.7-1.4-12.7 0l-3.16 1.1v47.8h17.68l.66-13.64zm3.92-44.23c1.94-1.97-4.1-6.82-9.52-7.63-4.92-.74-12.32.87-15 3.26-1.63 1.46-2.32 4.34-1.3 5.37.25.25 5.88.4 12.52.35 8.23-.06 12.46-.5 13.3-1.35zm-17.4-10.17c2.95-.68 6.17-.67 9.96.03 4.65.85 5.85.77 7.12-.5 2-2 .57-4.4-4.02-6.73-7.34-3.75-21.93-.68-21.93 4.6 0 3.63 1.92 4.2 8.86 2.6zm6.63-14.4c.54.16 2.46.53 4.24.84l3.25.56V103.1c0-15.8.22-18.2 2-21.7 2.67-5.24 2.5-8.72-.58-12.4-5.18-6.15-15.47-6.2-21.58-.08-3.34 3.34-3.52 5.9-.82 11.85 1.73 3.82 1.97 6.56 1.97 22.07v17.7l5.24-.67c2.9-.37 5.7-.56 6.25-.4z"/><path fill="#475145" d="M59.76 444.88c-22.23-3.74-42.5-18.7-52.2-38.44C-.07 390.82.5 405.74.5 222.9V59.4l2.34-7.5c4.02-12.86 8.7-20.62 18.1-30.04 9.5-9.5 18.77-15.02 32.08-19.1L60.5.45l113-.32c76.28-.22 115.64.03 121.14.75 25.78 3.38 46.57 18.18 56.9 40.5 6.83 14.8 6.46 4.24 6.44 181.7-.02 179.88.5 167.35-7.62 183.8-3.8 7.7-6.2 10.98-12.85 17.64-6.94 6.95-9.72 8.92-18.58 13.22-17.78 8.6-10.22 8.17-140.13 8.04-62.87-.07-116.44-.48-119.04-.92zm233.23-3c28.68-3.72 51.27-22.84 59.6-50.47 1.72-5.65 1.84-14.82 2.16-161.5.23-105.22 0-158.47-.72-164.7-1.9-16.6-7.87-29.03-19.56-40.75-8.14-8.17-16.73-13.48-28-17.3l-8-2.74h-239l-8 2.84c-12 4.24-18.1 8.14-27.52 17.6-8.66 8.7-12.8 15.13-17.26 26.8L4.5 57.4 4.22 220.2c-.3 180.33-.7 168.88 6.23 183.2 9.92 20.53 31.1 35.5 54.53 38.55 8.56 1.12 219.34 1.07 228-.05zm-140.1-53.4c-3.5-1.98-5.72-5.56-6.52-10.54-.65-4.07-.58-4.18 6.98-11.75l7.63-7.64V332.25l-4.98-3.22c-7.74-5.02-11.03-9.6-11.03-15.38 0-6.22 2.68-11.43 9.56-18.53l5.43-5.6v-22.16l-6.45-6.4c-10.2-10.1-10.92-14.64-3.16-19.97 6.25-4.32 13.26-6.84 22.8-8.2 7-1 9.5-.95 16.08.4 8.93 1.83 16.77 5.17 21.46 9.14 2.52 2.13 3.25 3.54 3.25 6.2 0 2.93-1.1 4.64-7 10.87l-7 7.4v23.42l5.37 5.65c11.12 11.66 12.4 19.6 4.5 27.7-2.4 2.46-5.84 5.37-7.63 6.5l-3.25 2v26.82l7 6.88c6.34 6.23 7 7.25 7 10.86 0 4.54-3.2 10.03-7.04 12.05-3.74 1.97-10.25.88-15.77-2.66-4-2.56-5.9-3.13-10.5-3.13-4.72 0-6.38.53-10.1 3.15-5.27 3.72-12.56 4.77-16.7 2.42zm35.86-34.83l.27-23.77-2.58-.98c-3.3-1.26-10.6-1.27-13.9 0l-2.56.96v46.93l3.24.4c1.8.24 5.95.38 9.25.32l6-.1.26-23.77zm3.43-33.53c3.27-3.28-6.35-8.74-14.1-8-6.6.65-12.1 3.48-12.1 6.24 0 1.22.2 2.43.45 2.68.97.97 24.7.12 25.74-.92zM182 309.44c9.75-.02 10.5-.17 10.5-2 0-3.37-6-6.53-12.4-6.5-7 .02-14.1 3-14.1 5.87 0 2.2 2.86 4.32 4.47 3.3.57-.34 5.75-.64 11.52-.66zm9-51.8c2.57-4.2 2.56-9.74-.02-13.02-4.65-5.9-15.86-6.03-21.67-.22-3.83 3.84-4.12 6.5-1.3 12 1.77 3.5 2 5.9 2 21.82v17.9l5.74-.6c3.17-.33 7.33-.25 9.25.2l3.5.78.27-17.8c.24-15.68.5-18.2 2.24-21.05zm-38.9-45c-3.6-1.83-6.18-5.88-6.82-10.64-.56-4.2-.5-4.3 7.07-11.73l7.64-7.5V157.08l-4.92-3.6c-6.8-5-10.87-9.9-11.64-14-.93-4.96 3-12.88 9.9-19.96l5.65-5.78V91.72l-6.37-6.65c-9.6-10.04-10.7-13.32-5.9-17.84 7.47-7.04 25.85-12.07 37.85-10.38 9.2 1.3 18.15 4.56 23.66 8.6 7.57 5.55 6.6 10.05-4.5 20.6L199 90.57v23.58l5.37 5.8c6.9 7.46 10.04 13.8 9.36 18.92-.66 4.94-3.43 8.6-10.24 13.5l-5.5 3.98v27.44l5.03 4.24c8.53 7.2 10.7 12.63 7.48 18.83-4.08 7.92-11.57 9.18-20.94 3.54-4.85-2.9-6.76-3.5-11.56-3.5-4.02 0-6.16.5-7.07 1.6-3.8 4.6-13.73 6.78-18.84 4.15zm35.24-24.38c.36-7.52.65-18.27.65-23.9V154.1l-3.15-1.1c-4.02-1.4-8.7-1.4-12.7 0l-3.16 1.1v47.8h17.68l.66-13.64zm3.92-44.23c1.94-1.97-4.1-6.82-9.52-7.63-4.92-.74-12.32.87-15 3.26-1.63 1.46-2.32 4.34-1.3 5.37.25.25 5.88.4 12.52.35 8.23-.06 12.46-.5 13.3-1.35zm-17.4-10.17c2.95-.68 6.17-.67 9.96.03 4.65.85 5.85.77 7.12-.5 2-2 .57-4.4-4.02-6.73-7.34-3.75-21.93-.68-21.93 4.6 0 3.63 1.92 4.2 8.86 2.6zm6.63-14.4c.54.16 2.46.53 4.24.84l3.25.56V103.1c0-15.8.22-18.2 2-21.7 2.67-5.24 2.5-8.72-.58-12.4-5.18-6.15-15.47-6.2-21.58-.08-3.34 3.34-3.52 5.9-.82 11.85 1.73 3.82 1.97 6.56 1.97 22.07v17.7l5.24-.67c2.9-.37 5.7-.56 6.25-.4z"/><path fill="#0e1f0b" d="M57.55 444.26c-26.66-5.7-48.22-26.12-55.3-52.35C.6 385.85.5 374.73.5 222.9.5 70 .6 60.04 2.27 53.96 7.9 33.55 21.55 17.1 40.48 7.88 56.82-.05 48.2.4 179.5.4h117l7.96 2.3c23.9 6.93 42.24 23.98 50.24 46.7l2.8 8v331l-2.7 8c-6.9 20.26-21.95 36.16-41.8 44.17-13.37 5.4-11.96 5.35-134.82 5.26-96.67-.07-114.7-.3-120.6-1.57zm246.43-4.2c24.87-7.6 42.1-24.97 48.73-49.15 1.7-6.1 1.8-16.1 1.8-168 0-180.97.6-165.8-7.3-182-5.6-11.47-17.7-23.23-30.2-29.37-16.24-7.96-9.26-7.58-137.8-7.6C51.54 3.9 57.74 3.6 42.5 10.95c-14.65 7.06-25.17 17.4-32 31.48C3.62 56.55 4.02 45.43 4 223c0 156.6.04 160.8 1.97 168.3 3.06 12 8.22 20.9 17.48 30.2 11.7 11.76 24.55 18.24 40.27 20.3 3.73.5 57.62.82 119.77.73l113-.18 7.48-2.3zM154.4 389c-2.97-1.28-7.13-6.54-7.88-10-.9-4.1 1.3-7.85 8.44-14.32l6.03-5.46v-27.14l-3.26-2.08c-16.26-10.4-16.97-20.96-2.37-35.04l4.62-4.46v-23.8l-6.95-7c-8.48-8.57-9.52-11.65-5.4-15.93 4.05-4.24 13.57-8.62 22.83-10.5 6.62-1.36 9.23-1.45 15.23-.52 9.66 1.5 17.38 4.32 23.1 8.42 7.5 5.4 7.03 9-2.36 18.73l-6.45 6.67v23.53l5.48 6.06c9.2 10.17 11.44 17.1 7.57 23.44-1.93 3.16-11.4 11.3-13.15 11.3-.5 0-.9 6.34-.9 14.2v14.16l7 7.22c7.83 8.08 8.7 11.1 5 17.2-4.26 7-11.6 7.8-20.36 2.22-6.74-4.27-14.5-4.24-21.47.1-5.23 3.25-11.3 4.48-14.76 3zm34.6-35.05c0-22.67-.1-24.02-1.94-25-2.44-1.3-11.12-1.35-14.5-.06l-2.57.96v46.92l2.74.42c1.52.23 5.8.48 9.5.56l6.75.15v-23.95zm3.5-34.96c0-4.24-4.6-6.6-12.83-6.56-8.55.03-13.68 2.2-13.68 5.83 0 1.27.2 2.5.43 2.74.23.25 6.2.42 13.25.4 12.8-.05 12.8-.05 12.8-2.4zm-8.2-9.3l8.83.28-.32-2.78c-.92-8.18-25.5-8.54-26.64-.4-.44 3.13 1.52 4.25 5.83 3.35 1.92-.4 7.46-.6 12.3-.45zm6.94-52.5c6.4-11.7-5.76-21.57-18.82-15.25-5.98 2.9-7.44 6.72-4.9 12.87 1.55 3.8 1.94 7.8 2.22 22.97l.34 18.36 5.7-.6c3.15-.32 7.3-.25 9.2.17l3.5.77.5-18.04c.42-14.63.85-18.65 2.26-21.25zm-39.78-45.08c-3.86-2.43-6.97-9.08-6.02-12.86.4-1.52 3.82-5.8 7.63-9.48l6.92-6.72v-27.09l-2.92-1.5c-4.9-2.53-12.7-10.8-13.37-14.2-1.23-6.2 3.06-14.22 12.17-22.78l3.12-2.94V90.87l-5.57-5.3c-10.37-9.9-11.55-13.6-5.9-18.55 15.7-13.8 47.65-13.55 62.8.5 4.62 4.3 3.2 8.58-5.76 17.36L199 90.35V115.22l5.37 5.64c5.93 6.2 9.62 12.57 9.62 16.55 0 4.94-4.55 10.78-12.76 16.4l-3.25 2.23v27.66l7 7c7.82 7.83 8.72 10.87 5.04 16.9-4.3 7.08-12.72 8.04-20.75 2.4-3.7-2.63-5.27-3.1-10.42-3.1-5.2 0-6.68.46-10.44 3.16-5.6 4.02-12.52 4.86-16.98 2.06zm35.88-22.96c.35-7 .65-17.82.65-24.02 0-11.2-.03-11.28-2.57-12.25-1.4-.55-4.53-1-6.94-1-2.4 0-5.53.45-6.94 1l-2.57.96v48.03H186.68l.64-12.74zm4.47-45.98c.24-1.6-.57-2.76-2.96-4.2-5.1-3.12-10.96-3.6-17.6-1.43-5.2 1.7-5.77 2.15-6.05 4.94l-.3 3.07 13.3-.08c12.93-.1 13.3-.16 13.6-2.32zm-13.3-9.68c1.64 0 4.8.3 7 .7 5.02.92 6.98-.23 6.13-3.6-.88-3.52-7.82-6.1-14.86-5.5-8.94.76-13.12 3.88-11.35 8.48.5 1.27 1.46 1.4 5.34.74 2.6-.44 6.08-.8 7.73-.82zm9.5-30.38c0-15.3.22-17.73 2-21.2 2.9-5.7 2.62-10.53-.8-13.96-5.42-5.4-16.66-4.86-21.63 1.05-3.1 3.68-3.25 7.16-.58 12.4 1.77 3.5 2 5.9 2 21.47v17.54h19v-17.28z"/><path d="M57.55 444.26c-26.66-5.7-48.22-26.12-55.3-52.35C.6 385.85.5 374.73.5 222.9.5 70 .6 60.04 2.27 53.96 7.9 33.55 21.55 17.1 40.48 7.88 56.82-.05 48.2.4 179.5.4h117l7.96 2.3c23.9 6.93 42.24 23.98 50.24 46.7l2.8 8v331l-2.7 8c-6.9 20.26-21.95 36.16-41.8 44.17-13.37 5.4-11.96 5.35-134.82 5.26-96.67-.07-114.7-.3-120.6-1.57zm246.43-4.2c24.87-7.6 42.1-24.97 48.73-49.15 1.7-6.1 1.8-16.1 1.8-168 0-180.97.6-165.8-7.3-182-5.6-11.47-17.7-23.23-30.2-29.37-16.24-7.96-9.26-7.58-137.8-7.6C51.54 3.9 57.74 3.6 42.5 10.95c-14.65 7.06-25.17 17.4-32 31.48C3.62 56.55 4.02 45.43 4 223c0 156.6.04 160.8 1.97 168.3 3.06 12 8.22 20.9 17.48 30.2 11.7 11.76 24.55 18.24 40.27 20.3 3.73.5 57.62.82 119.77.73l113-.18 7.48-2.3z"/></g></g></svg>