<svg xmlns="http://www.w3.org/2000/svg" width="358.882" height="446.679" viewBox="0 0 358.88211 446.67929"><g><g><path fill="#dc8c8f" d="M63.88 446.02c-16.3-2-32.04-9.76-43.5-21.42-8.2-8.34-13.5-16.93-17.28-28.06l-2.72-8v-164.5c0-154.1.1-164.9 1.76-170.9C8.84 28.95 26.9 10.7 51.88 2.9l7.5-2.34h240l7.5 2.34c24.73 7.72 42.17 25.16 49.66 49.66 1.75 5.72 1.84 13.78 1.84 171v165l-2.73 8c-3.88 11.4-9.16 19.87-17.77 28.5-8.9 8.9-18.72 14.73-31.5 18.68l-9 2.8-113.5.14c-62.43.1-116.43-.2-120-.64zm242.5-7.2c17.92-6.1 32.92-18.68 40.33-33.8 7.73-15.77 7.18-1.9 7.16-181.44 0-178.1.4-166.92-6.5-181.03-6.65-13.67-17.53-24.25-31.98-31.13-15.4-7.3-6.8-6.88-136-6.88-108.04 0-116.45.12-122.5 1.78-20.3 5.54-37.18 19-45.52 36.23-6.85 14.16-6.45 3-6.47 181.03-.03 179.06-.53 165.75 6.9 180.96 8.8 17.92 26.5 31.34 47.58 36.03 4.84 1.08 28.47 1.3 122.5 1.15l116.5-.18 8-2.72zM147.44 390.8c1.03-1.25 3.02-3.53 4.4-5.1l2.54-2.8-2.5.57c-1.38.33-5.77 1.2-9.75 1.93-7.65 1.4-8.57.96-5.74-2.77 1.1-1.5 4.47-2.4 14.96-4.07 7.43-1.18 13.52-1.87 13.52-1.52 0 .34-3.2 4.08-7.1 8.3-5.3 5.77-7.72 7.7-9.64 7.7-2.56 0-2.56 0-.7-2.25zm49.44-3.34c0-.45 1.43-2.3 3.18-4.1 1.75-1.8 2.9-3.56 2.6-3.88-.34-.33-3.36.18-6.73 1.13-4.8 1.35-6.67 1.48-8.6.6-1.35-.6-2.45-1.47-2.45-1.9 0-.76 29.35-9.26 31.96-9.26 1.24 0-1.32 3.25-9.7 12.3-3.96 4.3-10.26 7.43-10.26 5.12zm-44.73-12.23c-.87-.56.66-3.6 5.35-10.62l6.58-9.82-.68-6.32-.67-6.32-4.68-.55c-11.07-1.3-15.65-2.6-19.16-5.43-3.4-2.72-3.8-2.8-6.37-1.46-5.22 2.75-23.18 8.1-33.02 9.86-11.03 1.97-22.54 1.6-31.4-1.05-6.93-2.04-7.7-4.64-3.63-12.4 4.1-7.86 13.42-19.96 20.02-26 7.76-7.1 13.1-10.66 25.85-17.22 12.63-6.5 13.5-5.64-8.25-8.15-11.53-1.32-14.26-2-13.05-3.2.27-.27 7.85-.83 16.83-1.24 11.63-.54 16.45-1.12 16.75-2 .23-.7-.04-1.26-.6-1.26-1.04 0-32.33-12.85-33.07-13.6-1.42-1.4 1.82-1.22 10 .56 5.12 1.12 9.68 2.04 10.12 2.04.44 0 .8-1.46.82-3.25.04-5.77 3.7-20.04 7.32-28.44l3.52-8.18-6.38-4.15c-12.8-8.33-10.6-9.67 3.06-1.88 14.64 8.36 21.23 13.52 35.55 27.82 10.22 10.2 13.9 14.56 14.87 17.57.7 2.2 3.85 8.05 7 13 3.15 4.95 6.97 11.14 8.48 13.75 3.02 5.2 3.3 5.37 6.1 3.34 1.84-1.35 1.78-1.64-1.86-8.8-2.07-4.08-7.16-11.35-11.3-16.15-6.92-8.02-8.6-11.66-5.4-11.66.66 0 1.02-7.7 1.02-22.44 0-21.87.5-25.47 3.13-22.83.53.52 1.24 10.27 1.58 21.66.55 18.4.8 20.63 2.2 20.04.88-.36 2.38-.88 3.35-1.16 1.6-.45 1.75-2.32 1.75-20.88 0-19.08-.12-20.38-1.83-20.38-1 0-4.04-1.12-6.74-2.48-4.1-2.1-5.76-2.4-10.4-1.87-3.04.32-7.55 1.38-10.02 2.34-10.82 4.18-28.52 5.65-42.67 3.53-3.94-.6-4.37-.96-5.48-4.65-1.42-4.74-2.03-5.1-12.1-7.32-4.26-.93-7.74-2.1-7.74-2.6s.9-2.4 2-4.2c1.1-1.8 2-3.54 2-3.88 0-.74-15.27-5.88-17.47-5.88-3.5 0-1.1-2.05 4.38-3.74l5.9-1.8-6.92-2.87c-3.8-1.56-7.15-3.2-7.42-3.64-.27-.45 2.1-1.37 5.27-2.05 9.06-1.93 9.3-2.35 3.28-5.4-6.4-3.25-6-3.62 6.34-6.07 9.48-1.88 9.5-2.38.16-4.46l-6-1.34 4-.76c2.2-.42 5.8-.83 8-.9l4-.15-5.35-2.52c-2.93-1.4-4.96-2.86-4.5-3.26.47-.42 4.67-1.83 9.35-3.15l8.5-2.4-7.75-.88c-4.27-.48-7.75-1.23-7.75-1.68 0-.45 2.58-1.34 5.75-1.97 11.36-2.3 11.16-2.16 5.9-3.7-2.6-.75-4.5-1.75-4.2-2.22.3-.45 2.66-1.15 5.28-1.54 6.4-.96 6.8-1.34 4.23-4.07l-2.2-2.34 3.35-.87 3.35-.88-4.72-1.94c-2.6-1.07-4.72-2.28-4.72-2.7 0-.4 2.8-.74 6.23-.74h6.24l-3.73-2.54c-2.04-1.4-3.72-2.8-3.72-3.12 0-.33 1.9-.3 4.25.05 2.86.43 3.77.33 2.78-.32-1.8-1.17-1.47-1.46 2.98-2.68l3.5-.96-5.75-3.44c-5.97-3.58-7.4-5.4-3.5-4.5 11.7 2.7 14.74 3.25 14.72 2.68 0-.36-.9-1.8-1.97-3.16-2.9-3.7-2.48-4.3 2.6-3.54 5.1.77 5.1.77.47-5.38l-2.57-3.42 3.5.63c1.92.35 4.53.93 5.78 1.3 2.16.62 2.22.5 1.1-1.97-1.6-3.5-.9-3.94 3.47-2.12l3.67 1.54-.66-5.56-.65-5.56 5.17 2.04c2.85 1.12 5.4 2.04 5.64 2.04.27 0 .48-2.25.48-5 0-2.88.45-5 1.07-5 .58 0 2.98 1.32 5.32 2.93l4.26 2.93-.45-5.43c-.25-3-.06-5.42.42-5.4.48 0 2.45 2.33 4.36 5.16l3.5 5.14.73-4.36c1.15-6.76 1.35-6.8 4.06-.96l2.55 5.5.1-6.95c.1-7.76.86-7.77 3.92-.06 1.2 3.06 2.17 4.42 2.5 3.5.27-.83 1.03-3.22 1.68-5.32 1.33-4.32 2.03-4.1 3.5 1.13l1.03 3.65 1.85-4.98c1.02-2.74 2.2-5.37 2.64-5.84.43-.48 1.6 1.68 2.57 4.8l1.78 5.67 1.82-3.56c1-1.96 2.2-3.56 2.67-3.56.47 0 1.92 1.56 3.22 3.46l2.36 3.46 1.08-3.7 1.1-3.72 1.48 5 1.5 5 2.92-5.24c1.62-2.88 3.24-5.24 3.62-5.25.37 0 1 3.62 1.38 8.06l.7 8.1 4.16-4.1c2.28-2.23 4.47-4.06 4.86-4.06.4 0 .72 2.52.72 5.6 0 4.1.34 5.48 1.25 5.12.68-.28 3.18-1.28 5.54-2.24 2.36-.95 4.58-1.44 4.94-1.08.37.36-.55 3.12-2.03 6.14l-2.7 5.5 5.1-2.6c2.8-1.4 5.27-2.4 5.46-2.22.2.2-.23 2.9-.95 6.03l-1.32 5.65 3.48-1.46c4.53-1.9 5.48-1.84 4.85.3-1.84 6.15-1.92 7.57-.4 6.98.84-.32 3.72-.86 6.4-1.2l4.88-.65-3.86 3.5-3.86 3.5 6.36.3 6.36.3-6.34 4.5-6.35 4.5 4.34.3c7.54.48 7.64.83 1.94 6.6-5.03 5.1-5.16 5.36-2.93 5.96 1.28.33 3.54.62 5.02.63 4.12.02 4.2 1.55.2 4.83l-3.6 2.98 8.6.72c4.73.4 8.6 1 8.58 1.35 0 .36-2.48 2.4-5.5 4.56-3 2.16-5.47 4.05-5.47 4.2 0 .16 3.82 0 8.5-.32 4.67-.33 8.5-.3 8.5.1 0 .37-3.66 2.32-8.12 4.33-8.78 3.96-8.76 4.95.12 5.32 2.47.1 5.85.5 7.5.86 2.94.68 2.86.76-3.9 4.22l-6.88 3.53 3.64 2.25c4.18 2.6 4.66 4.1 1.3 4.1-3.47 0-3.83.95-1.57 4.13l2.04 2.86h-5.06c-5.2 0-6.2.82-3.56 3 2.5 2.07 1.76 2.82-4.53 4.6-3.32.92-6.2 1.97-6.42 2.32-.34.55 1.16 9.1 2.96 16.83.46 2.02.14 2.24-3.25 2.25-2.08 0-4.78.3-6 .6-1.86.5-2.05.93-1.17 2.6.58 1.07.8 2.23.46 2.56-.32.33-4.3.8-8.84 1.03-6.48.34-9.72-.02-15.1-1.68-3.76-1.16-7.24-2.1-7.73-2.1-.5 0-.9 4.66-.9 10.37 0 9.93.1 10.4 2.26 11 1.23.32 2.57.6 2.96.6.38 0 .83-3.92 1-8.73.26-8.22.42-8.78 2.53-9.08 2.2-.3 2.25-.12 2.25 9.77 0 9.98.02 10.1 2.64 11.1 1.45.54 2.75.87 2.88.72.14-.16.64-4.1 1.12-8.78.76-7.55 1.08-8.5 2.86-8.5 1.9 0 1.98.55 1.65 10.06l-.34 10.06 4.33 1.87c2.4 1.03 4.6 2.02 4.94 2.22.32.2 3.15-3 6.28-7.08 6.86-8.96 18.23-19.94 26.25-25.35 14.42-9.7 22.37-12.65 11.7-4.32-9.74 7.6-25.2 23.07-31.4 31.4-3.26 4.36-5.92 8.3-5.92 8.75 0 .45 1.9 2.58 4.2 4.73l4.2 3.92 3.94-5.63c2.16-3.1 6-8.06 8.54-11.03 5.08-5.95 17.06-16.5 17.85-15.7.28.27-2.67 4.46-6.55 9.3-3.9 4.84-9.62 13.22-12.75 18.62l-5.7 9.8 3.16 4.2c4.9 6.52 10.8 17.4 14.23 26.18 3.8 9.77 8.12 26.4 7.37 28.38-.47 1.22-4.65 1.33-28.4.75l-27.84-.7-1.1 4.4c-1.86 7.34-14.47 16.7-24.76 18.38-3.4.55-3.4.55-3.38 6.17 0 6.4.6 7.77 3.6 8.27 3.1.5 1.37 4.84-1.93 4.84-1.82 0-3.7 1.85-8.06 7.9-3.12 4.35-6.35 8.16-7.15 8.47-1.45.57-4.47-.14-4.47-1.04 0-.25 2.92-4.2 6.5-8.78l6.5-8.33v-15.89l-4.75.8c-2.62.44-11.17 1.1-19 1.5l-14.25.7v3.1c.03 5.45 1.04 7.58 3.58 7.58 2.02 0 2.23.32 1.53 2.25-.47 1.23-1.78 2.38-2.93 2.55-1.4.2-4 3.3-7.73 9.25-5.45 8.63-7.2 10.03-10.2 8.13zm-62.27-39.45c1.37-2.33 2.65-4.58 2.83-5 .2-.4-4.18-.74-9.7-.74H72.92l-1.6 3.1c-1.96 3.78-1.26 4.66 4.62 5.8 9.53 1.88 11.18 1.5 13.93-3.16zm28.93-2.3c13.3-4.27 14.13-4.7 13.5-6.75-.37-1.2-.73-2.26-.8-2.34-.07-.1-6.42.92-14.12 2.23-7.7 1.3-14.3 2.4-14.66 2.4-.7 0-5.84 8.42-5.84 9.57 0 1.27 7.6-.5 21.93-5.1zm87.08.75c14.45-2.6 22.8-7.12 26.6-14.4 6.23-11.93-8.12-26.94-26.02-27.2-9.32-.12-14.23 1.86-25.65 10.36-10.83 8.05-16.7 11.15-22.3 11.78-7.7.85-12.5-5.93-10.5-14.82 1.23-5.46 2.1-6.98 7.4-12.96 7.14-8.02 8.8-12.12 8.23-20.18-.55-7.67-1.88-9.78-8.17-13-5.86-2.98-16-2.23-20.96 1.56-5.9 4.5-7.13 7.14-7.06 15.12.07 7.87 1.8 12.24 5.95 14.96 1.43.94 3.92 3.8 5.54 6.34 3.58 5.65 3.83 11 .84 17.9-1.15 2.66-2.3 7.3-2.56 10.34-.8 9.54 4.24 14.58 16.16 16.1 10.17 1.3 40.9.18 52.5-1.9zm-66.08-60.1c-3.55-3.57-3.74-7.03-.58-10.7 4.64-5.4 13.7-1.8 13.62 5.42-.03 3.1-1.53 5.37-4.65 7.03-3.38 1.8-5.23 1.4-8.4-1.76zm7.88-5.22c.32-2.78-1.63-4.25-4.3-3.22-1.82.7-2 5-.25 5.7 2.5 1.04 4.25.1 4.55-2.47zm-47.02 50.64l3.18-4.5H83.1l-2.43 3.25c-4.5 6-4.8 5.74 6.45 5.74H97.5l3.16-4.5zm16.22 2c13.9-2.22 15-2.52 15-4.08 0-.97-1.18-1.42-3.75-1.43-2.07 0-6.7-.28-10.3-.62l-6.52-.6-2.72 4.12c-1.5 2.26-2.4 4.12-1.97 4.12.43 0 5.05-.7 10.28-1.5zm17.47-14.06c.95-2.5 1.44-4.86 1.08-5.22-.36-.36-3.7-.83-7.44-1.04l-6.8-.4-3.15 4.3c-1.73 2.35-3 4.43-2.82 4.6.2.2 3.67.73 7.74 1.2s7.9.92 8.52 1c.6.06 1.9-1.93 2.85-4.44zm153.4 2.67c.97-.63 1.15-2 .65-4.95-.66-3.94-.8-4.06-3.85-3.5-5.6 1.03-14.87 3.2-15.24 3.57-.18.2-.1 1.33.22 2.5.47 1.8 1.44 2.23 5.7 2.54 10.03.7 11.17.7 12.52-.15zm-24.87-1.6c0-1.84-.35-1.84-6-.06l-4.5 1.4 5.25.07c4.03.05 5.25-.28 5.25-1.43zm-151.12-3.5l3.2-4h-7.9c-7.5 0-8.13.17-12.54 3.54-2.55 1.94-4.64 3.74-4.64 4 0 .24 4.2.44 9.33.44h9.34l3.22-4zm49.9 3.15c.83-.53-.3-1.17-3.26-1.85-5.05-1.15-5.17-1.1-2.95 1.12 1.7 1.7 4.2 2 6.2.73zm88.37-2.8c5.4-2.02 9.84-4.16 9.83-4.76-.03-2.32-1.8-3.88-3.63-3.2-3.3 1.22-17.35 9.97-17.35 10.8 0 1.22.56 1.07 11.15-2.85zm-78.26-2.27c1.7-1.07-.46-4.4-6.8-10.55l-4.1-3.95-2.96 3.45c-3 3.52-4.6 6.73-3.74 7.58.62.6 12.77 4.12 14.72 4.25.82.06 2.12-.3 2.9-.77zm73.82-5.75c9.85-5.9 9.68-5.72 8.16-8.15-1.25-2-1.4-1.96-6.83 1.87-9.2 6.48-11.42 8.53-10.66 9.77.98 1.6.58 1.74 9.32-3.5zm31.78-.55c4.4-1.1 8.12-2.13 8.27-2.26.15-.13-.53-2.08-1.5-4.33l-1.77-4.1-8.8 3.34c-4.84 1.82-9.06 3.58-9.38 3.9-.33.33-.02 1.98.68 3.68.92 2.22 1.73 2.9 2.9 2.44.87-.35 5.2-1.55 9.6-2.67zm-95.5-1.5c0-.26-2.8-5.12-6.2-10.8l-6.2-10.35-2.63 5.18-2.63 5.18 4.67 4.54c2.55 2.5 5.44 5.74 6.4 7.2 1.68 2.56 1.87 2.6 4.17 1.1 1.32-.86 2.4-1.78 2.4-2.05zm-47.66-1.3c-2.14-3.6-2.38-3.64-5.27-.57l-2.28 2.43 2.85.4c6.78 1.03 6.67 1.08 4.7-2.26zm-10.26-2.47c2.63-2.46 4.35-4.75 3.8-5.1-.54-.32-5.1 1.36-10.13 3.74l-9.16 4.34 4.45.6c2.45.33 4.86.67 5.35.75.5.07 3.05-1.88 5.7-4.34zm117.1-3.02c7.58-5.65 7.68-5.78 6.14-8.12-.85-1.3-1.9-2.38-2.3-2.38-.9 0-9.25 6.23-14.2 10.6l-3.67 3.26 2.17 1.52c1.2.83 2.63 1.37 3.18 1.2.55-.18 4.46-2.9 8.7-6.08zm-14.93-3.04c3.6-3.36 4.54-6.22 3.18-9.77-.47-1.25-2.03-1.08-10.5 1.12l-9.92 2.58v3.8c0 3.6.17 3.8 3.25 3.9 1.78.06 4.37.47 5.75.9 3.93 1.27 4.28 1.16 8.25-2.53zm44-1.3c4.8-2.35 8.75-4.44 8.75-4.66 0-.22-.53-1.57-1.18-3-1.38-3-1.28-3.03-12.57 3.1l-8.24 4.5 1.62 2.48c.9 1.37 1.9 2.34 2.25 2.16.33-.2 4.54-2.25 9.36-4.6zm-68 2.85c1.9 0 2.46-3.45.73-4.52-.93-.57-7.98 1.2-7.98 2 0 2.14 1.58 3.6 3.38 3.1 1.17-.3 2.9-.57 3.87-.58zm.13-14.9c-.36-2-.7-3.65-.77-3.7-.07-.05-2.9 1-6.32 2.32l-6.2 2.4 1.56 3.28 1.56 3.28 5.4-2 5.4-2-.64-3.6zm60.97 1.4c4.7-2.76 8.58-5.6 8.6-6.3.1-2.8-3.45-2.3-11.27 1.64-11.76 5.9-11.46 5.62-9.22 8.1 2.24 2.47 1.25 2.76 11.9-3.46zM244 271.26c-.42-.15-2.53.1-4.7.54-3.3.7-3.97 1.26-4.25 3.58l-.32 2.77 5.02-3.3c2.75-1.82 4.67-3.43 4.25-3.58zm-31.05 1.34c2.43-.78 6.93-2.12 9.98-2.96 5.53-1.54 5.55-1.55 5.14-5.07-.5-4.3-.97-4.33-11.9-1l-8.3 2.53v3.97c0 2.18.15 3.97.33 3.97.18 0 2.3-.64 4.75-1.43zm-18.73-7.26l6.9-2.7-.68-6.52c-.36-3.58-.84-6.7-1.05-6.9-.53-.52-9.78 2.56-16.35 5.44l-5.32 2.34 4.3 5.52c2.38 3.03 4.54 5.52 4.8 5.52.28 0 3.6-1.22 7.4-2.7zm52.38-1.1c8.42-1.63 8.76-1.8 8.44-4.2-.18-1.38-.67-2.86-1.1-3.3-.66-.7-19.77 1.6-20.5 2.45-.15.18-.07 2.04.2 4.12.38 3.14.78 3.68 2.32 3.2 1.03-.33 5.8-1.36 10.64-2.3zm-121.2-9.9c.9-6.7 3.3-15.02 5.68-19.7l2.02-3.97-3.36-2.8c-1.85-1.52-3.87-2.8-4.5-2.8-.6-.02-2.6 4.36-4.4 9.72-2.72 8.1-3.28 11.33-3.37 19.18-.1 9.28-.05 9.46 2.4 10.06 2.06.5 2.72.12 3.7-2.15.64-1.52 1.46-4.92 1.82-7.56zm139.63 6.62c1.92-1.03 1.93-1.17.27-3-2.47-2.73-5.42-2.5-5.42.4 0 3.77 1.52 4.54 5.15 2.6zm-39.63-6.1c.53-.54-1.9-11.52-2.73-12.36-.2-.2-4.05.6-8.57 1.72-9.13 2.3-8.76 1.74-7.6 11.4l.6 5.07 8.86-2.63c4.86-1.44 9.1-2.9 9.44-3.22zm19.48-3.2c4.53-.76 7.46-1.72 7.4-2.44-.06-.65-.17-1.85-.25-2.67-.1-.8-2.9-2.87-6.28-4.57-5.3-2.68-6.77-3-11-2.42-2.68.37-5.03.96-5.23 1.32-.2.36.28 3.46 1.06 6.87 1.36 5.96 1.53 6.2 4.1 5.7 1.5-.3 6.07-1.1 10.2-1.8zm-103.64-4.62c.8 0 1.9-1.3 2.45-2.9.9-2.62.64-3.22-2.96-6.73-3.27-3.18-4.1-3.6-4.9-2.35-1.42 2.2-3.96 11-3.96 13.7v2.33l3.96-2.02c2.17-1.1 4.6-2.02 5.4-2.02zm8.64-.44c0-.24-.45-.72-1-1.06-.55-.34-1-.14-1 .44 0 .58.45 1.06 1 1.06s1-.2 1-.44zm42.43-1.54l2.58-.97v-38.2l2.25.32c2.08.3 2.27.9 2.54 7.96.25 6.62.55 7.72 2.25 8.16 1.83.48 1.96-.04 1.96-7.96 0-8.22.06-8.47 2.25-8.16 2.1.3 2.26.86 2.53 8.97.28 8.36.38 8.66 2.87 9.3 1.42.35 2.7.5 2.87.34.15-.17.44-4.68.63-10.04l.35-9.74-2.9-1c-5.36-1.88-15.67-1.25-20.42 1.23-3.88 2-4.25 2.53-3.75 5.1.32 1.6.58 10.26.58 19.26 0 9 .2 16.38.43 16.38.25 0 1.6-.44 3-.98zm28.37-10.22c.45-2.28-1.65-3.42-9.5-5.18-8.77-1.97-8.18-1.98-7.75.13.2.95.62 3.82.95 6.36l.6 4.6 7.7-2.2c4.7-1.37 7.82-2.8 8-3.72zM151.4 203.6c6.82-2.86 9.6-12.56 5.52-19.26-5.38-8.8-19-8.24-23.37.98-2.2 4.65-2.1 8.5.32 12.48 3.95 6.47 10.62 8.68 17.52 5.8zm-9.52-4.85c-5.43-2.75-6.1-9.92-1.26-13.73 7-5.5 15.93 1.9 12.64 10.47-.66 1.7-5.4 4.55-7.58 4.52-.72 0-2.43-.58-3.8-1.27zm48.1 3.74c9.1-4.72 8.92-17.82-.34-23.47-8.52-5.2-19.75 1.24-19.76 11.3 0 10.45 10.78 16.98 20.1 12.16zm-12.65-5.9c-3.16-3.18-3.2-7.6-.08-11.2 4.42-5.14 12.67-3 14.14 3.68 1.74 7.98-8.26 13.3-14.07 7.5zm48.34 2.8c9.75-6.2 7.23-21.4-4.04-24.43-5.2-1.4-9.77.18-13.8 4.8-2.9 3.28-3.14 4.05-2.73 8.95.35 4.2 1.08 6.02 3.32 8.37 4.7 4.9 11.66 5.83 17.25 2.3zm-13.34-5.8c-7.3-7.32 3.6-18.2 11.66-11.67 3.3 2.68 3.3 9.54 0 12.22-3.35 2.7-8.65 2.45-11.67-.56zm-78.94-20c4.56-1.9 7.47-6.83 7.47-12.68 0-13.66-19.45-17.97-25.32-5.6-2.3 4.8-2.1 8.8.6 12.82 2.44 3.67 7.83 6.9 11.5 6.9 1.26 0 3.84-.65 5.74-1.44zm-9.06-4.5c-3.17-1.3-4.65-3.68-4.76-7.66-.2-7.26 8.7-11.1 13.84-5.95 4.38 4.37 2.88 11.3-2.94 13.5-3.14 1.2-3.4 1.2-6.14.1zm46.65 4.2c4-2.36 7.25-9.25 6.35-13.5-1.76-8.3-9.6-13.23-17.4-10.9-4.68 1.4-8.75 5.9-9.64 10.64-.8 4.36 2.37 11.3 6.3 13.72 3.6 2.23 10.67 2.25 14.4.05zm-12.5-5.33c-2.04-1.6-2.62-2.95-2.62-6 0-5.26 2.7-7.93 8-7.93s8 2.67 8 7.93c0 4.58-3.47 8.07-8 8.07-1.5 0-3.92-.93-5.37-2.07zm48.3 5.32c5.03-2.57 7.24-6.13 7.24-11.66 0-5.43-1.9-8.86-6.47-11.64-6.7-4.1-15.85-1.37-19.2 5.7-2.97 6.25-.55 13.5 5.8 17.38 3.97 2.42 8.17 2.5 12.64.2zm-8.92-3.97c-3.5-1.3-5-3.65-5-7.87 0-3.43.52-4.7 2.63-6.35 7.12-5.58 16.08 1.72 12.76 10.4-1.17 3.04-6.84 5.13-10.38 3.83zm49.17.05c7.52-6.8 5.78-18.16-3.48-22.7-5.28-2.58-10.05-1.52-14.9 3.32-3.18 3.2-3.8 4.48-3.8 7.97 0 7.1 4.1 12.7 10.22 14 4.17.9 9.35-.23 11.95-2.6zm-14.72-4.8c-5.08-5.08-1.64-13.54 5.5-13.54 5.6 0 8.5 2.74 8.5 8 0 3.2-.56 4.66-2.34 6.1-3.35 2.72-8.65 2.46-11.67-.55zm-77.77-20c1.2-.35 3.57-2.2 5.25-4.12 2.57-2.9 3.08-4.33 3.08-8.57 0-4.56-.4-5.5-3.8-8.9-4.85-4.84-9.6-5.9-14.9-3.3-7.14 3.5-10.24 11.7-6.87 18.2 1.86 3.6 3.7 5.06 8.32 6.7 3.65 1.3 4.33 1.3 8.94-.03zm-9.45-5.2c-2.27-.92-4.4-6.3-3.7-9.4.82-3.78 3.96-5.94 8.63-5.94 7.04 0 10.43 8.5 5.4 13.55-2.36 2.34-6.94 3.13-10.32 1.77zm47.36 4.05c6.84-3.24 9.48-12.5 5.46-19.1-5.3-8.68-18.93-8.2-23.6.83-2.07 4-1.47 11.08 1.2 14.06 5 5.64 10.86 7.1 16.94 4.2zm-8.3-4.1c-2.68-.5-6.28-4.8-6.28-7.47 0-2.72 2.63-7.46 4.54-8.2 5.68-2.18 11.18.76 12.1 6.45.9 5.75-4.3 10.37-10.37 9.22zm46.28.67c7.17-4.43 7.94-15.83 1.44-21.3-7.8-6.56-19.45-3.13-22.04 6.48-1.42 5.28.1 9.83 4.63 13.8 4.3 3.8 10.82 4.2 15.97 1.02zm-12.93-5.03c-2.04-1.6-2.62-2.95-2.62-6 0-5.26 2.7-7.93 8-7.93s8 2.67 8 7.93c0 4.58-3.47 8.07-8 8.07-1.5 0-3.92-.93-5.37-2.07zm-42.14-18.85c1.9-1.06 3.7-3.4 4.94-6.38 1.93-4.66 1.93-4.75 0-9.45-1.55-3.82-2.83-5.22-6.43-7.05-5.35-2.74-9.82-2.3-14.7 1.4-4.67 3.54-6.1 9-3.9 14.78 1.98 5.16 3.2 6.35 8.35 8.16 4.15 1.44 7.24 1.06 11.74-1.48zm-13.3-5.4c-2.85-3.02-2.94-8.93-.18-11.68 2.86-2.86 9-2.7 11.82.3 2.98 3.2 2.92 8.66-.14 11.53-3.17 2.97-8.64 2.9-11.5-.14zm51.44 2.03c6.1-6.66 5.03-15.42-2.52-20.45-8.74-5.82-20.44.6-20.44 11.24 0 8.27 6.33 13.9 14.77 13.18 4.12-.35 5.5-1.02 8.2-3.97zm-15.17-3.16c-3-3.03-3.27-8.33-.56-11.68 1.44-1.78 2.9-2.33 6.1-2.33 5.27 0 8 2.9 8 8.48 0 7.15-8.46 10.6-13.54 5.5z"/><path fill="#8a9389" d="M64.07 446c-15.85-2.12-29.46-8.6-41.2-19.66-12.36-11.62-19.6-24.9-21.96-40.3-.83-5.5-1.05-50.4-.8-167.5.37-179-.33-162.82 7.72-179.1C14.58 25.77 28.7 12.54 43.38 6.1c2.75-1.2 8.6-3.06 13-4.12C64.04.14 69.25.05 179.38.05s115.34.1 123 1.93c9.96 2.4 16.12 5.08 24.7 10.72 10.02 6.62 19.1 17 24.3 27.8 7.96 16.48 7.5 5.07 7.5 182.4 0 169 .1 165.25-4.9 177.9-7.93 20.05-27.6 37.23-49.82 43.5l-7.78 2.2-113 .16c-62.15.1-115.84-.2-119.3-.67zm235.8-5.46c25.52-5.37 46.8-25.45 52.45-49.5 1.34-5.7 1.53-26.7 1.54-168.04.02-180.05.56-166.18-7.12-181.87-3.18-6.5-5.87-10.16-11.74-16-11.58-11.53-23.96-17.77-39.73-20.05-9.3-1.35-222.47-1.35-231.8 0-15.7 2.27-28 8.47-39.66 20-5.9 5.85-8.54 9.4-11.76 16C4.34 56.82 4.87 42.9 4.9 223c0 141.34.2 162.35 1.53 168.04 5.57 23.68 26.8 43.97 51.7 49.43 9.76 2.14 231.62 2.2 241.75.07zM147.45 390.8c1.03-1.25 3-3.5 4.34-5 2.9-3.24 3.12-3.2-7.66-1.18-4.63.86-8.7 1.3-9.03.97-.34-.34.26-1.48 1.33-2.53 1.4-1.37 5.5-2.53 14.3-4.02 6.82-1.15 12.8-1.96 13.3-1.8.52.18-2.27 3.8-6.2 8.05-5.33 5.8-7.77 7.74-9.7 7.74-2.55 0-2.55 0-.7-2.25zm50.44-4.38c0-.34 1.37-2.2 3.06-4.1 1.68-1.92 2.9-3.64 2.72-3.83-.2-.2-3.55.58-7.46 1.72-6.58 1.92-7.3 1.95-9.4.48-1.72-1.2-1.92-1.7-.85-2.1 3.6-1.27 31.22-8.6 31.47-8.35.15.16-2.95 3.97-6.88 8.46-5.6 6.4-7.77 8.2-9.9 8.26-1.53.05-2.76-.2-2.76-.54zm-44.92-11.3c-1.12-.72-.17-2.8 4.75-10.4 5.96-9.2 6.18-9.75 6.18-16.04v-6.52l-4.75-.6c-2.62-.33-6.78-.85-9.25-1.16-5.2-.64-7.5-1.68-11-4.94l-2.5-2.33-9.5 3.57c-21.76 8.18-39.4 10.84-52.9 7.96-9.63-2.05-12.5-3.9-11.76-7.57 1.4-7.02 14.8-25.2 25-33.97 7.2-6.17 17.33-12.6 27.5-17.42l8.66-4.1-7.5-.74c-30.97-3.05-32.42-4.06-7.66-5.3 10.76-.53 14.66-1.06 14.66-2 0-.7-6.42-3.85-14.25-7.02-7.84-3.17-15.38-6.36-16.75-7.1-2.2-1.16-2.26-1.32-.5-1.35 1.8-.03 12.45 2.22 16.65 3.5 1.34.42 1.78-.5 2.33-4.77 1.26-9.7 3.75-19.2 7.15-27.25 1.86-4.4 3.38-8.05 3.38-8.14 0-.1-2.9-2.06-6.45-4.36-6.04-3.94-9.63-7.04-8.15-7.04 1.68 0 15.18 7.47 23.66 13.1 13.16 8.72 35.95 31.54 37.82 37.84.72 2.44 3.43 7.6 6.03 11.5 2.6 3.88 6.4 9.87 8.47 13.3 2.06 3.45 4.08 6.26 4.5 6.26.4 0 1.6-.65 2.67-1.45 1.88-1.4 1.82-1.68-2.3-9.8-2.75-5.42-6.73-11.06-11.35-16.07-4.5-4.87-6.9-8.27-6.55-9.2.3-.82 1.03-1.5 1.6-1.5.67 0 1.03-7.67 1.03-22.38 0-18.77.23-22.5 1.46-22.96.8-.32 1.72-.17 2.02.32.3.5.84 10.14 1.2 21.46.35 11.3.72 20.56.83 20.56.1 0 1.6-.5 3.33-1.1l3.15-1.1V208.2l-3.25-.7c-1.8-.37-4.7-1.55-6.47-2.63-2.88-1.75-3.95-1.84-10.56-.92-4.05.56-8.68 1.7-10.3 2.55-1.6.84-4.1 1.53-5.55 1.53-1.44 0-4.6.72-7 1.6-3.47 1.26-6.64 1.46-15.37.96-17.18-.98-17.37-1.05-18.74-6.15l-1.16-4.36-9.3-2.16c-5.12-1.18-9.3-2.4-9.3-2.7 0-.28 1.1-2.4 2.45-4.72l2.46-4.2-9.46-2.88c-5.2-1.6-9.45-3.2-9.45-3.57-.02-.36 2.5-1.5 5.6-2.54l5.64-1.88-6.88-2.86c-3.8-1.58-7.26-3.2-7.7-3.6-.47-.4 2.67-1.5 6.96-2.46l7.8-1.74-5.8-2.95c-3.22-1.62-5.6-3.18-5.3-3.48.28-.3 5.17-1.53 10.84-2.75l10.32-2.22-5.5-1.27c-9.53-2.2-9.92-2.38-6.5-3.17 1.65-.37 5.25-.76 8-.85l5-.16-6-2.8-6-2.8 7.5-2.2c12.1-3.53 12.28-3.72 4.24-4.5-10.48-1.04-9.9-2.22 2.26-4.67l6-1.22-4.95-1.67c-5.53-1.88-5.22-2.52 1.7-3.56 5.7-.85 6.37-1.6 3.6-4.1l-2.07-1.88 3.75-1.06 3.76-1.06-4.64-1.77c-2.55-.98-4.64-2.2-4.64-2.7s2.58-.92 5.75-.94c6.25-.03 6.27.3-.25-4.53-1.85-1.36-1.66-1.44 2.5-.97 2.47.3 3.93.26 3.25-.06-2.37-1.08-1.25-2.15 2.96-2.82l4.2-.67-6.33-4c-3.48-2.2-6.16-4.18-5.96-4.38.34-.32 3.6.3 15.73 3.03l2.35.53-1.94-2.8c-3.94-5.68-3.95-5.62 1.1-4.86 2.55.38 4.64.4 4.64.06s-1.2-2.18-2.64-4.08c-1.45-1.9-2.4-3.7-2.1-4 .3-.3 2.28-.08 4.4.5 5.28 1.48 5.42 1.43 4.3-1.48-.52-1.4-.96-2.74-.96-2.95 0-.22 1.83.25 4.07 1.04l4.07 1.44-.7-5.48-.67-5.47 3.36 1.37c8 3.27 7.88 3.3 7.88-2.3 0-5.4.42-5.86 3.52-3.73 1.1.73 3.18 2.1 4.66 3.06l2.7 1.72-.6-5.57c-.3-3.05-.3-5.56 0-5.56s2.33 2.5 4.5 5.56l3.94 5.55.67-5.05c.37-2.78 1-5.06 1.4-5.06.38 0 1.7 2.36 2.9 5.25l2.2 5.24.05-6.75c.03-3.72.42-6.76.86-6.76s1.6 2.25 2.6 5 2.16 5 2.6 5c.46 0 1.1-1.7 1.46-3.77 1.07-6.32 2.2-7.1 3.6-2.43.68 2.27 1.55 3.94 1.95 3.7.38-.25 1.27-2.5 1.97-4.97.7-2.5 1.62-4.53 2.06-4.53.43 0 1.53 2.25 2.45 5 1.82 5.5 2.58 5.64 4.55.87l1.3-3.16 3.32 3.9c2.68 3.17 3.3 3.53 3.33 1.9 0-1.1.43-2.64.93-3.43.67-1.04 1.3-.1 2.37 3.5l1.45 4.94 2.84-5.75c1.56-3.17 3.14-5.76 3.52-5.76.38 0 1 3.6 1.4 7.98l.7 8 4.25-3.5c2.34-1.9 4.54-3.48 4.9-3.48.36 0 .65 2.25.65 5s.2 5 .46 5c.25 0 2.8-.92 5.63-2.04 2.84-1.12 5.36-1.84 5.6-1.6.24.24-.7 2.72-2.13 5.5-1.4 2.8-2.56 5.32-2.56 5.62 0 .3 2.2-.56 4.87-1.92 2.7-1.36 5.1-2.25 5.37-2 .26.28-.1 2.96-.8 5.97-1.36 5.9-1.22 6.13 2.56 3.97 4.14-2.37 4.9-1.94 3.92 2.25-1.2 5.16-1.16 5.44.83 4.88.96-.27 3.7-.8 6.06-1.17l4.3-.66-4.12 3.85-4.13 3.84 6.8-.33c7.5-.35 7.5-.42-.66 5.42l-5.5 3.92 5.24.3c2.88.17 5.24.6 5.24.97 0 .38-2.3 3.02-5.14 5.88l-5.13 5.2 4.9.65c7.9 1.07 8.03 1.23 3.77 4.92l-3.9 3.37 8.95.74 8.95.75-2.5 2.12c-1.37 1.17-4.05 3.33-5.94 4.82l-3.45 2.7 8.25-.6c4.53-.33 8.25-.28 8.25.1 0 .4-3.7 2.45-8.2 4.57l-8.18 3.86 4.94.62c2.7.34 7.2.96 9.94 1.4l5 .76-6.78 3.43-6.78 3.43 3.78 3.23 3.78 3.23-3.1.04c-4.4.06-4.8 1.02-1.73 4.22l2.7 2.82h-11.53l2.18 2.75 2.18 2.74-6.6 2c-3.62 1.1-6.58 2.45-6.57 3 .02.55.84 4.7 1.84 9.24s1.6 8.48 1.3 8.75c-.27.28-1.88.52-3.58.52-5.54.03-7.32.92-6.84 3.43.33 1.74-.12 2.43-1.9 2.9-4.63 1.24-14.46.6-20.84-1.34-3.58-1.1-7.07-2-7.75-2-.92 0-1.25 2.74-1.25 10.38 0 9.93.1 10.4 2.25 11 1.23.32 2.57.6 2.96.6.38 0 .83-3.92 1-8.73.25-8 .45-8.76 2.28-8.76 1.84 0 2.02.76 2.27 9.5.22 7.47.63 9.77 1.94 10.75 3.38 2.53 4.08 1.47 4.8-7.28.74-8.83 1.54-10.5 4.03-8.43 1.2.97 1.35 2.96.83 10.32l-.64 9.12 4.85 2.34 4.85 2.35 2.03-2.43c16.28-19.47 22.42-25.34 34.53-33 5.9-3.74 12-7.02 12-6.47 0 .18-5 4.57-11.1 9.75-12.84 10.9-23.74 22.85-30.15 33.1-1.64 2.62-1.62 2.66 3.14 6.67l4.8 4.04 5.35-7.5c5.18-7.26 23.66-26 24.65-25 .27.27-2.1 3.52-5.23 7.23-6.53 7.7-11.7 15.44-16.5 24.7l-3.35 6.44 3.03 3.88c4.25 5.45 9.8 15.22 13.44 23.7 3.6 8.37 8.95 28.42 8.13 30.54-.48 1.24-4.48 1.35-28.22.76l-27.67-.68-1.2 4.05c-.67 2.22-2.54 5.55-4.16 7.4-3.62 4.12-15.1 10.3-20.9 11.2-4.27.7-4.28.7-3.68 4.3.33 2 .6 5.07.6 6.86 0 2.8.36 3.24 2.52 3.24 1.83 0 2.5.53 2.5 2 0 1.45-.67 2-2.4 2-1.88 0-3.85 1.93-8.72 8.5-5.34 7.2-6.73 8.5-9.15 8.5-3.4 0-3.5.22 5.05-10.82l6.45-8.32-.7-7.43c-.65-6.95-.83-7.4-2.86-6.93-4.6 1.07-20.53 2.48-27.96 2.5h-7.8l.3 5.75c.28 5.37.44 5.72 2.63 5.4 3.1-.42 2.63 2.92-.6 4.34-1.27.55-4.86 4.93-8 9.73-5.76 8.8-6.55 9.48-9.14 7.85zm-62.83-39.44c1.5-2.4 2.75-4.64 2.75-5 0-.35-4.66-.64-10.34-.64-10.1 0-10.37.06-11.5 2.55-.64 1.4-1.16 3.14-1.16 3.88 0 1.47 6.97 3.25 13.5 3.44 3.68.1 4.22-.23 6.75-4.24zm21.75.2c11.25-3.12 21-6.93 20.98-8.2-.05-3.5-1.4-3.6-15.77-1.18-7.82 1.33-14.63 2.67-15.14 3-.78.47-6.08 9.25-6.08 10.06 0 .4 7.53-1.33 16-3.68zm81.8.1c20.76-2.3 31.92-6.1 36.8-12.48 7.58-9.94 1.2-24.25-13-29.16-3.18-1.1-7.92-1.76-12.6-1.73-9.2.06-13.4 1.84-24.5 10.34-9.72 7.46-18.64 12.1-23.26 12.1-3.9 0-9.13-4.65-9.4-8.36-.52-7.53 1.47-12.17 9.06-21.08 6.23-7.3 7.5-10.92 6.82-19.42-.48-5.93-.87-6.9-4.03-9.78-7.76-7.1-19.28-6.92-27.03.44-4.22 4-5.66 7.48-5.66 13.58 0 7.3.96 9.5 6.83 15.55 8.8 9.07 9.8 13.5 5.58 24.7-4.22 11.18-2.48 19.55 4.9 23.53 4.87 2.62 32.75 3.62 49.5 1.76zm-53.8-61.94c-2.62-2.6-2.72-9.05-.17-11.35 3.82-3.46 11.32-1.22 12.56 3.75.68 2.7-.83 7.62-2.7 8.8-2.3 1.48-7.67.8-9.68-1.2zm7.94-3.44c.9-1.06.9-1.96.1-3.5-1.35-2.5-4.6-2.7-5.9-.34-2.14 3.8 3 7.2 5.8 3.84zm-46.94 48.94l3.1-4.5H83l-3.07 3.73c-1.7 2.05-3.07 4.07-3.07 4.5 0 .42 4.7.77 10.45.77h10.45l3.1-4.5zm16.76 2c13.37-2.1 14.24-2.33 14.24-4.02 0-.95-1-1.48-2.75-1.5-1.52 0-6.35-.26-10.75-.58l-8-.6-2.28 4.1c-1.26 2.26-1.8 4.1-1.24 4.1.57 0 5.42-.68 10.78-1.5zm17.03-14.45l2.05-4.96-4.17-.63c-8.13-1.2-11.7-.3-15 3.8-1.66 2.05-2.75 4-2.42 4.33.34.33 3.9.95 7.93 1.37 4.02.42 7.82.83 8.43.9.6.08 2.04-2.1 3.17-4.8zm152.62 3.33c1.63-.63 2-3.26.95-7.13-.44-1.64-1.17-2.13-2.74-1.8-18.23 3.7-17.6 3.48-16.44 6.05 1.12 2.46.86 2.4 13.98 3.3 1.47.1 3.38-.08 4.25-.42zm-33.2-6.3l6.75-2.24-1.54-3-1.54-2.98-4.7 2.68c-9.87 5.66-14.18 8.7-14.18 10 0 1.08.88 1 4.25-.44 2.33-1 7.28-2.82 10.98-4.04zm9.12 4.36c-.45-1.18-1.38-1.4-3.72-.88-6.74 1.47-7.23 2.3-1.4 2.36 4.77.05 5.62-.2 5.12-1.5zm-152.72-1.7c5.27-6.02 5.44-5.76-3.87-5.76-8.5 0-8.5 0-12.87 3.96l-4.38 3.96 9.57.04c8.7.04 9.76-.16 11.55-2.2zm51.3 1.32c1-.65.17-1.15-3-1.82-5.1-1.06-5.68-.88-3.94 1.22 1.4 1.68 4.75 1.97 6.93.6zm11.08-6.2c0-1.57-6.74-9.48-9.76-11.46-2.63-1.72-2.66-1.7-5.98 2.14-4.88 5.65-4.16 7.34 4.05 9.47 3.74.97 7.06 2.02 7.37 2.33.8.8 4.3-1.2 4.3-2.48zm82.68-10.28c.1-.07-.6-1.15-1.54-2.4l-1.7-2.28-7 4.9c-8.05 5.66-9.88 7.6-9.1 9.6.42 1.13 2.66.2 9.85-4.1 5.12-3.08 9.4-5.65 9.5-5.72zm21.65 5.32c4.5-1.15 8.3-2.22 8.47-2.38.33-.33-2.85-8.54-3.32-8.54-.57 0-18.9 7.1-19.26 7.46-.2.2.37 1.78 1.27 3.53 1.1 2.1 2.15 2.98 3.15 2.6.83-.33 5.2-1.53 9.7-2.67zm-97.15.42c1-.9 1.83-2.02 1.83-2.47 0-.45-2.77-5.34-6.16-10.88l-6.16-10.06-2.7 5.28-2.7 5.27 6.6 7.26c3.64 3.98 6.8 7.25 7.04 7.26.23 0 1.24-.73 2.25-1.64zm-44.17-1.23c0-.5-.83-1.9-1.84-3.15l-1.83-2.27-3.25 2.4-3.26 2.4 2.83.64c4.37.97 7.35.96 7.35-.02zm-11.12-4.5c2.37-2.4 3.86-4.65 3.32-5-1.25-.76-7.25 1.34-14.27 5l-5.42 2.83 4 .64c7.4 1.18 8 1 12.38-3.46zM239 290.52c3.94-3.03 7.88-5.93 8.77-6.44 1.23-.7 1.36-1.32.54-2.65-2.6-4.26-3.86-3.96-12.88 3.08l-8.7 6.78 2.26 2.4c1.23 1.3 2.38 2.38 2.56 2.38.17 0 3.53-2.5 7.46-5.53zm-13.02-4.54c3.07-2.43 3.9-3.76 3.88-6.25-.03-5.7-.64-5.86-11.28-3l-9.7 2.63V283c0 3.64.05 3.7 5.25 4.7 2.88.57 5.86 1.1 6.6 1.18.75.1 3.1-1.23 5.25-2.92zm44.3-1.6l9.45-4.7-1.45-2.8c-.8-1.56-1.68-2.82-1.95-2.82-.85 0-15.86 7.76-17.72 9.17-1.62 1.23-1.63 1.52-.2 3.6.88 1.23 1.78 2.24 2.02 2.24s4.68-2.1 9.87-4.7zm-69.53 3.05c2.37-.46 3.13-1.15 3.13-2.82 0-3.25-.7-3.5-5.07-1.78-3.68 1.45-4.8 3.02-3.26 4.57.82.82 1.3.83 5.2.04zm-3.25-9.5c2.68-1.16 5.02-2.24 5.2-2.4.16-.14 0-1.84-.36-3.78l-.66-3.52-3.65 1.32c-2 .72-4.9 1.8-6.4 2.4l-2.75 1.07 1.7 3.5c.9 1.95 1.75 3.54 1.85 3.54.1 0 2.4-.96 5.07-2.13zm68.12-5.47c7.32-4.17 7.48-4.36 5.77-6.7-1.25-1.7-1.95-1.5-11.43 3.26-5.55 2.78-10.1 5.3-10.1 5.58 0 .3.74 1.65 1.63 3l1.63 2.5 3.12-2.05c1.72-1.12 5.93-3.64 9.37-5.6zm-25.22 2.38c5.06-3.55 4.82-4.2-1.1-3-3.28.68-3.98 1.26-4.24 3.53-.17 1.5-.07 2.7.22 2.7.3 0 2.6-1.44 5.12-3.22zm-22.04-3.67l10-2.83-.34-3.88c-.18-2.13-.43-4-.56-4.12-.13-.13-4.58 1.12-9.9 2.8l-9.68 3v3.97c0 2.2.1 3.95.25 3.93.13-.02 4.74-1.3 10.23-2.87zm-17.65-9.08c.22-.64.1-4.03-.3-7.53l-.67-6.38-7.7 2.84c-4.22 1.56-9.4 3.55-11.5 4.43l-3.83 1.6 4.6 5.26c2.5 2.88 4.58 5.54 4.58 5.9 0 1.1 14.4-4.85 14.83-6.1zm45.35 2.37l9.68-1.87-.57-3c-.3-1.66-.7-3.16-.84-3.34-.44-.53-19.05 1.98-20.28 2.74-1.46.9-.28 8.36 1.23 7.78.6-.23 5.46-1.27 10.78-2.3zm-121.9-3.63c.84-2.35 1.8-6.4 2.1-9.03.5-4.1 3.7-14.63 6.02-19.85.52-1.17-.4-2.5-3.3-4.8l-4-3.17-1.52 2.95c-3.18 6.14-6.66 20.63-6.87 28.58-.2 8.33-.08 8.57 5.4 9.46.35.05 1.32-1.8 2.16-4.15zm141.7-2.8c-.66-1.25-2.08-1.96-3.92-1.96-2.45 0-2.8.32-2.37 2.25 1.08 4.9 1.1 4.9 4.32 3.24 2.58-1.33 2.87-1.86 1.98-3.53zm-47.97-.23c4.12-1.18 7.67-2.26 7.9-2.4.65-.47-2.14-12.36-3.04-12.9-.46-.3-4.45.44-8.85 1.63-8.92 2.4-8.56 1.83-7.37 11.74.52 4.32.93 5.2 2.24 4.68.88-.33 4.98-1.58 9.1-2.75zm26.75-5.92c4.53-.67 8.25-1.54 8.25-1.95 0-3.13-2.5-5.95-7.36-8.34-4.78-2.33-6.22-2.6-11.07-2-3.07.4-5.57.9-5.57 1.14 0 .24.74 3.37 1.64 6.96 1.46 5.84 1.86 6.48 3.75 5.97 1.16-.3 5.82-1.12 10.36-1.78zm-105.6-3.65c6.48-2.1 7.1-5.2 2.07-10.4-2-2.07-3.9-3.76-4.24-3.76-.94 0-3.63 6.1-4.42 10-.4 1.93-.96 4.36-1.25 5.4-.45 1.55-.2 1.75 1.3 1.1 1.04-.45 3.98-1.5 6.54-2.34zm10.85-1.6c0-.24-.45-.72-1-1.06-.55-.34-1-.14-1 .44 0 .58.45 1.06 1 1.06s1-.2 1-.44zm42.75-1.2c2.23-.6 2.25-.72 2.25-20.05V205.9l2.25.32c2.07.3 2.27.9 2.54 7.8.28 6.8 1.1 8.95 3.42 9 .38 0 .83-3.7 1-8.23.25-7.5.46-8.26 2.28-8.26 1.82 0 2.02.76 2.28 8.64.27 7.96.47 8.7 2.5 9.24 1.22.33 2.55.6 2.97.6.4 0 .75-4 .75-8.92 0-5.85.4-9.2 1.2-9.68 2.1-1.3-5.36-3.22-12.9-3.3-5.7-.06-8.1.4-11.53 2.22-3.8 2.02-4.25 2.62-3.66 4.75.37 1.34.72 9.98.78 19.2.05 9.2.43 16.73.85 16.73.4 0 1.76-.3 3-.62zm27-8.82c.68-.26 1.25-1.37 1.25-2.47 0-1.5-1.04-2.25-4.25-3.1-2.34-.6-5.83-1.5-7.75-2.02-5.4-1.44-6-1.24-5.52 1.8.24 1.52.7 4.4 1 6.43l.58 3.68 6.72-1.9c3.7-1.07 7.28-2.14 7.97-2.4zm-64.07-35.9c2.85-3.1 3.32-4.33 3.32-8.72 0-8.7-4.85-13.92-12.96-13.92-10.96 0-17.2 10.16-12.3 20 2.4 4.8 7.4 7.23 13.7 6.68 4.12-.35 5.48-1.02 8.24-4.04zm-13.92-2.18c-4.76-2.62-5.35-9.43-1.15-13.2 3.4-3.1 6.93-2.86 10.45.66 3.52 3.52 3.75 7.05.68 10.5-2.88 3.2-6.52 3.95-10 2.04zm50.88 2.23c3.02-2.77 3.68-4.13 4.04-8.25.54-6.3-1.9-11.3-6.68-13.7-4.83-2.4-10.02-2.2-14.1.54-4.25 2.87-5.87 6.04-5.9 11.57-.02 8.3 4.98 13.07 13.76 13.1 4.6.04 5.73-.4 8.88-3.27zm-14.72-4.6c-3.52-3.53-3.75-7.06-.67-10.48 3.88-4.3 10.67-3.6 13.25 1.4 1.92 3.7 1.1 7.37-2.25 10-3.54 2.8-6.9 2.5-10.33-.93zm46.65 4c10.1-4.57 9.87-19.8-.35-24.32-9.8-4.33-19.22 1.66-19.22 12.24 0 5.87 2.4 9.83 7.3 12.06 5.23 2.36 7.15 2.37 12.27.04zm-11.37-6.12c-3.02-2.8-3.65-6.2-1.82-9.73 1.7-3.3 3.38-4.23 7.6-4.23 3.17 0 8.02 4.84 8.02 8 0 1.02-1.17 3.23-2.6 4.92-3.12 3.72-7.86 4.16-11.2 1.05zm-79.24-20.44c4.8-2.5 7.04-6.2 7.04-11.7 0-9.04-4.6-13.84-13.2-13.8-5.48 0-8.66 1.64-11.52 5.9-7.62 11.3 5.53 25.88 17.68 19.6zm-8.46-4.47c-6.04-2.46-7.64-9.82-3-13.8 3.56-3.08 7.05-2.86 10.57.66 3.52 3.52 3.75 7.06.68 10.44-2.64 2.9-5.46 3.82-8.25 2.7zm46.6 3.65c8.92-6 6.4-20.68-4.08-23.82-11.13-3.34-20.75 6.54-16.96 17.42 2.86 8.2 13.53 11.46 21.04 6.4zm-13.65-5.16c-5.28-5.3-1.75-13.56 5.8-13.56 6.94 0 10.3 8.55 5.3 13.55-1.56 1.53-3.6 2.44-5.55 2.44-1.95 0-4-.9-5.55-2.45zm48.94 5.92c4.2-2 6.77-6.53 6.77-11.9 0-8.58-4.93-13.58-13.36-13.58-10.64 0-17 10.6-11.98 19.94 3.38 6.3 11.74 8.8 18.57 5.54zm-8.4-4.2c-3.4-1.22-6-4.67-6-8 0-4.07 3.76-8.28 7.38-8.28 3.7 0 8.63 4.58 8.63 8.03 0 4.85-5.9 9.72-10 8.25zm47.12 1.14c3.1-1.6 5.88-6.97 5.88-11.42 0-10.63-11.56-17.06-21.3-11.85-5.08 2.72-7.33 12.8-4.2 18.86 3.24 6.26 12.1 8.24 19.6 4.4zm-13.53-6.5c-2.98-3.54-3.16-4.93-1.13-8.85 1.63-3.13 3.34-4.06 7.53-4.06 3.16 0 8 4.84 8 8 0 1.02-1.16 3.23-2.58 4.92-1.95 2.3-3.44 3.08-5.92 3.08-2.5 0-3.98-.78-5.9-3.08zM157.1 143.4c7.54-3.84 7.57-19.2.06-23.2-7.18-3.85-17.16-1.08-19.92 5.52-2.25 5.37-1.33 11.7 2.23 15.42 4.68 4.88 10.95 5.68 17.64 2.26zm-12.83-5.7c-5.47-4.7-1.97-13.66 5.33-13.66 7.23 0 10.74 8.05 5.82 13.35-3.1 3.35-7.47 3.47-11.15.3zm48.12 5.9c5.17-2.17 7.68-6.85 7.2-13.48-.36-4.7-.9-5.85-4.05-8.75-3.2-2.93-4.3-3.33-9.17-3.33-4.88 0-5.96.4-9.17 3.33-3.16 2.9-3.68 4.05-4.03 8.75-.32 4.24.05 6.14 1.67 8.73 3.53 5.6 10.78 7.58 17.55 4.75zm-9.12-5.03c-2.86-1.2-5.4-5.04-5.4-8.15 0-2.54 5.58-7.38 8.5-7.38 3.33 0 8.5 5 8.5 8.2 0 5.62-6.26 9.57-11.6 7.33zm47.7 1.18c6.04-4.06 7.38-13.28 2.78-19.13-6.52-8.3-19-7.1-23.1 2.2-3.04 6.86-.84 14.5 5.1 17.72 4.13 2.24 11.27 1.87 15.22-.8zm-13.65-5.16c-5.24-5.25-1.75-13.56 5.7-13.56 4.47 0 7.85 3.37 7.85 7.86 0 4.26-3.82 8.14-8 8.14-1.95 0-4-.9-5.55-2.45zm-45.54-16.54c13.55-3.9 12.5-23.84-1.4-26.45-10.2-1.9-18.83 7.9-15.6 17.73 1.36 4.1 4.76 7.5 8.7 8.68 3.92 1.18 4.4 1.18 8.3.06zm-9.47-7.47c-5.12-5.14-1.76-13.56 5.4-13.56 4.26 0 8.15 3.82 8.15 8 0 1.95-.9 4-2.46 5.55-1.55 1.53-3.6 2.44-5.54 2.44-1.95 0-4-.9-5.55-2.45zm49.36 4.4c9.66-5.9 6.73-22.45-4.36-24.53-11.6-2.18-20.07 7.45-15.98 18.16 3 7.88 12.82 10.96 20.33 6.38zm-12.75-5.55c-2.3-1.93-3.07-3.43-3.07-5.9 0-2.5.77-4 3.07-5.92 1.7-1.43 3.9-2.6 4.93-2.6 3.15 0 8 4.86 8 8.02 0 4.2-.93 5.9-4.08 7.53-3.92 2.03-5.3 1.85-8.85-1.13z"/><path fill="#7f7f7f" d="M64.07 446c-15.85-2.12-29.46-8.6-41.2-19.66-12.36-11.62-19.6-24.9-21.96-40.3-.83-5.5-1.05-50.4-.8-167.5.37-179-.33-162.82 7.72-179.1C14.58 25.77 28.7 12.54 43.38 6.1c2.75-1.2 8.6-3.06 13-4.12C64.04.14 69.25.05 179.38.05s115.34.1 123 1.93c9.96 2.4 16.12 5.08 24.7 10.72 10.02 6.62 19.1 17 24.3 27.8 7.96 16.48 7.5 5.07 7.5 182.4 0 169 .1 165.25-4.9 177.9-7.93 20.05-27.6 37.23-49.82 43.5l-7.78 2.2-113 .16c-62.15.1-115.84-.2-119.3-.67zm235.8-5.46c25.52-5.37 46.8-25.45 52.45-49.5 1.34-5.7 1.53-26.7 1.54-168.04.02-180.05.56-166.18-7.12-181.87-3.18-6.5-5.87-10.16-11.74-16-11.58-11.53-23.96-17.77-39.73-20.05-9.3-1.35-222.47-1.35-231.8 0-15.7 2.27-28 8.47-39.66 20-5.9 5.85-8.54 9.4-11.76 16C4.34 56.82 4.87 42.9 4.9 223c0 141.34.2 162.35 1.53 168.04 5.57 23.68 26.8 43.97 51.7 49.43 9.76 2.14 231.62 2.2 241.75.07zM147.45 390.8c1.03-1.25 3-3.5 4.34-5 2.9-3.24 3.12-3.2-7.66-1.18-4.63.86-8.7 1.3-9.03.97-.34-.34.26-1.48 1.33-2.53 1.4-1.37 5.5-2.53 14.3-4.02 6.82-1.15 12.8-1.96 13.3-1.8.52.18-2.27 3.8-6.2 8.05-5.33 5.8-7.77 7.74-9.7 7.74-2.55 0-2.55 0-.7-2.25zm50.44-4.38c0-.34 1.37-2.2 3.06-4.1 1.68-1.92 2.9-3.64 2.72-3.83-.2-.2-3.55.58-7.46 1.72-6.58 1.92-7.3 1.95-9.4.48-1.72-1.2-1.92-1.7-.85-2.1 3.6-1.27 31.22-8.6 31.47-8.35.15.16-2.95 3.97-6.88 8.46-5.6 6.4-7.77 8.2-9.9 8.26-1.53.05-2.76-.2-2.76-.54zm-44.92-11.3c-1.12-.72-.17-2.8 4.75-10.4 5.98-9.22 6.18-9.73 6.18-16.13 0-4.45-.42-6.74-1.25-6.98-.7-.2-5.2-.8-10.04-1.33-7.62-.85-9.33-1.4-12.76-4.17l-3.95-3.18-9.73 3.64c-18.1 6.77-23.23 7.78-39.8 7.82-26.38.07-28.74-2.92-16.6-21.07 10.56-15.78 22.7-26.14 41.98-35.8 4.95-2.48 9.47-4.5 10.06-4.5.6 0 1.08-.4 1.08-.87s-3.72-1.15-8.25-1.52c-4.54-.37-12.3-1.2-17.25-1.82-11.56-1.47-8.82-2.3 10.84-3.28 10.76-.53 14.66-1.06 14.66-2 0-.7-6.42-3.85-14.25-7.02-7.84-3.17-15.38-6.36-16.75-7.1-2.2-1.16-2.26-1.32-.5-1.35 1.8-.03 12.45 2.22 16.65 3.5 1.34.42 1.78-.5 2.33-4.77 1.26-9.7 3.75-19.2 7.15-27.25 1.86-4.4 3.38-8.05 3.38-8.14 0-.1-2.9-2.06-6.45-4.36-6.04-3.94-9.63-7.04-8.15-7.04 1.68 0 15.18 7.47 23.66 13.1 12.9 8.56 36.5 32 37.47 37.25.4 1.98 3.14 7.33 6.13 11.87 3 4.55 7.07 11.05 9.07 14.46l3.62 6.18 2.83-1.45c2.82-1.46 2.83-1.48 1.3-5.2-2.92-7-7.98-14.47-14.72-21.73-7.05-7.58-7.74-8.9-5.25-9.84 1.27-.5 1.5-4 1.5-23.1 0-21.87.06-22.54 2-22.54 1.93 0 2 .67 2 20.83 0 11.46.28 21.12.62 21.46.34.34 2.43-.3 4.63-1.42l4-2.03-.62-5.17c-.33-2.84-.6-12.02-.6-20.4l-.02-15.26h-2.54c-1.4 0-4.4-.95-6.7-2.12-5.12-2.6-13.87-2.2-20.76 1-2.48 1.14-5.68 2.1-7.13 2.1-1.44 0-4.54.7-6.9 1.52-3.63 1.3-6.25 1.34-17.98.36l-13.73-1.15-1.42-4.58-1.42-4.57-7.96-1.8c-11.46-2.57-10.93-2.1-7.97-7.15l2.58-4.42-8.28-2.67c-4.56-1.47-8.97-2.92-9.8-3.22-.87-.3.92-1.36 4.34-2.53 3.22-1.1 5.47-2.3 5-2.7-.45-.4-3.3-1.75-6.32-3-3.03-1.25-5.86-2.6-6.3-3.02-.45-.4 2.03-1.33 5.5-2.03 3.46-.7 6.65-1.6 7.08-2 .43-.37-1.73-2.03-4.8-3.68l-5.6-3 11.07-2.32c6.1-1.28 10.85-2.54 10.6-2.8-.27-.26-3.76-1.27-7.77-2.24l-7.28-1.75 6-.18c9.68-.28 10.74-1.25 4.4-4-6.16-2.64-6.3-2.5 6.1-6.17 6.88-2.04 7.25-2.28 4.5-2.92-1.65-.4-4.58-.76-6.5-.84-7.05-.27-6.48-1.83 1.12-3.14 4.06-.7 7.74-1.58 8.18-1.97.44-.38-1.27-1.28-3.82-2-5.34-1.5-4.53-2.52 2.8-3.53l4.9-.67-2.8-2.9c-2.6-2.73-2.64-2.9-.65-2.9 1.17 0 2.9-.3 3.83-.65 1.35-.52.78-1.15-2.67-2.95l-4.38-2.3 5.75-.05c3.16-.02 5.74-.38 5.74-.8 0-.4-1.92-2-4.25-3.56-2.33-1.54-3.34-2.58-2.24-2.3 1.1.28 3.8.8 6 1.12 3.8.57 3.87.53 1.6-.8-2.57-1.53-2.2-2.04 2.32-3.12l2.9-.7-5.9-3.94c-6.6-4.4-6.55-4.45 2.58-2.44 9.3 2.05 9.35 2.03 6.48-2.53l-2.54-4 2.28.45c1.25.26 3.58.74 5.18 1.08l2.9.62-1.65-2.55c-.9-1.4-2.38-3.7-3.27-5.06-.9-1.38-1.45-2.5-1.25-2.5.2.02 2.5.67 5.13 1.46 4.97 1.5 5.62 1.04 3.64-2.66-1.2-2.22-1.4-2.2 5.74-.22 2.06.57 2.1.4 1.26-4.16-.5-2.6-.72-4.92-.5-5.13.2-.2 2.63.48 5.4 1.53l5.02 1.9.6-2.98c.33-1.64.6-4.08.6-5.4v-2.44L154.3 66c2.44 1.67 4.7 3.04 5 3.04.32 0 .58-2.36.58-5.25v-5.26l3.68 5.24c2.02 2.88 3.84 5.07 4.06 4.85.22-.22.74-2.58 1.16-5.24l.76-4.86 2.53 5.5 2.53 5.5.7-5c.4-2.75.8-5.68.93-6.5.12-.83 1.08.86 2.13 3.75 1.05 2.88 2.17 5.24 2.48 5.24.3 0 1.25-2.36 2.1-5.25l1.53-5.26 1.53 4.48 1.53 4.5 1.84-5c1-2.74 2.13-5.32 2.48-5.74.36-.42 1.47 1.8 2.46 4.96l1.8 5.73 2.24-4.35 2.22-4.36 2.77 3.63c3.05 4 4.5 3.94 4.65-.17.08-2.2.34-1.9 1.47 1.7.76 2.42 1.58 4.6 1.83 4.85.25.24 1.77-1.87 3.4-4.7 3.07-5.4 4.2-5.14 4.2.92 0 1.53.27 4.18.62 5.88l.6 3.1 4.4-3.6 4.38-3.58v4.95c0 2.73.27 5.23.6 5.56.34.35 3.1-.48 6.16-1.83 3.05-1.35 5.73-2.27 5.96-2.04.22.22-.77 2.75-2.22 5.6-1.45 2.87-2.43 5.42-2.17 5.68.27.27 2.37-.48 4.68-1.66 2.3-1.18 4.43-1.9 4.72-1.6.3.28 0 2.62-.64 5.18-.65 2.57-.98 4.86-.74 5.1.24.24 2.06-.24 4.05-1.07 4-1.67 4.24-1.3 2.68 4.15-1.06 3.67-.77 3.77 6.76 2.3l4.35-.82-3.84 4-3.82 4 6.25-.52c3.43-.3 6.25-.35 6.25-.14 0 .22-2.72 2.37-6.04 4.8l-6.04 4.38 5.67.7 5.66.72-5.12 5.2c-2.82 2.85-5.12 5.5-5.12 5.9 0 .4 1.3.72 2.87.72 1.58 0 4.24.27 5.9.6l3.05.6-3.47 3.06c-4.3 3.78-3.26 4.7 5.34 4.72 3.4 0 6.42.4 6.7.86.3.46-2.05 2.76-5.18 5.1l-5.72 4.27 8.84-.5c4.87-.28 8.47-.16 8 .27-.46.42-4.44 2.4-8.84 4.37-4.4 1.97-7.78 3.67-7.5 3.76.27.1 4.77.68 10 1.3l9.5 1.17-6.72 3.4-6.7 3.4 3.43 2.45c3.74 2.67 3.7 4.16-.08 4.16-3.12 0-3.07.73.28 4.23l2.72 2.84-5.72-.66c-5.85-.7-7.2.14-4.22 2.6 2.75 2.28 1.55 3.72-4.5 5.42-6.88 1.93-6.92 2.05-4.46 12.52.84 3.55 1.3 7.03 1.02 7.75-.32.84-2.33 1.3-5.6 1.3h-5.12l.64 2.92.64 2.9-7.3.68c-6.2.57-8.68.28-16-1.86-10.24-2.98-23.64-5.63-28.47-5.63-1.93 0-5.5 1.2-8.14 2.75l-4.72 2.74.27 19.8.27 19.82 2.23-.68c5.03-1.54 4.9-.97 4.77-21.28-.12-18.53-.05-19.16 1.88-19.16 1.8 0 2.02.77 2.3 8.25.25 7.63.44 8.26 2.48 8.55 2.1.3 2.23-.06 2.5-8 .25-6.96.58-8.34 2.05-8.62 1.56-.3 1.75.63 1.75 8.7V224l3.25.88c1.78.5 3.58.7 4 .47.4-.22.75-4.66.75-9.85 0-8.77.14-9.44 2-9.44 1.87 0 2 .67 2 10.44 0 5.74.33 10.63.75 10.86.4.23 1.98.72 3.5 1.08l2.75.66v-9.6c0-8.6.18-9.55 1.75-9.25 1.5.3 1.8 1.74 2.03 10.36l.28 10.03 2.9 1.1c1.6.6 3.17.84 3.48.53.3-.3.56-4.3.56-8.9 0-7.73.14-8.32 2.05-8.32 1.96 0 2.05.5 1.87 9.7l-.2 9.72 5 2.7 5 2.7 4.78-6.48c9.82-13.37 23.66-25.37 39-33.8l5-2.74-3 2.7c-1.65 1.46-7.14 6.23-12.18 10.58-8.76 7.55-22.84 23.3-26.57 29.72l-1.76 3 4.87 4.1 4.87 4.06 4.3-6.1c5.18-7.4 14.4-17.37 21.35-23.12 5.65-4.67 5.2-3.86-4.5 8.4-3.63 4.6-8.86 12.37-11.6 17.26l-5.03 8.9 3.36 4.4c4.5 5.9 9.68 15.3 13.43 24.35 3.37 8.1 7.98 24.68 7.98 28.64v2.47l-23.25-.78c-36.4-1.25-33.1-1.53-33.8 2.78-.34 2.02-1.36 4.8-2.27 6.2-3.24 4.95-14.87 11.54-23.05 13.06-3.8.7-3.85.77-3.25 4.4.33 2.02.6 5.14.62 6.93 0 2.8.35 3.24 2.5 3.24 1.84 0 2.5.53 2.5 2 0 1.45-.66 2-2.4 2-1.87 0-3.84 1.93-8.7 8.5-5.35 7.2-6.74 8.5-9.16 8.5-3.4 0-3.5.22 5.05-10.82l6.45-8.32-.7-7.43c-.43-4.6-1.14-7.42-1.86-7.4-.64 0-4.17.44-7.83.97s-11.67 1.03-17.8 1.1l-11.1.16.28 6.12c.28 5.77.43 6.1 2.63 5.8 3.1-.44 2.63 2.9-.6 4.32-1.27.55-4.87 4.93-8 9.73-5.76 8.8-6.56 9.48-9.14 7.85zM90.4 335.6c1.9-3 3.48-5.6 3.48-5.76 0-.17-4.74-.37-10.54-.45l-10.53-.16-1.96 3.87-1.97 3.87 2.06 1.1c1.14.6 4.85 1.47 8.26 1.9 3.4.45 6.52.87 6.94.94.42.08 2.33-2.3 4.25-5.3zm23.98-.12c6.05-1.82 12.86-4.12 15.13-5.12 3.67-1.6 4.05-2.08 3.3-4.07-1.03-2.7-1.04-2.7-17.42.08l-13 2.22-3.25 4.96c-1.8 2.72-3.25 5.32-3.25 5.76 0 1.17 5.94-.07 18.5-3.84zm86.16-.04c19.03-2.73 27.74-6.97 32.18-15.64 2.23-4.38 2.32-5.1 1.16-9.26-1.7-6.1-7.7-12.68-14.22-15.6-4.3-1.92-6.97-2.37-14.28-2.38-10.52 0-12.48.8-25.6 10.7-4.62 3.48-10.54 7.33-13.14 8.56-19.34 9.07-25.7-9.32-9.28-26.78 5.3-5.63 6.95-9.7 6.84-16.86-.07-4.63-.63-7.08-2.05-9-6.84-9.24-20.13-10.6-28.84-2.95-4.84 4.26-6.42 7.76-6.42 14.2 0 7.25 1 9.6 6.6 15.26 4.84 4.9 8.34 11.2 8.37 15.07.02 1.22-1.03 5.05-2.32 8.5-3.2 8.5-3.9 12.98-2.6 16.4 1.35 3.58 4.6 7.1 8.26 9.02 6.42 3.34 34.64 3.72 55.34.74zm-60.66-61.4c-2.62-2.6-2.72-9.05-.17-11.35 3.82-3.46 11.32-1.22 12.56 3.75.68 2.7-.83 7.62-2.7 8.8-2.3 1.48-7.67.8-9.68-1.2zm7.94-3.44c.9-1.06.9-1.96.1-3.5-1.35-2.5-4.6-2.7-5.9-.34-2.14 3.8 3 7.2 5.8 3.84zm-47.5 49.8c1.96-2.56 3.56-5.03 3.56-5.5 0-.48-4.47-.86-9.93-.86h-9.92l-4.05 4.74c-4.93 5.77-4.5 6.1 8.1 6.2l8.7.06 3.55-4.64zm20.8.96c8.76-1.4 10.76-2.02 10.76-3.4 0-2.26-2.86-2.9-13-2.9h-8.5l-2.25 3.48c-1.24 1.9-2.25 3.7-2.25 4 0 .9 4.2.56 15.25-1.18zm13.73-14c1.14-2.57 1.72-5 1.3-5.4-.43-.38-3.76-1-7.42-1.38l-6.64-.68-3.74 4.47c-2.05 2.45-3.8 4.85-3.86 5.32-.12.8 6.72 1.83 14.58 2.18 3.5.15 3.82-.1 5.77-4.52zm129.03 2.76c0-3.5-1-3.8-6.8-2.18l-5.7 1.6 3.5.62c5.52.97 9 .96 9-.04zm24.8-3.84c.23-3.1-.1-4.42-1.2-4.84-1.45-.55-7.74.5-15.8 2.66-3.57.95-3.65 1.08-2.63 4l1.05 3 9.14-.27 9.14-.3.3-4.25zm-176.54-1.04l3.75-4.7-6.74-.3c-8.7-.4-9.96-.02-15.27 4.5l-4.45 3.8 5.96.58c12.74 1.24 12.62 1.27 16.74-3.88zm148.27-3.4c.5-.5-.83-4.15-2.06-5.62-.43-.5-8.4 3.75-14.16 7.58-8.54 5.67-6.7 6.5 5.15 2.35 5.75-2.03 10.73-3.96 11.08-4.3zm-97.1 6.32c.6-.96-8.32-3.56-9.2-2.7-.27.3.06 1.22.76 2.06 1.35 1.63 7.54 2.1 8.45.64zm9.58-6.3c0-1.57-6.73-9.6-9.64-11.5-2.3-1.5-2.58-1.46-5 .8-3.02 2.8-5.8 7.8-4.86 8.72.36.36 4.1 1.6 8.33 2.72 7.53 2.03 11.18 1.78 11.18-.74zm82.55-10.04c.17-.17-.52-1.4-1.52-2.74l-1.83-2.43-7.8 5.94c-4.3 3.26-8.26 6.24-8.8 6.6-.6.43-.5 1.24.27 2.17 1.06 1.28 2.48.75 10.3-3.88 5-2.95 9.22-5.5 9.4-5.68zm20.9 5.8c4.94-1.3 9.1-2.78 9.28-3.3.5-1.4-2.62-8.28-3.73-8.28-1.36 0-19 7.1-19 7.65 0 1.1 3.14 6.34 3.78 6.3.4 0 4.76-1.1 9.7-2.4zm-96-.54c2.16-2.38 2.1-2.54-4.94-13.93-5.53-8.92-7.52-10.87-7.53-7.36 0 .95-.9 3.23-2.02 5.05l-2 3.3 6.76 7.43c3.73 4.08 7.04 7.43 7.37 7.44.33 0 1.4-.86 2.37-1.94zm-44.45-.93c0-.5-.84-1.92-1.85-3.17l-1.85-2.3-3.15 2.25c-1.74 1.24-3.15 2.67-3.15 3.18 0 .52 2.25.94 5 .94s5-.4 5-.9zm-11.04-4.58c3.67-3.74 4.1-4.57 2.68-5.1-1.6-.63-20.64 7.72-20.64 9.03 0 .3 3.05.54 6.8.54 6.7 0 6.83-.05 11.16-4.47zm115.75-2.03c4.5-3.3 8.22-6.5 8.24-7.1.06-1.7-3.74-4.7-5.22-4.13-.74.3-4.85 3.3-9.13 6.72l-7.8 6.2 2.28 2.43c1.25 1.33 2.53 2.3 2.84 2.16.3-.14 4.25-2.96 8.77-6.26zm-10.92-10.87c.2-2.86-.1-4.63-.78-4.63-2.42 0-18.06 4.3-19.5 5.37-1.14.83-1.4 2.04-.93 4.37.55 2.76 1.17 3.3 4.28 3.83 2 .33 4.75.96 6.13 1.4 2 .62 3.3.14 6.5-2.46 3.48-2.82 4.04-3.84 4.3-7.87zm48.65-1.73c-.83-1.6-2-2.9-2.63-2.9-1.5 0-17.58 8.8-18.34 10.02-.32.53.17 1.98 1.1 3.22l1.67 2.26 9.85-4.85 9.85-4.86-1.5-2.9zm-77.2 10.66c2.25-.5 2.75-1.14 2.75-3.58 0-3.4-.9-3.57-6.14-1.16-3.16 1.46-3.53 1.98-2.8 3.9.48 1.24 1.44 2.07 2.15 1.85.7-.2 2.5-.66 4.03-1zm-1.6-10.2c3-1.24 3.35-1.8 3.35-5.37 0-2.2-.44-4-.97-4-1.4 0-11.38 4-12.36 4.97-.46.44-.1 2.23.8 3.98 1.76 3.4 2.08 3.4 9.2.43zm67.58-5.65c3.17-1.77 5.76-3.46 5.76-3.77 0-.3-.6-1.4-1.36-2.44-1.3-1.8-1.7-1.7-9.75 2.2-4.6 2.24-9.25 4.75-10.32 5.57-1.86 1.44-1.87 1.6-.2 4.15l1.73 2.65 4.2-2.57c2.32-1.4 6.8-4 9.95-5.78zm-23.86 1.4c4.66-3.05 3.9-3.46-3.36-1.82-5.24 1.2-5.52 1.4-5.83 4.64l-.32 3.4 2.82-1.83c1.55-1 4.57-2.98 6.7-4.38zm-24.2-1.8l10.03-2.7-.64-4c-.36-2.23-.84-4.23-1.07-4.46-.24-.25-5 1-10.56 2.77-9.3 2.94-10.07 3.38-9.54 5.4.33 1.2.6 2.96.6 3.92.02 2.18-.7 2.24 11.18-.95zm-23.66-5.86l6-2.3-.25-4.32c-.13-2.4-.5-5.83-.8-7.64-.5-2.85-.87-3.2-2.76-2.63-2.92.9-20.1 7.6-20.58 8.04-.23.2 1.2 2.12 3.15 4.28 1.96 2.17 4.08 4.92 4.72 6.1.8 1.5 1.67 1.95 2.83 1.46.92-.4 4.38-1.74 7.68-3zm49.82-.53c5.58-1.13 10.3-2.23 10.5-2.43.2-.2.06-1.74-.3-3.43-.8-3.58-2.48-3.8-14.98-1.94-7.33 1.1-7.54 1.2-7.54 3.92 0 2.92.86 5.96 1.7 5.96.26 0 5.05-.93 10.62-2.07zm-121.06-4.18c.85-2.35 1.8-6.4 2.12-9.03.5-4.1 3.7-14.63 6-19.85.53-1.17-.4-2.5-3.28-4.8l-4-3.17-1.53 2.95c-3.18 6.14-6.66 20.63-6.87 28.58-.2 8.33-.08 8.57 5.4 9.46.35.05 1.32-1.8 2.16-4.15zm139.6 1.14c3.6-1.25 3.72-1.63 1.58-4.68-1.5-2.14-6.44-3.18-6.44-1.35 0 1.3 1.2 7.14 1.47 7.14.13 0 1.65-.5 3.38-1.1zm-46.68-3.67c4.78-1.5 8.77-3.08 8.88-3.5.1-.44-.38-3.52-1.1-6.86l-1.28-6.07-3.86.62c-2.13.34-6.22 1.4-9.1 2.35-5.22 1.74-5.22 1.74-4.97 5.74.4 6.05 1.26 10.5 2.04 10.48.4 0 4.6-1.25 9.4-2.75zm25.32-5.72c4.4-.8 8.56-1.46 9.25-1.48 1.35-.03 1.67-3.83.48-5.65-.4-.62-3.42-2.45-6.72-4.07-5.23-2.57-6.63-2.85-10.85-2.2-2.67.4-5.1 1-5.4 1.3-.55.55 1.48 11.26 2.42 12.84.6 1 1.53.93 10.83-.75zm-103.34-4.35c6.47-2.1 7.1-5.2 2.06-10.4-2-2.07-3.9-3.76-4.24-3.76-.94 0-3.63 6.1-4.42 10-.4 1.93-.96 4.36-1.25 5.4-.45 1.55-.2 1.75 1.3 1.1 1.04-.45 3.98-1.5 6.54-2.34zm10.84-1.6c0-.24-.45-.72-1-1.06-.55-.34-1-.14-1 .44 0 .58.45 1.06 1 1.06s1-.2 1-.44zm63.34-7.7c8.42-2.5 8.7-2.7 7.62-5.52-.66-1.7-2.57-2.56-9.15-4.1-4.58-1.1-8.45-1.87-8.6-1.73-.76.62 1.17 13.5 2 13.5.54 0 4.2-.97 8.12-2.14zm-59.38-36.48c9.08-7.65 7.3-19.82-3.5-23.95-5.87-2.24-11-.86-15.37 4.12-5.36 6.1-3.77 16.23 3.2 20.48 4.8 2.93 11.75 2.63 15.67-.66zm-13.8-5.7c-4.85-5.17-1.5-12.68 5.68-12.68 4.96 0 7.6 2.74 7.45 7.76-.2 6.78-8.46 9.88-13.12 4.93zm50.75 5.53c4.2-3.14 6.35-6.83 6.35-10.92 0-8.45-5.98-14.28-14.64-14.3-4.3 0-5.3.45-8.66 3.8-5.1 5.1-5.93 9.58-2.92 15.8 3.78 7.82 13.32 10.52 19.87 5.62zm-13.27-6.04c-2.32-2.56-2.13-8.68.35-11.16 2.63-2.63 7.96-2.6 10.8.04 2.6 2.43 2.9 7.5.64 10.74-2.03 2.9-9.3 3.14-11.8.4zm47.36 3.98c12.62-6.75 7.42-26.15-7-26.14-9.97 0-16.92 11.4-12.23 20 4.03 7.4 12.08 9.96 19.22 6.14zm-11.4-6.2c-2-1.6-2.62-2.97-2.6-5.76 0-4.24.63-5.44 3.66-7.03 3.2-1.7 5.7-1.43 8.68.9 2.03 1.6 2.64 2.97 2.64 5.94s-.6 4.33-2.64 5.93c-1.45 1.14-3.64 2.07-4.86 2.07-1.23 0-3.42-.93-4.87-2.07zm-42.04-20.4c4.45-2.92 6.58-7.45 6.1-12.97-.36-4.22-1-5.48-4.52-8.74-3.56-3.33-4.7-3.82-8.87-3.8-15.15 0-19.75 19.3-6.27 26.28 4.02 2.1 9.7 1.77 13.56-.76zm-11.2-4.97c-2.94-1.28-4.34-3.78-4.37-7.86-.03-2.9 4.5-6.7 7.98-6.7 3.57 0 8 3.82 8 6.9 0 3.6-2.22 6.98-5.3 8.05-1.65.57-3.05 1.02-3.1 1-.06-.02-1.5-.65-3.2-1.4zm-23.33 2.62c6.37-6.37 6.52-13.54.4-19.65-6.07-6.08-14.52-5.64-20.4 1.07-2.44 2.77-3.05 4.38-3.05 7.98 0 8.92 5.47 14.4 14.36 14.42 4.3 0 5.3-.44 8.7-3.82zm-14.88-4.5c-2.55-2.72-2.83-7.3-.62-10.46 2.13-3.03 9.3-3.14 12-.17 2.6 2.86 2.3 8.84-.57 11.16-3.14 2.53-8.16 2.3-10.8-.53zm86.35 6.3c9.48-5.86 7.9-20.2-2.7-24.44-9.32-3.72-18.82 2.82-18.82 12.96 0 10.74 12.2 17.25 21.52 11.48zm-13.45-6.62c-4.47-5.67-1.35-12.36 5.77-12.36 4.86 0 7.56 2.74 7.56 7.68 0 6.95-9.05 10.13-13.33 4.68zm49.56 5c4.07-1.92 6.06-4.5 7.44-9.62 1.36-5.03-1.53-11.84-6.25-14.7-9.75-5.95-22.98 2.34-21.34 13.35 1.48 9.9 11.24 15.2 20.15 10.98zm-11-6.43c-2-1.58-2.62-2.96-2.6-5.75 0-4.24.63-5.44 3.66-7.03 3.2-1.7 5.7-1.43 8.68.9 2.03 1.6 2.64 2.97 2.64 5.94s-.6 4.33-2.64 5.93c-1.45 1.14-3.64 2.07-4.86 2.07-1.23 0-3.42-.93-4.87-2.07zm-77.7-20.68c9.85-5.03 10.47-17.78 1.18-24-9.36-6.25-21.1.4-21.1 11.95 0 3.9.56 5.36 3.2 8.36 5 5.73 10.4 6.9 16.73 3.7zm-9.6-5.27c-4.92-1.98-5.9-9.6-1.7-12.92 2.98-2.33 5.5-2.6 8.7-.9 3 1.57 3.65 2.78 3.65 6.84 0 4.06-.65 5.27-3.66 6.85-2.54 1.32-3.98 1.35-7 .13zm49.68 2.5c6.34-6.07 6.13-14.53-.5-20.35-6.2-5.44-13.24-5.16-18.9.76-6.4 6.66-5.1 16.3 2.85 21.3 4.58 2.88 12.63 2.05 16.55-1.7zm-15-4.5c-2.62-2.6-2.72-9.04-.17-11.34 2.53-2.3 9.4-2.2 11.52.17.9 1 1.66 3.48 1.66 5.5 0 4.78-2.83 7.67-7.5 7.67-2.17 0-4.27-.76-5.5-2zm49.58 3.55c4.45-2.92 6.58-7.45 6.1-12.97-.36-4.22-1-5.48-4.52-8.74-3.53-3.3-4.73-3.82-8.76-3.82-15.15 0-19.84 19.33-6.38 26.3 4.02 2.1 9.7 1.77 13.56-.76zm-12.18-5.3c-1.65-1.1-3.4-4.83-3.4-7.22 0-1.16 1.1-3.22 2.45-4.57 3.3-3.3 7.84-3.25 11.2.1 2.16 2.16 2.5 3.2 2 6.26-.34 2.02-1.38 4.24-2.32 4.93-1.85 1.35-8.15 1.66-9.92.47zm-43.64-18.23c4.2-2.57 7.23-7.6 7.23-12 0-1.94-.9-4.98-2-6.77-4.98-8.2-15.13-9.58-21.73-2.97-6.6 6.6-5.2 16.75 2.98 21.75 1.8 1.1 4.83 1.98 6.76 1.98 1.92 0 4.96-.9 6.76-1.98zm-10.45-4.98c-1.2-.5-2.67-1.8-3.26-2.9-4.17-7.8 5.2-15.78 12.05-10.24 2.76 2.25 3.27 9.15.84 11.57-1.93 1.94-6.87 2.74-9.65 1.57zm47.47 3.34c3.5-2.24 6.2-7.4 6.2-11.86 0-14.17-19.44-19.02-26.13-6.52-3.82 7.15-1.25 14.95 6.2 18.8 4.82 2.5 9.43 2.36 13.73-.4zm-13.72-7c-1.14-1.44-2.07-3.63-2.07-4.86 0-1.23.93-3.42 2.07-4.87 1.6-2.03 2.95-2.63 5.93-2.63 6.2 0 9.73 5.84 6.85 11.32-1.6 3.02-2.8 3.65-7.03 3.66-2.8.02-4.18-.6-5.75-2.62z"/><path fill="#bb1d23" d="M57.88 444.48c-21.73-4.68-40.58-18.85-49.92-37.52C.33 391.73.78 404 1.1 220.04l.28-164.5 2.7-7.3c9.3-25.04 29.97-42.12 56.54-46.7C68.44.17 84.2 0 183.48.3 310.98.65 302.2.15 318.38 8c14.57 7.1 26.4 18.77 32.96 32.54 6.97 14.63 6.54 2.6 6.54 182.65 0 158.48-.05 162.7-1.98 170.23-5.2 20.32-21.63 38.9-41.6 47-14.07 5.73-11.26 5.62-135.63 5.53-94-.07-115.45-.33-120.8-1.48zm244-3.78c20.25-5.44 37.1-19.02 46.08-37.16 7.34-14.82 6.98-5.15 6.68-184l-.26-160-2.76-8.13c-7.6-22.38-28.52-41.12-51.24-45.87-10.45-2.17-231.56-2.17-242 0-22.72 4.75-43.66 23.5-51.25 45.88l-2.75 8.14-.28 160c-.3 179.36-.73 168.44 6.97 184.5 3.36 7 5.68 10.1 13.2 17.62 7.52 7.53 10.6 9.82 17.6 13.17 9.34 4.46 14.18 5.95 23.4 7.18 3.36.46 56.5.74 118.1.63 103.03-.17 112.53-.32 118.5-1.93zm-154.44-49.9c1.03-1.25 3-3.5 4.34-5 2.9-3.24 3.12-3.2-7.66-1.18-4.63.86-8.7 1.3-9.03.97-.34-.34.26-1.48 1.33-2.53 1.4-1.37 5.5-2.53 14.3-4.02 6.82-1.15 12.8-1.96 13.3-1.8.52.18-2.27 3.8-6.2 8.05-5.33 5.8-7.77 7.74-9.7 7.74-2.55 0-2.55 0-.7-2.25zm50.44-4.38c0-.34 1.37-2.2 3.06-4.1 1.68-1.92 2.9-3.64 2.72-3.83-.2-.2-3.55.58-7.46 1.72-6.58 1.92-7.3 1.95-9.4.48-1.72-1.2-1.92-1.7-.85-2.1 3.6-1.27 31.22-8.6 31.47-8.35.15.16-2.95 3.97-6.88 8.46-5.6 6.4-7.77 8.2-9.9 8.26-1.53.05-2.76-.2-2.76-.54zm-44.92-11.3c-1.12-.72-.17-2.8 4.75-10.4 6.1-9.38 6.18-9.62 6.18-16.6v-7.08h-4.25c-8.73-.02-15.97-1.84-19.93-5.02l-3.8-3.07-9.73 3.64c-18.1 6.77-23.23 7.78-39.8 7.82-26.38.07-28.74-2.92-16.6-21.07 10.56-15.78 22.7-26.14 41.98-35.8 4.95-2.48 9.47-4.5 10.06-4.5.6 0 1.08-.4 1.08-.87s-3.72-1.15-8.25-1.52c-4.54-.37-12.3-1.2-17.25-1.82-11.56-1.47-8.82-2.3 10.84-3.28 10.76-.53 14.66-1.06 14.66-2 0-.7-6.42-3.85-14.25-7.02-7.84-3.17-15.38-6.36-16.75-7.1-2.2-1.16-2.26-1.32-.5-1.35 1.8-.03 12.45 2.22 16.65 3.5 1.34.42 1.78-.5 2.33-4.77 1.26-9.7 3.75-19.2 7.15-27.25 1.86-4.4 3.38-8.05 3.38-8.14 0-.1-2.9-2.06-6.45-4.36-6.04-3.94-9.63-7.04-8.15-7.04 1.68 0 15.18 7.47 23.66 13.1 12.8 8.5 36.33 31.84 37.3 37.03.37 1.96 3.16 7.34 6.2 11.96 3.04 4.63 7.16 11.2 9.16 14.6l3.62 6.18 2.83-1.45c2.82-1.46 2.83-1.48 1.3-5.2-2.92-7-7.98-14.47-14.72-21.73-7.05-7.58-7.74-8.9-5.25-9.84 1.27-.5 1.5-4 1.5-23.1 0-21.87.06-22.54 2-22.54 1.93 0 2 .67 2 20.83 0 11.46.28 21.12.62 21.46.34.34 2.43-.3 4.63-1.42l4-2.03-.62-5.17c-.33-2.84-.6-12.02-.6-20.4l-.02-15.26h-2.54c-1.4 0-4.4-.95-6.7-2.12-5.12-2.6-13.87-2.2-20.76 1-2.48 1.14-5.68 2.1-7.13 2.1-1.44 0-4.54.7-6.9 1.52-3.63 1.3-6.25 1.34-17.98.36l-13.73-1.15-1.42-4.58-1.42-4.57-7.96-1.8c-11.46-2.57-10.93-2.1-7.97-7.15l2.58-4.42-8.28-2.67c-4.56-1.47-8.97-2.92-9.8-3.22-.87-.3.92-1.36 4.34-2.53 3.22-1.1 5.47-2.3 5-2.7-.45-.4-3.3-1.75-6.32-3-3.03-1.25-5.86-2.6-6.3-3.02-.45-.4 2.03-1.33 5.5-2.03 3.46-.7 6.65-1.6 7.08-2 .43-.37-1.73-2.03-4.8-3.68l-5.6-3 11.07-2.32c6.1-1.28 10.85-2.54 10.6-2.8-.27-.26-3.76-1.27-7.77-2.24l-7.28-1.75 6-.18c9.68-.28 10.74-1.25 4.4-4-6.16-2.64-6.3-2.5 6.1-6.17 6.88-2.04 7.25-2.28 4.5-2.92-1.65-.4-4.58-.76-6.5-.84-7.05-.27-6.48-1.83 1.12-3.14 4.06-.7 7.74-1.58 8.18-1.97.44-.38-1.27-1.28-3.82-2-5.34-1.5-4.53-2.52 2.8-3.53l4.9-.67-2.8-2.9c-2.6-2.73-2.64-2.9-.65-2.9 1.17 0 2.9-.3 3.83-.65 1.35-.52.78-1.15-2.67-2.95l-4.38-2.3 5.75-.05c3.16-.02 5.74-.38 5.74-.8 0-.4-1.92-2-4.25-3.56-2.33-1.54-3.34-2.58-2.24-2.3 1.1.28 3.8.8 6 1.12 3.8.57 3.87.53 1.6-.8-2.57-1.53-2.2-2.04 2.32-3.12l2.9-.7-5.9-3.94c-6.6-4.4-6.55-4.45 2.58-2.44 9.3 2.05 9.35 2.03 6.48-2.53l-2.54-4 2.28.45c1.25.26 3.58.74 5.18 1.08l2.9.62-1.65-2.55c-.9-1.4-2.38-3.7-3.27-5.06-.9-1.38-1.45-2.5-1.25-2.5.2.02 2.5.67 5.13 1.46 4.97 1.5 5.62 1.04 3.64-2.66-1.2-2.22-1.4-2.2 5.74-.22 2.06.57 2.1.4 1.26-4.16-.5-2.6-.72-4.92-.5-5.13.2-.2 2.63.48 5.4 1.53l5.02 1.9.6-2.98c.33-1.64.6-4.08.6-5.4v-2.44L154.3 66c2.44 1.67 4.7 3.04 5 3.04.32 0 .58-2.36.58-5.25v-5.26l3.68 5.24c2.02 2.88 3.84 5.07 4.06 4.85.22-.22.74-2.58 1.16-5.24l.76-4.86 2.53 5.5 2.53 5.5.7-5c.4-2.75.8-5.68.93-6.5.12-.83 1.08.86 2.13 3.75 1.05 2.88 2.17 5.24 2.48 5.24.3 0 1.25-2.36 2.1-5.25l1.53-5.26 1.53 4.48 1.53 4.5 1.84-5c1-2.74 2.13-5.32 2.48-5.74.36-.42 1.47 1.8 2.46 4.96l1.8 5.73 2.24-4.35 2.22-4.36 2.77 3.63c3.05 4 4.5 3.94 4.65-.17.08-2.2.34-1.9 1.47 1.7.76 2.42 1.58 4.6 1.83 4.85.25.24 1.77-1.87 3.4-4.7 3.07-5.4 4.2-5.14 4.2.92 0 1.53.27 4.18.62 5.88l.6 3.1 4.4-3.6 4.38-3.58v4.95c0 2.73.27 5.23.6 5.56.34.35 3.1-.48 6.16-1.83 3.05-1.35 5.73-2.27 5.96-2.04.22.22-.77 2.75-2.22 5.6-1.45 2.87-2.43 5.42-2.17 5.68.27.27 2.37-.48 4.68-1.66 2.3-1.18 4.43-1.9 4.72-1.6.3.28 0 2.62-.64 5.18-.65 2.57-.98 4.86-.74 5.1.24.24 2.06-.24 4.05-1.07 4-1.67 4.24-1.3 2.68 4.15-1.06 3.67-.77 3.77 6.76 2.3l4.35-.82-3.84 4-3.82 4 6.25-.52c3.43-.3 6.25-.35 6.25-.14 0 .22-2.72 2.37-6.04 4.8l-6.04 4.38 5.67.7 5.66.72-5.12 5.2c-2.82 2.85-5.12 5.5-5.12 5.9 0 .4 1.3.72 2.87.72 1.58 0 4.24.27 5.9.6l3.05.6-3.47 3.06c-4.3 3.78-3.26 4.7 5.34 4.72 3.4 0 6.42.4 6.7.86.3.46-2.05 2.76-5.18 5.1l-5.72 4.27 8.84-.5c4.87-.28 8.47-.16 8 .27-.46.42-4.44 2.4-8.84 4.37-4.4 1.97-7.78 3.67-7.5 3.76.27.1 4.77.68 10 1.3l9.5 1.17-6.72 3.4-6.7 3.4 3.43 2.45c3.74 2.67 3.7 4.16-.08 4.16-3.12 0-3.07.73.28 4.23l2.72 2.84-5.72-.66c-5.85-.7-7.2.14-4.22 2.6 2.75 2.28 1.55 3.72-4.5 5.42-6.88 1.93-6.92 2.05-4.46 12.52.84 3.55 1.3 7.03 1.02 7.75-.32.84-2.33 1.3-5.6 1.3h-5.12l.64 2.92.64 2.9-7.3.68c-6.2.57-8.68.28-16-1.86-10.24-2.98-23.64-5.63-28.47-5.63-1.93 0-5.5 1.2-8.14 2.75l-4.72 2.74.27 19.8.27 19.82 2.23-.68c5.03-1.54 4.9-.97 4.77-21.28-.12-18.53-.05-19.16 1.88-19.16 1.8 0 2.02.77 2.3 8.25.25 7.63.44 8.26 2.48 8.55 2.1.3 2.23-.06 2.5-8 .25-6.96.58-8.34 2.05-8.62 1.56-.3 1.75.63 1.75 8.7V224l3.25.88c1.78.5 3.58.7 4 .47.4-.22.75-4.66.75-9.85 0-8.77.14-9.44 2-9.44 1.87 0 2 .67 2 10.44 0 5.74.33 10.63.75 10.86.4.23 1.98.72 3.5 1.08l2.75.66v-9.6c0-8.6.18-9.55 1.75-9.25 1.5.3 1.8 1.74 2.03 10.36l.28 10.03 2.9 1.1c1.6.6 3.17.84 3.48.53.3-.3.56-4.3.56-8.9 0-7.73.14-8.32 2.05-8.32 1.96 0 2.05.5 1.87 9.7l-.2 9.72 5 2.7 5 2.7 4.78-6.48c9.82-13.37 23.66-25.37 39-33.8l5-2.74-3 2.7c-1.65 1.46-7.14 6.23-12.18 10.58-8.76 7.55-22.84 23.3-26.57 29.72l-1.76 3 4.87 4.1 4.87 4.06 4.3-6.1c5.18-7.4 14.4-17.37 21.35-23.12 5.65-4.67 5.2-3.86-4.5 8.4-3.63 4.6-8.86 12.37-11.6 17.26l-5.03 8.9 3.36 4.4c4.5 5.9 9.68 15.3 13.43 24.35 3.37 8.1 7.98 24.68 7.98 28.64v2.47l-23.25-.78c-36.4-1.25-33.1-1.53-33.8 2.78-.34 2.02-1.36 4.8-2.27 6.2-3.24 4.95-14.87 11.54-23.05 13.06-3.8.7-3.85.77-3.25 4.4.33 2.02.6 5.14.62 6.93 0 2.8.35 3.24 2.5 3.24 1.84 0 2.5.53 2.5 2 0 1.45-.66 2-2.4 2-1.87 0-3.84 1.93-8.7 8.5-5.35 7.2-6.74 8.5-9.16 8.5-3.4 0-3.5.22 5.05-10.82l6.45-8.32-.7-7.43c-.43-4.6-1.14-7.42-1.86-7.4-.64 0-4.17.44-7.83.97s-11.67 1.03-17.8 1.1l-11.1.16.28 6.12c.28 5.77.43 6.1 2.63 5.8 3.1-.44 2.63 2.9-.6 4.32-1.27.55-4.87 4.93-8 9.73-5.76 8.8-6.56 9.48-9.14 7.85zM90.4 335.6c1.9-3 3.48-5.6 3.48-5.76 0-.17-4.74-.37-10.54-.45l-10.53-.16-1.96 3.87-1.97 3.87 2.06 1.1c1.14.6 4.85 1.47 8.26 1.9 3.4.45 6.52.87 6.94.94.42.08 2.33-2.3 4.25-5.3zm23.98-.12c6.05-1.82 12.86-4.12 15.13-5.12 3.67-1.6 4.05-2.08 3.3-4.07-1.03-2.7-1.04-2.7-17.42.08l-13 2.22-3.25 4.96c-1.8 2.72-3.25 5.32-3.25 5.76 0 1.17 5.94-.07 18.5-3.84zm86.16-.04c19.03-2.73 27.74-6.97 32.18-15.64 2.23-4.38 2.32-5.1 1.16-9.26-1.7-6.1-7.7-12.68-14.22-15.6-4.3-1.92-6.97-2.37-14.28-2.38-10.52 0-12.48.8-25.6 10.7-4.62 3.48-10.54 7.33-13.14 8.56-19.34 9.07-25.7-9.32-9.28-26.78 5.3-5.63 6.95-9.7 6.84-16.86-.07-4.63-.63-7.08-2.05-9-6.84-9.24-20.13-10.6-28.84-2.95-4.84 4.26-6.42 7.76-6.42 14.2 0 7.25 1 9.6 6.6 15.26 4.84 4.9 8.34 11.2 8.37 15.07.02 1.22-1.03 5.05-2.32 8.5-3.2 8.5-3.9 12.98-2.6 16.4 1.35 3.58 4.6 7.1 8.26 9.02 6.42 3.34 34.64 3.72 55.34.74zm-60.66-61.4c-2.62-2.6-2.72-9.05-.17-11.35 3.82-3.46 11.32-1.22 12.56 3.75.68 2.7-.83 7.62-2.7 8.8-2.3 1.48-7.67.8-9.68-1.2zm7.94-3.44c.9-1.06.9-1.96.1-3.5-1.35-2.5-4.6-2.7-5.9-.34-2.14 3.8 3 7.2 5.8 3.84zm-47.5 49.8c1.96-2.56 3.56-5.03 3.56-5.5 0-.48-4.47-.86-9.93-.86h-9.92l-4.05 4.74c-4.93 5.77-4.5 6.1 8.1 6.2l8.7.06 3.55-4.64zm20.8.96c8.76-1.4 10.76-2.02 10.76-3.4 0-2.26-2.86-2.9-13-2.9h-8.5l-2.25 3.48c-1.24 1.9-2.25 3.7-2.25 4 0 .9 4.2.56 15.25-1.18zm13.73-14c1.14-2.57 1.72-5 1.3-5.4-.43-.38-3.76-1-7.42-1.38l-6.64-.68-3.74 4.47c-2.05 2.45-3.8 4.85-3.86 5.32-.12.8 6.72 1.83 14.58 2.18 3.5.15 3.82-.1 5.77-4.52zm129.03 2.76c0-3.5-1-3.8-6.8-2.18l-5.7 1.6 3.5.62c5.52.97 9 .96 9-.04zm24.8-3.84c.23-3.1-.1-4.42-1.2-4.84-1.45-.55-7.74.5-15.8 2.66-3.57.95-3.65 1.08-2.63 4l1.05 3 9.14-.27 9.14-.3.3-4.25zm-176.54-1.04l3.75-4.7-6.74-.3c-8.7-.4-9.96-.02-15.27 4.5l-4.45 3.8 5.96.58c12.74 1.24 12.62 1.27 16.74-3.88zm148.27-3.4c.5-.5-.83-4.15-2.06-5.62-.43-.5-8.4 3.75-14.16 7.58-8.54 5.67-6.7 6.5 5.15 2.35 5.75-2.03 10.73-3.96 11.08-4.3zm-97.1 6.32c.6-.96-8.32-3.56-9.2-2.7-.27.3.06 1.22.76 2.06 1.35 1.63 7.54 2.1 8.45.64zm9.58-6.3c0-1.57-6.73-9.6-9.64-11.5-2.3-1.5-2.58-1.46-5 .8-3.02 2.8-5.8 7.8-4.86 8.72.36.36 4.1 1.6 8.33 2.72 7.53 2.03 11.18 1.78 11.18-.74zm82.55-10.04c.17-.17-.52-1.4-1.52-2.74l-1.83-2.43-7.8 5.94c-4.3 3.26-8.26 6.24-8.8 6.6-.6.43-.5 1.24.27 2.17 1.06 1.28 2.48.75 10.3-3.88 5-2.95 9.22-5.5 9.4-5.68zm20.9 5.8c4.94-1.3 9.1-2.78 9.28-3.3.5-1.4-2.62-8.28-3.73-8.28-1.36 0-19 7.1-19 7.65 0 1.1 3.14 6.34 3.78 6.3.4 0 4.76-1.1 9.7-2.4zm-96-.54c2.16-2.38 2.1-2.54-4.94-13.93-5.53-8.92-7.52-10.87-7.53-7.36 0 .95-.9 3.23-2.02 5.05l-2 3.3 6.76 7.43c3.73 4.08 7.04 7.43 7.37 7.44.33 0 1.4-.86 2.37-1.94zm-44.45-.93c0-.5-.84-1.92-1.85-3.17l-1.85-2.3-3.15 2.25c-1.74 1.24-3.15 2.67-3.15 3.18 0 .52 2.25.94 5 .94s5-.4 5-.9zm-11.04-4.58c3.67-3.74 4.1-4.57 2.68-5.1-1.6-.63-20.64 7.72-20.64 9.03 0 .3 3.05.54 6.8.54 6.7 0 6.83-.05 11.16-4.47zm115.75-2.03c4.5-3.3 8.22-6.5 8.24-7.1.06-1.7-3.74-4.7-5.22-4.13-.74.3-4.85 3.3-9.13 6.72l-7.8 6.2 2.28 2.43c1.25 1.33 2.53 2.3 2.84 2.16.3-.14 4.25-2.96 8.77-6.26zm-10.92-10.87c.2-2.86-.1-4.63-.78-4.63-2.42 0-18.06 4.3-19.5 5.37-1.14.83-1.4 2.04-.93 4.37.55 2.76 1.17 3.3 4.28 3.83 2 .33 4.75.96 6.13 1.4 2 .62 3.3.14 6.5-2.46 3.48-2.82 4.04-3.84 4.3-7.87zm48.65-1.73c-.83-1.6-2-2.9-2.63-2.9-1.5 0-17.58 8.8-18.34 10.02-.32.53.17 1.98 1.1 3.22l1.67 2.26 9.85-4.85 9.85-4.86-1.5-2.9zm-77.2 10.66c2.25-.5 2.75-1.14 2.75-3.58 0-3.4-.9-3.57-6.14-1.16-3.16 1.46-3.53 1.98-2.8 3.9.48 1.24 1.44 2.07 2.15 1.85.7-.2 2.5-.66 4.03-1zm-1.6-10.2c3-1.24 3.35-1.8 3.35-5.37 0-2.2-.44-4-.97-4-1.4 0-11.38 4-12.36 4.97-.46.44-.1 2.23.8 3.98 1.76 3.4 2.08 3.4 9.2.43zm67.58-5.65c3.17-1.77 5.76-3.46 5.76-3.77 0-.3-.6-1.4-1.36-2.44-1.3-1.8-1.7-1.7-9.75 2.2-4.6 2.24-9.25 4.75-10.32 5.57-1.86 1.44-1.87 1.6-.2 4.15l1.73 2.65 4.2-2.57c2.32-1.4 6.8-4 9.95-5.78zm-23.86 1.4c4.66-3.05 3.9-3.46-3.36-1.82-5.24 1.2-5.52 1.4-5.83 4.64l-.32 3.4 2.82-1.83c1.55-1 4.57-2.98 6.7-4.38zm-24.2-1.8l10.03-2.7-.64-4c-.36-2.23-.84-4.23-1.07-4.46-.24-.25-5 1-10.56 2.77-9.3 2.94-10.07 3.38-9.54 5.4.33 1.2.6 2.96.6 3.92.02 2.18-.7 2.24 11.18-.95zm-23.66-5.86l6-2.3-.25-4.32c-.13-2.4-.5-5.83-.8-7.64-.5-2.85-.87-3.2-2.76-2.63-2.92.9-20.1 7.6-20.58 8.04-.23.2 1.2 2.12 3.15 4.28 1.96 2.17 4.08 4.92 4.72 6.1.8 1.5 1.67 1.95 2.83 1.46.92-.4 4.38-1.74 7.68-3zm49.82-.53c5.58-1.13 10.3-2.23 10.5-2.43.2-.2.06-1.74-.3-3.43-.8-3.58-2.48-3.8-14.98-1.94-7.33 1.1-7.54 1.2-7.54 3.92 0 2.92.86 5.96 1.7 5.96.26 0 5.05-.93 10.62-2.07zm-121.06-4.18c.85-2.35 1.8-6.4 2.12-9.03.5-4.1 3.7-14.63 6-19.85.53-1.17-.4-2.5-3.28-4.8l-4-3.17-1.53 2.95c-3.18 6.14-6.66 20.63-6.87 28.58-.2 8.33-.08 8.57 5.4 9.46.35.05 1.32-1.8 2.16-4.15zm139.6 1.14c3.6-1.25 3.72-1.63 1.58-4.68-1.5-2.14-6.44-3.18-6.44-1.35 0 1.3 1.2 7.14 1.47 7.14.13 0 1.65-.5 3.38-1.1zm-46.68-3.67c4.78-1.5 8.77-3.08 8.88-3.5.1-.44-.38-3.52-1.1-6.86l-1.28-6.07-3.86.62c-2.13.34-6.22 1.4-9.1 2.35-5.22 1.74-5.22 1.74-4.97 5.74.4 6.05 1.26 10.5 2.04 10.48.4 0 4.6-1.25 9.4-2.75zm25.32-5.72c4.4-.8 8.56-1.46 9.25-1.48 1.35-.03 1.67-3.83.48-5.65-.4-.62-3.42-2.45-6.72-4.07-5.23-2.57-6.63-2.85-10.85-2.2-2.67.4-5.1 1-5.4 1.3-.55.55 1.48 11.26 2.42 12.84.6 1 1.53.93 10.83-.75zm-103.34-4.35c6.47-2.1 7.1-5.2 2.06-10.4-2-2.07-3.9-3.76-4.24-3.76-.94 0-3.63 6.1-4.42 10-.4 1.93-.96 4.36-1.25 5.4-.45 1.55-.2 1.75 1.3 1.1 1.04-.45 3.98-1.5 6.54-2.34zm10.84-1.6c0-.24-.45-.72-1-1.06-.55-.34-1-.14-1 .44 0 .58.45 1.06 1 1.06s1-.2 1-.44zm63.34-7.7c8.42-2.5 8.7-2.7 7.62-5.52-.66-1.7-2.57-2.56-9.15-4.1-4.58-1.1-8.45-1.87-8.6-1.73-.76.62 1.17 13.5 2 13.5.54 0 4.2-.97 8.12-2.14zm-59.38-36.48c9.08-7.65 7.3-19.82-3.5-23.95-5.87-2.24-11-.86-15.37 4.12-5.36 6.1-3.77 16.23 3.2 20.48 4.8 2.93 11.75 2.63 15.67-.66zm-13.8-5.7c-4.85-5.17-1.5-12.68 5.68-12.68 4.96 0 7.6 2.74 7.45 7.76-.2 6.78-8.46 9.88-13.12 4.93zm50.75 5.53c4.2-3.14 6.35-6.83 6.35-10.92 0-8.45-5.98-14.28-14.64-14.3-4.3 0-5.3.45-8.66 3.8-5.1 5.1-5.93 9.58-2.92 15.8 3.78 7.82 13.32 10.52 19.87 5.62zm-13.27-6.04c-2.32-2.56-2.13-8.68.35-11.16 2.63-2.63 7.96-2.6 10.8.04 2.6 2.43 2.9 7.5.64 10.74-2.03 2.9-9.3 3.14-11.8.4zm47.36 3.98c12.62-6.75 7.42-26.15-7-26.14-9.97 0-16.92 11.4-12.23 20 4.03 7.4 12.08 9.96 19.22 6.14zm-11.4-6.2c-2-1.6-2.62-2.97-2.6-5.76 0-4.24.63-5.44 3.66-7.03 3.2-1.7 5.7-1.43 8.68.9 2.03 1.6 2.64 2.97 2.64 5.94s-.6 4.33-2.64 5.93c-1.45 1.14-3.64 2.07-4.86 2.07-1.23 0-3.42-.93-4.87-2.07zm-42.04-20.4c4.45-2.92 6.58-7.45 6.1-12.97-.36-4.22-1-5.48-4.52-8.74-3.56-3.33-4.7-3.82-8.87-3.8-15.15 0-19.75 19.3-6.27 26.28 4.02 2.1 9.7 1.77 13.56-.76zm-11.2-4.97c-2.94-1.28-4.34-3.78-4.37-7.86-.03-2.9 4.5-6.7 7.98-6.7 3.57 0 8 3.82 8 6.9 0 3.6-2.22 6.98-5.3 8.05-1.65.57-3.05 1.02-3.1 1-.06-.02-1.5-.65-3.2-1.4zm-23.33 2.62c6.37-6.37 6.52-13.54.4-19.65-6.07-6.08-14.52-5.64-20.4 1.07-2.44 2.77-3.05 4.38-3.05 7.98 0 8.92 5.47 14.4 14.36 14.42 4.3 0 5.3-.44 8.7-3.82zm-14.88-4.5c-2.55-2.72-2.83-7.3-.62-10.46 2.13-3.03 9.3-3.14 12-.17 2.6 2.86 2.3 8.84-.57 11.16-3.14 2.53-8.16 2.3-10.8-.53zm86.35 6.3c9.48-5.86 7.9-20.2-2.7-24.44-9.32-3.72-18.82 2.82-18.82 12.96 0 10.74 12.2 17.25 21.52 11.48zm-13.45-6.62c-4.47-5.67-1.35-12.36 5.77-12.36 4.86 0 7.56 2.74 7.56 7.68 0 6.95-9.05 10.13-13.33 4.68zm49.56 5c4.07-1.92 6.06-4.5 7.44-9.62 1.36-5.03-1.53-11.84-6.25-14.7-9.75-5.95-22.98 2.34-21.34 13.35 1.48 9.9 11.24 15.2 20.15 10.98zm-11-6.43c-2-1.58-2.62-2.96-2.6-5.75 0-4.24.63-5.44 3.66-7.03 3.2-1.7 5.7-1.43 8.68.9 2.03 1.6 2.64 2.97 2.64 5.94s-.6 4.33-2.64 5.93c-1.45 1.14-3.64 2.07-4.86 2.07-1.23 0-3.42-.93-4.87-2.07zm-77.7-20.68c9.85-5.03 10.47-17.78 1.18-24-9.36-6.25-21.1.4-21.1 11.95 0 3.9.56 5.36 3.2 8.36 5 5.73 10.4 6.9 16.73 3.7zm-9.6-5.27c-4.92-1.98-5.9-9.6-1.7-12.92 2.98-2.33 5.5-2.6 8.7-.9 3 1.57 3.65 2.78 3.65 6.84 0 4.06-.65 5.27-3.66 6.85-2.54 1.32-3.98 1.35-7 .13zm49.68 2.5c6.34-6.07 6.13-14.53-.5-20.35-6.2-5.44-13.24-5.16-18.9.76-6.4 6.66-5.1 16.3 2.85 21.3 4.58 2.88 12.63 2.05 16.55-1.7zm-15-4.5c-2.62-2.6-2.72-9.04-.17-11.34 2.53-2.3 9.4-2.2 11.52.17.9 1 1.66 3.48 1.66 5.5 0 4.78-2.83 7.67-7.5 7.67-2.17 0-4.27-.76-5.5-2zm49.58 3.55c4.45-2.92 6.58-7.45 6.1-12.97-.36-4.22-1-5.48-4.52-8.74-3.53-3.3-4.73-3.82-8.76-3.82-15.15 0-19.84 19.33-6.38 26.3 4.02 2.1 9.7 1.77 13.56-.76zm-12.18-5.3c-1.65-1.1-3.4-4.83-3.4-7.22 0-1.16 1.1-3.22 2.45-4.57 3.3-3.3 7.84-3.25 11.2.1 2.16 2.16 2.5 3.2 2 6.26-.34 2.02-1.38 4.24-2.32 4.93-1.85 1.35-8.15 1.66-9.92.47zm-43.64-18.23c4.2-2.57 7.23-7.6 7.23-12 0-1.94-.9-4.98-2-6.77-4.98-8.2-15.13-9.58-21.73-2.97-6.6 6.6-5.2 16.75 2.98 21.75 1.8 1.1 4.83 1.98 6.76 1.98 1.92 0 4.96-.9 6.76-1.98zm-10.45-4.98c-1.2-.5-2.67-1.8-3.26-2.9-4.17-7.8 5.2-15.78 12.05-10.24 2.76 2.25 3.27 9.15.84 11.57-1.93 1.94-6.87 2.74-9.65 1.57zm47.47 3.34c3.5-2.24 6.2-7.4 6.2-11.86 0-14.17-19.44-19.02-26.13-6.52-3.82 7.15-1.25 14.95 6.2 18.8 4.82 2.5 9.43 2.36 13.73-.4zm-13.72-7c-1.14-1.44-2.07-3.63-2.07-4.86 0-1.23.93-3.42 2.07-4.87 1.6-2.03 2.95-2.63 5.93-2.63 6.2 0 9.73 5.84 6.85 11.32-1.6 3.02-2.8 3.65-7.03 3.66-2.8.02-4.18-.6-5.75-2.62z"/><path fill="#495547" d="M57.88 444.48c-21.73-4.68-40.58-18.85-49.92-37.52C.33 391.73.78 404 1.1 220.04l.28-164.5 2.7-7.3c9.3-25.04 29.97-42.12 56.54-46.7C68.44.17 84.2 0 183.48.3 310.98.65 302.2.15 318.38 8c14.57 7.1 26.4 18.77 32.96 32.54 6.97 14.63 6.54 2.6 6.54 182.65 0 158.48-.05 162.7-1.98 170.23-5.2 20.32-21.63 38.9-41.6 47-14.07 5.73-11.26 5.62-135.63 5.53-94-.07-115.45-.33-120.8-1.48zm244-3.78c20.25-5.44 37.1-19.02 46.08-37.16 7.34-14.82 6.98-5.15 6.68-184l-.26-160-2.76-8.13c-7.6-22.38-28.52-41.12-51.24-45.87-10.45-2.17-231.56-2.17-242 0-22.72 4.75-43.66 23.5-51.25 45.88l-2.75 8.14-.28 160c-.3 179.36-.73 168.44 6.97 184.5 3.36 7 5.68 10.1 13.2 17.62 7.52 7.53 10.6 9.82 17.6 13.17 9.34 4.46 14.18 5.95 23.4 7.18 3.36.46 56.5.74 118.1.63 103.03-.17 112.53-.32 118.5-1.93zM70.02 343.53c-2.95-.83-5.76-1.75-6.25-2.06-2-1.24-.77-7.26 2.68-13 11.4-18.95 24.3-30.55 45.62-40.97 5.12-2.5 10.07-4.97 11-5.48 1.3-.7 2.1-.4 3.27 1.27 1.5 2.1 1.4 2.25-1.7 3.33-1.8.62-6.64 2.88-10.76 5.02l-7.5 3.9 6.8.3 6.83.28 6-5.54c3.3-3.06 6.38-5.56 6.85-5.56 1.5 0 7.04 8.33 8.26 12.4 1.06 3.5.88 4.78-1.68 12-3.53 9.96-3.8 15.43-.95 19.28 5.43 7.33 11.67 8.8 36.4 8.62 14.7-.12 31.72-2.14 40.82-4.84 7.58-2.25 14.2-7.2 17.02-12.7 2.23-4.38 2.32-5.1 1.16-9.26-1.7-6.1-7.7-12.68-14.22-15.6-4.3-1.92-6.97-2.37-14.28-2.38-10.52 0-12.48.8-25.6 10.7-4.62 3.48-10.54 7.33-13.14 8.56-19.34 9.07-25.7-9.32-9.28-26.78 5.42-5.76 6.96-9.66 6.8-17.25-.1-6.05.08-6.76 1.8-6.76 1.05 0 1.92.6 1.92 1.32 0 .73 2.5 5.1 5.55 9.75s7.17 11.22 9.17 14.63l3.62 6.18 2.83-1.45c2.82-1.46 2.83-1.48 1.3-5.2-2.92-7-7.98-14.47-14.72-21.73-7.05-7.58-7.74-8.9-5.25-9.84 1.27-.5 1.5-4 1.5-23.1 0-21.87.06-22.54 2-22.54 1.93 0 2 .67 2 20.83 0 11.46.28 21.12.62 21.46.34.34 2.43-.3 4.63-1.42l4-2.03-.62-5.17c-.33-2.84-.6-12.02-.6-20.4l-.02-15.26h-2.54c-1.4 0-4.4-.95-6.7-2.12-5.12-2.6-13.87-2.2-20.76 1-2.48 1.14-5.68 2.1-7.13 2.1-1.44 0-4.54.7-6.9 1.52-3.63 1.3-6.25 1.34-17.98.36l-13.73-1.15-1.42-4.58-1.42-4.57-7.96-1.8c-11.46-2.57-10.93-2.1-7.97-7.15l2.58-4.42-8.28-2.67c-4.56-1.47-8.97-2.92-9.8-3.22-.87-.3.92-1.36 4.34-2.53 3.22-1.1 5.47-2.3 5-2.7-.45-.4-3.3-1.75-6.32-3-3.03-1.25-5.86-2.6-6.3-3.02-.45-.4 2.03-1.33 5.5-2.03 3.46-.7 6.65-1.6 7.08-2 .43-.37-1.73-2.03-4.8-3.68l-5.6-3 11.07-2.32c6.1-1.28 10.85-2.54 10.6-2.8-.27-.26-3.76-1.27-7.77-2.24l-7.28-1.75 6-.18c9.68-.28 10.74-1.25 4.4-4-6.16-2.64-6.3-2.5 6.1-6.17 6.88-2.04 7.25-2.28 4.5-2.92-1.65-.4-4.58-.76-6.5-.84-7.05-.27-6.48-1.83 1.12-3.14 4.06-.7 7.74-1.58 8.18-1.97.44-.38-1.27-1.28-3.82-2-5.34-1.5-4.53-2.52 2.8-3.53l4.9-.67-2.8-2.9c-2.6-2.73-2.64-2.9-.65-2.9 1.17 0 2.9-.3 3.83-.65 1.35-.52.78-1.15-2.67-2.95l-4.38-2.3 5.75-.05c3.16-.02 5.74-.38 5.74-.8 0-.4-1.92-2-4.25-3.56-2.33-1.54-3.34-2.58-2.24-2.3 1.1.28 3.8.8 6 1.12 3.8.57 3.87.53 1.6-.8-2.57-1.53-2.2-2.04 2.32-3.12l2.9-.7-5.9-3.94c-6.6-4.4-6.55-4.45 2.58-2.44 9.3 2.05 9.35 2.03 6.48-2.53l-2.54-4 2.78.58c8.35 1.77 7.77 1.86 5.93-.98-.9-1.4-2.38-3.7-3.27-5.06-.9-1.38-1.45-2.5-1.25-2.5.2.02 2.5.67 5.13 1.46 4.97 1.5 5.62 1.04 3.64-2.66-1.2-2.22-1.4-2.2 5.74-.22 2.06.57 2.1.4 1.26-4.16-.5-2.6-.72-4.92-.5-5.13.2-.2 2.63.48 5.4 1.53l5.02 1.9.6-2.98c.33-1.64.6-4.08.6-5.4v-2.44L154.3 66c2.44 1.67 4.7 3.04 5 3.04.32 0 .58-2.36.58-5.25v-5.26l3.68 5.24c2.02 2.88 3.84 5.07 4.06 4.85.22-.22.74-2.58 1.16-5.24l.76-4.86 2.53 5.5 2.53 5.5.7-5c.4-2.75.8-5.68.93-6.5.12-.83 1.08.86 2.13 3.75 1.05 2.88 2.17 5.24 2.48 5.24.3 0 1.25-2.36 2.1-5.25l1.53-5.26 1.53 4.48 1.53 4.5 1.84-5c1-2.74 2.13-5.32 2.48-5.74.36-.42 1.47 1.8 2.46 4.96l1.8 5.73 2.24-4.35 2.22-4.36 2.77 3.63c3.05 4 4.5 3.94 4.65-.17.08-2.2.34-1.9 1.47 1.7.76 2.42 1.58 4.6 1.83 4.85.25.24 1.77-1.87 3.4-4.7 3.07-5.4 4.2-5.14 4.2.92 0 1.53.27 4.18.62 5.88l.6 3.1 4.4-3.6 4.38-3.58v4.95c0 2.73.27 5.23.6 5.56.34.35 3.1-.48 6.16-1.83 3.05-1.35 5.73-2.27 5.96-2.04.22.22-.77 2.75-2.22 5.6-1.45 2.87-2.43 5.42-2.17 5.68.27.27 2.37-.48 4.68-1.66 2.3-1.18 4.43-1.9 4.72-1.6.3.28 0 2.62-.64 5.18-.65 2.57-.98 4.86-.74 5.1.24.24 2.06-.24 4.05-1.07 4-1.67 4.24-1.3 2.68 4.15-1.06 3.67-.77 3.77 6.76 2.3l4.35-.82-3.84 4-3.82 4 6.25-.52c3.43-.3 6.25-.35 6.25-.14 0 .22-2.72 2.37-6.04 4.8l-6.04 4.38 5.67.7 5.66.72-5.12 5.2c-2.82 2.85-5.12 5.5-5.12 5.9 0 .4 1.3.72 2.87.72 1.58 0 4.24.27 5.9.6l3.05.6-3.47 3.06c-4.3 3.78-3.26 4.7 5.34 4.72 3.4 0 6.42.4 6.7.86.3.46-2.05 2.76-5.18 5.1l-5.72 4.27 8.84-.5c4.87-.28 8.47-.16 8 .27-.46.42-4.44 2.4-8.84 4.37-4.4 1.97-7.78 3.67-7.5 3.76.27.1 4.77.68 10 1.3l9.5 1.17-6.72 3.4-6.7 3.4 3.43 2.45c3.74 2.67 3.7 4.16-.08 4.16-3.12 0-3.07.73.28 4.23l2.72 2.84-5.72-.66c-5.85-.7-7.2.14-4.22 2.6 2.75 2.28 1.55 3.72-4.5 5.42-6.88 1.93-6.92 2.05-4.46 12.52.84 3.55 1.3 7.03 1.02 7.75-.32.84-2.33 1.3-5.6 1.3h-5.12l.64 2.92.64 2.9-7.3.68c-6.2.57-8.68.28-16-1.86-10.24-2.98-23.64-5.63-28.47-5.63-1.93 0-5.5 1.2-8.14 2.75l-4.72 2.74.27 19.8.27 19.82 2.23-.68c5.03-1.54 4.9-.97 4.77-21.28-.12-18.53-.05-19.16 1.88-19.16 1.8 0 2.02.77 2.3 8.25.25 7.63.44 8.26 2.48 8.55 2.1.3 2.23-.06 2.5-8 .25-6.96.58-8.34 2.05-8.62 1.56-.3 1.75.63 1.75 8.7V224l3.25.88c1.78.5 3.58.7 4 .47.4-.22.75-4.66.75-9.85 0-8.77.14-9.44 2-9.44 1.87 0 2 .67 2 10.44 0 5.74.33 10.63.75 10.86.4.23 1.98.72 3.5 1.08l2.75.66v-9.6c0-8.6.18-9.55 1.75-9.25 1.5.3 1.8 1.74 2.03 10.36l.28 10.03 2.9 1.1c1.6.6 3.17.84 3.48.53.3-.3.56-4.3.56-8.9 0-7.73.14-8.32 2.05-8.32 1.96 0 2.05.5 1.87 9.7l-.2 9.72 5 2.7 5 2.7 4.78-6.48c9.82-13.37 23.66-25.37 39-33.8l5-2.74-3 2.7c-1.65 1.46-7.14 6.23-12.18 10.58-8.76 7.55-22.84 23.3-26.57 29.72l-1.76 3 4.87 4.1 4.87 4.06 4.3-6.1c5.18-7.4 14.4-17.37 21.35-23.12 5.65-4.67 5.2-3.86-4.5 8.4-3.63 4.6-8.86 12.37-11.6 17.26l-5.03 8.9 3.36 4.4c4.5 5.9 9.68 15.3 13.43 24.35 3.37 8.1 7.98 24.68 7.98 28.64v2.47l-23.25-.78c-36.4-1.25-33.1-1.53-33.8 2.78-.83 4.97-3.08 8.14-8.4 11.8-8.33 5.73-13.06 7.15-33.55 10.06-9.36 1.32-39.5 1.33-47.43 0-4.13-.67-7.1-1.9-9.75-4.04l-3.8-3.07-9.73 3.64c-16.17 6.05-23.5 7.6-37.8 8.04-9.53.3-14.42 0-18.35-1.1zm20.37-7.94c1.9-3 3.48-5.6 3.48-5.76 0-.17-4.74-.37-10.54-.45l-10.53-.16-1.96 3.87-1.97 3.87 2.06 1.1c1.14.6 4.85 1.47 8.26 1.9 3.4.45 6.52.87 6.94.94.42.08 2.33-2.3 4.25-5.3zm23.98-.12c6.05-1.82 12.86-4.12 15.13-5.12 3.67-1.6 4.05-2.08 3.3-4.07-1.03-2.7-1.04-2.7-17.42.08l-13 2.22-3.25 4.96c-1.8 2.72-3.25 5.32-3.25 5.76 0 1.17 5.94-.07 18.5-3.84zm-14.05-15.08c1.95-2.56 3.55-5.03 3.55-5.5 0-.48-4.47-.86-9.93-.86h-9.92l-4.05 4.74c-4.93 5.77-4.5 6.1 8.1 6.2l8.7.06 3.55-4.64zm20.8.96c8.75-1.4 10.75-2.02 10.75-3.4 0-2.26-2.86-2.9-13-2.9h-8.5l-2.25 3.48c-1.24 1.9-2.25 3.7-2.25 4 0 .9 4.2.56 15.25-1.18zm13.72-14c1.14-2.57 1.72-5 1.3-5.4-.43-.38-3.76-1-7.42-1.38l-6.64-.68-3.74 4.47c-2.05 2.45-3.8 4.85-3.86 5.32-.12.8 6.72 1.83 14.58 2.18 3.5.15 3.82-.1 5.77-4.52zm129.03 2.76c0-3.5-1-3.8-6.8-2.18l-5.7 1.6 3.5.62c5.52.97 9 .96 9-.04zm24.8-3.84c.23-3.1-.1-4.42-1.2-4.84-1.45-.55-7.74.5-15.8 2.66-3.57.95-3.65 1.08-2.63 4l1.05 3 9.14-.27 9.14-.3.3-4.25zm-176.54-1.04l3.75-4.7-6.74-.3c-8.7-.4-9.96-.02-15.27 4.5l-4.45 3.8 5.96.58c12.74 1.24 12.62 1.27 16.74-3.88zm148.27-3.4c.5-.5-.83-4.15-2.06-5.62-.43-.5-8.4 3.75-14.16 7.58-8.54 5.67-6.7 6.5 5.15 2.35 5.75-2.03 10.73-3.96 11.08-4.3zm-97.1 6.32c.6-.96-8.32-3.56-9.2-2.7-.27.3.06 1.22.76 2.06 1.35 1.63 7.54 2.1 8.45.64zm9.58-6.3c0-1.57-6.73-9.6-9.64-11.5-2.3-1.5-2.58-1.46-5 .8-3.02 2.8-5.8 7.8-4.86 8.72.36.36 4.1 1.6 8.33 2.72 7.53 2.03 11.18 1.78 11.18-.74zm82.55-10.04c.17-.17-.52-1.4-1.52-2.74l-1.83-2.43-7.8 5.94c-4.3 3.26-8.26 6.24-8.8 6.6-.6.43-.5 1.24.27 2.17 1.06 1.28 2.48.75 10.3-3.88 5-2.95 9.22-5.5 9.4-5.68zm20.9 5.8c4.94-1.3 9.1-2.78 9.28-3.3.5-1.4-2.62-8.28-3.73-8.28-1.36 0-19 7.1-19 7.65 0 1.1 3.14 6.34 3.78 6.3.4 0 4.76-1.1 9.7-2.4zm-96-.54c2.16-2.38 2.1-2.54-4.94-13.93-5.53-8.92-7.52-10.87-7.53-7.36 0 .95-.9 3.23-2.02 5.05l-2 3.3 6.76 7.43c3.73 4.08 7.04 7.43 7.37 7.44.33 0 1.4-.86 2.37-1.94zm-44.45-.93c0-.5-.84-1.92-1.85-3.17l-1.85-2.3-3.15 2.25c-1.74 1.24-3.15 2.67-3.15 3.18 0 .52 2.25.94 5 .94s5-.4 5-.9zm104.7-6.6c4.53-3.3 8.24-6.5 8.26-7.1.06-1.7-3.74-4.7-5.22-4.14-.74.3-4.85 3.3-9.13 6.72l-7.8 6.2 2.28 2.43c1.25 1.33 2.53 2.3 2.84 2.16.3-.14 4.25-2.96 8.77-6.26zm-10.9-10.88c.2-2.86-.1-4.63-.78-4.63-2.42 0-18.06 4.3-19.5 5.37-1.14.83-1.4 2.04-.93 4.37.55 2.76 1.17 3.3 4.28 3.83 2 .33 4.75.96 6.13 1.4 2 .62 3.3.14 6.5-2.46 3.48-2.82 4.04-3.84 4.3-7.87zm48.65-1.73c-.83-1.6-2-2.9-2.63-2.9-1.5 0-17.58 8.8-18.34 10.02-.32.53.17 1.98 1.1 3.22l1.67 2.26 9.85-4.85 9.85-4.86-1.5-2.9zm-77.2 10.66c2.25-.5 2.75-1.14 2.75-3.58 0-3.4-.9-3.57-6.14-1.16-3.16 1.46-3.53 1.98-2.8 3.9.48 1.24 1.44 2.07 2.15 1.85.7-.2 2.5-.66 4.03-1zm-1.6-10.2c3-1.24 3.35-1.8 3.35-5.37 0-2.2-.44-4-.97-4-1.4 0-11.38 4-12.36 4.97-.46.44-.1 2.23.8 3.98 1.76 3.4 2.08 3.4 9.2.43zm67.58-5.65c3.17-1.77 5.76-3.46 5.76-3.77 0-.3-.6-1.4-1.36-2.44-1.3-1.8-1.7-1.7-9.75 2.2-4.6 2.24-9.25 4.75-10.32 5.57-1.86 1.44-1.87 1.6-.2 4.15l1.73 2.65 4.2-2.57c2.32-1.4 6.8-4 9.95-5.78zm-23.86 1.4c4.66-3.05 3.9-3.46-3.36-1.82-5.24 1.2-5.52 1.4-5.83 4.64l-.32 3.4 2.82-1.83c1.55-1 4.57-2.98 6.7-4.38zm-24.2-1.8l10.03-2.7-.64-4c-.36-2.23-.84-4.23-1.07-4.46-.24-.25-5 1-10.56 2.77-9.3 2.94-10.07 3.38-9.54 5.4.33 1.2.6 2.96.6 3.92.02 2.18-.7 2.24 11.18-.95zm-23.66-5.86l6-2.3-.25-4.32c-.13-2.4-.5-5.83-.8-7.64-.5-2.85-.87-3.2-2.76-2.63-2.92.9-20.1 7.6-20.58 8.04-.23.2 1.2 2.12 3.15 4.28 1.96 2.17 4.08 4.92 4.72 6.1.8 1.5 1.67 1.95 2.83 1.46.92-.4 4.38-1.74 7.68-3zm49.82-.53c5.58-1.13 10.3-2.23 10.5-2.43.2-.2.06-1.74-.3-3.43-.8-3.58-2.48-3.8-14.98-1.94-7.33 1.1-7.54 1.2-7.54 3.92 0 2.92.86 5.96 1.7 5.96.26 0 5.05-.93 10.62-2.07zm18.53-3.03c3.6-1.25 3.73-1.63 1.6-4.68-1.5-2.14-6.45-3.18-6.45-1.35 0 1.3 1.2 7.14 1.47 7.14.13 0 1.65-.5 3.38-1.1zm-46.67-3.67c4.78-1.5 8.77-3.08 8.88-3.5.1-.44-.38-3.52-1.1-6.86l-1.28-6.07-3.86.62c-2.13.34-6.22 1.4-9.1 2.35-5.22 1.74-5.22 1.74-4.97 5.74.4 6.05 1.26 10.5 2.04 10.48.4 0 4.6-1.25 9.4-2.75zm25.32-5.72c4.4-.8 8.56-1.46 9.25-1.48 1.35-.03 1.67-3.83.48-5.65-.4-.62-3.42-2.45-6.72-4.07-5.23-2.57-6.63-2.85-10.85-2.2-2.67.4-5.1 1-5.4 1.3-.55.55 1.48 11.26 2.42 12.84.6 1 1.53.93 10.83-.75zm-29.16-13.64c8.42-2.5 8.7-2.7 7.62-5.52-.66-1.7-2.57-2.56-9.15-4.1-4.58-1.1-8.45-1.87-8.6-1.73-.76.62 1.17 13.5 2 13.5.54 0 4.2-.97 8.12-2.14zm-59.38-36.48c9.08-7.65 7.3-19.82-3.5-23.95-5.87-2.24-11-.86-15.37 4.12-5.36 6.1-3.77 16.23 3.2 20.48 4.8 2.93 11.75 2.63 15.67-.66zm-13.8-5.7c-4.85-5.17-1.5-12.68 5.68-12.68 4.96 0 7.6 2.74 7.45 7.76-.2 6.78-8.46 9.88-13.12 4.93zm50.75 5.53c4.2-3.14 6.35-6.83 6.35-10.92 0-8.45-5.98-14.28-14.64-14.3-4.3 0-5.3.45-8.66 3.8-5.1 5.1-5.93 9.58-2.92 15.8 3.78 7.82 13.32 10.52 19.87 5.62zm-13.27-6.04c-2.32-2.56-2.13-8.68.35-11.16 2.63-2.63 7.96-2.6 10.8.04 2.6 2.43 2.9 7.5.64 10.74-2.03 2.9-9.3 3.14-11.8.4zm47.36 3.98c12.62-6.75 7.42-26.15-7-26.14-9.97 0-16.92 11.4-12.23 20 4.03 7.4 12.08 9.96 19.22 6.14zm-11.4-6.2c-2-1.6-2.62-2.97-2.6-5.76 0-4.24.63-5.44 3.66-7.03 3.2-1.7 5.7-1.43 8.68.9 2.03 1.6 2.64 2.97 2.64 5.94s-.6 4.33-2.64 5.93c-1.45 1.14-3.64 2.07-4.86 2.07-1.23 0-3.42-.93-4.87-2.07zm-42.04-20.4c4.45-2.92 6.58-7.45 6.1-12.97-.36-4.22-1-5.48-4.52-8.74-3.56-3.33-4.7-3.82-8.87-3.8-15.15 0-19.75 19.3-6.27 26.28 4.02 2.1 9.7 1.77 13.56-.76zm-11.2-4.97c-2.94-1.28-4.34-3.78-4.37-7.86-.03-2.9 4.5-6.7 7.98-6.7 3.57 0 8 3.82 8 6.9 0 3.6-2.22 6.98-5.3 8.05-1.65.57-3.05 1.02-3.1 1-.06-.02-1.5-.65-3.2-1.4zm-23.33 2.62c6.37-6.37 6.52-13.54.4-19.65-6.07-6.08-14.52-5.64-20.4 1.07-2.44 2.77-3.05 4.38-3.05 7.98 0 8.92 5.47 14.4 14.36 14.42 4.3 0 5.3-.44 8.7-3.82zm-14.88-4.5c-2.55-2.72-2.83-7.3-.62-10.46 2.13-3.03 9.3-3.14 12-.17 2.6 2.86 2.3 8.84-.57 11.16-3.14 2.53-8.16 2.3-10.8-.53zm86.35 6.3c9.48-5.86 7.9-20.2-2.7-24.44-9.32-3.72-18.82 2.82-18.82 12.96 0 10.74 12.2 17.25 21.52 11.48zm-13.45-6.62c-4.47-5.67-1.35-12.36 5.77-12.36 4.86 0 7.56 2.74 7.56 7.68 0 6.95-9.05 10.13-13.33 4.68zm49.56 5c4.07-1.92 6.06-4.5 7.44-9.62 1.36-5.03-1.53-11.84-6.25-14.7-9.75-5.95-22.98 2.34-21.34 13.35 1.48 9.9 11.24 15.2 20.15 10.98zm-11-6.43c-2-1.58-2.62-2.96-2.6-5.75 0-4.24.63-5.44 3.66-7.03 3.2-1.7 5.7-1.43 8.68.9 2.03 1.6 2.64 2.97 2.64 5.94s-.6 4.33-2.64 5.93c-1.45 1.14-3.64 2.07-4.86 2.07-1.23 0-3.42-.93-4.87-2.07zm-77.7-20.68c9.85-5.03 10.47-17.78 1.18-24-9.36-6.25-21.1.4-21.1 11.95 0 3.9.56 5.36 3.2 8.36 5 5.73 10.4 6.9 16.73 3.7zm-9.6-5.27c-4.92-1.98-5.9-9.6-1.7-12.92 2.98-2.33 5.5-2.6 8.7-.9 3 1.57 3.65 2.78 3.65 6.84 0 4.06-.65 5.27-3.66 6.85-2.54 1.32-3.98 1.35-7 .13zm49.68 2.5c6.34-6.07 6.13-14.53-.5-20.35-6.2-5.44-13.24-5.16-18.9.76-6.4 6.66-5.1 16.3 2.85 21.3 4.58 2.88 12.63 2.05 16.55-1.7zm-15-4.5c-2.62-2.6-2.72-9.04-.17-11.34 2.53-2.3 9.4-2.2 11.52.17.9 1 1.66 3.48 1.66 5.5 0 4.78-2.83 7.67-7.5 7.67-2.17 0-4.27-.76-5.5-2zm49.58 3.55c4.45-2.92 6.58-7.45 6.1-12.97-.36-4.22-1-5.48-4.52-8.74-3.53-3.3-4.73-3.82-8.76-3.82-15.15 0-19.84 19.33-6.38 26.3 4.02 2.1 9.7 1.77 13.56-.76zm-12.18-5.3c-1.65-1.1-3.4-4.83-3.4-7.22 0-1.16 1.1-3.22 2.45-4.57 3.3-3.3 7.84-3.25 11.2.1 2.16 2.16 2.5 3.2 2 6.26-.34 2.02-1.38 4.24-2.32 4.93-1.85 1.35-8.15 1.66-9.92.47zm-43.64-18.23c4.2-2.57 7.23-7.6 7.23-12 0-1.94-.9-4.98-2-6.77-4.98-8.2-15.13-9.58-21.73-2.97-6.6 6.6-5.2 16.75 2.98 21.75 1.8 1.1 4.83 1.98 6.76 1.98 1.92 0 4.96-.9 6.76-1.98zm-10.45-4.98c-1.2-.5-2.67-1.8-3.26-2.9-4.17-7.8 5.2-15.78 12.05-10.24 2.76 2.25 3.27 9.15.84 11.57-1.93 1.94-6.87 2.74-9.65 1.57zm47.47 3.34c3.5-2.24 6.2-7.4 6.2-11.86 0-14.17-19.44-19.02-26.13-6.52-3.82 7.15-1.25 14.95 6.2 18.8 4.82 2.5 9.43 2.36 13.73-.4zm-13.72-7c-1.14-1.44-2.07-3.63-2.07-4.86 0-1.23.93-3.42 2.07-4.87 1.6-2.03 2.95-2.63 5.93-2.63 6.2 0 9.73 5.84 6.85 11.32-1.6 3.02-2.8 3.65-7.03 3.66-2.8.02-4.18-.6-5.75-2.62z"/><path fill="#0e1f0b" d="M58.24 444.55c-14.15-3.08-26.57-9.82-36.9-20.03-7.83-7.75-12.87-15.57-17.14-26.66l-2.82-7.32-.28-164C.85 81.34 1 61.74 2.37 55.5 8.54 27.46 33.4 5.27 63.27 1.12c10.72-1.5 221.5-1.5 232.22 0 29.86 4.15 54.7 26.34 60.88 54.38 1.38 6.23 1.52 25.84 1.28 171.04l-.28 164-3.2 8.27c-9.14 23.76-28.86 40.44-54.12 45.8-9.58 2.02-232.47 1.98-241.82-.05zm235.5-2.55c27.07-3.4 48.9-20.83 57.72-46.1l2.92-8.36.27-160c.2-109.75-.05-162.18-.8-166.95-3.7-24.15-21.9-44.95-46.7-53.4l-7.77-2.66h-240L51.6 7.2c-24.8 8.45-43 29.24-46.7 53.4-.75 4.76-1 57.04-.8 166.94l.28 160 3.08 8.62c8.86 24.73 30.75 42.45 56.58 45.8 9.65 1.26 219.73 1.3 229.7.04zM72.38 343.93c-2.2-.5-5.3-1.43-6.86-2.07-2.6-1.05-2.8-1.5-2.36-4.92.66-4.87 9.5-18.45 17.73-27.26 7.28-7.8 21.77-17.8 34.18-23.6 4.73-2.23 9.04-4.04 9.6-4.04.88 0 2.64 3.05 1.97 3.45-.15.08-3.2 1.37-6.77 2.86-3.58 1.48-8.08 3.7-10 4.94l-3.5 2.24 6.78.3 6.8.3 6.18-5.52 6.18-5.5 2.4 2.2c2.67 2.45 7.13 11.2 7.15 14 0 .98-1.18 4.58-2.64 8-5.05 11.9-3.18 21.2 5.03 25.1 4.5 2.14 25.43 3.84 37.62 3.06 13.57-.86 33.58-4.16 38.52-6.35 10.24-4.53 15.68-12.92 13.54-20.87-3-11.1-14.2-18.22-28.7-18.22-8.6 0-15.33 2.78-24.36 10.05-10.1 8.12-18.38 12.17-24.07 11.75-3.68-.26-4.7-.84-6.64-3.7-1.26-1.88-2.28-4.8-2.27-6.5 0-4.04 4-12.44 7.36-15.55 1.46-1.35 4.08-4.67 5.82-7.38 2.75-4.3 3.17-5.8 3.15-11.56-.02-6 .72-8.06 2.9-8.1.4 0 .75.8.75 1.8 0 .98 1.15 3.34 2.56 5.24 1.4 1.9 5.5 8.27 9.06 14.18l6.5 10.75 2.94-1.52c1.6-.83 2.94-1.77 2.94-2.08 0-2.65-9.68-18.05-15.58-24.8-6.16-7.05-7.1-8.6-5.9-9.6 1.16-.96 1.5-5.52 1.7-23.34.24-18.9.5-22.14 1.78-22.14 1.27 0 1.54 3.16 1.77 21.35.25 19.77.4 21.3 2 20.64.95-.4 2.88-1.12 4.3-1.64l2.57-.93-.07-20.96-.07-20.95h-2.44c-1.34 0-4.42-.97-6.85-2.15-3.68-1.78-5.55-2.04-11.2-1.57-3.96.34-8.38 1.43-10.63 2.64-2.13 1.14-5.04 2.07-6.47 2.07-1.43 0-4.8.66-7.46 1.46-4.05 1.22-7.02 1.28-18 .36l-13.16-1.1-1.2-4.67-1.2-4.67-8.95-1.9c-4.92-1.04-8.95-2.32-8.95-2.83 0-.5.96-2.5 2.14-4.4 2.58-4.17 2.37-4.37-7.64-7.4-3.85-1.17-7.4-2.48-7.88-2.9-.48-.45 1.1-1.37 3.5-2.05 7.72-2.2 7.55-2.43-6.12-8.15-2.44-1.02-2.4-1.06 1.5-1.93 2.2-.5 5.8-1.38 8-1.97l4-1.08-6.3-3.17-6.28-3.18 11.5-2.4c6.33-1.34 11.33-2.6 11.1-2.84-.22-.22-3.92-1.2-8.2-2.2l-7.82-1.8 5.12-.1c2.82-.05 6.6-.38 8.4-.74l3.27-.67-5.8-2.62-5.82-2.6 9.4-2.9 9.43-2.92-5.5-.9c-9.54-1.56-10.1-2.27-2.96-3.63 10.8-2.05 11-2.2 4.93-4.1l-5.47-1.7 6.25-1.28c3.43-.7 6.25-1.65 6.25-2.1 0-.43-1.2-1.72-2.64-2.86l-2.63-2.06h2.56c5.84 0 6.23-1.26 1.13-3.6l-4.92-2.23 6.5-.1c6.28-.12 6.43-.2 4.44-1.84-1.13-.95-3.15-2.47-4.5-3.4-2.4-1.63-2.4-1.64 1.56-.76 5.76 1.3 7.4 1.1 4.5-.52-2.67-1.5-2.4-1.73 3.4-3.02 2.87-.63 2.83-.7-3.5-4.58-7.1-4.38-7-4.54 1.6-2.46 9.65 2.33 10.08 2.2 7.4-2.13l-2.25-3.66 4.67.53c2.57.3 4.68.32 4.68.08 0-.25-1.36-2.42-3.02-4.84l-3.02-4.38 4.77 1.45c6.3 1.9 6.42 1.88 5.1-1.03-1.5-3.26-.88-3.73 2.95-2.28 1.73.66 3.35.98 3.6.73.25-.26.08-2.5-.37-4.96-.46-2.48-.7-4.63-.55-4.8.16-.14 2.58.63 5.4 1.74l5.08 2 .67-4.97c.37-2.72.86-4.96 1.1-4.96.25 0 2.42 1.36 4.82 3l4.37 3.02.3-5.26.3-5.26 3.66 5.35 3.66 5.34.93-5.35.94-5.36 2.5 5.43 2.5 5.42.64-3.93c.36-2.16.7-5.28.73-6.93.07-2.67.3-2.42 2.15 2.25 1.13 2.88 2.4 5.24 2.83 5.24.43 0 1.35-2.36 2.04-5.25l1.26-5.26 1.45 4.34c1.64 4.9 2.16 4.66 4.73-2.3l1.83-4.97 1.84 5.38c1 2.96 2.03 5.6 2.3 5.84.24.26 1.23-1.16 2.18-3.16.95-2 1.98-3.62 2.3-3.6.3 0 1.64 1.6 2.97 3.53 2.57 3.8 3.97 3.26 4.12-1.56.05-1.66.67-.65 1.84 3l1.75 5.5 3.1-6c3.42-6.64 3.5-6.56 4.72 3.92.3 2.7.8 5.15 1.08 5.44.28.28 2.3-1.24 4.5-3.38l3.98-3.9v5.72c0 3.13.24 5.7.53 5.7.3 0 2.2-.7 4.26-1.6 9.03-3.84 8.58-4.06 5.22 2.6-1.65 3.27-3 6.2-3 6.5 0 .3 2.3-.63 5.1-2.05 2.8-1.43 5.3-2.4 5.53-2.16.25.24 0 2.4-.56 4.82-1.6 6.98-1.5 7.15 2.94 4.88 4.35-2.22 4.35-2.22 3.08 3.25-.8 3.43-.7 3.74 1.27 3.72 1.18-.02 3.95-.44 6.15-.94l4-.92-4.5 4-4.5 4 6.75-.36c3.7-.2 6.75-.3 6.75-.23 0 .07-2.76 2.1-6.12 4.55l-6.13 4.42 5.67 1 5.66 1-5.04 4.96c-2.78 2.73-5.04 5.32-5.04 5.75 0 .44 1.46.83 3.25.9 1.78.04 4.35.4 5.7.78 2.46.68 2.46.7-1.35 3.6-3.35 2.55-3.6 3-1.96 3.64 1.02.4 4.18.76 7.02.8 8.62.12 9.05.8 3.24 5.15-2.84 2.1-5.44 4.14-5.78 4.5-.34.38 3.43.47 8.38.2l9-.48-8.75 4.08c-4.82 2.25-8.75 4.37-8.75 4.7 0 .34 4.38 1.05 9.75 1.56l9.75.95-6.9 3.37-6.92 3.38 2.9 2.32c1.6 1.28 3.37 2.34 3.92 2.35 2.15.04-2.15 1.96-4.43 1.97l-2.42.02 2.02 2.25c3.92 4.34 3.75 4.64-2.27 4.02-5.5-.57-5.6-.53-4.5 1.5.6 1.17 1.55 2.38 2.1 2.72 2.1 1.3.78 2.26-5.36 3.92l-6.36 1.72 1.86 9.03c1.02 4.98 1.6 9.45 1.3 9.94-.3.5-3 .9-5.98.9-5.4 0-5.4 0-4.44 2.56.54 1.42.98 2.73.98 2.92 0 .2-3.34.66-7.42 1.04-6.13.58-8.5.34-13.75-1.4-14.7-4.87-34.76-7.65-36.38-5.03-.37.6-2.53 1.92-4.8 2.93-2.28 1-3.58 1.87-2.9 1.9.96.06 1.26 4.68 1.26 19.58 0 10.72.3 19.5.68 19.5.37 0 2.06-.5 3.75-1.1l3.08-1.12v-19.14c0-16.35.22-19.14 1.5-19.14 1.16 0 1.6 1.78 2 8 .46 7.36.68 8.03 2.75 8.32 2.17.3 2.25.04 2.25-7.64 0-5.9.36-8.1 1.4-8.5 2.28-.88 2.6.23 2.6 9.02 0 5.82.38 8.48 1.25 8.75.68.2 2.48.64 4 .98l2.75.6v-10.02c0-9.35.13-10.02 2-10.02s2 .67 2 10.52c0 10.38.03 10.54 2.56 11.5 1.4.54 2.97.98 3.46.98.5 0 1.03-4.16 1.2-9.25.22-7.44.57-9.26 1.78-9.26 1.2 0 1.55 1.92 1.78 10.16l.28 10.17 3.12 1.08c1.7.6 3.26 1.1 3.43 1.1.16 0 .43-3.94.6-8.75.24-7.6.52-8.78 2.15-9.1 1.74-.33 1.84.3 1.47 9.64l-.4 10 5.2 2.55 5.2 2.54 4.22-5.6c10.15-13.44 24.15-26.02 36.44-32.75l5-2.75-5 4.32c-14.82 12.8-32.95 32.66-35.23 38.6-.44 1.14 7.2 9.12 8.86 9.23.35.02 3.22-3.4 6.38-7.6 7.43-9.87 11.58-14.42 17.88-19.62 5.2-4.28 5.03-3.8-1.44 4.26-5.26 6.57-9.4 12.86-13.85 21.08l-3.95 7.27 4.45 6.22c8.3 11.62 15.42 28.23 19.38 45.18 2.08 8.87 2.72 8.6-18.74 7.86-10.3-.36-22.82-.92-27.83-1.24l-9.1-.6-.57 4.24c-1.24 9.22-14.6 17.72-32.22 20.47-5.5.86-11.45 1.8-13.2 2.07-4.74.76-32.34.66-40.48-.15-5.67-.55-8.02-1.35-12.1-4.1l-5.05-3.4-10.6 3.95c-19.34 7.22-39.74 9.95-52.57 7.03zm18.26-8.3c1.78-2.97 3.24-5.56 3.24-5.75 0-.2-4.9-.4-10.86-.5l-10.86-.15-1.64 3.44c-.9 1.9-1.64 3.84-1.64 4.33 0 .86 7.2 2.67 13.5 3.4 1.65.18 3.45.4 4 .5.57.07 2.48-2.3 4.26-5.27zm15.07 2.44c6.63-1.7 21.3-6.43 26.28-8.47 1.06-.44 1.44-1.48 1.13-3.1-.57-3.05-1.5-3.06-18.56-.14l-12.84 2.2-3.4 5.73c-3.92 6.67-3.9 6.67 7.4 3.77zm-8.32-13.8c1-.7 5.4-6.5 6.88-8.98.57-.98-1.72-1.26-10.2-1.26H83.15l-3.67 4.72c-3.3 4.22-3.5 4.8-1.9 5.43 2.4.94 18.54 1 19.8.07zm23.16-2.8c9.25-1.36 11.24-1.96 11.65-3.5.62-2.44-3-3.14-14.17-2.73l-8.34.3-2.55 4.3-2.54 4.3 2.4-.5c1.3-.3 7.4-1.27 13.54-2.17zm14.56-14.17c.93-2.6 1.38-5.03 1-5.4-.4-.36-3.9-.97-7.78-1.34l-7.05-.68-3.7 4.74c-2.03 2.6-3.7 5.1-3.7 5.53 0 .72 4.07 1.16 15.5 1.7 3.94.2 4.06.1 5.73-4.55zm128.76 2.5c-.04-3.13-1.47-3.46-7.48-1.73-5.88 1.7-5.93 1.73-2.5 2.2 7.05.92 10 .78 9.98-.48zm25.18-3.26c-.2-2.2-.73-4.4-1.2-4.9-.95-1-17.87 1.93-19.26 3.3-.44.44-.25 2 .42 3.48 1.22 2.68 1.27 2.7 10.8 2.4l9.58-.28-.34-4zm-176.88-.94c2.05-2.44 3.72-4.74 3.72-5.1 0-.36-3.95-.5-8.78-.3-8.55.33-8.9.44-13.67 4.34l-4.9 4 6.43.58c13.7 1.23 13.14 1.34 17.2-3.52zm138.72.18c4.67-1.68 8.86-3.37 9.3-3.75 1.06-.92-1.3-6-2.8-6-2.38 0-18 10.56-18.34 12.4-.3 1.5.02 1.74 1.5 1.16 1-.42 5.66-2.13 10.34-3.82zm-87.58 2.38c.62-1-8.17-3.7-9.08-2.8-.32.33-.32 1.3 0 2.14.65 1.68 8.1 2.23 9.08.66zm8.94-4.6c1.8-1.36 1.8-1.48-.17-4.2-1.12-1.56-4.1-4.83-6.62-7.3l-4.6-4.45-3.23 3.9c-5.23 6.28-6.07 9.5-2.5 9.6 1.24.03 4.73.9 7.76 1.9 6.83 2.28 7.08 2.3 9.36.57zm73.8-5.66c4.88-2.83 9.1-5.48 9.36-5.9.26-.4-.38-1.8-1.4-3.06l-1.88-2.3-5.37 3.72c-9.52 6.62-12.05 9.07-11.32 10.95.36.96.9 1.74 1.17 1.74.3 0 4.53-2.3 9.43-5.14zm-63.16-2.4c0-.43-10.54-17.93-12.48-20.72-1.1-1.56-1.57-1.07-4.23 4.3l-3 6.07 3.35 2.57c1.85 1.4 4.98 4.76 6.95 7.45l3.58 4.88 2.92-2.07c1.6-1.14 2.9-2.26 2.9-2.47zm94 2.1c6.1-1.55 9.4-2.86 9.2-3.65-.85-3.4-3.23-7.9-4.18-7.9-1.52 0-17.33 6.06-18.42 7.06-1.13 1.05 1.23 6.94 2.78 6.94.63 0 5.4-1.1 10.63-2.43zm-141.97-4c-1.2-1.96-2.36-3.56-2.57-3.56-.2 0-2.05 1.46-4.1 3.25l-3.7 3.24 5.92.5c3.26.27 6.1.4 6.3.3.2-.1-.63-1.8-1.84-3.75zM241 289.45l8.84-6.58-2.16-2.92c-1.2-1.6-2.37-2.92-2.63-2.92-.57 0-5.8 3.88-13.37 9.9l-5.72 4.57 2.72 2.24c1.5 1.23 2.9 2.24 3.1 2.26.2.02 4.36-2.92 9.22-6.54zm-14.85-2.96c3.25-3.03 3.75-4.08 3.75-7.97 0-3.62-.35-4.5-1.76-4.5-1.97 0-19.2 4.62-19.9 5.34-.26.26-.17 2.06.2 4 .62 3.38.93 3.6 6.8 5 3.4.78 6.38 1.48 6.66 1.53.27.05 2.18-1.48 4.25-3.4zm53.75-7.02c0-.3-.7-1.87-1.53-3.5l-1.52-2.94-8.2 4.13c-4.5 2.26-9.2 4.78-10.44 5.58l-2.25 1.47 2.1 2.85 2.1 2.85 9.87-4.95c5.42-2.72 9.86-5.2 9.86-5.5zm-76.18 4.67c.3-3.15.16-3.32-2.2-2.73-3.96 1-7.62 2.5-7.62 3.16 0 .33.43 1.4.95 2.38.76 1.42 1.73 1.66 4.75 1.17 3.43-.55 3.83-.94 4.12-3.98zm-5.7-5.85c4.8-1.7 4.88-1.8 4.88-6 0-2.34-.34-4.26-.75-4.27-1.9-.03-13.25 4.47-13.25 5.24 0 1.28 2.95 6.77 3.64 6.77.32 0 2.8-.78 5.47-1.74zm65.68-4.26c5.06-3.03 9.2-6 9.2-6.63 0-.6-.7-1.7-1.57-2.42-1.3-1.1-3.12-.53-11.58 3.63-5.52 2.72-10.26 5.3-10.54 5.76-.57.9 3.7 5.88 4.7 5.45.33-.14 4.74-2.74 9.8-5.76zm-22.03.5c7.12-4.78 6.88-5.17-2.1-3.36-5.55 1.1-5.67 1.2-5.67 4.5 0 1.85.24 3.36.53 3.36.3 0 3.56-2.03 7.25-4.5zm-13.1-9.82c-.27-2.12-.76-4.1-1.07-4.4-.68-.7-19.52 4.77-20.18 5.84-.26.42-.2 2.5.15 4.63l.62 3.86 10.5-3.05 10.5-3.03-.5-3.85zm-34.66 1.42l7.48-2.9-.26-5.35c-.4-8.65-.96-10.08-3.53-9.3-5.07 1.58-18.33 6.54-19.62 7.36-1.1.7-.4 2.16 3.4 6.98 2.63 3.35 4.84 6.1 4.9 6.1.08 0 3.5-1.3 7.6-2.9zm51.55-1.1c5.38-1.12 9.98-2.22 10.2-2.44.23-.23.1-1.8-.26-3.5-.8-3.58-2.48-3.8-14.98-1.94-7.33 1.1-7.54 1.2-7.54 3.92 0 3.3.9 5.96 2 5.96.42 0 5.18-.9 10.57-2zm19.58-3.58l3.05-1.58-2.28-2.42c-2.17-2.32-6.92-3.38-6.92-1.55 0 2.63 1.37 7.14 2.17 7.14.5 0 2.3-.7 3.98-1.58zm-47.84-3.04c5.04-1.44 9.3-2.75 9.48-2.9.34-.3-2.72-12.54-3.4-13.65-.36-.57-7.75 1.1-16.68 3.8-1.5.44-1.68 1.3-1.2 5.7.78 6.77 1.4 9.67 2.06 9.67.3 0 4.67-1.18 9.73-2.62zm30.25-6.7l6.08-1.18-.84-3.2c-.7-2.66-1.93-3.72-7.1-6.18-5.6-2.68-6.7-2.88-11.14-2.04-2.7.5-5.12 1.12-5.37 1.37-.26.24.13 3.43.86 7.08l1.32 6.64 5.05-.66c2.77-.36 7.78-1.2 11.12-1.84zm-33.78-12.9c7.97-2.18 8.28-2.37 7.67-4.77-.34-1.38-.7-2.57-.8-2.64-.52-.4-17.22-4.05-17.5-3.8-.6.5 1.04 13.44 1.7 13.46.35 0 4.37-1 8.93-2.24zm-59.7-36.06c6.93-4.65 7.67-15.16 1.5-21.32-4.25-4.25-9.2-5.2-15.22-2.9-5.9 2.25-8.36 6.18-8.37 13.37 0 4.9.33 5.7 3.88 9.26 3.56 3.56 4.33 3.88 9.35 3.88 4.05 0 6.37-.6 8.88-2.28zm-13.64-6.17c-3-3-3.13-6.43-.38-9.93 3.45-4.4 10.25-3.46 12.42 1.7 3.4 8.08-5.86 14.4-12.04 8.22zm49 7.02c9.07-3.78 10.72-16.7 3-23.5-2.98-2.6-4.33-3.08-8.74-3.08-6.5 0-10.76 2.44-13.17 7.52-3.33 7.03-.5 15.14 6.52 18.73 4.15 2.1 7.87 2.2 12.38.32zm-11.45-7.58c-2.8-2.8-2.64-8.06.3-10.83 6.85-6.4 17.05 3.78 10.66 10.65-2.65 2.84-8.2 2.94-10.96.2zm47.7 4.04c4.63-2.82 6.68-6.52 6.68-12.04 0-8.85-6.12-14.4-15.16-13.72-17.87 1.32-16.66 27.7 1.28 27.7 2.2 0 5.43-.86 7.2-1.94zm-9.7-4.73c-5.72-2.18-6.98-9.6-2.27-13.32 4.98-3.9 12.28-.34 12.28 6 0 4.95-5.56 9.02-10 7.32zm-44.93-21.47c9.17-5.16 9.18-19.55.02-24.3-9.85-5.1-21.1 1.55-21.08 12.46 0 10.94 11.32 17.3 21.05 11.84zm-13.04-7.52c-5.65-7.2 4.1-16.5 10.78-10.3 5.43 5.07 2.9 12.23-4.54 12.78-3.4.26-4.38-.13-6.23-2.48zM135.7 173c8.05-4.9 7.9-18.17-.3-23.54-3.88-2.54-9.7-2.9-14-.86-5.13 2.43-7.52 6.65-7.52 13.3 0 4.9.33 5.7 3.88 9.26 3.55 3.54 4.34 3.88 9.25 3.88 3.63 0 6.46-.67 8.7-2.03zm-13.37-6.4c-4.83-4.85-1.6-12.56 5.25-12.56 7 0 10.23 8.2 5.1 12.96-2.97 2.78-7.33 2.6-10.35-.4zm86.25 6.48c10.58-6.45 7.07-23.3-5.35-25.63-5.1-.96-11.77 1.9-14.43 6.22-1.75 2.82-2.07 4.56-1.7 9.1.4 4.88.93 6.03 4.1 8.93 3.17 2.9 4.34 3.34 8.9 3.34 3.47 0 6.38-.68 8.48-1.96zm-13.25-6.5c-3-3-3.13-6.4-.38-9.9 3.65-4.65 11.9-2.9 13.33 2.85.73 2.9-1.5 7.95-3.95 8.9-3.25 1.24-6.6.55-9-1.84zm50.24 4.5c4.64-2.82 6.7-6.52 6.7-12.04 0-8.85-6.13-14.4-15.17-13.72-17.87 1.32-16.66 27.7 1.28 27.7 2.2 0 5.43-.86 7.2-1.94zm-10.38-5.03c-4.93-2.03-5.9-9.6-1.7-12.94 3.5-2.74 6.92-2.6 9.92.4 6 6-.4 15.78-8.23 12.55zM158.9 142.5c4.05-3.88 5.62-9.3 4.14-14.25-1.8-6-6.14-9.47-12.4-9.93-9.14-.68-15 4.7-14.94 13.64.07 9.08 5.9 14.47 14.93 13.8 4.13-.3 5.92-1 8.27-3.26zm-12.54-3.6c-5.12-2.85-6.03-8.42-2.05-12.4 4.87-4.87 12.55-1.53 12.55 5.46 0 5.72-5.82 9.57-10.5 6.95zm48.13 4.22c4-2.43 6.9-9.5 5.96-14.5-1.4-7.48-9.2-12.62-16.96-11.17-11.48 2.15-15.07 16.6-6.07 24.5 2.97 2.6 4.33 3.1 8.73 3.1 3.37-.02 6.33-.7 8.35-1.93zm-13-6.15c-5.52-4.35-2.3-12.93 4.88-12.93 4.56 0 7.5 2.9 7.5 7.43 0 3.87-3.67 7.57-7.5 7.57-1.23 0-3.42-.93-4.87-2.07zm47.96 4.46c9.6-4.55 9.9-19.98.5-24.84-6.87-3.57-16.3-.9-19.65 5.56-2.3 4.5-1.5 12.1 1.68 15.54 4.77 5.17 11.44 6.6 17.48 3.73zm-12.55-8.07c-5.63-7.17 4.52-16.77 10.95-10.35 5.22 5.23 2.63 12.3-4.7 12.84-3.42.26-4.4-.13-6.24-2.48zm-42.3-16c12.8-6.06 7.7-26.32-6.64-26.32-8.42 0-14.08 5.62-14.08 14 0 10.8 10.6 17.12 20.7 12.33zm-11.8-7.24c-3.18-3.18-3.5-4.7-1.8-8.42 1.1-2.46 4.66-4.66 7.5-4.66 2.28 0 7.38 5.53 7.38 8 0 2.78-5.22 8-8 8-1.2 0-3.47-1.32-5.08-2.92zm46.4 6.56c1.8-.75 4.53-2.87 6.08-4.7 2.53-3 2.77-3.92 2.38-9.2-.35-4.86-.92-6.34-3.44-8.86-9.2-9.2-24.34-3.05-24.34 9.9 0 4.92 3.34 10.12 8.02 12.47 4.2 2.1 6.97 2.2 11.3.38zm-10.4-7.5c-1.7-1.37-2.32-2.92-2.32-5.64 0-6.98 7.92-10.07 12.94-5.05 3 3 3.13 6.4.38 9.9-2.52 3.2-7.56 3.56-11 .77z"/><path d="M58.24 444.55c-14.15-3.08-26.57-9.82-36.9-20.03-7.83-7.75-12.87-15.57-17.14-26.66l-2.82-7.32-.28-164C.85 81.34 1 61.74 2.37 55.5 8.54 27.46 33.4 5.27 63.27 1.12c10.72-1.5 221.5-1.5 232.22 0 29.86 4.15 54.7 26.34 60.88 54.38 1.38 6.23 1.52 25.84 1.28 171.04l-.28 164-3.2 8.27c-9.14 23.76-28.86 40.44-54.12 45.8-9.58 2.02-232.47 1.98-241.82-.05zm235.5-2.55c27.07-3.4 48.9-20.83 57.72-46.1l2.92-8.36.27-160c.2-109.75-.05-162.18-.8-166.95-3.7-24.15-21.9-44.95-46.7-53.4l-7.77-2.66h-240L51.6 7.2c-24.8 8.45-43 29.24-46.7 53.4-.75 4.76-1 57.04-.8 166.94l.28 160 3.08 8.62c8.86 24.73 30.75 42.45 56.58 45.8 9.65 1.26 219.73 1.3 229.7.04z"/></g></g></svg>