<svg xmlns="http://www.w3.org/2000/svg" width="359.001" height="445.925" viewBox="0 0 359.00095 445.92505"><g><g><path fill="#e0c5c6" d="M55.4 444.08c-24.73-6.08-44.1-23.74-52.2-47.6l-2.7-8-.28-161.5C-.1 45.2-.55 57.03 7.47 40.47 16.52 21.75 34.22 7.74 55.77 2.2 61.97.6 71.82.47 179.5.47S297.04.6 303.23 2.2c21.55 5.55 39.25 19.56 48.3 38.27 8.03 16.57 7.57 4.73 7.25 186.5l-.28 161.5-2.7 8c-6.62 19.46-19.46 33.74-38.3 42.55-15.58 7.3-9 6.96-138.7 6.88-107.18-.07-116.86-.2-123.4-1.82zm248.1-4.5c24.43-7.35 42.1-24.76 48.47-47.74 2-7.23 2.03-9.56 2.03-168.4 0-179.57.55-165.68-7.18-181.46-8.25-16.85-25.58-30.35-44.94-35-8.14-1.94-11.7-2-122.18-2-128.17 0-120.73-.42-137.63 7.7-12.9 6.17-23.8 16.88-29.9 29.3C4.46 57.76 5 43.88 5 223.45c0 158.73.03 161.17 2.03 168.38 7.22 26.07 29.78 45.48 57.47 49.44 1.65.24 54.75.36 118 .28 107.8-.14 115.38-.26 121-1.96zm-99.47-43.7c-11.58-2.48-31.53-8.95-39.18-12.7l-5.65-2.77-3.2 2.85c-2.5 2.24-3.77 2.7-6 2.22-4.1-.9-10.56 2.6-11.46 6.2-.4 1.54-1.17 3.36-1.74 4.05-1.57 1.9-6.88 1.5-10.6-.77-3.7-2.26-5.3-5.47-7.8-15.58-.93-3.8-1.76-7-1.85-7.1-.08-.13-2.6.43-5.6 1.23-17.1 4.55-29.94-1.18-29.95-13.4 0-4.25.07-4.35 2.75-3.7 1.5.37 8.7.93 16 1.25 10.88.48 13.25.34 13.25-.8 0-.76-1.12-7-2.48-13.88-4.1-20.67-3.3-27.04 3-24.18 3.98 1.8 5.32 5.13 8.63 21.34l3.2 15.56 6.43-1.47c13.74-3.14 23.72-6.75 23.64-8.55-.05-.94-.16-4.38-.25-7.64l-.17-5.94-6 2.03c-5.63 1.9-6 2.22-6 5.18-.05 8.95-3.82 10.28-7.6 2.67-5.16-10.36-9.38-34.98-7.96-46.37 1-7.98 3.18-10.07 9.6-9.22 6.8.9 16.04-1.42 37.38-9.42 36.27-13.6 41.82-14.74 47.98-9.9 4.24 3.35 3.56 7.35-2.13 12.57-2.6 2.4-5.04 4.34-5.42 4.34-1.25 0-3.77 9.37-4.82 17.98-.56 4.66-1.03 13.66-1.03 20v11.52l16.25.05c15.1.05 16.82.25 24.25 2.82 12.27 4.24 20.1 8.48 24.5 13.25 3.53 3.8 4 4.9 4 9.2 0 3.78-.64 5.76-2.9 8.86-8.37 11.58-39.45 28.03-56.1 29.7-3.66.37-8.68-.13-14.97-1.48zm-48.22-31.82c.37-4.93 2.15-5-15.45.68-10.92 3.53-11.14 3.66-10.23 6.05.5 1.33 1.86 3.74 3 5.34l2.07 2.9 10.14-5.36 10.16-5.36.3-4.26zm49.78 11.36c19.88-5.76 30.9-12.23 35.25-20.7 2.37-4.6 2.4-4.84.66-6.76-2.15-2.37-8.1-2.6-21.68-.86l-8.82 1.13v6.68c0 5.85-.37 7.2-3 10.76-3.43 4.66-9.06 7.77-12.5 6.9-1.28-.32-3.3-2.13-4.45-4.02-1.17-1.88-2.67-3.6-3.34-3.84-1.27-.45-9.9 2.25-13.85 4.33-1.3.68-4.12 2.62-6.27 4.3-3.88 3.05-3.9 3.1-1.5 3.76 1.33.37 8.78.72 16.56.77 12.37.1 15.24-.22 22.94-2.45zm-19.4-18.47c2.53-1.17 4.63-4.98 2.72-4.98-3.07 0-22.45 5.27-23.1 6.28-.42.67-.78 2.44-.78 3.93l-.02 2.7 9.25-3.35c5.1-1.85 10.45-3.9 11.92-4.58zm-6.36-16.82l10.32-2.66-.57-2.87c-.3-1.58-.57-4.23-.57-5.88v-3l-5.25.66c-2.9.37-8.06 1.15-11.5 1.74l-6.25 1.06v7.5c0 6.75.18 7.43 1.75 6.8.96-.38 6.4-1.9 12.07-3.35zm-29.57-14.2c4.12-1.16 4.38-2.07 3.14-11.15l-.63-4.48-4.38 1.58-4.4 1.58v6.75c0 7.4.04 7.44 6.25 5.72zm22.75-7.46c3.03-.8 7.8-1.48 10.6-1.5h5.13l.63-4.64c1.27-9.25 1.92-8.7-9.1-7.9-5.37.4-10.3 1.24-10.95 1.88-1.06 1.06-3.1 13.7-2.18 13.66.2 0 2.86-.68 5.88-1.5zm-22.63-14.1c2.84-.67 2.87-.73 2.22-6.24-.37-3.05-.76-5.6-.88-5.68-.12-.07-2.3.06-4.86.3l-4.64.4.45 4.16c.83 7.65 1.28 8.82 3.1 8.28.96-.28 3.02-.82 4.6-1.2zm35.8-8.23l4.66.33.67-5.33c.37-2.94.52-5.44.33-5.56-.18-.12-6.02.87-12.98 2.2l-12.66 2.45.98 3.12c.55 1.72 1.15 3.63 1.33 4.26.26.83 2.1.74 6.67-.32 3.48-.8 8.43-1.32 11-1.14zm-78.05-14.2C94.2 279.92 89 276.37 89 268.9c0-2.16.1-3.98.25-4.04.14-.07 15-.44 33.03-.83 21.1-.46 33.16-1.1 33.85-1.8 1.92-1.9-.04-6.94-3.68-9.42-1.9-1.28-3.44-2.8-3.44-3.35 0-.57 3.4-4.4 7.56-8.5s9.63-10.73 12.16-14.7c5.14-8.08 5.78-8.14 9.46-.92 3.1 6.1 2.15 12.3-3.04 19.67-4 5.66-5.4 11.07-3.23 12.4.5.32 3.38-.37 6.4-1.52 4.87-1.87 5.74-2.66 7.98-7.25 3.13-6.44 4.7-12.07 4.7-16.87.02-4.48-3.25-13.6-6.23-17.37l-2.16-2.76 5.12-4.6c2.82-2.5 7.62-6.08 10.68-7.93l5.55-3.34 4.45 2.6c8.52 5 11.6 11.5 9.64 20.32-1.14 5.1-8.1 16.65-15.7 26.07l-2.64 3.28 8.4-3.15c21.56-8.1 40.5-14.15 45.8-14.63 10-.9 18.1 3.17 18.1 9.12 0 7.5-9.75 11.1-34.5 12.68-23.75 1.52-26.54 2.3-62.08 17.5-13.24 5.65-26.8 11-30.14 11.85-6.52 1.7-27.2 2-37.16.54zm74.38-107.08c-9.24-1.33-18.75-4.54-24.1-8.13-4.04-2.7-5.22-4.2-6.8-8.76-1.07-3.02-2.05-5.65-2.2-5.83-.12-.2-3.54 2.14-7.57 5.17-13.78 10.37-27.13 15.27-39.44 14.48-7.86-.5-10.4-2.46-10.4-8.03 0-7.58 2.83-9.8 16.78-13.3 12.44-3.08 21.6-6.23 32.07-11.02l8.35-3.83-.38-16.06c-.4-17.43-.6-18.17-6.72-25.2-5.4-6.18-10.9-16.06-12.22-22.03-1.04-4.64-.96-5.8.64-9.37 1-2.23 3.34-5.38 5.2-7 2.73-2.4 4.25-2.96 8.22-2.96 4.22 0 5.66.6 10.9 4.55 10.67 8 19.16 18.96 19.16 24.7 0 1.3-1.98 5.36-4.4 9.06-3.06 4.64-4.6 8.16-4.98 11.45-1.2 10.05-1.8 22.12-1.17 23.16.85 1.36 8.03-3.5 25.05-16.93 31.93-25.2 44.14-30.48 62.58-26.98 14.15 2.67 20.28 10.57 15.46 19.9-1.87 3.6-2.33 3.77-19.04 6.6-7.7 1.3-17.98 3.52-22.84 4.93-17.88 5.22-40.4 15.1-54.44 23.86l-5.28 3.3 2.3 3.4c3.57 5.3 9.96 7.36 22.76 7.36 8.72 0 11.86-.46 18.5-2.7 10.18-3.4 12.93-3.4 16.05-.04 8.1 8.74 3.98 22.33-7.83 25.84-5.62 1.67-23.93 1.9-34.22.4z"/><path fill="#bebebe" d="M55.4 444.08c-24.73-6.08-44.1-23.74-52.2-47.6l-2.7-8-.28-161.5C-.1 45.2-.55 57.03 7.47 40.47 16.52 21.75 34.22 7.74 55.77 2.2 61.97.6 71.82.47 179.5.47S297.04.6 303.23 2.2c21.55 5.55 39.25 19.56 48.3 38.27 8.03 16.57 7.57 4.73 7.25 186.5l-.28 161.5-2.7 8c-6.62 19.46-19.46 33.74-38.3 42.55-15.58 7.3-9 6.96-138.7 6.88-107.18-.07-116.86-.2-123.4-1.82zm248.1-4.5c24.43-7.35 42.1-24.76 48.47-47.74 2-7.23 2.03-9.56 2.03-168.4 0-179.57.55-165.68-7.18-181.46-8.25-16.85-25.58-30.35-44.94-35-8.14-1.94-11.7-2-122.18-2-128.17 0-120.73-.42-137.63 7.7-12.9 6.17-23.8 16.88-29.9 29.3C4.46 57.76 5 43.88 5 223.45c0 158.73.03 161.17 2.03 168.38 7.22 26.07 29.78 45.48 57.47 49.44 1.65.24 54.75.36 118 .28 107.8-.14 115.38-.26 121-1.96zM212 397.3c-15-2.55-36.97-9.25-47.15-14.4-5-2.5-5.8-2.66-6.92-1.32-2 2.4-5.2 3.8-8.17 3.58-5.23-.38-9.62 2.35-11.74 7.3-1.78 4.13-2.26 4.53-5.4 4.53-3.87 0-8.82-3.53-11.04-7.87-.74-1.44-2.14-5.9-3.1-9.9-1.4-5.78-2.1-7.17-3.37-6.8-19.77 5.98-34.1.76-34.1-12.4 0-4.15.07-4.24 2.75-3.57 1.5.38 8.87.93 16.36 1.23l13.62.53-2.84-14.37c-3.13-15.84-3.67-24.62-1.55-25.43 2.38-.92 6.54 1.42 8.18 4.6.9 1.7 3 9.7 4.66 17.8 1.67 8.06 3.13 14.77 3.24 14.9.35.36 18.8-4.53 24.6-6.53l5.5-1.9-.36-7.4c-.2-4.07-.47-7.53-.6-7.68-.16-.17-2.8.65-5.9 1.8-5.47 2.05-5.64 2.23-5.64 5.85 0 2.06-.63 4.6-1.4 5.67-1.4 1.88-1.46 1.88-3.5.05-5.14-4.66-10.36-25.96-10.5-42.93-.1-11.8-.1-11.85 2.73-14.28 2.44-2.1 3.5-2.35 7.5-1.82 6.72.88 14.8-1.3 41.3-11.12 12.74-4.72 25.95-9.3 29.35-10.2 6.1-1.6 6.24-1.6 11.1.8 4.14 2.07 4.97 2.95 5.22 5.57.27 2.7-.48 3.82-5.75 8.5-5.7 5.1-6.15 5.82-7.6 12.4-.85 3.83-1.8 14.64-2.14 24l-.58 17.05 12.98-.4c14.6-.46 22.85 1.08 36.63 6.82 16.63 6.92 23 15.64 18.22 24.9-3.83 7.4-22.97 20.73-39 27.14-7 2.82-19.53 6.12-22.05 5.82-.55-.07-2.12-.3-3.5-.54zm-66.27-23.53l10.24-5.28v-4.25c.02-2.34-.3-4.25-.7-4.25-1.62 0-26.27 8.1-26.27 8.65 0 1.04 5.3 10.35 5.9 10.38.33.02 5.2-2.34 10.83-5.25zm65 .45c17.8-6.12 27.02-12.15 30.44-19.88 2.06-4.66 1.64-6.96-1.45-7.94-2.8-.88-11.02-.65-19.4.57-3.75.54-7.38 1-8.07 1-.86.02-1.25 1.9-1.25 6.07 0 3.33-.65 7.3-1.45 8.85-1.72 3.34-7.56 8.65-10.53 9.6-2.42.76-6.4-1.45-8-4.48-.6-1.1-1.87-2.4-2.85-2.94-2.62-1.4-14.1 2.9-20.26 7.57l-5.04 3.84 2.82.68c1.55.38 10.25.58 19.32.45 15.62-.22 17-.4 25.72-3.4zm-25.43-16.7c3.26-1.55 5.4-4.17 4.3-5.27-.6-.6-20.53 3.7-22.85 4.9-1.14.6-1.75 2.1-1.75 4.3v3.4l8.38-2.82c4.6-1.55 9.97-3.58 11.92-4.5zm-6.07-17.16l10.73-2.85-.62-5.52c-.34-3.03-.75-5.67-.9-5.86-.34-.4-16.6 1.64-20.2 2.52-2.07.5-2.24 1.1-2.24 8.02 0 5.57.32 7.36 1.25 7 .7-.26 6.08-1.76 11.98-3.32zm-28.98-14.42c4.13-1.15 4.38-2.05 3.13-11.22l-.63-4.54-4.37 1.62-4.38 1.62v6.8c0 7.4.04 7.44 6.25 5.72zm23.75-7.45c3.03-.8 7.58-1.48 10.1-1.5h4.63l.63-4.64c1.28-9.28 1.92-8.72-9.1-7.93-5.37.38-10.3 1.23-10.95 1.9-1.4 1.4-2.93 13.68-1.68 13.66.48 0 3.36-.68 6.38-1.5zm-23.63-14.1c2.84-.67 2.87-.73 2.22-6.24-.37-3.05-.76-5.6-.88-5.68-.12-.07-2.36.06-4.97.3l-4.74.42.57 4.15c1.07 7.94 1.4 8.8 3.2 8.26.96-.28 3.02-.82 4.6-1.2zm26.94-7.56c2.66-.56 6.78-.86 9.17-.67 4.28.34 4.36.3 4.93-3.16.32-1.92.58-4.44.6-5.58v-2.1l-12.75 2.45c-7 1.35-12.88 2.57-13.04 2.7-.15.15.16 1.33.68 2.64.53 1.3 1.22 3.2 1.55 4.23.4 1.27 1.13 1.64 2.33 1.18.95-.36 3.9-1.12 6.55-1.7zm-69.8-14.93c-12.6-1.8-18.5-6-18.5-13.17 0-3.35.14-3.48 4.64-4.1 2.55-.34 14.14-.63 25.75-.63 11.6 0 24.86-.3 29.46-.66l8.35-.64-.55-3.6c-.38-2.5-1.63-4.47-4.07-6.5l-3.5-2.88 7.63-8.1c4.2-4.46 9.8-11.4 12.42-15.4l4.78-7.3 2.6 3.9c4.94 7.48 4.3 14.35-2.1 22.74-3.33 4.38-4.65 10.56-2.52 11.87.48.3 3.3-.26 6.25-1.24 5.13-1.7 5.52-2.07 8.7-8.53 5.58-11.34 5.3-22.35-.86-32.05l-2.86-4.5 4.7-3.9c2.6-2.16 7.27-5.6 10.4-7.67l5.7-3.75 3.46 2.13c5.54 3.43 10.35 9.4 11.1 13.8 1.17 6.97-3.9 17.45-14.66 30.34l-5.7 6.83 6.7-2.57c18.95-7.26 44.16-15.44 49.2-15.97 9.65-1 18 3.4 18 9.47 0 7.6-9.2 10.32-44.5 13.1-14.62 1.16-21.8 3.43-52.23 16.52-30.1 12.94-32.5 13.6-48.63 13.45-7.22-.07-15.84-.5-19.14-.98zm75-107c-9.24-1.34-18.75-4.55-24.1-8.14-4.04-2.7-5.22-4.2-6.8-8.76-1.07-3.02-2.05-5.65-2.2-5.83-.12-.2-3.54 2.14-7.57 5.17-13.78 10.37-27.13 15.27-39.44 14.48-7.86-.5-10.4-2.46-10.4-8.03 0-7.58 2.83-9.8 16.78-13.3 12.44-3.08 21.6-6.23 32.07-11.02l8.35-3.83-.38-16.06c-.4-17.43-.6-18.17-6.72-25.2-5.4-6.18-10.9-16.06-12.22-22.03-1.04-4.64-.96-5.8.64-9.37 1-2.23 3.34-5.38 5.2-7 2.73-2.4 4.25-2.96 8.22-2.96 4.22 0 5.66.6 10.9 4.55 10.67 8 19.16 18.96 19.16 24.7 0 1.3-1.98 5.36-4.4 9.06-3.06 4.64-4.6 8.16-4.98 11.45-1.2 10.05-1.8 22.12-1.17 23.16.85 1.36 8.03-3.5 25.05-16.93 31.93-25.2 44.14-30.48 62.58-26.98 14.15 2.67 20.28 10.57 15.46 19.9-1.87 3.6-2.33 3.77-19.04 6.6-7.7 1.3-17.98 3.52-22.84 4.93-17.88 5.22-40.4 15.1-54.44 23.86l-5.28 3.3 2.3 3.4c3.57 5.3 9.96 7.36 22.76 7.36 8.72 0 11.86-.46 18.5-2.7 10.18-3.4 12.93-3.4 16.05-.04 8.1 8.74 3.98 22.33-7.83 25.84-5.62 1.67-23.93 1.9-34.22.4z"/><path fill="#c38c8f" d="M55.5 444.03C34 438.33 16.73 424.5 7.47 405.5-.46 389.28 0 400.45 0 223.77 0 119.36.38 64.3 1.07 60.04 5.94 29.98 31.76 5.6 63.64 1 72.9-.33 286.1-.33 295.36 1c31.87 4.6 57.7 28.98 62.58 59.04.7 4.27 1.05 59.3 1.05 163.72 0 177.16.5 165.44-7.67 182.16-3.85 7.9-6.02 10.84-13.22 18-9.83 9.77-16.4 13.96-28.84 18.42l-8.76 3.13-119 .2c-113 .2-119.35.12-126-1.64zm248-4.33c25.42-7.4 45-27.67 49.46-51.23.82-4.36 1.05-50.26.84-168.5l-.3-162.5-2.68-7.33c-7.38-20.2-22.07-34.4-43.32-41.86l-8-2.8h-240l-8 2.8c-11 3.86-20.28 9.58-27.72 17.07-7.35 7.4-11.88 14.6-15.6 24.8L5.5 57.46l-.26 163.28C5 364.38 5.16 384.83 6.5 390.63c4.7 20.32 22.1 39.46 42.67 46.95 11.53 4.2 13.17 4.25 133.33 4.05 106.05-.18 115.47-.33 121-1.93zM212 397.28c-15-2.55-36.97-9.25-47.15-14.4-5-2.5-5.8-2.66-6.92-1.32-2 2.4-5.2 3.8-8.17 3.58-5.23-.38-9.62 2.35-11.74 7.3-1.78 4.13-2.26 4.53-5.4 4.53-3.87 0-8.82-3.53-11.04-7.87-.74-1.44-2.14-5.9-3.1-9.9-1.4-5.78-2.1-7.17-3.37-6.8-19.77 5.98-34.1.76-34.1-12.4 0-4.15.07-4.24 2.75-3.57 1.5.38 8.87.93 16.36 1.23l13.62.53-2.84-14.37c-3.13-15.84-3.67-24.62-1.55-25.43 2.38-.92 6.54 1.42 8.18 4.6.9 1.7 3 9.7 4.66 17.8 1.67 8.06 3.13 14.77 3.24 14.9.35.36 18.8-4.53 24.6-6.53l5.5-1.9-.36-7.4c-.2-4.07-.47-7.53-.6-7.68-.16-.17-2.8.65-5.9 1.8-5.47 2.05-5.64 2.23-5.64 5.85 0 2.06-.63 4.6-1.4 5.67-1.4 1.88-1.46 1.88-3.5.05-5.14-4.66-10.36-25.96-10.5-42.93-.1-11.8-.1-11.85 2.73-14.28 2.44-2.1 3.5-2.35 7.5-1.82 6.72.88 14.8-1.3 41.3-11.12 12.74-4.72 25.95-9.3 29.35-10.2 6.1-1.6 6.24-1.6 11.1.8 4.14 2.07 4.97 2.95 5.22 5.57.27 2.7-.48 3.82-5.75 8.5-5.7 5.1-6.15 5.82-7.6 12.4-.85 3.83-1.8 14.64-2.14 24l-.58 17.05 12.98-.4c14.6-.46 22.85 1.08 36.63 6.82 16.63 6.92 23 15.64 18.22 24.9-3.83 7.4-22.97 20.73-39 27.14-7 2.82-19.53 6.12-22.05 5.82-.55-.07-2.12-.3-3.5-.54zm-66.27-23.53l10.24-5.28v-4.25c.02-2.34-.3-4.25-.7-4.25-1.62 0-26.27 8.1-26.27 8.65 0 1.04 5.3 10.35 5.9 10.38.33.02 5.2-2.34 10.83-5.25zm65 .45c17.8-6.12 27.02-12.15 30.44-19.88 2.06-4.66 1.64-6.96-1.45-7.94-2.8-.88-11.02-.65-19.4.57-3.75.54-7.38 1-8.07 1-.86.02-1.25 1.9-1.25 6.07 0 3.33-.65 7.3-1.45 8.85-1.72 3.34-7.56 8.65-10.53 9.6-2.42.76-6.4-1.45-8-4.48-.6-1.1-1.87-2.4-2.85-2.94-2.62-1.4-14.1 2.9-20.26 7.57l-5.04 3.84 2.82.68c1.55.38 10.25.58 19.32.45 15.62-.22 17-.4 25.72-3.4zm-25.43-16.7c3.26-1.55 5.4-4.17 4.3-5.27-.6-.6-20.53 3.7-22.85 4.9-1.14.6-1.75 2.1-1.75 4.3v3.4l8.38-2.82c4.6-1.55 9.97-3.58 11.92-4.5zm-6.07-17.16l10.73-2.85-.62-5.52c-.34-3.03-.75-5.67-.9-5.86-.34-.4-16.6 1.64-20.2 2.52-2.07.5-2.24 1.1-2.24 8.02 0 5.57.32 7.36 1.25 7 .7-.26 6.08-1.76 11.98-3.32zm-28.98-14.42c4.13-1.15 4.38-2.05 3.13-11.22l-.63-4.54-4.37 1.62-4.38 1.62v6.8c0 7.4.04 7.44 6.25 5.72zm23.75-7.45c3.03-.8 7.58-1.48 10.1-1.5h4.63l.63-4.64c1.28-9.28 1.92-8.72-9.1-7.93-5.37.38-10.3 1.23-10.95 1.9-1.4 1.4-2.93 13.68-1.68 13.66.48 0 3.36-.68 6.38-1.5zm-23.63-14.1c2.84-.67 2.87-.73 2.22-6.24-.37-3.05-.76-5.6-.88-5.68-.12-.07-2.36.06-4.97.3l-4.74.42.57 4.15c1.07 7.94 1.4 8.8 3.2 8.26.96-.28 3.02-.82 4.6-1.2zm26.94-7.56c2.66-.56 6.78-.86 9.17-.67 4.28.34 4.36.3 4.93-3.16.32-1.92.58-4.44.6-5.58v-2.1l-12.75 2.45c-7 1.35-12.88 2.57-13.04 2.7-.15.15.16 1.33.68 2.64.53 1.3 1.22 3.2 1.55 4.23.4 1.27 1.13 1.64 2.33 1.18.95-.36 3.9-1.12 6.55-1.7zm-69.8-14.93c-12.6-1.8-18.5-6-18.5-13.17 0-3.35.14-3.48 4.64-4.1 2.55-.34 14.14-.63 25.75-.63 11.6 0 24.86-.3 29.46-.66l8.35-.64-.55-3.6c-.38-2.5-1.63-4.47-4.07-6.5l-3.5-2.88 7.63-8.1c4.2-4.46 9.8-11.4 12.42-15.4l4.78-7.3 2.6 3.9c4.94 7.48 4.3 14.35-2.1 22.74-3.33 4.38-4.65 10.56-2.52 11.87.48.3 3.3-.26 6.25-1.24 5.13-1.7 5.52-2.07 8.7-8.53 5.58-11.34 5.3-22.35-.86-32.05l-2.86-4.5 4.7-3.9c2.6-2.16 7.27-5.6 10.4-7.67l5.7-3.75 3.46 2.13c5.54 3.43 10.35 9.4 11.1 13.8 1.17 6.97-3.9 17.45-14.66 30.34l-5.7 6.83 6.7-2.57c18.95-7.26 44.16-15.44 49.2-15.97 9.65-1 18 3.4 18 9.47 0 7.6-9.2 10.32-44.5 13.1-14.63 1.16-21.8 3.43-52.23 16.52-30.1 12.94-32.5 13.6-48.63 13.45-7.22-.07-15.84-.5-19.14-.98zm76.3-106.93c-8.28-1.28-17.65-3.85-21.83-6-5.06-2.56-9.8-8.25-11.17-13.4l-1.16-4.35-7.07 5.27c-9.37 7-16.6 10.88-24.93 13.42-11.42 3.46-23.2 2.3-25.02-2.47-1.46-3.82-.6-8.1 2.13-10.65 3.87-3.6 6.1-4.6 14.35-6.33 9.28-1.95 22.3-6.36 32.15-10.87l7.75-3.56v-14.27c0-7.85-.5-16-1.08-18.1-.58-2.12-3.25-6.56-5.94-9.9-2.68-3.32-6.55-9.24-8.6-13.15-4.8-9.1-5.1-14.54-1.15-20.23 5.7-8.23 12.96-9.63 20.64-4 6.1 4.48 17.4 16.26 19.48 20.3 2.5 4.82 2.04 7.43-2.32 13.52-2.18 3.04-4.4 7.5-4.9 9.9-1.46 6.75-2.5 26.87-1.4 26.87 1.4 0 14.23-9.17 26.27-18.78 29.12-23.23 43.57-29.54 60.18-26.27C262 84.25 268 89.03 268 96.1c0 2.8-.75 4.66-2.75 6.85-2.53 2.76-3.8 3.17-15.75 5.04-23.5 3.67-44.45 10.66-67.25 22.44-16.67 8.6-17.56 9.3-15.96 12.5 4.5 9 25.23 11.7 42.95 5.6 8.9-3.1 10.73-3.16 14-.6 5.75 4.54 6.97 14.1 2.58 20.27-4 5.63-8.9 7.2-23.33 7.42-7.15.1-15.56-.2-18.7-.68z"/><path fill="#7c7c7c" d="M55.5 444.03C34 438.33 16.73 424.5 7.47 405.5-.46 389.28 0 400.45 0 223.77 0 119.36.38 64.3 1.07 60.04 5.94 29.98 31.76 5.6 63.64 1 72.9-.33 286.1-.33 295.36 1c31.87 4.6 57.7 28.98 62.58 59.04.7 4.27 1.05 59.3 1.05 163.72 0 177.16.5 165.44-7.67 182.16-3.85 7.9-6.02 10.84-13.22 18-9.83 9.77-16.4 13.96-28.84 18.42l-8.76 3.13-119 .2c-113 .2-119.35.12-126-1.64zm248-4.33c25.42-7.4 45-27.67 49.46-51.23.82-4.36 1.05-50.26.84-168.5l-.3-162.5-2.68-7.33c-7.38-20.2-22.07-34.4-43.32-41.86l-8-2.8h-240l-8 2.8c-11 3.86-20.28 9.58-27.72 17.07-7.35 7.4-11.88 14.6-15.6 24.8L5.5 57.46l-.26 163.28C5 364.38 5.16 384.83 6.5 390.63c4.7 20.32 22.1 39.46 42.67 46.95 11.53 4.2 13.17 4.25 133.33 4.05 106.05-.18 115.47-.33 121-1.93zm-176.2-44.68c-4.36-2.67-5.83-5.25-8.15-14.4-1.1-4.3-2.2-8.04-2.47-8.3-.26-.26-3.87.23-8.03 1.1-10.34 2.13-13.42 1.97-19.4-1-4.23-2.12-5.42-3.32-6.78-6.88-1.72-4.5-1.66-9.2.12-8.88 8.6 1.56 19.88 2.4 25 1.84 3.52-.38 6.4-.8 6.4-.97 0-.16-1.14-5.86-2.54-12.67-2.38-11.63-3.53-25.15-2.25-26.43.33-.32 2.16.08 4.08.88 4.13 1.74 5.24 4.63 8.8 22.92 1.27 6.46 2.62 12.26 3 12.9.85 1.35 5.05.47 20.8-4.37l10.36-3.2-.47-7.3c-.26-4.02-.75-7.6-1.1-7.93-.33-.34-2.98.23-5.87 1.27-5.16 1.85-5.28 1.98-6.28 7.06-.56 2.84-1.35 5.5-1.76 5.9-2.7 2.65-8.26-10.48-11.2-26.45-1.9-10.16-2.03-26.64-.27-30.13 1.14-2.27 1.9-2.52 8.13-2.7 9.68-.25 14.1-1.46 39.57-10.8 12.38-4.56 24.94-9 27.93-9.9 11.6-3.43 20.07-.85 20.07 6.14 0 .88-2.86 4.33-6.36 7.68-5.57 5.33-6.52 6.78-7.55 11.6-1.26 5.77-3.02 26.57-3.07 36.06l-.03 5.56h15.25c13.78 0 16.12.27 24.25 2.76 23.45 7.16 33.16 16.04 29.54 27-4.05 12.26-42.85 33.64-61 33.6-9.55-.02-37.56-7.77-50.47-13.96l-5.94-2.85-3.16 2.4c-2.1 1.6-4.48 2.42-7.06 2.43-5.07 0-9.7 2.9-11.42 7.12-2.22 5.48-5.16 6.28-10.68 2.92zm18.83-21.2l9.87-5.18v-4.33c0-2.8-.44-4.33-1.25-4.33-2.97 0-25 7.5-25.46 8.68-.55 1.43 4.7 10.32 6.08 10.32.48 0 5.3-2.32 10.75-5.16zm61.17 1.7c11.86-3.46 23.06-8.9 28.43-13.86 7.55-6.97 9.2-12.38 4.67-15.35-2.37-1.54-3.66-1.58-14.25-.44-16.66 1.8-16.04 1.54-15.42 6.13.9 6.68-.5 10.8-5.27 15.56-6.04 6.05-9.93 6.13-14.53.32-2.86-3.6-3.6-4.02-6.28-3.5-6.83 1.38-21.65 10.08-21.65 12.72 0 1 13.73 1.7 26 1.28 6.44-.2 12.33-1.13 18.3-2.87zm-29.9-14.66c9.6-3.47 12.6-5.34 12.6-7.8 0-1.85-.2-1.85-8.4-.05-17.04 3.73-16.6 3.5-16.6 8.08 0 4.6-1 4.63 12.4-.22zm-2.96-18.83c3.88-1.06 9-2.44 11.36-3.05l4.3-1.1-.3-6.2-.3-6.2-3.5.28c-7.6.62-18.57 2.55-19.75 3.48-1.67 1.3-1.73 14.73-.06 14.73.64 0 4.35-.87 8.24-1.94zm-20.35-24.06c-.14-4.1-.45-7.68-.7-7.92-.23-.24-2.56.44-5.16 1.52l-4.74 1.96-.3 5.86c-.44 8.44-.3 8.6 5.9 7.22l5.24-1.16-.25-7.5zm31.4-.8l4 .27.58-6.48c.32-3.57.32-6.76 0-7.08-.82-.85-20.17.78-21.15 1.77-.96.97-3.06 13.3-2.44 14.3.22.38 3.7-.15 7.7-1.18 4.02-1.03 9.1-1.75 11.3-1.6zm-35.65-12.3c3.06-1.06 3.15-1.26 3.15-7.14v-6.04l-5.14.6c-2.82.34-5.32.8-5.56 1.04-.23.23-.1 3.17.27 6.53.75 6.68 1.33 7.08 7.28 5zM183 297.1l8.5-.63.6-5.5c.3-3.02.48-5.63.36-5.8-.3-.38-25.38 4.4-25.9 4.92-.23.2.1 2.33.74 4.7 1.1 4.16 1.28 4.3 4.18 3.62 1.66-.4 6.85-1 11.52-1.33zm-67.5-14.8c-7.88-.68-17.06-2.5-20.3-4.04-3.8-1.8-6.45-6.25-6-10.1l.3-2.7 30-.67c16.5-.4 31.94-.98 34.3-1.33 4.24-.63 4.3-.7 3.7-3.82-.37-1.94-2.12-4.5-4.5-6.6l-3.87-3.4 8.5-9.03c4.66-4.96 10.1-11.64 12.07-14.83 1.97-3.2 3.96-5.83 4.42-5.83.46 0 1.75 1.78 2.86 3.96 3.83 7.5 2.02 17.06-4.56 24.07-1.93 2.06-2.26 3.2-1.76 6.25.68 4.2 1.16 4.34 7.66 2.13 5.4-1.84 7.93-4.9 10.9-13.18 3.25-9.1 2.82-15.85-1.56-24.48-2.02-4-3.67-7.6-3.66-8 0-1.2 15.95-12.7 18.5-13.34 2.68-.67 5.83.76 9.84 4.46 9.45 8.75 7.22 20.34-7.43 38.6-3.75 4.7-6.67 8.53-6.47 8.53.2 0 6.15-2.2 13.24-4.87 35.86-13.57 46.57-15.78 55-11.35 4.43 2.3 5.88 4.88 4.93 8.67-1.34 5.34-13.83 9.12-33.3 10.08-22.75 1.13-27.5 2.45-62.9 17.6-12.7 5.43-26.62 10.78-30.92 11.88-7.4 1.9-17.1 2.33-28.98 1.3zm68.3-107.36c-8.28-1.28-17.65-3.85-21.83-6-5.06-2.56-9.8-8.25-11.17-13.4l-1.16-4.35-7.07 5.27c-9.37 7-16.6 10.88-24.93 13.42-11.42 3.46-23.2 2.3-25.02-2.47-1.46-3.82-.6-8.1 2.13-10.65 3.87-3.6 6.1-4.6 14.35-6.33 9.28-1.95 22.3-6.36 32.15-10.87l7.75-3.56v-14.27c0-7.85-.5-16-1.08-18.1-.58-2.12-3.25-6.56-5.94-9.9-2.68-3.32-6.55-9.24-8.6-13.15-4.8-9.1-5.1-14.54-1.15-20.23 5.7-8.23 12.96-9.63 20.64-4 6.1 4.48 17.4 16.26 19.48 20.3 2.5 4.82 2.04 7.43-2.32 13.52-2.18 3.04-4.4 7.5-4.9 9.9-1.46 6.75-2.5 26.87-1.4 26.87 1.4 0 14.23-9.17 26.27-18.78 29.12-23.23 43.57-29.54 60.18-26.27C262 84.25 268 89.03 268 96.1c0 2.8-.75 4.66-2.75 6.85-2.53 2.76-3.8 3.17-15.75 5.04-23.5 3.67-44.45 10.66-67.25 22.44-16.67 8.6-17.56 9.3-15.96 12.5 4.5 9 25.23 11.7 42.95 5.6 8.9-3.1 10.73-3.16 14-.6 5.75 4.54 6.97 14.1 2.58 20.27-4 5.63-8.9 7.2-23.33 7.42-7.15.1-15.56-.2-18.7-.68z"/><path fill="#a55357" d="M59.5 444.5c-15.37-2.93-27.13-9.13-38-20-8.9-8.92-13.32-15.75-17.32-26.7l-2.68-7.33-.28-164C.92 43.14.47 55.22 8.04 40.17 17.02 22.36 31.8 10.13 52 3.82l7.5-2.33h240L307 3.8c20.2 6.32 34.98 18.55 43.96 36.38 7.57 15.04 7.13 2.96 6.82 186.3l-.28 164-2.68 7.33c-4 10.95-8.43 17.78-17.4 26.8-6.6 6.64-9.78 8.95-17.5 12.74-17.84 8.75-6.64 8.07-137.42 8.3-93.02.14-117.4-.08-123-1.15zm248-5.84c23.65-8.33 41.37-28.06 45.97-51.2 1.42-7.14 1.56-25 1.3-168-.26-152.94-.35-160.23-2.13-165.5-6.62-19.54-19.34-34.14-37.14-42.6-15.38-7.32-6.8-6.9-136-6.9s-120.62-.42-136 6.9c-17.7 8.4-30.68 23.3-37.15 42.6-1.76 5.25-1.86 13.08-2.13 165.5-.3 178.94-.7 168.53 6.8 184.1 6.43 13.38 20.8 27.06 34.6 32.92 2.13.9 7.03 2.5 10.88 3.53 6.68 1.8 12.47 1.87 125 1.68l118-.2 8-2.82zm-180.2-43.64c-4.36-2.67-5.83-5.25-8.15-14.4-1.1-4.3-2.2-8.04-2.47-8.3-.26-.26-3.87.23-8.03 1.1-10.34 2.13-13.42 1.97-19.4-1-4.23-2.12-5.42-3.32-6.78-6.88-1.72-4.5-1.66-9.2.12-8.88 8.6 1.56 19.88 2.4 25 1.84 3.52-.38 6.4-.8 6.4-.97 0-.16-1.14-5.86-2.54-12.67-2.38-11.63-3.53-25.15-2.25-26.43.33-.32 2.16.08 4.08.88 4.13 1.74 5.24 4.63 8.8 22.92 1.27 6.46 2.62 12.26 3 12.9.85 1.35 5.05.47 20.8-4.37l10.36-3.2-.47-7.3c-.26-4.02-.75-7.6-1.1-7.93-.33-.34-2.98.23-5.87 1.27-5.16 1.85-5.28 1.98-6.28 7.06-.56 2.84-1.35 5.5-1.76 5.9-2.7 2.65-8.26-10.48-11.2-26.45-1.9-10.16-2.03-26.64-.27-30.13 1.14-2.27 1.9-2.52 8.13-2.7 9.68-.25 14.1-1.46 39.57-10.8 12.38-4.56 24.94-9 27.93-9.9 11.6-3.43 20.07-.85 20.07 6.14 0 .88-2.86 4.33-6.36 7.68-5.57 5.33-6.52 6.78-7.55 11.6-1.26 5.77-3.02 26.57-3.07 36.06l-.03 5.56h15.25c13.78 0 16.12.27 24.25 2.76 23.45 7.16 33.16 16.04 29.54 27-4.05 12.26-42.85 33.64-61 33.6-9.55-.02-37.56-7.77-50.47-13.96l-5.94-2.85-3.16 2.4c-2.1 1.6-4.48 2.42-7.06 2.43-5.07 0-9.7 2.9-11.42 7.12-2.22 5.48-5.16 6.28-10.68 2.92zm18.83-21.2l9.87-5.18v-4.33c0-2.8-.44-4.33-1.25-4.33-2.97 0-25 7.5-25.46 8.68-.55 1.43 4.7 10.32 6.08 10.32.48 0 5.3-2.32 10.75-5.16zm61.17 1.7c11.86-3.46 23.06-8.9 28.43-13.86 7.55-6.97 9.2-12.38 4.67-15.35-2.37-1.54-3.66-1.58-14.25-.44-16.66 1.8-16.04 1.54-15.42 6.13.9 6.68-.5 10.8-5.27 15.56-6.04 6.05-9.93 6.13-14.53.32-2.86-3.6-3.6-4.02-6.28-3.5-6.83 1.38-21.65 10.08-21.65 12.72 0 1 13.73 1.7 26 1.28 6.44-.2 12.33-1.13 18.3-2.87zm-29.9-14.66c9.6-3.47 12.6-5.34 12.6-7.8 0-1.85-.2-1.85-8.4-.05-17.04 3.73-16.6 3.5-16.6 8.08 0 4.6-1 4.63 12.4-.22zm-2.96-18.83c3.88-1.06 9-2.44 11.36-3.05l4.3-1.1-.3-6.2-.3-6.2-3.5.28c-7.6.62-18.57 2.55-19.75 3.48-1.67 1.3-1.73 14.73-.06 14.73.64 0 4.35-.87 8.24-1.94zm-20.35-24.06c-.14-4.1-.45-7.68-.7-7.92-.23-.24-2.56.44-5.16 1.52l-4.74 1.96-.3 5.86c-.44 8.44-.3 8.6 5.9 7.22l5.24-1.16-.25-7.5zm31.4-.8l4 .27.58-6.48c.32-3.57.32-6.76 0-7.08-.82-.85-20.17.78-21.15 1.77-.96.97-3.06 13.3-2.44 14.3.22.38 3.7-.15 7.7-1.18 4.02-1.03 9.1-1.75 11.3-1.6zm-35.65-12.3c3.06-1.06 3.15-1.26 3.15-7.14v-6.04l-5.14.6c-2.82.34-5.32.8-5.56 1.04-.23.23-.1 3.17.27 6.53.75 6.68 1.33 7.08 7.28 5zM183 297.1l8.5-.63.6-5.5c.3-3.02.48-5.63.36-5.8-.3-.38-25.38 4.4-25.9 4.92-.23.2.1 2.33.74 4.7 1.1 4.16 1.28 4.3 4.18 3.62 1.66-.4 6.85-1 11.52-1.33zm-67.5-14.8c-7.88-.68-17.06-2.5-20.3-4.04-3.8-1.8-6.45-6.25-6-10.1l.3-2.7 30-.67c16.5-.4 31.94-.98 34.3-1.33 4.24-.63 4.3-.7 3.7-3.82-.37-1.94-2.12-4.5-4.5-6.6l-3.87-3.4 8.5-9.03c4.66-4.96 10.1-11.64 12.07-14.83 1.97-3.2 3.96-5.83 4.42-5.83.46 0 1.75 1.78 2.86 3.96 3.83 7.5 2.02 17.06-4.56 24.07-1.93 2.06-2.26 3.2-1.76 6.25.68 4.2 1.16 4.34 7.66 2.13 5.4-1.84 7.93-4.9 10.9-13.18 3.25-9.1 2.82-15.85-1.56-24.48-2.02-4-3.67-7.6-3.66-8 0-1.2 15.95-12.7 18.5-13.34 2.68-.67 5.83.76 9.84 4.46 9.45 8.75 7.22 20.34-7.43 38.6-3.75 4.7-6.67 8.53-6.47 8.53.2 0 6.15-2.2 13.24-4.87 35.86-13.57 46.57-15.78 55-11.35 4.43 2.3 5.88 4.88 4.93 8.67-1.34 5.34-13.83 9.12-33.3 10.08-22.75 1.13-27.5 2.45-62.9 17.6-12.7 5.43-26.62 10.78-30.92 11.88-7.4 1.9-17.1 2.33-28.98 1.3zm72.43-107.33c-15.98-1.84-27.68-5.86-32.68-11.2-1.23-1.34-3.03-4.72-4-7.52l-1.75-5.1-6.5 4.9c-13.5 10.2-26.24 15.3-38.35 15.36-7.37.04-8-.12-10.25-2.75-3.44-4-3.15-8.13.86-12.14 2.74-2.73 4.88-3.62 13.25-5.5 10.9-2.45 25.75-7.64 34.65-12.12l5.65-2.84.7-10.4c.65-9.42.43-13.73-1.12-21.87-.3-1.5-2.95-5.75-5.9-9.47-6.97-8.74-11.65-18-12.25-24.27-.85-8.9 6.1-17.06 14.5-17.06 1.6 0 4.98 1.36 7.5 3.03 6.94 4.6 18.23 17 20.22 22.2 1.63 4.27 1.63 4.72.02 7.9-.94 1.85-2.53 4.28-3.54 5.4-3.72 4.07-5.08 9.48-5.66 22.63-.37 8.4-.22 12.84.44 12.84 1.6 0 11.1-6.72 24.9-17.57 16.55-13.02 25.26-18.93 34.4-23.32 7.34-3.53 7.76-3.6 19.5-3.6 10.18 0 12.72.34 16.72 2.2 7.62 3.5 10.53 10 7.27 16.3-2.07 4-3.37 4.52-16 6.44-23.07 3.5-51.34 13.14-71.67 24.44-13.47 7.5-14.36 8.26-12.8 11.16 1.97 3.7 5 5.8 10.9 7.57 7.66 2.3 24.5 1.5 31.98-1.54 11.72-4.73 18.13-1.45 18.84 9.65.47 7.26-1.72 11.12-8.03 14.17-5.28 2.56-19.57 3.5-31.77 2.1z"/><path fill="#871a1f" d="M59.5 444.5c-15.37-2.93-27.13-9.13-38-20-8.9-8.92-13.32-15.75-17.32-26.7l-2.68-7.33-.28-164C.92 43.14.47 55.22 8.04 40.17 17.02 22.36 31.8 10.13 52 3.82l7.5-2.33h240L307 3.8c20.2 6.32 34.98 18.55 43.96 36.38 7.57 15.04 7.13 2.96 6.82 186.3l-.28 164-2.68 7.33c-4 10.95-8.43 17.78-17.4 26.8-6.6 6.64-9.78 8.95-17.5 12.74-17.84 8.75-6.64 8.07-137.42 8.3-93.02.14-117.4-.08-123-1.15zm248-5.84c23.65-8.33 41.37-28.06 45.97-51.2 1.42-7.14 1.56-25 1.3-168-.26-152.94-.35-160.23-2.13-165.5-6.62-19.54-19.34-34.14-37.14-42.6-15.38-7.32-6.8-6.9-136-6.9s-120.62-.42-136 6.9c-17.7 8.4-30.68 23.3-37.15 42.6-1.76 5.25-1.86 13.08-2.13 165.5-.3 178.94-.7 168.53 6.8 184.1 6.43 13.38 20.8 27.06 34.6 32.92 2.13.9 7.03 2.5 10.88 3.53 6.68 1.8 12.47 1.87 125 1.68l118-.2 8-2.82zm-179-43.2c-1.65-.85-3.8-2.5-4.76-3.64-1.56-1.86-4.6-10.7-6.15-17.96l-.57-2.6-5.2 1.34c-13.23 3.44-20.84 2.56-26.44-3.04-3.2-3.2-5.2-9.08-4.07-12.02.46-1.18 1.25-1.24 4.36-.35 3.98 1.13 26.7 1.7 27.72.68.33-.32-.55-6.17-1.94-13-2.25-11.05-3.44-25.28-2.2-26.5 1.1-1.1 5.9 1.82 7.6 4.63 1.03 1.7 3.1 9.3 4.6 16.9 1.5 7.6 3.1 14.38 3.53 15.1.9 1.44 7.5.12 22.9-4.6l8.35-2.58-.47-7.44c-.27-4.1-.73-7.7-1.04-8-.3-.3-3 .2-6 1.14-5.4 1.7-5.42 1.72-6.33 6.83-1.9 10.82-6.9 4.85-11.56-13.88-1.77-7.08-2.26-11.95-2.3-22.83-.05-16.52-.05-16.52 10.8-16.55 8.45-.03 14.12-1.6 37.7-10.37 27.78-10.35 33.55-12.06 38.7-11.5 5.76.66 9.83 4.35 8.9 8.07-.36 1.4-2.87 4.25-5.6 6.35-7.75 6-9.4 12.02-10.62 38.94l-.7 15.1 14.9-.1c12.87-.1 15.96.2 22.88 2.24 16.64 4.87 28.6 12.16 31.53 19.2 1.65 4 0 9.68-4.2 14.46-3.92 4.48-18.7 14.36-28.15 18.85-13.5 6.42-19.4 8.06-28.68 8-11.93-.06-33.67-5.92-50.1-13.5l-6.8-3.13-3.13 2.62c-2.25 1.9-4.28 2.64-7.3 2.67-5.7.06-8.58 1.9-11.06 7.08-2.37 4.95-4.5 5.74-9.1 3.38zm27.3-31.44c.23-3.78-.02-4.9-1-4.58-.7.25-6.47 2.07-12.8 4.05-6.32 1.97-12.08 3.78-12.78 4-1.4.47.17 4.3 3.98 9.7l1.92 2.75 10.2-5.45 10.18-5.45.3-5.03zm53.72 10.9c17.53-5.6 27.87-11.87 31.58-19.14 2.52-4.95 2.16-7.82-1.25-9.72-2.3-1.3-4.25-1.3-15-.16-6.8.73-12.83 1.5-13.4 1.74-.65.24-.92 2.65-.68 6.12.35 5.06.04 6.24-2.67 10.3-5.62 8.4-13.08 10.13-16.76 3.9-2.45-4.14-4.4-4.47-11.8-2-6.37 2.12-9.4 3.94-14.86 8.93l-2.83 2.57 8.83.63c16.98 1.2 27.9.32 38.84-3.18zm-32.8-13.57c10.55-3.92 13.28-5.67 13.28-8.5 0-2.06.36-2.1-15.13 1.5l-9.37 2.16-.3 4.24c-.18 2.45.12 4.23.72 4.23.57 0 5.43-1.63 10.8-3.62zm-2.22-19.25c3.85-1.1 8.9-2.5 11.25-3.1l4.25-1.1V332c0-3.25-.34-6.1-.75-6.36-1.24-.74-21.6 2.38-22.97 3.52-1.77 1.47-1.8 15.92-.03 15.33.7-.23 4.4-1.3 8.25-2.4zM152 326c1.38-.38 2.46-1.2 2.4-1.85-.05-.65-.17-4.1-.25-7.68-.17-7.25-.32-7.36-6.87-4.86l-4.28 1.64v14.68l3.25-.64c1.8-.35 4.38-.93 5.75-1.3zm24-7.57c3.8-.96 8.04-1.4 10.24-1.04l3.76.6v-5.27c.02-2.9.3-6.26.62-7.47.57-2.1.35-2.2-4.26-1.77-2.67.24-7.84.7-11.47 1.02l-6.63.58-1.13 6.88c-1.48 8.92-1.46 9.22.6 8.6.97-.27 4.68-1.24 8.25-2.15zM152.8 298l.3-6.32-5.18.62c-2.86.33-5.37.8-5.6 1-.22.24-.1 3.34.26 6.9l.67 6.5 4.62-1.18 4.63-1.17.3-6.34zm29.87-.7l9.16-.6.38-5.6c.23-3.1.27-5.8.12-6.02-.22-.32-15.78 2.43-24.95 4.4-2.1.46-2.1.55-.5 5.04 1.46 4.1 1.9 4.52 4.13 3.98 1.38-.33 6.62-.86 11.67-1.2zm-69.4-15.3c-10.84-1.23-17.06-2.98-20.3-5.7-3.38-2.85-5.07-9.02-2.85-10.42.76-.48 9.93-.9 20.38-.95 20.48-.08 46.15-1.28 47.07-2.2.3-.3.08-2.35-.5-4.53-.74-2.73-2.16-4.72-4.52-6.34l-3.45-2.36 8.32-8.5c4.58-4.7 10.1-11.35 12.28-14.8 3.7-5.84 4.06-6.14 5.5-4.5 2.78 3.2 3.8 6.07 3.8 10.76 0 4.97-1.66 8.96-6.07 14.57-2.38 3.03-2.7 4.18-2.22 7.8.35 2.52 1.03 4.08 1.7 3.82.6-.23 3.53-1.27 6.5-2.3 5.07-1.76 5.6-2.25 8.23-7.88 5.77-12.26 5.5-23.36-.75-32.86l-2.55-3.84 2.84-2.97c4.96-5.22 16.14-12.1 18.6-11.46 3.4.86 9.28 6.16 11.1 10 3.8 8 .13 18.36-11.75 33.13-3.54 4.4-6.32 8.1-6.2 8.25.14.14 9.5-3.1 20.78-7.22 11.3-4.1 24.38-8.45 29.1-9.65 8.5-2.15 8.58-2.15 14.3-.27 3.73 1.23 6.47 2.87 7.8 4.7 1.9 2.55 1.93 3 .57 5.44-3.4 6.08-12.62 8.56-37.8 10.17-19.52 1.25-25.2 2.9-57.7 16.9-28.97 12.44-31.88 13.34-44.47 13.72-5.77.17-13.75-.06-17.73-.52zm74.66-107.03c-15.98-1.84-27.68-5.86-32.68-11.2-1.23-1.34-3.03-4.72-4-7.52l-1.75-5.1-6.5 4.9c-13.5 10.2-26.24 15.3-38.35 15.36-7.37.04-8-.12-10.25-2.75-3.44-4-3.15-8.13.86-12.14 2.74-2.73 4.88-3.62 13.25-5.5 10.9-2.45 25.75-7.64 34.65-12.12l5.65-2.84.7-10.4c.65-9.42.43-13.73-1.12-21.87-.3-1.5-2.95-5.75-5.9-9.47-6.97-8.74-11.65-18-12.25-24.27-.85-8.9 6.1-17.06 14.5-17.06 1.6 0 4.98 1.36 7.5 3.03 6.94 4.6 18.23 17 20.22 22.2 1.63 4.27 1.63 4.72.02 7.9-.94 1.85-2.53 4.28-3.54 5.4-3.72 4.07-5.08 9.48-5.66 22.63-.37 8.4-.22 12.84.44 12.84 1.6 0 11.1-6.72 24.9-17.57 16.55-13.02 25.26-18.93 34.4-23.32 7.34-3.53 7.76-3.6 19.5-3.6 10.18 0 12.72.34 16.72 2.2 7.62 3.5 10.53 10 7.27 16.3-2.07 4-3.37 4.52-16 6.44-23.07 3.5-51.34 13.14-71.67 24.44-13.47 7.5-14.36 8.26-12.8 11.16 1.97 3.7 5 5.8 10.9 7.57 7.66 2.3 24.5 1.5 31.98-1.54 11.72-4.73 18.13-1.45 18.84 9.65.47 7.26-1.72 11.12-8.03 14.17-5.28 2.56-19.57 3.5-31.77 2.1z"/><path fill="#010101" d="M59.75 444.4c-23.18-4.23-42.15-18.66-52.35-39.83-6.85-14.2-6.5-3.52-6.18-184.6l.28-163.5 2.68-7.33C9.45 34.7 19.56 21.7 31.8 13.64 40.37 8 46.53 5.32 56.5 2.9 64.16 1.08 69.37 1 179.5 1s115.34.07 123 1.9c9.97 2.42 16.13 5.1 24.7 10.74 12.24 8.07 22.35 21.07 27.62 35.5l2.68 7.33.26 164.42c.3 181.78.72 169.14-6.14 183.57-7.1 14.9-18.23 26.15-33.12 33.46-16.35 8.02-6.1 7.44-135.5 7.68-96.03.2-116.8 0-123.25-1.2zM307 439.13c19.74-7.16 33.02-18.65 41.17-35.65 7.3-15.2 6.9-4.27 6.6-183.27l-.27-160.73-2.34-7c-3.72-11.15-8.8-19.3-17.07-27.5-11.6-11.46-24-17.7-39.7-19.96-4.25-.6-48.88-1-116.02-1-93.7-.03-110.36.2-117.92 1.5C35.1 10.1 14.63 27.9 6.83 52.98l-2.33 7.5v163c0 155.23.1 163.28 1.83 168.94 7.03 22.78 23.44 39.44 45.76 46.46 3.5 1.1 7.53 2.2 8.9 2.44 1.38.23 55.83.37 121 .3l118.5-.13 6.5-2.35zM191.5 175.36c-15.14-1.54-27.14-4.9-33.2-9.3-3.46-2.5-4.77-4.6-7.94-12.83-.83-2.17-1.1-2.06-9.24 3.76-4.6 3.3-11.25 7.36-14.76 9.04-8.05 3.84-19.43 6.3-25.24 5.42-8.1-1.2-11.62-8.04-7.1-13.8 2-2.54 11.28-6.7 14.97-6.7 3.06 0 17.64-4.8 29.16-9.63l10.66-4.47.7-10.45c.76-11.08-.6-24.58-2.8-27.52-.67-.9-3.2-4.07-5.6-7.03C135.18 84.6 130 73.65 130 68.4c0-8.24 8.86-16.43 16.26-15.04 6.6 1.24 23.56 17.75 26.7 26 1.2 3.18-.17 6.87-4.9 13.1-3.57 4.7-5.37 14.98-4.87 27.8l.3 7.8 9-6.14c4.95-3.38 11.25-8.04 14-10.36 15.73-13.26 32.57-24.32 42.17-27.7 8.68-3.03 22.75-2.38 30.5 1.4 7.18 3.52 9.7 7.9 7.9 13.85-1.52 5.1-4.42 6.5-17.76 8.47-13.66 2.02-26.06 5.17-38.8 9.84-11.8 4.33-38.72 17.46-43 20.97-2.9 2.4-2.95 2.57-1.46 5.3.84 1.53 3.54 3.92 6 5.3 3.85 2.13 6 2.52 15.74 2.84 9.98.35 12.24.1 19.65-2.22 12.78-3.98 15.52-3.6 18.72 2.7 1.55 3.02 1.95 5.28 1.6 8.9-.88 9.25-8.2 13.77-23.1 14.27-5.03.18-10.95.13-13.15-.1z"/></g></g></svg>