<svg xmlns="http://www.w3.org/2000/svg" width="358.791" height="445.454" viewBox="0 0 358.79108 445.45367"><g><g><path fill="#e0c5c6" d="M55.27 443.6C30.02 437.4 10.32 419 2.7 394.5L.4 387V223.5c0-133.14.24-164.52 1.33-169 2.2-9 9.64-23.07 15.8-29.88C27.46 13.64 41 5.5 55.66 1.72 61.85.15 71.7 0 179.38 0S296.9.14 303.1 1.73c21.53 5.54 39.15 19.5 48.33 38.27 8 16.34 7.54 4.68 7.23 186.5l-.28 161.5-2.72 8c-6.6 19.46-19.45 33.74-38.28 42.55-15.58 7.3-9 6.96-138.7 6.88-107.2-.07-116.86-.2-123.4-1.83zm248.1-4.48c24.74-7.46 42.87-25.63 48.96-49.08 1.36-5.26 1.55-24.88 1.55-166.7 0-111.56-.34-162.36-1.1-166.04-.58-2.92-3.1-9.54-5.6-14.73-7.86-16.38-22.57-28.88-41.72-35.44-6-2.06-7.5-2.1-122.58-2.4C51.38 4.4 59 4 41.94 12.2c-12.9 6.2-23.8 16.9-29.9 29.3-7.7 15.8-7.16 1.94-7.16 181.05 0 156.7.04 160.82 1.97 168.35 6.62 25.9 29.72 45.92 57.53 49.9 1.65.24 54.75.36 118 .28 107.8-.14 115.37-.27 121-1.96zm-99.5-43.74c-11.73-2.54-31.6-8.96-39.15-12.67l-5.65-2.76-3.18 2.84c-2.5 2.2-3.8 2.7-5.97 2.23-4.4-.95-9.5 2.05-11.7 6.88-2.1 4.63-5.28 5.72-10.5 3.56-4.22-1.75-6.55-5.64-9.02-15.08-1.2-4.6-2.23-8.46-2.3-8.57-.06-.13-2.57.43-5.57 1.22-17.12 4.56-29.94-1.17-29.95-13.4 0-4.25.06-4.34 2.75-3.7 1.5.38 8.7.94 16 1.26 10.88.48 13.25.33 13.24-.8 0-.76-1.1-7-2.47-13.88-4.1-20.67-3.3-27.04 3-24.18 3.97 1.82 5.32 5.14 8.63 21.35l3.18 15.56 6.46-1.48c13.73-3.13 23.72-6.74 23.63-8.54-.05-.93-.17-4.37-.26-7.63l-.16-5.94-6 2.03c-5.64 1.9-6 2.22-6.02 5.18-.02 5.5-1.04 7.8-3.3 7.46-6-.88-14-33.8-12.22-50.33.96-8.9 2.9-10.94 9.6-10.06 6.78.9 16-1.42 37.35-9.4 26.83-10.07 37.82-13.36 41.93-12.6 5.1.96 8.65 4.15 8.65 7.75 0 3-1.45 4.82-8.7 11.02-4.43 3.8-6.35 13.04-7.04 33.83l-.54 16.5 16.4.05c15.23.04 16.94.24 24.38 2.8 12.27 4.26 20.1 8.5 24.5 13.26 3.52 3.84 4 4.93 4 9.23 0 3.78-.65 5.76-2.9 8.86-8.38 11.57-39.48 28.03-56.1 29.68-3.66.37-8.68-.14-15-1.5zm-48.18-31.8c.35-4.92 2.12-5-15.47.68-12.23 3.96-11.96 3.6-7.63 10.55l2.38 3.82 10.2-5.4 10.2-5.38.3-4.26zm49.76 11.37c19.88-5.76 30.9-12.23 35.25-20.7 2.38-4.62 2.4-4.85.66-6.76-2.13-2.38-8.08-2.6-21.67-.87l-8.82 1.13v6.67c0 5.85-.38 7.18-3 10.76-3.43 4.65-9.06 7.75-12.5 6.9-1.3-.33-3.3-2.14-4.46-4.03-1.17-1.88-2.66-3.62-3.33-3.85-1.3-.44-9.9 2.26-13.88 4.34-1.3.67-4.1 2.6-6.27 4.3-3.87 3.05-3.9 3.1-1.5 3.76 1.34.38 8.8.73 16.56.78 12.4.1 15.25-.22 22.96-2.45zm-19.4-18.48c2.58-1.18 4.4-3.72 3.4-4.72-.26-.26-5.63.73-11.94 2.2-11.76 2.73-12.64 3.3-12.64 8.1v2.36l9.25-3.34c5.08-1.85 10.46-3.92 11.94-4.6zm-6.36-16.8l10.32-2.67-.57-2.88c-.32-1.58-.57-4.22-.57-5.87v-3l-5.25.66c-2.9.38-8.07 1.16-11.5 1.74l-6.25 1.07v7.5c0 6.76.17 7.44 1.75 6.8.96-.37 6.4-1.88 12.07-3.34zm-29.57-14.22c4.12-1.15 4.38-2.06 3.13-11.15l-.6-4.47-4.4 1.58-4.38 1.58v6.76c0 7.4.04 7.43 6.25 5.7zM173.3 318c2.7-.83 7.25-1.5 10.14-1.5h5.24l.7-6.06c.4-3.34.47-6.3.17-6.6-.3-.3-4.86-.2-10.13.18-7.7.58-9.8 1.07-10.55 2.5-1.34 2.5-2.45 12.98-1.38 12.97.48-.02 3.1-.7 5.8-1.5zm-23.05-14.1c2.84-.67 2.86-.74 2.22-6.24-.36-3.06-.76-5.6-.88-5.68-.13-.07-2.3.06-4.87.3l-4.64.4.45 4.16c.83 7.64 1.27 8.8 3.1 8.26.95-.28 3.02-.8 4.6-1.2zm35.88-8.23c3 .2 4.75-.08 4.75-.78 0-.62.28-3.2.63-5.72l.64-4.6-3.38.88c-1.86.48-7.73 1.63-13.04 2.56l-9.65 1.68 1.45 4.26 1.45 4.25 6.2-1.42c3.4-.8 8.34-1.3 10.96-1.1zM108 281.47c-13.93-2.03-19.12-5.57-19.12-13.05 0-2.15.1-3.97.25-4.03.13-.07 15.2-.45 33.5-.86 18.3-.4 33.54-1 33.88-1.34.34-.33.33-2.15-.03-4.04-.45-2.4-1.7-4.15-4.1-5.8-1.92-1.3-3.48-2.77-3.5-3.26 0-.5 3.96-5 8.8-10 4.83-5 10.28-11.7 12.1-14.9 3.73-6.54 4.66-6.46 8.3.66 3.1 6.07 2.14 12.26-3.05 19.8-4.04 5.84-4.95 9.03-3.3 11.62.64 1 2 .83 6.48-.88 5.1-1.96 5.9-2.67 8.1-7.34 3.5-7.4 4.93-13.94 4.26-19.55-.58-4.94-3.58-11.97-6.55-15.37-1.53-1.76-1.34-2.12 3.55-6.5 2.84-2.55 7.67-6.14 10.72-8l5.56-3.35 4.45 2.6c8.52 5 11.6 11.52 9.64 20.33-1.15 5.12-8.1 16.66-15.7 26.08l-2.65 3.28 8.4-3.16c21.57-8.1 40.5-14.14 45.8-14.62 10-.9 18.1 3.17 18.1 9.12 0 7.5-9.75 11.1-34.5 12.68-23.75 1.52-26.53 2.3-62.07 17.5-13.25 5.65-26.8 10.98-30.15 11.85-6.5 1.7-27.2 2-37.15.54zm24.28-115.57c-13.28-7.03-27.08-21.87-47.56-51.13C76.4 102.9 73.98 98.72 74.45 97.1c1.93-6.5 8.9-5.46 20 3l4.84 3.7 17.03-4.32c9.38-2.4 27.62-7.18 40.53-10.66 12.92-3.47 24.5-6.32 25.72-6.32 1.3 0 2.7-.93 3.38-2.25 2.1-4.12 8.25-9.75 10.62-9.75 2.28 0 10.3 7 10.3 9 0 .55 2.36 1 5.25 1 11.72.02 29.53 3.6 42.95 8.62 16.5 6.2 29.7 18.8 29.77 28.47.06 6.13-5.97 14.9-19.9 28.98-16.98 17.18-20.53 19.22-33.57 19.3-12.47.1-17.92-2.5-15.96-7.64.82-2.14-10.76-4.08-24.72-4.14-8.74-.03-11.03.27-12.58 1.68-2.33 2.1-3.65 2.22-2.9.25.68-1.75-2.34-1.38-12.45 1.54-9.47 2.73-14.53 5.2-16.94 8.26-2.74 3.48-7.07 3.5-13.55.07zm105.3-30.76c7.87-8.32 11.3-13.6 11.3-17.4 0-2.55-5-9.37-9.23-12.6-5.8-4.43-14-7.57-21.93-8.42l-7.54-.8-3.7 11.25c-2.05 6.2-6.12 16.17-9.07 22.16l-5.33 10.9 11.15.5c11.28.5 16.94 2 19.52 5.1 1.26 1.52 1.57 1.5 4.1-.3 1.53-1.1 6.35-5.76 10.74-10.4zm-83.02 10c.23-.22-.28-6.74-1.13-14.48-.86-7.74-1.55-16.4-1.55-19.25v-5.16l-3.75.64c-3.5.6-31.4 4.2-37.46 4.83-2.46.27-1.04 1.87 15.5 17.55l18.2 17.25 4.9-.47c2.68-.26 5.07-.66 5.3-.88zm20-3.2l5.2-.68 1.1-5.1c1.3-6.02 3.65-35.36 2.9-36.1-.28-.3-5.05.5-10.6 1.73l-10.07 2.25 2.34 2.73c3.6 4.2 3.95 8.7 1.75 23.5l-2 13.35 2.1-.5c1.14-.3 4.4-.82 7.27-1.2z"/><path fill="#bebebe" d="M55.27 443.6C30.02 437.4 10.32 419 2.7 394.5L.4 387V223.5c0-133.14.24-164.52 1.33-169 2.2-9 9.64-23.07 15.8-29.88C27.46 13.64 41 5.5 55.66 1.72 61.85.15 71.7 0 179.38 0S296.9.14 303.1 1.73c21.53 5.54 39.15 19.5 48.33 38.27 8 16.34 7.54 4.68 7.23 186.5l-.28 161.5-2.72 8c-6.6 19.46-19.45 33.74-38.28 42.55-15.58 7.3-9 6.96-138.7 6.88-107.2-.07-116.86-.2-123.4-1.83zm248.1-4.48c24.74-7.46 42.87-25.63 48.96-49.08 1.36-5.26 1.55-24.88 1.55-166.7 0-111.56-.34-162.36-1.1-166.04-.58-2.92-3.1-9.54-5.6-14.73-7.86-16.38-22.57-28.88-41.72-35.44-6-2.06-7.5-2.1-122.58-2.4C51.38 4.4 59 4 41.94 12.2c-12.9 6.2-23.8 16.9-29.9 29.3-7.7 15.8-7.16 1.94-7.16 181.05 0 156.7.04 160.82 1.97 168.35 6.62 25.9 29.72 45.92 57.53 49.9 1.65.24 54.75.36 118 .28 107.8-.14 115.37-.27 121-1.96zm-91.5-42.3c-15.4-2.7-36.97-9.27-47.15-14.4-5-2.52-5.8-2.67-6.92-1.33-1.98 2.38-5.18 3.78-8.17 3.57-5.22-.38-9.62 2.35-11.73 7.3-1.78 4.13-2.26 4.53-5.4 4.53-3.88 0-8.84-3.55-11.02-7.87-.73-1.45-2.1-5.9-3.08-9.9-1.4-5.85-2.08-7.2-3.4-6.8-19.8 5.98-34.12.77-34.12-12.4 0-4.15.07-4.25 2.75-3.57 1.5.38 8.87.93 16.36 1.22l13.6.54-2.84-14.36c-4.4-22.26-3.8-27.97 2.63-25.04 3.63 1.66 5.32 5.96 8.63 22 1.68 8.07 3.14 14.78 3.25 14.9.34.37 18.8-4.52 24.6-6.52l5.5-1.9-.36-7.4c-.2-4.07-.47-7.53-.62-7.7-.14-.14-2.8.68-5.9 1.84-5.45 2.04-5.62 2.22-5.62 5.84 0 2.06-.64 4.6-1.4 5.67-1.4 1.88-1.47 1.88-3.5.05-5.12-4.64-10.3-25.86-10.48-42.94-.12-11.82-.12-11.84 2.7-14.27 2.44-2.1 3.5-2.36 7.5-1.84 6.73.88 14.82-1.3 41.3-11.1 12.75-4.73 25.95-9.32 29.35-10.2 6.12-1.62 6.24-1.6 11.1.8 4.15 2.05 4.97 2.93 5.23 5.56.26 2.72-.48 3.82-5.75 8.52-5.7 5.08-6.15 5.8-7.6 12.38-.85 3.84-1.8 14.63-2.14 23.98l-.6 17 15.9.03c14.72.03 16.5.24 24.38 2.87 19.78 6.6 29 13.78 29 22.6 0 4.37-2.06 7.84-7.85 13.26-15.14 14.16-45.52 27.25-58.15 25.05zm-66-23.57l9.97-5.25.02-4.25c0-2.34-.3-4.25-.7-4.25-1.63 0-26.28 8.1-26.28 8.64 0 1.34 5.38 10.36 6.18 10.36.48 0 5.35-2.36 10.82-5.25zm64.73.48c17.8-6.12 27.03-12.15 30.45-19.9 2.06-4.65 1.64-6.94-1.45-7.92-2.8-.88-11.02-.64-19.4.57-3.75.55-7.4 1-8.07 1-.86.02-1.25 1.92-1.25 6.08 0 3.33-.66 7.3-1.45 8.85-1.73 3.33-7.57 8.65-10.54 9.6-2.42.76-6.4-1.46-8-4.48-.6-1.08-1.87-2.4-2.86-2.93-2.62-1.4-14.1 2.88-20.26 7.56l-5.04 3.84 2.82.68c1.55.37 10.24.58 19.32.45 15.6-.22 17-.4 25.72-3.4zm-22.75-18.42c2.3-2.13 2.64-3.8.78-3.78-3.85.07-22.12 4.95-22.85 6.1-.48.76-.88 2.6-.9 4.08v2.7l10.47-3.6c5.77-2 11.4-4.46 12.5-5.5zm-8.74-15.44l10.74-2.84-.62-5.5c-.34-3.04-.75-5.68-.92-5.87-.33-.4-16.6 1.64-20.17 2.52-2.1.5-2.25 1.1-2.25 8.02 0 5.56.32 7.34 1.25 7 .68-.28 6.08-1.77 11.98-3.34zm-28.97-14.4c4.13-1.16 4.38-2.07 3.12-11.23l-.62-4.54-4.38 1.6-4.37 1.63v6.8c0 7.4.04 7.44 6.25 5.72zm23.75-7.46c3.02-.8 7.58-1.48 10.12-1.5 4.55 0 4.62-.05 5.23-3.75.35-2.06.63-5.05.64-6.64v-2.87l-9.74.7c-5.37.38-10.3 1.23-10.94 1.88-1.44 1.44-2.96 13.7-1.7 13.7.48-.02 3.35-.7 6.38-1.5zm-23.63-14.1c2.83-.67 2.87-.77 2.3-6.15-.3-3-.7-5.56-.86-5.68-.18-.12-2.46-.03-5.07.2l-4.75.43.56 4.15c1.07 7.94 1.4 8.8 3.22 8.25.94-.28 3-.8 4.6-1.2zm26.93-7.56c2.65-.57 6.77-.88 9.17-.7 4.28.35 4.36.3 4.93-3.14.3-1.93.58-4.44.6-5.58v-2.1l-12.75 2.46c-7.02 1.35-12.88 2.56-13.04 2.7-.17.15.13 1.33.66 2.64.52 1.3 1.22 3.2 1.54 4.23.4 1.27 1.14 1.65 2.33 1.2.96-.38 3.9-1.14 6.55-1.7zm-69.8-14.94c-12.6-1.8-18.5-6-18.5-13.17 0-3.36.13-3.48 4.64-4.1 2.55-.34 14.14-.63 25.75-.64 11.6 0 24.87-.3 29.46-.66l8.36-.65-.57-3.6c-.4-2.5-1.63-4.5-4.07-6.5l-3.5-2.9 7.62-8.1c4.2-4.45 9.8-11.4 12.42-15.4l4.78-7.3 2.6 3.9c4.94 7.5 4.3 14.36-2.1 22.75-3.34 4.38-4.65 10.56-2.53 11.87.48.3 3.3-.26 6.25-1.23 5.1-1.7 5.56-2.14 8.68-8.32 5.63-11.12 5.33-22.55-.84-32.27l-2.86-4.5 4.7-3.9c2.58-2.15 7.26-5.6 10.4-7.66l5.7-3.76 3.45 2.13c5.54 3.43 10.36 9.42 11.1 13.8 1.18 6.98-3.9 17.46-14.66 30.35l-5.7 6.83 6.7-2.58c17.4-6.7 44.58-15.48 49.48-16 9.38-.96 17.73 3.5 17.73 9.5 0 7.6-9.22 10.32-44.5 13.1-14.63 1.16-21.8 3.43-52.24 16.52-30.1 12.95-32.48 13.6-48.62 13.46-7.23-.07-15.84-.5-19.14-.98zm24.9-115.5c-13.28-7.03-27.08-21.87-47.56-51.13C76.4 102.9 73.98 98.72 74.45 97.1c1.93-6.5 8.9-5.46 20 3l4.84 3.7 17.03-4.32c9.38-2.4 27.62-7.18 40.53-10.66 12.92-3.47 24.5-6.32 25.72-6.32 1.3 0 2.7-.93 3.38-2.25 2.1-4.12 8.25-9.75 10.62-9.75 2.28 0 10.3 7 10.3 9 0 .55 2.36 1 5.25 1 11.72.02 29.53 3.6 42.95 8.62 16.5 6.2 29.7 18.8 29.77 28.47.06 6.13-5.97 14.9-19.9 28.98-16.98 17.18-20.53 19.22-33.57 19.3-12.47.1-17.92-2.5-15.96-7.64.82-2.14-10.76-4.08-24.72-4.14-8.74-.03-11.03.27-12.58 1.68-2.33 2.1-3.65 2.22-2.9.25.68-1.75-2.34-1.38-12.45 1.54-9.47 2.73-14.53 5.2-16.94 8.26-2.74 3.48-7.07 3.5-13.55.07zm105.3-30.76c7.87-8.32 11.3-13.6 11.3-17.4 0-2.55-5-9.37-9.23-12.6-5.8-4.43-14-7.57-21.93-8.42l-7.54-.8-3.7 11.25c-2.05 6.2-6.12 16.17-9.07 22.16l-5.33 10.9 11.15.5c11.28.5 16.94 2 19.52 5.1 1.26 1.52 1.57 1.5 4.1-.3 1.53-1.1 6.35-5.76 10.74-10.4zm-83.02 10c.23-.22-.28-6.74-1.13-14.48-.86-7.74-1.55-16.4-1.55-19.25v-5.16l-3.75.64c-3.5.6-31.4 4.2-37.46 4.83-2.46.27-1.04 1.87 15.5 17.55l18.2 17.25 4.9-.47c2.68-.26 5.07-.66 5.3-.88zm20-3.2l5.2-.68 1.1-5.1c1.3-6.02 3.65-35.36 2.9-36.1-.28-.3-5.05.5-10.6 1.73l-10.07 2.25 2.34 2.73c3.6 4.2 3.95 8.7 1.75 23.5l-2 13.35 2.1-.5c1.14-.3 4.4-.82 7.27-1.2z"/><path fill="#c38c8f" d="M55.38 443.56C29.78 436.8 9.68 417.68 2.24 393 .54 387.34.4 378 .1 227.5-.15 110.4.07 66 .9 60.5 5.37 31.66 27.2 9 57.9 1.37 62.38.25 84.75 0 179.88 0h116.5l8 2.3C329.65 9.63 348 26.93 356.04 51l2.34 7 .27 160.98c.3 181.78.77 169.95-7.4 186.46-3.85 7.83-6.13 10.92-13.26 18.02-9.67 9.6-17.84 14.8-29.62 18.82l-8 2.72-119 .2c-113 .2-119.36.12-126-1.64zm248-4.34c25.4-7.38 45-27.66 49.45-51.22.83-4.37 1.06-50.26.84-168.5l-.3-162.5-2.22-6.5c-6.84-20-22.9-35.66-44-42.85L299.38 5h-240l-8 2.8c-11.05 3.88-20.3 9.6-27.7 17.12-7.43 7.5-11.94 14.67-15.62 24.75L5.38 57 5.1 220.42c-.28 182.4-.82 168.2 6.94 184.08 6.87 14.07 21.47 26.96 36.88 32.57 11.68 4.24 13.1 4.3 133.46 4.1 106.05-.2 115.46-.34 121-1.95zm-91.5-42.4c-15.42-2.7-36.98-9.27-47.16-14.4-5-2.52-5.8-2.67-6.92-1.33-1.98 2.38-5.18 3.78-8.17 3.57-5.22-.38-9.62 2.35-11.73 7.3-1.78 4.13-2.26 4.53-5.4 4.53-3.88 0-8.84-3.55-11.02-7.87-.73-1.45-2.1-5.9-3.08-9.9-1.4-5.85-2.08-7.2-3.4-6.8-19.8 5.98-34.12.77-34.12-12.4 0-4.15.07-4.25 2.75-3.57 1.5.38 8.87.93 16.36 1.22l13.6.54-2.84-14.36c-4.4-22.26-3.8-27.97 2.63-25.04 3.63 1.66 5.32 5.96 8.63 22 1.68 8.07 3.14 14.78 3.25 14.9.34.37 18.8-4.52 24.6-6.52l5.5-1.9-.36-7.4c-.2-4.07-.47-7.53-.62-7.7-.14-.14-2.8.68-5.9 1.84-5.45 2.04-5.62 2.22-5.62 5.84 0 2.06-.64 4.6-1.4 5.67-1.4 1.88-1.47 1.88-3.5.05-5.12-4.64-10.3-25.86-10.48-42.94-.12-11.82-.12-11.84 2.7-14.27 2.44-2.1 3.5-2.36 7.5-1.84 6.73.88 14.82-1.3 41.3-11.1 12.75-4.73 25.95-9.32 29.35-10.2 6.12-1.62 6.24-1.6 11.1.8 4.15 2.05 4.97 2.93 5.23 5.56.26 2.72-.48 3.82-5.75 8.52-5.7 5.08-6.15 5.8-7.6 12.38-.85 3.84-1.8 14.63-2.14 23.98l-.6 17 15.9.03c14.72.03 16.5.24 24.38 2.87 19.78 6.6 29 13.78 29 22.6 0 4.37-2.06 7.84-7.85 13.26-15.14 14.16-45.52 27.25-58.15 25.05zm-66-23.57l9.96-5.25.02-4.25c0-2.34-.3-4.25-.7-4.25-1.63 0-26.28 8.1-26.28 8.64 0 1.34 5.38 10.36 6.18 10.36.48 0 5.35-2.36 10.82-5.25zm64.72.48c17.8-6.12 27.03-12.15 30.45-19.9 2.06-4.65 1.64-6.94-1.45-7.92-2.8-.88-11.02-.64-19.4.57-3.75.55-7.4 1-8.07 1-.86.02-1.25 1.92-1.25 6.08 0 3.33-.66 7.3-1.45 8.85-1.73 3.33-7.57 8.65-10.54 9.6-2.42.76-6.4-1.46-8-4.48-.6-1.08-1.87-2.4-2.86-2.93-2.62-1.4-14.1 2.88-20.26 7.56l-5.04 3.84 2.82.68c1.55.37 10.24.58 19.32.45 15.6-.22 17-.4 25.72-3.4zm-22.75-18.42c2.3-2.13 2.64-3.8.78-3.78-3.85.07-22.12 4.95-22.85 6.1-.48.76-.88 2.6-.9 4.08v2.7l10.47-3.6c5.77-2 11.4-4.46 12.5-5.5zm-8.74-15.44l10.74-2.84-.62-5.5c-.34-3.04-.75-5.68-.92-5.87-.33-.4-16.6 1.64-20.17 2.52-2.1.5-2.25 1.1-2.25 8.02 0 5.56.32 7.34 1.25 7 .68-.28 6.08-1.77 11.98-3.34zm-28.97-14.4c4.13-1.16 4.38-2.07 3.12-11.23l-.62-4.54-4.38 1.6-4.37 1.63v6.8c0 7.4.04 7.44 6.25 5.72zm23.75-7.46c3.02-.8 7.58-1.48 10.12-1.5 4.55 0 4.62-.05 5.23-3.75.35-2.06.63-5.05.64-6.64v-2.87l-9.74.7c-5.37.38-10.3 1.23-10.94 1.88-1.44 1.44-2.96 13.7-1.7 13.7.48-.02 3.35-.7 6.38-1.5zm-23.63-14.1c2.83-.67 2.87-.77 2.3-6.15-.3-3-.7-5.56-.86-5.68-.18-.12-2.46-.03-5.07.2l-4.75.43.56 4.15c1.07 7.94 1.4 8.8 3.22 8.25.94-.28 3-.8 4.6-1.2zm26.93-7.56c2.65-.57 6.77-.88 9.17-.7 4.28.35 4.36.3 4.93-3.14.3-1.93.58-4.44.6-5.58v-2.1l-12.75 2.46c-7.02 1.35-12.88 2.56-13.04 2.7-.17.15.13 1.33.66 2.64.52 1.3 1.22 3.2 1.54 4.23.4 1.27 1.14 1.65 2.33 1.2.96-.38 3.9-1.14 6.55-1.7zm-69.8-14.94c-12.6-1.8-18.5-6-18.5-13.17 0-3.36.13-3.48 4.64-4.1 2.55-.34 14.14-.63 25.75-.64 11.6 0 24.87-.3 29.46-.66l8.36-.65-.57-3.6c-.4-2.5-1.63-4.5-4.07-6.5l-3.5-2.9 7.62-8.1c4.2-4.45 9.8-11.4 12.42-15.4l4.78-7.3 2.6 3.9c4.94 7.5 4.3 14.36-2.1 22.75-3.34 4.38-4.65 10.56-2.53 11.87.48.3 3.3-.26 6.25-1.23 5.1-1.7 5.56-2.14 8.68-8.32 5.63-11.12 5.33-22.55-.84-32.27l-2.86-4.5 4.7-3.9c2.58-2.15 7.26-5.6 10.4-7.66l5.7-3.76 3.45 2.13c5.54 3.43 10.36 9.42 11.1 13.8 1.18 6.98-3.9 17.46-14.66 30.35l-5.7 6.83 6.7-2.58c17.4-6.7 44.58-15.48 49.48-16 9.38-.96 17.73 3.5 17.73 9.5 0 7.6-9.22 10.32-44.5 13.1-14.63 1.16-21.8 3.43-52.24 16.52-30.1 12.95-32.48 13.6-48.62 13.46-7.23-.07-15.84-.5-19.14-.98zm24.4-116.1c-11.85-5.93-30.52-26.56-50.03-55.3-7.8-11.48-8.65-14.48-4.75-16.56 2.85-1.53 8.1.42 15.83 5.9l6.46 4.55 18.93-4.78c10.42-2.63 27.9-7.23 38.85-10.22 10.94-3 21.9-5.73 24.35-6.06 2.5-.35 4.45-1.15 4.45-1.84 0-2 8.48-10.5 10.46-10.5 1 0 4.07 2.25 6.82 5 4.17 4.16 5.6 5 8.64 5 21.8 0 50.95 9.6 63.25 20.87 14.87 13.6 12.82 21.87-11.54 46.5-15.6 15.82-19.87 18.12-33.38 18.04-7.8-.04-9.74-.38-12.02-2.1-1.9-1.45-2.64-2.83-2.45-4.57.32-3.03-.58-3.32-14.97-4.8-11.42-1.2-19.94-.54-23.5 1.8-2.13 1.38-2.28 1.37-1.72-.1.53-1.36.1-1.53-2.73-1.02-13.32 2.4-22.82 6.08-26.86 10.4-3.57 3.83-6.1 3.8-14.08-.2zm102.46-26.37c10.05-9.83 14.64-16.4 14.64-21.02 0-2.38-1.17-4.48-4.62-8.32-7.3-8.13-16.4-12.3-29.04-13.35l-5.16-.42-3.67 11.1c-3.05 9.2-5.66 15.17-14.3 32.7-.16.34 4.6.84 10.55 1.13 10.68.5 18.86 2.74 20.66 5.66.38.6 1.03 1.1 1.44 1.1.4 0 4.68-3.86 9.5-8.57zm-79.77 6.3c.33-.32-.12-6.85-1-14.5-.88-7.66-1.6-16.3-1.6-19.2v-5.25l-3.24.47c-1.8.26-11.7 1.54-22.04 2.85l-18.8 2.37 17.8 17.28 17.78 17.28 5.25-.35c2.88-.2 5.5-.6 5.84-.94zm20.17-3.3c4.25-.56 5.36-1.1 5.74-2.8 1.3-5.74 2.5-16.32 3.1-27.38.58-10.17.46-12.24-.7-12.2-.77 0-5.52 1.04-10.54 2.27l-9.14 2.24 2.34 2.72c1.3 1.5 2.64 4.3 3 6.23.6 3.1-1.74 23.88-3.22 28.9-.47 1.55-.17 1.77 1.8 1.3 1.3-.33 4.73-.9 7.62-1.27z"/><path fill="#7c7c7c" d="M55.38 443.56C29.78 436.8 9.68 417.68 2.24 393 .54 387.34.4 378 .1 227.5-.15 110.4.07 66 .9 60.5 5.37 31.66 27.2 9 57.9 1.37 62.38.25 84.75 0 179.88 0h116.5l8 2.3C329.65 9.63 348 26.93 356.04 51l2.34 7 .27 160.98c.3 181.78.77 169.95-7.4 186.46-3.85 7.83-6.13 10.92-13.26 18.02-9.67 9.6-17.84 14.8-29.62 18.82l-8 2.72-119 .2c-113 .2-119.36.12-126-1.64zm248-4.34c25.4-7.38 45-27.66 49.45-51.22.83-4.37 1.06-50.26.84-168.5l-.3-162.5-2.22-6.5c-6.84-20-22.9-35.66-44-42.85L299.38 5h-240l-8 2.8c-11.05 3.88-20.3 9.6-27.7 17.12-7.43 7.5-11.94 14.67-15.62 24.75L5.38 57 5.1 220.42c-.28 182.4-.82 168.2 6.94 184.08 6.87 14.07 21.47 26.96 36.88 32.57 11.68 4.24 13.1 4.3 133.46 4.1 106.05-.2 115.46-.34 121-1.95zm-176.2-44.68c-4.37-2.66-5.83-5.24-8.15-14.38-1.1-4.3-2.2-8.05-2.47-8.3-.26-.27-3.88.22-8.04 1.08-4.16.86-9.06 1.56-10.9 1.56-4.26 0-11.56-3.73-14.1-7.2-2.1-2.9-2.95-11.44-1.08-11.1 8.97 1.57 19.9 2.38 25.03 1.83 3.52-.38 6.4-.82 6.4-.97 0-.16-1.12-5.8-2.5-12.56-2.22-10.9-3.4-27-1.96-27 .3 0 2.05.63 3.9 1.4 2.7 1.13 3.66 2.35 4.9 6.25.87 2.67 1.87 6.65 2.22 8.85 1.6 9.88 4.72 21.5 5.8 21.48 1.77-.02 14.26-3.4 22.52-6.06l7.37-2.4-.46-7.27c-.26-4-.74-7.56-1.08-7.9-.34-.34-3 .23-5.88 1.27-5.17 1.86-5.27 1.97-6.1 6.88-.45 2.75-1.24 5.42-1.74 5.93-2.88 2.9-8.15-9.27-11.4-26.36-1.9-10.03-2.05-26.56-.27-30.07 1.15-2.27 1.9-2.52 8.14-2.7 9.7-.25 14.12-1.46 39.58-10.8 12.37-4.56 24.94-9 27.93-9.9 11.6-3.43 20.08-.85 20.08 6.14 0 .87-2.87 4.32-6.37 7.67-5.55 5.33-6.5 6.8-7.54 11.6-1.24 5.77-3 26.58-3.05 36.07l-.02 5.56h15.25c13.78 0 16.1.27 24.25 2.76 23.44 7.15 33.15 16.02 29.54 26.98-4.05 12.27-42.86 33.65-61 33.6-9.55 0-37.56-7.76-50.48-13.95l-5.93-2.85-3.15 2.4c-2.1 1.6-4.5 2.42-7.07 2.42-5.07 0-9.72 2.9-11.43 7.13-2.2 5.48-5.15 6.28-10.67 2.9zm18.82-21.2l9.88-5.17v-4.33c0-5.38.06-5.38-15-.47-10.26 3.35-11.48 4-11.27 5.94.3 2.54 4.36 9.17 5.65 9.2.48 0 5.32-2.32 10.75-5.16zm61.18 1.7c11.86-3.45 23.05-8.9 28.42-13.85 7.56-6.98 9.2-12.4 4.67-15.36-2.37-1.55-3.65-1.6-14.25-.45-16.65 1.78-16.03 1.53-15.4 6.12.86 6.53-.5 10.7-5.12 15.52-3.5 3.66-4.93 4.46-7.87 4.46-3 0-4.1-.67-6.83-4.1-3.72-4.7-5.23-4.74-14.6-.44-5.16 2.35-13.27 8.3-13.3 9.75-.03.95 14.12 1.6 25.98 1.2 6.44-.2 12.33-1.13 18.3-2.86zm-29.9-14.65c9.58-3.48 12.6-5.35 12.6-7.82 0-1.84-.2-1.84-8.4-.05-17.05 3.73-16.6 3.5-16.6 8.08 0 4.62-1 4.64 12.4-.2zm-2.97-18.84c3.9-1.06 9-2.44 11.37-3.05l4.3-1.1-.3-6.2-.3-6.2-3.5.28c-9.76.8-18.6 2.6-19.74 4.04-1.65 2.05-1.7 14.18-.07 14.18.66 0 4.37-.87 8.25-1.94zm-20.33-24.06c-.13-4.1-.4-7.64-.6-7.84-.66-.66-7.5 2-9 3.5-1.45 1.44-2.2 12.3-.95 13.55.3.32 2.86.05 5.67-.57l5.1-1.14-.23-7.5zm31.4-.8l4 .27.58-6.5c.32-3.55.32-6.74 0-7.07-.8-.84-20.16.8-21.15 1.78-.95.96-3.05 13.3-2.44 14.3.24.38 3.7-.16 7.72-1.2 4-1.02 9.1-1.74 11.3-1.58zm-35.64-12.3c3.06-1.07 3.15-1.26 3.15-7.14v-6.04l-5.14.6c-2.82.34-5.33.8-5.56 1.04-.23.24-.12 3.18.26 6.53.76 6.68 1.34 7.08 7.3 5zm33.15-7.78l8.5-.62.6-5.5c.3-3.03.48-5.64.35-5.8-.28-.38-25.37 4.38-25.9 4.92-.23.22.1 2.34.75 4.72 1.1 4.14 1.27 4.3 4.17 3.6 1.67-.4 6.85-.98 11.53-1.32zm-67.5-14.8c-7.88-.67-17.06-2.5-20.3-4.03-3.8-1.82-6.46-6.26-6-10.12l.3-2.68 30-.7c16.5-.36 31.94-.96 34.3-1.3 4.23-.63 4.3-.7 3.7-3.82-.37-1.94-2.13-4.5-4.5-6.6l-3.88-3.4 8.5-9.03c4.66-4.96 10.1-11.64 12.07-14.84 1.98-3.18 3.97-5.8 4.43-5.8 1.64 0 5.06 8.36 5.13 12.53.07 4.63-2.88 11.32-6.82 15.5-1.94 2.07-2.26 3.2-1.77 6.25.7 4.2 1.17 4.34 7.67 2.13 5.4-1.84 7.93-4.9 10.9-13.17 3.25-9.1 2.82-15.85-1.56-24.5-2.02-3.97-3.67-7.52-3.67-7.87 0-.8 13.65-11.2 16.85-12.83 3.13-1.6 6.38-.65 10.7 3.13 9.58 8.42 8.63 18.74-3.22 35.06-2.5 3.45-5.95 7.74-7.64 9.53-1.7 1.8-2.8 3.25-2.5 3.25.34 0 6.4-2.2 13.48-4.87 35.86-13.57 46.58-15.78 55-11.36 4.43 2.32 5.9 4.9 4.94 8.68-1.34 5.34-13.84 9.12-33.32 10.08-22.73 1.13-27.47 2.45-62.9 17.6-12.7 5.43-26.6 10.78-30.9 11.87-7.4 1.9-17.1 2.34-28.98 1.32zm16.4-116.52c-11.85-5.93-30.52-26.56-50.03-55.3-7.8-11.48-8.65-14.48-4.75-16.56 2.85-1.53 8.1.42 15.83 5.9l6.46 4.55 18.93-4.78c10.42-2.63 27.9-7.23 38.85-10.22 10.94-3 21.9-5.73 24.35-6.06 2.5-.35 4.45-1.15 4.45-1.84 0-2 8.48-10.5 10.46-10.5 1 0 4.07 2.25 6.82 5 4.17 4.16 5.6 5 8.64 5 21.8 0 50.95 9.6 63.25 20.87 14.87 13.6 12.82 21.87-11.54 46.5-15.6 15.82-19.87 18.12-33.38 18.04-7.8-.04-9.74-.38-12.02-2.1-1.9-1.45-2.64-2.83-2.45-4.57.32-3.03-.58-3.32-14.97-4.8-11.42-1.2-19.94-.54-23.5 1.8-2.13 1.38-2.28 1.37-1.72-.1.53-1.36.1-1.53-2.73-1.02-13.32 2.4-22.82 6.08-26.86 10.4-3.57 3.83-6.1 3.8-14.08-.2zm102.46-26.37c10.05-9.83 14.64-16.4 14.64-21.02 0-2.38-1.17-4.48-4.62-8.32-7.3-8.13-16.4-12.3-29.04-13.35l-5.16-.42-3.67 11.1c-3.05 9.2-5.66 15.17-14.3 32.7-.16.34 4.6.84 10.55 1.13 10.68.5 18.86 2.74 20.66 5.66.38.6 1.03 1.1 1.44 1.1.4 0 4.68-3.86 9.5-8.57zm-79.77 6.3c.33-.32-.12-6.85-1-14.5-.88-7.66-1.6-16.3-1.6-19.2v-5.25l-3.24.47c-1.8.26-11.7 1.54-22.04 2.85l-18.8 2.37 17.8 17.28 17.78 17.28 5.25-.35c2.88-.2 5.5-.6 5.84-.94zm20.17-3.3c4.25-.56 5.36-1.1 5.74-2.8 1.3-5.74 2.5-16.32 3.1-27.38.58-10.17.46-12.24-.7-12.2-.77 0-5.52 1.04-10.54 2.27l-9.14 2.24 2.34 2.72c1.3 1.5 2.64 4.3 3 6.23.6 3.1-1.74 23.88-3.22 28.9-.47 1.55-.17 1.77 1.8 1.3 1.3-.33 4.73-.9 7.62-1.27z"/><path fill="#a55357" d="M61.7 444.5c-16.27-2.8-29.3-9.4-40.32-20.48-8.9-8.9-13.33-15.75-17.32-26.7L1.38 390 1.1 226C.78 42.68.34 54.75 7.9 39.7c8.93-17.72 23.8-30 44-36.36L59.4 1h240l7.5 2.34c24.88 7.77 42.33 25.34 48.97 49.3 2 7.2 2.03 9.7 2 169.84 0 181.44.5 168.28-7.2 184.02-3.33 6.75-5.95 10.27-12.73 17.08-7.12 7.15-10.13 9.37-18.05 13.25-17.93 8.8-6.66 8.12-137.5 8.3-63.8.1-118.1-.2-120.66-.64zm245.68-6.32c23.5-8.27 41.27-27.95 45.93-50.9 1.4-6.8 1.57-26.12 1.56-165-.02-173.88.33-164.27-6.48-178.62-8.8-18.5-25.55-32.16-46.5-37.88C295.82 4.12 287.4 4 179.38 4c-130.14 0-120.9-.5-137 7.47-14.8 7.32-25.05 17.7-32.15 32.56-6.62 13.84-6.35 6.24-6.35 179.1 0 175-.4 164.68 7.17 180.14 6.65 13.56 20.67 26.9 34.44 32.74 2.13.92 7.03 2.5 10.88 3.54 6.67 1.78 12.46 1.86 125 1.66l118-.2 8-2.82zm-180.2-43.64c-4.37-2.66-5.83-5.24-8.15-14.38-1.1-4.3-2.2-8.05-2.47-8.3-.26-.27-3.88.22-8.04 1.08-4.16.86-9.06 1.56-10.9 1.56-4.26 0-11.56-3.73-14.1-7.2-2.1-2.9-2.95-11.44-1.08-11.1 8.97 1.57 19.9 2.38 25.03 1.83 3.52-.38 6.4-.82 6.4-.97 0-.16-1.12-5.8-2.5-12.56-2.22-10.9-3.4-27-1.96-27 .3 0 2.05.63 3.9 1.4 2.7 1.13 3.66 2.35 4.9 6.25.87 2.67 1.87 6.65 2.22 8.85 1.6 9.88 4.72 21.5 5.8 21.48 1.77-.02 14.26-3.4 22.52-6.06l7.37-2.4-.46-7.27c-.26-4-.74-7.56-1.08-7.9-.34-.34-3 .23-5.88 1.27-5.17 1.86-5.27 1.97-6.1 6.88-.45 2.75-1.24 5.42-1.74 5.93-2.88 2.9-8.15-9.27-11.4-26.36-1.9-10.03-2.05-26.56-.27-30.07 1.15-2.27 1.9-2.52 8.14-2.7 9.7-.25 14.12-1.46 39.58-10.8 12.37-4.56 24.94-9 27.93-9.9 11.6-3.43 20.08-.85 20.08 6.14 0 .87-2.87 4.32-6.37 7.67-5.55 5.33-6.5 6.8-7.54 11.6-1.24 5.77-3 26.58-3.05 36.07l-.02 5.56h15.25c13.78 0 16.1.27 24.25 2.76 23.44 7.15 33.15 16.02 29.54 26.98-4.05 12.27-42.86 33.65-61 33.6-9.55 0-37.56-7.76-50.48-13.95l-5.93-2.85-3.15 2.4c-2.1 1.6-4.5 2.42-7.07 2.42-5.07 0-9.72 2.9-11.43 7.13-2.2 5.48-5.15 6.28-10.67 2.9zm18.82-21.2l9.88-5.17v-4.33c0-5.38.06-5.38-15-.47-10.26 3.35-11.48 4-11.27 5.94.3 2.54 4.36 9.17 5.65 9.2.48 0 5.32-2.32 10.75-5.16zm61.18 1.7c11.86-3.45 23.05-8.9 28.42-13.85 7.56-6.98 9.2-12.4 4.67-15.36-2.37-1.55-3.65-1.6-14.25-.45-16.65 1.78-16.03 1.53-15.4 6.12.86 6.53-.5 10.7-5.12 15.52-3.5 3.66-4.93 4.46-7.87 4.46-3 0-4.1-.67-6.83-4.1-3.72-4.7-5.23-4.74-14.6-.44-5.16 2.35-13.27 8.3-13.3 9.75-.03.95 14.12 1.6 25.98 1.2 6.44-.2 12.33-1.13 18.3-2.86zm-29.9-14.65c9.58-3.48 12.6-5.35 12.6-7.82 0-1.84-.2-1.84-8.4-.05-17.05 3.73-16.6 3.5-16.6 8.08 0 4.62-1 4.64 12.4-.2zm-2.97-18.84c3.9-1.06 9-2.44 11.37-3.05l4.3-1.1-.3-6.2-.3-6.2-3.5.28c-9.76.8-18.6 2.6-19.74 4.04-1.65 2.05-1.7 14.18-.07 14.18.66 0 4.37-.87 8.25-1.94zm-20.33-24.06c-.13-4.1-.4-7.64-.6-7.84-.66-.66-7.5 2-9 3.5-1.45 1.44-2.2 12.3-.95 13.55.3.32 2.86.05 5.67-.57l5.1-1.14-.23-7.5zm31.4-.8l4 .27.58-6.5c.32-3.55.32-6.74 0-7.07-.8-.84-20.16.8-21.15 1.78-.95.96-3.05 13.3-2.44 14.3.24.38 3.7-.16 7.72-1.2 4-1.02 9.1-1.74 11.3-1.58zm-35.64-12.3c3.06-1.07 3.15-1.26 3.15-7.14v-6.04l-5.14.6c-2.82.34-5.33.8-5.56 1.04-.23.24-.12 3.18.26 6.53.76 6.68 1.34 7.08 7.3 5zm33.15-7.78l8.5-.62.6-5.5c.3-3.03.48-5.64.35-5.8-.28-.38-25.37 4.38-25.9 4.92-.23.22.1 2.34.75 4.72 1.1 4.14 1.27 4.3 4.17 3.6 1.67-.4 6.85-.98 11.53-1.32zm-67.5-14.8c-7.88-.67-17.06-2.5-20.3-4.03-3.8-1.82-6.46-6.26-6-10.12l.3-2.68 30-.7c16.5-.36 31.94-.96 34.3-1.3 4.23-.63 4.3-.7 3.7-3.82-.37-1.94-2.13-4.5-4.5-6.6l-3.88-3.4 8.5-9.03c4.66-4.96 10.1-11.64 12.07-14.84 1.98-3.18 3.97-5.8 4.43-5.8 1.64 0 5.06 8.36 5.13 12.53.07 4.63-2.88 11.32-6.82 15.5-1.94 2.07-2.26 3.2-1.77 6.25.7 4.2 1.17 4.34 7.67 2.13 5.4-1.84 7.93-4.9 10.9-13.17 3.25-9.1 2.82-15.85-1.56-24.5-2.02-3.97-3.67-7.52-3.67-7.87 0-.8 13.65-11.2 16.85-12.83 3.13-1.6 6.38-.65 10.7 3.13 9.58 8.42 8.63 18.74-3.22 35.06-2.5 3.45-5.95 7.74-7.64 9.53-1.7 1.8-2.8 3.25-2.5 3.25.34 0 6.4-2.2 13.48-4.87 35.86-13.57 46.58-15.78 55-11.36 4.43 2.32 5.9 4.9 4.94 8.68-1.34 5.34-13.84 9.12-33.32 10.08-22.73 1.13-27.47 2.45-62.9 17.6-12.7 5.43-26.6 10.78-30.9 11.87-7.4 1.9-17.1 2.34-28.98 1.32zm18.58-115.4c-8.2-3.3-22.5-16.7-35.44-33.27-9.06-11.6-23.64-33.17-23.64-34.97 0-7.08 8.46-6.1 19.52 2.25l5.12 3.86 28.43-7.44c15.63-4.1 35.04-9.1 43.12-11.15 11.64-2.93 14.9-4.12 15.63-5.73.5-1.1 2.15-3.47 3.64-5.25 4.14-4.92 8.23-4.52 13.35 1.3l3.98 4.54 10.35.9c24.93 2.2 44.45 8.97 56.7 19.7 9.23 8.07 11.37 16.03 6.75 25.12-3 5.87-20.38 25.28-27.7 30.92-8.58 6.6-13.1 8.25-22.7 8.28-5.1 0-9.63-.55-11.8-1.46-3.18-1.32-3.52-1.83-3.23-4.74l.33-3.26-8-1.2c-4.4-.64-12.47-1.2-17.92-1.25-8.04-.06-10.3.26-11.82 1.64-1.55 1.4-2.04 1.48-2.73.36-1.97-3.2-27.85 5.06-29.9 9.55-.9 2-1.8 2.4-5.35 2.34-2.35-.04-5.36-.5-6.7-1.03zm107.75-34.98c5.3-6.02 8.52-12.3 7.68-14.92-1.35-4.28-11.3-13.65-17.35-16.37-6.18-2.77-14.13-4.65-19.68-4.65-2.97 0-3.3.33-3.95 3.75-1.1 5.97-7.33 21.95-12.4 31.86l-4.68 9.12 10.03.62c11.5.7 20.04 2.9 21.73 5.62 1.08 1.72 1.7 1.38 7.9-4.3 3.7-3.4 8.53-8.2 10.73-10.72zM155 145.62c.34-.34.04-5.35-.68-11.12-.7-5.78-1.6-14.68-2-19.78-.58-7.9-.93-9.2-2.3-8.8-2.1.6-21.83 3.32-29.64 4.08-3.3.32-7.55.83-9.44 1.12l-3.43.54 18.44 17.82 18.44 17.8 5-.5c2.75-.3 5.28-.82 5.62-1.16zm25.58-4.5c.12-.12.87-5.36 1.67-11.66 1.87-14.68 2.46-30.5 1.13-30.32-.55.07-5.36 1.12-10.68 2.3l-9.67 2.2 2.42 3.56c2.93 4.32 3.2 11.88.9 25.8-.8 4.95-1.47 9.5-1.47 10.1 0 .75 2.37.64 7.75-.36 4.26-.8 7.84-1.52 7.95-1.63z"/><path fill="#871a1f" d="M61.7 444.5c-16.27-2.8-29.3-9.4-40.32-20.48-8.9-8.9-13.33-15.75-17.32-26.7L1.38 390 1.1 226C.78 42.68.34 54.75 7.9 39.7c8.93-17.72 23.8-30 44-36.36L59.4 1h240l7.5 2.34c24.88 7.77 42.33 25.34 48.97 49.3 2 7.2 2.03 9.7 2 169.84 0 181.44.5 168.28-7.2 184.02-3.33 6.75-5.95 10.27-12.73 17.08-7.12 7.15-10.13 9.37-18.05 13.25-17.93 8.8-6.66 8.12-137.5 8.3-63.8.1-118.1-.2-120.66-.64zm245.68-6.32c23.5-8.27 41.27-27.95 45.93-50.9 1.4-6.8 1.57-26.12 1.56-165-.02-173.88.33-164.27-6.48-178.62-8.8-18.5-25.55-32.16-46.5-37.88C295.82 4.12 287.4 4 179.38 4c-130.14 0-120.9-.5-137 7.47-14.8 7.32-25.05 17.7-32.15 32.56-6.62 13.84-6.35 6.24-6.35 179.1 0 175-.4 164.68 7.17 180.14 6.65 13.56 20.67 26.9 34.44 32.74 2.13.92 7.03 2.5 10.88 3.54 6.67 1.78 12.46 1.86 125 1.66l118-.2 8-2.82zm-179-43.2c-5.47-2.8-6.54-4.87-10.46-20.13l-1.07-4.15-4.35 1.3c-12.23 3.7-21.64 2.68-27.23-2.9-3.2-3.2-5.18-9.1-4.06-12.03.46-1.18 1.26-1.24 4.37-.35 3.93 1.12 26.7 1.7 27.7.72.3-.3-.54-6.16-1.9-13-1.34-6.84-2.46-15.73-2.47-19.76-.02-7.13.03-7.3 2.23-6.63 5.52 1.7 6.86 4.52 10.27 21.6 1.5 7.5 3.07 14.2 3.5 14.9.88 1.42 7.56.07 22.87-4.64l8.36-2.55-.48-7.44c-.26-4.1-.73-7.7-1.04-8-.3-.3-3 .2-5.97 1.15-5.42 1.7-5.43 1.72-6.34 6.83-1.94 10.83-6.95 4.8-11.56-13.88-1.73-7-2.24-12.08-2.3-22.83-.08-16.53-.08-16.53 10.78-16.54 8.3-.02 15.73-2.07 39.16-10.86 26.13-9.8 32.13-11.57 37.22-11 5.77.65 9.84 4.34 8.9 8.06-.34 1.4-2.86 4.25-5.6 6.35-7.6 5.87-9.3 12.2-10.6 39.44l-.68 14.62 14.88-.1c12.86-.1 15.96.2 22.88 2.23 16.63 4.87 28.6 12.16 31.52 19.2 1.66 4 0 9.68-4.18 14.46-3.93 4.47-18.7 14.36-28.16 18.85-13.52 6.42-19.4 8.05-28.68 8-11.94-.06-33.67-5.92-50.1-13.5l-6.8-3.13-3.13 2.62c-2.26 1.9-4.3 2.64-7.3 2.67-5.7.04-8.58 1.9-11.07 7.07-2.37 4.95-4.5 5.75-9.1 3.38zm27.3-31.43c.23-3.8-.02-4.92-1-4.58-.72.25-6.48 2.07-12.8 4.05-6.33 1.98-12.08 3.8-12.8 4.02-1.38.46.2 4.3 4 9.7l1.92 2.74 10.2-5.45 10.18-5.45.3-5.03zm53.72 10.9c17.53-5.6 27.86-11.87 31.57-19.14 2.53-4.94 2.16-7.8-1.24-9.7-2.3-1.3-4.25-1.32-15-.17-6.8.73-12.84 1.5-13.43 1.74-.67.26-.9 2.48-.63 5.83.37 4.53.02 6.14-2.16 9.87-2.77 4.73-7.96 8.63-11.5 8.63-2.06 0-3.65-1.27-7.46-5.96-1.36-1.68-2.52-2.12-4.52-1.72-6.27 1.25-13.97 4.95-18.6 8.92l-4.96 4.26 8.96.63c17.17 1.2 28.03.32 38.98-3.18zm-32.8-13.58c10.54-3.9 13.28-5.66 13.28-8.5 0-2.05.36-2.1-15.14 1.5l-9.36 2.17-.3 4.23c-.2 2.44.12 4.23.72 4.23.56 0 5.43-1.63 10.8-3.63zm-2.22-19.25c3.85-1.1 8.9-2.48 11.25-3.1l4.25-1.1v-13l-3.25.5c-1.8.3-6.85 1.04-11.25 1.66-4.4.6-8.57 1.58-9.25 2.14-.8.65-1.25 3.7-1.25 8.37 0 5.42.32 7.23 1.25 6.92.68-.22 4.4-1.3 8.25-2.4zm-22.5-16.1c2.4-.64 2.47-.9 2.14-8.1-.18-4.08-.5-7.58-.67-7.77-.72-.74-8.04 2.15-9.22 3.65-.7.9-1.25 4.35-1.25 7.87v6.28l3.25-.64c1.78-.34 4.37-.92 5.74-1.28zm24-7.56c3.8-.96 8.03-1.4 10.24-1.04l3.76.6v-5.26c.02-2.9.3-6.26.62-7.48.56-2.1.35-2.2-4.27-1.76-2.67.24-7.84.7-11.5 1.03l-6.65.6-.65 4.67c-.36 2.57-.92 6.2-1.24 8.04-.52 2.95-.36 3.3 1.3 2.8 1.03-.3 4.8-1.3 8.37-2.2zm-28-12.83l4.5-1.34.3-6.3.3-6.3-5.2.62c-2.84.34-5.36.8-5.58 1.02-.33.34.7 13.7 1.06 13.64.07 0 2.14-.6 4.62-1.35zm34.66-8.3l9.17-.6.4-5.6c.2-3.1.25-5.8.1-6.02-.23-.32-15.78 2.44-24.95 4.42-2.1.45-2.1.54-.5 5.03 1.46 4.1 1.88 4.52 4.13 3.98 1.37-.33 6.62-.87 11.66-1.2zm-69.4-15.3c-10.84-1.23-17.05-2.98-20.3-5.7-3.38-2.85-5.07-9.02-2.85-10.42.75-.48 9.93-.9 20.38-.94 19.52-.08 46.14-1.27 46.97-2.1.25-.25.2-2.13-.14-4.17-.44-2.8-1.55-4.43-4.4-6.53l-3.83-2.8 7.58-7.44c4.17-4.1 9.7-10.7 12.3-14.68 4.38-6.74 4.82-7.13 6.24-5.5 6.07 6.97 5.3 15.66-2.3 25.3-2.37 3.04-2.7 4.2-2.22 7.8.34 2.5 1.03 4.1 1.7 3.86.6-.2 3.53-1.24 6.5-2.3 5.1-1.78 5.6-2.28 8.24-7.9 5.75-12.28 5.5-23.37-.77-32.86l-2.54-3.85 2.84-3c4.96-5.2 16.15-12.07 18.62-11.43 3.4.86 9.27 6.16 11.1 10 3.8 8 .1 18.44-11.73 33.13-3.55 4.4-6.34 8.12-6.2 8.26.13.15 9.43-3.08 20.66-7.18s24.15-8.4 28.7-9.6c7.36-1.9 8.9-2 13.47-.9 5.65 1.35 10.7 5.5 10.7 8.75 0 2.85-5.23 6.86-11.3 8.67-2.85.86-11.04 2-18.2 2.55-29.78 2.26-32.73 3.04-67.5 17.97-28.47 12.23-31.44 13.15-44 13.52-5.77.18-13.75-.05-17.73-.5zm20.82-115.12c-8.2-3.28-22.5-16.7-35.44-33.25-9.06-11.6-23.64-33.17-23.64-34.97 0-7.08 8.46-6.1 19.52 2.25l5.12 3.86 28.43-7.44c15.63-4.1 35.04-9.1 43.12-11.15 11.64-2.93 14.9-4.12 15.63-5.73.5-1.1 2.15-3.47 3.64-5.25 4.14-4.92 8.23-4.52 13.35 1.3l3.98 4.54 10.35.9c24.93 2.2 44.45 8.97 56.7 19.7 9.23 8.07 11.37 16.03 6.75 25.12-3 5.87-20.38 25.28-27.7 30.92-8.58 6.6-13.1 8.25-22.7 8.28-5.1 0-9.63-.55-11.8-1.46-3.18-1.32-3.52-1.83-3.23-4.74l.33-3.26-8-1.2c-4.4-.64-12.47-1.2-17.92-1.25-8.04-.06-10.3.26-11.82 1.64-1.55 1.4-2.04 1.48-2.73.36-1.97-3.2-27.85 5.06-29.9 9.55-.9 2-1.8 2.4-5.35 2.34-2.35-.04-5.36-.5-6.7-1.03zm107.75-34.96c5.3-6.02 8.52-12.3 7.68-14.92-1.35-4.28-11.3-13.65-17.35-16.37-6.18-2.77-14.13-4.65-19.68-4.65-2.97 0-3.3.33-3.95 3.75-1.1 5.97-7.33 21.95-12.4 31.86l-4.68 9.12 10.03.62c11.5.7 20.04 2.9 21.73 5.62 1.08 1.72 1.7 1.38 7.9-4.3 3.7-3.4 8.53-8.2 10.73-10.72zM155 145.62c.34-.34.04-5.35-.68-11.12-.7-5.78-1.6-14.68-2-19.78-.58-7.9-.93-9.2-2.3-8.8-2.1.6-21.83 3.32-29.64 4.08-3.3.32-7.55.83-9.44 1.12l-3.43.54 18.44 17.82 18.44 17.8 5-.5c2.75-.3 5.28-.82 5.62-1.16zm25.58-4.5c.12-.12.87-5.36 1.67-11.66 1.87-14.68 2.46-30.5 1.13-30.32-.55.07-5.36 1.12-10.68 2.3l-9.67 2.2 2.42 3.56c2.93 4.32 3.2 11.88.9 25.8-.8 4.95-1.47 9.5-1.47 10.1 0 .75 2.37.64 7.75-.36 4.26-.8 7.84-1.52 7.95-1.63z"/><path fill="#010101" d="M59.63 443.94C36.5 439.7 17.43 425.2 7.27 404.1.43 389.9.8 400.58 1.1 219.5L1.38 56l2.7-7.3C12.8 25.16 31.74 8.34 56.03 2.5 64.13.58 67.8.5 179.38.5c110.13 0 115.34.1 123 1.94 9.97 2.4 16.12 5.08 24.7 10.73 12.23 8.07 22.35 21.06 27.62 35.5l2.68 7.33.26 164.42c.3 181.95.73 169.07-6.2 183.77-6.96 14.7-18.08 25.9-32.98 33.22-16.45 8.06-6.13 7.47-135.58 7.72-96.04.18-116.8-.03-123.25-1.2zm241.32-3.87c23.32-4.94 42.46-22 50.6-45.07l2.83-8 .28-160.5c.3-180.23.73-169.1-7.06-185-3.27-6.68-5.9-10.22-12.2-16.5-11.98-11.94-24.17-18.16-40.13-20.46-4.24-.62-48.87-1-116-1.02-118.55-.02-119.1 0-132.7 5.52-18.24 7.4-33.12 23.2-39.44 41.83L4.38 59v163.5c0 155.72.08 163.78 1.83 169.44 7.04 22.77 23.45 39.43 45.76 46.44 3.53 1.1 7.54 2.2 8.92 2.43 1.37.24 54.47.48 118 .55 95.3.1 116.65-.13 122.07-1.28zM129.97 163.75c-11.35-6.7-26.1-22.88-43.8-48.07C75.4 100.34 74.1 97.94 75.5 95.73c2.47-3.95 10.24-1.75 19.07 5.4l4.2 3.42 16.3-4.1c8.97-2.24 26.88-6.95 39.8-10.46 12.93-3.52 25.2-6.7 27.28-7.06 2.4-.43 4.18-1.45 4.87-2.8.6-1.18 2.48-3.6 4.17-5.4 4.32-4.56 7.1-4.26 12.3 1.34l4.28 4.6 10.8.92c23.9 2.06 46.3 10.3 57.2 21.05 13.57 13.37 10.84 22.18-14.56 46.94-13.34 13-17.3 15.2-28.27 15.7-5.5.23-10-.1-12.57-.98-3.63-1.2-4-1.66-4.05-4.83l-.05-3.5-7.45-1.2c-11.12-1.76-28-1.66-30.65.2-1.53 1.07-2.25 1.16-2.53.33-1.03-3.1-26.28 5-29.88 9.58-3.03 3.86-7.9 3.5-15.8-1.15zm108.15-28.15c5.53-5.82 9.15-10.57 10.27-13.5 1.7-4.5 1.7-4.54-.87-8.92-3.02-5.16-8.07-9.83-13.8-12.75-4.56-2.33-15.54-4.9-20.85-4.88h-3.5l-3.94 12.2c-2.17 6.72-6.26 16.77-9.1 22.35l-5.14 10.13 10.1.65c12.08.78 16.65 1.92 20.3 5.07 2.7 2.32 2.78 2.33 5.36.5 1.44-1.03 6.46-5.9 11.16-10.85zm-83.42 10.33c.72-.23 1.1-1.2.8-2.18-.27-.96-1.27-9.85-2.2-19.75-.95-9.9-1.8-18.1-1.88-18.23-.1-.13-3.97.4-8.6 1.2-4.65.8-14.47 2.13-21.85 2.97-7.37.84-13.55 1.68-13.73 1.87-.2.2 6.3 6.46 14.4 13.94 8.1 7.48 16.53 15.45 18.72 17.7 3.78 3.9 4.2 4.08 8.5 3.5 2.48-.32 5.1-.78 5.84-1zm22.3-3.88l3.6-.6 1.17-7.22c1.2-7.38 3.3-34.87 2.72-35.45-.4-.4-20.72 4.5-21.38 5.15-.27.27.7 1.9 2.13 3.6 2.22 2.64 2.63 4.1 2.62 9.3 0 3.4-.67 10.22-1.48 15.17-2.14 12.98-2.28 12.4 2.73 11.44 2.33-.44 5.87-1.07 7.86-1.4z"/></g></g></svg>