<svg xmlns="http://www.w3.org/2000/svg" width="358.843" height="445.794" viewBox="0 0 358.84296 445.79416"><g><g><path fill="#e0c5c6" d="M56.5 444.4c-21.25-4.65-39.66-18.9-49.1-38-7.94-16.12-7.47-3.77-7.17-186.3L.5 57.35l2.75-8.13C10.7 27.2 30.13 9.26 53.7 2.6 61.5.4 61.54.37 174 .06c75.9-.2 115.14.04 120.64.76 33.82 4.44 59.1 29.1 63.43 61.83.66 5 .9 62.7.7 165.7-.34 177.32.37 161.42-7.92 178.5-3.4 6.97-5.77 10.12-13.27 17.58-10.42 10.37-20.16 15.93-34 19.42-7.68 1.94-11.2 2-124.5 1.9-92.1-.05-117.85-.34-122.6-1.37zm248-5.4c20.2-6.77 34.16-18.43 42.55-35.5 7.47-15.22 7.04-3.4 6.72-183.65l-.28-161.5-2.7-7.33c-3.85-10.58-8.35-17.64-16.32-25.63-8.15-8.18-16.73-13.5-28-17.32l-8-2.73-115.5-.3c-81.3-.2-117.4.05-122 .83-25.66 4.4-47.9 24.7-54.73 49.97C4.6 61.92 4.5 73.02 4.5 223.35c0 181.4-.7 165.58 7.8 182 4.82 9.32 15.88 21.02 24.88 26.32 6.6 3.9 17.32 7.78 24.93 9.07 3.06.5 55.37.84 120.4.76l115-.15 7-2.35zM205 395.94c-17.25-3.7-34.88-9.53-42.7-14.1-2.8-1.62-3.33-1.67-4.42-.35-1.97 2.37-6.4 4.3-8.58 3.72-1.1-.3-3.65.17-5.67 1-2.8 1.18-4.13 2.62-5.62 6.1-1.73 4.07-2.27 4.53-5.22 4.53-4.17 0-9.26-3.08-11.16-6.75-.8-1.56-2.2-5.74-3.1-9.3-.88-3.54-1.78-6.96-2-7.58-.27-.83-1.94-.77-6.2.23-7 1.65-16.14 1.8-20 .34-6.4-2.43-11.1-10.05-9.67-15.73.5-2 1.04-2.3 3.22-1.76 4.86 1.2 29.12 1.87 29.12.82 0-.54-1.13-6.52-2.5-13.27-1.38-6.75-2.5-15.36-2.5-19.13 0-6.27.17-6.87 2.06-6.87 3.14 0 5.75 1.75 7.42 4.98 1.07 2.06 7.5 30.05 7.5 32.62 0 .47 9.45-1.92 19.26-4.87l10.74-3.23v-7.2c0-3.94-.32-7.38-.74-7.62-.4-.24-3.1.47-6 1.58-4.6 1.77-5.25 2.37-5.25 4.82 0 4.05-1.7 7.93-3.5 7.93-5.62 0-13.1-29.15-12.3-47.88.36-8.47.63-9.57 2.83-11.35 1.97-1.6 3.33-1.84 7.16-1.33 6.73.88 14.2-1.12 40.63-10.86 26.8-9.9 33.9-11.9 38.7-11 5 .92 8.46 3.97 8.46 7.4 0 2.77-1.35 4.4-9.24 11.17-4.3 3.7-5.88 11.6-6.5 32.35l-.52 18 15.88.04c14.7.03 16.5.25 24.37 2.86 25.3 8.42 34.2 18.7 26.24 30.3-8.63 12.6-38.6 28.8-56.75 30.7-3.04.3-8.35-.2-13.5-1.32zm-49.45-31.4c.35-2.1.44-4.03.2-4.28-.5-.48-25.47 6.98-26.37 7.88-.64.63 2.23 6.5 4.38 8.95 1.43 1.63 2.13 1.4 11.33-3.5 9.33-4.98 9.83-5.4 10.45-9.05zM209 374.4c9-2.95 20.4-8.33 25.27-11.9 3.4-2.5 7.72-9.42 7.72-12.36 0-3.94-2.33-4.63-13.3-3.96-5.6.34-11.9.92-13.96 1.28l-3.75.65v5.93c0 6.55-1.4 10-5.67 13.95-6.47 6-10.4 6.1-14.76.4-1.76-2.32-3.5-3.53-5.1-3.53-3.93 0-12.66 3.9-17.4 7.8-4.37 3.58-4.4 3.66-2 4.37 1.33.4 9.62.6 18.42.45 14.36-.25 16.86-.56 24.5-3.07zm-24-17.36c4.18-2.02 5.6-5.78 1.84-4.9-1.3.3-6.73 1.53-12.1 2.75l-9.75 2.2v7.6l8.24-2.98c4.54-1.64 9.83-3.75 11.75-4.68zm-.76-18.4l4.75-1.13V325.63l-5.76.67c-3.16.36-8.33 1.14-11.5 1.74L166 329.1v14.6l6.74-1.96c3.72-1.08 8.9-2.47 11.5-3.1zm-34.58-12.93c4.52-1.13 4.54-1.16 3.95-4.74-.32-1.98-.6-5.27-.6-7.3v-3.7l-4.5 1.66-4.5 1.66v6.8c0 3.72.24 6.77.55 6.77.3 0 2.6-.5 5.1-1.14zm23.33-7.35c3.02-.8 7.86-1.48 10.74-1.48l5.25-.02v-3.37c0-1.86.3-4.85.65-6.64l.65-3.27-9.4.7c-5.17.38-10.13.9-11.02 1.16-1.15.34-1.88 2.45-2.56 7.45-.52 3.83-.7 6.97-.38 6.96.3 0 3.03-.67 6.05-1.5zm-23-14.1c2.36-.5 2.48-.85 2.16-6.34l-.33-5.78-4.67.5c-2.57.27-4.75.56-4.84.63-.1.07.08 2.97.4 6.44.52 5.82.73 6.26 2.67 5.7 1.15-.32 3.22-.84 4.6-1.14zm26.8-7.44c3.32-.64 7.8-1 10-.8l3.96.38.57-5.48c.3-3 .47-5.52.36-5.57-.12-.05-5.97 1.02-13 2.37-10.83 2.08-12.7 2.7-12.1 4.06.37.88.9 2.86 1.16 4.4.3 1.75.96 2.63 1.75 2.32.72-.27 4-1.02 7.3-1.67zM110 282.2c-10.18-1.52-14.6-2.92-17.63-5.6-3.62-3.17-5.47-9.05-3.47-11.05.8-.8 11.22-1.34 33.67-1.77 18.6-.36 32.94-1.04 33.5-1.6 1.9-1.9-.17-6.78-4.12-9.74l-3.88-2.9 8.83-9.25c4.85-5.08 10.53-12.06 12.63-15.5l3.8-6.26 2.34 2.9c2.98 3.7 4.66 9.8 3.87 14-.34 1.8-2.4 5.96-4.58 9.23-2.83 4.24-3.97 7-3.97 9.63 0 4.05-.52 3.98 8 1.07 4.4-1.5 7.46-5.95 10.15-14.8 2.9-9.52 1.53-17.12-4.83-26.96-1.77-2.72-1.77-2.73 1.7-5.73 1.9-1.66 6.53-5.1 10.26-7.62 6.3-4.28 7-4.52 9.7-3.4 3.7 1.53 9.86 7.48 11.08 10.68.5 1.35.93 4.63.93 7.3 0 6.07-4.78 15.7-12.62 25.37-3.04 3.76-5.4 6.95-5.2 7.1.17.14 8.07-2.6 17.54-6.1 31.37-11.56 39.64-13.18 47.94-9.4 10.05 4.55 7.66 13.52-4.55 17.1-3.86 1.12-14.62 2.36-33.1 3.8-14.07 1.1-23.5 4.08-53.5 16.95-29.4 12.6-31.7 13.23-48.36 13.07-7.5-.08-14.77-.3-16.15-.5zm-8.9-110.42c-16.64-2.93-23.88-11.53-15.7-18.7 4.85-4.27 11.86-5.7 22.5-4.62 24.13 2.45 39.22-.62 78.84-16.04 16.96-6.6 26.35-8.7 41.62-9.3 15.24-.58 21.7.35 30.26 4.36 9.68 4.54 18.38 14.3 18.37 20.58-.02 3.87-3.77 8.78-8.28 10.83-6.6 2.98-13.4 2.5-29.23-2.12-24.68-7.18-37.9-6.4-78.78 4.67-38.44 10.4-48.86 12.22-59.6 10.33zm27.32-39.92c-7.76-1.14-9.43-2.38-9.43-7.02 0-5.28 2.62-6.56 17.5-8.5 14.88-1.96 37.97-6.76 48.1-10 4.34-1.4 13.34-5.23 20-8.5 6.66-3.3 12.83-6 13.73-6 2.93 0 9.7 3.2 10.7 5.07.53 1 .96 3.15.96 4.78 0 8.43-24.16 19.2-59.75 26.6-10.22 2.14-32.15 4.86-35.76 4.44-.56-.06-3.3-.45-6.08-.86zm-.15-33.06c-5.8-1.8-6.84-8.22-1.84-11.5 1.4-.92 9.25-2.57 18.74-3.93 32.03-4.63 49.43-9.36 68.8-18.7 10.45-5.06 13.06-5.94 16.27-5.5 4.68.62 8.48 3 9.94 6.2 4.5 9.88-19.45 21.68-62.13 30.6-11.75 2.47-17.64 3.13-30.56 3.44-9.03.23-17.4-.03-19.23-.6z"/><path fill="#bebebe" d="M56.5 444.4c-21.25-4.65-39.66-18.9-49.1-38-7.94-16.12-7.47-3.77-7.17-186.3L.5 57.35l2.75-8.13C10.7 27.2 30.13 9.26 53.7 2.6 61.5.4 61.54.37 174 .06c75.9-.2 115.14.04 120.64.76 33.82 4.44 59.1 29.1 63.43 61.83.66 5 .9 62.7.7 165.7-.34 177.32.37 161.42-7.92 178.5-3.4 6.97-5.77 10.12-13.27 17.58-10.42 10.37-20.16 15.93-34 19.42-7.68 1.94-11.2 2-124.5 1.9-92.1-.05-117.85-.34-122.6-1.37zm248-5.4c20.2-6.77 34.16-18.43 42.55-35.5 7.47-15.22 7.04-3.4 6.72-183.65l-.28-161.5-2.7-7.33c-3.85-10.58-8.35-17.64-16.32-25.63-8.15-8.18-16.73-13.5-28-17.32l-8-2.73-115.5-.3c-81.3-.2-117.4.05-122 .83-25.66 4.4-47.9 24.7-54.73 49.97C4.6 61.92 4.5 73.02 4.5 223.35c0 181.4-.7 165.58 7.8 182 4.82 9.32 15.88 21.02 24.88 26.32 6.6 3.9 17.32 7.78 24.93 9.07 3.06.5 55.37.84 120.4.76l115-.15 7-2.35zm-101.52-43.58C190.16 392.6 173.2 387 165.26 383l-5.9-3-3.34 2.63c-2.32 1.8-4.35 2.54-6.67 2.4-4.78-.34-8.83 2.15-11.54 7.06-2.74 4.98-5.62 5.85-10.57 3.18-4.33-2.33-6.62-6.32-8.84-15.43-1-4.12-1.92-7.63-2-7.8-.1-.17-2.9.4-6.2 1.25-13.04 3.38-23.24 1.08-27.5-6.2-1.86-3.2-2.73-9.56-1.47-10.8.34-.36 2.93-.15 5.74.46 5.76 1.23 26.03 1.5 26.02.34 0-.4-1.13-6.37-2.5-13.25-2.83-14.34-3.28-24.76-1.1-25.6 2.25-.86 7.2 2.26 8.44 5.3.62 1.54 2.46 9.27 4.1 17.17 1.6 7.9 3.1 14.52 3.3 14.7.43.45 9.76-1.9 21-5.26l8.75-2.62v-7.18c0-3.94-.27-7.43-.6-7.75-.3-.3-2.9.22-5.74 1.2-5.08 1.7-5.18 1.83-5.85 6.54-1.78 12.48-7.22 6.77-12.46-13.1-2.14-8.1-2.63-12.3-2.73-23.22l-.1-13.33 2.83-2.45c2.44-2.1 3.48-2.36 7.53-1.82 6.4.85 14.55-1.3 38.13-10.1 30.5-11.36 36.3-13 41.12-11.56 2.2.66 4.86 2.07 5.93 3.14 3.32 3.33 2.42 5.94-4.16 12.05-7.88 7.3-8.86 10.92-9.6 35.4l-.56 18 15.88.03c15.56.04 16.07.1 26.03 3.58 18.83 6.56 26.84 13.12 26.84 21.97 0 3.8-.62 5.5-3.08 8.58-9.6 12-39.6 27.94-55.93 29.7-3.34.36-8.52-.24-15.52-1.78zm-58.1-21.5c10.02-5.04 11.07-6.15 11.1-11.82 0-1.23-.38-2.25-.86-2.25s-6.58 1.83-13.55 4.06c-11.6 3.7-12.62 4.24-12.02 6.13.76 2.4 4.44 8.82 5.06 8.82.24 0 4.86-2.22 10.28-4.94zm59.3 1.95c8.92-2.33 21.58-7.55 27.57-11.35 8.6-5.46 13.5-16.5 8.07-18.22-2.95-.94-9.55-.74-20.33.6l-9 1.13.3 5.66c.34 6.66-1.7 11.17-6.9 15.28-5.93 4.66-7.4 4.6-12.43-.5l-4.47-4.52-5.25 1.55c-6.6 1.97-10.2 3.8-15.18 7.7-3.88 3.06-3.9 3.1-1.5 3.78 1.33.37 8.98.72 17 .77 11.53.08 16.1-.3 22.1-1.88zm-20.53-17.96c3.17-1.36 5.36-3 5.68-4.23.6-2.3-.08-2.26-15.6 1.33l-8.74 2.02v7.71l6.74-2.3c3.72-1.26 9.07-3.3 11.9-4.52zm-4.6-17.64l10.58-2.8-.44-5.55c-.26-3.05-.6-5.7-.77-5.9-.34-.4-16.6 1.64-20.2 2.52-2.07.5-2.24 1.1-2.24 8.03 0 5.56.3 7.35 1.24 7 .7-.27 6-1.75 11.82-3.3zm-28.7-14.5c3.78-1.04 3.86-1.16 3.27-4.74-.33-2.02-.6-5.33-.62-7.36v-3.7l-4.5 1.55-4.5 1.54v6.9c0 7.58 0 7.6 6.36 5.83zm31.27-8.6l7.12-.58.63-6.03c.34-3.3.4-6.24.15-6.5-.26-.26-5.08-.07-10.7.4l-10.25.9-.67 3.5c-.37 1.93-.95 5.4-1.3 7.7l-.62 4.22 4.26-1.53c2.34-.84 7.46-1.78 11.38-2.1zM148.3 304.8l4.2-1.05-.34-5.82-.33-5.8-4.67.5c-2.57.26-4.78.58-4.92.7-.4.32 1 12.52 1.45 12.52.22 0 2.3-.47 4.6-1.05zm28.5-8c3.32-.64 7.86-1 10.1-.78 3.86.36 4.1.23 4.1-2.27 0-1.45.26-4 .6-5.62l.58-2.98-12.84 2.44c-7.07 1.33-12.93 2.5-13.02 2.6-.1.1.34 2.1.96 4.44.68 2.56 1.6 4.08 2.33 3.8.66-.24 3.9-.98 7.2-1.63zm-69.77-15.12c-12.12-1.73-18.06-5.93-18.4-13-.13-3.03.13-3.3 3.86-3.98 2.2-.4 13.9-.76 26-.8 12.1-.03 25.74-.35 30.33-.7l8.33-.66-.65-3.6c-.43-2.42-1.83-4.6-4.32-6.73l-3.68-3.14 9.04-9.35c4.97-5.14 10.53-11.96 12.35-15.15l3.3-5.8 2.37 3.2c5.7 7.75 5.3 14.52-1.42 23.5-2.96 3.97-3.6 5.62-3.35 8.65.17 2.07.72 3.75 1.22 3.75s3.33-.9 6.3-2.02c5.2-1.94 5.52-2.3 8.74-9.25 2.77-6 3.35-8.44 3.4-14.34.03-6.28-.4-7.97-3.62-14.26l-3.66-7.13 5.16-4.38c2.83-2.4 7.53-5.82 10.43-7.6 5.16-3.15 5.32-3.18 8-1.5 15.52 9.86 15.17 20.96-1.34 42.1-3.6 4.6-6.3 8.38-6 8.38.3 0 9-3.1 19.3-6.88 30.67-11.24 37.54-12.7 45.03-9.57 8.15 3.4 10.4 8.54 5.66 12.93-5 4.64-12.27 6.1-42.08 8.44-14.9 1.17-21.13 3.15-53.35 16.94-12.93 5.54-26.2 10.76-29.47 11.6-6.66 1.74-26.64 1.93-37.5.38zm-5.92-109.9c-16.64-2.93-23.88-11.53-15.7-18.7 4.85-4.27 11.86-5.7 22.5-4.62 24.13 2.45 39.22-.62 78.84-16.04 16.96-6.6 26.35-8.7 41.62-9.3 15.24-.58 21.7.35 30.26 4.36 9.68 4.54 18.38 14.3 18.37 20.58-.02 3.87-3.77 8.78-8.28 10.83-6.6 2.98-13.4 2.5-29.23-2.12-24.68-7.18-37.9-6.4-78.78 4.67-38.44 10.4-48.86 12.22-59.6 10.33zm27.32-39.92c-7.76-1.14-9.43-2.38-9.43-7.02 0-5.28 2.62-6.56 17.5-8.5 14.88-1.96 37.97-6.76 48.1-10 4.34-1.4 13.34-5.23 20-8.5 6.66-3.3 12.83-6 13.73-6 2.93 0 9.7 3.2 10.7 5.07.53 1 .96 3.15.96 4.78 0 8.43-24.16 19.2-59.75 26.6-10.22 2.14-32.15 4.86-35.76 4.44-.56-.06-3.3-.45-6.08-.86zm-.15-33.06c-5.8-1.8-6.84-8.22-1.84-11.5 1.4-.92 9.25-2.57 18.74-3.93 32.03-4.63 49.43-9.36 68.8-18.7 10.45-5.06 13.06-5.94 16.27-5.5 4.68.62 8.48 3 9.94 6.2 4.5 9.88-19.45 21.68-62.13 30.6-11.75 2.47-17.64 3.13-30.56 3.44-9.03.23-17.4-.03-19.23-.6z"/><path fill="#c38c8f" d="M55 443.82c-20.9-5.43-38.76-19.77-47.92-38.47-7.54-15.38-7.1-3.77-7.07-182.2C.04 46.9-.3 56.26 6.36 42.4 17.43 19.25 38.38 4.24 64.35.83c5.5-.72 44.6-.97 120.14-.76 111.94.3 112 .32 119.78 2.52 13.37 3.77 23.02 9.5 33.3 19.7 7.4 7.38 9.85 10.63 13.24 17.55 8.33 17 7.67 1.37 7.67 183.5 0 153.7-.1 162.34-1.83 168.5-6.93 24.72-24.83 42.96-50.68 51.65-5.22 1.75-11.73 1.85-124.5 2.06-115.1.2-119.25.14-126.5-1.74zm241-3.03c15.43-2.5 27.55-8.63 38.44-19.45 7.96-7.9 12.47-14.96 16.37-25.66l2.7-7.35.27-162c.32-181.43.78-169.15-6.97-184.63C337.68 23.5 318.46 9.38 298 5.88c-4.58-.78-40.83-1.02-122.5-.82l-116 .3-8 2.72C29 15.73 12.56 32.76 6.32 54.85c-1.75 6.2-1.84 14.36-1.84 169v162.5l2.7 8c2.9 8.57 7.84 17.48 12.92 23.36 9.86 11.43 26.25 20.53 41.64 23.12 7.4 1.25 226.5 1.22 234.23-.03zm-93.02-45.38C190.16 392.6 173.2 387 165.26 383l-5.9-3-3.34 2.63c-2.32 1.8-4.35 2.54-6.67 2.4-4.78-.34-8.83 2.15-11.54 7.06-2.74 4.98-5.62 5.85-10.57 3.18-4.33-2.33-6.62-6.32-8.84-15.43-1-4.12-1.92-7.63-2-7.8-.1-.17-2.9.4-6.2 1.25-13.04 3.38-23.24 1.08-27.5-6.2-1.86-3.2-2.73-9.56-1.47-10.8.34-.36 2.93-.15 5.74.46 5.76 1.23 26.03 1.5 26.02.34 0-.4-1.13-6.37-2.5-13.25-2.83-14.34-3.28-24.76-1.1-25.6 2.25-.86 7.2 2.26 8.44 5.3.62 1.54 2.46 9.27 4.1 17.17 1.6 7.9 3.1 14.52 3.3 14.7.43.45 9.76-1.9 21-5.26l8.75-2.62v-7.18c0-3.94-.27-7.43-.6-7.75-.3-.3-2.9.22-5.74 1.2-5.08 1.7-5.18 1.83-5.85 6.54-1.78 12.48-7.22 6.77-12.46-13.1-2.14-8.1-2.63-12.3-2.73-23.22l-.1-13.33 2.83-2.45c2.44-2.1 3.48-2.36 7.53-1.82 6.4.85 14.55-1.3 38.13-10.1 30.5-11.36 36.3-13 41.12-11.56 2.2.66 4.86 2.07 5.93 3.14 3.32 3.33 2.42 5.94-4.16 12.05-7.88 7.3-8.86 10.92-9.6 35.4l-.56 18 15.88.03c15.56.04 16.07.1 26.03 3.58 18.83 6.56 26.84 13.12 26.84 21.97 0 3.8-.62 5.5-3.08 8.58-9.6 12-39.6 27.94-55.93 29.7-3.34.36-8.52-.24-15.52-1.78zm-58.1-21.5c10.02-5.04 11.07-6.15 11.1-11.82 0-1.23-.38-2.25-.86-2.25s-6.58 1.83-13.55 4.06c-11.6 3.7-12.62 4.24-12.02 6.13.76 2.4 4.44 8.82 5.06 8.82.24 0 4.86-2.22 10.28-4.94zm59.3 1.95c8.92-2.33 21.58-7.55 27.57-11.35 8.6-5.46 13.5-16.5 8.07-18.22-2.95-.94-9.55-.74-20.33.6l-9 1.13.3 5.66c.34 6.66-1.7 11.17-6.9 15.28-5.93 4.66-7.4 4.6-12.43-.5l-4.47-4.52-5.25 1.55c-6.6 1.97-10.2 3.8-15.18 7.7-3.88 3.06-3.9 3.1-1.5 3.78 1.33.37 8.98.72 17 .77 11.53.08 16.1-.3 22.1-1.88zm-20.53-17.96c3.17-1.36 5.36-3 5.68-4.23.6-2.3-.08-2.26-15.6 1.33l-8.74 2.02v7.71l6.74-2.3c3.72-1.26 9.07-3.3 11.9-4.52zm-4.6-17.64l10.58-2.8-.44-5.55c-.26-3.05-.6-5.7-.77-5.9-.34-.4-16.6 1.64-20.2 2.52-2.07.5-2.24 1.1-2.24 8.03 0 5.56.3 7.35 1.24 7 .7-.27 6-1.75 11.82-3.3zm-28.7-14.5c3.78-1.04 3.86-1.16 3.27-4.74-.33-2.02-.6-5.33-.62-7.36v-3.7l-4.5 1.55-4.5 1.54v6.9c0 7.58 0 7.6 6.36 5.83zm31.27-8.6l7.12-.58.63-6.03c.34-3.3.4-6.24.15-6.5-.26-.26-5.08-.07-10.7.4l-10.25.9-.67 3.5c-.37 1.93-.95 5.4-1.3 7.7l-.62 4.22 4.26-1.53c2.34-.84 7.46-1.78 11.38-2.1zM148.3 304.8l4.2-1.05-.34-5.82-.33-5.8-4.67.5c-2.57.26-4.78.58-4.92.7-.4.32 1 12.52 1.45 12.52.22 0 2.3-.47 4.6-1.05zm28.5-8c3.32-.64 7.86-1 10.1-.78 3.86.36 4.1.23 4.1-2.27 0-1.45.26-4 .6-5.62l.58-2.98-12.84 2.44c-7.07 1.33-12.93 2.5-13.02 2.6-.1.1.34 2.1.96 4.44.68 2.56 1.6 4.08 2.33 3.8.66-.24 3.9-.98 7.2-1.63zm-69.77-15.12c-12.12-1.73-18.06-5.93-18.4-13-.13-3.03.13-3.3 3.86-3.98 2.2-.4 13.9-.76 26-.8 12.1-.03 25.74-.35 30.33-.7l8.33-.66-.65-3.6c-.43-2.42-1.83-4.6-4.32-6.73l-3.68-3.14 9.04-9.35c4.97-5.14 10.53-11.96 12.35-15.15l3.3-5.8 2.37 3.2c5.7 7.75 5.3 14.52-1.42 23.5-2.96 3.97-3.6 5.62-3.35 8.65.17 2.07.72 3.75 1.22 3.75s3.33-.9 6.3-2.02c5.2-1.94 5.52-2.3 8.74-9.25 2.77-6 3.35-8.44 3.4-14.34.03-6.28-.4-7.97-3.62-14.26l-3.66-7.13 5.16-4.38c2.83-2.4 7.53-5.82 10.43-7.6 5.16-3.15 5.32-3.18 8-1.5 15.52 9.86 15.17 20.96-1.34 42.1-3.6 4.6-6.3 8.38-6 8.38.3 0 9-3.1 19.3-6.88 30.67-11.24 37.54-12.7 45.03-9.57 8.15 3.4 10.4 8.54 5.66 12.93-5 4.64-12.27 6.1-42.08 8.44-14.9 1.17-21.13 3.15-53.35 16.94-12.93 5.54-26.2 10.76-29.47 11.6-6.66 1.74-26.64 1.93-37.5.38zM101 171.78c-7.12-1.2-16.04-5.74-17.95-9.13-2-3.58-.56-7.54 3.86-10.52 5.53-3.72 10.55-4.6 20.6-3.64 24.54 2.35 41.66-.84 73.53-13.73 20.78-8.4 31.44-11 47.47-11.65 8.02-.3 15.13-.07 18.56.64 16.43 3.4 31.47 16.8 29.4 26.18-.33 1.6-1.93 4.13-3.54 5.64-6.44 6.08-15.03 6.72-29.55 2.2-26.33-8.18-38.36-7.9-75.38 1.68-51.6 13.37-55.94 14.17-67 12.3zm27.72-39.93c-7-.9-9.95-3.17-9.52-7.35.47-4.7 4.03-6.56 14.82-7.73 14.06-1.52 39.07-6.7 50.7-10.5 5.64-1.82 15.28-5.86 21.43-8.95 12.5-6.28 15.24-6.53 20.8-1.84 4.3 3.6 4.13 7.6-.5 11.98-13.44 12.68-73.06 27.55-97.73 24.4zm-.23-33.38c-4.2-1.84-5.85-4.1-5.1-7.1 1-4 4.73-5.6 16.8-7.15 16.78-2.16 44.08-7.83 54.83-11.4 5.2-1.73 14.36-5.58 20.34-8.56 6-2.97 11.74-5.4 12.8-5.4 5.12 0 12.82 5.5 12.82 9.15 0 3.03-5.68 8.43-12.75 12.13-12.4 6.5-36.88 13.64-60.7 17.72-13.78 2.35-34.33 2.68-39.06.62z"/><path fill="#7b7b7b" d="M55 443.82c-20.9-5.43-38.76-19.77-47.92-38.47-7.54-15.38-7.1-3.77-7.07-182.2C.04 46.9-.3 56.26 6.36 42.4 17.43 19.25 38.38 4.24 64.35.83c5.5-.72 44.6-.97 120.14-.76 111.94.3 112 .32 119.78 2.52 13.37 3.77 23.02 9.5 33.3 19.7 7.4 7.38 9.85 10.63 13.24 17.55 8.33 17 7.67 1.37 7.67 183.5 0 153.7-.1 162.34-1.83 168.5-6.93 24.72-24.83 42.96-50.68 51.65-5.22 1.75-11.73 1.85-124.5 2.06-115.1.2-119.25.14-126.5-1.74zm241-3.03c15.43-2.5 27.55-8.63 38.44-19.45 7.96-7.9 12.47-14.96 16.37-25.66l2.7-7.35.27-162c.32-181.43.78-169.15-6.97-184.63C337.68 23.5 318.46 9.38 298 5.88c-4.58-.78-40.83-1.02-122.5-.82l-116 .3-8 2.72C29 15.73 12.56 32.76 6.32 54.85c-1.75 6.2-1.84 14.36-1.84 169v162.5l2.7 8c2.9 8.57 7.84 17.48 12.92 23.36 9.86 11.43 26.25 20.53 41.64 23.12 7.4 1.25 226.5 1.22 234.23-.03zm-167-44.63c-2.32-.88-6.06-4.55-7.46-7.32-.7-1.37-2.05-5.76-3-9.75-.98-3.98-2.05-7.25-2.4-7.25-.36 0-4.02.72-8.15 1.6-16.65 3.5-27-1.92-27-14.17 0-2.75.34-3.5 1.43-3.1 3.8 1.47 18.73 2.76 24.82 2.15 5.7-.57 6.73-.96 6.3-2.33-1.5-4.8-4.7-22.56-5.15-28.65-.64-8.54.07-9.92 4.32-8.44 3.96 1.4 4.96 3.87 8.82 21.95l3.1 14.5 3.43-.26c4.4-.35 24.37-6.12 26.48-7.67 1.34-.98 1.5-2.36.9-8.45-.72-7.18-.76-7.27-3.3-6.63-7 1.76-9.02 3.26-9.68 7.18-.97 5.7-1.52 7.32-2.47 7.32-5.32 0-12-24.32-12.14-44.3-.12-14.88.4-15.67 10.03-15.58 8.47.08 14.85-1.6 35.7-9.45 28.82-10.85 35.93-12.97 41.7-12.4 3.9.36 5.6 1.1 7.38 3.16 1.27 1.48 2.3 3.4 2.3 4.3 0 .9-2.92 4.36-6.5 7.7-6.34 5.9-6.55 6.28-8 13.57-.8 4.13-1.76 14.74-2.13 23.6l-.66 16.08 14.9-.08c16.95-.1 24.4 1.5 38.88 8.3 12.87 6.02 17.6 12.45 15.35 20.85-3.33 12.4-42.04 34.25-60.68 34.25-9.73 0-40.33-8.5-52.18-14.5l-4.62-2.35-2.93 2.4c-2.14 1.74-4.2 2.4-7.62 2.42-5.4.04-8.8 2.4-11.58 8.03-1.73 3.5-4.65 4.68-8.23 3.32zm17.12-22.57l9.86-5.25v-4.72c0-3.33-.35-4.6-1.24-4.3-.68.25-6.98 2.28-14 4.53l-12.74 4.1 1.64 3.2c2.65 5.13 4.5 7.7 5.6 7.7.55 0 5.45-2.37 10.88-5.26zm59.5 2.25c10.16-2.8 24.86-9.73 29.7-13.98 5.2-4.56 8.2-10.56 6.8-13.6-1.43-3.17-5.94-3.82-17.26-2.5-15.65 1.85-14.52 1.2-14.44 8.37.08 7.2-2.6 12.64-7.82 15.8-5.02 3.07-7.95 2.5-11.97-2.33l-3.52-4.24-6.96 2.37c-4.27 1.46-9.2 4.16-12.8 7l-5.85 4.62 9 .63c14.35 1 26.46.27 35.12-2.13zm-29.52-14.68c10.14-3.64 13.9-6 13.9-8.7 0-1.15-2.1-.96-11.26 1-6.18 1.33-11.76 2.6-12.38 2.82-1.23.44-2.38 8.55-1.22 8.55.4 0 5.32-1.66 10.96-3.68zm2.22-20.5l11.82-3.22-.68-6.05c-.38-3.33-.75-6.1-.83-6.2-.26-.26-20.04 2.65-21.84 3.22-1.53.48-1.8 1.73-1.8 8 0 4.1.33 7.44.74 7.45.42 0 6.07-1.43 12.58-3.2zM153.5 318.1c0-3.9-.27-7.35-.6-7.67-.67-.67-6.8 1.23-8.66 2.7-1.23.96-1.83 12.8-.7 13.94.3.3 2.67 0 5.25-.66l4.7-1.2v-7.1zm22.5.1c3.57-.83 7.9-1.3 9.63-1 2.86.45 3.2.2 3.75-2.55.34-1.68.6-4.96.6-7.3v-4.25l-4.24.36c-2.33.2-7.24.62-10.9.94l-6.67.6-1.1 6.26c-1.52 8.8-1.43 9.95.67 9.13.97-.38 4.68-1.37 8.25-2.2zm-27.26-13.28l4.25-1.14v-12.2l-5.14.6c-2.83.34-5.36.83-5.62 1.1-.74.73.82 13.65 1.58 13.18.37-.22 2.6-.92 4.92-1.54zm33.42-7.74c9.63-.63 9.8-.77 9.82-8.7 0-3.48-.2-3.8-2.24-3.3-1.23.3-6.3 1.27-11.25 2.14-14.92 2.64-13.52 1.8-11.64 7.1 1.47 4.1 1.88 4.5 4.13 3.94 1.37-.34 6.4-.88 11.16-1.18zm-70.53-15.42C95 280 88.57 276.32 89.2 268.9l.3-3.55 31.65-.73c17.4-.4 32.8-1.18 34.2-1.7 2.3-.9 2.45-1.26 1.6-4.27-.53-1.8-2.65-4.73-4.7-6.48l-3.76-3.2 8.65-8.8c4.76-4.85 10.3-11.43 12.32-14.63 3.2-5.06 3.87-5.64 5.25-4.5 2.37 1.96 4.27 7.23 4.27 11.82 0 4.45-2.44 9.98-6.55 14.86-2.24 2.66-2.53 3.72-1.97 7.07l.67 3.94 6.17-2.2c6-2.12 6.27-2.38 9.53-8.88 5.8-11.53 5.28-23.82-1.38-32.84l-2.47-3.35 2.16-2.3c3.54-3.76 16.5-12.32 18.67-12.32 2.87 0 10.13 5.9 12.3 10 4.23 7.92.62 18.35-11.72 33.9-3.72 4.7-5.83 8.08-4.78 7.65 11.33-4.58 40.87-14.8 48.12-16.65l9.24-2.36 5.67 1.97c10.95 3.83 12.16 11.17 2.5 15.3-6.3 2.72-13.88 3.94-31.66 5.1-19.22 1.25-25.52 3.08-57.24 16.67-13.62 5.84-28.1 11.47-32.18 12.52-7.9 2.02-18.4 2.28-32.45.8zm-10.64-110c-7.12-1.18-16.04-5.72-17.95-9.1-2-3.6-.56-7.55 3.86-10.53 5.53-3.72 10.55-4.6 20.6-3.64 24.54 2.35 41.66-.84 73.53-13.73 20.78-8.4 31.44-11 47.47-11.65 8.02-.3 15.13-.07 18.56.64 16.43 3.4 31.47 16.8 29.4 26.18-.33 1.6-1.93 4.13-3.54 5.64-6.44 6.08-15.03 6.72-29.55 2.2-26.33-8.18-38.36-7.9-75.38 1.68-51.6 13.37-55.94 14.17-67 12.3zm27.7-39.9c-6.97-.9-9.93-3.18-9.5-7.36.47-4.7 4.03-6.56 14.82-7.73 14.06-1.52 39.07-6.7 50.7-10.5 5.64-1.82 15.28-5.86 21.43-8.95 12.5-6.28 15.24-6.53 20.8-1.84 4.3 3.6 4.13 7.6-.5 11.98C213 120.14 153.4 135 128.7 131.86zm-.2-33.4c-4.2-1.83-5.85-4.1-5.1-7.08 1-4.02 4.73-5.6 16.8-7.16 16.78-2.16 44.08-7.83 54.83-11.4 5.2-1.73 14.36-5.58 20.34-8.56 6-2.97 11.74-5.4 12.8-5.4 5.12 0 12.82 5.5 12.82 9.15 0 3.03-5.68 8.43-12.75 12.13-12.4 6.5-36.88 13.64-60.7 17.72-13.78 2.35-34.33 2.68-39.06.62z"/><path fill="#a55357" d="M59.5 444.4c-14.94-2.8-29.2-10.32-39.25-20.65-8.84-9.1-14.45-19.05-17.97-31.9-1.68-6.1-1.8-16.16-1.8-169C.5 68.87.6 60 2.32 53.85 9.18 29.3 26.67 11.65 52.03 3.7l7.47-2.35h241l8.75 3.14c11.15 3.98 18.4 8.3 26.58 15.85 8.28 7.65 15.4 18.5 18.9 28.87l2.76 8.13.26 162.75c.3 181.2.7 170.06-6.6 185.25-8.8 18.38-25 31.6-46.67 38.13-5.62 1.7-13.4 1.82-122 2-92.17.18-117.44-.05-123-1.1zm242.87-4.52c24.02-6.14 43.55-25.18 50.3-49.03 1.73-6.18 1.82-14.3 1.82-167.5 0-180.2.57-165.77-7.23-181.5-2.83-5.7-5.88-9.66-12.75-16.53-9.97-9.97-17.7-14.7-30.54-18.63l-7.5-2.3L185 4.08c-76.7-.22-114.08.02-119.8.77C48.72 7 34.87 13.82 23.5 25.32c-7.98 8.1-12.48 15.15-16.33 25.7L4.5 58.35 4.22 220.3C3.96 379.05 4 382.44 5.93 390.14c6.16 24.3 25.22 43.2 50.06 49.66 7.2 1.87 11.85 1.95 123.08 2 111.8.05 115.85 0 123.3-1.92zM129 396.18c-2.32-.9-6.06-4.56-7.46-7.33-.7-1.37-2.05-5.76-3-9.75-.98-3.98-2.05-7.25-2.4-7.25-.36 0-4.02.72-8.15 1.6-16.65 3.5-27-1.92-27-14.17 0-2.75.34-3.5 1.43-3.1 3.8 1.47 18.73 2.76 24.82 2.15 5.7-.57 6.73-.96 6.3-2.33-1.5-4.8-4.7-22.56-5.15-28.65-.64-8.54.07-9.92 4.32-8.44 3.96 1.4 4.96 3.87 8.82 21.95l3.1 14.5 3.43-.26c4.4-.35 24.37-6.12 26.48-7.67 1.34-.98 1.5-2.36.9-8.45-.72-7.18-.76-7.27-3.3-6.63-7 1.76-9.02 3.26-9.68 7.18-.97 5.7-1.52 7.32-2.47 7.32-5.32 0-12-24.32-12.14-44.3-.12-14.88.4-15.67 10.03-15.58 8.47.08 14.85-1.6 35.7-9.45 28.82-10.85 35.93-12.97 41.7-12.4 3.9.36 5.6 1.1 7.38 3.16 1.27 1.48 2.3 3.4 2.3 4.3 0 .9-2.92 4.36-6.5 7.7-6.34 5.9-6.55 6.28-8 13.57-.8 4.13-1.76 14.74-2.13 23.6l-.66 16.08 14.9-.08c16.95-.1 24.4 1.5 38.88 8.3 12.87 6.02 17.6 12.45 15.35 20.85-3.33 12.4-42.04 34.25-60.68 34.25-9.73 0-40.33-8.5-52.18-14.5l-4.62-2.35-2.93 2.4c-2.14 1.74-4.2 2.4-7.62 2.42-5.4.04-8.8 2.4-11.58 8.03-1.73 3.5-4.65 4.68-8.23 3.32zm17.12-22.58l9.86-5.25v-4.72c0-3.33-.35-4.6-1.24-4.3-.68.25-6.98 2.28-14 4.53l-12.74 4.1 1.64 3.2c2.65 5.13 4.5 7.7 5.6 7.7.55 0 5.45-2.37 10.88-5.26zm59.5 2.25c10.16-2.8 24.86-9.73 29.7-13.98 5.2-4.56 8.2-10.56 6.8-13.6-1.43-3.17-5.94-3.82-17.26-2.5-15.65 1.85-14.52 1.2-14.44 8.37.08 7.2-2.6 12.64-7.82 15.8-5.02 3.07-7.95 2.5-11.97-2.33l-3.52-4.24-6.96 2.37c-4.27 1.46-9.2 4.16-12.8 7l-5.85 4.62 9 .63c14.35 1 26.46.27 35.12-2.13zm-29.52-14.68c10.14-3.64 13.9-6 13.9-8.7 0-1.15-2.1-.96-11.26 1-6.18 1.33-11.76 2.6-12.38 2.82-1.23.44-2.38 8.55-1.22 8.55.4 0 5.32-1.66 10.96-3.68zm2.22-20.5l11.82-3.22-.68-6.05c-.38-3.33-.75-6.1-.83-6.2-.26-.26-20.04 2.65-21.84 3.22-1.53.48-1.8 1.73-1.8 8 0 4.1.33 7.44.74 7.45.42 0 6.07-1.43 12.58-3.2zM153.5 318.1c0-3.9-.27-7.35-.6-7.67-.67-.67-6.8 1.23-8.66 2.7-1.23.96-1.83 12.8-.7 13.94.3.3 2.67 0 5.25-.66l4.7-1.2v-7.1zm22.5.1c3.57-.83 7.9-1.3 9.63-1 2.86.45 3.2.2 3.75-2.55.34-1.68.6-4.96.6-7.3v-4.25l-4.24.36c-2.33.2-7.24.62-10.9.94l-6.67.6-1.1 6.26c-1.52 8.8-1.43 9.95.67 9.13.97-.38 4.68-1.37 8.25-2.2zm-27.26-13.28l4.25-1.14v-12.2l-5.14.6c-2.83.34-5.36.83-5.62 1.1-.74.73.82 13.65 1.58 13.18.37-.22 2.6-.92 4.92-1.54zm33.42-7.74c9.63-.63 9.8-.77 9.82-8.7 0-3.48-.2-3.8-2.24-3.3-1.23.3-6.3 1.27-11.25 2.14-14.92 2.64-13.52 1.8-11.64 7.1 1.47 4.1 1.88 4.5 4.13 3.94 1.37-.34 6.4-.88 11.16-1.18zm-70.53-15.42C95 280 88.57 276.32 89.2 268.9l.3-3.55 31.65-.73c17.4-.4 32.8-1.18 34.2-1.7 2.3-.9 2.45-1.26 1.6-4.27-.53-1.8-2.65-4.73-4.7-6.48l-3.76-3.2 8.65-8.8c4.76-4.85 10.3-11.43 12.32-14.63 3.2-5.06 3.87-5.64 5.25-4.5 2.37 1.96 4.27 7.23 4.27 11.82 0 4.45-2.44 9.98-6.55 14.86-2.24 2.66-2.53 3.72-1.97 7.07l.67 3.94 6.17-2.2c6-2.12 6.27-2.38 9.53-8.88 5.8-11.53 5.28-23.82-1.38-32.84l-2.47-3.35 2.16-2.3c3.54-3.76 16.5-12.32 18.67-12.32 2.87 0 10.13 5.9 12.3 10 4.23 7.92.62 18.35-11.72 33.9-3.72 4.7-5.83 8.08-4.78 7.65 11.33-4.58 40.87-14.8 48.12-16.65l9.24-2.36 5.67 1.97c10.95 3.83 12.16 11.17 2.5 15.3-6.3 2.72-13.88 3.94-31.66 5.1-19.22 1.25-25.52 3.08-57.24 16.67-13.62 5.84-28.1 11.47-32.18 12.52-7.9 2.02-18.4 2.28-32.45.8zm-13.9-111c-5.94-1.4-13.7-5.76-14.9-8.37-2.62-5.75 1.77-10.46 12.22-13.14 5.38-1.38 7.37-1.43 14.23-.36 18.5 2.88 38.76-.9 69.37-12.9 25.45-10 36.22-12.54 53.34-12.6 11.23-.04 14.67.32 20.53 2.17 17.35 5.46 28.2 20 21.38 28.67-5.7 7.23-15.14 7.88-33.9 2.33-6.88-2.04-15.95-4.17-20.16-4.75-12.78-1.75-30.47 1.16-65.35 10.75-33.05 9.08-45.43 10.87-56.76 8.2zm26.36-40.14c-4.2-1.56-5.6-3.66-4.74-7.08.95-3.8 3.28-4.65 18.5-6.83 30.37-4.35 51.25-10.16 68.03-18.93 10.75-5.63 14.92-6.18 20.2-2.63 4.9 3.28 5.18 7.7.76 11.84-7.9 7.38-29.88 15.35-58.87 21.34-15.04 3.1-38.45 4.34-43.9 2.3zm6.47-31.8c-5.3-1.36-6.58-2.62-6.58-6.56 0-4.53 3.46-6.23 15.3-7.53 13.6-1.48 43.5-7.55 54-10.96 5.06-1.63 14.7-5.67 21.46-8.96 11.94-5.8 12.38-5.94 16.67-4.86 6.22 1.57 8.75 4.2 8.37 8.72-.26 3.02-1.13 4.25-5.24 7.34-9.43 7.12-36.45 15.98-63.57 20.85-13.23 2.37-34.68 3.4-40.43 1.96z"/><path fill="#871a1f" d="M59.5 444.4c-14.94-2.8-29.2-10.32-39.25-20.65-8.84-9.1-14.45-19.05-17.97-31.9-1.68-6.1-1.8-16.16-1.8-169C.5 68.87.6 60 2.32 53.85 9.18 29.3 26.67 11.65 52.03 3.7l7.47-2.35h241l8.75 3.14c11.15 3.98 18.4 8.3 26.58 15.85 8.28 7.65 15.4 18.5 18.9 28.87l2.76 8.13.26 162.75c.3 181.2.7 170.06-6.6 185.25-8.8 18.38-25 31.6-46.67 38.13-5.62 1.7-13.4 1.82-122 2-92.17.18-117.44-.05-123-1.1zm242.87-4.52c24.02-6.14 43.55-25.18 50.3-49.03 1.73-6.18 1.82-14.3 1.82-167.5 0-180.2.57-165.77-7.23-181.5-2.83-5.7-5.88-9.66-12.75-16.53-9.97-9.97-17.7-14.7-30.54-18.63l-7.5-2.3L185 4.08c-76.7-.22-114.08.02-119.8.77C48.72 7 34.87 13.82 23.5 25.32c-7.98 8.1-12.48 15.15-16.33 25.7L4.5 58.35 4.22 220.3C3.96 379.05 4 382.44 5.93 390.14c6.16 24.3 25.22 43.2 50.06 49.66 7.2 1.87 11.85 1.95 123.08 2 111.8.05 115.85 0 123.3-1.92zm-174.3-44.78c-4.83-2.46-6.76-5.58-9.07-14.67-1.1-4.35-2.2-8.12-2.46-8.36-.24-.25-4.4.35-9.25 1.33-5.2 1.05-10.23 1.5-12.3 1.1-7.95-1.5-14-7.9-14-14.8v-3.63l4.24 1.02c4.36 1.03 27.18 1.65 28.1.75.26-.27-.6-5.88-1.94-12.46-2.86-14.06-3.88-24.5-2.6-26.4 1.43-2.07 7.06 1.28 8.66 5.17.72 1.75 2.52 9.26 4 16.68 1.48 7.43 3.07 13.9 3.55 14.4.94.95 9.35-.92 22.85-5.1l8.35-2.6-.7-7.6c-.4-4.18-.9-7.8-1.14-8.04-.23-.24-2.88.4-5.88 1.4-5.43 1.86-5.46 1.9-6.1 6.7-2.55 19.24-14.44-11.24-14.58-37.38-.08-14.6.6-15.63 10.42-15.64 9.35-.02 13.3-1.13 43.32-12.16 26.68-9.8 33.08-11.25 38.24-8.58 6.8 3.5 6.2 7.93-1.9 14.1-4 3.04-5.17 4.7-6.4 8.9-1.86 6.42-3.43 22.08-3.46 34.7l-.03 9.6 15.24-.03c14.04-.03 15.93.2 23.75 2.75 12.95 4.24 22.24 9.03 26.35 13.57 3.13 3.47 3.64 4.72 3.64 8.86 0 3.7-.65 5.67-2.76 8.5-9 12.03-43.56 29.7-58.05 29.66-9.77 0-35.22-7.06-49.4-13.67l-7.7-3.58-3.13 2.62c-2.28 1.92-4.26 2.63-7.3 2.64-5.53 0-10.3 2.96-11.16 6.93-.6 2.75-2.97 5.06-5.2 5.05-.44 0-2.35-.8-4.24-1.75zM146 373.84l10-5v-9.88l-4.76 1.43c-20.47 6.13-22.75 7.05-22.42 9 .42 2.6 4.94 9.45 6.2 9.45.56 0 5.5-2.25 11-5zm61.5 1.52c19.1-5.54 32.06-14 34.63-22.58 1.18-3.93 1.12-4.3-1.05-6.06-2.65-2.15-6.22-2.3-18.18-.82-13.78 1.7-13.24 1.46-12.53 5.9 1 6.25-.32 10-5.35 15.22-6.15 6.38-9.48 6.57-14.03.83-3.78-4.76-5.28-4.9-13.8-1.2-5.9 2.54-15.08 8.84-15.17 10.4-.05.96 14.06 1.6 26.46 1.22 7.06-.2 12.64-1.07 19-2.9zm-31.78-13.9c11.02-4 14.27-5.98 14.27-8.65 0-1.54-.5-1.87-2.26-1.5-15.76 3.5-21.35 4.88-21.87 5.4-1.3 1.36-1.77 8.15-.56 8.14.66 0 5.35-1.53 10.42-3.37zm14.04-24.04c.25-.24.13-3.12-.25-6.4l-.68-5.95-4.16.53c-2.3.3-7.54 1.03-11.67 1.64l-7.5 1.1-.3 8.1-.28 8.1 12.2-3.34c6.7-1.84 12.4-3.54 12.64-3.78zm-39.52-11.12l3.75-.67-.02-6.64c-.02-9.15-.6-9.84-6.37-7.64l-4.6 1.77v7.43c0 6.6.2 7.37 1.74 6.9.97-.27 3.44-.8 5.5-1.16zm25.75-8.1c3.57-.83 7.9-1.3 9.65-1 3.7.58 4.3-.7 4.33-8.97v-5.13l-4.24.36c-17.83 1.5-17.54 1.43-18.12 3.75-.3 1.24-.87 4.88-1.25 8.1-.65 5.52-.57 5.84 1.22 5.15 1.04-.4 4.82-1.42 8.4-2.25zm-23.2-20.16c.32-6.9.27-6.92-7.86-5.58l-3.56.6.73 5.14c.42 2.84.78 5.9.82 6.8.07 1.46.6 1.5 4.82.44l4.75-1.2.3-6.2zm29.36-.86c7.75-.5 8.72-.8 9.23-2.7.87-3.27.7-9.63-.27-9.63-.73 0-17.2 3.14-23.75 4.53-2.06.43-2.08.57-.6 5.05 1.38 4.22 1.72 4.55 4.1 3.95 1.44-.35 6.5-.9 11.28-1.2zm-70.37-15.34c-11.4-1.3-15.8-2.77-19.56-6.54-2.7-2.7-3.32-4.03-3.06-6.66l.3-3.3 30-.66c34.54-.78 38.83-1.2 38.1-3.64-.27-.93-.76-2.82-1.1-4.2-.32-1.38-2.14-3.58-4.05-4.9l-3.46-2.36 8.3-8.6c4.56-4.75 10.03-11.43 12.14-14.86 2.12-3.42 4.25-5.98 4.74-5.68.48.3 1.83 2.4 2.98 4.66 3.58 7.02 2.24 12.52-5.7 23.46-1.18 1.6-1.43 3.3-.95 6.14l.66 3.93 6.36-2.07c5.98-1.95 6.5-2.36 8.8-7.14 4.05-8.4 4.97-12.4 4.47-19.46-.46-6.33-3.1-13.42-6.4-17.2-1.2-1.37-.86-2 2.8-5 6.22-5.05 15.14-10.9 16.64-10.9.74 0 3.28 1.33 5.66 2.97 4.6 3.16 8.53 9.73 8.53 14.2 0 6.17-5.82 16.98-15.18 28.2-2.7 3.24-4.72 6.07-4.5 6.3.23.2 7.56-2.27 16.3-5.52 35.2-13.1 42.83-14.65 51.16-10.3 9.5 4.96 7.1 12-5.37 15.57-6.8 1.96-10.64 2.45-28.28 3.58-13.74.9-16.62 1.4-27 4.88-6.4 2.14-19.4 7.3-28.88 11.48-27.76 12.22-32.88 13.8-45.75 14.2-6.06.17-14.47-.08-18.7-.56zM97.73 170.77c-5.95-1.4-13.72-5.77-14.9-8.38-2.63-5.75 1.76-10.46 12.2-13.14 5.4-1.38 7.38-1.43 14.24-.36 18.5 2.88 38.76-.9 69.37-12.9 25.45-10 36.22-12.54 53.34-12.6 11.23-.04 14.67.32 20.53 2.17 17.35 5.46 28.2 20 21.38 28.67-5.7 7.23-15.14 7.88-33.9 2.33-6.88-2.04-15.95-4.17-20.16-4.75-12.78-1.75-30.47 1.16-65.35 10.75-33.05 9.08-45.43 10.87-56.76 8.2zm26.35-40.15c-4.2-1.56-5.6-3.66-4.74-7.08.95-3.8 3.28-4.65 18.5-6.83 30.37-4.35 51.25-10.16 68.03-18.93 10.75-5.63 14.92-6.18 20.2-2.63 4.9 3.28 5.18 7.7.76 11.84-7.9 7.38-29.88 15.35-58.87 21.34-15.04 3.1-38.45 4.34-43.9 2.3zm6.47-31.8c-5.3-1.36-6.58-2.62-6.58-6.56 0-4.53 3.46-6.23 15.3-7.53 13.6-1.48 43.5-7.55 54-10.96 5.06-1.63 14.7-5.67 21.46-8.96 11.94-5.8 12.38-5.94 16.67-4.86 6.22 1.57 8.75 4.2 8.37 8.72-.26 3.02-1.13 4.25-5.24 7.34-9.43 7.12-36.45 15.98-63.57 20.85-13.23 2.37-34.68 3.4-40.43 1.96z"/><path d="M61.82 444.83c-29.16-4.92-51.64-24.94-59.5-52.98C.6 385.7.5 377.05.5 223.35.5 41.25-.17 56.85 8.14 39.9c3.32-6.78 5.85-10.15 12.74-17C30.7 13.13 37.3 8.94 49.72 4.5l8.76-3.15h240L306 3.7c20.94 6.54 35.73 18.9 45.05 37.65 7.32 14.72 6.9 3.96 6.93 182.1 0 156.6-.03 160.26-1.98 168-5.55 22-22.5 40.98-43.87 49.1-13.9 5.27-13 5.24-133.64 5.15-61.6-.04-114.1-.44-116.68-.87zm240.76-4.98c24.77-6.28 43.56-24.64 50.15-49 1.65-6.08 1.76-16.96 1.76-168 0-153.67-.1-161.8-1.84-168-7.6-26.9-30.38-46.26-58.85-50-5.7-.75-43.25-1-120.3-.77l-112 .32L54 6.7c-12.52 3.84-20.6 8.7-30.07 18.13-9.8 9.76-14.8 18.3-17.96 30.63C4.04 62.98 4 67.16 4 222.76c.03 135.84.25 160.64 1.5 166.6 4.85 23.4 25.22 44.06 49.72 50.48 6.95 1.82 12.5 1.9 123.36 1.96 113 .05 116.3 0 124-1.95zM97.03 170.25c-6.8-1.82-10.7-4.07-13.4-7.7-1.93-2.57-1.98-3-.6-5.47 3.72-6.6 14.63-10.2 25.38-8.3 19.18 3.32 40.65-.7 73.1-13.7 40.63-16.27 69.48-16.26 87.16.03 5.44 5.03 7.33 8.47 7.33 13.34 0 5.18-5.06 9.83-12.5 11.5-5.94 1.33-7.87.97-31-5.7-17.98-5.18-34.5-3.5-76 7.67-38.2 10.3-47.4 11.6-59.47 8.35zm27.57-39.73c-4.6-1.38-6.14-3.4-5.26-6.9.84-3.36 5.44-5.38 14.15-6.22 11.04-1.06 41.06-7.28 51.5-10.66 5.22-1.7 14.36-5.5 20.3-8.48 11.76-5.88 14.44-6.36 19.7-3.54 14.28 7.62-3.73 20.4-42.4 30.1-25.7 6.44-48.22 8.66-58 5.7zm6.9-31.6c-5.5-1.32-7.5-2.94-7.5-6.03 0-3.75 3.78-6.78 9.3-7.46 16.1-1.97 22.95-3.05 36.2-5.7 18.6-3.7 32.63-8.33 46.77-15.44 10.16-5.1 11.16-5.4 14.68-4.46 5.42 1.46 9.05 4.6 9.02 7.84-.03 3.5-2.36 6.3-8.43 10.1-20 12.5-81.76 25.56-100.05 21.14z"/></g></g></svg>