<svg xmlns="http://www.w3.org/2000/svg" width="357.926" height="445.783" viewBox="0 0 357.92575 445.78336"><g><g><path fill="#e0c5c6" d="M54.12 443.82C28.4 437.04 8.17 417.44 2 393.3c-1.95-7.6-2-11.43-2-170.4C0 43.33-.42 55.72 6.4 41.35 16.96 19.08 37.86 4.18 63.2.85c5.7-.75 43.53-1 121.3-.77l113 .32L305 2.7c20.8 6.37 37.1 19.62 46 37.37 7.56 15.07 7.12 3 6.8 186.28l-.27 164-2.87 7.86c-5.4 14.78-17.47 29.37-31 37.52-3.1 1.85-9.54 4.77-14.36 6.5l-8.76 3.13-119.5.2c-115.57.2-119.74.15-126.88-1.73zm248.4-4.24c23.16-6.7 41.15-23.8 48.65-46.23l2.34-7 .3-159.5c.3-178.4.67-168.33-6.77-183.5-8.7-17.72-23.53-30.04-43.52-36.16-5.67-1.75-12.4-1.85-125-1.85h-119l-8 2.73c-18.1 6.17-32.1 18.05-39.95 33.97-8 16.23-7.5 4.17-7.5 181.3 0 176.23-.45 165.12 7.08 180.5 7.03 14.38 22.32 27.9 38.05 33.6 11.52 4.2 13.2 4.26 132.83 4.06 105.37-.17 114.98-.32 120.5-1.92zm-91.5-42.4c-15.15-2.72-32.97-8-44.2-13.07l-7.7-3.47-3.16 2.26c-1.97 1.4-4.85 2.3-7.6 2.43-5.43.22-9.3 2.93-10.87 7.58-1.04 3.1-1.58 3.48-5.28 3.76-3.5.26-4.67-.2-7.77-3.04-3.04-2.8-4.03-4.8-6-12.18-1.3-4.86-2.5-8.97-2.66-9.13-.17-.15-2.76.35-5.76 1.13-3 .78-8.37 1.42-11.9 1.42-11.07 0-18.13-6.05-18.13-15.5 0-3.67.05-3.72 3.26-3.06 1.78.35 9.26.9 16.6 1.22 12.7.54 13.33.48 12.8-1.3-3.38-11.73-6.27-36.06-4.48-37.87 1.3-1.3 6.9.7 8.42 3 .84 1.28 2.86 8.78 4.5 16.67 1.63 7.88 3.2 15.08 3.47 16 .46 1.5 1.55 1.38 11.22-1.2 17.82-4.72 18.66-5.12 18.97-9.06.15-1.88-.07-5.27-.5-7.55l-.76-4.14-5.16 1.93c-5.1 1.9-5.17 2-5.85 6.96-.4 2.93-1.3 5.26-2.14 5.58-5.87 2.26-13.32-22.58-13.34-44.48 0-10.8.1-11.4 2.54-13.86 2.26-2.25 3.1-2.48 7.03-1.9 6.68 1.02 13.5-.78 40.3-10.62 13.4-4.92 27.17-9.7 30.6-10.58 5.83-1.54 6.5-1.53 10.87.15 8.56 3.27 8.6 7.9.13 15.15-4.44 3.8-5.8 5.7-7 9.83-1.6 5.52-3.45 24.77-3.48 36.12l-.02 7 13.4-.34c15.07-.38 23.18 1.12 36.94 6.85 19.66 8.18 24.54 18.8 13.88 30.2-13.56 14.5-47.6 29.6-61.2 27.14zm-56-33.12c0-3.68-.28-4.26-1.76-3.8-19.13 6-24.25 7.85-24.25 8.8 0 .6 1.14 3.06 2.54 5.43l2.53 4.3 10.47-5.2 10.47-5.2v-4.34zm54.86 9.95c18.28-6.2 29.93-14.43 31.68-22.4 1.28-5.83-4.32-6.98-22.65-4.63l-8.73 1.12.54 5.2c.83 7.92-4.25 16.26-11.3 18.6-3.97 1.3-6.3.3-9.4-4.05-1.35-1.9-3-3-4.53-3-3.73 0-12.4 3.77-17.86 7.8-4.8 3.5-4.88 3.67-2.53 4.37 1.34.4 9.86.6 18.94.45 15.53-.27 17.06-.47 25.88-3.46zm-36.28-12.5c9.54-3.26 15.4-6.4 15.4-8.25 0-1.72.04-1.73-15.24 1.77l-8.75 2v3.42c0 1.87.38 3.4.83 3.4.45 0 3.95-1.05 7.77-2.35zm4.66-21.3l10.75-2.84v-3.5c-.02-1.93-.3-4.55-.64-5.83-.7-2.55-1.68-2.55-17.1 0l-6.25 1.03v7.48c0 5.57.32 7.36 1.26 7 .68-.26 6.08-1.76 12-3.33zm-29-14.4l3.75-1.04V309.9l-4.74 1.75-4.75 1.76-.3 6.73c-.32 7.4-.3 7.43 6.06 5.67zm23.4-7.45c3.17-.82 8.1-1.5 10.97-1.5h5.2l.34-6.62.34-6.62-9.34.7c-5.14.38-9.93.9-10.66 1.2-1.45.55-4.38 14.35-3.04 14.35.24 0 3.04-.67 6.2-1.5zm-23.4-14.06c2.6-.63 2.75-.97 2.75-6.43v-5.77l-4.74.5c-2.62.3-4.9.66-5.1.82-.2.17-.05 3.05.34 6.4.58 5.02 1 6.02 2.36 5.6.9-.25 2.88-.77 4.4-1.13zm33.75-8.33l7.5-.62.5-5.04.52-5.02-12.5 2.37c-6.9 1.3-12.6 2.47-12.7 2.57-.12.1.26 2.05.83 4.3l1.04 4.12 3.65-1.02c2-.56 7.03-1.3 11.16-1.65zm-76.5-14.18c-12.74-1.92-18.48-6.12-18.5-13.56 0-2.95.25-3.15 4.65-3.75 2.55-.36 15.03-.7 27.75-.76 12.7-.07 26.03-.4 29.6-.75l6.5-.65-.3-3c-.18-2-1.58-4.16-4.2-6.5l-3.92-3.5 8.8-9.32c4.85-5.12 10.34-11.98 12.22-15.24 1.87-3.26 3.72-5.93 4.1-5.94.4 0 1.87 1.94 3.26 4.33 4.4 7.5 3.04 16.16-3.87 24.37-2.05 2.43-2.4 3.66-1.92 6.66.65 4 .07 3.9 8.33 1.18 6.83-2.25 12.7-18.75 10.6-29.85-.34-1.85-2.15-5.9-4.02-9l-3.4-5.65 3.52-3.08c1.93-1.7 6.63-5.16 10.42-7.7 7.8-5.17 8.56-5.13 15.4.9 10.74 9.4 8.24 21.15-8.98 42.28-2.9 3.56-3.47 4.73-2.03 4.16 24.42-9.6 49.38-17.6 54.8-17.6 8.3 0 16.7 4.76 16.7 9.46 0 7.9-9.06 10.64-44.5 13.44-14.16 1.12-22.84 3.76-47 14.3-8.8 3.83-20.72 8.83-26.5 11.1l-10.5 4.13-15.5.2c-8.52.1-18.2-.2-21.5-.7zm150.53-102.4c-10.63-5.2-21.78-10.02-24.77-10.7-4.47-1-8.78-.9-24.1.5-10.26.94-22.25 2.35-26.65 3.14-11.77 2.1-25.7 6.36-28.06 8.58-1.13 1.06-3 1.93-4.13 1.93-1.12 0-2.6.68-3.3 1.5-4 4.84-18.07-2.9-22.2-12.2-2.26-5.14-1.75-7.77 3-15.56 3-4.92 6.8-15.5 5.9-16.4-.16-.14-3.64 2.5-7.74 5.85-16.12 13.24-33.23 22.65-48.52 26.68-8.16 2.15-16.43 2.8-16.43 1.3 0-.44 3.9-2.78 8.65-5.2 22.5-11.4 48.3-33.04 54.88-46.03 4.77-9.4 5.8-15.92 5.12-32.12L128.03 76l3.24-2.72c4-3.37 14.46-8.43 17.44-8.43 2.38 0 6.56 6.02 7.87 11.33.38 1.56 1.36 3.1 2.18 3.4 2.13.82 21.43-3.16 32.95-6.8 5.4-1.7 17.33-6.7 26.52-11.12 13.94-6.7 17.77-8.12 23-8.54 13.45-1.08 29.6 3.66 34.22 10.03 3.85 5.3 1.78 15.54-3.6 17.76-2.43 1.03-5.15.93-15.02-.53-14.77-2.2-30.23-1.67-43.5 1.47l-9.2 2.16-7.65 8.02c-7.22 7.56-10.36 12.6-11.9 19.17l-.65 2.83 6.18-3.34c3.4-1.84 9.66-6.6 13.93-10.6 6.93-6.47 8.18-7.25 11.72-7.25 2.47 0 5.24.86 7.36 2.3 3.37 2.25 3.4 2.37 3.73 10.74.3 7.74-1.22 29.7-2.5 36.05-.52 2.6-.42 2.66 6.33 3.35 10.2 1.05 14.7 2.32 27.35 7.72 13.98 5.95 21.6 11.07 25.24 16.92 3.15 5.08 4.42 12.18 2.88 16.16-.94 2.42-1.6 2.75-5.4 2.75-3.48 0-8.3-1.93-23.7-9.46zm-96.05-36.85l3.95-9.2-9.2-.58c-5.08-.32-10.23-.9-11.46-1.3-2.03-.67-2.2-.48-1.73 2.07.86 4.74 4.46 30.72 4.46 32.2 0 2.62 10.06-14.04 13.98-23.2zm18.93 12.85c7.4-3 16.7-6.22 20.68-7.16l7.26-1.7.7-10.2c.7-10.35-.12-14.5-2.85-14.5-.7 0-5.77 2-11.3 4.43-5.53 2.44-11.6 4.72-13.52 5.08-3.4.64-3.6.93-8.93 14.2-3 7.47-5.6 13.97-5.78 14.44-.47 1.2-1 1.4 13.74-4.6zm-13.98-34.95c4.34-1.08 4.45-1.22 6.8-8.1 1.3-3.85 3.06-9.75 3.9-13.12 1.43-5.6 1.42-6.4-.05-9.25-1.47-2.85-2.05-3.13-6.47-3.13-2.66 0-6.25-.28-7.97-.62L159 85.6v6.38c-.02 8.23-1.95 15.3-6.35 23.3-3.06 5.58-3.3 6.5-1.84 6.87 2.17.53 9.4-.3 15.12-1.7z"/><path fill="#bebebe" d="M54.12 443.82C28.4 437.04 8.17 417.44 2 393.3c-1.95-7.6-2-11.43-2-170.4C0 43.33-.42 55.72 6.4 41.35 16.96 19.08 37.86 4.18 63.2.85c5.7-.75 43.53-1 121.3-.77l113 .32L305 2.7c20.8 6.37 37.1 19.62 46 37.37 7.56 15.07 7.12 3 6.8 186.28l-.27 164-2.87 7.86c-5.4 14.78-17.47 29.37-31 37.52-3.1 1.85-9.54 4.77-14.36 6.5l-8.76 3.13-119.5.2c-115.57.2-119.74.15-126.88-1.73zm248.4-4.24c23.16-6.7 41.15-23.8 48.65-46.23l2.34-7 .3-159.5c.3-178.4.67-168.33-6.77-183.5-8.7-17.72-23.53-30.04-43.52-36.16-5.67-1.75-12.4-1.85-125-1.85h-119l-8 2.73c-18.1 6.17-32.1 18.05-39.95 33.97-8 16.23-7.5 4.17-7.5 181.3 0 176.23-.45 165.12 7.08 180.5 7.03 14.38 22.32 27.9 38.05 33.6 11.52 4.2 13.2 4.26 132.83 4.06 105.37-.17 114.98-.32 120.5-1.92zM204 395.75c-12.05-2.57-32.1-9.08-39.6-12.86l-5.8-2.93-3.3 2.92c-2.6 2.26-3.96 2.77-6.2 2.32-4.52-.9-9.35 1.96-11.64 6.9-1.6 3.45-2.53 4.28-4.97 4.5-3.9.36-8.95-2.8-11.1-6.97-.95-1.82-2.5-6.38-3.48-10.14-.97-3.75-1.9-6.98-2.1-7.16-.18-.18-3.25.35-6.82 1.18-9.55 2.22-17.83 1.45-22.48-2.1-4.13-3.14-6.8-8.37-6.32-12.42.25-2.17.76-2.6 2.8-2.37 5.87.64 30 1.44 30 1 0-.28-1.14-6.08-2.55-12.9-2.57-12.45-3.6-25.05-2.17-26.48 1.4-1.4 6.12 1.07 8.33 4.34 1.35 1.98 2.97 7.45 4.28 14.47 1.17 6.2 2.58 12.92 3.14 14.92l1.02 3.63 4.23-.9c2.33-.52 9.13-2.34 15.12-4.07l10.87-3.14-.56-7.43c-.3-4.1-.75-7.64-1-7.88-.23-.24-2.63.42-5.3 1.48-4.67 1.83-4.95 2.15-6.05 7.1-1.34 6-1.7 6.52-3.85 5.7-2.27-.88-6.04-9.66-8.66-20.15-1.77-7.08-2.25-11.95-2.3-22.83-.03-13.46.03-13.9 2.4-15.8 1.97-1.6 3.34-1.86 7.5-1.36 6.68.8 14.96-1.4 39.57-10.55 25.7-9.53 34.56-12.12 38.8-11.33 4.05.76 9.2 4.88 9.2 7.37 0 1.96-3.6 6.12-8.8 10.1-2.45 1.9-3.65 3.93-4.72 8.02-1.65 6.33-3.45 24.98-3.47 35.9v7.5l15.76.03c14.56.02 16.38.23 24.25 2.85 11.6 3.85 19.8 8.02 24.24 12.35 9.24 8.98 6.82 17.03-8.57 28.44-8.5 6.3-24.17 14.4-34.16 17.65-9.46 3.08-14.9 3.3-25.47 1.05zm-58.9-22.06l9.9-5.18v-4.4c0-4.1-.17-4.36-2.26-3.74-1.24.36-7.3 2.25-13.46 4.2l-11.2 3.54 2.07 4.1c2.2 4.4 3.76 6.63 4.58 6.63.28 0 4.95-2.32 10.38-5.16zm60.34 1.64c18.05-5.23 29.2-11.3 33.67-18.35 3.08-4.85 3.6-8.02 1.68-9.95-1.5-1.5-10.52-1.54-21.94-.07l-8.78 1.12.58 4.25c.8 5.8-1 10.63-5.72 15.34-6.33 6.3-10.92 6.37-14.58.18-2.37-4-3.43-4.24-9.66-2.1-6.98 2.4-10.7 4.37-14.74 7.76l-3.28 2.76 2.4.68c1.34.37 9 .72 17.06.77 12.86.1 15.7-.2 23.32-2.4zm-18.7-19.07c2.37-1.54 3.07-4.42 1.07-4.42-.65 0-6.05 1.17-12 2.6L165 357.02v7.74l9.76-3.52c5.36-1.94 10.76-4.18 12-4.98zm-8.5-16l10.75-2.86v-4.52c-.04-7.95.22-7.88-17.74-4.87l-6.25 1.06v7.5c0 5.58.33 7.4 1.26 7.05.68-.24 6.08-1.74 12-3.32zM152 325.32c1.2-.33 1.44-1.92 1.17-8-.23-5.28-.68-7.4-1.5-7.07-.64.27-2.85 1.04-4.9 1.72l-3.76 1.22v13.9l3.76-.66c2.06-.36 4.42-.85 5.25-1.1zm21-6.95c3.03-.8 7.83-1.48 10.67-1.5h5.16l.34-6.5c.4-7.5 1.4-7.03-12.6-5.84-6.6.57-7.84.96-8.5 2.76-1.23 3.3-2.22 12.6-1.35 12.58.43 0 3.26-.68 6.3-1.5zm-24.86-13.66l3.87-1.16V291.9l-4.74.6c-2.62.35-4.9.77-5.1.93-.56.46.97 12.42 1.58 12.42.3 0 2.27-.52 4.4-1.16zm28.37-7.87c2.75-.6 7.03-.97 9.5-.82l4.5.3.6-5.48c.32-3 .55-5.53.5-5.6-.05-.08-5.98 1-13.18 2.37l-13.08 2.5 1.57 4.37c1.1 3.04 2.04 4.23 3.1 3.9.83-.24 3.76-.94 6.5-1.54zm-71.06-15.4c-10.06-1.9-10.96-2.27-14.37-6.16-3.2-3.66-4.1-8.64-1.8-10.1.67-.42 15.76-1.04 33.5-1.37 18.27-.34 32.7-1.02 33.24-1.55 1.83-1.82-.78-7.76-4.5-10.3l-3.52-2.37 8.93-9.24c4.92-5.08 10.37-11.76 12.12-14.86 1.75-3.1 3.55-5.63 4-5.63 2.2 0 5.4 6.65 5.8 11.95.37 5.27.13 5.97-4.23 12.48-3.95 5.88-4.53 7.37-4 10.23.35 1.85.92 3.35 1.27 3.35s2.86-.84 5.58-1.88c5.85-2.22 7.74-4.33 10.5-11.7 3.64-9.72 2.38-21.94-3.04-29.56l-2.13-3 2.87-3.03c1.57-1.67 6.13-5.25 10.12-7.96 6.38-4.32 7.53-4.77 9.5-3.76 8 4.13 12.75 10.75 12.75 17.77 0 5.2-5.35 15.5-13.04 25.07-3.27 4.08-5.8 7.58-5.6 7.78.2.2 8.25-2.57 17.9-6.14 21.5-7.97 33.67-11.55 39.1-11.53 8.13.05 16.7 6.1 15.2 10.78-2.05 6.5-12.3 9.8-34.98 11.23-23.3 1.48-28.57 2.96-62.07 17.45-30.03 13-29.63 12.88-47 13.17-9.32.16-17.66-.24-22.06-1.07zm151.6-102.04c-10.64-5.2-21.8-10.02-24.78-10.7-4.47-1-8.78-.9-24.1.5-10.26.94-22.25 2.35-26.65 3.14-11.77 2.1-25.7 6.36-28.06 8.58-1.13 1.06-3 1.93-4.13 1.93-1.12 0-2.6.68-3.3 1.5-4 4.84-18.07-2.9-22.2-12.2-2.26-5.14-1.75-7.77 3-15.56 3-4.92 6.8-15.5 5.9-16.4-.16-.14-3.64 2.5-7.74 5.85-16.12 13.24-33.23 22.65-48.52 26.68-8.16 2.15-16.43 2.8-16.43 1.3 0-.44 3.9-2.78 8.65-5.2 22.5-11.4 48.3-33.04 54.88-46.03 4.77-9.4 5.8-15.92 5.12-32.12L128.03 76l3.24-2.72c4-3.37 14.46-8.43 17.44-8.43 2.38 0 6.56 6.02 7.87 11.33.38 1.56 1.36 3.1 2.18 3.4 2.13.82 21.43-3.16 32.95-6.8 5.4-1.7 17.33-6.7 26.52-11.12 13.94-6.7 17.77-8.12 23-8.54 13.45-1.08 29.6 3.66 34.22 10.03 3.85 5.3 1.78 15.54-3.6 17.76-2.43 1.03-5.15.93-15.02-.53-14.77-2.2-30.23-1.67-43.5 1.47l-9.2 2.16-7.65 8.02c-7.22 7.56-10.36 12.6-11.9 19.17l-.65 2.83 6.18-3.34c3.4-1.84 9.66-6.6 13.93-10.6 6.93-6.47 8.18-7.25 11.72-7.25 2.47 0 5.24.86 7.36 2.3 3.37 2.25 3.4 2.37 3.73 10.74.3 7.74-1.22 29.7-2.5 36.05-.52 2.6-.42 2.66 6.33 3.35 10.2 1.05 14.7 2.32 27.35 7.72 13.98 5.95 21.6 11.07 25.24 16.92 3.15 5.08 4.42 12.18 2.88 16.16-.94 2.42-1.6 2.75-5.4 2.75-3.48 0-8.3-1.93-23.7-9.46zm-96.06-36.85l3.95-9.2-9.2-.58c-5.08-.32-10.23-.9-11.46-1.3-2.03-.67-2.2-.48-1.73 2.07.86 4.74 4.46 30.72 4.46 32.2 0 2.62 10.06-14.04 13.98-23.2zm18.93 12.85c7.4-3 16.7-6.22 20.68-7.16l7.26-1.7.7-10.2c.7-10.35-.12-14.5-2.85-14.5-.7 0-5.77 2-11.3 4.43-5.53 2.44-11.6 4.72-13.52 5.08-3.4.64-3.6.93-8.93 14.2-3 7.47-5.6 13.97-5.78 14.44-.47 1.2-1 1.4 13.74-4.6zm-13.98-34.95c4.34-1.08 4.45-1.22 6.8-8.1 1.3-3.85 3.06-9.75 3.9-13.12 1.43-5.6 1.42-6.4-.05-9.25-1.47-2.85-2.05-3.13-6.47-3.13-2.66 0-6.25-.28-7.97-.62L159 85.6v6.38c-.02 8.23-1.95 15.3-6.35 23.3-3.06 5.58-3.3 6.5-1.84 6.87 2.17.53 9.4-.3 15.12-1.7z"/><path fill="#c38c8f" d="M60.5 445.2c-22.6-4.7-40.8-17.12-51.3-35-1.67-2.85-4.3-8.47-5.87-12.5L.5 390.34v-334l2.68-7.33c8.52-23.3 27.87-40.58 52.6-46.94C61.98.48 71.8.35 179 .35c107.2 0 117.04.14 123.24 1.73 24.9 6.4 44.12 23.73 52.44 47.28l2.83 8 .28 163c.3 180.52.67 169.9-6.17 184.1-7.3 15.15-18.58 26.35-34.1 33.87-16.38 7.93-9 7.54-139.2 7.4-63.68-.06-116.7-.3-117.8-.53zm242.35-5.57c20.9-6.45 36.2-19.13 44.7-37.03 6.8-14.35 6.53-5.9 6.23-183.27l-.27-159.98-2.95-8.47c-6-17.2-18.06-30.85-34.04-38.53-16.4-7.9-9.27-7.5-137.7-7.48C50.23 4.9 57.2 4.5 41.04 12.5 27.98 18.92 17.07 29.67 11.2 41.9 3.5 57.9 3.9 46.96 4.22 226.86l.28 160.5 2.83 8c3.8 10.72 8.78 18.75 16.27 26.15 10.06 9.95 23.6 16.88 37.64 19.26 2.92.5 56.85.8 120.77.7 104.25-.16 116.03-.34 120.85-1.83zm-98.82-43.88c-12.06-2.57-32.12-9.08-39.6-12.86l-5.8-2.93-3.32 2.92c-2.58 2.26-3.94 2.77-6.18 2.32-4.52-.9-9.35 1.96-11.64 6.9-1.6 3.45-2.53 4.28-4.97 4.5-3.9.36-8.95-2.8-11.1-6.97-.95-1.82-2.5-6.38-3.48-10.14-.97-3.75-1.9-6.98-2.1-7.16-.18-.18-3.25.35-6.82 1.18-9.55 2.22-17.83 1.45-22.48-2.1-4.13-3.14-6.8-8.37-6.32-12.42.25-2.17.76-2.6 2.8-2.37 5.87.64 30 1.44 30 1 0-.28-1.14-6.08-2.55-12.9-2.57-12.45-3.6-25.05-2.17-26.48 1.4-1.4 6.12 1.07 8.33 4.34 1.35 1.98 2.97 7.45 4.28 14.47 1.17 6.2 2.58 12.92 3.14 14.92l1.02 3.63 4.23-.9c2.33-.52 9.13-2.34 15.12-4.07l10.87-3.14-.56-7.43c-.3-4.1-.75-7.64-1-7.88-.23-.24-2.63.42-5.3 1.48-4.67 1.83-4.95 2.15-6.05 7.1-1.34 6-1.7 6.52-3.85 5.7-2.27-.88-6.04-9.66-8.66-20.15-1.77-7.08-2.25-11.95-2.3-22.83-.03-13.46.03-13.9 2.4-15.8 1.97-1.6 3.34-1.86 7.5-1.36 6.68.8 14.96-1.4 39.57-10.55 25.7-9.53 34.56-12.12 38.8-11.33 4.05.76 9.2 4.88 9.2 7.37 0 1.96-3.6 6.12-8.8 10.1-2.45 1.9-3.65 3.93-4.72 8.02-1.65 6.33-3.45 24.98-3.47 35.9v7.5l15.76.03c14.56.02 16.38.23 24.25 2.85 11.6 3.85 19.8 8.02 24.24 12.35 9.24 8.98 6.82 17.03-8.57 28.44-8.5 6.3-24.17 14.4-34.16 17.65-9.46 3.08-14.9 3.3-25.47 1.05zm-58.9-22.06l9.88-5.18v-4.4c0-4.1-.15-4.36-2.24-3.74-1.24.36-7.3 2.25-13.46 4.2l-11.2 3.54 2.07 4.1c2.2 4.4 3.76 6.63 4.58 6.63.28 0 4.95-2.32 10.38-5.16zm60.33 1.64c18.05-5.23 29.2-11.3 33.67-18.35 3.08-4.85 3.6-8.02 1.68-9.95-1.5-1.5-10.52-1.54-21.94-.07l-8.78 1.12.58 4.25c.8 5.8-1 10.63-5.72 15.34-6.33 6.3-10.92 6.37-14.58.18-2.37-4-3.43-4.24-9.66-2.1-6.98 2.4-10.7 4.37-14.74 7.76l-3.28 2.76 2.4.68c1.34.37 9 .72 17.06.77 12.86.1 15.7-.2 23.32-2.4zm-18.7-19.07c2.37-1.54 3.07-4.42 1.07-4.42-.65 0-6.05 1.17-12 2.6L165 357.02v7.74l9.76-3.52c5.36-1.94 10.76-4.18 12-4.98zm-8.5-16l10.75-2.86v-4.52c-.04-7.95.22-7.88-17.74-4.87l-6.25 1.06v7.5c0 5.58.33 7.4 1.26 7.05.68-.24 6.08-1.74 12-3.32zM152 325.32c1.2-.33 1.44-1.92 1.17-8-.23-5.28-.68-7.4-1.5-7.07-.64.27-2.85 1.04-4.9 1.72l-3.76 1.22v13.9l3.76-.66c2.06-.36 4.42-.85 5.25-1.1zm21-6.95c3.03-.8 7.83-1.48 10.67-1.5h5.16l.34-6.5c.4-7.5 1.4-7.03-12.6-5.84-6.6.57-7.84.96-8.5 2.76-1.23 3.3-2.22 12.6-1.35 12.58.43 0 3.26-.68 6.3-1.5zm-24.86-13.66l3.87-1.16V291.9l-4.74.6c-2.62.35-4.9.77-5.1.93-.56.46.97 12.42 1.58 12.42.3 0 2.27-.52 4.4-1.16zm28.37-7.87c2.75-.6 7.03-.97 9.5-.82l4.5.3.6-5.48c.32-3 .55-5.53.5-5.6-.05-.08-5.98 1-13.18 2.37l-13.08 2.5 1.57 4.37c1.1 3.04 2.04 4.23 3.1 3.9.83-.24 3.76-.94 6.5-1.54zm-71.06-15.4c-10.06-1.9-10.96-2.27-14.37-6.16-3.2-3.66-4.1-8.64-1.8-10.1.67-.42 15.76-1.04 33.5-1.37 18.27-.34 32.7-1.02 33.24-1.55 1.83-1.82-.78-7.76-4.5-10.3l-3.52-2.37 8.93-9.24c4.92-5.08 10.37-11.76 12.12-14.86 1.75-3.1 3.55-5.63 4-5.63 2.2 0 5.4 6.65 5.8 11.95.37 5.27.13 5.97-4.23 12.48-3.95 5.88-4.53 7.37-4 10.23.35 1.85.92 3.35 1.27 3.35s2.86-.84 5.58-1.88c5.85-2.22 7.74-4.33 10.5-11.7 3.64-9.72 2.38-21.94-3.04-29.56l-2.13-3 2.87-3.03c1.57-1.67 6.13-5.25 10.12-7.96 6.38-4.32 7.53-4.77 9.5-3.76 8 4.13 12.75 10.75 12.75 17.77 0 5.2-5.35 15.5-13.04 25.07-3.27 4.08-5.8 7.58-5.6 7.78.2.2 8.25-2.57 17.9-6.14 21.5-7.97 33.67-11.55 39.1-11.53 8.13.05 16.7 6.1 15.2 10.78-2.05 6.5-12.3 9.8-34.98 11.23-23.3 1.48-28.57 2.96-62.07 17.45-30.03 13-29.63 12.88-47 13.17-9.32.16-17.66-.24-22.06-1.07zm168.57-94c-1.92-.72-10.24-4.7-18.5-8.83-22.2-11.14-23.2-11.38-42.26-9.9-29.1 2.25-52.24 6.8-59.22 11.64-2 1.38-4.18 2.5-4.85 2.5-.68 0-2.35.74-3.7 1.63-3.28 2.15-7.4 1.27-13-2.75-5.73-4.12-9.86-10.13-9.86-14.37 0-2.05 1.37-5.53 3.6-9.15 3.27-5.3 6.8-14.7 6.8-18.04 0-.73-3.26 1.43-7.24 4.8-14.67 12.37-29.46 21.17-43.52 25.87-9.28 3.1-22.25 5.1-22.22 3.42 0-.5 5.1-3.5 11.33-6.7 14.02-7.18 27.2-16.92 39.86-29.46 15.4-15.24 18.58-23.95 17.5-47.8l-.6-13.36 4.55-4c5.25-4.62 15.03-8.76 17.36-7.34 1.97 1.2 6.95 10.22 6.98 12.63.02 1.7.6 1.82 6.28 1.2 16.25-1.77 40.5-9.62 56.97-18.45 5.1-2.74 11.96-5.74 15.24-6.68 15.4-4.42 41.23 3.45 41.64 12.67.37 8.15-1.36 12.26-5.9 14-1.97.77-5.5.63-13.2-.54-14.95-2.26-28.24-2.03-41.64.75-10.05 2.1-11.64 2.72-16.1 6.47-7 5.86-13 14.02-14.83 20.16-.86 2.9-1.33 5.48-1.04 5.77 1.33 1.34 18.03-10.3 24.55-17.12 4.68-4.88 10.9-4.74 16.02.36 1.77 1.8 2.03 3.32 2.03 11.8 0 8.73-.9 19.93-2.52 31.9l-.57 4.14 7.3.72c10.04 1 18.22 3.65 32.4 10.5 9.77 4.72 12.96 6.8 16.72 11 6.37 7.08 8.43 15.05 5.13 19.77-1.8 2.56-5.9 2.84-11.44.8zM160.7 143.6c2.37-5.37 4.3-9.98 4.3-10.25 0-.27-3.03-.5-6.74-.52-3.72-.02-8.73-.48-11.14-1.04-2.4-.56-4.5-.9-4.64-.73-.14.15.8 7.7 2.12 16.78 1.3 9.08 2.38 17.17 2.4 18 .02 2.75 9.37-12.4 13.7-22.25zm38.95 5.05l8.14-2.07.7-9.3c.84-11.4.14-15.43-2.7-15.43-1.1 0-6.04 1.8-10.94 4-4.9 2.22-10.88 4.55-13.3 5.2l-4.37 1.17-5.95 14.67-5.93 14.66 13.1-5.42c7.2-2.98 16.75-6.35 21.23-7.5zm-33.14-28.22c3.97-1.1 4.03-1.2 7.17-10.7 6.44-19.48 5.63-22.25-6.78-23.23l-7.62-.6-.53 8.23c-.56 8.83-3 16.48-7.3 22.98-2.1 3.2-2.37 4.18-1.3 4.85 1.54.97 10.42.14 16.36-1.52z"/><path fill="#7a7a7a" d="M60.5 445.2c-22.6-4.7-40.8-17.12-51.3-35-1.67-2.85-4.3-8.47-5.87-12.5L.5 390.34v-334l2.68-7.33c8.52-23.3 27.87-40.58 52.6-46.94C61.98.48 71.8.35 179 .35c107.2 0 117.04.14 123.24 1.73 24.9 6.4 44.12 23.73 52.44 47.28l2.83 8 .28 163c.3 180.52.67 169.9-6.17 184.1-7.3 15.15-18.58 26.35-34.1 33.87-16.38 7.93-9 7.54-139.2 7.4-63.68-.06-116.7-.3-117.8-.53zm242.35-5.57c20.9-6.45 36.2-19.13 44.7-37.03 6.8-14.35 6.53-5.9 6.23-183.27l-.27-159.98-2.95-8.47c-6-17.2-18.06-30.85-34.04-38.53-16.4-7.9-9.27-7.5-137.7-7.48C50.23 4.9 57.2 4.5 41.04 12.5 27.98 18.92 17.07 29.67 11.2 41.9 3.5 57.9 3.9 46.96 4.22 226.86l.28 160.5 2.83 8c3.8 10.72 8.78 18.75 16.27 26.15 10.06 9.95 23.6 16.88 37.64 19.26 2.92.5 56.85.8 120.77.7 104.25-.16 116.03-.34 120.85-1.83zm-175.57-44.26c-4.3-1.87-6.57-5.87-8.77-15.5-1-4.4-2.3-8-2.9-7.98-.6 0-4.02.67-7.6 1.45-8.73 1.92-13.7 1.82-18.5-.38-5.95-2.73-7.76-5.3-8.3-11.8-.43-5.2-.32-5.58 1.4-4.92 7.12 2.73 30.4 2.94 30.4.27 0-.64-1.1-6.8-2.47-13.67-2.54-12.8-3.24-23.44-1.6-24.45 1.5-.93 5.87 1.2 7.44 3.66.8 1.26 2.9 9.27 4.65 17.8 1.75 8.52 3.36 15.68 3.58 15.9.5.53 23.5-5.5 27.76-7.28l3.15-1.3-.32-7.67c-.22-5-.74-7.65-1.5-7.65-.65 0-3.42.86-6.17 1.9-4.83 1.83-5 2.04-5.54 6.5-1.54 12.98-7.45 5.35-12.03-15.55-3.6-16.35-3.73-32.9-.32-36.3 1.04-1.04 3.58-1.5 8.2-1.47 8.5.03 14.32-1.54 37.2-10.06 34.62-12.87 39.38-13.92 45.76-10.03 2.52 1.54 3.25 2.66 3.25 5.04 0 3.1-.98 4.36-8.22 10.57-5.47 4.67-7.7 15.72-7.74 38.47l-.03 12.56h15.26c14.6-.03 15.66.1 25.25 3.3 22.75 7.54 30.18 14.34 28.05 25.66-2.07 11.06-37.95 32.32-57.63 34.14-9.8.9-36.52-5.83-52.78-13.3l-7.37-3.4-2.96 2.48c-2.06 1.74-4.15 2.5-6.92 2.5-5.86 0-9.47 2.3-11.77 7.5-2.2 4.98-4 5.54-9.82 3zm18.23-21.8l10-5.22.3-4.25c.27-3.56.03-4.24-1.5-4.2-3.04.1-25.66 7.54-26 8.56-.4 1.17 5.35 10.4 6.43 10.35.43 0 5.28-2.37 10.78-5.24zm61.7 1.66c16.5-5.2 27.17-11.13 31.93-17.72 3.66-5.03 3.76-9.02.28-11.3-2.36-1.55-3.63-1.6-14.74-.4-6.68.72-12.72 1.53-13.4 1.8-.8.3-1.25 2.58-1.25 6.4 0 3.28-.65 7.2-1.44 8.75-2.28 4.4-8.22 9.1-11.52 9.1-2.9 0-3.62-.5-7.86-5.46-2.56-3-3.3-3-12.47.48-2.85 1.08-7.43 3.88-10.15 6.22l-4.96 4.25 8.95.63c15.3 1.07 27.44.16 36.65-2.75zm-34.56-12.9c11.3-4.14 16.17-6.64 16.67-8.55.28-1 .3-2 .05-2.25-.42-.42-13.45 2.24-21.6 4.4-3.53.94-3.74 1.23-3.74 4.96 0 2.17.4 3.95.9 3.95.47 0 3.96-1.13 7.74-2.52zm5.55-21.63l11.67-3.18-.52-5.08c-.28-2.8-.66-5.6-.84-6.2-.23-.8-3.05-.72-10.1.25-14.35 1.98-13.4 1.27-13.4 9.92 0 4.1.34 7.44.76 7.45.4 0 6-1.42 12.43-3.17zm-25-22.87c-.18-4.1-.5-7.6-.7-7.82-.2-.2-2.43.42-4.93 1.38l-4.56 1.74v14.52l5.26-1.2 5.25-1.17-.3-7.44zm32.06-.67c3.32.45 3.75.26 3.75-1.65.02-1.18.3-4.46.64-7.3l.62-5.13-4.38.37c-20.38 1.73-18.43.64-19.48 10.86l-.66 6.42 7.88-2.03c4.5-1.17 9.5-1.82 11.64-1.54zm-35.94-12.38l3.8-1.06-.68-5.68c-.37-3.13-.82-5.85-1-6.04-.17-.2-2.56-.04-5.3.34l-5.02.68.53 5.17c.87 8.54.8 8.5 7.67 6.58zm32.34-7.62l9.15-.57.7-5.46c.36-3 .45-5.68.17-5.95-.4-.4-13.1 1.78-24.36 4.2-1.98.42-2.1.77-1.15 3.7.57 1.8 1.22 3.87 1.46 4.62.3.9 1.18 1.13 2.67.68 1.23-.37 6.35-.93 11.4-1.24zm-70.6-15.4c-10.66-1.2-15.12-2.4-18.35-4.93-3.16-2.5-5.36-8.47-3.8-10.36.82-.98 8.5-1.46 31.84-1.98 16.92-.4 32.04-.97 33.6-1.3 2.65-.57 2.8-.86 2.17-4.2-.44-2.37-1.9-4.66-4.33-6.76l-3.66-3.17 9-9.4c4.96-5.15 10.36-11.72 12-14.58 1.66-2.87 3.35-5.22 3.77-5.23 1.26-.03 4.68 6.24 5.36 9.83.84 4.45-.9 9.86-5.14 16.03-3.33 4.84-4.18 8.17-2.92 11.45.5 1.27 1.43 1.18 6.64-.67 5.98-2.1 6.13-2.26 9.46-9.22 1.86-3.9 3.64-9.32 3.97-12.08.72-6.03-1.45-14.3-5.18-19.8l-2.58-3.8 2.3-2.5c3.75-4.05 15.95-12.25 18.23-12.25 3.12 0 9.04 4.4 11.7 8.68 5.58 9.06 1.58 19.92-14.77 40.1l-2.66 3.28 8.4-3.12c19.75-7.35 33.77-12.14 41.27-14.08 6.96-1.8 8.7-1.93 13.27-.9 7.06 1.57 10.37 4.28 10.37 8.47 0 7.68-9.06 10.65-38.34 12.54-19 1.24-25.64 3.2-57.6 17-28.34 12.25-31.34 13.16-44.55 13.57-6.04.2-14.8-.08-19.44-.6zM274 187.43c-1.92-.7-10.24-4.68-18.5-8.82-22.2-11.14-23.2-11.38-42.26-9.9-29.1 2.25-52.24 6.8-59.22 11.64-2 1.38-4.18 2.5-4.85 2.5-.68 0-2.35.74-3.7 1.63-3.28 2.15-7.4 1.27-13-2.75-5.73-4.12-9.86-10.13-9.86-14.37 0-2.05 1.37-5.53 3.6-9.15 3.27-5.3 6.8-14.7 6.8-18.04 0-.73-3.26 1.43-7.24 4.8-14.67 12.37-29.46 21.17-43.52 25.87-9.28 3.1-22.25 5.1-22.22 3.42 0-.5 5.1-3.5 11.33-6.7 14.02-7.18 27.2-16.92 39.86-29.46 15.4-15.24 18.58-23.95 17.5-47.8l-.6-13.36 4.55-4c5.25-4.62 15.03-8.76 17.36-7.34 1.97 1.2 6.95 10.22 6.98 12.63.02 1.7.6 1.82 6.28 1.2 16.25-1.77 40.5-9.62 56.97-18.45 5.1-2.74 11.96-5.74 15.24-6.68 15.4-4.42 41.23 3.45 41.64 12.67.37 8.15-1.36 12.26-5.9 14-1.97.77-5.5.63-13.2-.54-14.95-2.26-28.24-2.03-41.64.75-10.05 2.1-11.64 2.72-16.1 6.47-7 5.86-13 14.02-14.83 20.16-.86 2.9-1.33 5.48-1.04 5.77 1.33 1.34 18.03-10.3 24.55-17.12 4.68-4.88 10.9-4.74 16.02.36 1.77 1.8 2.03 3.32 2.03 11.8 0 8.73-.9 19.93-2.52 31.9l-.57 4.14 7.3.72c10.04 1 18.22 3.65 32.4 10.5 9.77 4.72 12.96 6.8 16.72 11 6.37 7.08 8.43 15.05 5.13 19.77-1.8 2.56-5.9 2.84-11.44.8zM160.7 143.6c2.37-5.37 4.3-9.98 4.3-10.25 0-.27-3.03-.5-6.74-.52-3.72-.02-8.73-.48-11.14-1.04-2.4-.56-4.5-.9-4.64-.73-.14.15.8 7.7 2.12 16.78 1.3 9.08 2.38 17.17 2.4 18 .02 2.75 9.37-12.4 13.7-22.25zm38.95 5.05l8.14-2.07.7-9.3c.84-11.4.14-15.43-2.7-15.43-1.1 0-6.04 1.8-10.94 4-4.9 2.22-10.88 4.55-13.3 5.2l-4.37 1.17-5.95 14.67-5.93 14.66 13.1-5.42c7.2-2.98 16.75-6.35 21.23-7.5zm-33.14-28.22c3.97-1.1 4.03-1.2 7.17-10.7 6.44-19.48 5.63-22.25-6.78-23.23l-7.62-.6-.53 8.23c-.56 8.83-3 16.48-7.3 22.98-2.1 3.2-2.37 4.18-1.3 4.85 1.54.97 10.42.14 16.36-1.52z"/><path fill="#a55357" d="M62.5 445.15c-27.85-3.98-50.36-22.5-59.28-48.8l-2.7-8-.28-161.5C-.06 45.03-.5 56.36 7.42 40.32c5.34-10.8 13.7-20.38 23.46-26.86C39.34 7.8 45.3 5.24 55.5 2.8 63.16.94 68.58.86 178.3.85c130.6 0 123.08-.44 140.65 8.16 8.7 4.26 11.7 6.38 18 12.73 8.68 8.75 13.95 17.2 17.83 28.6l2.73 8v164c0 153.63-.1 164.4-1.76 170.4-6.84 24.74-25.9 43.45-51.73 50.72-6.1 1.73-13.3 1.84-122.5 1.97-63.8.08-117.34-.05-119-.3zM306 439c19.6-7.05 34.46-20.06 42.17-36.9 6.1-13.37 5.8-3.87 5.82-178.84 0-156.08-.04-160.28-1.97-167.8-5.17-20.23-20.97-38.04-40.94-46.15-13.35-5.4-14.25-5.45-131.98-5.43-66.8 0-111.27.4-115.5 1.02C48.9 7 36.28 13.06 25.24 23.3 18.12 29.9 14.32 35 9.95 43.8c-6.22 12.55-5.9 3.15-5.93 179.6-.02 178-.45 165.9 6.46 179.95 6.98 14.17 17.33 24.33 32.2 31.6 14.53 7.1 7.76 6.8 138.83 6.58l118-.18L306 439zM127.3 395.38c-4.3-1.87-6.57-5.87-8.77-15.5-1-4.4-2.3-8-2.9-7.98-.6 0-4.02.67-7.6 1.45-8.73 1.92-13.7 1.82-18.5-.38-5.95-2.73-7.76-5.3-8.3-11.8-.43-5.2-.32-5.58 1.4-4.92 7.12 2.73 30.4 2.94 30.4.27 0-.64-1.1-6.8-2.47-13.67-2.54-12.8-3.24-23.44-1.6-24.45 1.5-.93 5.87 1.2 7.44 3.66.8 1.26 2.9 9.27 4.65 17.8 1.75 8.52 3.36 15.68 3.58 15.9.5.53 23.5-5.5 27.76-7.28l3.15-1.3-.32-7.67c-.22-5-.74-7.65-1.5-7.65-.65 0-3.42.86-6.17 1.9-4.83 1.83-5 2.04-5.54 6.5-1.54 12.98-7.45 5.35-12.03-15.55-3.6-16.35-3.73-32.9-.32-36.3 1.04-1.04 3.58-1.5 8.2-1.47 8.5.03 14.32-1.54 37.2-10.06 34.62-12.87 39.38-13.92 45.76-10.03 2.52 1.54 3.25 2.66 3.25 5.04 0 3.1-.98 4.36-8.22 10.57-5.47 4.67-7.7 15.72-7.74 38.47l-.03 12.56h15.26c14.6-.03 15.66.1 25.25 3.3 22.75 7.54 30.18 14.34 28.05 25.66-2.07 11.06-37.95 32.32-57.63 34.14-9.8.9-36.52-5.83-52.78-13.3l-7.37-3.4-2.96 2.48c-2.06 1.74-4.15 2.5-6.92 2.5-5.86 0-9.47 2.3-11.77 7.5-2.2 4.98-4 5.54-9.82 3zm18.23-21.8l10-5.22.3-4.25c.27-3.56.03-4.24-1.5-4.2-3.04.1-25.66 7.54-26 8.56-.4 1.17 5.35 10.4 6.43 10.35.43 0 5.28-2.37 10.78-5.24zm61.7 1.66c16.5-5.2 27.17-11.13 31.93-17.72 3.66-5.03 3.76-9.02.28-11.3-2.36-1.55-3.63-1.6-14.74-.4-6.68.72-12.72 1.53-13.4 1.8-.8.3-1.25 2.58-1.25 6.4 0 3.28-.65 7.2-1.44 8.75-2.28 4.4-8.22 9.1-11.52 9.1-2.9 0-3.62-.5-7.86-5.46-2.56-3-3.3-3-12.47.48-2.85 1.08-7.43 3.88-10.15 6.22l-4.96 4.25 8.95.63c15.3 1.07 27.44.16 36.65-2.75zm-34.56-12.9c11.3-4.14 16.17-6.64 16.67-8.55.28-1 .3-2 .05-2.25-.42-.42-13.45 2.24-21.6 4.4-3.53.94-3.74 1.23-3.74 4.96 0 2.17.4 3.95.9 3.95.47 0 3.96-1.13 7.74-2.52zm5.55-21.63l11.67-3.18-.52-5.08c-.28-2.8-.66-5.6-.84-6.2-.23-.8-3.05-.72-10.1.25-14.35 1.98-13.4 1.27-13.4 9.92 0 4.1.34 7.44.76 7.45.4 0 6-1.42 12.43-3.17zm-25-22.87c-.18-4.1-.5-7.6-.7-7.82-.2-.2-2.43.42-4.93 1.38l-4.56 1.74v14.52l5.26-1.2 5.25-1.17-.3-7.44zm32.06-.67c3.32.45 3.75.26 3.75-1.65.02-1.18.3-4.46.64-7.3l.62-5.13-4.38.37c-20.38 1.73-18.43.64-19.48 10.86l-.66 6.42 7.88-2.03c4.5-1.17 9.5-1.82 11.64-1.54zm-35.94-12.38l3.8-1.06-.68-5.68c-.37-3.13-.82-5.85-1-6.04-.17-.2-2.56-.04-5.3.34l-5.02.68.53 5.17c.87 8.54.8 8.5 7.67 6.58zm32.34-7.62l9.15-.57.7-5.46c.36-3 .45-5.68.17-5.95-.4-.4-13.1 1.78-24.36 4.2-1.98.42-2.1.77-1.15 3.7.57 1.8 1.22 3.87 1.46 4.62.3.9 1.18 1.13 2.67.68 1.23-.37 6.35-.93 11.4-1.24zm-70.6-15.4c-10.66-1.2-15.12-2.4-18.35-4.93-3.16-2.5-5.36-8.47-3.8-10.36.82-.98 8.5-1.46 31.84-1.98 16.92-.4 32.04-.97 33.6-1.3 2.65-.57 2.8-.86 2.17-4.2-.44-2.37-1.9-4.66-4.33-6.76l-3.66-3.17 9-9.4c4.96-5.15 10.36-11.72 12-14.58 1.66-2.87 3.35-5.22 3.77-5.23 1.26-.03 4.68 6.24 5.36 9.83.84 4.45-.9 9.86-5.14 16.03-3.33 4.84-4.18 8.17-2.92 11.45.5 1.27 1.43 1.18 6.64-.67 5.98-2.1 6.13-2.26 9.46-9.22 1.86-3.9 3.64-9.32 3.97-12.08.72-6.03-1.45-14.3-5.18-19.8l-2.58-3.8 2.3-2.5c3.75-4.05 15.95-12.25 18.23-12.25 3.12 0 9.04 4.4 11.7 8.68 5.58 9.06 1.58 19.92-14.77 40.1l-2.66 3.28 8.4-3.12c19.75-7.35 33.77-12.14 41.27-14.08 6.96-1.8 8.7-1.93 13.27-.9 7.06 1.57 10.37 4.28 10.37 8.47 0 7.68-9.06 10.65-38.34 12.54-19 1.24-25.64 3.2-57.6 17-28.34 12.25-31.34 13.16-44.55 13.57-6.04.2-14.8-.08-19.44-.6zM277 188.2c-.82-.28-9.82-4.5-20-9.4-25-12-26.04-12.24-46.3-10.42-30.67 2.75-50.5 6.93-57.24 12.07-1.73 1.32-4.1 2.4-5.3 2.4-1.18 0-2.15.45-2.15 1s-1.94 1-4.32 1c-9.15 0-19.5-10.7-18.4-19 .3-2.15 1.54-5.34 2.8-7.1 3.06-4.3 6.87-13.77 6.9-17.15.02-2.7-.13-2.63-7.22 3.34-9.8 8.25-21.52 15.93-31.76 20.84-11.82 5.66-34.07 11.12-33.97 8.32.02-.4 3.6-2.43 7.94-4.5 13.26-6.27 28.5-17.2 41.3-29.63 9.64-9.36 12.42-12.74 15.27-18.53 4.78-9.74 6.22-20.28 4.63-33.88l-1.2-10.08 2.77-2.94c3.34-3.55 13.7-8.7 17.53-8.7 3.08 0 5.9 3.66 7.9 10.26 1.1 3.54 1.38 3.75 5.24 3.73 12.07-.05 36.28-7.53 56-17.3l16.1-8 9.57-.45c10.77-.5 18 .7 25.62 4.22 7.56 3.5 10 9.4 7.2 17.42-1.97 5.67-5.5 6.2-22.97 3.54-12.4-1.9-23.14-1.4-37.9 1.73l-10.23 2.17-7.24 7.1c-7.95 7.76-12.02 13.98-13.12 20-.65 3.55-.55 3.84 1.17 3.2 4.54-1.7 12.9-7.5 19.9-13.8 4.17-3.75 8.45-6.82 9.52-6.82 4.23 0 9.8 3.12 11.07 6.2 1.2 2.95.65 15.83-1.78 40.9l-.54 5.6 7.86.54c9.2.62 20.07 4.04 32.94 10.32 15.6 7.62 21.43 14.34 21.43 24.7 0 2.93-.53 5.87-1.2 6.53-1.2 1.2-5 1.47-7.8.54zm-123.88-29.85c4.15-6.44 11.9-22.44 11.9-24.58 0-.5-2.15-.92-4.76-.93-2.62 0-7.62-.47-11.13-1.04-3.5-.57-6.57-.84-6.8-.6-.43.43 3.3 29.2 4.36 33.48.65 2.7.54 2.8 6.42-6.33zm29.4-3.65c3.84-1.64 11.04-4.03 16-5.3 10.43-2.72 10.17-2.3 10.37-16.73.08-6.58-.26-9.04-1.43-10.2-1.65-1.66-2.08-1.57-10.96 2.45-2.74 1.24-8.3 3.42-12.32 4.85l-7.33 2.58-5.9 14.5c-3.25 7.98-5.9 14.6-5.93 14.74-.02.3 8.47-3.05 17.5-6.9zm-15.3-33.88c3.62-1.02 3.8-1.28 6.8-10.63 4.1-12.82 4.63-17.2 2.57-21.18l-1.65-3.17h-16.89l.58 2.9c1.37 6.88-5.37 28.97-9.65 31.6-4.17 2.58 9.44 2.93 18.22.47z"/><path fill="#871a1f" d="M62.5 445.15c-27.85-3.98-50.36-22.5-59.28-48.8l-2.7-8-.28-161.5C-.06 45.03-.5 56.36 7.42 40.32c5.34-10.8 13.7-20.38 23.46-26.86C39.34 7.8 45.3 5.24 55.5 2.8 63.16.94 68.58.86 178.3.85c130.6 0 123.08-.44 140.65 8.16 8.7 4.26 11.7 6.38 18 12.73 8.68 8.75 13.95 17.2 17.83 28.6l2.73 8v164c0 153.63-.1 164.4-1.76 170.4-6.84 24.74-25.9 43.45-51.73 50.72-6.1 1.73-13.3 1.84-122.5 1.97-63.8.08-117.34-.05-119-.3zM306 439c19.6-7.05 34.46-20.06 42.17-36.9 6.1-13.37 5.8-3.87 5.82-178.84 0-156.08-.04-160.28-1.97-167.8-5.17-20.23-20.97-38.04-40.94-46.15-13.35-5.4-14.25-5.45-131.98-5.43-66.8 0-111.27.4-115.5 1.02C48.9 7 36.28 13.06 25.24 23.3 18.12 29.9 14.32 35 9.95 43.8c-6.22 12.55-5.9 3.15-5.93 179.6-.02 178-.45 165.9 6.46 179.95 6.98 14.17 17.33 24.33 32.2 31.6 14.53 7.1 7.76 6.8 138.83 6.58l118-.18L306 439zm-178.5-44c-5.03-3.12-6.45-5.5-8.8-14.8l-2.27-8.96-4.96 1.36c-2.73.74-8.1 1.44-11.96 1.55-11.72.34-18.48-4.76-18.5-13.94v-4.14l4.26 1.04c4.85 1.2 26.22 1.6 27.3.54.38-.4-.48-6.82-1.93-14.3-2.47-12.8-3.35-23.43-2.04-24.74 1.25-1.25 6.54 1.62 7.93 4.3.8 1.57 2.86 9.5 4.55 17.64 1.7 8.14 3.27 15 3.5 15.22.62.62 9.33-1.47 20.94-5.02l10.02-3.06-.38-7.66c-.2-4.22-.57-7.88-.8-8.13-.25-.27-3 .4-6.15 1.5-5.64 1.94-5.7 2-6.35 6.65-.86 6.1-1.58 7.26-3.5 5.67-5.38-4.46-10.65-25.3-10.77-42.5-.1-15.4.47-16.28 10.28-16.2 8.65.06 15.3-1.75 39.04-10.63 32.9-12.3 38.14-13.38 44.64-9.1 4.4 2.87 3.36 6.63-3.48 12.58-5.6 4.87-6.04 5.6-7.6 12.32-1.06 4.48-1.88 13.54-2.2 24.25l-.52 17.1 14.38-.07c15.35-.07 20.72.9 33.9 6.1 17.54 6.94 24.4 15.8 19.5 25.22-6.28 12.17-43.55 32.08-59.97 32.04-9.2-.02-37.28-7.9-50.27-14.1l-6.27-3-3.34 2.56c-2.25 1.72-4.62 2.56-7.25 2.57-5.32.02-8.58 1.86-10.6 6-3.2 6.6-5.06 7.35-10.3 4.12zm18.64-21.37l9.87-5.22v-4.84c0-4.15-.24-4.76-1.74-4.3-19.96 6.25-24.9 7.9-25.62 8.6-1.2 1.13 4.34 11 6.16 11 .82 0 5.92-2.36 11.34-5.23zm50.87 4.15c20.24-3.27 40.54-14.22 44.4-23.93 3.15-7.96-1.13-9.92-17.63-8.06-14.62 1.64-13.76 1.12-13.76 8.47 0 5.32-.43 6.88-2.85 10.22-6.12 8.45-11.3 9.48-16.23 3.25-2.92-3.7-3.6-4.05-6.62-3.56-6.8 1.1-22.3 9.98-22.3 12.78 0 .72 5.06 1.1 22.5 1.66 3.3.1 8.93-.28 12.5-.86zm-22.32-16.04c11.46-4.04 14.04-5.42 14.85-7.95.36-1.16.5-2.27.28-2.47-.37-.38-14.3 2.5-21.7 4.5-3.92 1.05-4.1 1.27-4.1 5.06 0 2.17.42 3.95.93 3.95.5 0 4.9-1.4 9.75-3.1zm14.9-26.35c-.3-1.13-.55-3.9-.56-6.17v-4.13l-4.76.5c-2.62.3-7.9 1.03-11.75 1.66l-7 1.15-.28 8.1-.3 8.1 12.6-3.6c11.45-3.23 12.56-3.75 12.06-5.6zm-37.7-9.72c2.3-.85 2.36-1.1 1.67-8.1-.4-3.98-.9-7.4-1.1-7.62-.22-.22-2.43.38-4.92 1.33L143 313V327.8l3.26-.62c1.78-.34 4.32-1.02 5.62-1.5zm24.13-7.44c3.58-.85 7.9-1.33 9.63-1.06l3.13.5.7-7c.37-3.86.54-7.15.37-7.3-.7-.62-21.16 1.4-21.88 2.17-.4.44-1.17 4.1-1.68 8.12-.9 7.14-.87 7.3 1.16 6.73 1.14-.33 5-1.3 8.58-2.16zm-23.37-14.68c.23-.23.13-2.96-.24-6.07-.73-6.15-1.2-6.44-8.23-5.03-3.02.6-3.08.72-2.56 5.25 1.1 9.58.8 9.22 6 7.65 2.54-.76 4.8-1.57 5.03-1.8zm29.53-6.36l8.64-.58.7-5.47c.36-3 .47-5.66.23-5.9-.24-.25-6.24.63-13.33 1.93-14.04 2.6-13.1 1.87-11.7 9.02.5 2.58.85 2.78 3.68 2.2 1.72-.33 7.02-.88 11.77-1.2zm-70.36-15.43c-14.66-1.55-21.06-4.45-22.63-10.23-1.76-6.46-2.5-6.3 32.03-7.03 17.22-.35 32.37-.94 33.66-1.3 3.6-.98 2.35-6.9-2.3-10.85l-3.53-3 7.65-8c4.2-4.4 9.67-11.1 12.14-14.9 4.22-6.5 4.57-6.8 5.94-5 2.32 3.03 4.25 8.1 4.22 11.12-.02 3.54-2.9 9.88-6.32 13.93-1.9 2.24-2.65 4.27-2.65 7.08 0 2.17.26 4.2.58 4.5.32.33 3.28-.32 6.6-1.44 4.48-1.52 6.5-2.82 7.93-5.16 2.7-4.36 5.9-15.08 5.9-19.7 0-4.7-2.38-12-5.58-17.06l-2.4-3.78 5.64-4.6c3.1-2.5 7.6-5.73 10-7.14 3.9-2.28 4.73-2.43 7.36-1.34 4.18 1.73 9.7 8.17 10.93 12.77 1.95 7.26-4.17 20.1-15.94 33.48-2.3 2.62-3.7 4.75-3.17 4.75.55 0 5.2-1.6 10.34-3.58 15.2-5.83 37.04-13.1 43.08-14.36 6.77-1.4 12.17-.25 16.7 3.57 5.95 5 2.75 10.72-7.7 13.8-3.15.92-11.82 2.12-19.24 2.66-27.2 1.97-33.44 3.54-59.66 15-21.3 9.32-33 13.86-39.7 15.45-6.6 1.55-17.5 1.7-29.84.4zM277 188.2c-.82-.28-9.82-4.5-20-9.4-25-12-26.04-12.24-46.3-10.42-30.67 2.75-50.5 6.93-57.24 12.07-1.73 1.32-4.1 2.4-5.3 2.4-1.18 0-2.15.45-2.15 1s-1.94 1-4.32 1c-9.15 0-19.5-10.7-18.4-19 .3-2.15 1.54-5.34 2.8-7.1 3.06-4.3 6.87-13.77 6.9-17.15.03-2.7-.13-2.63-7.22 3.34-9.8 8.25-21.52 15.93-31.76 20.84-11.82 5.66-34.07 11.12-33.97 8.32.02-.4 3.6-2.43 7.94-4.5 13.26-6.27 28.5-17.2 41.3-29.63 9.64-9.36 12.42-12.74 15.27-18.53 4.78-9.74 6.22-20.28 4.63-33.88l-1.2-10.08 2.77-2.94c3.34-3.55 13.7-8.7 17.53-8.7 3.08 0 5.9 3.66 7.9 10.26 1.1 3.54 1.38 3.75 5.24 3.73 12.07-.05 36.28-7.53 56-17.3l16.1-8 9.57-.45c10.77-.5 18 .7 25.62 4.22 7.56 3.5 10 9.4 7.2 17.42-1.97 5.67-5.5 6.2-22.97 3.54-12.4-1.9-23.14-1.4-37.9 1.73l-10.23 2.17-7.24 7.1c-7.95 7.76-12.02 13.98-13.12 20-.65 3.55-.55 3.84 1.17 3.2 4.54-1.7 12.9-7.5 19.9-13.8 4.17-3.75 8.45-6.82 9.52-6.82 4.23 0 9.8 3.12 11.07 6.2 1.2 2.95.65 15.83-1.78 40.9l-.54 5.6 7.86.54c9.2.62 20.07 4.04 32.94 10.32 15.6 7.62 21.43 14.34 21.43 24.7 0 2.93-.53 5.87-1.2 6.53-1.2 1.2-5 1.47-7.8.54zm-123.88-29.85c4.15-6.44 11.9-22.44 11.9-24.58 0-.5-2.15-.92-4.76-.93-2.62 0-7.62-.47-11.13-1.04-3.5-.57-6.57-.84-6.8-.6-.43.43 3.3 29.2 4.36 33.48.65 2.7.54 2.8 6.42-6.33zm29.4-3.65c3.84-1.64 11.04-4.03 16-5.3 10.43-2.72 10.17-2.3 10.37-16.73.08-6.58-.26-9.04-1.43-10.2-1.65-1.66-2.08-1.57-10.96 2.45-2.74 1.24-8.3 3.42-12.32 4.85l-7.33 2.58-5.9 14.5c-3.25 7.98-5.9 14.6-5.93 14.74-.02.3 8.47-3.05 17.5-6.9zm-15.3-33.88c3.62-1.02 3.8-1.28 6.8-10.63 4.1-12.82 4.63-17.2 2.57-21.18l-1.65-3.17h-16.89l.58 2.9c1.37 6.88-5.37 28.97-9.65 31.6-4.17 2.58 9.44 2.93 18.22.47z"/><path d="M59.5 444.37c-14.22-2.7-26.5-8.92-37-18.72C10.87 414.8 3.25 400.83 1 386.27c-.7-4.73-.96-57.74-.77-167.42L.5 58.35l2.73-8c6.93-20.33 21.86-36.1 41.82-44.17C58.72.66 55.35.78 182.3 1.08l117.2.27 7.67 2.62c27.46 9.37 45.66 30.4 49.84 57.52.73 4.65.97 57.95.76 166.35-.34 178.78.4 162.25-7.9 179-3.34 6.77-5.94 10.24-12.78 17.04-9.52 9.46-18.92 15.07-32.1 19.12l-7.47 2.3-115.5.2c-92.6.14-116.88-.08-122.5-1.15zm242.88-4.5c19.08-4.86 36.34-18.48 44.45-35.03 7.73-15.78 7.18-1.88 7.16-181.45-.03-178.2.38-167.04-6.53-181.05C340.87 29 330.4 18.68 316.5 11.8 300.38 3.86 309.7 4.36 179 4.36c-129.74 0-121.1-.43-136.5 6.88-14.4 6.86-25.22 17.37-32 31.12C3.56 56.38 4 44.2 4 223.17 4 402.8 3.54 390 10.7 404.62c6.07 12.4 20.2 25.8 33.05 31.36 2.6 1.13 7.9 2.9 11.76 3.9 6.62 1.76 13.34 1.87 123.1 1.92 112.3.05 116.34 0 123.78-1.92zM275 187.43c-1.92-.72-10.77-4.96-19.66-9.42-22.38-11.25-23.53-11.5-45.1-9.6-29.54 2.58-49.63 6.82-57.43 12.13-2.02 1.38-4.1 2.25-4.62 1.93-.52-.32-1.5.08-2.18.9-2.75 3.3-10.53 1.06-16.83-4.87-7.14-6.73-7.78-11.47-2.67-19.93 3.98-6.6 6.83-14.52 6.34-17.64-.3-1.9-1.17-1.42-7.87 4.18-14.2 11.9-29.6 21.05-42.3 25.18-8.5 2.76-19.83 5.02-21.85 4.35-.7-.24 3.68-3 9.72-6.14 15.12-7.9 27.93-17.26 40.52-29.65 11.9-11.72 14.92-16.7 17.55-29.02 1.58-7.33 1.48-20.5-.2-28.74-.57-2.87-.2-3.7 2.97-6.68 4.24-4 13.38-8.57 17.15-8.57 2.3 0 3.05.9 5.82 7l3.17 7 4.5-.02c12.16-.05 36.6-7.7 56.94-17.8l15.44-7.68h11.56c14.55 0 21.78 1.98 27.27 7.47 4.14 4.13 4.84 7.77 2.7 13.9-1.97 5.67-5.5 6.2-22.97 3.54-12.28-1.88-23.14-1.4-38.18 1.66l-10.24 2.1-6.33 6.16c-3.48 3.4-7.58 7.97-9.1 10.17-2.62 3.76-6.47 14.43-5.55 15.35 1.02 1.02 15.1-8.52 21.94-14.87 4.14-3.84 8.1-6.98 8.8-6.97 3.5 0 8.88 2.35 10.7 4.66 1.47 1.86 2.05 4.08 2.05 7.8 0 5.92-2.77 36.2-3.54 38.64-.42 1.36.77 1.7 7.77 2.14 9.4.6 17.16 2.96 30.73 9.36 17.4 8.2 24.05 15.3 24.05 25.64 0 7.34-3.22 9.2-11 6.32zm-122.56-27.57c2.63-3.85 6.68-11.4 9-16.75l4.23-9.75-8.46-.74c-4.65-.4-9.97-1.15-11.83-1.66-2.95-.8-3.36-.7-3.36.94 0 3.97 4.8 34.97 5.4 34.97.14 0 2.4-3.15 5.04-7zm25.44-3.03c6.68-2.76 16.07-6.07 20.87-7.34 10.22-2.7 10-2.36 10.16-16.76.12-10.88-.63-12.38-5.53-10.97-1.64.47-4.53 1.67-6.42 2.67-1.9 1-7.23 3.2-11.86 4.87l-8.43 3.05-5.32 13c-5.92 14.46-6.67 16.5-6.05 16.5.24 0 5.9-2.26 12.58-5.03zm-10.66-35.97c3.65-1.05 3.76-1.24 7.25-12.02 3.84-11.88 4.16-14.6 2.33-19.66l-1.2-3.32H158.5l-.1 6.87c-.15 8.3-2.56 16.4-6.97 23.4-2.36 3.74-2.95 5.43-2.1 6.02 1.43 1 12.78.18 17.9-1.3z"/></g></g></svg>