<svg xmlns="http://www.w3.org/2000/svg" width="358.851" height="445.846" viewBox="0 0 358.85056 445.84634"><g><g><path fill="#e0c5c6" d="M56.5 444.42c-24.66-5.38-44.73-23.13-53.18-47.04l-2.82-8-.26-163.23C-.06 43.55-.5 55.58 7.2 39.95c3.4-6.9 5.98-10.32 13.26-17.63 10-10.03 18.94-15.4 32.57-19.6L60.5.45l113-.32c120.12-.34 123.76-.23 136.82 4.4 27.18 9.67 44.7 31.77 47.74 60.22.68 6.34.93 63.12.72 165.65-.36 175.1.35 159.5-7.96 176.5-5.84 11.94-18.64 24.72-30.82 30.8-17.5 8.7-8.85 8.2-140.9 8.1-92.1-.05-117.86-.34-122.6-1.38zm246-4.8c3.3-.96 9.83-3.6 14.5-5.9 12-5.83 23.96-17.8 29.87-29.83 7.63-15.56 7.2-4.1 6.9-183.78L353.5 59.4l-2.82-8c-3.83-10.82-8.83-18.75-16.72-26.5-7.9-7.77-16.6-13.1-27.46-16.8l-8-2.7h-239l-8 2.8c-18.72 6.6-32.55 18.63-40.47 35.2C4.06 57.95 4.5 45.82 4.5 223.9v161.5l2.9 8.84c7.82 23.87 28.18 41.58 53.1 46.2 5.52 1.02 31.28 1.25 121.5 1.1 105.7-.16 114.96-.3 120.5-1.92zm-97.6-43.65c-13.46-2.9-26.14-6.78-36.32-11.15l-9.37-4.02-3.72 2.54c-2.42 1.64-4.5 2.33-5.96 1.97-1.23-.3-3.88.13-5.9.97-2.8 1.17-4.12 2.6-5.6 6.08-1.84 4.3-2.16 4.54-5.9 4.54-2.84 0-4.87-.77-7.13-2.67-3.48-2.92-4.43-4.9-6.64-13.84-.8-3.3-1.64-6.52-1.84-7.14-.27-.83-2.1-.73-6.7.33-16.8 3.9-28.57-1.25-29.1-12.75-.22-4.38-.17-4.46 2.78-4.2 7.8.62 29.5 1.46 29.5 1.12 0-.2-1.12-6-2.48-12.88-1.36-6.9-2.48-15.77-2.5-19.76-.02-6.67.15-7.25 2.05-7.25 6.04 0 7.9 3.37 11.42 20.9 3.8 18.94 2.36 17.33 13 14.54 4.95-1.3 11.48-3.2 14.5-4.24l5.5-1.9.3-5.45c.16-3-.07-6.4-.5-7.55l-.8-2.1-5.07 1.9c-4.97 1.86-5.08 2-6 7.14-1.9 10.8-7.38 4.95-12.1-12.94-2.17-8.2-2.6-12.17-2.7-24.14-.13-14.06-.08-14.37 2.3-16.32 2-1.6 3.34-1.86 7.07-1.35 6.6.9 14.48-1.2 40.83-10.93 33.64-12.4 38.43-13.3 44.68-8.4 4.35 3.42 3.4 6.9-3.53 13-7.86 6.93-9.27 12.35-10.38 39.82l-.56 13.5 16.23.02c15.08.03 16.83.23 24.73 2.85 27.28 9.05 35.47 20.56 23.7 33.33-11.34 12.3-37.72 25.75-54.2 27.64-3.16.36-8.17-.1-13.6-1.27zM145 373.64l9.84-5.25.34-4.26c.18-2.34.16-4.25-.06-4.25-1.4 0-26.12 8.2-26.12 8.65 0 .88 5.26 10.34 5.75 10.34.24 0 4.85-2.37 10.26-5.26zm58.27 2.3c9.84-2.5 21.37-7.34 28.1-11.76 8.13-5.36 12.77-13.75 9.43-17.1-1.5-1.5-10.5-1.53-21.73-.1l-8.57 1.1.35 4.94c.47 6.62-.3 9.17-4 13.4-3.9 4.42-8.35 6.8-11.33 6.06-1.24-.3-3.47-2.14-4.94-4.08-1.73-2.27-3.52-3.5-5.04-3.5-4.1 0-13.12 4.03-17.95 8l-4.65 3.85 2.77.42c1.53.23 8.9.5 16.37.57 10.54.12 15.27-.28 21.17-1.8zM187.6 355.8c2.3-1.9 1.74-4.2-.85-3.6-1.24.27-6.64 1.48-12 2.68l-9.75 2.17v7.6l10.6-3.85c5.84-2.1 11.24-4.37 12-5zm-9.35-15.5l10.74-2.9v-11.74l-5.75.67c-3.16.36-8.28 1.14-11.37 1.72l-5.63 1.05-.6 5.14c-.95 7.8-.8 9.92.6 9.4.7-.25 6.1-1.76 12-3.35zm-28.6-14.55c3.9-.98 4.43-1.43 3.94-3.25-.32-1.16-.58-4.45-.6-7.3V310l-4.5 1.65-4.5 1.67v6.8c0 3.72.25 6.77.56 6.77.3 0 2.6-.52 5.08-1.15zM173 318.4c3.03-.82 7.86-1.5 10.75-1.5H189v-4.26c.02-2.34.32-5.33.67-6.65l.64-2.4-9.74.7c-5.36.4-10.34.95-11.07 1.23-.74.28-1.63 2.84-2 5.68-.35 2.86-.87 5.98-1.14 6.94-.6 2.1-.33 2.12 6.64.25zm-24.87-13.67l3.87-1.16v-11.42l-4.75.5c-2.6.28-4.86.6-5 .7-.46.38 1.02 12.54 1.53 12.54.27 0 2.23-.53 4.35-1.17zm28.68-7.88c3.32-.65 7.87-1 10.1-.8 4.1.4 4.1.4 4.1-3.13.02-1.94.28-4.47.6-5.63l.55-2.1-12.82 2.46c-7.06 1.35-12.9 2.52-13 2.6-.1.08.33 2.07.96 4.4.67 2.57 1.6 4.1 2.3 3.83.66-.27 3.9-1 7.2-1.65zM106 281.72c-11.83-1.67-18-6.5-18-14.1 0-2.17.55-2.53 4.64-3.1 2.55-.34 15.04-.68 27.75-.75 12.7-.06 26.03-.4 29.6-.75 6.5-.63 6.5-.63 6.23-3.63-.18-2.06-1.5-4.1-4.2-6.45l-3.95-3.43 7.98-8.3c4.38-4.58 10-11.47 12.5-15.32 2.5-3.86 4.73-7 4.97-7 1.02 0 5.34 7.75 5.94 10.66.94 4.57-1 10.55-5.18 16.04-2.82 3.68-3.62 5.6-3.44 8.25.13 1.9.36 3.6.52 3.75.57.57 10.17-3.03 11.78-4.42 2.23-1.93 5.68-10.15 7-16.68 1.24-6.2-.56-14.12-4.72-20.7-1.34-2.13-2.44-4.26-2.44-4.74 0-1.03 9.67-8.72 15.8-12.57 5.08-3.2 6.78-2.9 12.38 2.17 5.17 4.67 6.83 8.06 6.8 13.92-.04 7.3-4.63 16.05-14.72 28.04-2.43 2.9-4.2 5.25-3.95 5.25.27 0 6.3-2.2 13.43-4.9 21.22-8.03 35.37-12.32 42.27-12.82 5.5-.4 7.18-.1 11 1.95 8.77 4.7 7.8 11.52-2.2 15.5-5.6 2.23-13.32 3.33-36.3 5.2-14.5 1.16-22.6 3.73-53 16.8-29.44 12.67-31.7 13.3-48.36 13.14-7.5-.07-16.56-.54-20.14-1.05zm136.5-95.03c-4.74-2.7-11.72-9.26-24.83-23.3-23.2-24.88-27.72-31.4-23.03-33.2 6.3-2.42 52.53 22.8 61.3 33.42 4.1 4.97 4.1 9.9.05 16.98-4.07 7.1-8.35 9.02-13.5 6.1zm-157-.64c-4.38-.74-5.88-3.38-2.8-4.97 1-.52 5.63-1.5 10.3-2.15 11.48-1.63 37.42-11.88 43.3-17.1 3.9-3.45 4.07-3.85 2.92-6.37-.67-1.48-1.22-4.96-1.22-7.74 0-4.4.43-5.48 3.4-8.45 2.95-2.96 4.06-3.4 8.32-3.4 9.9 0 21.26 4.9 27.6 11.92 7.16 7.93 6.97 15.67-.53 21.1-7.88 5.7-29.1 12.1-51.04 15.4-11.33 1.7-34.54 2.7-40.25 1.74zm24.25-56.77c-6.5-2-12.15-7.67-11.25-11.27 1.4-5.67 2.35-5.97 18.32-5.84 10.6.08 17.04-.38 23.18-1.67 14.45-3.02 24-5.8 24-7 0-1.65-2.82-5.7-8.22-11.9-5.7-6.5-8.73-12.84-8.76-18.3-.03-5.27 4.15-13.6 8.7-17.35 7.12-5.88 13.18-4.84 23.42 4.03 6.8 5.9 11.02 12.42 11.15 17.22.13 4.7-3.56 11.25-10.1 17.92-3.1 3.16-5.15 5.75-4.56 5.75.6 0 7.87-2.7 16.17-5.97 21.9-8.63 28.26-10.4 35.15-9.78 10.05.9 35.34 10.54 44.13 16.8 4.07 2.9 6.06 7.2 6.2 13.4.15 6.44-1.97 10.1-7.1 12.25-5.27 2.2-13.6.45-29.7-6.24-19.63-8.17-24.24-9.58-33.2-10.2-10.66-.7-16.84.56-38.28 7.93-29.13 10-36.17 11.8-45.92 11.72-4.72-.04-10.72-.73-13.33-1.53z"/><path fill="#bebebe" d="M56.5 444.42c-24.66-5.38-44.73-23.13-53.18-47.04l-2.82-8-.26-163.23C-.06 43.55-.5 55.58 7.2 39.95c3.4-6.9 5.98-10.32 13.26-17.63 10-10.03 18.94-15.4 32.57-19.6L60.5.45l113-.32c120.12-.34 123.76-.23 136.82 4.4 27.18 9.67 44.7 31.77 47.74 60.22.68 6.34.93 63.12.72 165.65-.36 175.1.35 159.5-7.96 176.5-5.84 11.94-18.64 24.72-30.82 30.8-17.5 8.7-8.85 8.2-140.9 8.1-92.1-.05-117.86-.34-122.6-1.38zm246-4.8c3.3-.96 9.83-3.6 14.5-5.9 12-5.83 23.96-17.8 29.87-29.83 7.63-15.56 7.2-4.1 6.9-183.78L353.5 59.4l-2.82-8c-3.83-10.82-8.83-18.75-16.72-26.5-7.9-7.77-16.6-13.1-27.46-16.8l-8-2.7h-239l-8 2.8c-18.72 6.6-32.55 18.63-40.47 35.2C4.06 57.95 4.5 45.82 4.5 223.9v161.5l2.9 8.84c7.82 23.87 28.18 41.58 53.1 46.2 5.52 1.02 31.28 1.25 121.5 1.1 105.7-.16 114.96-.3 120.5-1.92zm-99.5-44.2c-13.8-3.06-28.87-7.94-37.24-12.04l-6.74-3.3-3.63 2.9c-2.67 2.1-4.3 2.72-6.08 2.27-4.14-1.03-9.67 2.2-11.87 6.95-2.36 5.08-5.73 5.92-10.9 2.72-3.9-2.42-6.82-7.9-8.64-16.33-.67-3.2-1.54-6-1.9-6.2-.36-.23-3.1.23-6.08 1.02-15.42 4.1-27.6-.68-29.4-11.53-.87-5.38.18-6.2 6.43-5.02 6.5 1.23 26.05 1.34 26.05.15 0-.48-1.12-6.4-2.5-13.14-1.37-6.76-2.5-15.37-2.5-19.15 0-6.03.23-6.86 1.87-6.86 2.57 0 7.08 3.72 8.26 6.84.54 1.42 2.1 8.22 3.48 15.1 3.48 17.43 2.73 15.98 7.68 14.9 2.32-.5 9.06-2.3 14.97-4l10.75-3.1v-6.3c0-9.43-.16-9.62-6.3-7.53-5.08 1.74-5.13 1.8-6.16 7.16-1.2 6.23-3.44 7.54-6.06 3.54-4.62-7.06-9.48-28.94-9.48-42.72 0-12.72 2.34-16.3 10.03-15.33 6.47.8 16.33-1.7 37.44-9.58 27.17-10.12 37.4-13.23 41.23-12.5 4.12.76 9.3 5.08 9.3 7.73 0 1.2-2.64 4.57-6.38 8.16-5.57 5.36-6.52 6.82-7.55 11.63-.94 4.37-2.85 29.27-3.03 39.53-.04 1.96.4 2.02 13.02 1.63 10.05-.32 14.73 0 20.25 1.32 15.8 3.8 28.5 10.16 33.88 17 3.53 4.5 3.22 11.2-.75 16.17-9.54 11.94-39.7 27.94-55.93 29.7-3.35.35-8.47-.25-15.5-1.82zm-58.02-21.57l9.82-5.04.44-4.2c.24-2.32.3-4.38.15-4.58-.67-.83-26.4 8-26.4 9.06 0 1.36 4.85 9.8 5.63 9.8.3 0 4.96-2.26 10.35-5.03zm60.03 1.68c22.32-6.2 35.14-14.55 36.65-23.84 1-6.23-3.22-7.14-22.08-4.77l-9.18 1.16.4 5.64c.36 5.1.07 6.13-2.95 10.58-4.16 6.13-9.47 9.16-13.12 7.5-1.38-.64-3.1-2.26-3.83-3.62-2.15-4.02-4.1-4.47-10.2-2.38-6.92 2.38-9.23 3.6-14.12 7.44-3.88 3.04-3.9 3.08-1.5 3.75 1.33.4 8.95.74 16.93.8 12.4.08 15.76-.26 23-2.27zm-18.75-18.7c2.6-1.2 3.93-4.94 1.77-4.94-.54 0-5.94 1.15-12 2.57l-11.02 2.6V364.84l9.25-3.36c5.1-1.87 10.5-3.96 12-4.66zm-7.5-16.5l10.25-2.76v-5.84c0-5.4-.17-5.84-2.25-5.84-2.73 0-19.82 2.73-20.33 3.24-.2.2-.68 3.67-1.05 7.72-.65 6.92-.58 7.3 1.22 6.78 1.04-.3 6.5-1.8 12.15-3.3zm-28.63-14.46l3.6-1-.48-7.24c-.28-3.98-.6-7.35-.7-7.48-.1-.13-2.03.5-4.3 1.37l-4.1 1.6-.3 6.9c-.37 7.6-.3 7.68 6.28 5.85zm31.5-8.7l7.13-.55.55-6.1c.3-3.36.37-6.3.16-6.5-.22-.23-5 0-10.62.48-11.5 1-10.88.42-12.12 11.08l-.6 5.18 4.18-1.5c2.3-.83 7.4-1.77 11.32-2.08zm-33.37-12.33l3.75-1.04v-11.66l-4.75.5c-2.6.3-4.86.6-5 .72-.53.42 1.06 12.53 1.64 12.52.33 0 2.3-.47 4.35-1.04zm28.56-8c3.32-.64 7.82-1 10-.8l4 .38.47-5.5c.26-3.05.42-5.58.35-5.64-.15-.14-25.05 4.76-25.3 4.97-.1.1.34 2.08.97 4.42.67 2.56 1.6 4.1 2.3 3.82.66-.27 3.9-1 7.2-1.65zm-69.76-15.08c-8.83-1.32-14.56-4.03-17-8.05-2.3-3.76-2.63-7.32-.8-8.48.7-.43 16-1.06 34.02-1.4 18.02-.34 33-.87 33.32-1.17.3-.3.25-2.17-.13-4.15-.48-2.6-1.74-4.4-4.5-6.43l-3.86-2.82 7.98-7.93c4.4-4.36 9.87-10.86 12.16-14.43 2.28-3.6 4.33-6.74 4.54-7 .86-1.1 5.22 5.28 6.26 9.16 1.35 5-.43 10.56-5.47 17.17-2.63 3.44-3.14 4.9-2.8 7.94.25 2.05.83 3.72 1.3 3.72.47 0 3.3-.92 6.27-2.04 5.02-1.88 5.6-2.43 8-7.8 3.9-8.65 5.04-15.18 3.74-21.22-1.15-5.4-3.36-10.35-5.87-13.22-1.4-1.62-1.3-2.02 1.38-4.83 1.6-1.7 6.2-5.28 10.24-7.98 7.3-4.9 7.33-4.9 10.5-3.3 1.75.88 4.46 2.78 6.02 4.23 9.3 8.65 7.45 18.87-6.85 37.6-3.6 4.7-6.33 8.54-6.1 8.54.24 0 8.3-2.9 17.94-6.47 21.2-7.8 33.78-11.54 38.9-11.54 7.22 0 15.76 5.13 15.76 9.48 0 1.17-1.24 3.33-2.76 4.78-5.16 4.94-11.55 6.26-41.9 8.64-14.73 1.16-22.03 3.44-51.52 16.12-31.3 13.46-30.88 13.33-47.82 13.6-7.97.1-17.4-.22-20.96-.76zM242.5 186.7c-4.74-2.7-11.72-9.26-24.83-23.3-23.2-24.88-27.72-31.4-23.03-33.2 6.3-2.42 52.53 22.8 61.3 33.42 4.1 4.97 4.1 9.9.05 16.98-4.07 7.1-8.35 9.02-13.5 6.1zm-157-.64c-4.38-.74-5.88-3.38-2.8-4.97 1-.52 5.63-1.5 10.3-2.15 11.48-1.63 37.42-11.88 43.3-17.1 3.9-3.45 4.07-3.85 2.92-6.37-.67-1.48-1.22-4.96-1.22-7.74 0-4.4.43-5.48 3.4-8.45 2.95-2.96 4.06-3.4 8.32-3.4 9.9 0 21.26 4.9 27.6 11.92 7.16 7.93 6.97 15.67-.53 21.1-7.88 5.7-29.1 12.1-51.04 15.4-11.33 1.7-34.54 2.7-40.25 1.74zm24.25-56.77c-6.5-2-12.15-7.67-11.25-11.27 1.4-5.67 2.35-5.97 18.32-5.84 10.6.08 17.04-.38 23.18-1.67 14.45-3.02 24-5.8 24-7 0-1.65-2.82-5.7-8.22-11.9-5.7-6.5-8.73-12.84-8.76-18.3-.03-5.27 4.15-13.6 8.7-17.35 7.12-5.88 13.18-4.84 23.42 4.03 6.8 5.9 11.02 12.42 11.15 17.22.13 4.7-3.56 11.25-10.1 17.92-3.1 3.16-5.15 5.75-4.56 5.75.6 0 7.87-2.7 16.17-5.97 21.9-8.63 28.26-10.4 35.15-9.78 10.05.9 35.34 10.54 44.13 16.8 4.07 2.9 6.06 7.2 6.2 13.4.15 6.44-1.97 10.1-7.1 12.25-5.27 2.2-13.6.45-29.7-6.24-19.63-8.17-24.24-9.58-33.2-10.2-10.66-.7-16.84.56-38.28 7.93-29.13 10-36.17 11.8-45.92 11.72-4.72-.04-10.72-.73-13.33-1.53z"/><path fill="#c38c8f" d="M55 443.84C28.88 437.1 8.32 417.1 1.97 392.28.05 384.76 0 380.53 0 223.38 0 67.45.06 62 1.93 54.67 7.17 34.2 21.13 17.26 40.5 7.93 57.18-.1 48.2.4 178.5.4c131.52 0 123.35-.5 140.8 8.24 7.35 3.7 10.84 6.27 17.78 13.17 9.97 9.9 15.56 19.14 19.12 31.55l2.3 8.04v161.5c0 151.92-.1 161.9-1.8 168.5-5.3 20.72-19.63 37.8-39.9 47.52-15.12 7.25-9 6.94-138.3 6.9-111.42-.04-116.3-.12-123.5-1.98zm248.5-4.3c20-5.95 35.63-18.8 43.95-36.15 6.93-14.45 6.55-4.17 6.53-180.2 0-135.56-.23-159.84-1.48-165.8-3.92-18.76-17.6-36.03-35.52-44.88-16.18-7.98-9.2-7.6-137.78-7.6C50.64 4.88 57.73 4.5 41.5 12.44c-20.2 9.9-33.3 27.9-36.47 50-.8 5.72-1.04 51.96-.8 165.94.35 174.17-.15 160.57 6.54 174.76 9.2 19.5 28.65 33.88 51 37.7 2.6.46 56.7.74 120.23.64 107.6-.17 115.9-.3 121.5-1.96zM203 395.44c-13.8-3.08-28.87-7.96-37.24-12.06l-6.74-3.3-3.63 2.9c-2.67 2.1-4.3 2.72-6.08 2.27-4.14-1.03-9.67 2.2-11.87 6.95-2.36 5.08-5.73 5.92-10.9 2.72-3.9-2.42-6.82-7.9-8.64-16.33-.67-3.2-1.54-6-1.9-6.2-.36-.23-3.1.23-6.08 1.02-15.42 4.1-27.6-.68-29.4-11.53-.87-5.38.18-6.2 6.43-5.02 6.5 1.23 26.05 1.34 26.05.15 0-.48-1.12-6.4-2.5-13.14-1.37-6.76-2.5-15.37-2.5-19.15 0-6.03.23-6.86 1.87-6.86 2.57 0 7.08 3.72 8.26 6.84.54 1.42 2.1 8.22 3.48 15.1 3.48 17.43 2.73 15.98 7.68 14.9 2.32-.5 9.06-2.3 14.97-4l10.75-3.1v-6.3c0-9.43-.16-9.62-6.3-7.53-5.08 1.74-5.13 1.8-6.16 7.16-1.2 6.23-3.44 7.54-6.06 3.54-4.62-7.06-9.48-28.94-9.48-42.72 0-12.72 2.34-16.3 10.03-15.33 6.47.8 16.33-1.7 37.44-9.58 27.17-10.12 37.4-13.23 41.23-12.5 4.12.76 9.3 5.08 9.3 7.73 0 1.2-2.64 4.57-6.38 8.16-5.57 5.36-6.52 6.82-7.55 11.63-.94 4.37-2.85 29.27-3.03 39.53-.04 1.96.4 2.02 13.02 1.63 10.05-.32 14.73 0 20.25 1.32 15.8 3.8 28.5 10.16 33.88 17 3.53 4.5 3.22 11.2-.75 16.17-9.54 11.94-39.7 27.94-55.93 29.7-3.35.35-8.47-.25-15.5-1.82zm-58.02-21.6l9.82-5.03.44-4.2c.24-2.32.3-4.38.15-4.58-.67-.83-26.4 8-26.4 9.06 0 1.36 4.85 9.8 5.63 9.8.3 0 4.96-2.26 10.35-5.03zm60.03 1.7c22.32-6.22 35.14-14.56 36.65-23.85 1-6.23-3.22-7.14-22.08-4.77l-9.18 1.16.4 5.64c.36 5.1.07 6.13-2.95 10.58-4.16 6.13-9.47 9.16-13.12 7.5-1.38-.64-3.1-2.26-3.83-3.62-2.15-4.02-4.1-4.47-10.2-2.38-6.92 2.38-9.23 3.6-14.12 7.44-3.88 3.04-3.9 3.08-1.5 3.75 1.33.4 8.95.74 16.93.8 12.4.08 15.76-.26 23-2.27zm-18.75-18.7c2.6-1.2 3.93-4.95 1.77-4.95-.54 0-5.94 1.15-12 2.57l-11.02 2.6V364.84l9.25-3.36c5.1-1.87 10.5-3.96 12-4.66zm-7.5-16.5l10.25-2.77v-5.84c0-5.4-.17-5.84-2.25-5.84-2.73 0-19.82 2.73-20.33 3.24-.2.2-.68 3.67-1.05 7.72-.65 6.92-.58 7.3 1.22 6.78 1.04-.3 6.5-1.8 12.15-3.3zm-28.63-14.47l3.6-1-.48-7.24c-.28-3.98-.6-7.35-.7-7.48-.1-.13-2.03.5-4.3 1.37l-4.1 1.6-.3 6.9c-.37 7.6-.3 7.68 6.28 5.85zm31.5-8.7l7.13-.55.55-6.1c.3-3.36.37-6.3.16-6.5-.22-.23-5 0-10.62.48-11.5 1-10.88.42-12.12 11.08l-.6 5.18 4.18-1.5c2.3-.83 7.4-1.77 11.32-2.08zm-33.37-12.33l3.75-1.04v-11.66l-4.75.5c-2.6.3-4.86.6-5 .72-.53.42 1.06 12.53 1.64 12.52.33 0 2.3-.47 4.35-1.04zm28.56-8c3.32-.64 7.82-1 10-.8l4 .38.47-5.5c.26-3.05.42-5.58.35-5.64-.15-.14-25.05 4.76-25.3 4.97-.1.1.34 2.08.97 4.42.67 2.56 1.6 4.1 2.3 3.82.66-.27 3.9-1 7.2-1.65zm-69.76-15.08c-8.83-1.32-14.56-4.03-17-8.05-2.3-3.76-2.63-7.32-.8-8.48.7-.43 16-1.06 34.02-1.4 18.02-.34 33-.87 33.32-1.17.3-.3.25-2.17-.13-4.15-.48-2.6-1.74-4.4-4.5-6.43l-3.86-2.82 7.98-7.93c4.4-4.36 9.87-10.86 12.16-14.43 2.28-3.6 4.33-6.74 4.54-7 .86-1.1 5.22 5.28 6.26 9.16 1.35 5-.43 10.56-5.47 17.17-2.63 3.44-3.14 4.9-2.8 7.94.25 2.05.83 3.72 1.3 3.72.47 0 3.3-.92 6.27-2.04 5.02-1.88 5.6-2.43 8-7.8 3.9-8.65 5.04-15.18 3.74-21.22-1.15-5.4-3.36-10.35-5.87-13.22-1.4-1.62-1.3-2.02 1.38-4.83 1.6-1.7 6.2-5.28 10.24-7.98 7.3-4.9 7.33-4.9 10.5-3.3 1.75.88 4.46 2.78 6.02 4.23 9.3 8.65 7.45 18.87-6.85 37.6-3.6 4.7-6.33 8.54-6.1 8.54.24 0 8.3-2.9 17.94-6.47 21.2-7.8 33.78-11.54 38.9-11.54 7.22 0 15.76 5.13 15.76 9.48 0 1.17-1.24 3.33-2.76 4.78-5.16 4.94-11.55 6.26-41.9 8.64-14.73 1.16-22.03 3.44-51.52 16.12-31.3 13.46-30.88 13.33-47.82 13.6-7.97.1-17.4-.22-20.96-.76zm133.36-96.72c-5.3-3.86-30.35-29.74-39.82-41.12-7.65-9.2-8.55-11.4-5.45-13.34 4.97-3.13 48.74 20.85 59.66 32.7 4.92 5.35 5.53 9.87 2.1 15.6-5.66 9.44-9.86 11-16.5 6.16zm-152.9 1.2c-1.1-.24-3-.64-4.25-.9-2.92-.63-2.9-3.25.04-4.37 1.25-.48 6.54-1.56 11.74-2.4 9.57-1.55 29.4-8.87 38.77-14.33 5.1-2.95 6.92-6.13 5.3-9.16-1.57-2.94-1.36-9.8.42-13.22 2.3-4.45 6.75-6.3 13.6-5.7 15.13 1.38 31.5 15.05 29.42 24.56-1.88 8.54-18.03 16.08-46.13 21.55-18.1 3.52-41.9 5.45-48.9 3.96zm21.8-57.4c-2.84-1.12-6.53-3.6-8.2-5.48-2.7-3.07-2.9-3.76-1.95-6.47 1.6-4.6 3.87-5.32 14.27-4.54 12.2.9 26.4-1.07 46.92-6.57 3.5-.95 3.8-1.27 3.18-3.68-.36-1.46-3.38-5.8-6.7-9.7-11.08-12.9-12.44-20.5-5.54-30.9 4.72-7.1 10.7-10.25 16.54-8.68 4.38 1.18 16.63 11.8 20.12 17.46 4.35 7.04 2 14.3-8.1 25.1l-6.16 6.58 7.9-2.94c4.36-1.62 14-5.3 21.42-8.18 18.62-7.2 21.86-7.37 38.22-2.03 14.7 4.8 27.43 10.87 31.67 15.1 5.1 5.12 5.92 16.2 1.53 21.04-.96 1.06-3.57 2.42-5.8 3.02-5.5 1.47-12.72-.4-30.98-8.05-16.7-7-24.42-9.03-34.15-9.03-9.52 0-16.05 1.66-44 11.16-23.15 7.88-24.37 8.18-34.5 8.5-8.77.28-11.35 0-15.7-1.73z"/><path fill="#7b7b7b" d="M55 443.84C28.88 437.1 8.32 417.1 1.97 392.28.05 384.76 0 380.53 0 223.38 0 67.45.06 62 1.93 54.67 7.17 34.2 21.13 17.26 40.5 7.93 57.18-.1 48.2.4 178.5.4c131.52 0 123.35-.5 140.8 8.24 7.35 3.7 10.84 6.27 17.78 13.17 9.97 9.9 15.56 19.14 19.12 31.55l2.3 8.04v161.5c0 151.92-.1 161.9-1.8 168.5-5.3 20.72-19.63 37.8-39.9 47.52-15.12 7.25-9 6.94-138.3 6.9-111.42-.04-116.3-.12-123.5-1.98zm248.5-4.3c20-5.95 35.63-18.8 43.95-36.15 6.93-14.45 6.55-4.17 6.53-180.2 0-135.56-.23-159.84-1.48-165.8-3.92-18.76-17.6-36.03-35.52-44.88-16.18-7.98-9.2-7.6-137.78-7.6C50.64 4.88 57.73 4.5 41.5 12.44c-20.2 9.9-33.3 27.9-36.47 50-.8 5.72-1.04 51.96-.8 165.94.35 174.17-.15 160.57 6.54 174.76 9.2 19.5 28.65 33.88 51 37.7 2.6.46 56.7.74 120.23.64 107.6-.17 115.9-.3 121.5-1.96zM127.3 395.3c-4.36-2.2-5.88-4.84-8.4-14.58-1.17-4.58-2.25-8.47-2.4-8.63-.15-.18-3.98.43-8.52 1.35-16.82 3.4-26.98-1.72-26.98-13.62 0-3.53.26-4.05 1.73-3.5 3.78 1.46 18.14 2.66 24.34 2.05l6.57-.66-2.8-14.16c-2.84-14.4-3.58-24.1-1.92-25.12 1.54-.95 5.9 1.23 7.58 3.8.88 1.36 2.97 9.14 4.64 17.3 1.68 8.17 3.4 15.24 3.86 15.7.88.93 17.2-2.97 25.5-6.07l5-1.87-.36-7.46c-.2-4.1-.5-7.6-.66-7.78-.17-.18-2.78.45-5.82 1.4-5.67 1.8-6.6 2.97-6.66 8.43-.08 6.52-3.7 6.1-6.87-.8-6.9-15-10.3-47.9-5.46-52.74.96-.96 3.6-1.4 8.14-1.36 8.58.08 14.92-1.6 35.8-9.44 28.83-10.85 35.94-12.97 41.7-12.42 3.94.38 5.6 1.1 7.43 3.22 3.18 3.7 2.35 5.87-4.85 12.53-5.56 5.13-6.04 5.94-7.44 12.5-.82 3.84-1.77 14.45-2.1 23.58l-.63 16.58 14.9-.07c16.97-.1 24.44 1.5 38.88 8.28C272.28 346.85 277 352 277 358.64c0 6.12-2.35 9.92-9.7 15.73-17.56 13.86-40.67 23.32-54.3 22.2-11.7-.95-37.8-8.52-49.12-14.25l-4.62-2.33-3.33 2.44c-2.18 1.6-4.65 2.45-7.22 2.45-5.3 0-9.13 2.5-11.35 7.4-2.14 4.73-4.92 5.56-10.05 3zm18.77-21.66l9.9-5.25v-4.73c.03-3.34-.33-4.6-1.22-4.3-.7.24-6.98 2.28-14 4.53l-12.74 4.1 2.13 4.2c2.54 5.04 3.8 6.7 5.08 6.7.54 0 5.43-2.37 10.87-5.26zm50.6 4.24c12.87-2.1 31.74-9.9 38.7-16.02 4-3.5 7.96-10.94 7.08-13.24-1.3-3.37-6-4.14-17.3-2.84-16.27 1.87-15.15 1.2-15.15 9 0 5.46-.45 7.3-2.53 10.37-1.4 2.04-3.84 4.4-5.45 5.23-4.93 2.55-7.5 1.93-11.38-2.74l-3.53-4.24-6.95 2.37c-4.28 1.45-9.22 4.15-12.8 7l-5.85 4.62 9 .55c15.5.97 19.82.95 26.16-.07zm-20.84-16.57c5.48-1.96 10.92-4.46 12.07-5.53 2.28-2.12 2.88-5.4.85-4.62-.7.26-5.97 1.48-11.75 2.72-5.77 1.23-10.78 2.53-11.13 2.88-1.15 1.17-2 8.14-1 8.14.54 0 5.47-1.62 10.96-3.6zm2.45-20.6l11.78-3.2-.66-6.05c-.37-3.33-.72-6.12-.78-6.2-.23-.27-20.04 2.64-21.82 3.2-1.52.5-1.8 1.74-1.8 8 0 4.1.34 7.45.75 7.46.4 0 6.05-1.42 12.53-3.2zM151 325.9c2.38-.65 2.5-1.03 2.44-7.83-.04-3.92-.3-7.38-.6-7.66-.6-.62-6.8 1.36-8.6 2.76-.77.6-1.24 3.54-1.24 7.87v6.9l2.75-.68c1.5-.38 3.88-1 5.25-1.36zm25-7.66c3.58-.84 7.9-1.3 9.63-1.02 2.96.48 3.17.3 3.74-3.16.34-2.02.6-5.3.62-7.3v-3.62l-4.25.35c-17.83 1.5-17.54 1.43-18.13 3.75-.3 1.22-.86 4.87-1.24 8.1-.65 5.5-.57 5.83 1.2 5.14 1.06-.42 4.85-1.43 8.42-2.26zm-27.25-13.3l4.25-1.13v-5.4c0-2.96-.47-5.68-1.05-6.04-.57-.35-3.2-.35-5.8 0l-4.77.67.74 5.18c.4 2.86.77 6 .8 7 .05 1 .42 1.6.83 1.35.4-.25 2.66-.97 5-1.6zm33.44-7.73l8.7-.55.66-5.43c.38-2.98.48-5.62.24-5.86-.24-.24-5.35.46-11.37 1.57-17.13 3.14-15.4 2.2-13.65 7.53 1.4 4.23 1.73 4.55 4.12 3.96 1.43-.36 6.5-.9 11.3-1.2zm-70.57-15.34c-16.78-1.9-23.05-5.52-22.43-12.92l.3-3.55 29.5-.7c16.23-.36 31.47-.96 33.87-1.32l4.37-.65-.6-3.65c-.4-2.56-1.7-4.6-4.36-6.85l-3.78-3.2 8.66-8.83c4.76-4.84 10.3-11.43 12.33-14.64 3.5-5.6 3.74-5.76 5.54-4.13 5.47 4.94 5.07 14.95-.93 23.65-4.12 5.98-4.57 7.46-3.5 11.48l.6 2.18 5.95-2.14c6.68-2.4 8.57-4.68 11.87-14.27 3.34-9.7 1.97-19.7-3.73-27.26l-2.5-3.33 2.26-2.4c3.56-3.8 16.56-12.45 18.7-12.45 5.6 0 14.16 10.35 14.22 17.2.05 6.33-6.22 17.74-16.97 30.9-2.62 3.23-3 4.1-1.5 3.48 11.42-4.63 43.66-15.76 49.65-17.14 6.6-1.53 8.27-1.6 12.3-.47 6.62 1.86 9.55 4.44 9.55 8.44 0 7.62-9.1 10.65-37.5 12.5-19.16 1.25-25.53 3.1-56.75 16.47-13.36 5.72-26.75 11.17-29.77 12.1-6.55 2.02-24.14 2.76-35.35 1.5zm128.77-96.82c-5.3-3.86-30.35-29.74-39.82-41.12-7.65-9.2-8.55-11.4-5.45-13.34 4.97-3.13 48.74 20.85 59.66 32.7 4.92 5.35 5.53 9.87 2.1 15.6-5.66 9.44-9.86 11-16.5 6.16zm-152.9 1.2c-1.1-.24-3-.64-4.25-.9-2.92-.63-2.9-3.25.04-4.37 1.25-.48 6.54-1.56 11.74-2.4 9.57-1.55 29.4-8.87 38.77-14.33 5.1-2.95 6.92-6.13 5.3-9.16-1.57-2.94-1.36-9.8.42-13.22 2.3-4.45 6.75-6.3 13.6-5.7 15.13 1.38 31.5 15.05 29.42 24.56-1.88 8.54-18.03 16.08-46.13 21.55-18.1 3.52-41.9 5.45-48.9 3.96zm21.8-57.4c-2.84-1.12-6.53-3.6-8.2-5.48-2.7-3.07-2.9-3.76-1.95-6.47 1.6-4.6 3.87-5.32 14.27-4.54 12.2.9 26.4-1.07 46.92-6.57 3.5-.95 3.8-1.27 3.18-3.68-.36-1.46-3.38-5.8-6.7-9.7-11.08-12.9-12.44-20.5-5.54-30.9 4.72-7.1 10.7-10.25 16.54-8.68 4.38 1.18 16.63 11.8 20.12 17.46 4.35 7.04 2 14.3-8.1 25.1l-6.16 6.58 7.9-2.94c4.36-1.62 14-5.3 21.42-8.17 18.62-7.2 21.86-7.38 38.22-2.04 14.7 4.8 27.43 10.87 31.67 15.1 5.1 5.12 5.92 16.2 1.53 21.04-.96 1.06-3.57 2.42-5.8 3.02-5.5 1.47-12.72-.4-30.98-8.05-16.7-7-24.42-9.03-34.15-9.03-9.52 0-16.05 1.66-44 11.16-23.15 7.88-24.37 8.18-34.5 8.5-8.77.28-11.35 0-15.7-1.73z"/><path fill="#a55357" d="M59.5 444.43c-28.27-5.3-49.54-24.47-57.17-51.54C.6 386.7.5 378.33.5 223.4.5 41.45-.04 55.6 7.47 40.4 14.62 25.9 25.04 15.8 40.5 8.35 56.74.56 50.65.9 179.4.9c97.23 0 115.53.2 121.5 1.47 28.53 6 51 28.44 56.02 55.95.75 4.1 1.08 55.06 1.08 164.8 0 141-.18 159.72-1.58 166.52-4.34 20.98-18.35 38.8-37.92 48.25-16.55 7.98-6.1 7.4-136 7.63-92.16.16-117.44-.06-123-1.1zm242.73-4.47c19.58-5 37.22-19.2 45.4-36.57 7.38-15.64 6.8-1.48 7.13-174 .2-95.83-.07-158.28-.67-163.67-3.18-28.4-22.78-51-51.6-59.5-5.55-1.63-14.4-1.78-118.87-2.08C60.36 3.8 60.33 3.8 46.7 9.5 26.6 17.92 11.1 35.4 6 55.45 4.04 63.03 4 66.85 4 223.3c0 177.2-.4 166.08 6.53 180.12 8.83 17.9 26.13 31.73 45.67 36.53 6.77 1.67 15.38 1.8 122.87 1.87 111.08.07 115.87 0 123.13-1.86zM127.3 395.3c-4.36-2.2-5.88-4.84-8.4-14.58-1.17-4.58-2.25-8.47-2.4-8.63-.15-.18-3.98.43-8.52 1.35-16.82 3.4-26.98-1.72-26.98-13.62 0-3.53.26-4.05 1.73-3.5 3.78 1.46 18.14 2.66 24.34 2.05l6.57-.66-2.8-14.16c-2.84-14.4-3.58-24.1-1.92-25.12 1.54-.95 5.9 1.23 7.58 3.8.88 1.36 2.97 9.14 4.64 17.3 1.68 8.17 3.4 15.24 3.86 15.7.88.93 17.2-2.97 25.5-6.07l5-1.87-.36-7.46c-.2-4.1-.5-7.6-.66-7.78-.17-.18-2.78.45-5.82 1.4-5.67 1.8-6.6 2.97-6.66 8.43-.08 6.52-3.7 6.1-6.87-.8-6.9-15-10.3-47.9-5.46-52.74.96-.96 3.6-1.4 8.14-1.36 8.58.08 14.92-1.6 35.8-9.44 28.83-10.85 35.94-12.97 41.7-12.42 3.94.38 5.6 1.1 7.43 3.22 3.18 3.7 2.35 5.87-4.85 12.53-5.56 5.13-6.04 5.94-7.44 12.5-.82 3.84-1.77 14.45-2.1 23.58l-.63 16.58 14.9-.07c16.97-.1 24.44 1.5 38.88 8.28C272.28 346.85 277 352 277 358.64c0 6.12-2.35 9.92-9.7 15.73-17.56 13.86-40.67 23.32-54.3 22.2-11.7-.95-37.8-8.52-49.12-14.25l-4.62-2.33-3.33 2.44c-2.18 1.6-4.65 2.45-7.22 2.45-5.3 0-9.13 2.5-11.35 7.4-2.14 4.73-4.92 5.56-10.05 3zm18.77-21.66l9.9-5.25v-4.73c.03-3.34-.33-4.6-1.22-4.3-.7.24-6.98 2.28-14 4.53l-12.74 4.1 2.13 4.2c2.54 5.04 3.8 6.7 5.08 6.7.54 0 5.43-2.37 10.87-5.26zm50.6 4.24c12.87-2.1 31.74-9.9 38.7-16.02 4-3.5 7.96-10.94 7.08-13.24-1.3-3.37-6-4.14-17.3-2.84-16.27 1.87-15.15 1.2-15.15 9 0 5.46-.45 7.3-2.53 10.37-1.4 2.04-3.84 4.4-5.45 5.23-4.93 2.55-7.5 1.93-11.38-2.74l-3.53-4.24-6.95 2.37c-4.28 1.45-9.22 4.15-12.8 7l-5.85 4.62 9 .55c15.5.97 19.82.95 26.16-.07zm-20.84-16.57c5.48-1.96 10.92-4.46 12.07-5.53 2.28-2.12 2.88-5.4.85-4.62-.7.26-5.97 1.48-11.75 2.72-5.77 1.23-10.78 2.53-11.13 2.88-1.15 1.17-2 8.14-1 8.14.54 0 5.47-1.62 10.96-3.6zm2.45-20.6l11.78-3.2-.66-6.05c-.37-3.33-.72-6.12-.78-6.2-.23-.27-20.04 2.64-21.82 3.2-1.52.5-1.8 1.74-1.8 8 0 4.1.34 7.45.75 7.46.4 0 6.05-1.42 12.53-3.2zM151 325.9c2.38-.65 2.5-1.03 2.44-7.83-.04-3.92-.3-7.38-.6-7.66-.6-.62-6.8 1.36-8.6 2.76-.77.6-1.24 3.54-1.24 7.87v6.9l2.75-.68c1.5-.38 3.88-1 5.25-1.36zm25-7.66c3.58-.84 7.9-1.3 9.63-1.02 2.96.48 3.17.3 3.74-3.16.34-2.02.6-5.3.62-7.3v-3.62l-4.25.35c-17.83 1.5-17.54 1.43-18.13 3.75-.3 1.22-.86 4.87-1.24 8.1-.65 5.5-.57 5.83 1.2 5.14 1.06-.42 4.85-1.43 8.42-2.26zm-27.25-13.3l4.25-1.13v-5.4c0-2.96-.47-5.68-1.05-6.04-.57-.35-3.2-.35-5.8 0l-4.77.67.74 5.18c.4 2.86.77 6 .8 7 .05 1 .42 1.6.83 1.35.4-.25 2.66-.97 5-1.6zm33.44-7.73l8.7-.55.66-5.43c.38-2.98.48-5.62.24-5.86-.24-.24-5.35.46-11.37 1.57-17.13 3.14-15.4 2.2-13.65 7.53 1.4 4.23 1.73 4.55 4.12 3.96 1.43-.36 6.5-.9 11.3-1.2zm-70.57-15.34c-16.78-1.9-23.05-5.52-22.43-12.92l.3-3.55 29.5-.7c16.23-.36 31.47-.96 33.87-1.32l4.37-.65-.6-3.65c-.4-2.56-1.7-4.6-4.36-6.85l-3.78-3.2 8.66-8.83c4.76-4.84 10.3-11.43 12.33-14.64 3.5-5.6 3.74-5.76 5.54-4.13 5.47 4.94 5.07 14.95-.93 23.65-4.12 5.98-4.57 7.46-3.5 11.48l.6 2.18 5.95-2.14c6.68-2.4 8.57-4.68 11.87-14.27 3.34-9.7 1.97-19.7-3.73-27.26l-2.5-3.33 2.26-2.4c3.56-3.8 16.56-12.45 18.7-12.45 5.6 0 14.16 10.35 14.22 17.2.05 6.33-6.22 17.74-16.97 30.9-2.62 3.23-3 4.1-1.5 3.48 11.42-4.63 43.66-15.76 49.65-17.14 6.6-1.53 8.27-1.6 12.3-.47 6.62 1.86 9.55 4.44 9.55 8.44 0 7.62-9.1 10.65-37.5 12.5-19.16 1.25-25.53 3.1-56.75 16.47-13.36 5.72-26.75 11.17-29.77 12.1-6.55 2.02-24.14 2.76-35.35 1.5zm130.87-95.62c-5.68-2.96-37.27-35.68-46.93-48.6-5.24-7-1.17-8.63 10.26-4.1 11.37 4.5 22.07 10.24 34.1 18.3 13.48 9.03 19.07 14.63 19.07 19.1 0 6.32-7.5 17.02-11.88 16.9-.9 0-2.97-.73-4.62-1.6zM82.75 185.2c-2.06-.54-2.24-1.68-.5-3.05 1.58-1.25 4.6-1.96 13.75-3.26 10.14-1.45 36.03-12.2 41.22-17.1l3.8-3.62-1.6-3.86c-1.86-4.4-1.44-10.23 1-13.93 5.88-9 31.7-1.7 39.18 11.07 2.8 4.76 3.1 10 .77 13.3-5.52 7.88-33.52 16.85-62.58 20.05-9.52 1.05-31.58 1.3-35.05.38zM112 129.3c-10.15-2.73-15.5-9.6-11.62-14.9 1.35-1.86 2.4-2 14.38-1.7 13.76.36 24.87-1.05 40.32-5.1 10.96-2.87 11.18-3.94 2.87-13.85-7.96-9.5-10.24-14.03-10.24-20.36 0-7.78 5.72-17.2 11.83-19.52 6.78-2.58 12.24-.36 21.8 8.85 5.44 5.25 8.67 10.76 8.67 14.8 0 4.4-3.86 11.14-10.4 18.13-7.13 7.62-8.23 7.74 16.4-1.8 26-10.05 28.04-10.27 45-4.8 20.15 6.47 32.08 13.07 34.48 19.07 3.08 7.7 1.28 16.18-3.95 18.57-6.48 2.94-15.7.72-41.8-10.1-13.8-5.72-23.66-7.4-33.88-5.74-4.04.66-17.92 4.74-30.85 9.08-34.18 11.48-40.7 12.63-53 9.35z"/><path fill="#871a1f" d="M59.5 444.43c-28.27-5.3-49.54-24.47-57.17-51.54C.6 386.7.5 378.33.5 223.4.5 41.45-.04 55.6 7.47 40.4 14.62 25.9 25.04 15.8 40.5 8.35 56.74.56 50.65.9 179.4.9c97.23 0 115.53.2 121.5 1.47 28.53 6 51 28.44 56.02 55.95.75 4.1 1.08 55.06 1.08 164.8 0 141-.18 159.72-1.58 166.52-4.34 20.98-18.35 38.8-37.92 48.25-16.55 7.98-6.1 7.4-136 7.63-92.16.16-117.44-.06-123-1.1zm242.73-4.47c19.58-5 37.22-19.2 45.4-36.57 7.38-15.64 6.8-1.48 7.13-174 .2-95.83-.07-158.28-.67-163.67-3.18-28.4-22.78-51-51.6-59.5-5.55-1.63-14.4-1.78-118.87-2.08C60.36 3.8 60.33 3.8 46.7 9.5 26.6 17.92 11.1 35.4 6 55.45 4.04 63.03 4 66.85 4 223.3c0 177.2-.4 166.08 6.53 180.12 8.83 17.9 26.13 31.73 45.67 36.53 6.77 1.67 15.38 1.8 122.87 1.87 111.08.07 115.87 0 123.13-1.86zm-174.16-44.82c-4.88-2.5-6.75-5.58-9.26-15.32l-2.2-8.56-7.54 1.8c-9.5 2.28-13.52 2.27-18.56-.06-6.06-2.8-8.7-6.23-9.26-12l-.48-4.95 4.37 1.07c4.4 1.07 27.3 1.7 28.18.77.27-.3-.58-5.46-1.87-11.5-2.8-13.15-4-24.65-2.8-26.8.76-1.35 1.28-1.37 4.16-.16 4.18 1.77 5.17 4.3 8.74 22.2 2.2 11.07 3.18 14.25 4.4 14.23 2.1-.02 13.9-3.14 22.83-6.03l7.28-2.36-.66-7.54c-.37-4.15-.86-7.76-1.08-8.02-.65-.72-10.73 3.07-11.55 4.34-.4.62-.75 2.5-.75 4.2 0 1.67-.62 3.87-1.35 4.86-1.25 1.72-1.45 1.67-3.5-.94-7.04-8.95-12.62-47.58-7.9-54.77 1.57-2.4 2.25-2.6 8.47-2.55 8.83.07 15.42-1.73 40.75-11.14 32.34-12 36.04-12.8 42.25-9.02 5.2 3.17 4.53 6.54-2.62 13.15-5.5 5.1-5.98 5.88-7.58 12.9-1.04 4.53-1.93 14.07-2.28 24.32l-.58 16.85 10.52-.7c12.77-.9 21.56.4 34.7 5.08 17.35 6.17 24.55 12.76 23.78 21.73-.36 4.18-1.08 5.5-5.3 9.83-12.38 12.63-41.66 26.88-55.2 26.85-9.83-.02-36.73-7.46-50.53-14l-6.63-3.12-3.37 2.57c-2.2 1.68-4.63 2.56-7.06 2.56-5.3 0-9.34 2.43-11.14 6.73-2.37 5.7-3.96 6.28-9.4 3.5zM156 363.77c0-3.4-.37-4.7-1.25-4.4-.7.2-6.65 2.04-13.25 4.05-6.6 2-12.38 4-12.84 4.45-.9.86.22 3.5 3.68 8.7l2.12 3.2 10.77-5.6L156 368.6v-4.83zm51.5 11.62c17.98-5.22 29.96-12.63 33.94-21.02 2.17-4.6 1-8.1-3.08-9.12-2.48-.62-22.5 1.08-26.6 2.26-1.43.4-1.76 1.65-1.76 6.5 0 6.93-1.5 10.35-6.48 14.72-5.1 4.47-8.5 4.24-12.52-.85-1.74-2.2-4.04-4-5.1-4-5.1 0-23.9 10.35-23.9 13.15 0 1 13.88 1.65 26.5 1.26 7.06-.2 12.64-1.06 19-2.9zm-32.93-13.48c11.06-3.9 14.15-5.58 14.95-8.1.36-1.14.5-2.26.27-2.47-.54-.53-23.12 4.54-23.97 5.38-.37.36-.98 2.35-1.36 4.4-.85 4.6-.75 4.62 10.1.8zm15.1-24.36c.18-.2.05-3.05-.3-6.37l-.63-6.04-4.62.5c-2.54.27-7.77 1-11.62 1.64l-7 1.15-.3 8.06-.28 8.07 12.2-3.33c6.72-1.84 12.36-3.5 12.54-3.68zm-39.3-11.25l3.88-.68-.48-7.38c-.26-4.06-.75-7.67-1.1-8-.34-.36-2.66.14-5.15 1.1l-4.52 1.72v7.48c0 6.66.2 7.43 1.75 6.97.96-.27 3.5-.8 5.62-1.2zm25.63-8.06c3.58-.84 7.9-1.3 9.63-1.02 2.96.48 3.17.3 3.74-3.16.34-2.02.6-5.28.62-7.25v-3.57l-5.75.36c-3.16.2-8.07.6-10.9.88-5.78.6-5.76.56-6.97 10.87-.65 5.5-.57 5.83 1.2 5.14 1.06-.42 4.85-1.43 8.42-2.26zm-23.25-14.34c.14 0 .25-2.5.25-5.54 0-6.4-.77-7.03-7.52-6.02-3.94.6-4.43.94-4.04 2.86.25 1.2.72 4.3 1.06 6.88l.6 4.68 4.7-1.42c2.6-.8 4.8-1.43 4.95-1.44zm29.4-6.7l8.65-.55.6-3c.83-4.16.75-8.76-.15-8.76-.82 0-20.42 3.68-23.94 4.5-2.14.5-2.15.58-.6 5.1 1.42 4.2 1.76 4.52 4.18 3.92 1.44-.36 6.5-.9 11.27-1.2zM115.5 282.3c-8.55-.87-17.14-2.6-20.3-4.1-3.8-1.8-6.45-6.25-6-10.1l.3-2.7 30-.67c34.52-.76 38.82-1.17 38.1-3.63-.28-.92-.77-2.8-1.1-4.2-.33-1.38-2.15-3.57-4.04-4.87l-3.45-2.36 8.4-8.8c4.6-4.85 10.03-11.55 12.07-14.9 2.03-3.34 4.1-5.8 4.62-5.5 1.96 1.22 4.9 8.53 4.9 12.2 0 2.66-1.06 5.52-3.46 9.3-5.5 8.66-5.84 9.55-5.14 13.27l.65 3.5 6.4-2.1 6.42-2.08 3.17-6.86c5.45-11.84 5.1-22.44-1.1-32.22l-2.8-4.42 4.18-3.4c2.3-1.88 6.76-5.12 9.9-7.2 5.26-3.47 6-3.7 8.65-2.6 6.37 2.65 12.13 10.62 12.13 16.8 0 5.68-8.8 20.93-17.32 30-1.68 1.78-2.8 3.47-2.53 3.75.28.3 7.08-1.92 15.1-4.9 35.98-13.38 44.24-15.07 52.48-10.77 4.2 2.2 5.84 5.02 5.1 8.75-1.02 5.26-14.37 8.96-37.33 10.33-19.46 1.16-26 3.04-57 16.37-30.43 13.08-32.96 13.86-46 14.22-6.05.17-12.8.13-15-.1zm127-96.04c-5.68-2.96-37.27-35.68-46.93-48.6-5.24-7-1.17-8.63 10.26-4.1 11.37 4.5 22.07 10.24 34.1 18.3 13.48 9.03 19.07 14.63 19.07 19.1 0 6.32-7.5 17.02-11.88 16.9-.9 0-2.97-.73-4.62-1.6zM82.75 185.2c-2.06-.54-2.24-1.68-.5-3.05 1.58-1.25 4.6-1.96 13.75-3.26 10.14-1.45 36.03-12.2 41.22-17.1l3.8-3.62-1.6-3.86c-1.86-4.4-1.44-10.23 1-13.93 5.88-9 31.7-1.7 39.18 11.07 2.8 4.76 3.1 10 .77 13.3-5.52 7.88-33.52 16.85-62.58 20.05-9.52 1.05-31.58 1.3-35.05.38zM112 129.3c-10.15-2.73-15.5-9.6-11.62-14.9 1.35-1.86 2.4-2 14.38-1.7 13.76.36 24.87-1.05 40.32-5.1 10.96-2.87 11.18-3.94 2.87-13.85-7.96-9.5-10.24-14.03-10.24-20.36 0-7.78 5.72-17.2 11.83-19.52 6.78-2.58 12.24-.36 21.8 8.85 5.44 5.25 8.67 10.76 8.67 14.8 0 4.4-3.86 11.14-10.4 18.13-7.13 7.62-8.23 7.74 16.4-1.8 26-10.05 28.04-10.27 45-4.8 20.15 6.47 32.08 13.07 34.48 19.07 3.08 7.7 1.28 16.18-3.95 18.57-6.48 2.94-15.7.72-41.8-10.1-13.8-5.72-23.66-7.4-33.88-5.74-4.04.66-17.92 4.74-30.85 9.08-34.18 11.48-40.7 12.63-53 9.35z"/><path d="M61.83 444.88c-23.68-4.07-43.78-18.4-53.74-38.3-8.23-16.44-7.6-1.14-7.6-183.7 0-183.03-.68-167 7.78-183.5 3.06-5.96 6.28-10.17 12.66-16.58 9.4-9.44 16.83-14.1 29.56-18.6l8-2.8h240l7.5 2.33c20.95 6.54 36.9 20.08 45.57 38.68 6.83 14.64 6.52 5.4 6.2 184.5l-.27 161.5-2.93 8.4c-6.1 17.5-19.4 32.48-35.98 40.62-17.47 8.56-6.58 7.92-136.6 8.1-63.52.1-117.6-.2-120.17-.64zm246.07-6.42c21.8-7.6 38.77-25.63 44.8-47.57 1.7-6.13 1.8-15.88 1.8-167.5 0-151.4-.1-161.4-1.78-167.5-5.55-20.23-17.8-35.14-36.22-44.08C300.15 3.88 309.62 4.4 179 4.4H62.5l-7.95 2.3C31.95 13.22 15.92 27.8 7.6 49.35L4.5 57.4l-.28 162.5c-.3 182.12-.8 169.62 7.04 185.28 8.08 16.16 25.37 29.8 43.97 34.7 7 1.85 11.86 1.9 125.77 1.7l118.5-.2 8.4-2.92zM243 186.3c-5.42-2.36-41.92-40.5-48.43-50.62-3.9-6.05 1.15-6.3 14.3-.7 11.36 4.83 17.45 8.17 29.63 16.23 16.2 10.74 20.5 15.14 20.5 20.9-.02 3-5.33 12.2-8.2 14.22-2.72 1.9-3.35 1.9-7.8-.02zm-159.93-1.44c-4.2-1.8-.5-3.74 10.43-5.48 13.2-2.1 37.56-11.57 43.34-16.85 3.8-3.47 4.28-5.1 2.52-8.62-3.28-6.56.12-14.7 7.1-17 6.58-2.17 20.76 2.58 28.48 9.55 5.06 4.58 7.06 8.2 7.06 12.78 0 9.5-18.1 17.78-52 23.8-13.24 2.35-43 3.5-46.93 1.83zm29.88-55.33c-11.84-3.2-17.46-10.74-11.5-15.43 2.2-1.73 3.68-1.88 14.34-1.44 12.66.52 18.47-.18 36.95-4.5 10.86-2.54 11.25-2.72 11.25-5.3 0-1.77-1.7-4.6-5.1-8.5-10.38-11.85-12.86-17.97-10.48-25.86 2.7-9 9.8-15.6 16.73-15.6 7.1 0 22.94 14.64 24.44 22.6.93 5.04-1.87 10.57-9.5 18.65-3.5 3.73-6.12 7.05-5.8 7.38.33.33 6.14-1.53 12.9-4.13 27.8-10.67 31.12-11.72 37.3-11.74 11.22-.04 43.22 12.54 48.82 19.2 2.82 3.34 4.27 10.1 3.2 14.9-.36 1.7-2.08 4.27-3.8 5.72-4.8 4.03-12.9 3.14-27.8-3.05-24-10-30.46-11.87-40.92-11.9-10.96-.02-20.2 2.24-42.66 10.4-25.82 9.4-37.63 11.5-48.4 8.6z"/></g></g></svg>