<svg xmlns="http://www.w3.org/2000/svg" width="358.789" height="445.793" viewBox="0 0 358.78909 445.79343"><g><g><path fill="#e0c5c6" d="M56.32 444.37c-21.73-4.73-40.22-19.52-50.05-40.05-6.74-14.08-6.42-4.28-6.12-184.24L.42 57.35l2.8-8C9.5 31.6 22.53 16.67 38.95 8.45 56.02-.1 48.04.35 179.92.35c130.84 0 121.77-.5 138.5 7.53 18.8 9 32.78 25.83 38.24 45.97 1.64 6.08 1.76 17.03 1.76 169.5 0 155.2-.1 163.3-1.84 169.5-7.27 25.63-26.6 44.2-53.07 50.98-7.72 1.98-10.6 2.02-124.5 1.94-92.87-.06-117.82-.35-122.68-1.4zm248.1-5.38c20.25-6.86 34.76-18.9 42.86-35.56 7.07-14.55 6.64-2.7 6.64-180.24 0-156.1-.05-160.22-1.98-167.75-4.87-19.06-17.88-34.57-36.52-43.56-15.26-7.37-9.12-7.05-136.2-7.03-128 .02-121.07-.36-137.3 7.6-12.52 6.13-24.62 17.9-30.2 29.38-7.9 16.2-7.3 1.14-7.3 181 0 131.14.24 161.5 1.34 166 .74 3.03 3.36 9.7 5.82 14.84C20.73 422.8 40.1 437 62.15 440.75c2.9.5 56.8.82 120.27.74l115-.15 7-2.36zm-99.88-43.12c-15.44-3.32-38.52-11.04-43.15-14.42-1.67-1.22-2.3-1.04-5.55 1.56-2.77 2.23-4.27 2.8-6.2 2.3-4.3-1.08-9.66 2.2-11.8 7.2-1.66 3.86-2.22 4.33-5.15 4.33-7.55 0-12.16-5.75-14.86-18.5-.7-3.3-1.3-6.08-1.35-6.17-.06-.1-2.8.46-6.1 1.23-17.66 4.17-29.48-.95-29.48-12.74 0-5 .02-5.03 2.75-4.38 4.55 1.1 29.25 1.9 29.24.95 0-.48-1.1-6.5-2.46-13.38-1.37-6.87-2.5-15.54-2.5-19.25-.02-6.5.07-6.75 2.42-6.75 1.34 0 3.6 1 5 2.25 2.67 2.37 3.6 5.45 7.6 24.87l2.16 10.62 4.15-.9c2.28-.5 8.98-2.32 14.9-4.04l10.75-3.13v-7.84c0-4.32-.2-7.85-.42-7.85-.22 0-2.87.94-5.88 2.1-5.34 2.04-5.48 2.2-5.97 6.58-.9 8.06-4.48 8.4-7.86.78-4.7-10.58-7.13-23.23-7.26-37.66-.16-17.2-.12-17.24 11.66-17.4 9.04-.12 14.6-1.74 45.72-13.3 20.23-7.54 27-9.37 31.54-8.5 6.62 1.23 9.84 5.64 7.87 10.77-.32.85-3 3.4-5.94 5.67-5.05 3.9-5.45 4.53-7.06 11.3-1.1 4.6-1.87 13.27-2.18 24.18l-.48 17 15.87.04c14.68.03 16.5.24 24.37 2.86 23.37 7.78 32.32 16.7 28.04 28-3.2 8.42-27.18 24.03-46.7 30.4-9.47 3.1-15.64 3.4-25.72 1.22zm-49.4-28.4c.4-.62.75-2.62.76-4.45 0-2.68-.32-3.22-1.73-2.8-10.4 3-25.25 7.84-25.25 8.23 0 1 3.28 6.94 4.77 8.65 1.44 1.66 2.1 1.46 11.12-3.36 5.28-2.8 9.93-5.63 10.33-6.25zm53.78 6.92c9-2.95 20.42-8.33 25.27-11.9 3.4-2.5 7.72-9.42 7.72-12.36 0-3.95-2.32-4.64-13.3-3.94-5.6.36-11.9.93-13.95 1.28l-3.75.63v5.93c0 6.55-1.4 10-5.67 13.95-6.47 6-10.4 6.1-14.76.4-1.8-2.36-3.5-3.53-5.16-3.53-3.38 0-14.18 5.04-18.34 8.56l-3.4 2.9 2.4.73c1.33.4 9.62.6 18.42.44 14.36-.25 16.86-.56 24.5-3.07zm-22.9-17.6c2.37-1.27 4.46-4.95 2.8-4.95-.63 0-6.27 1.2-12.53 2.68l-11.38 2.68V364.68l9.6-3.43c5.3-1.9 10.46-3.9 11.5-4.44zm-1.33-18.2c3.76-.84 5.12-1.56 4.74-2.54-.3-.75-.52-3.42-.52-5.92v-4.55l-5.25.66c-2.9.37-8.07 1.15-11.5 1.74l-6.25 1.06v14.65l6.75-1.97c3.7-1.1 9.12-2.5 12.02-3.14zm-32.4-13.43c1.6-.45 1.77-1.18 1.24-5.06-.34-2.5-.62-5.8-.62-7.34v-2.8l-4.5 1.66-4.5 1.66V327l3.25-.64c1.78-.36 4.1-.9 5.12-1.2zm20.62-6.82c3.02-.8 7.8-1.48 10.6-1.5h5.1l.65-6.16c.36-3.4.45-6.37.22-6.6-.65-.64-19.13.85-20.4 1.64-1 .6-2.97 14.13-2.07 14.1.2 0 2.86-.68 5.9-1.5zm-22.84-14.13c2.6-.57 2.65-.74 2.1-6.23-.3-3.1-.6-5.68-.65-5.72-.06-.04-2.3.12-4.95.36-4.38.4-4.8.63-4.27 2.57.33 1.2.6 4.12.6 6.52 0 4.05.18 4.32 2.27 3.72 1.23-.35 3.45-.9 4.9-1.22zm26.65-7.4c3.3-.66 7.8-1.02 10-.82l3.97.38.63-5.4c.35-2.98.5-5.5.36-5.58-.16-.1-6.04.94-13.08 2.3-10.83 2.08-12.7 2.7-12.1 4.06.37.87.9 2.86 1.16 4.4.3 1.75.96 2.63 1.76 2.32.7-.27 3.98-1.02 7.3-1.67zm-65.3-14.44c-.56-.17-4.32-.86-8.35-1.53-5.6-.92-8.12-1.9-10.64-4.1-3.58-3.15-5.52-9.3-3.56-11.26.73-.75 11.98-1.3 33.6-1.7 19.17-.36 32.9-1 33.47-1.6 2-2-.15-7.15-4.16-9.93l-3.9-2.7 8.8-9.1c4.83-5.02 10.5-11.95 12.6-15.4 3.3-5.45 4.02-6.13 5.37-5 2.27 1.87 5.2 8.8 5.2 12.28 0 3.67-3.08 10.67-6.45 14.68-2.74 3.25-3.7 11.48-1.25 10.57.68-.25 3.52-1.2 6.3-2.12 4.53-1.5 5.3-2.2 7.62-6.9 6-12.23 5.92-22.45-.23-32.13-1.62-2.57-2.95-4.88-2.95-5.15 0-1.04 6.85-6.7 13.47-11.12l6.96-4.66 4.53 2.5c2.48 1.4 5.8 4.32 7.34 6.5 5.97 8.45 2.73 20.1-9.92 35.67-3.05 3.76-5.4 6.95-5.23 7.1.17.14 8.07-2.6 17.54-6.1 31.38-11.56 39.64-13.18 47.94-9.4 10.05 4.55 7.67 13.52-4.55 17.1-3.82 1.1-14.12 2.3-33.1 3.83-14.4 1.15-21.9 3.5-50.33 15.7-31.52 13.55-34.73 14.44-51.5 14.34-7.52-.04-14.13-.22-14.68-.4zm-14.5-124.13c-7.5-2.02-13.85-5.9-14.6-8.93-2.36-9.37 10.95-16.2 26.55-13.6 19.1 3.15 39.2-.56 70.3-12.97 8.2-3.28 18.6-7.02 23.08-8.3 18.1-5.24 38.87-5.88 51.33-1.6 12.17 4.2 21.88 13.34 23 21.68.47 3.48.1 4.48-2.68 7.66-2.28 2.6-4.8 4.12-8.65 5.24-6.46 1.88-9.35 1.52-25.85-3.23-26.34-7.56-36.93-6.8-84.9 6.23-35.48 9.64-45.66 11.02-57.58 7.82z"/><path fill="#bebebe" d="M56.32 444.37c-21.73-4.73-40.22-19.52-50.05-40.05-6.74-14.08-6.42-4.28-6.12-184.24L.42 57.35l2.8-8C9.5 31.6 22.53 16.67 38.95 8.45 56.02-.1 48.04.35 179.92.35c130.84 0 121.77-.5 138.5 7.53 18.8 9 32.78 25.83 38.24 45.97 1.64 6.08 1.76 17.03 1.76 169.5 0 155.2-.1 163.3-1.84 169.5-7.27 25.63-26.6 44.2-53.07 50.98-7.72 1.98-10.6 2.02-124.5 1.94-92.87-.06-117.82-.35-122.68-1.4zm248.1-5.38c20.25-6.86 34.76-18.9 42.86-35.56 7.07-14.55 6.64-2.7 6.64-180.24 0-156.1-.05-160.22-1.98-167.75-4.87-19.06-17.88-34.57-36.52-43.56-15.26-7.37-9.12-7.05-136.2-7.03-128 .02-121.07-.36-137.3 7.6-12.52 6.13-24.62 17.9-30.2 29.38-7.9 16.2-7.3 1.14-7.3 181 0 131.14.24 161.5 1.34 166 .74 3.03 3.36 9.7 5.82 14.84C20.73 422.8 40.1 437 62.15 440.75c2.9.5 56.8.82 120.27.74l115-.15 7-2.36zm-101-43.56c-12.78-2.7-29.83-8.22-38.18-12.4l-5.82-2.9-3.72 2.72c-2.4 1.77-4.55 2.57-6.08 2.28-1.3-.25-4.02.24-6.05 1.08-2.82 1.18-4.15 2.6-5.64 6.1-1.8 4.17-2.23 4.53-5.52 4.53-2.75 0-4.46-.85-7.5-3.75-3.37-3.2-4.3-5.02-6.15-12.25-1.2-4.67-2.28-8.64-2.4-8.8-.12-.17-2.92.4-6.22 1.25-17.1 4.43-29.2-1.1-29.2-13.3 0-4.28.05-4.36 2.74-3.7 1.5.4 8.7.94 16 1.24 11.27.46 13.25.32 13.25-.93 0-.8-1.13-7-2.5-13.75-2.85-13.98-3.3-23.76-1.1-24.6 2.25-.86 7.2 2.25 8.46 5.3.63 1.54 2.5 9.3 4.13 17.2 1.65 7.93 3.13 14.55 3.3 14.72.4.4 10.13-2.06 20.97-5.3l8.75-2.63v-7.9c0-8.88.8-8.34-8-5.3-3.18 1.1-3.57 1.66-4.2 6-.37 2.63-1.08 5.2-1.57 5.68-5.57 5.56-15.3-27.75-14-47.93.43-6.76.8-7.88 3.24-9.98 2.3-1.98 3.4-2.26 7-1.72 6.47.97 13.88-.96 38.52-10.06 32.18-11.88 36.26-13.02 41.15-11.56 2.18.65 4.83 2.06 5.9 3.13 3.45 3.45 2.48 6.3-4.13 12.13-5.4 4.77-6.24 6.03-7.56 11.34-.86 3.5-1.72 13.47-2.06 23.98l-.57 18h15.88c15.68 0 16.02.05 26.1 3.6 22.28 7.87 31.2 17.43 25.86 27.75-4.5 8.7-27.46 23.5-45.8 29.54-11 3.63-14.9 3.8-27.28 1.2zm-58-21.88l10-5.2.3-4.26c.17-2.34-.1-4.25-.62-4.25-1.75 0-26.18 8.08-26.18 8.65 0 1.08 5.3 10.35 5.9 10.3.33 0 5.1-2.37 10.6-5.24zm65.16.52c20.98-7.13 31.34-15.1 31.34-24.1 0-2.2-.6-3.18-2.2-3.7-2.87-.9-11-.68-19.48.55-3.75.54-7.4 1-8.07 1-.87.02-1.25 1.97-1.25 6.37 0 5.46-.42 6.93-2.98 10.47-3.1 4.3-5.95 6.5-9.8 7.66-1.85.55-3.16-.2-6.75-3.85l-4.47-4.52-5.26 1.55c-6.45 1.92-7.95 2.68-14.2 7.2-4.75 3.47-4.84 3.62-2.5 4.32 1.35.4 10.1.6 19.45.45 16-.26 17.53-.46 26.16-3.4zm-27-16.17c3.17-1.36 5.35-3 5.67-4.23.6-2.32-.08-2.26-15.58 1.33l-8.75 2.02v7.71l6.75-2.3c3.7-1.26 9.07-3.3 11.9-4.52zm-4.6-17.64l10.57-2.8-.44-5.56c-.23-3.05-.57-5.7-.74-5.9-.35-.4-16.6 1.64-20.2 2.52-2.08.5-2.24 1.1-2.24 8.02 0 5.57.3 7.36 1.25 7 .68-.26 6-1.74 11.8-3.28zm-28.7-14.5l3.88-1.07-.62-4.57c-.34-2.5-.62-5.82-.62-7.36v-2.8l-4.5 1.54-4.5 1.54v6.9c0 7.58 0 7.6 6.37 5.83zm31.4-8.62c6.98-.56 7.24-.67 7.25-3.18 0-1.44.3-4.36.65-6.5l.65-3.9-9.75.7c-5.36.4-10.34.95-11.05 1.23-.73.27-1.6 2.97-1.97 6.17-.36 3.12-.9 6.46-1.16 7.4-.47 1.62-.22 1.63 3.8.2 2.38-.86 7.58-1.82 11.57-2.13zm-33.13-12.43c3.9-.97 4.45-1.42 3.96-3.24-.3-1.16-.56-3.74-.57-5.73v-3.63l-4.76.5c-2.62.3-4.83.58-4.93.65-.37.26.97 12.6 1.37 12.6.24 0 2.46-.5 4.95-1.14zm28.18-7.9c3.3-.64 7.85-1 10.1-.78 3.56.34 4.1.13 4.1-1.64 0-1.12.28-3.65.6-5.63l.6-3.6-12.86 2.44c-7.07 1.33-12.93 2.5-13.03 2.6-.1.1.34 2.1.96 4.44.7 2.55 1.62 4.08 2.33 3.8.65-.24 3.9-.98 7.2-1.63zm-69.8-15.1c-9.04-1.27-15.06-4.42-17.34-9.08-4-8.18-2-8.76 29.7-8.77 11.62 0 24.88-.3 29.47-.66l8.36-.66-.58-3.57c-.4-2.5-1.72-4.53-4.3-6.7l-3.75-3.14 8.65-8.82c4.75-4.84 10.32-11.7 12.38-15.2l3.75-6.42 1.8 2.34c3.1 4.03 5.13 10.46 4.44 14.15-.36 1.87-2.43 5.96-4.62 9.1-3.02 4.3-3.98 6.63-3.98 9.63 0 2.17.3 3.95.66 3.95.36 0 3.08-.76 6.04-1.7 6.16-1.94 7.9-4.12 11.3-14.3 2.97-8.82 2.4-15-2.25-24.03l-3.57-6.97 4.16-3.56c4.4-3.78 13.52-10.08 15.93-11 .78-.3 3.4.95 5.8 2.8 13.08 9.96 12.06 20.74-3.85 40.86-4.14 5.24-5.8 8-4.6 7.64 1.02-.3 8.84-3.13 17.37-6.3 35.34-13.08 43.2-14.1 51.25-6.62 5.14 4.77 2.88 9.86-5.83 13.1-5.58 2.1-13.62 3.2-35.92 5-14.83 1.16-22.22 3.5-52.27 16.43-30.46 13.12-32.46 13.68-48.6 13.53-7.22-.07-16.06-.53-19.63-1.04zm-10-123.45c-7.5-2.02-13.85-5.9-14.6-8.93-2.36-9.37 10.95-16.2 26.55-13.6 19.1 3.15 39.2-.56 70.3-12.97 8.2-3.28 18.6-7.02 23.08-8.3 18.1-5.24 38.87-5.88 51.33-1.6 12.17 4.2 21.88 13.34 23 21.68.47 3.48.1 4.48-2.68 7.66-2.28 2.6-4.8 4.12-8.65 5.24-6.46 1.88-9.35 1.52-25.85-3.23-26.34-7.56-36.93-6.8-84.9 6.23-35.48 9.64-45.66 11.02-57.58 7.82z"/><path fill="#c38c8f" d="M54.92 443.83c-23.64-6.12-43.65-24.4-51.57-47.08l-2.93-8.4-.3-162c-.3-179.7-.66-169.1 6.25-184C16.84 19.75 38.44 4.23 64.1.85c5.73-.76 43.24-1 120.82-.77l112.5.33 7.47 2.3c13.5 4.13 22.54 9.57 32.62 19.6 7.4 7.36 9.88 10.64 13.28 17.55 8.25 16.78 7.52.3 7.86 178.92.33 171.4.42 167.78-4.73 181.4-7.07 18.67-24.68 35.06-45.5 42.37l-8 2.8-119 .22c-114.92.2-119.27.14-126.5-1.73zm241-3.04c8.55-1.4 18.82-5.02 25.83-9.13 9.22-5.4 20.17-17.08 24.93-26.6 7.8-15.58 7.33-3.13 7.02-185.22l-.28-162.5-2.9-7.5c-7.72-20.12-23.23-35.04-43.25-41.6l-8.85-2.9h-239l-8 2.73C24.96 17.08 8 37.88 4.87 65.13c-.72 6.23-.96 59.6-.74 164.72.35 173.76-.26 159.38 7.5 174.9 4.46 8.9 15.58 21.1 23.65 25.96 7.5 4.52 16.45 8.04 24.5 9.64 8.57 1.7 225.78 2.12 236.14.45zm-92.5-45.36c-12.78-2.7-29.83-8.22-38.18-12.4l-5.82-2.9-3.72 2.72c-2.4 1.77-4.55 2.57-6.08 2.28-1.3-.25-4.02.24-6.05 1.08-2.82 1.18-4.15 2.6-5.64 6.1-1.8 4.17-2.23 4.53-5.52 4.53-2.75 0-4.46-.85-7.5-3.75-3.37-3.2-4.3-5.02-6.15-12.25-1.2-4.67-2.28-8.64-2.4-8.8-.12-.17-2.92.4-6.22 1.25-17.1 4.43-29.2-1.1-29.2-13.3 0-4.28.05-4.36 2.74-3.7 1.5.4 8.7.94 16 1.24 11.27.46 13.25.32 13.25-.93 0-.8-1.13-7-2.5-13.75-2.85-13.98-3.3-23.76-1.1-24.6 2.25-.86 7.2 2.25 8.46 5.3.63 1.54 2.5 9.3 4.13 17.2 1.65 7.93 3.13 14.55 3.3 14.72.4.4 10.13-2.06 20.97-5.3l8.75-2.63v-7.9c0-8.88.8-8.34-8-5.3-3.18 1.1-3.57 1.66-4.2 6-.37 2.63-1.08 5.2-1.57 5.68-5.57 5.56-15.3-27.75-14-47.93.43-6.76.8-7.88 3.24-9.98 2.3-1.98 3.4-2.26 7-1.72 6.47.97 13.88-.96 38.52-10.06 32.18-11.88 36.26-13.02 41.15-11.56 2.18.65 4.83 2.06 5.9 3.13 3.45 3.45 2.48 6.3-4.13 12.13-5.4 4.77-6.24 6.03-7.56 11.34-.86 3.5-1.72 13.47-2.06 23.98l-.57 18h15.88c15.68 0 16.02.05 26.1 3.6 22.28 7.87 31.2 17.43 25.86 27.75-4.5 8.7-27.46 23.5-45.8 29.54-11 3.63-14.9 3.8-27.28 1.2zm-58-21.88l10-5.2.3-4.26c.17-2.34-.1-4.25-.62-4.25-1.75 0-26.18 8.08-26.18 8.65 0 1.08 5.3 10.35 5.9 10.3.33 0 5.1-2.37 10.6-5.24zm65.16.52c20.98-7.13 31.34-15.1 31.34-24.1 0-2.2-.6-3.18-2.2-3.7-2.87-.9-11-.68-19.48.55-3.75.54-7.4 1-8.07 1-.87.02-1.25 1.97-1.25 6.37 0 5.46-.42 6.93-2.98 10.47-3.1 4.3-5.95 6.5-9.8 7.66-1.85.55-3.16-.2-6.75-3.85l-4.47-4.52-5.26 1.55c-6.45 1.92-7.95 2.68-14.2 7.2-4.75 3.47-4.84 3.62-2.5 4.32 1.35.4 10.1.6 19.45.45 16-.26 17.53-.46 26.16-3.4zm-27-16.17c3.17-1.36 5.35-3 5.67-4.23.6-2.32-.08-2.26-15.58 1.33l-8.75 2.02v7.71l6.75-2.3c3.7-1.26 9.07-3.3 11.9-4.52zm-4.6-17.64l10.57-2.8-.44-5.56c-.23-3.05-.57-5.7-.74-5.9-.35-.4-16.6 1.64-20.2 2.52-2.08.5-2.24 1.1-2.24 8.02 0 5.57.3 7.36 1.25 7 .68-.26 6-1.74 11.8-3.28zm-28.7-14.5l3.88-1.07-.62-4.57c-.34-2.5-.62-5.82-.62-7.36v-2.8l-4.5 1.54-4.5 1.54v6.9c0 7.58 0 7.6 6.37 5.83zm31.4-8.62c6.98-.56 7.24-.67 7.25-3.18 0-1.44.3-4.36.65-6.5l.65-3.9-9.75.7c-5.36.4-10.34.95-11.05 1.23-.73.27-1.6 2.97-1.97 6.17-.36 3.12-.9 6.46-1.16 7.4-.47 1.62-.22 1.63 3.8.2 2.38-.86 7.58-1.82 11.57-2.13zm-33.13-12.43c3.9-.97 4.45-1.42 3.96-3.24-.3-1.16-.56-3.74-.57-5.73v-3.63l-4.76.5c-2.62.3-4.83.58-4.93.65-.37.26.97 12.6 1.37 12.6.24 0 2.46-.5 4.95-1.14zm28.18-7.9c3.3-.64 7.85-1 10.1-.78 3.56.34 4.1.13 4.1-1.64 0-1.12.28-3.65.6-5.63l.6-3.6-12.86 2.44c-7.07 1.33-12.93 2.5-13.03 2.6-.1.1.34 2.1.96 4.44.7 2.55 1.62 4.08 2.33 3.8.65-.24 3.9-.98 7.2-1.63zm-69.8-15.1c-9.04-1.27-15.06-4.42-17.34-9.08-4-8.18-2-8.76 29.7-8.77 11.62 0 24.88-.3 29.47-.66l8.36-.66-.58-3.57c-.4-2.5-1.72-4.53-4.3-6.7l-3.75-3.14 8.65-8.82c4.75-4.84 10.32-11.7 12.38-15.2l3.75-6.42 1.8 2.34c3.1 4.03 5.13 10.46 4.44 14.15-.36 1.87-2.43 5.96-4.62 9.1-3.02 4.3-3.98 6.63-3.98 9.63 0 2.17.3 3.95.66 3.95.36 0 3.08-.76 6.04-1.7 6.16-1.94 7.9-4.12 11.3-14.3 2.97-8.82 2.4-15-2.25-24.03l-3.57-6.97 4.16-3.56c4.4-3.78 13.52-10.08 15.93-11 .78-.3 3.4.95 5.8 2.8 13.08 9.96 12.06 20.74-3.85 40.86-4.14 5.24-5.8 8-4.6 7.64 1.02-.3 8.84-3.13 17.37-6.3 35.34-13.08 43.2-14.1 51.25-6.62 5.14 4.77 2.88 9.86-5.83 13.1-5.58 2.1-13.62 3.2-35.92 5-14.83 1.16-22.22 3.5-52.27 16.43-30.46 13.12-32.46 13.68-48.6 13.53-7.22-.07-16.06-.53-19.63-1.04zm-7.6-122.88c-5.8-1.15-10.4-3.23-14.16-6.4-4.43-3.74-4.38-7.38.16-11.36 6.33-5.56 11.37-6.3 32.6-4.75 17.06 1.26 33.3-2.36 62.5-13.9 20.96-8.3 33.8-11.53 48.5-12.22 19-.9 32.16 3.6 42 14.38 8.15 8.9 7.48 15.97-2.02 21.23-6.3 3.48-13.52 3.15-28.2-1.3-26.78-8.1-38.08-7.27-88.44 6.4-32.8 8.9-41.46 10.2-52.94 7.92z"/><path fill="#7b7b7b" d="M54.92 443.83c-23.64-6.12-43.65-24.4-51.57-47.08l-2.93-8.4-.3-162c-.3-179.7-.66-169.1 6.25-184C16.84 19.75 38.44 4.23 64.1.85c5.73-.76 43.24-1 120.82-.77l112.5.33 7.47 2.3c13.5 4.13 22.54 9.57 32.62 19.6 7.4 7.36 9.88 10.64 13.28 17.55 8.25 16.78 7.52.3 7.86 178.92.33 171.4.42 167.78-4.73 181.4-7.07 18.67-24.68 35.06-45.5 42.37l-8 2.8-119 .22c-114.92.2-119.27.14-126.5-1.73zm241-3.04c8.55-1.4 18.82-5.02 25.83-9.13 9.22-5.4 20.17-17.08 24.93-26.6 7.8-15.58 7.33-3.13 7.02-185.22l-.28-162.5-2.9-7.5c-7.72-20.12-23.23-35.04-43.25-41.6l-8.85-2.9h-239l-8 2.73C24.96 17.08 8 37.88 4.87 65.13c-.72 6.23-.96 59.6-.74 164.72.35 173.76-.26 159.38 7.5 174.9 4.46 8.9 15.58 21.1 23.65 25.96 7.5 4.52 16.45 8.04 24.5 9.64 8.57 1.7 225.78 2.12 236.14.45zm-168.7-45.88c-4.37-2.7-5.83-5.24-8.36-14.57-1.2-4.4-2.3-8.13-2.44-8.3-.15-.17-4 .45-8.52 1.37-13.26 2.68-21.92.3-25.38-6.98-2.08-4.4-2.2-11.03-.17-10.25 3.8 1.45 18.74 2.74 24.8 2.13 6.25-.63 6.72-.84 6.25-2.83-4.04-17.32-6.23-34.22-4.72-36.4 1.48-2.15 6.85.4 8.56 4.07.82 1.75 2.45 8.13 3.63 14.18 1.18 6.05 2.6 12.74 3.16 14.86 1.2 4.55.76 4.56 18.1-.48 14.5-4.2 14.2-3.9 13.3-12.77-.73-7.18-.76-7.25-3.32-6.6-7.35 1.84-9 3.17-9.7 7.75-.97 6.5-1.9 7.6-4.4 5.33-4.97-4.5-10.08-26.44-10.08-43.26 0-14.33.6-15.3 9.8-15.2 8.67.08 15.12-1.65 37.44-10.02 35.9-13.47 42.12-14.6 48.1-8.6 3 3 1.95 5.65-4.78 11.97-6.26 5.86-6.48 6.25-8 13.7-.85 4.23-1.85 14.84-2.2 23.58l-.66 15.9h15.4c13.87 0 16.27.26 24.2 2.68 16.68 5.1 26.63 11.3 29.28 18.25 1.6 4.16 1.58 4.7-.03 8.9-4.96 13-42.07 33.55-60.5 33.5-9.57 0-35.43-7.05-49.68-13.52l-7.14-3.22-2.87 2.35c-2.1 1.7-4.17 2.36-7.58 2.4-5.4.03-8.8 2.4-11.58 8.02-2.1 4.24-5.3 4.9-9.92 2.07zm18.82-21.32l9.86-5.25v-9.31l-11.24 3.5c-6.18 1.95-12.48 4.04-14 4.67l-2.73 1.15 3 5.25c1.67 2.9 3.52 5.25 4.13 5.25.6 0 5.55-2.36 10.98-5.25zm59.88 2.22c9.8-2.74 24.54-9.75 29.32-13.95 5.2-4.56 8.2-10.56 6.82-13.6-1.45-3.18-5.96-3.82-17.27-2.5-15.9 1.87-14.98 1.4-14.32 7.4.7 6.4-2.3 13-7.46 16.42-5.18 3.43-8 2.98-12.28-1.98l-3.68-4.27-6.82 2.34c-6.52 2.23-17.32 9.2-17.32 11.14 0 .5 3.7 1.1 8.25 1.34 14.32.7 26.85-.15 34.75-2.36zm-28.1-15.24c8.4-3.03 12.1-5.5 12.1-8.13 0-1.17-1.4-1.1-8.4.44-17.05 3.7-16.6 3.5-16.6 8.06 0 4.62-1.12 4.65 12.9-.38zm.68-19.92l11.63-3.2-.68-6.04c-.38-3.33-.77-6.13-.86-6.22-.25-.22-18.62 2.48-21.43 3.15-2.1.5-2.25 1.1-2.25 8.02 0 4.2.42 7.48.97 7.48.53 0 6.2-1.43 12.6-3.2zm-25.42-15.4c1.18-.74 1.04-14.16-.15-14.9-.55-.34-3.02.3-5.5 1.38l-4.5 2v6.4c0 3.5.23 6.63.53 6.93.56.55 8.08-.87 9.62-1.82zm22.84-7.06c3.57-.83 7.95-1.34 9.72-1.13 3.86.45 4.28-.34 4.28-8.18v-5.8l-4.25.35c-2.34.2-7.25.63-10.9.95l-6.67.6-1.1 6.25c-1.53 8.8-1.44 9.95.67 9.14.96-.38 4.67-1.37 8.25-2.2zm-26.15-13.45c3.05-1.06 3.15-1.27 3.15-7 0-6.5-.4-6.77-7.88-5.27-3.4.68-3.74 2-2.48 9.62.68 4.12 1.8 4.53 7.2 2.65zm32.3-7.58c9.64-.62 9.8-.76 9.83-8.68 0-3.5-.2-3.8-2.23-3.32-1.24.3-6.3 1.27-11.25 2.14-14.9 2.64-13.52 1.8-11.63 7.08 1.45 4.13 1.86 4.52 4.12 3.96 1.37-.35 6.4-.88 11.16-1.2zm-70.52-15.4c-12.3-1.3-18.35-3.4-20.7-7.2-1.1-1.8-1.86-4.54-1.7-6.22l.27-3 31.65-.74c17.4-.4 32.8-1.16 34.2-1.7 2.3-.87 2.45-1.25 1.6-4.25-.5-1.8-2.57-4.7-4.6-6.43l-3.66-3.13 8.2-8.38c4.5-4.6 10.03-11.18 12.28-14.62 2.24-3.44 4.38-6.25 4.77-6.25.38 0 1.68 1.75 2.88 3.9 4.02 7.14 2.44 15.9-4.32 23.93-2.16 2.58-2.48 3.7-1.9 6.73.62 3.36.9 3.6 3.5 3.1 7.57-1.53 9.88-3.34 13.15-10.34 5.33-11.4 4.88-22-1.33-31.8L183 210.9l5.6-4.56c8.37-6.83 13.9-9.8 16.8-9.08 1.37.34 4.13 2.07 6.15 3.84 10.1 8.88 8 20.47-7.22 39.66-3.75 4.72-5.84 8.07-4.8 7.65 12.27-4.9 40.82-14.78 47.74-16.5 11.8-2.97 19.33-1.5 23.25 4.48 1.36 2.07 1.43 2.97.42 5.4-2.24 5.42-13.2 8.6-33.02 9.58-22.55 1.1-28.5 2.8-64.97 18.48-11.74 5.04-24.73 10.04-28.85 11.1-8 2.04-18.46 2.3-32.55.82zM99.32 158.8c-5.78-1.15-10.4-3.23-14.15-6.4-4.43-3.74-4.38-7.38.16-11.36 6.33-5.56 11.37-6.3 32.6-4.75 17.06 1.26 33.3-2.36 62.5-13.9 20.95-8.3 33.8-11.53 48.5-12.22 19-.9 32.16 3.6 42 14.38 8.15 8.9 7.48 15.97-2.02 21.23-6.3 3.48-13.52 3.15-28.2-1.3-26.78-8.1-38.08-7.27-88.44 6.4-32.8 8.9-41.46 10.2-52.94 7.92z"/><path fill="#a55357" d="M59.42 444.37c-15.73-3-27.18-9.07-38.6-20.5-6.86-6.86-9.45-10.33-12.75-17.06-8.3-16.94-7.65-1.34-7.65-183.45C.42 42.43-.1 55.97 7.45 40.5c8.62-17.7 23.9-30.34 44.5-36.8l7.47-2.35h241l8 2.82c12.47 4.4 20.17 9.18 29.08 18.1 8.55 8.54 13.6 16.44 17.58 27.58l2.34 6.5.26 163.96c.27 160.72.23 164.13-1.7 171.82-6.22 24.53-24.4 43-50.08 50.9l-7.48 2.3-116 .2c-93.03.14-117.4-.08-123-1.15zm242.87-4.5c27.2-6.95 47.74-29.44 51.58-56.52.82-5.77 1.05-51.95.83-165.5l-.28-157.5-2.73-8c-3.93-11.52-9.14-19.6-18.27-28.35-9.1-8.7-18.02-13.86-30.06-17.34l-7.95-2.3h-116c-130.93 0-120.65-.6-138.28 8.05-15.86 7.8-28.63 22.62-34.4 39.95l-2.32 7-.27 160.74c-.3 179.65-.72 168.2 6.88 183.75 3.4 6.96 5.8 10.14 13.27 17.53 10.2 10.1 18.6 15 31.7 18.42 7.13 1.87 11.84 1.94 123 2 111.8.05 115.85 0 123.3-1.92zM127.2 394.93c-4.37-2.7-5.83-5.24-8.36-14.57-1.2-4.4-2.3-8.13-2.44-8.3-.15-.17-4 .45-8.52 1.37-13.26 2.68-21.92.3-25.38-6.98-2.08-4.4-2.2-11.03-.17-10.25 3.8 1.45 18.73 2.74 24.8 2.13 6.25-.63 6.72-.84 6.25-2.83-4.04-17.32-6.24-34.22-4.72-36.4 1.48-2.15 6.85.4 8.56 4.07.82 1.75 2.45 8.13 3.63 14.18 1.18 6.05 2.6 12.74 3.16 14.86 1.2 4.55.76 4.56 18.1-.48 14.5-4.2 14.2-3.9 13.3-12.77-.73-7.18-.76-7.25-3.32-6.6-7.35 1.84-9 3.17-9.7 7.75-.97 6.5-1.9 7.6-4.4 5.33-4.97-4.5-10.08-26.44-10.08-43.26 0-14.33.6-15.3 9.8-15.2 8.67.08 15.12-1.65 37.44-10.02 35.9-13.47 42.12-14.6 48.1-8.6 3 3 1.95 5.65-4.78 11.97-6.26 5.86-6.48 6.25-8 13.7-.85 4.23-1.85 14.84-2.2 23.58l-.66 15.9h15.4c13.87 0 16.27.26 24.2 2.68 16.68 5.1 26.63 11.3 29.28 18.25 1.6 4.16 1.58 4.7-.03 8.9-4.96 13-42.07 33.55-60.5 33.5-9.57 0-35.43-7.05-49.68-13.52l-7.14-3.22-2.87 2.35c-2.1 1.7-4.17 2.36-7.58 2.4-5.4.03-8.8 2.4-11.58 8.02-2.1 4.24-5.3 4.9-9.92 2.07zm18.82-21.32l9.86-5.25v-9.31l-11.24 3.5c-6.18 1.95-12.48 4.04-14 4.67l-2.73 1.15 3 5.25c1.67 2.9 3.52 5.25 4.13 5.25.6 0 5.55-2.36 10.98-5.25zm59.88 2.22c9.8-2.74 24.54-9.75 29.32-13.95 5.2-4.56 8.2-10.56 6.82-13.6-1.45-3.18-5.96-3.82-17.27-2.5-15.9 1.87-14.98 1.4-14.32 7.4.7 6.4-2.3 13-7.46 16.42-5.18 3.43-8 2.98-12.28-1.98l-3.68-4.27-6.82 2.34c-6.52 2.23-17.32 9.2-17.32 11.14 0 .5 3.7 1.1 8.25 1.34 14.32.7 26.85-.15 34.75-2.36zm-28.1-15.24c8.4-3.03 12.1-5.5 12.1-8.13 0-1.17-1.4-1.1-8.4.44-17.05 3.7-16.6 3.5-16.6 8.06 0 4.62-1.12 4.65 12.9-.38zm.68-19.92l11.63-3.2-.68-6.04c-.38-3.33-.77-6.13-.86-6.22-.25-.22-18.62 2.48-21.43 3.15-2.1.5-2.25 1.1-2.25 8.02 0 4.2.42 7.48.97 7.48.53 0 6.2-1.43 12.6-3.2zm-25.42-15.4c1.18-.74 1.04-14.16-.15-14.9-.55-.34-3.02.3-5.5 1.38l-4.5 2v6.4c0 3.5.23 6.63.53 6.93.56.55 8.08-.87 9.62-1.82zm22.84-7.06c3.57-.83 7.94-1.34 9.72-1.13 3.86.45 4.28-.34 4.28-8.18v-5.8l-4.25.35c-2.34.2-7.25.63-10.9.95l-6.67.6-1.1 6.25c-1.53 8.8-1.44 9.95.67 9.14.96-.38 4.67-1.37 8.25-2.2zm-26.15-13.45c3.05-1.06 3.15-1.27 3.15-7 0-6.5-.4-6.77-7.88-5.27-3.4.68-3.74 2-2.48 9.62.68 4.12 1.8 4.53 7.2 2.65zm32.3-7.58c9.64-.62 9.8-.76 9.83-8.68 0-3.5-.2-3.8-2.23-3.32-1.24.3-6.3 1.27-11.25 2.14-14.9 2.64-13.52 1.8-11.63 7.08 1.45 4.13 1.86 4.52 4.12 3.96 1.37-.35 6.4-.88 11.16-1.2zm-70.52-15.4c-12.3-1.3-18.35-3.4-20.7-7.2-1.1-1.8-1.86-4.54-1.7-6.22l.27-3 31.65-.74c17.4-.4 32.8-1.16 34.2-1.7 2.3-.87 2.45-1.25 1.6-4.25-.5-1.8-2.57-4.7-4.6-6.43l-3.66-3.13 8.2-8.38c4.5-4.6 10.03-11.18 12.28-14.62 2.24-3.44 4.38-6.25 4.77-6.25.38 0 1.68 1.75 2.88 3.9 4.02 7.14 2.44 15.9-4.32 23.93-2.16 2.58-2.48 3.7-1.9 6.73.62 3.36.9 3.6 3.5 3.1 7.57-1.53 9.88-3.34 13.15-10.34 5.33-11.4 4.88-22-1.33-31.8L183 210.9l5.6-4.56c8.37-6.83 13.9-9.8 16.8-9.08 1.37.34 4.13 2.07 6.15 3.84 10.1 8.88 8 20.47-7.22 39.66-3.75 4.72-5.84 8.07-4.8 7.65 12.27-4.9 40.82-14.78 47.74-16.5 11.8-2.97 19.33-1.5 23.25 4.48 1.36 2.07 1.43 2.97.42 5.4-2.24 5.42-13.2 8.6-33.02 9.58-22.55 1.1-28.5 2.8-64.97 18.48-11.74 5.04-24.73 10.04-28.85 11.1-8 2.04-18.46 2.3-32.55.82zm-9.86-123c-10.85-1.6-19.78-7-19.78-11.98 0-3.22 4.84-7.74 10.2-9.5 4.32-1.45 6.8-1.58 15.7-.87 25.4 2.05 41.2-1 74.1-14.26 23.73-9.6 43.38-13.32 59.52-11.3 12.88 1.6 19.77 4.45 27.17 11.27 5.48 5.04 7.32 8.43 7.32 13.53 0 5.06-2.77 8.54-8.52 10.74-6.14 2.36-13.9 1.55-29.48-3.05-8.36-2.47-15.4-3.87-21.27-4.23-14.84-.92-20.75.2-78.73 15.03-19 4.85-27.37 5.92-36.23 4.62z"/><path fill="#871a1f" d="M59.42 444.37c-15.73-3-27.18-9.07-38.6-20.5-6.86-6.86-9.45-10.33-12.75-17.06-8.3-16.94-7.65-1.34-7.65-183.45C.42 42.43-.1 55.97 7.45 40.5c8.62-17.7 23.9-30.34 44.5-36.8l7.47-2.35h241l8 2.82c12.47 4.4 20.17 9.18 29.08 18.1 8.55 8.54 13.6 16.44 17.58 27.58l2.34 6.5.26 163.96c.27 160.72.23 164.13-1.7 171.82-6.22 24.53-24.4 43-50.08 50.9l-7.48 2.3-116 .2c-93.03.14-117.4-.08-123-1.15zm242.87-4.5c27.2-6.95 47.74-29.44 51.58-56.52.82-5.77 1.05-51.95.83-165.5l-.28-157.5-2.73-8c-3.93-11.52-9.14-19.6-18.27-28.35-9.1-8.7-18.02-13.86-30.06-17.34l-7.95-2.3h-116c-130.93 0-120.65-.6-138.28 8.05-15.86 7.8-28.63 22.62-34.4 39.95l-2.32 7-.27 160.74c-.3 179.65-.72 168.2 6.88 183.75 3.4 6.96 5.8 10.14 13.27 17.53 10.2 10.1 18.6 15 31.7 18.42 7.13 1.87 11.84 1.94 123 2 111.8.05 115.85 0 123.3-1.92zm-173.88-44.4c-4.8-2.15-6.67-5.06-9.12-14.25-1.27-4.74-2.52-8.84-2.8-9.1-.26-.28-4.44.3-9.28 1.28-5.2 1.05-10.23 1.5-12.3 1.1-7.95-1.5-14-7.9-14-14.8v-3.64l4.25 1.03c4.35 1.03 27.18 1.65 28.08.75.28-.27-.6-5.9-1.97-12.5-2.36-11.48-3.54-25.62-2.25-26.93 1.1-1.1 5.75 1.28 7.4 3.8.9 1.37 3 9.15 4.66 17.3 1.67 8.16 3.4 15.23 3.86 15.72.9.95 8.92-.83 22.85-5.05l8.4-2.55-.64-7.57c-.36-4.16-.88-7.8-1.17-8.1-.3-.28-2.97.3-5.94 1.3-5.34 1.83-5.4 1.9-6.05 6.66-.88 6.44-2.67 7.88-5.24 4.2-5-7.15-9.24-26.55-9.24-42.38 0-13.84.7-14.8 10.7-14.82 8.9 0 13.2-1.23 42.84-12.12 26.68-9.8 33.08-11.25 38.25-8.58 6.7 3.46 6.03 8.7-1.77 14.1-2.27 1.58-4.58 3.7-5.13 4.73-2.03 3.8-3.97 17.74-4.57 32.88l-.6 15.6 15.4-.05c14.82-.05 15.76.07 25.4 3.27 22.55 7.5 31.2 15.33 28.33 25.7-1.98 7.16-15.25 17.42-34.17 26.4-18.66 8.87-26.26 9.6-45.97 4.5-13.4-3.46-20.85-6-29.9-10.2l-7.7-3.58-3.14 2.62c-2.27 1.9-4.3 2.64-7.3 2.67-5.7.04-8.7 1.95-11.14 7.1-2.28 4.83-4.3 5.6-9.04 3.47zm17.5-21.63l10-5v-9.9l-4.25 1.3c-2.34.73-8.3 2.56-13.25 4.08-4.95 1.52-9.34 2.96-9.75 3.2-.72.42 2.45 7.53 4.5 10.07 1.46 1.83 1.86 1.7 12.76-3.76zm53 3.58c17.5-3.2 35.2-11.9 40.8-20.1 3.9-5.72 3.9-9.22.05-11.38-2.3-1.3-4.26-1.3-15-.16-6.8.73-12.94 1.55-13.65 1.82-.92.36-1.1 1.72-.64 4.8.9 6.02-.92 10.6-6.1 15.37-5.8 5.34-8.48 5.34-13.26 0-3.3-3.65-4-4-7.06-3.42-5.7 1.07-13.67 5.07-18.18 9.14l-4.28 3.85 8.9.56c15.7 1 20.75.9 28.42-.48zm-23.1-15.98c10.97-4.08 14.1-5.98 14.1-8.6 0-2.2.48-2.23-15.14 1.4l-9.36 2.16-.57 4.23c-.4 2.9-.2 4.22.6 4.22.66 0 5.32-1.53 10.37-3.4zm2.1-20.52c1.92-.5 5.47-1.45 7.88-2.08l4.38-1.14-.63-6.1c-.35-3.34-.75-6.2-.9-6.3-.34-.33-19.8 2.44-21.94 3.12-1.52.48-1.78 1.75-1.78 8.45v7.9l4.75-1.47c2.6-.8 6.32-1.87 8.25-2.38zm-27.75-14.63l3.75-.67v-7.33c0-4.03-.47-7.6-1.03-7.96-.57-.35-3.05.13-5.5 1.07l-4.48 1.72v7.44c0 6.6.2 7.37 1.75 6.9.96-.27 3.43-.8 5.5-1.17zm25.67-8.02c3.53-.9 7.92-1.4 9.75-1.1 3.76.62 4.03.08 4.53-9l.3-5.18-4.5.4c-2.5.23-7.5.68-11.17 1l-6.66.6-1.1 6.25c-1.5 8.72-1.43 9.84.67 9.2.96-.3 4.64-1.28 8.17-2.17zm-23.12-20.38l.3-6.34-5.2.62c-2.84.33-5.4.83-5.66 1.1-.27.26-.18 3.37.2 6.9l.7 6.43 4.67-1.18 4.7-1.2.3-6.32zm29.46-.7c9.66-.7 9.22-.3 10-8.6.2-2.38-.1-3.75-.83-3.75-.96 0-16.46 2.92-24.06 4.53-2.1.44-2.12.53-.5 5.02 1.45 4.1 1.87 4.52 4.12 4 1.37-.33 6.44-.88 11.26-1.2zm-69.87-15.34c-11.72-1.23-16.3-2.72-20.14-6.56-2.7-2.7-3.3-4.04-3.06-6.66l.32-3.3 30-.66c29.54-.67 38.5-1.28 38.5-2.64-.04-3.54-2.48-8.03-5.5-10.07l-3.53-2.4 8.3-8.6c4.56-4.74 10.06-11.48 12.2-14.98l3.93-6.36 2.3 2.85c4.88 6.1 4.26 14.1-1.77 22.66-3.63 5.14-4.02 6.26-3.45 9.64l.65 3.83 6.5-2.1c6.43-2.1 6.5-2.17 9.6-8.65 2.4-5.06 3.22-8.3 3.57-14.32.43-7.4.27-8.17-3.23-15.26l-3.7-7.47 3.2-2.74c5.36-4.6 15.2-11.25 16.6-11.25 2.7 0 9.5 5.45 11.87 9.5 1.35 2.3 2.45 5.6 2.45 7.33 0 6.64-5.8 17.5-15.85 29.62-2.25 2.72-3.96 5.08-3.8 5.25.18.17 9.5-3.04 20.73-7.13 27.6-10.04 35.7-12.1 41.7-10.6 8.9 2.24 12.8 6.95 9.7 11.67-3.52 5.38-12.9 7.7-37.66 9.3-18.94 1.22-25.84 3.2-54.82 15.74-30.16 13.04-34.64 14.45-47 14.84-5.78.18-14.15-.05-18.6-.52zm-10.6-123.1c-10.85-1.58-19.78-7-19.78-11.97 0-3.22 4.84-7.74 10.2-9.5 4.32-1.45 6.8-1.58 15.7-.87 25.4 2.05 41.2-1 74.1-14.26 23.73-9.6 43.38-13.32 59.53-11.3 12.87 1.6 19.76 4.45 27.16 11.27 5.48 5.04 7.32 8.43 7.32 13.53 0 5.06-2.77 8.54-8.52 10.74-6.14 2.36-13.9 1.55-29.48-3.05-8.36-2.47-15.4-3.87-21.27-4.23-14.84-.92-20.75.2-78.73 15.03-19 4.85-27.37 5.92-36.23 4.62z"/><path d="M63.42 445.14c-23.86-3.3-45.56-18.7-55.9-39.67C-.1 390.04.4 403.43.4 222.85.42 41.67-.2 56.78 7.87 40.3 14.74 26.28 29 13 43.83 6.75 58.3.68 54.3.85 179.03.85 306.2.85 301.16.6 316.42 7.8c20.47 9.64 34.2 25.9 39.56 46.83 1.85 7.3 1.9 12.73 1.9 168.13-.02 133.47-.25 161.7-1.4 167.17-5.84 27.5-29.22 49.25-58.58 54.5-6.02 1.1-29.75 1.33-119.5 1.24-61.6-.07-113.35-.3-115-.53zm239.1-5.3c20.44-5.16 37.03-18.5 45.63-36.72 6.7-14.18 6.18-.58 6.54-174.77.22-113.67 0-160.24-.82-166-4.24-30.05-27.95-52.95-59.5-57.47-5.7-.82-39.9-1.04-120.46-.8-126.27.4-116.07-.22-133 8.04-12.02 5.86-23.94 17.73-29.85 29.73-7.66 15.53-7.22 3.9-6.92 184.77l.27 161.73 2.67 7.34c3.95 10.8 8.4 17.72 16.87 26.14 8.73 8.7 19.6 14.96 31.1 17.98 7.04 1.84 12.22 1.92 123.44 1.98 112.87.05 116.3 0 124-1.95zm-199.2-281c-19.98-2.9-27.28-12.83-14.6-19.82 5.4-2.98 13.3-3.73 24.24-2.3 16.92 2.2 37.5-1.92 66.03-13.24 27.34-10.86 45.98-14.7 61.84-12.7 19.07 2.4 35.08 13.6 35.08 24.55 0 3.66-.52 4.77-3.42 7.3-7.15 6.3-14.94 6.6-31.9 1.32-25.07-7.82-39.82-6.8-86.16 5.9-30.76 8.43-41.78 10.37-51.12 9z"/></g></g></svg>