<svg xmlns="http://www.w3.org/2000/svg" width="358.759" height="445.788" viewBox="0 0 358.75864 445.78812"><g><g><path fill="#e0c5c6" d="M55.25 443.96c-25.83-6.36-46.16-25.92-53.1-51.1-1.7-6.13-1.8-16-1.8-170.5v-164l2.73-8.03C9.68 30.93 23.16 15.8 41.54 7.2 57.08-.03 49.1.36 179.36.36 287.04.35 296.9.5 303.1 2.08c21.56 5.55 39.02 19.36 48.35 38.24 7.92 16.02 7.48 4.7 7.18 186.54l-.27 161.5-2.7 8c-8.15 23.98-27.45 41.6-52.05 47.5-7.97 1.92-12 1.98-124.74 1.9-107.4-.05-117.05-.2-123.6-1.8zm248.1-4.46c24.56-7.3 42.88-25.68 48.96-49.1 1.38-5.27 1.56-24.88 1.55-167-.02-139.88-.22-161.9-1.52-167.43-4.2-17.8-18.2-34.95-35.54-43.5-16.12-7.96-9.25-7.58-137.24-7.6C51.4 4.85 58.83 4.44 41.93 12.55 24.67 20.83 11.13 37.48 6.37 56.3c-2.25 8.88-2.25 323.77 0 333.3 6.13 26.04 28.56 46.52 56.07 51.2 2.7.47 56.67.76 119.92.66 107.1-.17 115.4-.3 121-1.96zm-99.5-43.77c-11.72-2.53-31.58-8.96-39.14-12.67l-5.64-2.77-3.2 2.83c-2.46 2.22-3.78 2.7-5.95 2.24-4.38-.97-9.5 2.04-11.68 6.86-2.1 4.64-5.3 5.72-10.5 3.57-4.23-1.76-6.56-5.64-9.03-15.1-1.2-4.6-2.25-8.44-2.3-8.56-.08-.12-2.6.44-5.6 1.24-17.1 4.55-29.92-1.18-29.93-13.4 0-4.25.06-4.34 2.74-3.7 1.52.38 8.9.93 16.38 1.25l13.62.57-2.42-11.37c-1.33-6.26-2.5-15.2-2.62-19.88-.2-8.13-.1-8.5 2.06-8.82 3.47-.5 7.8 4.5 9 10.37 5.84 28.1 5.35 26.45 7.8 26.45 2.67 0 26.63-6.76 27.6-7.8.36-.38.4-3.9.12-7.84l-.53-7.14-4.62 1.54c-6 2-7.12 2.95-7.13 6.13-.05 8.42-3.93 9.5-7.6 2.12-4.97-10.02-9.14-34.14-7.9-45.72.9-8.47 3.1-10.7 9.7-9.83 6.64.86 16.1-1.54 37.23-9.46 36.27-13.6 41.82-14.73 47.98-9.9 4.5 3.56 3.6 7.25-3.38 13.8-5.4 5.05-6.14 6.27-7.54 12.1-.88 3.7-1.8 13.84-2.15 23.5l-.62 17 16.4.06c15.23.05 16.94.24 24.38 2.82 12.27 4.24 20.1 8.48 24.5 13.25 3.53 3.82 4 4.92 4 9.2 0 3.8-.64 5.77-2.9 8.87-8.38 11.58-39.48 28.04-56.1 29.7-3.66.36-8.67-.14-15-1.5zm-48.03-31.7c.05-4.98 1.83-5.05-15.63.6l-11.18 3.6 2.04 4.07c3.56 7.07 3.03 7.02 14.37 1.3l10.35-5.25.04-4.3zm49.62 11.27c19.88-5.76 30.9-12.23 35.26-20.7 2.36-4.6 2.38-4.84.65-6.76-2.14-2.36-8.08-2.6-21.67-.86l-8.82 1.14v6.67c0 5.83-.37 7.17-3 10.74-3.43 4.66-9.05 7.77-12.5 6.9-1.28-.32-3.3-2.13-4.45-4-1.16-1.9-2.66-3.63-3.33-3.86-1.28-.44-9.9 2.25-13.86 4.33-1.28.7-4.1 2.63-6.26 4.32-3.88 3.04-3.9 3.1-1.5 3.76 1.33.37 8.78.72 16.56.77 12.37.1 15.24-.22 22.94-2.45zm-19.38-18.47c2.56-1.2 4.38-3.73 3.38-4.73-.26-.26-5.62.73-11.92 2.2-9.8 2.27-11.54 2.98-12.04 4.86-1.56 5.82-1.28 5.9 8.63 2.3 5.1-1.86 10.47-3.94 11.96-4.63zM179.68 340l10.32-2.65-.57-2.87c-.3-1.58-.57-4.23-.57-5.88v-3l-5.25.67c-2.88.36-8.05 1.14-11.5 1.73l-6.24 1.06v7.5c0 6.75.18 7.44 1.75 6.8.97-.38 6.4-1.9 12.08-3.35zm-29.57-14.2c4.14-1.14 4.4-2.06 3.15-11.14l-.62-4.48-4.38 1.58-4.4 1.58v6.76c0 7.4.05 7.42 6.26 5.7zm23.17-7.46c2.7-.82 7.25-1.5 10.12-1.5h5.2l.62-3.74c1.2-7.35.86-9.25-1.7-9.25-8.64 0-17.82 1.44-18.6 2.9-1.26 2.37-2.43 13.1-1.42 13.1.47 0 3.07-.7 5.77-1.5zM150.1 304.3c2.93-.7 3.44-2.82 2.2-9.07-.56-2.76-.8-2.86-5.47-2.53-5.42.38-5.04-.65-3.46 9.45.47 2.97.97 3.7 2.3 3.3.93-.28 2.93-.8 4.44-1.16zm35.92-8.28c4.63.33 4.67.3 5.24-3.17 1.2-7.3.96-7.93-2.65-7-1.78.46-7.55 1.6-12.82 2.5l-9.6 1.68 1.42 4.26 1.4 4.25 6.18-1.43c3.4-.78 8.28-1.28 10.84-1.1zm-78.04-14.16c-13.96-2.13-19.12-5.63-19.12-12.95 0-3.73.05-3.78 4.64-4.4 2.55-.36 14.14-.65 25.75-.65 11.6 0 24.87-.3 29.47-.66l8.35-.66-.56-3.45c-.37-2.34-1.78-4.52-4.34-6.74l-3.8-3.3 9.04-9.35c4.97-5.13 10.53-11.95 12.35-15.14 3.74-6.54 4.66-6.47 8.3.65 3.1 6.1 2.14 12.28-3.05 19.8-4.04 5.86-4.94 9.04-3.3 11.63.65 1.02 1.98.84 6.35-.83 6.28-2.4 8.45-5.34 11.34-15.37 2.7-9.4.55-20.13-5.4-26.94-1.55-1.78-1.35-2.14 3.53-6.5 2.85-2.56 7.7-6.17 10.77-8.03l5.6-3.38 4.7 2.9c8.4 5.2 11.6 12.52 9.2 21.1-1.2 4.3-9.15 17.05-15.6 25.03l-2.64 3.3 8.4-3.18c20.28-7.64 40.8-14.17 45.98-14.64 9.82-.88 17.92 3.26 17.92 9.15 0 7.55-9.74 11.1-34.85 12.7-23.08 1.46-30.12 3.56-68.25 20.26-22.08 9.7-23.44 10.03-40.4 10.27-8.24.12-17.4-.15-20.37-.6zM79.86 170.2c-5.73-.94-7-1.46-7-2.84 0-2.07 3.67-3.72 19-8.53 16.28-5.1 21.03-7.4 27.65-13.35 3.8-3.42 5.6-6.03 7.26-10.56 2.5-6.83 7.76-13.07 11.04-13.07 2.78 0 15.94 4.4 21.18 7.07 6.63 3.37 11.88 8.74 11.88 12.12 0 4.48-1.6 6.6-8.18 10.85-14.73 9.5-43.34 16.9-70.82 18.25-5.22.26-10.62.3-12 .06zm184.54-2.43c-21.05-2.88-47.25-10.7-60.13-17.97-10.6-5.98-23.35-18.9-35.4-35.85-9.76-13.72-15.96-20.2-24.26-25.33-3.95-2.45-4.74-3.44-4.74-5.95 0-4.14 2.4-8.85 6.6-12.9 3.3-3.2 3.95-3.42 10.2-3.4 11.8 0 13.73 1.7 36.77 32.48 22.1 29.53 33.94 38.45 74.43 56.04 7.98 3.45 15.06 6.7 15.75 7.24 1.47 1.12 1.68 4.34.35 5.16-1.83 1.13-12.76 1.4-19.55.47z"/><path fill="#bebebe" d="M55.25 443.96c-25.83-6.36-46.16-25.92-53.1-51.1-1.7-6.13-1.8-16-1.8-170.5v-164l2.73-8.03C9.68 30.93 23.16 15.8 41.54 7.2 57.08-.03 49.1.36 179.36.36 287.04.35 296.9.5 303.1 2.08c21.56 5.55 39.02 19.36 48.35 38.24 7.92 16.02 7.48 4.7 7.18 186.54l-.27 161.5-2.7 8c-8.15 23.98-27.45 41.6-52.05 47.5-7.97 1.92-12 1.98-124.74 1.9-107.4-.05-117.05-.2-123.6-1.8zm248.1-4.46c24.56-7.3 42.88-25.68 48.96-49.1 1.38-5.27 1.56-24.88 1.55-167-.02-139.88-.22-161.9-1.52-167.43-4.2-17.8-18.2-34.95-35.54-43.5-16.12-7.96-9.25-7.58-137.24-7.6C51.4 4.85 58.83 4.44 41.93 12.55 24.67 20.83 11.13 37.48 6.37 56.3c-2.25 8.88-2.25 323.77 0 333.3 6.13 26.04 28.56 46.52 56.07 51.2 2.7.47 56.67.76 119.92.66 107.1-.17 115.4-.3 121-1.96zm-91.5-42.33c-14.85-2.54-37.56-9.53-47.83-14.74-4.4-2.22-5.1-2.34-6.23-1-2 2.4-5.2 3.8-8.18 3.6-5.17-.38-9.42 2.26-11.62 7.24-1.85 4.18-2.33 4.58-5.5 4.58-3.9 0-8.85-3.53-11.04-7.87-.72-1.44-2.1-5.9-3.07-9.9-1.42-5.85-2.1-7.2-3.4-6.8-9.28 2.8-19.43 3.3-24.44 1.22-1.77-.74-4.7-3-6.46-5.03-2.64-3-3.24-4.53-3.24-8.27 0-4.5.05-4.57 2.75-3.9 1.52.4 8.9.94 16.37 1.24l13.6.53-2.83-14.36c-4.2-21.3-3.8-27.26 1.76-25.3 4.25 1.5 6.25 6.14 9.56 22.18 1.67 8.12 3.12 14.87 3.22 15 .32.37 18.83-4.55 24.58-6.53l5.5-1.9-.36-7.4c-.2-4.07-.46-7.5-.6-7.66-.4-.47-8.82 2.74-10.2 3.9-.74.6-1.34 2.53-1.34 4.28 0 1.76-.63 4.06-1.4 5.12-1.4 1.88-1.46 1.9-3.5.05-5.12-4.64-10.3-25.85-10.48-42.93-.12-11.82-.1-11.84 2.7-14.28 2.45-2.1 3.5-2.35 7.5-1.82 6.7.87 14.8-1.3 40.9-10.96 34.58-12.8 36.75-13.2 43.53-8.4 4.66 3.27 3.8 6.7-3.24 12.98-5.65 5.03-6.1 5.76-7.53 12.33-.84 3.84-1.8 14.63-2.14 23.98l-.63 17 15.9.04c14.74.02 16.5.23 24.4 2.85 19.77 6.6 29 13.78 29 22.6 0 4.37-2.07 7.85-7.86 13.27-15.12 14.15-45.45 27.22-58.14 25.05zm-65.98-23.57l9.95-5.25.02-4.25c0-2.33-.3-4.25-.7-4.25-1.5 0-26.28 8.1-26.28 8.58 0 1.82 5.52 10.42 6.68 10.42.2 0 4.85-2.36 10.33-5.25zm64.7.48c17.4-5.97 26.5-11.8 30.4-19.44 4.37-8.56-1.2-10.65-20.78-7.8-3.77.53-7.4.98-8.1 1-.85 0-1.24 1.9-1.24 6.06 0 3.33-.65 7.3-1.45 8.85-1.7 3.34-7.55 8.65-10.52 9.6-2.42.77-6.4-1.45-8-4.47-.6-1.1-1.87-2.4-2.85-2.94-2.62-1.4-14.1 2.9-20.26 7.58l-5.05 3.83 2.82.68c1.55.38 10.25.58 19.32.45 15.62-.22 17-.4 25.72-3.4zm-32.7-13.8c8.54-3.08 12-5.26 12-7.62 0-.44-.57-.8-1.26-.8-2 .05-21.74 4.66-22.3 5.23-.3.27-.8 2.2-1.14 4.3-.56 3.44-.44 3.72 1.3 3.04 1.04-.42 6.18-2.3 11.4-4.17zm1.28-20.07l10.8-2.85-.67-5.5c-.37-3.02-.8-5.66-.98-5.85-.34-.4-16.6 1.64-20.2 2.52-2.07.5-2.24 1.1-2.24 8.03 0 5.56.32 7.35 1.25 7 .7-.27 6.12-1.77 12.05-3.34zm-29.04-14.4c3.5-.96 3.76-1.3 3.75-4.74 0-2.04-.28-5.35-.62-7.37l-.6-3.66-4.38 1.62-4.4 1.62v6.8c0 7.4.05 7.45 6.26 5.72zm23.76-7.45c3.03-.8 7.58-1.48 10.12-1.48 4.56-.02 4.63-.07 5.24-3.77.34-2.06.62-5.05.63-6.63v-2.9l-9.74.7c-5.35.4-10.27 1.25-10.92 1.9-1.43 1.42-2.95 13.7-1.7 13.67.5 0 3.36-.67 6.38-1.5zm-23.64-14.1c2.8-.65 2.85-.82 2.42-6.03-.24-2.95-.63-5.5-.86-5.7-.23-.17-2.5-.13-5.06.1l-4.64.42.45 4.16c.84 7.63 1.28 8.8 3.1 8.26.96-.28 3.02-.82 4.6-1.2zm27.47-7.44c3.3-.65 7.6-1 9.5-.78 3.3.4 3.5.23 4.05-3.13.33-1.95.6-4.48.6-5.63v-2.08l-12.74 2.44c-7 1.34-12.87 2.56-13.03 2.7-.15.14.15 1.33.67 2.63.53 1.3 1.22 3.22 1.55 4.24.33 1.07 1.17 1.63 1.97 1.33.76-.3 4.1-1.07 7.42-1.72zm-70.3-15.06c-12.6-1.83-18.54-5.95-18.54-12.83 0-3.73.05-3.78 4.64-4.4 2.55-.36 14.14-.65 25.75-.65 11.6 0 24.82-.3 29.36-.65l8.26-.64v-3.03c0-2.24-1-3.94-3.9-6.56l-3.9-3.54 8.47-8.98c4.65-4.94 10.18-11.87 12.3-15.4l3.85-6.43 2.63 3.98c5 7.55 4.4 14.4-2.03 22.8-3.34 4.38-4.66 10.56-2.53 11.88.48.3 3.3-.26 6.25-1.24 5.08-1.68 5.54-2.12 8.7-8.37 5.72-11.3 5.4-22.3-.92-32.28l-2.8-4.45 4.68-3.9c2.6-2.14 7.24-5.58 10.35-7.62 5.44-3.58 5.78-3.67 8.57-2.23 4.95 2.56 11 9.94 11.74 14.33 1.17 6.88-3.72 17.16-14.2 29.9-2.9 3.54-5 6.42-4.64 6.42.35 0 8.62-2.9 18.37-6.46 31.1-11.34 39.3-13.13 46.48-10.13 7.1 2.96 9.84 9.2 5.67 12.98-4.92 4.46-13.54 6.18-42.6 8.53-14.52 1.17-22.62 3.75-53 16.82-29.3 12.6-31.78 13.28-47.86 13.13-7.22-.07-15.82-.5-19.1-1zM79.87 170.2c-5.73-.94-7-1.46-7-2.84 0-2.07 3.67-3.72 19-8.53 16.28-5.1 21.03-7.4 27.65-13.35 3.8-3.42 5.6-6.03 7.26-10.56 2.5-6.83 7.76-13.07 11.04-13.07 2.78 0 15.94 4.4 21.18 7.07 6.63 3.37 11.88 8.74 11.88 12.12 0 4.48-1.6 6.6-8.18 10.85-14.73 9.5-43.34 16.9-70.82 18.25-5.22.26-10.62.3-12 .06zm184.54-2.43c-21.05-2.88-47.25-10.7-60.13-17.97-10.6-5.98-23.35-18.9-35.4-35.85-9.76-13.72-15.96-20.2-24.26-25.33-3.95-2.45-4.74-3.44-4.74-5.95 0-4.14 2.4-8.85 6.6-12.9 3.3-3.2 3.95-3.42 10.2-3.4 11.8 0 13.73 1.7 36.77 32.48 22.1 29.53 33.94 38.45 74.43 56.04 7.98 3.45 15.06 6.7 15.75 7.24 1.47 1.12 1.68 4.34.35 5.16-1.83 1.13-12.76 1.4-19.55.47z"/><path fill="#c38c8f" d="M57.23 444.37C36.4 439.8 16.88 424.8 7.78 406.4c-8.02-16.2-7.33-.2-7.7-178.05-.23-114.78 0-161.22.82-167 3.92-27.66 23.87-49.7 53.13-58.7L61.36.4l112.5-.32c78.74-.22 115.05 0 121 .8 16.86 2.2 31.94 9.78 44 22.1 7.8 7.96 13.1 16.6 16.78 27.37l2.72 8 .28 160.5c.2 109.68-.06 162.7-.8 167.42-2.2 14.48-9.73 28.33-21.3 39.23-8.66 8.17-17.3 13.43-28.18 17.13l-8 2.72-118.5.18c-96.05.15-119.66-.07-124.63-1.16zm246.13-4.8c22.48-6.52 40.93-23.53 47.6-43.84l2.4-7.38v-332l-2.62-6.74c-3.9-10.02-8.6-17.3-15.95-24.66-7.78-7.8-16.45-13.12-27.44-16.86l-8-2.73h-119.5c-113.08 0-119.82.1-125.5 1.84C34.78 13.17 19.7 25.5 11.4 42.3 4.5 56.36 4.9 45.16 4.9 223.4 4.86 402.9 4.32 389.06 12 404.76c6.93 14.15 21.5 27.05 36.9 32.65 11.68 4.25 13.1 4.3 133.46 4.1 106.06-.18 115.47-.34 121-1.94zm-91.5-42.4c-14.86-2.54-37.57-9.53-47.84-14.74-4.4-2.22-5.1-2.34-6.23-1-2 2.4-5.2 3.8-8.18 3.6-5.17-.38-9.42 2.26-11.62 7.24-1.85 4.18-2.33 4.58-5.5 4.58-3.9 0-8.85-3.53-11.04-7.87-.72-1.44-2.1-5.9-3.07-9.9-1.42-5.85-2.1-7.2-3.4-6.8-9.28 2.8-19.43 3.3-24.44 1.22-1.77-.74-4.7-3-6.46-5.03-2.64-3-3.24-4.53-3.24-8.27 0-4.5.05-4.57 2.75-3.9 1.52.4 8.9.94 16.37 1.24l13.6.53-2.83-14.36c-4.2-21.3-3.8-27.26 1.76-25.3 4.25 1.5 6.25 6.14 9.56 22.18 1.67 8.12 3.12 14.87 3.22 15 .32.37 18.83-4.55 24.58-6.53l5.5-1.9-.36-7.4c-.2-4.07-.46-7.5-.6-7.66-.4-.47-8.82 2.74-10.2 3.9-.74.6-1.34 2.53-1.34 4.28 0 1.76-.63 4.06-1.4 5.12-1.4 1.88-1.46 1.9-3.5.05-5.12-4.64-10.3-25.85-10.48-42.93-.12-11.82-.1-11.84 2.7-14.28 2.45-2.1 3.5-2.35 7.5-1.82 6.7.87 14.8-1.3 40.9-10.96 34.58-12.8 36.75-13.2 43.53-8.4 4.66 3.27 3.8 6.7-3.24 12.98-5.65 5.03-6.1 5.76-7.53 12.33-.84 3.84-1.8 14.63-2.14 23.98l-.63 17 15.9.04c14.74.02 16.5.23 24.4 2.85 19.77 6.6 29 13.78 29 22.6 0 4.37-2.07 7.85-7.86 13.27-15.12 14.15-45.45 27.22-58.14 25.05zm-66-23.57l9.96-5.25.02-4.25c0-2.33-.3-4.25-.7-4.25-1.5 0-26.28 8.1-26.28 8.58 0 1.82 5.52 10.42 6.68 10.42.2 0 4.85-2.36 10.33-5.25zm64.72.48c17.38-5.97 26.5-11.8 30.4-19.44 4.36-8.56-1.2-10.65-20.8-7.8-3.75.53-7.38.98-8.07 1-.85 0-1.24 1.9-1.24 6.06 0 3.33-.65 7.3-1.45 8.85-1.7 3.34-7.55 8.65-10.52 9.6-2.42.77-6.4-1.45-8-4.47-.6-1.1-1.87-2.4-2.85-2.94-2.62-1.4-14.1 2.9-20.26 7.58l-5.05 3.83 2.82.68c1.55.38 10.25.58 19.32.45 15.62-.22 17-.4 25.72-3.4zm-32.72-13.8c8.55-3.08 12-5.26 12-7.62 0-.44-.56-.8-1.25-.8-2 .05-21.74 4.66-22.3 5.23-.3.27-.8 2.2-1.14 4.3-.56 3.44-.44 3.72 1.3 3.04 1.04-.42 6.18-2.3 11.4-4.17zm1.3-20.07l10.78-2.85-.66-5.5c-.37-3.02-.8-5.66-.98-5.85-.34-.4-16.6 1.64-20.2 2.52-2.07.5-2.24 1.1-2.24 8.03 0 5.56.32 7.35 1.25 7 .7-.27 6.12-1.77 12.05-3.34zm-29.05-14.4c3.5-.96 3.76-1.3 3.75-4.74 0-2.04-.28-5.35-.62-7.37l-.6-3.66-4.38 1.62-4.4 1.62v6.8c0 7.4.05 7.45 6.26 5.72zm23.76-7.45c3.03-.8 7.58-1.48 10.12-1.48 4.56-.02 4.63-.07 5.24-3.77.34-2.06.62-5.05.63-6.63v-2.9l-9.74.7c-5.35.4-10.27 1.25-10.92 1.9-1.43 1.42-2.95 13.7-1.7 13.67.5 0 3.36-.67 6.38-1.5zm-23.64-14.1c2.8-.65 2.85-.82 2.42-6.03-.24-2.95-.63-5.5-.86-5.7-.23-.17-2.5-.13-5.06.1l-4.64.42.45 4.16c.84 7.63 1.28 8.8 3.1 8.26.96-.28 3.02-.82 4.6-1.2zm27.47-7.44c3.3-.65 7.6-1 9.5-.78 3.3.4 3.5.23 4.05-3.13.33-1.95.6-4.48.6-5.63v-2.08l-12.74 2.44c-7 1.34-12.87 2.56-13.03 2.7-.15.14.15 1.33.67 2.63.53 1.3 1.22 3.22 1.55 4.24.33 1.07 1.17 1.63 1.97 1.33.76-.3 4.1-1.07 7.42-1.72zm-70.3-15.06c-12.6-1.83-18.54-5.95-18.54-12.83 0-3.73.05-3.78 4.64-4.4 2.55-.36 14.14-.65 25.75-.65 11.6 0 24.82-.3 29.36-.65l8.26-.64v-3.03c0-2.24-1-3.94-3.9-6.56l-3.9-3.54 8.47-8.98c4.65-4.94 10.18-11.87 12.3-15.4l3.85-6.43 2.63 3.98c5 7.55 4.4 14.4-2.03 22.8-3.34 4.38-4.66 10.56-2.53 11.88.48.3 3.3-.26 6.25-1.24 5.08-1.68 5.54-2.12 8.7-8.37 5.72-11.3 5.4-22.3-.92-32.28l-2.8-4.45 4.68-3.9c2.6-2.14 7.24-5.58 10.35-7.62 5.44-3.58 5.78-3.67 8.57-2.23 4.95 2.56 11 9.94 11.74 14.33 1.17 6.88-3.72 17.16-14.2 29.9-2.9 3.54-5 6.42-4.64 6.42.35 0 8.62-2.9 18.37-6.46 31.1-11.34 39.3-13.13 46.48-10.13 7.1 2.96 9.84 9.2 5.67 12.98-4.92 4.46-13.54 6.18-42.6 8.53-14.52 1.17-22.62 3.75-53 16.82-29.3 12.6-31.78 13.28-47.86 13.13-7.22-.07-15.82-.5-19.1-1zM78.88 170.1c-1.93-.22-4.08-.9-4.78-1.47-2.66-2.2 2.18-4.77 19.3-10.25 16-5.12 17.84-5.96 24.32-11.12 5.6-4.46 7.33-6.52 8.57-10.14 2.27-6.7 6.04-12.65 9-14.24 2.34-1.24 3.43-1.15 9.84.9 9.58 3.04 20.2 8.65 23.25 12.3 3.66 4.35 3.23 7.85-1.5 12.13-11.5 10.4-40.07 19.14-70.53 21.6-7.04.6-13.07.98-13.4.9-.34-.1-2.18-.36-4.1-.6zm183.5-2.83c-21.7-3.34-41.7-9.3-55.6-16.52-11.4-5.94-23.7-17.9-36.35-35.34-10.32-14.23-19.87-24.14-26.6-27.56-3.4-1.74-3.96-2.5-3.96-5.3 0-4.22 4.94-12.07 9.23-14.68 6.2-3.78 15.2-2.02 22.48 4.4 2.52 2.22 10.32 11.7 17.33 21.06 7 9.37 15.3 19.95 18.4 23.5 12.88 14.77 26.53 23.34 62.06 39 12.05 5.3 15.06 7.02 15.3 8.75.26 1.75-.4 2.36-3.5 3.2-4.72 1.33-7.45 1.25-18.8-.5z"/><path fill="#7c7c7c" d="M57.23 444.37C36.4 439.8 16.88 424.8 7.78 406.4c-8.02-16.2-7.33-.2-7.7-178.05-.23-114.78 0-161.22.82-167 3.92-27.66 23.87-49.7 53.13-58.7L61.36.4l112.5-.32c78.74-.22 115.05 0 121 .8 16.86 2.2 31.94 9.78 44 22.1 7.8 7.96 13.1 16.6 16.78 27.37l2.72 8 .28 160.5c.2 109.68-.06 162.7-.8 167.42-2.2 14.48-9.73 28.33-21.3 39.23-8.66 8.17-17.3 13.43-28.18 17.13l-8 2.72-118.5.18c-96.05.15-119.66-.07-124.63-1.16zm246.13-4.8c22.48-6.52 40.93-23.53 47.6-43.84l2.4-7.38v-332l-2.62-6.74c-3.9-10.02-8.6-17.3-15.95-24.66-7.78-7.8-16.45-13.12-27.44-16.86l-8-2.73h-119.5c-113.08 0-119.82.1-125.5 1.84C34.78 13.17 19.7 25.5 11.4 42.3 4.5 56.36 4.9 45.16 4.9 223.4 4.86 402.9 4.32 389.06 12 404.76c6.93 14.15 21.5 27.05 36.9 32.65 11.68 4.25 13.1 4.3 133.46 4.1 106.06-.18 115.47-.34 121-1.94zm-176.2-44.67c-4.36-2.67-5.83-5.25-8.15-14.38-1.08-4.3-2.2-8.07-2.5-8.35-.27-.28-3.66.2-7.52 1.1-3.86.87-8.74 1.58-10.85 1.58-4.73 0-11.98-3.57-14.62-7.2-2.1-2.9-2.94-11.44-1.07-11.1 8.96 1.58 19.9 2.38 25.03 1.83 3.52-.38 6.4-.8 6.4-.97 0-.14-1.12-5.8-2.5-12.55-2.08-10.23-3.42-27-2.15-27 .2 0 1.83.5 3.62 1.14 4.2 1.45 5.28 4.1 9 21.94 1.6 7.78 3.17 14.37 3.45 14.66.67.67 7.58-1 20.46-4.97l10.37-3.2-.47-7.3c-.26-4.02-.75-7.6-1.1-7.93-.33-.34-2.97.23-5.87 1.27-5.16 1.86-5.27 1.98-6.1 6.9-.44 2.74-1.23 5.4-1.74 5.9-2.88 2.93-8.14-9.25-11.4-26.35-1.9-10.03-2.04-26.55-.27-30.07 1.15-2.27 1.9-2.5 8.15-2.68 9.67-.27 14.1-1.48 39.56-10.83 26.8-9.84 32.13-11.5 37.23-11.5 4.4 0 9.22 2.17 10.14 4.56 1.36 3.55.37 5.48-5.4 10.6-5.14 4.55-6.27 6.18-7.52 10.85-1.37 5.13-3.4 27.7-3.44 38.1l-.02 4.57 14.75-.07c16-.08 20.43.73 34.95 6.36 19.77 7.67 25.28 18.6 15 29.78-10.8 11.72-38.1 25.55-53.25 26.96-10.2.95-38.16-6.12-53.72-13.6l-6.1-2.9-3.15 2.4c-2.02 1.55-4.5 2.4-6.86 2.4-5.34 0-9.5 2.53-11.3 6.83-2.4 5.78-5.4 6.65-11 3.23zM146 373.7l9.86-5.17v-4.34c0-2.67-.45-4.35-1.18-4.35-1.9 0-24.23 7.1-25.18 8-.98.94 4.18 11 5.65 11 .53 0 5.4-2.32 10.84-5.16zm61.16 1.7c11.87-3.46 23.06-8.9 28.43-13.86 7.54-6.97 9.2-12.38 4.66-15.35-2.37-1.56-3.66-1.6-14.25-.46-16.65 1.8-16.02 1.54-15.4 6.13.87 6.54-.5 10.7-5.12 15.52-3.5 3.65-4.92 4.45-7.86 4.45-3 0-4.12-.66-6.76-4-1.74-2.2-3.92-4-4.83-3.97-4.83.07-23.17 10.47-23.17 13.14 0 .98 13.92 1.65 26 1.25 6.44-.22 12.34-1.14 18.3-2.88zm-31.8-13.9c9.85-3.27 14.5-6 14.5-8.53 0-1.88-.15-1.9-8.4-.08-17.06 3.72-16.6 3.5-16.6 8.1 0 2.83.38 3.93 1.25 3.6.7-.25 4.86-1.65 9.26-3.1zm-1.06-19.58c3.88-1.07 9-2.44 11.36-3.06l4.3-1.1-.3-6.2-.3-6.2-3 .26c-1.65.15-6.75.8-11.34 1.43-7.35 1.02-8.45 1.44-9.25 3.54-1.36 3.56-1.15 13.25.28 13.25.65 0 4.36-.87 8.25-1.93zm-20.3-24.1c-.18-4.1-.5-7.64-.7-7.86-.22-.22-2.37.36-4.78 1.28l-4.4 1.68-.66 6.5c-.36 3.6-.43 6.9-.14 7.37.3.46 2.9.32 5.78-.32l5.25-1.17-.34-7.47zm31.07-.8c2.04.14 3.9.05 4.15-.2.24-.26.6-3.35.8-6.88l.34-6.4-7.5.22c-4.12.12-9.07.55-11 .95-3.4.7-3.54.94-4.7 7.2-.67 3.55-1.05 6.95-.84 7.55.25.75 2.67.5 7.7-.8 4.04-1.03 9-1.76 11.05-1.63zm-35.36-12.26c3.08-1.07 3.16-1.27 3.16-7.14v-6.05l-5.13.6c-2.83.35-5.33.8-5.57 1.05-.23.23-.1 3.17.27 6.53.76 6.68 1.33 7.08 7.28 5zm32.83-7.6l9.16-.54.38-5.63c.2-3.1.3-5.78.2-5.95-.24-.38-25.34 4.4-25.87 4.92-.2.22.13 2.34.76 4.72 1.05 3.92 1.38 4.24 3.68 3.66 1.4-.35 6.65-.88 11.7-1.2zm-67.17-14.98c-7.87-.67-17.06-2.5-20.3-4.03-3.8-1.8-6.45-6.26-6-10.1l.3-2.7 30-.67c16.5-.37 31.94-.97 34.32-1.32 4.2-.63 4.3-.72 3.7-3.83-.4-1.94-2.14-4.5-4.52-6.6l-3.9-3.42 8.14-8.57c4.46-4.72 9.87-11.28 12-14.58 2.14-3.3 4.37-6 4.97-6 1.9 0 5.12 7.58 5.12 12 0 4.54-2.98 11.3-6.8 15.5-1.78 1.96-2.17 3.32-1.8 6.25.55 4.3.73 4.34 7.87 2.1 4.98-1.58 5.45-2.03 8.34-7.9 5.94-12.05 5.94-20.4 0-31.37-1.62-3-2.94-5.74-2.94-6.1 0-.87 10.3-8.88 15.28-11.9 2.53-1.52 4.6-2.07 6.23-1.66 3.15.8 9.18 6.07 11.04 9.68 2.05 3.94 1.78 11.6-.58 16.8-2.24 4.95-9.7 15.7-14.8 21.35-1.87 2.07-3.16 3.75-2.88 3.75.28 0 6.3-2.2 13.4-4.87 35.92-13.6 46.55-15.78 55.06-11.32 4.72 2.48 6.2 5.8 4.4 9.82-2.25 4.9-13.93 7.85-36.64 9.24-19.62 1.2-25.78 3-59.04 17.24-12.67 5.43-26.58 10.77-30.9 11.88-7.47 1.9-17.13 2.35-29.06 1.34zM78.86 170.1c-1.92-.22-4.07-.9-4.77-1.47-2.66-2.2 2.18-4.77 19.3-10.25 16-5.12 17.84-5.96 24.32-11.12 5.6-4.46 7.33-6.52 8.57-10.14 2.27-6.7 6.04-12.65 9-14.24 2.34-1.24 3.43-1.15 9.84.9 9.58 3.04 20.2 8.65 23.25 12.3 3.66 4.35 3.23 7.85-1.5 12.13-11.5 10.4-40.07 19.14-70.53 21.6-7.04.6-13.07.98-13.4.9-.34-.1-2.18-.36-4.1-.6zm183.5-2.83c-21.68-3.34-41.68-9.3-55.6-16.52-11.4-5.94-23.7-17.9-36.34-35.34-10.32-14.23-19.87-24.14-26.6-27.56-3.4-1.74-3.96-2.5-3.96-5.3 0-4.22 4.94-12.07 9.23-14.68 6.2-3.78 15.2-2.02 22.48 4.4 2.52 2.22 10.32 11.7 17.33 21.06 7 9.37 15.3 19.95 18.4 23.5 12.88 14.77 26.53 23.34 62.06 39 12.05 5.3 15.06 7.02 15.3 8.75.26 1.75-.4 2.36-3.5 3.2-4.72 1.33-7.45 1.25-18.8-.5z"/><path fill="#a55357" d="M61.7 444.84c-16.34-2.8-29.34-9.4-40.34-20.47-8.9-8.97-13.34-15.8-17.32-26.68l-2.68-7.35-.28-164C.78 43.07.33 55.13 7.88 40.07c8.64-17.25 24.45-30.33 43.98-36.4l7.5-2.32h240l7.5 2.35c20.62 6.43 35.92 19.35 44.6 37.65 6.84 14.37 6.4 1.98 6.4 181.55 0 158.97-.04 162.8-1.98 170.4-3.07 11.97-8.23 20.75-18.02 30.64-7.1 7.17-10.06 9.34-18 13.24-17.93 8.8-6.67 8.12-137.5 8.3-63.8.1-118.1-.2-120.67-.64zm245.66-6.3c23.13-8.14 41.37-28.04 46-50.2 1.25-5.96 1.47-30.1 1.47-165 0-175.57.4-165-6.82-180-6.9-14.35-17.76-25.03-32.64-32.1-15.38-7.32-6.8-6.9-136-6.9-130.1 0-120.87-.5-137 7.47-14.27 7.06-24.53 17.33-31.52 31.55-7.44 15.17-7.07 5.1-6.76 183.5l.28 159.5 2.34 7c5.76 17.24 18.4 32.3 33.9 40.32 16.68 8.65 7.24 8.12 140.76 7.9l118-.22 8-2.8zm-180.2-43.64c-4.36-2.67-5.83-5.25-8.15-14.38-1.08-4.3-2.2-8.07-2.5-8.35-.27-.28-3.66.2-7.52 1.1-3.86.87-8.74 1.58-10.85 1.58-4.73 0-11.98-3.57-14.62-7.2-2.1-2.9-2.94-11.44-1.07-11.1 8.96 1.58 19.9 2.38 25.03 1.83 3.52-.38 6.4-.8 6.4-.97 0-.14-1.12-5.8-2.5-12.55-2.08-10.23-3.42-27-2.15-27 .2 0 1.83.5 3.62 1.14 4.2 1.45 5.28 4.1 9 21.94 1.6 7.78 3.17 14.37 3.45 14.66.67.67 7.58-1 20.46-4.97l10.37-3.2-.47-7.3c-.26-4.02-.75-7.6-1.1-7.93-.33-.34-2.97.23-5.87 1.27-5.16 1.86-5.27 1.98-6.1 6.9-.44 2.74-1.23 5.4-1.74 5.9-2.88 2.93-8.14-9.25-11.4-26.35-1.9-10.03-2.04-26.55-.27-30.07 1.15-2.27 1.9-2.5 8.15-2.68 9.67-.27 14.1-1.48 39.56-10.83 26.8-9.84 32.13-11.5 37.23-11.5 4.4 0 9.22 2.17 10.14 4.56 1.36 3.55.37 5.48-5.4 10.6-5.14 4.55-6.27 6.18-7.52 10.85-1.37 5.13-3.4 27.7-3.44 38.1l-.02 4.57 14.75-.07c16-.08 20.43.73 34.95 6.36 19.77 7.67 25.28 18.6 15 29.78-10.8 11.72-38.1 25.55-53.25 26.96-10.2.95-38.16-6.12-53.72-13.6l-6.1-2.9-3.15 2.4c-2.02 1.55-4.5 2.4-6.86 2.4-5.34 0-9.5 2.53-11.3 6.83-2.4 5.78-5.4 6.65-11 3.23zM146 373.7l9.86-5.17v-4.34c0-2.67-.45-4.35-1.18-4.35-1.9 0-24.23 7.1-25.18 8-.98.94 4.18 11 5.65 11 .53 0 5.4-2.32 10.84-5.16zm61.16 1.7c11.87-3.46 23.06-8.9 28.43-13.86 7.54-6.97 9.2-12.38 4.66-15.35-2.37-1.56-3.66-1.6-14.25-.46-16.65 1.8-16.02 1.54-15.4 6.13.87 6.54-.5 10.7-5.12 15.52-3.5 3.65-4.92 4.45-7.86 4.45-3 0-4.12-.66-6.76-4-1.74-2.2-3.92-4-4.83-3.97-4.83.07-23.17 10.47-23.17 13.14 0 .98 13.92 1.65 26 1.25 6.44-.22 12.34-1.14 18.3-2.88zm-31.8-13.9c9.85-3.27 14.5-6 14.5-8.53 0-1.88-.15-1.9-8.4-.08-17.06 3.72-16.6 3.5-16.6 8.1 0 2.83.38 3.93 1.25 3.6.7-.25 4.86-1.65 9.26-3.1zm-1.06-19.58c3.88-1.07 9-2.44 11.36-3.06l4.3-1.1-.3-6.2-.3-6.2-3 .26c-1.65.15-6.75.8-11.34 1.43-7.35 1.02-8.45 1.44-9.25 3.54-1.36 3.56-1.15 13.25.28 13.25.65 0 4.36-.87 8.25-1.93zm-20.3-24.1c-.18-4.1-.5-7.64-.7-7.86-.22-.22-2.37.36-4.78 1.28l-4.4 1.68-.66 6.5c-.36 3.6-.43 6.9-.14 7.37.3.46 2.9.32 5.78-.32l5.25-1.17-.34-7.47zm31.07-.8c2.04.14 3.9.05 4.15-.2.24-.26.6-3.35.8-6.88l.34-6.4-7.5.22c-4.12.12-9.07.55-11 .95-3.4.7-3.54.94-4.7 7.2-.67 3.55-1.05 6.95-.84 7.55.25.75 2.67.5 7.7-.8 4.04-1.03 9-1.76 11.05-1.63zm-35.36-12.26c3.08-1.07 3.16-1.27 3.16-7.14v-6.05l-5.13.6c-2.83.35-5.33.8-5.57 1.05-.23.23-.1 3.17.27 6.53.76 6.68 1.33 7.08 7.28 5zm32.83-7.6l9.16-.54.38-5.63c.2-3.1.3-5.78.2-5.95-.24-.38-25.34 4.4-25.87 4.92-.2.22.13 2.34.76 4.72 1.05 3.92 1.38 4.24 3.68 3.66 1.4-.35 6.65-.88 11.7-1.2zm-67.17-14.98c-7.87-.67-17.06-2.5-20.3-4.03-3.8-1.8-6.45-6.26-6-10.1l.3-2.7 30-.67c16.5-.37 31.94-.97 34.32-1.32 4.2-.63 4.3-.72 3.7-3.83-.4-1.94-2.14-4.5-4.52-6.6l-3.9-3.42 8.14-8.57c4.46-4.72 9.87-11.28 12-14.58 2.14-3.3 4.37-6 4.97-6 1.9 0 5.12 7.58 5.12 12 0 4.54-2.98 11.3-6.8 15.5-1.78 1.96-2.17 3.32-1.8 6.25.55 4.3.73 4.34 7.87 2.1 4.98-1.58 5.45-2.03 8.34-7.9 5.94-12.05 5.94-20.4 0-31.37-1.62-3-2.94-5.74-2.94-6.1 0-.87 10.3-8.88 15.28-11.9 2.53-1.52 4.6-2.07 6.23-1.66 3.15.8 9.18 6.07 11.04 9.68 2.05 3.94 1.78 11.6-.58 16.8-2.24 4.95-9.7 15.7-14.8 21.35-1.87 2.07-3.16 3.75-2.88 3.75.28 0 6.3-2.2 13.4-4.87 35.92-13.6 46.55-15.78 55.06-11.32 4.72 2.48 6.2 5.8 4.4 9.82-2.25 4.9-13.93 7.85-36.64 9.24-19.62 1.2-25.78 3-59.04 17.24-12.67 5.43-26.58 10.77-30.9 11.88-7.47 1.9-17.13 2.35-29.06 1.34zM75.6 169.16c-2.6-.68-2.1-3.08 1-4.63 1.52-.76 8.84-3.3 16.26-5.64 7.43-2.35 15.12-5.1 17.1-6.1 4.17-2.12 15.9-11.7 15.9-13 0-2.4 4.35-12.04 6.48-14.33 3.23-3.5 7.3-3.4 17.62.36 13.33 4.86 20.9 10.82 20.9 16.44 0 7.3-24.08 18.84-50 23.97-15.05 2.98-39.1 4.53-45.25 2.92zm180.76-3.25c-20.35-3.6-42.07-10.6-53.17-17.13-8.45-4.95-23.66-20.57-33.57-34.47-8.94-12.52-19.6-23.5-26.13-26.95-3.65-1.92-3.77-2.15-3.17-6 .7-4.45 4.75-10.94 8.28-13.25 3.25-2.12 12.14-1.84 17.43.55 5.56 2.52 9.2 6.46 22.36 24.2 18.12 24.46 25.53 32.44 37.96 40.92 10.48 7.16 21.1 12.7 40.5 21.2 13.4 5.88 17.57 8.13 17.8 9.65.2 1.35-.4 2.17-2 2.6-4.13 1.1-16.1.5-26.3-1.3z"/><path fill="#871a1f" d="M61.7 444.84c-16.34-2.8-29.34-9.4-40.34-20.47-8.9-8.97-13.34-15.8-17.32-26.68l-2.68-7.35-.28-164C.78 43.07.33 55.13 7.88 40.07c8.64-17.25 24.45-30.33 43.98-36.4l7.5-2.32h240l7.5 2.35c20.62 6.43 35.92 19.35 44.6 37.65 6.84 14.37 6.4 1.98 6.4 181.55 0 158.97-.04 162.8-1.98 170.4-3.07 11.97-8.23 20.75-18.02 30.64-7.1 7.17-10.06 9.34-18 13.24-17.93 8.8-6.67 8.12-137.5 8.3-63.8.1-118.1-.2-120.67-.64zm245.66-6.3c23.13-8.14 41.37-28.04 46-50.2 1.25-5.96 1.47-30.1 1.47-165 0-175.57.4-165-6.82-180-6.9-14.35-17.76-25.03-32.64-32.1-15.38-7.32-6.8-6.9-136-6.9-130.1 0-120.87-.5-137 7.47-14.27 7.06-24.53 17.33-31.52 31.55-7.44 15.17-7.07 5.1-6.76 183.5l.28 159.5 2.34 7c5.76 17.24 18.4 32.3 33.9 40.32 16.68 8.65 7.24 8.12 140.76 7.9l118-.22 8-2.8zm-179-43.2c-5.47-2.82-6.54-4.88-10.46-20.14l-1.06-4.14-4.35 1.3c-16.58 5-29.22.82-31.1-10.24-.94-5.6-.32-6.33 4.22-5.03 4 1.14 26.66 1.67 27.7.64.33-.34-.53-6.25-1.93-13.13-1.4-6.87-2.54-15.73-2.54-19.7 0-6.98.06-7.16 2.25-6.5 5.28 1.56 6.63 4.33 10.15 20.78 1.85 8.67 3.6 16 3.92 16.3.8.8 9.56-1.17 21.05-4.7l9.85-3.05-.37-7.37c-.2-4.06-.66-7.66-1.02-8.02-.35-.35-3.1.13-6.07 1.07-5.4 1.7-5.42 1.73-6.33 6.83-1.93 10.83-6.94 4.8-11.55-13.88-1.73-7-2.24-12.08-2.3-22.82-.07-16.54-.07-16.53 10.8-16.55 8.3 0 15.72-2.07 39.14-10.85 26.04-9.77 32.15-11.58 37.17-11 4.93.55 9.33 3.86 9.33 7.02 0 1.1-2.82 4.66-6.38 8.08-5.57 5.35-6.52 6.82-7.55 11.62-1.18 5.53-2.97 27.06-3.03 36.62l-.04 5.12 14.75-.12c12.68-.1 15.9.22 22.76 2.22 17.18 4.98 30.27 13.4 32.08 20.63 1.94 7.72-5.38 16.07-23.55 26.9-15.6 9.26-30.68 14.2-40.66 13.28-11.52-1.04-34.07-7.58-47.5-13.77l-6.8-3.13-3.1 2.63c-2.25 1.88-4.27 2.62-7.15 2.62-5.4 0-9.1 2.38-11.4 7.37-2.2 4.68-4.4 5.45-8.94 3.12zm27.3-31.37l.3-5-7.8 2.42c-14.7 4.5-18.8 6.14-19.08 7.56-.15.78 1.1 3.57 2.77 6.2l3.03 4.8 10.24-5.5 10.24-5.5.3-5zm53.72 10.83c17.86-5.7 27.8-11.74 31.58-19.15 2.52-4.94 2.16-7.8-1.25-9.7-2.3-1.3-4.24-1.32-15-.16-6.78.7-12.82 1.5-13.4 1.72-.64.24-.9 2.66-.68 6.12.34 4.97 0 6.3-2.5 10.2-3.36 5.22-8.8 8.6-12.36 7.7-1.32-.35-3.3-2-4.4-3.66-1.1-1.67-2.83-3.3-3.85-3.63-3.13-1-15.74 4.3-21.1 8.87l-4.96 4.23 8.96.63c17.18 1.2 28.03.32 38.98-3.18zm-34.38-13c12.52-4.62 14.6-5.8 15.12-8.53.54-2.83 1.05-2.86-15.26.92l-9.5 2.2-.3 4.22c-.18 2.33.13 4.23.68 4.23.54 0 4.7-1.37 9.26-3.05zm-.64-19.82c3.85-1.1 8.9-2.5 11.25-3.1l4.26-1.1V324.7l-2.75.52c-1.5.28-6.7 1.04-11.56 1.7-7.92 1.04-8.9 1.4-9.75 3.6-1.45 3.8-1.2 14.36.3 13.86.7-.23 4.4-1.3 8.26-2.4zm-25-15.46l5-1.3-.35-7.43c-.18-4.1-.48-7.6-.67-7.8-.42-.43-7.72 1.87-8.65 2.72-1.06 1-2.18 15.14-1.2 15.1.5 0 3.13-.6 5.87-1.3zm26.96-8.2c3.83-.9 8.45-1.33 10.25-1l3.3.62v-4.42c0-2.43.27-5.8.6-7.5l.63-3.1-4.87.45c-2.68.25-7.86.7-11.52 1.03l-6.63.6-.66 4.67c-.35 2.58-.9 6.2-1.22 8.04-.5 2.97-.35 3.3 1.3 2.8 1.03-.33 5-1.3 8.84-2.2zm-28.46-12.84l4.5-1.34.3-6.3.3-6.28-5.18.62c-2.86.33-5.37.8-5.6 1.02-.33.33.7 13.7 1.07 13.64.06 0 2.14-.62 4.6-1.36zm34.64-8.3l9.14-.6.48-5.6c.27-3.1.37-5.77.22-5.94-.14-.16-5.37.63-11.62 1.78-17.67 3.23-15.9 2.26-14 7.6 1.47 4.1 1.9 4.5 4.14 3.96 1.38-.32 6.6-.86 11.64-1.2zm-69.37-15.3c-10.84-1.23-17.06-2.98-20.3-5.7-3.38-2.85-5.07-9-2.85-10.42.76-.48 9.93-.9 20.38-.95 19.53-.07 46.14-1.25 46.97-2.08.26-.26.2-2.14-.13-4.18-.45-2.78-1.56-4.4-4.42-6.52l-3.83-2.8 7.58-7.44c4.17-4.08 9.7-10.7 12.3-14.68 4.38-6.74 4.82-7.13 6.24-5.5 6.15 7.04 5.38 15.57-2.28 25.3-2.4 3.04-2.72 4.2-2.23 7.8.33 2.5 1.03 4.1 1.68 3.87.6-.22 3.52-1.25 6.46-2.3 4.7-1.65 5.67-2.48 7.8-6.67 3.54-7 5.64-16.12 4.84-21.07-.8-4.93-3.88-12.36-6.2-14.9-1.5-1.7-1.43-2 1.22-4.77 5.02-5.25 16.36-12.26 18.8-11.64 3.38.87 9.25 6.17 11.07 10 3.8 8.02.12 18.44-11.72 33.13-3.53 4.4-6.33 8.12-6.2 8.26.13.15 10.1-3.3 22.15-7.64 12.05-4.34 25.2-8.7 29.25-9.66 6.92-1.66 7.63-1.66 12.7-.06 5.5 1.73 9.46 5.35 9.46 8.66 0 2.65-5.4 6.7-11.3 8.46-2.86.86-11.27 2.02-18.7 2.57-28.5 2.1-32.7 3.22-66.5 17.74-29 12.45-31.9 13.35-44.5 13.73-5.77.17-13.75-.06-17.73-.5zM75.6 169.17c-2.6-.68-2.1-3.08 1-4.63 1.52-.76 8.84-3.3 16.26-5.64 7.43-2.35 15.12-5.1 17.1-6.1 4.17-2.12 15.9-11.7 15.9-13 0-2.4 4.35-12.04 6.48-14.33 3.23-3.5 7.3-3.4 17.62.36 13.33 4.86 20.9 10.82 20.9 16.44 0 7.3-24.08 18.84-50 23.97-15.05 2.98-39.1 4.53-45.25 2.92zm180.76-3.25c-20.35-3.6-42.07-10.6-53.17-17.13-8.45-4.95-23.66-20.57-33.57-34.47-8.94-12.52-19.6-23.5-26.13-26.95-3.65-1.92-3.77-2.15-3.17-6 .7-4.45 4.75-10.94 8.28-13.25 3.25-2.12 12.14-1.84 17.43.55 5.56 2.52 9.2 6.46 22.36 24.2 18.12 24.46 25.53 32.44 37.96 40.92 10.48 7.16 21.1 12.7 40.5 21.2 13.4 5.88 17.57 8.13 17.8 9.65.2 1.35-.4 2.17-2 2.6-4.13 1.1-16.1.5-26.3-1.3z"/><path fill="#010101" d="M59.72 444.3c-23.1-4.22-42.33-18.82-52.46-39.84-6.85-14.2-6.5-3.5-6.18-184.6l.28-163.5 3.2-8.28C11.45 30.13 23.3 17.13 40.32 8.8 57.4.46 50.4.86 180.07.87c109.24 0 114.64.1 122.3 1.93 10.18 2.43 16.16 5 24.55 10.6 12.55 8.34 22.42 21 27.76 35.62l2.68 7.33v166.5c0 159.9-.07 166.72-1.86 172-6.68 19.68-19.46 34.48-37.14 43-16.53 7.98-6.17 7.4-135.5 7.64-95.38.17-116.83-.04-123.14-1.2zm241.22-3.88c23.32-4.94 42.45-22 50.6-45.07l2.82-8 .28-160.5c.3-180.23.74-169.1-7.05-185-3.28-6.67-5.9-10.2-12.2-16.5C323.4 13.4 311.2 7.2 295.25 4.9c-4.25-.62-48.88-1-116.02-1.03-93.7 0-110.36.2-117.92 1.52C35.72 9.84 15.76 26.7 7.28 51l-2.92 8.35-.27 159.98c-.3 178.73-.66 169.04 6.66 184 8.58 17.57 22.5 29.53 41.2 35.4 3.52 1.12 7.53 2.2 8.9 2.44 1.38.22 54.48.46 118 .53 95.3.1 116.65-.13 122.08-1.28zm-225.4-271.2c-1-.3-1.66-1.28-1.5-2.2.23-1.2 5.42-3.36 18.44-7.7 11.1-3.7 19.62-7.14 22-8.9 5.43-4 11.38-9.77 11.4-11.02 0-1.96 5.1-12.04 7.22-14.3 2.6-2.78 6.57-2.9 13.86-.38 13.26 4.56 23.9 12.17 23.9 17.1 0 3.7-5.2 8.1-15.37 13.04-17.9 8.68-40.56 13.8-64.14 14.5-7.7.22-14.8.16-15.8-.13zm178.56-3.86c-24.57-4.66-43.86-11.78-56.65-20.9-8.24-5.88-15.73-14.1-26.32-28.92-10.05-14.05-19.7-24.1-26.58-27.7-4.62-2.4-4.77-2.6-4.16-5.95.9-4.98 2.85-8.3 6.95-11.9 3.58-3.15 4.95-3.52 11.5-3.15 8.42.47 13.34 4.67 26.72 22.78 11.8 15.98 24.06 30.85 29.66 36 9.8 9 30.63 20.73 56.37 31.7 12.66 5.4 14.72 6.98 11.78 9.13-2.83 2.07-15 1.6-29.28-1.1z"/></g></g></svg>