<svg xmlns="http://www.w3.org/2000/svg" width="358.496" height="445.808" viewBox="0 0 358.49649 445.80792"><g><g><path fill="#e0c5c6" d="M56.48 444.38c-21.05-4.6-39.5-18.8-48.95-37.65C-.63 390.43-.1 403.7.2 219.85l.28-163.5 2.34-6.5c4.1-11.47 8.97-19 18.06-28.02C30.44 12.35 39.92 6.7 53 2.7L60.5.4l113-.32c77.78-.22 115.6.02 121.32.77 30.5 4 54.5 24.87 61.96 53.82 1.6 6.2 1.72 18.7 1.72 168.68 0 182.14.66 166.5-7.67 183.5-5.84 11.95-18.64 24.74-30.82 30.8-17.5 8.7-8.84 8.2-140.9 8.12-92.1-.06-117.86-.35-122.6-1.4zm246-4.8c3.3-.96 9.83-3.6 14.5-5.9 12-5.83 23.97-17.78 29.87-29.83 7.63-15.54 7.2-4.07 6.9-183.76l-.27-160.75-2.33-7C344.2 31.45 328 15.4 306.48 8.08l-8-2.73h-239l-8 2.82C30.23 15.65 14.24 31.6 7.2 52.35l-2.72 8-.3 157.5c-.2 113.62.02 159.72.84 165.45 4.17 29.22 27.2 52.4 57.1 57.44 3.02.5 55.27.83 119.86.75 105.75-.16 114.96-.3 120.5-1.92zm-97.6-43.65c-13.46-2.9-26.14-6.78-36.32-11.15l-9.36-4-3.73 2.52c-2.43 1.65-4.5 2.33-5.97 1.97-1.23-.3-3.88.12-5.9.97-2.78 1.16-4.1 2.6-5.6 6.07-1.74 4.08-2.28 4.55-5.23 4.55-4.17 0-9.26-3.08-11.16-6.75-.8-1.56-2.18-5.74-3.08-9.3-.9-3.54-1.8-6.96-2-7.58-.28-.82-2.12-.73-6.7.34-8.5 1.98-18.9 1.37-22.5-1.3-3.87-2.9-6.14-6.37-6.8-10.4-.9-5.55.2-6.34 7-5.08 6.63 1.22 25.46 1.46 25.46.32 0-.4-1.12-6.3-2.5-13.05-1.37-6.77-2.5-15.43-2.5-19.25 0-6.56.13-6.95 2.28-6.95 3.1 0 6.22 2.35 7.57 5.7.6 1.55 2.47 9.3 4.14 17.22 1.66 7.93 3.13 14.53 3.27 14.66.38.36 17.55-4.24 23.74-6.37l5.5-1.9.3-6.15c.43-8.8-.12-9.38-6.55-6.98-4.65 1.75-5.25 2.3-5.25 4.84 0 1.57-.45 4.05-1 5.5-2.46 6.5-7.53-.54-11.68-16.2-2.18-8.22-2.6-12.13-2.7-24.14-.1-14.06-.07-14.38 2.33-16.32 1.98-1.6 3.32-1.86 7.05-1.35 6.62.9 14.5-1.2 40.84-10.9 33.63-12.42 38.43-13.33 44.67-8.4 4.3 3.38 3.38 6.84-3.47 12.97-5.2 4.66-6.16 6.1-7.54 11.33-.87 3.3-1.8 11.18-2.07 17.5-.27 6.33-.67 14.43-.9 18l-.4 6.5 16.18.03c15.07.03 16.77.23 24.68 2.87 23.76 7.93 33.23 17.68 27.58 28.4-4.83 9.18-25.9 23.06-44.08 29.06-12.24 4.04-17.25 4.44-27.6 2.23zm-49.56-31.52c.3-2.2.4-4.14.24-4.3-.37-.38-25.5 7.33-26.2 8.03-.63.64 2.25 6.52 4.4 8.96 1.42 1.63 2.1 1.4 11.27-3.47 9.5-5.07 9.76-5.3 10.3-9.22zm47.93 11.5c10.13-2.58 21.6-7.44 28.58-12.1 7.96-5.32 12.3-13.42 8.95-16.75-1.5-1.5-10.5-1.54-21.73-.1l-8.57 1.1.35 4.94c.47 6.6-.3 9.15-4 13.38-3.9 4.43-8.35 6.8-11.32 6.07-1.24-.32-3.46-2.15-4.94-4.08-1.73-2.27-3.5-3.52-5.04-3.52-4.1 0-13.12 4.04-17.94 8.03l-4.65 3.83 2.78.43c1.54.23 8.9.5 16.37.57 10.56.12 15.3-.28 21.18-1.8zm-15.66-20.14c2.27-1.9 1.72-4.2-.87-3.6-1.23.28-6.63 1.5-12 2.68l-9.75 2.18v7.6l10.6-3.85c5.85-2.12 11.25-4.37 12-5zm-9.37-15.5l10.75-2.9V325.6l-5.74.67c-3.17.36-8.34 1.14-11.5 1.73-5.74 1.08-5.75 1.1-5.77 4.7 0 2-.3 5.4-.65 7.54-.52 3.13-.37 3.8.76 3.4.77-.3 6.24-1.83 12.15-3.42zm-28.6-14.55c4.34-1.08 4.52-1.27 3.95-4.12-.33-1.64-.6-4.92-.6-7.3v-4.33l-4.5 1.67-4.5 1.66v6.8c0 3.72.26 6.77.56 6.77.3 0 2.6-.5 5.1-1.14zm23.35-7.35c3.03-.8 7.87-1.48 10.75-1.5h5.25l.02-4.25c0-2.34.3-5.33.65-6.65l.65-2.4-9.75.72c-5.36.4-10.35.95-11.07 1.22-.73.27-1.62 2.83-1.98 5.68-.36 2.84-.88 5.96-1.15 6.92-.6 2.1-.34 2.12 6.63.25zm-24.86-13.66l3.86-1.16V292.1l-4.75.5c-2.6.3-4.86.6-5 .72-.45.37 1.03 12.53 1.53 12.53.27 0 2.23-.52 4.36-1.16zm28.68-7.9c3.3-.64 7.85-1 10.1-.78 4.08.38 4.08.38 4.1-3.14 0-1.94.27-4.47.58-5.63l.56-2.1-12.83 2.47c-7.04 1.35-12.9 2.53-13 2.6-.1.08.35 2.07.97 4.42.7 2.55 1.62 4.08 2.33 3.8.65-.24 3.9-.98 7.2-1.63zm-70.82-15.1c-8.8-1.26-14.4-4.1-16.4-8.3-1.92-4.03-2.05-7.14-.35-8.23.7-.44 15.78-1.06 33.54-1.4 17.76-.32 32.68-1 33.15-1.5 1.93-2.07-.1-6.92-4.08-9.78l-4-2.87 7.94-8.14c4.37-4.5 10.04-11.4 12.62-15.4 2.57-4 4.88-7.25 5.12-7.25 1.02 0 5.33 7.76 5.93 10.67.93 4.5-.97 10.53-5 15.8-2.65 3.48-3.47 5.5-3.47 8.65 0 3.1.35 3.97 1.4 3.56.77-.3 3.27-1.1 5.57-1.8 2.3-.67 5.02-2.32 6.06-3.64 2.34-2.97 5.5-11.3 6.45-16.96.84-5.08-1.47-14.04-5.04-19.52-1.32-2.05-2.42-4.12-2.42-4.6 0-1.68 18.52-15.17 20.83-15.17 2.18 0 9.73 6.16 11.84 9.65 5.48 9.04 1.7 20.35-12.4 37.1-2.42 2.9-4.2 5.25-3.94 5.25.26 0 6.3-2.2 13.4-4.9 20.48-7.74 35.3-12.28 41.86-12.83 15.23-1.28 23.42 10.06 11.87 16.43-4.66 2.57-18.97 5.3-27.83 5.3-18.4.03-31.3 3.56-62.56 17.15-29.87 12.97-33.15 13.88-49.86 13.73-7.53-.07-16.62-.54-20.2-1.04zm-7.63-117.27c-18.13-4.14-22.07-14.1-8.37-21.14 3.66-1.88 5.42-1.96 31.5-1.33 17.1.4 30.48-2.74 57.94-13.63 22.76-9.03 33.1-11.6 49.06-12.2 14.48-.55 22.9.83 31.26 5.1 14.45 7.4 21.25 20.7 13.98 27.34-7.25 6.63-15.42 6.93-35 1.28-7.55-2.18-17.23-4.25-21.5-4.6-10.28-.86-25.94 1.5-48.24 7.24-9.62 2.48-24.47 6.3-33 8.5-17.77 4.55-28.45 5.52-37.63 3.43zm28.63-54.33c-2.92-1.46-3.55-2.36-3.8-5.44-.44-5.23 2.2-6.62 15.98-8.4 15.7-2.04 39.23-6.95 49.76-10.4 4.85-1.57 13.82-5.38 19.93-8.44 12.15-6.1 15.75-6.7 20.9-3.56 10.18 6.2 3.96 14.93-16.3 22.92-29.68 11.72-75.54 18.78-86.47 13.32z"/><path fill="#bebebe" d="M56.48 444.38c-21.05-4.6-39.5-18.8-48.95-37.65C-.63 390.43-.1 403.7.2 219.85l.28-163.5 2.34-6.5c4.1-11.47 8.97-19 18.06-28.02C30.44 12.35 39.92 6.7 53 2.7L60.5.4l113-.32c77.78-.22 115.6.02 121.32.77 30.5 4 54.5 24.87 61.96 53.82 1.6 6.2 1.72 18.7 1.72 168.68 0 182.14.66 166.5-7.67 183.5-5.84 11.95-18.64 24.74-30.82 30.8-17.5 8.7-8.84 8.2-140.9 8.12-92.1-.06-117.86-.35-122.6-1.4zm246-4.8c3.3-.96 9.83-3.6 14.5-5.9 12-5.83 23.97-17.78 29.87-29.83 7.63-15.54 7.2-4.07 6.9-183.76l-.27-160.75-2.33-7C344.2 31.45 328 15.4 306.48 8.08l-8-2.73h-239l-8 2.82C30.23 15.65 14.24 31.6 7.2 52.35l-2.72 8-.3 157.5c-.2 113.62.02 159.72.84 165.45 4.17 29.22 27.2 52.4 57.1 57.44 3.02.5 55.27.83 119.86.75 105.75-.16 114.96-.3 120.5-1.92zm-99.5-44.16c-12.63-2.8-29.8-8.43-37.86-12.42l-5.86-2.9-3.3 2.56c-2.32 1.82-4.3 2.5-6.87 2.37-4.78-.26-9.4 2.68-11.74 7.48-2.3 4.72-5.8 5.5-10.83 2.38-3.9-2.4-6.8-7.9-8.63-16.32-.7-3.2-1.55-5.98-1.92-6.2-.36-.23-3.1.23-6.08 1.03-15.45 4.1-27.43-.63-29.35-11.58-.93-5.33.14-6.16 6.4-4.98 6.48 1.23 26.03 1.34 26.03.15 0-.48-1.12-6.4-2.5-13.15-2.87-14.12-3.35-26-1.04-26 3.05 0 6.5 2.4 8 5.57.87 1.8 2.66 8.64 4 15.17 3.82 18.77 3.02 17.15 7.87 16.1 2.3-.5 9.02-2.3 14.93-4l10.75-3.1v-6.3c0-9.43-.15-9.6-6.28-7.53-5.1 1.73-5.15 1.8-6.18 7.16-.83 4.34-1.42 5.42-2.98 5.42-4.48 0-11.22-21.48-12.25-39.1-1.02-17.3 1.2-22.06 9.7-20.9 6.52.9 16.6-1.66 37.5-9.5 36.92-13.84 41.15-14.68 47.46-9.37 4.42 3.73 3.88 5.95-3 12.32-7.4 6.83-8.78 11.03-9.52 28.55-.27 6.6-.68 14.94-.9 18.54l-.4 6.52 12.98-.4c9.97-.3 14.66 0 20.18 1.32 15.8 3.8 28.48 10.16 33.86 17 3.54 4.5 3.23 11.2-.75 16.17-9.53 11.95-39.67 27.95-55.92 29.7-3.32.36-8.5-.24-15.5-1.78zm-58.03-21.6c9.6-4.92 9.8-5.1 10.44-9.13.36-2.27.43-4.33.16-4.6-.87-.87-26.58 7.78-26.58 8.94 0 1.36 4.86 9.8 5.63 9.8.3 0 4.96-2.25 10.35-5.02zm58.9 2.07c16.33-4.18 30.22-11.42 35.26-18.4 3.6-4.95 3.93-10.18.7-11.2-2.94-.94-9.54-.74-20.32.6l-9 1.13.35 5.42c.28 4.4-.14 6.23-2.26 9.84-2.67 4.55-6.36 7.75-10.37 9-1.86.58-3.13-.15-6.83-3.9-3.6-3.65-5.02-4.5-6.72-3.96-7.5 2.3-13.08 4.95-17.3 8.16-4.67 3.57-4.73 3.7-2.33 4.36 1.35.38 8.9.74 16.8.8 11.2.07 16-.33 22.02-1.87zm-17.7-19.06c2.92-1.35 4.56-5 2.26-5-.75 0-6.34 1.17-12.4 2.6l-11.02 2.58v7.8l9.25-3.37c5.1-1.85 10.45-3.93 11.92-4.6zm-8.17-16.3l11.5-3.2-.3-5.74c-.24-4.63-.63-5.75-2-5.74-2.4 0-20.28 2.74-20.64 3.15-.76.9-1.58 14.85-.87 14.8.45-.02 6-1.5 12.3-3.25zm-27.64-14.77c3.62-1 3.83-1.26 3.25-4.12-.34-1.68-.62-5-.62-7.36v-4.33l-4.5 1.54-4.5 1.54v6.9c0 7.58.02 7.6 6.36 5.83zm31.27-8.62l7.13-.57.55-6.1c.3-3.36.38-6.3.16-6.5-.22-.23-5 0-10.64.48l-10.24.9-.67 3.5c-.38 1.92-.96 5.4-1.3 7.7l-.63 4.2 4.26-1.52c2.34-.84 7.46-1.78 11.38-2.1zm-33.37-12.35l3.75-1.04V292.1l-4.75.5c-2.6.3-4.86.6-5 .72-.52.42 1.07 12.53 1.65 12.53.33 0 2.3-.48 4.35-1.05zm28.57-8c3.3-.64 7.85-1 10.1-.78 3.85.36 4.08.23 4.08-2.27 0-1.45.27-4 .6-5.63l.6-2.97-12.85 2.44c-7.06 1.33-12.92 2.5-13.02 2.6-.1.1.35 2.1.97 4.44.7 2.55 1.62 4.08 2.33 3.8.65-.24 3.9-.98 7.2-1.63zm-69.77-15.07c-8.84-1.33-14.56-4.04-17-8.06-2.3-3.77-2.64-7.33-.8-8.48.7-.45 16-1.08 34.02-1.42 18-.34 33-.87 33.3-1.17.3-.3.26-2.16-.1-4.14-.5-2.6-1.76-4.38-4.53-6.42l-3.84-2.83 8-7.92c4.38-4.36 9.85-10.85 12.14-14.43 2.3-3.57 4.34-6.72 4.55-7 .85-1.1 5.22 5.3 6.26 9.17 1.34 5-.43 10.57-5.48 17.18-2.62 3.43-3.14 4.9-2.78 7.93.24 2.05.82 3.72 1.3 3.72.46 0 3.24-.9 6.18-2 4.63-1.73 5.64-2.6 7.67-6.74 2.67-5.43 5.04-13.54 5.05-17.32.02-4.1-2.75-12.3-5.54-16.4l-2.57-3.8 2.8-2.94c1.56-1.63 6.12-5.16 10.14-7.86 7.3-4.9 7.33-4.9 10.5-3.3 11.23 5.66 14.57 15.62 9.02 26.93-1.46 3-5.73 9.5-9.5 14.45-3.75 4.95-6.65 9-6.43 9 .2 0 8.9-3.1 19.28-6.9 21.98-8 32.46-11.1 37.65-11.1 7.12 0 15.65 5.17 15.65 9.5 0 1.17-1.24 3.32-2.76 4.78-5.16 4.94-11.52 6.25-41.98 8.64-14.52 1.15-23.43 3.92-50.26 15.63-31.8 13.9-31.32 13.75-48.5 14.05-8.25.14-17.9-.18-21.45-.72zm-8.68-117.3c-18.13-4.14-22.07-14.1-8.37-21.14 3.66-1.88 5.42-1.96 31.5-1.33 17.1.4 30.48-2.74 57.94-13.63 22.76-9.03 33.1-11.6 49.06-12.2 14.48-.55 22.9.83 31.26 5.1 14.45 7.4 21.25 20.7 13.98 27.34-7.25 6.63-15.42 6.93-35 1.28-7.55-2.18-17.23-4.25-21.5-4.6-10.28-.86-25.94 1.5-48.24 7.24-9.62 2.48-24.47 6.3-33 8.5-17.77 4.55-28.45 5.52-37.63 3.43zm28.63-54.33c-2.92-1.46-3.55-2.36-3.8-5.44-.44-5.23 2.2-6.62 15.98-8.4 15.7-2.04 39.23-6.95 49.76-10.4 4.85-1.57 13.82-5.38 19.93-8.44 12.15-6.1 15.75-6.7 20.9-3.56 10.18 6.2 3.96 14.93-16.3 22.92-29.68 11.72-75.54 18.78-86.47 13.32z"/><path fill="#c38c8f" d="M54.98 443.82c-21.27-5.53-38.8-19.6-48.08-38.6C-.4 390.3.02 401.32 0 222.76 0 67.36.05 61.93 1.9 54.63 7.16 34.15 21.14 17.23 40.5 7.9c16.7-8.04 7.7-7.55 138-7.55C310 .35 301.82-.13 319.3 8.6c7.56 3.78 10.8 6.2 18.27 13.68 7.37 7.37 9.86 10.67 13.24 17.57 8.34 17 7.68 1.37 7.68 183.5 0 153.5-.1 162.34-1.8 168.5-6.87 24.55-24.95 42.97-50.7 51.64-5.2 1.75-11.62 1.85-124.5 2.05-115.1.2-119.24.15-126.5-1.73zm241-3.03c15.5-2.5 27.67-8.68 38.47-19.48 8-8 12.48-15.03 16.36-25.63l2.68-7.35.27-161.73c.23-140.52.07-162.68-1.23-169-3.93-19.05-17.47-36.26-35.54-45.14-16.22-7.98-9.22-7.6-137.8-7.6C53.5 4.84 58.15 4.63 44.14 10.94c-14.86 6.7-25.53 16.93-32.75 31.4-7.9 15.8-7.5 5.48-7.16 185.07.33 175.23-.18 161.5 6.5 175.7 9.22 19.5 28.77 33.95 51 37.7 7.4 1.24 226.52 1.2 234.24-.03zm-93-45.38c-12.63-2.8-29.8-8.43-37.86-12.42l-5.86-2.9-3.3 2.56c-2.32 1.82-4.3 2.5-6.87 2.37-4.78-.26-9.4 2.68-11.74 7.48-2.3 4.72-5.8 5.5-10.83 2.38-3.9-2.4-6.8-7.9-8.63-16.32-.7-3.2-1.55-5.98-1.92-6.2-.36-.23-3.1.23-6.08 1.03-15.45 4.1-27.43-.63-29.35-11.58-.93-5.33.14-6.16 6.4-4.98 6.48 1.23 26.03 1.34 26.03.15 0-.48-1.12-6.4-2.5-13.15-2.87-14.12-3.35-26-1.04-26 3.05 0 6.5 2.4 8 5.57.87 1.8 2.66 8.64 4 15.17 3.82 18.77 3.02 17.15 7.87 16.1 2.3-.5 9.02-2.3 14.93-4l10.75-3.1v-6.3c0-9.43-.15-9.6-6.28-7.53-5.1 1.73-5.15 1.8-6.18 7.16-.83 4.34-1.42 5.42-2.98 5.42-4.48 0-11.22-21.48-12.25-39.1-1.02-17.3 1.2-22.06 9.7-20.9 6.52.9 16.6-1.66 37.5-9.5 36.92-13.84 41.15-14.68 47.46-9.37 4.42 3.73 3.88 5.95-3 12.32-7.4 6.83-8.78 11.03-9.52 28.55-.27 6.6-.68 14.94-.9 18.54l-.4 6.52 12.98-.4c9.97-.3 14.66 0 20.18 1.32 15.8 3.8 28.48 10.16 33.86 17 3.54 4.5 3.23 11.2-.75 16.17-9.53 11.95-39.67 27.95-55.92 29.7-3.32.36-8.5-.24-15.5-1.78zm-58.03-21.6c9.6-4.92 9.8-5.1 10.44-9.13.36-2.27.43-4.33.16-4.6-.87-.87-26.58 7.78-26.58 8.94 0 1.36 4.86 9.8 5.63 9.8.3 0 4.96-2.25 10.35-5.02zm58.9 2.07c16.33-4.18 30.22-11.42 35.26-18.4 3.6-4.95 3.93-10.18.7-11.2-2.94-.94-9.54-.74-20.32.6l-9 1.13.35 5.42c.28 4.4-.14 6.23-2.26 9.84-2.67 4.55-6.36 7.75-10.37 9-1.86.58-3.13-.15-6.83-3.9-3.6-3.65-5.02-4.5-6.72-3.96-7.5 2.3-13.08 4.95-17.3 8.16-4.67 3.57-4.73 3.7-2.33 4.36 1.35.38 8.9.74 16.8.8 11.2.07 16-.33 22.02-1.87zm-17.7-19.06c2.92-1.35 4.56-5 2.26-5-.75 0-6.34 1.17-12.4 2.6l-11.02 2.58v7.8l9.25-3.37c5.1-1.85 10.45-3.93 11.92-4.6zm-8.17-16.3l11.5-3.2-.3-5.74c-.24-4.63-.63-5.75-2-5.74-2.4 0-20.28 2.74-20.64 3.15-.76.9-1.58 14.85-.87 14.8.45-.02 6-1.5 12.3-3.25zm-27.64-14.77c3.62-1 3.83-1.26 3.25-4.12-.34-1.68-.62-5-.62-7.36v-4.33l-4.5 1.54-4.5 1.54v6.9c0 7.58.02 7.6 6.36 5.83zm31.27-8.62l7.13-.57.55-6.1c.3-3.36.38-6.3.16-6.5-.22-.23-5 0-10.64.48l-10.24.9-.67 3.5c-.38 1.92-.96 5.4-1.3 7.7l-.63 4.2 4.26-1.52c2.34-.84 7.46-1.78 11.38-2.1zm-33.37-12.35l3.75-1.04V292.1l-4.75.5c-2.6.3-4.86.6-5 .72-.52.42 1.07 12.53 1.65 12.53.33 0 2.3-.48 4.35-1.05zm28.57-8c3.3-.64 7.85-1 10.1-.78 3.85.36 4.08.23 4.08-2.27 0-1.45.27-4 .6-5.63l.6-2.97-12.85 2.44c-7.06 1.33-12.92 2.5-13.02 2.6-.1.1.35 2.1.97 4.44.7 2.55 1.62 4.08 2.33 3.8.65-.24 3.9-.98 7.2-1.63zm-69.77-15.07c-8.84-1.33-14.56-4.04-17-8.06-2.3-3.77-2.64-7.33-.8-8.48.7-.45 16-1.08 34.02-1.42 18-.34 33-.87 33.3-1.17.3-.3.26-2.16-.1-4.14-.5-2.6-1.76-4.38-4.53-6.42l-3.84-2.83 8-7.92c4.38-4.36 9.85-10.85 12.14-14.43 2.3-3.57 4.34-6.72 4.55-7 .85-1.1 5.22 5.3 6.26 9.17 1.34 5-.43 10.57-5.48 17.18-2.62 3.43-3.14 4.9-2.78 7.93.24 2.05.82 3.72 1.3 3.72.46 0 3.24-.9 6.18-2 4.63-1.73 5.64-2.6 7.67-6.74 2.67-5.43 5.04-13.54 5.05-17.32.02-4.1-2.75-12.3-5.54-16.4l-2.57-3.8 2.8-2.94c1.56-1.63 6.12-5.16 10.14-7.86 7.3-4.9 7.33-4.9 10.5-3.3 11.23 5.66 14.57 15.62 9.02 26.93-1.46 3-5.73 9.5-9.5 14.45-3.75 4.95-6.65 9-6.43 9 .2 0 8.9-3.1 19.28-6.9 21.98-8 32.46-11.1 37.65-11.1 7.12 0 15.65 5.17 15.65 9.5 0 1.17-1.24 3.32-2.76 4.78-5.16 4.94-11.52 6.25-41.98 8.64-14.52 1.15-23.43 3.92-50.26 15.63-31.8 13.9-31.32 13.75-48.5 14.05-8.25.14-17.9-.18-21.45-.72zm-6.78-116.93c-5.55-1.1-13.17-4.5-16-7.17-5.36-5.03-.8-12.4 9.53-15.4 4.4-1.28 7.1-1.44 12.64-.75 10.74 1.33 26.1.9 35.56-1 8.6-1.74 28.56-8.3 46-15.14 15.47-6.06 26.9-8.63 41-9.2 13.84-.6 21.22.7 30.68 5.28 6.15 2.98 15.86 13.03 16.82 17.4 1.02 4.64-2.08 9.95-7.4 12.73-6.37 3.33-13.37 3.04-27.75-1.13-6.52-1.9-14.97-3.98-18.78-4.64-13.9-2.4-31.67.37-71.45 11.18-31.96 8.68-40.16 9.95-50.85 7.84zm28.1-53.97c-4.04-1.26-5.6-3.2-5.2-6.57.55-4.56 4.3-6.35 16.7-7.98 28.9-3.78 54.6-10.83 71.03-19.48 5.17-2.72 10.5-4.95 11.85-4.95 6.44 0 12.92 6.1 11.24 10.56-1.07 2.85-7.13 8-12.77 10.84-10.2 5.16-31.23 11.6-51.22 15.66-11.72 2.4-36.47 3.54-41.62 1.93z"/><path fill="#7b7b7b" d="M54.98 443.82c-21.27-5.53-38.8-19.6-48.08-38.6C-.4 390.3.02 401.32 0 222.76 0 67.36.05 61.93 1.9 54.63 7.16 34.15 21.14 17.23 40.5 7.9c16.7-8.04 7.7-7.55 138-7.55C310 .35 301.82-.13 319.3 8.6c7.56 3.78 10.8 6.2 18.27 13.68 7.37 7.37 9.86 10.67 13.24 17.57 8.34 17 7.68 1.37 7.68 183.5 0 153.5-.1 162.34-1.8 168.5-6.87 24.55-24.95 42.97-50.7 51.64-5.2 1.75-11.62 1.85-124.5 2.05-115.1.2-119.24.15-126.5-1.73zm241-3.03c15.5-2.5 27.67-8.68 38.47-19.48 8-8 12.48-15.03 16.36-25.63l2.68-7.35.27-161.73c.23-140.52.07-162.68-1.23-169-3.93-19.05-17.47-36.26-35.54-45.14-16.22-7.98-9.22-7.6-137.8-7.6C53.5 4.84 58.15 4.63 44.14 10.94c-14.86 6.7-25.53 16.93-32.75 31.4-7.9 15.8-7.5 5.48-7.16 185.07.33 175.23-.18 161.5 6.5 175.7 9.22 19.5 28.77 33.95 51 37.7 7.4 1.24 226.52 1.2 234.24-.03zm-168.7-45.55c-4.36-2.18-5.83-4.76-8.33-14.54-1.17-4.6-2.27-8.48-2.44-8.65-.15-.17-4 .45-8.54 1.37-16.8 3.4-26.98-1.73-26.98-13.63 0-3.53.27-4.06 1.73-3.5 3.8 1.46 18.16 2.65 24.38 2.04l6.6-.66-2.37-11.66c-2.73-13.42-3.83-25.1-2.54-26.96 1.25-1.8 5.66 0 7.73 3.16.88 1.35 3.05 9.36 4.82 17.8l3.22 15.33 3.47-.27c3.84-.3 19.56-4.6 24.8-6.8l3.3-1.38-.68-7.27c-.38-4-.82-7.43-.98-7.6-.15-.2-2.8.46-5.86 1.42-5.18 1.63-5.6 2-6.14 5.33-1.06 6.6-1.5 8.07-2.4 8.07-5.32 0-12.22-24.97-12.36-44.7-.1-14.3.55-15.27 10.2-15.18 8.48.08 14.86-1.6 35.7-9.45 28.83-10.85 35.95-12.97 41.7-12.4 3.94.37 5.6 1.1 7.43 3.2 3.2 3.7 2.36 5.87-4.84 12.53-5.57 5.15-6.04 5.95-7.42 12.5-.8 3.85-1.76 14.47-2.12 23.6l-.64 16.58 14.9-.08c16.72-.1 24.14 1.45 38.07 7.88 12.4 5.73 16.32 9.94 16.32 17.52 0 5.85-2.44 9.75-9.7 15.47-15.64 12.34-38.8 22.53-51.14 22.53-9.77 0-40.34-8.52-52.28-14.57l-4.74-2.4-2.95 2.5c-2.18 1.82-4.12 2.47-7.42 2.47-5.34 0-9.03 2.52-11.54 7.86-2 4.26-4.97 5.02-9.92 2.55zm18.78-21.65l9.9-5.25v-4.72c.02-3.34-.34-4.6-1.23-4.3-.68.24-6.98 2.28-14 4.53l-12.74 4.1 1.63 3.2c2.62 5.08 4.5 7.7 5.56 7.7.52 0 5.42-2.37 10.86-5.26zm50.58 4.24c13-2.1 31.76-9.9 38.86-16.13 4.28-3.75 7.82-10.22 7-12.8-1.16-3.65-5.78-4.5-17.38-3.16-16.1 1.85-15.03 1.25-14.83 8.45.2 7.13-2.46 12.55-7.7 15.75-5.03 3.06-7.96 2.5-11.98-2.34l-3.52-4.24-6.97 2.37c-4.27 1.46-9.2 4.16-12.8 7l-5.85 4.62 9 .56c15.5.98 19.82.97 26.16-.06zm-20.54-16.67c5.64-2.03 11.07-4.5 12.07-5.5 2.06-2.06 2.46-5.27.56-4.56-.68.27-5.97 1.5-11.75 2.73-5.77 1.23-10.78 2.53-11.12 2.88-1.15 1.18-2 8.15-1 8.15.54 0 5.6-1.66 11.24-3.68zm13.28-29.8c-.36-3.3-.7-6.08-.78-6.16-.22-.26-20.03 2.65-21.82 3.22-1.52.48-1.8 1.74-1.8 8.3v7.75l12.53-3.53 12.53-3.54-.65-6.02zm-35.96-13.33c-.03-3.93-.3-7.38-.6-7.67-.6-.63-6.8 1.36-8.6 2.75-1.22.97-1.82 12.82-.7 13.95.32.3 2.68 0 5.26-.66l4.7-1.2-.06-7.16zm22.56.16c3.58-.84 7.9-1.3 9.64-1 2.95.46 3.16.28 3.74-3.18.33-2.02.6-5.3.6-7.3l.02-3.62-4.25.35c-17.83 1.5-17.54 1.44-18.12 3.76-.3 1.24-.86 4.88-1.24 8.1-.65 5.52-.57 5.84 1.22 5.15 1.05-.4 4.83-1.42 8.4-2.25zm-27.25-13.3l4.25-1.12v-5.97c0-6.6-.1-6.65-8.05-5.34l-3.56.6.73 5.14c.4 2.83.77 5.97.8 6.96.05 1 .42 1.6.83 1.35.42-.24 2.67-.96 5-1.6zm33.4-7.72l8.65-.56.6-3c.33-1.66.6-4.36.6-6 0-2.6-.3-2.9-2.25-2.45-1.23.3-6.3 1.25-11.25 2.12-14.8 2.62-13.47 1.8-11.72 7.13 1.4 4.22 1.73 4.55 4.12 3.95 1.43-.35 6.5-.9 11.25-1.2zm-70.5-15.42c-16.65-1.76-23.07-5.44-22.44-12.85l.28-3.55 29.5-.68c16.23-.37 31.42-.96 33.75-1.3 3.94-.6 4.25-.87 4.25-3.7 0-2.3-1.02-4-4.23-6.92l-4.24-3.88 8.65-8.76c4.76-4.8 10.3-11.36 12.3-14.56 3.2-5.06 3.88-5.64 5.26-4.5 2.3 1.9 4.28 7.18 4.28 11.3 0 4.53-2.1 9.6-6.07 14.6-2.7 3.4-3 4.43-2.42 7.86l.66 3.94 6.17-2.2c6.06-2.14 6.25-2.32 9.56-9.1 5.82-11.9 5.34-22.35-1.52-32.54l-2.32-3.46 2.15-2.28c3.46-3.7 16.47-12.3 18.58-12.3 3.5 0 10.3 5.85 12.44 10.72 3.75 8.5.52 17.58-11.9 33.28-3.7 4.7-5.75 7.97-4.7 7.55 12.2-4.9 41.04-14.94 47.9-16.67 7.7-1.93 9.4-2.05 13.4-.98 12.42 3.3 14.33 11.47 3.75 16.12-5.73 2.5-13.58 3.75-31.17 4.9-19.2 1.25-25.5 3.08-57.23 16.67-13.62 5.84-28.1 11.47-32.18 12.5-7.9 2.04-18.4 2.3-32.45.82zM100.24 164.8c-5.55-1.1-13.17-4.5-16-7.17-5.36-5.03-.8-12.4 9.53-15.4 4.4-1.28 7.1-1.44 12.64-.75 10.74 1.33 26.1.9 35.56-1 8.6-1.74 28.56-8.3 46-15.14 15.47-6.06 26.9-8.63 41-9.2 13.84-.6 21.22.7 30.68 5.28 6.15 2.98 15.86 13.03 16.82 17.4 1.02 4.64-2.08 9.95-7.4 12.73-6.37 3.33-13.37 3.04-27.75-1.13-6.52-1.9-14.97-3.98-18.78-4.64-13.9-2.4-31.67.37-71.45 11.18-31.96 8.68-40.16 9.95-50.85 7.84zm28.1-53.97c-4.04-1.26-5.6-3.2-5.2-6.57.55-4.56 4.3-6.35 16.7-7.98 28.9-3.78 54.6-10.83 71.03-19.48 5.17-2.72 10.5-4.95 11.85-4.95 6.44 0 12.92 6.1 11.24 10.56-1.07 2.85-7.13 8-12.77 10.84-10.2 5.16-31.23 11.6-51.22 15.66-11.72 2.4-36.47 3.54-41.62 1.93z"/><path fill="#a55357" d="M59.48 444.4c-27.87-5.16-49.55-24.7-57.16-51.56-1.75-6.18-1.84-14.3-1.84-169.5 0-181.92-.54-167.75 6.98-183C14.6 25.9 24.8 16 40.48 8.37c16.1-7.84 10-7.5 138.9-7.5 97.24 0 115.53.22 121.5 1.47 25.45 5.35 45.14 22.58 53.78 47.03l2.82 8 .27 162.72c.3 181.5.7 170.37-6.7 185.27-7.57 15.22-17.6 25.23-32.57 32.5-16.5 8-6.05 7.4-136 7.64-91.46.16-117.48-.07-123-1.1zm242.88-4.52c23.96-6.12 43.57-25.24 50.3-49.03 1.74-6.18 1.82-14.3 1.82-167.5 0-180.3.6-165.47-7.25-181.5-5.4-11.06-18.67-24.1-30.25-29.73-16.93-8.26-6.86-7.64-132-8.02-77.17-.24-114.07 0-119.86.76-27.5 3.6-50.42 22.26-58.42 47.5l-2.22 7v328l2.32 7c7.47 22.55 25.56 39.23 49.3 45.45 7.1 1.86 12 1.94 122.97 2 111.8.05 115.85 0 123.3-1.92zm-175.08-44.63c-4.36-2.18-5.83-4.76-8.33-14.54-1.17-4.6-2.27-8.48-2.44-8.65-.15-.17-4 .45-8.54 1.37-16.8 3.4-26.98-1.73-26.98-13.63 0-3.53.27-4.06 1.73-3.5 3.8 1.46 18.16 2.65 24.38 2.04l6.6-.66-2.37-11.66c-2.73-13.42-3.83-25.1-2.54-26.96 1.25-1.8 5.66 0 7.73 3.16.88 1.35 3.05 9.36 4.82 17.8l3.22 15.33 3.47-.27c3.84-.3 19.56-4.6 24.8-6.8l3.3-1.38-.68-7.27c-.38-4-.82-7.43-.98-7.6-.15-.2-2.8.46-5.86 1.42-5.18 1.63-5.6 2-6.14 5.33-1.06 6.6-1.5 8.07-2.4 8.07-5.32 0-12.22-24.97-12.36-44.7-.1-14.3.55-15.27 10.2-15.18 8.48.08 14.86-1.6 35.7-9.45 28.83-10.85 35.95-12.97 41.7-12.4 3.94.37 5.6 1.1 7.43 3.2 3.2 3.7 2.36 5.87-4.84 12.53-5.57 5.15-6.04 5.95-7.42 12.5-.8 3.85-1.76 14.47-2.12 23.6l-.64 16.58 14.9-.08c16.72-.1 24.14 1.45 38.07 7.88 12.4 5.73 16.32 9.94 16.32 17.52 0 5.85-2.44 9.75-9.7 15.47-15.64 12.34-38.8 22.53-51.14 22.53-9.77 0-40.34-8.52-52.28-14.57l-4.74-2.4-2.95 2.5c-2.18 1.82-4.12 2.47-7.42 2.47-5.34 0-9.03 2.52-11.54 7.86-2 4.26-4.97 5.02-9.92 2.55zm18.78-21.65l9.9-5.25v-4.72c.02-3.34-.34-4.6-1.23-4.3-.68.24-6.98 2.28-14 4.53l-12.74 4.1 1.63 3.2c2.62 5.08 4.5 7.7 5.56 7.7.52 0 5.42-2.37 10.86-5.26zm50.58 4.24c13-2.1 31.76-9.9 38.86-16.13 4.28-3.75 7.82-10.22 7-12.8-1.16-3.65-5.78-4.5-17.38-3.16-16.1 1.85-15.03 1.25-14.83 8.45.2 7.13-2.46 12.55-7.7 15.75-5.03 3.06-7.96 2.5-11.98-2.34l-3.52-4.24-6.97 2.37c-4.27 1.46-9.2 4.16-12.8 7l-5.85 4.62 9 .56c15.5.98 19.82.97 26.16-.06zm-20.54-16.67c5.64-2.03 11.07-4.5 12.07-5.5 2.06-2.06 2.46-5.27.56-4.56-.68.27-5.97 1.5-11.75 2.73-5.77 1.23-10.78 2.53-11.12 2.88-1.15 1.18-2 8.15-1 8.15.54 0 5.6-1.66 11.24-3.68zm13.28-29.8c-.36-3.3-.7-6.08-.78-6.16-.22-.26-20.03 2.65-21.82 3.22-1.52.48-1.8 1.74-1.8 8.3v7.75l12.53-3.53 12.53-3.54-.65-6.02zm-35.96-13.33c-.03-3.93-.3-7.38-.6-7.67-.6-.63-6.8 1.36-8.6 2.75-1.22.97-1.82 12.82-.7 13.95.32.3 2.68 0 5.26-.66l4.7-1.2-.06-7.16zm22.56.16c3.58-.84 7.9-1.3 9.64-1 2.95.46 3.16.28 3.74-3.18.33-2.02.6-5.3.6-7.3l.02-3.62-4.25.35c-17.83 1.5-17.54 1.44-18.12 3.76-.3 1.24-.86 4.88-1.24 8.1-.65 5.52-.57 5.84 1.22 5.15 1.05-.4 4.83-1.42 8.4-2.25zm-27.25-13.28l4.25-1.14v-5.97c0-6.6-.1-6.65-8.05-5.34l-3.56.6.73 5.14c.4 2.83.77 5.97.8 6.96.05 1 .42 1.6.83 1.35.42-.24 2.67-.96 5-1.58zm33.4-7.74l8.65-.56.6-3c.33-1.66.6-4.36.6-6 0-2.6-.3-2.9-2.25-2.45-1.23.3-6.3 1.25-11.25 2.12-14.8 2.62-13.47 1.8-11.72 7.13 1.4 4.22 1.73 4.55 4.12 3.95 1.43-.35 6.5-.9 11.25-1.2zm-70.5-15.42c-16.65-1.76-23.07-5.44-22.44-12.85l.28-3.55 29.5-.68c16.23-.37 31.42-.96 33.75-1.3 3.94-.6 4.25-.87 4.25-3.7 0-2.3-1.02-4-4.23-6.92l-4.24-3.88 8.65-8.76c4.76-4.8 10.3-11.36 12.3-14.56 3.2-5.06 3.88-5.64 5.26-4.5 2.3 1.9 4.28 7.18 4.28 11.3 0 4.53-2.1 9.6-6.07 14.6-2.7 3.4-3 4.43-2.42 7.86l.66 3.94 6.17-2.2c6.06-2.14 6.25-2.32 9.56-9.1 5.82-11.9 5.34-22.35-1.52-32.54l-2.32-3.46 2.15-2.28c3.46-3.7 16.47-12.3 18.58-12.3 3.5 0 10.3 5.85 12.44 10.72 3.75 8.5.52 17.58-11.9 33.28-3.7 4.7-5.75 7.97-4.7 7.55 12.2-4.9 41.04-14.94 47.9-16.67 7.7-1.93 9.4-2.05 13.4-.98 12.42 3.3 14.33 11.47 3.75 16.12-5.73 2.5-13.58 3.75-31.17 4.9-19.2 1.25-25.5 3.08-57.23 16.67-13.62 5.84-28.1 11.47-32.18 12.5-7.9 2.04-18.4 2.3-32.45.82zM93.52 162.5c-14.04-4.92-15.6-13.37-3.45-18.6 4.93-2.1 5.98-2.2 22.3-1.52 13.67.55 18.97.37 26.4-.92 10.08-1.76 26.76-6.86 38.38-11.73 22.64-9.5 38.34-13.28 55.32-13.3 17-.02 26.97 3.2 36.18 11.7 5.25 4.83 7.32 8.44 7.32 12.72 0 7.96-6.66 12.56-17.97 12.42-4.5-.05-10.38-1.25-19.02-3.87-10.2-3.1-14.54-3.9-23.6-4.3-16.2-.72-25.83 1.13-74.9 14.33-14.15 3.8-18.92 4.65-28.5 5.04-10.32.42-12.2.22-18.46-1.97zm37.45-51.5c-7.47-1.65-9.53-4.4-6.93-9.26 1.44-2.7 4.93-3.86 14.93-4.98 11.54-1.28 37.72-6.56 47.5-9.58 4.4-1.36 14.1-5.4 21.58-9 12.94-6.2 13.76-6.45 17.54-5.43 9.04 2.43 10.97 8.53 4.55 14.34-8.64 7.8-35.9 17.1-65.17 22.25-9.93 1.75-29.25 2.68-34 1.64z"/><path fill="#871a1f" d="M59.48 444.4c-27.87-5.16-49.55-24.7-57.16-51.56-1.75-6.18-1.84-14.3-1.84-169.5 0-181.92-.54-167.75 6.98-183C14.6 25.9 24.8 16 40.48 8.37c16.1-7.84 10-7.5 138.9-7.5 97.24 0 115.53.22 121.5 1.47 25.45 5.35 45.14 22.58 53.78 47.03l2.82 8 .27 162.72c.3 181.5.7 170.37-6.7 185.27-7.57 15.22-17.6 25.23-32.57 32.5-16.5 8-6.05 7.4-136 7.64-91.46.16-117.48-.07-123-1.1zm242.88-4.52c23.96-6.12 43.57-25.24 50.3-49.03 1.74-6.18 1.82-14.3 1.82-167.5 0-180.3.6-165.47-7.25-181.5-5.4-11.06-18.67-24.1-30.25-29.73-16.93-8.26-6.86-7.64-132-8.02-77.17-.24-114.07 0-119.86.76-27.5 3.6-50.42 22.26-58.42 47.5l-2.22 7v328l2.32 7c7.47 22.55 25.56 39.23 49.3 45.45 7.1 1.86 12 1.94 122.97 2 111.8.05 115.85 0 123.3-1.92zm-174.3-44.78c-4.9-2.5-6.76-5.58-9.26-15.3l-2.2-8.58-7.56 1.8c-9.5 2.28-13.5 2.27-18.56-.06-6.05-2.8-8.7-6.23-9.26-12l-.47-4.95 4.37 1.08c4.4 1.08 27.28 1.7 28.18.77.27-.27-.58-5.67-1.87-12-2.93-14.3-3.88-22.14-3.06-25.4.58-2.3.86-2.4 3.67-1.43 1.68.6 3.68 2.03 4.46 3.2.77 1.2 2.8 8.9 4.5 17.15 1.72 8.24 3.5 15.38 4 15.87 1 1.03 6.3-.14 20.8-4.6l10.32-3.17-.7-7.56c-.37-4.15-.86-7.75-1.1-8-.2-.24-2.85.4-5.85 1.4-5.02 1.72-5.5 2.15-6.03 5.46-.32 1.98-1.04 4.72-1.6 6.1l-1.04 2.48-2.37-2.76c-7.1-8.26-12.98-47.68-8.2-55 1.58-2.4 2.27-2.6 8.98-2.6 9.3-.02 13.85-1.28 41.52-11.5 31.32-11.6 34.23-12.25 40.28-9.12 6.6 3.42 5.95 7.08-2.54 14.17-3.5 2.92-4.9 5-6 8.82-2 7-3.46 21.08-3.47 33.6l-.02 10.6 15.25-.07c15.1-.08 15.36-.04 26.2 3.68 19.9 6.84 27.55 12.95 27.55 21.98 0 4.45-.4 5.27-5.2 10.32-12.14 12.85-41.7 27.4-55.6 27.38-9.97-.02-37.4-7.66-50.58-14.08l-6.5-3.17-3.14 2.62c-2.23 1.88-4.27 2.63-7.1 2.63-5.57 0-9.6 2.38-11.4 6.74-2.4 5.68-3.97 6.27-9.4 3.5zm27.92-31.27v-4.87l-5.25 1.55c-2.88.86-9.07 2.78-13.75 4.27-9.6 3.07-9.78 3.46-5.2 10.76l2.62 4.17 10.8-5.5 10.78-5.5v-4.87zm51.5 11.53c17.92-5.2 29.96-12.63 33.9-20.93 2.17-4.58 1.8-6.6-1.55-8.5-2.3-1.28-4.24-1.3-15-.15-6.8.73-12.96 1.56-13.7 1.85-.97.37-1.2 1.67-.85 4.4.8 5.9-1.05 10.84-5.78 15.57-5.73 5.73-9.13 5.8-13.52.25-3.77-4.76-5.27-4.9-13.8-1.22-5.9 2.56-15.07 8.86-15.16 10.43-.05.95 14.07 1.6 26.46 1.2 7.07-.2 12.65-1.06 19-2.9zm-31.76-13.9c11-4 14.26-5.98 14.26-8.65 0-1.54-.5-1.87-2.25-1.5-15.75 3.5-21.35 4.88-21.87 5.4-.35.36-.93 2.34-1.3 4.4-.83 4.67-.7 4.67 11.16.37zm14-24c.2-.22.08-3.08-.3-6.37l-.66-5.98-4.64.5c-2.55.28-7.8 1-11.64 1.64l-7 1.15-.28 8.07-.3 8.07 12.2-3.34c6.72-1.84 12.4-3.52 12.6-3.74zm-39.38-11.2l3.85-.67-.38-7.3c-.2-4.03-.7-7.63-1.08-8.02-.4-.4-2.75.06-5.23 1l-4.52 1.74v7.48c0 6.66.2 7.43 1.75 6.97.97-.28 3.5-.82 5.6-1.2zm25.64-8.06c3.58-.84 7.92-1.3 9.65-1 2.85.44 3.2.2 3.75-2.55.33-1.68.6-4.94.6-7.26v-4.2l-5.75.35c-3.16.2-8.07.6-10.9.9-5.78.6-5.76.55-6.97 10.86-.65 5.52-.57 5.84 1.22 5.15 1.05-.4 4.83-1.42 8.4-2.25zm-23.25-14.34c.14 0 .25-2.7.25-6 0-5.95-.02-6-2.87-6-6.14 0-8.82 1.05-8.5 3.34.17 1.18.57 4.26.9 6.84l.6 4.7 4.7-1.44c2.57-.78 4.8-1.43 4.93-1.44zm29.4-6.68l8.65-.56.6-3c.83-4.17.76-8.77-.15-8.76-.82 0-20.4 3.68-23.93 4.5-2.15.5-2.16.58-.63 5.1 1.44 4.2 1.78 4.52 4.2 3.93 1.43-.37 6.5-.92 11.26-1.22zm-70.35-15.34c-11.4-1.3-15.78-2.77-19.55-6.54-2.7-2.7-3.3-4.04-3.06-6.66l.3-3.3 30-.66c34.54-.78 38.84-1.2 38.1-3.65-.27-.92-.76-2.8-1.1-4.2-.32-1.38-2.13-3.57-4.03-4.87L149 249.6l8.38-8.8c4.6-4.85 10.04-11.55 12.07-14.9 2.03-3.33 4.1-5.8 4.63-5.5 1.9 1.2 4.9 8.5 4.9 11.95 0 3.9-2.9 10.35-6.63 14.83-2.37 2.83-2.84 5.3-1.77 9.3l.58 2.14 6.35-2.07 6.36-2.06 3.16-6.88c5.46-11.84 5.1-22.44-1.1-32.22l-2.8-4.4 4.18-3.4c6.2-5.05 14.97-10.75 16.5-10.75 2.12 0 8.73 5.12 11.12 8.6 5.82 8.5 2.6 18.45-11.78 36.32-2.83 3.53-5 6.56-4.82 6.75.18.18 6.9-2.1 14.93-5.1 36.04-13.4 44.2-15.06 52.53-10.72 6.87 3.58 7.45 8.64 1.45 12.74-4.4 3-16.44 5.23-34.42 6.37-19.07 1.23-25.68 3.14-56.32 16.3-30.34 13.05-32.95 13.86-46 14.27-6.05.2-14.46-.05-18.7-.53zM93.52 162.5c-14.03-4.92-15.6-13.37-3.44-18.6 4.93-2.1 5.98-2.2 22.3-1.52 13.67.55 18.97.37 26.4-.92 10.08-1.76 26.76-6.86 38.38-11.73 22.64-9.5 38.34-13.28 55.32-13.3 17-.02 26.97 3.2 36.18 11.7 5.25 4.83 7.32 8.44 7.32 12.72 0 7.96-6.66 12.56-17.97 12.42-4.5-.05-10.38-1.25-19.02-3.87-10.2-3.1-14.54-3.9-23.6-4.3-16.2-.72-25.83 1.13-74.9 14.33-14.15 3.8-18.92 4.65-28.5 5.04-10.32.42-12.2.22-18.46-1.97zm37.46-51.5c-7.47-1.65-9.53-4.4-6.93-9.26 1.44-2.7 4.93-3.86 14.93-4.98 11.54-1.28 37.72-6.56 47.5-9.58 4.4-1.36 14.1-5.4 21.58-9 12.94-6.2 13.76-6.45 17.54-5.43 9.04 2.43 10.97 8.53 4.55 14.34-8.64 7.8-35.9 17.1-65.17 22.25-9.93 1.75-29.25 2.68-34 1.64z"/><path d="M61.82 444.83c-29.08-4.9-52.1-25.38-59.58-52.98C.6 385.77.48 374.87.48 223.35c0-132.4.25-163 1.35-167.5.74-3.02 3.4-9.77 5.88-15 3.86-8.05 5.86-10.8 13.17-18.1 9.46-9.42 16.94-14.12 29.6-18.58l8-2.82h240l7.5 2.34c20.97 6.54 36.98 20.12 45.56 38.65 6.9 14.9 6.55 4.3 6.24 184l-.3 162-2.8 8c-3.95 11.17-7.94 17.7-15.97 26.17-7.78 8.18-15.88 13.7-26.2 17.8-13.85 5.52-12.63 5.47-134.02 5.38-61.6-.05-114.1-.44-116.66-.87zm240.7-5c13.5-3.44 21.78-8.2 32-18.44 6.86-6.9 9.9-10.84 12.73-16.55 7.8-15.72 7.17-1.1 7.5-176C355 119.7 354.76 69.83 354 64c-3-22.9-16.26-41.8-36.22-51.6-17.63-8.65-7.3-8.05-138.78-8.05H62.48l-7.95 2.3C41.67 10.4 33.58 15.18 23.87 24.8 15.15 33.45 11.4 39.3 6.6 51.85l-2.12 5.5-.28 162.5c-.3 182.14-.8 169.63 7.05 185.3 8.08 16.16 25.4 29.82 43.96 34.7 6.96 1.8 12.52 1.9 123.37 1.95 113.07.05 116.3 0 123.95-1.96zm-204.8-276c-8.08-2.04-15.74-7.4-15.74-11.03 0-2.38 3.63-6.7 7.34-8.72 2.73-1.5 6.3-1.73 26.16-1.77 22.46-.03 23.28-.1 34.5-3.1 6.33-1.7 19.6-6.26 29.5-10.14 28.2-11.06 46.33-14.68 62.23-12.43 18.58 2.63 32.77 12.52 34.04 23.7.45 4.07.2 4.78-2.93 7.9-3.5 3.5-8.9 5.6-14.45 5.62-1.72 0-9.37-1.85-17-4.1-11.66-3.46-15.72-4.2-25.55-4.63-17.33-.76-24 .52-78.32 15-15.98 4.24-31.75 5.72-39.76 3.7zm33.3-53.07c-5.7-1.12-8.53-3.82-7.65-7.3.9-3.6 4.94-5.35 15.23-6.58 11.63-1.4 28.46-4.54 40.68-7.62 11.85-2.98 22.28-7.02 33.9-13.14l8.7-4.57 4.56 1.73c4.67 1.8 7.54 4.72 7.54 7.72 0 7.87-25.4 19.25-58.53 26.2-20.06 4.2-35 5.4-44.42 3.56z"/></g></g></svg>