<svg xmlns="http://www.w3.org/2000/svg" width="358.754" height="445.795" viewBox="0 0 358.75415 445.79532"><g><g><path fill="#e0c5c6" d="M54.86 443.82c-20.74-5.4-37.3-18.44-46.93-36.97-8.15-15.7-7.47-.13-7.83-178C-.13 117.1.1 67.85.88 61.9 5.08 29.77 30.53 5.3 64.36.8c5.33-.7 45.5-.94 120.5-.73C297.32.4 297.36.4 305.16 2.6c23.72 6.7 42.38 24.02 50.38 46.75l2.82 8 .27 162.73c.3 180.24.64 170.07-6.23 184.52-8.73 18.4-24.4 31.77-45.54 38.9-5.22 1.75-11.63 1.86-125 2.06-115.6.2-119.74.14-127-1.74zm241-3.03c8.58-1.4 18.84-5.02 25.8-9.12 9.02-5.3 20.08-17 24.9-26.33 8.48-16.4 7.8-.6 7.8-182 0-180.33.6-165.5-7.26-181.5-5.65-11.5-17.76-23.26-30.24-29.38-16.23-7.96-9.3-7.58-137.3-7.6-127.1-.02-120.94-.33-136.2 7.02-14.65 7.06-25.16 17.4-32 31.48-6.95 14.3-6.56 2.88-6.27 182.7l.26 162.27 3.16 8.2c9.1 23.6 29.26 40.1 54.1 44.27 7.4 1.25 225.52 1.22 233.24-.03zm-93-45.4c-13.62-3.06-25.6-6.9-35.25-11.3l-7.73-3.52-3.76 2.54c-2.6 1.78-4.64 2.4-6.74 2.1-4.06-.6-8.78 2.5-11.12 7.3-2.25 4.6-6.03 5.5-11.2 2.72-4-2.15-6.3-6.44-8.65-16.14-.97-3.98-1.82-7.24-1.9-7.23-.08 0-2.6.67-5.64 1.48-17.12 4.6-29.98-1.13-30-13.36 0-4.27.07-4.36 2.75-3.7 1.52.36 8.9.92 16.4 1.23l13.64.57-2.3-11.4c-4.08-20.04-4.4-28.85-1-28.85 3.02 0 6.44 2.4 7.7 5.38.7 1.72 2.65 9.65 4.3 17.62 2.98 14.22 3.1 14.5 5.53 14.15 3.94-.55 26.4-7.16 27.26-8.02.43-.42.48-3.95.12-7.84l-.66-7.07-5.1 1.73c-5.33 1.8-5.36 1.86-7.1 10.3-.4 1.92-1.2 2.75-2.6 2.75-5.83 0-14.05-34.05-12.3-50.88.88-8.36 2.43-9.6 12.22-9.7 8.9-.1 13.24-1.3 37.57-10.44 35.18-13.2 39.72-13.97 45.78-7.9 3.88 3.87 3.17 6-4.32 12.92-5.57 5.15-6.04 5.95-7.43 12.5-.82 3.85-1.78 14.43-2.13 23.5l-.63 16.5 13.27-.35c10.07-.27 15 .06 20.4 1.36 15.93 3.82 29.5 10.72 33.74 17.16 2.24 3.4 2.46 10.3.45 14.2-4.26 8.24-26.68 22.53-44.8 28.55-10.98 3.65-16.6 3.88-28.77 1.13zm-47-31.27c0-2.35-.34-4.25-.75-4.22-.4.04-6.47 1.96-13.48 4.26l-12.75 4.2 3 5.23 3.02 5.23 10.47-5.22 10.5-5.2v-4.27zM204 375.9c17.66-4.64 32.18-12.8 36.58-20.58 2.68-4.73 2.78-5.82.7-7.9-1.9-1.9-9.03-2.05-21.48-.45l-8.7 1.12.12 6.12c.15 6.85-2.25 12-7.24 15.55-5.48 3.9-7.8 3.75-12.12-.8-2.4-2.52-4.8-4.1-6.2-4.1-3.62.05-13.25 4.38-17.9 8.07-4.16 3.3-4.2 3.37-1.82 4.04 1.33.37 8.75.72 16.48.78 11.02.07 15.7-.33 21.57-1.87zm-17.94-19.07c2.56-1.2 4.38-3.73 3.38-4.73-.26-.26-5.67.74-12.02 2.22-10.7 2.5-11.56 2.86-11.56 5.03 0 1.3-.28 3.06-.62 3.95-.48 1.26 1.36.9 8.75-1.8 5.15-1.88 10.57-3.98 12.06-4.67zm-6.83-16.67c5.57-1.46 10.28-2.77 10.46-2.9.18-.13 0-2.78-.38-5.9l-.7-5.66-5.13.65c-2.83.36-7.95 1.1-11.4 1.68l-6.24 1.03v7.5c0 6.5.22 7.43 1.62 6.9.9-.35 6.18-1.83 11.75-3.3zM150.1 325.8l3.76-1.04v-5.7c-.04-7.96-.8-8.93-5.66-7.1l-3.84 1.47-.3 6.7c-.32 7.4-.3 7.43 6.05 5.67zm23.42-7.45c3.17-.82 7.86-1.5 10.43-1.5 5.26 0 5.87-.9 5.9-8.75 0-4.86.6-4.7-12.42-3.6-6.6.57-7.85.97-8.53 2.76-1.06 2.8-2.37 12.6-1.68 12.6.3 0 3.13-.68 6.3-1.5zm-23.4-14.06c2.6-.63 2.74-.94 2.74-6.66 0-5.06-.25-5.9-1.58-5.4-.87.34-3.3.6-5.4.6-3.12 0-3.77.34-3.48 1.76.2.97.64 3.9.98 6.55.5 3.88.94 4.7 2.3 4.3.92-.28 2.92-.8 4.43-1.16zm35.37-8.43c4.47 0 5.2-.3 5.73-2.27.97-3.6.72-7.75-.46-7.75-.6 0-6.36.97-12.8 2.15l-11.74 2.15 1.4 4.2 1.37 4.2 5.68-1.33c3.12-.73 8-1.34 10.8-1.35zm-78.14-14.07c-12.84-1.94-18.5-5.9-18.5-12.94 0-3.68.06-3.74 4.64-4.37 2.55-.36 14.14-.65 25.75-.65 11.6 0 24.82-.3 29.36-.65l8.26-.64v-2.97c0-2.22-1.08-3.96-4.24-6.85l-4.24-3.88 8.66-8.76c4.76-4.8 10.4-11.56 12.56-15l3.9-6.25 2.12 2.25c6.25 6.68 5.55 16.53-1.85 25.87-2.63 3.32-3.02 4.5-2.47 7.4.36 1.92.84 3.48 1.07 3.48.23 0 2.96-.95 6.07-2.1 5.43-2.04 5.77-2.4 8.65-8.74 5.27-11.62 4.8-22.1-1.37-31.27l-2.94-4.38 4.94-4.5c2.73-2.47 7.5-6.03 10.62-7.9l5.66-3.43 3.17 1.8c4.8 2.76 7.65 5.63 9.88 9.97 3.95 7.7.92 16.76-10.7 31.98l-6.45 8.46 9.72-3.57c38.7-14.24 47.22-16.17 55.45-12.53 9.3 4.12 9.84 11.06 1.17 15.26-5.32 2.58-17.6 4.87-26.4 4.93-19.6.13-31.9 3.42-62 16.6-31.8 13.9-31.24 13.73-49 14.02-8.53.14-18.2-.15-21.5-.65zm122-97.03c-14.78-1.9-38.28-12.85-48.07-22.42-12.24-11.93-14.4-19.78-14.42-52.3l-.02-23.3-2.47 1.8c-2.25 1.64-2.48 2.5-2.5 9.34-.1 21.08-9.75 36.67-31.84 51.37-13.78 9.18-36.23 19.58-42.23 19.58-4.05 0-1.73-2.95 5.28-6.73 12.12-6.54 24.5-15.17 30.78-21.44 6.56-6.56 13.5-19.17 14.6-26.58.6-3.98.5-4.25-1.74-4.25-3.07 0-8.33-3.22-10.37-6.34-.88-1.33-1.86-4.06-2.2-6.04-.53-3.36-.4-3.6 2.02-3.6 3.12 0 13.66-3.82 13.66-4.95 0-2.37-3.45-10-5.9-13.06-3.73-4.66-4.43-7.2-3.66-13.35.97-7.76.84-7.7 11.06-5.5 15.06 3.25 16.73 4.66 18.04 15.12l.6 4.77 2.92-1.74c1.62-.96 2.94-2.55 2.94-3.55 0-3 2.8-8.73 4.6-9.42.9-.35 3.14.16 4.94 1.13 3.27 1.76 3.3 1.76 7.62-1.18 8.87-6.03 18.77-11.27 21.3-11.27 6.53 0 19.54 10.18 19.54 15.3 0 7.88-12 12.7-31.6 12.7H183l-2.23 5.75c-3.04 7.83-3.76 23.32-1.5 32.32 5 19.88 19.48 35.93 32.44 35.93 4.2 0 11.54-3.05 17.52-7.27 2.54-1.8 2.8-2.48 2.4-6.12-.28-2.26-2.58-8.95-5.12-14.88-4.9-11.4-7.14-18.75-6.4-20.9.25-.74 2.16 2.05 4.24 6.17 8.72 17.28 12.08 20.74 27.3 28.1 8.55 4.12 13.67 7.3 16.76 10.4 4.02 4 4.46 4.92 4.46 9.16 0 17.02-20.98 30.17-43.5 27.27z"/><path fill="#bebebe" d="M54.86 443.82c-20.74-5.4-37.3-18.44-46.93-36.97-8.15-15.7-7.47-.13-7.83-178C-.13 117.1.1 67.85.88 61.9 5.08 29.77 30.53 5.3 64.36.8c5.33-.7 45.5-.94 120.5-.73C297.32.4 297.36.4 305.16 2.6c23.72 6.7 42.38 24.02 50.38 46.75l2.82 8 .27 162.73c.3 180.24.64 170.07-6.23 184.52-8.73 18.4-24.4 31.77-45.54 38.9-5.22 1.75-11.63 1.86-125 2.06-115.6.2-119.74.14-127-1.74zm241-3.03c8.58-1.4 18.84-5.02 25.8-9.12 9.02-5.3 20.08-17 24.9-26.33 8.48-16.4 7.8-.6 7.8-182 0-180.33.6-165.5-7.26-181.5-5.65-11.5-17.76-23.26-30.24-29.38-16.23-7.96-9.3-7.58-137.3-7.6-127.1-.02-120.94-.33-136.2 7.02-14.65 7.06-25.16 17.4-32 31.48-6.95 14.3-6.56 2.88-6.27 182.7l.26 162.27 3.16 8.2c9.1 23.6 29.26 40.1 54.1 44.27 7.4 1.25 225.52 1.22 233.24-.03zm-90-44.9c-16.65-3.5-32.53-8.7-43-14.04-3.4-1.73-3.94-1.78-5.07-.42-2.03 2.44-4.78 3.55-9.42 3.8-5.37.32-9.06 2.64-9.98 6.3-.38 1.54-1.17 3.37-1.74 4.06-2.47 2.98-10.95.02-14.2-4.95-.8-1.26-2.46-5.9-3.65-10.3-1.2-4.4-2.23-8.07-2.3-8.17-.1-.1-2.85.46-6.15 1.23-16.98 4-28.14-.8-29.27-12.64l-.5-5.2 2.9.7c1.58.4 9.12.96 16.74 1.28 13.24.55 13.83.5 13.3-1.3-.3-1.04-1.7-7.85-3.1-15.14-3.8-19.7-3.35-24.63 2.03-22.7 4.65 1.65 6.27 5.2 9.47 20.88 1.67 8.2 3.25 15.26 3.5 15.66.53.87 7.24-.64 20.77-4.66l9.83-2.93-.7-7.5c-.36-4.12-.78-7.6-.9-7.76-.15-.15-2.24.43-4.66 1.27-5.06 1.76-6.9 3.77-6.9 7.48 0 1.44-.64 3.48-1.4 4.53-1.24 1.7-1.6 1.74-3.16.44-6-4.96-12.5-36.07-10.54-50.4 1.06-7.74 3.4-9.86 9.98-9 6.63.87 14.66-1.28 40.95-10.98 28.77-10.62 33.9-12 39.13-10.6 3.7 1 8.03 4.97 8.03 7.37 0 .6-2.75 3.72-6.1 6.9-4.47 4.26-6.48 7.04-7.48 10.35-1.8 5.96-3.42 22.25-3.42 34.26v9.65l15.75.04c14.56.02 16.4.24 24.26 2.84 11.55 3.83 21.27 9.07 25.5 13.74 3 3.3 3.5 4.6 3.5 8.74 0 3.8-.6 5.6-2.75 8.3-7.8 9.8-24.7 20.45-42.24 26.58-11.55 4.04-16.74 4.5-27 2.3zm-59.88-22.3l9.87-5.25v-4.3c0-3.65-.27-4.25-1.74-3.84-.96.3-7.02 2.13-13.46 4.1l-11.72 3.6 1 2.6c1.1 2.93 4.77 8.35 5.63 8.35.3 0 5-2.36 10.43-5.25zm64.6.5c19.03-6.56 29.04-13.38 31.46-21.45.97-3.25.9-4.13-.38-5.43-1.82-1.8-10.5-2-21.3-.42-3.85.56-7.62 1.02-8.38 1.03-1.04.02-1.25 1.04-.84 4.06.73 5.44-.77 10.3-4.48 14.53-3.03 3.46-7.58 6.42-9.84 6.42-.62 0-3.08-2-5.46-4.44-4.17-4.28-4.44-4.4-7.98-3.42-6.54 1.8-12.14 4.6-16.02 8-3.76 3.3-3.77 3.34-1.4 4.05 1.32.4 9.83.6 18.9.47 15.6-.23 17-.42 25.7-3.4zm-33.72-13.42c4.68-1.65 9.5-3.65 10.75-4.44 2.42-1.53 3.08-4.4 1-4.36-1.76.03-21.72 4.6-22.13 5.08-.2.22-.66 2.14-1.05 4.28-.63 3.5-.52 3.8 1.12 3.16 1-.4 5.65-2.07 10.32-3.72zm2-20.35c5.78-1.57 10.65-2.95 10.83-3.08.18-.12 0-2.78-.38-5.9l-.7-5.7-5.64.66c-3.1.37-8.2 1.14-11.37 1.74l-5.74 1.07v7.5c0 5.54.32 7.35 1.25 7.02.7-.24 6-1.73 11.76-3.3zM150.1 325.8c3.73-1.03 3.76-1.08 3.75-6.24 0-2.86-.28-6.18-.6-7.37-.57-2.14-.66-2.15-4.98-.55l-4.4 1.64v6.77c0 7.42.03 7.46 6.24 5.73zm23.76-7.45c3.03-.8 7.6-1.48 10.13-1.48 5.2-.02 5.82-.94 5.85-8.77 0-4.13-.08-4.25-3.24-4.24-8.72.02-16.86 1.35-17.68 2.9-1.26 2.36-2.43 13.1-1.42 13.08.47 0 3.34-.67 6.36-1.5zM149 304.7l3.86-1.16v-5.96c0-5.7-.1-5.93-2.25-5.36-1.23.34-3.66.6-5.4.62-2.47 0-3.07.4-2.8 1.76.2.97.63 3.9.97 6.5.34 2.62.87 4.75 1.2 4.75.3 0 2.3-.52 4.42-1.15zm28.7-7.9c3.3-.65 7.63-1 9.6-.76 3.3.38 3.6.2 4.14-2.73.32-1.72.44-4.22.25-5.55l-.34-2.42-12.65 2.4-12.63 2.38 1.5 4.44c.97 2.82 2 4.26 2.8 3.95.7-.28 4-1.04 7.32-1.7zm-69.34-14.95c-9.47-1.42-13.23-2.92-16.4-6.54-3.25-3.68-4.15-8.67-1.85-10.1.7-.44 15.8-1.07 33.56-1.42 17.77-.34 32.67-1.03 33.1-1.52 1.56-1.72-.93-7.33-4.43-10l-3.5-2.66 8.04-8.37c4.42-4.6 9.85-11.18 12.07-14.62 2.23-3.43 4.56-6.25 5.2-6.25 1.93 0 5.7 7.76 5.7 11.8.02 4.06-2.8 10.46-6.62 15.03-2.35 2.82-3.04 7.05-1.53 9.43.6 1 1.95.88 6.22-.54 5.22-1.72 5.6-2.08 8.94-8.73 3.2-6.33 3.5-7.7 3.48-15.46-.02-8.56-1.85-14.25-6.14-19.14-1.28-1.46-.75-2.17 4.87-6.6 3.46-2.75 8.2-6.2 10.55-7.65 4.04-2.53 4.42-2.6 7.24-1.13 4.78 2.47 9.82 8.16 11.14 12.58 2.2 7.35-1.82 16.76-13.15 30.77-2.82 3.5-4.94 6.53-4.7 6.77.22.23 6.25-1.8 13.4-4.5 33.78-12.78 44.43-15 52.3-10.94 7.66 3.96 8.44 9.2 2.03 13.56-5.57 3.8-12.1 4.95-40.02 7.1-14.06 1.1-23.47 4.07-53.5 16.96-29.2 12.53-31.76 13.22-47.85 13.07-7.22-.07-15.4-.46-18.14-.88zm121-97.08c-14.78-1.9-38.28-12.85-48.07-22.42-12.24-11.93-14.4-19.78-14.42-52.3l-.02-23.3-2.47 1.8c-2.25 1.64-2.48 2.5-2.5 9.34-.1 21.08-9.75 36.67-31.84 51.37-13.78 9.18-36.23 19.58-42.23 19.58-4.05 0-1.73-2.95 5.28-6.73 12.12-6.54 24.5-15.17 30.78-21.44 6.56-6.56 13.5-19.17 14.6-26.58.6-3.98.5-4.25-1.74-4.25-3.07 0-8.33-3.22-10.37-6.34-.88-1.33-1.86-4.06-2.2-6.04-.53-3.36-.4-3.6 2.02-3.6 3.12 0 13.66-3.82 13.66-4.95 0-2.37-3.45-10-5.9-13.06-3.73-4.66-4.43-7.2-3.66-13.35.97-7.76.84-7.7 11.06-5.5 15.06 3.25 16.73 4.66 18.04 15.12l.6 4.77 2.92-1.74c1.62-.96 2.94-2.55 2.94-3.55 0-3 2.8-8.73 4.6-9.42.9-.35 3.14.16 4.94 1.13 3.27 1.76 3.3 1.76 7.62-1.18 8.87-6.03 18.77-11.27 21.3-11.27 6.53 0 19.54 10.18 19.54 15.3 0 7.88-12 12.7-31.6 12.7H183l-2.23 5.75c-3.04 7.83-3.76 23.32-1.5 32.32 5 19.88 19.48 35.93 32.44 35.93 4.2 0 11.54-3.05 17.52-7.27 2.54-1.8 2.8-2.48 2.4-6.12-.28-2.26-2.58-8.95-5.12-14.88-4.9-11.4-7.14-18.75-6.4-20.9.25-.74 2.16 2.05 4.24 6.17 8.72 17.28 12.08 20.74 27.3 28.1 8.55 4.12 13.67 7.3 16.76 10.4 4.02 4 4.46 4.92 4.46 9.16 0 17.02-20.98 30.17-43.5 27.27z"/><path fill="#c38c8f" d="M57.36 444.4c-29.78-6.5-52.6-31.04-56.5-60.7-.75-5.8-1-56.35-.8-166.35l.3-158 2.35-7c4.42-13.14 8.87-20.33 18.6-30.03C31.35 12.32 40.5 6.8 53.9 2.7L61.35.4 173.86.1C249.96-.14 289 .1 294.5.83c26.07 3.43 47.3 18.74 58.1 41.87 6.65 14.3 6.32 4.42 6.03 183.43l-.27 162.22-2.34 7c-3.95 11.83-8.7 19.25-18.56 29.03-10.42 10.33-20.47 16.1-34 19.5-7.68 1.92-11.37 1.97-124 1.9-91.7-.07-117.36-.36-122.1-1.4zm246-4.82c3.3-.96 9.83-3.6 14.5-5.9 11.56-5.6 24-17.85 29.34-28.83 7.73-15.92 7.16-1.42 7.16-181.5 0-131.56-.25-162-1.35-166.5-.73-3.02-3.32-9.65-5.75-14.73-7.6-15.9-21.55-27.8-39.9-34.04l-8-2.73h-240l-8 2.82C29 16.04 12.42 33.65 6.84 55.47 4.9 62.96 4.86 67.2 4.86 223.34c0 156.15.05 160.38 1.97 167.9 3 11.73 8.28 20.9 17.04 29.6 11.04 10.98 23.35 17.4 38.1 19.9 3.05.5 55.5.83 120.4.74 106.22-.16 115.45-.3 121-1.92zm-97.5-43.67c-16.65-3.5-32.53-8.7-43-14.04-3.4-1.73-3.94-1.78-5.07-.42-2.03 2.44-4.78 3.55-9.42 3.8-5.37.32-9.06 2.64-9.98 6.3-.38 1.54-1.17 3.37-1.74 4.06-2.47 2.98-10.95.02-14.2-4.95-.8-1.26-2.46-5.9-3.65-10.3-1.2-4.4-2.23-8.07-2.3-8.17-.1-.1-2.85.46-6.15 1.23-16.98 4-28.14-.8-29.27-12.64l-.5-5.2 2.9.7c1.58.4 9.12.96 16.74 1.28 13.24.55 13.83.5 13.3-1.3-.3-1.04-1.7-7.85-3.1-15.14-3.8-19.7-3.35-24.63 2.03-22.7 4.65 1.65 6.27 5.2 9.47 20.88 1.67 8.2 3.25 15.26 3.5 15.66.53.87 7.24-.64 20.77-4.66l9.83-2.93-.7-7.5c-.36-4.12-.78-7.6-.9-7.76-.15-.15-2.24.43-4.66 1.27-5.06 1.76-6.9 3.77-6.9 7.48 0 1.44-.64 3.48-1.4 4.53-1.24 1.7-1.6 1.74-3.16.44-6-4.96-12.5-36.07-10.54-50.4 1.06-7.74 3.4-9.86 9.98-9 6.63.87 14.66-1.28 40.95-10.98 28.77-10.62 33.9-12 39.13-10.6 3.7 1 8.03 4.97 8.03 7.37 0 .6-2.75 3.72-6.1 6.9-4.47 4.26-6.48 7.04-7.48 10.35-1.8 5.96-3.42 22.25-3.42 34.26v9.65l15.75.04c14.56.02 16.4.24 24.26 2.84 11.55 3.83 21.27 9.07 25.5 13.74 3 3.3 3.5 4.6 3.5 8.74 0 3.8-.6 5.6-2.75 8.3-7.8 9.8-24.7 20.45-42.24 26.58-11.55 4.04-16.74 4.5-27 2.3zm-59.88-22.3l9.87-5.25v-4.3c0-3.65-.27-4.25-1.74-3.84-.96.3-7.02 2.13-13.46 4.1l-11.72 3.6 1 2.6c1.1 2.93 4.77 8.35 5.63 8.35.3 0 5-2.36 10.43-5.25zm64.6.5c19.03-6.56 29.04-13.38 31.46-21.45.97-3.25.9-4.13-.38-5.43-1.82-1.8-10.5-2-21.3-.42-3.85.56-7.62 1.02-8.38 1.03-1.04.02-1.25 1.04-.84 4.06.73 5.44-.77 10.3-4.48 14.53-3.03 3.46-7.58 6.42-9.84 6.42-.62 0-3.08-2-5.46-4.44-4.17-4.28-4.44-4.4-7.98-3.42-6.54 1.8-12.14 4.6-16.02 8-3.76 3.3-3.77 3.34-1.4 4.05 1.32.4 9.83.6 18.9.47 15.6-.23 17-.42 25.7-3.4zm-33.72-13.42c4.68-1.65 9.5-3.65 10.75-4.44 2.42-1.53 3.08-4.4 1-4.36-1.76.03-21.72 4.6-22.13 5.08-.2.22-.66 2.14-1.05 4.28-.63 3.5-.52 3.8 1.12 3.16 1-.4 5.65-2.07 10.32-3.72zm2-20.35c5.78-1.57 10.65-2.95 10.83-3.08.18-.12 0-2.78-.38-5.9l-.7-5.7-5.64.66c-3.1.37-8.2 1.14-11.37 1.74l-5.74 1.07v7.5c0 5.54.32 7.35 1.25 7.02.7-.24 6-1.73 11.76-3.3zM150.1 325.8c3.73-1.03 3.76-1.08 3.75-6.24 0-2.86-.28-6.18-.6-7.37-.57-2.14-.66-2.15-4.98-.55l-4.4 1.64v6.77c0 7.42.03 7.46 6.24 5.73zm23.76-7.45c3.03-.8 7.6-1.48 10.13-1.48 5.2-.02 5.82-.94 5.85-8.77 0-4.13-.08-4.25-3.24-4.24-8.72.02-16.86 1.35-17.68 2.9-1.26 2.36-2.43 13.1-1.42 13.08.47 0 3.34-.67 6.36-1.5zM149 304.7l3.86-1.16v-5.96c0-5.7-.1-5.93-2.25-5.36-1.23.34-3.66.6-5.4.62-2.47 0-3.07.4-2.8 1.76.2.97.63 3.9.97 6.5.34 2.62.87 4.75 1.2 4.75.3 0 2.3-.52 4.42-1.15zm28.7-7.9c3.3-.65 7.63-1 9.6-.76 3.3.38 3.6.2 4.14-2.73.32-1.72.44-4.22.25-5.55l-.34-2.42-12.65 2.4-12.63 2.38 1.5 4.44c.97 2.82 2 4.26 2.8 3.95.7-.28 4-1.04 7.32-1.7zm-69.34-14.95c-9.47-1.42-13.23-2.92-16.4-6.54-3.25-3.68-4.15-8.67-1.85-10.1.7-.44 15.8-1.07 33.56-1.42 17.77-.34 32.67-1.03 33.1-1.52 1.56-1.72-.93-7.33-4.43-10l-3.5-2.66 8.04-8.37c4.42-4.6 9.85-11.18 12.07-14.62 2.23-3.43 4.56-6.25 5.2-6.25 1.93 0 5.7 7.76 5.7 11.8.02 4.06-2.8 10.46-6.62 15.03-2.35 2.82-3.04 7.05-1.53 9.43.6 1 1.95.88 6.22-.54 5.22-1.72 5.6-2.08 8.94-8.73 3.2-6.33 3.5-7.7 3.48-15.46-.02-8.56-1.85-14.25-6.14-19.14-1.28-1.46-.75-2.17 4.87-6.6 3.46-2.75 8.2-6.2 10.55-7.65 4.04-2.53 4.42-2.6 7.24-1.13 4.78 2.47 9.82 8.16 11.14 12.58 2.2 7.35-1.82 16.76-13.15 30.77-2.82 3.5-4.94 6.53-4.7 6.77.22.23 6.25-1.8 13.4-4.5 33.78-12.78 44.43-15 52.3-10.94 7.66 3.96 8.44 9.2 2.03 13.56-5.57 3.8-12.1 4.95-40.02 7.1-14.06 1.1-23.47 4.07-53.5 16.96-29.2 12.53-31.76 13.22-47.85 13.07-7.22-.07-15.4-.46-18.14-.88zm121-97.17c-3.3-.43-9.37-1.96-13.5-3.4-28.48-9.92-44.4-24.5-47.92-43.86-.6-3.26-1.08-16.03-1.08-28.37V86.6l-2.25 1.5c-1.98 1.32-2.3 2.6-2.88 11.37-1.4 21.64-10.6 35.7-32.86 50.35-16.63 10.93-39.58 20.85-42.2 18.24-1.4-1.4-1.83-1.03 6.33-5.45 25.75-13.93 39-26.78 43.88-42.53 2.68-8.7 2.58-9.85-.94-10.55-8.08-1.6-16.28-15.67-9.15-15.67 2.32 0 11.18-2.83 12.38-3.97 1.42-1.33-1.2-8.6-5.08-14.18-3.1-4.46-3.73-6.18-3.72-10.35 0-2.75.35-6.2.74-7.64l.73-2.64 9.25 2c14.52 3.15 17 5.08 18.15 14.22.34 2.7.8 5.1 1.03 5.33.22.23 1.54-.33 2.92-1.23 1.65-1.1 2.73-2.95 3.15-5.47.36-2.1 1.68-4.8 2.95-5.98 2.22-2.1 2.4-2.1 5.84-.47l3.55 1.7 8.82-5.54c16.15-10.1 17.08-10.3 24.95-5.8 5.65 3.25 10.07 7.9 11 11.64 1.95 7.76-11.4 13.4-31.74 13.4h-8.62l-2.28 5.26c-3.15 7.23-3.9 24.4-1.5 33.67 5.2 19.9 19.15 35.05 32.3 35.08 4.06 0 6.6-.73 11-3.16 11.32-6.26 11.38-6.67 3.82-25.7-3-7.5-5.72-15.45-6.08-17.65-.58-3.58-.15-3.1 4.18 4.75 9.55 17.3 11.14 18.92 26.5 26.83 16.44 8.47 21.82 13.4 21.82 19.94 0 10.24-10.97 21.55-25 25.76-5.17 1.56-11.73 1.93-18.5 1.05z"/><path fill="#7b7b7b" d="M57.36 444.4c-29.78-6.5-52.6-31.04-56.5-60.7-.75-5.8-1-56.35-.8-166.35l.3-158 2.35-7c4.42-13.14 8.87-20.33 18.6-30.03C31.35 12.32 40.5 6.8 53.9 2.7L61.35.4 173.86.1C249.96-.14 289 .1 294.5.83c26.07 3.43 47.3 18.74 58.1 41.87 6.65 14.3 6.32 4.42 6.03 183.43l-.27 162.22-2.34 7c-3.95 11.83-8.7 19.25-18.56 29.03-10.42 10.33-20.47 16.1-34 19.5-7.68 1.92-11.37 1.97-124 1.9-91.7-.07-117.36-.36-122.1-1.4zm246-4.82c3.3-.96 9.83-3.6 14.5-5.9 11.56-5.6 24-17.85 29.34-28.83 7.73-15.92 7.16-1.42 7.16-181.5 0-131.56-.25-162-1.35-166.5-.73-3.02-3.32-9.65-5.75-14.73-7.6-15.9-21.55-27.8-39.9-34.04l-8-2.73h-240l-8 2.82C29 16.04 12.42 33.65 6.84 55.47 4.9 62.96 4.86 67.2 4.86 223.34c0 156.15.05 160.38 1.97 167.9 3 11.73 8.28 20.9 17.04 29.6 11.04 10.98 23.35 17.4 38.1 19.9 3.05.5 55.5.83 120.4.74 106.22-.16 115.45-.3 121-1.92zm-175.23-44.2c-4.18-1.83-6.72-6.1-8.83-14.92-.93-3.9-2.04-7.5-2.47-7.96-.43-.47-3.94-.13-7.82.75-3.86.88-8.65 1.6-10.62 1.6-4.3 0-10.15-2.3-13.27-5.23-2.54-2.4-4.64-8.9-3.76-11.7.52-1.63 1.07-1.72 4.8-.8 4.73 1.15 26.2 1.6 27.22.57.37-.38-.5-6.4-1.92-13.42-2.3-11.36-3.47-26.43-2.05-26.43.3 0 2 .62 3.82 1.38 4.16 1.74 4.93 3.65 8.63 21.53 1.65 7.93 3.2 14.62 3.46 14.88.64.63 7.8-1.13 20.3-4.97l10.26-3.15v-6.58c-.04-9.3-.6-9.9-7.16-7.4-5.22 2-5.35 2.14-6.03 6.8-1.23 8.6-3.9 8.38-7.76-.6-4.1-9.55-6.37-22.36-6.46-36.48-.1-16.2-.02-16.34 9.76-16.33 9.2 0 13.85-1.27 41.4-11.46 12.52-4.63 24.56-8.9 26.76-9.5 9.72-2.67 18.5.1 18.5 5.8 0 2.3-1.24 4.04-5.96 8.25-7.95 7.1-9.05 11.1-9.76 35.4l-.54 18.07 15.38-.05c15.23-.04 15.5 0 26.38 3.73 24.65 8.47 32.47 17.64 24.93 29.22-7.97 12.25-43.1 30.47-58.7 30.45-10.52-.02-38.2-7.7-51.04-14.16l-5.8-2.93-3.03 2.54c-2.13 1.8-4.2 2.55-7 2.55-5.6 0-9.74 2.45-11.56 6.82-2.3 5.56-4.18 6.25-10.04 3.7zm17.75-21.53c5.5-2.76 9.98-5.63 9.98-6.38s.28-2.77.63-4.5c.5-2.57.3-3.12-1.2-3.12-2.3 0-24.66 6.92-25.77 7.98-1.2 1.14 4.2 11.02 6 11.02.2 0 4.86-2.25 10.35-5zm61.26 1.55c17.17-5 29.03-11.8 33.32-19.12 3.1-5.3 3.04-7.96-.2-10.1-2.37-1.54-3.66-1.58-14.25-.44-16.85 1.8-15.7 1.23-15.3 7.72.44 6.85-.98 10.38-5.96 14.88-5.56 5.03-9.46 4.86-13.84-.58-3.86-4.8-5.36-4.8-15.38.08-5.37 2.6-12.66 8.06-12.66 9.46 0 .74 15.5 1.32 26 .97 6.44-.22 12.33-1.14 18.28-2.87zm-31.55-13.93c10.9-3.97 14.26-5.98 14.26-8.54 0-1.83-.2-1.83-8.4-.04-17 3.7-16.6 3.5-16.6 8 0 2.17.34 3.95.75 3.94.42 0 4.9-1.52 10-3.37zm-1.3-19.55c3.88-1.07 9-2.44 11.36-3.05l4.3-1.12-.3-6.2-.3-6.2-3 .27c-9.45.85-19.74 2.73-20.03 3.66-.9 2.87-.96 14.57-.08 14.57.54 0 4.16-.87 8.05-1.93zm-20.3-24.1c-.2-4.1-.5-7.63-.7-7.82-.17-.2-2.37.43-4.88 1.38l-4.56 1.75v14.51l5.25-1.18 5.26-1.17-.36-7.48zm21.78.4c3.54-.82 8.04-1.35 10-1.18l3.58.3.7-6.4c.4-3.53.55-6.7.34-7.02-.46-.74-20 .5-21.4 1.35-.55.34-1.3 3.2-1.65 6.35-.36 3.15-.9 6.6-1.2 7.64-.42 1.52-.15 1.76 1.35 1.18 1.02-.4 4.75-1.4 8.28-2.22zm-26.07-13.46c3.08-1.07 3.16-1.27 3.16-7.14v-6.04l-5.13.6c-2.83.34-5.27.74-5.43.9-.16.16-.04 3.1.27 6.53.62 6.86 1.16 7.24 7.14 5.16zm32.78-7.58l9.12-.55.58-5.6c.32-3.1.43-5.76.25-5.94-.4-.4-25.44 4.3-26.02 4.88-.2.2.13 2.33.76 4.7 1.05 3.94 1.38 4.27 3.68 3.68 1.4-.35 6.63-.88 11.64-1.18zm-70.82-15.34c-15.84-1.8-21.92-5.25-22.17-12.54l-.14-3.95 30-.67c16.5-.37 31.96-.97 34.36-1.33 4.23-.63 4.34-.74 3.75-3.7-.33-1.67-.6-3.38-.6-3.78 0-.4-1.8-2-4.02-3.52l-4-2.78 8.3-8.6c4.55-4.74 10.02-11.43 12.14-14.87 2.1-3.43 4.2-6.25 4.62-6.25 1.22 0 4.65 6.17 5.4 9.67.93 4.44-.83 10.1-4.94 15.9-2.52 3.53-3.52 6-3.52 8.68 0 4.3.3 4.4 7.7 2.06 5.06-1.6 5.53-2.03 8.33-7.75 4.54-9.28 5.55-15.98 3.5-23.16-.92-3.24-2.77-7.56-4.1-9.6-1.35-2.06-2.44-4.1-2.44-4.5 0-1.98 17.53-14.28 20.34-14.28 2.84 0 9.32 5.1 11.6 9.13 5.05 8.92 1.15 20.17-12.72 36.65-2.45 2.92-4.3 5.45-4.1 5.64.22.18 3.76-.98 7.88-2.6 4.13-1.6 15.6-5.67 25.5-9.05 14-4.78 19.33-6.15 24-6.18 10.76-.06 17.6 5.5 14.67 11.9-2.3 5.08-13.72 7.96-37.34 9.45-19.1 1.2-25.7 3.12-56.34 16.3-30.67 13.18-32.9 13.86-46.5 14.26-6.32.18-14.96-.06-19.2-.54zm117.7-97.16c-3.3-.43-9.37-1.96-13.5-3.4-28.48-9.92-44.4-24.5-47.92-43.86-.6-3.26-1.08-16.03-1.08-28.37V86.6l-2.25 1.5c-1.98 1.32-2.3 2.6-2.88 11.37-1.4 21.64-10.6 35.7-32.86 50.35-16.63 10.93-39.58 20.85-42.2 18.24-1.4-1.4-1.83-1.03 6.33-5.45 25.75-13.93 39-26.78 43.88-42.53 2.68-8.7 2.58-9.85-.94-10.55-8.08-1.6-16.28-15.67-9.15-15.67 2.32 0 11.18-2.83 12.38-3.97 1.42-1.33-1.2-8.6-5.08-14.18-3.1-4.46-3.73-6.18-3.72-10.35 0-2.75.35-6.2.74-7.64l.73-2.64 9.25 2c14.52 3.15 17 5.08 18.15 14.22.34 2.7.8 5.1 1.03 5.33.22.23 1.54-.33 2.92-1.23 1.65-1.1 2.73-2.95 3.15-5.47.36-2.1 1.68-4.8 2.95-5.98 2.22-2.1 2.4-2.1 5.84-.47l3.55 1.7 8.82-5.54c16.15-10.1 17.08-10.3 24.95-5.8 5.65 3.25 10.07 7.9 11 11.64 1.95 7.76-11.4 13.4-31.74 13.4h-8.62l-2.28 5.26c-3.15 7.23-3.9 24.4-1.5 33.67 5.2 19.9 19.15 35.05 32.3 35.08 4.06 0 6.6-.73 11-3.16 11.32-6.26 11.38-6.67 3.82-25.7-3-7.5-5.72-15.45-6.08-17.65-.58-3.58-.15-3.1 4.18 4.75 9.55 17.3 11.14 18.92 26.5 26.83 16.44 8.47 21.82 13.4 21.82 19.94 0 10.24-10.97 21.55-25 25.76-5.17 1.56-11.73 1.93-18.5 1.05z"/><path fill="#a55357" d="M61.7 444.83C38.4 440.9 19.02 427.28 8.84 407.7c-2.23-4.27-4.94-11.24-6.02-15.47C.9 384.73.86 380.4.86 223.35.86 65.68.9 62 2.86 54.25c3.27-12.98 8.25-21.67 18-31.4 9.7-9.7 16.3-13.9 28.74-18.36l8.76-3.15h241l7.47 2.35c25.34 7.96 42.86 25.63 49.7 50.15 1.74 6.16 1.83 15.02 1.83 169 0 182.58.64 167.03-7.6 183.86-7.2 14.7-21.8 27.8-37.76 33.85-13.9 5.28-12.96 5.24-134.14 5.15-61.87-.04-114.6-.44-117.17-.87zm240.75-4.97c13.15-3.3 21.64-8.22 32-18.5 7.3-7.2 9.93-10.64 13.2-17.22 7.78-15.7 7.3-3.35 7-184.3l-.3-161.5-2.67-7.32c-3.96-10.83-8.4-17.73-17.02-26.33-6.14-6.15-9.58-8.63-17-12.27-17.65-8.68-7.36-8.08-138.3-8.08h-116l-7.95 2.3c-11.85 3.44-20.73 8.56-29.93 17.28-9.23 8.74-14.4 16.75-18.38 28.42l-2.74 8-.3 157.5c-.22 113.62.02 159.72.83 165.46 3.84 26.93 24.26 49.48 51.2 56.54 6.93 1.82 12.5 1.9 122.85 1.96 112.24.05 115.82 0 123.5-1.94zm-174.32-44.5c-4.18-1.8-6.72-6.1-8.83-14.9-.93-3.9-2.04-7.5-2.47-7.96-.43-.47-3.94-.13-7.82.75-3.86.88-8.65 1.6-10.62 1.6-4.3 0-10.15-2.3-13.27-5.23-2.54-2.4-4.64-8.9-3.76-11.7.52-1.63 1.07-1.72 4.8-.8 4.73 1.15 26.2 1.6 27.22.57.37-.38-.5-6.4-1.92-13.42-2.3-11.36-3.47-26.43-2.05-26.43.3 0 2 .62 3.82 1.38 4.16 1.74 4.93 3.65 8.63 21.53 1.65 7.93 3.2 14.62 3.46 14.88.64.63 7.8-1.13 20.3-4.97l10.26-3.15v-6.58c-.04-9.3-.6-9.9-7.16-7.4-5.22 2-5.35 2.14-6.03 6.8-1.23 8.6-3.9 8.38-7.76-.6-4.1-9.55-6.37-22.36-6.46-36.48-.1-16.2-.02-16.34 9.76-16.33 9.2 0 13.85-1.27 41.4-11.46 12.52-4.63 24.56-8.9 26.76-9.5 9.72-2.67 18.5.1 18.5 5.8 0 2.3-1.24 4.04-5.96 8.25-7.95 7.1-9.05 11.1-9.76 35.4l-.54 18.07 15.38-.05c15.23-.04 15.5 0 26.38 3.73 24.65 8.47 32.47 17.64 24.93 29.22-7.97 12.25-43.1 30.47-58.7 30.45-10.52-.02-38.2-7.7-51.04-14.16l-5.8-2.93-3.03 2.54c-2.13 1.8-4.2 2.55-7 2.55-5.6 0-9.74 2.45-11.56 6.82-2.3 5.56-4.18 6.25-10.04 3.7zm17.75-21.5c5.5-2.77 9.98-5.64 9.98-6.4 0-.74.28-2.76.63-4.48.5-2.58.3-3.13-1.2-3.13-2.3 0-24.66 6.92-25.77 7.98-1.2 1.14 4.2 11.02 6 11.02.2 0 4.86-2.25 10.35-5zm61.26 1.54c17.17-5 29.03-11.8 33.32-19.12 3.1-5.3 3.04-7.96-.2-10.1-2.37-1.54-3.66-1.58-14.25-.44-16.85 1.8-15.7 1.23-15.3 7.72.44 6.85-.98 10.38-5.96 14.88-5.56 5.03-9.46 4.86-13.84-.58-3.86-4.8-5.36-4.8-15.38.08-5.37 2.6-12.66 8.06-12.66 9.46 0 .74 15.5 1.32 26 .97 6.44-.22 12.33-1.14 18.28-2.87zm-31.55-13.93c10.9-3.97 14.26-5.98 14.26-8.54 0-1.83-.2-1.83-8.4-.04-17 3.7-16.6 3.5-16.6 8 0 2.17.34 3.95.75 3.94.42 0 4.9-1.52 10-3.37zm-1.3-19.55c3.88-1.07 9-2.44 11.36-3.05l4.3-1.12-.3-6.2-.3-6.2-3 .27c-9.45.85-19.74 2.73-20.03 3.66-.9 2.87-.96 14.57-.08 14.57.54 0 4.16-.87 8.05-1.93zm-20.3-24.1c-.2-4.1-.5-7.63-.7-7.82-.17-.2-2.37.43-4.88 1.38l-4.56 1.75v14.51l5.25-1.18 5.26-1.17-.36-7.48zm21.78.4c3.54-.82 8.04-1.35 10-1.18l3.58.3.7-6.4c.4-3.53.55-6.7.34-7.02-.46-.74-20 .5-21.4 1.35-.55.34-1.3 3.2-1.65 6.35-.36 3.15-.9 6.6-1.2 7.64-.42 1.52-.15 1.76 1.35 1.18 1.02-.4 4.75-1.4 8.28-2.22zm-26.07-13.46c3.08-1.07 3.16-1.27 3.16-7.14v-6.04l-5.13.6c-2.83.34-5.27.74-5.43.9-.16.16-.04 3.1.27 6.53.62 6.86 1.16 7.24 7.14 5.16zm32.78-7.58l9.12-.55.58-5.6c.32-3.1.43-5.76.25-5.94-.4-.4-25.44 4.3-26.02 4.88-.2.2.13 2.33.76 4.7 1.05 3.94 1.38 4.27 3.68 3.68 1.4-.35 6.63-.88 11.64-1.18zm-70.82-15.34c-15.84-1.8-21.92-5.25-22.17-12.54l-.14-3.95 30-.67c16.5-.37 31.96-.97 34.36-1.33 4.23-.63 4.34-.74 3.75-3.7-.33-1.67-.6-3.38-.6-3.78 0-.4-1.8-2-4.02-3.52l-4-2.78 8.3-8.6c4.55-4.74 10.02-11.43 12.14-14.87 2.1-3.43 4.2-6.25 4.62-6.25 1.22 0 4.65 6.17 5.4 9.67.93 4.44-.83 10.1-4.94 15.9-2.52 3.53-3.52 6-3.52 8.68 0 4.3.3 4.4 7.7 2.06 5.06-1.6 5.53-2.03 8.33-7.75 4.54-9.28 5.55-15.98 3.5-23.16-.92-3.24-2.77-7.56-4.1-9.6-1.35-2.06-2.44-4.1-2.44-4.5 0-1.98 17.53-14.28 20.34-14.28 2.84 0 9.32 5.1 11.6 9.13 5.05 8.92 1.15 20.17-12.72 36.65-2.45 2.92-4.3 5.45-4.1 5.64.22.18 3.76-.98 7.88-2.6 4.13-1.6 15.6-5.67 25.5-9.05 14-4.78 19.33-6.15 24-6.18 10.76-.06 17.6 5.5 14.67 11.9-2.3 5.08-13.72 7.96-37.34 9.45-19.1 1.2-25.7 3.12-56.34 16.3-30.67 13.18-32.9 13.86-46.5 14.26-6.32.18-14.96-.06-19.2-.54zm112.15-98.5c-7.18-1.75-19.6-6.7-28.4-11.3-8.63-4.53-18.23-13.37-21.96-20.22-4.98-9.14-5.55-13.3-5.57-40.22 0-20.06-.26-24.75-1.35-24.75-2.9 0-4.4 3.54-5.03 12-1.63 21.6-9.05 34.2-28.1 47.76-10.32 7.34-27.28 16.17-37.88 19.73-11.1 3.72-13.13 1.8-3.34-3.12 10.36-5.2 27.36-17.23 33.02-23.35 3.15-3.4 7.02-8.75 8.6-11.9 2.74-5.4 6.64-16.96 5.9-17.5-.2-.12-2.2-.77-4.5-1.43-5.16-1.48-10.34-7.04-10.34-11.12 0-2.44.5-3 3.2-3.6 6.6-1.44 11.8-4.28 11.8-6.44 0-3.14-2.53-8.54-6.06-12.93-3-3.75-3.15-4.3-2.78-10.96.22-3.85.68-7.3 1.02-7.63 1.1-1.1 17.42 2.65 21.46 4.9 3.4 1.9 3.96 2.76 4.7 7.14.46 2.74 1.03 6 1.27 7.22l.43 2.25 3.47-2.25c2.76-1.8 3.47-2.9 3.48-5.44 0-1.9.97-4.3 2.37-5.94l2.36-2.74 3.3 2.08 3.28 2.1 6.82-4.38c8.9-5.7 17.8-10.43 19.63-10.43 2.62 0 13.3 6.25 15.8 9.25 2.92 3.45 3.26 8.8.73 11.34-4.08 4.08-10.36 5.75-24.15 6.42-11.62.56-13.57.9-14.8 2.57-5.44 7.44-6.5 28.6-2.04 41.26 3.53 10.02 8.16 17.38 14.9 23.64 5.68 5.27 12.52 8.55 17.75 8.48 3.58-.04 16.02-6.9 18.4-10.17 1.97-2.7 1.97-2.7-.1-8.5-1.16-3.2-3.73-9.75-5.74-14.58-2-4.83-3.87-10.46-4.15-12.5-.43-3.25.1-2.64 4.16 4.78 8.63 15.77 11.14 18.27 25.1 24.98 22.47 10.8 26.9 18.37 18.3 31.34-8.2 12.4-27.38 18.44-44.95 14.17z"/><path fill="#871a1f" d="M61.7 444.83C38.4 440.9 19.02 427.28 8.84 407.7c-2.23-4.27-4.94-11.24-6.02-15.47C.9 384.73.86 380.4.86 223.35.86 65.68.9 62 2.86 54.25c3.27-12.98 8.25-21.67 18-31.4 9.7-9.7 16.3-13.9 28.74-18.36l8.76-3.15h241l7.47 2.35c25.34 7.96 42.86 25.63 49.7 50.15 1.74 6.16 1.83 15.02 1.83 169 0 182.58.64 167.03-7.6 183.86-7.2 14.7-21.8 27.8-37.76 33.85-13.9 5.28-12.96 5.24-134.14 5.15-61.87-.04-114.6-.44-117.17-.87zm240.75-4.97c13.15-3.3 21.64-8.22 32-18.5 7.3-7.2 9.93-10.64 13.2-17.22 7.78-15.7 7.3-3.35 7-184.3l-.3-161.5-2.67-7.32c-3.96-10.83-8.4-17.73-17.02-26.33-6.14-6.15-9.58-8.63-17-12.27-17.65-8.68-7.36-8.08-138.3-8.08h-116l-7.95 2.3c-11.85 3.44-20.73 8.56-29.93 17.28-9.23 8.74-14.4 16.75-18.38 28.42l-2.74 8-.3 157.5c-.22 113.62.02 159.72.83 165.46 3.84 26.93 24.26 49.48 51.2 56.54 6.93 1.82 12.5 1.9 122.85 1.96 112.24.05 115.82 0 123.5-1.94zM128.12 395.2c-4.34-2.13-6.85-6.46-8.92-15.4-.95-4.1-1.84-7.6-1.98-7.8-.15-.2-4.17.4-8.95 1.34-9.8 1.95-15.07 1.5-20.24-1.7-4.02-2.47-7.54-9.47-6.62-13.14.6-2.3.85-2.37 4.3-1.4 4 1.16 26.6 1.65 27.63.6.36-.34-.5-6.53-1.9-13.74-2.17-11.07-3.44-26.1-2.22-26.1.2 0 1.74.48 3.43 1.06 4.17 1.46 5.62 4.94 9.15 21.9 1.64 7.84 3.2 14.48 3.46 14.75.72.72 9.85-1.37 20.87-4.77l9.76-3v-7.5c0-8.82-.56-9.32-7.56-6.7-4.75 1.75-4.93 1.96-5.73 6.78-1.06 6.34-1.96 7.2-4.62 4.34-4.93-5.3-10.5-30.52-9.93-44.98.45-11.5 1.54-12.8 10.7-12.72 8.46.06 14.82-1.63 35.74-9.5 36.42-13.7 42.34-14.9 47.96-9.6 3.74 3.5 3.06 5.73-3.65 11.94-7.9 7.32-8.9 11-9.62 35.6l-.53 18.08 14.37-.08c16.4-.1 24 1.56 38.4 8.3 12.78 6 17.68 12.26 15.9 20.33-2.25 10.26-35.3 30.68-55.18 34.1-5.58.94-7.9.8-17.42-1.16-13.36-2.73-27.83-7.25-37.7-11.77-7.56-3.48-9.18-3.48-12.1.03-.84 1.02-2.98 1.55-6.24 1.55-4.12 0-5.4.48-7.63 2.8-1.47 1.53-3.44 4.23-4.37 6-1.9 3.6-3.75 3.92-8.54 1.56zm28.1-30.82c.5-2.54.67-4.83.4-5.1-1-1-27.25 8.17-27.53 9.62-.17.8 1.08 3.64 2.76 6.3l3.04 4.8 10.23-5.5 10.23-5.5.87-4.62zm50.64 11.4c8.22-2.33 22.26-8.55 27.1-12 4.66-3.3 8.9-9.73 8.9-13.45 0-5.18-3.6-6.13-17.46-4.6-16.1 1.76-15.1 1.22-14.76 7.92.33 6.8-2.35 12.32-7.7 15.93-4.93 3.32-7.45 2.94-11.2-1.73-1.77-2.2-3.93-4-4.8-4-3.92-.03-14.53 4.76-19.8 8.93l-5.78 4.57 9 .63c14.4 1 28.15.18 36.5-2.2zm-30.13-14.52c11.14-4 12.63-4.9 13.6-8.16.8-2.72 1.68-2.76-12.97.58l-12 2.73-.3 4.23c-.18 2.32.13 4.22.67 4.22s5.5-1.6 11-3.6zm2.13-20.42l11.5-3.2-.34-6.46c-.33-6.38-.36-6.44-3-5.94-1.46.27-6.63 1.03-11.48 1.67-4.86.66-9 1.7-9.18 2.32-.2.62-.55 4.42-.8 8.42-.3 5.13-.1 7.16.68 6.85.62-.25 6.3-1.9 12.62-3.66zm-27-14.98c2.43-.65 2.5-.9 2.14-8.1-.2-4.07-.5-7.56-.7-7.76-.17-.2-2.25.3-4.63 1.08l-4.3 1.44-.3 7.7-.3 7.7 2.8-.7c1.53-.38 3.92-1 5.3-1.36zm24.96-7.6c3.56-.85 7.95-1.27 9.75-.93 3.25.6 3.3.57 3.3-3.18 0-2.1.3-5.47.63-7.5l.6-3.73-4.86.45c-2.7.25-7.87.7-11.52 1.04l-6.65.6-.68 5.67c-.38 3.13-.95 6.77-1.26 8.1-.5 2.14-.32 2.32 1.82 1.72 1.32-.4 5.3-1.4 8.86-2.24zm-28.96-12.78l4.5-1.34.3-6.3.3-6.28-5.18.62c-2.86.34-5.35.77-5.53.96-.3.3.7 13.74 1 13.7.06 0 2.14-.62 4.6-1.36zm35.12-8.28l8.63-.58.58-5.6c.32-3.08.44-5.74.26-5.92-.47-.47-24.95 3.97-25.76 4.67-.38.32-.17 2.53.47 4.9 1.1 4.14 1.3 4.32 4.2 3.73 1.65-.34 6.9-.88 11.63-1.2zm-70.82-15.47c-11.83-1.24-18.24-3.6-21.03-7.77-2.98-4.46-3-7.92-.02-8.52 1.25-.25 15.54-.73 31.76-1.06 16.23-.32 30.78-.86 32.34-1.2 2.64-.55 2.8-.84 2.18-4.2-.44-2.46-1.84-4.64-4.33-6.77l-3.68-3.14 9.03-9.35c4.97-5.14 10.4-11.75 12.1-14.7l3.07-5.33 2.15 2.73c1.18 1.5 2.66 4.45 3.3 6.56 1.38 4.65-.55 10.63-5.57 17.2-2.7 3.56-3.13 4.85-2.78 8.5.26 2.68.85 4.16 1.55 3.9.63-.23 3.54-1.2 6.48-2.17 5.15-1.7 5.47-2.02 8.7-8.75 5.76-12.04 5.4-22.7-1.07-32.25l-2.58-3.8 2.22-2.36c3.1-3.3 16.42-12.4 18.15-12.4 2.3 0 9.63 5.8 11.77 9.3 2.24 3.7 2.6 11.12.75 15.42-2.03 4.7-7.76 13.45-13.45 20.54-3 3.72-5.14 6.75-4.8 6.75.35 0 9.7-3.32 20.8-7.38 11.1-4.06 24.08-8.4 28.87-9.64 7.8-2.02 9.2-2.12 13.37-.95 5.7 1.6 10.42 5.4 10.42 8.4 0 1.22-1.02 3.18-2.26 4.35-5.08 4.77-13.44 6.65-36.24 8.14-19.2 1.25-25.5 3.1-57.23 16.68-13.62 5.83-28.1 11.46-32.18 12.5-7.92 2.04-17.57 2.27-31.8.78zm111.65-98.4c-7.18-1.74-19.6-6.68-28.4-11.3-8.63-4.52-18.23-13.36-21.96-20.2-4.98-9.15-5.55-13.32-5.57-40.23 0-20.06-.26-24.75-1.35-24.75-2.9 0-4.4 3.54-5.03 12-1.63 21.6-9.05 34.2-28.1 47.76-10.32 7.34-27.28 16.17-37.88 19.73-11.1 3.72-13.13 1.8-3.34-3.12 10.36-5.2 27.36-17.23 33.02-23.35 3.15-3.4 7.02-8.75 8.6-11.9 2.74-5.4 6.64-16.96 5.9-17.5-.18-.12-2.2-.77-4.5-1.43-5.16-1.48-10.34-7.04-10.34-11.12 0-2.44.5-3 3.2-3.6 6.6-1.44 11.8-4.28 11.8-6.44 0-3.14-2.53-8.54-6.06-12.93-3-3.75-3.15-4.3-2.78-10.96.22-3.85.68-7.3 1.02-7.63 1.1-1.1 17.42 2.65 21.46 4.9 3.4 1.9 3.96 2.76 4.7 7.14.46 2.74 1.03 6 1.27 7.22l.43 2.25 3.47-2.25c2.76-1.8 3.47-2.9 3.48-5.44 0-1.9.97-4.3 2.37-5.94l2.36-2.74 3.3 2.08 3.28 2.1 6.82-4.38c8.9-5.7 17.8-10.43 19.63-10.43 2.62 0 13.3 6.25 15.8 9.25 2.92 3.45 3.26 8.8.73 11.34-4.08 4.08-10.36 5.75-24.15 6.42-11.62.56-13.57.9-14.8 2.57-5.44 7.44-6.5 28.6-2.04 41.26 3.53 10.02 8.16 17.38 14.9 23.64 5.68 5.27 12.52 8.55 17.75 8.48 3.58-.04 16.02-6.9 18.4-10.17 1.97-2.7 1.97-2.7-.1-8.5-1.16-3.2-3.73-9.75-5.74-14.58-2-4.83-3.87-10.46-4.15-12.5-.43-3.25.1-2.64 4.16 4.78 8.63 15.77 11.14 18.27 25.1 24.98 22.47 10.8 26.9 18.37 18.3 31.34-8.2 12.4-27.38 18.44-44.95 14.17z"/><path fill="#010101" d="M60.36 444.4c-26.9-5.05-47.27-22.5-56.66-48.55l-2.34-6.5-.28-163C.78 44.4.33 56.42 7.82 41.2c8.94-18.14 23.56-30.46 44.54-37.5l7-2.35 117-.27C303.5.78 300 .65 313.97 6.33c20.45 8.3 36.8 26.9 42.63 48.52 1.65 6.08 1.76 17.18 1.76 168.5 0 153.7-.1 162.34-1.82 168.5-5.78 20.63-19.27 36.88-38.18 46-16.54 8-6.15 7.4-135.5 7.64-91.75.16-116.94-.07-122.5-1.1zm242.88-4.5c12.02-3.1 22.76-9.22 31.57-18.03 8.48-8.46 12.94-15.4 16.88-26.18l2.68-7.35.27-161.72c.3-180.8.73-169.2-6.9-184.78-5.83-11.93-17.77-23.8-29.87-29.72-16.9-8.27-6.78-7.65-132.5-8.03-77.53-.23-114.57 0-120.36.76C41.82 7.9 22.12 21.24 12 40.72c-8.3 15.96-7.64.32-7.64 183.13v162.5l2.72 8c7.8 23 25.43 39.43 48.78 45.46 7.2 1.87 12.15 1.95 123.6 2 112.3.05 116.33 0 123.78-1.9zm-79.2-256.54c-20.15-5.67-38.17-15.75-46.4-25.97-8.75-10.88-9.2-12.97-9.58-44.3-.17-14.98-.63-27.23-1-27.2-.4 0-1.64.8-2.78 1.76-1.72 1.44-2.2 3.33-2.73 10.72-1.6 22.26-10.58 36.4-32.16 50.62-15.64 10.3-40.47 21.32-42.8 19-.64-.64.55-1.76 3.4-3.2 10.2-5.18 28.26-17.5 33.83-23.07 7.02-7.02 12.24-15.88 14.46-24.52 1.9-7.5 1.9-7.35.02-7.35-3.04 0-9.58-4.14-11.5-7.3-3.53-5.78-2.84-6.96 5.54-9.56 6.88-2.15 7.5-2.56 7.48-5-.03-3.4-3.25-10.5-6.58-14.44-2.35-2.8-2.57-3.74-2.22-9.85.2-3.7.65-7 .97-7.33.86-.85 18.17 3.08 21.75 4.93 3.06 1.58 5.08 6.12 5.12 11.55.04 4.4 1.2 5.1 4.77 2.85 2.58-1.64 3.22-2.7 3.22-5.4 0-2.03.9-4.37 2.28-6l2.28-2.64 3.47 2.05 3.46 2.05 8-5c4.4-2.76 10.2-6.15 12.88-7.54 4.8-2.46 4.98-2.48 9.23-.86 2.38.9 6.6 3.7 9.36 6.18 4.13 3.7 5.03 5.12 5.03 7.85 0 2.45-.73 3.92-2.75 5.5-5.22 4.12-9.4 5.2-22.74 5.87-7.15.37-13.53 1-14.18 1.4-2.27 1.43-5.45 12.15-5.98 20.17-1.4 21.12 10.4 44.87 25.87 52.07 7.3 3.4 10.96 3.16 19.66-1.26 9.77-4.97 10.9-6.7 8.9-13.55-.85-2.86-3.33-9.48-5.52-14.7-6.3-15.07-6.4-18.2-.2-7.5 8.68 15.04 10.34 16.6 25.95 24.53 18.47 9.37 22.75 14.24 20.15 22.9-2.46 8.2-10.86 16.4-20.96 20.43-6.33 2.54-20.02 3.12-27 1.16z"/></g></g></svg>