<svg xmlns="http://www.w3.org/2000/svg" width="358.415" height="445.917" viewBox="0 0 358.41547 445.91696"><g><g><path fill="#c2c5cd" d="M61.33 444.98c-16.56-2.85-29.25-9.35-40.96-21-7.3-7.27-9.32-10.04-13.15-18.04C4.72 400.74 2.1 394 1.35 391 .25 386.5 0 355.7 0 222.5 0 69.8.1 59.07 1.76 53.1 8.36 29.25 25.93 11.32 51 2.85L58 .5 175.7.2c127.5-.28 124.08-.4 137.76 5.1 19.84 8.03 34.93 24.02 41.9 44.4l2.64 7.8.27 161.47c.3 182.4.78 170.44-7.4 187-3.9 7.86-6.2 11-13.3 18.1-7.12 7.13-10.2 9.37-18.07 13.24-17.93 8.8-6.67 8.13-137.5 8.32-63.8.1-118.1-.2-120.67-.64zM307 437.66c18.45-6.52 32.03-18.45 40.56-35.63 6.22-12.54 5.9-3.15 5.93-179.56 0-159.8-.02-161.08-2.07-168.5-5.22-18.85-18.07-33.87-36.43-42.6-15.38-7.32-6.8-6.88-136-6.88-108.04 0-116.45.1-122.5 1.76-20.28 5.55-37.17 19-45.52 36.24-6.85 14.15-6.45 3.04-6.47 180.53 0 178.76-.53 165.2 7.05 180.7C19.9 420.8 36.3 433.86 55.82 439c6.87 1.82 12.26 1.9 125.18 1.7l118-.2 8-2.84zm-201.86-58.2C82.9 373.84 67.12 356 64.3 333.33c-4.7-37.57 29.6-67.63 67.1-58.8 9.32 2.2 17.7 7.02 25.13 14.44 33.48 33.48 11.4 89.65-36.03 91.6-6.3.26-11.46-.1-15.36-1.1zm24-9.87c33.1-8.82 44.37-49.56 20.34-73.6-9.53-9.52-21.12-13.7-35.33-12.73-6.38.44-9.32 1.24-15.1 4.1-22.6 11.17-31.57 37.25-20.45 59.5 3.3 6.6 12.3 15.75 18.7 19 9.56 4.9 22 6.34 31.85 3.72zm-21.46-5.1c-19.13-5.4-30.77-23.47-28.02-43.56 1.17-8.6 5.22-16.16 12-22.45 8.1-7.5 14.66-9.94 26.84-9.97 8.62-.03 10.12.27 16.2 3.14 8.55 4.04 15.1 10.6 19.07 19.07 2.7 5.8 3.12 7.77 3.14 15.2.05 10.47-1.26 15.1-6.42 22.83-4.33 6.5-11.6 12.13-18.98 14.76-6.5 2.3-17.44 2.75-23.82.96zm25.95-11.1c3.4-1.73 7.7-6.85 8.5-10.13.94-3.7-.75-7.72-3.4-8.1-1.44-.2-5 1.63-10.07 5.2-9.5 6.7-10.56 7.9-9.77 11.02 1.1 4.38 8.18 5.35 14.73 2zm-19.1-.24c3.66-2.96 2-5.95-6.7-12.17-9.85-7.07-10.9-7.46-13.35-5-2.7 2.7-2.5 6.78.55 11.25 4.67 6.87 14.6 9.88 19.5 5.9zm12.57-15.26c4.06-3.8 5.68-7.72 5.15-12.46-.85-7.54-6.34-12.46-13.9-12.45-14.53 0-19.9 17.68-7.85 25.8 4.68 3.16 12.73 2.72 16.6-.9zm-15.15-4.37c-1.8-1.8-2.45-3.53-2.45-6.54 0-8.63 9-12.16 15.2-5.97 2.63 2.63 2.97 3.55 2.46 6.75-1.2 7.58-10.04 10.92-15.2 5.75zm32.3-1.08c4.57-3.2 4.83-13.46.5-19.4-2.6-3.54-7.92-6.12-10.6-5.13-3.15 1.15-3.17 4.98-.1 14.35 3.77 11.46 5.67 13.35 10.2 10.18zm-44.07-8.96c4.4-12.4 4.16-16.5-.93-16.5-5.15 0-9.67 4.72-11.87 12.42-1.92 6.68 1.88 13.96 6.96 13.37 2.38-.28 3-1.28 5.84-9.3zm29.84-15.6c1.1-1.1 1.38-2.45.93-4.27-1.64-6.53-13.4-9.75-21.17-5.8-6.58 3.37-7.6 10-1.78 11.5 1.1.28 6.15.43 11.22.34 6.92-.14 9.6-.58 10.8-1.78zM229 380.02c-25.62-5.54-43.55-27.54-43.5-53.34.05-14.33 5.5-27.2 15.97-37.8 16.72-16.9 41.5-20.67 63.97-9.74 8.44 4.1 18.46 14.14 22.82 22.83 14.8 29.5.35 65.65-30.35 75.9-7.6 2.55-22.04 3.6-28.9 2.13zm21.96-10.58c8.47-2.2 14.75-5.96 21.08-12.6 20.63-21.62 14.24-55.98-12.9-69.4-22-10.86-48.6-1.5-59.23 20.88-15.9 33.5 15.03 70.5 51.06 61.12zm-21.44-5c-7.66-2.15-12.94-5.5-18.82-11.93-21.4-23.42-6.22-61.55 25.57-64.22 12.28-1.03 21.82 2.35 30.9 10.94 16.18 15.3 15.8 40.84-.84 56.24-9.65 8.94-24.24 12.5-36.8 8.97zm26.7-11.64c3.76-2.27 6.86-6.3 7.82-10.13.83-3.3-1.73-7.68-4.48-7.68-2.27 0-17.5 11.1-18.96 13.8-1.24 2.33.24 4.65 3.9 6.1 3.14 1.23 7.55.45 11.73-2.1zm-19.94.63c4.3-3 2.46-6.04-8.28-13.63-8.24-5.83-9.37-6.24-11.58-4.24-1.13 1.02-1.92 3.05-1.92 4.93 0 9.38 14.52 18 21.78 12.93zm10.18-13.92c8.9-4.6 10.4-15.96 3.02-23.03-2.4-2.3-4.1-2.94-8.78-3.28-5.17-.38-6.14-.13-9.03 2.3-6.3 5.3-7.87 12.2-4.18 18.25 3.97 6.52 12.5 9.1 18.96 5.76zm-12.63-5.9c-6.12-5.27-2.1-15.6 6.1-15.6 1.82 0 4.47.9 5.93 2.06 2.15 1.7 2.64 2.9 2.64 6.54 0 8.5-8.3 12.46-14.67 7zm31.13-.23c4.52-1.74 5.9-11.8 2.53-18.4-3.34-6.52-10.08-9.33-13.7-5.7-1.37 1.36-1.2 2.57 1.67 11.64 3.85 12.13 5.32 14.06 9.5 12.47zm-45.17-4.13c3.03-7.1 6-18 5.38-19.65-1.46-3.8-7.28-3.17-11.73 1.28-7.16 7.17-5.55 22.1 2.4 22.1 1.76 0 2.74-.93 3.94-3.74zM249.92 309c1.8-.67 2.57-1.7 2.57-3.4 0-4.02-1.05-5.6-5.08-7.66-7.4-3.77-17.8-1.53-20.75 4.46-2.74 5.56.38 7.43 12.5 7.52 4.52.04 9.35-.37 10.76-.9zM106.5 171.5c-16.26-3.68-30.52-15-37.56-29.8-9.72-20.47-5.5-44.87 10.48-60.74C90.58 69.9 102.67 65 118.78 65c30 0 53.72 24 53.72 54.4 0 23.03-16.03 44.2-38.7 51.12-7.32 2.23-19.76 2.67-27.3.97zm21.9-10.05c3.54-.84 8.6-2.7 11.26-4.15 5.9-3.22 14.8-12.34 17.87-18.36 11.5-22.5 2.13-49.42-21.03-60.32-8.9-4.18-21.53-4.88-31.82-1.76-31.5 9.57-41.24 49.4-17.75 72.63 11.72 11.58 25.8 15.64 41.48 11.95zm-17.12-4.5c-30.48-5.13-42.82-43.25-21.2-65.5 12.44-12.8 34.2-15.12 49.64-5.3 6.32 4.03 10.44 8.9 14.17 16.8 2.77 5.85 3.08 7.48 3.03 15.54-.08 11.7-2.62 18.4-9.94 26.32-6.08 6.56-13.15 10.45-21.93 12.07-6.55 1.2-7 1.2-13.8.06zm3.76-12c3.48-2.88 1.76-5.65-7.7-12.4-5.03-3.62-9.6-6.56-10.17-6.56-1.96 0-4.67 3.32-4.67 5.74 0 5.46 5.4 12.05 12 14.6 2.24.88 8.87 0 10.54-1.4zm20.9-1.34c5.73-4.37 7.93-10.2 5.52-14.68-1.6-3-5.1-2.32-11.55 2.22-11.48 8.08-13.05 10.37-9.65 14.12 2.6 2.86 10.9 2 15.68-1.65zm-11.46-12.37c13.5-6.78 8.57-26.58-6.65-26.58-14.5 0-19.14 20.25-6.1 26.67 4.26 2.1 8.44 2.08 12.75-.1zM114 126.88c-3.34-1.9-4.5-4.08-4.5-8.4 0-5.48 3.06-8.5 8.56-8.46 4.34.03 6.47 1.26 8.37 4.82 1.57 2.96.65 8.3-1.83 10.55-2.4 2.16-8.03 2.95-10.6 1.48zm32.25-4.64c3.36-5.13 1.42-15.04-3.9-19.9-5-4.54-10.85-3.75-10.85 1.48 0 3.9 5.58 19.4 7.5 20.8 2.2 1.6 5.3.58 7.25-2.38zm-48.92.5c2.14-4.1 6.17-17.06 6.17-19.82 0-2.9-1.5-3.93-5.7-3.93-6.15 0-12.86 12.75-10.28 19.53 2.44 6.42 7.52 8.6 9.8 4.2zm33.22-23.3c1.9-2.3.1-6.43-3.96-9.17-4.02-2.7-11.3-3.06-16.66-.82-4.06 1.7-6.87 6.87-5.3 9.77.8 1.54 2.48 1.77 12.77 1.77 9.52 0 12.1-.32 13.15-1.57zm101.95 72.9c-11.47-1.8-23.28-7.64-31.02-15.37-9.84-9.84-14.73-20.77-15.64-34.98C183.8 90.55 208.1 65 240 65c26.07 0 47.68 17.32 53 42.5 2.73 13 1.12 24.7-5.03 36.42-10.3 19.57-34.03 31.73-55.47 28.4zm16.2-10.47c8.64-1.82 15.83-5.77 22.37-12.3 13.46-13.47 16.87-32.02 9.04-49.12-5.3-11.57-14.8-19.95-26.78-23.6-10.43-3.15-22.94-2.4-31.96 1.94-19.74 9.48-29.68 30.1-24.36 50.5 2.1 8.13 4.95 13.23 10.85 19.46 6.3 6.67 12.17 10.2 20.65 12.4 7.74 2.03 13.04 2.22 20.2.7zm-17.2-5.25c-12.14-2.65-23.77-12.32-28.12-23.4-1.74-4.4-2.26-7.8-2.28-14.73-.03-8 .3-9.75 3.04-15.56 7.36-15.7 20.92-23.76 38.35-22.75 23.2 1.34 39.6 21.75 35.93 44.72-2.67 16.7-15.46 29.3-32.6 32.1-6.96 1.14-7.3 1.13-14.33-.4zm3.4-10.77c2.8-1.27 3.9-3.35 3.1-5.75-.63-1.9-17.13-14.1-19.05-14.1-2.33 0-4.45 3.05-4.45 6.4 0 4.5 3.62 9.47 8.9 12.26 4.9 2.58 7.8 2.88 11.5 1.2zm20.56-.84c6.56-3.34 10.1-10.02 8-15.1-1.8-4.33-4.45-3.73-14.28 3.24-7.37 5.23-8.68 6.58-8.68 8.95 0 1.6.74 3.22 1.75 3.8 2.83 1.66 9.04 1.24 13.2-.9zm-9.58-13.4c1.83-.76 4.4-2.9 5.72-4.75 6.43-9-.36-22.2-11.43-22.2-15.2 0-20.1 19.7-6.6 26.58 4.14 2.1 7.87 2.23 12.3.37zm-10.36-4.9c-5.27-2.66-6.4-8.93-2.43-13.64 2.13-2.54 3.3-3.07 6.8-3.07 5.43 0 8.6 3.02 8.6 8.22 0 5-.8 6.6-4.07 8.3-3.45 1.78-5.66 1.83-8.9.18zm31.06-3.64c2.38-2.38 2.92-3.77 2.92-7.53 0-5.48-1.85-10.24-5.12-13.18-4.33-3.9-9.95-4.22-11.32-.67-.74 1.95 5.06 20.07 7.22 22.56 2.08 2.37 2.9 2.22 6.3-1.18zm-47.7-.32c.78-1.24 2.7-6.2 4.24-11.04 3.2-9.96 2.78-12-2.5-12.53-6.34-.63-13.25 10-11.74 18.04 1.28 6.8 7.15 10.05 10 5.54zM252.3 97.8c.7-6-4.6-9.8-13.62-9.8-8.22 0-15.8 7.12-12.2 11.46 1.1 1.32 3.34 1.54 13.42 1.3l12.1-.27.3-2.7z"/><path fill="#bebebe" d="M61.33 444.98c-16.56-2.85-29.25-9.35-40.96-21-7.3-7.27-9.32-10.04-13.15-18.04C4.72 400.74 2.1 394 1.35 391 .25 386.5 0 355.7 0 222.5 0 69.8.1 59.07 1.76 53.1 8.36 29.25 25.93 11.32 51 2.85L58 .5 175.7.2c127.5-.28 124.08-.4 137.76 5.1 19.84 8.03 34.93 24.02 41.9 44.4l2.64 7.8.27 161.47c.3 182.4.78 170.44-7.4 187-3.9 7.86-6.2 11-13.3 18.1-7.12 7.13-10.2 9.37-18.07 13.24-17.93 8.8-6.67 8.13-137.5 8.32-63.8.1-118.1-.2-120.67-.64zM307 437.66c18.45-6.52 32.03-18.45 40.56-35.63 6.22-12.54 5.9-3.15 5.93-179.56 0-159.8-.02-161.08-2.07-168.5-5.22-18.85-18.07-33.87-36.43-42.6-15.38-7.32-6.8-6.88-136-6.88-108.04 0-116.45.1-122.5 1.76-20.28 5.55-37.17 19-45.52 36.24-6.85 14.15-6.45 3.04-6.47 180.53 0 178.76-.53 165.2 7.05 180.7C19.9 420.8 36.3 433.86 55.82 439c6.87 1.82 12.26 1.9 125.18 1.7l118-.2 8-2.84zM109.5 380.3c-27.16-4.55-48.07-31-45.52-57.6 1.24-12.97 5.75-22.74 15.05-32.6 23.48-24.9 63.73-22.03 83.35 5.9 7.4 10.55 9.64 17.94 9.54 31.5-.07 8.96-.5 12.1-2.4 17-9.6 24.88-34.94 40-60.02 35.8zm25-12.2c24.54-9.53 35.1-38.4 22.82-62.48-2.7-5.28-10.28-13.23-15.57-16.33-18.3-10.74-43.04-7.36-56.67 7.73-8.47 9.37-12.84 24.17-10.8 36.54 2.94 17.68 15 31.2 32.22 36.12 6.58 1.87 21.17 1.04 28-1.6zm-25.5-3.46c-23.93-6.23-36.42-31.88-26.23-53.86 3.82-8.25 9.77-14.2 18.5-18.52 7.15-3.54 8.2-3.77 16.68-3.74 11.7.05 18.4 2.58 26.38 9.97 12.92 11.95 16.45 29.27 9.14 44.82-7.6 16.16-27.55 25.73-44.47 21.32zm25.27-11.38c8.27-3.84 11.33-18.27 3.88-18.27-3.32 0-18.54 10.95-19.3 13.9-1.7 6.38 6.23 8.63 15.42 4.36zm-19.6.07c3.6-3.26 2.34-5.9-5.72-11.85-6.3-4.67-11.2-7.5-12.94-7.5-.2 0-1.06.7-1.93 1.58-4.34 4.33.67 15.2 8.43 18.3 3.96 1.58 10.14 1.3 12.17-.53zm11.64-14.37c8.12-4.94 8.12-19 0-23.95-4.42-2.7-11.97-2.7-16.33 0-3.3 2.05-6.47 8-6.47 12.2 0 3.95 3.92 10.5 7.3 12.16 4.5 2.23 11.5 2.05 15.5-.4zm-13.72-5.56c-7.46-6.27-.45-18.03 8.8-14.8 1.45.52 3.5 2.54 4.55 4.5 1.7 3.17 1.78 3.98.6 6.8-1.36 3.3-5.45 6.1-8.9 6.1-1.1 0-3.36-1.18-5.05-2.6zm31.67-.95c6.5-4.55 3.8-20.08-4.17-23.86-5.1-2.43-8.58-1.3-8.57 2.74.03 3.1 4.1 17.1 6.06 20.75 1.22 2.3 3.73 2.42 6.7.35zm-46.68-1.6c2.24-4.18 5.93-16.27 5.93-19.43 0-7.4-10.4-5.37-14.66 2.88-2.22 4.28-2.23 12.67-.03 16.03 2.23 3.4 7.08 3.7 8.77.53zm30.7-21.5c3.03-.8 3.9-4.7 1.76-7.95-4.88-7.45-21.63-6.96-25.3.74-1.5 3.18-.7 5.7 2.16 6.87 2.43 1 18.02 1.25 21.36.35zm99.5 70.12c-9.47-2.05-19.1-7.62-26.55-15.33-18.83-19.5-20.8-47.86-4.8-69.15 20.06-26.67 57.2-29.5 81.35-6.18 22.53 21.74 21.9 56.05-1.4 77.62-13.08 12.12-30.87 16.9-48.6 13.03zm22.62-9.54c22.15-5.1 37.13-27.62 33.3-50.03-3.8-22.1-21.34-36.9-43.7-36.9-12.9 0-24.3 4.78-32.7 13.76-22.4 23.95-11.2 64.18 20.22 72.62 6.43 1.73 16.67 1.97 22.87.55zm-19.28-5.06c-6.2-1.45-15.3-6.8-19.7-11.6-2.25-2.43-5.5-7.4-7.2-11.06-2.66-5.68-3.1-7.8-3.13-14.67-.03-9.74 1.97-16.15 7.18-23.02 11.73-15.47 30.87-20.55 47.74-12.65 24.68 11.55 30.6 43.1 11.67 62.04-9.8 9.78-23.8 13.98-36.58 10.97zm20.66-9.94c8.16-2.27 14.18-11.02 11.82-17.2-1.15-3-3.72-3.55-7.4-1.58-4.5 2.4-15.5 10.9-16.1 12.4-.8 2.14 1.05 5.36 3.72 6.43 2.9 1.17 3.55 1.17 7.96-.05zm-15.24-1.77c3.7-3 2.05-6.04-6.76-12.34-4.28-3.06-8.75-5.86-9.92-6.23-5.06-1.6-7.2 6.7-3.34 12.93 3.94 6.37 15.2 9.53 20.02 5.63zm10.7-13.85c3.85-1.82 7.2-7.68 7.24-12.66.03-4.23-2.9-9.64-6.4-11.77-4.2-2.56-12.07-2.5-16.4.14-8.15 5-8.02 19.07.24 24.1 3.84 2.34 10.62 2.44 15.3.2zm-11.85-4.8c-7.97-4.34-4.5-16.5 4.68-16.5 7.96 0 11.5 10.2 5.34 15.4-3.44 2.9-6.17 3.2-10.03 1.1zm31.65-2.97c4.4-4.4 2.93-16.1-2.67-21.22-3.62-3.3-10.35-3.57-11.34-.43-.62 1.93 4.85 20.6 6.7 22.87 1.6 1.97 4.63 1.46 7.3-1.2zm-44.87-8.04c3.6-10.17 4.13-15 1.74-15.9-3.16-1.22-6.33-.56-9.27 1.9-8.57 7.23-7.62 24.16 1.3 23.28 2.87-.28 3.23-.8 6.23-9.3zm27.1-14.12c3.27-.65 4.2-2.47 3.26-6.3-2.04-8.33-20.43-9.54-25.57-1.68-2.17 3.3-1.27 7.3 1.78 7.88 3.6.7 17.23.76 20.54.1zM108.85 171.95c-22-3.92-39.47-21.18-44-43.46-5.13-25.16 10.24-51.64 35.2-60.67 7.3-2.65 21.7-3.56 29.78-1.88 19.67 4.08 37.48 22 41.58 41.84 4.44 21.43-5.33 44.07-24.33 56.38-10.4 6.74-26.1 9.93-38.23 7.77zm17.77-9.98c12.12-2.3 23.62-10.12 29.6-20.12 12.16-20.32 5.88-48-13.7-60.35-7.72-4.9-15.53-6.75-26.6-6.34-9.26.33-10.7.67-17.65 4.1-17.35 8.58-27.1 27.4-23.96 46.26 4.14 25.05 27.3 41.2 52.3 36.45zm-16.93-5.5c-7.77-1.7-13.45-4.94-19.55-11.13-18.6-18.88-12.4-50.66 12.16-62.17 5-2.35 6.96-2.68 15.74-2.68 9.3 0 10.5.22 16.66 3.25 8.5 4.18 16.76 12.88 19.9 20.95 3.42 8.7 3.3 20.83-.3 28.52-3.42 7.4-7.1 12.15-12.58 16.34-8.82 6.73-20.96 9.35-32.03 6.9zm4.6-11.04c2.86-2 2.85-5.53-.02-8.15-4.3-3.94-15.9-11.3-17.78-11.3-2.3 0-3.97 2.85-3.97 6.8 0 9 14.75 17.57 21.78 12.65zm20.3-.72c6.5-4.36 9.42-11.07 6.9-15.78-1.8-3.38-5.67-2.28-14.56 4.13-7.2 5.2-8.4 6.5-8.4 8.95 0 3.6 2.13 4.92 8.1 4.96 3.17.02 5.65-.68 7.98-2.25zm-9.13-13.54c8.6-4.62 9.46-17.78 1.55-24-5.8-4.57-16.27-3.1-20.52 2.85-8.93 12.55 5.34 28.46 18.96 21.16zm-9.94-3.88c-6.2-2.26-8.1-10.28-3.55-14.84 4.98-4.97 13.8-1.9 15.17 5.28.53 2.77.12 3.72-2.9 6.75-3.36 3.36-5.4 4.02-8.72 2.8zm28.75-2.83c4.8-3.37 4.9-13.94.17-20.57-2.33-3.27-7.08-5.32-10.4-4.5-3.37.86-3.34 4.6.1 15.1 3.7 11.24 5.62 13.13 10.13 9.97zm-46.4-2.2c2.3-4.55 5.86-17.73 5.5-20.34-.3-2-1-2.47-4.14-2.73-3.17-.26-4.3.23-7.15 3.06-7.7 7.7-6.44 22.76 1.92 22.76 1.7 0 2.92-.88 3.87-2.76zm32.96-23.4c1.6-2.54-.93-7.46-4.8-9.3-4.72-2.24-13.24-2.02-17.28.44-3.9 2.38-5.7 6.24-4.17 9.08.97 1.8 2 1.95 13.14 1.7 9.88-.24 12.27-.6 13.1-1.93zM231.27 172c-12.64-2.27-22.86-7.94-31.57-17.48-23.65-25.92-16.38-66.83 14.82-83.46 11.12-5.93 26.93-7.8 38.97-4.6 20.97 5.6 37.13 23.73 40.2 45.14 3.55 24.73-11.93 49.6-36.1 57.98-7.5 2.6-19.34 3.7-26.34 2.43zm24.46-12c24.6-9.2 35.56-37.58 23.8-61.6-3.83-7.8-12-15.56-20.76-19.7-6.44-3.06-7.33-3.2-18.76-3.2-11.4 0-12.33.14-18.72 3.17-22.94 10.87-32.1 36.86-21.14 60 5.16 10.93 17.86 20.64 30.47 23.3 6.48 1.37 18.8.4 25.12-1.96zm-22.57-3.04c-15.5-2.67-28.34-15.4-31.64-31.4-3.38-16.42 5.72-33.88 21.82-41.8 6.16-3.04 7.36-3.27 16.66-3.27 8.78 0 10.73.32 15.74 2.67 19.1 8.94 28.22 31.48 20.36 50.27-3.9 9.36-13.67 18.6-23.08 21.88-5.55 1.92-14.08 2.63-19.85 1.64zm3.13-11.53c4.34-3.04 2.95-5.93-6-12.5-8.98-6.56-12-7.82-14.3-5.93-2.53 2.1-1.9 9.34 1.14 12.95 5.26 6.25 14.35 8.85 19.16 5.48zm19.15.1c9.1-4.7 12.26-18.54 4.24-18.54-3.03 0-18.44 10.64-19.53 13.5-.72 1.85.7 5.06 2.6 5.82 2.64 1.07 9.98.6 12.7-.8zm-7.83-14.8c9.1-6.08 8.9-19.56-.36-24.4-4.54-2.38-12.05-2.24-15.5.3-5.9 4.32-7.86 12.87-4.4 19.3 3.65 6.83 13.66 9.2 20.26 4.8zm-13.17-5.52c-4.44-3.95-4.68-9.3-.57-12.84 6.07-5.23 14.64-1.48 14.64 6.4 0 4.54-2.9 7.85-7.67 8.8-2.5.5-3.7.06-6.4-2.35zm33.32-2.4c4.55-5.27.55-20-6.2-22.8-3.7-1.53-7.7-.65-8.52 1.88-.74 2.33 4.96 20.45 7.1 22.6 1.9 1.9 5.14 1.17 7.62-1.7zm-45.54-7.3c1.77-4.96 3.12-10.6 3-12.5-.17-3.06-.57-3.56-3.06-3.84-7.05-.8-12.42 4.87-13.27 14.06-.4 4.2-.07 5.94 1.6 8.58 1.75 2.8 2.58 3.26 5.3 3 3.1-.3 3.36-.68 6.44-9.3zm30.1-16.26c1.42-2.83-.13-6.56-3.74-9-6.4-4.3-19.34-2.33-21.92 3.34-2.92 6.4-1.15 7.4 13.02 7.4 10.2 0 11.9-.23 12.65-1.74z"/><path fill="#878c9b" d="M59.13 444.4c-26-4.7-47.3-23.2-56.32-48.9l-2.8-8V224C0 90.84.25 59.45 1.34 55c.73-3.04 3.34-9.64 5.8-14.67C16.48 21.15 34.2 7.13 55.64 2 63.75.06 67.45 0 179 0c110.13 0 115.34.08 123 1.93 9.97 2.4 16.13 5.07 24.7 10.72 9.96 6.57 19 16.9 24.3 27.75 8.05 16.44 7.6 4.73 7.28 186.1l-.28 161-2.72 8c-7 20.52-22.43 36.8-42.7 45.04-13.38 5.43-13.98 5.45-134.46 5.36-91.37-.08-112.52-.35-119-1.5zm247.37-6.26c19.55-7.04 33.22-18.9 41.1-35.65 6.26-13.32 5.9-2.44 5.9-179.17 0-111.92-.33-162.87-1.08-166.54-.6-2.93-3.1-9.52-5.58-14.67-9.52-19.84-29.06-33.8-51.94-37.1-4.25-.62-48.88-1-116.02-1.02-93.7 0-110.36.2-117.93 1.52-22.03 3.84-40.22 17.06-49.5 35.97C4 56.67 4.5 43.34 4.5 222.53c0 156.04.06 161.37 1.93 168.7 5.66 22.1 22.53 39.56 45.07 46.6 3.57 1.13 7.62 2.24 9 2.47 1.37.25 55.82.38 121 .3l118.5-.1 6.5-2.36zm-197-57.84c-27.16-4.55-48.07-31-45.52-57.6 1.24-12.97 5.75-22.74 15.05-32.6 23.48-24.9 63.73-22.03 83.35 5.9 7.4 10.55 9.64 17.94 9.54 31.5-.07 8.96-.5 12.1-2.4 17-9.6 24.88-34.94 40-60.02 35.8zm25-12.2c24.54-9.53 35.1-38.4 22.82-62.48-2.7-5.28-10.28-13.23-15.57-16.33-18.3-10.74-43.04-7.36-56.67 7.73-8.47 9.37-12.84 24.17-10.8 36.54 2.94 17.68 15 31.2 32.22 36.12 6.58 1.87 21.17 1.04 28-1.6zm-25.5-3.46c-23.93-6.23-36.42-31.88-26.23-53.86 3.82-8.25 9.77-14.2 18.5-18.52 7.15-3.54 8.2-3.77 16.68-3.74 11.7.05 18.4 2.58 26.38 9.97 12.92 11.95 16.45 29.27 9.14 44.82-7.6 16.16-27.55 25.73-44.47 21.32zm25.27-11.38c8.27-3.84 11.33-18.27 3.88-18.27-3.32 0-18.54 10.95-19.3 13.9-1.7 6.38 6.23 8.63 15.42 4.36zm-19.6.07c3.6-3.26 2.34-5.9-5.72-11.85-6.3-4.67-11.2-7.5-12.94-7.5-.2 0-1.06.7-1.93 1.58-4.34 4.33.67 15.2 8.43 18.3 3.96 1.58 10.14 1.3 12.17-.53zm11.64-14.37c8.12-4.94 8.12-19 0-23.95-4.42-2.7-11.97-2.7-16.33 0-3.3 2.05-6.47 8-6.47 12.2 0 3.95 3.92 10.5 7.3 12.16 4.5 2.23 11.5 2.05 15.5-.4zm-13.72-5.56c-7.46-6.27-.45-18.03 8.8-14.8 1.45.52 3.5 2.54 4.55 4.5 1.7 3.17 1.78 3.98.6 6.8-1.36 3.3-5.45 6.1-8.9 6.1-1.1 0-3.36-1.18-5.05-2.6zm31.67-.95c6.5-4.55 3.8-20.08-4.17-23.86-5.1-2.43-8.58-1.3-8.57 2.74.03 3.1 4.1 17.1 6.06 20.75 1.22 2.3 3.73 2.42 6.7.35zm-46.68-1.6c2.24-4.18 5.93-16.27 5.93-19.43 0-7.4-10.4-5.37-14.66 2.88-2.22 4.28-2.23 12.67-.03 16.03 2.23 3.4 7.08 3.7 8.77.53zm30.7-21.5c3.03-.8 3.9-4.7 1.76-7.95-4.88-7.45-21.63-6.96-25.3.74-1.5 3.18-.7 5.7 2.16 6.87 2.43 1 18.02 1.25 21.36.35zm99.5 70.12c-9.47-2.05-19.1-7.62-26.55-15.33-18.83-19.5-20.8-47.86-4.8-69.15 20.06-26.67 57.2-29.5 81.35-6.18 22.53 21.74 21.9 56.05-1.4 77.62-13.08 12.12-30.87 16.9-48.6 13.03zm22.62-9.54c22.15-5.1 37.13-27.62 33.3-50.03-3.8-22.1-21.34-36.9-43.7-36.9-12.9 0-24.3 4.78-32.7 13.76-22.4 23.95-11.2 64.18 20.22 72.62 6.43 1.73 16.67 1.97 22.87.55zm-19.28-5.06c-6.2-1.45-15.3-6.8-19.7-11.6-2.25-2.43-5.5-7.4-7.2-11.06-2.66-5.68-3.1-7.8-3.13-14.67-.03-9.74 1.97-16.15 7.18-23.02 11.73-15.47 30.87-20.55 47.74-12.65 24.68 11.55 30.6 43.1 11.67 62.04-9.8 9.78-23.8 13.98-36.58 10.97zm20.66-9.94c8.16-2.27 14.18-11.02 11.82-17.2-1.15-3-3.72-3.55-7.4-1.58-4.5 2.4-15.5 10.9-16.1 12.4-.8 2.14 1.05 5.36 3.72 6.43 2.9 1.17 3.55 1.17 7.96-.05zm-15.24-1.77c3.7-3 2.05-6.04-6.76-12.34-4.28-3.06-8.75-5.86-9.92-6.23-5.06-1.6-7.2 6.7-3.34 12.93 3.94 6.37 15.2 9.53 20.02 5.63zm10.7-13.85c3.85-1.82 7.2-7.68 7.24-12.66.03-4.23-2.9-9.64-6.4-11.77-4.2-2.56-12.07-2.5-16.4.14-8.15 5-8.02 19.07.24 24.1 3.84 2.34 10.62 2.44 15.3.2zm-11.85-4.8c-7.97-4.34-4.5-16.5 4.68-16.5 7.96 0 11.5 10.2 5.34 15.4-3.44 2.9-6.17 3.2-10.03 1.1zm31.65-2.97c4.4-4.4 2.93-16.1-2.67-21.22-3.62-3.3-10.35-3.57-11.34-.43-.62 1.93 4.85 20.6 6.7 22.87 1.6 1.97 4.63 1.46 7.3-1.2zm-44.87-8.04c3.6-10.17 4.13-15 1.74-15.9-3.16-1.22-6.33-.56-9.27 1.9-8.57 7.23-7.62 24.16 1.3 23.28 2.87-.28 3.23-.8 6.23-9.3zm27.1-14.12c3.27-.65 4.2-2.47 3.26-6.3-2.04-8.33-20.43-9.54-25.57-1.68-2.17 3.3-1.27 7.3 1.78 7.88 3.6.7 17.23.76 20.54.1zM108.85 171.95c-22-3.92-39.47-21.18-44-43.46-5.13-25.16 10.24-51.64 35.2-60.67 7.3-2.65 21.7-3.56 29.78-1.88 19.67 4.08 37.48 22 41.58 41.84 4.44 21.43-5.33 44.07-24.33 56.38-10.4 6.74-26.1 9.93-38.23 7.77zm17.77-9.98c12.12-2.3 23.62-10.12 29.6-20.12 12.16-20.32 5.88-48-13.7-60.35-7.72-4.9-15.53-6.75-26.6-6.34-9.26.33-10.7.67-17.65 4.1-17.35 8.58-27.1 27.4-23.96 46.26 4.14 25.05 27.3 41.2 52.3 36.45zm-16.93-5.5c-7.77-1.7-13.45-4.94-19.55-11.13-18.6-18.88-12.4-50.66 12.16-62.17 5-2.35 6.96-2.68 15.74-2.68 9.3 0 10.5.22 16.66 3.25 8.5 4.18 16.76 12.88 19.9 20.95 3.42 8.7 3.3 20.83-.3 28.52-3.42 7.4-7.1 12.15-12.58 16.34-8.82 6.73-20.96 9.35-32.03 6.9zm4.6-11.04c2.86-2 2.85-5.53-.02-8.15-4.3-3.94-15.9-11.3-17.78-11.3-2.3 0-3.97 2.85-3.97 6.8 0 9 14.75 17.57 21.78 12.65zm20.3-.72c6.5-4.36 9.42-11.07 6.9-15.78-1.8-3.38-5.67-2.28-14.56 4.13-7.2 5.2-8.4 6.5-8.4 8.95 0 3.6 2.13 4.92 8.1 4.96 3.17.02 5.65-.68 7.98-2.25zm-9.13-13.54c8.6-4.62 9.46-17.78 1.55-24-5.8-4.57-16.27-3.1-20.52 2.85-8.93 12.55 5.34 28.46 18.96 21.16zm-9.94-3.88c-6.2-2.26-8.1-10.28-3.55-14.84 4.98-4.97 13.8-1.9 15.17 5.28.53 2.77.12 3.72-2.9 6.75-3.36 3.36-5.4 4.02-8.72 2.8zm28.75-2.83c4.8-3.37 4.9-13.94.17-20.57-2.33-3.27-7.08-5.32-10.4-4.5-3.37.86-3.34 4.6.1 15.1 3.7 11.24 5.62 13.13 10.13 9.97zm-46.4-2.2c2.3-4.55 5.86-17.73 5.5-20.34-.3-2-1-2.47-4.14-2.73-3.17-.26-4.3.23-7.15 3.06-7.7 7.7-6.44 22.76 1.92 22.76 1.7 0 2.92-.88 3.87-2.76zm32.96-23.4c1.6-2.54-.93-7.46-4.8-9.3-4.72-2.24-13.24-2.02-17.28.44-3.9 2.38-5.7 6.24-4.17 9.08.97 1.8 2 1.95 13.14 1.7 9.88-.24 12.27-.6 13.1-1.93zM231.27 172c-12.64-2.27-22.86-7.94-31.57-17.48-23.65-25.92-16.38-66.83 14.82-83.46 11.12-5.93 26.93-7.8 38.97-4.6 20.97 5.6 37.13 23.73 40.2 45.14 3.55 24.73-11.93 49.6-36.1 57.98-7.5 2.6-19.34 3.7-26.34 2.43zm24.46-12c24.6-9.2 35.56-37.58 23.8-61.6-3.83-7.8-12-15.56-20.76-19.7-6.44-3.06-7.33-3.2-18.76-3.2-11.4 0-12.33.14-18.72 3.17-22.94 10.87-32.1 36.86-21.14 60 5.16 10.93 17.86 20.64 30.47 23.3 6.48 1.37 18.8.4 25.12-1.96zm-22.57-3.04c-15.5-2.67-28.34-15.4-31.64-31.4-3.38-16.42 5.72-33.88 21.82-41.8 6.16-3.04 7.36-3.27 16.66-3.27 8.78 0 10.73.32 15.74 2.67 19.1 8.94 28.22 31.48 20.36 50.27-3.9 9.36-13.67 18.6-23.08 21.88-5.55 1.92-14.08 2.63-19.85 1.64zm3.13-11.53c4.34-3.04 2.95-5.93-6-12.5-8.98-6.56-12-7.82-14.3-5.93-2.53 2.1-1.9 9.34 1.14 12.95 5.26 6.25 14.35 8.85 19.16 5.48zm19.15.1c9.1-4.7 12.26-18.54 4.24-18.54-3.03 0-18.44 10.64-19.53 13.5-.72 1.85.7 5.06 2.6 5.82 2.64 1.07 9.98.6 12.7-.8zm-7.83-14.8c9.1-6.08 8.9-19.56-.36-24.4-4.54-2.38-12.05-2.24-15.5.3-5.9 4.32-7.86 12.87-4.4 19.3 3.65 6.83 13.66 9.2 20.26 4.8zm-13.17-5.52c-4.44-3.95-4.68-9.3-.57-12.84 6.07-5.23 14.64-1.48 14.64 6.4 0 4.54-2.9 7.85-7.67 8.8-2.5.5-3.7.06-6.4-2.35zm33.32-2.4c4.55-5.27.55-20-6.2-22.8-3.7-1.53-7.7-.65-8.52 1.88-.74 2.33 4.96 20.45 7.1 22.6 1.9 1.9 5.14 1.17 7.62-1.7zm-45.54-7.3c1.77-4.96 3.12-10.6 3-12.5-.17-3.06-.57-3.56-3.06-3.84-7.05-.8-12.42 4.87-13.27 14.06-.4 4.2-.07 5.94 1.6 8.58 1.75 2.8 2.58 3.26 5.3 3 3.1-.3 3.36-.68 6.44-9.3zm30.1-16.26c1.42-2.83-.13-6.56-3.74-9-6.4-4.3-19.34-2.33-21.92 3.34-2.92 6.4-1.15 7.4 13.02 7.4 10.2 0 11.9-.23 12.65-1.74z"/><path fill="#7f7f7f" d="M59.13 444.4c-26-4.7-47.3-23.2-56.32-48.9l-2.8-8V224C0 90.84.25 59.45 1.34 55c.73-3.04 3.34-9.64 5.8-14.67C16.48 21.15 34.2 7.13 55.64 2 63.75.06 67.45 0 179 0c110.13 0 115.34.08 123 1.93 9.97 2.4 16.13 5.07 24.7 10.72 9.96 6.57 19 16.9 24.3 27.75 8.05 16.44 7.6 4.73 7.28 186.1l-.28 161-2.72 8c-7 20.52-22.43 36.8-42.7 45.04-13.38 5.43-13.98 5.45-134.46 5.36-91.37-.08-112.52-.35-119-1.5zm247.37-6.26c19.55-7.04 33.22-18.9 41.1-35.65 6.26-13.32 5.9-2.44 5.9-179.17 0-111.92-.33-162.87-1.08-166.54-.6-2.93-3.1-9.52-5.58-14.67-9.52-19.84-29.06-33.8-51.94-37.1-4.25-.62-48.88-1-116.02-1.02-93.7 0-110.36.2-117.93 1.52-22.03 3.84-40.22 17.06-49.5 35.97C4 56.67 4.5 43.34 4.5 222.53c0 156.04.06 161.37 1.93 168.7 5.66 22.1 22.53 39.56 45.07 46.6 3.57 1.13 7.62 2.24 9 2.47 1.37.25 55.82.38 121 .3l118.5-.1 6.5-2.36zm-205.9-60.67c-22.23-7.75-36.1-27.14-36.1-50.48 0-18.72 8.87-35.13 24.43-45.2 8.64-5.6 17.12-8 28.57-8.1 15.7-.1 28.5 4.94 38.92 15.37 10.13 10.12 15.32 22.97 15.32 37.92 0 22.6-12.4 40.96-33.57 49.75-5.18 2.16-8.1 2.63-18.17 2.94-10.87.32-12.7.1-19.4-2.23zm29.4-7.67c15.88-3.97 29.75-19.5 32.52-36.43 4.7-28.66-22-55.14-50.9-50.48C89.65 286.42 73.5 305.1 73.5 327c0 29.32 27.4 50.08 56.5 42.8zm-25.28-6.73c-14.52-5.38-24-18.17-25-33.74-1.16-17.83 9.93-34.13 26.5-38.95 8.3-2.4 21.2-1.6 28.46 1.78 7.93 3.7 14.2 9.85 18.07 17.68 3.04 6.2 3.25 7.27 3.25 17.15 0 9.86-.2 10.95-3.25 17.13-3.87 7.85-10.16 14-18.07 17.65-7.77 3.6-22.1 4.2-29.96 1.3zm8.3-8.53c1.92-.8 3.48-1.96 3.48-2.6 0-.62 1.38.03 3.08 1.46 3.87 3.26 8.18 3.34 14 .26 7.77-4.1 11.47-13.2 7.26-17.84-1.55-1.72-1.52-1.83.42-1.83 3.42 0 7.24-5.5 7.24-10.43 0-8.9-7.85-17.84-14.24-16.24-1.45.36-2.92 1.57-3.27 2.68-.64 2 3.33 15.64 6.17 21.25 1.26 2.5 1.22 2.84-.4 3.4-2.43.88-15.35 10.18-17.56 12.65l-1.78 2-1.46-2.07C114.04 344.5 99 334 97 334c-1.32 0-1.25-.44.4-2.76 1.1-1.52 3.2-6.75 4.7-11.64 3.1-10.13 2.7-11.94-2.75-12.4-11.23-.98-17.76 19.9-8 25.52 2.72 1.56 2.82 1.83 1.66 4.7-1.66 4.16-.36 8.34 3.84 12.42 2.87 2.78 9.06 5.94 11.94 6.1.43.03 2.34-.6 4.25-1.4zm11.5-14.8c2.54-1.3 5.25-3.67 6.34-5.58 7.1-12.35-6.45-26.76-19.1-20.3-10.87 5.54-11.02 20.15-.25 25.85 5.4 2.86 7.45 2.86 13.02.04zm-12.95-7.4c-5.48-6.96 1.1-16.1 9.58-13.3 3.96 1.3 5.35 3.5 5.35 8.38 0 5.03-2.82 7.57-8.43 7.57-3.6 0-4.82-.5-6.5-2.65zm18-23.4c2.88-1.53 2.48-6.06-.82-9.18-6.04-5.7-16.57-5.6-22.4.23-3.2 3.17-3.63 6.07-1.28 8.4 1.23 1.24 3.86 1.6 12.07 1.6 5.77 0 11.36-.48 12.43-1.05zm95.62 69.55c-16.92-4.66-31.62-18.8-36.7-35.3-2.53-8.13-2.72-23.4-.4-31.28 5.22-17.8 18.76-31.2 36.9-36.52 8.47-2.48 22.95-2.27 31.57.47 17.02 5.4 30.87 19.95 35.48 37.25 2.15 8.08 1.86 21.33-.65 29.5-5.4 17.6-19.44 31.23-37.03 35.9-6.63 1.78-22.68 1.75-29.18-.03zm27.85-9.07c6.54-1.8 16.02-7.96 20.8-13.53 2.08-2.43 5.2-7.34 6.96-10.9 3-6.16 3.18-7.13 3.2-18 0-10.8-.2-11.92-3.1-18-11.95-25.22-43.5-34.42-65.66-19.18-23.16 15.93-26.7 47.52-7.6 67.7 11.45 12.13 28.38 16.57 45.4 11.9zm-26.25-6.3c-9.96-3.45-17.95-10.8-22.53-20.72-1.9-4.12-2.27-6.6-2.27-15.43 0-9.85.2-10.95 3.25-17.13 3.86-7.83 10.14-13.98 18.07-17.68 7.27-3.38 20.17-4.2 28.47-1.78 20.05 5.84 31.26 27.95 24.7 48.75-3.63 11.5-11.83 19.84-23.56 23.96-7.03 2.46-19.04 2.48-26.14.02zm9.88-9.8c3.7-3.34 2.35-5.9-6.43-12.36-4.54-3.33-9.28-6.32-10.55-6.64-2.03-.52-2.13-.77-.85-2.2.8-.9 2.84-6.05 4.55-11.44 3.7-11.62 3.28-13.7-2.74-13.7-6.58 0-12.16 7.52-12.16 16.42 0 4.66 2.6 8.98 6.03 10.08 1.82.57 1.86.8.48 2.78-2.1 3.02-1.88 5.38 1 10.27 4.58 7.84 15.54 11.42 20.68 6.77zm17.1 1.3c5.14-2.14 10.72-9 10.72-13.15 0-3.28-2.72-7.5-4.84-7.5-1 0-14.7 9.43-17.9 12.32-2.97 2.68-2.85 5.07.37 7.6 3.05 2.4 7.07 2.66 11.65.74zm-7.68-14.55c11.03-5 11.28-20.47.42-26.24-4.37-2.32-8.52-2.35-13-.1-10.88 5.46-10.73 21.3.25 26.28 5.27 2.4 7.17 2.4 12.33.06zm-12.56-7.28c-2.2-2.36-2.72-7.68-1.05-10.8.54-1.02 2.48-2.35 4.3-2.95 8.66-2.86 15.22 6.2 9.63 13.3-2.77 3.52-9.8 3.77-12.9.45zm33.83-1.17c3.1-3.32 3.76-8.7 1.7-14.1-1.9-4.95-7.55-10.54-10.67-10.54-3.3 0-5.9 1.9-5.9 4.33 0 2.82 5.53 19.4 7.1 21.28 1.74 2.1 5.3 1.66 7.77-.97zm-15.8-22.68c4.9-2.63-.1-10.82-7.9-12.92-5.3-1.43-11.57.1-15.42 3.73-3.18 3-3.68 7.58-1 9.15 2.3 1.35 21.83 1.38 24.32.05zM103 170.12c-18.62-5.35-33.7-21.35-37.54-39.8-1.67-8.1-.77-22.5 1.88-29.8 4.5-12.4 13.62-22.9 25.26-29.02 26.5-13.92 59.8-3.9 73.07 22 4.63 9.02 6.22 15.96 6.08 26.5-.34 24.1-16.35 44.35-39.95 50.5-7.56 1.97-21.26 1.8-28.8-.38zm28.4-9.03c31.98-9.96 42.05-49.95 18.5-73.5-22.02-22-58.24-15.94-72.1 12.1-3.3 6.68-3.76 8.53-4.1 16.65-.7 17.56 6.62 31.22 21.94 40.87 9.04 5.7 24.5 7.38 35.77 3.87zm-24.4-5.46C95.74 151.9 87.94 145.17 83.1 135c-2.78-5.88-3.08-7.44-3.06-16 .03-11.62 2.43-18.54 8.95-25.8 18.35-20.42 52.74-15.6 64.1 9 2.62 5.67 2.9 7.3 2.9 16.8 0 9.4-.3 11.07-2.72 16.02-4.27 8.7-8.98 13.46-17.42 17.63-6.67 3.3-8.54 3.76-16.2 4.02-5.3.18-10.2-.22-12.66-1.03zm24.78-9c1.77-.74 4.9-3.22 6.97-5.5 2.96-3.3 3.75-4.97 3.75-8 0-5.1-2.9-7.97-6.45-6.36-4.02 1.84-17.55 12.2-17.55 13.44 0 .64-1.46-.22-3.25-1.9-5.25-4.97-16-12.33-17.98-12.33-1.75 0-1.75-.13.1-2.76 1.06-1.52 3.18-6.97 4.72-12.13l2.8-9.38-2.4-1.93c-5.9-4.8-16 4.5-16 14.7 0 4.72 2.47 9.34 5.66 10.55 2.1.8 2.34 1.23 1.35 2.43-2.22 2.68-1.42 8.4 1.72 12.35 5.65 7.07 15.24 9.42 20.04 4.9 2.26-2.1 2.44-2.13 3.4-.42 1.98 3.55 7.77 4.58 13.12 2.34zm-6.12-15.4c6.74-3.97 9.4-14.3 5.16-20.04-6.92-9.34-18.92-9.44-25.14-.2-1.95 2.88-2.28 4.42-1.92 8.9.38 4.8.9 5.84 4.55 9.25 3.67 3.42 4.68 3.84 9.26 3.84 3.1 0 6.3-.7 8.1-1.76zm-13.7-6.7c-6.13-6.13-.2-15.97 8.47-14.07 3.88.85 6.07 3.95 6.07 8.56 0 7.4-9.2 10.86-14.55 5.5zm33.45-.96c7.14-7.6.13-25.24-9.7-24.4-5.78.5-6.1 2.37-2.36 13.76 4.4 13.45 7.15 15.88 12.07 10.64zm-15.83-22.63c2.8-1.5 2.48-6.14-.66-9.28-5.9-5.9-16.28-6-22.1-.2-3.85 3.86-4.2 6.77-1.08 8.96 2.62 1.83 20.66 2.23 23.85.52zm96.2 69.5c-18.4-4.96-34.1-20.8-38.2-38.5-1.58-6.9-1.3-21.84.54-28.03 6.44-21.67 24.5-36.44 47.12-38.54 25.7-2.4 50.36 14.62 56.75 39.15 1.96 7.53 1.96 20.4 0 27.9-4.77 18.32-19.75 33.24-38.1 37.97-7.5 1.93-21.02 1.95-28.1.05zm27.96-9.52c13.6-4.47 24.84-15.78 28.87-29.05 1.7-5.6 2.05-8.83 1.72-15.88-.37-7.7-.9-9.8-4.13-16.32-10.98-22.2-36.87-31.54-59.15-21.35-6.15 2.82-15.48 11.06-19.27 17.02-12.66 19.95-6.38 47.74 13.72 60.63 10.95 7.03 25.97 8.97 38.23 4.95zm-24.73-5.3c-11.3-3.74-19.3-10.45-24.1-20.2-2.64-5.42-2.9-6.87-2.9-16.46 0-9.87.2-10.94 3.27-17.18 14.3-29.02 56.33-28.4 70.06 1 2.3 4.95 2.65 6.98 2.66 15.7 0 9.1-.27 10.55-3.1 16.5-3.94 8.27-10.16 14.48-18.38 18.34-5.36 2.52-7.97 3.1-15 3.34-5.17.17-10.1-.23-12.52-1.04zm24.27-9.2c6.7-2.8 11.23-8.56 11.23-14.27 0-1.6-.7-3.5-1.55-4.22-1.37-1.13-1.17-1.45 1.53-2.6 3.07-1.28 6.03-6.24 6-10.07 0-7.62-6.57-16.28-12.3-16.28-3.8 0-5.68 1.5-5.68 4.5 0 2.55 5.54 19.23 6.95 20.93.73.87.1 1.65-2.22 2.8-5.98 2.97-17.22 12.2-17.53 14.4-.38 2.6 4.03 6.36 7.47 6.36 1.32 0 4.06-.7 6.1-1.56zm-16.6-1.1c2.48-2.24 2.3-5.57-.42-8.02-5-4.46-15.63-11.3-17.6-11.3-3.03 0-5.48 4.2-4.65 7.97.8 3.66 4.76 8.6 8.96 11.15 3.85 2.35 11.22 2.47 13.7.2zm13.02-16.18c3.66-3.42 4.15-4.43 4.5-9.25.32-4.2-.04-6.14-1.64-8.67-5.72-9.1-17.3-9.68-24.44-1.2-2.1 2.48-2.62 4.16-2.6 8.28 0 9.12 5.6 14.67 14.77 14.68 4.74 0 5.7-.38 9.4-3.83zm-16.03-4.48c-2.58-2.74-2.9-8.22-.64-11.42 2.07-2.96 7.4-3.86 11.23-1.9 3.34 1.74 4.24 3.4 4.24 7.76 0 6.97-10 10.72-14.83 5.57zm-15.24-.6c2.34-2.35 8.28-20.37 7.44-22.57-1.08-2.8-4.14-3.74-8-2.47-5.25 1.73-9.37 8.66-9.37 15.73 0 4.6.42 5.8 2.92 8.3 3.44 3.44 4.42 3.58 7 1zm32.85-23.64c3.12-2.2 2.76-5.1-1.1-8.95-5.72-5.73-15.9-5.73-22.08 0-3.4 3.16-3.6 8.17-.35 9.48 4 1.6 21.02 1.22 23.53-.53z"/><path fill="#4b526a" d="M54.9 443.1c-26.38-6.5-47.32-27.23-52.85-52.33C.6 384.22.47 367.04.72 219.5L1 55.5l2.7-7.3C12.3 25 30.8 8.5 55.28 2.2 61.47.62 71.32.5 179 .5 310.32.5 301.68 0 318 7.95c14.54 7.07 26.3 18.67 33.02 32.54 6.85 14.16 6.45 2.84 6.47 182.53 0 180.75.52 167.1-6.93 182.46-7.27 14.97-17.75 25.13-33.57 32.53-15.58 7.3-9 6.96-138.7 6.88-107.18-.06-116.86-.2-123.4-1.8zm248-3.47c23.58-7.13 40.42-22.88 48.28-45.14l2.82-8 .28-160c.3-179.64.73-168.6-7.04-184.5-3.3-6.78-5.9-10.26-12.7-17.1-7.1-7.12-10.16-9.38-18.04-13.27-16.2-8-9.25-7.6-137.3-7.63C51.36 3.98 58.4 3.6 42 11.47c-16.28 7.8-29.4 22.66-35.24 39.9L4 59.48v163c0 182.14-.6 166.38 7 181.48 9.6 19.1 29.14 33.23 51.07 36.96 2.7.46 56.68.76 119.93.66 107.14-.17 115.4-.3 120.9-1.97zm-202.3-62.16c-22.23-7.75-36.1-27.14-36.1-50.48 0-18.72 8.87-35.13 24.43-45.2 8.64-5.6 17.12-8 28.57-8.1 15.7-.1 28.5 4.94 38.92 15.37 10.13 10.12 15.32 22.97 15.32 37.92 0 22.6-12.4 40.96-33.57 49.75-5.18 2.16-8.1 2.63-18.17 2.94-10.87.32-12.7.1-19.4-2.23zm29.4-7.67c15.88-3.97 29.75-19.5 32.52-36.43 4.7-28.66-22-55.14-50.9-50.48C89.65 286.42 73.5 305.1 73.5 327c0 29.32 27.4 50.08 56.5 42.8zm-25.28-6.73c-14.52-5.38-24-18.17-25-33.74-1.16-17.83 9.93-34.13 26.5-38.95 8.3-2.4 21.2-1.6 28.46 1.78 7.93 3.7 14.2 9.85 18.07 17.68 3.04 6.2 3.25 7.27 3.25 17.15 0 9.86-.2 10.95-3.25 17.13-3.87 7.85-10.16 14-18.07 17.65-7.77 3.6-22.1 4.2-29.96 1.3zm8.3-8.53c1.92-.8 3.48-1.96 3.48-2.6 0-.62 1.38.03 3.08 1.46 3.87 3.26 8.18 3.34 14 .26 7.77-4.1 11.47-13.2 7.26-17.84-1.55-1.72-1.52-1.83.42-1.83 3.42 0 7.24-5.5 7.24-10.43 0-8.9-7.85-17.84-14.24-16.24-1.45.36-2.92 1.57-3.27 2.68-.64 2 3.33 15.64 6.17 21.25 1.26 2.5 1.22 2.84-.4 3.4-2.43.88-15.35 10.18-17.56 12.65l-1.78 2-1.46-2.07C114.04 344.5 99 334 97 334c-1.32 0-1.25-.44.4-2.76 1.1-1.52 3.2-6.75 4.7-11.64 3.1-10.13 2.7-11.94-2.75-12.4-11.23-.98-17.76 19.9-8 25.52 2.72 1.56 2.82 1.83 1.66 4.7-1.66 4.16-.36 8.34 3.84 12.42 2.87 2.78 9.06 5.94 11.94 6.1.43.03 2.34-.6 4.25-1.4zm11.5-14.8c2.54-1.3 5.25-3.67 6.34-5.58 7.1-12.35-6.45-26.76-19.1-20.3-10.87 5.54-11.02 20.15-.25 25.85 5.4 2.86 7.45 2.86 13.02.04zm-12.95-7.4c-5.48-6.96 1.1-16.1 9.58-13.3 3.96 1.3 5.35 3.5 5.35 8.38 0 5.03-2.82 7.57-8.43 7.57-3.6 0-4.82-.5-6.5-2.65zm18-23.4c2.88-1.53 2.48-6.06-.82-9.18-6.04-5.7-16.57-5.6-22.4.23-3.2 3.17-3.63 6.07-1.28 8.4 1.23 1.24 3.86 1.6 12.07 1.6 5.77 0 11.36-.48 12.43-1.05zm95.62 69.55c-16.92-4.66-31.62-18.8-36.7-35.3-2.53-8.13-2.72-23.4-.4-31.28 5.22-17.8 18.76-31.2 36.9-36.52 8.47-2.48 22.95-2.27 31.57.47 17.02 5.4 30.87 19.95 35.48 37.25 2.15 8.08 1.86 21.33-.65 29.5-5.4 17.6-19.44 31.23-37.03 35.9-6.63 1.78-22.68 1.75-29.18-.03zm27.85-9.07c6.54-1.8 16.02-7.96 20.8-13.53 2.08-2.43 5.2-7.34 6.96-10.9 3-6.16 3.18-7.13 3.2-18 0-10.8-.2-11.92-3.1-18-11.95-25.22-43.5-34.42-65.66-19.18-23.16 15.93-26.7 47.52-7.6 67.7 11.45 12.13 28.38 16.57 45.4 11.9zm-26.25-6.3c-9.96-3.45-17.95-10.8-22.53-20.72-1.9-4.12-2.27-6.6-2.27-15.43 0-9.85.2-10.95 3.25-17.13 3.86-7.83 10.14-13.98 18.07-17.68 7.27-3.38 20.17-4.2 28.47-1.78 20.05 5.84 31.26 27.95 24.7 48.75-3.63 11.5-11.83 19.84-23.56 23.96-7.03 2.46-19.04 2.48-26.14.02zm9.88-9.8c3.7-3.34 2.35-5.9-6.43-12.36-4.54-3.33-9.28-6.32-10.55-6.64-2.03-.52-2.13-.77-.85-2.2.8-.9 2.84-6.05 4.55-11.44 3.7-11.62 3.28-13.7-2.74-13.7-6.58 0-12.16 7.52-12.16 16.42 0 4.66 2.6 8.98 6.03 10.08 1.82.57 1.86.8.48 2.78-2.1 3.02-1.88 5.38 1 10.27 4.58 7.84 15.54 11.42 20.68 6.77zm17.1 1.3c5.14-2.14 10.72-9 10.72-13.15 0-3.28-2.72-7.5-4.84-7.5-1 0-14.7 9.43-17.9 12.32-2.97 2.68-2.85 5.07.37 7.6 3.05 2.4 7.07 2.66 11.65.74zm-7.68-14.55c11.03-5 11.28-20.47.42-26.24-4.37-2.32-8.52-2.35-13-.1-10.88 5.46-10.73 21.3.25 26.28 5.27 2.4 7.17 2.4 12.33.06zm-12.56-7.28c-2.2-2.36-2.72-7.68-1.05-10.8.54-1.02 2.48-2.35 4.3-2.95 8.66-2.86 15.22 6.2 9.63 13.3-2.77 3.52-9.8 3.77-12.9.45zm33.83-1.17c3.1-3.32 3.76-8.7 1.7-14.1-1.9-4.95-7.55-10.54-10.67-10.54-3.3 0-5.9 1.9-5.9 4.33 0 2.82 5.53 19.4 7.1 21.28 1.74 2.1 5.3 1.66 7.77-.97zm-15.8-22.68c4.9-2.63-.1-10.82-7.9-12.92-5.3-1.43-11.57.1-15.42 3.73-3.18 3-3.68 7.58-1 9.15 2.3 1.35 21.83 1.38 24.32.05zM103 170.12c-18.62-5.35-33.7-21.35-37.54-39.8-1.67-8.1-.77-22.5 1.88-29.8 4.5-12.4 13.62-22.9 25.26-29.02 26.5-13.92 59.8-3.9 73.07 22 4.63 9.02 6.22 15.96 6.08 26.5-.34 24.1-16.35 44.35-39.95 50.5-7.56 1.97-21.26 1.8-28.8-.38zm28.4-9.03c31.98-9.96 42.05-49.95 18.5-73.5-22.02-22-58.24-15.94-72.1 12.1-3.3 6.68-3.76 8.53-4.1 16.65-.7 17.56 6.62 31.22 21.94 40.87 9.04 5.7 24.5 7.38 35.77 3.87zm-24.4-5.46C95.74 151.9 87.94 145.17 83.1 135c-2.78-5.88-3.08-7.44-3.06-16 .03-11.62 2.43-18.54 8.95-25.8 18.35-20.42 52.74-15.6 64.1 9 2.62 5.67 2.9 7.3 2.9 16.8 0 9.4-.3 11.07-2.72 16.02-4.27 8.7-8.98 13.46-17.42 17.63-6.67 3.3-8.54 3.76-16.2 4.02-5.3.18-10.2-.22-12.66-1.03zm24.78-9c1.77-.74 4.9-3.22 6.97-5.5 2.96-3.3 3.75-4.97 3.75-8 0-5.1-2.9-7.97-6.45-6.36-4.02 1.84-17.55 12.2-17.55 13.44 0 .64-1.46-.22-3.25-1.9-5.25-4.97-16-12.33-17.98-12.33-1.75 0-1.75-.13.1-2.76 1.06-1.52 3.18-6.97 4.72-12.13l2.8-9.38-2.4-1.93c-5.9-4.8-16 4.5-16 14.7 0 4.72 2.47 9.34 5.66 10.55 2.1.8 2.34 1.23 1.35 2.43-2.22 2.68-1.42 8.4 1.72 12.35 5.65 7.07 15.24 9.42 20.04 4.9 2.26-2.1 2.44-2.13 3.4-.42 1.98 3.55 7.77 4.58 13.12 2.34zm-6.12-15.4c6.74-3.97 9.4-14.3 5.16-20.04-6.92-9.34-18.92-9.44-25.14-.2-1.95 2.88-2.28 4.42-1.92 8.9.38 4.8.9 5.84 4.55 9.25 3.67 3.42 4.68 3.84 9.26 3.84 3.1 0 6.3-.7 8.1-1.76zm-13.7-6.7c-6.13-6.13-.2-15.97 8.47-14.07 3.88.85 6.07 3.95 6.07 8.56 0 7.4-9.2 10.86-14.55 5.5zm33.45-.96c7.14-7.6.13-25.24-9.7-24.4-5.78.5-6.1 2.37-2.36 13.76 4.4 13.45 7.15 15.88 12.07 10.64zm-15.83-22.63c2.8-1.5 2.48-6.14-.66-9.28-5.9-5.9-16.28-6-22.1-.2-3.85 3.86-4.2 6.77-1.08 8.96 2.62 1.83 20.66 2.23 23.85.52zm96.2 69.5c-18.4-4.96-34.1-20.8-38.2-38.5-1.58-6.9-1.3-21.84.54-28.03 6.44-21.67 24.5-36.44 47.12-38.54 25.7-2.4 50.36 14.62 56.75 39.15 1.96 7.53 1.96 20.4 0 27.9-4.77 18.32-19.75 33.24-38.1 37.97-7.5 1.93-21.02 1.95-28.1.05zm27.96-9.52c13.6-4.47 24.84-15.78 28.87-29.05 1.7-5.6 2.05-8.83 1.72-15.88-.37-7.7-.9-9.8-4.13-16.32-10.98-22.2-36.87-31.54-59.15-21.35-6.15 2.82-15.48 11.06-19.27 17.02-12.66 19.95-6.38 47.74 13.72 60.63 10.95 7.03 25.97 8.97 38.23 4.95zm-24.73-5.3c-11.3-3.74-19.3-10.45-24.1-20.2-2.64-5.42-2.9-6.87-2.9-16.46 0-9.87.2-10.94 3.27-17.18 14.3-29.02 56.33-28.4 70.06 1 2.3 4.95 2.65 6.98 2.66 15.7 0 9.1-.27 10.55-3.1 16.5-3.94 8.27-10.16 14.48-18.38 18.34-5.36 2.52-7.97 3.1-15 3.34-5.17.17-10.1-.23-12.52-1.04zm24.27-9.2c6.7-2.8 11.23-8.56 11.23-14.27 0-1.6-.7-3.5-1.55-4.22-1.37-1.13-1.17-1.45 1.53-2.6 3.07-1.28 6.03-6.24 6-10.07 0-7.62-6.57-16.28-12.3-16.28-3.8 0-5.68 1.5-5.68 4.5 0 2.55 5.54 19.23 6.95 20.93.73.87.1 1.65-2.22 2.8-5.98 2.97-17.22 12.2-17.53 14.4-.38 2.6 4.03 6.36 7.47 6.36 1.32 0 4.06-.7 6.1-1.56zm-16.6-1.1c2.48-2.24 2.3-5.57-.42-8.02-5-4.46-15.63-11.3-17.6-11.3-3.03 0-5.48 4.2-4.65 7.97.8 3.66 4.76 8.6 8.96 11.15 3.85 2.35 11.22 2.47 13.7.2zm13.02-16.18c3.66-3.42 4.15-4.43 4.5-9.25.32-4.2-.04-6.14-1.64-8.67-5.72-9.1-17.3-9.68-24.44-1.2-2.1 2.48-2.62 4.16-2.6 8.28 0 9.12 5.6 14.67 14.77 14.68 4.74 0 5.7-.38 9.4-3.83zm-16.03-4.48c-2.58-2.74-2.9-8.22-.64-11.42 2.07-2.96 7.4-3.86 11.23-1.9 3.34 1.74 4.24 3.4 4.24 7.76 0 6.97-10 10.72-14.83 5.57zm-15.24-.6c2.34-2.35 8.28-20.37 7.44-22.57-1.08-2.8-4.14-3.74-8-2.47-5.25 1.73-9.37 8.66-9.37 15.73 0 4.6.42 5.8 2.92 8.3 3.44 3.44 4.42 3.58 7 1zm32.85-23.64c3.12-2.2 2.76-5.1-1.1-8.95-5.72-5.73-15.9-5.73-22.08 0-3.4 3.16-3.6 8.17-.35 9.48 4 1.6 21.02 1.22 23.53-.53z"/><path fill="#0f1938" d="M56.86 443.5c-24.35-5.33-44.56-23.07-53.18-46.68L1 389.5.72 226C.47 81.23.62 61.67 2 55.43 7.74 29.3 28.8 8.98 57.5 1.84 62 .75 84.37.5 179.5.5H296l8 2.3c26.15 7.56 44.6 25.58 51.43 50.18 2.05 7.4 2.07 8.73 2.06 169.5-.03 180.9.5 167.78-7.25 183.5-3.34 6.8-5.9 10.23-12.72 17-9.75 9.72-16.33 13.92-28.77 18.37L300 444.5l-118.5.17c-96.05.14-119.66-.08-124.64-1.17zM303 439.7c19.4-5.63 36.43-19.37 44.3-35.75 7.63-15.87 7.2-5.15 7.18-181.67-.02-174.45.33-164.78-6.48-179.13-8.37-17.63-23.27-30.37-42.5-36.34L298 4.5H59l-8 2.8C31.7 14.06 18.3 25.85 9.85 43.5 3.23 57.37 3.5 49.7 3.5 223.13c0 175.8-.43 165.12 7.28 180.87 7.05 14.4 22.25 27.9 37.77 33.55 11.67 4.25 13.1 4.3 133.45 4.1 106.05-.18 115.47-.33 121-1.94zm-199.4-61.3c-17.72-4.76-32.9-20.16-37.52-38.06-8.7-33.7 17.1-66.78 51.92-66.6 14.56.07 25.9 4.38 36.34 13.84 11.4 10.3 17.3 23.37 17.35 38.3 0 4.73-.5 10.86-1.15 13.6-4.1 17.5-18.92 33-36.9 38.54-7.68 2.37-21.97 2.56-30.04.4zm29.9-9.54c25-8.6 36.6-37.56 24.8-61.87-8.32-17.1-28.12-27.23-47.12-24.1-15.06 2.5-26.95 11.37-33.56 25.1-3.52 7.27-3.62 7.8-3.62 19.04 0 11.3.08 11.7 3.72 19.07 10.22 20.7 33.8 30.3 55.78 22.76zm-26.7-5.28c-10.4-3.35-19.46-11.4-24.13-21.42-2.28-4.9-2.65-7-2.65-15.17 0-8.2.37-10.3 2.67-15.23 3.53-7.58 10.87-15.26 18.28-19.14 5.7-2.97 6.63-3.14 17.02-3.14 10.07 0 11.5.23 16.8 2.83 7.4 3.64 14.72 10.96 18.35 18.36 2.58 5.24 2.85 6.77 2.85 16.3 0 9.6-.25 10.97-2.9 16.24-3.96 7.8-10.76 14.44-18.6 18.15-5.45 2.58-7.87 3.1-15 3.3-5.1.15-10.2-.3-12.7-1.12zm8.76-10.44c1.53-1.87 1.62-1.86 3.86.47 4.4 4.6 14.12 2.53 20.07-4.26 2.36-2.7 3-4.36 3-7.82 0-2.66-.62-5-1.57-5.96-1.43-1.43-1.34-1.57 1-1.57 1.86 0 3.17-.95 4.58-3.26 5.3-8.67-1.34-23.75-10.43-23.75-3.68 0-5.57 1.52-5.57 4.5 0 2.62 5.56 19.25 7.03 21.02.8.98.58 1.45-.9 1.93-1.1.35-5.94 3.57-10.77 7.17-7.17 5.34-8.96 6.27-9.8 5.1-1.65-2.2-16.7-12.73-18.23-12.73-1.17 0-1.16-.44.02-2.76.77-1.52 2.68-6.7 4.24-11.54 3.27-10.14 2.84-12.03-2.9-12.52-4.7-.4-8.08 1.9-10.65 7.2-3.7 7.66-2.28 16.45 3.04 18.8 2.07.93 2.5 1.57 1.74 2.5-1.54 1.86-1.26 7.6.54 11.08 4.1 7.9 17.27 11.77 21.68 6.38zm10.8-13.9c4.7-3.5 6.52-6.92 6.52-12.25 0-14.65-18.96-20.3-27.1-8.12-3.9 5.8-2.74 14.66 2.5 19.42 4.43 4 13.36 4.46 18.07.95zm-14.4-6.7c-5.1-5.1-1.35-13.95 5.88-13.95 7.45 0 11.22 7.86 6.6 13.75-2.85 3.6-8.97 3.7-12.5.18zm18.34-23.75c2.95-2.96.83-8.92-4.08-11.46-6.7-3.48-17.36-1.7-21.44 3.57-1.8 2.35-1.55 6.83.47 8 2.54 1.48 23.55 1.38 25.05-.1zm93.14 68.9c-13.97-4.76-25.04-14.04-31.15-26.1-4.32-8.52-5.78-14.75-5.78-24.6 0-15.57 4.54-26.56 15.48-37.53 11.15-11.17 22.36-15.73 38.5-15.68 40.22.12 65.63 42.87 46.72 78.6-6.38 12.06-19.76 22.54-33.26 26.06-8.85 2.3-22.53 1.96-30.52-.76zm32.06-9c11.08-4.05 20.1-12.46 25.3-23.53 5.7-12.17 4.84-29.26-2.04-41-3.83-6.53-11.83-13.88-18.67-17.14-32.96-15.7-69.6 10.6-64.55 46.32 3.98 28.1 33 45.22 59.95 35.36zm-27.05-5.1c-11.2-4.32-19.1-11.35-23.65-21.1-2.48-5.33-2.8-7.16-2.8-16 0-8.98.3-10.6 2.85-15.8 3.63-7.4 10.95-14.74 18.35-18.37 5.3-2.6 6.74-2.84 16.8-2.84 10.17 0 11.43.2 16.77 2.9 7.2 3.65 15 11.8 18.53 19.33 2.35 5 2.7 7 2.68 15.26 0 8.15-.4 10.3-2.68 15.2-3.7 7.94-10.74 15.14-18.6 19-5.64 2.78-7.7 3.24-15.6 3.48-5.92.18-10.34-.2-12.65-1.1zm6.65-9.1c3.15-1.3 3.5-1.82 3.22-4.73-.27-2.8-1.53-4.16-8.74-9.52-4.63-3.45-9.27-6.26-10.32-6.26-1.7 0-1.73-.18-.4-1.5.8-.82 2.88-6 4.6-11.5 3.68-11.88 3.26-14-2.77-14-2.07 0-4.76.7-6 1.55-6.2 4.36-8.48 18.25-3.75 22.98 1.35 1.35 3.16 2.46 4.03 2.46 1.4 0 1.4.24-.07 2.48-3.55 5.44 1.85 15.1 10.1 18 5.1 1.8 5.83 1.8 10.1.03zm20.87-.8c7.32-4.14 10.96-13.38 7-17.75-1.4-1.56-1.28-1.75 1.54-2.32 7.55-1.5 7.85-16 .5-23.35-5.3-5.28-12.56-4.32-12.46 1.66.04 2.16 4.14 15.2 6.32 20.07.5 1.12-1.1 2.72-5.98 5.9-9.56 6.3-13.38 9.9-13.38 12.63 0 5.42 9.33 7.22 16.47 3.17zm-7.74-14.27c5.72-3.75 8.03-13.13 4.8-19.4-4.8-9.26-17.37-10.55-24.44-2.5-2.72 3.1-3.1 4.26-3.1 9.4 0 4.95.44 6.42 2.7 9.1 1.5 1.78 4.07 3.84 5.75 4.6 3.63 1.65 10.86 1.04 14.28-1.2zm-14.66-7.08c-6.7-8.53 5.5-19.22 12.56-11 5.03 5.85 1.32 13.64-6.5 13.64-3.1 0-4.44-.6-6.06-2.65zm18.73-23.56c1.54-1.55 1.5-5.85-.08-7.9-2.73-3.52-6.86-5.25-12.55-5.24-8.83 0-14.17 3.6-14.17 9.56 0 4.2 1.65 4.77 14 4.77 7.7 0 12-.42 12.8-1.2zM104.7 170.42C95 167.8 88.34 163.86 80.43 156c-11.14-11.05-15.88-22.1-15.9-37.05-.03-14.9 5.3-27.57 15.97-38.08 20.8-20.48 52.92-20.9 74.4-.95 22.2 20.6 22.63 55 .96 76.73-6.76 6.78-16.98 12.34-26.16 14.24-7.17 1.47-18.55 1.26-25-.47zm32.1-11.18c4-1.9 9.17-5.48 12.62-8.77 25.95-24.75 12.77-68.58-22.72-75.54-22.25-4.36-44.87 8.97-51.34 30.28-3.1 10.2-2.34 23 1.9 32.1 5.3 11.3 14.14 19.23 26.1 23.4 5.58 1.95 8.24 2.28 16.64 2.02 8.8-.27 10.82-.7 16.8-3.5zM106 155c-21.84-7.33-32.4-31.68-22.7-52.4 13.85-29.6 55.97-29.38 70.1.4 2.26 4.78 2.6 6.78 2.6 15.5 0 8.74-.33 10.7-2.68 15.7-3.68 7.86-10.78 15.15-18.4 18.9-8.43 4.15-19.94 4.9-28.92 1.9zm27.53-9.26c5.67-2.87 8.97-7.72 8.97-13.2 0-2.3-.48-4.64-1.07-5.23-.77-.75-.34-1.24 1.48-1.7 5-1.25 7.23-10.77 4.24-17.94-.75-1.8-2.8-4.48-4.58-5.97-4.95-4.17-12.06-3.4-12.06 1.32 0 2.4 5.8 20 7.1 21.6.88 1.04.82 1.37-.25 1.37-1.4 0-13.45 8.37-17.57 12.2-2.22 2.08-2.23 2.08-4 .1-3.34-3.76-16.02-12.3-18.22-12.3-1.95 0-2.03-.2-.72-1.5 2.06-2.05 7.98-20.2 7.36-22.55-.42-1.6-.2-1.77 1.33-.95 2.44 1.3 21.58 1.27 24.04-.05 2.96-1.6 2.5-6.53-.9-9.95-7.15-7.14-25.17-3.3-25.17 5.38 0 2.23-.33 2.43-3.25 2-7.06-1.06-13.68 7-13.73 16.72-.02 4.95 2.44 9.26 5.92 10.37 1.72.54 1.77.85.5 3.27-2.5 4.87.97 12.42 7.4 16.03 5 2.82 12.37 3 15 .38 1.78-1.8 1.92-1.77 4.55.5 3.45 2.97 7.86 3 13.63.1zm-7.33-14.7c4.56-2.8 6.52-6.32 6.6-11.9.22-14.34-16.2-20.46-26.22-9.76-3.2 3.43-4.04 11.86-1.64 16.5 3.52 6.8 14.27 9.4 21.26 5.15zM112.53 125c-4.4-4.37-3.43-10.8 2.06-13.9 5.15-2.88 11.9 1.43 11.9 7.62 0 6.98-9.16 11.1-13.97 6.3zm114.2 45.6c-13.63-3.46-27.66-14.27-33.88-26.1-4.72-9-6.35-15.67-6.35-26.1 0-11.2 2.33-19.54 7.83-28 19.04-29.26 58.93-33.75 83.4-9.37 11.36 11.32 16.4 24.62 15.54 40.9-1.16 21.54-14.9 39.86-35.35 47.16-7.5 2.66-23.55 3.44-31.2 1.5zm33.04-11.9c9.2-4.55 16.63-12.14 21-21.46 2.65-5.67 3.22-8.23 3.56-15.94.53-12.18-1.97-20.75-8.6-29.46-23.94-31.44-74.64-18.53-80.13 20.4-3.13 22.17 9.57 42.15 31.4 49.4 2.63.88 7.67 1.23 14.7 1.02 9.98-.3 11.2-.56 18.07-3.96zm-30.34-3.08c-10.3-2.78-19.92-11.12-24.77-21.46-2.32-4.96-2.66-6.94-2.66-15.67 0-9.05.28-10.6 2.94-16 7.54-15.36 24.77-24.45 40.93-21.6 13 2.3 23.4 10.13 28.94 21.86 2.92 6.14 3.2 7.56 3.14 16.23-.05 8-.46 10.37-2.64 15.1-7.9 17.24-27.56 26.46-45.87 21.52zm25.8-9.74c7.7-3.73 12.02-14 7.7-18.32-1.43-1.43-1.4-1.57.32-1.57 2.94 0 6.36-4.38 6.96-8.92 1.16-8.5-5.25-18.1-12.08-18.1-3.7 0-5.63 1.53-5.6 4.46 0 2.83 4.77 17.55 6.56 20.3 1.2 1.84 1.22 2.25.1 2.25-1.76 0-17.78 11.4-18.96 13.52-1.33 2.38-.08 6 2.5 7.24 3.56 1.7 7.76 1.4 12.5-.88zm-18.66.07c1.95-1.05 2.62-5.38 1.16-7.57-1.53-2.3-16.62-12.4-18.53-12.4-1.84 0-1.88-.14-.45-1.74.85-.97 3.03-6.43 4.83-12.15l3.28-10.4-2.3-1.86c-3-2.43-5.04-2.34-9.16.42-4.38 2.92-6.9 8-6.9 13.93 0 5.84 1.5 9.23 4.7 10.7 1.88.85 2.3 1.56 1.7 2.86-2.72 5.8 1.02 14.2 7.78 17.54 3.77 1.86 11 2.2 13.9.65zm11.63-14.92c4.25-2.6 6.3-6.83 6.3-13.03 0-4.52-.43-5.55-3.82-9.18-3.26-3.5-4.53-4.16-8.85-4.58-9.77-.93-16.32 4.7-16.33 14.05 0 9.25 5.35 14.68 14.5 14.68 3.2 0 6.15-.7 8.2-1.95zm-14.25-6.5c-3.6-3.6-3.35-8.6.63-11.95 4.03-3.4 7.37-3.3 11 .33 5.64 5.65 2.3 14.1-5.58 14.1-2.48 0-4.35-.77-6.05-2.47zm17.62-23.58c2.76-1.48 2.52-6.46-.45-9.43-5.53-5.53-17.5-5.8-22.78-.52-3.3 3.3-3.86 8.3-1.1 9.9 2.3 1.35 21.84 1.38 24.33.05z"/><path d="M56.86 443.5c-24.35-5.33-44.56-23.07-53.18-46.68L1 389.5.72 226C.47 81.23.62 61.67 2 55.43 7.74 29.3 28.8 8.98 57.5 1.84 62 .75 84.37.5 179.5.5H296l8 2.3c26.15 7.56 44.6 25.58 51.43 50.18 2.05 7.4 2.07 8.73 2.06 169.5-.03 180.9.5 167.78-7.25 183.5-3.34 6.8-5.9 10.23-12.72 17-9.75 9.72-16.33 13.92-28.77 18.37L300 444.5l-118.5.17c-96.05.14-119.66-.08-124.64-1.17zM303 439.7c19.4-5.63 36.43-19.37 44.3-35.75 7.63-15.87 7.2-5.15 7.18-181.67-.02-174.45.33-164.78-6.48-179.13-8.37-17.63-23.27-30.37-42.5-36.34L298 4.5H59l-8 2.8C31.7 14.06 18.3 25.85 9.85 43.5 3.23 57.37 3.5 49.7 3.5 223.13c0 175.8-.43 165.12 7.28 180.87 7.05 14.4 22.25 27.9 37.77 33.55 11.67 4.25 13.1 4.3 133.45 4.1 106.05-.18 115.47-.33 121-1.94z"/></g></g></svg>