<svg xmlns="http://www.w3.org/2000/svg" width="358.837" height="445.884" viewBox="0 0 358.83713 445.88364"><g><g><path fill="#c38c8f" d="M59.5 444.75c-24.06-4.46-43.9-19.68-53.62-41.12C-.32 389.98.02 399.9 0 223.1 0 66.73.05 61.28 1.92 53.98 8.6 27.85 30.4 7.27 57.2 1.77c11.24-2.3 232.77-2.4 243.7-.1 26.54 5.6 47.93 25.3 55.28 51l2.3 8.03v162c0 152.4-.1 162.4-1.78 169-6.37 24.9-25.65 44.14-52.2 52.12-5.63 1.68-13.53 1.8-122 2-91.6.18-117.5-.05-123-1.07zm240.86-5.04c19.77-4.18 38.33-18.78 47.08-37 6.92-14.44 6.55-4.22 6.53-179.7-.02-176.63.42-165.47-7.14-180.8-5.9-12-17.83-23.88-29.84-29.74-17.1-8.34-6.96-7.76-137.5-7.76-108.22 0-116.48.12-123 1.8C32.1 12.7 12.83 31.43 6.25 55.26 4.6 61.3 4.5 71.6 4.5 222.7c0 176.06-.37 165.24 5.96 179 8.6 18.64 24.98 32.13 45.53 37.44 7.2 1.87 11.95 1.95 122.5 1.98 96.95.04 116.06-.2 121.86-1.4zM115 402.14c-3.04-.53-9.3-2.76-13.9-4.97-14.57-6.96-25.97-21.3-29.16-36.7-1.64-7.9-.73-22.3 1.88-29.6 5.28-14.8 19.2-28.8 32.64-32.76 2.5-.74 4.53-1.63 4.53-2 0-.35-2.08-1.22-4.6-1.93-5.74-1.6-14.6-7.33-20.22-13.08-9.5-9.72-14.08-20.27-14.9-34.4-.66-11.05.74-18.32 5.24-27.27 13.5-26.84 45.95-37.57 73.2-24.2 11.73 5.77 23.1 18.63 26.78 30.28.9 2.86 1.87 5.87 2.15 6.7.3.84 1.27-.9 2.26-4 7.04-22.17 24.97-36.53 48.1-38.54 9.36-.8 19.9 1.26 29 5.7 12.78 6.25 24.76 21.2 27.9 34.86 1.6 6.87 1.3 21.84-.5 28.05-4.97 16.87-17.93 30.68-33.9 36.1-4 1.35-4.6 1.83-3 2.35 1.1.36 5.3 2.25 9.38 4.2 12.85 6.13 23.25 18.7 27.5 33.2 1.83 6.2 2.1 21.2.53 28.05-3.94 17.12-18.9 32.86-36.37 38.28-10.24 3.17-24.46 3-34.15-.44-17.08-6.03-28.93-18.34-34.47-35.8-.98-3.1-1.96-4.85-2.25-4-.28.82-1.25 3.83-2.15 6.68-3.25 10.3-12.52 21.7-23 28.26-9.88 6.17-26.2 9.13-38.5 7zm18.1-9.95c18.5-3.5 32.98-18.45 35.98-37.1 2.7-16.72-6.28-35.36-21.24-44.12-11.82-6.93-28.85-7.77-41.1-2.03-22.4 10.5-32 36.5-21.57 58.44 8.78 18.48 28.2 28.54 47.93 24.8zm-14.33-5c-10.62-1.8-20.77-8.58-26.63-17.8-12.46-19.57-4.63-45.42 16.84-55.6 5.92-2.8 7.4-3.08 16.5-3.08 8.93 0 10.62.3 15.7 2.8 8.44 4.14 15.2 10.7 19.03 18.5 3.08 6.24 3.3 7.3 3.3 17.18 0 9.88-.2 10.88-3.18 16.52-5.96 11.28-16.56 19.18-28.77 21.4-6.5 1.2-6.06 1.2-12.78.07zm1.5-10.9c2.8-1.06 4.03-3.5 3.17-6.22-.7-2.2-17.06-13.86-19.43-13.86-2.67 0-4 2.16-4 6.47 0 9.5 11.24 17.04 20.28 13.6zm20.37-.72c4.97-2.36 8.62-7.56 8.62-12.26 0-5-.77-6.1-4.3-6.1-3.43 0-19.26 11.44-19.8 14.32-.2 1 .44 2.7 1.4 3.75 2.2 2.44 9.24 2.6 14.08.3zm-9.3-13.74c7.3-3.05 10.24-11.23 6.8-19-4.05-9.16-16.5-11.1-23.62-3.66-3.96 4.14-4.74 12.34-1.65 17.35 3.74 6.06 11.43 8.26 18.48 5.32zm-10.24-4.98c-5.53-3.15-6.52-9.4-2.2-13.72 5.82-5.8 15.1-2.45 15.1 5.48 0 6.66-7.4 11.4-12.9 8.24zm29.94-1.64c1.62 0 3.95-5.83 3.95-9.9 0-7.46-4.48-14.4-10.1-15.62-3.28-.72-6.9.93-6.9 3.15 0 .85 1.37 6 3.06 11.45 2.98 9.6 4.9 12.4 7.76 11.4.73-.27 1.73-.48 2.22-.48zm-46.55-1.75c2.45-6.04 6.5-18.98 6.5-20.83 0-3.9-7.04-4.77-11.3-1.4-5.57 4.37-7.43 17.3-3.18 22.02 2.23 2.46 7 2.6 7.97.2zm33-26.7c0-3.4-.5-4.3-3.4-6.26-6-4.06-19.33-2.5-22.03 2.55-1.22 2.27-1.44 6.46-.4 7.5.4.4 6.36.58 13.26.43l12.56-.28v-3.96zm103.6 65.43c13.72-2.6 25.7-11.76 31.92-24.4 3.02-6.13 3.45-8.04 3.8-16.66.42-10.57-.94-16.68-5.5-24.55-3.6-6.25-12.52-14.1-20.08-17.67-6.38-3.03-7.4-3.2-18.25-3.2-10.88 0-11.9.17-18.27 3.2-9.34 4.42-16.92 11.86-21.47 21.06-3.2 6.45-3.72 8.57-4.1 16.26-.32 6.98.03 10.27 1.67 15.7 6.45 21.23 28.35 34.4 50.27 30.26zm-14.52-5.04c-12.06-2.02-24.08-11.3-29.4-22.73-2.28-4.9-2.66-7.04-2.68-15.2 0-8.62.28-10.13 3.16-16.2 12.95-27.34 50.2-30.7 67.4-6.07C278.3 345.88 271.85 372 251.2 383c-4.6 2.45-16.66 5.63-19.2 5.07-.3-.06-2.72-.48-5.42-.93zm1.76-10.9c2.8-1.05 4.2-4.23 2.9-6.57-1.33-2.36-17.32-13.47-19.4-13.47-2.7 0-5.2 4.42-4.4 7.74 2.38 9.46 12.57 15.48 20.9 12.3zm20.66-.9c6.2-3.3 9.57-10.84 7.38-16.56-1.07-2.8-5.8-1.78-11.98 2.57-11.4 8.02-13.05 10.38-9.76 14.02 2.2 2.44 9.75 2.43 14.36-.03zm-9.5-13.58c9.9-4.15 10.07-21.56.23-25.7-7.06-2.95-15.7-.62-19.1 5.18-2.3 3.88-2.1 11.68.38 15.76 3.46 5.66 11.43 7.7 18.5 4.76zm-10.74-5.12c-5.37-2.92-6.28-8.5-2.18-13.37 6.63-7.88 19.25.87 14.38 9.98-1.1 2.04-6 4.97-8.17 4.9-.73-.02-2.54-.7-4.04-1.5zm29.57-1.55c8.46-3.87 4.32-23.28-5.4-25.42-3.7-.8-6.94 1-6.94 3.86 0 3.7 5.86 20.05 7.7 21.4 2 1.5 1.65 1.5 4.63.15zm-45.95-2.15c2.74-4.3 7-19.9 5.92-21.64-1.4-2.2-6.94-2.58-9.87-.66-6.02 3.95-8.55 16.6-4.37 21.92 2.58 3.28 6.36 3.45 8.32.4zm33.43-24.08c.68-3.46-.87-6.74-4.1-8.7-6.02-3.68-19.05-1.94-21.63 2.88-1.22 2.27-1.44 6.46-.4 7.5.4.4 6.35.58 13.25.43 11.23-.25 12.58-.47 12.9-2.1zm-60.56-6c4.6-8.6 13.88-17.5 22.95-22 4.08-2.02 8.2-3.67 9.1-3.67 3.24 0 1.64-1.58-2.96-2.94-2.55-.75-7.93-3.57-11.94-6.25-10.9-7.27-18.73-18.06-21.77-29.95l-1.3-5.1-2.27 7.02c-2.84 8.83-8.68 17.85-15.4 23.74-5 4.42-17.52 11.5-20.3 11.5-.76 0-1.37.45-1.37 1s.6 1 1.35 1c2.8 0 15.3 7.07 20.32 11.48 6.7 5.9 12.55 14.9 15.4 23.74l2.25 7.03 1.35-5.26c.74-2.9 2.8-8 4.57-11.32zm-46.14-37.7c15.96-5.4 27.14-18.46 29.9-34.98 3.07-18.17-6.8-37.35-23.42-45.55-9.58-4.72-17.55-6.13-26.72-4.7C97 203.33 81 221.55 81 243.08c0 19.78 12.44 36.68 31.5 42.7 6.42 2.05 19.6 1.74 26.6-.62zm-24.6-4.38c-15.9-5.04-26.86-18.38-28.2-34.3-1.67-20 12.33-37.53 33.02-41.36 15.6-2.88 32.9 6.22 41 21.56 2.97 5.63 3.17 6.64 3.17 16.5 0 11.85-1.62 16.76-8.1 24.66-9.54 11.65-27.3 17.26-40.9 12.93zm26.13-10.67c6.98-3.38 11.08-12.95 7.43-17.35-2.16-2.6-4.33-1.88-13.1 4.37-9.1 6.5-10.42 8.05-9.45 11.13 1.33 4.16 8.53 5.04 15.13 1.85zm-18.2-.86c.95-1.06 1.57-2.74 1.38-3.74-.52-2.74-16.6-14.33-19.88-14.33-3.06 0-3.93 1.48-3.93 6.67 0 4.13 2.96 8.73 7.37 11.42 4.3 2.6 12.68 2.6 15.05-.03zm10.75-13.68c3.7-1.92 6.15-6.9 6.17-12.54.04-10.75-10.84-17.05-21.08-12.2-10.85 5.16-9.28 22.73 2.36 26.34 3.4 1.06 8.72.37 12.55-1.6zm-14.27-6.33c-1.6-1.6-2.9-3.88-2.9-5.05 0-3.48 2.7-7.66 5.8-8.94 8.8-3.66 16.3 7.53 9.55 14.28-3.7 3.7-8.57 3.6-12.44-.3zm-15-.45c1.56-1.9 7.1-18.46 7.1-21.28 0-4.78-7.73-5.46-11.77-1.04-5.13 5.6-6.72 13.93-3.76 19.66 2.1 4.05 6.2 5.34 8.42 2.66zm49-1.26c4.06-5.15 1.54-18.05-4.26-21.85-3.06-2-8.56-1.63-10 .68-1.1 1.73.13 6.72 4.54 18.57 1.73 4.65 2.28 5.25 4.8 5.25 1.9 0 3.56-.9 4.93-2.64zm-16.5-21.97c1-.4 1.6-1.83 1.6-3.92 0-6.6-9.68-11-18.78-8.55-6.74 1.82-10.86 9.44-6.48 12 1.88 1.08 21.04 1.47 23.66.46zm114.84 57.87c7.55-3.55 16.46-11.37 20.1-17.65 4.54-7.87 5.9-13.98 5.48-24.55-.35-8.62-.78-10.52-3.8-16.65-12.33-25.06-42.65-32.73-65.95-16.68-16.54 11.4-22.92 35.18-14.35 53.5 5.3 11.34 14.6 19.67 26.75 24 3.84 1.38 7.36 1.73 15.02 1.5 8.78-.26 10.8-.68 16.74-3.47zm-28.75-2.68c-11.48-3.64-19.84-10.84-24.84-21.4-2.88-6.08-3.17-7.6-3.16-16.2.02-8.17.4-10.3 2.68-15.22 7.46-16.03 25.43-25.74 42.06-22.74 28.28 5.1 42 37.08 25.83 60.22-9.3 13.3-27.87 20-42.58 15.33zm24.78-9.95c1.78-.75 4.7-3 6.47-5.04 2.6-2.93 3.24-4.55 3.24-8.02 0-5.42-1.97-7.42-5.84-5.95-5.1 1.93-17.18 11.54-17.84 14.17-1.3 5.2 6.6 7.93 13.96 4.85zm-16.8-1.66c2.78-3.06.86-5.9-8.32-12.38-9.1-6.42-12.64-7.15-14.24-2.95-1.95 5.14 1.17 11.6 7.48 15.44 4.33 2.65 12.65 2.6 15.1-.1zm10.62-13.73c3.84-2.27 5.9-6.42 5.88-11.93 0-8.53-5.68-14.34-14-14.34-8.47 0-13.98 5.8-14 14.7 0 4.42.5 5.77 3.1 8.76 4.88 5.55 12.48 6.67 19.02 2.8zm-14.52-6.35c-4.2-5-3.17-10.54 2.5-13.48 9-4.64 17.38 6.9 10.1 13.87-4.04 3.88-9.15 3.72-12.6-.38zm-14.85-.17c1.27-1.6 7.26-19.72 7.26-21.97 0-2.38-3.57-4.04-7.03-3.28-3.8.83-8.7 6.5-9.56 11.04-1.02 5.53.15 11.7 2.63 13.7 2.55 2.06 5.3 2.27 6.7.5zm48.75-.74c2.88-3.18 3.16-11.03.58-16.36-2.7-5.6-6.02-7.85-10.88-7.45-4.72.38-5.1 2.44-2.2 11.57 3.9 12.26 5 14.23 8 14.23 1.48 0 3.5-.9 4.5-2zm-16.08-22.6c1-.4 1.6-1.83 1.6-3.92 0-8.76-16-12.58-24.1-5.77-3.1 2.63-3.9 6.9-1.7 9.1 1.25 1.26 21.2 1.74 24.2.6zM116 150.5c-5.93-.98-15.32-4.7-20.7-8.18-22.93-14.83-30.8-44.48-18.58-69.95 3.7-7.7 14.97-19 23.02-23.05 13.5-6.8 30.75-7.94 44.4-2.9 15.77 5.82 28.5 19.27 32.9 34.78 1.78 6.23 2.58 6.78 3.4 2.32 2.22-12 14.2-27.26 26.42-33.7 22.34-11.73 48.9-7.5 66.1 10.55 9.6 10.07 14.03 21.7 14.03 36.9 0 11.75-2.26 19.92-7.84 28.5-15.34 23.54-44.84 31.9-70.02 19.8-13.72-6.58-26.3-21.78-28.68-34.6-.82-4.43-2-4.16-2.9.65-.35 1.9-2.22 6.6-4.16 10.48-10.05 20.08-34.6 32.22-57.4 28.4zm20.53-10.86c33.1-8.62 44.15-50.3 19.54-73.78-9.8-9.35-20.2-13.2-33.5-12.42-13.65.8-24.73 6.64-32.82 17.28-5.32 7-7.95 14.47-8.52 24.15-1.76 29.85 26.07 52.38 55.3 44.77zm-21.04-4.8c-11.77-3.05-20.6-10.4-25.84-21.44-2.88-6.07-3.17-7.6-3.17-16.26 0-9.03.2-9.96 3.76-17.2 4.4-8.88 9.22-13.55 18.73-18.1 5.87-2.84 7.38-3.13 16-3.1 7.5.02 10.68.5 15.23 2.3 8 3.2 15.9 10.7 19.98 18.96 2.84 5.73 3.33 7.88 3.62 15.67.27 7.38-.06 10.08-1.83 14.8-3.93 10.45-12.6 19.26-22.73 23.07-6.23 2.35-17.44 2.96-23.78 1.3zm25.43-11.57c6.14-3.05 9.96-10.62 7.68-15.2-1.94-3.94-4.63-3.34-13.58 3.04-9.84 7.04-10.8 8.3-8.64 11.58 2.47 3.76 7.73 3.98 14.55.6zm-18.88-.13c1.13-1.14 1.92-2.8 1.74-3.72-.42-2.12-17.55-15.22-19.9-15.22-1.98 0-3.9 3.5-3.9 7.03 0 9.7 15.75 18.2 22.05 11.9zm10.75-13.97c4.26-2.6 7.6-9.76 6.66-14.27-2.8-13.42-21.22-16.18-26.98-4.05-3.35 7.06.06 16.5 7 19.4 3.65 1.5 9.9 1 13.32-1.08zm-13.77-5.77c-4.05-4.06-4.1-8.3-.12-12.28 6-6 15.1-2.44 15.1 5.92 0 5.3-2.5 8.14-7.73 8.84-3.7.5-4.54.22-7.24-2.48zm33.37-2.28c7.52-8.93-3.9-29.02-12.52-22.04L137.5 81l3.3 10.1c4.54 13.84 6.76 15.76 11.6 10.02zm-48.5.7c1.4-1.7 7.1-18.34 7.1-20.78 0-1.98-2.85-3.84-5.87-3.84-3.12 0-7.84 4.62-9.7 9.52-2.98 7.8-.3 16.48 5.1 16.48 1.2 0 2.73-.62 3.36-1.38zm31.52-22.6c5.24-2 2.35-9.27-4.75-11.96-6.4-2.42-15.13-.36-18.2 4.3-2.12 3.26-1.6 5.76 1.53 7.35 2.95 1.5 17.74 1.72 21.42.32zm109.1 60.42c12.32-3.2 22.43-11.55 28.24-23.3 3.65-7.4 3.73-7.77 3.73-19.1 0-10.9-.2-11.92-3.2-18.27-16.33-34.47-64.17-34.33-80.7.23-2.93 6.1-3.1 7.2-3.1 18.02 0 11.1.1 11.77 3.42 18.5 9.6 19.57 30.73 29.36 51.6 23.92zm-21.03-4.8c-22.3-5.78-34.45-27.78-27.5-49.8 10.55-33.46 57.8-36.03 72.85-3.96 2.32 4.95 2.64 6.86 2.64 16.12 0 9.24-.33 11.15-2.62 16-6.23 13.13-18.84 21.75-32.96 22.54-4.3.24-9.55-.14-12.43-.9zm25.8-11.98c4.63-2.55 7.7-7.25 7.7-11.83 0-3.72-1.47-5.83-4.04-5.83-2.5 0-18.75 11.73-19.5 14.07-.4 1.3-.03 2.76 1.04 3.94 3.06 3.4 8.2 3.27 14.8-.34zm-19.4-.07c3.1-3.32 1.9-5.18-7.67-11.93-9.95-7.02-12.57-7.57-14.3-3.03-1.37 3.6.27 8.2 4.33 12.12 5.95 5.76 13.72 7 17.64 2.83zm10.18-13.15c9.16-4.74 9.16-20.17 0-24.9-9.8-5.07-21.08 1.54-21.1 12.33 0 10.72 11.47 17.55 21.1 12.57zm-13.17-6.38c-5.98-6-2.17-14.97 6.38-15.04 5.2-.05 8.72 3.47 8.67 8.67-.07 8.56-9.05 12.36-15.04 6.37zm32.63-1.36c6.96-5.97 1.93-22.75-7.12-23.73-6.72-.72-7.38 1.46-3.9 12.8 4.2 13.66 5.9 15.35 11.03 10.94zm-47.64-.1c1-1.2 7.02-18.9 7.07-20.78.04-1.5-3.27-3.82-5.48-3.82-3.1 0-8.43 4.56-10.15 8.67-2.06 4.93-1.74 11.58.7 14.7 2.27 2.86 6 3.46 7.84 1.24zM243 79.3c1.77-.48 2.58-1.5 2.8-3.48.84-7.16-11.16-12-20.27-8.2-6.45 2.7-8.74 10.25-3.54 11.7 3.22.88 17.75.88 21 0z"/><path fill="#8c919e" d="M61.82 445.2c-27.66-4.76-49.43-22.8-58.5-48.5l-2.83-8L.2 225.95C-.08 43.9-.52 55.88 7.18 40.27c3.4-6.9 6-10.36 13.27-17.68 9.9-10 17.02-14.5 30.04-19.1l8-2.8h240l7.5 2.34c29.66 9.27 48.85 32.12 52.05 62 .68 6.35.92 62.97.72 165.16-.36 174.53.34 159.02-7.96 176-3.37 6.9-5.86 10.2-13.23 17.58-7.66 7.67-10.57 9.82-18.58 13.75-17.95 8.8-6.75 8.1-137 8.3-63.54.1-117.6-.2-120.18-.64zm246.07-7.44c16.97-5.92 31.5-18.5 39.04-33.78 7.53-15.27 7.1-4 6.8-184.05L353.5 58.7l-2.84-8c-6.43-18.25-17.78-30.93-34.9-39-15.76-7.46-6.85-7-136.77-7H62.5L54.52 7c-20 5.8-35.15 18.22-43.5 35.7-6.98 14.57-6.54 2.4-6.54 181v162l2.9 8.85c7.16 21.87 25.16 38.67 47.82 44.64 6.98 1.83 11.85 1.9 125.77 1.7l118.5-.2 8.4-2.94zm-191.15-35.6c-12.48-2.1-22.74-7.8-31.92-17.74-18.55-20.1-18.5-50.8.1-71.52 5.24-5.82 14.3-12 21.26-14.47 2.63-.94 4.8-1.94 4.8-2.23 0-.3-2.17-1.3-4.8-2.24C85.74 286.7 71 265.62 71 243.7c0-15 4.9-26.55 16.03-37.75 8.9-8.94 16.27-12.93 28.6-15.44 23-4.7 47.2 7.63 58.2 29.65 2.3 4.55 4.16 9.28 4.16 10.5 0 4.36 1.4 3.5 2.7-1.64 4.8-18.74 22.06-34.26 42.8-38.47 26.56-5.4 54 11.7 61.9 38.6 1.8 6.18 2.07 20.24.5 27.04-3.23 14.07-14.65 28.27-28.15 35.02-4.4 2.2-8.62 4-9.38 4-2.98 0-1.13 1.62 3.87 3.4 15.63 5.54 29.97 21.57 33.67 37.62 1.57 6.8 1.3 20.87-.5 27.05-5.74 19.5-21.74 34.2-41.9 38.42-8.8 1.83-12.24 1.83-21 0-13.97-2.94-26.42-11.24-34.53-23.03-3.9-5.67-7.93-14.9-7.96-18.28 0-1.3-.46-2.05-1-1.7-.56.34-1 1.66-1 2.94s-1.88 6.05-4.16 10.6c-5.64 11.27-13.76 19.34-24.97 24.83-11.26 5.5-20.75 7-32.12 5.1zm19.02-10.47c8.65-2.05 13.64-4.8 20.46-11.32 22.17-21.15 15.8-58.32-12.24-71.55-8.9-4.2-22.42-4.92-32.84-1.76-36.4 11.06-41.07 63.45-7.2 80.62 10.64 5.37 20.6 6.63 31.8 4zm-23.28-6.5c-11.24-3.76-19.34-11.63-23.57-22.86-3.16-8.36-2.5-22.43 1.4-30.42 9.6-19.6 34.1-27.07 53.97-16.47 26.7 14.23 25.6 54.32-1.87 67.85-8.53 4.2-20.77 4.98-29.94 1.9zm26.25-8.55c8.8-3.68 13.73-12.66 9.86-17.95-1.23-1.7-1.06-2.03 1.76-3.44 7.05-3.52 6.87-15.06-.35-22.28-5.4-5.4-12.04-5.03-12 .67.02 2.83 4.78 17.55 6.57 20.3.8 1.23 1.03 2.25.5 2.25-1.3 0-13.88 8.57-17.33 11.8-3.45 3.22-3.48 5.48-.12 8.12 3.14 2.48 6.14 2.62 11.13.53zm-17-1c4.4-3.1 3-5.9-6.5-12.93-4.83-3.56-9.77-6.48-11-6.5-3.1-.04-5.67 4.18-4.9 8.07 1.87 9.3 15.47 16.2 22.4 11.34zm12.82-15.52c4.08-3.8 5.7-7.73 5.16-12.5-1.15-10.18-12-16.46-20.67-11.97-4 2.07-7.88 7-8.63 10.96-.88 4.7 2.46 11.92 6.74 14.6 4.68 2.94 13.7 2.38 17.4-1.1zm-15.4-4.97c-3.3-3.1-3.07-10.12.45-12.9 6.7-5.26 15.72.5 13.88 8.87-.37 1.68-1.64 3.74-2.82 4.57-3.1 2.17-8.9 1.9-11.5-.54zm-15.88-.2c1.95-1.47 7.7-17.83 7.7-21.97 0-6.26-8.6-5.87-13.48.6-5.24 6.9-5.17 16.38.14 20.55 3.04 2.4 3.4 2.45 5.63.8zm33.46-24.32c3.13-2.2 2.77-5.1-1.08-8.95-7.9-7.9-24.7-4.04-24.7 5.67 0 3.96 2.28 4.76 13.53 4.8 7.5.02 10.6-.37 12.26-1.53zm105.43 61.44c15.66-3.3 28.42-14.68 33.28-29.72 1.3-4.06 1.63-7.77 1.34-15.5-.34-8.88-.8-11.02-3.57-16.94-4.16-8.86-11.7-16.4-20.8-20.77-6.1-2.93-8.18-3.4-16.66-3.77-12.48-.53-20.9 1.83-29.73 8.34-11.94 8.8-17.7 21.82-16.9 38.3.37 7.9.88 9.92 4.13 16.5 8.98 18.17 28.9 27.77 48.9 23.56zm-22.35-7.13c-21.84-7.66-31.62-32.38-21.22-53.64 7.07-14.44 24.33-23.08 40.44-20.25 17.22 3.04 28.9 14.47 32 31.33 3.12 16.9-6 34.3-21.75 41.52-8.25 3.78-20.45 4.2-29.47 1.05zm27.75-8.67c7.68-3.48 12.3-12.52 9-17.57-1.5-2.24-1.5-2.5-.1-2.5.87 0 2.7-1.2 4.03-2.65 1.98-2.13 2.46-3.7 2.46-8.05 0-2.97-.67-6.68-1.48-8.23-4.58-8.87-15.53-11.02-15.53-3.05 0 3.16 4.38 16.4 6.5 19.65 1.2 1.83 1.25 2.33.2 2.33-.72 0-4.22 2.08-7.76 4.63-12.63 9.06-14.12 11.5-9.32 15.3 3.24 2.55 6.62 2.6 11.98.15zm-17.57-.9c3.66-2.98 2.03-6.15-6.28-12.23-9.58-7-12.04-7.92-14.7-5.5-4.4 3.98-1.26 12.5 6.26 17.02 5.1 3.05 11.45 3.35 14.73.7zm11.06-14.45c12.76-8.54 5.62-28.2-9.64-26.48-10.75 1.2-16.68 13.4-10.84 22.3 4.28 6.54 13.97 8.52 20.47 4.18zm-13.38-4.98c-4.17-3.17-4.16-10.48.02-13.78 7.25-5.7 17.1 2.6 12.85 10.83-.85 1.63-2.27 3.23-3.16 3.58-2.7 1.03-7.97.7-9.72-.63zm-16.03-2c2.32-2.57 7.3-16.87 7.3-21.03 0-3.8-3.7-5.5-8-3.73-9.46 3.9-12.94 18.52-5.82 24.5 3.62 3.05 3.94 3.06 6.5.25zm33.34-23.8c2.1-2.1 1.96-4.9-.43-7.86-1.68-2.13-8.72-5.06-12.1-5.06-3.4 0-10.44 2.93-12.14 5.05-2.38 2.96-2.53 5.74-.42 7.85 1.8 1.8 3.3 2.05 12.55 2.05 9.24 0 10.73-.25 12.54-2.05zm-57.43-10.57c5.02-7.55 13.74-15.15 21.86-19.04 3.83-1.84 7.55-3.34 8.25-3.34.7 0 1.3-.45 1.3-1s-.6-1-1.3-1c-.7 0-4.58-1.6-8.62-3.52-13.03-6.25-23.46-18.65-28.17-33.48-.98-3.1-1.96-4.85-2.25-4-.28.82-1.25 3.83-2.15 6.68-4.36 13.84-18.17 27.92-32.32 32.94-2.86 1.02-5.2 2.13-5.2 2.48 0 .35 2.07 1.2 4.6 1.92 13.4 3.76 28.88 19.75 33.35 34.48.66 2.2 1.43 4.67 1.7 5.48.26.82 1.6-1.84 2.96-5.9 1.36-4.06 4.07-9.78 6-12.7zm-43.6-36c13.58-6.44 22.78-18.78 25.1-33.7 3.72-23.9-12.82-46.2-37.07-49.95-13.03-2.02-26.86 1.95-36.55 10.48-21.03 18.52-18.9 54.06 4.18 69.37 8.82 5.85 15 7.47 27.33 7.15 9.32-.24 11.2-.6 17-3.34zm-26.97-2.48c-10.92-2.14-21.78-10.58-26.8-20.84-3.8-7.77-4.4-21.95-1.3-30.2 4.37-11.62 12.52-19.3 24.4-23 32.78-10.17 61.2 22.5 46.58 53.58-4.86 10.35-15.47 18.3-27.35 20.47-6.73 1.24-9.2 1.24-15.52 0zm4.32-10.98c3.37-2.64 3.33-4.9-.1-8.12-3.43-3.2-16.06-11.8-17.33-11.8-.5 0-1.83.9-2.93 2-4.7 4.68-.58 13.55 8.5 18.33 4.15 2.2 8.74 2.04 11.85-.4zm20.76-.8c7.08-4.47 10.07-12.84 5.93-16.6-2.76-2.48-5.2-1.58-14.8 5.46-6.38 4.7-8.24 6.6-8.24 8.5 0 5.9 9.63 7.4 17.1 2.65zm-10.5-12.75c7.54-3.57 10.68-13.8 6.23-20.28-3.58-5.22-6.96-7.27-12.1-7.35-6.26-.1-10.7 2.7-13.6 8.52-2.73 5.47-2.4 9.86 1.04 14.24 4.88 6.2 11.78 8.03 18.43 4.87zm-11.98-6.45c-2.13-1.67-2.63-2.9-2.63-6.46 0-5.52 2.75-8.46 7.95-8.46 4.6 0 7.7 2.2 8.55 6.06 1.84 8.37-7.18 14.13-13.88 8.86zm31.66-.94c5.48-4.3 5.55-13.47.18-20.6-4.84-6.38-13.47-6.84-13.47-.7 0 3.95 5.13 19.1 7.25 21.37 2.27 2.43 2.85 2.43 6.03-.07zm-46.82-1.3c2.13-3.26 6.53-16.5 6.53-19.66 0-5.52-5.76-6.8-10.96-2.42-3.6 3.03-5.05 5.48-6.17 10.37-2.13 9.34 6.15 18.5 10.6 11.7zm33.65-24.04c1.5-3.3-1.02-7.9-5.47-10-8.77-4.17-21.64.2-21.64 7.33 0 4.5 1.47 5.03 14.2 5.03 11.46 0 11.86-.08 12.9-2.36zm109.03 61.38c12-3.72 21.1-11.83 26.54-23.6 3.62-7.8 4.5-23.26 1.8-31.58-3.56-11.05-12.9-21.85-22.77-26.37-22.53-10.32-48.72-1.4-59.4 20.23-3.33 6.7-3.78 8.54-4.14 16.85-.52 11.92 1.92 20.63 8.13 29.08 10.92 14.84 31.32 21.14 49.83 15.4zm-22.1-4.12c-10.96-2.14-21.64-10.3-26.5-20.23-9.48-19.36-1.7-42.63 17.35-51.93 6.16-3 7.32-3.23 17.13-3.24 9.88 0 10.94.2 17.18 3.27 33.28 16.4 26.4 65.28-10.15 72.22-6.1 1.14-8.76 1.13-15-.1zm4.38-11.02c4.08-3.2 3.04-5.66-4.9-11.7-9.67-7.3-12.06-8.5-14.5-7.18-4.12 2.2-3.83 8.7.6 13.96 5.56 6.6 13.9 8.78 18.8 4.92zm18.5.67c3.7-1.92 8.9-7.92 9.73-11.25.9-3.6-1.5-7.73-4.68-8.05-3.78-.38-19.96 11.93-19.96 15.18 0 4.96 8.63 7.35 14.9 4.12zm-6.16-15.37c6.3-4.5 7.95-14.08 3.47-20.1-8.56-11.5-26.7-6.12-26.7 7.92 0 5.5 2.1 9.08 7.58 12.84 4.2 2.88 11.1 2.6 15.66-.66zm-14-5.16c-2.96-2.33-3.93-6.22-2.54-10.2 1.2-3.46 3.5-4.82 8.1-4.82 5.2 0 8.14 2.88 8.14 8 0 7.53-7.9 11.58-13.7 7.02zm32.32-1.95c2.5-2.5 2.92-3.68 2.9-8.25 0-6.7-3.15-12.58-8.15-15.28-4.75-2.56-8.8-1.1-8.8 3.2 0 4.25 5.63 20.53 7.6 21.97 2.5 1.83 3.18 1.66 6.46-1.63zm-47.66-.32c1.8-2.75 6.56-17.47 6.57-20.3.02-2.86-1.87-4.45-5.3-4.45-6.36 0-13.8 11.64-12.18 19.03 1.54 7.04 7.88 10.36 10.9 5.72zm33.75-24.2c.9-2 .8-2.98-.58-5.06-6.32-9.66-23.83-8.27-27 2.14-1.32 4.34 1.43 5.36 14.5 5.36 11.73 0 11.98-.05 13.08-2.46zm-133.52-74.07c-29.25-7.42-47.42-37.28-40.06-65.84 6-23.3 28.42-40.68 52.38-40.63 23.7.07 45.43 16.03 52.22 38.4l2.12 6.96 1.35-5.32c2.2-8.55 7.25-17.03 14.4-24.16 21.5-21.42 55.1-21.2 76.44.5 11.08 11.3 15.47 22.12 15.45 38.12-.04 24.75-16.5 45.43-41.1 51.65-28.03 7.1-58.13-10.58-65.2-38.27l-1.32-5.1-2.2 6.75c-5.55 16.88-17.4 29.16-33.96 35.2-8.53 3.1-22.1 3.9-30.54 1.75zm23.86-9.84c12.7-3.4 22.95-11.67 28.4-22.9 14.43-29.78-6.27-63.67-38.9-63.7-18.6-.03-33.52 9.25-41.3 25.7-3.04 6.38-3.2 7.4-3.2 18.26 0 10.86.16 11.87 3.2 18.26 3.77 8 11.35 16.36 18.13 20.06 9.85 5.36 23.3 7.08 33.66 4.32zM115 134.66c-11.12-3.12-22.04-12.8-26.2-23.26-1.75-4.4-2.27-7.75-2.3-14.72-.03-8.2.26-9.63 3.23-15.66 4.16-8.45 12.87-16.74 20.95-19.95 4.5-1.8 7.78-2.3 14.8-2.32 8.05-.03 9.7.3 15.73 3.15 8.28 3.9 15.4 10.83 19.25 18.7 3.73 7.62 4.64 19.78 2.07 27.82-6.27 19.62-28.1 31.68-47.53 26.24zm22.24-9.52c8.2-2.28 13.8-10.52 11.56-17-1.55-4.44-4.78-3.83-14 2.68-8.72 6.14-11 9.26-8.77 11.96 2.67 3.2 5.78 3.87 11.2 2.36zm-15.23-1.77c3.67-2.98 2.04-5.95-6.76-12.25-9.13-6.54-10.77-7.27-13.36-5.88-2.38 1.28-2.62 7.7-.42 11.95 3.44 6.64 15.48 10.27 20.55 6.17zm12.97-15.7c6.8-6.5 5.87-17.36-2-22.77-3.1-2.15-11.1-2.23-15.1-.15-8.93 4.6-9.3 19.1-.62 24.55 4.9 3.06 13.67 2.26 17.72-1.62zm-15.5-3.72c-1.54-1.35-2.82-3.75-3.17-5.96-.5-3.2-.18-4.12 2.46-6.76 3.84-3.85 7.9-4 12.1-.45 2.46 2.04 3.1 3.36 3.1 6.4 0 7.42-8.93 11.58-14.5 6.75zm32.63-1.67c2.06-1.67 2.36-2.76 2.36-8.75 0-5.6-.44-7.43-2.4-10.2-3.05-4.26-8.05-6.5-11.57-5.15-3.2 1.22-3.2 2.8.05 13.22 4.06 13.02 6.3 15.13 11.55 10.88zm-46.86-2.33c3.67-9.13 6.08-18.95 5.06-20.58-2.8-4.5-11.02-1.54-14.24 5.12-4.28 8.8-1.66 18.7 4.95 18.7 2.35 0 3.16-.63 4.22-3.25zm30.15-20.73c4.8-1.82 2.92-9.14-2.98-11.6-7.14-3-17.8-.86-20.45 4.07-1.8 3.36-.9 6.8 2 7.6 3.84 1.07 18.55 1 21.42-.08zm110.86 59.97c12.4-3.85 22.4-12.63 27.88-24.54 2-4.32 2.3-6.58 2.3-17.48.03-12.18-.07-12.7-3.28-19.25-4.6-9.3-11.36-15.96-20.9-20.52-7.6-3.6-8.08-3.7-19.35-3.7-11.32 0-11.7.07-19.1 3.74-16.42 8.1-24.84 21.64-24.84 39.88 0 13.25 4.52 23.58 14.28 32.58 11.15 10.27 28 13.92 43 9.3zM223 134.65c-3-.85-7.3-2.6-9.52-3.92-5.84-3.4-13.2-11.7-16.3-18.33-2.33-4.93-2.7-7-2.7-15.2 0-8.35.35-10.26 2.88-15.7 3.2-6.92 11.6-15.74 18.17-19.04 26.52-13.34 57.98 7.14 56.25 36.6-.63 10.86-4.24 18.46-12.37 26.06-10.1 9.45-23.84 13.05-36.4 9.54zm26.48-11.34c4.23-2.44 7.5-7.7 7.5-12.07 0-7.9-4.02-7.93-14.7-.1-9.3 6.83-9.7 7.3-8.9 10.52 1.15 4.55 9.57 5.4 16.1 1.65zm-19.5-.12c2.68-2.68 2.53-4.14-.74-7.2-3.15-2.94-16-11.8-17.13-11.8-.4 0-1.6.63-2.66 1.4-2.66 1.95-2.4 8.45.5 12.53 4.6 6.48 15.8 9.3 20.05 5.07zm9.97-13.48c5.1-2.64 7.04-6.14 7.04-12.67 0-5.3-.35-6.25-3.44-9.62-3.33-3.64-3.6-3.73-10.48-3.73-6.6 0-7.26.2-10.24 3.18-2.6 2.6-3.26 4.17-3.63 8.58-.53 6.53 1.4 10.93 6.08 13.78 3.84 2.33 10.64 2.56 14.67.48zm-13.04-6.45c-2-2-2.9-3.92-2.9-6.07 0-4.3 4.68-9 9-9 4.3 0 9 4.7 9 9 0 2.15-.94 4.08-2.94 6.07-3.93 3.93-8.22 3.93-12.15 0zm31.54.3c2.38-.9 4.55-5.73 4.55-10.1 0-9.02-8.16-17.7-14.4-15.32-3.42 1.3-3.37 3.45.36 14.48 3.88 11.47 4.94 12.7 9.48 10.95zm-44.64-5.62c6.2-16.65 6.33-19.9.9-20.56-6.62-.8-12.65 6.6-12.7 15.6-.03 6.86 2.3 10.15 7.16 10.18 2.33 0 2.94-.68 4.64-5.23zm29.62-18.73c5.08-1.93 2.52-9.57-4.04-12.06-6.3-2.4-18.15.34-19.77 4.58-1.3 3.43-.63 6.5 1.64 7.43 3.05 1.22 19 1.26 22.18.05z"/><path fill="#a55357" d="M61.82 445.2c-27.66-4.76-49.43-22.8-58.5-48.5l-2.83-8L.2 225.95C-.08 43.9-.52 55.88 7.18 40.27c3.4-6.9 6-10.36 13.27-17.68 9.9-10 17.02-14.5 30.04-19.1l8-2.8h240l7.5 2.34c29.66 9.27 48.85 32.12 52.05 62 .68 6.35.92 62.97.72 165.16-.36 174.53.34 159.02-7.96 176-3.37 6.9-5.86 10.2-13.23 17.58-7.66 7.67-10.57 9.82-18.58 13.75-17.95 8.8-6.75 8.1-137 8.3-63.54.1-117.6-.2-120.18-.64zm246.07-7.44c16.97-5.92 31.5-18.5 39.04-33.78 7.53-15.27 7.1-4 6.8-184.05L353.5 58.7l-2.84-8c-6.43-18.25-17.78-30.93-34.9-39-15.76-7.46-6.85-7-136.77-7H62.5L54.52 7c-20 5.8-35.15 18.22-43.5 35.7-6.98 14.57-6.54 2.4-6.54 181v162l2.9 8.85c7.16 21.87 25.16 38.67 47.82 44.64 6.98 1.83 11.85 1.9 125.77 1.7l118.5-.2 8.4-2.94zm-196.7-37.12c-9.54-2.57-16.4-6.6-23.96-14.06-14.75-14.56-19.5-34.4-13.17-54.92 4.7-15.2 19.4-29.66 34.2-33.6 5.5-1.5 5.94-2.37 1.6-3.24-9.73-1.94-22.94-11.5-29.42-21.24-20.53-30.94-4.7-72.53 31.17-81.88 12.47-3.24 28.16-1.35 39.87 4.83 12.15 6.42 23.87 21.8 26.04 34.17 1.16 6.58 2.1 7.14 2.83 1.68.9-6.8 7.47-19.63 13-25.4 10.13-10.58 21.48-15.68 36.75-16.5 11.5-.64 17.55.56 27.68 5.47 16.95 8.22 27.58 24.52 28.85 44.25 1.56 24.18-13.9 47.34-35.9 53.8-3.17.94-5.76 1.92-5.76 2.2 0 .27 2.58 1.26 5.74 2.2 22 6.45 37.47 29.6 35.9 53.8-.68 10.63-3.4 18.6-9.28 27.25-10.7 15.72-27.9 23.75-48.16 22.47-14.4-.9-26-6.26-35.84-16.52-5.52-5.76-12.1-18.6-13-25.38-.72-5.47-1.66-4.9-2.82 1.68-.38 2.2-2.28 7.3-4.22 11.35-6.57 13.76-20.92 24.9-36.13 28.05-7.2 1.5-19.58 1.27-26-.46zm32.97-11.7c24.55-12.12 33.23-41.33 18.88-63.53-12.76-19.73-36.85-26.47-57.8-16.17-17 8.37-27.54 28.25-24.4 46 2.97 16.95 14.05 30.14 30 35.7 5.53 1.94 8.24 2.28 16.25 2.02 8.74-.28 10.3-.65 17.07-4zm-31.68-3.74c-11.24-3.76-19.34-11.63-23.57-22.86-3.16-8.36-2.5-22.43 1.4-30.42 9.6-19.6 34.1-27.07 53.97-16.47 26.7 14.23 25.6 54.32-1.87 67.85-8.53 4.2-20.77 4.98-29.94 1.9zm26.25-8.55c8.8-3.68 13.73-12.66 9.86-17.95-1.23-1.7-1.06-2.03 1.76-3.44 7.05-3.52 6.87-15.06-.35-22.28-5.4-5.4-12.04-5.03-12 .67.02 2.83 4.78 17.55 6.57 20.3.8 1.23 1.03 2.25.5 2.25-1.3 0-13.88 8.57-17.33 11.8-3.45 3.22-3.48 5.48-.12 8.12 3.14 2.48 6.14 2.62 11.13.53zm-17-1c4.4-3.1 3-5.9-6.5-12.93-4.83-3.56-9.77-6.48-11-6.5-3.1-.04-5.67 4.18-4.9 8.07 1.87 9.3 15.47 16.2 22.4 11.34zm12.82-15.52c4.08-3.8 5.7-7.73 5.16-12.5-1.15-10.18-12-16.46-20.67-11.97-4 2.07-7.88 7-8.63 10.96-.88 4.7 2.46 11.92 6.74 14.6 4.68 2.94 13.7 2.38 17.4-1.1zm-15.4-4.97c-3.3-3.1-3.07-10.12.45-12.9 6.7-5.26 15.72.5 13.88 8.87-.37 1.68-1.64 3.74-2.82 4.57-3.1 2.17-8.9 1.9-11.5-.54zm-15.88-.2c1.95-1.47 7.7-17.83 7.7-21.97 0-6.26-8.6-5.87-13.48.6-5.24 6.9-5.17 16.38.14 20.55 3.04 2.4 3.4 2.45 5.63.8zm33.46-24.32c3.13-2.2 2.77-5.1-1.08-8.95-7.9-7.9-24.7-4.04-24.7 5.67 0 3.96 2.28 4.76 13.53 4.8 7.5.02 10.6-.37 12.26-1.53zm114.5 58.8c28.64-13.42 35.58-49.5 13.73-71.38-10.42-10.44-25.1-15.45-38.53-13.15-29.83 5.12-46.82 36.65-33.93 63 5.35 10.92 18 21.5 29.06 24.24 2.14.53 8.16.86 13.4.73 8.3-.2 10.34-.63 16.27-3.42zm-31.4-4.5c-21.85-7.65-31.63-32.37-21.23-53.63 7.07-14.44 24.33-23.08 40.44-20.25 17.22 3.04 28.9 14.47 32 31.33 3.12 16.9-6 34.3-21.75 41.52-8.25 3.78-20.45 4.2-29.47 1.05zm27.74-8.66c7.68-3.48 12.3-12.52 9-17.57-1.5-2.24-1.5-2.5-.1-2.5.87 0 2.7-1.2 4.03-2.65 1.98-2.13 2.46-3.7 2.46-8.05 0-2.97-.67-6.68-1.48-8.23-4.58-8.87-15.53-11.02-15.53-3.05 0 3.16 4.38 16.4 6.5 19.65 1.2 1.83 1.25 2.33.2 2.33-.72 0-4.22 2.08-7.76 4.63-12.63 9.06-14.12 11.5-9.32 15.3 3.24 2.55 6.62 2.6 11.98.15zm-17.57-.9c3.66-2.98 2.03-6.15-6.28-12.23-9.58-7-12.04-7.92-14.7-5.5-4.4 3.98-1.26 12.5 6.26 17.02 5.1 3.05 11.45 3.35 14.73.7zm11.06-14.45c12.76-8.54 5.62-28.2-9.64-26.48-10.75 1.2-16.68 13.4-10.84 22.3 4.28 6.54 13.97 8.52 20.47 4.18zm-13.38-4.98c-4.17-3.17-4.16-10.48.02-13.78 7.25-5.7 17.1 2.6 12.85 10.83-.85 1.63-2.27 3.23-3.16 3.58-2.7 1.03-7.97.7-9.72-.63zm-16.03-2c2.32-2.57 7.3-16.87 7.3-21.03 0-3.8-3.7-5.5-8-3.73-9.46 3.9-12.94 18.52-5.82 24.5 3.62 3.05 3.94 3.06 6.5.25zm33.34-23.8c2.1-2.1 1.96-4.9-.43-7.86-1.68-2.13-8.72-5.06-12.1-5.06-3.4 0-10.44 2.93-12.14 5.05-2.38 2.96-2.53 5.74-.42 7.85 1.8 1.8 3.3 2.05 12.55 2.05 9.24 0 10.73-.25 12.54-2.05zm-62.94 1.36c5.03-15.5 19.46-29.7 33.95-33.42 2.72-.7 4.94-1.54 4.94-1.88 0-.35-2.23-1.2-4.95-1.9-10-2.56-21.96-11.62-28.26-21.42-3.57-5.53-7.78-16.5-7.88-20.48-.08-3.2-.38-2.58-3.87 8.23-2.9 8.97-7.32 15.78-14.53 22.36-6.4 5.85-11.32 8.68-19.42 11.22-5.78 1.8-5.76 2.03.4 3.98 15.3 4.86 28.03 17.28 33.28 32.5 1.14 3.3 2.4 7.35 2.82 9 .73 2.9.76 2.93 1.12.5.2-1.38 1.28-5.3 2.38-8.7zm-47.9-44.42c28.23-5.95 43.9-37.05 31.4-62.34-4.66-9.43-11.84-16.56-21.5-21.32-7.38-3.66-7.73-3.72-19.07-3.7-10.75.03-12 .25-18.04 3.1-18.3 8.58-29.43 28.8-26.15 47.5 4.4 25.1 28.82 41.92 53.34 36.76zm-17.17-5.98c-10.92-2.14-21.78-10.58-26.8-20.84-3.8-7.77-4.4-21.95-1.3-30.2 4.37-11.62 12.52-19.3 24.4-23 32.78-10.17 61.2 22.5 46.58 53.58-4.86 10.35-15.47 18.3-27.35 20.47-6.73 1.24-9.2 1.24-15.52 0zm4.32-10.98c3.37-2.64 3.33-4.9-.1-8.12-3.43-3.2-16.06-11.8-17.33-11.8-.5 0-1.83.9-2.93 2-4.7 4.68-.58 13.55 8.5 18.33 4.15 2.2 8.74 2.04 11.85-.4zm20.76-.8c7.08-4.47 10.07-12.84 5.93-16.6-2.76-2.48-5.2-1.58-14.8 5.46-6.38 4.7-8.24 6.6-8.24 8.5 0 5.9 9.63 7.4 17.1 2.65zm-10.5-12.75c7.54-3.57 10.68-13.8 6.23-20.28-3.58-5.22-6.96-7.27-12.1-7.35-6.26-.1-10.7 2.7-13.6 8.52-2.73 5.47-2.4 9.86 1.04 14.24 4.88 6.2 11.78 8.03 18.43 4.87zm-11.98-6.45c-2.13-1.67-2.63-2.9-2.63-6.46 0-5.52 2.75-8.46 7.95-8.46 4.6 0 7.7 2.2 8.55 6.06 1.84 8.37-7.18 14.13-13.88 8.86zm31.66-.94c5.48-4.3 5.55-13.47.18-20.6-4.84-6.38-13.47-6.84-13.47-.7 0 3.95 5.13 19.1 7.25 21.37 2.27 2.43 2.85 2.43 6.03-.07zm-46.82-1.3c2.13-3.26 6.53-16.5 6.53-19.66 0-5.52-5.76-6.8-10.96-2.42-3.6 3.03-5.05 5.48-6.17 10.37-2.13 9.34 6.15 18.5 10.6 11.7zm33.65-24.04c1.5-3.3-1.02-7.9-5.47-10-8.77-4.17-21.64.2-21.64 7.33 0 4.5 1.47 5.03 14.2 5.03 11.46 0 11.86-.08 12.9-2.36zm104.1 63.23c16.54-3.5 30.95-17.6 34.73-34 2.25-9.76.48-21.65-4.63-31.05-3.76-6.9-13.02-15.32-21.03-19.1-6.42-3.05-7.4-3.22-18.34-3.22-11.33 0-11.7.07-19.14 3.75-17.9 8.83-28.43 28.58-25.03 46.86 4.74 25.48 28.75 42 53.42 36.77zm-17.17-5.97c-10.96-2.15-21.64-10.3-26.5-20.23-9.48-19.36-1.7-42.63 17.35-51.93 6.16-3 7.32-3.23 17.13-3.24 9.88 0 10.94.2 17.18 3.27 33.28 16.4 26.4 65.28-10.15 72.22-6.1 1.14-8.76 1.13-15-.1zm4.38-11.02c4.08-3.2 3.04-5.66-4.9-11.7-9.67-7.3-12.06-8.5-14.5-7.18-4.12 2.2-3.83 8.7.6 13.96 5.56 6.6 13.9 8.78 18.8 4.92zm18.5.67c3.7-1.92 8.9-7.92 9.73-11.25.9-3.6-1.5-7.73-4.68-8.05-3.78-.38-19.96 11.93-19.96 15.18 0 4.96 8.63 7.35 14.9 4.12zm-6.16-15.37c6.3-4.5 7.95-14.08 3.47-20.1-8.56-11.5-26.7-6.12-26.7 7.92 0 5.5 2.1 9.08 7.58 12.84 4.2 2.88 11.1 2.6 15.66-.66zm-14-5.16c-2.96-2.33-3.93-6.22-2.54-10.2 1.2-3.46 3.5-4.82 8.1-4.82 5.2 0 8.14 2.88 8.14 8 0 7.53-7.9 11.58-13.7 7.02zm32.32-1.95c2.5-2.5 2.92-3.68 2.9-8.25 0-6.7-3.15-12.58-8.15-15.28-4.75-2.56-8.8-1.1-8.8 3.2 0 4.25 5.63 20.53 7.6 21.97 2.5 1.83 3.18 1.66 6.46-1.63zm-47.66-.32c1.8-2.75 6.56-17.47 6.57-20.3.02-2.86-1.87-4.45-5.3-4.45-6.36 0-13.8 11.64-12.18 19.03 1.54 7.04 7.88 10.36 10.9 5.72zm33.75-24.2c.9-2 .8-2.98-.58-5.06-6.32-9.66-23.83-8.27-27 2.14-1.32 4.34 1.43 5.36 14.5 5.36 11.73 0 11.98-.05 13.08-2.46zM110.1 148.6c-25.28-6.8-42.06-32.76-38.24-59.17 3.02-20.86 17.96-37.8 38.63-43.82 6.94-2.02 20.45-2.26 28-.5 19.03 4.5 35.48 21.5 39.6 40.95l1.17 5.62 1.35-6.5c4.93-23.84 26.25-40.97 51.37-41.27 15.84-.2 28.3 4.67 39.08 15.27 14.82 14.56 19.72 36.64 12.53 56.46-5.78 15.94-18 27.48-34.47 32.57-8.06 2.5-23.37 2.67-31.2.37-18.9-5.55-33.46-21-37.38-39.65-1.2-5.7-1.38-6-2.03-3.25-5.47 23.1-17.67 36.7-38.47 42.88-6.8 2.02-22.5 2.04-29.95.04zm29.9-9.56c27.92-9.57 38.96-44.02 21.63-67.56-17.1-23.23-48.77-25.42-68.62-4.75-16.83 17.54-16.97 42.5-.3 60.5 12.05 13.02 30.38 17.6 47.3 11.8zm-26.73-5.3c-9.9-3.1-17.8-9.9-23-19.78-2.58-4.9-2.78-6.13-2.78-16.78 0-10.97.13-11.8 3.14-17.54 3.84-7.33 10.56-13.74 18.17-17.3 5.08-2.38 6.86-2.66 16.7-2.66 10.12 0 11.46.23 16.93 2.92 7.85 3.85 14 10.16 17.88 18.38 2.9 6.07 3.2 7.6 3.18 16.2 0 8.18-.38 10.3-2.68 15.2-5 10.72-12.52 17.56-23.24 21.15-5.9 1.97-18.27 2.08-24.3.2zm9.1-10.5c3.26-3.26 1.46-6.15-8.04-12.9-4.8-3.38-9.3-6.16-10.05-6.16-1.1 0-1.06-.43.12-2.25 1.98-3.04 6.56-17.6 6.57-20.9 0-1.5-.67-2.9-1.57-3.25-7.66-2.94-15.64 5.05-15.64 15.64 0 4 .5 5.44 2.8 7.83 1.54 1.6 3.4 2.93 4.14 2.93 1.03 0 .96.56-.3 2.5-2.46 3.74-1.1 8.8 3.6 13.5 6.06 6.07 14.03 7.4 18.36 3.06zm17.2 1.33c4.07-1.94 9.15-7.48 10-10.92.9-3.5-.26-7.24-2.6-8.48-2.42-1.3-4.74-.15-14.48 7.23-7.96 6.02-9 8.46-4.93 11.65 3.2 2.53 7.38 2.7 12 .5zm-6.6-15.22c9.65-7.14 9.1-19.53-1.1-24.98-9.93-5.32-21.27 1.5-21.27 12.77 0 4.06.57 5.7 3.04 8.76 5.04 6.26 13.5 7.77 19.32 3.45zm-13.98-6.18c-2-2-2.68-7.1-1.4-10.46.35-.9 1.96-2.3 3.58-3.14 8.32-4.3 16.52 5.6 10.73 12.96-2.67 3.4-9.8 3.76-12.9.64zm33.38-.9c4.97-5.48 3.9-15.03-2.37-21.32-5.63-5.63-12.02-5-12 1.17 0 3.08 4.5 16.66 6.56 19.8 1.8 2.75 5.5 2.92 7.82.36zm-15.22-23.76c2.24-2.03 2.32-4.2.27-7.13-3.96-5.63-15.22-7.36-21.75-3.33-3.73 2.3-4.7 3.88-4.7 7.66 0 3.6 2.55 4.4 13.93 4.44 8.33.02 10.8-.3 12.26-1.63zm110.6 60.48c17.25-5.5 30.2-23.44 30.2-41.82 0-21.48-16.4-40.4-38.22-44.07-23.57-3.97-46.86 13.1-51.02 37.42-2.2 12.86 2.04 26.28 11.46 36.28 13.2 14.02 29.1 18.1 47.57 12.2zm-26.5-5.23c-22.03-7.14-32.85-31.68-23.4-53.07 2.83-6.37 11.03-14.67 17.86-18.05 7.5-3.72 21.28-4.67 29.5-2.04 11.03 3.52 20.2 12.38 24.4 23.56 2.57 6.85 2.3 20-.54 27.28-3.17 8.1-11.26 16.6-19.3 20.3-5.22 2.4-7.83 2.92-15.3 3.13-5.54.16-10.6-.27-13.2-1.1zm8.9-10.27c3.76-3.4 2-5.96-10.03-14.7-6.94-5.05-8.55-5.48-11.3-2.98-3.8 3.42-1.53 11.2 4.6 15.86 6.1 4.68 12.8 5.4 16.74 1.83zm20.37-.8c4.38-3.34 7.45-8.12 7.45-11.6 0-2.47-3.17-6.93-4.93-6.93-1.14 0-10.46 6.28-15.8 10.66-4.87 3.97-5.55 7.3-2 9.85 3.35 2.44 10.75 1.5 15.28-1.97zm-9.57-13.35c6.36-4.7 8.65-12.15 5.56-18.1-2.07-4.02-7-7.9-11-8.64-10.24-1.92-19.86 8.98-16.6 18.83 3.02 9.16 14.7 13.35 22.04 7.9zm-13.24-5.43c-3.9-2.97-4.2-10.12-.55-13.42 2.87-2.6 9.23-2.36 12.04.44 2.87 2.86 3.05 9.17.36 12.15-2.17 2.4-9.13 2.88-11.84.83zm-16.43-1c1.76-1.33 7.7-17.66 7.7-21.24 0-3.03-1.92-4.5-5.85-4.5-2.6 0-4.2.8-6.6 3.35-5.96 6.33-6.87 15.87-2 21.1 2.6 2.84 4.25 3.15 6.74 1.3zm49.23-1.2c1.96-1.97 2.46-3.48 2.46-7.54 0-6.4-1.86-10.86-5.95-14.3-5.27-4.43-11.06-3.25-11.06 2.24 0 3.48 4.9 18.15 6.77 20.3 2.12 2.44 4.87 2.2 7.76-.7zM245.5 78.16c1.73-1.9 1.74-2.22.2-5.45-2.1-4.38-6.8-6.8-13.2-6.8-6.2 0-10.97 2.32-13.06 6.37-1.45 2.78-1.44 3.26 0 5.47 1.53 2.33 2.04 2.43 12.9 2.43 10.1 0 11.53-.22 13.17-2.03z"/><path fill="#666973" d="M61.82 445.2c-27.66-4.76-49.43-22.8-58.5-48.5l-2.83-8L.2 225.95C-.08 43.9-.52 55.88 7.18 40.27c3.4-6.9 6-10.36 13.27-17.68 9.9-10 17.02-14.5 30.04-19.1l8-2.8h240l7.5 2.34c29.66 9.27 48.85 32.12 52.05 62 .68 6.35.92 62.97.72 165.16-.36 174.53.34 159.02-7.96 176-3.37 6.9-5.86 10.2-13.23 17.58-7.66 7.67-10.57 9.82-18.58 13.75-17.95 8.8-6.75 8.1-137 8.3-63.54.1-117.6-.2-120.18-.64zm246.07-7.44c16.97-5.92 31.5-18.5 39.04-33.78 7.53-15.27 7.1-4 6.8-184.05L353.5 58.7l-2.84-8c-6.43-18.25-17.78-30.93-34.9-39-15.76-7.46-6.85-7-136.77-7H62.5L54.52 7c-20 5.8-35.15 18.22-43.5 35.7-6.98 14.57-6.54 2.4-6.54 181v162l2.9 8.85c7.16 21.87 25.16 38.67 47.82 44.64 6.98 1.83 11.85 1.9 125.77 1.7l118.5-.2 8.4-2.94zm-196.7-37.12c-9.54-2.57-16.4-6.6-23.96-14.06-14.75-14.56-19.5-34.4-13.17-54.92 4.7-15.2 19.4-29.66 34.2-33.6 5.5-1.5 5.94-2.37 1.6-3.24-9.73-1.94-22.94-11.5-29.42-21.24-20.53-30.94-4.7-72.53 31.17-81.88 12.47-3.24 28.16-1.35 39.87 4.83 12.15 6.42 23.87 21.8 26.04 34.17 1.16 6.58 2.1 7.14 2.83 1.68.9-6.8 7.47-19.63 13-25.4 10.13-10.58 21.48-15.68 36.75-16.5 11.5-.64 17.55.56 27.68 5.47 16.95 8.22 27.58 24.52 28.85 44.25 1.56 24.18-13.9 47.34-35.9 53.8-3.17.94-5.76 1.92-5.76 2.2 0 .27 2.58 1.26 5.74 2.2 22 6.45 37.47 29.6 35.9 53.8-.68 10.63-3.4 18.6-9.28 27.25-10.7 15.72-27.9 23.75-48.16 22.47-14.4-.9-26-6.26-35.84-16.52-5.52-5.76-12.1-18.6-13-25.38-.72-5.47-1.66-4.9-2.82 1.68-.38 2.2-2.28 7.3-4.22 11.35-6.57 13.76-20.92 24.9-36.13 28.05-7.2 1.5-19.58 1.27-26-.46zm32.97-11.7c24.55-12.12 33.23-41.33 18.88-63.53-12.76-19.73-36.85-26.47-57.8-16.17-17 8.37-27.54 28.25-24.4 46 2.97 16.95 14.05 30.14 30 35.7 5.53 1.94 8.24 2.28 16.25 2.02 8.74-.28 10.3-.65 17.07-4zm-29.25-3.1c-9.97-2.7-20.86-11.95-25.17-21.38-1.78-3.9-2.2-6.67-2.22-15.26-.04-9.33.25-11.14 2.62-16.18 11.1-23.67 41.7-29.88 60.67-12.32 9.6 8.88 14.03 19.94 12.8 31.84-.75 7.04-4.9 16.63-9.5 21.87-9.18 10.45-25.36 15.16-39.2 11.43zm27.33-10.63c4.57-3.13 6.86-6.54 7.48-11.1.4-2.93.06-4.46-1.26-5.93-1.73-1.9-1.72-1.97.2-1.97 2.48 0 4.94-2.63 6.4-6.82 1.66-4.74-.46-12.38-4.66-16.83-3-3.2-3.8-3.52-7.72-3.2-3.66.3-4.3.08-3.95-1.3.8-3.02-2.5-7.54-6.73-9.23-9.76-3.9-21 .4-21 8.02 0 4.84 2.2 5.58 15.58 5.2l11.4-.34v2.5c0 3.27 4.88 18.1 6.54 19.88 1.08 1.14.64 1.73-2.6 3.5-2.14 1.16-6.85 4.27-10.47 6.9-6 4.37-6.56 5.08-6.27 7.98.2 2.2 1.08 3.6 2.8 4.5 3.43 1.8 10.33.96 14.27-1.75zm-19.84.08c3.04-3.35 1.6-6.13-6.4-12.34-4.14-3.2-8.73-6.08-10.2-6.4-2.54-.54-2.62-.7-1.26-2.78 2.26-3.46 6.45-16.56 6.45-20.2 0-8.23-11.18-6-15.78 3.14-3.28 6.53-1.72 16.02 3.02 18.3 2.28 1.08 2.58 1.64 1.75 3.2-2.17 4.02-.52 10.42 3.64 14.18 5.54 5.02 15.47 6.55 18.77 2.9zm11.17-13.97c6.07-3.7 8.27-13.56 4.42-19.86-3.18-5.2-7.58-7.42-13.8-6.96-6.6.48-10.1 2.98-12.6 8.95-2.6 6.23-1.6 11.03 3.35 15.97 3.54 3.53 4.2 3.8 9.67 3.8 3.97 0 6.86-.62 8.95-1.9zm-14.13-6.56c-4.05-4.04-3.24-10.57 1.62-13.08 4.2-2.17 6.75-1.8 10 1.46 3.63 3.62 3.73 6.97.34 11-3.35 3.98-8.35 4.24-11.96.62zm131.83 34.7c28.63-13.42 35.57-49.5 13.72-71.38-10.42-10.44-25.1-15.45-38.53-13.15-29.83 5.12-46.82 36.65-33.93 63 5.35 10.92 18 21.5 29.06 24.24 2.14.53 8.16.86 13.4.73 8.3-.2 10.34-.63 16.27-3.42zm-28.78-3.6c-6.93-2.28-12.12-5.4-16.83-10.1-18.42-18.44-13.2-49.14 10.35-60.93 15.85-7.9 33.24-4.64 45.46 8.57 17.64 19.05 11.54 48.96-12.25 60.1-5.38 2.5-8.2 3.16-14.7 3.4-4.82.2-9.64-.22-12.04-1.02zm24.25-9.2c9.02-3.76 13.67-12.52 9.68-18.22-1.45-2.07-1.42-2.22.43-2.22 3.48 0 6.13-4.63 6.13-10.74 0-10.1-5.16-16.7-12.57-16.1-3.75.3-4.04.16-3.64-1.9.3-1.57-.6-3.26-3-5.66-7.67-7.66-22.98-4.9-25.33 4.57-.53 2.16-.17 3 1.92 4.35 2.13 1.4 4.53 1.63 14.08 1.33l11.5-.37.02 2.5c0 2.57 4.27 16.8 5.97 19.98.73 1.38.42 2-1.47 2.85-1.33.6-5.84 3.64-10.02 6.73-6.97 5.16-7.58 5.9-7.3 8.78.52 5.3 6.48 7.1 13.57 4.15zm-16.34-1.36c3.16-3.48 1.64-6.15-7.33-12.82-5.12-3.8-9.4-6.26-10.94-6.26-2.25 0-2.34-.14-.84-1.25 1.94-1.45 7.7-17.8 7.7-21.9 0-3.4-2.97-5.24-7.03-4.35-5.22 1.15-10.96 9.9-10.98 16.78-.02 3.4 2.9 8.72 5.4 9.86 2 .9 2.3 1.5 1.55 2.93-2.63 4.9.45 12.27 6.96 16.65 4.46 3 12.94 3.2 15.5.36zm10.6-13.74c3.6-2.14 7-8.18 6.98-12.48 0-8-6.78-14.86-14.7-14.86-14.26 0-20.47 16.5-9.75 25.9 3.04 2.67 4.3 3.1 9.1 3.1 3.37 0 6.65-.65 8.36-1.66zm-13.26-6.32c-6.87-5.4-1.32-16.4 7.32-14.5 6.3 1.37 8.5 9.12 3.95 13.95-2.9 3.1-7.7 3.34-11.26.55zm-45.64-23.7c5.03-15.52 19.46-29.72 33.95-33.44 2.72-.7 4.94-1.54 4.94-1.88 0-.35-2.23-1.2-4.95-1.9-10-2.56-21.96-11.62-28.26-21.42-3.57-5.53-7.78-16.5-7.88-20.48-.08-3.2-.38-2.58-3.87 8.23-2.9 8.97-7.32 15.78-14.53 22.36-6.4 5.85-11.32 8.68-19.42 11.22-5.78 1.8-5.76 2.03.4 3.98 15.3 4.86 28.03 17.28 33.28 32.5 1.14 3.3 2.4 7.35 2.82 9 .73 2.9.76 2.93 1.12.5.2-1.38 1.28-5.3 2.38-8.7zm-47.9-44.44c28.23-5.95 43.9-37.05 31.4-62.34-4.66-9.43-11.84-16.56-21.5-21.32-7.38-3.66-7.73-3.72-19.07-3.7-10.75.03-12 .25-18.04 3.1-18.3 8.58-29.43 28.8-26.15 47.5 4.4 25.1 28.82 41.92 53.34 36.76zm-17.2-6.2c-11.84-2.7-21.76-10.64-26.85-21.5-2.36-5.03-2.66-6.9-2.66-16.18 0-9.42.28-11.08 2.75-16.12 3.45-7.04 11.95-15.18 19.43-18.6 14.54-6.66 33.87-2.52 44.43 9.5 4.6 5.24 8.77 14.83 9.5 21.88 1.25 11.9-3.2 22.95-12.78 31.83-9.16 8.47-21.83 11.9-33.83 9.18zm4.76-10.24c1.43-1 2.23-2.6 2.23-4.45 0-2.5-1.25-3.8-9.17-9.45-5.03-3.6-9.46-6.55-9.84-6.55-.4 0 .8-4.32 2.64-9.6 1.84-5.27 3.35-10.8 3.35-12.25l-.02-2.65h13.14c11.27 0 13.3-.24 14.22-1.7 2.74-4.35-3.12-10.68-10.68-11.54-9.5-1.07-16.67 2.62-16.67 8.57 0 2.86-.1 2.9-4.37 2.43-3.95-.45-4.68-.16-7.9 3.06-5.9 5.9-6.94 16.5-2.12 21.8.94 1.04 2.54 1.88 3.56 1.88 1.77 0 1.78.13.22 2.52-2.03 3.1-1.4 8.28 1.54 12.38 4.22 5.92 15 8.93 19.84 5.54zm20.3-.72c6.43-4.33 9.76-12.28 6.98-16.67-.68-1.08-.17-1.9 1.95-3.2 2.53-1.54 4.98-6.63 4.98-10.35 0-3.15-2.5-9-5.1-11.96-5.08-5.8-12.9-5.65-12.88.24.02 3.5 4.43 17.72 6.47 20.83 1.45 2.23 1.43 2.4-.3 2.4-3.03 0-18.63 12.18-19 14.84-.9 6.12 9.9 8.6 16.9 3.88zm-9.3-13.72c6.7-4.1 9.04-12.37 5.58-19.68-4.2-8.82-17.16-10.45-24-3-4.5 4.9-5.22 10.35-2.2 16.45 3.86 7.78 13.36 10.65 20.6 6.23zm-11.27-5.12c-7.67-4.34-4.96-15.94 3.7-15.85 10.5.1 11.6 14.62 1.22 16.47-1.6.28-3.83 0-4.93-.62zm120.7 36c16.54-3.52 30.95-17.62 34.73-34 2.25-9.77.48-21.66-4.63-31.06-3.76-6.9-13.02-15.32-21.03-19.1-6.42-3.05-7.4-3.22-18.34-3.22-11.33 0-11.7.07-19.14 3.75-17.9 8.83-28.43 28.58-25.03 46.86 4.74 25.48 28.75 42 53.42 36.77zm-17.2-6.25c-7.3-1.6-15.2-6.02-20-11.22-17.84-19.35-12-49.46 11.76-60.72 6.1-2.88 7.62-3.18 16.23-3.18 8.58 0 10.12.3 16.2 3.17 23.85 11.3 29.94 41.1 12.28 60.16-5.9 6.38-13.48 10.65-21.6 12.2-6.27 1.18-7.86 1.13-14.9-.4zm4.76-10.2c2.46-1.7 2.9-5.2.98-7.64-1.37-1.74-16.14-12.43-18.07-13.08-.88-.3-.9-.76-.07-1.8 1.6-2.04 6.4-16.96 6.38-19.93v-2.5l12.84.3c14.64.35 16.18-.3 14.55-5.97-1.28-4.47-5.3-7.08-11.73-7.6-9.35-.8-15.83 2.68-16.05 8.6-.1 2.76-.26 2.84-4.37 2.38-3.9-.42-4.56-.14-7.73 3.2-4 4.24-5.97 10.35-5 15.5.77 4.24 4.02 8.1 6.82 8.1 1.85 0 1.87.1.32 1.83-2.4 2.66-2.06 8.1.8 12.3 4.46 6.58 15.2 9.9 20.32 6.3zm21.96-2.1c4.83-3.87 7.2-10.02 5.55-14.38-1.05-2.8-.95-3.13 1.22-3.96 1.3-.5 2.84-1.8 3.43-2.9 1.4-2.6 1.36-12.65-.07-15.42-4.76-9.27-15.87-11.66-15.87-3.4 0 4 4.7 18.6 6.77 20.97 1.4 1.6 1.35 1.75-.47 1.75-1.1 0-4.65 1.87-7.9 4.15-11.55 8.12-13.4 11-9.67 15.12 2.8 3.08 12.07 2.03 17-1.93zm-10.63-12.6c12.6-8.42 6.9-26.96-8.28-26.96-5.44 0-8.6 1.7-12.27 6.6-2.86 3.84-2.86 12.4 0 16.3 4.63 6.3 14.3 8.22 20.54 4.06zm-12.35-5.26c-4.76-2.65-5.35-9.45-1.15-13.22 5.5-4.94 13.8-1.15 13.8 6.3 0 6.32-6.93 10.1-12.65 6.92zM110.1 148.62c-25.28-6.8-42.06-32.76-38.24-59.17 3.02-20.86 17.96-37.8 38.63-43.82 6.94-2.02 20.45-2.26 28-.5 19.03 4.5 35.48 21.5 39.6 40.95l1.17 5.62 1.35-6.5c4.93-23.84 26.25-40.97 51.37-41.27 15.84-.2 28.3 4.67 39.08 15.27 14.82 14.56 19.72 36.64 12.53 56.46-5.78 15.94-18 27.48-34.47 32.57-8.06 2.5-23.37 2.67-31.2.37-18.9-5.55-33.46-21-37.38-39.65-1.2-5.7-1.38-6-2.03-3.25-5.47 23.1-17.67 36.7-38.47 42.88-6.8 2.02-22.5 2.04-29.95.04zm29.9-9.56c27.92-9.57 38.96-44.02 21.63-67.56-17.1-23.23-48.77-25.42-68.62-4.75-16.83 17.54-16.97 42.5-.3 60.5 12.05 13.02 30.38 17.6 47.3 11.8zm-26.73-5.3c-9.9-3.1-17.8-9.9-23-19.78-2.58-4.9-2.78-6.13-2.78-16.78 0-10.97.13-11.8 3.14-17.54 3.84-7.33 10.56-13.74 18.17-17.3 5.08-2.38 6.86-2.66 16.7-2.66 10.12 0 11.46.23 16.93 2.92 7.85 3.85 14 10.16 17.88 18.38 2.9 6.07 3.2 7.6 3.18 16.2 0 8.18-.38 10.3-2.68 15.2-5 10.72-12.52 17.56-23.24 21.15-5.9 1.97-18.27 2.08-24.3.2zm9.1-10.5c3.26-3.26 1.46-6.15-8.04-12.9-4.8-3.38-9.3-6.16-10.05-6.16-1.1 0-1.06-.43.12-2.25 1.98-3.04 6.56-17.6 6.57-20.9 0-1.5-.67-2.9-1.57-3.25-7.66-2.94-15.64 5.05-15.64 15.64 0 4 .5 5.44 2.8 7.83 1.54 1.6 3.4 2.93 4.14 2.93 1.03 0 .96.56-.3 2.5-2.46 3.74-1.1 8.8 3.6 13.5 6.06 6.07 14.03 7.4 18.36 3.06zm17.2 1.33c4.07-1.94 9.15-7.48 10-10.92.9-3.5-.26-7.24-2.6-8.48-2.42-1.3-4.74-.15-14.48 7.23-7.96 6.02-9 8.46-4.93 11.65 3.2 2.53 7.38 2.7 12 .5zm-6.6-15.22c9.65-7.14 9.1-19.53-1.1-24.98-9.93-5.32-21.27 1.5-21.27 12.77 0 4.06.57 5.7 3.04 8.76 5.04 6.26 13.5 7.77 19.32 3.45zm-13.98-6.18c-2-2-2.68-7.1-1.4-10.46.35-.9 1.96-2.3 3.58-3.14 8.32-4.3 16.52 5.6 10.73 12.96-2.67 3.4-9.8 3.76-12.9.64zm33.38-.9c4.97-5.48 3.9-15.03-2.37-21.32-5.63-5.63-12.02-5-12 1.17 0 3.08 4.5 16.66 6.56 19.8 1.8 2.75 5.5 2.92 7.82.36zm-15.22-23.76c2.24-2.03 2.32-4.2.27-7.13-3.96-5.63-15.22-7.36-21.75-3.33-3.73 2.3-4.7 3.88-4.7 7.66 0 3.6 2.55 4.4 13.93 4.44 8.33.02 10.8-.3 12.26-1.63zm110.6 60.48c17.25-5.5 30.2-23.44 30.2-41.82 0-21.48-16.4-40.4-38.22-44.07-23.57-3.97-46.86 13.1-51.02 37.42-2.2 12.86 2.04 26.28 11.46 36.28 13.2 14.02 29.1 18.1 47.57 12.2zm-26.5-5.23c-22.03-7.14-32.85-31.68-23.4-53.07 2.83-6.37 11.03-14.67 17.86-18.05 7.5-3.72 21.28-4.67 29.5-2.04 11.03 3.52 20.2 12.38 24.4 23.56 2.57 6.85 2.3 20-.54 27.28-3.17 8.1-11.26 16.6-19.3 20.3-5.22 2.4-7.83 2.92-15.3 3.13-5.54.16-10.6-.27-13.2-1.1zm8.9-10.27c3.76-3.4 2-5.96-10.03-14.7-6.94-5.05-8.55-5.48-11.3-2.98-3.8 3.42-1.53 11.2 4.6 15.86 6.1 4.68 12.8 5.4 16.74 1.83zm20.37-.8c4.38-3.34 7.45-8.12 7.45-11.6 0-2.47-3.17-6.93-4.93-6.93-1.14 0-10.46 6.28-15.8 10.66-4.87 3.97-5.55 7.3-2 9.85 3.35 2.44 10.75 1.5 15.28-1.97zm-9.57-13.35c6.36-4.7 8.65-12.15 5.56-18.1-2.07-4.02-7-7.9-11-8.64-10.24-1.92-19.86 8.98-16.6 18.83 3.02 9.16 14.7 13.35 22.04 7.9zm-13.24-5.43c-3.9-2.97-4.2-10.12-.55-13.42 2.87-2.6 9.23-2.36 12.04.44 2.87 2.86 3.05 9.17.36 12.15-2.17 2.4-9.13 2.88-11.84.83zm-16.43-1c1.76-1.33 7.7-17.66 7.7-21.24 0-3.03-1.92-4.5-5.85-4.5-2.6 0-4.2.8-6.6 3.35-5.96 6.33-6.87 15.87-2 21.1 2.6 2.84 4.25 3.15 6.74 1.3zm49.23-1.2c1.96-1.97 2.46-3.48 2.46-7.54 0-6.4-1.86-10.86-5.95-14.3-5.27-4.43-11.06-3.25-11.06 2.24 0 3.48 4.9 18.15 6.77 20.3 2.12 2.44 4.87 2.2 7.76-.7zM245.5 78.16c1.73-1.9 1.74-2.22.2-5.45-2.1-4.38-6.8-6.8-13.2-6.8-6.2 0-10.97 2.32-13.06 6.37-1.45 2.78-1.44 3.26 0 5.47 1.53 2.33 2.04 2.43 12.9 2.43 10.1 0 11.53-.22 13.17-2.03z"/><path fill="#871a1f" d="M56.5 443.73c-23.15-5.05-43.56-22.2-51.56-43.33-5.1-13.47-5.02-10-4.7-181.77C.58 38.78-.16 55.1 8.27 38.7c3.07-6 6.25-10.15 12.66-16.56C30.43 12.64 39.7 7.12 53 3.04l7.5-2.3 113-.32c77.76-.22 115.58.02 121.3.78 31.24 4.1 55.73 26.16 61.64 55.5 1.44 7.18 1.58 24.5 1.32 170l-.27 162-2.95 8.4c-7.9 22.67-27.23 40.15-50.97 46.1-7.68 1.94-11.36 2-124.5 1.92-92.1-.07-117.85-.36-122.6-1.4zm246-3.8c3.3-.97 9.8-3.6 14.5-5.88 11.5-5.6 24.76-18.7 30.2-29.85 7.8-16.06 7.17-1.26 7.55-174 .22-101.86-.02-157.8-.7-164.17-1.82-17-7.77-29.52-19.63-41.3-8.28-8.23-16.8-13.52-27.93-17.3l-8-2.73L183 4.4c-81.2-.2-117.44.05-122 .83C36.9 9.35 16.66 26.16 7.66 49.5L4.5 57.7l-.3 162c-.3 181.54-.78 169.14 7.03 184.75C16 414 27.8 426.55 37.15 432.02c6.64 3.9 17.36 7.78 24.96 9.06 3.05.52 55.07.84 119.9.75 105.6-.15 114.95-.3 120.5-1.9zm-192-39.6c-26.7-7.67-43.6-34.8-38.1-61.13 4.1-19.64 18.35-35.76 36.34-41.07 2.33-.7 4.25-1.56 4.25-1.93 0-.38-1.93-1.25-4.26-1.94-12.6-3.72-26.23-15.44-31.8-27.32-4.16-8.92-6.27-19.64-5.45-27.74 2.85-28.2 25.64-49 53.67-49 24.54 0 46.1 16.74 52.3 40.64 1.7 6.5 2.52 7.82 2.52 4.07 0-1.43 1.04-5.53 2.34-9.1 7.86-21.66 27.7-35.6 50.65-35.6 14.8 0 27.48 5.28 38.1 15.9 11.28 11.28 16.6 25.2 15.54 40.6-1.36 19.65-11.97 35.52-29.65 44.37-4.54 2.27-9.1 4.13-10.13 4.13-1.04 0-1.88.45-1.88 1s.83 1 1.87 1c3.06 0 17.24 7.6 22.26 11.96 9.87 8.53 16.58 22.52 17.53 36.5 1.04 15.44-4.22 29.08-15.66 40.65-27.8 28.13-75.12 17.6-88.66-19.72-1.3-3.56-2.35-7.65-2.35-9.1 0-3.75-.82-2.43-2.52 4.07-4.92 18.9-20.2 34.2-39.05 39.12-7.63 2-20.38 1.83-27.94-.34zm31.5-9.96c10.95-4.3 20.73-14.05 25.22-25.17 1.82-4.5 2.23-7.5 2.25-16.5.02-10.6-.12-11.28-3.6-18.57-13.57-28.42-50.22-34.74-72.46-12.5-24 24.02-13.92 63.3 19.1 74.22 6.13 2.03 22.63 1.2 29.5-1.48zm-27.08-4.54c-9.97-2.7-20.86-11.94-25.17-21.37-1.78-3.9-2.2-6.67-2.22-15.26-.04-9.33.25-11.14 2.62-16.18 11.1-23.67 41.7-29.88 60.67-12.32 9.6 8.88 14.03 19.94 12.8 31.84-.75 7.04-4.9 16.63-9.5 21.87-9.18 10.45-25.36 15.16-39.2 11.43zm27.33-10.62c4.57-3.13 6.86-6.54 7.48-11.1.4-2.93.06-4.46-1.26-5.93-1.73-1.9-1.72-1.97.2-1.97 2.48 0 4.94-2.63 6.4-6.82 1.66-4.74-.46-12.38-4.66-16.83-3-3.2-3.8-3.52-7.72-3.2-3.66.3-4.3.08-3.95-1.3.8-3.02-2.5-7.54-6.73-9.23-9.76-3.9-21 .4-21 8.02 0 4.84 2.2 5.58 15.58 5.2l11.4-.34v2.5c0 3.27 4.88 18.1 6.54 19.88 1.08 1.14.64 1.73-2.6 3.5-2.14 1.16-6.85 4.27-10.47 6.9-6 4.37-6.56 5.08-6.27 7.98.2 2.2 1.08 3.6 2.8 4.5 3.43 1.8 10.33.96 14.27-1.75zm-19.84.08c3.04-3.35 1.6-6.13-6.4-12.34-4.14-3.2-8.73-6.08-10.2-6.4-2.54-.54-2.62-.7-1.26-2.78 2.26-3.46 6.45-16.56 6.45-20.2 0-8.23-11.18-6-15.78 3.14-3.28 6.53-1.72 16.02 3.02 18.3 2.28 1.08 2.58 1.64 1.75 3.2-2.17 4.02-.52 10.42 3.64 14.18 5.54 5.02 15.47 6.55 18.77 2.9zm11.17-13.97c6.07-3.7 8.27-13.56 4.42-19.86-3.18-5.2-7.58-7.42-13.8-6.96-6.6.48-10.1 2.98-12.6 8.95-2.6 6.23-1.6 11.03 3.35 15.97 3.54 3.53 4.2 3.8 9.67 3.8 3.97 0 6.86-.62 8.95-1.9zm-14.13-6.56c-4.05-4.04-3.24-10.57 1.62-13.08 4.2-2.17 6.75-1.8 10 1.46 3.63 3.62 3.73 6.97.34 11-3.35 3.98-8.35 4.24-11.96.62zm127.93 36.42c12-3.7 23.2-14.47 28.06-26.96 4-10.32 3-24.82-2.5-35.82-3.33-6.64-12.3-15.8-18.7-19.06-13.42-6.84-30.2-6.62-43.42.57-6.52 3.54-15.34 13.02-18.46 19.83-9.17 20.04-2.6 44.14 15.27 56 3.14 2.08 8.2 4.58 11.3 5.57 7.83 2.5 20.1 2.45 28.47-.14zm-24.88-5.3c-6.93-2.3-12.12-5.43-16.83-10.13-18.42-18.43-13.2-49.13 10.35-60.92 15.85-7.9 33.24-4.64 45.46 8.57 17.64 19.05 11.54 48.96-12.25 60.1-5.38 2.5-8.2 3.16-14.7 3.4-4.82.2-9.64-.22-12.04-1.02zm24.25-9.2c9.02-3.78 13.67-12.54 9.68-18.24-1.45-2.07-1.42-2.22.43-2.22 3.48 0 6.13-4.63 6.13-10.74 0-10.1-5.16-16.7-12.57-16.1-3.75.3-4.04.16-3.64-1.9.3-1.57-.6-3.26-3-5.66-7.67-7.66-22.98-4.9-25.33 4.57-.53 2.16-.17 3 1.92 4.35 2.13 1.4 4.53 1.63 14.08 1.33l11.5-.37.02 2.5c0 2.57 4.27 16.8 5.97 19.98.73 1.38.42 2-1.47 2.85-1.33.6-5.84 3.64-10.02 6.73-6.97 5.16-7.58 5.9-7.3 8.78.52 5.3 6.48 7.1 13.57 4.15zm-16.34-1.38c3.16-3.48 1.64-6.15-7.33-12.82-5.12-3.8-9.4-6.26-10.94-6.26-2.25 0-2.34-.14-.84-1.25 1.94-1.45 7.7-17.8 7.7-21.9 0-3.4-2.97-5.24-7.03-4.35-5.22 1.15-10.96 9.9-10.98 16.78-.02 3.4 2.9 8.72 5.4 9.86 2 .9 2.3 1.5 1.55 2.93-2.63 4.9.45 12.27 6.96 16.65 4.46 3 12.94 3.2 15.5.36zm10.6-13.74c3.6-2.14 7-8.18 6.98-12.48 0-8-6.78-14.86-14.7-14.86-14.26 0-20.47 16.5-9.75 25.9 3.04 2.67 4.3 3.1 9.1 3.1 3.37 0 6.65-.65 8.36-1.66zm-13.26-6.32c-6.87-5.4-1.32-16.4 7.32-14.5 6.3 1.37 8.5 9.12 3.95 13.95-2.9 3.1-7.7 3.34-11.26.55zm-43.27-29.18c3.96-7.87 8.9-14.13 14.76-18.64 5.62-4.34 17.12-10.2 20-10.2.97 0 1.76-.45 1.76-1s-.86-1-1.9-1c-4.2 0-18.08-8.13-24.03-14.08-6.96-6.96-13.67-19.3-14.7-27.02-.35-2.73-.84-4.78-1.08-4.54-.25.24-1.1 3.25-1.9 6.7-2.12 9.07-7 17.53-14.4 24.94-6.5 6.5-16.22 12.3-22.88 13.62-4 .8-4 1.95 0 2.75 14.84 2.97 32.85 20.7 36.67 36.13.54 2.2 1.3 5.35 1.7 7 .67 2.75.84 2.5 2.04-3.22.72-3.42 2.5-8.57 3.93-11.44zm-48.02-39.38c13.2-3.43 23.5-11.97 29.43-24.4 3.47-7.28 3.6-7.97 3.6-18.56-.03-9.02-.44-12-2.26-16.5-4.5-11.13-14.28-20.9-25.23-25.17-8.38-3.27-22.6-3.68-30.84-.9-16.38 5.54-27.2 18.06-30.23 35-2.53 14.15 2 28.16 12.48 38.63 11.6 11.57 27.47 15.96 43.05 11.9zM117 280.88c-11.84-2.7-21.76-10.64-26.85-21.5-2.36-5.03-2.66-6.9-2.66-16.18 0-9.42.28-11.08 2.75-16.12 3.45-7.04 11.95-15.18 19.43-18.6 14.54-6.66 33.87-2.52 44.43 9.5 4.6 5.24 8.77 14.83 9.5 21.88 1.25 11.9-3.2 22.95-12.78 31.83-9.16 8.47-21.83 11.9-33.83 9.18zm4.76-10.24c1.43-1 2.23-2.6 2.23-4.45 0-2.5-1.25-3.8-9.17-9.45-5.03-3.6-9.46-6.55-9.84-6.55-.4 0 .8-4.32 2.64-9.6 1.84-5.27 3.35-10.8 3.35-12.25l-.02-2.65h13.14c11.27 0 13.3-.24 14.22-1.7 2.74-4.35-3.12-10.68-10.68-11.54-9.5-1.07-16.67 2.62-16.67 8.57 0 2.86-.1 2.9-4.37 2.43-3.95-.45-4.68-.16-7.9 3.06-5.9 5.9-6.94 16.5-2.12 21.8.94 1.04 2.54 1.88 3.56 1.88 1.77 0 1.78.13.22 2.52-2.03 3.1-1.4 8.28 1.54 12.38 4.22 5.92 15 8.93 19.84 5.54zm20.3-.72c6.43-4.33 9.76-12.28 6.98-16.67-.68-1.08-.17-1.9 1.95-3.2 2.53-1.54 4.98-6.63 4.98-10.35 0-3.15-2.5-9-5.1-11.96-5.08-5.8-12.9-5.65-12.88.24.02 3.5 4.43 17.72 6.47 20.83 1.45 2.23 1.43 2.4-.3 2.4-3.03 0-18.63 12.18-19 14.84-.9 6.12 9.9 8.6 16.9 3.88zm-9.3-13.72c6.7-4.1 9.04-12.37 5.58-19.68-4.2-8.82-17.16-10.45-24-3-4.5 4.9-5.22 10.35-2.2 16.45 3.86 7.78 13.36 10.65 20.6 6.23zm-11.27-5.12c-7.67-4.34-4.96-15.94 3.7-15.85 10.5.1 11.6 14.62 1.22 16.47-1.6.28-3.83 0-4.93-.62zm120.53 36.1c8.17-1.54 15.45-5.36 21.83-11.44 29.52-28.16 10-76.54-30.87-76.54-13.97 0-27.75 6.37-35.33 16.33-14.07 18.5-12.2 44.7 4.3 59.98 11.53 10.7 24.84 14.58 40.06 11.7zM225 280.84c-7.3-1.6-15.2-6.02-20-11.22-17.84-19.35-12-49.46 11.76-60.72 6.1-2.88 7.62-3.18 16.23-3.18 8.58 0 10.12.3 16.2 3.17 23.85 11.3 29.94 41.1 12.28 60.16-5.9 6.38-13.48 10.65-21.6 12.2-6.27 1.18-7.86 1.13-14.9-.4zm4.76-10.2c2.46-1.7 2.9-5.2.98-7.64-1.37-1.74-16.14-12.43-18.07-13.08-.88-.3-.9-.76-.07-1.8 1.6-2.04 6.4-16.96 6.38-19.93v-2.5l12.84.3c14.64.35 16.18-.3 14.55-5.97-1.28-4.47-5.3-7.08-11.73-7.6-9.35-.8-15.83 2.68-16.05 8.6-.1 2.76-.26 2.84-4.37 2.38-3.9-.42-4.56-.14-7.73 3.2-4 4.24-5.97 10.35-5 15.5.77 4.24 4.02 8.1 6.82 8.1 1.85 0 1.87.1.32 1.83-2.4 2.66-2.06 8.1.8 12.3 4.46 6.58 15.2 9.9 20.32 6.3zm21.96-2.1c4.83-3.87 7.2-10.02 5.55-14.38-1.05-2.8-.95-3.13 1.22-3.96 1.3-.5 2.84-1.8 3.43-2.9 1.4-2.6 1.36-12.65-.07-15.42-4.76-9.27-15.87-11.66-15.87-3.4 0 4 4.7 18.6 6.77 20.97 1.4 1.6 1.35 1.75-.47 1.75-1.1 0-4.65 1.87-7.9 4.15-11.55 8.12-13.4 11-9.67 15.12 2.8 3.08 12.07 2.03 17-1.93zm-10.63-12.6c12.6-8.42 6.9-26.96-8.28-26.96-5.44 0-8.6 1.7-12.27 6.6-2.86 3.84-2.86 12.4 0 16.3 4.63 6.3 14.3 8.22 20.54 4.06zm-12.35-5.26c-4.76-2.65-5.35-9.45-1.15-13.22 5.5-4.94 13.8-1.15 13.8 6.3 0 6.32-6.93 10.1-12.65 6.92zM110 148.37c-23.94-8-38.4-27.28-38.4-51.17 0-29.57 23.4-53.14 52.9-53.28 15.15-.08 28 5.04 38.43 15.3 8.13 8 12.6 16.44 15.6 29.48.64 2.74.8 2.48 1.98-3.1 2.75-12.98 11.78-25.67 23.9-33.57 19.98-13 48.08-10.35 65.42 6.2 22.57 21.52 22.65 56.12.17 77.32-10.88 10.26-21.93 14.62-37 14.62-15.63 0-26.53-4.5-37.8-15.62-7.9-7.8-13.28-17.46-15-26.92-.87-4.73-.93-4.8-1.65-1.93-5.22 21.06-16.47 34.57-34.78 41.73-7.64 3-26.12 3.5-33.78.94zm27.47-8.35c9.92-2.55 21.15-10.93 26.22-19.57 10.78-18.42 7.53-41.48-7.87-55.74-26.6-24.6-69.1-9.93-75.05 25.92-3.05 18.44 7.16 38.03 24.2 46.4 9.95 4.9 21.1 5.92 32.5 3zm-25.26-6.74c-11.57-4.3-21.8-15.43-24.26-26.4-1.84-8.2-.88-19.13 2.27-25.92 3.4-7.3 10.64-14.56 18.3-18.32 5.47-2.7 6.9-2.94 16.5-2.94 9.86 0 10.93.2 17.17 3.27 29.08 14.3 28.44 55.46-1.06 69.04-7.7 3.56-21.15 4.15-28.9 1.28zm7.64-8.18c3.46-1.2 5.16-5.06 3.44-7.8-1.6-2.56-16.6-13.05-18.7-13.08-1.73-.02-1.76-.2-.38-1.77 1.87-2.15 6.8-16.82 6.8-20.26v-2.5h27v2.65c0 1.46 1.5 7 3.36 12.33 2.96 8.5 3.17 9.75 1.75 10.25-2.14.76-15.27 10.2-16.86 12.13-3.4 4.12.26 9.14 6.65 9.14 4.6 0 11.6-3.5 14.14-7.08 2.94-4.12 3.58-9.3 1.55-12.4-1.57-2.38-1.56-2.52.2-2.52 1 0 2.9-1.15 4.23-2.55 1.9-2 2.38-3.6 2.36-7.75-.05-9.75-6-17.2-13.16-16.45-2.8.3-3.25.03-3.25-1.88 0-1.22-1.14-3.56-2.52-5.2-6.8-8.07-25.5-5.02-25.5 4.16 0 3.14-.05 3.18-4.3 2.84-6-.48-10.1 3.03-12.27 10.45-2.12 7.3-.5 13.08 4.34 15.5 2.8 1.4 3.04 1.8 1.75 2.87-.84.68-1.5 2.56-1.5 4.17 0 5.87 4.94 11.98 11.64 14.37 4.77 1.7 5.3 1.72 9.2.36zm14.25-15.97c8.77-6.26 7.6-20.3-2.13-25.18-14.27-7.17-28.45 10.22-18.24 22.35 1.46 1.74 4.03 3.78 5.7 4.54 3.96 1.8 10.86 1 14.66-1.7zm-14.94-6.25c-4.24-4.5-2.08-11.82 4.13-14.02 5.05-1.8 11.58 4.64 10.22 10.07-1.57 6.24-10.02 8.57-14.36 3.95zm126.33 37.15c22.84-5.8 37.1-30.76 30.95-54.3-5.66-21.72-27.38-36-49.7-32.7-36.6 5.43-51.45 49.25-25.57 75.45 11.45 11.6 27.55 15.8 44.3 11.55zm-25.18-6.7c-15.64-5.8-25.44-19.45-25.6-35.63-.08-8.54 1.2-13.33 5.5-20.46 4.08-6.8 11.8-13.16 19.42-16.02 4.8-1.8 7.47-2.13 14.87-1.86 7.8.3 9.95.78 15.7 3.62 10.86 5.35 18.52 15.46 20.87 27.54 3.2 16.4-6.25 34.14-22.08 41.52-7.52 3.5-21.08 4.1-28.68 1.28zm9.85-9.8c3.7-3.35 2.36-5.96-6.4-12.38-4.54-3.32-9.25-6.28-10.47-6.6-2.08-.5-2.13-.7-.73-2.84 1.77-2.7 6.38-17.1 6.4-20 .02-1.9.7-2 13.52-2H246v2.72c0 2.8 4.02 16.1 5.98 19.76.9 1.67.76 2.17-.7 2.7-1 .35-5.5 3.3-10.04 6.55-7.06 5.05-8.25 6.32-8.25 8.78 0 5.86 7.68 7.77 15.66 3.9 7.88-3.8 11.87-13.36 7.44-17.8l-2.1-2.1h2.4c6.5 0 8.96-12.28 4.12-20.53-2.75-4.7-7.04-7.02-11.4-6.15-2.53.5-2.8.32-2.4-1.7.7-3.65-3.9-8.22-9.62-9.6-8.73-2.1-18.25 2.3-18.5 8.54-.1 2.83-.27 2.92-4.36 2.6-3.73-.32-4.67.05-7.65 3.03-3.16 3.14-5.6 8.84-5.6 13.08-.02 3.36 2.88 8.7 5.3 9.82 2.15.97 2.3 1.42 1.4 3.8-4.14 11.02 13.9 24.2 22.47 16.43zm9.78-13.58c13.02-6.68 9.4-25.83-5.2-27.48-12-1.35-19.9 9.83-14.92 21.1 1.64 3.72 2.96 5.1 6.36 6.63 5.58 2.54 8.4 2.5 13.75-.25zm-12.64-7c-3-3.34-3.45-5.5-1.9-9.17 2.8-6.73 12.7-6.54 15.54.3 1.5 3.63.05 8.5-3.03 10.15-3.25 1.75-8.42 1.13-10.6-1.28z"/><path fill="#0f1938" d="M56.5 443.73c-23.15-5.05-43.56-22.2-51.56-43.33-5.1-13.47-5.02-10-4.7-181.77C.58 38.78-.16 55.1 8.27 38.7c3.07-6 6.25-10.15 12.66-16.56C30.43 12.64 39.7 7.12 53 3.04l7.5-2.3 113-.32c77.76-.22 115.58.02 121.3.78 31.24 4.1 55.73 26.16 61.64 55.5 1.44 7.18 1.58 24.5 1.32 170l-.27 162-2.95 8.4c-7.9 22.67-27.23 40.15-50.97 46.1-7.68 1.94-11.36 2-124.5 1.92-92.1-.07-117.85-.36-122.6-1.4zm246-3.8c3.3-.97 9.8-3.6 14.5-5.88 11.5-5.6 24.76-18.7 30.2-29.85 7.8-16.06 7.17-1.26 7.55-174 .22-101.86-.02-157.8-.7-164.17-1.82-17-7.77-29.52-19.63-41.3-8.28-8.23-16.8-13.52-27.93-17.3l-8-2.73L183 4.4c-81.2-.2-117.44.05-122 .83C36.9 9.35 16.66 26.16 7.66 49.5L4.5 57.7l-.3 162c-.3 181.54-.78 169.14 7.03 184.75C16 414 27.8 426.55 37.15 432.02c6.64 3.9 17.36 7.78 24.96 9.06 3.05.52 55.07.84 119.9.75 105.6-.15 114.95-.3 120.5-1.9zm-192-39.6c-26.7-7.67-43.6-34.8-38.1-61.13 4.1-19.64 18.35-35.76 36.34-41.07 2.33-.7 4.25-1.56 4.25-1.93 0-.38-1.93-1.25-4.26-1.94-12.6-3.72-26.23-15.44-31.8-27.32-4.16-8.92-6.27-19.64-5.45-27.74 2.85-28.2 25.64-49 53.67-49 24.54 0 46.1 16.74 52.3 40.64 1.7 6.5 2.52 7.82 2.52 4.07 0-1.43 1.04-5.53 2.34-9.1 7.86-21.66 27.7-35.6 50.65-35.6 14.8 0 27.48 5.28 38.1 15.9 11.28 11.28 16.6 25.2 15.54 40.6-1.36 19.65-11.97 35.52-29.65 44.37-4.54 2.27-9.1 4.13-10.13 4.13-1.04 0-1.88.45-1.88 1s.83 1 1.87 1c3.06 0 17.24 7.6 22.26 11.96 9.87 8.53 16.58 22.52 17.53 36.5 1.04 15.44-4.22 29.08-15.66 40.65-27.8 28.13-75.12 17.6-88.66-19.72-1.3-3.56-2.35-7.65-2.35-9.1 0-3.75-.82-2.43-2.52 4.07-4.92 18.9-20.2 34.2-39.05 39.12-7.63 2-20.38 1.83-27.94-.34zm31.5-9.96c10.95-4.3 20.73-14.05 25.22-25.17 1.82-4.5 2.23-7.5 2.25-16.5.02-10.6-.12-11.28-3.6-18.57-13.57-28.42-50.22-34.74-72.46-12.5-24 24.02-13.92 63.3 19.1 74.22 6.13 2.03 22.63 1.2 29.5-1.48zm105.37.8c12-3.72 23.2-14.48 28.06-26.97 4-10.32 3-24.82-2.5-35.82-3.33-6.64-12.3-15.8-18.7-19.06-13.42-6.84-30.2-6.62-43.42.57-6.52 3.54-15.34 13.02-18.46 19.83-9.17 20.04-2.6 44.14 15.27 56 3.14 2.08 8.2 4.58 11.3 5.57 7.83 2.5 20.1 2.45 28.47-.14zm-62.9-65.13c3.96-7.87 8.9-14.13 14.76-18.64 5.62-4.34 17.12-10.2 20-10.2.97 0 1.76-.45 1.76-1s-.86-1-1.9-1c-4.2 0-18.08-8.13-24.03-14.08-6.96-6.96-13.67-19.3-14.7-27.02-.35-2.73-.84-4.78-1.08-4.54-.25.24-1.1 3.25-1.9 6.7-2.12 9.07-7 17.53-14.4 24.94-6.5 6.5-16.22 12.3-22.88 13.62-4 .8-4 1.95 0 2.75 14.84 2.97 32.85 20.7 36.67 36.13.54 2.2 1.3 5.35 1.7 7 .67 2.75.84 2.5 2.04-3.22.72-3.42 2.5-8.57 3.93-11.44zm-48.02-39.38c13.2-3.43 23.5-11.97 29.43-24.4 3.47-7.28 3.6-7.97 3.6-18.56-.03-9.02-.44-12-2.26-16.5-4.5-11.13-14.28-20.9-25.23-25.17-8.38-3.27-22.6-3.68-30.84-.9-16.38 5.54-27.2 18.06-30.23 35-2.53 14.15 2 28.16 12.48 38.63 11.6 11.57 27.47 15.96 43.05 11.9zm105.58.53c8.17-1.56 15.45-5.38 21.83-11.46 29.52-28.16 10-76.54-30.87-76.54-13.97 0-27.75 6.37-35.33 16.33-14.07 18.5-12.2 44.7 4.3 59.98 11.53 10.7 24.84 14.58 40.06 11.7zM110 148.36c-23.94-8-38.4-27.28-38.4-51.17 0-29.57 23.4-53.14 52.9-53.28 15.15-.08 28 5.04 38.43 15.3 8.13 8 12.6 16.44 15.6 29.48.64 2.74.8 2.48 1.98-3.1 2.75-12.98 11.78-25.67 23.9-33.57 19.98-13 48.08-10.35 65.42 6.2 22.57 21.52 22.65 56.12.17 77.32-10.88 10.26-21.93 14.62-37 14.62-15.63 0-26.53-4.5-37.8-15.62-7.9-7.8-13.28-17.46-15-26.92-.87-4.73-.93-4.8-1.65-1.93-5.22 21.06-16.47 34.57-34.78 41.73-7.64 3-26.12 3.5-33.78.94zm27.47-8.35c9.92-2.55 21.15-10.93 26.22-19.57 10.78-18.42 7.53-41.48-7.87-55.74-26.6-24.6-69.1-9.93-75.05 25.92-3.05 18.44 7.16 38.03 24.2 46.4 9.95 4.9 21.1 5.92 32.5 3zm-25.26-6.74c-11.57-4.3-21.8-15.43-24.26-26.4-1.84-8.2-.88-19.13 2.27-25.92 3.4-7.3 10.64-14.56 18.3-18.32 5.47-2.7 6.9-2.94 16.5-2.94 9.86 0 10.93.2 17.17 3.27 29.08 14.3 28.44 55.46-1.06 69.04-7.7 3.56-21.15 4.15-28.9 1.28zm7.64-8.18c3.46-1.2 5.16-5.06 3.44-7.8-1.6-2.56-16.6-13.05-18.7-13.08-1.73-.02-1.76-.2-.38-1.77 1.87-2.15 6.8-16.82 6.8-20.26v-2.5h27v2.65c0 1.46 1.5 7 3.36 12.33 2.96 8.5 3.17 9.75 1.75 10.25-2.14.76-15.27 10.2-16.86 12.13-3.4 4.12.26 9.14 6.65 9.14 4.6 0 11.58-3.5 14.14-7.08 2.94-4.12 3.58-9.3 1.55-12.4-1.57-2.38-1.56-2.52.2-2.52 1 0 2.9-1.15 4.23-2.55 1.9-2 2.38-3.6 2.36-7.75-.05-9.75-6-17.2-13.16-16.45-2.8.3-3.25.03-3.25-1.88 0-1.22-1.14-3.56-2.52-5.2-6.8-8.07-25.5-5.02-25.5 4.16 0 3.14-.05 3.18-4.3 2.84-6-.48-10.1 3.03-12.27 10.45-2.12 7.3-.5 13.08 4.34 15.5 2.8 1.4 3.04 1.8 1.75 2.87-.84.68-1.5 2.56-1.5 4.17 0 5.87 4.94 11.98 11.64 14.37 4.77 1.7 5.3 1.72 9.2.36zm14.25-15.97c8.77-6.26 7.6-20.3-2.13-25.18-14.27-7.17-28.45 10.22-18.24 22.35 1.46 1.74 4.03 3.78 5.7 4.54 3.96 1.8 10.86 1 14.66-1.7zm-14.94-6.25c-4.24-4.5-2.08-11.82 4.13-14.02 5.05-1.8 11.58 4.64 10.22 10.07-1.57 6.24-10.02 8.57-14.36 3.95zm126.33 37.15c22.84-5.8 37.1-30.76 30.95-54.3-5.66-21.72-27.38-36-49.7-32.7-36.6 5.43-51.45 49.25-25.57 75.45 11.45 11.6 27.55 15.8 44.3 11.55zm-25.18-6.7c-15.64-5.8-25.44-19.45-25.6-35.63-.08-8.54 1.2-13.33 5.5-20.46 4.08-6.8 11.8-13.16 19.42-16.02 4.8-1.8 7.47-2.13 14.87-1.86 7.8.3 9.95.78 15.7 3.62 10.86 5.35 18.52 15.46 20.87 27.54 3.2 16.4-6.25 34.14-22.08 41.52-7.52 3.5-21.08 4.1-28.68 1.28zm9.85-9.8c3.7-3.35 2.36-5.96-6.4-12.38-4.54-3.32-9.25-6.28-10.47-6.6-2.08-.5-2.13-.7-.73-2.84 1.77-2.7 6.38-17.1 6.4-20 .02-1.9.7-2 13.52-2H246v2.72c0 2.8 4.02 16.1 5.98 19.76.9 1.67.76 2.17-.7 2.7-1 .35-5.5 3.3-10.04 6.55-7.06 5.05-8.25 6.32-8.25 8.78 0 5.86 7.68 7.77 15.66 3.9 7.88-3.8 11.87-13.36 7.44-17.8l-2.1-2.1h2.4c6.5 0 8.96-12.28 4.12-20.53-2.75-4.7-7.04-7.02-11.4-6.15-2.53.5-2.8.32-2.4-1.7.7-3.65-3.9-8.22-9.62-9.6-8.73-2.1-18.25 2.3-18.5 8.54-.1 2.83-.27 2.92-4.36 2.6-3.73-.32-4.67.05-7.65 3.03-3.16 3.14-5.6 8.84-5.6 13.08-.02 3.36 2.88 8.7 5.3 9.82 2.15.97 2.3 1.42 1.4 3.8-4.14 11.02 13.9 24.2 22.47 16.43zm9.78-13.58c13.02-6.68 9.4-25.83-5.2-27.48-12-1.35-19.9 9.83-14.92 21.1 1.64 3.72 2.96 5.1 6.36 6.63 5.58 2.54 8.4 2.5 13.75-.25zm-12.64-7c-3-3.34-3.45-5.5-1.9-9.17 2.8-6.73 12.7-6.54 15.54.3 1.5 3.63.05 8.5-3.03 10.15-3.25 1.75-8.42 1.13-10.6-1.28z"/><path d="M55 443.16c-25.9-6.72-45.6-25.8-52.7-50.96C.6 386.02.5 377.55.5 223.2c0-152 .1-162.92 1.75-169C7.7 34.05 21.7 17.23 40.5 8.22 57.2.22 48.2.7 178.5.7 309.75.7 301.9.24 318.9 8.77c19.37 9.7 34.2 29.17 37.98 49.86.75 4.1 1.1 54.9 1.1 164.3 0 176.73.38 166.5-7.03 181.77-8.82 18.2-23.38 30.58-44.48 37.88-5.94 2.05-7.5 2.08-125 2.3-115.14.22-119.26.17-126.5-1.72zm240.92-2.02c22.26-3.6 41.88-17.54 51.02-36.22 8.15-16.65 7.47-1.4 7.8-175.7.2-96.15-.06-158.8-.67-164.18-2.64-23.66-16.12-42.85-37.5-53.4-15.72-7.76-9.1-7.4-137.4-7.43C50.33 4.2 57.8 3.8 41.06 11.97 23.7 20.44 10.7 36.3 5.97 54.76 4.03 62.33 4 66.15 4 223.1c.02 177.8-.4 166.58 6.57 180.68 9.5 19.24 29.28 33.7 51.18 37.38 7.36 1.24 226.52 1.22 234.17-.02z"/></g></g></svg>