<svg xmlns="http://www.w3.org/2000/svg" width="358.84" height="445.88" viewBox="0 0 358.83969 445.88004"><g><g><path fill="#c38c8f" d="M61.75 444.98c-16.53-2.84-29.25-9.36-40.9-20.96-7.18-7.13-9.36-10.1-13.24-18.04-8.27-16.92-7.78-4.6-7.46-187L.42 57.5l2.82-8C11.5 26.14 28 10.3 51.92 2.84L59.42.5h240l7.5 2.33c23.9 7.46 40.43 23.3 48.68 46.66l2.82 8 .28 161.5c.32 182.38.8 170.06-7.47 186.98-3.86 7.9-6.08 10.94-13.23 18.1-7.13 7.12-10.2 9.36-18.08 13.23-17.93 8.8-6.67 8.13-137.5 8.32-63.8.1-118.1-.2-120.67-.64zm245.66-7.32c18.47-6.52 32.05-18.45 40.58-35.63 6.22-12.54 5.9-3.16 5.93-179.4.02-178.1.47-165.72-6.5-180.14-6.6-13.63-17.5-24.25-31.98-31.13-15.38-7.32-6.8-6.88-136-6.88s-120.62-.45-136 6.87c-14.45 6.87-25.33 17.46-32 31.13-6.87 14.1-6.47 3-6.48 180.2-.02 111.2.3 161.8 1.06 165.5 1.93 9.4 9.26 23.05 16.54 30.76 9.76 10.36 19.8 16.3 33.88 20.06 6.68 1.8 12.47 1.87 125 1.67l118-.2 8-2.84zm-195.48-26.1c-8.44-2.35-16.4-6.98-22.62-13.18-26.27-26.16-17.27-69.88 17.27-83.9 4.7-1.92 5.43-2.5 3.83-3.07-24.82-8.7-39.33-31.66-35.7-56.5 6.1-41.9 58.07-58.77 87.76-28.5 6.4 6.55 11.63 15.65 13.3 23.2l.85 3.9 1.26-4.5c6.1-22.04 27-38 49.7-38h6.25l-4.8-5.04c-9.1-9.46-14.08-22.15-14.08-35.73v-7.35l-3.25 2.44c-19.88 14.9-49.55 12.32-67.4-5.9-9.36-9.5-14.27-21.1-14.33-33.75l-.02-5.82-3.1 2.32c-14.7 11-29.2 14.74-44.57 11.48-10.77-2.3-17.85-6.15-25.92-14.14-20.2-20-20.7-50.23-1.16-71.12C69.37 33.2 92.24 28.23 112 36.02c18.75 7.4 31.92 26.48 31.92 46.25v5.87l3.98-3.4c9.2-7.9 20.26-11.76 33.48-11.74 14.57.02 26.13 4.66 36.05 14.5 10.2 10.1 16.03 24.6 15.32 38.08l-.33 6.13 3.03-2.3c9.85-7.53 24.9-11.27 38.14-9.48 34.52 4.67 54.03 41.18 39.06 73.07-4 8.47-14.92 19.56-23.08 23.4-7.15 3.35-18.57 5.84-24.8 5.4l-4.62-.3 5.4 5.82c9.54 10.3 13.37 20.52 13.34 35.6-.03 15.03-4.88 26.26-15.9 36.82-3.96 3.8-14.15 9.6-20.58 11.72-1.6.53-.9 1.05 3.35 2.56 15.63 5.52 28.6 20.06 32.15 36.05.73 3.27 1.08 9.7.85 15.52-.36 8.93-.77 10.68-4.1 17.72-8.96 18.84-26.2 29.67-47.28 29.67-22.9 0-42.78-14.8-49.03-36.5l-1.73-6-1.38 5.4c-2.1 8.2-6.15 14.93-13.33 22.1-7.28 7.28-13.8 11.18-22.54 13.45-7 1.82-21.12 1.87-27.48.1zm22.9-8.63c21.53-4.97 36.1-26.57 32.2-47.75-4.14-22.45-26.3-38.27-47.97-34.27-14.2 2.62-24.7 10.38-30.8 22.75-3.25 6.55-3.78 8.65-4.14 16.32-.47 10 1.12 16.44 6 24.2 9.34 14.85 27.88 22.64 44.7 18.76zm-18.97-5.25c-10.07-2.85-18.3-9.8-23.64-19.9-2.53-4.82-2.78-6.24-2.78-15.8 0-11.58 1.22-15.15 8.08-23.6 16.6-20.5 49.63-16 61.65 8.4 2.93 5.98 3.27 7.55 3.24 15.2-.05 10.82-3.18 18.3-10.8 25.8-9.48 9.34-23.76 13.3-35.75 9.9zm5.85-10.25c4.2-2.94 2.9-5.86-5.23-11.87-9.34-6.9-11.8-7.65-14.06-4.2-3.2 4.9.55 12.37 7.94 15.73 5 2.27 8.45 2.37 11.36.33zm19.75-.9c6-3.53 8.88-10.05 6.44-14.6-1.76-3.26-5.7-2.3-13.34 3.22-8.02 5.8-8.6 6.44-8.62 9.54-.04 4.78 8.7 5.82 15.5 1.82zm-8.35-12.64c3.15-1.7 5.8-7.05 5.82-11.7 0-8.63-4.8-13.2-13.82-13.2-10.3 0-16.13 9.96-11.5 19.7 2.97 6.3 12.65 8.86 19.5 5.2zm-11.9-4.86c-3.82-2.36-4.98-5.95-3.26-10.1 3.48-8.4 15.98-5.9 15.98 3.2 0 6.62-7 10.43-12.72 6.9zm29.64-1.8c4.5-3.68 3.9-14.1-1.12-19.83-2.73-3.1-3.58-3.48-7.2-3.2-5.43.38-5.63 2.18-1.6 14.25 3.63 10.94 5.4 12.5 9.92 8.8zm-45.18-.5c1.57-1.98 6.26-16.97 6.26-20 0-3.56-3.84-4.68-8.48-2.47-6.76 3.23-9.8 16.44-4.98 21.76 2 2.2 5.72 2.58 7.2.7zm30.65-22.05c1.2-.87 1.68-2.3 1.46-4.23-1.02-8.87-21.63-10.42-24.88-1.87-1.47 3.86-1.16 5.37 1.3 6.35 3.57 1.44 20.07 1.24 22.13-.26zm106.62 56.4c20.28-7.7 31.47-30.58 25.05-51.2-4.78-15.35-17.37-26.13-33.95-29.05-17.46-3.08-36.46 7.12-44.37 23.82-3 6.34-3.23 7.55-3.23 17.36 0 10.17.14 10.83 3.73 18.1 5.54 11.23 14.84 18.96 26.8 22.32 7.14 2 18.7 1.4 25.97-1.36zm-26.5-4.15c-3.3-1.06-8.2-3.62-10.92-5.7-22.23-17.04-18.4-50.48 7.2-62.57 5.96-2.82 7.68-3.17 15.22-3.13 11.63.08 18.74 3.26 27 12.1 4.94 5.27 6.32 7.56 8.1 13.47 4.82 15.83-.82 32.02-14.34 41.17-9.83 6.64-21 8.26-32.26 4.65zm6.8-8.9c3.2-1.2 4.1-3.8 2.26-6.6-1.87-2.86-15.4-12.46-17.55-12.46-2.58 0-4 2.12-4 5.94 0 5.03 3.27 9.82 8.26 12.08 4.72 2.15 7.44 2.4 11.02 1.04zm19.72-.92c4.82-2.56 8.15-7.7 7.78-12-.35-3.98-2.47-5.7-5.9-4.8-3.9 1.05-16.37 10.97-16.7 13.3-.74 5.15 7.88 7.2 14.82 3.5zm-10.83-12.18c10.32-2.86 12.78-17.72 3.92-23.68-4.92-3.3-12.86-3.2-16.96.25-9.46 7.97-4.2 23.3 8.36 24.37.55.04 2.66-.4 4.7-.95zm-8.07-5.36c-2.6-1.46-5.02-5.15-5.07-7.8-.02-.9 1.13-3.05 2.55-4.74 5.1-6.04 14.75-2.7 14.75 5.07 0 2.3-.87 3.95-3.18 6-3.5 3.14-5.44 3.45-9.04 1.46zm29.44-3.07c4.45-4.45 2.8-16.16-2.9-20.77-2.78-2.24-9.5-2.36-10.32-.2-.34.9.6 5.5 2.07 10.25 4.2 13.55 6.3 15.57 11.15 10.73zm-45.05-.3c2.8-6.88 5.5-16.1 5.5-18.8 0-5.36-5.08-6.07-10.33-1.46-7.83 6.87-6.88 22.02 1.37 22.02 1.67 0 3-.7 3.45-1.76zm29.25-20.87c3.2-.86 3.1-6.23-.2-9.32-4.3-4.05-16.02-4.06-20.37 0-2.76 2.57-3.04 8.58-.43 9.26 2.67.7 18.45.74 21 .06zm-58.76.63c1.2-3.6 3.5-8.6 5.13-11.15 5.82-9.14 17.73-18.5 27.18-21.38 3.45-1.04 3.85-1.4 2.22-1.94-5.5-1.83-14.55-6.72-19.1-10.32-6.1-4.8-12.6-14.18-14.9-21.45-.9-2.9-1.9-5.94-2.17-6.76-.28-.86-1.27.92-2.25 4.04-5.14 16.37-16.8 28-34.58 34.44-1.63.6-1.04 1.06 3.23 2.55 14.94 5.2 29.74 21.5 31.92 35.2.34 2.1.74 3.7.9 3.54.14-.16 1.24-3.2 2.44-6.78zm-42.44-43.57c25.45-6.62 38.6-35.46 26.8-58.74-1.4-2.78-4.74-7.37-7.43-10.22-13.04-13.8-32.87-16.88-50.13-7.8-8.2 4.3-13.88 10.35-18.17 19.3-2.9 6.06-3.1 7.26-3.1 17.5 0 10.36.18 11.4 3.2 17.58 8.86 18.1 29.3 27.46 48.83 22.37zm-21.25-4.9c-9.88-3.1-18.7-10.73-23.4-20.33-1.97-3.97-2.34-6.3-2.36-14.7-.02-8.8.3-10.7 2.65-15.7 3.54-7.6 10.4-14.25 18.6-18.1 5.8-2.7 7.73-3.1 14.7-3.06 15.1.1 27.08 7.62 33.75 21.15 2.92 5.94 3.27 7.55 3.26 15.17 0 7.45-.4 9.33-3.1 15.02-8.1 17-27.1 25.85-44.1 20.54zm6.16-9.52c1.96-.74 2.56-1.66 2.56-3.96 0-2.46-.96-3.7-5.37-6.96-6.96-5.14-11.82-8.1-13.36-8.1-.68 0-1.98 1.15-2.9 2.55-1.4 2.12-1.48 3.17-.54 6.3 2.43 8.14 11.96 13.08 19.6 10.18zm19.18-.64c6.03-2.86 9.87-10.73 7.45-15.25-2.18-4.04-6.92-2.3-17.83 6.57-4.6 3.74-5.6 7.43-2.5 9.24 2.65 1.55 9.04 1.28 12.87-.54zm-9.34-12.74c5.02-2.12 7-5.03 7.5-11 .8-9.57-3.9-14.63-13.6-14.63-13.97 0-18.4 19.34-5.76 25.1 4.9 2.2 7.6 2.33 11.86.52zm-9.25-4.9c-7.94-4.03-5.33-15.73 3.52-15.73 7.98 0 11.45 9.3 5.37 14.4-3.42 2.88-5.25 3.15-8.9 1.3zm28.96-2.52c2.74-2.2 3.76-9.44 2.07-14.56-1.7-5.2-6.42-8.83-10.94-8.46-4.88.4-5.04 2.5-1.12 14.27 3.66 10.97 5.4 12.48 10 8.75zm-45.24-.46c1.57-1.98 6.26-16.97 6.26-20 0-3.6-3.53-4.54-8.37-2.25-6.96 3.3-10 16.1-5.1 21.53 2 2.2 5.73 2.58 7.2.7zm30.06-21.4c1.95-.52 2.26-1.18 2-4.2-.86-10.23-22.38-11.3-25.2-1.27-1.43 5.03.7 6.12 11.84 6.1 4.98 0 10.1-.3 11.36-.63zm106.8 55.9c11.23-4.3 20.2-13.1 24.53-24 3-7.54 3.24-21.23.53-29.02-3.72-10.7-14-20.93-25.42-25.3-7.92-3.02-20.5-3.04-28.35-.04-8.45 3.23-14.68 7.83-19.53 14.4-20.9 28.4.14 68.1 35.15 66.33 4.6-.22 10.16-1.22 13.1-2.35zm-23.87-3.28c-10.05-2.54-19.17-10.07-23.94-19.76-3-6.13-3.28-7.45-3.28-16.2 0-8.33.34-10.2 2.72-15.05 11.32-23.05 40.05-28.64 58.66-11.4 8.5 7.85 11.62 15.1 11.62 26.94 0 7.92-.35 9.7-2.94 14.97-6.22 12.67-17.82 20.44-31.47 21.1-4.16.18-9.27-.1-11.35-.6zm5.22-9.95c2.2-1.17 3.2-3.47 2.4-5.57-.73-1.9-14.1-11.92-17.22-12.9-1.3-.4-2.83-.2-3.68.5-2.17 1.8-1.8 8.63.63 12.07 3.9 5.47 13.04 8.5 17.87 5.9zm19.07-.87c4.82-2.56 8.15-7.7 7.78-12-.35-3.98-2.47-5.7-5.9-4.8-3.9 1.05-16.37 10.97-16.7 13.3-.74 5.15 7.88 7.2 14.82 3.5zm-7.5-13.57c5.86-3.83 7.82-13.08 4.02-18.88-5.74-8.74-20.67-7.2-24.37 2.53-4.65 12.2 9.43 23.5 20.34 16.36zm-11.4-3.97c-2.62-1.46-5.03-5.15-5.08-7.8-.02-.9 1.13-3.05 2.55-4.74 4.48-5.32 12.34-3.64 14.73 3.15 1 2.82-1.32 7.74-4.37 9.32-3.44 1.78-4.73 1.8-7.83.07zm29.43-3.07c4.74-4.75 2.25-18.17-4-21.52-3.2-1.7-8.95-.93-9.37 1.27-.2.98.9 5.7 2.4 10.5 3.9 12.53 6.18 14.55 10.97 9.76zm-45.05-.3c2.8-6.9 5.5-16.12 5.5-18.85 0-3.63-2.3-5.04-6.25-3.85-10.74 3.26-13.08 24.46-2.7 24.46 1.67 0 3-.7 3.45-1.76zm29.3-20.9c1.95-.5 2.26-1.17 2-4.2-.4-4.87-5.18-8.14-11.88-8.14-8.5 0-12.92 2.88-12.92 8.48 0 2.36.52 3.5 1.75 3.82 2.7.7 18.46.74 21.05.04zm46.44-37.07c29.23-13.7 32.4-54.33 5.63-72.2-16.6-11.1-39.18-8.9-53.22 5.13-22.16 22.17-13.36 58.27 16.83 69.04 3.8 1.36 7.32 1.72 14.52 1.5 8.2-.28 10.42-.75 16.24-3.48zm-29.92-2.66c-5.88-1.92-10.44-4.93-15.13-10.02-16.6-18.03-11.78-45.86 10-57.67 6.06-3.27 6.76-3.4 16.84-3.4 9.86 0 10.92.2 17.2 3.27 27.32 13.45 26.77 52.92-.94 66.27-5.94 2.86-21.33 3.72-27.96 1.56zm25.22-9.5c5.74-2.6 9.46-7.35 9.46-12.07 0-4.82-2.07-6.8-5.5-5.23-3.6 1.65-16.28 11.05-16.8 12.46-1.02 2.86 3 6.52 7.3 6.64.83.02 3.32-.78 5.54-1.8zm-16.1-1.04c.95-1.06 1.58-2.72 1.4-3.7-.46-2.35-15.73-13.3-18.6-13.35-2.75-.02-4.77 3.75-3.9 7.25.84 3.3 4.35 7.57 8.07 9.85 4.12 2.5 10.74 2.5 13.02-.04zm10.1-13.1c3.64-2.25 6.46-7.32 6.46-11.64 0-4.23-3.2-9.43-7.06-11.5-9.02-4.85-19.93 1.43-19.94 11.47 0 10.76 11.45 17.28 20.53 11.67zm-13.1-5.43c-5.38-5.4-1.57-14.54 6.06-14.54 4.88 0 8.5 3.6 8.5 8.5 0 4.86-3.62 8.5-8.5 8.5-2.48 0-4.35-.77-6.05-2.47zm-14.06-1.8c.78-1.23 2.67-6.15 4.2-10.92 3.1-9.66 2.64-11.8-2.57-11.8-5.55 0-11 7.15-11 14.44 0 8.2 6.04 13.56 9.37 8.3zm45.56.3c4.65-4.63 3.03-15.36-3.1-20.52-4.73-3.97-9.84-2.94-9.84 2 0 2.3 4.07 14.87 5.93 18.36 1.42 2.65 4.46 2.73 7 .18zm-13.9-22.6c1.78-2.13.25-6.15-3.34-8.83-2.1-1.56-4.28-2.08-8.7-2.08-6.64 0-10.83 2.28-12.42 6.76-1.7 4.78.32 5.7 12.42 5.7 8.52 0 11.02-.32 12.05-1.55zM188.5 164.9c15.67-2.9 27.88-13.57 32.9-28.77 1.32-4.06 1.65-7.56 1.33-14.5-.54-11.77-4.13-19.82-12.27-27.52-24.8-23.44-64.46-10.42-70.66 23.2-4.4 24 14.96 47.1 40.7 48.57 1.12.06 4.72-.38 8-.98zm-15.22-4.95c-10.9-2.16-20.6-10.02-25.7-20.8-2.78-5.9-3.13-7.64-3.08-15.16.1-11.38 2.75-18.2 9.95-25.6 12.8-13.1 32.62-15.1 47.94-4.87 10.3 6.9 15.46 16.92 15.5 30.17.03 10.42-2.45 17.37-8.65 24.26-9.4 10.46-22.18 14.72-35.97 12zm5.13-12.04c2.64-2.58 1.68-4.03-7.06-10.67-8.23-6.25-11.17-7.3-13.08-4.7-3.92 5.37 1.75 14.78 10.57 17.52 3.45 1.07 7.15.25 9.58-2.14zm17.17 1.02c7.1-3.45 10.77-12.38 6.72-16.42-2.05-2.04-2.57-1.83-12.25 4.96-9.34 6.54-10.28 8.14-6.64 11.27 3.27 2.8 6.65 2.85 12.17.2zm-6.84-13.96c5.85-3.57 7.82-11.8 4.23-17.67-3.97-6.53-10.73-8.6-17.4-5.38-5.78 2.8-8.12 7.12-7.4 13.63.46 3.94 1.25 5.5 4.15 8.15 3 2.76 4.36 3.3 8.36 3.28 3 0 5.98-.74 8.07-2.02zm-13.64-5.3c-2.14-2.26-2.84-6.8-1.56-10.13.76-1.98 5.5-4.54 8.4-4.54 1.18 0 3.45 1.3 5.06 2.9 3.5 3.52 3.82 7.67.85 11.45-2.82 3.58-9.54 3.75-12.76.32zm-13.8-1.92c.78-1.24 2.67-6.16 4.2-10.93 2.33-7.24 2.57-8.93 1.48-10.24-2.9-3.5-10-.56-13.05 5.4-2.9 5.67-2.7 12.43.44 15.57 3.06 3.05 5.1 3.1 6.93.2zm46.35-.46c2.53-3.87 2.2-11.04-.7-15.75-4.1-6.64-13.05-8.2-13-2.26 0 2.98 4.57 17.53 6.04 19.3 1.92 2.33 5.7 1.7 7.65-1.3zm-14.73-21.8c.96-1.15.98-2.12.08-4.3-3.5-8.46-21.5-8.46-24.48 0-1.85 5.26-.74 5.8 11.75 5.8 8.9 0 11.68-.32 12.65-1.5zm-81.72 15.2c25.83-12.75 31.38-46.14 11.05-66.5-7.4-7.4-16.28-11.4-26.56-12-18.53-1.07-33.8 7.95-41.6 24.58-2.4 5.12-2.68 6.88-2.68 16.73 0 9.92.27 11.56 2.78 16.92 3.67 7.84 8.5 13.57 14.84 17.65 8.7 5.57 14.06 7 25 6.66 8.77-.28 10.26-.63 17.16-4.04zm-30.44-2.03c-17.73-6.6-27.2-22.2-24.7-40.64 1.67-12.13 8.65-21.82 19.65-27.23 6.3-3.1 7.32-3.28 17.2-3.27 9 .02 11.2.36 15.3 2.38 23.1 11.4 28.6 40.43 11.16 59.06-7.13 7.63-13.73 10.43-25.4 10.78-6.26.2-10.8-.18-13.2-1.07zm27.93-11c3.77-2.5 7.66-9.7 6.76-12.55-.34-1.06-1.3-2.5-2.1-3.17-1.95-1.6-4.1-.62-13.36 6.13-6.06 4.43-7.13 5.65-6.88 7.8.63 5.37 8.8 6.3 15.57 1.8zm-19.6.68c3.32-3 2.17-5.1-6.27-11.35-9.06-6.72-12.38-7.5-13.96-3.35-1.83 4.8 1.98 11.56 8.55 15.2 3.04 1.67 9.58 1.4 11.67-.5zm9.9-12.9c6.5-3.35 8.9-12.7 4.9-19.25-5.12-8.4-18.46-7.88-23.15.87-6.28 11.7 6.45 24.5 18.26 18.4zm-12.63-5.9C80.97 84.13 84.8 75 92.42 75c4.88 0 8.5 3.6 8.5 8.5 0 2.47-.76 4.34-2.45 6.03-1.7 1.7-3.57 2.46-6.05 2.46s-4.35-.77-6.05-2.47zm-14.23-1.3c2.08-2.38 7-17.65 6.6-20.47-.25-1.76-1.06-2.35-3.64-2.6-4.4-.42-7.9 2.03-10.24 7.15-2.87 6.33-2.54 11.24.98 14.76 3.4 3.4 4.22 3.55 6.3 1.18zm44.24 1.13c2.22-.85 4.54-5.63 4.54-9.36 0-9.76-11.35-19.23-15.36-12.8-.8 1.26-.48 3.5 1.26 9 4.45 13.95 5.12 14.87 9.56 13.16zm-12.4-23.93c1.76-2.14.23-6.15-3.4-8.84-3.9-2.93-13.44-2.9-17.38.02-3.57 2.66-5.1 6.68-3.33 8.8C80.9 66.67 83.4 67 91.92 67c8.52 0 11.02-.34 12.05-1.57z"/><path fill="#8c909e" d="M59.67 444.4c-15.06-2.72-28.2-9.74-39.25-20.94-8.22-8.35-13.5-16.9-17.28-27.97l-2.72-8-.28-161C-.18 45.25-.64 57.06 7.4 40.43c5.2-10.8 14.3-21.18 24.33-27.8C40.3 7 46.45 4.35 56.43 1.95 64.07.07 69.28 0 179.42 0c110.12 0 115.33.08 123 1.93 9.96 2.4 16.12 5.07 24.68 10.72 10.04 6.6 19.13 17 24.34 27.8 8.04 16.62 7.58 4.8 7.26 186.04l-.28 161-2.72 8c-8.95 26.27-32.04 45.5-59.38 49.45-4.28.62-49 .97-117.9.93-90.58-.06-112.42-.33-118.75-1.47zm247.25-6.26c23.5-8.46 38.87-24.3 44.97-46.28 2-7.23 2.02-9.56 2.02-168.9 0-180.06.54-166.2-7.14-181.9-3.17-6.47-5.87-10.14-11.74-16-11.57-11.5-23.95-17.76-39.72-20.04-9.32-1.34-222.48-1.34-231.8 0-15.7 2.27-28 8.47-39.67 20-5.92 5.85-8.54 9.42-11.76 16C4.36 56.77 4.9 42.85 4.9 222.97c0 159.23.03 161.66 2.03 168.87 6.12 22.1 22.68 39.03 44.97 46 3.58 1.13 7.63 2.24 9 2.47 1.38.25 55.83.38 121 .3l118.5-.1 6.5-2.36zm-194.74-26.7c-7.97-2.14-14.47-5.83-21.1-11.95-11.92-11.06-16.45-21.37-16.5-37.5 0-8.67.4-11.57 2.32-16.5 5.85-15.07 16.62-26.06 30.5-31.14 4.8-1.76 5.62-2.34 4.02-2.9-16.8-5.9-29.3-17.9-34.53-33.05-12.66-36.74 20.9-74.3 59.22-66.3 8.7 1.8 17.4 6.54 24.68 13.4 7.17 6.77 11.37 13.4 14.2 22.43.98 3.12 1.97 4.9 2.25 4.06.28-.84 1.26-3.88 2.18-6.78 6.13-19.43 27.17-34.16 48.85-34.22h5.86l-5.52-5.97c-9.08-9.8-13.67-21.46-13.7-34.78V163l-5.58 3.58c-11.75 7.52-26.54 10.1-39.82 7-22.42-5.3-39.6-26.25-39.6-48.33v-6.38l-4.75 3.95c-17.44 14.52-42.2 15.74-61.24 3.02-16.5-11.02-25.4-31.08-22.2-50.12 4.2-25.18 25.52-43.13 51.2-43.12 27.48 0 50.92 22.85 50.98 49.67l.02 5.78 5.25-3.92c10.8-8.07 19.64-11.1 32.32-11.13 13.6-.02 24.86 4.45 34.6 13.74 11.23 10.72 15.96 21.18 16.18 35.8l.14 9.07 5.96-3.84c16.98-10.96 39.73-10.84 56.4.3 26.94 17.98 30.72 55.53 7.9 78.35-10.1 10.12-26.97 16.72-39.16 15.35l-4.22-.47 4.7 4.7c10.16 10.16 14.87 21.4 14.9 35.65.04 15.62-5.57 28.42-16.88 38.6-4.6 4.12-13.42 9.18-19.58 11.22-1.58.52-.77 1.15 3.94 3.06 20.66 8.4 32.54 25.74 32.54 47.5 0 15.3-5.83 28.44-16.94 38.16-12.42 10.85-30.2 15.4-46.03 11.75-17.26-3.97-33.2-19.45-38.08-36.94l-1.24-4.47-1.27 4.8c-4.4 16.73-18.68 30.9-36.37 36.1-6.66 1.94-19.66 1.97-26.82.04zm24.2-9c16.7-4.33 27.87-16.67 30.84-34 2.97-17.34-6.77-36.34-22.42-43.74-21.62-10.2-46.86-1.72-57.18 19.25-3.04 6.17-3.2 7.08-3.2 18.04 0 11.04.14 11.8 3.33 18.3 9 18.27 28.84 27.3 48.64 22.15zm-22.62-5.85c-19.23-6.88-28.95-26-22.98-45.24 5.3-17.03 18.96-26.2 37.55-25.16 9.95.55 18 4.26 24.47 11.27 7 7.58 8.62 12.23 8.62 24.52 0 9.46-.27 11.04-2.8 16.18-3.6 7.32-11.92 15-19.24 17.74-6.48 2.42-19.74 2.77-25.62.67zm25.88-8.72c7.65-3.7 11.64-12.63 7.63-17.07-1.56-1.7-1.53-1.8.34-1.8 4.57 0 8-7.8 6.26-14.22-1.22-4.54-6.24-10.58-9.46-11.4-3.48-.86-6.48 1.2-6.48 4.47 0 2.72 3.9 15.37 5.8 18.74.78 1.4-.33 2.55-6.4 6.65-4.05 2.73-8.47 6-9.82 7.25-2.45 2.27-2.46 2.27-4.27.28-3.03-3.36-15.58-11.8-17.53-11.8-1.76 0-1.76-.1.1-2.74 1.06-1.52 3.13-6.44 4.6-10.95 3.1-9.56 2.52-12.3-2.55-12.3-6.53 0-11.93 7.05-11.93 15.58 0 4.02.48 5.12 3.4 7.88 2.43 2.3 3.15 3.62 2.52 4.62-2.57 4.06.7 11.4 7 15.63 4.5 3.05 11.25 3.1 14.22.15 1.96-1.96 2.2-2 3.08-.43 2.14 3.82 7.43 4.4 13.5 1.46zm-7.76-13.37c11.8-6.1 9.44-23.66-3.48-26.08-5.07-.96-8.37.22-12.66 4.5-3.35 3.36-3.82 4.4-3.82 8.58 0 10.86 10.67 17.8 19.96 13zm-11.96-6.5c-2.82-2.83-2.72-9.27.2-11.97 4.94-4.62 13.8-.8 13.8 5.96 0 6.73-9.28 10.7-14 6zm17.44-23.94c2.2-2.44 1.4-5.2-2.5-8.47-7.68-6.48-22.94-2.4-22.94 6.12 0 3.6 2.02 4.27 13.05 4.27 9.24 0 10.87-.27 12.4-1.94zm101.03 58.4c12.72-3.32 22.1-11.15 27.84-23.25 2.95-6.23 3.18-7.48 3.18-17.27 0-10.18-.13-10.8-3.77-18.17-14.58-29.5-55.92-31.72-73.6-3.95-4.56 7.2-6.45 15.06-5.9 24.6.66 10.95 3.58 18.2 10.28 25.42 11.1 11.98 26.56 16.64 41.96 12.63zm-24.56-6.77c-14.78-6.2-22.46-17.98-22.36-34.25.05-6.84.52-9.04 3.15-14.66 3.7-7.9 9.4-13.74 17.13-17.53 5.1-2.5 6.7-2.78 16.16-2.78 9.44 0 11.07.26 16.13 2.75 22.22 10.92 27.25 41.36 9.73 58.87-6.57 6.58-13.6 9.3-24.86 9.63-8.1.24-10.32-.06-15.08-2.06zm28.1-7.96c7.57-3.82 11.54-13.05 7.4-17.18-2.3-2.3-3.48-2-10 2.58-8.5 5.97-11.42 8.9-11.42 11.5 0 2.46 3.95 5.24 7.54 5.3 1.12.03 4.04-.97 6.5-2.2zm-17.24-.3c4.4-3.1 2.47-6.1-9.2-14.3-3.24-2.28-6.58-4.15-7.4-4.15-2.4 0-5.18 3.07-5.18 5.7 0 9.5 14.38 17.9 21.78 12.73zm9.98-13.45c9.74-5.95 9.32-19.2-.78-24.26-6.7-3.37-13.84-1.2-18.04 5.5-4.08 6.48-.67 16.78 6.56 19.8 3.52 1.45 8.9 1 12.26-1.05zm-12.76-6c-3.06-3.07-2.73-9.3.64-11.94 5.6-4.4 13.36-.8 13.36 6.2 0 6.77-9.2 10.53-14 5.73zm-14.2-1.04c1.05-1.12 3.16-6.14 4.7-11.15 3.16-10.3 2.8-12.12-2.47-12.64-6-.6-12.03 7.38-12.03 15.87 0 3.2.64 4.75 2.92 7.03 3.47 3.47 4.4 3.6 6.9.9zm46.28-.56c7.3-7.78-2.46-26.75-11.62-22.58-3.13 1.43-3.12 3.53.12 13.66 3.76 11.8 6.68 14.06 11.5 8.92zm-14.65-22c.86-.85 1.57-2.24 1.57-3.1 0-2.66-6.4-8.1-10.42-8.86-7.46-1.4-16.58 3.52-16.58 8.95 0 3.7 2.45 4.52 13.68 4.56 7.95.02 10.52-.32 11.75-1.55zm-60.45 2.15c5.2-15.6 16.88-27.32 33-33.1 3.06-1.08 3.26-1.34 1.52-1.96-17.43-6.16-31-20.1-35.56-36.5l-1.25-4.5-.85 3.9c-3.4 15.43-17.38 30.34-34.3 36.6l-2.98 1.1 5.8 2.37c7.73 3.14 13.02 6.74 18.86 12.83 5.08 5.3 11.28 16.46 12.37 22.26.35 1.88.78 3.43.95 3.43.17 0 1.27-2.9 2.45-6.45zm-42.33-43.96c20.8-5.55 33.9-25.5 30.6-46.7-2.85-18.5-16.46-31.97-35.36-35-17.73-2.87-36.14 6.72-44.15 22.98-3.07 6.25-3.23 7.12-3.23 18.1 0 10.85.18 11.9 3.17 18.2 8.58 18.13 29.35 27.63 48.97 22.4zm-17.92-4.62c-10.86-1.9-20.83-9.4-25.73-19.35-8.16-16.56-2.9-36.94 12.04-46.6 19-12.27 44.4-5.33 54.03 14.74 3.08 6.44 3.83 19.95 1.5 27-5.63 16.92-23.68 27.37-41.85 24.2zm22.85-11.04c6.52-4.03 9.7-12.82 5.8-16.06-1.5-1.23-1.43-1.4.65-1.9 7.87-1.86 8.37-15.75.82-22.63-5.02-4.56-10.85-3.76-10.85 1.5 0 2.72 3.9 15.37 5.8 18.73.76 1.37-.27 2.5-5.68 6.15-3.64 2.47-8.03 5.82-9.76 7.46-2.17 2.05-3.36 2.6-3.87 1.78-1.22-2-16.74-13-18.33-13-2.46 0-5.15 3.14-5.15 6 0 3.48 3.62 8.83 7.92 11.73 4.4 2.97 11.25 3.1 14.06.3 1.97-1.96 1.98-1.96 4.57.63 2.18 2.17 3.24 2.5 6.5 2.08 2.14-.28 5.53-1.53 7.53-2.76zm-10.26-12.08c9.3-4.8 11.25-15.24 4.15-22.34-6.1-6.08-14.54-5.64-20.43 1.06-5.3 6.05-3.7 16.2 3.25 20.45 3.55 2.16 9.67 2.56 13.02.83zM119.92 268c-2.02-2.03-2.75-8.34-1.23-10.6 2.57-3.9 9.34-4.4 12.77-.96 5.13 5.13 1.64 13.55-5.62 13.55-2.6 0-4.6-.7-5.93-2zm-14.65-.85c1.42-1.57 7.65-18.1 7.65-20.28 0-1.68-3.32-3.88-5.82-3.86-9.78.1-15.23 18.6-7.27 24.7 2.22 1.7 3.52 1.57 5.44-.55zm32.08-22.74c2.34-2.33 1.93-4.26-1.68-7.86-3.87-3.86-9.05-5.1-14.85-3.53-7.07 1.92-11.22 8.27-7.7 11.8 1.93 1.92 22.24 1.6 24.23-.4zm108 55.76c22.73-10.63 31.13-36.83 18.97-59.17-8.16-15.02-27.42-23.36-45.26-19.62-13.16 2.76-22.9 10.3-28.84 22.3-11.84 23.97 1.43 52.76 27.32 59.26 2.14.53 7.78.82 12.55.64 7.16-.28 9.8-.87 15.25-3.42zm-25.43-2.56c-14.33-3.2-23.95-12.46-27.56-26.56-3.28-12.78.7-26.3 10.4-35.34 7.9-7.34 12.7-9.13 24.66-9.18 8.95-.03 10.65.27 16.23 2.85 31.88 14.72 25.5 62.1-9.2 68.53-6.98 1.3-7.42 1.28-14.53-.3zm21.62-9.53c7.84-3.56 11.9-12.64 7.73-17.26-1.56-1.7-1.53-1.8.32-1.8 1.08 0 3.06-1.18 4.4-2.6 3.4-3.63 3.34-11.72-.13-16.8-3.43-5-8.03-7.36-11.38-5.83-1.6.73-2.58 2-2.58 3.3 0 2.42 4.55 17.7 5.9 19.8.67 1.05-.43 2.3-4.25 4.9-10.7 7.25-13.78 10.25-13.46 13.06.34 2.74 3.74 5.13 7.32 5.12 1.1 0 3.85-.85 6.12-1.88zm-16.84-.64c4.4-3.1 2.47-6.1-9.2-14.3-6.7-4.7-8.8-5.08-11.02-1.92-2.16 3.08-1.95 5.9.7 9.86 4.84 7.17 14.07 10.18 19.52 6.37zm11.82-14.53c5.78-5.4 6.97-12.26 3.13-18.02-8-11.98-25.7-6.5-25.73 8 0 3.85.53 4.9 4.5 8.86 4.42 4.42 4.57 4.5 10 4.04 4.03-.34 6.2-1.1 8.1-2.88zm-14.6-4.9c-1.32-1.33-2-3.35-2-5.94 0-7.26 8.42-10.75 13.55-5.62 3.1 3.1 3.28 8.28.4 11.36-2.7 2.9-9.13 3-11.95.2zm-15 0c2.7-1.45 8.84-20.45 7.37-22.8-1.8-2.88-6.67-2.68-10.38.44-6.63 5.58-8.1 15.4-3.08 20.42 3.27 3.27 3.46 3.33 6.08 1.93zm33.02-24.05c1.45-2.7.5-5.35-3-8.3-3.6-3.03-8.85-4.06-13.87-2.7-6.9 1.86-11.33 8.45-7.95 11.84.8.78 5.04 1.2 12.47 1.2 10.3 0 11.34-.2 12.34-2.05zm40.3-33.9c15.05-5.18 25.7-18.06 27.47-33.2 2.3-19.47-5.92-35.38-22.45-43.54-6.53-3.22-8.65-3.76-16.27-4.13-10.24-.5-17.98 1.34-25.23 5.95-22.1 14.07-26.08 44.8-8.26 63.84 5.48 5.86 9.34 8.43 16.64 11.06 7.3 2.62 20.53 2.63 28.1.03zm-27.6-5.44c-11.5-4.8-19.25-13.72-22.3-25.6-4.17-16.3 4.4-33.87 20.36-41.7 5.1-2.5 6.8-2.8 15.72-2.8 8.9 0 10.62.3 15.6 2.74 6.7 3.3 15.2 11.93 18.02 18.3 8.08 18.25.3 39.2-17.88 48.13-4.8 2.35-7.24 2.86-14.74 3.1-7.66.22-9.86-.1-14.77-2.16zm28.06-8.75c5.16-2.5 8.2-6.92 8.22-11.9 0-3.83-1.43-5.96-4-5.96-2.16 0-15.7 9.6-17.56 12.44-1.77 2.7-1.12 4.9 1.87 6.35 3.4 1.64 6.68 1.37 11.47-.95zm-17.38-.17c3.32-2.43 1.58-5.8-5.9-11.43-10.4-7.84-14.7-8.16-15.3-1.13-.37 4.3 2.96 9.45 7.78 12 4.05 2.17 10.85 2.44 13.42.56zm9.7-13.24c6.5-3.36 8.87-12.72 4.87-19.26-3.73-6.1-13-8-19.07-3.9-4.68 3.14-6.06 6.22-5.62 12.46.4 5.48 3 9.55 7.22 11.3 3.27 1.34 9.4 1.06 12.6-.6zm-12.65-5.9c-3.6-3.62-3.35-8.62.63-11.97 4.03-3.4 7.37-3.3 11 .34 3.62 3.63 3.72 6.98.33 11-3.34 4-8.34 4.25-11.96.63zm-14.22-1.3c1.9-2.17 7.05-18.54 6.6-20.97-.43-2.2-6.17-2.97-9.38-1.26-6.25 3.36-8.74 16.78-4 21.53 2.9 2.9 4.68 3.1 6.78.7zm46.37-.36c2.78-3.08 2.57-12.26-.4-17.05-4-6.47-13.22-7.92-13.18-2.07 0 3.37 4.45 17.88 6.05 19.8 1.7 2.07 5.33 1.74 7.52-.68zm-14.55-22.45c3.1-3.75-2.6-10.17-9.9-11.15-4.92-.66-12.66 1.92-14.16 4.73-1.37 2.6-1.22 6.72.27 7.32.7.28 6.03.54 11.88.6 8.47.05 10.9-.25 11.92-1.5zm-88.94 12.55c12.84-2.4 24.4-11.2 30.2-22.96 3.03-6.16 3.2-7.08 3.2-18 0-10.88-.2-11.9-3.18-18.23-10.44-22.05-37.3-30.2-59.53-18.1-23.17 12.6-27.52 47.03-8.3 65.8 10.13 9.88 23.8 14.06 37.6 11.48zm-17.1-5.6c-10.92-2.93-19.9-10.6-24.83-21.22-2.2-4.74-2.63-7.08-2.63-14.17 0-7.18.45-9.47 2.8-14.62 3.53-7.72 11.24-15.4 19.15-19.1 5.18-2.4 7.24-2.8 15.02-2.8 8.18 0 9.65.3 15.7 3.3 7.47 3.67 14.15 10.36 17.9 17.93 2.03 4.1 2.37 6.27 2.37 15.3.02 10.05-.12 10.75-3.4 16.8-5.35 9.86-14.26 16.6-25.3 19.15-5.8 1.34-10.23 1.2-16.76-.57zm6.7-10.56c3.12-2.6 1.04-6.05-7.2-12-8.04-5.8-11.08-6.86-13.3-4.63-2.68 2.65-.75 10.18 3.62 14.13 4.64 4.2 13.28 5.47 16.88 2.5zm16.95.53c5-2.4 8.34-7.2 8.34-12.1 0-5.14-2-7.04-5.64-5.38-4.25 1.93-15.32 10.18-16.4 12.22-1.13 2.07.07 5.33 2.28 6.22 2.65 1.07 8.1.6 11.42-.97zm-6.27-14.45c8.33-6.55 7.17-19.02-2.16-23.14-6.9-3.06-13.73-1.27-17.27 4.54-3.8 6.24-1.85 16.05 3.8 19.12 4.2 2.27 12.43 2 15.64-.52zm-13.93-5.37c-3.34-3.34-3.3-8.4.08-11.57 7.86-7.4 19.34 3.48 12.02 11.38-3.3 3.55-8.66 3.63-12.1.2zm-10.53-10.42c3.77-11.44 3.55-13.4-1.57-13.9-5.93-.6-11.35 6.47-11.35 14.82 0 6.66 2.54 10.2 7 9.73 2.23-.24 2.87-1.38 5.92-10.64zm42.3 9.14c6.84-7.75-1.4-25-10.8-22.65-3.2.8-3.22 4.73-.02 13.96 3.64 10.53 3.57 10.43 6.55 10.43 1.5 0 3.43-.8 4.28-1.76zm-13.65-23.66c1.56-6.3-4.78-10.08-16.25-9.7-4.32.14-9.33 4.45-9.33 8.03 0 1.52.3 3.05.67 3.42.35.37 5.97.67 12.47.67 11.64 0 11.82-.05 12.42-2.42zM111 121.22c25.12-12.12 31.43-45.8 12.38-66.17-9-9.63-19.23-13.56-33.52-12.88-7.62.37-9.74.9-16.27 4.14C64.9 50.6 58.52 57 54.2 65.8c-2.6 5.27-2.8 6.57-2.8 17.7 0 10.86.25 12.5 2.64 17.6 4.78 10.2 14.15 18.54 24.77 22.04 4.27 1.4 7.95 1.78 15.6 1.55 8.84-.27 10.75-.67 16.56-3.48zm-31.3-3.17c-19.1-7.47-28.8-28.6-21.75-47.4 2.82-7.55 11.23-16.66 18.8-20.38C81.8 47.8 83.5 47.5 92.4 47.5c8.75 0 10.7.32 15.7 2.66 15.64 7.33 24.54 25.6 20.38 41.83-3.1 12.06-11.6 21.6-23.12 25.9-7.2 2.7-18.98 2.77-25.68.15zm26.8-8.96c6.95-3.17 10.62-9.83 8.5-15.44-1.6-4.14-4.78-3.36-13.97 3.36-7.18 5.26-8.2 6.38-7.92 8.73.34 2.83 3.7 5.2 7.32 5.2 1.1 0 3.84-.84 6.08-1.86zm-17.5-.15c1.92-1.03 2.54-4.5 1.15-6.55-.4-.6-3.94-3.4-7.87-6.25-7.65-5.53-11.58-6.48-13.32-3.23-4.75 8.88 10.53 21.1 20.03 16.03zm13.6-16.3c2.8-3.06 3.32-4.38 3.3-8.4 0-5.93-1.55-9.06-5.9-11.98-8.9-6-21.07.36-21.08 11.02 0 8.67 6 14.06 14.92 13.4 4.7-.35 5.85-.88 8.75-4.05zm-15.76-3.6c-1.76-1.75-2.92-3.96-2.92-5.56 0-3.7 5-8.5 8.8-8.5 7.07 0 10.82 9.45 5.75 14.53-3.44 3.44-7.9 3.26-11.63-.47zm-15.56.35c1.83-.7 7.93-18.38 7.46-21.64-.25-1.82-1.05-2.33-3.93-2.58-7.16-.6-12.65 7.27-11.6 16.64.68 5.95 4.06 9.12 8.08 7.58zm47.1-1.37c4.8-5.3 1.9-18.48-4.8-21.67-4.82-2.3-8.66-1.24-8.66 2.4 0 3 4.7 18 6.26 19.98 1.48 1.87 5.2 1.5 7.2-.7zm-15.04-21.65c1.78-.68 2.1-4.57.6-7.37-.55-1-3.02-2.6-5.5-3.56-7.9-3-16.76-.28-18.94 5.84-1.7 4.73.35 5.7 11.96 5.7 5.66 0 11-.27 11.88-.6z"/><path fill="#a55357" d="M59.67 444.4c-15.06-2.72-28.2-9.74-39.25-20.94-8.22-8.35-13.5-16.9-17.28-27.97l-2.72-8-.28-161C-.18 45.25-.64 57.06 7.4 40.43c5.2-10.8 14.3-21.18 24.33-27.8C40.3 7 46.45 4.35 56.43 1.95 64.07.07 69.28 0 179.42 0c110.12 0 115.33.08 123 1.93 9.96 2.4 16.12 5.07 24.68 10.72 10.04 6.6 19.13 17 24.34 27.8 8.04 16.62 7.58 4.8 7.26 186.04l-.28 161-2.72 8c-8.95 26.27-32.04 45.5-59.38 49.45-4.28.62-49 .97-117.9.93-90.58-.06-112.42-.33-118.75-1.47zm247.25-6.26c23.5-8.46 38.87-24.3 44.97-46.28 2-7.23 2.02-9.56 2.02-168.9 0-180.06.54-166.2-7.14-181.9-3.17-6.47-5.87-10.14-11.74-16-11.57-11.5-23.95-17.76-39.72-20.04-9.32-1.34-222.48-1.34-231.8 0-15.7 2.27-28 8.47-39.67 20-5.92 5.85-8.54 9.42-11.76 16C4.36 56.77 4.9 42.85 4.9 222.97c0 159.23.03 161.66 2.03 168.87 6.12 22.1 22.68 39.03 44.97 46 3.58 1.13 7.63 2.24 9 2.47 1.38.25 55.83.38 121 .3l118.5-.1 6.5-2.36zm-192.64-26.58c-18.22-4.16-32.5-17.6-37.76-35.5-2.27-7.73-2.1-21.27.4-29.3 4.8-15.55 17.17-27.95 32.7-32.75l5.6-1.73-6.28-2.12c-20.92-7.06-34.02-25.64-34.02-48.24 0-22.7 13.58-41.34 35-48 7.65-2.4 20.15-2.8 28.12-.9 11.94 2.8 24.14 11.5 30.85 21.94 3.38 5.28 7.02 15.06 7.02 18.87 0 3.65.83 2.27 2.5-4.17 5.98-22.93 24.96-37.73 48.5-37.8l8.5-.02-5.8-5.93c-9.86-10.06-16.06-27.3-14.23-39.52l.65-4.4-6.27 4.05c-6.33 4.1-15.55 7.35-23.9 8.45-12.54 1.65-29.57-4.2-39.45-13.54-10.05-9.5-14.96-19.84-16.14-34l-.66-7.83-4.08 3.5c-8.57 7.33-20.38 11.4-33.2 11.4-17.45.03-33-8.1-42.36-22.1-5.7-8.52-8.08-16.92-8.08-28.38 0-11.45 2.3-19.5 8.1-28.34C63.93 34 92.96 26.88 116.9 38.76c8.28 4.12 17.3 13.5 21.48 22.34 3.5 7.46 6.1 19.56 5.33 24.88l-.4 2.75 5.06-4.03c9.2-7.3 21.8-11.7 33.58-11.7 6.47 0 19.4 3.46 24.9 6.67 6.92 4.04 15.48 12.7 18.87 19.1 4.47 8.43 6.22 15.5 6.22 25.02v8.43l2.25-1.62c29.43-21.2 70.47-8.9 80.77 24.24 2.7 8.7 2.7 22.62-.03 31.44-6.43 20.85-25.64 34.66-48.25 34.7h-7.77l5.43 5.44c24.12 24.1 17.1 66.4-13.45 81.03-4.06 1.95-8.1 3.54-8.98 3.54-3.9 0-2.4 1.44 3.55 3.45 34.58 11.64 44.8 57.42 18.64 83.55-28.22 28.2-77.1 14-86.18-25l-1.28-5.5-1.25 6.08c-4.43 21.7-23.74 37.74-46.9 38.96-4.85.25-10.46-.14-14.17-.98zm28.82-11.27c16.7-7.84 25.58-22.6 24.62-40.9-1.1-21.2-17.76-37.82-39.22-39.16-18.57-1.16-33.6 7.96-41.8 25.37-2.9 6.16-3.26 7.83-3.27 15.9 0 6.16.57 10.64 1.82 14.23 3.96 11.37 14.96 22.18 26.88 26.42 4.1 1.46 7.44 1.8 14.8 1.58 8.18-.26 10.4-.74 16.17-3.44zm-29.34-3.7c-19.23-6.88-28.95-26-22.98-45.24 5.3-17.03 18.96-26.2 37.55-25.16 9.95.55 18 4.26 24.47 11.27 7 7.58 8.62 12.23 8.62 24.52 0 9.46-.27 11.04-2.8 16.18-3.6 7.32-11.92 15-19.24 17.74-6.48 2.42-19.74 2.77-25.62.67zm25.88-8.72c7.65-3.7 11.64-12.63 7.63-17.07-1.56-1.7-1.53-1.8.34-1.8 4.57 0 8-7.8 6.26-14.22-1.22-4.54-6.24-10.58-9.46-11.4-3.48-.86-6.48 1.2-6.48 4.47 0 2.72 3.9 15.37 5.8 18.74.78 1.4-.33 2.55-6.4 6.65-4.05 2.73-8.47 6-9.82 7.25-2.45 2.27-2.46 2.27-4.27.28-3.03-3.36-15.58-11.8-17.53-11.8-1.76 0-1.76-.1.1-2.74 1.06-1.52 3.13-6.44 4.6-10.95 3.1-9.56 2.52-12.3-2.55-12.3-6.53 0-11.93 7.05-11.93 15.58 0 4.02.48 5.12 3.4 7.88 2.43 2.3 3.15 3.62 2.52 4.62-2.57 4.06.7 11.4 7 15.63 4.5 3.05 11.25 3.1 14.22.15 1.96-1.96 2.2-2 3.08-.43 2.14 3.82 7.43 4.4 13.5 1.46zm-7.76-13.37c11.8-6.1 9.44-23.66-3.48-26.08-5.07-.96-8.37.22-12.66 4.5-3.35 3.36-3.82 4.4-3.82 8.58 0 10.86 10.67 17.8 19.96 13zm-11.96-6.5c-2.82-2.83-2.72-9.27.2-11.97 4.94-4.62 13.8-.8 13.8 5.96 0 6.73-9.28 10.7-14 6zm17.44-23.94c2.2-2.44 1.4-5.2-2.5-8.47-7.68-6.48-22.94-2.4-22.94 6.12 0 3.6 2.02 4.27 13.05 4.27 9.24 0 10.87-.27 12.4-1.94zm103.76 58.03c7.42-2.56 12.36-5.83 18.12-12 19.05-20.43 12.58-53.16-13-65.8-6.5-3.22-8.64-3.76-16.16-4.1-7-.34-9.9 0-15.08 1.75-30 10.15-39.38 45.92-17.97 68.56 6 6.36 9.72 8.85 17.1 11.52 7.18 2.57 19.6 2.6 27 .07zm-27.28-6.4c-14.78-6.2-22.46-17.98-22.36-34.25.05-6.84.52-9.04 3.15-14.66 3.7-7.9 9.4-13.74 17.13-17.53 5.1-2.5 6.7-2.78 16.16-2.78 9.44 0 11.07.26 16.13 2.75 22.22 10.92 27.25 41.36 9.73 58.87-6.57 6.58-13.6 9.3-24.86 9.63-8.1.24-10.32-.06-15.08-2.06zm28.1-7.96c7.57-3.82 11.54-13.05 7.4-17.18-2.3-2.3-3.48-2-10 2.58-8.5 5.97-11.42 8.9-11.42 11.5 0 2.46 3.95 5.24 7.54 5.3 1.12.03 4.04-.97 6.5-2.2zm-17.24-.3c4.4-3.1 2.47-6.1-9.2-14.3-3.24-2.28-6.58-4.15-7.4-4.15-2.4 0-5.18 3.07-5.18 5.7 0 9.5 14.38 17.9 21.78 12.73zm9.98-13.45c9.74-5.95 9.32-19.2-.78-24.26-6.7-3.37-13.84-1.2-18.04 5.5-4.08 6.48-.67 16.78 6.56 19.8 3.52 1.45 8.9 1 12.26-1.05zm-12.76-6c-3.06-3.07-2.73-9.3.64-11.94 5.6-4.4 13.36-.8 13.36 6.2 0 6.77-9.2 10.53-14 5.73zm-14.2-1.04c1.05-1.12 3.16-6.14 4.7-11.15 3.16-10.3 2.8-12.12-2.47-12.64-6-.6-12.03 7.38-12.03 15.87 0 3.2.64 4.75 2.92 7.03 3.47 3.47 4.4 3.6 6.9.9zm46.28-.56c7.3-7.78-2.46-26.75-11.62-22.58-3.13 1.43-3.12 3.53.12 13.66 3.76 11.8 6.68 14.06 11.5 8.92zm-14.65-22c.86-.85 1.57-2.24 1.57-3.1 0-2.66-6.4-8.1-10.42-8.86-7.46-1.4-16.58 3.52-16.58 8.95 0 3.7 2.45 4.52 13.68 4.56 7.95.02 10.52-.32 11.75-1.55zm-60.98 5.1c1-5.62 5.86-15.18 10.5-20.6 5.32-6.2 13.72-11.8 21.8-14.54 3.7-1.24 6.05-2.46 5.24-2.7-6.45-1.95-12.24-4.47-16.5-7.16-10.23-6.5-19-19.24-21.56-31.3l-1.2-5.7-1.27 6.08c-3.77 18.22-17.34 32.02-37.42 38.07-.8.24 1.5 1.48 5.1 2.74 10.8 3.76 21.1 12 26.44 21.1 2.96 5.1 6.4 14.9 6.45 18.4.04 3.53 1.48.9 2.42-4.4zm-35.26-48.86c16.37-7.88 25.57-23.23 24.63-41.06-1.92-36.37-47.04-53-72.2-26.63-6.7 7.03-10.26 13.93-11.8 22.92-3.46 20.2 9.1 39.96 29.7 46.77 2.54.84 7.62 1.2 14 1.03 8.47-.25 10.85-.7 15.68-3.03zm-24.45-2.66c-10.86-1.9-20.83-9.4-25.73-19.35-8.16-16.56-2.9-36.94 12.04-46.6 19-12.27 44.4-5.33 54.03 14.74 3.08 6.44 3.83 19.95 1.5 27-5.63 16.92-23.68 27.37-41.85 24.2zm22.85-11.04c6.52-4.03 9.7-12.82 5.8-16.06-1.5-1.23-1.43-1.4.65-1.9 7.87-1.86 8.37-15.75.82-22.63-5.02-4.56-10.85-3.76-10.85 1.5 0 2.72 3.9 15.37 5.8 18.73.76 1.37-.27 2.5-5.68 6.15-3.64 2.47-8.03 5.82-9.76 7.46-2.17 2.05-3.36 2.6-3.87 1.78-1.22-2-16.74-13-18.33-13-2.46 0-5.15 3.14-5.15 6 0 3.48 3.62 8.83 7.92 11.73 4.4 2.97 11.25 3.1 14.06.3 1.97-1.96 1.98-1.96 4.57.63 2.18 2.17 3.24 2.5 6.5 2.08 2.14-.28 5.53-1.53 7.53-2.76zm-10.26-12.08c9.3-4.8 11.25-15.24 4.15-22.34-6.1-6.08-14.54-5.64-20.43 1.06-5.3 6.05-3.7 16.2 3.25 20.45 3.55 2.16 9.67 2.56 13.02.83zM119.92 268c-2.02-2.03-2.75-8.34-1.23-10.6 2.57-3.9 9.34-4.4 12.77-.96 5.13 5.13 1.64 13.55-5.62 13.55-2.6 0-4.6-.7-5.93-2zm-14.65-.85c1.42-1.57 7.65-18.1 7.65-20.28 0-1.68-3.32-3.88-5.82-3.86-9.78.1-15.23 18.6-7.27 24.7 2.22 1.7 3.52 1.57 5.44-.55zm32.08-22.74c2.34-2.33 1.93-4.26-1.68-7.86-3.87-3.86-9.05-5.1-14.85-3.53-7.07 1.92-11.22 8.27-7.7 11.8 1.93 1.92 22.24 1.6 24.23-.4zm108.7 55.84c7.93-3.9 16.93-12.95 20.36-20.47 9.58-20.95.74-45.14-20.27-55.52-7.34-3.63-7.98-3.76-18.16-3.76-9.8 0-11.03.2-17.3 3.2-17.52 8.28-27.97 26.9-24.9 44.37 2.13 12.05 8.36 22.06 17.77 28.54 8.57 5.9 14.26 7.48 25.94 7.14 8.98-.26 10.75-.63 16.57-3.5zm-26.13-2.64c-14.33-3.2-23.95-12.46-27.56-26.56-3.28-12.78.7-26.3 10.4-35.34 7.9-7.34 12.7-9.13 24.66-9.18 8.95-.03 10.65.27 16.23 2.85 31.88 14.72 25.5 62.1-9.2 68.53-6.98 1.3-7.42 1.28-14.53-.3zm21.62-9.53c7.84-3.56 11.9-12.64 7.73-17.26-1.56-1.7-1.53-1.8.32-1.8 1.08 0 3.06-1.18 4.4-2.6 3.4-3.63 3.34-11.72-.13-16.8-3.43-5-8.03-7.36-11.38-5.83-1.6.73-2.58 2-2.58 3.3 0 2.42 4.55 17.7 5.9 19.8.67 1.05-.43 2.3-4.25 4.9-10.7 7.25-13.78 10.25-13.46 13.06.34 2.74 3.74 5.13 7.32 5.12 1.1 0 3.85-.85 6.12-1.88zm-16.84-.64c4.4-3.1 2.47-6.1-9.2-14.3-6.7-4.7-8.8-5.08-11.02-1.92-2.16 3.08-1.95 5.9.7 9.86 4.84 7.17 14.07 10.18 19.52 6.37zm11.82-14.53c5.78-5.4 6.97-12.26 3.13-18.02-8-11.98-25.7-6.5-25.73 8 0 3.85.53 4.9 4.5 8.86 4.42 4.42 4.57 4.5 10 4.04 4.03-.34 6.2-1.1 8.1-2.88zm-14.6-4.9c-1.32-1.33-2-3.35-2-5.94 0-7.26 8.42-10.75 13.55-5.62 3.1 3.1 3.28 8.28.4 11.36-2.7 2.9-9.13 3-11.95.2zm-15 0c2.7-1.45 8.84-20.45 7.37-22.8-1.8-2.88-6.67-2.68-10.38.44-6.63 5.58-8.1 15.4-3.08 20.42 3.27 3.27 3.46 3.33 6.08 1.93zm33.02-24.05c1.45-2.7.5-5.35-3-8.3-3.6-3.03-8.85-4.06-13.87-2.7-6.9 1.86-11.33 8.45-7.95 11.84.8.78 5.04 1.2 12.47 1.2 10.3 0 11.34-.2 12.34-2.05zm36.45-32.5c12.75-3.32 23-11.93 28.82-24.2 2.94-6.2 3.2-7.58 3.2-16.82 0-9.6-.17-10.4-3.76-17.65-13.04-26.38-46.15-32.65-67.22-12.72-9.13 8.64-13.52 18.53-13.52 30.5 0 6.8 2.83 17.22 5.96 21.9 10.55 15.84 29.26 23.48 46.5 19zM254.4 205c-16.2-5.43-25.32-19.34-24.3-37.07.8-13.74 8-24.3 20.64-30.28 5.94-2.8 7.63-3.15 15.66-3.14 7.73.02 9.85.4 15 2.8 14.47 6.72 22.42 20.32 21.22 36.27-1.02 13.46-8.28 23.97-20.48 29.7-8.66 4.04-18.9 4.68-27.74 1.72zm9.56-9.86c1.52-1.86 1.6-1.84 3.78.6 1.95 2.18 2.84 2.43 7.15 2.02 5.6-.54 11.1-4.12 13.52-8.78 1.78-3.44 1.94-7.16.36-8.73-.85-.85-.22-2 2.5-4.57 3.22-3.04 3.64-4 3.64-8.3 0-8.06-5.5-15.33-11.63-15.37-5.55-.03-6.04 1.92-3 11.78 1.46 4.8 3.57 9.94 4.68 11.46 1.92 2.64 1.93 2.75.13 2.75-2 0-14.5 8.4-17.54 11.8l-1.86 2.08-2.34-2.78c-1.3-1.54-5.68-5.05-9.77-7.8-5.86-3.96-7.24-5.35-6.55-6.6 1.8-3.2 5.86-16.3 5.86-18.93.02-3.18-3.02-5.24-6.44-4.38-5.84 1.45-11.37 11.38-10 17.9.83 3.94 4.15 7.7 6.8 7.7 1.85 0 1.87.1.32 1.8-4.05 4.48-.34 13.04 7.35 17 5.2 2.66 10.55 2.4 13.05-.66zm9.88-13.04c4.46-3.18 6.38-6.7 6.3-11.6-.1-8.12-5.88-13.5-14.45-13.5-3.83 0-5.36.56-8.18 3.04-6.66 5.84-6.98 14.33-.77 20.3 5.02 4.8 11.84 5.5 17.1 1.76zm-11.58-4.28c-2.3-1.1-4.36-4.8-4.36-7.75 0-1 .93-3 2.07-4.45 1.65-2.1 2.9-2.63 6.34-2.63 5.3 0 7.98 2.56 7.98 7.67 0 6.2-6.3 9.93-12.04 7.15zm14.08-23.8c3.66-1.4 3.47-5.8-.42-9.5-6-5.78-19.58-4.18-22.45 2.63-2.58 6.12-.15 7.68 12.1 7.77 4.5.04 9.34-.37 10.76-.9zm-82.78 10.13c7.5-2.36 11.62-4.93 17.94-11.18 20.46-20.23 14.13-54.85-12.28-67.22-8.7-4.07-21.85-5.05-30.47-2.26-11.57 3.73-20.8 11.95-26.2 23.3-2.9 6.2-3.15 7.47-3.15 17.2s.23 10.97 3.2 17.26c5.37 11.33 15.57 20.03 27.3 23.3 6.74 1.87 16.97 1.7 23.66-.4zm-25.93-6.53c-15.72-6.62-23.44-18.97-22.54-36.08.57-10.6 3.76-17.47 11.37-24.42 7.95-7.27 14.38-9.43 26.45-8.9 7.2.3 10.63.96 14.22 2.68 7.44 3.6 13.34 9.44 17 16.87 3.02 6.15 3.28 7.42 3.25 16.2-.03 8.42-.37 10.2-2.92 15.45-3.68 7.58-10.12 14-17.36 17.35-8.4 3.87-21.42 4.25-29.47.85zm28.94-8.45c2.98-1.6 7.2-6.86 7.98-9.95.4-1.66.06-3.66-.96-5.43-1.3-2.26-1.34-2.8-.24-2.8.75 0 2.53-1.4 3.95-3.1 4.57-5.4 3-14.87-3.35-20.2-1.77-1.5-4.1-2.7-5.2-2.7-3.03 0-5.86 1.85-5.86 3.83 0 2.44 5.68 19.07 7.1 20.78.9 1.07.8 1.4-.34 1.4-2.3 0-18.2 12.25-18.6 14.3-.42 2.3 2.36 5.47 5.2 5.9 2.66.43 7.5-.53 10.3-2.03zm-18.9.26c4.33-3.04 2.95-5.93-5.96-12.45-10.8-7.9-14.82-7.86-14.82.17 0 9.04 13.77 17.18 20.78 12.28zm9.15-12.9c5.04-2.6 8.07-7.18 8.07-12.17 0-5.68-2.04-9.6-6.34-12.28-6.93-4.28-16.08-1.56-19.96 5.93-5.76 11.12 7.16 24.25 18.23 18.52zm-11.48-7c-5.15-5.15-1.43-13.54 6-13.54 4.77 0 7.55 2.86 7.53 7.74 0 4.3-.63 5.5-3.66 7.1-3.5 1.83-7.22 1.34-9.87-1.3zM162 127.86c2.07-3.9 5.92-16.2 5.92-18.94 0-2.94-1.5-3.93-5.98-3.93-5.62 0-11.9 10.47-10.56 17.6 1.24 6.6 8.07 10 10.6 5.26zm30-20.9c3.04-1.64 2.5-6.3-1.1-9.35-6-5.02-15.15-4.64-20.66.86-6.56 6.56-3.3 9.53 10.47 9.53 5.15 0 10.22-.48 11.3-1.05zm-90.88 17.92c8.12-1.7 16.2-6.5 22.73-13.48 8.2-8.77 10.5-14.87 10.5-27.9 0-13.12-2.28-19.15-10.63-28.07-16.68-17.83-42.08-18.96-59.88-2.66-17.54 16.05-18.4 42.2-1.98 59.56 10.4 11 24.76 15.58 39.26 12.55zm-17.45-5.98c-12.18-2.87-22.16-12.12-25.85-23.97-5.7-18.3 2.35-36.62 19.6-44.63 5.15-2.4 7.27-2.78 15-2.8 8.03 0 9.72.34 15.65 3.14 12.87 6.1 19.83 16.35 20.65 30.4.53 9.15-1.3 16.34-5.93 23.33-7.85 11.84-24.43 18-39.13 14.53zm6.37-10.84c1.6-1.96 1.65-1.95 4 .57 2.06 2.2 3.02 2.5 7.1 2.1 9.74-.92 17.44-10.9 13.75-17.8-.58-1.07-2.1-1.94-3.35-1.94-2.26 0-11.58 5.95-16.76 10.7l-2.63 2.42-2.65-2.45c-1.45-1.35-5.9-4.65-9.87-7.34l-7.23-4.88 2.16-5.48c1.18-3.02 2.85-7.87 3.7-10.78 1.48-5.05 1.46-5.4-.4-7.26-2.65-2.65-5.2-2.46-8.92.67-4.3 3.62-6.04 7.43-6.04 13.2 0 5.6 2.8 10.2 6.23 10.2 1.95 0 1.98.1.43 1.8-4 4.42-.1 13.24 7.54 17.1 5.05 2.57 10.43 2.22 12.92-.84zm6.05-11.1c4.3-1.2 9.35-6.53 10.3-10.9.96-4.36-1.03-9.48-5.08-13.02-2.93-2.58-4.3-3.05-8.77-3.05-4.54 0-5.83.45-9.04 3.24-9.4 8.16-4.53 22.46 8.42 24.65.28.04 2.15-.38 4.17-.94zm-6.7-5.93c-3.24-1.3-4.88-3.94-4.77-7.66.17-6.03 4.96-9.3 10.8-7.4 4.73 1.58 6.6 6.45 4.38 11.36-1.74 3.84-6.2 5.42-10.4 3.7zm29.97-4.27c.85-1.22 1.55-4.2 1.55-6.6 0-8.33-5.23-15.17-11.6-15.17-5.5 0-5.92 2.34-2.37 13.4 4.08 12.75 7.66 15.15 12.42 8.36zm-17.15-19.7c3.27-1.24 4-3.6 2.18-7.12-2.27-4.38-6.7-6.25-13.64-5.75-4.74.33-6.4.95-8.84 3.3-3.98 3.8-4.1 7.92-.25 9.32 3.52 1.3 17.37 1.45 20.55.24z"/><path fill="#6a6d75" d="M59.67 444.4c-15.06-2.72-28.2-9.74-39.25-20.94-8.22-8.35-13.5-16.9-17.28-27.97l-2.72-8-.28-161C-.18 45.25-.64 57.06 7.4 40.43c5.2-10.8 14.3-21.18 24.33-27.8C40.3 7 46.45 4.35 56.43 1.95 64.07.07 69.28 0 179.42 0c110.12 0 115.33.08 123 1.93 9.96 2.4 16.12 5.07 24.68 10.72 10.04 6.6 19.13 17 24.34 27.8 8.04 16.62 7.58 4.8 7.26 186.04l-.28 161-2.72 8c-8.95 26.27-32.04 45.5-59.38 49.45-4.28.62-49 .97-117.9.93-90.58-.06-112.42-.33-118.75-1.47zm247.25-6.26c23.5-8.46 38.87-24.3 44.97-46.28 2-7.23 2.02-9.56 2.02-168.9 0-180.06.54-166.2-7.14-181.9-3.17-6.47-5.87-10.14-11.74-16-11.57-11.5-23.95-17.76-39.72-20.04-9.32-1.34-222.48-1.34-231.8 0-15.7 2.27-28 8.47-39.67 20-5.92 5.85-8.54 9.42-11.76 16C4.36 56.77 4.9 42.85 4.9 222.97c0 159.23.03 161.66 2.03 168.87 6.12 22.1 22.68 39.03 44.97 46 3.58 1.13 7.63 2.24 9 2.47 1.38.25 55.83.38 121 .3l118.5-.1 6.5-2.36zm-192.64-26.58c-18.22-4.16-32.5-17.6-37.76-35.5-2.27-7.73-2.1-21.27.4-29.3 4.8-15.55 17.17-27.95 32.7-32.75l5.6-1.73-6.28-2.12c-20.92-7.06-34.02-25.64-34.02-48.24 0-22.7 13.58-41.34 35-48 7.65-2.4 20.15-2.8 28.12-.9 11.94 2.8 24.14 11.5 30.85 21.94 3.38 5.28 7.02 15.06 7.02 18.87 0 3.65.83 2.27 2.5-4.17 5.98-22.93 24.96-37.73 48.5-37.8l8.5-.02-5.8-5.93c-9.86-10.06-16.06-27.3-14.23-39.52l.65-4.4-6.27 4.05c-6.33 4.1-15.55 7.35-23.9 8.45-12.54 1.65-29.57-4.2-39.45-13.54-10.05-9.5-14.96-19.84-16.14-34l-.66-7.83-4.08 3.5c-8.57 7.33-20.38 11.4-33.2 11.4-17.45.03-33-8.1-42.36-22.1-5.7-8.52-8.08-16.92-8.08-28.38 0-11.45 2.3-19.5 8.1-28.34C63.93 34 92.96 26.88 116.9 38.76c8.28 4.12 17.3 13.5 21.48 22.34 3.5 7.46 6.1 19.56 5.33 24.88l-.4 2.75 5.06-4.03c9.2-7.3 21.8-11.7 33.58-11.7 6.47 0 19.4 3.46 24.9 6.67 6.92 4.04 15.48 12.7 18.87 19.1 4.47 8.43 6.22 15.5 6.22 25.02v8.43l2.25-1.62c29.43-21.2 70.47-8.9 80.77 24.24 2.7 8.7 2.7 22.62-.03 31.44-6.43 20.85-25.64 34.66-48.25 34.7h-7.77l5.43 5.44c24.12 24.1 17.1 66.4-13.45 81.03-4.06 1.95-8.1 3.54-8.98 3.54-3.9 0-2.4 1.44 3.55 3.45 34.58 11.64 44.8 57.42 18.64 83.55-28.22 28.2-77.1 14-86.18-25l-1.28-5.5-1.25 6.08c-4.43 21.7-23.74 37.74-46.9 38.96-4.85.25-10.46-.14-14.17-.98zm28.82-11.27c16.7-7.84 25.58-22.6 24.62-40.9-1.1-21.2-17.76-37.82-39.22-39.16-18.57-1.16-33.6 7.96-41.8 25.37-2.9 6.16-3.26 7.83-3.27 15.9 0 6.16.57 10.64 1.82 14.23 3.96 11.37 14.96 22.18 26.88 26.42 4.1 1.46 7.44 1.8 14.8 1.58 8.18-.26 10.4-.74 16.17-3.44zm-30.96-4.4c-7.56-2.98-16.22-11.34-19.82-19.13-2.5-5.4-2.9-7.48-2.87-14.78.02-7.07.48-9.5 2.68-14.23 3.5-7.53 10.37-14.74 17.5-18.36 5.25-2.64 6.72-2.9 15.8-2.9 8.74 0 10.7.32 15.7 2.66 7.25 3.4 14.2 10.36 17.62 17.63 2.34 4.98 2.67 6.93 2.66 15.7 0 8.97-.28 10.52-2.78 15.27-3.95 7.54-8.73 12.42-15.93 16.28-5.67 3.03-7.2 3.4-15.78 3.65-7.75.24-10.47-.1-14.78-1.8zm27.28-7.8c2.2-1.02 5.05-3 6.33-4.38 2.72-2.96 3.9-9.5 2.25-12.6-.9-1.7-.87-2.13.2-2.13.76 0 2.45-1.16 3.76-2.56 1.92-2.05 2.38-3.57 2.32-7.78-.14-9.34-6.1-16.33-13.05-15.3-2.3.35-3.06.13-2.7-.77.26-.7 0-2.5-.56-4-1.2-3.13-7.8-6.56-12.73-6.6-6.8-.04-13.32 4.37-13.32 9.04 0 4.52 1.76 5.1 14.43 4.76l11.57-.3v2.7c0 3.2 4.5 17.5 6.13 19.45.83 1 .8 1.34-.1 1.34-1.78 0-17.1 10.97-17.76 12.73-.5 1.25-.86 1.16-2.18-.5-2.8-3.5-15.8-12.24-18.24-12.27-2.05-.03-2.13-.17-.65-1.03 1-.58 3.06-5.28 4.9-11.13 3.56-11.3 3.3-13.1-2.03-13.63-6.82-.68-12.07 5.9-12.08 15.1 0 4.83.4 6.22 2.45 8.26 1.35 1.35 3.02 2.46 3.7 2.46.97 0 .98.25.05 1.2-1.83 1.82-1.42 7.93.75 11.23 4.3 6.52 14.63 9.64 19.84 6 2.07-1.45 2.44-1.4 4.87.5 3.22 2.53 6.62 2.58 11.85.17zm-7.06-13.65c3.9-1.85 7.56-7.97 7.56-12.6 0-6.83-7-13.85-13.78-13.86-8.38-.02-14.22 5.74-14.2 14 0 5.66 1.6 8.8 5.9 11.7 3.98 2.7 9.8 3 14.52.75zm-12.27-6.78c-1.4-1.5-2.18-3.6-2.18-5.93 0-8.35 11.78-10.54 15-2.78 3.34 8.1-6.88 15.04-12.83 8.7zM241.1 402.1c7.42-2.56 12.36-5.83 18.12-12 19.05-20.43 12.58-53.16-13-65.8-6.5-3.22-8.64-3.76-16.16-4.1-7-.34-9.9 0-15.08 1.75-30 10.15-39.38 45.92-17.97 68.56 6 6.36 9.72 8.85 17.1 11.52 7.18 2.57 19.6 2.6 27 .07zm-24.88-5.5c-8.45-2.75-17.02-10.16-21.13-18.26-11.66-22.97 4.62-50.9 30.42-52.2 27.05-1.36 45.84 24.15 36.34 49.34-2.74 7.24-10.94 15.9-18.44 19.47-6.17 2.94-20.56 3.8-27.18 1.65zm23.83-7.64c2.13-.6 5.15-2.67 7.25-5 2.96-3.27 3.6-4.75 3.6-8.28 0-2.36-.48-4.78-1.07-5.37-.77-.75-.32-1.25 1.56-1.72 1.76-.44 3.14-1.83 4.1-4.1 1.9-4.56 1.76-8.14-.48-13.07-4.24-9.34-15.1-11.78-15.1-3.4 0 2.64 3.87 15 5.86 18.72.9 1.66.66 2.16-1.36 3.1-4.8 2.17-16.5 11.36-16.56 13-.05 1.24-.28 1.13-.93-.46-1-2.47-16.03-13.37-18.44-13.37-1.44 0-1.46-.27-.2-2.26.78-1.24 2.7-6.2 4.24-11.04 3.23-10.07 2.8-12.03-2.77-12.5-4.17-.37-7.88 2.23-10.22 7.16-3.14 6.62-1.28 16.65 3.36 18.12 1.62.5 1.82 1 1.02 2.5-2.5 4.65.48 11.4 6.92 15.73 4.5 3.04 11.98 3.16 14.6.25 1.66-1.82 1.96-1.86 2.75-.44 1.75 3.16 6.12 4.06 11.87 2.46zm-4.57-14.86c5.96-3.63 8.1-12.52 4.6-19.05-3.45-6.42-11.74-8.8-18.9-5.4-9.3 4.42-9.9 18.94-.98 24.38 4.14 2.52 11.2 2.55 15.28.07zm-13.13-6.57c-4.96-4.96-1.44-13.54 5.55-13.54 4.1 0 8 3.87 8 8 0 4.1-3.9 8-8 8-1.95 0-4-.92-5.55-2.47zm17.35-22.74c2.04-2.05 1.33-5.83-1.64-8.8-5.27-5.27-17.74-4.9-22.1.65-2.3 2.92-2.66 6.33-.86 8.14 1.65 1.64 22.95 1.64 24.6 0zm-61.35 4.7c1-5.62 5.86-15.18 10.5-20.6 5.32-6.2 13.72-11.8 21.8-14.54 3.7-1.24 6.05-2.46 5.24-2.7-6.45-1.95-12.24-4.47-16.5-7.16-10.23-6.5-19-19.24-21.56-31.3l-1.2-5.7-1.27 6.08c-3.77 18.22-17.34 32.02-37.42 38.07-.8.24 1.5 1.48 5.1 2.74 10.8 3.76 21.1 12 26.44 21.1 2.96 5.1 6.4 14.9 6.45 18.4.04 3.53 1.48.9 2.42-4.4zm-35.26-48.86c16.37-7.88 25.57-23.23 24.63-41.06-1.92-36.37-47.04-53-72.2-26.63-6.7 7.03-10.26 13.93-11.8 22.92-3.46 20.2 9.1 39.96 29.7 46.77 2.54.84 7.62 1.2 14 1.03 8.47-.25 10.85-.7 15.68-3.03zm-23.3-2.66c-10.13-1.73-18.7-7.18-24.35-15.5-12.7-18.6-5.53-43.57 15.3-53.33 4.9-2.3 6.97-2.66 15.17-2.66 8.4 0 10.17.32 15.22 2.8 7.53 3.7 14.3 10.4 17.6 17.47 2.35 5 2.68 6.95 2.67 15.72 0 8.9-.3 10.55-2.7 15.1-3.45 6.6-7 10.77-12.14 14.26-7.9 5.37-17.85 7.65-26.77 6.12zm19.7-9.6c5.46-2.6 9.42-7.8 9.42-12.36 0-2.14-.65-4.55-1.46-5.35-1.27-1.27-1.1-1.52 1.3-2 7.98-1.6 7.08-18.63-1.26-23.85-2.06-1.3-4.16-1.77-6.35-1.44-2.04.3-3.04.1-2.66-.5 1.06-1.73-1.74-6.92-4.47-8.32-6.7-3.43-14.3-2.97-19.18 1.14-1.9 1.6-2.93 3.4-2.93 5.15 0 2.5-.26 2.66-3.76 2.33-7.1-.68-12.24 5.95-12.24 15.82 0 4.06.5 5.57 2.45 7.53 1.35 1.35 2.95 2.46 3.54 2.46.77 0 .78.56.06 1.92-2.77 5.17.88 13.38 7.3 16.42 4.46 2.12 11.46 2.14 13.78.04 1.65-1.5 2-1.45 4.47.5 3.2 2.52 7.4 2.7 12 .5zm-15.28-6.7c-1.25-2.08-14.42-11.7-16.83-12.3-2.14-.53-2.14-.57-.36-4.2.98-2.04 2.83-7.3 4.1-11.7l2.28-8h24.5v3.08c0 3.4 4.32 16.9 6.1 19.05.77.93.8 1.4.1 1.4-1.57 0-14.33 8.74-16.9 11.56-1.7 1.86-2.4 2.12-3 1.1zm9.23-7.7c8.3-5.15 8.3-18.12 0-23.57-6.28-4.1-15.9-2.14-19.64 4-2.37 3.9-2.5 12.23-.26 15.45 4.22 6.03 13.66 7.98 19.9 4.12zm-13.36-6.3c-3.18-3.38-2.96-8.94.46-11.62 3.65-2.87 7-2.6 10.44.85 3.6 3.62 3.77 7.33.47 10.63-3.25 3.25-8.4 3.3-11.38.14zm125.95 32.56c7.93-3.9 16.93-12.95 20.36-20.47 9.58-20.95.74-45.14-20.27-55.52-7.34-3.63-7.98-3.76-18.16-3.76-9.8 0-11.03.2-17.3 3.2-17.52 8.28-27.97 26.9-24.9 44.37 2.13 12.05 8.36 22.06 17.77 28.54 8.57 5.9 14.26 7.48 25.94 7.14 8.98-.26 10.75-.63 16.57-3.5zm-24.48-2.3c-10.5-1.76-21.56-9.95-26.44-19.56-9.04-17.8-1.58-39.67 16.56-48.6 6.13-3.03 7.45-3.3 16.2-3.3 8.2 0 10.28.37 15.02 2.63 8.4 4.03 13.46 9 17.6 17.4 3.28 6.63 3.66 8.2 3.64 15.2-.04 11.23-2.85 18.08-10.65 25.87-8.76 8.77-19.9 12.38-31.93 10.37zm19.65-9.3c1.78-.75 4.7-3 6.47-5.04 2.58-2.96 3.22-4.55 3.22-8.1 0-2.4-.5-4.7-1.13-5.1-.7-.4.08-1.2 1.93-1.98 8-3.36 5.76-19.98-3.26-24.32-4.06-1.95-7.95-.47-8.37 3.2-.3 2.67 4.2 18.06 5.95 20.28.54.7 0 1.48-1.5 2.17-4.7 2.14-16.63 11.52-16.67 13.1-.02 1.2-.37 1.03-1.28-.62-1.5-2.72-15.86-13.24-18.05-13.24-1.36 0-1.33-.43.24-3.26 3.2-5.8 6.64-18.7 5.47-20.58-1.42-2.27-6.94-2.67-9.9-.73-7.38 4.83-8.74 20.64-2.05 23.7 2.1.95 2.3 1.43 1.4 3.4-2.3 5.06 1.87 12.74 8.88 16.34 3.58 1.83 10.76 1.4 12.73-.78 1.67-1.86 1.76-1.85 4.1.5 2.74 2.73 6.87 3.1 11.8 1.04zm-5.6-14.6c11.55-7.05 5.9-26.05-7.75-26.05-7.73 0-13.95 6.2-13.95 13.9 0 8.42 5.63 14.08 14 14.08 2.7 0 5.78-.78 7.7-1.95zm-13.63-6.7c-1.15-1.44-2.08-3.93-2.08-5.53 0-3.43 3.93-7.8 7-7.8 2.88 0 7.62 2.56 8.38 4.53 3.25 8.48-7.8 15.8-13.3 8.82zm17.72-22.55c3.54-3.56-.64-9.9-7.8-11.8-8.4-2.27-18 2.1-18 8.2 0 4.2 1.67 4.8 13.5 4.8 7.3 0 11.5-.42 12.3-1.2zm36.67-33.35c12.75-3.32 23-11.93 28.82-24.2 2.94-6.2 3.2-7.58 3.2-16.82 0-9.6-.17-10.4-3.76-17.65-13.04-26.38-46.15-32.65-67.22-12.72-9.13 8.64-13.52 18.53-13.52 30.5 0 6.8 2.83 17.22 5.96 21.9 10.55 15.84 29.26 23.48 46.5 19zM254.4 205c-16.2-5.43-25.32-19.34-24.3-37.07.8-13.74 8-24.3 20.64-30.28 5.94-2.8 7.63-3.15 15.66-3.14 7.73.02 9.85.4 15 2.8 14.47 6.72 22.42 20.32 21.22 36.27-1.02 13.46-8.28 23.97-20.48 29.7-8.66 4.04-18.9 4.68-27.74 1.72zm9.56-9.86c1.52-1.86 1.6-1.84 3.78.6 1.95 2.18 2.84 2.43 7.15 2.02 5.6-.54 11.1-4.12 13.52-8.78 1.78-3.44 1.94-7.16.36-8.73-.85-.85-.22-2 2.5-4.57 3.22-3.04 3.64-4 3.64-8.3 0-8.06-5.5-15.33-11.63-15.37-5.55-.03-6.04 1.92-3 11.78 1.46 4.8 3.57 9.94 4.68 11.46 1.92 2.64 1.93 2.75.13 2.75-2 0-14.5 8.4-17.54 11.8l-1.86 2.08-2.34-2.78c-1.3-1.54-5.68-5.05-9.77-7.8-5.86-3.96-7.24-5.35-6.55-6.6 1.8-3.2 5.86-16.3 5.86-18.93.02-3.18-3.02-5.24-6.44-4.38-5.84 1.45-11.37 11.38-10 17.9.83 3.94 4.15 7.7 6.8 7.7 1.85 0 1.87.1.32 1.8-4.05 4.48-.34 13.04 7.35 17 5.2 2.66 10.55 2.4 13.05-.66zm9.88-13.04c4.46-3.18 6.38-6.7 6.3-11.6-.1-8.12-5.88-13.5-14.45-13.5-3.83 0-5.36.56-8.18 3.04-6.66 5.84-6.98 14.33-.77 20.3 5.02 4.8 11.84 5.5 17.1 1.76zm-11.58-4.28c-2.3-1.1-4.36-4.8-4.36-7.75 0-1 .93-3 2.07-4.45 1.65-2.1 2.9-2.63 6.34-2.63 5.3 0 7.98 2.56 7.98 7.67 0 6.2-6.3 9.93-12.04 7.15zm14.08-23.8c3.66-1.4 3.47-5.8-.42-9.5-6-5.78-19.58-4.18-22.45 2.63-2.58 6.12-.15 7.68 12.1 7.77 4.5.04 9.34-.37 10.76-.9zm-82.78 10.13c7.5-2.36 11.62-4.93 17.94-11.18 20.46-20.23 14.13-54.85-12.28-67.22-8.7-4.07-21.85-5.05-30.47-2.26-11.57 3.73-20.8 11.95-26.2 23.3-2.9 6.2-3.15 7.47-3.15 17.2s.23 10.97 3.2 17.26c5.37 11.33 15.57 20.03 27.3 23.3 6.74 1.87 16.97 1.7 23.66-.4zm-25.93-6.53c-15.72-6.62-23.44-18.97-22.54-36.08.57-10.6 3.76-17.47 11.37-24.42 7.95-7.27 14.38-9.43 26.45-8.9 7.2.3 10.63.96 14.22 2.68 7.44 3.6 13.34 9.44 17 16.87 3.02 6.15 3.28 7.42 3.25 16.2-.03 8.42-.37 10.2-2.92 15.45-3.68 7.58-10.12 14-17.36 17.35-8.4 3.87-21.42 4.25-29.47.85zm28.94-8.45c2.98-1.6 7.2-6.86 7.98-9.95.4-1.66.06-3.66-.96-5.43-1.3-2.26-1.34-2.8-.24-2.8.75 0 2.53-1.4 3.95-3.1 4.57-5.4 3-14.87-3.35-20.2-1.77-1.5-4.1-2.7-5.2-2.7-3.03 0-5.86 1.85-5.86 3.83 0 2.44 5.68 19.07 7.1 20.78.9 1.07.8 1.4-.34 1.4-2.3 0-18.2 12.25-18.6 14.3-.42 2.3 2.36 5.47 5.2 5.9 2.66.43 7.5-.53 10.3-2.03zm-18.9.26c4.33-3.04 2.95-5.93-5.96-12.45-10.8-7.9-14.82-7.86-14.82.17 0 9.04 13.77 17.18 20.78 12.28zm9.15-12.9c5.04-2.6 8.07-7.18 8.07-12.17 0-5.68-2.04-9.6-6.34-12.28-6.93-4.28-16.08-1.56-19.96 5.93-5.76 11.12 7.16 24.25 18.23 18.52zm-11.48-7c-5.15-5.15-1.43-13.54 6-13.54 4.77 0 7.55 2.86 7.53 7.74 0 4.3-.63 5.5-3.66 7.1-3.5 1.83-7.22 1.34-9.87-1.3zM162 127.86c2.07-3.9 5.92-16.2 5.92-18.94 0-2.94-1.5-3.93-5.98-3.93-5.62 0-11.9 10.47-10.56 17.6 1.24 6.6 8.07 10 10.6 5.26zm30-20.9c3.04-1.64 2.5-6.3-1.1-9.35-6-5.02-15.15-4.64-20.66.86-6.56 6.56-3.3 9.53 10.47 9.53 5.15 0 10.22-.48 11.3-1.05zm-90.88 17.92c8.12-1.7 16.2-6.5 22.73-13.48 8.2-8.77 10.5-14.87 10.5-27.9 0-13.12-2.28-19.15-10.63-28.07-16.68-17.83-42.08-18.96-59.88-2.66-17.54 16.05-18.4 42.2-1.98 59.56 10.4 11 24.76 15.58 39.26 12.55zm-17.45-5.98c-12.18-2.87-22.16-12.12-25.85-23.97-5.7-18.3 2.35-36.62 19.6-44.63 5.15-2.4 7.27-2.78 15-2.8 8.03 0 9.72.34 15.65 3.14 12.87 6.1 19.83 16.35 20.65 30.4.53 9.15-1.3 16.34-5.93 23.33-7.85 11.84-24.43 18-39.13 14.53zm6.37-10.84c1.6-1.96 1.65-1.95 4 .57 2.06 2.2 3.02 2.5 7.1 2.1 9.74-.92 17.44-10.9 13.75-17.8-.58-1.07-2.1-1.94-3.35-1.94-2.26 0-11.58 5.95-16.76 10.7l-2.63 2.42-2.65-2.45c-1.45-1.35-5.9-4.65-9.87-7.34l-7.23-4.88 2.16-5.48c1.18-3.02 2.85-7.87 3.7-10.78 1.48-5.05 1.46-5.4-.4-7.26-2.65-2.65-5.2-2.46-8.92.67-4.3 3.62-6.04 7.43-6.04 13.2 0 5.6 2.8 10.2 6.23 10.2 1.95 0 1.98.1.43 1.8-4 4.42-.1 13.24 7.54 17.1 5.05 2.57 10.43 2.22 12.92-.84zm6.05-11.1c4.3-1.2 9.35-6.53 10.3-10.9.96-4.36-1.03-9.48-5.08-13.02-2.93-2.58-4.3-3.05-8.77-3.05-4.54 0-5.83.45-9.04 3.24-9.4 8.16-4.53 22.46 8.42 24.65.28.04 2.15-.38 4.17-.94zm-6.7-5.93c-3.24-1.3-4.88-3.94-4.77-7.66.17-6.03 4.96-9.3 10.8-7.4 4.73 1.58 6.6 6.45 4.38 11.36-1.74 3.84-6.2 5.42-10.4 3.7zm29.97-4.27c.85-1.22 1.55-4.2 1.55-6.6 0-8.33-5.23-15.17-11.6-15.17-5.5 0-5.92 2.34-2.37 13.4 4.08 12.75 7.66 15.15 12.42 8.36zm-17.15-19.7c3.27-1.24 4-3.6 2.18-7.12-2.27-4.38-6.7-6.25-13.64-5.75-4.74.33-6.4.95-8.84 3.3-3.98 3.8-4.1 7.92-.25 9.32 3.52 1.3 17.37 1.45 20.55.24z"/><path fill="#871a1f" d="M55.3 443.1c-25.9-6.38-46.05-25.87-52.4-50.72C.96 384.86.9 380.63.9 222.64.92 43.14.5 55.12 7.46 40.5 14 26.7 25.84 15.03 40.42 7.95 56.74.02 48.1.5 179.42.5s122.68-.48 139 7.46c14.54 7.07 26.3 18.67 33.02 32.54 6.85 14.16 6.45 2.84 6.47 182.5.02 161.26 0 162.58-2.05 170-5.63 20.32-18.93 35.9-38.43 45.03-15.58 7.3-9 6.96-138.7 6.88-107.18-.06-116.86-.2-123.4-1.8zm248-3.47c20.53-6.2 36.17-19.18 44.8-37.14 7.28-15.2 6.9-4.35 6.6-182.8l-.28-160.2-2.34-7c-7.25-21.72-23.9-38.1-46.58-45.88-6-2.06-7.5-2.1-122.9-2.4C68.14 3.95 65.65 4 57.26 5.98 44.43 9.02 34 14.87 24.32 24.47 15.27 33.43 10.35 41.4 6.75 52.98l-2.33 7.5V223c0 181.7-.62 165.86 7.05 181.08 9.86 19.58 30.35 33.97 52.95 37.2 1.65.24 54.75.37 118 .28 107.2-.14 115.4-.27 120.9-1.93zm-187.88-27.8c-13.98-2.66-28.92-14.07-35.22-26.9-4.3-8.75-5.6-15.5-5.04-25.84.58-10.44 2.6-16.5 8.36-25.24 6.32-9.54 14.2-15.6 25.36-19.5 3.57-1.25 5.82-2.47 5-2.7-19.6-5.92-32.88-18.76-37.43-36.2-1.9-7.28-1.96-19.28-.14-26.1 9.1-34.16 50.96-48.9 79.4-27.95 10.13 7.46 17.24 18.27 19.64 29.85l1.3 6.24 1.2-5.73c1.77-8.36 6.54-17.13 13.18-24.23 9.64-10.3 22.34-15.7 36.93-15.7h7.97l-5.78-5.8c-9.93-9.92-16.23-26.54-14.72-38.8.35-2.9.4-5.25.07-5.25-.32 0-2.83 1.6-5.6 3.6-15.86 11.4-39.63 11.62-56.55.53-7.33-4.8-11.26-8.9-15.9-16.64-4.3-7.14-6.27-13.48-7.28-23.27l-.75-7.2-4.5 3.58c-15.97 12.7-37.97 15.02-55.98 5.9-11.38-5.77-22.3-19.34-25.63-31.88-1.84-6.94-1.74-20.05.22-26.7C49.96 47.97 69.76 33.04 92.46 33c27.67-.05 50.4 21.96 50.85 49.23.07 3.7.28 6.74.47 6.75.2 0 2.28-1.7 4.65-3.78 5.88-5.18 14.3-9.1 23.58-11.03 24.47-5.06 50.47 10.44 57.9 34.52 1.4 4.46 2.02 9.3 2.02 15.48v8.98l3.14-2.64c4.42-3.72 11.47-7.12 18.58-8.96 26.7-6.92 54.04 8.94 61.8 35.86 1.3 4.5 1.62 8.4 1.27 16.12-.4 9.17-.8 10.98-4.1 17.9-8.8 18.52-26.2 29.55-46.68 29.55h-7.6l6.1 6.24c15.52 15.9 18.8 39.26 8.3 58.97-5.65 10.6-17.26 20.37-28.3 23.8-4.83 1.5-6.74 3-3.82 3 1.15 0 5.7 1.8 10.1 4 25.63 12.82 35.53 43.87 22.04 69.16-3.84 7.2-14.6 17.6-21.97 21.2-15.65 7.66-34.28 6.9-49.47-2-10.93-6.4-20.73-20.24-23.45-33.1l-1.2-5.77-1.3 6.12c-5.52 26.7-32.55 44.38-59.93 39.2zm28.84-11.7c8.56-4.2 15.6-11.26 19.83-19.84 3.18-6.5 3.32-7.25 3.3-18.3 0-10.38-.27-12.08-2.7-17.27-3.07-6.6-11.14-15.6-17.17-19.12-7.14-4.18-14.9-5.9-24.67-5.43-7.62.37-9.74.9-16.27 4.14-29.05 14.36-31.7 54.44-4.83 72.93 7.4 5.08 14.18 6.8 25.7 6.5 9.08-.25 10.72-.6 16.8-3.6zm-32.12-4.22c-7.56-2.98-16.22-11.34-19.82-19.13-2.5-5.4-2.9-7.48-2.87-14.78.02-7.07.48-9.5 2.68-14.23 3.5-7.53 10.37-14.74 17.5-18.36 5.25-2.64 6.72-2.9 15.8-2.9 8.74 0 10.7.32 15.7 2.66 7.25 3.4 14.2 10.36 17.62 17.63 2.34 4.98 2.67 6.93 2.66 15.7 0 8.97-.28 10.52-2.78 15.27-3.95 7.54-8.73 12.42-15.93 16.28-5.67 3.03-7.2 3.4-15.78 3.65-7.75.24-10.47-.1-14.78-1.8zm27.28-7.8c2.2-1.02 5.05-3 6.33-4.38 2.72-2.96 3.9-9.5 2.25-12.6-.9-1.7-.87-2.13.2-2.13.76 0 2.45-1.16 3.76-2.56 1.92-2.05 2.38-3.57 2.32-7.78-.14-9.34-6.1-16.33-13.05-15.3-2.3.35-3.06.13-2.7-.77.26-.7 0-2.5-.56-4-1.2-3.13-7.8-6.56-12.73-6.6-6.8-.04-13.32 4.37-13.32 9.04 0 4.52 1.76 5.1 14.43 4.76l11.57-.3v2.7c0 3.2 4.5 17.5 6.13 19.45.83 1 .8 1.34-.1 1.34-1.78 0-17.1 10.97-17.76 12.73-.5 1.25-.86 1.16-2.18-.5-2.8-3.5-15.8-12.24-18.24-12.27-2.05-.03-2.13-.17-.65-1.03 1-.58 3.06-5.28 4.9-11.13 3.56-11.3 3.3-13.1-2.03-13.63-6.82-.68-12.07 5.9-12.08 15.1 0 4.83.4 6.22 2.45 8.26 1.35 1.35 3.02 2.46 3.7 2.46.97 0 .98.25.05 1.2-1.83 1.82-1.42 7.93.75 11.23 4.3 6.52 14.63 9.64 19.84 6 2.07-1.45 2.44-1.4 4.87.5 3.22 2.53 6.62 2.58 11.85.17zm-7.06-13.65c3.9-1.85 7.56-7.97 7.56-12.6 0-6.83-7-13.85-13.78-13.86-8.38-.02-14.22 5.74-14.2 14 0 5.66 1.6 8.8 5.9 11.7 3.98 2.7 9.8 3 14.52.75zm-12.27-6.78c-1.4-1.5-2.18-3.6-2.18-5.93 0-8.35 11.78-10.54 15-2.78 3.34 8.1-6.88 15.04-12.83 8.7zm126.06 32.6c29.4-13.82 32.6-55.2 5.63-73.2-12.27-8.2-29.65-9.42-42.7-3-16.77 8.23-26.3 26.57-23.24 44.67 2.74 16.18 12.68 27.84 28.55 33.5 3.85 1.37 7.36 1.72 15.02 1.5 8.8-.27 10.82-.7 16.74-3.47zm-29.92-3.67c-8.45-2.75-17.02-10.16-21.13-18.26-11.66-22.97 4.62-50.9 30.42-52.2 27.05-1.36 45.84 24.15 36.34 49.34-2.74 7.24-10.94 15.9-18.44 19.47-6.17 2.94-20.56 3.8-27.18 1.65zm23.83-7.64c2.13-.6 5.15-2.67 7.25-5 2.96-3.27 3.6-4.75 3.6-8.28 0-2.36-.48-4.78-1.07-5.37-.77-.75-.32-1.25 1.56-1.72 1.76-.44 3.14-1.83 4.1-4.1 1.9-4.56 1.76-8.14-.48-13.07-4.24-9.34-15.1-11.78-15.1-3.4 0 2.64 3.87 15 5.86 18.72.9 1.66.66 2.16-1.36 3.1-4.8 2.17-16.5 11.36-16.56 13-.05 1.24-.28 1.13-.93-.46-1-2.47-16.03-13.37-18.44-13.37-1.44 0-1.46-.27-.2-2.26.78-1.24 2.7-6.2 4.24-11.04 3.23-10.07 2.8-12.03-2.77-12.5-4.17-.37-7.88 2.23-10.22 7.16-3.14 6.62-1.28 16.65 3.36 18.12 1.62.5 1.82 1 1.02 2.5-2.5 4.65.48 11.4 6.92 15.73 4.5 3.04 11.98 3.16 14.6.25 1.66-1.82 1.96-1.86 2.75-.44 1.75 3.16 6.12 4.06 11.87 2.46zm-4.57-14.86c5.96-3.63 8.1-12.52 4.6-19.05-3.45-6.42-11.74-8.8-18.9-5.4-9.3 4.42-9.9 18.94-.98 24.38 4.14 2.52 11.2 2.55 15.28.07zm-13.13-6.57c-4.96-4.96-1.44-13.54 5.55-13.54 4.1 0 8 3.87 8 8 0 4.1-3.9 8-8 8-1.95 0-4-.92-5.55-2.47zm17.35-22.74c2.04-2.05 1.33-5.83-1.64-8.8-5.27-5.27-17.74-4.9-22.1.65-2.3 2.92-2.66 6.33-.86 8.14 1.65 1.64 22.95 1.64 24.6 0zm-61.8 6.67c3.54-17.03 18.15-32.7 35.5-38.04 3.34-1.03 3.67-1.35 2-1.94-20.82-7.27-32.18-18.68-37-37.13-1.67-6.47-2.5-7.85-2.5-4.2 0 1.37-.9 5.12-2 8.33-5.08 14.75-17.78 27.13-32.84 31.98l-5.33 1.72 6.36 2.15c13.1 4.4 23.43 13.56 29.46 26.1 1.84 3.82 3.63 9.1 3.98 11.74.35 2.63.77 4.8.94 4.8.16 0 .8-2.5 1.44-5.53zm-33.76-51.2c8.72-4.1 15.92-11.3 20.07-20.04 3-6.3 3.2-7.45 3.2-17.74 0-13.87-2.14-19.84-10.2-28.55-20.55-22.2-56.78-17.2-69.92 9.67-7.64 15.63-4.7 34.62 7.35 47.5 9.2 9.85 17.34 13.02 32.27 12.6 9.38-.25 11.22-.62 17.24-3.45zm-24.37-2.3c-10.13-1.72-18.7-7.17-24.35-15.48-12.7-18.63-5.53-43.6 15.3-53.35 4.9-2.3 6.97-2.66 15.17-2.66 8.4 0 10.17.32 15.22 2.8 7.53 3.7 14.3 10.4 17.6 17.47 2.35 5 2.68 6.95 2.67 15.72 0 8.9-.3 10.55-2.7 15.1-3.45 6.6-7 10.77-12.14 14.26-7.9 5.37-17.85 7.65-26.77 6.12zm19.7-9.6c5.46-2.58 9.42-7.78 9.42-12.35 0-2.14-.65-4.55-1.46-5.35-1.27-1.27-1.1-1.52 1.3-2 7.98-1.6 7.08-18.63-1.26-23.85-2.06-1.3-4.16-1.77-6.35-1.44-2.04.3-3.04.1-2.66-.5 1.06-1.73-1.74-6.92-4.47-8.32-6.7-3.43-14.3-2.97-19.18 1.14-1.9 1.6-2.93 3.4-2.93 5.15 0 2.5-.26 2.66-3.76 2.33-7.1-.68-12.24 5.95-12.24 15.82 0 4.06.5 5.57 2.45 7.53 1.35 1.35 2.95 2.46 3.54 2.46.77 0 .78.56.06 1.92-2.77 5.17.88 13.38 7.3 16.42 4.46 2.12 11.46 2.14 13.78.04 1.65-1.5 2-1.45 4.47.5 3.2 2.52 7.4 2.7 12 .5zm-15.28-6.7c-1.25-2.07-14.42-11.68-16.83-12.28-2.14-.55-2.14-.6-.36-4.23.98-2.03 2.83-7.28 4.1-11.68l2.28-8h24.5v3.06c0 3.4 4.32 16.9 6.1 19.05.77.93.8 1.4.1 1.4-1.57 0-14.33 8.74-16.9 11.56-1.7 1.86-2.4 2.12-3 1.1zm9.23-7.7c8.3-5.14 8.3-18.1 0-23.56-6.28-4.1-15.9-2.14-19.64 4-2.37 3.9-2.5 12.23-.26 15.45 4.22 6.03 13.66 7.98 19.9 4.12zm-13.36-6.3c-3.18-3.37-2.96-8.93.46-11.6 3.65-2.88 7-2.6 10.44.84 3.6 3.62 3.77 7.33.47 10.63-3.25 3.25-8.4 3.3-11.38.14zm127.05 32.05c33.9-16.76 29.68-66.6-6.57-77.9-12.3-3.85-27.32-1.42-37.8 6.08-23.56 16.87-23.16 52.7.77 69.17 7.82 5.4 13.56 6.88 25.43 6.64 9.98-.2 10.97-.42 18.17-3.98zm-25.58-1.78c-10.5-1.76-21.56-9.95-26.44-19.56-9.04-17.8-1.58-39.67 16.56-48.6 6.13-3.03 7.45-3.3 16.2-3.3 8.2 0 10.28.37 15.02 2.63 8.4 4.03 13.46 9 17.6 17.4 3.28 6.63 3.66 8.2 3.64 15.2-.04 11.23-2.85 18.08-10.65 25.87-8.76 8.77-19.9 12.38-31.93 10.37zm19.65-9.3c1.78-.75 4.7-3 6.47-5.04 2.58-2.96 3.22-4.55 3.22-8.1 0-2.4-.5-4.7-1.13-5.1-.7-.4.08-1.2 1.93-1.98 8-3.36 5.76-19.98-3.26-24.32-4.06-1.95-7.95-.47-8.37 3.2-.3 2.67 4.2 18.06 5.95 20.28.54.7 0 1.48-1.5 2.17-4.7 2.14-16.63 11.52-16.67 13.1-.02 1.2-.37 1.03-1.28-.62-1.5-2.72-15.86-13.24-18.05-13.24-1.36 0-1.33-.43.24-3.26 3.2-5.8 6.64-18.7 5.47-20.58-1.42-2.27-6.94-2.67-9.9-.73-7.38 4.83-8.74 20.64-2.05 23.7 2.1.95 2.3 1.43 1.4 3.4-2.3 5.06 1.87 12.74 8.88 16.34 3.58 1.83 10.76 1.4 12.73-.78 1.67-1.86 1.76-1.85 4.1.5 2.74 2.73 6.87 3.1 11.8 1.04zm-5.6-14.6c11.55-7.05 5.9-26.05-7.75-26.05-7.73 0-13.95 6.2-13.95 13.9 0 8.42 5.63 14.08 14 14.08 2.7 0 5.78-.78 7.7-1.95zm-13.63-6.7c-1.15-1.44-2.08-3.93-2.08-5.53 0-3.43 3.93-7.8 7-7.8 2.88 0 7.62 2.56 8.38 4.53 3.25 8.48-7.8 15.8-13.3 8.82zm17.72-22.55c3.54-3.56-.64-9.9-7.8-11.8-8.4-2.27-18 2.1-18 8.2 0 4.2 1.67 4.8 13.5 4.8 7.3 0 11.5-.42 12.3-1.2zm42.2-34.78c34.1-13.54 36.22-61.83 3.4-77.22-22.14-10.38-47.48-1.65-57.67 19.87-3.03 6.4-3.23 7.5-3.23 17.87 0 10.75.1 11.26 3.73 18.6 5.55 11.22 14.84 18.95 26.8 22.3 7.44 2.1 19.75 1.44 26.97-1.42zm-25.07-4.34c-10.04-2.84-18.67-10.05-23.6-19.7-2.55-4.94-2.83-6.5-2.83-15.5 0-9.48.18-10.32 3.42-16.3 8.3-15.3 24.95-22.9 41.08-18.77 11.46 2.94 19.92 9.92 24.9 20.54 2.2 4.7 2.6 6.94 2.6 14.57 0 8.16-.3 9.66-3.25 15.63-6.04 12.27-17.07 19.65-30.5 20.43-4.24.25-9.15-.12-11.82-.88zm6.37-9.94l2.2-2.25 2.2 2.24c3.05 3.08 9.78 3.07 14.38-.03 6.53-4.4 9.4-11.07 6.85-15.85-.9-1.7-.74-2.1 1.04-2.57 2.8-.73 5.02-5.26 5.02-10.28 0-8.64-5.38-15.37-11.85-14.8-5.72.48-6.04 2.38-2.3 13.74 1.8 5.56 4.02 10.45 4.96 11 1.43.83 1.3 1-.9 1.02-1.58 0-5.93 2.52-11.24 6.5-4.78 3.54-8.68 6.05-8.68 5.57 0-1.03-12.92-10.6-16.53-12.24-1.56-.72-2.15-1.53-1.6-2.22 1.53-2 6.12-16.56 6.12-19.48 0-3.9-2.17-5.5-6.43-4.7-5.44 1.02-10.55 8.7-10.57 15.87-.02 3.8 2.84 8.64 5.5 9.3 1.88.48 2.33.98 1.56 1.74-.6.6-1.08 3-1.08 5.35 0 10.05 14.97 18.54 21.3 12.1zm9.38-12.7c9.6-4.36 10.38-19.04 1.28-24.42-3.43-2.02-11.12-2.12-14.86-.2-8.2 4.26-9.22 17.36-1.77 22.98 5.26 3.96 9.3 4.4 15.35 1.64zm-9.66-5.3c-7.62-3.94-5.32-14.75 3.14-14.75 5.8 0 8.48 3.23 7.88 9.5-.45 4.55-6.63 7.5-11.02 5.23zM276.36 154c2.78-1.05 3.44-4.5 1.53-8.07-2.7-5-14.6-6.7-20.75-2.94-5.45 3.3-6.43 9.15-1.84 11 2.94 1.2 17.94 1.2 21.06 0zm-77.05 8.2c7.54-3.54 16.22-11.54 19.52-18 12.3-24.15.77-52.46-24.75-60.7-4.03-1.3-7.73-1.64-15.08-1.35-8.55.35-10.55.8-16.44 3.7-8.54 4.2-15.6 11.25-19.8 19.84-3.18 6.42-3.34 7.27-3.3 17.77 0 9.08.42 12.02 2.3 16.72 4.07 10.2 14.37 19.7 25.74 23.75 4.85 1.72 7.66 2.03 15.53 1.73 8.2-.32 10.6-.83 16.28-3.5zm-29.13-3.62c-25.14-8.2-33.58-39.72-15.88-59.3 1.97-2.2 6.4-5.5 9.85-7.34 5.3-2.8 7.57-3.4 14.53-3.77 10.14-.53 15.6.87 23.26 6 18.5 12.34 21.12 38 5.58 54.6-6.8 7.27-14.1 10.5-24.6 10.9-5.34.18-10.08-.22-12.75-1.1zm25.27-8.63c6.1-2.23 10.95-11.43 8.68-16.42-.9-1.97-.7-2.45 1.4-3.4 6.76-3.1 5.38-18.65-2.1-23.55-3.14-2.06-8.4-1.75-9.85.58-1.17 1.87 2.25 14.75 5.43 20.5 1.72 3.1 1.7 3.16-.4 3.7-2.75.7-15.8 10.07-16.97 12.18-.5.88-.62 2.67-.3 4 1 3.87 7.22 4.94 14.1 2.4zm-17.35-.62c2.6-2.36 2.25-5.57-.93-8.48-3.66-3.35-12.3-9.38-14.6-10.22-1.33-.47-1.6-1.03-.9-1.9 1.36-1.7 6.25-16.8 6.25-19.25 0-1.9.56-1.98 11.54-1.66 12.75.38 14.46-.2 14.46-4.96 0-7.07-11.32-11.27-20.28-7.53-4.1 1.72-5.98 4-6.1 7.43-.1 2.54-.4 2.7-3.88 2.37-5-.48-8.43 1.9-10.95 7.6-3.6 8.13-.9 17.22 5.13 17.3 2.24 0 2.35.15.84 1.04-2.43 1.4-2.3 8.48.2 12.62 3.78 6.17 15 9.46 19.22 5.63zm9.33-12.78c4.74-1.98 7.48-6.8 7.5-13.18 0-3.68-.6-5.86-2.1-7.77-6.44-8.2-19.5-7.27-24.07 1.7-6.2 12.17 5.85 24.6 18.67 19.25zm-10.2-5.75c-4.7-2.28-5.3-10.3-.97-13.34 5.53-3.87 12.66-.06 12.66 6.77 0 6-5.94 9.34-11.68 6.57zm-73.77-6.37c12.22-3.18 21.56-10.83 27.23-22.28 3.62-7.35 3.72-7.86 3.72-18.6 0-10.38-.2-11.48-3.2-17.84-8.2-17.26-27.38-27.26-45.84-23.86-25.16 4.64-40.3 28.15-33.9 52.7 5.84 22.43 29.15 35.84 51.98 29.9zm-20.6-5.75c-10.4-2.95-19.04-10.4-23.8-20.57-2.24-4.76-2.64-6.98-2.64-14.63 0-8.18.3-9.65 3.3-15.7 5.33-10.85 14.6-17.68 27.16-20 7.1-1.33 15.7-.02 22.38 3.4 6.07 3.08 13 10.15 16.23 16.54 2.65 5.25 2.92 6.7 2.92 15.8 0 9.06-.27 10.52-2.93 15.76-3.6 7.1-10.84 14.04-18.12 17.37-6.65 3.05-17.76 3.97-24.53 2.05zm6.38-9.73l2.6-2.05 2.04 2.05c4.42 4.4 15.56 1.35 20.1-5.52 2.14-3.27 2.57-9.4.78-11.2-.9-.9-.54-1.4 1.44-2.16 3.5-1.33 4.72-3.95 4.72-10.08 0-5.67-.97-8.15-4.8-12.26-1.9-2.04-3.53-2.75-6.26-2.75-6.4 0-6.8 1.7-3.06 13.05 1.78 5.46 3.92 10.6 4.75 11.43 1.35 1.34 1.28 1.5-.63 1.5-2.36 0-18 10.75-18 12.37 0 .55-1.24-.13-2.75-1.53-4-3.68-15.8-11.83-17.15-11.83-.78 0-.68-.74.3-2.26 2-3.2 6.78-18.85 6.2-20.4-.4-.97.1-1.04 2-.3 3.23 1.2 17.5 1.23 20.7.02 3.02-1.15 3.93-3.35 2.7-6.58-1.47-3.85-6.66-6.5-12.8-6.5-8.1 0-13.2 3.43-13.2 8.88 0 1.7-.5 1.93-3.25 1.52-7.04-1.06-12.75 5.97-12.75 15.7 0 4.04.5 5.82 2.17 7.6 1.2 1.26 2.78 2.3 3.53 2.3 1.04 0 1.1.47.33 1.94-2.96 5.5.64 13.13 7.93 16.82 5.5 2.8 9 2.84 12.34.2zm9.35-12.9c7.3-3.32 10.2-11.3 6.76-18.54-2.35-4.96-6.7-7.5-12.8-7.5-7.6-.02-12.06 3.48-13.7 10.78-1.55 6.86 2 13.37 8.56 15.7 5.23 1.86 6.22 1.82 11.17-.43zm-9.47-5.1c-5.75-2.35-5.74-12 0-14.4 5.54-2.34 10.18.15 11.37 6.1 1.1 5.54-5.8 10.6-11.37 8.3z"/><path fill="#0f1938" d="M55.3 443.1c-25.9-6.38-46.05-25.87-52.4-50.72C.96 384.86.9 380.63.9 222.64.92 43.14.5 55.12 7.46 40.5 14 26.7 25.84 15.03 40.42 7.95 56.74.02 48.1.5 179.42.5s122.68-.48 139 7.46c14.54 7.07 26.3 18.67 33.02 32.54 6.85 14.16 6.45 2.84 6.47 182.5.02 161.26 0 162.58-2.05 170-5.63 20.32-18.93 35.9-38.43 45.03-15.58 7.3-9 6.96-138.7 6.88-107.18-.06-116.86-.2-123.4-1.8zm248-3.47c20.53-6.2 36.17-19.18 44.8-37.14 7.28-15.2 6.9-4.35 6.6-182.8l-.28-160.2-2.34-7c-7.25-21.72-23.9-38.1-46.58-45.88-6-2.06-7.5-2.1-122.9-2.4C68.14 3.95 65.65 4 57.26 5.98 44.43 9.02 34 14.87 24.32 24.47 15.27 33.43 10.35 41.4 6.75 52.98l-2.33 7.5V223c0 181.7-.62 165.86 7.05 181.08 9.86 19.58 30.35 33.97 52.95 37.2 1.65.24 54.75.37 118 .28 107.2-.14 115.4-.27 120.9-1.93zm-187.88-27.8c-13.98-2.66-28.92-14.07-35.22-26.9-4.3-8.75-5.6-15.5-5.04-25.84.58-10.44 2.6-16.5 8.36-25.24 6.32-9.54 14.2-15.6 25.36-19.5 3.57-1.25 5.82-2.47 5-2.7-19.6-5.92-32.88-18.76-37.43-36.2-1.9-7.28-1.96-19.28-.14-26.1 9.1-34.16 50.96-48.9 79.4-27.95 10.13 7.46 17.24 18.27 19.64 29.85l1.3 6.24 1.2-5.73c1.77-8.36 6.54-17.13 13.18-24.23 9.64-10.3 22.34-15.7 36.93-15.7h7.97l-5.78-5.8c-9.93-9.92-16.23-26.54-14.72-38.8.35-2.9.4-5.25.07-5.25-.32 0-2.83 1.6-5.6 3.6-15.86 11.4-39.63 11.62-56.55.53-7.33-4.8-11.26-8.9-15.9-16.64-4.3-7.14-6.27-13.48-7.28-23.27l-.75-7.2-4.5 3.58c-15.97 12.7-37.97 15.02-55.98 5.9-11.38-5.77-22.3-19.34-25.63-31.88-1.84-6.94-1.74-20.05.22-26.7C49.96 47.97 69.76 33.04 92.46 33c27.67-.05 50.4 21.96 50.85 49.23.07 3.7.28 6.74.47 6.75.2 0 2.28-1.7 4.65-3.78 5.88-5.18 14.3-9.1 23.58-11.03 24.47-5.06 50.47 10.44 57.9 34.52 1.4 4.46 2.02 9.3 2.02 15.48v8.98l3.14-2.64c4.42-3.72 11.47-7.12 18.58-8.96 26.7-6.92 54.04 8.94 61.8 35.86 1.3 4.5 1.62 8.4 1.27 16.12-.4 9.17-.8 10.98-4.1 17.9-8.8 18.52-26.2 29.55-46.68 29.55h-7.6l6.1 6.24c15.52 15.9 18.8 39.26 8.3 58.97-5.65 10.6-17.26 20.37-28.3 23.8-4.83 1.5-6.74 3-3.82 3 1.15 0 5.7 1.8 10.1 4 25.63 12.82 35.53 43.87 22.04 69.16-3.84 7.2-14.6 17.6-21.97 21.2-15.65 7.66-34.28 6.9-49.47-2-10.93-6.4-20.73-20.24-23.45-33.1l-1.2-5.77-1.3 6.12c-5.52 26.7-32.55 44.38-59.93 39.2zm28.84-11.7c8.56-4.2 15.6-11.26 19.83-19.84 3.18-6.5 3.32-7.25 3.3-18.3 0-10.38-.27-12.08-2.7-17.27-3.07-6.6-11.14-15.6-17.17-19.12-7.14-4.18-14.9-5.9-24.67-5.43-7.62.37-9.74.9-16.27 4.14-29.05 14.36-31.7 54.44-4.83 72.93 7.4 5.08 14.18 6.8 25.7 6.5 9.08-.25 10.72-.6 16.8-3.6zm101.9.14c29.4-13.82 32.6-55.2 5.63-73.2-12.27-8.2-29.65-9.42-42.7-3-16.77 8.23-26.3 26.57-23.24 44.67 2.74 16.18 12.68 27.84 28.55 33.5 3.85 1.37 7.36 1.72 15.02 1.5 8.8-.27 10.82-.7 16.74-3.47zm-68.24-48.8c3.54-17.03 18.15-32.7 35.5-38.04 3.34-1.03 3.67-1.35 2-1.94-20.82-7.27-32.18-18.68-37-37.13-1.67-6.47-2.5-7.85-2.5-4.2 0 1.37-.9 5.12-2 8.33-5.08 14.75-17.78 27.13-32.84 31.98l-5.33 1.72 6.36 2.15c13.1 4.4 23.43 13.56 29.46 26.1 1.84 3.82 3.63 9.1 3.98 11.74.35 2.63.77 4.8.94 4.8.16 0 .8-2.5 1.44-5.53zm-33.76-51.2c8.72-4.1 15.92-11.3 20.07-20.04 3-6.3 3.2-7.45 3.2-17.74 0-13.87-2.14-19.84-10.2-28.55-20.55-22.2-56.78-17.2-69.92 9.67-7.64 15.63-4.7 34.62 7.35 47.5 9.2 9.85 17.34 13.02 32.27 12.6 9.38-.25 11.22-.62 17.24-3.45zm103-.55c33.88-16.76 29.67-66.6-6.58-77.9-12.3-3.85-27.32-1.42-37.8 6.08-23.56 16.87-23.16 52.7.77 69.17 7.82 5.4 13.56 6.88 25.43 6.64 9.98-.2 10.97-.42 18.17-3.98zm34.76-89.7c34.1-13.54 36.22-61.83 3.4-77.22-22.14-10.38-47.48-1.65-57.67 19.87-3.03 6.4-3.23 7.5-3.23 17.87 0 10.75.1 11.26 3.73 18.6 5.55 11.22 14.84 18.95 26.8 22.3 7.44 2.1 19.75 1.44 26.97-1.42zm-25.07-4.34c-10.04-2.84-18.67-10.05-23.6-19.7-2.55-4.94-2.83-6.5-2.83-15.5 0-9.48.18-10.32 3.42-16.3 8.3-15.3 24.95-22.9 41.08-18.77 11.46 2.94 19.92 9.92 24.9 20.54 2.2 4.7 2.6 6.94 2.6 14.57 0 8.16-.3 9.66-3.25 15.63-6.04 12.27-17.07 19.65-30.5 20.43-4.24.25-9.15-.12-11.82-.88zm6.37-9.94l2.2-2.25 2.2 2.24c3.05 3.08 9.78 3.07 14.38-.03 6.53-4.4 9.4-11.07 6.85-15.85-.9-1.7-.74-2.1 1.04-2.57 2.8-.73 5.02-5.26 5.02-10.28 0-8.64-5.38-15.37-11.85-14.8-5.72.48-6.04 2.38-2.3 13.74 1.8 5.56 4.02 10.45 4.96 11 1.43.83 1.3 1-.9 1.02-1.58 0-5.93 2.52-11.24 6.5-4.78 3.54-8.68 6.05-8.68 5.57 0-1.03-12.92-10.6-16.53-12.24-1.56-.72-2.15-1.53-1.6-2.22 1.53-2 6.12-16.56 6.12-19.48 0-3.9-2.17-5.5-6.43-4.7-5.44 1.02-10.55 8.7-10.57 15.87-.02 3.8 2.84 8.64 5.5 9.3 1.88.48 2.33.98 1.56 1.74-.6.6-1.08 3-1.08 5.35 0 10.05 14.97 18.54 21.3 12.1zm9.38-12.7c9.6-4.36 10.38-19.04 1.28-24.42-3.43-2.02-11.12-2.12-14.86-.2-8.2 4.26-9.22 17.36-1.77 22.98 5.26 3.96 9.3 4.4 15.35 1.64zm-9.66-5.3c-7.62-3.94-5.32-14.75 3.14-14.75 5.8 0 8.48 3.23 7.88 9.5-.45 4.55-6.63 7.5-11.02 5.23zM276.36 154c2.78-1.05 3.44-4.5 1.53-8.07-2.7-5-14.6-6.7-20.75-2.94-5.45 3.3-6.43 9.15-1.84 11 2.94 1.2 17.94 1.2 21.06 0zm-77.05 8.2c7.54-3.54 16.22-11.54 19.52-18 12.3-24.15.77-52.46-24.75-60.7-4.03-1.3-7.73-1.64-15.08-1.35-8.55.35-10.55.8-16.44 3.7-8.54 4.2-15.6 11.25-19.8 19.84-3.18 6.42-3.34 7.27-3.3 17.77 0 9.08.42 12.02 2.3 16.72 4.07 10.2 14.37 19.7 25.74 23.75 4.85 1.72 7.66 2.03 15.53 1.73 8.2-.32 10.6-.83 16.28-3.5zm-29.13-3.62c-25.14-8.2-33.58-39.72-15.88-59.3 1.97-2.2 6.4-5.5 9.85-7.34 5.3-2.8 7.57-3.4 14.53-3.77 10.14-.53 15.6.87 23.26 6 18.5 12.34 21.12 38 5.58 54.6-6.8 7.27-14.1 10.5-24.6 10.9-5.34.18-10.08-.22-12.75-1.1zm25.27-8.63c6.1-2.23 10.95-11.43 8.68-16.42-.9-1.97-.7-2.45 1.4-3.4 6.76-3.1 5.38-18.65-2.1-23.55-3.14-2.06-8.4-1.75-9.85.58-1.17 1.87 2.25 14.75 5.43 20.5 1.72 3.1 1.7 3.16-.4 3.7-2.75.7-15.8 10.07-16.97 12.18-.5.88-.62 2.67-.3 4 1 3.87 7.22 4.94 14.1 2.4zm-17.35-.62c2.6-2.36 2.25-5.57-.93-8.48-3.66-3.35-12.3-9.38-14.6-10.22-1.33-.47-1.6-1.03-.9-1.9 1.36-1.7 6.25-16.8 6.25-19.25 0-1.9.56-1.98 11.54-1.66 12.75.38 14.46-.2 14.46-4.96 0-7.07-11.32-11.27-20.28-7.53-4.1 1.72-5.98 4-6.1 7.43-.1 2.54-.4 2.7-3.88 2.37-5-.48-8.43 1.9-10.95 7.6-3.6 8.13-.9 17.22 5.13 17.3 2.24 0 2.35.15.84 1.04-2.43 1.4-2.3 8.48.2 12.62 3.78 6.17 15 9.46 19.22 5.63zm9.33-12.78c4.74-1.98 7.48-6.8 7.5-13.18 0-3.68-.6-5.86-2.1-7.77-6.44-8.2-19.5-7.27-24.07 1.7-6.2 12.17 5.85 24.6 18.67 19.25zm-10.2-5.75c-4.7-2.28-5.3-10.3-.97-13.34 5.53-3.87 12.66-.06 12.66 6.77 0 6-5.94 9.34-11.68 6.57zm-73.77-6.37c12.22-3.18 21.56-10.83 27.23-22.28 3.62-7.35 3.72-7.86 3.72-18.6 0-10.38-.2-11.48-3.2-17.84-8.2-17.26-27.38-27.26-45.84-23.86-25.16 4.64-40.3 28.15-33.9 52.7 5.84 22.43 29.15 35.84 51.98 29.9zm-20.6-5.75c-10.4-2.95-19.04-10.4-23.8-20.57-2.24-4.76-2.64-6.98-2.64-14.63 0-8.18.3-9.65 3.3-15.7 5.33-10.85 14.6-17.68 27.16-20 7.1-1.33 15.7-.02 22.38 3.4 6.07 3.08 13 10.15 16.23 16.54 2.65 5.25 2.92 6.7 2.92 15.8 0 9.06-.27 10.52-2.93 15.76-3.6 7.1-10.84 14.04-18.12 17.37-6.65 3.05-17.76 3.97-24.53 2.05zm6.38-9.73l2.6-2.05 2.04 2.05c4.42 4.4 15.56 1.35 20.1-5.52 2.14-3.27 2.57-9.4.78-11.2-.9-.9-.54-1.4 1.44-2.16 3.5-1.33 4.72-3.95 4.72-10.08 0-5.67-.97-8.15-4.8-12.26-1.9-2.04-3.53-2.75-6.26-2.75-6.4 0-6.8 1.7-3.06 13.05 1.78 5.46 3.92 10.6 4.75 11.43 1.35 1.34 1.28 1.5-.63 1.5-2.36 0-18 10.75-18 12.37 0 .55-1.24-.13-2.75-1.53-4-3.68-15.8-11.83-17.15-11.83-.78 0-.68-.74.3-2.26 2-3.2 6.78-18.85 6.2-20.4-.4-.97.1-1.04 2-.3 3.23 1.2 17.5 1.23 20.7.02 3.02-1.15 3.93-3.35 2.7-6.58-1.47-3.85-6.66-6.5-12.8-6.5-8.1 0-13.2 3.43-13.2 8.88 0 1.7-.5 1.93-3.25 1.52-7.04-1.06-12.75 5.97-12.75 15.7 0 4.04.5 5.82 2.17 7.6 1.2 1.26 2.78 2.3 3.53 2.3 1.04 0 1.1.47.33 1.94-2.96 5.5.64 13.13 7.93 16.82 5.5 2.8 9 2.84 12.34.2zm9.35-12.9c7.3-3.32 10.2-11.3 6.76-18.54-2.35-4.96-6.7-7.5-12.8-7.5-7.6-.02-12.06 3.48-13.7 10.78-1.55 6.86 2 13.37 8.56 15.7 5.23 1.86 6.22 1.82 11.17-.43zm-9.47-5.1c-5.75-2.35-5.74-12 0-14.4 5.54-2.34 10.18.15 11.37 6.1 1.1 5.54-5.8 10.6-11.37 8.3z"/><path d="M55.42 443.04C30.98 436.58 12.56 420 4.1 396.82l-2.68-7.33L1.14 226C.9 81.23 1.04 61.67 2.4 55.43 8.6 27.32 33.25 5.4 63.57 1.02c9.25-1.34 222.47-1.34 231.72 0 30.32 4.38 54.95 26.3 61.15 54.42 1.37 6.24 1.52 25.8 1.27 170.55l-.28 163.5-2.68 7.32c-4 10.95-8.44 17.78-17.32 26.67-9.2 9.2-15.92 13.44-28.24 17.85l-8.76 3.14-119 .2c-113 .2-119.35.1-126-1.66zm248-3.33c19.4-5.63 36.42-19.36 44.3-35.75 7.7-16 7.3-5.03 6.98-184.96-.27-153.46-.36-160.76-2.14-166-7.8-23.06-24.07-39.17-46.64-46.18l-7.5-2.33h-239l-8 2.8C26.6 16 8.86 36.13 5 60c-.72 4.34-1.07 58.2-1.07 163.28 0 175.4-.43 164.8 7.2 180.67 6.9 14.36 22.15 27.9 37.96 33.65 11.52 4.2 13.16 4.24 133.32 4.04 106.05-.17 115.47-.32 121-1.93z"/></g></g></svg>