<svg xmlns="http://www.w3.org/2000/svg" width="358.718" height="445.687" viewBox="0 0 358.71756 445.68701"><g><g><path fill="#c2c5cd" d="M61.7 445c-16.54-2.85-29.26-9.36-40.92-20.96-6.83-6.8-9.43-10.27-12.78-17.04-8.28-16.75-7.55-.23-7.9-179C-.16 112.9.07 66.28.9 60.55 4.7 33.85 23.22 12.5 50.7 3.12L58.36.5l117.7-.28c127.5-.3 124.08-.42 137.76 5.1 9.67 3.9 16.76 8.64 24.42 16.28 8.33 8.3 13.6 16.77 17.4 27.9l2.72 8v165c0 157.4-.08 165.27-1.84 171-5.82 18.96-19.62 35.47-36.66 43.83-17.93 8.8-6.66 8.12-137.5 8.3-63.8.1-118.1-.2-120.67-.64zm245.65-7.33c20.42-7.2 36.28-22.53 43.34-41.86l2.66-7.3.27-163.42c.3-180.9.7-168.5-6.25-182.58-6.8-13.76-17.6-24.26-32.02-31.12-15.38-7.32-6.8-6.88-136-6.88-130.1 0-120.87-.5-137 7.46-13.9 6.86-24.38 17.2-30.96 30.53-6.9 14-6.5 2.9-6.52 180.54-.02 179-.57 165.17 7.16 180.95 8 16.35 25.23 30.04 44.05 35 6.98 1.83 11.84 1.9 125.26 1.7l118-.2 8-2.83zm-192.8-22.17c-12.73-3.5-25.96-13.9-31.92-25.08-7.7-14.46-7.7-34.38 0-48.85 3.6-6.75 14.5-17.6 20.84-20.7l5.1-2.53-5.1-2.4c-10.97-5.2-22.58-20.17-25.53-32.97-1.5-6.57-1.3-18.7.45-25.44 3.12-12 11.7-23.47 22.58-30.2l5.92-3.64-5.27-3c-7-4-15.6-12.96-19.08-19.87-7.82-15.58-7.64-33.76.5-49.02 3.84-7.2 14.5-17.43 21.6-20.72 2.86-1.33 5.2-2.68 5.16-3-.02-.32-2.78-1.88-6.12-3.47-11.23-5.3-21.9-18.74-25.43-31.97-1.85-6.94-1.75-20.05.2-26.7 6.58-22.4 25.84-37.05 48.9-37.23 22.96-.2 41.5 12.43 49.36 33.6 1.2 3.17 2.2 7 2.25 8.5.05 1.7.6.58 1.46-3.02 4.22-17.33 17.37-31.46 34.4-36.92 9.7-3.12 23.2-2.96 32.78.4 14.07 4.9 25.84 16.1 31.33 29.76 2.7 6.7 3.76 22.04 2.06 29.94-3 13.94-13.7 27.86-25.87 33.63-3.38 1.6-6.16 3.12-6.18 3.4-.03.27 2.87 2 6.45 3.86 11.73 6.07 21.64 18.5 25.1 31.5 2.06 7.74 1.77 21.2-.62 28.93-2.18 7.05-7.88 16.32-13.17 21.38-1.82 1.76-5.94 4.76-9.15 6.7l-5.84 3.5 4.04 2.06c10.48 5.34 20.84 18.43 24.53 31 2.26 7.7 2.08 21.25-.4 29.28-3.76 12.2-14.08 24.66-24.78 29.96l-4.74 2.34 5 2.42c2.75 1.33 7.98 5.38 11.6 9 10.46 10.4 14.9 21.16 14.9 36.06 0 14.92-4.46 25.72-14.9 36-10.68 10.55-21.4 15-36.1 15-24.3 0-44.48-15.62-50.34-38.96l-1.37-5.47-.7 4.7c-.4 2.58-2.32 7.9-4.3 11.85-6.22 12.47-18.07 22.13-32.22 26.28-6.55 1.93-20.55 1.97-27.38.1zm23.78-9.03c12.4-3.23 22.47-11.52 28.2-23.22 2.6-5.3 2.83-6.66 2.83-17.25 0-10.7-.2-11.92-2.93-17.5-8.1-16.57-26.77-26.6-44.2-23.7-23.3 3.86-39.56 25.76-35.5 47.82 4.5 24.36 28.23 39.93 51.6 33.85zM116.36 401c-28.8-9.65-34.34-48.85-9.24-65.46 15.47-10.24 35.7-7.9 48.2 5.57 7 7.58 9.54 14.22 9.54 24.9 0 10.67-2.55 17.32-9.55 24.88-7.06 7.64-14.66 11.16-25.3 11.73-5.83.32-9.06-.06-13.64-1.6zm6.94-9.15c6.03-2.75 4.18-6.34-7.4-14.33-7.47-5.15-10.53-5.4-11.64-.95-1.36 5.4 2.45 11.55 9.02 14.53 4.8 2.18 6.6 2.3 10.02.75zm19.64-.9c8.44-4.3 11.13-16.95 3.6-16.95-1.94 0-15.2 9.08-17.4 11.93-1.67 2.15-1.58 2.76.72 5.07 2.6 2.6 7.92 2.6 13.08-.04zm-7.28-13.6c7.84-4.97 8.1-16.8.47-22.13-6.03-4.22-13.24-3.3-18.2 2.34-2.54 2.9-3.07 4.36-3.07 8.44 0 4.1.53 5.53 3.1 8.46 4.78 5.44 11.85 6.6 17.7 2.9zm-11.4-3.76c-3.4-1.52-4.4-3.25-4.4-7.75 0-4.3 1.53-6.54 5.35-7.8 8.56-2.82 15.3 6.76 9.4 13.36-2.84 3.2-6.38 3.94-10.34 2.2zm29.3-2.84c2.55-1.96 3.58-7.68 2.26-12.42-1.8-6.42-6.2-10.53-10.84-10.14-3.2.26-3.65.64-3.9 3.3-.34 3.52 4.06 17.05 6.37 19.6 1.56 1.72 3.6 1.6 6.1-.34zm-45.28-1c2.1-3.25 6.82-18.7 6.2-20.32-.87-2.25-5.12-2.75-8.5-1-6.44 3.33-9.36 15.44-5.05 20.92 2.54 3.23 5.4 3.38 7.35.4zm29.57-21.05c3.52-1.77 3.58-4.03.22-7.8-2.54-2.84-3.67-3.3-8.9-3.7-6.6-.46-11.43 1.28-13.34 4.86-1.7 3.16-.8 6.27 2.03 7.05 4.3 1.2 17.37.94 20-.4zm101.2 58.17c32.6-6.92 44.75-46.37 21.54-69.96-20.36-20.66-54.6-15.14-67.47 10.88-3.64 7.36-3.77 7.97-3.77 18.22 0 10.23.13 10.87 3.74 18.16 8.7 17.58 27.15 26.7 45.96 22.7zm-18.26-5.18c-10.04-2.85-20-11.26-24.28-20.53-1.78-3.85-2.16-6.52-2.16-15.17 0-9.44.28-11.07 2.76-16.13 1.52-3.1 5.03-7.73 7.8-10.32 19.08-17.86 49.27-11.82 60.15 12.03 1.8 3.98 2.25 6.74 2.27 14.44.02 8.77-.24 10.05-3.27 16.2-3.98 8.1-11.26 14.88-19.2 17.92-6.73 2.58-17.9 3.3-24.08 1.55zm6.72-10.83c3.1-2.57 1.5-5.6-5.7-10.83-9.34-6.8-11.63-7.8-13.42-5.97-3.05 3.15-2.25 8.13 2.08 12.93 5.07 5.6 12.82 7.37 17.04 3.87zm16.67.76c3.77-1.58 8.38-6.68 9.3-10.28.9-3.6-1.1-7.35-3.94-7.35-3.33 0-18.7 11.45-18.7 13.93 0 4.4 7 6.35 13.33 3.7zm-6.22-14.38c3.77-2.2 5.88-6.4 5.88-11.67 0-11.33-14.33-16.92-23.07-9-5.36 4.82-4.64 15.28 1.34 19.8 5.17 3.9 10.17 4.16 15.84.87zM227.22 374c-4.9-1.97-6.8-8.48-3.76-12.84 2.32-3.3 6-4.45 10.05-3.1 3.84 1.25 5.36 3.48 5.36 7.8 0 4.34-.9 6.03-4.07 7.68-3.18 1.64-4.48 1.72-7.58.47zm30.53-5.66c2.58-5.66.36-14.43-4.65-18.37-3.4-2.67-8.9-2.64-9.75.05-.84 2.65 5.16 20.7 7.28 21.87 2.2 1.22 5.75-.55 7.12-3.56zm-45.18-2.42c5.37-13.57 5.4-18.08.08-18.72-5.82-.7-12.75 9.86-11.35 17.3.83 4.42 3.94 7.73 6.87 7.3 1.6-.22 2.77-1.77 4.4-5.88zm27.73-16.9c4.46-1.7 2.97-7.73-2.63-10.62-2.23-1.15-4.86-1.5-9.12-1.2-5.23.4-6.35.86-8.9 3.7-3.36 3.77-3.3 6.03.22 7.8 2.95 1.5 16.77 1.72 20.43.32zm-55.38-6.74c3.7-7.6 12.74-16.88 20.27-20.82l5.5-2.9-5.5-3.02c-11.63-6.46-21.37-19.27-24.68-32.5l-1.37-5.47-.7 4.7c-1.78 11.87-13.06 27-24.8 33.25l-5.67 3.03 5.7 2.97c11.63 6.1 22.98 21.3 24.77 33.2l.7 4.7 1.37-5.46c.76-3 2.74-8.26 4.4-11.68zm-47.7-30.77c14.75-3.1 26.4-13.74 31.14-28.35 1.3-4.02 1.63-7.64 1.3-14.5-.53-11.78-4.12-19.82-12.26-27.53-24.8-23.45-64.46-10.4-70.67 23.27-4.38 23.8 15.65 47.7 40.63 48.47 1.65.05 6.1-.56 9.87-1.36zm-17.6-4.6c-6.17-1.44-13.7-5.76-18.27-10.47-17.48-18-11.63-48.68 11.28-59.18 4.86-2.23 7.17-2.64 15.23-2.7 8.62-.05 10.1.24 16 3.04 7.92 3.76 14.02 9.7 17.72 17.23 2.28 4.66 2.84 7.28 3.12 14.67.4 11.26-1.86 18.1-8.5 25.48-9.44 10.5-23.4 15.04-36.6 11.93zm3.05-9.98c4.1-1.44 5-4.42 2.23-7.38-3.78-4.02-15.77-11.74-17.67-11.37-2.3.44-3.86 4.72-3 8.17.9 3.56 6.92 9.4 10.9 10.54 4.35 1.26 4.03 1.26 7.54.03zm19.84-1c4.88-2.35 8.36-7.23 8.36-11.72 0-3.64-2.37-6.36-4.78-5.5-2.36.85-15.43 10.17-16.97 12.1-1.7 2.16-1.58 2.8.95 5.16 2.8 2.6 7.04 2.6 12.46-.03zm-6.83-13.95c5.85-3.56 7.82-11.8 4.24-17.67-3.97-6.52-10.73-8.6-17.4-5.37-5.78 2.8-8.12 7.12-7.38 13.63.44 3.94 1.23 5.5 4.13 8.15 3 2.77 4.35 3.3 8.35 3.3 3 0 5.98-.75 8.07-2.03zm-13.63-5.3c-2.14-2.26-2.84-6.8-1.56-10.13.76-1.97 5.5-4.54 8.4-4.54 1.18 0 3.45 1.3 5.06 2.92 3.5 3.52 3.82 7.66.85 11.44-2.82 3.58-9.55 3.75-12.76.32zm-14.28-1.05c1.27-1.53 7.1-18.22 7.1-20.33 0-.74-1.14-1.86-2.52-2.5-6.02-2.74-13.48 5.3-13.48 14.52 0 7.1 5.58 12.3 8.9 8.3zm46.83-1.33c4.08-6.26.3-18.7-6.43-21.04-3.85-1.35-7.3.06-7.3 2.96.03 3.03 4.58 17.57 6.06 19.36 1.93 2.33 5.7 1.7 7.66-1.3zm-14.74-21.8c1.76-2.12-.27-6.64-3.94-8.8-4.02-2.38-12.67-2.24-16.78.27-3.25 1.98-4.98 5.75-3.92 8.53.85 2.2 22.82 2.2 24.64 0zm98.12 59.5c12.58-2.36 24.88-11.54 30.32-22.65 7.97-16.28 4.85-35.02-7.96-47.83-20.7-20.7-55.13-14.5-67.8 12.26-2.94 6.22-3.18 7.5-3.18 17.22 0 9.74.23 11 3.2 17.27 5.72 12.05 16.4 20.56 29.3 23.37 7.06 1.53 9.53 1.58 16.12.35zm-17.1-5.6c-10.55-2.84-18.6-9.42-23.7-19.4-2.56-5-2.82-6.45-2.82-16 0-8.7.38-11.32 2.2-15.25 3.27-7.1 11.27-15 18.58-18.38 5.5-2.53 7.35-2.87 15.72-2.85 8.15 0 10.3.4 15.18 2.66 7.93 3.7 14.2 9.84 18.07 17.67 3 6.07 3.26 7.38 3.23 16.13-.02 8.43-.36 10.2-2.93 15.5-8.02 16.53-25.82 24.67-43.5 19.92zm6.7-10.57c3.1-2.6 1.03-6.05-7.22-12.03-8.5-6.16-11.22-6.77-13.12-2.94-4.4 8.84 12.62 21.36 20.33 14.97zm19.84-1.3c6.47-4.94 8.27-12.95 3.5-15.5-1.58-.84-3.18-.2-8.74 3.6-8.76 5.92-11.32 8.3-11.32 10.5 0 5.36 10.22 6.23 16.56 1.4zm-7.44-14.4c3.45-3.46 3.88-4.44 3.88-8.76 0-6.6-2.63-10.68-8.26-12.84-7.48-2.85-14.88.4-17.67 7.78-1.48 3.92-1.34 6.32.6 10.42 2.25 4.74 6.67 7.27 12.7 7.27 4.32 0 5.3-.44 8.75-3.88zm-16.05-3.77c-2.74-3.48-2.62-7.6.33-11.03 3.2-3.74 9.85-3.98 12.7-.45 2.58 3.17 2.52 9.5-.1 12.12-3.12 3.12-10.25 2.77-12.93-.64zm-11.36-5.44c5.37-13.57 5.4-18.08.08-18.72-5.82-.7-12.75 9.86-11.35 17.3.83 4.42 3.94 7.73 6.87 7.3 1.6-.22 2.77-1.77 4.4-5.88zm44.22 3.44c5.36-6.82-.47-21.34-8.68-21.57-3.7-.12-5.26.8-5.26 3.07 0 1.75 5.3 18.2 6.5 20.1 1.2 1.95 5.34 1.05 7.43-1.6zm-14.3-21.86c.32-.83.3-2.64-.06-4.03-1.6-6.43-15.47-8.96-21.45-3.93-3.6 3.03-4.76 6-3.1 8 1.8 2.16 23.77 2.1 24.6-.04zm-57.66-5.1c3.8-7.72 12.3-16.72 19.28-20.4 2.6-1.37 4.73-2.72 4.72-3 0-.28-2.3-1.85-5.1-3.5-6.47-3.82-15.9-13.83-18.94-20.13-1.3-2.68-3.1-7.55-4-10.82l-1.62-5.96-.7 4.4c-1.76 10.98-11.57 24.76-22.84 32.05l-5.72 3.7 6.4 4.15c3.53 2.28 8.24 6.22 10.48 8.76 5.12 5.82 10.72 16.92 11.67 23.1l.72 4.74 1.18-5.23c.65-2.87 2.66-8.22 4.46-11.87zm-38.74-33.12c8.72-4.1 15.92-11.3 20.07-20.04 3-6.3 3.2-7.45 3.2-17.74 0-9.84-.3-11.6-2.7-16.72-2.95-6.33-10.32-14.8-15.98-18.38-21.87-13.86-52.2-3.95-61.66 20.14-8.55 21.74 2.76 46.28 25.15 54.58 4.1 1.52 7.24 1.86 15.16 1.62 8.8-.26 10.8-.68 16.74-3.46zM121.73 213c-7.25-1.26-13.4-4.46-19.24-9.97-18.9-17.87-13.65-48.7 10.2-59.87 4.95-2.33 6.92-2.66 15.66-2.66 9.03 0 10.58.28 15.95 2.92 7.26 3.56 13.5 9.62 17.25 16.74 2.58 4.9 2.8 6.22 2.8 16.34 0 9.67-.3 11.6-2.45 16-7.4 15.02-23.77 23.38-40.17 20.5zm19.43-10.35c5.18-2.17 9.7-8.02 9.7-12.56 0-4.88-2.06-6.85-5.5-5.3-4.2 1.93-16.26 11.13-16.96 12.95-.45 1.2.17 2.46 1.95 4 3 2.57 6.17 2.84 10.8.9zm-15.86-1.58c2.7-2.98 1.24-5.23-7.38-11.4-8.4-6.02-11.35-6.86-13.02-3.74-1.44 2.7-1.3 4.7.58 8.68 3.33 7.02 15.68 11.04 19.82 6.47zm10.14-12.96c3.48-2.1 6.42-7.5 6.42-11.75 0-3.48-3.05-8.68-6.34-10.84-8.84-5.78-20.64.38-20.65 10.8 0 10.68 11.54 17.32 20.57 11.8zm-13.4-5.42c-3.07-3.26-2.94-9 .28-12.23 5.32-5.32 14.44-1.34 14.5 6.34.08 7.26-9.8 11.2-14.78 5.88zm-13.8-1.93c.78-1.24 2.67-6.16 4.2-10.93 3.1-9.67 2.64-11.82-2.57-11.82-8.7 0-14.86 16.23-8.55 22.54 3.05 3.06 5.08 3.12 6.92.2zm44.65 1.23c5.07-2.72 4.5-14.6-1-20.1-5-4.98-11.04-4.72-11.04.5 0 2.55 4.86 17.6 6.26 19.37 1.2 1.5 3.23 1.6 5.77.23zm-13.07-23.45c1.88-2.26-.1-6.7-4-9-4.68-2.7-12.97-2.67-16.7.1-3.56 2.66-5.08 6.7-3.32 8.8 1.84 2.2 22.22 2.3 24.03.1zm109.1 55.7c15.24-7.34 25.14-24.42 23.62-40.72-1.5-16.08-11.64-29.75-26.44-35.65-4.62-1.85-7.7-2.3-15.74-2.32-9.2-.02-10.54.23-16.72 3.16-15.74 7.44-24.78 21.4-24.78 38.3 0 13.54 6.6 26 17.83 33.7 8.77 6 13.63 7.32 25.66 7 8.87-.26 10.75-.65 16.58-3.46zm-26.07-1.6c-11.44-2.56-19.57-8.67-25.07-18.8-3.3-6.07-3.44-6.77-3.44-16.83 0-9.2.32-11.18 2.58-16 3.3-7.02 10.36-14.1 17.68-17.68 5.14-2.52 6.8-2.82 15.74-2.82 8.74 0 10.72.33 15.68 2.66 25.12 11.78 29.3 45.45 7.77 62.5-8.08 6.4-20.78 9.26-30.94 6.98zm21.58-10.53c7.33-3.33 11.15-10.8 8-15.64-.9-1.35-2.2-2.46-2.9-2.46-1.55 0-14.4 8.94-17.02 11.82-2.34 2.6-1.82 5.28 1.35 6.9 3.4 1.7 5.76 1.57 10.57-.62zm-17.5-.14c1.1-.6 1.92-2.08 1.92-3.5 0-1.95-1.75-3.77-8.18-8.47-4.5-3.3-8.94-6-9.87-6-4.28 0-5.6 7.28-2.16 11.93 4.52 6.1 12.96 8.9 18.3 6.03zm9.88-13.44c4.7-2.43 7.04-6.22 7.04-11.4-.02-17.28-23.88-18.94-26.65-1.86-1.64 10.12 10.2 18.13 19.62 13.26zm-11.88-5.27c-1.18-.96-2.4-3.42-2.73-5.46-.5-3.2-.17-4.12 2.46-6.76 3.64-3.64 7.74-3.98 11.57-.97 3.57 2.82 3.74 9.54.32 12.75-2.85 2.68-8.6 2.9-11.6.43zm-14.7-1.77c1.6-1.62 6.62-16.94 6.62-20.27 0-4.2-5.72-4.26-10.45-.1-6.18 5.43-7.15 15.7-1.87 19.86 3.1 2.44 3.73 2.5 5.7.52zm46.65-1.23c5.7-7.22-2.3-23.9-10.5-21.85-1.44.36-2.9 1.38-3.24 2.26-.57 1.5 2.26 11.76 5.27 19.1 1.72 4.2 5.37 4.4 8.46.5zm-15.62-20.86c2.7-1.04 1.93-5.93-1.35-8.7-4.74-3.98-9.76-4.4-17.37-1.5-3.67 1.42-6.15 6.08-4.7 8.8.97 1.8 2.1 2 11.46 2 5.7 0 11.1-.27 11.96-.6zm-56.2-6.77c4.18-7.96 13.82-17.5 21.66-21.4l6.17-3.1-7.02-3.7c-12.4-6.5-22.03-19.05-25.45-33.15-.8-3.33-1.44-4.68-1.48-3.2-.14 4.07-3.8 13.78-7.18 19.06-4.28 6.67-13.75 15.16-20.42 18.32l-5.6 2.65 6 3c11.3 5.65 20.45 16 24.97 28.2 1.18 3.17 2.18 7 2.23 8.5.05 1.66.62.46 1.5-3.17.78-3.22 2.87-8.62 4.63-12zm-38.98-35.36c8.72-4.1 15.92-11.27 20.07-20.03 3-6.3 3.2-7.45 3.2-17.74 0-9.8-.3-11.6-2.62-16.5-5.5-11.54-14.64-19.65-26.1-23.14C116.06 32.4 90.86 48 86.68 73.23c-2.64 15.9 5.46 33.58 19 41.52 8.6 5.04 13.78 6.32 24.16 6 8.2-.27 10.42-.74 16.24-3.48zm-32.02-3.35c-7.6-3-16.23-11.35-19.8-19.14-2.47-5.42-2.87-7.52-2.9-15.3-.02-8.2.28-9.64 3.23-15.63 3.86-7.82 10.14-13.97 18.1-17.7 4.95-2.32 6.92-2.65 15.66-2.65 8.73 0 10.7.33 15.5 2.62 7.77 3.7 13.1 8.72 17.07 16.05 3.32 6.12 3.43 6.7 3.43 17.33 0 9.52-.32 11.63-2.35 15.7-3.5 7.12-9.28 13.06-16.32 16.84-5.8 3.1-7.14 3.4-16.32 3.68-8.24.23-10.93-.08-15.28-1.8zm27.32-8.8c5.74-2.6 9.46-7.36 9.46-12.08 0-4.9-2.06-6.8-5.64-5.16-4.26 1.94-15.32 10.18-16.42 12.23-.8 1.52-.5 2.42 1.48 4.4 2.95 2.96 5.65 3.1 11.12.62zm-16.1-1.05c2.7-2.98 1.24-5.23-7.38-11.4-8.5-6.1-11.35-6.87-13.1-3.57-2.43 4.5 1.6 11.9 8.54 15.74 3.34 1.83 9.97 1.4 11.94-.77zm10.1-13.1c9.06-5.6 8.12-18.44-1.74-23.57-8.24-4.3-18.8 2.4-18.8 11.9 0 10.77 11.45 17.3 20.53 11.68zm-12.9-5.04c-3.6-2.84-3.7-8.96-.18-12.48 5.4-5.4 14.54-1.6 14.54 6.05 0 7.37-8.4 11.12-14.36 6.43zm-14.26-2.18c.78-1.24 2.67-6.16 4.2-10.93 3.1-9.67 2.64-11.82-2.57-11.82-8.78 0-14.92 16.18-8.55 22.54 3.05 3.06 5.08 3.12 6.92.2zm44.65 1.23c6.95-3.72 2.73-21.32-5.62-23.4-7-1.77-7.88 1.47-3.78 13.92 3.56 10.84 4.7 12 9.4 9.48zm-13-23.54c3.95-4.75-6.02-12.27-14.55-11-7.68 1.16-13 7.65-9.3 11.36 1.94 1.93 22.2 1.62 23.86-.36zm104.3 57.62c28.73-9.9 37.7-45.15 17.24-67.8-12.7-14.05-35.6-17.37-52.27-7.6-6.46 3.8-14.8 13.4-17.4 20.05-3.02 7.73-3.7 20.1-1.5 27.66 3.54 12.15 15.48 24.4 27.38 28.05 7 2.17 19.74 2 26.54-.34zm-25.5-4.4c-10.3-3.82-17.28-10.1-21.74-19.62-2.26-4.8-2.6-6.86-2.6-15.54 0-8.75.34-10.7 2.67-15.7 1.47-3.13 4.65-7.67 7.06-10.08 2.4-2.4 7.05-5.7 10.32-7.3 5.42-2.67 6.86-2.92 16.44-2.92 9.63 0 10.98.24 16.28 2.92 27.4 13.9 27.3 52.83-.18 66.33-4.73 2.32-7.07 2.8-15.1 3-6.1.16-10.8-.23-13.15-1.1zm28.15-11.03c6.74-4.46 8.75-12.9 3.82-15.98-1.35-.85-3.1-.1-8.7 3.76-11.63 8.04-13.57 11.48-8.1 14.36 3.3 1.73 8.4.9 12.98-2.13zm-19.58 1.06c3.3-2.43 1.58-5.8-5.9-11.44-3.86-2.9-8.06-5.55-9.34-5.9-5.08-1.35-7.3 6.27-3.4 11.57 4.65 6.26 14 9.15 18.64 5.76zm9.55-13.18c4.7-2.43 7.04-6.22 7.04-11.4 0-10.94-10.8-17.6-19.7-12.17-6.77 4.14-8.9 11.4-5.26 17.9 3.67 6.53 11.48 9 17.92 5.67zm-11.66-5.02c-1.18-.83-2.44-2.88-2.8-4.57-1.85-8.37 7.17-14.13 13.87-8.86 3.57 2.82 3.74 9.54.32 12.75-2.74 2.57-8.22 2.9-11.4.68zm-15-2.27c2.03-2.25 6.92-17.66 6.5-20.54-.23-1.73-1.07-2.27-3.92-2.5-9.5-.8-15.84 16.75-8.2 22.76 3.16 2.5 3.6 2.5 5.6.27zm46.73-.98c5.7-7.22-2.3-23.9-10.5-21.85-1.44.36-2.9 1.38-3.24 2.26-.62 1.6 2.64 13.1 5.42 19.1 1.92 4.12 5.28 4.33 8.3.5zM241.27 62.4c2.72-1.05 1.93-5.93-1.42-8.75-6.22-5.23-18.28-3.88-21.54 2.42-1.8 3.5-1.8 3.44.1 5.36 1.23 1.2 3.8 1.57 11.43 1.57 5.42 0 10.56-.27 11.43-.6z"/><path fill="#bebebe" d="M61.7 445c-16.54-2.85-29.26-9.36-40.92-20.96-6.83-6.8-9.43-10.27-12.78-17.04-8.28-16.75-7.55-.23-7.9-179C-.16 112.9.07 66.28.9 60.55 4.7 33.85 23.22 12.5 50.7 3.12L58.36.5l117.7-.28c127.5-.3 124.08-.42 137.76 5.1 9.67 3.9 16.76 8.64 24.42 16.28 8.33 8.3 13.6 16.77 17.4 27.9l2.72 8v165c0 157.4-.08 165.27-1.84 171-5.82 18.96-19.62 35.47-36.66 43.83-17.93 8.8-6.66 8.12-137.5 8.3-63.8.1-118.1-.2-120.67-.64zm245.65-7.33c20.42-7.2 36.28-22.53 43.34-41.86l2.66-7.3.27-163.42c.3-180.9.7-168.5-6.25-182.58-6.8-13.76-17.6-24.26-32.02-31.12-15.38-7.32-6.8-6.88-136-6.88-130.1 0-120.87-.5-137 7.46-13.9 6.86-24.38 17.2-30.96 30.53-6.9 14-6.5 2.9-6.52 180.54-.02 179-.57 165.17 7.16 180.95 8 16.35 25.23 30.04 44.05 35 6.98 1.83 11.84 1.9 125.26 1.7l118-.2 8-2.83zm-192.38-22.25c-8.2-2.2-16.98-7.32-23.1-13.43-20.06-20.08-20.02-51.83.1-71.96 3.15-3.14 8.2-7 11.22-8.58l5.5-2.9-5.5-3.02c-11.57-6.42-21.45-19.2-24.8-32.08-1.9-7.27-1.96-18.3-.15-25.1 3.34-12.54 12.97-25.16 23.93-31.34l5.74-3.24-4.28-2.1c-5.87-2.84-17.93-15.06-21.15-21.4-7.55-14.92-7.53-31.94.05-47.15 3.8-7.6 14.27-17.95 22.1-21.87l6.26-3.13-7.02-3.7c-16.5-8.66-27.06-26.23-27-44.9.04-8.78 1.3-14.3 5-22 12.9-26.86 46.9-36.98 72.92-21.72 11 6.46 21.97 21.72 23.65 32.93l.7 4.7 1.37-5.47c5.8-23.12 26.24-39.2 49.84-39.2 39.48.02 63.77 40.54 45.26 75.5-3.84 7.25-14.4 17.3-22.08 21.04l-5.78 2.8 6 3c25.5 12.74 35.44 43.54 22.4 69.32-3.24 6.37-11.3 14.9-18.52 19.6l-5.72 3.74 6.42 4.15c11.43 7.4 19.9 19.43 22.63 32.14 1.66 7.76.63 22.22-2.06 28.94-4.5 11.22-13.27 21.04-24.12 26.97l-4.77 2.6 5.7 2.97c11.3 5.9 22.2 20 25.08 32.48.57 2.47 1.03 7.87 1.03 12 0 14.3-4.62 25.68-14.44 35.5-20.22 20.22-51.2 20.82-71.96 1.38-7.1-6.63-12.7-16.2-14.95-25.53-.8-3.34-1.46-4.74-1.5-3.26-.14 4.05-3.8 13.76-7.18 19.04-3.93 6.12-13.07 14.58-19.54 18.08-10.37 5.6-25.6 7.33-37.26 4.2zm22.1-8.54c12.84-2.7 23.66-11.16 29.18-22.82 2.92-6.16 3.1-7.26 3.1-18.08 0-11-.13-11.82-3.28-18.22-6.1-12.38-17.16-20.56-31-22.93-28.32-4.86-53.08 19.6-48.4 47.8 3.96 23.95 26.52 39.28 50.4 34.25zm-18.28-5.2c-10.44-2.94-19.98-11.23-24.76-21.5-2.2-4.72-2.64-7.12-2.66-14.2-.02-7.6.33-9.23 3.22-15.1 8.07-16.4 25.4-24.78 42.24-20.46 11.15 2.85 19.2 9.32 24.77 19.87 2.5 4.7 2.76 6.18 2.76 15.7 0 10.06-.14 10.76-3.43 16.83-4.18 7.72-11.62 14.46-19.07 17.3-6.78 2.6-17 3.28-23.07 1.56zm6.87-11.06c2.6-2.6.6-5.96-6.53-11.1-9.2-6.62-12-7.63-13.94-5.02-3.64 4.87 1.77 15.23 9.14 17.48 3.85 1.18 9.46.5 11.33-1.36zm16.52 1c1.8-.74 4.5-2.82 6-4.62 2.3-2.7 2.7-4.06 2.46-7.9-.27-4.22-.53-4.63-3.12-4.92-2.9-.34-10.73 4.3-16.82 9.97-3.4 3.14-3.52 4.2-.86 6.85 2.36 2.36 7.56 2.63 12.33.63zm-6.1-14.42c3.93-2.32 6.1-7.5 5.47-13.06-1.07-9.54-11.6-14.36-20.87-9.56-5.47 2.83-7.6 12.1-4.27 18.55 3.2 6.2 12.7 8.18 19.67 4.07zm-10.24-2.9c-.82-.3-2.5-1.48-3.75-2.6-4.84-4.42-1.07-14.03 5.52-14.03 9.15 0 12.6 10.7 4.97 15.36-3.35 2.03-4.2 2.2-6.74 1.26zm27.33-3.34c5-3.94 4.26-14.52-1.4-20.18-2.36-2.36-3.62-2.85-6.67-2.6-3.3.28-3.8.67-4.1 3.1-.4 3.55 4.55 18.8 6.64 20.47 2.1 1.65 2.48 1.6 5.52-.8zm-41.35-9.72c4.05-11.87 3.7-13.82-2.4-13.63-6.48.22-10.6 6.17-10.6 15.37 0 6.03 2.56 9.33 6.82 8.84 2.46-.27 3-1.2 6.18-10.56zm26.45-12.22c4.46-1.7 2.97-7.73-2.62-10.62-4.73-2.44-14.95-1.57-18.3 1.57-3.28 3.1-3.43 7.73-.27 9 3.06 1.22 18.02 1.26 21.2.05zm103.03 57.45c12.32-3.2 22.26-11.28 27.2-22.06 12.04-26.3-3.3-55.28-31.6-59.66-18.02-2.8-36.32 6.78-44.35 23.18-3.06 6.25-3.22 7.15-3.22 18.1 0 10.95.16 11.84 3.22 18.05 8.97 18.23 29.15 27.5 48.75 22.4zM219.36 401c-35.2-11.8-33.43-61.37 2.52-70.58 12.45-3.2 24.4.13 34.36 9.55 7.88 7.46 11.1 15.02 11.1 26.03 0 7.2-.4 9.43-2.8 14.6-7.92 17.16-27.92 26.2-45.18 20.4zm6.95-9.16c1.88-.85 2.56-1.93 2.56-4 0-2.4-1.27-3.8-8.08-8.85-8.45-6.27-10.8-7.06-13-4.4-3.63 4.37.4 13.28 7.48 16.5 4.78 2.16 7.52 2.35 11.05.74zm19.45-.78c4.42-2.26 7.04-5.82 7.82-10.63.66-4.1-.96-6.43-4.44-6.43-2.27 0-15.7 8.77-17.5 11.4-1.33 1.98-.8 5.48.98 6.52 2.83 1.64 9.04 1.23 13.15-.86zm-7.6-13.2c5.04-2.7 7.34-12.8 4.26-18.76-4-7.78-16.15-8.9-21.93-2.04-4.65 5.52-4.66 12.35-.03 17.85 4 4.77 11.87 6.07 17.7 2.95zm-10.87-4.3c-6.76-2.9-6.64-12.32.2-15.17 5.65-2.38 11.38 1.46 11.38 7.6 0 6.2-5.88 10.04-11.58 7.57zm29.83-3.76c3.8-4.38.82-17.83-4.57-20.7-1.28-.7-3.86-1.1-5.74-.93-2.7.26-3.5.82-3.76 2.6-.4 2.83 4.53 18.1 6.62 20.5 1.83 2.1 4.9 1.5 7.45-1.47zm-46.5.95c1.57-1.98 6.26-16.97 6.26-20 0-5.82-9.2-4.37-13.2 2.1-2.97 4.78-3.18 13.96-.4 17.04 2.13 2.34 5.83 2.77 7.35.85zm29.7-21.73c3.47-1.32 3.5-5.8.03-9.05-3.36-3.16-13.56-4-18.35-1.53-5.38 2.78-6.58 9.94-1.82 10.86 4.4.85 17.64.67 20.14-.28zm-55.5-5.9c3.95-7.82 12.34-16.74 20-21.27l6.18-3.65-4.8-2.35c-11.22-5.52-22.52-20.26-25.77-33.63-.8-3.33-1.4-4.63-1.45-3.13-.14 4.22-3.68 13.36-7.4 19.07-4.4 6.8-10.67 12.8-17.82 17.08l-5.63 3.38 4.6 2.43c6 3.2 15.2 11.77 19.07 17.8 3.4 5.27 7.04 14.98 7.18 19.05.04 1.5.66.2 1.46-3.12.78-3.14 2.75-8.4 4.4-11.66zM135.98 312c12.95-2.43 24.33-11.07 30.17-22.93 3.05-6.2 3.2-7.1 3.2-18.05 0-10.9-.16-11.9-3.2-18.3-10.17-21.47-36.48-29.85-58.5-18.62-6.02 3.08-14.5 12.02-17.4 18.37-11.5 25.14 2.17 53.42 28.6 59.17 7.05 1.52 10.47 1.6 17.13.35zm-17.1-5.6c-10.92-2.94-19.9-10.6-24.84-21.23-2.2-4.73-2.63-7.07-2.63-14.17.02-7.17.46-9.46 2.8-14.6 3.54-7.72 11.25-15.4 19.16-19.1 5.18-2.42 7.24-2.8 15.02-2.8 8.18 0 9.65.3 15.7 3.28 7.48 3.7 14.16 10.38 17.9 17.94 2.03 4.1 2.37 6.26 2.37 15.28 0 9.53-.24 10.98-2.74 15.7-5.45 10.38-13.54 16.97-24.2 19.75-7.24 1.88-11.35 1.87-18.5-.05zm6.62-10.52c3.2-2.64 1.16-6.07-7.14-12.05-8.45-6.1-11.77-7.06-13.46-3.9-2.77 5.16.75 12.17 7.97 15.88 4.72 2.43 9.77 2.46 12.63.08zm16.97.5c5.4-2.57 8.4-6.8 8.4-11.92 0-5.25-2.46-7.35-6.26-5.35-4.66 2.48-14.82 10.18-15.8 12-1.1 2.08.1 5.34 2.3 6.23 2.64 1.06 8.1.6 11.37-.95zm-5-15.67c4.53-4.13 5.6-10.34 2.83-16.2-3.12-6.57-12.62-9.15-19.72-5.35-3.06 1.64-5.7 7.05-5.7 11.65-.02 8.7 4.58 13.1 13.75 13.16 4.58.03 5.72-.4 8.85-3.25zm-15.54-4.34c-4.63-5.88-.86-13.76 6.6-13.76 4.42 0 8.33 4 8.33 8.5 0 7.2-10.5 10.9-14.93 5.26zm-10.13-10.2c3.8-11.43 3.58-13.44-1.6-13.96-5.92-.6-11.34 6.5-11.34 14.83 0 6.67 2.54 10.2 7 9.73 2.23-.23 2.88-1.38 5.94-10.6zm42.3 9.1c5.33-6.06.78-21.07-6.83-22.52-7.05-1.35-8.06 2.12-4 13.83 3.63 10.54 3.56 10.43 6.54 10.43 1.52 0 3.45-.8 4.3-1.75zm-13.67-23.67c1.4-5.63-4.15-9.6-13.44-9.6-4.98 0-6.5.43-9.06 2.6-2.93 2.45-4.17 6.97-2.4 8.73.36.37 5.97.67 12.47.67 11.66 0 11.83-.04 12.43-2.4zm104.9 58.5c28.05-9.86 36.54-46.07 15.97-68.06-5.2-5.55-11.86-9.4-19.97-11.5-19.76-5.15-39.66 3.92-48.65 22.18-3.16 6.4-3.32 7.27-3.3 17.76.03 9.12.44 12 2.35 16.8 4.56 11.44 17.5 22.05 30.13 24.68 6.12 1.28 17 .4 23.48-1.87zm-22.72-3.2c-10.55-2.48-20.98-10.93-25.57-20.7-2.3-4.93-2.67-7-2.67-15.22 0-8.75.27-10.07 3.3-16.2 3.8-7.76 10.07-13.82 18.2-17.65 4.63-2.17 6.94-2.6 14.5-2.6 8.04-.03 9.7.3 15.5 3.08 23.3 11.15 29.07 39.27 11.9 57.9-9.18 9.95-22.7 14.35-35.15 11.4zm4.92-11.03c2.2-1.83 1.54-5.53-1.45-8.03-6.73-5.63-14.07-10-16.27-9.68-5.3.78-3.8 11.67 2.22 15.95 5.4 3.85 12.07 4.6 15.5 1.77zm18.33-.15c6.8-3.6 10.26-12.33 6.4-16.18-2.15-2.16-4.36-1.34-13.15 4.85-7.92 5.57-9.58 8.46-6.7 11.64 2.4 2.66 8.06 2.53 13.45-.32zm-7.96-13.24c3.93-2.03 5.96-6.3 5.96-12.53 0-4.5-.42-5.57-3.27-8.43-4.53-4.5-10.22-5.44-16.05-2.6-9.05 4.37-10.2 16.6-2.17 22.9 3.33 2.63 11.08 2.96 15.5.66zm-11.8-4.15c-.7-.28-1.97-1.85-2.82-3.5-2.17-4.2-1-8.5 2.93-10.9 4.2-2.55 5.9-2.43 9.6.66 6.12 5.15 2.86 14.5-5 14.32-1.9-.04-4-.3-4.7-.6zm-15.5-2.58c1.57-1.98 6.26-16.97 6.26-20 0-3.62-3.84-4.67-8.67-2.37-6.7 3.2-9.6 16.35-4.8 21.66 2 2.22 5.72 2.58 7.2.7zm46.3-.3c.72-.87 1.5-3.94 1.74-6.84.58-6.92-2.4-13.13-7.3-15.17-4.1-1.72-8.48-.48-8.48 2.4 0 2.25 4.24 15.87 5.9 18.98 1.4 2.63 6.2 3 8.15.64zm-14.23-25.07c.24-2.46-.35-3.66-2.83-5.75-5.88-4.94-19.74-3.03-22.05 3.05-.55 1.42-.72 3.44-.4 4.48.57 1.75 1.58 1.88 12.8 1.62l12.16-.28.3-3.12zm-58.07-2.1c3.55-7.3 11.9-16.32 19.4-20.95l5.9-3.64-5.27-3c-11.37-6.5-22.57-21.85-24.4-33.47l-.74-4.73-.8 4.44c-2.2 12.2-12.45 26.52-23.82 33.24l-6.23 3.67 4.3 2.2c5.46 2.78 14.97 11.8 18.9 17.92 3.32 5.18 6.97 14.9 7.1 18.94.04 1.5.67.15 1.48-3.18.77-3.18 2.64-8.33 4.17-11.45zm-37.66-34.04c8-3.87 15.93-11.9 19.73-20 2.44-5.2 2.7-6.84 2.7-17.3 0-11.33-.08-11.67-3.78-19.17-7.75-15.68-22.44-23.76-40.88-22.5-24.4 1.67-42.13 24.04-38.03 47.95 2.04 11.96 7.62 21.1 16.68 27.34 8.77 6.04 14.28 7.53 26.48 7.17 9.4-.28 11.2-.64 17.08-3.5zm-26.08-1.62c-8.28-1.83-12.92-4.43-19.15-10.75-7.4-7.5-10.16-14.34-10.24-25.37-.06-6.98.34-8.86 3.1-14.73 3.8-8.06 10.2-14.6 18.08-18.46 5.05-2.47 6.83-2.8 15.24-2.8 8.74 0 10.07.27 16.17 3.27 8.33 4.1 15.84 12.03 18.74 19.77 4.34 11.6 2 26.45-5.74 36.2-8.16 10.3-23.37 15.7-36.2 12.88zm21.73-10.6c4.98-2.25 8.25-7.04 8.26-12.07 0-3.82-1.43-5.95-4-5.95-2.16 0-15.7 9.6-17.56 12.45-3.98 6.08 4.42 9.6 13.3 5.58zm-17.67-.06c1.1-.6 1.93-2.08 1.93-3.5 0-1.93-1.77-3.78-8.08-8.47-4.45-3.3-9.1-6-10.3-6-7.37 0-5.5 12.05 2.62 17 3.55 2.17 10.65 2.66 13.83.96zm10.63-13.92c6.45-3.93 8.2-13.66 3.57-19.9-4.36-5.9-14.56-6.53-20.44-1.28-2.53 2.25-3.2 3.74-3.6 8.1-.6 6.2 1.25 10.64 5.56 13.3 3.7 2.3 10.94 2.2 14.9-.22zm-13.24-5.5c-3.62-3.6-3.36-8.6.62-11.95 4.03-3.4 7.37-3.3 11 .32 3.62 3.63 3.73 6.97.33 11-3.34 3.98-8.34 4.24-11.95.62zm-14.26-1.3c2.5-2.92 7.24-19.32 6.1-21.16-1.4-2.22-5.96-2.53-8.9-.6-6.58 4.3-8.8 16.2-3.94 21.06 2.9 2.9 4.7 3.1 6.74.7zm47.14-2.5c4.27-8.75-3.55-22.4-11.66-20.38-2.23.56-2.68 1.23-2.68 3.98 0 1.82 1.08 6.42 2.4 10.23 3.8 10.97 3.52 10.57 6.98 10.23 2.48-.24 3.5-1.07 4.96-4.06zm-15.54-19.94c3.4-3.4-1.67-10.1-8.5-11.25-4.9-.83-11.67.82-14.35 3.5-1.87 1.88-2.65 6.9-1.27 8.28 1.23 1.23 22.85.75 24.13-.53zm109.2 55.55c12.03-5.74 19.32-14.58 22.6-27.35 4.33-17-3.22-36.4-17.77-45.6-9.96-6.3-24.22-8.1-35.75-4.5-17.38 5.4-28.02 19.1-28.9 37.2-.8 16.4 5.23 28.67 18.58 37.82 6.8 4.66 12.93 6.14 24.23 5.82 9.35-.25 11.2-.62 17-3.4zm-24.35-1.4c-7.38-1.24-14.8-5.38-20.55-11.46-7.82-8.27-9.6-12.9-9.58-25 0-8.48.37-10.73 2.38-14.78 6.04-12.23 18.06-20.56 31-21.48 8.98-.64 15.7 1.05 23.06 5.8 7.48 4.83 12.45 11.5 15.2 20.33 7.95 25.64-14.7 51.07-41.5 46.58zm22.23-11.68c6.1-4.53 8.74-11.7 5.8-15.73-1.93-2.62-4.8-1.6-13.92 5-8.45 6.1-9.73 8.9-5.5 11.97 2.9 2.1 10 1.45 13.63-1.23zm-19.07.53c.66-.66 1.2-2.38 1.2-3.83 0-2.13-1.48-3.68-7.92-8.3-7.63-5.46-12.15-7-13.62-4.6-1.24 2-.66 7.78 1.1 10.74 2.46 4.2 8.03 7.15 13.5 7.18 2.5 0 5.08-.52 5.74-1.18zm10.23-13.32c3.9-2.02 5.96-6.3 5.96-12.36 0-6.1-3.24-10.5-8.98-12.23-11.3-3.4-20.78 6.43-16.92 17.52 2.62 7.5 12.38 10.97 19.93 7.06zm-13.45-6.56c-3.4-4.03-3.3-7.37.33-11 3.26-3.26 5.8-3.63 10-1.46 7.5 3.87 4.26 15.54-4.28 15.54-2.64 0-4.08-.74-6.05-3.08zm-13.84-.17c1.85-2.33 6.4-17.66 6.08-20.46-.27-2.36-.84-2.85-3.64-3.12-4.4-.42-7.9 2.02-10.24 7.15-2.3 5.04-2.45 9.78-.46 13.63 2.05 3.95 6.23 5.37 8.27 2.8zm44.86.48c3.8-2.52 4.5-11.2 1.4-17.25-3.2-6.25-10.74-8.96-13.34-4.8-.8 1.24-.44 3.7 1.33 9.5 3.33 10.93 4.64 13.32 7.3 13.3 1.2 0 2.7-.34 3.3-.75zm-12.8-25.92c1.05-10.77-22.55-12.4-25.23-1.72-1.2 4.83.52 5.5 13.33 5.2l11.6-.28.3-3.2zm-58.14-2.17c3.77-7.77 14.05-18.25 21.87-22.3 3.55-1.83 6.43-3.56 6.4-3.83-.02-.28-2.8-1.8-6.16-3.4-12.18-5.78-24.33-21.7-26.4-34.6l-.72-4.5-1.33 5.86c-3.03 13.28-13.63 26.83-26.23 33.5l-6.35 3.4 4.87 2.45c14.48 7.34 25.97 21.8 27.98 35.25l.67 4.47 1.38-5.46c.76-3 2.56-7.88 4-10.83zm-42.33-35.07c10.76-3.7 19.87-11.88 24.44-21.94 3.45-7.58 4.28-22.34 1.72-30.27-3.74-11.55-11.2-19.94-22.36-25.17-11.92-5.58-28.3-4.78-39.77 1.95-14 8.2-22.33 26.3-19.56 42.48 2.75 16.03 13.64 28.8 28.48 33.45 6.56 2.05 20.38 1.8 27.04-.5zm-25.5-4.4c-13.9-5.15-22.64-15.6-25.1-30.02-2.92-16.98 8.98-35.3 26.15-40.3 8.13-2.36 19.02-1.46 26.44 2.2 7.7 3.8 15.8 12.53 18.66 20.17 3.16 8.43 2.6 20.57-1.32 28.54-3.6 7.3-10.13 13.85-17.44 17.44-4.8 2.36-7.2 2.86-14.74 3.07-5.7.16-10.34-.24-12.65-1.1zm25.94-9.8c5.16-2.5 8.2-6.92 8.22-11.9 0-3.83-1.43-5.96-4-5.96-1.8 0-14.46 8.64-17.34 11.82-3.38 3.74-.12 7.95 6.28 8.12 1.33.03 4.42-.9 6.84-2.08zm-17.3-.5c2.84-2.82 1.35-5.58-5.98-11.1-10.4-7.84-14.7-8.16-15.3-1.13-.37 4.3 2.96 9.45 7.8 12.02 4.34 2.3 11.28 2.43 13.48.22zm9.62-12.9c3.87-2 6.9-7.03 6.9-11.46 0-11.04-12.1-17.77-21.1-11.72-4.3 2.9-5.86 6.05-5.88 11.9 0 3.6.58 5.38 2.65 7.84 1.47 1.74 3.6 3.55 4.75 4 3.37 1.37 9.45 1.1 12.68-.57zm-12.64-5.92c-5.4-5.4-1.28-14.54 6.55-14.54 2.95 0 8 5.27 8 8.34 0 1.38-1.17 3.9-2.6 5.58-3.34 3.98-8.34 4.24-11.95.62zm-14.04-1.8c2.36-3.6 6.75-18.64 6.07-20.78-.47-1.5-1.5-1.95-4.3-1.93-2.03.02-4.42.6-5.3 1.27-6.07 4.6-8 16.66-3.43 21.24 3.05 3.06 5.07 3.1 6.96.2zm46 0c2.4-3.7 2.9-7.57 1.57-12.3-2.74-9.77-15-14.7-15-6 0 3.52 4.3 17 6.12 19.2 1.76 2.1 5.67 1.63 7.3-.9zM139.65 61.8c3.6-3.6-1.77-10.22-9.18-11.34-5.45-.8-13 1.54-14.63 4.56-1.38 2.58-1.23 6.7.26 7.32 2.74 1.1 22.37.65 23.56-.54zm103.84 57.7c7.36-2.17 16.42-8.45 20.78-14.4 17.3-23.56 6.77-56.9-20.6-65.22-10.14-3.1-22.1-2.34-31.23 1.93-8.54 4-15.78 11.26-19.9 19.96-2.98 6.3-3.2 7.44-3.2 17.74 0 10.23.23 11.46 3.1 17.55 5.32 11.2 12.78 18 24 21.85 7.2 2.48 19.8 2.77 27.05.6zm-26.42-5.58c-7.12-2.8-16.4-11.53-19.93-18.74-2.5-5.07-2.8-6.76-2.8-15.68 0-9.07.28-10.54 2.94-15.78 3.44-6.8 10.18-13.44 17.68-17.4 4.87-2.55 6.34-2.82 15.38-2.82 8.77 0 10.7.33 15.74 2.7 7.34 3.43 14.6 10.7 18.3 18.32 2.53 5.23 2.9 7.1 2.9 14.98.03 7.66-.36 9.85-2.6 14.67-3.55 7.6-9.5 13.83-17.1 17.9-5.63 3.02-7.17 3.38-15.74 3.64-7.75.25-10.47-.08-14.78-1.78zm27.8-9.17c7.4-3.73 11.06-11.53 7.64-16.2-1.9-2.62-4.9-1.6-13.72 4.72-8.35 5.98-9.9 9.24-5.77 12.13 3.13 2.2 6.6 2 11.86-.65zm-17.22.05c.66-.66 1.2-2.38 1.2-3.83 0-2.13-1.48-3.68-7.92-8.3-7.63-5.46-12.15-7-13.62-4.6-1.24 2-.66 7.78 1.1 10.74 2.46 4.2 8.03 7.15 13.5 7.18 2.5 0 5.08-.52 5.74-1.18zm9.84-13.44c4.35-2.06 6.36-5.9 6.36-12.18 0-13.73-18.66-18.27-25.17-6.12-6.54 12.17 6 24.37 18.8 18.3zm-12.72-6.28c-1.76-1.77-2.92-3.98-2.92-5.58 0-3.67 5-8.5 8.78-8.5 7.23 0 10.94 9.37 5.77 14.54-3.43 3.44-7.9 3.27-11.62-.46zm-13.58-1.83c2.63-5.2 5.8-16.18 5.48-18.97-.28-2.43-.8-2.82-4.08-3.1-3.06-.25-4.32.24-6.66 2.6-5.46 5.44-6.5 15.8-2.02 20.27 2.76 2.76 5.64 2.45 7.28-.8zm45.1 1.18c3.72-3.73 3.3-13.47-.83-18.88-4.2-5.52-12.6-5.93-12.6-.62 0 1.7 5.32 18.17 6.48 20.05.96 1.55 5.17 1.2 6.94-.55zM242.66 59.8c.47-4.07-1.3-6.45-6.25-8.33-6.12-2.34-12.87-1.3-16.72 2.54-1.56 1.57-2.84 3.7-2.84 4.72 0 3.8 1.94 4.35 13.98 4.06l11.52-.28.3-2.7z"/><path fill="#878c9b" d="M60.36 444.53C36.8 440.1 17.42 425.8 7.4 405.5-.2 390.1.36 404.7.36 222V58.5l2.73-8C7 38.94 12.25 30.6 21.4 21.4c6.8-6.88 9.6-8.88 18.5-13.23C57.47-.43 50 0 180.06 0c109.24.02 114.65.1 122.3 1.93 10.2 2.45 16.16 5.03 24.6 10.65 15.25 10.13 27.26 27.86 30.44 44.92 1.3 6.93 1.46 29.75 1.23 169l-.27 161-2.7 8c-8 23.53-26.16 40.57-51.3 48.12-5.6 1.68-13.5 1.8-121.5 2-92.15.2-116.9-.04-122.5-1.1zm240.67-4.98c19.83-4.2 37.4-17.87 46.36-36.05 6.9-14.04 6.46-1.9 6.45-180.46-.02-139.48-.22-162.4-1.5-167.85-6.1-25.87-29.15-46.13-57.1-50.16-4.23-.62-48.86-1-116-1.02-93.7-.02-110.37.2-117.93 1.5C39.3 9.4 21.1 22.6 11.82 41.5c-7.47 15.2-6.96 1.87-6.94 180.96 0 176-.3 166.42 5.82 179.78 5.8 12.67 16.5 23.92 29.16 30.66 5.33 2.84 15.9 6.57 21 7.4 1.38.24 54.48.48 118 .55 96 .1 116.63-.12 122.17-1.3zm-186.06-24.13c-8.2-2.2-16.98-7.32-23.1-13.43-20.06-20.08-20.02-51.83.1-71.96 3.15-3.14 8.2-7 11.22-8.58l5.5-2.9-5.5-3.02c-11.57-6.42-21.45-19.2-24.8-32.08-1.9-7.27-1.96-18.3-.15-25.1 3.34-12.54 12.97-25.16 23.93-31.34l5.74-3.24-4.28-2.1c-5.87-2.84-17.93-15.06-21.15-21.4-7.55-14.92-7.53-31.94.05-47.15 3.8-7.6 14.27-17.95 22.1-21.87l6.26-3.13-7.02-3.7c-16.5-8.66-27.06-26.23-27-44.9.04-8.78 1.3-14.3 5-22 12.9-26.86 46.9-36.98 72.92-21.72 11 6.46 21.97 21.72 23.65 32.93l.7 4.7 1.37-5.47c5.8-23.12 26.24-39.2 49.84-39.2 39.48.02 63.77 40.54 45.26 75.5-3.84 7.25-14.4 17.3-22.08 21.04l-5.78 2.8 6 3c25.5 12.74 35.44 43.54 22.4 69.32-3.24 6.37-11.3 14.9-18.52 19.6l-5.72 3.74 6.42 4.15c11.43 7.4 19.9 19.43 22.63 32.14 1.66 7.76.63 22.22-2.06 28.94-4.5 11.22-13.27 21.04-24.12 26.97l-4.77 2.6 5.7 2.97c11.3 5.9 22.2 20 25.08 32.48.57 2.47 1.03 7.87 1.03 12 0 14.3-4.62 25.68-14.44 35.5-20.22 20.22-51.2 20.82-71.96 1.38-7.1-6.63-12.7-16.2-14.95-25.53-.8-3.34-1.46-4.74-1.5-3.26-.14 4.05-3.8 13.76-7.18 19.04-3.93 6.12-13.07 14.58-19.54 18.08-10.37 5.6-25.6 7.33-37.26 4.2zm22.1-8.54c12.84-2.7 23.66-11.16 29.18-22.82 2.92-6.16 3.1-7.26 3.1-18.08 0-11-.13-11.82-3.28-18.22-6.1-12.38-17.16-20.56-31-22.93-28.32-4.86-53.08 19.6-48.4 47.8 3.96 23.95 26.52 39.28 50.4 34.25zm-18.28-5.2c-10.44-2.94-19.98-11.23-24.76-21.5-2.2-4.72-2.64-7.12-2.66-14.2-.02-7.6.33-9.23 3.22-15.1 8.07-16.4 25.4-24.78 42.24-20.46 11.15 2.85 19.2 9.32 24.77 19.87 2.5 4.7 2.76 6.18 2.76 15.7 0 10.06-.14 10.76-3.43 16.83-4.18 7.72-11.62 14.46-19.07 17.3-6.78 2.6-17 3.28-23.07 1.56zm6.87-11.06c2.6-2.6.6-5.96-6.53-11.1-9.2-6.62-12-7.63-13.94-5.02-3.64 4.87 1.77 15.23 9.14 17.48 3.85 1.18 9.46.5 11.33-1.36zm16.52 1c1.8-.74 4.5-2.82 6-4.62 2.3-2.7 2.7-4.06 2.46-7.9-.27-4.22-.53-4.63-3.12-4.92-2.9-.34-10.73 4.3-16.82 9.97-3.4 3.14-3.52 4.2-.86 6.85 2.36 2.36 7.56 2.63 12.33.63zm-6.1-14.42c3.93-2.32 6.1-7.5 5.47-13.06-1.07-9.54-11.6-14.36-20.87-9.56-5.47 2.83-7.6 12.1-4.27 18.55 3.2 6.2 12.7 8.18 19.67 4.07zm-10.24-2.9c-.82-.3-2.5-1.48-3.75-2.6-4.84-4.42-1.07-14.03 5.52-14.03 9.15 0 12.6 10.7 4.97 15.36-3.35 2.03-4.2 2.2-6.74 1.26zm27.33-3.34c5-3.94 4.26-14.52-1.4-20.18-2.36-2.36-3.62-2.85-6.67-2.6-3.3.28-3.8.67-4.1 3.1-.4 3.55 4.55 18.8 6.64 20.47 2.1 1.65 2.48 1.6 5.52-.8zm-41.35-9.72c4.05-11.87 3.7-13.82-2.4-13.63-6.48.22-10.6 6.17-10.6 15.37 0 6.03 2.56 9.33 6.82 8.84 2.46-.27 3-1.2 6.18-10.56zm26.45-12.22c4.46-1.7 2.97-7.73-2.62-10.62-4.73-2.44-14.95-1.57-18.3 1.57-3.28 3.1-3.43 7.73-.27 9 3.06 1.22 18.02 1.26 21.2.05zm103.03 57.45c12.32-3.2 22.26-11.28 27.2-22.06 12.04-26.3-3.3-55.28-31.6-59.66-18.02-2.8-36.32 6.78-44.35 23.18-3.06 6.25-3.22 7.15-3.22 18.1 0 10.95.16 11.84 3.22 18.05 8.97 18.23 29.15 27.5 48.75 22.4zM219.36 401c-35.2-11.8-33.43-61.37 2.52-70.58 12.45-3.2 24.4.13 34.36 9.55 7.88 7.46 11.1 15.02 11.1 26.03 0 7.2-.4 9.43-2.8 14.6-7.92 17.16-27.92 26.2-45.18 20.4zm6.95-9.16c1.88-.85 2.56-1.93 2.56-4 0-2.4-1.27-3.8-8.08-8.85-8.45-6.27-10.8-7.06-13-4.4-3.63 4.37.4 13.28 7.48 16.5 4.78 2.16 7.52 2.35 11.05.74zm19.45-.78c4.42-2.26 7.04-5.82 7.82-10.63.66-4.1-.96-6.43-4.44-6.43-2.27 0-15.7 8.77-17.5 11.4-1.33 1.98-.8 5.48.98 6.52 2.83 1.64 9.04 1.23 13.15-.86zm-7.6-13.2c5.04-2.7 7.34-12.8 4.26-18.76-4-7.78-16.15-8.9-21.93-2.04-4.65 5.52-4.66 12.35-.03 17.85 4 4.77 11.87 6.07 17.7 2.95zm-10.87-4.3c-6.76-2.9-6.64-12.32.2-15.17 5.65-2.38 11.38 1.46 11.38 7.6 0 6.2-5.88 10.04-11.58 7.57zm29.83-3.76c3.8-4.38.82-17.83-4.57-20.7-1.28-.7-3.86-1.1-5.74-.93-2.7.26-3.5.82-3.76 2.6-.4 2.83 4.53 18.1 6.62 20.5 1.83 2.1 4.9 1.5 7.45-1.47zm-46.5.95c1.57-1.98 6.26-16.97 6.26-20 0-5.82-9.2-4.37-13.2 2.1-2.97 4.78-3.18 13.96-.4 17.04 2.13 2.34 5.83 2.77 7.35.85zm29.7-21.73c3.47-1.32 3.5-5.8.03-9.05-3.36-3.16-13.56-4-18.35-1.53-5.38 2.78-6.58 9.94-1.82 10.86 4.4.85 17.64.67 20.14-.28zm-55.5-5.9c3.95-7.82 12.34-16.74 20-21.27l6.18-3.65-4.8-2.35c-11.22-5.52-22.52-20.26-25.77-33.63-.8-3.33-1.4-4.63-1.45-3.13-.14 4.22-3.68 13.36-7.4 19.07-4.4 6.8-10.67 12.8-17.82 17.08l-5.63 3.38 4.6 2.43c6 3.2 15.2 11.77 19.07 17.8 3.4 5.27 7.04 14.98 7.18 19.05.04 1.5.66.2 1.46-3.12.78-3.14 2.75-8.4 4.4-11.66zM135.98 312c12.95-2.43 24.33-11.07 30.17-22.93 3.05-6.2 3.2-7.1 3.2-18.05 0-10.9-.16-11.9-3.2-18.3-10.17-21.47-36.48-29.85-58.5-18.62-6.02 3.08-14.5 12.02-17.4 18.37-11.5 25.14 2.17 53.42 28.6 59.17 7.05 1.52 10.47 1.6 17.13.35zm-17.1-5.6c-10.92-2.94-19.9-10.6-24.84-21.23-2.2-4.73-2.63-7.07-2.63-14.17.02-7.17.46-9.46 2.8-14.6 3.54-7.72 11.25-15.4 19.16-19.1 5.18-2.42 7.24-2.8 15.02-2.8 8.18 0 9.65.3 15.7 3.28 7.48 3.7 14.16 10.38 17.9 17.94 2.03 4.1 2.37 6.26 2.37 15.28 0 9.53-.24 10.98-2.74 15.7-5.45 10.38-13.54 16.97-24.2 19.75-7.24 1.88-11.35 1.87-18.5-.05zm6.62-10.52c3.2-2.64 1.16-6.07-7.14-12.05-8.45-6.1-11.77-7.06-13.46-3.9-2.77 5.16.75 12.17 7.97 15.88 4.72 2.43 9.77 2.46 12.63.08zm16.97.5c5.4-2.57 8.4-6.8 8.4-11.92 0-5.25-2.46-7.35-6.26-5.35-4.66 2.48-14.82 10.18-15.8 12-1.1 2.08.1 5.34 2.3 6.23 2.64 1.06 8.1.6 11.37-.95zm-5-15.67c4.53-4.13 5.6-10.34 2.83-16.2-3.12-6.57-12.62-9.15-19.72-5.35-3.06 1.64-5.7 7.05-5.7 11.65-.02 8.7 4.58 13.1 13.75 13.16 4.58.03 5.72-.4 8.85-3.25zm-15.54-4.34c-4.63-5.88-.86-13.76 6.6-13.76 4.42 0 8.33 4 8.33 8.5 0 7.2-10.5 10.9-14.93 5.26zm-10.13-10.2c3.8-11.43 3.58-13.44-1.6-13.96-5.92-.6-11.34 6.5-11.34 14.83 0 6.67 2.54 10.2 7 9.73 2.23-.23 2.88-1.38 5.94-10.6zm42.3 9.1c5.33-6.06.78-21.07-6.83-22.52-7.05-1.35-8.06 2.12-4 13.83 3.63 10.54 3.56 10.43 6.54 10.43 1.52 0 3.45-.8 4.3-1.75zm-13.67-23.67c1.4-5.63-4.15-9.6-13.44-9.6-4.98 0-6.5.43-9.06 2.6-2.93 2.45-4.17 6.97-2.4 8.73.36.37 5.97.67 12.47.67 11.66 0 11.83-.04 12.43-2.4zm104.9 58.5c28.05-9.86 36.54-46.07 15.97-68.06-5.2-5.55-11.86-9.4-19.97-11.5-19.76-5.15-39.66 3.92-48.65 22.18-3.16 6.4-3.32 7.27-3.3 17.76.03 9.12.44 12 2.35 16.8 4.56 11.44 17.5 22.05 30.13 24.68 6.12 1.28 17 .4 23.48-1.87zm-22.72-3.2c-10.55-2.48-20.98-10.93-25.57-20.7-2.3-4.93-2.67-7-2.67-15.22 0-8.75.27-10.07 3.3-16.2 3.8-7.76 10.07-13.82 18.2-17.65 4.63-2.17 6.94-2.6 14.5-2.6 8.04-.03 9.7.3 15.5 3.08 23.3 11.15 29.07 39.27 11.9 57.9-9.18 9.95-22.7 14.35-35.15 11.4zm4.92-11.03c2.2-1.83 1.54-5.53-1.45-8.03-6.73-5.63-14.07-10-16.27-9.68-5.3.78-3.8 11.67 2.22 15.95 5.4 3.85 12.07 4.6 15.5 1.77zm18.33-.15c6.8-3.6 10.26-12.33 6.4-16.18-2.15-2.16-4.36-1.34-13.15 4.85-7.92 5.57-9.58 8.46-6.7 11.64 2.4 2.66 8.06 2.53 13.45-.32zm-7.96-13.24c3.93-2.03 5.96-6.3 5.96-12.53 0-4.5-.42-5.57-3.27-8.43-4.53-4.5-10.22-5.44-16.05-2.6-9.05 4.37-10.2 16.6-2.17 22.9 3.33 2.63 11.08 2.96 15.5.66zm-11.8-4.15c-.7-.28-1.97-1.85-2.82-3.5-2.17-4.2-1-8.5 2.93-10.9 4.2-2.55 5.9-2.43 9.6.66 6.12 5.15 2.86 14.5-5 14.32-1.9-.04-4-.3-4.7-.6zm-15.5-2.58c1.57-1.98 6.26-16.97 6.26-20 0-3.62-3.84-4.67-8.67-2.37-6.7 3.2-9.6 16.35-4.8 21.66 2 2.22 5.72 2.58 7.2.7zm46.3-.3c.72-.87 1.5-3.94 1.74-6.84.58-6.92-2.4-13.13-7.3-15.17-4.1-1.72-8.48-.48-8.48 2.4 0 2.25 4.24 15.87 5.9 18.98 1.4 2.63 6.2 3 8.15.64zm-14.23-25.07c.24-2.46-.35-3.66-2.83-5.75-5.88-4.94-19.74-3.03-22.05 3.05-.55 1.42-.72 3.44-.4 4.48.57 1.75 1.58 1.88 12.8 1.62l12.16-.28.3-3.12zm-58.07-2.1c3.55-7.3 11.9-16.32 19.4-20.95l5.9-3.64-5.27-3c-11.37-6.5-22.57-21.85-24.4-33.47l-.74-4.73-.8 4.44c-2.2 12.2-12.45 26.52-23.82 33.24l-6.23 3.67 4.3 2.2c5.46 2.78 14.97 11.8 18.9 17.92 3.32 5.18 6.97 14.9 7.1 18.94.04 1.5.67.15 1.48-3.18.77-3.18 2.64-8.33 4.17-11.45zm-37.66-34.04c8-3.87 15.93-11.9 19.73-20 2.44-5.2 2.7-6.84 2.7-17.3 0-11.33-.08-11.67-3.78-19.17-7.75-15.68-22.44-23.76-40.88-22.5-24.4 1.67-42.13 24.04-38.03 47.95 2.04 11.96 7.62 21.1 16.68 27.34 8.77 6.04 14.28 7.53 26.48 7.17 9.4-.28 11.2-.64 17.08-3.5zm-26.08-1.62c-8.28-1.83-12.92-4.43-19.15-10.75-7.4-7.5-10.16-14.34-10.24-25.37-.06-6.98.34-8.86 3.1-14.73 3.8-8.06 10.2-14.6 18.08-18.46 5.05-2.47 6.83-2.8 15.24-2.8 8.74 0 10.07.27 16.17 3.27 8.33 4.1 15.84 12.03 18.74 19.77 4.34 11.6 2 26.45-5.74 36.2-8.16 10.3-23.37 15.7-36.2 12.88zm21.73-10.6c4.98-2.25 8.25-7.04 8.26-12.07 0-3.82-1.43-5.95-4-5.95-2.16 0-15.7 9.6-17.56 12.45-3.98 6.08 4.42 9.6 13.3 5.58zm-17.67-.06c1.1-.6 1.93-2.08 1.93-3.5 0-1.93-1.77-3.78-8.08-8.47-4.45-3.3-9.1-6-10.3-6-7.37 0-5.5 12.05 2.62 17 3.55 2.17 10.65 2.66 13.83.96zm10.63-13.92c6.45-3.93 8.2-13.66 3.57-19.9-4.36-5.9-14.56-6.53-20.44-1.28-2.53 2.25-3.2 3.74-3.6 8.1-.6 6.2 1.25 10.64 5.56 13.3 3.7 2.3 10.94 2.2 14.9-.22zm-13.24-5.5c-3.62-3.6-3.36-8.6.62-11.95 4.03-3.4 7.37-3.3 11 .32 3.62 3.63 3.73 6.97.33 11-3.34 3.98-8.34 4.24-11.95.62zm-14.26-1.3c2.5-2.92 7.24-19.32 6.1-21.16-1.4-2.22-5.96-2.53-8.9-.6-6.58 4.3-8.8 16.2-3.94 21.06 2.9 2.9 4.7 3.1 6.74.7zm47.14-2.5c4.27-8.75-3.55-22.4-11.66-20.38-2.23.56-2.68 1.23-2.68 3.98 0 1.82 1.08 6.42 2.4 10.23 3.8 10.97 3.52 10.57 6.98 10.23 2.48-.24 3.5-1.07 4.96-4.06zm-15.54-19.94c3.4-3.4-1.67-10.1-8.5-11.25-4.9-.83-11.67.82-14.35 3.5-1.87 1.88-2.65 6.9-1.27 8.28 1.23 1.23 22.85.75 24.13-.53zm109.2 55.55c12.03-5.74 19.32-14.58 22.6-27.35 4.33-17-3.22-36.4-17.77-45.6-9.96-6.3-24.22-8.1-35.75-4.5-17.38 5.4-28.02 19.1-28.9 37.2-.8 16.4 5.23 28.67 18.58 37.82 6.8 4.66 12.93 6.14 24.23 5.82 9.35-.25 11.2-.62 17-3.4zm-24.35-1.4c-7.38-1.24-14.8-5.38-20.55-11.46-7.82-8.27-9.6-12.9-9.58-25 0-8.48.37-10.73 2.38-14.78 6.04-12.23 18.06-20.56 31-21.48 8.98-.64 15.7 1.05 23.06 5.8 7.48 4.83 12.45 11.5 15.2 20.33 7.95 25.64-14.7 51.07-41.5 46.58zm22.23-11.68c6.1-4.53 8.74-11.7 5.8-15.73-1.93-2.62-4.8-1.6-13.92 5-8.45 6.1-9.73 8.9-5.5 11.97 2.9 2.1 10 1.45 13.63-1.23zm-19.07.53c.66-.66 1.2-2.38 1.2-3.83 0-2.13-1.48-3.68-7.92-8.3-7.63-5.46-12.15-7-13.62-4.6-1.24 2-.66 7.78 1.1 10.74 2.46 4.2 8.03 7.15 13.5 7.18 2.5 0 5.08-.52 5.74-1.18zm10.23-13.32c3.9-2.02 5.96-6.3 5.96-12.36 0-6.1-3.24-10.5-8.98-12.23-11.3-3.4-20.78 6.43-16.92 17.52 2.62 7.5 12.38 10.97 19.93 7.06zm-13.45-6.56c-3.4-4.03-3.3-7.37.33-11 3.26-3.26 5.8-3.63 10-1.46 7.5 3.87 4.26 15.54-4.28 15.54-2.64 0-4.08-.74-6.05-3.08zm-13.84-.17c1.85-2.33 6.4-17.66 6.08-20.46-.27-2.36-.84-2.85-3.64-3.12-4.4-.42-7.9 2.02-10.24 7.15-2.3 5.04-2.45 9.78-.46 13.63 2.05 3.95 6.23 5.37 8.27 2.8zm44.86.48c3.8-2.52 4.5-11.2 1.4-17.25-3.2-6.25-10.74-8.96-13.34-4.8-.8 1.24-.44 3.7 1.33 9.5 3.33 10.93 4.64 13.32 7.3 13.3 1.2 0 2.7-.34 3.3-.75zm-12.8-25.92c1.05-10.77-22.55-12.4-25.23-1.72-1.2 4.83.52 5.5 13.33 5.2l11.6-.28.3-3.2zm-58.14-2.17c3.77-7.77 14.05-18.25 21.87-22.3 3.55-1.83 6.43-3.56 6.4-3.83-.02-.28-2.8-1.8-6.16-3.4-12.18-5.78-24.33-21.7-26.4-34.6l-.72-4.5-1.33 5.86c-3.03 13.28-13.63 26.83-26.23 33.5l-6.35 3.4 4.87 2.45c14.48 7.34 25.97 21.8 27.98 35.25l.67 4.47 1.38-5.46c.76-3 2.56-7.88 4-10.83zm-42.33-35.07c10.76-3.7 19.87-11.88 24.44-21.94 3.45-7.58 4.28-22.34 1.72-30.27-3.74-11.55-11.2-19.94-22.36-25.17-11.92-5.58-28.3-4.78-39.77 1.95-14 8.2-22.33 26.3-19.56 42.48 2.75 16.03 13.64 28.8 28.48 33.45 6.56 2.05 20.38 1.8 27.04-.5zm-25.5-4.4c-13.9-5.15-22.64-15.6-25.1-30.02-2.92-16.98 8.98-35.3 26.15-40.3 8.13-2.36 19.02-1.46 26.44 2.2 7.7 3.8 15.8 12.53 18.66 20.17 3.16 8.43 2.6 20.57-1.32 28.54-3.6 7.3-10.13 13.85-17.44 17.44-4.8 2.36-7.2 2.86-14.74 3.07-5.7.16-10.34-.24-12.65-1.1zm25.94-9.8c5.16-2.5 8.2-6.92 8.22-11.9 0-3.83-1.43-5.96-4-5.96-1.8 0-14.46 8.64-17.34 11.82-3.38 3.74-.12 7.95 6.28 8.12 1.33.03 4.42-.9 6.84-2.08zm-17.3-.5c2.84-2.82 1.35-5.58-5.98-11.1-10.4-7.84-14.7-8.16-15.3-1.13-.37 4.3 2.96 9.45 7.8 12.02 4.34 2.3 11.28 2.43 13.48.22zm9.62-12.9c3.87-2 6.9-7.03 6.9-11.46 0-11.04-12.1-17.77-21.1-11.72-4.3 2.9-5.86 6.05-5.88 11.9 0 3.6.58 5.38 2.65 7.84 1.47 1.74 3.6 3.55 4.75 4 3.37 1.37 9.45 1.1 12.68-.57zm-12.64-5.92c-5.4-5.4-1.28-14.54 6.55-14.54 2.95 0 8 5.27 8 8.34 0 1.38-1.17 3.9-2.6 5.58-3.34 3.98-8.34 4.24-11.95.62zm-14.04-1.8c2.36-3.6 6.75-18.64 6.07-20.78-.47-1.5-1.5-1.95-4.3-1.93-2.03.02-4.42.6-5.3 1.27-6.07 4.6-8 16.66-3.43 21.24 3.05 3.06 5.07 3.1 6.96.2zm46 0c2.4-3.7 2.9-7.57 1.57-12.3-2.74-9.77-15-14.7-15-6 0 3.52 4.3 17 6.12 19.2 1.76 2.1 5.67 1.63 7.3-.9zM139.65 61.8c3.6-3.6-1.77-10.22-9.18-11.34-5.45-.8-13 1.54-14.63 4.56-1.38 2.58-1.23 6.7.26 7.32 2.74 1.1 22.37.65 23.56-.54zm103.84 57.7c7.36-2.17 16.42-8.45 20.78-14.4 17.3-23.56 6.77-56.9-20.6-65.22-10.14-3.1-22.1-2.34-31.23 1.93-8.54 4-15.78 11.26-19.9 19.96-2.98 6.3-3.2 7.44-3.2 17.74 0 10.23.23 11.46 3.1 17.55 5.32 11.2 12.78 18 24 21.85 7.2 2.48 19.8 2.77 27.05.6zm-26.42-5.58c-7.12-2.8-16.4-11.53-19.93-18.74-2.5-5.07-2.8-6.76-2.8-15.68 0-9.07.28-10.54 2.94-15.78 3.44-6.8 10.18-13.44 17.68-17.4 4.87-2.55 6.34-2.82 15.38-2.82 8.77 0 10.7.33 15.74 2.7 7.34 3.43 14.6 10.7 18.3 18.32 2.53 5.23 2.9 7.1 2.9 14.98.03 7.66-.36 9.85-2.6 14.67-3.55 7.6-9.5 13.83-17.1 17.9-5.63 3.02-7.17 3.38-15.74 3.64-7.75.25-10.47-.08-14.78-1.78zm27.8-9.17c7.4-3.73 11.06-11.53 7.64-16.2-1.9-2.62-4.9-1.6-13.72 4.72-8.35 5.98-9.9 9.24-5.77 12.13 3.13 2.2 6.6 2 11.86-.65zm-17.22.05c.66-.66 1.2-2.38 1.2-3.83 0-2.13-1.48-3.68-7.92-8.3-7.63-5.46-12.15-7-13.62-4.6-1.24 2-.66 7.78 1.1 10.74 2.46 4.2 8.03 7.15 13.5 7.18 2.5 0 5.08-.52 5.74-1.18zm9.84-13.44c4.35-2.06 6.36-5.9 6.36-12.18 0-13.73-18.66-18.27-25.17-6.12-6.54 12.17 6 24.37 18.8 18.3zm-12.72-6.28c-1.76-1.77-2.92-3.98-2.92-5.58 0-3.67 5-8.5 8.78-8.5 7.23 0 10.94 9.37 5.77 14.54-3.43 3.44-7.9 3.27-11.62-.46zm-13.58-1.83c2.63-5.2 5.8-16.18 5.48-18.97-.28-2.43-.8-2.82-4.08-3.1-3.06-.25-4.32.24-6.66 2.6-5.46 5.44-6.5 15.8-2.02 20.27 2.76 2.76 5.64 2.45 7.28-.8zm45.1 1.18c3.72-3.73 3.3-13.47-.83-18.88-4.2-5.52-12.6-5.93-12.6-.62 0 1.7 5.32 18.17 6.48 20.05.96 1.55 5.17 1.2 6.94-.55zM242.66 59.8c.47-4.07-1.3-6.45-6.25-8.33-6.12-2.34-12.87-1.3-16.72 2.54-1.56 1.57-2.84 3.7-2.84 4.72 0 3.8 1.94 4.35 13.98 4.06l11.52-.28.3-2.7z"/><path fill="#7f7f7f" d="M60.36 444.53C36.8 440.1 17.42 425.8 7.4 405.5-.2 390.1.36 404.7.36 222V58.5l2.73-8C7 38.94 12.25 30.6 21.4 21.4c6.8-6.88 9.6-8.88 18.5-13.23C57.47-.43 50 0 180.06 0c109.24.02 114.65.1 122.3 1.93 10.2 2.45 16.16 5.03 24.6 10.65 15.25 10.13 27.26 27.86 30.44 44.92 1.3 6.93 1.46 29.75 1.23 169l-.27 161-2.7 8c-8 23.53-26.16 40.57-51.3 48.12-5.6 1.68-13.5 1.8-121.5 2-92.15.2-116.9-.04-122.5-1.1zm240.67-4.98c19.83-4.2 37.4-17.87 46.36-36.05 6.9-14.04 6.46-1.9 6.45-180.46-.02-139.48-.22-162.4-1.5-167.85-6.1-25.87-29.15-46.13-57.1-50.16-4.23-.62-48.86-1-116-1.02-93.7-.02-110.37.2-117.93 1.5C39.3 9.4 21.1 22.6 11.82 41.5c-7.47 15.2-6.96 1.87-6.94 180.96 0 176-.3 166.42 5.82 179.78 5.8 12.67 16.5 23.92 29.16 30.66 5.33 2.84 15.9 6.57 21 7.4 1.38.24 54.48.48 118 .55 96 .1 116.63-.12 122.17-1.3zm-184.17-24.1c-13.04-2.83-26.14-12-32.42-22.73-13.68-23.34-7.43-53.37 14.18-68.12 3.7-2.54 7.28-4.6 7.93-4.6 2.8 0 2.08-2.02-1.3-3.62-6.25-2.97-13.4-8.95-18-15.04-18.62-24.75-10.33-61.6 17-75.54l4.03-2.05-4.96-2.52c-6.85-3.5-17.35-14.4-20.84-21.66-1.57-3.25-3.56-9.5-4.42-13.88-4.27-21.7 7.07-44.68 26.7-54.08l7.04-3.38-6.5-3.2c-19.45-9.57-30.7-30.96-27.6-52.5 3.02-21 17.4-36.8 38.37-42.17 8.4-2.15 22.13-1.43 30.03 1.58 16.55 6.3 28.63 20.23 32 36.9l1.08 5.34 2.13-7.36c5.47-18.82 18.25-31.63 36.2-36.26 25.97-6.7 51.57 6.62 61.4 31.92 3.25 8.38 3.3 25.18.1 33.92-4.55 12.5-14.4 23.45-25.9 28.84l-6.26 2.94 7.1 3.4c22.26 10.67 33.22 37.8 24.95 61.82-3.9 11.3-12.7 21.85-22.86 27.4l-5.33 2.9 5.8 3.27c21.92 12.36 31.38 41.8 20.84 64.82-4.95 10.8-15.75 21.67-25.1 25.22l-2.86 1.1 5.88 3.14c19.85 10.66 30.34 34.25 25.1 56.5-5.15 21.8-22.92 36.78-46 38.8-24.58 2.14-48.6-15.5-53.55-39.34l-1.17-5.7-2.17 7.48c-2.98 10.26-6.9 17-13.57 23.37-6.76 6.43-15.86 11.24-24.92 13.16-8.15 1.73-13.7 1.7-22.12-.12zm23.72-8.96c11.8-3.52 23.9-15.1 27.94-26.75 2.44-7.04 2.46-20.42.03-27.4-4.2-12.15-15.3-22.66-27.98-26.5-20.1-6.1-41.1 3.02-50.44 21.93-3.64 7.35-3.77 7.98-3.77 18.17 0 9.77.24 11.04 3.17 17.23 7.4 15.6 21.5 24.7 38.4 24.8 4.16 0 9.86-.66 12.65-1.5zm-24.4-5.9c-5.93-1.92-10.44-4.93-15.3-10.18-6.88-7.48-8.52-12.17-8.52-24.42 0-9.55.26-11 2.82-16 3.7-7.2 9.53-13.1 16.53-16.63 5.16-2.6 6.6-2.87 16.18-2.87 9.87 0 10.92.2 17.2 3.3 7.65 3.75 12.77 9.05 16.65 17.2 2.25 4.73 2.6 6.82 2.6 15 0 8.16-.36 10.3-2.6 15.12-3.57 7.62-8.6 12.93-16.1 16.94-5.67 3.04-7.17 3.4-15.77 3.64-6.03.17-11.02-.22-13.67-1.1zm25.22-8.48c7.76-3.53 12.1-11.18 9.2-16.23-1.5-2.63-1.46-2.76.84-3.33 4.78-1.2 6.9-10.07 4.06-16.9-1.72-4.1-7.06-8.67-10.14-8.67-2.53 0-5.5 2.36-5.5 4.38 0 1.96 5.9 18.93 6.96 19.98.6.6-.14 1.54-1.96 2.54-5.37 2.96-16.07 11.13-16.7 12.76-.8 2.06.74 4.5 3.8 6.07 3.2 1.65 4.67 1.56 9.44-.6zm-16.7-.72c4.2-2.94 2.6-6.13-6.34-12.57-10.65-7.7-14.5-7.6-14.5.3 0 9.2 13.7 17.27 20.84 12.27zm9.74-13c9.97-4.73 9.82-20.14-.23-24.9-11.8-5.6-24.56 7.05-18.64 18.48 3.7 7.12 11.68 9.83 18.88 6.4zm-12.12-6.86c-5.16-5.15-1.44-13.54 6-13.54 4.85 0 7.54 2.85 7.54 8 0 5.14-2.7 8-7.54 8-2.43 0-4.32-.77-6-2.46zm-11.48-6.2c5.3-14.16 5.13-17.56-.86-18.16-4.12-.4-9.38 4.62-11.2 10.7-1.63 5.44.26 11.92 4.02 13.78 3.58 1.78 5.6.18 8.04-6.32zm29.38-17.54c1.5-2.36-.2-6.6-3.64-9.16-2.05-1.53-4.3-2.08-8.67-2.1-6.58-.05-10.52 2.06-12.88 6.87-1.17 2.4-1.12 3 .44 4.7 1.58 1.76 2.9 1.93 12.73 1.68 9-.23 11.14-.58 12.02-1.98zm108.9 55.9c8.88-4.37 16.15-11.7 20.35-20.45 3.65-7.6 4.52-21.26 1.9-29.4-3.75-11.57-11.97-20.8-23.33-26.2-6.2-2.92-7.43-3.15-17.18-3.12-13.6.04-19.56 2.25-28.4 10.53-11.24 10.5-16.2 24.1-13.72 37.56 2.87 15.6 13.2 27.87 28.18 33.4 4.36 1.62 7.36 1.96 15.05 1.72 8.78-.27 10.27-.63 17.16-4.03zm-32.44-4.03c-7.4-3.1-12.88-7.54-16.67-13.43-3.3-5.16-6.14-14.52-6.14-20.24 0-10.3 5.9-22.54 13.75-28.53 7.5-5.73 14.3-7.72 24.82-7.28 11.46.48 18.1 3.45 25.3 11.35 6.6 7.2 9.14 14.03 9.14 24.45 0 10.4-2.55 17.26-9.13 24.45-7.38 8.08-13.86 10.92-25.83 11.3-8.24.27-10.3 0-15.22-2.08zm30.03-8.9c4.12-2.52 7.15-7.28 7.16-11.2 0-3.03-2.42-6.57-4.5-6.57-1.55 0-16.73 10.83-17.85 12.74-.7 1.18-1.42.9-4-1.5-5.05-4.72-14.8-11.24-16.83-11.24-1.8 0-1.8-.1.07-2.75 1.06-1.5 3.13-6.44 4.6-10.95 3.1-9.55 2.52-12.3-2.55-12.3-6.53 0-11.94 7.06-11.94 15.6 0 4 .48 5.1 3.4 7.87 2.43 2.3 3.16 3.62 2.52 4.62-3.96 6.25 4.35 16.74 14 17.67 4.04.38 5.22.1 7.05-1.74 1.88-1.88 2.36-2 3.36-.74 3.32 4.14 9.25 4.32 15.5.47zm-8.74-13.04c8.98-6 8.78-18.18-.4-23.78-3.8-2.3-8.73-2.5-12.63-.5-8.56 4.44-10.84 14.32-4.87 21.12 1.75 2 4.12 4 5.25 4.47 3.87 1.57 9.18 1.02 12.66-1.3zm-13.1-5.73c-2.82-2.82-2.7-9.26.2-11.96 4.94-4.62 13.8-.8 13.8 5.96 0 6.74-9.28 10.72-14 6zm30.7-.5c3.4-2.4 4.76-7.8 3.26-13.13-2.94-10.54-14.87-15.66-15.74-6.77-.35 3.47 4.1 17 6.43 19.57 2.03 2.22 3.26 2.3 6.06.33zm-13.53-23.16c2.45-2.2 2.3-3.62-.7-7.2-5.1-6.05-15.6-6.63-21.42-1.2-3.42 3.22-4.03 7.38-1.3 8.98.97.56 6.23 1.03 11.68 1.05 7.86.02 10.3-.32 11.75-1.63zm-59.8 1.56c3.33-11.38 12.8-22.6 24.08-28.5l5.45-2.85-5.7-3c-12.1-6.4-22.5-20.12-25.24-33.3l-1.17-5.7-2.2 7.62c-4.04 13.98-13.3 25.63-25.18 31.64l-5.34 2.7 6.47 3.35c11.74 6.1 21.58 19.26 24.66 33 1.02 4.58 1.33 5.08 1.9 3.06.37-1.32 1.4-4.92 2.3-8zm-41.05-38.92c14.8-4.57 26.3-17.9 29-33.6 3.05-17.84-7.04-36.62-24-44.65-6.4-3.03-7.5-3.23-17.87-3.23-10.73 0-11.25.1-18.58 3.72-9.22 4.56-15.75 11.2-20.17 20.56-2.95 6.22-3.2 7.5-3.2 17.22 0 9.74.24 11 3.22 17.27 5.36 11.3 16.86 21 28.04 23.64 6.74 1.6 16.7 1.2 23.58-.92zm-26.43-6.28c-9.83-4.14-15.02-8.84-19.57-17.7-2.56-5-2.82-6.45-2.82-16 0-9.47.28-11.06 2.8-16.2 3.63-7.4 11.9-14.98 19.46-17.82 4.8-1.8 7.3-2.1 15.24-1.8 8.48.36 10.18.76 15.77 3.76 7.5 4 12.53 9.32 16.1 16.94 2.24 4.83 2.6 6.96 2.6 15.12 0 8.2-.36 10.28-2.65 15.2-3.4 7.3-10.38 14.25-17.62 17.58-8.33 3.83-21.42 4.25-29.3.92zm28.24-8.3c3.4-1.7 7.68-6.83 8.52-10.17.4-1.65.06-3.65-.95-5.43-1.3-2.25-1.34-2.8-.25-2.8.75 0 2.53-1.4 3.95-3.08 4.57-5.42 3-14.88-3.35-20.22-1.77-1.48-4.1-2.7-5.2-2.7-3.02 0-5.86 1.86-5.86 3.85 0 2.43 5.7 19.06 7.1 20.77.9 1.07.8 1.38-.34 1.38-2.3 0-18.2 12.26-18.6 14.32-.42 2.27 2.34 5.44 5.2 5.96 2.74.5 6.44-.2 9.77-1.9zm-18.36.04c4.34-3.04 2.95-5.93-5.96-12.45-10.8-7.92-14.82-7.87-14.82.16 0 9.05 13.78 17.2 20.78 12.28zm9.15-12.9c5.03-2.6 8.06-7.18 8.06-12.17 0-5.67-2.03-9.6-6.34-12.27-6.93-4.3-16.08-1.57-19.96 5.92-5.76 11.12 7.16 24.24 18.23 18.5zm-11.48-7c-5.16-5.15-1.44-13.54 6-13.54 4.85 0 7.54 2.85 7.54 8 0 5.14-2.7 8-7.54 8-2.43 0-4.32-.77-6-2.46zm-11.75-5.62c5.6-14.12 5.44-18.14-.68-18.74-4.12-.4-8.3 3.3-10.64 9.45-2.94 7.7.5 15.86 6.4 15.18 2.25-.25 3.07-1.24 4.9-5.88zm28.36-16.96c3.05-1.63 2.5-6.3-1.1-9.33-5.98-5.04-15.14-4.66-20.65.85-3.86 3.86-4.03 4.8-1.32 7.52 1.72 1.72 3.34 2 11.57 2 5.26 0 10.43-.47 11.5-1.04zm110.3 54.7c8.98-4.44 15.56-11.18 19.95-20.44 2.98-6.3 3.18-7.43 3.18-17.72 0-10-.25-11.5-2.8-16.7-5.36-10.93-15.32-19.67-26.55-23.3-4-1.3-7.67-1.63-14.6-1.33-7.97.35-10.16.86-15.97 3.72-17.03 8.37-26.94 27.1-23.7 44.73 1.56 8.4 5.04 15.28 10.97 21.64 9.54 10.23 18.7 13.95 32.94 13.38 8.24-.33 10.1-.78 16.6-4zm-30.87-3.4c-14.65-5.26-24.5-19.27-24.5-34.87 0-12.4 7.7-25.1 19-31.32 6.35-3.5 6.76-3.58 17.5-3.58 10 0 11.5.25 16.67 2.78 7.2 3.54 13 9.35 16.55 16.55 3.88 7.9 4.46 20.98 1.3 29.42-2.84 7.55-10.14 15.5-17.68 19.23-7.6 3.77-20.98 4.6-28.84 1.77zm24.5-7.82c7.75-2.22 13.43-12.05 10.05-17.4-.66-1.06-.15-1.9 1.97-3.2 6.04-3.67 6.1-14.3.13-20.7-4.88-5.22-11.2-5.32-11.97-.18-.44 2.97 4.55 18.56 6.45 20.14 1.27 1.05 1.06 1.4-1.44 2.47-4.18 1.75-17.18 11.37-17.18 12.7 0 .62-1.46-.25-3.25-1.93-6.33-5.96-14.42-11.34-17.04-11.34-4.93 0-6.22 6.44-2.42 12.1 4.8 7.1 14.8 10.04 19.4 5.72 2.14-2 2.44-2.04 3.58-.54.68.9 2.37 2.08 3.74 2.6 2.5.97 3.24.93 8-.44zm-6.07-14.2c10.1-5.15 10.54-18.2.82-24.3-6.12-3.85-15.25-1.36-19.17 5.2-2.34 3.92-2.05 11 .57 14.34 4.94 6.27 11.42 8 17.77 4.77zm-11.3-6.3c-3.36-2.66-3.7-8.88-.64-11.94 1.32-1.32 3.34-2 5.93-2 7.25 0 10.74 8.4 5.6 13.54-3.03 3.04-7.34 3.2-10.9.4zm-14.26-2.2c.78-1.23 2.67-6.15 4.2-10.92 2.33-7.25 2.57-8.94 1.48-10.25-1.67-2.02-6.97-2.02-9.85 0-5.78 4.05-8.1 15.74-4.14 20.8 2.58 3.27 6.37 3.45 8.3.38zm31.1-21.72c4.05-4.47-3.58-11.94-12.26-12-6.9-.05-13.22 4.56-13.22 9.65 0 3.43 2.64 4.27 13.6 4.3 8.8.02 10.32-.22 11.88-1.95zm-61.48 6.5c2.65-12.76 12.78-26.46 24-32.44l6.1-3.24-5.28-2.67c-11.56-5.85-21.9-19.75-24.9-33.46l-1.25-5.78-1.8 7.1c-1 3.9-3.06 9.43-4.6 12.27-3.67 6.86-13.57 16.67-20.06 19.9l-5.23 2.6 4.63 2.25c11.5 5.57 22.46 19.94 25.48 33.43.67 3.04 1.35 5.52 1.5 5.52.15 0 .78-2.46 1.4-5.47zM138.5 217.6c22.3-5.93 36.48-28.98 31-50.35-2.28-8.92-5.1-13.87-11.5-20.27-10.22-10.2-24.16-14.46-37.85-11.6-9.07 1.88-14.35 4.62-20.94 10.85-9.85 9.33-13.87 19.5-13.14 33.33.35 6.74 1.03 9.45 3.68 14.84 9.17 18.63 29.54 28.32 48.77 23.2zm-21.77-6.17c-10.37-3.2-18.8-11.36-22.88-22.15-3.1-8.24-2.53-20.62 1.34-28.52 13.26-27.12 52.46-27.24 65.76-.2 9.98 20.26-.6 44.7-22.03 50.87-6.63 1.9-16 1.92-22.2 0zm7.9-9c4.98-3.47 2.56-7.15-10.23-15.56-5.72-3.76-6.3-4.44-5.35-6.23 1.66-3.1 5.78-16.86 5.8-19.36 0-1.2-.88-2.7-1.97-3.27-6.77-3.62-17.15 9.42-14.48 18.2 1 3.3 4.5 6.8 6.8 6.8 1.85 0 1.87.1.32 1.83-.9 1-1.66 3.44-1.66 5.42 0 8.77 13.96 16.97 20.78 12.2zm21.02-2.13c2.15-1.73 4.32-4.7 5.15-7.04 1.28-3.65 1.26-4.3-.28-6.66-2.33-3.56-4.36-3.28-11.25 1.55-11.7 8.22-13.57 11.17-9.16 14.36 3.52 2.55 10.97 1.5 15.55-2.2zm-12.46-10.67c5.35-2.23 8.66-7 8.66-12.46 0-9.2-6.17-14.8-15.35-13.9-4.15.4-5.57 1.08-8.27 4.02-4.46 4.86-5.25 9.7-2.5 15.38 1.63 3.33 3.2 4.9 6.4 6.35 5.07 2.3 6.77 2.4 11.06.6zm-9.34-5.92c-1.6-.8-2.83-2.57-3.43-5-1.34-5.4 1.5-9.08 7.38-9.5 5.74-.43 8.06 1.7 8.06 7.38 0 6.83-5.78 10.26-12 7.13zm30.08-2.62c5.03-5.04 3.55-14.85-3.08-20.43-2.3-1.95-4.16-2.67-6.3-2.45-5.24.52-5.52 2.6-1.86 13.75 4.13 12.6 6.14 14.23 11.24 9.13zm-15.64-21.06c4.97-1.9 2.72-8.37-4.12-11.9-3.17-1.63-9.98-1.38-13.96.5-5.9 2.8-7.77 9.84-3.12 11.7 2.3.94 18.58.7 21.2-.3zm103.1 57.44c12.3-3.2 22.1-11.43 27.85-23.46 2.9-6.06 3.1-7.25 3.1-17.5 0-9.87-.27-11.6-2.7-16.78-5.82-12.43-18.85-22.34-32.47-24.7-12.6-2.2-27.1 2.63-36.65 12.2-16.2 16.2-16.52 41.43-.73 58.12 11.02 11.65 26.26 16.1 41.6 12.12zm-21.9-6.04c-9.92-3.16-17.8-10.2-22.32-19.92-2.4-5.15-2.8-7.27-2.8-15.02-.02-8.2.28-9.64 3.26-15.7 6.5-13.22 17.75-20.03 33.22-20.15 7.5-.05 9.3.3 15.15 3.06 7.84 3.65 13.7 9.18 17.58 16.5 2.56 4.87 2.78 6.2 2.78 16.3 0 12.54-1.48 16.8-8.65 24.93-6.04 6.87-14.97 10.86-25.18 11.24-5.4.2-9.8-.22-13.03-1.25zm7.8-9.54l2.68-2.12 2.26 2.12c6.58 6.18 21.62-2.07 21.62-11.86 0-2.15-.5-4.2-1.08-4.57-.65-.4.14-1.42 1.94-2.5 6.46-3.94 6.28-15-.35-21.64-4.93-4.93-11.53-4.27-11.5 1.15.03 3.28 4.97 17.87 6.7 19.8 1.48 1.6 1.45 1.75-.34 1.75-2.23 0-18.37 11.5-18.37 13.1 0 .58-1.27-.22-2.83-1.78s-6.3-5.17-10.5-8.02c-4.22-2.85-7.25-5.44-6.73-5.76.52-.33 2.43-5.12 4.25-10.66l3.3-10.07-2.36-1.9c-3.02-2.44-4.12-2.4-8.14.35-4.38 3-7 8.16-7 13.85 0 5.23 2.87 9.9 6.1 9.9 1.85 0 1.87.12.3 2.5-3.24 4.97.48 12.74 7.84 16.4 5.4 2.66 8.78 2.66 12.2-.02zm8.55-12.5c10.32-4.12 11.84-16.3 2.97-23.76-5.93-5-16.8-2.72-20.4 4.28-3.6 6.93-.63 15.8 6.46 19.35 4.3 2.16 5.87 2.18 10.97.13zm-10.24-6.36c-3.46-2.74-3.85-8.9-.74-12.02 2.02-2.02 8.33-2.76 10.6-1.24 1.73 1.16 3.4 4.87 3.4 7.56 0 6.2-8.15 9.7-13.25 5.7zm16.3-23.85c4.7-3.8-.94-10.96-9.36-11.9-5.85-.66-8.8.1-12.6 3.32-3.66 3.07-4 6.63-.86 8.84 3.4 2.4 19.78 2.2 22.8-.27zm-55.55-8c3.82-6.98 14-16.4 21.5-19.88 3.3-1.55 5.97-3.03 5.95-3.3-.03-.28-3.24-2.02-7.13-3.88-12.8-6.12-22.7-18.9-25.88-33.4l-1.27-5.8-1.8 7.1c-1 3.9-3.06 9.43-4.6 12.27-4.05 7.56-13.53 16.6-21.52 20.5l-6.75 3.33 6.93 3.46c12.67 6.33 23.54 20.38 26.26 33.93l1.14 5.66 2.13-7.36c1.18-4.04 3.45-9.74 5.05-12.66zm-48.02-30.7c8.26-2.16 14.75-5.96 20.43-11.96 12.93-13.66 15.55-31.94 6.98-48.74-3.07-6-12.48-14.97-18.93-18.02-17.53-8.27-36.36-4.6-49.74 9.7-8.43 9.02-10.63 14.9-10.67 28.58-.04 9.95.15 10.9 3.3 17.33 9.18 18.6 29.25 28.16 48.63 23.12zm-18.97-5.35c-10.8-2.84-19.02-9.38-23.7-18.9-3.06-6.2-3.3-7.4-3.3-16.7 0-8.75.34-10.74 2.65-15.67 6.9-14.7 23.8-23.1 40.13-19.88 7.88 1.55 12.8 4.1 18.74 9.64 12.5 11.7 14.47 33.76 4.2 47.23-4.8 6.28-6.67 7.8-14.13 11.4-5.15 2.5-7.93 3.18-14 3.4-4.17.15-8.93-.07-10.58-.5zm6.14-10.24c3.1-2.58 1.15-6.15-6.64-12.1-4.12-3.13-8.32-6-9.32-6.33-2.8-.97-5.68 2.27-5.68 6.36 0 9.37 14.9 17.68 21.64 12.08zm17.02.48c6.96-3.3 11.34-12.5 7.82-16.4-.98-1.07-2.54-1.96-3.46-1.96-3.8 0-19.02 12.02-19.02 15.02 0 4.54 8.2 6.4 14.66 3.34zm-10.5-12.4c2.07-.56 5.03-2.55 6.76-4.52 2.5-2.86 3.08-4.38 3.08-8.23 0-8.72-5.56-14.2-14.4-14.2-3.62 0-5.23.6-8 3.05-4.03 3.53-6.04 8.66-5.1 12.98.87 3.9 5.08 8.87 8.95 10.56 3.75 1.62 4.16 1.64 8.73.37zm-7.8-6.13c-2.3-1.1-4.36-4.8-4.36-7.74 0-1 .93-3.02 2.07-4.47 1.67-2.1 2.92-2.63 6.35-2.63 5.42 0 7.58 2.2 7.58 7.75 0 6.48-5.7 9.95-11.63 7.08zm29.72-2.75c3.6-3.62 3.93-9.36.87-15.68-2.47-5.13-6-7.63-10.14-7.2-5.2.5-5.57 2.55-2.3 12.76C145.1 82.6 147.68 87 149.97 87c.57 0 2.35-1.32 3.96-2.92zm-45.7.05c1.86-2.05 6.58-16.28 6.6-19.9.02-1.48-.88-2.68-2.55-3.44-3.4-1.57-8.63 1.16-11.66 6.06-3.17 5.13-3.1 13.1.15 16.56 2.86 3.05 5.13 3.27 7.44.7zm30.06-21.1c3.66-1.4 3.47-5.78-.42-9.5-5.84-5.6-19.05-4.24-22.44 2.33-1.8 3.5-1.2 5.95 1.8 7.16 2.94 1.18 17.94 1.2 21.06 0zm101.45 57.9c12.56-2.9 23.88-12 29.38-23.62 3.03-6.38 3.23-7.48 3.23-17.82 0-10.4-.18-11.4-3.23-17.6-8.37-17-27.2-27-44.95-23.92-9.4 1.63-16.9 5.47-23.38 11.97-16.48 16.5-16.9 41.6-1 58.4 10.35 10.96 25.88 15.85 39.95 12.6zm-19.4-6.27c-10.94-3.65-18.6-10.3-23.17-20.16-2.4-5.15-2.8-7.28-2.8-15.02-.02-8.2.28-9.64 3.26-15.7 10.73-21.78 39.2-27.34 57.93-11.3 2.16 1.85 5.48 6.2 7.36 9.7 3.32 6.1 3.43 6.68 3.43 17.32 0 9.52-.32 11.63-2.35 15.7-6.25 12.64-17.16 19.74-31.33 20.4-5.27.25-9.77-.1-12.3-.94zm6.94-9.78l2.68-2.12 2.26 2.12c4.5 4.23 12.6 2.32 18.47-4.37 3.33-3.76 4.35-9.9 2.05-12.22-.82-.82-.3-1.53 1.96-2.7 6.42-3.32 6.24-14.7-.33-21.27-4.78-4.78-11.5-4.46-11.5.55 0 3.55 4.87 18.2 6.78 20.4 1.38 1.6 1.34 1.75-.42 1.75-2.36 0-18.36 11.55-18.4 13.27 0 .68-.8.25-1.74-.95-2-2.5-13.25-10.9-16.76-12.5-2.1-.98-2.22-1.3-1-3.2.75-1.17 2.6-6.13 4.1-11.03l2.75-8.9-2.36-1.92c-2.8-2.26-6.3-1.7-9.86 1.54-5.56 5.1-6.98 15.9-2.66 20.22 1.35 1.35 3.16 2.46 4.02 2.46 1.4 0 1.4.26-.07 2.5-2.27 3.46-1.15 8.36 2.85 12.47 5.93 6.08 12.5 7.58 17.17 3.9zm8.55-12.5c10.32-4.12 11.84-16.3 2.97-23.76-5.76-4.85-15.94-2.98-20 3.68-4.6 7.55-.66 18.17 7.68 20.67 4.16 1.24 4.9 1.2 9.35-.6zm-8-5.05c-4.97-1.96-6.68-8.47-3.43-13.1 2.2-3.13 9.5-3.15 12.4-.04 2.52 2.7 2.66 7.83.3 10.68-1.83 2.2-6.65 3.47-9.26 2.45zm14.6-25.48c2.3-2.33.68-6.72-3.56-9.6-3.7-2.5-11.56-3.08-15.35-1.13-3.85 2-6.7 5.16-6.7 7.5 0 4.26 3.5 5.53 14.23 5.2 7.4-.25 10.1-.72 11.36-1.97z"/><path fill="#4b526a" d="M55.25 443.1c-26.36-6.48-47.3-27.2-52.84-52.3C.97 384.22.84 367.1 1.1 219.5l.28-164 3.13-8.1c7.24-18.8 19.9-32.33 37.8-40.44C57.3.16 49.87.5 179.35.5 311.78.5 302-.07 319.86 8.74c7.74 3.82 10.98 6.17 17.5 12.72 8.9 8.93 13.33 15.77 17.32 26.7l2.68 7.34.27 164.92c.3 183.62.8 169.65-6.7 185.08-2.13 4.4-5.9 10.5-8.35 13.57-8.7 10.86-24.25 20.4-38.98 23.94-7.97 1.92-12.04 1.98-124.74 1.92-107.4-.06-117.05-.2-123.6-1.82zm240.55-2.16c15.2-2.47 28.35-9.15 39.04-19.85 7.92-7.94 12.9-15.9 16.7-26.6l2.82-8 .28-160c.3-179.63.73-168.6-7.04-184.5-3.3-6.77-5.9-10.25-12.7-17.1-7.1-7.1-10.16-9.37-18.04-13.26-16.2-8-9.25-7.6-137.3-7.62-127.84-.02-120.8-.4-137.2 7.46C26.2 19.23 12.9 34.26 7.14 51.28L4.36 59.5 4.1 218.98c-.3 176.78-.6 168.42 6.2 182.75 4.6 9.66 11.05 17.9 18.98 24.2 7.47 5.95 20.66 12.4 28.58 13.96 3.03.6 6.4 1.26 7.5 1.47 4.9.97 224.36.56 230.44-.43zm-178.94-25.5c-13.04-2.82-26.14-12-32.42-22.72-13.68-23.34-7.43-53.37 14.18-68.12 3.7-2.54 7.28-4.6 7.93-4.6 2.8 0 2.08-2.02-1.3-3.62-6.25-2.97-13.4-8.95-18-15.04-18.62-24.75-10.33-61.6 17-75.54l4.03-2.05-4.96-2.52c-6.85-3.5-17.35-14.4-20.84-21.66-1.57-3.25-3.56-9.5-4.42-13.88-4.27-21.7 7.07-44.68 26.7-54.08l7.04-3.38-6.5-3.2c-19.45-9.57-30.7-30.96-27.6-52.5 3.02-21 17.4-36.8 38.37-42.17 8.4-2.15 22.13-1.43 30.03 1.58 16.55 6.3 28.63 20.23 32 36.9l1.08 5.34 2.13-7.36c5.47-18.82 18.25-31.63 36.2-36.26 25.97-6.7 51.57 6.62 61.4 31.92 3.25 8.38 3.3 25.18.1 33.92-4.55 12.5-14.4 23.45-25.9 28.84l-6.26 2.94 7.1 3.4c22.26 10.67 33.22 37.8 24.95 61.82-3.9 11.3-12.7 21.85-22.86 27.4l-5.33 2.9 5.8 3.27c21.92 12.36 31.38 41.8 20.84 64.82-4.95 10.8-15.75 21.67-25.1 25.22l-2.86 1.1 5.88 3.14c19.85 10.66 30.34 34.25 25.1 56.5-5.15 21.8-22.92 36.78-46 38.8-24.58 2.14-48.6-15.5-53.55-39.34l-1.17-5.7-2.17 7.48c-2.98 10.26-6.9 17-13.57 23.37-6.76 6.43-15.86 11.24-24.92 13.16-8.15 1.73-13.7 1.7-22.12-.12zm23.72-8.95c11.8-3.52 23.9-15.1 27.94-26.75 2.44-7.04 2.46-20.42.03-27.4-4.2-12.15-15.3-22.66-27.98-26.5-20.1-6.1-41.1 3.02-50.44 21.93-3.64 7.35-3.77 7.98-3.77 18.17 0 9.77.24 11.04 3.17 17.23 7.4 15.6 21.5 24.7 38.4 24.8 4.16 0 9.86-.66 12.65-1.5zm-24.4-5.9c-5.93-1.92-10.44-4.93-15.3-10.18-6.88-7.48-8.52-12.17-8.52-24.42 0-9.55.26-11 2.82-16 3.7-7.2 9.53-13.1 16.53-16.63 5.16-2.6 6.6-2.87 16.18-2.87 9.87 0 10.92.2 17.2 3.3 7.65 3.75 12.77 9.05 16.65 17.2 2.25 4.73 2.6 6.82 2.6 15 0 8.16-.36 10.3-2.6 15.12-3.57 7.62-8.6 12.93-16.1 16.94-5.67 3.04-7.17 3.4-15.77 3.64-6.03.17-11.02-.22-13.67-1.1zm25.22-8.48c7.76-3.53 12.1-11.18 9.2-16.23-1.5-2.63-1.46-2.76.84-3.33 4.78-1.2 6.9-10.07 4.06-16.9-1.72-4.1-7.06-8.67-10.14-8.67-2.53 0-5.5 2.36-5.5 4.38 0 1.96 5.9 18.93 6.96 19.98.6.6-.14 1.54-1.96 2.54-5.37 2.96-16.07 11.13-16.7 12.76-.8 2.06.74 4.5 3.8 6.07 3.2 1.65 4.67 1.56 9.44-.6zm-16.7-.72c4.2-2.94 2.6-6.13-6.34-12.57-10.65-7.7-14.5-7.6-14.5.3 0 9.2 13.7 17.27 20.84 12.27zm9.74-13c9.97-4.73 9.82-20.14-.23-24.9-11.8-5.6-24.56 7.05-18.64 18.48 3.7 7.12 11.68 9.83 18.88 6.4zm-12.12-6.86c-5.16-5.15-1.44-13.54 6-13.54 4.85 0 7.54 2.85 7.54 8 0 5.14-2.7 8-7.54 8-2.43 0-4.32-.77-6-2.46zm-11.48-6.2c5.3-14.16 5.13-17.56-.86-18.16-4.12-.4-9.38 4.62-11.2 10.7-1.63 5.44.26 11.92 4.02 13.78 3.58 1.78 5.6.18 8.04-6.32zm29.38-17.54c1.5-2.36-.2-6.6-3.64-9.16-2.05-1.53-4.3-2.08-8.67-2.1-6.58-.05-10.52 2.06-12.88 6.87-1.17 2.4-1.12 3 .44 4.7 1.58 1.76 2.9 1.93 12.73 1.68 9-.23 11.14-.58 12.02-1.98zm108.9 55.9c8.88-4.37 16.15-11.7 20.35-20.45 3.65-7.6 4.52-21.26 1.9-29.4-3.75-11.57-11.97-20.8-23.33-26.2-6.2-2.92-7.43-3.15-17.18-3.12-13.6.04-19.56 2.25-28.4 10.53-11.24 10.5-16.2 24.1-13.72 37.56 2.87 15.6 13.2 27.87 28.18 33.4 4.36 1.62 7.36 1.96 15.05 1.72 8.78-.27 10.27-.63 17.16-4.03zm-32.44-4.03c-7.4-3.1-12.88-7.54-16.67-13.43-3.3-5.16-6.14-14.52-6.14-20.24 0-10.3 5.9-22.54 13.75-28.53 7.5-5.73 14.3-7.72 24.82-7.28 11.46.48 18.1 3.45 25.3 11.35 6.6 7.2 9.14 14.03 9.14 24.45 0 10.4-2.55 17.26-9.13 24.45-7.38 8.08-13.86 10.92-25.83 11.3-8.24.27-10.3 0-15.22-2.08zm30.03-8.9c4.12-2.52 7.15-7.28 7.16-11.2 0-3.03-2.42-6.57-4.5-6.57-1.55 0-16.73 10.83-17.85 12.74-.7 1.18-1.42.9-4-1.5-5.05-4.72-14.8-11.24-16.83-11.24-1.8 0-1.8-.1.07-2.75 1.06-1.5 3.13-6.44 4.6-10.95 3.1-9.55 2.52-12.3-2.55-12.3-6.53 0-11.94 7.06-11.94 15.6 0 4 .48 5.1 3.4 7.87 2.43 2.3 3.16 3.62 2.52 4.62-3.96 6.25 4.35 16.74 14 17.67 4.04.38 5.22.1 7.05-1.74 1.88-1.88 2.36-2 3.36-.74 3.32 4.14 9.25 4.32 15.5.47zm-8.74-13.04c8.98-6 8.78-18.18-.4-23.78-3.8-2.3-8.73-2.5-12.63-.5-8.56 4.44-10.84 14.32-4.87 21.12 1.75 2 4.12 4 5.25 4.47 3.87 1.57 9.18 1.02 12.66-1.3zm-13.1-5.73c-2.82-2.82-2.7-9.26.2-11.96 4.94-4.62 13.8-.8 13.8 5.96 0 6.74-9.28 10.72-14 6zm30.7-.5c3.4-2.4 4.76-7.8 3.26-13.13-2.94-10.54-14.87-15.66-15.74-6.77-.35 3.47 4.1 17 6.43 19.57 2.03 2.22 3.26 2.3 6.06.33zm-13.53-23.16c2.45-2.2 2.3-3.62-.7-7.2-5.1-6.05-15.6-6.63-21.42-1.2-3.42 3.22-4.03 7.38-1.3 8.98.97.56 6.23 1.03 11.68 1.05 7.86.02 10.3-.32 11.75-1.63zm-59.8 1.56c3.33-11.38 12.8-22.6 24.08-28.5l5.45-2.85-5.7-3c-12.1-6.4-22.5-20.12-25.24-33.3l-1.17-5.7-2.2 7.62c-4.04 13.98-13.3 25.63-25.18 31.64l-5.34 2.7 6.47 3.35c11.74 6.1 21.58 19.26 24.66 33 1.02 4.58 1.33 5.08 1.9 3.06.37-1.32 1.4-4.92 2.3-8zm-41.05-38.92c14.8-4.57 26.3-17.9 29-33.6 3.05-17.84-7.04-36.62-24-44.65-6.4-3.03-7.5-3.23-17.87-3.23-10.73 0-11.25.1-18.58 3.72-9.22 4.56-15.75 11.2-20.17 20.56-2.95 6.22-3.2 7.5-3.2 17.22 0 9.74.24 11 3.22 17.27 5.36 11.3 16.86 21 28.04 23.64 6.74 1.6 16.7 1.2 23.58-.92zm-26.43-6.28c-9.83-4.14-15.02-8.84-19.57-17.7-2.56-5-2.82-6.45-2.82-16 0-9.47.28-11.06 2.8-16.2 3.63-7.4 11.9-14.98 19.46-17.82 4.8-1.8 7.3-2.1 15.24-1.8 8.48.36 10.18.76 15.77 3.76 7.5 4 12.53 9.32 16.1 16.94 2.24 4.83 2.6 6.96 2.6 15.12 0 8.2-.36 10.28-2.65 15.2-3.4 7.3-10.38 14.25-17.62 17.58-8.33 3.83-21.42 4.25-29.3.92zm28.24-8.3c3.4-1.7 7.68-6.83 8.52-10.17.4-1.65.06-3.65-.95-5.43-1.3-2.25-1.34-2.8-.25-2.8.75 0 2.53-1.4 3.95-3.08 4.57-5.42 3-14.88-3.35-20.22-1.77-1.48-4.1-2.7-5.2-2.7-3.02 0-5.86 1.86-5.86 3.85 0 2.43 5.7 19.06 7.1 20.77.9 1.07.8 1.38-.34 1.38-2.3 0-18.2 12.26-18.6 14.32-.42 2.27 2.34 5.44 5.2 5.96 2.74.5 6.44-.2 9.77-1.9zm-18.36.04c4.34-3.04 2.95-5.93-5.96-12.45-10.8-7.92-14.82-7.87-14.82.16 0 9.05 13.78 17.2 20.78 12.28zm9.15-12.9c5.03-2.6 8.06-7.18 8.06-12.17 0-5.67-2.03-9.6-6.34-12.27-6.93-4.3-16.08-1.57-19.96 5.92-5.76 11.12 7.16 24.24 18.23 18.5zm-11.48-7c-5.16-5.15-1.44-13.54 6-13.54 4.85 0 7.54 2.85 7.54 8 0 5.14-2.7 8-7.54 8-2.43 0-4.32-.77-6-2.46zm-11.75-5.62c5.6-14.12 5.44-18.14-.68-18.74-4.12-.4-8.3 3.3-10.64 9.45-2.94 7.7.5 15.86 6.4 15.18 2.25-.25 3.07-1.24 4.9-5.88zm28.36-16.96c3.05-1.63 2.5-6.3-1.1-9.33-5.98-5.04-15.14-4.66-20.65.85-3.86 3.86-4.03 4.8-1.32 7.52 1.72 1.72 3.34 2 11.57 2 5.26 0 10.43-.47 11.5-1.04zm110.3 54.7c8.98-4.44 15.56-11.18 19.95-20.44 2.98-6.3 3.18-7.43 3.18-17.72 0-10-.25-11.5-2.8-16.7-5.36-10.93-15.32-19.67-26.55-23.3-4-1.3-7.67-1.63-14.6-1.33-7.97.35-10.16.86-15.97 3.72-17.03 8.37-26.94 27.1-23.7 44.73 1.56 8.4 5.04 15.28 10.97 21.64 9.54 10.23 18.7 13.95 32.94 13.38 8.24-.33 10.1-.78 16.6-4zm-30.87-3.4c-14.65-5.26-24.5-19.27-24.5-34.87 0-12.4 7.7-25.1 19-31.32 6.35-3.5 6.76-3.58 17.5-3.58 10 0 11.5.25 16.67 2.78 7.2 3.54 13 9.35 16.55 16.55 3.88 7.9 4.46 20.98 1.3 29.42-2.84 7.55-10.14 15.5-17.68 19.23-7.6 3.77-20.98 4.6-28.84 1.77zm24.5-7.82c7.75-2.22 13.43-12.05 10.05-17.4-.66-1.06-.15-1.9 1.97-3.2 6.04-3.67 6.1-14.3.13-20.7-4.88-5.22-11.2-5.32-11.97-.18-.44 2.97 4.55 18.56 6.45 20.14 1.27 1.05 1.06 1.4-1.44 2.47-4.18 1.75-17.18 11.37-17.18 12.7 0 .62-1.46-.25-3.25-1.93-6.33-5.96-14.42-11.34-17.04-11.34-4.93 0-6.22 6.44-2.42 12.1 4.8 7.1 14.8 10.04 19.4 5.72 2.14-2 2.44-2.04 3.58-.54.68.9 2.37 2.08 3.74 2.6 2.5.97 3.24.93 8-.44zm-6.07-14.2c10.1-5.15 10.54-18.2.82-24.3-6.12-3.85-15.25-1.36-19.17 5.2-2.34 3.92-2.05 11 .57 14.34 4.94 6.27 11.42 8 17.77 4.77zm-11.3-6.3c-3.36-2.66-3.7-8.88-.64-11.94 1.32-1.32 3.34-2 5.93-2 7.25 0 10.74 8.4 5.6 13.54-3.03 3.04-7.34 3.2-10.9.4zm-14.26-2.2c.78-1.23 2.67-6.15 4.2-10.92 2.33-7.25 2.57-8.94 1.48-10.25-1.67-2.02-6.97-2.02-9.85 0-5.78 4.05-8.1 15.74-4.14 20.8 2.58 3.27 6.37 3.45 8.3.38zm31.1-21.72c4.05-4.47-3.58-11.94-12.26-12-6.9-.05-13.22 4.56-13.22 9.65 0 3.43 2.64 4.27 13.6 4.3 8.8.02 10.32-.22 11.88-1.95zm-61.48 6.5c2.65-12.76 12.78-26.46 24-32.44l6.1-3.24-5.28-2.67c-11.56-5.85-21.9-19.75-24.9-33.46l-1.25-5.78-1.8 7.1c-1 3.9-3.06 9.43-4.6 12.27-3.67 6.86-13.57 16.67-20.06 19.9l-5.23 2.6 4.63 2.25c11.5 5.57 22.46 19.94 25.48 33.43.67 3.04 1.35 5.52 1.5 5.52.15 0 .78-2.46 1.4-5.47zM138.5 217.6c22.3-5.93 36.48-28.98 31-50.35-2.28-8.92-5.1-13.87-11.5-20.27-10.22-10.2-24.16-14.46-37.85-11.6-9.07 1.88-14.35 4.62-20.94 10.85-9.85 9.33-13.87 19.5-13.14 33.33.35 6.74 1.03 9.45 3.68 14.84 9.17 18.63 29.54 28.32 48.77 23.2zm-21.77-6.17c-10.37-3.2-18.8-11.36-22.88-22.15-3.1-8.24-2.53-20.62 1.34-28.52 13.26-27.12 52.46-27.24 65.76-.2 9.98 20.26-.6 44.7-22.03 50.87-6.63 1.9-16 1.92-22.2 0zm7.9-9c4.98-3.47 2.56-7.15-10.23-15.56-5.72-3.76-6.3-4.44-5.35-6.23 1.66-3.1 5.78-16.86 5.8-19.36 0-1.2-.88-2.7-1.97-3.27-6.77-3.62-17.15 9.42-14.48 18.2 1 3.3 4.5 6.8 6.8 6.8 1.85 0 1.87.1.32 1.83-.9 1-1.66 3.44-1.66 5.42 0 8.77 13.96 16.97 20.78 12.2zm21.02-2.13c2.15-1.73 4.32-4.7 5.15-7.04 1.28-3.65 1.26-4.3-.28-6.66-2.33-3.56-4.36-3.28-11.25 1.55-11.7 8.22-13.57 11.17-9.16 14.36 3.52 2.55 10.97 1.5 15.55-2.2zm-12.46-10.67c5.35-2.23 8.66-7 8.66-12.46 0-9.2-6.17-14.8-15.35-13.9-4.15.4-5.57 1.08-8.27 4.02-4.46 4.86-5.25 9.7-2.5 15.38 1.63 3.33 3.2 4.9 6.4 6.35 5.07 2.3 6.77 2.4 11.06.6zm-9.34-5.92c-1.6-.8-2.83-2.57-3.43-5-1.34-5.4 1.5-9.08 7.38-9.5 5.74-.43 8.06 1.7 8.06 7.38 0 6.83-5.78 10.26-12 7.13zm30.08-2.62c5.03-5.04 3.55-14.85-3.08-20.43-2.3-1.95-4.16-2.67-6.3-2.45-5.24.52-5.52 2.6-1.86 13.75 4.13 12.6 6.14 14.23 11.24 9.13zm-15.64-21.06c4.97-1.9 2.72-8.37-4.12-11.9-3.17-1.63-9.98-1.38-13.96.5-5.9 2.8-7.77 9.84-3.12 11.7 2.3.94 18.58.7 21.2-.3zm103.1 57.44c12.3-3.2 22.1-11.43 27.85-23.46 2.9-6.06 3.1-7.25 3.1-17.5 0-9.87-.27-11.6-2.7-16.78-5.82-12.43-18.85-22.34-32.47-24.7-12.6-2.2-27.1 2.63-36.65 12.2-16.2 16.2-16.52 41.43-.73 58.12 11.02 11.65 26.26 16.1 41.6 12.12zm-21.9-6.04c-9.92-3.16-17.8-10.2-22.32-19.92-2.4-5.15-2.8-7.27-2.8-15.02-.02-8.2.28-9.64 3.26-15.7 6.5-13.22 17.75-20.03 33.22-20.15 7.5-.05 9.3.3 15.15 3.06 7.84 3.65 13.7 9.18 17.58 16.5 2.56 4.87 2.78 6.2 2.78 16.3 0 12.54-1.48 16.8-8.65 24.93-6.04 6.87-14.97 10.86-25.18 11.24-5.4.2-9.8-.22-13.03-1.25zm7.8-9.54l2.68-2.12 2.26 2.12c6.58 6.18 21.62-2.07 21.62-11.86 0-2.15-.5-4.2-1.08-4.57-.65-.4.14-1.42 1.94-2.5 6.46-3.94 6.28-15-.35-21.64-4.93-4.93-11.53-4.27-11.5 1.15.03 3.28 4.97 17.87 6.7 19.8 1.48 1.6 1.45 1.75-.34 1.75-2.23 0-18.37 11.5-18.37 13.1 0 .58-1.27-.22-2.83-1.78s-6.3-5.17-10.5-8.02c-4.22-2.85-7.25-5.44-6.73-5.76.52-.33 2.43-5.12 4.25-10.66l3.3-10.07-2.36-1.9c-3.02-2.44-4.12-2.4-8.14.35-4.38 3-7 8.16-7 13.85 0 5.23 2.87 9.9 6.1 9.9 1.85 0 1.87.12.3 2.5-3.24 4.97.48 12.74 7.84 16.4 5.4 2.66 8.78 2.66 12.2-.02zm8.55-12.5c10.32-4.12 11.84-16.3 2.97-23.76-5.93-5-16.8-2.72-20.4 4.28-3.6 6.93-.63 15.8 6.46 19.35 4.3 2.16 5.87 2.18 10.97.13zm-10.24-6.36c-3.46-2.74-3.85-8.9-.74-12.02 2.02-2.02 8.33-2.76 10.6-1.24 1.73 1.16 3.4 4.87 3.4 7.56 0 6.2-8.15 9.7-13.25 5.7zm16.3-23.85c4.7-3.8-.94-10.96-9.36-11.9-5.85-.66-8.8.1-12.6 3.32-3.66 3.07-4 6.63-.86 8.84 3.4 2.4 19.78 2.2 22.8-.27zm-55.55-8c3.82-6.98 14-16.4 21.5-19.88 3.3-1.55 5.97-3.03 5.95-3.3-.03-.28-3.24-2.02-7.13-3.88-12.8-6.12-22.7-18.9-25.88-33.4l-1.27-5.8-1.8 7.1c-1 3.9-3.06 9.43-4.6 12.27-4.05 7.56-13.53 16.6-21.52 20.5l-6.75 3.33 6.93 3.46c12.67 6.33 23.54 20.38 26.26 33.93l1.14 5.66 2.13-7.36c1.18-4.04 3.45-9.74 5.05-12.66zm-48.02-30.7c8.26-2.16 14.75-5.96 20.43-11.96 12.93-13.66 15.55-31.94 6.98-48.74-3.07-6-12.48-14.97-18.93-18.02-17.53-8.27-36.36-4.6-49.74 9.7-8.43 9.02-10.63 14.9-10.67 28.58-.04 9.95.15 10.9 3.3 17.33 9.18 18.6 29.25 28.16 48.63 23.12zm-18.97-5.35c-10.8-2.84-19.02-9.38-23.7-18.9-3.06-6.2-3.3-7.4-3.3-16.7 0-8.75.34-10.74 2.65-15.67 6.9-14.7 23.8-23.1 40.13-19.88 7.88 1.55 12.8 4.1 18.74 9.64 12.5 11.7 14.47 33.76 4.2 47.23-4.8 6.28-6.67 7.8-14.13 11.4-5.15 2.5-7.93 3.18-14 3.4-4.17.15-8.93-.07-10.58-.5zm6.14-10.24c3.1-2.58 1.15-6.15-6.64-12.1-4.12-3.13-8.32-6-9.32-6.33-2.8-.97-5.68 2.27-5.68 6.36 0 9.37 14.9 17.68 21.64 12.08zm17.02.48c6.96-3.3 11.34-12.5 7.82-16.4-.98-1.07-2.54-1.96-3.46-1.96-3.8 0-19.02 12.02-19.02 15.02 0 4.54 8.2 6.4 14.66 3.34zm-10.5-12.4c2.07-.56 5.03-2.55 6.76-4.52 2.5-2.86 3.08-4.38 3.08-8.23 0-8.72-5.56-14.2-14.4-14.2-3.62 0-5.23.6-8 3.05-4.03 3.53-6.04 8.66-5.1 12.98.87 3.9 5.08 8.87 8.95 10.56 3.75 1.62 4.16 1.64 8.73.37zm-7.8-6.13c-2.3-1.1-4.36-4.8-4.36-7.74 0-1 .93-3.02 2.07-4.47 1.67-2.1 2.92-2.63 6.35-2.63 5.42 0 7.58 2.2 7.58 7.75 0 6.48-5.7 9.95-11.63 7.08zm29.72-2.75c3.6-3.62 3.93-9.36.87-15.68-2.47-5.13-6-7.63-10.14-7.2-5.2.5-5.57 2.55-2.3 12.76C145.1 82.6 147.68 87 149.97 87c.57 0 2.35-1.32 3.96-2.92zm-45.7.05c1.86-2.05 6.58-16.28 6.6-19.9.02-1.48-.88-2.68-2.55-3.44-3.4-1.57-8.63 1.16-11.66 6.06-3.17 5.13-3.1 13.1.15 16.56 2.86 3.05 5.13 3.27 7.44.7zm30.06-21.1c3.66-1.4 3.47-5.78-.42-9.5-5.84-5.6-19.05-4.24-22.44 2.33-1.8 3.5-1.2 5.95 1.8 7.16 2.94 1.18 17.94 1.2 21.06 0zm101.45 57.9c12.56-2.9 23.88-12 29.38-23.62 3.03-6.38 3.23-7.48 3.23-17.82 0-10.4-.18-11.4-3.23-17.6-8.37-17-27.2-27-44.95-23.92-9.4 1.63-16.9 5.47-23.38 11.97-16.48 16.5-16.9 41.6-1 58.4 10.35 10.96 25.88 15.85 39.95 12.6zm-19.4-6.27c-10.94-3.65-18.6-10.3-23.17-20.16-2.4-5.15-2.8-7.28-2.8-15.02-.02-8.2.28-9.64 3.26-15.7 10.73-21.78 39.2-27.34 57.93-11.3 2.16 1.85 5.48 6.2 7.36 9.7 3.32 6.1 3.43 6.68 3.43 17.32 0 9.52-.32 11.63-2.35 15.7-6.25 12.64-17.16 19.74-31.33 20.4-5.27.25-9.77-.1-12.3-.94zm6.94-9.78l2.68-2.12 2.26 2.12c4.5 4.23 12.6 2.32 18.47-4.37 3.33-3.76 4.35-9.9 2.05-12.22-.82-.82-.3-1.53 1.96-2.7 6.42-3.32 6.24-14.7-.33-21.27-4.78-4.78-11.5-4.46-11.5.55 0 3.55 4.87 18.2 6.78 20.4 1.38 1.6 1.34 1.75-.42 1.75-2.36 0-18.36 11.55-18.4 13.27 0 .68-.8.25-1.74-.95-2-2.5-13.25-10.9-16.76-12.5-2.1-.98-2.22-1.3-1-3.2.75-1.17 2.6-6.13 4.1-11.03l2.75-8.9-2.36-1.92c-2.8-2.26-6.3-1.7-9.86 1.54-5.56 5.1-6.98 15.9-2.66 20.22 1.35 1.35 3.16 2.46 4.02 2.46 1.4 0 1.4.26-.07 2.5-2.27 3.46-1.15 8.36 2.85 12.47 5.93 6.08 12.5 7.58 17.17 3.9zm8.55-12.5c10.32-4.12 11.84-16.3 2.97-23.76-5.76-4.85-15.94-2.98-20 3.68-4.6 7.55-.66 18.17 7.68 20.67 4.16 1.24 4.9 1.2 9.35-.6zm-8-5.05c-4.97-1.96-6.68-8.47-3.43-13.1 2.2-3.13 9.5-3.15 12.4-.04 2.52 2.7 2.66 7.83.3 10.68-1.83 2.2-6.65 3.47-9.26 2.45zm14.6-25.48c2.3-2.33.68-6.72-3.56-9.6-3.7-2.5-11.56-3.08-15.35-1.13-3.85 2-6.7 5.16-6.7 7.5 0 4.26 3.5 5.53 14.23 5.2 7.4-.25 10.1-.72 11.36-1.97z"/><path fill="#0f1938" d="M57.23 443.52c-24.3-5.33-44.6-23.14-53.2-46.7l-2.67-7.32L1.08 226C.78 43.26.33 55.26 7.88 40.2 16.86 22.36 33 9.26 53.9 2.85l7.48-2.3 112.5-.32C251.28 0 288.96.25 294.68 1c25.32 3.33 46.22 18.23 56.8 40.5 6.82 14.36 6.38 2.03 6.38 181.05 0 158.46-.04 162.3-1.98 169.9-3.07 11.97-8.22 20.7-18.02 30.55-9.54 9.57-17.66 14.74-29.5 18.77l-8 2.73-118.5.18c-96.05.15-119.66-.07-124.63-1.16zm246.13-3.8c3.3-.96 9.83-3.6 14.5-5.9 11.98-5.87 23.92-17.8 29.85-29.82 7.57-15.34 7.13-4.14 7.13-181 0-177.7.5-165.57-7.52-181.8-7.84-15.92-21.82-27.8-39.94-33.98l-8-2.72h-119.5c-113.08 0-119.82.1-125.5 1.83-20 6.12-34.83 18.44-43.52 36.17-7.44 15.17-7.07 5.05-6.76 184l.28 160 2.34 7c6.75 20.2 22.88 37.03 42.2 44.06 11.68 4.25 13.1 4.3 133.46 4.1 106.06-.18 115.47-.33 121-1.94zm-186.1-24.14c-20.4-4.65-36.32-21.8-39.52-42.58-3-19.57 7-40.16 24.5-50.4 3.64-2.12 6.62-3.97 6.62-4.1 0-.13-2.98-1.98-6.62-4.1-17.7-10.36-27.75-31.47-24.4-51.25 2.57-15.23 13.1-30.1 25.9-36.6l5.3-2.67-5.32-2.7c-13.05-6.6-23.78-22.2-26.04-37.84-1.35-9.38.43-20.22 4.83-29.28 3.8-7.83 15.16-18.98 23.1-22.66 3.43-1.6 6.24-3.13 6.23-3.4 0-.28-2.37-1.53-5.27-2.78-12.17-5.26-22.27-16.55-26.82-29.96-3.1-9.13-3.08-23.05.03-31.76 12.44-34.8 56.14-45.86 82.9-21C169.8 49.13 174.6 57 177.4 66.8l2.2 7.63 1.2-5.7c3.73-18.04 18.8-33.33 37.67-38.24 28.68-7.46 58.28 12.46 62.56 42.1 3.05 21.2-8.32 42.8-27.46 52.2l-6.75 3.33 7 3.5c19.38 9.7 30.86 32.2 27.1 53.18-2.7 15.16-13.4 30.2-25.95 36.44l-5.2 2.6 4.73 2.32c6 2.97 15.25 11.48 19.24 17.7 5.54 8.63 7.4 15.4 7.42 27.14 0 8.64-.4 11.56-2.3 16.5-4.78 12.3-12.46 21.33-23.46 27.54-3.07 1.73-5.58 3.32-5.58 3.54 0 .2 2.2 1.5 4.86 2.85 10.4 5.27 20 16.4 24.3 28.15 3.05 8.4 3.05 24.44 0 32.84-6.6 18.08-22.52 30.97-41.7 33.74-25.47 3.68-49.9-13.24-56.43-39.1l-1.66-6.55-1.18 5.85c-2.56 12.77-12.3 26.58-23.28 32.97-11.02 6.42-25.9 8.9-37.5 6.26zm28.83-11.3c32.92-15.46 32.92-61 0-76.6-6.32-2.98-7.42-3.18-17.74-3.15-9.12.02-12 .42-16.82 2.34-8.18 3.27-17.73 12.4-21.93 21-3.08 6.3-3.24 7.2-3.24 18.13 0 10.9.17 11.83 3.2 18 5.14 10.48 13.44 18 24.36 22.03 4.4 1.62 7.38 1.95 15.44 1.7 8.8-.25 10.82-.67 16.73-3.44zm-31.42-4.6c-15.2-6.42-23.44-19.32-22.64-35.5.67-13.7 8.36-25.26 20.63-31 4.98-2.35 6.94-2.68 15.7-2.67 12.06 0 16.76 1.8 24.87 9.47 7.88 7.46 11.1 15.02 11.1 26.03 0 11-3.22 18.57-11.1 26.03-7.53 7.1-12.83 9.27-23.88 9.7-7.73.3-9.8 0-14.68-2.06zm30.28-9.14c5.98-3.94 8.66-11.94 5.25-15.7-1.53-1.72-1.53-1.84.05-1.84.94 0 2.8-1.1 4.16-2.46 1.98-1.97 2.46-3.46 2.46-7.66 0-9.4-6.76-17.16-13.48-15.48-2.26.57-2.52.34-2.52-2.3 0-3.47-4.3-7.57-9.07-8.62-8-1.75-17.1 2.5-17.32 8.08-.1 2.8-.3 2.92-4.2 2.6-3.48-.3-4.55.13-7.23 2.8-5.96 5.96-6.7 16.42-1.47 20.96 2.45 2.13 2.74 3 2.44 7.28-.28 4 .1 5.46 2.2 8.2 3.12 4.1 8.2 6.6 13.35 6.6 5.22 0 7.55-1.8 7.13-5.54-.26-2.3-1.87-4.1-7.34-8.22-3.85-2.9-8.25-5.56-9.78-5.9-2.5-.54-2.64-.77-1.32-2.23 1.64-1.8 6.57-16.48 6.6-19.6 0-1.9.67-2 12.5-2 10.75 0 12.5.22 12.5 1.6 0 2.87 5.2 18.36 6.78 20.15 1.3 1.5 1.32 1.75.07 1.75-1.67 0-14.43 8.78-17.2 11.85-2.34 2.58-1.58 6.37 1.6 7.96 3.16 1.6 9.6.55 13.86-2.26zm-10.14-12.02c4.88-2.52 7.04-6.2 7.04-11.9 0-8.78-5.4-14.62-13.5-14.62-9.58 0-16.52 9.34-13.57 18.27 1.1 3.4 5.22 8 8.06 9.02 2.96 1.07 9.15.67 11.96-.78zm-10.73-5.2c-2.1-.83-4.45-6.35-3.8-8.9 2.3-9.2 15.56-7.86 15.56 1.58 0 2.97-.6 4.33-2.63 5.93-2.5 1.95-6.3 2.54-9.14 1.4zm125.1 30.83c8.54-4.2 15.6-11.26 19.8-19.77 2.82-5.74 3.34-7.97 3.7-15.9.48-11.34-1.2-17.82-6.92-26.36-14.4-21.56-46.7-24.5-65.25-5.9-22.4 22.4-13.57 59.2 16.82 70.03 3.83 1.37 7.37 1.72 15.07 1.5 9.05-.26 10.73-.62 16.78-3.6zm-30-3.53c-9.28-3.03-17.65-10.75-22.16-20.45-2.2-4.73-2.63-7.1-2.63-14.17 0-7.1.44-9.44 2.66-14.22 3.5-7.54 10.4-14.74 17.52-18.35 5.24-2.64 6.73-2.92 15.78-2.92 8.73 0 10.72.33 15.62 2.63 7.6 3.57 12.92 8.6 16.98 16.1 3.25 6 3.4 6.72 3.4 16.77 0 9.55-.25 10.97-2.78 15.78-3.98 7.55-8.76 12.43-15.95 16.27-5.58 3-7.26 3.4-15.27 3.64-5.64.17-10.56-.23-13.17-1.08zm25.2-8.5c5.96-2.7 9.46-7.33 9.46-12.5 0-2.32-.54-4.76-1.2-5.42-.93-.93-.86-1.2.33-1.2 2.22 0 5.55-4.03 6.3-7.67 1.02-4.74-1.16-11.25-5.04-15.13-2.86-2.86-3.98-3.35-6.9-3-3.13.35-3.5.15-3.5-1.98 0-5.77-9.77-10.53-17.93-8.74-4.65 1.03-9.07 5.16-9.07 8.5 0 4.6 1.72 5.17 14.43 4.83l11.57-.3v2.5c0 2.83 4.75 17.85 6.25 19.75.68.86.6 1.25-.23 1.25-1.73 0-16.8 10.76-17.95 12.8-.9 1.6-1 1.58-1.63-.06-.98-2.54-15.83-12.74-18.6-12.77-2.06-.03-2.14-.16-.63-1.04 1-.58 3.05-5.23 4.9-11.08 3.62-11.4 3.32-13.16-2.3-13.65-6.62-.57-11.84 6.18-11.84 15.33 0 5.54 1.3 8.25 4.55 9.5 2.17.8 2.32 1.2 1.33 3.36-2.37 5.2 1.7 12.83 8.82 16.48 3.48 1.8 9.74 1.35 12.57-.87 2.17-1.7 2.62-1.76 3.12-.47 1.34 3.5 7.34 4.23 13.16 1.6zm-6.6-13.95c11.46-6.14 7.86-24.43-5.1-25.9-9.06-1-15.83 4.77-15.83 13.53 0 2.36.7 5.65 1.54 7.3 3.32 6.4 12.46 8.8 19.4 5.07zm-12.3-6.24c-2.04-1.6-2.64-2.96-2.64-5.93 0-7.2 8.45-10.65 13.55-5.55 7.24 7.23-2.83 17.82-10.9 11.48zm-39.13-30.8c3.84-7 11.6-14.74 19.34-19.26l6.22-3.64-4.28-2.22c-13.7-7.08-22.3-17.98-26.62-33.68l-1.88-6.82-.76 4.5c-2.48 14.67-12.83 28.6-26.57 35.72l-5.04 2.6 5.8 3.1c12.26 6.52 22.76 20.56 25.47 34.07l1.15 5.7 2.13-7.36c1.18-4.04 3.46-9.76 5.07-12.7zm-39.22-32.43c11.64-5.75 18.92-14.72 22.22-27.38 5.66-21.74-6.64-43.8-28.35-50.82-4.04-1.3-7.74-1.63-15.08-1.34-8.55.35-10.55.8-16.44 3.7-8.54 4.2-15.6 11.26-19.8 19.84-3.18 6.43-3.34 7.28-3.3 17.78.03 13.68 2.16 19.84 9.74 28.14 9.9 10.83 18.8 14.54 33.83 14.1 8.8-.26 10.26-.6 17.18-4.02zm-30.03-3.1c-25.15-8.2-33.6-39.73-15.9-59.32 2-2.2 6.43-5.5 9.87-7.33 5.38-2.88 7.47-3.4 14.9-3.77 10.08-.5 16.1 1.1 23.18 6.14 18.44 13.1 20.77 39.4 4.86 54.97-7.32 7.16-14 10.02-24.18 10.38-5.32.2-10.1-.22-12.74-1.08zm25.33-8.64c6.2-2.34 10.93-11.34 8.62-16.4-.9-2-.7-2.47 1.4-3.42 7.03-3.2 5.18-19.6-2.68-23.68-3.7-1.9-7.85-1.58-9.3.72-1.15 1.86 2.26 14.74 5.44 20.48 1.72 3.1 1.7 3.17-.4 3.72-2.65.68-15.85 10.2-17.02 12.27-1.4 2.5.15 6.1 3.1 7.2 2.7 1 6.7.67 10.83-.9zm-17.16-.88c3.02-3.35 1.57-6.12-6.44-12.3-7.85-6.04-13.1-7.58-14.4-4.2-1.17 3.06-.57 7.95 1.36 11.12 3.9 6.4 15.62 9.63 19.47 5.38zm9.07-12.52c7.37-3.08 10.2-15.18 5-21.35-5.17-6.15-15.04-6.94-20.56-1.65-11.8 11.3.4 29.34 15.57 23zm-10.2-5.75c-3.32-1.6-4.84-6.1-3.3-9.84 3.45-8.32 15-5.8 15 3.28 0 6-5.95 9.34-11.7 6.57zm-15.56-2.05c1.36-1.72 6.26-16.8 6.26-19.25 0-1.9.56-2 11.54-1.66 12.42.36 14.46-.26 14.46-4.38 0-3.86-1.08-5.46-5.08-7.5-4.46-2.28-10.62-2.53-15.2-.62-4.1 1.72-5.98 4-6.1 7.44-.1 2.57-.34 2.7-4.37 2.37-3.7-.3-4.62.05-7.23 2.84-5.2 5.55-6.4 15.7-2.4 20.12 1.93 2.14 6.66 2.5 8.14.63zm135.58 35.23c10.98-3.4 20.2-11.67 25.57-22.98 2.35-4.94 2.6-6.67 2.6-17 0-10.86-.17-11.88-3.18-18.24-4.08-8.6-10.93-15.47-19.82-19.84-6.7-3.3-7.37-3.42-18.47-3.42-10.87 0-11.9.18-18.24 3.18-21.77 10.3-30.7 35.6-20.17 57.14 4.98 10.18 16.54 19.6 27.14 22.1 6.85 1.6 17.67 1.2 24.58-.94zm-26.43-6.28c-10.2-4.3-16.32-10.1-20.77-19.66-2.13-4.6-2.57-7-2.57-14.04.03-11.35 3.26-18.75 11.58-26.45 8.2-7.6 14.6-9.86 26.38-9.35 7.9.34 9.77.8 15.32 3.77 7.04 3.77 12.8 9.7 16.33 16.8 2 4.05 2.35 6.25 2.35 15.23 0 10.07-.13 10.76-3.42 16.82-6.52 12.04-16.88 18.35-31.07 18.9-7.18.3-9.37-.02-14.1-2.02zm28.3-8.32c4.38-2.23 7.8-7.52 7.8-12.03 0-2.17-.53-4.5-1.2-5.15-.92-.93-.85-1.2.34-1.2 2.22 0 5.55-4.03 6.3-7.67 1.02-4.75-1.16-11.25-5.06-15.15-3.02-3.02-3.9-3.38-7.28-2.92-3.4.46-3.8.3-3.36-1.37 1.2-4.57-5.9-9.9-13.14-9.9-7.2 0-13.6 4.3-13.6 9.14 0 4.25 2.66 5.08 15.1 4.7l10.9-.34v2.57c0 2.65 3.9 15 5.94 18.8.9 1.7.85 2.13-.23 2.13-1.93 0-17.7 11.73-17.8 13.24-.05.93-.2.9-.6-.1-.3-.73-4.17-4-8.6-7.24-8.07-5.9-12.02-7.2-14.5-4.7-3.16 3.15-.02 11.66 5.93 16.07 4.05 3 11.36 3.48 14.75.97 2.65-1.96 2.8-1.97 3.9-.2 1.96 3.12 8.64 3.3 14.4.34zM237.63 283c12.45-7.6 7.46-26-7.04-26-8.05 0-13.7 5.77-13.7 14 0 11.02 11.47 17.66 20.74 12zm-12.3-6.46c-3.44-3.44-3.36-8.7.18-11.47 3.56-2.8 7.87-2.65 10.9.38 3.3 3.28 3.22 7.52-.17 10.9-3.4 3.4-7.63 3.47-10.9.2zm-10.54-10.42c3.9-11.8 3.6-13.43-2.38-13.94-6.34-.53-11.54 5.92-11.54 14.33 0 7.45 2.38 10.7 7.5 10.26 2.87-.25 3.15-.7 6.42-10.64zm-29.37-18.48c3.67-7.43 12.26-16.38 19.84-20.66l5.88-3.32-4.6-2.33c-2.52-1.28-7.52-5.08-11.1-8.43-7.33-6.85-12.6-16.1-14.64-25.64l-1.23-5.76-1.7 6.56c-3.5 13.64-13.17 26.4-24.8 32.76l-5.34 2.9 5.84 3.3c12.03 6.78 21.8 20.02 24.53 33.22l1.24 5.97 1.62-6.34c.9-3.5 2.9-9 4.5-12.22zm-41.54-31.54c11.08-4.3 19.66-12.83 24.18-24.1 1.74-4.34 2.22-7.6 2.26-15.5.05-9.33-.17-10.48-3.33-17.23-8.05-17.2-26.73-27.3-45-24.37-14.36 2.32-26.47 11.23-32.37 23.84-5.82 12.44-4.83 29.07 2.4 40.43 8.4 13.22 22 20.2 37.86 19.45 5.44-.25 10.5-1.17 14-2.52zm-25.5-4.44c-7.2-2.4-11.97-5.4-16.84-10.6-7.4-7.9-9.16-12.6-9.16-24.56 0-9.5.18-10.32 3.42-16.3 6.95-12.83 18-19.44 32.6-19.55 6.97-.04 8.9.36 14.7 3.07 8.2 3.84 14.54 10 18.34 17.84 2.5 5.17 2.88 7.1 2.9 14.96.04 8.2-.26 9.63-3.2 15.62-6.16 12.5-17.5 19.96-31.24 20.53-4.43.18-9.16-.23-11.52-1zm6.34-9.26c1.7-1.18 2.2-2.4 1.97-4.67-.26-2.63-1.62-3.97-9.45-9.3-5.03-3.44-8.8-6.63-8.37-7.1 1.33-1.45 6-16.72 6-19.6 0-2.02-.7-3.1-2.6-3.96-6.26-2.86-15 7.05-14.08 15.96.6 5.76 3.04 9.26 6.46 9.3 2.34.03 2.48.18.98 1.05-2.44 1.43-2.3 8.28.3 12.46 3.77 6.13 13.9 9.3 18.8 5.86zm19.24-.68c6.44-4.34 9.4-11.07 6.92-15.72-.8-1.5-.6-2 1-2.5 4.9-1.56 6.5-11.62 3-18.53-2.52-4.92-5.9-7.2-10.08-6.8-5.32.54-5.74 2.57-2.54 12.54 1.56 4.84 3.47 9.8 4.25 11.05 1.26 2.02 1.23 2.25-.37 2.28-3.02.04-17.73 11.3-18.1 13.85-.87 6.02 9.1 8.43 15.9 3.84zm-7.52-13.35c3.64-2.4 5.44-6.5 5.44-12.44 0-4.67-.37-5.54-3.88-9.05-3.55-3.55-4.35-3.88-9.25-3.88-9.56 0-15.74 6.5-14.55 15.3 1.4 10.53 13.32 15.92 22.24 10.07zm-13.64-6.3c-2.65-2.65-3.05-3.66-2.53-6.36.8-4.13 3.95-6.7 8.22-6.7 4.44 0 7.4 2.95 7.4 7.4 0 4.26-2.58 7.4-6.72 8.2-2.7.53-3.7.14-6.37-2.52zm16.15-22.1c4.06-2.18 1.84-9.28-3.62-11.56-8.28-3.45-18.6-.46-20.75 6.02-.83 2.5-.64 3.2 1.28 4.75 1.83 1.48 4.05 1.83 11.7 1.83 5.2 0 10.33-.47 11.4-1.04zm102.43 57.67c12.04-3.22 22.45-11.67 27.78-22.57 3.06-6.25 3.22-7.14 3.22-18.12 0-11.35-.07-11.7-3.76-19.17-12.6-25.46-46.46-31.34-67.26-11.67-16.94 16.03-17.62 43.32-1.48 59.9 10.72 11 26.9 15.54 41.5 11.64zm-21.2-6.1c-15.9-4.96-25.68-18.28-25.73-35.04-.02-6.9.4-8.9 3.1-14.65 11.33-24.08 42.32-28.87 60.2-9.3 6.46 7.06 9.13 14.07 9.13 23.95 0 12.2-4.7 21.8-14.3 29.24-8.16 6.3-22.55 8.9-32.4 5.8zm7.7-9.54c2-2 2-2 4 0 4.35 4.34 15.26 1.58 19.75-5 2.4-3.5 3.1-10.37 1.18-11.55-.65-.4.14-1.42 1.94-2.5 6.5-3.97 6.28-15-.45-21.75-2.92-2.92-3.97-3.36-7.26-3.04-3.17.3-3.75.08-3.4-1.3 1.22-4.62-5.64-9.85-12.92-9.86-8.03 0-13.82 3.56-13.82 8.52 0 2.16-.34 2.43-2.4 1.9-3.66-.9-8.97 2.1-11.43 6.5-4.25 7.55-1.8 19.08 4.06 19.08 1.94 0 1.97.1.42 1.83-7.7 8.5 12.22 25.3 20.34 17.17zm.54-6.96c-1-1.1-5.36-4.37-9.7-7.27-5.7-3.8-7.68-5.67-7.2-6.77 2.43-5.6 6.34-18.8 6-20.23-.37-1.46-.12-1.57 1.6-.65 1.24.67 6.24.95 12.9.72l10.86-.37v2.5c0 3.5 4.86 17.74 6.66 19.54 1.3 1.33 1.26 1.5-.42 1.5-1.93 0-11.55 6.3-16.3 10.67-2.6 2.36-2.6 2.37-4.4.37zm10.05-6.5c8.24-5.4 8.37-18.46.22-23.57-2.6-1.65-4.52-2-9.1-1.7-4.9.3-6.3.85-8.9 3.45-4.06 4.07-5.06 11.8-2.2 17.1 3.52 6.54 13.56 8.92 19.98 4.7zm-11.27-4.55c-2.72-1.1-4.32-3.98-4.32-7.76 0-6.73 9.73-9.95 13.93-4.6 2.86 3.64 2.6 7-.86 10.44-3 3-4.98 3.44-8.76 1.9zm-41.9-30.4c4.1-8.42 13.63-17.74 22.4-21.95l7.12-3.4-6.72-3.3c-13.1-6.42-24.38-20.8-27.27-34.7l-1.17-5.7-2.17 7.47c-1.2 4.1-3.46 9.84-5.04 12.72-4.07 7.44-14.05 16.66-22.13 20.44l-6.7 3.13 3.88 1.52c14.8 5.75 27.34 20.66 30.6 36.4l1.22 5.97 1.55-6.38c.86-3.5 2.84-9 4.42-12.23zm-41.46-34.56c15.34-6.1 25.37-19.63 26.75-36.04 1.43-17.1-7.74-33.47-22.95-40.94-22.05-10.84-47.72-2.15-58.05 19.66-3 6.36-3.2 7.47-3.2 17.83 0 10.76.1 11.25 3.76 18.67 5.67 11.47 14.52 18.8 26.98 22.3 7.2 2.03 19.64 1.34 26.72-1.48zm-25.46-4.38c-7.23-2.4-11.98-5.4-16.84-10.6-7.4-7.9-9.16-12.6-9.16-24.56 0-9.1.27-10.53 2.96-15.84 1.7-3.35 5.2-7.9 8.25-10.68 18.6-17 47.9-10.7 58.5 12.6 1.77 3.9 2.24 6.77 2.26 13.94.03 8.2-.27 9.63-3.22 15.62-6.14 12.5-17.13 19.73-31.04 20.46-4.8.24-9.2-.1-11.7-.94zm6.28-9.22c1.4-.98 2.22-2.6 2.22-4.38 0-2.34-1.2-3.7-7.13-8.02-3.93-2.86-8.18-5.68-9.46-6.26-2.12-.97-2.2-1.28-1-3.67 2.56-5.07 5.73-16.07 5.4-18.8-.4-3.66-4.3-5.14-8.35-3.2-9.03 4.35-11.26 20.98-3.27 24.34 1.85.77 2.62 1.56 1.94 1.98-.63.38-1.14 2.68-1.14 5.1 0 3.54.64 5.13 3.23 8.1 5.3 6.02 12.85 8.1 17.54 4.82zm19.3-.72c6.5-4.37 9.4-11.07 6.88-15.8-.85-1.6-.62-2.12 1.4-3.04 9.68-4.4 3.5-25.6-7.2-24.68-5.57.48-6 2.44-2.78 12.5 1.56 4.84 3.47 9.8 4.25 11.05 1.27 2.03 1.23 2.25-.4 2.25-1 0-5.5 2.7-10.03 6.02-8.66 6.36-9.83 8.53-6.55 12.15 2.44 2.7 10.1 2.47 14.42-.45zm-9.4-12.66c5.16-2.34 7.32-6.22 7.32-13.13 0-4.67-.37-5.54-3.88-9.05-3.55-3.55-4.35-3.88-9.25-3.88-6.56 0-10.87 2.4-13.2 7.28-4.65 9.8 1.85 20.26 12.83 20.6 1.1.05 3.88-.78 6.2-1.82zm-9.32-5.03c-2.74-1.13-5.36-4.86-5.36-7.62 0-1.17.93-3.32 2.07-4.77 1.6-2.04 2.95-2.63 6-2.63 5 0 7.93 2.73 7.93 7.4 0 5.87-5.44 9.78-10.64 7.63zm13.08-24c1.84-.7 2.56-1.7 2.56-3.57 0-6.08-4.76-9.46-13.3-9.46-6.42 0-11.52 2.9-13 7.42-.84 2.5-.65 3.2 1.27 4.75 1.8 1.46 4.03 1.83 11.08 1.83 4.86 0 10-.44 11.4-.98zm103.03 57.44c12.4-3.23 22.47-11.52 28.2-23.22 2.6-5.3 2.83-6.66 2.83-17.3 0-11.33-.07-11.68-3.76-19.17-15.16-30.68-59.4-31.27-75.54-1-17.28 32.4 12.6 69.97 48.27 60.7zm-18.97-5.35c-15.47-4.06-26.23-16.48-28.1-32.43C193 72.1 199 57.94 207.43 51.5c16.14-12.3 36.95-10.57 50.45 4.2 6.85 7.5 9.25 14.37 8.82 25.3-.27 6.83-.88 9.6-3.12 14.16-5.9 12.03-17.88 19.9-31.1 20.45-3.92.18-8.47-.04-10.12-.48zm3.82-9.27c1.2-.63 2.47-1.6 2.8-2.12.37-.55 1.56-.05 2.76 1.15 4.47 4.46 15.3 1.8 19.87-4.88 2.4-3.5 3.1-10.37 1.18-11.55-.65-.4.12-1.4 1.9-2.48 6.5-3.96 6.35-15.5-.3-21.95-2.84-2.75-3.94-3.2-7.25-2.88-3.53.34-3.86.17-3.5-1.76.27-1.36-.63-3.32-2.46-5.36-6.58-7.37-24.3-4.13-24.3 4.45 0 2.24-.33 2.5-2.53 1.93-6.65-1.66-13.48 6.1-13.48 15.3 0 5.72 2.77 10.3 6.23 10.3 1.94 0 1.97.1.42 1.83-4.04 4.46-.32 13.06 7.3 16.92 4.98 2.5 8.1 2.8 11.36 1.1zm3.2-6.8C228.3 97.23 212.56 86 211.14 86c-1.04 0-1-.47.15-2.25 2.1-3.2 6.83-18.67 6.2-20.27-.4-1.07.1-1.13 2.5-.3 1.63.58 7.45.87 12.93.65l9.96-.4v2.53c0 3.5 4.85 17.74 6.66 19.55 1.3 1.33 1.23 1.5-.75 1.5-2.13 0-10.45 5.56-16.05 10.73-1.75 1.6-2.87 2.06-3.33 1.32zm9.28-7.66c3.3-2.17 6.2-7.38 6.2-11.18 0-8.76-5.7-14.2-14.87-14.22-4.9 0-5.7.33-9.26 3.88-3.5 3.52-3.88 4.37-3.88 9.1 0 6.55 2.2 10.4 7.47 13.07 4.5 2.27 10.26 2 14.33-.66zm-11.3-4.56c-3.12-1.7-4.5-3.95-4.5-7.34 0-7.15 9.52-10.47 13.93-4.87 2.86 3.65 2.6 7-.86 10.45-3.1 3.1-5.32 3.55-8.58 1.76z"/><path d="M57.23 443.52c-24.3-5.33-44.6-23.14-53.2-46.7l-2.67-7.32L1.08 226C.78 43.26.33 55.26 7.88 40.2 16.86 22.36 33 9.26 53.9 2.85l7.48-2.3 112.5-.32C251.28 0 288.96.25 294.68 1c25.32 3.33 46.22 18.23 56.8 40.5 6.82 14.36 6.38 2.03 6.38 181.05 0 158.46-.04 162.3-1.98 169.9-3.07 11.97-8.22 20.7-18.02 30.55-9.54 9.57-17.66 14.74-29.5 18.77l-8 2.73-118.5.18c-96.05.15-119.66-.07-124.63-1.16zm246.13-3.8c3.3-.96 9.83-3.6 14.5-5.9 11.98-5.87 23.92-17.8 29.85-29.82 7.57-15.34 7.13-4.14 7.13-181 0-177.7.5-165.57-7.52-181.8-7.84-15.92-21.82-27.8-39.94-33.98l-8-2.72h-119.5c-113.08 0-119.82.1-125.5 1.83-20 6.12-34.83 18.44-43.52 36.17-7.44 15.17-7.07 5.05-6.76 184l.28 160 2.34 7c6.75 20.2 22.88 37.03 42.2 44.06 11.68 4.25 13.1 4.3 133.46 4.1 106.06-.18 115.47-.33 121-1.94z"/></g></g></svg>