<svg xmlns="http://www.w3.org/2000/svg" width="357.926" height="445.873" viewBox="0 0 357.92572 445.8728"><g><g><path fill="#c2c5cd" d="M61.5 445c-21.86-3.3-41.54-16.33-52.3-34.66-1.67-2.84-4.3-8.47-5.86-12.5L.5 390.5v-335l2.7-7.34c5.32-14.6 15.2-27.28 27.74-35.62 8.4-5.58 14.38-8.16 24.57-10.6C63.16.1 68.58 0 178.3 0c130.23 0 123.15-.4 140.23 7.95 17.32 8.47 29.47 22 35.9 39.93l3.08 8.62.3 163.5c.3 181.08.65 170.4-6.2 184.6-10.55 21.9-30.54 36.4-55.6 40.36-7.57 1.2-226.56 1.23-234.5.04zm244.5-6.84c19.74-7.1 33.17-18.95 41.67-36.72 6.67-13.95 6.4-6 6.1-182.46l-.26-159.48-2.9-8.35c-8.53-24.4-28.52-41.2-54.32-45.66-7.9-1.37-23.2-1.53-121.9-1.24C47.67 4.62 57.94 4 41 12.26c-12.1 5.9-24.07 17.86-29.8 29.78-7.7 16-7.3 5.1-6.97 184.46l.28 160 2.83 8c6.6 18.74 19.14 32.4 37.3 40.62 13.12 5.95 8.32 5.76 136.88 5.56l118-.18 6.5-2.34zm-198.35-58.68C83.4 373.33 66.7 351.94 66.7 327c0-17.88 7.9-33.6 21.9-43.6 9.1-6.5 17.73-9.52 28.9-10.12 17-.92 30.2 4.14 42.03 16.1C170.1 300.1 175 312 175 327c0 23.1-13.83 42.7-35.82 50.74-8.53 3.12-22.95 3.92-31.53 1.74zm23.86-9.84c10.7-2.86 18.78-8.3 25.2-17 11.18-15.18 10.98-37.06-.46-52.12-13.45-17.7-37.5-22.6-57.56-11.73-6.22 3.35-14.78 12.62-18.04 19.5-9.64 20.38-1.6 45.25 18.4 56.98 9.05 5.3 22.3 7.08 32.47 4.36zm-20.5-5.02c-11.5-3.16-20.18-10.2-25.2-20.4-3.1-6.26-3.3-7.32-3.3-17.2 0-9.9.2-10.97 3.28-17.2 4.07-8.3 11.96-15.78 19.98-18.97 4.55-1.8 7.73-2.3 15.25-2.3 8.6-.04 10.14.26 16.13 3.1 9.25 4.36 14.2 9.2 18.63 18.17 3.54 7.16 3.75 8.1 3.74 17.13 0 8.64-.3 10.2-3.18 16.25-8.13 17.2-27.45 26.34-45.3 21.42zm21.33-9.7c5.34-1.48 11.46-7.26 12.27-11.6.86-4.57-.87-8.33-3.82-8.3-3.2.05-19.77 12.47-19.77 14.82 0 1.9 2.37 4.48 5 5.45 2.17.78 2.15.8 6.33-.37zm-15.55-1.48c4.3-3 2.93-5.8-6.02-12.2-10.33-7.4-11.26-7.74-13.9-5.1-4.17 4.17-.3 12.94 7.4 16.75 5.04 2.5 9.46 2.68 12.52.54zm13.9-16.66c9-8.97 3-23.78-9.6-23.78-10.84 0-17.5 9.76-13.2 19.42 2.77 6.28 7.02 8.8 13.95 8.3 4.5-.34 5.87-.95 8.86-3.94zm-14.17-1.94c-5.22-2.85-6.26-10.17-2.04-14.4 5.33-5.32 15.55-1.02 15.55 6.56 0 6.4-7.8 10.95-13.5 7.84zm30.25-2.38c5.4-3.77 5-14.28-.8-20.86-3.17-3.62-6.34-4.74-9.78-3.47-2.82 1.05-2.75 3.45.4 13.37 3.94 12.34 5.62 14.16 10.18 10.96zm-46.68-1.6c2.27-4.22 5.94-16.3 5.94-19.52 0-2.74-.45-3.42-2.64-3.97-3.7-.93-8.6 1.95-11.22 6.6-2.87 5.1-2.9 12.8-.06 16.4 2.54 3.22 6.4 3.47 8 .5zm32.6-23.1c3.85-3.85-1.98-10.6-9.93-11.5-8.53-.95-16.22 3.66-15.56 9.34.42 3.67 2.82 4.34 14.54 4.1 7.23-.16 9.6-.58 10.95-1.94zm92.9 72.07c-18.8-3.6-36.05-19.95-41.1-38.96-1.67-6.25-1.87-20.4-.38-26.84 3.25-14.18 14.72-28.38 28.3-35.07 9.9-4.86 17.45-6.36 28.6-5.66 23.08 1.45 42.8 17.4 48.47 39.24 1.75 6.7 1.98 20.8.46 27.43-3.1 13.4-14.4 27.88-26.93 34.46-11.2 5.9-24.7 7.84-37.43 5.4zm21.32-9.9c12.77-2.94 24.7-12.6 30.38-24.63 3.05-6.44 3.23-7.42 3.23-18.3 0-10.84-.18-11.9-3.16-18.18-16.3-34.38-64.38-34.38-80.67 0-2.98 6.3-3.16 7.34-3.16 18.18 0 10.88.18 11.86 3.23 18.3 5.6 11.8 17.64 21.7 29.97 24.6 5.24 1.24 14.93 1.25 20.2.04zm-18.55-4.9c-18.72-4-31.43-21.37-30.08-41.1 2.74-39.88 57.53-49.46 74.6-13.05 2.32 4.95 2.64 6.86 2.64 16.12 0 9.44-.27 11.07-2.75 16.12-6.56 13.34-18.5 21.5-32.74 22.34-4.12.24-9.36.05-11.65-.44zm24.96-12.37c4.67-2.56 7.7-7.25 7.7-11.9 0-4.57-2.2-6.5-5.82-5.13-4.28 1.63-17.04 11.37-17.73 13.54-.38 1.2.04 2.7 1.07 3.84 3.06 3.4 8.2 3.27 14.8-.34zm-19.72.02c3.67-3.15 2.48-5.1-7.33-12-9.95-7.02-12.57-7.58-14.3-3.04-1.37 3.6.27 8.2 4.32 12.12 5.87 5.67 12.77 6.84 17.3 2.92zm11.08-13.78c4.27-2.64 6.35-6.6 6.34-12.1 0-8.14-5.75-13.8-14-13.8-8.27 0-13.98 5.66-14 13.88 0 11.13 12.17 17.9 21.66 12.02zm-13.73-5.83c-3.87-3.87-4-8.74-.3-12.44 5.8-5.8 15.4-2 15.34 6.07-.07 8.56-9.05 12.36-15.04 6.37zm32.55-1.32c8.67-7.53-.9-27.47-11.3-23.62-2.93 1.08-2.78 3.7.8 14.3 4.2 12.4 5.56 13.62 10.5 9.32zm-47.7 0c.94-1.15 7.23-19.36 7.23-20.93 0-1.53-3.3-3.82-5.5-3.82-3.08 0-8.4 4.56-10.13 8.67-2.06 4.93-1.74 11.58.7 14.7 2.2 2.8 6 3.47 7.72 1.38zm31.23-22.64c5.2-1.43 2.9-9-3.54-11.7-9.27-3.86-21.35 1.35-20.28 8.75.42 2.9 3.15 3.65 13.33 3.65 4.4 0 9.13-.3 10.5-.7zm-81-32.67c-19.18-4.15-34.56-18.77-40.38-38.36-2.06-6.94-2.1-20.82-.06-28.6 4.22-16.22 17.76-30.8 33.95-36.55 7.6-2.7 23.1-3.68 30.64-1.95 19.02 4.37 34.76 19.2 40.27 37.96 1.83 6.2 2.1 21.18.53 28.04-3.15 13.66-15.13 28.62-27.92 34.87-11.8 5.76-24.38 7.32-37 4.6zm21.2-9.56c15.9-3.37 29.6-16.25 33.77-31.72 1.82-6.76 1.4-18.8-.87-25.4-3.86-11.2-12.6-20.73-23.9-26.1-6.3-2.97-7.36-3.15-18.2-3.15-10.86 0-11.87.17-18.25 3.2-9.35 4.42-16.92 11.86-21.47 21.06-3.2 6.45-3.72 8.57-4.1 16.26-.32 7 .02 10.27 1.7 15.8 6.57 21.62 29.04 34.8 51.33 30.05zm-17.15-4.9c-11.76-2.46-22.12-10.7-27.36-21.75-2.93-6.17-3.2-7.54-3.18-16.72 0-8.72.35-10.73 2.68-15.72 3.73-8 10.77-15.17 18.72-19.05 6.14-3 7.3-3.22 17.1-3.22 9.86 0 10.95.2 17.1 3.24 13.14 6.46 20.93 18.3 21.7 32.98 1.16 21.94-13.95 39-36 40.7-3.48.26-8.32.05-10.77-.46zm4.53-12.3c2.3-1.95 2.53-2.62 1.57-4.4-1.05-1.97-12.1-10.57-16.83-13.1-7.15-3.83-9.27 7.76-2.57 14.02 6.5 6.07 13.28 7.4 17.83 3.48zm18.33.88c5-2.58 9.1-8.18 9.1-12.4 0-4.14-1.4-6.15-4.3-6.15-2.68 0-18.44 11.62-19.26 14.2-1.53 4.83 8 7.7 14.47 4.35zm-8.3-14.16c9.73-4.63 9.88-20 .24-25-9.83-5.07-20.82 1.63-20.83 12.7 0 10.25 11.02 16.83 20.6 12.3zm-12.67-6.33C165.86 224 169.5 215 178 215c5.58 0 9 3.38 9 8.86 0 3.2-.6 4.46-3.07 6.55-4.17 3.52-8.27 3.4-12-.33zm32.65-1.38c6.07-5.23 3.27-18.77-4.8-23.16-3-1.63-4-1.76-6.18-.77-3.2 1.46-3.2 2.72-.06 12.58 4.5 14.06 6.03 15.64 11.04 11.34zm-47.82.05c.55-.7 2.5-5.83 4.3-11.42 2.8-8.54 3.1-10.43 2-11.75-3.43-4.15-12.7.82-15.1 8.1-1.5 4.54-.7 11.83 1.58 14.36 2 2.22 5.72 2.58 7.22.7zm34.07-26.1c.6-5.18-5.6-9.65-13.34-9.65-6.83 0-13.5 4.18-13.5 8.47 0 4.08 1.75 4.6 14.48 4.3l12.03-.27.33-2.84zm-79.06-30.62c-16-2.9-30.15-12.6-38.05-26.08-8.96-15.3-9.57-34.95-1.6-51.46 6.57-13.58 21.8-25.47 36.56-28.54 8.16-1.7 23.48-.78 30.67 1.83 15.12 5.48 27.47 17.8 32.78 32.74 2.65 7.42 3.58 21.77 1.93 29.72-2.6 12.56-11.82 26.07-22.68 33.28-10.84 7.2-27.3 10.72-39.6 8.5zM129.12 162c11.36-2.13 23.13-10.1 29.26-19.8 7.64-12.1 8.78-28.87 2.82-41.6-4.3-9.2-11.77-16.8-20.98-21.34-6.6-3.26-8.5-3.73-16.68-4.08-19.12-.84-34.64 8-42.52 24.2-15.76 32.46 12.5 69.26 48.1 62.6zm-15.33-5.03c-11.85-2-23.5-10.85-28.6-21.74-2.4-5.13-2.7-6.88-2.7-16.73 0-10.17.23-11.44 2.93-16.77 3.64-7.2 11.8-15 19.32-18.54 5.1-2.4 6.94-2.7 16.26-2.7 9.26 0 11.17.3 16.13 2.63 15 7.04 23.83 22.1 22.58 38.56-.7 9.33-4 16.63-10.78 23.8-5.85 6.18-12.6 9.8-21.35 11.4-6.54 1.2-7 1.2-13.78.07zm2.98-11.53c4.2-2.95 2.9-5.85-5.32-11.95-10.7-7.92-12.22-8.5-14.57-5.6-2.26 2.77-2.4 5.25-.48 8.9 4.3 8.26 14.65 12.64 20.36 8.64zm18.55.2c3.82-1.6 8.4-6.7 9.32-10.36 1-3.94-.75-7.73-3.7-8.08-3.04-.35-19.23 11.2-19.78 14.12-.92 4.92 6.96 7.32 14.16 4.3zM127.77 131c9.52-5.8 9.54-19.68.03-24.62-9.67-5-21.13 1.47-21.13 11.95 0 11.2 11.83 18.32 21.1 12.67zm-12.57-5.5c-6.35-5.34-2.96-15.5 5.18-15.5 4.84 0 6.48.8 8.16 4.07 3.2 6.17.12 12.5-6.6 13.56-2.88.46-4.14.06-6.74-2.12zm34.05-4.6c2.38-4.62 2.2-7.6-.76-13.56-3.14-6.3-7.98-9.35-11.93-7.55-1.7.75-2.56 1.95-2.56 3.5 0 3.64 5.85 20.06 7.6 21.38 2.38 1.76 5.65.14 7.65-3.77zm-48.9 1.35c2.3-4.54 5.87-17.72 5.5-20.32-.27-1.9-1.03-2.5-3.54-2.74-6.6-.65-12.3 6.57-12.3 15.62 0 8.77 7.1 13.85 10.35 7.43zm32.7-22.8c1.9-2.3.1-6.43-3.96-9.17-5.6-3.77-15.43-2.95-20.05 1.68-2.26 2.25-2.76 7.58-.8 8.38.7.27 6.26.54 12.38.58 8.93.06 11.4-.23 12.43-1.48zm94.3 72.5c-20.38-3.63-36.67-18.46-42.73-38.88-2.05-6.9-2.1-20.8-.08-28.53 4.74-18.2 19.8-33.1 38.5-38.07 7.2-1.9 20.67-1.86 28.32.1 18 4.65 32.67 19.05 38.05 37.36 2 6.8 2.08 21.7.15 28.94C285 149.93 270.8 164.9 254.3 170c-7.62 2.34-19.84 3.24-26.95 1.96zm17.77-9.97c13.7-2.6 25.7-11.76 31.9-24.38 2.96-5.98 3.46-8.12 3.8-16.1.46-10.24-1.2-17.9-5.43-25.12-3.7-6.3-12.6-14.1-20.14-17.68-6.38-3.03-7.4-3.2-18.25-3.2-10.86 0-11.87.17-18.25 3.2-9.36 4.43-16.92 11.86-21.48 21.1-3.27 6.6-3.73 8.47-4.1 16.7-.32 7.65 0 10.47 1.8 15.9 7 21 28.5 33.68 50.15 29.58zm-15.46-5c-11.84-2.07-22.6-10.45-27.97-21.76-2.93-6.16-3.2-7.56-3.2-16.72 0-8.76.34-10.7 2.7-15.72 3.73-7.98 10.75-15.14 18.68-19.04 6.16-3.03 7.26-3.24 17.13-3.24s10.97.2 17.13 3.24c17.12 8.43 25.45 27.17 20.38 45.87-5.1 18.87-24.78 30.9-44.84 27.38zm3.93-12.48c3.2-3.2 2.3-5.05-5.14-10.54-11.87-8.76-14.55-9.47-16.5-4.34-2.04 5.36 2.52 12.53 10.05 15.78 5.18 2.24 8.73 1.97 11.6-.9zm18.3 1.05c5-2.58 9.1-8.18 9.1-12.4 0-7.55-3.64-7.98-12.87-1.5-8.85 6.22-11.12 8.36-11.12 10.47 0 4.32 9.12 6.42 14.9 3.43zm-7.94-14.65c4.77-2.68 7.05-6.58 7.04-12.06 0-10.73-9.76-17.25-19.42-12.98-11.12 4.92-11.76 18.78-1.16 25.25 4.04 2.47 8.92 2.4 13.54-.2zm-10.6-3.86c-5.54-2.33-7.14-10.35-2.9-14.6 5.54-5.53 15.55-1.7 15.55 5.96 0 6.37-6.87 11.07-12.64 8.64zm30.22-3.35c6.07-5.23 3.27-18.77-4.8-23.16-3-1.63-4-1.76-6.18-.77-3.2 1.46-3.2 2.72-.06 12.58 4.5 14.06 6.03 15.64 11.04 11.34zm-47.82.05c.55-.7 2.5-5.83 4.3-11.42 2.8-8.54 3.1-10.43 2-11.75-3.2-3.88-10.95-.5-14.2 6.2-2.76 5.7-2.2 13.7 1.13 16.4 2.6 2.12 5.34 2.34 6.76.57zM248.8 99.8c2.06-2.05 1.33-5.3-1.86-8.36-2.82-2.7-3.64-2.94-10.43-2.94-6.78 0-7.6.23-10.43 2.94-3.2 3.05-3.92 6.3-1.86 8.36 1.66 1.65 22.96 1.65 24.6 0z"/><path fill="#c38c8f" d="M59.5 444.5c-15.9-3-27.1-9.03-39-20.97-10.3-10.36-15.38-18.87-18.5-31.1-1.95-7.58-2-11.42-2-169.88C0 43.53-.42 55.85 6.4 41.5 15.3 22.76 31.1 9.37 52 2.84L59.5.5h239l7.5 2.33c19.7 6.1 36.15 19.8 44.98 37.38 7.56 15.07 7.12 3.05 6.8 185.8l-.27 163.5-2.87 7.85c-7.9 21.6-26.4 38.67-49.65 45.8l-7.47 2.3-115.5.2c-92.6.16-116.88-.07-122.5-1.14zm242.88-5.47c23.08-5.9 41.2-22.8 48.8-45.53l2.33-7 .3-160c.3-178.95.67-168.83-6.77-184-6.86-14-16.47-23.6-30.52-30.54C300.38 4 309.7 4.5 179 4.5c-129.74 0-121.1-.44-136.5 6.88-14.78 7.03-24.7 16.8-31.63 31.12C3.64 57.46 4.04 46.82 4.04 223c0 176.66-.43 165.7 7.03 180.82 4.9 9.92 14.14 20.24 23.4 26.08 7.67 4.85 11.98 6.72 21.04 9.13 6.64 1.76 13.13 1.86 123.1 1.9 112.3.07 116.34 0 123.78-1.9zM110.5 379.98c-14.96-3-29.14-13.17-36.95-26.5-4.7-8-6.8-16.25-6.77-26.48.04-16.06 5.66-28.83 17.38-39.52 21.76-19.85 54.14-19.2 74.85 1.52 21.24 21.23 21.46 54.24.52 75.43-12.7 12.85-31.98 18.97-49 15.55zm21.97-10.5c12.77-3.34 23.02-11.95 28.83-24.22 3.03-6.4 3.2-7.4 3.2-18.26 0-10.87-.17-11.88-3.2-18.26-10.9-23.04-37.47-32.23-61-21.1-16.23 7.68-26.44 27.84-23.36 46.14 4.42 26.27 29.6 42.44 55.53 35.7zm-21.44-5.1c-11.1-2.96-20.65-10.84-25.72-21.17-2.52-5.15-2.8-6.72-2.8-16.2 0-9.6.26-11.02 2.95-16.5 3.92-7.97 11-14.88 19.32-18.8 6.03-2.85 7.68-3.17 15.74-3.15 7 .02 10.3.53 14.8 2.32 8.08 3.2 16.78 11.5 20.94 19.95 2.97 6.04 3.26 7.45 3.23 15.66-.05 11.4-2.6 18.3-9.56 25.94-5.9 6.47-11.65 10.02-19.5 12.07-7.13 1.84-12.22 1.82-19.37-.1zm26.83-11.65c4.3-2.6 7.14-7.28 7.14-11.78 0-4.05-1.44-5.95-4.53-5.95-2.15 0-11.6 6.13-16.7 10.84-8.08 7.43 3.67 13.18 14.1 6.9zm-20.8 1.23c1.25-.66 1.95-2.1 1.95-4 0-2.5-1.1-3.76-7.43-8.45-4.1-3-8.64-6.04-10.12-6.7-2.4-1.1-2.88-.98-4.56 1.1-5.66 6.97 3.5 19.07 14.42 19.1 2.1 0 4.7-.47 5.75-1.04zm11.65-14.92c8.68-5.3 8.32-19.88-.6-24.5-6.1-3.16-14.85-1.58-18.83 3.4-2.34 2.95-3.4 8.82-2.32 12.86 1 3.67 4.98 8.37 8.06 9.5 3.5 1.27 10.63.62 13.7-1.26zm-13.77-5.97c-4.1-4.1-4.04-8.95.15-12.48 4.22-3.56 8.27-3.4 12.13.44 2.64 2.64 2.97 3.55 2.46 6.75-1.24 7.8-9.3 10.7-14.73 5.27zm33.15-1.66c3.4-3.6 3.4-12.3 0-17.8-4.4-7.1-14.07-8.35-14.07-1.8 0 3.7 5.65 20.35 7.26 21.37 2.23 1.42 4.35.88 6.82-1.76zm-48.33.35c1.96-2.48 6.38-17.73 6.07-20.96-.28-3-.65-3.33-3.87-3.6-6.8-.57-11.94 6.3-11.94 15.98 0 6.57 1.97 9.82 5.94 9.82 1.55 0 3.27-.56 3.8-1.25zm31.7-22.73c4.85-1.84 2.38-8.94-4.04-11.63-6.64-2.8-16.96-.94-19.3 3.45-1.86 3.45-1.33 7.12 1.16 8.12 3.05 1.22 19 1.26 22.18.05zm93.16 70.38c-19.2-4.64-35.17-20.16-40.06-38.94C175.77 306.8 202.07 273 237 273c24.14 0 45.34 16.15 52.4 39.93 2.08 7.04 2.1 21.05 0 28.14-3.86 13.18-14.06 26.26-25.54 32.76-11.34 6.42-26.73 8.6-39.25 5.57zm28.65-11.32c12.05-4.66 21.82-14.75 25.78-26.65 1.84-5.54 2.13-8.25 1.8-16.77-.36-8.95-.8-10.96-3.66-16.88-4.47-9.27-11.3-15.98-20.88-20.57-7.6-3.6-8.1-3.7-19.3-3.7-10.6 0-12 .23-17.82 2.92-17 7.85-26.17 22.02-26.17 40.5 0 13.43 4.03 23.03 13.35 31.84 9.44 8.93 19.07 12.43 32.66 11.87 5.7-.23 10.4-1.08 14.25-2.55zm-26.22-3.62c-3-.85-7.3-2.6-9.53-3.92-5.84-3.4-13.2-11.7-16.3-18.32-2.33-4.95-2.7-7-2.7-15.22 0-8.55.32-10.16 3.1-16 3.87-8.16 10.82-15.1 19.34-19.3 5.96-2.93 7.34-3.2 16.07-3.2 8.78 0 10.1.26 16.25 3.3 8.53 4.2 15.26 10.94 19.17 19.2 2.77 5.84 3.1 7.46 3.1 16 0 12.57-2.96 19.38-12.1 27.92-10.1 9.45-23.84 13.06-36.4 9.54zm26.47-11.34c4.23-2.44 7.5-7.7 7.5-12.07 0-7.9-4.02-7.93-14.7-.08-9.3 6.8-9.7 7.3-8.9 10.5 1.15 4.55 9.57 5.4 16.1 1.65zM234 353c2.68-2.68 2.53-4.14-.74-7.2-3.42-3.2-16.05-11.8-17.32-11.8-.5 0-1.88.94-3.03 2.1-3.98 3.98-.24 13.08 6.94 16.87 4.95 2.62 11.57 2.63 14.17.03zm11.1-14.28c4.42-3 5.87-6.06 5.9-12.5 0-4.6-.42-5.72-3.42-9-3.33-3.62-3.6-3.72-10.48-3.72-6.6 0-7.26.2-10.24 3.18-2.6 2.6-3.26 4.17-3.63 8.6-.54 6.5 1.4 10.9 6.07 13.76 4.5 2.73 11.47 2.6 15.8-.32zm-14.17-5.65c-2-2-2.92-3.92-2.92-6.07 0-4.3 4.7-9 9-9s9 4.7 9 9-4.7 9-9 9c-2.15 0-4.08-.93-6.07-2.93zm31.53.3c2.38-.9 4.55-5.73 4.55-10.1 0-9.02-8.14-17.7-14.37-15.32-3.43 1.3-3.38 3.45.35 14.48 3.88 11.47 4.94 12.7 9.48 10.95zm-44.5-5.97c4.17-11.16 5.47-17.18 4.08-18.86-3.04-3.67-10.94-.6-14.02 5.44-3.15 6.17-2.43 15.7 1.4 18.25.6.4 2.3.74 3.76.75 2.34.02 2.95-.7 4.78-5.58zm29.48-18.38c1.97-.75 2.57-1.67 2.57-4 0-5.37-5.46-9.02-13.5-9.02-8.03 0-13.5 3.65-13.5 9.03 0 2.2.62 3.28 2.26 3.94 3.05 1.22 19 1.26 22.18.05zM168 276.88c-3.02-.48-9.2-2.7-13.73-4.92-33.55-16.47-40.8-59.86-14.38-85.98 17.33-17.14 41.48-20.9 63.36-9.85 12.6 6.35 24.57 21.45 27.67 34.9 1.56 6.8 1.3 20.86-.52 27.04-4.14 14.1-14.22 26.46-27.14 33.23-11.34 5.95-22.22 7.67-35.25 5.58zm19.05-9.9c11.2-2.1 22.66-9.86 28.7-19.38 6.23-9.83 8.25-25.24 4.84-36.96-3.46-11.88-13.93-23.25-25.6-27.8-8.3-3.24-21.9-3.68-30.72-1-13.5 4.1-24.32 14.93-28.43 28.43-3.1 10.26-2.38 22.86 1.86 31.9 8.83 18.84 28.55 28.76 49.35 24.82zM170 261.64c-11.77-2.57-22.63-11.33-27.8-22.4-2.28-4.93-2.66-7.07-2.68-15.23 0-8.62.28-10.12 3.16-16.2 4.04-8.53 10.6-15.1 19.13-19.13 6.07-2.87 7.6-3.17 16.2-3.17 8.62 0 10.14.3 16.25 3.2 8.3 3.93 15.42 10.86 19.33 18.82 2.64 5.4 2.93 6.95 2.93 15.98 0 8.77-.33 10.7-2.7 15.75-5.5 11.75-16.55 20.3-29.23 22.65-7 1.3-7.43 1.3-14.56-.27zm5-11.63c3.8-3.8 2.74-5.5-8.4-13.4-8.04-5.7-10.54-6.58-12.4-4.35-3.93 4.75-.5 13.7 6.7 17.45 5.55 2.9 11.4 3 14.1.3zm19.02.15c6.2-3.3 9.57-10.85 7.38-16.57-1.07-2.8-5.8-1.78-11.98 2.57-11.4 8.02-13.05 10.38-9.76 14.02 2.2 2.44 9.75 2.43 14.36-.02zm-8.92-13.7c8.78-4.54 9.4-19.78 1.02-24.72-5.6-3.3-13.18-2.6-17.8 1.62-3.3 3-3.7 3.96-4.04 9.25-.3 4.7.04 6.58 1.7 9.2 3.58 5.72 12.75 7.94 19.12 4.65zm-11.32-4.97c-5.56-3.1-6.37-9.04-1.85-13.56 3.85-3.85 8.4-3.94 12.27-.23 7.3 7-1.56 18.72-10.42 13.78zm29.02-1.12c6.7-1.8 6.74-15.9.03-23.05-4.16-4.4-11.82-3.75-11.82 1.05 0 2.8 5.54 19.38 7.1 21.27 1.3 1.55 1.52 1.6 4.7.74zm-43.84-5.96c4.17-11.16 5.47-17.18 4.08-18.86-1.65-2-6.97-1.98-9.82.02-5.87 4.1-8.24 16.6-4.14 21.8 1.37 1.75 3.03 2.64 4.93 2.64 2.56 0 3.1-.6 4.96-5.6zm31.86-21.6c.17-1.5-.2-3.66-.83-4.84-3.46-6.43-21.5-6.52-24.9-.1-1.23 2.27-1.45 6.45-.4 7.5.38.38 6.35.57 13.25.42l12.56-.28.32-2.7zm-79.8-30.86c-8.88-1.5-21.35-8.23-28.4-15.3-10.73-10.76-16.14-24.1-15.9-39.14.25-14.6 6.16-27.55 17.38-38.07C94.5 69.7 106.3 65 120.4 65c15.43 0 27.75 5.1 38.63 15.97 16.73 16.73 20.7 40.45 10.35 61.83-3.3 6.82-12.27 16.5-19.8 21.38-10.48 6.8-25.96 9.9-38.57 7.76zm19.2-10.07c20.7-4.4 34.8-21.96 34.8-43.4 0-19.4-12.14-36.1-30.2-41.6-10.4-3.16-23.92-2.44-32.8 1.76-22.13 10.43-31.57 36.22-21.56 58.86 2.86 6.46 11.13 15.58 17.53 19.34 9 5.28 21.7 7.26 32.2 5.03zm-17.22-5.2c-11.87-2.6-22.65-11.2-27.67-22.07-2.5-5.4-2.82-7.24-2.82-16.1 0-8.78.34-10.7 2.7-15.77 3.47-7.4 11.65-15.55 19.3-19.26 5.38-2.6 7.04-2.9 16-2.94 9.14-.03 10.57.24 16.5 3.05 17.8 8.42 26.74 27.9 21.16 46.05-5.9 19.23-25.97 31.24-45.16 27.03zm3.84-11.27c4.26-2.98 2.6-6.18-6.75-13.14-4.64-3.44-9.22-6.26-10.2-6.26-5.26 0-6.3 7.82-1.84 14.07 4.16 5.84 14.04 8.65 18.78 5.33zm20.47-.72c4.88-2.94 7.7-7.23 7.7-11.73 0-7.6-4.64-7.85-14.37-.78-8.06 5.86-9.62 7.48-9.62 9.95 0 5.2 9.5 6.7 16.3 2.56zm-9.58-13.35c5.34-2.54 7.47-6.65 7.03-13.58-.3-4.7-.9-6.3-3.26-8.77-5.5-5.72-15.6-5.97-21.04-.53-3.25 3.26-4.8 9.57-3.5 14.36 2.3 8.57 12.15 12.6 20.76 8.53zM117.36 127c-8.6-3.47-5.93-17 3.36-17 4 0 9.3 4.53 9.3 7.97 0 3.33-2.6 7.52-5.5 8.83-3 1.38-4.18 1.4-7.16.2zm30.32-3.4c2.47-2.12 2.8-3.1 2.8-8.26 0-4.07-.63-6.92-2.03-9.35-2.58-4.45-8.1-7.56-11.75-6.64-3.54.9-3.57 4.52-.14 14.64 4.24 12.5 6 14 11.12 9.6zm-47.93.15c1.96-2.48 6.38-17.73 6.07-20.96-.28-3-.65-3.33-3.87-3.6C95 98.6 90 105.32 90 115.28c0 4 .52 5.9 2.05 7.53 2.24 2.42 6.16 2.9 7.7.95zm34.07-25.95c.68-5.95-4.84-9.8-14.07-9.8-6.78 0-12.07 3.1-12.57 7.36-.65 5.6-.34 5.72 13.56 5.42l12.77-.28.32-2.7zm92.2 73.64c-19.88-4.28-36.52-19.92-41.48-38.98-1.92-7.36-1.96-20.28-.08-27.33 4.86-18.26 20.64-33.8 39.25-38.64 7.38-1.93 19.3-1.9 26.75.03 18.8 4.9 35.3 21.4 39.48 39.5 1.56 6.8 1.3 20.86-.52 27.04-5.68 19.37-21.88 34.22-41.9 38.42-8.5 1.78-13 1.77-21.5-.06zm20.2-9.56c13.46-2.83 24.43-11.33 30.53-23.67 3.7-7.5 3.76-7.73 3.76-19.65 0-11.5-.14-12.37-3.2-18.83-4.2-8.87-11.76-16.4-20.82-20.76-6-2.88-8.28-3.4-16.32-3.78-11.53-.53-19.75 1.46-28 6.8-7 4.53-11.22 9.44-15.45 18.02-3.06 6.22-3.2 7-3.2 18.55 0 11.92.05 12.14 3.77 19.66 9.03 18.3 28.9 27.9 48.94 23.68zm-16.1-5c-11.65-1.95-23.7-11.37-28.83-22.57-5.5-12-3.83-27.27 4.2-38.17 15.9-21.6 48.28-21.3 63.6.6 13.22 18.95 6.76 45.07-13.9 56.08-4.58 2.45-16.63 5.63-19.2 5.07-.27-.06-2.9-.5-5.87-1zm2.24-10.82c2.8-1.07 4.2-4.25 2.9-6.6-1.33-2.35-17.32-13.46-19.4-13.46-1 0-2.53 1.1-3.42 2.46-3.1 4.74.75 12.93 7.7 16.38 4.73 2.34 8.33 2.7 12.22 1.22zm20.66-.9c6.2-3.3 9.57-10.86 7.38-16.58-1.07-2.8-5.8-1.78-11.98 2.57-11.4 8.02-13.05 10.38-9.76 14.02 2.2 2.44 9.75 2.43 14.36-.02zm-9.5-13.6c4.65-1.95 7.48-6.82 7.48-12.9 0-8.64-5.4-14.05-14-14.05s-14 5.42-14 14.05c.02 11.13 9.9 17.34 20.52 12.9zm-10.74-5.12c-5.37-2.9-6.28-8.5-2.2-13.37 2.07-2.44 3.4-3.07 6.43-3.07 3.05 0 4.36.63 6.42 3.07 4.16 4.95 3.16 10.54-2.4 13.42-3.57 1.84-4.75 1.83-8.24-.06zm29.63-1.58c6.2-2.8 5.86-15.7-.57-22.55-4.16-4.4-11.82-3.75-11.82 1.05 0 3.7 5.88 20.04 7.7 21.4 2.04 1.5 1.66 1.5 4.7.1zm-46-2.1c2.74-4.3 7-19.9 5.92-21.65-1.4-2.2-6.94-2.58-9.87-.66-6.02 3.95-8.55 16.6-4.37 21.92 2.58 3.28 6.36 3.45 8.32.4zm33.43-24.1c1.22-6.34-4.08-10.65-13.12-10.66-6.25 0-11 1.86-12.66 4.94-1.18 2.2-1.37 6.4-.34 7.42.38.38 6.34.57 13.24.42 11.23-.25 12.58-.47 12.9-2.1z"/><path fill="#8b909e" d="M59.5 444.5c-15.9-3-27.1-9.03-39-20.97-10.3-10.36-15.38-18.87-18.5-31.1-1.95-7.58-2-11.42-2-169.88C0 43.53-.42 55.85 6.4 41.5 15.3 22.76 31.1 9.37 52 2.84L59.5.5h239l7.5 2.33c19.7 6.1 36.15 19.8 44.98 37.38 7.56 15.07 7.12 3.05 6.8 185.8l-.27 163.5-2.87 7.85c-7.9 21.6-26.4 38.67-49.65 45.8l-7.47 2.3-115.5.2c-92.6.16-116.88-.07-122.5-1.14zm242.88-5.47c23.08-5.9 41.2-22.8 48.8-45.53l2.33-7 .3-160c.3-178.95.67-168.83-6.77-184-6.86-14-16.47-23.6-30.52-30.54C300.38 4 309.7 4.5 179 4.5c-129.74 0-121.1-.44-136.5 6.88-14.78 7.03-24.7 16.8-31.63 31.12C3.64 57.46 4.04 46.82 4.04 223c0 176.66-.43 165.7 7.03 180.82 4.9 9.92 14.14 20.24 23.4 26.08 7.67 4.85 11.98 6.72 21.04 9.13 6.64 1.76 13.13 1.86 123.1 1.9 112.3.07 116.34 0 123.78-1.9zM110.5 379.98c-14.96-3-29.14-13.17-36.95-26.5-4.7-8-6.8-16.25-6.77-26.48.04-16.06 5.66-28.83 17.38-39.52 21.76-19.85 54.14-19.2 74.85 1.52 21.24 21.23 21.46 54.24.52 75.43-12.7 12.85-31.98 18.97-49 15.55zm21.97-10.5c12.77-3.34 23.02-11.95 28.83-24.22 3.03-6.4 3.2-7.4 3.2-18.26 0-10.87-.17-11.88-3.2-18.26-10.9-23.04-37.47-32.23-61-21.1-16.23 7.68-26.44 27.84-23.36 46.14 4.42 26.27 29.6 42.44 55.53 35.7zm-21.44-5.1c-11.1-2.96-20.65-10.84-25.72-21.17-2.52-5.15-2.8-6.72-2.8-16.2 0-9.6.26-11.02 2.95-16.5 3.92-7.97 11-14.88 19.32-18.8 6.03-2.85 7.68-3.17 15.74-3.15 7 .02 10.3.53 14.8 2.32 8.08 3.2 16.78 11.5 20.94 19.95 2.97 6.04 3.26 7.45 3.23 15.66-.05 11.4-2.6 18.3-9.56 25.94-5.9 6.47-11.65 10.02-19.5 12.07-7.13 1.84-12.22 1.82-19.37-.1zm26.83-11.65c4.3-2.6 7.14-7.28 7.14-11.78 0-4.05-1.44-5.95-4.53-5.95-2.15 0-11.6 6.13-16.7 10.84-8.08 7.43 3.67 13.18 14.1 6.9zm-20.8 1.23c1.25-.66 1.95-2.1 1.95-4 0-2.5-1.1-3.76-7.43-8.45-4.1-3-8.64-6.04-10.12-6.7-2.4-1.1-2.88-.98-4.56 1.1-5.66 6.97 3.5 19.07 14.42 19.1 2.1 0 4.7-.47 5.75-1.04zm11.65-14.92c8.68-5.3 8.32-19.88-.6-24.5-6.1-3.16-14.85-1.58-18.83 3.4-2.34 2.95-3.4 8.82-2.32 12.86 1 3.67 4.98 8.37 8.06 9.5 3.5 1.27 10.63.62 13.7-1.26zm-13.77-5.97c-4.1-4.1-4.04-8.95.15-12.48 4.22-3.56 8.27-3.4 12.13.44 2.64 2.64 2.97 3.55 2.46 6.75-1.24 7.8-9.3 10.7-14.73 5.27zm33.15-1.66c3.4-3.6 3.4-12.3 0-17.8-4.4-7.1-14.07-8.35-14.07-1.8 0 3.7 5.65 20.35 7.26 21.37 2.23 1.42 4.35.88 6.82-1.76zm-48.33.35c1.96-2.48 6.38-17.73 6.07-20.96-.28-3-.65-3.33-3.87-3.6-6.8-.57-11.94 6.3-11.94 15.98 0 6.57 1.97 9.82 5.94 9.82 1.55 0 3.27-.56 3.8-1.25zm31.7-22.73c4.85-1.84 2.38-8.94-4.04-11.63-6.64-2.8-16.96-.94-19.3 3.45-1.86 3.45-1.33 7.12 1.16 8.12 3.05 1.22 19 1.26 22.18.05zm93.16 70.38c-19.2-4.64-35.17-20.16-40.06-38.94C175.77 306.8 202.07 273 237 273c24.14 0 45.34 16.15 52.4 39.93 2.08 7.04 2.1 21.05 0 28.14-3.86 13.18-14.06 26.26-25.54 32.76-11.34 6.42-26.73 8.6-39.25 5.57zm28.65-11.32c12.05-4.66 21.82-14.75 25.78-26.65 1.84-5.54 2.13-8.25 1.8-16.77-.36-8.95-.8-10.96-3.66-16.88-4.47-9.27-11.3-15.98-20.88-20.57-7.6-3.6-8.1-3.7-19.3-3.7-10.6 0-12 .23-17.82 2.92-17 7.85-26.17 22.02-26.17 40.5 0 13.43 4.03 23.03 13.35 31.84 9.44 8.93 19.07 12.43 32.66 11.87 5.7-.23 10.4-1.08 14.25-2.55zm-26.22-3.62c-3-.85-7.3-2.6-9.53-3.92-5.84-3.4-13.2-11.7-16.3-18.32-2.33-4.95-2.7-7-2.7-15.22 0-8.55.32-10.16 3.1-16 3.87-8.16 10.82-15.1 19.34-19.3 5.96-2.93 7.34-3.2 16.07-3.2 8.78 0 10.1.26 16.25 3.3 8.53 4.2 15.26 10.94 19.17 19.2 2.77 5.84 3.1 7.46 3.1 16 0 12.57-2.96 19.38-12.1 27.92-10.1 9.45-23.84 13.06-36.4 9.54zm26.47-11.34c4.23-2.44 7.5-7.7 7.5-12.07 0-7.9-4.02-7.93-14.7-.08-9.3 6.8-9.7 7.3-8.9 10.5 1.15 4.55 9.57 5.4 16.1 1.65zM234 353c2.68-2.68 2.53-4.14-.74-7.2-3.42-3.2-16.05-11.8-17.32-11.8-.5 0-1.88.94-3.03 2.1-3.98 3.98-.24 13.08 6.94 16.87 4.95 2.62 11.57 2.63 14.17.03zm11.1-14.28c4.42-3 5.87-6.06 5.9-12.5 0-4.6-.42-5.72-3.42-9-3.33-3.62-3.6-3.72-10.48-3.72-6.6 0-7.26.2-10.24 3.18-2.6 2.6-3.26 4.17-3.63 8.6-.54 6.5 1.4 10.9 6.07 13.76 4.5 2.73 11.47 2.6 15.8-.32zm-14.17-5.65c-2-2-2.92-3.92-2.92-6.07 0-4.3 4.7-9 9-9s9 4.7 9 9-4.7 9-9 9c-2.15 0-4.08-.93-6.07-2.93zm31.53.3c2.38-.9 4.55-5.73 4.55-10.1 0-9.02-8.14-17.7-14.37-15.32-3.43 1.3-3.38 3.45.35 14.48 3.88 11.47 4.94 12.7 9.48 10.95zm-44.5-5.97c4.17-11.16 5.47-17.18 4.08-18.86-3.04-3.67-10.94-.6-14.02 5.44-3.15 6.17-2.43 15.7 1.4 18.25.6.4 2.3.74 3.76.75 2.34.02 2.95-.7 4.78-5.58zm29.48-18.38c1.97-.75 2.57-1.67 2.57-4 0-5.37-5.46-9.02-13.5-9.02-8.03 0-13.5 3.65-13.5 9.03 0 2.2.62 3.28 2.26 3.94 3.05 1.22 19 1.26 22.18.05zM168 276.88c-3.02-.48-9.2-2.7-13.73-4.92-33.55-16.47-40.8-59.86-14.38-85.98 17.33-17.14 41.48-20.9 63.36-9.85 12.6 6.35 24.57 21.45 27.67 34.9 1.56 6.8 1.3 20.86-.52 27.04-4.14 14.1-14.22 26.46-27.14 33.23-11.34 5.95-22.22 7.67-35.25 5.58zm19.05-9.9c11.2-2.1 22.66-9.86 28.7-19.38 6.23-9.83 8.25-25.24 4.84-36.96-3.46-11.88-13.93-23.25-25.6-27.8-8.3-3.24-21.9-3.68-30.72-1-13.5 4.1-24.32 14.93-28.43 28.43-3.1 10.26-2.38 22.86 1.86 31.9 8.83 18.84 28.55 28.76 49.35 24.82zm-20.76-6.38c-27.3-8.9-35.88-43.86-15.7-64.02 18-18.02 50.45-13.25 61.73 9.08 9.93 19.66 2.37 42.96-17.05 52.52-5.72 2.82-7.75 3.27-15.67 3.52-5.73.17-10.65-.23-13.3-1.1zm26.2-9.5c6.25-2.87 10.5-8.62 10.5-14.17 0-2-3.27-5.93-4.93-5.93-1.27 0-13.9 8.6-17.3 11.8-3.46 3.23-3.5 5.48-.13 8.13 3.24 2.54 6.63 2.6 11.87.18zm-17.45-.93c3.83-3.1 2.07-6.07-7.7-13-4.8-3.4-9.37-6.17-10.2-6.17-2.63 0-5.14 3.18-5.14 6.5 0 4.08 4.64 10.58 9.13 12.8 4.55 2.23 11.07 2.17 13.92-.13zm10.9-14.06c11.65-8.28 7.62-25.27-6.37-26.85-10.12-1.14-18.8 9.44-15.64 19.04 2.92 8.84 14.68 13.02 22 7.8zm-13.2-5.35c-3.8-2.9-4.22-10.1-.76-13.23.96-.9 3.3-1.86 5.2-2.17 5.2-.84 9.26 2.96 9.26 8.65 0 3.2-.56 4.66-2.34 6.1-2.68 2.18-8.9 2.53-11.38.65zm-16-1.7c2.1-2.28 7.26-17.42 7.26-21.4 0-3.73-3.8-5.18-8.48-3.22-5.2 2.17-8.94 8.57-8.94 15.3 0 4.93.33 5.8 3.23 8.38 3.83 3.42 4.55 3.52 6.94.95zm48.8-.5c2.02-2.03 2.46-3.45 2.46-8.06 0-3.08-.65-6.88-1.46-8.43-4.56-8.82-15.53-11.02-15.53-3.13 0 3.48 4.9 18.15 6.8 20.3 2.1 2.44 4.86 2.2 7.75-.7zm-15.5-23.38c1.9-1.55 2.1-2.25 1.27-4.75-1.15-3.46-6.16-7.1-11.02-8.03-9.67-1.82-20.7 7.2-15.35 12.55 1.8 1.8 3.3 2.05 12.45 2.05 8.56 0 10.78-.32 12.64-1.83zM111 171.94c-8.86-1.5-21.33-8.23-28.38-15.3-10.73-10.76-16.14-24.1-15.9-39.14.25-14.6 6.16-27.55 17.38-38.07C94.5 69.7 106.3 65 120.4 65c15.43 0 27.75 5.1 38.63 15.97 16.73 16.73 20.7 40.45 10.35 61.83-3.3 6.82-12.27 16.5-19.8 21.38-10.48 6.8-25.96 9.9-38.57 7.76zm19.2-10.07c20.72-4.4 34.8-21.96 34.8-43.4 0-19.4-12.12-36.1-30.17-41.6-10.42-3.16-23.93-2.44-32.82 1.76-22.1 10.43-31.55 36.22-21.54 58.86 2.86 6.46 11.13 15.58 17.53 19.34 9 5.28 21.7 7.26 32.2 5.03zm-17.2-5.2c-11.87-2.6-22.65-11.2-27.67-22.07-2.5-5.4-2.82-7.24-2.82-16.1 0-8.78.34-10.7 2.7-15.77 3.47-7.4 11.65-15.55 19.3-19.26 5.38-2.6 7.04-2.9 16-2.94 9.14-.03 10.57.24 16.5 3.05 17.8 8.42 26.74 27.9 21.16 46.05-5.9 19.23-25.97 31.24-45.16 27.03zm3.84-11.27c4.26-2.98 2.6-6.18-6.75-13.14-4.64-3.44-9.22-6.26-10.2-6.26-5.26 0-6.3 7.82-1.84 14.07 4.16 5.84 14.04 8.65 18.78 5.33zm20.47-.72c4.88-2.94 7.7-7.23 7.7-11.73 0-7.6-4.64-7.85-14.37-.78-8.06 5.86-9.62 7.48-9.62 9.95 0 5.2 9.5 6.7 16.3 2.56zm-9.58-13.35c5.34-2.54 7.47-6.65 7.03-13.58-.3-4.7-.9-6.3-3.26-8.77-5.5-5.72-15.6-5.97-21.04-.53-3.25 3.26-4.8 9.57-3.5 14.36 2.3 8.57 12.15 12.6 20.76 8.53zM117.36 127c-8.6-3.47-5.93-17 3.36-17 4 0 9.3 4.53 9.3 7.97 0 3.33-2.6 7.52-5.5 8.83-3 1.38-4.18 1.4-7.16.2zm30.32-3.4c2.47-2.12 2.8-3.1 2.8-8.26 0-4.07-.63-6.92-2.03-9.35-2.58-4.45-8.1-7.56-11.75-6.64-3.54.9-3.57 4.52-.14 14.64 4.24 12.5 6 14 11.12 9.6zm-47.93.15c1.96-2.48 6.38-17.73 6.07-20.96-.28-3-.65-3.33-3.87-3.6C95 98.6 90 105.32 90 115.28c0 4 .52 5.9 2.05 7.53 2.24 2.42 6.16 2.9 7.7.95zm34.07-25.95c.68-5.95-4.84-9.8-14.07-9.8-6.78 0-12.07 3.1-12.57 7.36-.65 5.6-.34 5.72 13.56 5.42l12.77-.28.32-2.7zm92.2 73.64c-19.88-4.28-36.52-19.92-41.48-38.98-1.92-7.36-1.96-20.28-.08-27.33 4.86-18.26 20.64-33.8 39.25-38.64 7.38-1.93 19.3-1.9 26.75.03 18.8 4.9 35.3 21.4 39.48 39.5 1.56 6.8 1.3 20.86-.52 27.04-5.68 19.37-21.88 34.22-41.9 38.42-8.5 1.78-13 1.77-21.5-.06zm20.2-9.56c13.46-2.83 24.43-11.33 30.53-23.67 3.7-7.5 3.76-7.73 3.76-19.65 0-11.5-.14-12.37-3.2-18.83-4.2-8.87-11.76-16.4-20.82-20.76-6-2.88-8.28-3.4-16.32-3.78-11.53-.53-19.75 1.46-28 6.8-7 4.53-11.22 9.44-15.45 18.02-3.06 6.22-3.2 7-3.2 18.55 0 11.92.05 12.14 3.77 19.66 9.03 18.3 28.9 27.9 48.94 23.68zm-16.1-5c-11.65-1.95-23.7-11.37-28.83-22.57-5.5-12-3.83-27.27 4.2-38.17 15.9-21.6 48.28-21.3 63.6.6 13.22 18.95 6.76 45.07-13.9 56.08-4.58 2.45-16.63 5.63-19.2 5.07-.27-.06-2.9-.5-5.87-1zm2.24-10.82c2.8-1.07 4.2-4.25 2.9-6.6-1.33-2.35-17.32-13.46-19.4-13.46-1 0-2.53 1.1-3.42 2.46-3.1 4.74.75 12.93 7.7 16.38 4.73 2.34 8.33 2.7 12.22 1.22zm20.66-.9c6.2-3.3 9.57-10.86 7.38-16.58-1.07-2.8-5.8-1.78-11.98 2.57-11.4 8.02-13.05 10.38-9.76 14.02 2.2 2.44 9.75 2.43 14.36-.02zm-9.5-13.6c4.65-1.95 7.48-6.82 7.48-12.9 0-8.64-5.4-14.05-14-14.05s-14 5.42-14 14.05c.02 11.13 9.9 17.34 20.52 12.9zm-10.74-5.12c-5.37-2.9-6.28-8.5-2.2-13.37 2.07-2.44 3.4-3.07 6.43-3.07 3.05 0 4.36.63 6.42 3.07 4.16 4.95 3.16 10.54-2.4 13.42-3.57 1.84-4.75 1.83-8.24-.06zm29.63-1.58c6.2-2.8 5.86-15.7-.57-22.55-4.16-4.4-11.82-3.75-11.82 1.05 0 3.7 5.88 20.04 7.7 21.4 2.04 1.5 1.66 1.5 4.7.1zm-46-2.1c2.74-4.3 7-19.9 5.92-21.65-1.4-2.2-6.94-2.58-9.87-.66-6.02 3.95-8.55 16.6-4.37 21.92 2.58 3.28 6.36 3.45 8.32.4zm33.43-24.1c1.22-6.34-4.08-10.65-13.12-10.66-6.25 0-11 1.86-12.66 4.94-1.18 2.2-1.37 6.4-.34 7.42.38.38 6.34.57 13.24.42 11.23-.25 12.58-.47 12.9-2.1z"/><path fill="#5c606f" d="M54.12 442.96c-28.08-7.4-48.97-29.64-53.1-56.55-.73-4.7-.98-57.88-.8-167.9l.3-161 2.7-8c7.15-20.95 22.08-36.36 42.8-44.16 4.68-1.76 12.33-3.7 17-4.32 5.94-.78 42.4-1.02 121.5-.8l113 .32 7.46 2.3c28.78 8.83 47.73 29.88 52.03 57.8.73 4.66.98 58.23.8 166.86l-.3 160-2.34 7c-4.06 12.08-9.05 20.4-17.14 28.6-8.54 8.62-17.88 14.5-29.5 18.6l-8 2.8-119.5.2c-115.6.2-119.76.15-126.9-1.74zm248.4-3.23c19.1-5.53 36.32-19.4 44.3-35.73 7.74-15.8 7.2-1.94 7.17-180.96-.02-177.75.38-166.53-6.57-180.63C339 25.37 323.17 12.36 303.5 6.34c-5.67-1.73-12.4-1.83-125-1.83h-119l-8 2.72c-11.2 3.8-19.7 9.1-27.94 17.35-7.78 7.8-12.46 14.97-16.43 25.2L4.5 56.5v331l2.42 7.37c6.03 18.4 23.24 35.8 42.26 42.74 11.52 4.2 13.2 4.25 132.83 4.06 105.37-.18 114.98-.33 120.5-1.93zM105 378.1c-18.73-6.05-32.23-20.2-36.47-38.2-4.44-18.8.85-37.58 14.34-50.92 28-27.7 76.57-16.5 88.92 20.52 9.82 29.42-7 61.32-36.36 68.97-8.07 2.1-23.4 1.92-30.45-.36zm27.47-8.3c11.18-2.83 23.17-12.6 28.32-23.1 8.64-17.57 5.76-36-7.85-50.16-7.14-7.44-15.38-11.87-25.2-13.58-21.74-3.76-44.63 11.06-50.2 32.5-4.1 15.67.12 31.16 11.6 42.67 11.55 11.6 27.1 15.8 43.32 11.68zm-25.83-7.2c-11.12-4.67-16.54-9.82-21.48-20.4-2.3-4.9-2.67-7.02-2.68-15.2 0-8.6.28-10.13 3.16-16.2 3.9-8.22 10.03-14.53 17.88-18.38 5.52-2.7 6.76-2.92 17.45-2.92 11 0 11.78.14 17.5 3.16 7.34 3.87 13.45 10.03 17.2 17.34 2.6 5.1 2.8 6.36 2.8 17 0 11.17-.1 11.67-3.38 17.75-4.14 7.62-10.4 13.56-17.94 17.05-4.6 2.1-7.5 2.68-15.17 2.94-8.28.28-10.24 0-15.33-2.13zm8.02-7.65c1.54-.57 3.32-1.72 3.96-2.55 1-1.3 1.5-1.17 3.7 1.04 8.52 8.52 29.1-7.25 21.7-16.64l-2-2.56 2.93-.6c8.53-1.7 7.62-19.25-1.28-24.68-4.1-2.5-6.93-2.48-9.2 0-1.7 1.9-1.67 2.3.97 10.76 1.5 4.83 3.32 9.94 4.05 11.36 1.3 2.52 1.18 2.68-5.35 6.97-3.67 2.4-8.3 5.86-10.3 7.65l-3.6 3.27-1.9-2.1c-2.64-2.9-16.92-12.87-18.47-12.87-2.32 0-4.92 3.27-4.92 6.2 0 5.85 4.97 11.95 11.66 14.34 4.75 1.7 4.6 1.68 8.03.4zm14.24-15.8c4.6-3.36 6.45-6.84 6.45-12.15 0-11.3-11.34-18.13-21.3-12.8-11.4 6.1-10.3 21.63 1.9 26.72 3.3 1.37 9.9.47 12.94-1.76zm-14.86-6.8c-2.74-3.47-2.62-7.6.32-11.02 3.22-3.74 9.86-3.98 12.7-.45 2.58 3.17 2.52 9.5-.1 12.12-3.12 3.12-10.24 2.77-12.92-.64zm-14.4-.68c1-1.27 3.17-6.48 4.8-11.56 3.35-10.5 2.97-12.42-2.63-12.9C93.2 306.45 86 320.3 90.5 329c2.7 5.2 6.36 6.27 9.2 2.67zm33.13-22.87c2.13-2.12 1.36-6.28-1.68-9.2-5.84-5.6-16.47-5.4-22.27.4-3.24 3.24-3.57 5.54-1.2 8.17 1.43 1.56 3.28 1.83 12.8 1.83 7.35 0 11.57-.4 12.36-1.2zm87.2 68.92c-18.45-6.3-30.44-19.23-35.15-37.88-4.82-19.06 1.5-40.18 15.82-52.77 5.54-4.9 16.28-10.46 23.34-12.12 3.03-.7 8.88-1.3 13-1.3 23.75 0 43.57 14 51.18 36.16 3.27 9.53 3.26 24.9-.02 34.46-5.64 16.4-18.14 28.47-35 33.75-9.15 2.87-24.34 2.74-33.15-.28zm31.6-8.77c20.27-6.92 33.16-28.26 29.6-49-3.25-18.97-18.23-33.8-37.44-37.02-23.6-3.97-46.85 13.07-51.02 37.42-1.4 8.12-.12 16.93 3.6 25.1 2.83 6.15 11.07 15.48 17.03 19.26 11 7 25.5 8.6 38.24 4.25zm-26.3-5.35c-32.97-10.74-36.45-55.8-5.5-71.15 7.43-3.68 21.25-4.63 29.44-2 11.04 3.5 20.27 12.43 24.37 23.55 2.54 6.84 2.28 20.02-.53 27.28-3.14 8.13-11.2 16.6-19.28 20.26-5.14 2.32-7.95 2.9-15.3 3.14-5.7.2-10.54-.2-13.2-1.08zm8.9-10.27c3.74-3.4 1.98-5.96-10.05-14.7-6.94-5.05-8.56-5.48-11.32-2.98-3.77 3.42-1.5 11.2 4.6 15.87 6.13 4.66 12.8 5.4 16.76 1.8zm17.1 1.05c7.82-3.94 11.96-10.93 9.7-16.37-2.12-5.13-4.04-4.88-13.5 1.8-7.64 5.4-10.5 8.35-10.5 10.83 0 4.86 7.97 6.95 14.3 3.75zm-8.97-13.75c6.46-2.7 10.85-10.8 9.27-17.1-.94-3.77-6.26-9.27-10.2-10.57-10-3.3-20.9 6.27-18.94 16.62 1.2 6.38 7.93 11.98 14.83 12.33.97.06 3.24-.52 5.03-1.27zm-11.35-7.45c-3.1-2.5-3.15-9.46-.1-12.5 2.97-2.97 9.33-2.92 12.35.1 3.16 3.16 3.1 9.73-.1 12.32-3 2.44-9.2 2.48-12.15.08zm-15.68-.43c1.78-1.32 7.7-17.66 7.7-21.24 0-3.03-1.9-4.5-5.83-4.5-7.2 0-13.77 11.68-11.28 20 1.1 3.7 4.23 7 6.64 7 .6 0 1.84-.56 2.76-1.25zm49.25-1.2c1.96-1.97 2.46-3.48 2.46-7.54 0-6.4-1.84-10.86-5.93-14.3-5.27-4.43-11.06-3.25-11.06 2.24 0 3.48 4.9 18.15 6.8 20.3 2.1 2.44 4.86 2.2 7.75-.7zm-15.02-23.57c1.72-1.9 1.73-2.23.2-5.46-2.1-4.38-6.8-6.8-13.22-6.8-6.4 0-11.12 2.42-13.2 6.8-1.55 3.23-1.54 3.55.2 5.46 1.6 1.8 3.05 2.02 13 2.02 9.97 0 11.4-.22 13.03-2.02zM164 275.55c-19.9-5.6-34.4-20.8-38.55-40.42-1.8-8.45-1.78-13.9.07-22.63 8.72-41.35 60.52-56.54 90.6-26.57 11.4 11.34 16.58 25.07 15.55 41.07-1.54 23.83-16.75 42.4-39.7 48.52-6.6 1.76-21.77 1.77-27.96.03zm32.3-11.3c28.7-13.48 35.52-49.04 13.7-71.35-10.17-10.38-24.37-15.28-38.13-13.15-35.74 5.53-51.1 48.03-26.68 73.85 10.1 10.7 19.55 14.58 34.3 14.14 8.8-.26 10.82-.68 16.8-3.48zm-30-3.65c-27.3-8.9-35.88-43.86-15.72-64.02 18.02-18.02 50.47-13.25 61.75 9.08 9.93 19.66 2.37 42.96-17.05 52.52-5.72 2.82-7.75 3.27-15.67 3.52-5.73.17-10.65-.23-13.3-1.1zm26.2-9.5c6.25-2.87 10.5-8.62 10.5-14.17 0-2-3.27-5.93-4.93-5.93-1.27 0-13.9 8.6-17.3 11.8-3.46 3.23-3.5 5.48-.13 8.13 3.24 2.54 6.63 2.6 11.87.18zm-17.45-.93c3.83-3.1 2.07-6.07-7.7-13-4.8-3.4-9.37-6.17-10.2-6.17-2.63 0-5.14 3.18-5.14 6.5 0 4.08 4.64 10.58 9.13 12.8 4.55 2.23 11.07 2.17 13.92-.13zm10.9-14.06c11.65-8.28 7.62-25.27-6.37-26.85-10.12-1.14-18.8 9.44-15.64 19.04 2.92 8.84 14.68 13.02 22 7.8zm-13.2-5.35c-3.8-2.9-4.22-10.1-.76-13.23.96-.9 3.3-1.86 5.2-2.17 5.2-.84 9.26 2.96 9.26 8.65 0 3.2-.56 4.66-2.34 6.1-2.68 2.18-8.9 2.53-11.38.65zm-16-1.7c2.1-2.28 7.26-17.42 7.26-21.4 0-3.73-3.8-5.18-8.48-3.22-5.2 2.17-8.94 8.57-8.94 15.3 0 4.93.33 5.8 3.23 8.38 3.83 3.42 4.55 3.52 6.94.95zm48.8-.5c2.02-2.03 2.46-3.45 2.46-8.06 0-3.08-.65-6.88-1.46-8.43-4.56-8.82-15.53-11.02-15.53-3.13 0 3.48 4.9 18.15 6.8 20.3 2.1 2.44 4.86 2.2 7.75-.7zm-15.5-23.38c1.9-1.55 2.1-2.25 1.27-4.75-1.15-3.46-6.16-7.1-11.02-8.03-9.67-1.82-20.7 7.2-15.35 12.55 1.8 1.8 3.3 2.05 12.45 2.05 8.56 0 10.78-.32 12.64-1.83zm-82.77-34.6C83.46 164.78 67 143.36 67 118.16c0-14.14 5.12-26.3 15.48-36.78 10-10.12 20.18-14.85 34.4-15.98 35.45-2.83 63.95 29.1 56.73 63.58-4.33 20.7-19 36.22-39.23 41.5-6.9 1.8-19.83 1.82-27.1.06zm26.9-9.55c16.2-5 28.12-18.8 30.92-35.78 4.77-28.88-22.16-55.4-51.18-50.43-13.2 2.27-23.73 9.2-30.97 20.4-15.58 24.1-3.63 56.26 24.54 66 6.92 2.4 18.6 2.32 26.7-.18zm-24.24-5.4c-10.66-2.86-21.16-12.26-24.9-22.28-8.97-23.96 4.5-48.07 29.23-52.37 16.98-2.96 33.95 5.55 41.4 20.76 2.32 4.75 2.84 7.3 3.15 15.23.42 10.76-1.4 17.42-6.84 24.92-8.68 11.98-26.72 17.88-42.04 13.75zm28.02-10.97c2.27-1.5 4.7-4.38 6.03-7.12 1.9-3.97 2.05-5 1-7.53-2-4.88-4.38-4.75-12.24.65-3.87 2.67-8.3 6.02-9.86 7.46l-2.8 2.62-2.3-2.46c-3.67-3.93-16-12.26-18.14-12.26-1.84 0-1.86-.12-.3-1.84 1.78-1.96 7.65-18.34 7.65-21.33 0-2.55-4.37-5.16-7.2-4.3-3.42 1.04-6.83 4.47-8.9 8.97-3.34 7.24-1.96 14.38 3.32 17.1 2.34 1.22 2.65 1.8 1.8 3.37-3.98 7.44 3.78 17.82 14.07 18.8 4.23.42 5.37.14 7.46-1.82 2.2-2.06 2.6-2.14 3.7-.76 3.58 4.48 10.33 4.66 16.7.45zm-9.14-13.68c4.28-2.6 7.62-9.82 6.74-14.55-1.2-6.43-8.25-12.42-14.6-12.42-9.3 0-16.8 9.47-14.58 18.37.8 3.12 5.3 8.55 8.04 9.66 3.9 1.57 10.94 1.05 14.4-1.06zm-13.5-5.47c-1.2-.83-2.46-2.88-2.83-4.57-1.85-8.37 7.17-14.13 13.87-8.86 3.52 2.77 3.77 9.8.45 12.9-2.62 2.43-8.4 2.7-11.5.53zm33.1-2.58c6.28-7.47-.23-23.92-9.48-23.92-2.6 0-5.93 2.18-5.93 3.9 0 .42 1.36 4.97 3 10.1 4.36 13.54 7.36 15.94 12.42 9.92zm-16.35-21.96c2.34-1.25 2.56-5.62.44-8.66-.82-1.17-3.5-2.9-5.95-3.84-6.42-2.45-12.9-1.32-17.23 3.03-3.86 3.84-4.2 6.76-1.1 8.94 2.63 1.83 20.66 2.23 23.85.52zm91.04 69.52c-7.87-2.2-12.9-4.68-19.07-9.34-26.2-19.84-27.86-59.73-3.4-82.08 9.16-8.37 23.83-14.03 36.38-14.03 13.8 0 28.18 6 38.12 15.9 27.57 27.47 17.46 74.32-18.97 87.86-8.5 3.16-24.8 4-33.04 1.68zm32.2-11.23c28.62-13.43 35.56-49.5 13.7-71.4-10.4-10.42-25.1-15.44-38.5-13.14-19.53 3.35-34.4 18.06-37.7 37.26-2.3 13.4 1.76 26.12 11.76 36.92 5.53 5.97 14.2 11.36 21.06 13.06 2.14.53 8.16.86 13.4.73 8.3-.2 10.34-.63 16.27-3.42zm-30.46-4.1c-7.27-2.42-11.76-5.22-16.2-10.14-13.8-15.27-13.43-39.26.84-53.53 14.6-14.6 40.38-14.67 54.9-.14 18.62 18.6 13.37 50.57-10.13 61.8-8.6 4.1-20.63 4.92-29.4 2zm26.88-9.25c7.8-3.78 12.2-12.3 8.95-17.3-1.5-2.3-1.47-2.43.86-3.02 4.87-1.22 7.08-10.8 4.1-17.9-3.8-9.1-15.62-11.93-15.62-3.74 0 3.35 4.87 18.16 6.57 19.96 1.1 1.2.73 1.7-2.37 3.26-5.8 2.9-16.66 12.2-17 14.5-.38 2.63 4.08 6.34 7.63 6.34 1.4 0 4.5-.95 6.9-2.1zm-17.7-.9c3.7-3.73 2.62-5.63-7.5-12.98-8.38-6.08-10.88-6.9-13.55-4.5-4.3 3.9-1.08 12.5 6.36 16.96 5.3 3.16 11.8 3.4 14.68.52zm11.1-14.27c12.76-8.54 5.62-28.2-9.64-26.48-5.45.6-8.9 3.17-11.58 8.56-2.37 4.8-2.15 9.63.6 13.85 4.2 6.37 14.2 8.36 20.6 4.08zm-13.3-4.77c-.9-.54-2.16-2.48-2.77-4.33-1.33-4.03-.2-7.72 3.12-10.03 7.26-5.1 16.54 3.26 12.44 11.2-.83 1.63-2.25 3.24-3.14 3.58-2.4.92-7.72.7-9.63-.42zm-16.36-1.92c2.2-2.44 7.55-17.47 7.55-21.27 0-3.84-3.64-5.57-7.97-3.78-9.47 3.9-12.95 18.52-5.83 24.5 3.57 3 4 3.05 6.26.54zm33.6-24.1c2.1-2.1 1.96-4.87-.43-7.85-1.7-2.13-8.73-5.06-12.12-5.06-3.4 0-10.42 2.93-12.12 5.05-2.38 2.97-2.53 5.74-.43 7.85 1.8 1.8 3.3 2.05 12.56 2.05 9.26 0 10.75-.25 12.56-2.05z"/><path fill="#881d22" d="M54.12 442.96c-28.08-7.4-48.97-29.64-53.1-56.55-.73-4.7-.98-57.88-.8-167.9l.3-161 2.7-8c7.15-20.95 22.08-36.36 42.8-44.16 4.68-1.76 12.33-3.7 17-4.32 5.94-.78 42.4-1.02 121.5-.8l113 .32 7.46 2.3c28.78 8.83 47.73 29.88 52.03 57.8.73 4.66.98 58.23.8 166.86l-.3 160-2.34 7c-4.06 12.08-9.05 20.4-17.14 28.6-8.54 8.62-17.88 14.5-29.5 18.6l-8 2.8-119.5.2c-115.6.2-119.76.15-126.9-1.74zm248.4-3.23c19.1-5.53 36.32-19.4 44.3-35.73 7.74-15.8 7.2-1.94 7.17-180.96-.02-177.75.38-166.53-6.57-180.63C339 25.37 323.17 12.36 303.5 6.34c-5.67-1.73-12.4-1.83-125-1.83h-119l-8 2.72c-11.2 3.8-19.7 9.1-27.94 17.35-7.78 7.8-12.46 14.97-16.43 25.2L4.5 56.5v331l2.42 7.37c6.03 18.4 23.24 35.8 42.26 42.74 11.52 4.2 13.2 4.25 132.83 4.06 105.37-.18 114.98-.33 120.5-1.93zm-196.26-61.28c-6.8-1.83-11.55-4.3-18.57-9.63-25.27-19.2-27.7-56.7-5.13-79.28 10.7-10.7 23.48-15.9 38.94-15.83 15.32.06 28.2 5.8 38.9 17.36 27.14 29.3 13.67 75.75-25.33 87.33-6.7 1.98-21.53 2-28.8.05zm28.3-9c6.68-1.84 16.2-8.1 20.74-13.63 22.22-27.13 6.75-67.6-27.92-73-27-4.2-51.3 16.78-51.36 44.34-.03 17.03 9.9 32.7 25.26 39.88 10.52 4.92 21.35 5.7 33.27 2.4zm-25.05-5.8c-13.3-4.4-22.66-14.3-26.08-27.67-4.4-17.2 4.07-35.18 20.4-43.2 6.24-3.08 7.3-3.28 17.17-3.28 9.6 0 11.02.25 16.5 2.94 7.63 3.75 14.9 11 18.32 18.32 2.38 5.1 2.7 6.93 2.7 16.24 0 9.6-.27 11-2.96 16.5-3.66 7.47-10.76 14.5-18.3 18.1-4.7 2.27-7.38 2.82-14.75 3.07-5.58.2-10.5-.2-13-1zm8.58-10.22c1.7-1.54 2-1.5 4.5.46 6.45 5.05 18.2.4 22.1-8.76 1.67-3.9.96-8.67-1.5-10.1-1.4-.82-1.22-1 1-1 4.04-.06 6.83-4.23 6.83-10.2 0-6.3-1.88-10.73-6.06-14.24-2.74-2.3-4-2.72-7.08-2.3-3.7.5-3.75.44-4.05-3.12-.76-9.13-18.04-12.04-25.04-4.22-1.52 1.7-2.75 3.96-2.75 5.05 0 1.7-.67 2-4.38 2-3.6 0-4.93.56-7.5 3.2-6.8 6.95-6.83 18.57-.06 22.7 1.85 1.1 2.67 2.15 2.03 2.55-.6.36-1.1 2.56-1.1 4.87 0 6.9 3.96 11.48 13 15.02 2.43.95 8.1-.12 10.08-1.9zm1.3-5.75c-1.25-2.2-17.22-13.68-19.06-13.68-1.13 0-1.12-.38.05-2.25 2.4-3.8 6.87-18.75 6.4-21.27-.42-2.1-.24-2.27 1.47-1.36 1.14.6 6.82.9 13.73.7 8.95-.24 11.67-.03 11.32.9-.5 1.27 5.35 20 6.83 21.87.55.7-.03 1.5-1.58 2.2-3.64 1.65-17.3 11.95-17.78 13.4-.28.85-.72.7-1.4-.52zm8.25-7.74c4.53-2.2 8.4-8.22 8.35-13-.04-4.86-3.62-10.72-7.86-12.88-13.2-6.74-26.45 5.62-20.73 19.32 3.15 7.57 12.13 10.48 20.23 6.56zm-12.6-6.92c-4.48-4.48-3.3-11.18 2.4-13.56 3.83-1.6 5.96-1.17 9.33 1.86 3.1 2.8 3.07 8.56-.07 11.5-3.02 2.83-8.94 2.93-11.67.2zM222.7 378.5c-14.24-3.92-27.88-15.35-34.17-28.63-11.64-24.6-3.37-52.9 19.9-68.04 15.9-10.36 37.15-10.98 54.8-1.6C279.18 288.66 291 308.57 291 327c0 23.43-17.1 45.43-40.1 51.55-6.6 1.75-21.7 1.73-28.18-.05zm26.8-8.7c18.48-4.66 32.5-23.12 32.5-42.8 0-27-24.52-48.13-51.24-44.17-36.55 5.43-51.52 49.5-25.62 75.45 11.55 11.57 27.6 15.74 44.35 11.52zm-25-6.55c-13.5-4.85-22.9-15.93-25.46-30.06-2.98-16.44 6.2-33.74 21.8-41.04 5-2.35 6.9-2.66 16.17-2.66 9.3 0 11.17.3 16.18 2.66 11.6 5.44 20.72 17.8 22.27 30.2 1.98 15.92-7.06 31.9-22.27 39.34-7.32 3.58-20.96 4.32-28.67 1.55zm9.7-9.92c3.7-3.35 2.35-5.96-6.42-12.38-4.53-3.32-9.24-6.28-10.46-6.6-2.03-.5-2.1-.74-.83-2.7 1.7-2.65 6.48-17.4 6.5-20.15 0-1.9.68-2 13.5-2H250v3.07c0 3.05 3.74 15.2 5.95 19.32.95 1.77.84 2.24-.65 2.78-1 .35-5.5 3.3-10.04 6.55-7.06 5.05-8.25 6.32-8.25 8.78 0 9.14 16.8 7.32 22.52-2.44 3-5.13 3.16-8.88.5-11.56-2-2-2-2 .4-2 6.5 0 8.96-12.28 4.12-20.53-2.73-4.67-7.04-7.02-11.3-6.17-2.47.5-2.74.26-2.84-2.4-.15-4.13-3.75-7.55-9.32-8.9-8.95-2.13-18.2 2.23-18.47 8.7-.1 2.66-.3 2.78-4.34 2.45-3.73-.3-4.67.06-7.65 3.04-3.14 3.14-5.58 8.84-5.6 13.08 0 3.36 2.9 8.7 5.33 9.82 2.14.97 2.3 1.43 1.4 3.8-4.15 11.02 13.88 24.2 22.46 16.43zm9.77-13.58c13.1-6.72 9.34-25.84-5.4-27.5-11.92-1.34-20.13 10.84-14.62 21.65 1.57 3.07 3.33 4.77 6.36 6.15 5.5 2.5 8.35 2.43 13.67-.3zm-12.64-7c-3-3.34-3.46-5.5-1.92-9.17 3.95-9.44 19.04-4 15.68 5.64-1.4 4.03-3.8 5.7-8.15 5.75-2.47.02-4.2-.67-5.6-2.22zm-67.2-57.33c-26.44-7.1-43.64-33.64-39.14-60.34 2.42-14.37 12.7-29.72 24.6-36.68 16.9-9.9 35.05-10.7 52.25-2.3 17.73 8.68 28.44 24.62 29.8 44.4 1.76 25.15-15.3 48.5-40.2 54.97-7.27 1.9-20.18 1.87-27.33-.05zM195 265.17c30-11.75 37.5-51.18 14.03-73.56-17.8-16.96-45.17-16.6-62.6.83-7.26 7.27-11.2 14.88-12.7 24.58-3.3 21.26 8.96 41.7 29.25 48.78 8.58 3 23.55 2.7 32.03-.6zm-27.5-4.57c-19.2-6.1-30.78-24.3-27.4-43.1 4.66-26 32.84-39.67 56.2-27.25 29.87 15.87 25.76 59.85-6.53 69.9-6.78 2.1-16.4 2.3-22.26.45zm24.2-8.67c3.44-1.3 8-5.5 9.9-9.13 1.83-3.52 1.78-6.82-.15-9.58-1.45-2.07-1.42-2.22.43-2.22 3.47 0 6.13-4.63 6.13-10.68 0-9.92-5.55-16.86-12.92-16.16-3.38.32-3.67.16-3.28-1.9.68-3.54-5.34-8.92-10.93-9.76-8.87-1.33-17.02 3.1-17.26 9.36-.08 2.5-.36 2.8-1.9 1.97-6.1-3.26-15.66 6.75-15.7 16.45 0 3.4 2.92 8.72 5.4 9.86 2.02.9 2.33 1.5 1.57 2.93-2.63 4.9.45 12.27 6.96 16.65 7 4.72 17.78 2.24 16.9-3.88-.37-2.66-15.98-14.84-19.02-14.84-1.68 0-1.7-.2-.38-2.25 1.78-2.73 6.56-17.46 6.57-20.25 0-1.9.68-2 13.5-2H191l.02 2.5c0 2.55 4.27 16.8 5.97 19.96.72 1.38.4 2-1.48 2.85-1.33.62-5.8 3.62-9.96 6.7-6.4 4.7-7.55 6.02-7.55 8.48 0 5.18 6.7 7.6 13.7 4.95zm-5.05-16.03c10.56-6.5 7.06-24.18-5.25-26.5-14.66-2.74-23.98 13.03-14.24 24.12 5 5.7 12.58 6.62 19.5 2.38zm-14.47-6.22c-2.14-2.27-2.83-6.8-1.55-10.14.96-2.5 6.13-4.75 9.35-4.05 9.66 2.1 7.94 16.5-1.97 16.5-2.52 0-4.32-.72-5.82-2.32zm-65.05-59.26c-23.12-6.22-40.16-28.05-40.1-51.38C67.04 104.36 72.42 91.6 83 81c16.77-16.8 41.84-20.56 62.94-9.47 17.72 9.32 28.53 27.36 28.43 47.47-.06 11.2-2.78 20.27-8.82 29.37-12.28 18.5-36.98 27.82-58.42 22.05zm32.94-11.55c18.2-8.65 28.27-27.53 25.05-47-1.65-10-5.4-17.3-12.54-24.44-22.15-22.15-58.95-15.9-72.34 12.3-2.92 6.13-3.57 8.78-4 16.1-1.2 21.23 10.6 38.72 30.53 45.28 4.4 1.46 8.07 1.84 15.74 1.63 9.13-.24 10.67-.58 17.57-3.86zm-31.16-3.7c-10.7-3.55-18.04-10.1-23-20.56-11.08-23.37 4.35-50.48 30.8-54.07 15.3-2.07 32.25 7.58 39.15 22.3 2.35 5 2.66 6.88 2.65 16.17 0 9.42-.3 11.07-2.76 16.1-3.46 7.07-11.95 15.2-19.48 18.64-7.63 3.5-19.23 4.1-27.35 1.42zm26.65-9.05c7.76-3.53 12-11.33 9.2-16.95-1.38-2.75-1.33-2.9 1.4-3.92 5.14-1.94 6.5-11.25 2.75-18.96-2.38-4.94-6.5-7.57-11.1-7.1-5.2.5-5.6 2.6-2.4 12.5 1.58 4.84 3.45 9.97 4.18 11.4 1.24 2.43 1.15 2.7-1.23 3.8-4 1.8-15.2 10.05-16.82 12.37-1.3 1.86-1.52 1.9-2.1.4-.98-2.55-16.9-13.67-19.58-13.7-1.33 0-1.87-.32-1.24-.74.6-.4 1.6-1.7 2.23-2.88 1.5-2.84 6.15-17.45 6.16-19.35 0-1.27 1.8-1.45 11.4-1.17 13.44.4 15.6-.34 15.6-5.28 0-9.5-18.17-12.86-25.7-4.74-1.65 1.8-2.33 3.5-2.07 5.27.36 2.45.22 2.54-2.3 1.6-6.2-2.35-13.8 4.97-14.66 14.1-.56 6.06.9 9.75 4.8 12.12 1.84 1.1 2.66 2.15 2.02 2.55-.6.36-1.1 2.65-1.1 5.07 0 7.66 7.7 14.48 16.35 14.48 2.8 0 5.26-.67 6.68-1.82 2.2-1.77 2.3-1.76 4.57.5 2.84 2.84 7.32 3 12.95.44zm-5.14-16.17c10.8-9.47 4.36-25.96-10.1-25.95-10.64 0-17.4 11.65-12.62 21.7 2.37 5 6.6 7.3 13.54 7.3 4.95 0 6.18-.4 9.2-3.05zm-15.9-6.13c-3.24-3.87-2.85-8.13 1.06-11.57 2.98-2.62 5.43-2.83 9.37-.8 7.48 3.88 4.26 15.55-4.3 15.55-2.65 0-4.07-.74-6.12-3.18zm108 46.3c-17.26-4.95-30.8-17.85-36.67-34.93-3.34-9.73-3.18-23.93.38-33.92 5-14 14.85-24.67 28.82-31.2 28.2-13.2 62.8 1.8 73.07 31.65 9.9 28.8-7.8 60.96-37.8 68.78-7.5 1.96-20.3 1.8-27.8-.37zm28.8-9.13c25.83-8 38.2-38.53 25.6-63.24-2.95-5.76-11.92-14.92-17.72-18.07-13.2-7.2-30-7.42-43.4-.58-5.77 2.94-14.93 11.9-18.08 17.7-13.35 24.53-1.76 55.02 24.28 63.9 8.63 2.94 20.32 3.05 29.33.27zm-24.8-5.35c-14.97-4.96-24.78-15.95-27.52-30.82-4.57-24.8 19-48.4 43.96-44 22.14 3.9 36.96 25.42 31.68 46.02-3.27 12.77-10 21.1-21.37 26.4-5.38 2.53-8.2 3.2-14.7 3.43-4.82.18-9.64-.23-12.04-1.03zm24.27-9.2c9.02-3.77 13.67-12.53 9.68-18.23-1.45-2.07-1.42-2.22.43-2.22 3.47 0 6.13-4.63 6.13-10.68 0-9.92-5.55-16.86-12.92-16.16-3.38.32-3.67.16-3.28-1.9.3-1.57-.58-3.25-3-5.66-6.07-6.08-17.9-5.83-23.22.5-3.24 3.84-3.26 6.4-.08 8.48 2.03 1.33 4.6 1.57 14 1.27l11.5-.37.02 2.5c.02 2.74 4.05 16.4 5.8 19.7.94 1.72.74 2.2-1.3 3.13-1.33.62-5.84 3.64-10.02 6.74-6.97 5.15-7.58 5.9-7.3 8.77.52 5.3 6.48 7.12 13.57 4.15zm-16.34-1.37c3.15-3.48 1.62-6.15-7.34-12.82-5.14-3.8-9.44-6.27-11-6.3-2.17-.02-2.32-.18-.93-1 2.1-1.22 8.1-18.94 7.66-22.66-.74-6.4-10.54-4.72-14.57 2.48-4.48 8-3.7 16.76 1.78 20.1 2.1 1.26 2.6 2.1 1.9 3.17-2.77 4.4.56 12.34 7 16.67 4.44 3 12.92 3.2 15.5.36zM245 131.34c3.62-2.14 7-8.18 7-12.48 0-8-6.78-14.86-14.7-14.86-14.26 0-20.47 16.5-9.75 25.9 3.04 2.67 4.3 3.1 9.1 3.1 3.37 0 6.65-.65 8.36-1.66zm-12.83-5.94c-3.48-2.43-4.4-5.88-2.7-9.96 3.55-8.5 15.94-5.98 15.94 3.24 0 6.6-7.76 10.55-13.23 6.72z"/><path fill="#0f1938" d="M54.12 442.96c-28.08-7.4-48.97-29.64-53.1-56.55-.73-4.7-.98-57.88-.8-167.9l.3-161 2.7-8c7.15-20.95 22.08-36.36 42.8-44.16 4.68-1.76 12.33-3.7 17-4.32 5.94-.78 42.4-1.02 121.5-.8l113 .32 7.46 2.3c28.78 8.83 47.73 29.88 52.03 57.8.73 4.66.98 58.23.8 166.86l-.3 160-2.34 7c-4.06 12.08-9.05 20.4-17.14 28.6-8.54 8.62-17.88 14.5-29.5 18.6l-8 2.8-119.5.2c-115.6.2-119.76.15-126.9-1.74zm248.4-3.23c19.1-5.53 36.32-19.4 44.3-35.73 7.74-15.8 7.2-1.94 7.17-180.96-.02-177.75.38-166.53-6.57-180.63C339 25.37 323.17 12.36 303.5 6.34c-5.67-1.73-12.4-1.83-125-1.83h-119l-8 2.72c-11.2 3.8-19.7 9.1-27.94 17.35-7.78 7.8-12.46 14.97-16.43 25.2L4.5 56.5v331l2.42 7.37c6.03 18.4 23.24 35.8 42.26 42.74 11.52 4.2 13.2 4.25 132.83 4.06 105.37-.18 114.98-.33 120.5-1.93zm-196.26-61.28c-6.8-1.83-11.55-4.3-18.57-9.63-25.27-19.2-27.7-56.7-5.13-79.28 10.7-10.7 23.48-15.9 38.94-15.83 15.32.06 28.2 5.8 38.9 17.36 27.14 29.3 13.67 75.75-25.33 87.33-6.7 1.98-21.53 2-28.8.05zm28.3-9c6.68-1.84 16.2-8.1 20.74-13.63 22.22-27.13 6.75-67.6-27.92-73-27-4.2-51.3 16.78-51.36 44.34-.03 17.03 9.9 32.7 25.26 39.88 10.52 4.92 21.35 5.7 33.27 2.4zm-25.05-5.8c-13.3-4.4-22.66-14.3-26.08-27.67-4.4-17.2 4.07-35.18 20.4-43.2 6.24-3.08 7.3-3.28 17.17-3.28 9.6 0 11.02.25 16.5 2.94 7.63 3.75 14.9 11 18.32 18.32 2.38 5.1 2.7 6.93 2.7 16.24 0 9.6-.27 11-2.96 16.5-3.66 7.47-10.76 14.5-18.3 18.1-4.7 2.27-7.38 2.82-14.75 3.07-5.58.2-10.5-.2-13-1zm8.58-10.22c1.7-1.54 2-1.5 4.5.46 6.45 5.05 18.2.4 22.1-8.76 1.67-3.9.96-8.67-1.5-10.1-1.4-.82-1.22-1 1-1 4.04-.06 6.83-4.23 6.83-10.2 0-6.3-1.88-10.73-6.06-14.24-2.74-2.3-4-2.72-7.08-2.3-3.7.5-3.75.44-4.05-3.12-.76-9.13-18.04-12.04-25.04-4.22-1.52 1.7-2.75 3.96-2.75 5.05 0 1.7-.67 2-4.38 2-3.6 0-4.93.56-7.5 3.2-6.8 6.95-6.83 18.57-.06 22.7 1.85 1.1 2.67 2.15 2.03 2.55-.6.36-1.1 2.56-1.1 4.87 0 6.9 3.96 11.48 13 15.02 2.43.95 8.1-.12 10.08-1.9zm1.3-5.75c-1.25-2.2-17.22-13.68-19.06-13.68-1.13 0-1.12-.38.05-2.25 2.4-3.8 6.87-18.75 6.4-21.27-.42-2.1-.24-2.27 1.47-1.36 1.14.6 6.82.9 13.73.7 8.95-.24 11.67-.03 11.32.9-.5 1.27 5.35 20 6.83 21.87.55.7-.03 1.5-1.58 2.2-3.64 1.65-17.3 11.95-17.78 13.4-.28.85-.72.7-1.4-.52zm8.25-7.74c4.53-2.2 8.4-8.22 8.35-13-.04-4.86-3.62-10.72-7.86-12.88-13.2-6.74-26.45 5.62-20.73 19.32 3.15 7.57 12.13 10.48 20.23 6.56zm-12.6-6.92c-4.48-4.48-3.3-11.18 2.4-13.56 3.83-1.6 5.96-1.17 9.33 1.86 3.1 2.8 3.07 8.56-.07 11.5-3.02 2.83-8.94 2.93-11.67.2zM222.7 378.5c-14.24-3.92-27.88-15.35-34.17-28.63-11.64-24.6-3.37-52.9 19.9-68.04 15.9-10.36 37.15-10.98 54.8-1.6C279.18 288.66 291 308.57 291 327c0 23.43-17.1 45.43-40.1 51.55-6.6 1.75-21.7 1.73-28.18-.05zm26.8-8.7c18.48-4.66 32.5-23.12 32.5-42.8 0-27-24.52-48.13-51.24-44.17-36.55 5.43-51.52 49.5-25.62 75.45 11.55 11.57 27.6 15.74 44.35 11.52zm-25-6.55c-13.5-4.85-22.9-15.93-25.46-30.06-2.98-16.44 6.2-33.74 21.8-41.04 5-2.35 6.9-2.66 16.17-2.66 9.3 0 11.17.3 16.18 2.66 11.6 5.44 20.72 17.8 22.27 30.2 1.98 15.92-7.06 31.9-22.27 39.34-7.32 3.58-20.96 4.32-28.67 1.55zm9.7-9.92c3.7-3.35 2.35-5.96-6.42-12.38-4.53-3.32-9.24-6.28-10.46-6.6-2.03-.5-2.1-.74-.83-2.7 1.7-2.65 6.48-17.4 6.5-20.15 0-1.9.68-2 13.5-2H250v3.07c0 3.05 3.74 15.2 5.95 19.32.95 1.77.84 2.24-.65 2.78-1 .35-5.5 3.3-10.04 6.55-7.06 5.05-8.25 6.32-8.25 8.78 0 9.14 16.8 7.32 22.52-2.44 3-5.13 3.16-8.88.5-11.56-2-2-2-2 .4-2 6.5 0 8.96-12.28 4.12-20.53-2.73-4.67-7.04-7.02-11.3-6.17-2.47.5-2.74.26-2.84-2.4-.15-4.13-3.75-7.55-9.32-8.9-8.95-2.13-18.2 2.23-18.47 8.7-.1 2.66-.3 2.78-4.34 2.45-3.73-.3-4.67.06-7.65 3.04-3.14 3.14-5.58 8.84-5.6 13.08 0 3.36 2.9 8.7 5.33 9.82 2.14.97 2.3 1.43 1.4 3.8-4.15 11.02 13.88 24.2 22.46 16.43zm9.77-13.58c13.1-6.72 9.34-25.84-5.4-27.5-11.92-1.34-20.13 10.84-14.62 21.65 1.57 3.07 3.33 4.77 6.36 6.15 5.5 2.5 8.35 2.43 13.67-.3zm-12.64-7c-3-3.34-3.46-5.5-1.92-9.17 3.95-9.44 19.04-4 15.68 5.64-1.4 4.03-3.8 5.7-8.15 5.75-2.47.02-4.2-.67-5.6-2.22zm-67.2-57.33c-26.44-7.1-43.64-33.64-39.14-60.34 2.42-14.37 12.7-29.72 24.6-36.68 16.9-9.9 35.05-10.7 52.25-2.3 17.73 8.68 28.44 24.62 29.8 44.4 1.76 25.15-15.3 48.5-40.2 54.97-7.27 1.9-20.18 1.87-27.33-.05zM195 265.17c30-11.75 37.5-51.18 14.03-73.56-17.8-16.96-45.17-16.6-62.6.83-7.26 7.27-11.2 14.88-12.7 24.58-3.3 21.26 8.96 41.7 29.25 48.78 8.58 3 23.55 2.7 32.03-.6zm-87.87-94.75c-23.12-6.22-40.16-28.05-40.1-51.38C67.04 104.36 72.42 91.6 83 81c16.77-16.8 41.84-20.56 62.94-9.47 17.72 9.32 28.53 27.36 28.43 47.47-.06 11.2-2.78 20.27-8.82 29.37-12.28 18.5-36.98 27.82-58.42 22.05zm32.94-11.55c18.2-8.65 28.27-27.53 25.05-47-1.65-10-5.4-17.3-12.54-24.44-22.15-22.15-58.95-15.9-72.34 12.3-2.92 6.13-3.57 8.78-4 16.1-1.2 21.23 10.6 38.72 30.53 45.28 4.4 1.46 8.07 1.84 15.74 1.63 9.13-.24 10.67-.58 17.57-3.86zm-31.16-3.7c-10.7-3.55-18.04-10.1-23-20.56-11.08-23.37 4.35-50.48 30.8-54.07 15.3-2.07 32.25 7.58 39.15 22.3 2.35 5 2.66 6.88 2.65 16.17 0 9.42-.3 11.07-2.76 16.1-3.46 7.07-11.95 15.2-19.48 18.64-7.63 3.5-19.23 4.1-27.35 1.42zm26.65-9.05c7.76-3.53 12-11.33 9.2-16.95-1.38-2.75-1.33-2.9 1.4-3.92 5.14-1.94 6.5-11.25 2.75-18.96-2.38-4.94-6.5-7.57-11.1-7.1-5.2.5-5.6 2.6-2.4 12.5 1.58 4.84 3.45 9.97 4.18 11.4 1.24 2.43 1.15 2.7-1.23 3.8-4 1.8-15.2 10.05-16.82 12.37-1.3 1.86-1.52 1.9-2.1.4-.98-2.55-16.9-13.67-19.58-13.7-1.33 0-1.87-.32-1.24-.74.6-.4 1.6-1.7 2.23-2.88 1.5-2.84 6.15-17.45 6.16-19.35 0-1.27 1.8-1.45 11.4-1.17 13.44.4 15.6-.34 15.6-5.28 0-9.5-18.17-12.86-25.7-4.74-1.65 1.8-2.33 3.5-2.07 5.27.36 2.45.22 2.54-2.3 1.6-6.2-2.35-13.8 4.97-14.66 14.1-.56 6.06.9 9.75 4.8 12.12 1.84 1.1 2.66 2.15 2.02 2.55-.6.36-1.1 2.65-1.1 5.07 0 7.66 7.7 14.48 16.35 14.48 2.8 0 5.26-.67 6.68-1.82 2.2-1.77 2.3-1.76 4.57.5 2.84 2.84 7.32 3 12.95.44zm-5.14-16.17c10.8-9.47 4.36-25.96-10.1-25.95-10.64 0-17.4 11.65-12.62 21.7 2.37 5 6.6 7.3 13.54 7.3 4.95 0 6.18-.4 9.2-3.05zm-15.9-6.13c-3.24-3.87-2.85-8.13 1.06-11.57 2.98-2.62 5.43-2.83 9.37-.8 7.48 3.88 4.26 15.55-4.3 15.55-2.65 0-4.07-.74-6.12-3.18zm108 46.3c-17.26-4.95-30.8-17.85-36.67-34.93-3.34-9.73-3.18-23.93.38-33.92 5-14 14.85-24.67 28.82-31.2 28.2-13.2 62.8 1.8 73.07 31.65 9.9 28.8-7.8 60.96-37.8 68.78-7.5 1.96-20.3 1.8-27.8-.37zm28.8-9.13c25.83-8 38.2-38.53 25.6-63.24-2.95-5.76-11.92-14.92-17.72-18.07-13.2-7.2-30-7.42-43.4-.58-5.77 2.94-14.93 11.9-18.08 17.7-13.35 24.53-1.76 55.02 24.28 63.9 8.63 2.94 20.32 3.05 29.33.27zm-24.8-5.35c-14.97-4.96-24.78-15.95-27.52-30.82-4.57-24.8 19-48.4 43.96-44 22.14 3.9 36.96 25.42 31.68 46.02-3.27 12.77-10 21.1-21.37 26.4-5.38 2.53-8.2 3.2-14.7 3.43-4.82.18-9.64-.23-12.04-1.03zm24.27-9.2c9.02-3.77 13.67-12.53 9.68-18.23-1.45-2.07-1.42-2.22.43-2.22 3.47 0 6.13-4.63 6.13-10.68 0-9.92-5.55-16.86-12.92-16.16-3.38.32-3.67.16-3.28-1.9.3-1.57-.58-3.25-3-5.66-6.07-6.08-17.9-5.83-23.22.5-3.24 3.84-3.26 6.4-.08 8.48 2.03 1.33 4.6 1.57 14 1.27l11.5-.37.02 2.5c.02 2.74 4.05 16.4 5.8 19.7.94 1.72.74 2.2-1.3 3.13-1.33.62-5.84 3.64-10.02 6.74-6.97 5.15-7.58 5.9-7.3 8.77.52 5.3 6.48 7.12 13.57 4.15zm-16.34-1.37c3.15-3.48 1.62-6.15-7.34-12.82-5.14-3.8-9.44-6.27-11-6.3-2.17-.02-2.32-.18-.93-1 2.1-1.22 8.1-18.94 7.66-22.66-.74-6.4-10.54-4.72-14.57 2.48-4.48 8-3.7 16.76 1.78 20.1 2.1 1.26 2.6 2.1 1.9 3.17-2.77 4.4.56 12.34 7 16.67 4.44 3 12.92 3.2 15.5.36zM245 131.34c3.62-2.14 7-8.18 7-12.48 0-8-6.78-14.86-14.7-14.86-14.26 0-20.47 16.5-9.75 25.9 3.04 2.67 4.3 3.1 9.1 3.1 3.37 0 6.65-.65 8.36-1.66zm-12.83-5.94c-3.48-2.43-4.4-5.88-2.7-9.96 3.55-8.5 15.94-5.98 15.94 3.24 0 6.6-7.76 10.55-13.23 6.72z"/><path d="M54.8 442.96C30.55 437 11.27 419.26 3.2 395.5l-2.7-8-.28-161C-.06 44.67-.54 56.56 7.64 40c3.9-7.87 6.17-10.96 13.28-18.05 7.1-7.06 10.24-9.37 18.1-13.23C56.87-.08 47.16.5 179 .5 308.68.5 300.78.1 316.3 7.35c18.4 8.58 31.88 23.7 38.46 43.13l2.73 8.02V222c0 153.15-.1 163.9-1.76 169.9-5.58 20.2-19.13 36.37-38.23 45.6-16.4 7.9-9.04 7.5-139.2 7.43-110.2-.07-116.17-.17-123.5-1.97zm248.05-3.18c20.84-6.44 37.34-20.1 45.32-37.54 6.12-13.36 5.8-3.8 5.82-179.33 0-156.57-.04-160.77-1.97-168.3-3.05-11.92-8.24-20.86-17.57-30.24-6.73-6.77-9.67-8.9-17.52-12.67C300.04 3.57 307.54 4 178.8 4c-128.27 0-121.66-.34-137.38 7.42C22.65 20.7 8.67 38.4 5.05 57.5c-.83 4.37-1.06 50.26-.84 169l.3 163 2.63 6.74c9.28 23.87 29.42 40.48 54.1 44.66 2.93.5 56.86.8 120.78.7 104.25-.15 116.03-.33 120.85-1.82z"/></g></g></svg>