<svg xmlns="http://www.w3.org/2000/svg" width="358.396" height="445.87" viewBox="0 0 358.396 445.87012"><g><g><path fill="#c2c5cd" d="M61.33 444.98C32.26 440.08 9.23 419.6 1.76 392 .1 385.92 0 374.97 0 222.5v-163L2.34 52c4.04-12.92 8.7-20.64 18.1-30 9.78-9.72 16.37-13.92 28.8-18.36L58 .5h241l7.5 2.34c26.8 8.37 46.64 29.84 50.97 55.17.8 4.63 1.02 53.2.82 168.5l-.3 162-2.34 7c-6.84 20.48-23.2 37.67-43.03 45.2-13.9 5.27-12.95 5.24-134.13 5.15-61.88-.05-114.6-.44-117.17-.87zM302.1 439c13.13-3.3 21.63-8.2 32-18.48 7.16-7.08 9.9-10.63 12.75-16.52 7.72-15.95 7.15-1.5 7.15-181 0-131.14-.25-161.5-1.35-166-.74-3.02-3.34-9.68-5.8-14.8-6.23-13.03-16.28-23.1-29.5-29.6-17.7-8.7-7.4-8.1-138.35-8.1H63l-7.96 2.3c-12.9 3.75-20.95 8.5-30.6 18.15-9.78 9.8-14.84 18.4-17.97 30.66C4.55 63.14 4.5 67.36 4.5 223s.05 159.88 1.97 167.4c5.95 23.26 25.25 42.3 49.26 48.6 6.94 1.8 12.5 1.9 122.86 1.95 112.22.05 115.8 0 123.5-1.94zM75.84 410.9c-29.87-4.98-48.77-33.3-41.84-62.67 2.1-8.8 5.84-15.7 12.25-22.4 11.16-11.7 21.2-16.07 37.25-16.22 8.5-.06 11.76.35 17.1 2.2 12 4.13 22.76 12.8 27.92 22.53 1.36 2.57 2.7 4.67 2.98 4.67.28 0 1.6-2.05 2.93-4.57 3.24-6.1 11.6-14.45 18.2-18.17 9.17-5.16 15.3-6.72 26.37-6.72 10.98 0 17.2 1.57 26.1 6.57 6.74 3.8 14.77 11.8 18.56 18.54l3.06 5.42 2.08-4.28c3-6.17 15.08-17.78 21.87-21.04 21.03-10.1 44.24-6.3 60.46 9.88 6.42 6.4 11.4 15.14 13.3 23.4 1.44 6.3 1.3 19.55-.3 25.48-4.36 16.37-17.38 30.13-33.63 35.58-8.84 2.96-22.82 2.97-32.07.04-12.22-3.88-24.03-13.52-29.34-23.95l-2.22-4.33-3.62 5.87c-14.3 23.18-43.6 31.36-68.2 19.05-7.2-3.6-16-11.77-20.06-18.65-1.65-2.78-3.23-5.07-3.5-5.08-.28 0-1.57 1.98-2.86 4.43-6.1 11.5-22.55 22.5-36.64 24.5-7.96 1.15-9.04 1.15-16.15-.04zm20.8-10.87c36.06-11.2 39.92-60.03 6.07-76.76-7.42-3.67-7.9-3.77-18.67-3.77-10.35 0-11.48.2-17.8 3.2-8.72 4.13-15.93 11.34-20.05 20.06-2.66 5.62-3.25 8.2-3.54 15.4-.44 10.7 1.34 17.37 6.76 25.46 10.18 15.22 29.47 21.92 47.22 16.4zM71.8 395.2c-16.96-6.05-26.8-22.36-24.3-40.32 4.2-30.04 42.65-42.07 63.44-19.83 7.22 7.7 9.96 14.6 9.94 24.95-.03 15.3-6.92 26.7-20.07 33.17-8.4 4.15-20.66 5-29 2.03zm26.4-9.2c.13 0 1.8-1.37 3.7-3.05 4.67-4.1 6.35-9.15 4.17-12.5-.9-1.34-2.4-2.44-3.34-2.42-.95 0-5.33 2.63-9.73 5.8-6.88 4.98-8 6.2-8 8.73 0 2.47.55 3.12 3.46 4.06 2.2.7 4.58.8 6.5.25 1.66-.48 3.13-.87 3.25-.87zm-17.92-.56c4.5-3.16 2.8-5.76-9.1-13.82-5.46-3.7-7.18-4.42-8.68-3.62-2.6 1.4-3.34 4.44-2.04 8.37 2.67 8.1 13.9 13.23 19.82 9.07zm9.94-13.1c9.43-4.48 9.66-19 .37-23.8-9.84-5.07-21.26 2.8-19.8 13.68.58 4.3 2.6 7.07 7.2 9.92 3.72 2.3 7.64 2.36 12.22.2zm-12.27-5.8c-5.3-5.3-1.6-14.54 5.87-14.54 5.2 0 8.68 3.25 8.68 8.12 0 8-9 11.98-14.55 6.43zm30-.16c2.26-.87 4.55-5.66 4.55-9.5 0-7.48-6.7-15.5-12.22-14.7-4.15.63-4.42 3.1-1.38 12.53 3.57 11.1 5.18 13.17 9.05 11.68zm-43.1-3.13c2.32-4.58 5.95-18.03 5.3-19.7-.85-2.24-6.85-1.97-9.94.46-3.44 2.73-6.13 10-5.38 14.62 1.17 7.2 7.3 10.02 10.02 4.63zm29.72-20.28c2.9-1.56 2.4-5.4-1.1-8.34-5.74-4.83-15.1-4.66-20.12.37-3.23 3.23-3.68 6.42-1.1 7.92 2.3 1.34 19.83 1.38 22.32.05zM191.8 400c24.1-7.46 35.9-34.78 24.97-57.9-3.6-7.64-11.66-15.44-20-19.4-6.35-3-7.46-3.2-17.82-3.2-10.77 0-11.25.1-18.67 3.77-24.1 11.9-30.7 42.36-13.82 63.68C156.4 399.5 175.56 405 191.8 400zm-24.43-4.5c-10.4-3.33-20.08-12.8-23.57-23-1.06-3.1-1.68-7.86-1.64-12.5.1-10.9 3.04-17.88 10.75-25.6 7.86-7.84 14.62-10.58 26.1-10.58 10.54 0 17.68 2.66 24.95 9.3 19.18 17.54 14.97 48.67-8.13 60.04-5.6 2.76-7.83 3.28-15.2 3.53-5.62.18-10.23-.24-13.25-1.2zm26.65-10.25c5.67-3.05 9.2-10.18 7.1-14.4-1.95-3.92-4.6-3.3-13.37 3.14-6.55 4.8-8.25 6.57-8.25 8.58 0 4.67 8.05 6.15 14.52 2.67zm-18.74.2c4.5-3.17 2.8-5.77-9.1-13.83-7.44-5.05-10.03-5.06-11.28-.07-2.25 8.97 12.78 19.22 20.38 13.9zm10.16-13.28c6.54-3.5 8.98-12.5 5.1-18.87-6.96-11.42-25.02-6.3-25.04 7.08 0 10.24 10.86 16.66 19.94 11.8zm-12.5-5.62c-5.38-5.4-1.57-14.55 6.06-14.55 4.88 0 8.5 3.62 8.5 8.5 0 7.64-9.15 11.44-14.55 6.05zm31.37-1.85c4.74-5.03 3.62-14.37-2.35-19.6-3.46-3.05-5.75-3.7-8.87-2.5-2.17.84-2 3.26.98 13 3.5 11.5 5.95 13.68 10.25 9.1zm-41.87-9.26c1.88-5.54 3.13-10.83 2.78-11.75-.93-2.47-6.8-2.2-10.2.47-5.54 4.37-7.3 14.28-3.38 19.25 1.52 1.93 2.85 2.6 4.75 2.4 2.37-.3 2.96-1.3 6.06-10.38zm27.6-12.84c1.58-1.15 1.75-1.9.95-4.15-1.65-4.63-5.82-6.95-12.48-6.95s-10.83 2.32-12.48 6.95c-1.56 4.38 1.06 5.55 12.48 5.55 6.67 0 10.2-.43 11.54-1.4zm101.88 55.6c25.64-12 32.42-45.16 13.46-65.73-9.03-9.8-19.32-13.9-33.32-13.3-7.96.35-10.17.87-15.92 3.7-8.52 4.2-15.57 11.26-19.8 19.83-3.16 6.43-3.32 7.3-3.3 17.78 0 9.82.3 11.65 2.68 16.74 2.94 6.32 10.3 14.78 15.97 18.38 7.48 4.74 14.55 6.5 24.47 6.08 7.64-.33 10.23-.9 15.77-3.5zm-29.15-2.6c-10.62-3.45-19.3-11.8-23.3-22.45-1.76-4.64-2.07-7.25-1.75-14.65.34-7.9.8-9.77 3.74-15.27 5.68-10.6 15.44-17.5 27.04-19.07 17.2-2.36 32.14 5.55 39.42 20.84 2.76 5.8 3.1 7.48 3.08 15.5-.02 7.6-.44 9.88-2.68 14.72-3.73 8-10.5 14.92-18.07 18.38-5.04 2.3-7.86 2.9-14.73 3.1-5.17.16-10.16-.28-12.75-1.1zm27.46-11.1c5.82-3.47 8.9-11.06 6.03-14.9-1.97-2.63-4.8-1.7-13.18 4.35-7.7 5.55-8.97 7.15-8.05 10.06 1.27 4 8.93 4.25 15.2.5zm-19.27.58c.96-1.06 1.6-2.74 1.4-3.72-.37-1.92-14-12.9-16.96-13.68-5.02-1.32-6.9 6.67-2.9 12.3 4.47 6.25 14.82 9.12 18.46 5.1zm9.08-12.52c4.58-1.9 7.5-6.83 7.5-12.67 0-10.1-10.68-16.04-19.94-11.07-9.13 4.9-9 17.58.24 23.22 3.8 2.3 7.52 2.47 12.2.5zm-10.18-4.75c-4.78-2.3-5.42-11.22-1.02-14.3 3.3-2.3 8.96-1.9 11.53.82 3.24 3.45 3 9.88-.47 12.6-2.84 2.24-6.56 2.57-10.04.9zm29.7-2.6c1.6-1.3 2.37-3.24 2.72-6.84.82-8.54-5.12-16.93-11.45-16.17-4.5.53-4.84 2.64-1.96 11.9 3.96 12.7 6.03 14.85 10.68 11.1zm-45.28-.45c1.73-2.18 6.42-17.6 6.08-19.97-.4-2.94-5.82-3.66-9.48-1.26-5.8 3.8-8.02 15.87-3.77 20.56 1.98 2.18 5.7 2.53 7.17.67zm31.55-22.84c4.22-6.72-9.04-13.54-18.58-9.55-5.47 2.28-8 7.23-5.15 10.08 2.33 2.33 22.2 1.9 23.72-.52zM70.2 275.5c-8.23-2.26-15.9-6.75-22.4-13.12-20.12-19.65-20.25-52.4-.3-72.37 23.2-23.17 62.06-19 80.2 8.6l4.25 6.44 2.4-4.72c1.3-2.6 4.93-7.23 8.02-10.3 16.32-16.13 40.84-19.62 61.55-8.77 7.3 3.82 17.35 13.65 19.98 19.5 1.05 2.34 2.17 4.25 2.5 4.25.33 0 1.7-2.08 3.06-4.62 3.4-6.4 12.62-15.34 19.74-19.14 28.95-15.43 64.83-1.16 74.3 29.54 2.5 8.03 2.67 21.57.4 29.3-3.8 12.9-13.4 24.87-25.02 31.14-10.55 5.7-27.16 7.5-38.45 4.2-12.84-3.8-24.63-12.7-30.62-23.2l-3-5.26-4.18 6.47c-7.2 11.12-17.65 18.76-30.25 22.12-6.25 1.66-19.42 1.85-25.84.37-11.98-2.76-24.34-11.63-31.03-22.26-1.93-3.06-3.73-5.58-4-5.6-.28 0-1.85 2.27-3.5 5.07-6 10.16-18.23 19.26-30.04 22.34-7.08 1.84-21.12 1.86-27.77.03zm22.5-8.62c16.76-3.56 29.9-17.37 32.92-34.63 2.12-12.1-2.08-25.1-11.23-34.77-20.35-21.5-55.33-15.66-68.68 11.48C43.24 214.02 43 215.5 43 226c0 10.4.26 12.05 2.7 17.25 8.27 17.66 28.12 27.63 47 23.63zM74 261.6c-18.63-5.9-29.08-22.08-26.46-40.94 1.68-12.1 10.04-23.04 21.74-28.43 4.8-2.2 7.17-2.64 14.72-2.68 8.07-.04 9.68.28 15.65 3.1 30.53 14.46 27.96 58.26-4 68.35-7.16 2.25-15.7 2.5-21.65.6zm7.3-10.98c2.64-2.63.54-5.88-7.38-11.5-9.46-6.67-10.77-7.05-12.95-3.72-3.1 4.72.47 11.84 7.77 15.54 4.66 2.36 10.02 2.23 12.57-.32zm20-1.34c4.6-3.74 6.73-8.76 5.28-12.57-1.48-3.87-4.65-3.48-11.67 1.46-10.96 7.7-12.05 9.36-8.65 13.12 2.64 2.92 10.2 1.92 15.04-2zm-12.47-10.64c1.8-.75 4.53-2.87 6.07-4.7 2.5-3 2.76-3.94 2.36-8.8-.4-4.73-.94-5.92-4.1-8.8-3-2.76-4.42-3.34-8.2-3.34-18.6 0-19.24 25.67-.68 26.92.7.04 2.75-.53 4.55-1.28zm-10.4-6.56c-3.52-3.52-3.83-7.66-.86-11.44 1.66-2.1 2.92-2.64 6.33-2.64 5.2 0 8.6 3.06 8.6 7.73 0 4.48-.88 6.16-4.07 7.8-4.2 2.18-6.75 1.8-10-1.45zm30.58-1.33c5.26-4.52 3.6-17.02-2.84-21.23-3.66-2.4-9.07-1.68-9.48 1.26-.4 2.82 4.52 18.1 6.6 20.47 1.98 2.26 2.57 2.2 5.73-.5zM67.2 222.5c3.77-10.64 4-13.07 1.34-14.5-2.92-1.55-6.6-.23-9.96 3.6-6.48 7.36-4.52 21.06 2.9 20.2 2.23-.26 2.93-1.4 5.72-9.3zm26.75-13.47c4.88-1.86 2.4-8.62-4.04-11.07-3.5-1.33-10.43-1.17-13.3.3-5.63 2.9-7.72 9.9-3.3 11.06 3.32.88 18.1.67 20.63-.3zm93.77 57.86c12-2.52 24.36-12.32 29.4-23.34 11.5-25.14-3.88-53.85-31.47-58.7-27.14-4.76-52.56 20.1-48.2 47.14 3.85 23.93 26.73 39.82 50.27 34.9zm-20.4-5.83c-31.84-10.18-34.27-54-3.8-68.47 5.77-2.74 7.5-3.1 15.5-3.1s9.73.36 15.5 3.1c26.1 12.4 29.26 47.8 5.7 63.75-9.7 6.56-21.74 8.3-32.9 4.72zm8.8-10.14c3.36-2.8 1.03-6-10-13.77-3.27-2.3-6.52-4.16-7.24-4.16-2.26 0-4.65 4.7-3.9 7.68 2.3 9.16 15 15.33 21.13 10.25zm17.05.43c3.78-1.8 8-6.7 8.46-9.86.17-1.1-.02-3.24-.42-4.75-1.03-3.95-4.2-3.56-11.27 1.4-8.48 5.98-10.4 7.9-10.4 10.48 0 4.35 7.2 5.8 13.65 2.73zM182.55 239c10.77-3 13.28-16.87 4.33-23.9-3.68-2.9-12.08-2.9-15.77 0-10.08 7.93-5.72 22.6 7.4 24.8.27.05 2.1-.35 4.06-.9zm-7.55-5.2c-3.18-1.83-4.43-4.04-4.47-7.87-.04-4.9 3.25-7.93 8.6-7.93 5.14 0 8.38 3.15 8.34 8.07-.07 6.8-6.8 10.97-12.47 7.72zm28.83-2.84c5.18-4.08 4.44-14.04-1.48-19.96-2.53-2.52-3.8-3.05-6.73-2.8-2.9.24-3.7.76-3.94 2.58-.4 2.82 4.52 18.1 6.6 20.47 1.94 2.22 2.38 2.2 5.55-.3zm-41.62-8.46c3.85-10.78 3.86-13.6.05-14.92-5.3-1.85-11.83 5.28-12.5 13.63-.55 6.6 2.27 11.1 6.62 10.6 2.34-.26 3-1.3 5.84-9.3zm26.73-13.47c3.2-1.22 3.42-4.74.47-7.9-5.26-5.65-16.54-5.65-21.8 0-2.8 3-2.73 6.68.15 7.84 3.05 1.23 18 1.27 21.18.06zm99.57 56.4c15.8-6.2 26.16-19.62 27.67-35.83 2.46-26.34-22.28-49.18-48.35-44.64-14.25 2.48-24.83 10.23-31 22.68-3.13 6.35-3.75 8.74-4.12 15.76-1.1 20.87 10.83 37.43 31.05 43.12 6.6 1.86 18.6 1.33 24.75-1.08zm-24.5-3.77c-10.57-3.52-19.58-11.25-23.82-20.44-3.14-6.8-3.1-23.56.05-30.44 4.52-9.83 14.45-17.9 25.12-20.42 7.37-1.73 11.43-1.7 18.7.18 12.4 3.2 21.67 12.2 25.6 24.83 5.5 17.78-2.9 36.6-19.82 44.34-6.72 3.08-19.55 4.06-25.83 1.96zm6.28-10.22c4.06-2.84 2.86-5.72-4.68-11.23-11.37-8.28-13.2-8.73-15.1-3.68-3.3 8.7 12.1 20.3 19.78 14.92zm18.15.1c3.55-1.84 7.87-6.9 8.7-10.2.9-3.6-1.1-7.34-3.93-7.34-3.04 0-18.7 11.45-18.7 13.66 0 4.86 7.82 7.04 13.93 3.88zm-8.97-13.14c5.2-2.08 8.04-6.63 8.04-12.88 0-4.2-.46-5.22-3.88-8.64-3.47-3.46-4.42-3.88-8.86-3.88-18.17 0-18.67 25.58-.53 26.9.68.06 3.03-.62 5.23-1.5zm-8.6-4.4c-5.22-2.1-6.87-8.8-3.3-13.36 1.7-2.14 2.92-2.64 6.5-2.64 5.55 0 8.44 2.55 8.44 7.42 0 4.8-.82 6.44-4.07 8.12-3.18 1.64-4.48 1.72-7.57.47zm30.53-5.66c2.6-5.72-.16-15.5-5.35-18.9-2.86-1.87-7.46-1.57-8.8.6-1.22 1.93 3.8 18.52 6.4 21.12 1.48 1.48 2.26 1.6 4.22.72 1.33-.6 2.9-2.2 3.52-3.54zm-46.83 1.54c1.95-3.65 5.93-16.1 5.93-18.58 0-1.5-.86-2.73-2.4-3.43-6.5-2.97-15.38 8.9-13.2 17.65 1.45 5.73 7.48 8.45 9.67 4.36zm29.36-20.85c1.63-.62 2.57-1.75 2.57-3.07 0-5.4-5.04-8.96-12.7-8.95-9.96 0-17.5 8.98-10.07 11.96 3.07 1.23 17.02 1.28 20.2.07zm-216.45-75.3c-36.2-12.35-46.76-57.8-19.7-84.86 15.8-15.8 40.86-19.32 61.13-8.6 7.27 3.85 17.32 13.58 20.1 19.48 1.1 2.32 2.23 4.23 2.5 4.24.28 0 1.63-2.13 3-4.74 1.38-2.6 4.98-7.2 8-10.25 15.92-15.9 41.14-19.5 61.27-8.77 7.28 3.87 16.36 12.64 19.73 19.03 1.37 2.6 2.72 4.74 3 4.73.27 0 1.6-1.92 2.9-4.24 3.26-5.68 11.27-14.02 17.05-17.73 10.83-6.95 26.67-9.63 39.3-6.65 24.04 5.67 39.77 25.26 39.74 49.48-.03 14.9-4.68 26.43-14.7 36.45-10.13 10.14-21.53 14.67-36.95 14.7-11.23 0-19.75-2.4-28-7.94-7.37-4.93-11.3-9.03-15.68-16.33l-3.46-5.76-2.75 4.7c-6.32 10.78-17.52 19.73-29.23 23.35-8.76 2.7-22.7 2.7-31.44 0-11.5-3.56-23.14-12.76-28.92-22.87-1.3-2.27-2.6-4.14-2.93-4.14-.3 0-1.3 1.53-2.18 3.4-2.64 5.54-13.2 16.02-19.47 19.35-8.85 4.7-15.45 6.25-26.2 6.23-7.23-.02-11.18-.58-16.1-2.25zm27.56-8.28c15.98-4.16 27.58-17 30.5-33.77 3.9-22.3-12.45-44.37-35.2-47.55-16.37-2.3-32.9 5.05-41.36 18.37-5.2 8.18-6.77 14.35-6.3 24.86.52 11.45 3.4 18.27 11.25 26.48 10.9 11.43 25.72 15.62 41.1 11.6zm-22.3-4.85C55.5 114.97 45 97.94 47.55 79.66c1.74-12.5 11-24.22 22.7-28.73 7.97-3.07 19.57-3.06 27.54 0 8.1 3.13 16.6 11.2 20.3 19.3 2.45 5.38 2.85 7.48 2.82 14.77-.06 10.58-2.52 17.4-8.92 24.7-6.82 7.8-15.2 11.6-26.35 12-5.4.17-10.2-.23-12.88-1.1zm7.54-10.16c1.22-.85 2.22-2.42 2.22-3.47 0-2.1-10.2-10.78-15.93-13.57-3.35-1.63-3.48-1.6-5.34.68-6.5 8.04 10.3 22.5 19.05 16.36zm18.02.16c6.37-3.32 10.08-10.06 8.12-14.78-1.74-4.22-4.47-3.58-13.7 3.2-6.38 4.68-8.22 6.58-8.22 8.46 0 1.33.8 2.88 1.75 3.44 2.53 1.48 8.92 1.3 12.05-.32zm-8.84-13.2C102.9 92.02 98.44 72 83.8 72c-10.4.02-16.73 11.57-11.03 20.1 2.3 3.44 7.8 6.9 10.96 6.9.95 0 3.53-.72 5.73-1.6zM80 92.84c-3.15-1.88-4.43-4.08-4.47-7.63-.07-7.26 9.8-11.2 14.8-5.88 2.67 2.85 2.88 8.6.42 11.6-2.1 2.55-7.95 3.6-10.75 1.92zm28.6-2.12c5.72-4.4 4.87-15.13-1.7-21.22-4.02-3.73-10.4-3.2-10.4.86 0 3.15 5.02 17.86 6.78 19.9 1.78 2.03 3.1 2.15 5.3.46zm-44.16-1.6c1.48-2.77 6.03-17.32 6.05-19.33 0-2.28-3.5-4.08-6.3-3.24-3.2.98-5.64 3.4-7.92 7.87-3.6 7.05-.82 16.57 4.84 16.57 1.27 0 2.77-.85 3.32-1.9zm30.13-21.15c2.8-1.5 2.37-5.18-1.02-8.42C88.12 54.35 77 55 72.47 60.77c-2.38 3.02-2.47 4.6-.4 6.66 1.2 1.2 3.77 1.57 11.07 1.57 5.22 0 10.36-.46 11.43-1.03zm93.8 57.97c21.05-4.85 35.42-25.83 32.07-46.82-1.44-9-5.37-16.68-11.87-23.2C185 32.4 144.73 44.4 137.93 77.03c-4.4 21.13 8.85 42.8 29.6 48.38 6.46 1.74 14.74 1.95 20.85.54zm-21.57-5.74c-17.5-6.24-27.45-23.06-24.3-41.1 1.48-8.53 5.12-15.1 11.7-21.12 7.18-6.55 14.44-9.27 24.8-9.27 18.7 0 33.15 12.14 36.57 30.7 2.9 15.7-6.04 32.56-20.83 39.36-7.68 3.52-20.27 4.17-27.94 1.44zm8.53-9.8c3.74-2.6 2.36-5.32-5.84-11.47-9.66-7.25-11.38-7.8-13.6-4.43-5.58 8.53 10.8 21.95 19.43 15.9zm17.97.2c6.32-3.3 10.03-10.28 7.82-14.74-1.96-3.94-4.63-3.33-13.4 3.1-6.43 4.7-8.22 6.56-8.22 8.48 0 1.35.8 2.92 1.75 3.48 2.53 1.48 8.92 1.3 12.05-.32zm-9.52-12.97c4.93-2.1 7.88-5.9 8.45-10.9C193.15 78.57 187.25 72 179 72c-14.7 0-18.53 19.58-5 25.6 3.86 1.7 5.83 1.72 9.78.03zM175 92.85c-4.92-2.7-6.02-8.65-2.43-13.2C174.24 77.5 175.5 77 179 77c3.5 0 4.75.5 6.43 2.64 3.56 4.53 2.64 10.5-2 12.9-3.34 1.72-5.7 1.8-8.43.3zm28.83-2.9c5.28-4.15 4.3-14.42-1.88-19.86-4.8-4.23-10.45-4.08-10.45.27 0 3.37 5.67 19.8 7.16 20.75 1.9 1.2 2.26 1.12 5.17-1.16zm-41.65-8.45c3.97-11.2 4.1-13.26.82-14.5-8.9-3.38-17.76 13.32-11.38 21.42 1.52 1.93 2.85 2.6 4.75 2.4 2.34-.28 2.98-1.3 5.8-9.32zm27.86-13.9c1.58-1.16 1.74-1.9.92-4.22-2.1-6-12.54-9.46-18.78-6.25-6.16 3.17-8.65 8.62-4.93 10.8 2.75 1.6 20.5 1.34 22.8-.33zm96.37 57.5c15.64-4.86 26.32-16.88 29.32-33 2.4-13-2.57-27.4-12.84-37.13-25.56-24.17-68.35-7.36-70.2 27.58-.7 13.5 3.4 24.03 12.72 32.76 11.34 10.62 26.65 14.28 41 9.8zm-24.62-5c-7.55-2.8-13.86-7.72-18.17-14.17-5.05-7.57-6.45-13.05-5.92-23.16.37-7 .96-9.25 3.8-14.6 13.1-24.58 47.88-26.7 63.37-3.86 12.97 19.12 5.8 44.85-15.18 54.5-7.7 3.53-20.3 4.13-27.9 1.3zm8.5-9.66c4.58-3.2 2.92-5.87-8.65-13.85-7.32-5.06-9.56-5.22-11.24-.8-1.54 4.02 2.5 11.06 8 13.9 5.16 2.7 8.78 2.9 11.88.74zm18.15.1c3.55-1.84 7.87-6.9 8.7-10.2.9-3.57-1.1-7.34-3.86-7.3-2.88.02-18.15 10.98-18.6 13.34-.94 4.85 7.5 7.4 13.76 4.16zm-8.2-13.2c4.7-2.24 7.26-6.68 7.27-12.6 0-13.8-19.53-17.7-25.5-5.1-3.12 6.57-.3 14.1 6.57 17.6 4.3 2.2 7.16 2.22 11.65.1zm-11.8-6.26c-5.76-5.76-2.3-14.08 5.85-14.08 5.25 0 8.22 3.16 8.22 8.74 0 7.83-8.4 11-14.08 5.34zm29.52.3c4.47-1.7 5.83-10.94 2.56-17.35-2.35-4.63-5.46-7.03-9.1-7.03-5.05 0-5.5 2.13-2.5 11.78 3.74 12.12 5.16 14.1 9.05 12.6zm-43.7-1.63c1.43-1.8 6.25-16.86 6.25-19.52 0-1.44-.9-2.68-2.43-3.38-3.53-1.6-8.47 1.5-11.32 7.14-2.77 5.45-2.85 9.5-.26 13.75 2.08 3.43 5.85 4.4 7.74 2zm30.32-21.78c2.76-1.48 2.43-5.6-.7-8.5-6.18-5.73-19.75-3.87-22.4 3.08-1.1 2.94-.4 5.18 1.86 5.78 3.43.9 19.37.63 21.24-.36z"/><path fill="#c38c8f" d="M60 444.54c-28.05-5.25-50.5-25.56-58.18-52.62C.1 385.82 0 377.17 0 223 0 70.1.1 60.12 1.78 54.03 7.53 33.2 21.05 17.17 41 7.5 57.1-.33 51.1 0 179.4 0 303 0 299.83-.13 313.65 5.5c9.05 3.67 17.67 9.63 25 17.28 7.86 8.18 12.78 16.16 16.52 26.73l2.82 8 .27 162.23c.3 180.9.7 169.84-6.7 184.77-7.44 15.06-18.77 26.36-33.57 33.5-16.55 8-6.15 7.4-135.5 7.64-91.75.17-116.94-.06-122.5-1.1zm242.88-5.5c23.78-6.1 42.62-24.44 49.28-48.04 1.75-6.18 1.84-14.32 1.84-168 0-180.87.6-165.98-7.26-182-5.37-10.98-17.73-23.12-29.24-28.73-16.93-8.26-6.73-7.64-133-8.03-80.57-.25-114.76-.03-120.45.8-26.83 3.83-47.27 20.2-56.37 45.13L5 57.5v331l3.16 8.2c8.46 21.94 24.57 36.26 47.58 42.3 6.93 1.8 12.56 1.9 123.35 1.95 112.28.05 116.33 0 123.78-1.92zM76.44 410.95c-27.4-4.13-47.16-30.35-43.26-57.42 4.06-28.2 31.63-48.56 59.13-43.64 14.4 2.57 28.7 12.18 35.7 24 1.65 2.78 3.22 5.06 3.5 5.06.27 0 1.85-2.3 3.5-5.08 4.25-7.2 13.7-15.6 22-19.54 23.62-11.22 51.15-3.14 65.64 19.27l4.16 6.44 3-5.27c4.52-7.9 13.43-16.08 22.08-20.24 19.76-9.5 41.52-6.07 57.6 9.08 10.84 10.25 16.02 22.18 16.02 36.98 0 30.88-27.57 54.62-58.5 50.38-14.36-1.97-30.3-12.7-37.26-25.07-1.5-2.7-2.97-4.9-3.24-4.9-.28 0-1.52 1.9-2.76 4.25-5.67 10.66-17.14 20.06-29.1 23.83-9.08 2.88-22.2 2.88-31.3 0-12-3.8-24.02-13.63-29.28-23.96l-2.23-4.38-3.13 5.1c-11.3 18.33-31.8 28.2-52.26 25.12zm25.28-12.68c32.16-15.06 32.66-59.9.85-75.57-6.25-3.06-7.04-3.2-18.55-3.2-11.5 0-12.3.14-18.6 3.22-8.02 3.92-15.95 11.98-19.72 20.03-2.46 5.24-2.7 6.8-2.7 17.75 0 11.12.2 12.42 2.8 17.7 3.84 7.83 10.45 14.86 17.5 18.62 8 4.26 12.1 5.13 22.7 4.85 7.7-.2 9.97-.7 15.72-3.4zm-29.14-2.86c-6.32-2.3-10.95-5.45-15.92-10.85-16.4-17.82-10.5-47.2 11.5-57.27 21.64-9.9 46.02 1.7 51.92 24.7 4.16 16.25-4.42 33.88-20.28 41.64-7.12 3.5-20.17 4.34-27.22 1.78zm28-10.94c4.73-3.02 7.45-8.63 6.24-12.86-1.3-4.6-4.4-4.58-11.14.05-8.8 6.04-11.18 8.33-11.18 10.8 0 5.68 8.65 6.76 16.1 2zm-20 1.5c1.2-.66 1.92-2.1 1.92-3.9 0-2.36-1.18-3.7-7.12-8.02-9.6-7.02-11.85-7.82-14.12-5-2.97 3.66-1.67 8.9 3.4 13.63 4.3 4 11.7 5.52 15.9 3.27zm9.2-13.34c5.2-2.2 7.05-5.03 7.52-11.57.4-5.53.24-6.06-3-9.6-2.88-3.13-4.23-3.8-8.45-4.2C77 346.4 70.5 352 70.5 360.5c0 9.98 9.8 16.15 19.28 12.14zm-11.36-6.56c-3.62-3.63-3.72-6.97-.33-11 1.96-2.34 3.4-3.08 6.03-3.08 7.9 0 11.33 9.34 5.3 14.4-4.04 3.4-7.38 3.3-11-.32zm31.07-.87c3.24-2.62 3.8-9.63 1.2-15.46-2.42-5.5-5.86-8-10.38-7.56-2.78.27-3.37.77-3.63 3.05-.3 2.58 3.45 15.4 5.8 19.76 1.33 2.48 4.08 2.57 7 .2zm-45.26-.45c1.73-2.18 6.42-17.6 6.08-19.97-.25-1.78-1.06-2.35-3.74-2.6-4.72-.45-7.7 1.4-10.07 6.3-3.83 7.92-1.7 17.52 3.9 17.52 1.57 0 3.3-.56 3.84-1.25zm30.68-21.36c1.82-.7 2.08-4.6.5-7.55-2.17-4.06-12.25-6.2-18.32-3.9-5.55 2.12-8.4 7.85-5.4 10.85 1.26 1.26 20.22 1.74 23.22.6zm101.8 54.9c13.05-6.13 21.43-17.15 23.8-31.3 3-17.85-6.54-36.25-22.95-44.28-6.3-3.08-7.1-3.22-18.57-3.22-10.94 0-12.5.24-17.75 2.7-16.78 7.86-26.84 26.84-23.75 44.8 2.8 16.25 12.46 27.54 28.5 33.26 3.78 1.35 7.3 1.7 14.5 1.48 8.2-.26 10.42-.73 16.22-3.45zm-30.07-3.24c-6.1-2.26-6.88-2.77-13.48-9-12.12-11.43-14.62-28-6.5-43.2 11.4-21.4 41.07-25.67 58.36-8.38 11.17 11.17 14.17 28.4 7.28 41.9-3.16 6.2-11.45 14.3-17.7 17.3-7.65 3.66-20.13 4.28-27.95 1.38zm28.73-10.35c6.64-3.98 8.92-15.7 3.22-16.53-4.17-.6-19.1 10.55-19.1 14.28 0 5.56 8.4 6.76 15.88 2.26zm-19.45.73c1.67-1.67 2-4.23.8-6-1.03-1.54-14.34-10.97-16.63-11.8-2.5-.9-5.6 1.95-5.6 5.13 0 4.27 3.08 9.17 7.37 11.75 4.83 2.9 11.64 3.35 14.06.93zm9.08-12.87c5.16-2.15 7.7-6.86 7.22-13.38-.33-4.36-.97-5.9-3.58-8.5-2.92-2.92-3.7-3.18-9.64-3.18-5.93 0-6.72.26-9.64 3.18-6.35 6.35-4.47 18.4 3.4 21.84 4.2 1.82 7.97 1.83 12.25.04zm-11.42-6.15c-2.35-1.96-3.08-3.4-3.08-6.03 0-7.6 8.93-11.17 14.36-5.73 3.58 3.58 3.48 7.67-.28 11.44-3.63 3.62-6.97 3.73-11 .33zm29.37-.02c2.3-.87 4.55-5.68 4.53-9.58-.03-4.5-3.27-11.28-6.33-13.3-1.43-.93-3.93-1.5-5.83-1.32-2.8.27-3.37.76-3.64 3.1-.32 2.8 4.23 18.14 6.08 20.47 1.1 1.38 2.73 1.58 5.2.63zm-43.7-1.63c1.55-1.92 6.45-18.46 6.07-20.47-.42-2.23-6.18-2.96-9.48-1.2-3.73 2-6.67 9.18-6.1 14.95.25 2.7 1.03 5.6 1.73 6.44 1.53 1.85 6.4 2.02 7.8.28zm31.6-22.95c1.66-2.63-.37-6.82-4.33-8.94-8.18-4.37-21.02-.44-21.02 6.44 0 4.22 1.7 4.78 13.37 4.48 8.98-.23 11.1-.58 11.98-1.98zm95.72 58.6c16.4-4.87 28.35-19.6 29.63-36.6 1.34-17.8-7.76-33.7-23.5-41.1-5.73-2.68-8.1-3.2-16.36-3.53-7.9-.32-10.8 0-16 1.72-7.6 2.53-14.93 7.87-20.1 14.63-8.56 11.23-10.26 29.35-4 42.73 5.15 11 15.92 20.04 27 22.66 6.16 1.45 17.52 1.2 23.33-.53zm-25.18-5.75c-9.78-4.02-15.95-9.6-20.58-18.65-2.54-4.95-2.82-6.5-2.82-15.5 0-8.92.3-10.6 2.8-15.68 3.7-7.56 12.8-15.97 20.35-18.8 7.1-2.64 17.86-2.84 24.9-.45 23.86 8.1 32.9 37.07 17.72 56.85-9.97 13-27.92 18.18-42.38 12.23zm28.26-9.27c5.65-2.84 9.26-10.85 6.9-15.27-1.7-3.16-5.06-2.57-11.65 2.06-8.44 5.94-10.4 7.9-10.4 10.4 0 5.07 7.8 6.52 15.16 2.82zm-19.1.6c1.23-.67 1.94-2.1 1.94-3.93 0-2.42-1.13-3.7-7.04-8-10.3-7.5-13.2-8.18-14.97-3.5-3.45 9.02 11.12 20.2 20.07 15.42zm9.9-13.46c4.9-2.53 7.04-6.18 7-11.9-.06-8.74-4.7-13.6-12.96-13.6-10.83-.02-17.24 10.48-12.17 19.92 3.33 6.2 11.84 8.83 18.13 5.58zm-12.04-6.44c-3.62-3.63-3.72-6.97-.33-11 6.37-7.6 17.4-.08 13.78 9.38-.76 1.97-5.5 4.54-8.4 4.54-1.18 0-3.45-1.3-5.06-2.92zm32-1.7c3.98-5.06 2.14-15.83-3.43-20.2-4.37-3.44-10.5-2.7-10.5 1.24 0 2.1 5.14 18.4 6.5 20.57 1.2 1.93 5.34 1.02 7.43-1.63zm-44.6-2.63c.82-2.34 2.24-6.37 3.15-8.96.92-2.6 1.53-5.98 1.35-7.5-.28-2.46-.8-2.84-4.2-3.12-4.92-.4-8.87 3.08-10.63 9.37-2.26 8 .42 14.45 6 14.45 2.44 0 3.04-.6 4.32-4.25zm29.1-18.36c1.82-.7 2.08-4.6.5-7.55-1.45-2.7-6.87-4.85-12.24-4.85-8.06 0-15.94 8.15-11.22 11.6 1.98 1.44 19.67 2.06 22.96.8zM70.62 275.4c-17.72-4.76-33.27-21.24-37.02-39.22-3.5-16.8 1.57-33 14.32-45.8 16.27-16.3 39.53-20.06 60-9.7 6.37 3.24 17.62 14.02 20.72 19.86 1.3 2.44 2.64 4.44 3 4.44.33 0 1.22-1.46 1.96-3.25 2.32-5.62 15.6-18.08 22.9-21.5 24.55-11.48 52.45-3.14 66.7 19.95l3.68 5.96 2.45-4.83c3.23-6.4 14.33-17.15 21.18-20.55 24-11.88 51.96-4.7 66.35 17.02 2.44 3.7 5.22 8.95 6.18 11.7 2.23 6.37 3.04 20.63 1.55 27.54-3.86 18.02-19.1 33.68-37.58 38.6-11.08 2.96-26.56 1.1-36.93-4.4-6.35-3.38-18.38-15.33-21.2-21.05l-2.1-4.32-3 5.3c-6.2 10.96-18.47 20.5-31.2 24.23-6.98 2.06-20.16 2.06-27.14 0-12.68-3.72-25.6-13.63-30.97-23.77-1.35-2.55-2.68-4.63-2.96-4.63-.28 0-1.63 2.13-3 4.74-5.37 10.17-18.06 19.9-30.93 23.67-6.7 1.97-19.67 1.98-26.96.02zm24.42-8.96c31.04-8.03 41.8-47.66 18.98-69.96-20.63-20.16-55.07-14.44-67.72 11.26-3.15 6.4-3.3 7.2-3.3 18.22 0 10.87.18 11.9 3.17 18.22 8.67 18.3 28.8 27.46 48.87 22.26zm-20.6-4.76c-13.9-3.95-25-16.42-26.87-30.24-2.57-18.98 9.17-36.23 27.93-41.04 12.58-3.22 24.94.35 34.6 10 7.92 7.93 10.74 14.75 10.76 26.08.02 9.83-2.85 16.9-9.94 24.48-9.1 9.72-24.28 14.18-36.5 10.72zm5.84-10.26c3.87-2.7 2.86-5.9-3.3-10.45-11.92-8.82-15.72-9.74-16.95-4.13-1.2 5.5 2.4 11.23 8.97 14.25 4.92 2.26 8.37 2.36 11.28.32zm19.33-.62c7.8-4.38 10.3-15.86 3.65-16.63-2-.25-4.8 1.17-10.73 5.4-6.72 4.82-8.02 6.2-8.02 8.53 0 1.6.75 3.2 1.75 3.8 2.96 1.72 9.26 1.2 13.36-1.1zm-7.48-13.5c7.47-4.9 7.1-18.82-.6-22.8-3.9-2.03-11.52-1.93-15.1.2-5.56 3.27-7.44 11.27-4.25 18 3.16 6.65 13.28 8.98 19.95 4.6zm-11.26-3.3c-8.73-3.6-6-16.02 3.52-16.02 7.17 0 10.68 8.03 5.87 13.4-2.57 2.9-6.28 3.92-9.4 2.63zm27.1-1.64c2.32-.9 4.54-5.7 4.54-9.86 0-8.22-5.54-14.86-11.95-14.32-4.7.4-4.9 2.28-1.47 13.28 3.3 10.62 4.8 12.46 8.87 10.9zm-43.72-1.63c1.57-1.97 6.26-16.97 6.26-19.98 0-3.63-3.84-4.7-8.66-2.4-7.34 3.5-10 18.83-3.94 22.87 1.73 1.15 5.26.88 6.34-.5zm30.33-21.78c2.12-1.14 2.5-4.04.9-7.02-3.52-6.58-20.42-6.58-23.94 0-1.7 3.18-1.2 6.04 1.22 7.02 3.13 1.26 19.46 1.26 21.82 0zm95.47 57.5c25.65-6.65 38.12-34.36 26.57-59.05-9.66-20.67-36-29.08-57.3-18.3-19.8 9.98-27.96 34.88-18.2 55.5 8.38 17.72 29.1 26.97 48.94 21.84zm-20.6-4.77c-10.83-3.07-21.12-12.32-25.02-22.5-3.02-7.85-3-18.6.06-26.55 3.15-8.22 12.38-17.5 20.52-20.66 8.26-3.22 19.7-3.24 27.83-.07 6.98 2.72 16.22 11.32 19.48 18.14 11.3 23.56-4.93 51-31.06 52.5-4.24.25-9.14-.1-11.8-.87zm5.84-10.26c4.23-2.96 2.9-5.8-5.53-11.9-9.1-6.6-12-7.62-13.9-5-6.35 8.68 10.38 23.24 19.43 16.9zm18.02.16c6.18-3.22 10-10.33 8.17-15.17-1.5-3.92-5.23-3.1-14.07 3.14-6.75 4.76-7.9 6-7.9 8.45 0 1.7.72 3.3 1.75 3.9 2.53 1.48 8.92 1.3 12.05-.32zm-8.12-13.54c2.5-1.14 4.8-3.12 5.75-4.93 3.25-6.28.93-15.86-4.52-18.67-3.44-1.8-11.58-1.84-14.7-.1-5.73 3.17-7.98 12.3-4.63 18.77 1.6 3.1 8.12 6.83 11.93 6.83 1.1 0 3.88-.86 6.18-1.9zm-9.32-4.03c-5.45-2.25-7-9.48-2.9-13.57 5.12-5.13 14.54-1.6 14.54 5.44 0 5.66-6.56 10.24-11.64 8.13zm29.38-3.8c3.62-4.6 2.2-14.44-2.82-19.46-2.34-2.34-3.6-2.83-6.65-2.58-3.3.26-3.8.66-4.1 3.1-.37 3.33 4.38 18.1 6.52 20.25 1.73 1.74 5.13 1.1 7.04-1.32zm-45.45-.98c.73-1.5 2.4-6.27 3.7-10.57 2.58-8.43 2.2-10.9-1.78-11.5-7.94-1.17-15.36 13-11.07 21.14 2.44 4.63 7.1 5.1 9.14.93zm29.13-20.22c2.75-1.05 3.34-3.73 1.54-7.08-3.52-6.58-20.42-6.58-23.94 0-1.7 3.18-1.2 6.04 1.22 7.02 3.05 1.23 18 1.27 21.18.06zm96.03 57.44c16.57-4.32 27.85-16.58 30.74-33.43 3.95-23-10.93-43.8-34.44-48.14-17.87-3.3-36.93 6.45-45.04 23.03-3.06 6.24-3.22 7.15-3.22 18.1 0 11.02.14 11.8 3.32 18.25 8.95 18.18 28.97 27.3 48.64 22.2zM266 262.13c-10.5-2.76-19.4-9.74-24.57-19.3-3.26-6-3.43-6.84-3.43-16.33 0-8.75.33-10.7 2.67-15.7 7.06-15.05 24.54-24.04 40.45-20.8 11.8 2.4 21.96 10.55 27.17 21.78 2.2 4.75 2.65 7.17 2.67 14.22.03 7.25-.38 9.4-2.8 14.6-5.85 12.7-18.65 21.46-32.12 22.02-3.88.16-8.4-.06-10.05-.5zm3.95-10.3c1.86-.84 2.55-1.92 2.55-4 0-2.4-1.26-3.77-8.23-8.88-8.9-6.5-11.48-7.06-13.5-2.86-2.47 5.18 1.13 11.76 8.23 15.02 4.67 2.15 7.43 2.33 10.95.72zm19.44-.77c8.6-4.4 11.07-17.07 3.3-17.05-3.75.02-17.58 10.7-18.05 13.98-.7 5.02 7.55 6.74 14.74 3.08zm-10.7-12.1c5.55-1.54 8.8-6 8.8-12.08 0-9.32-4.54-13.88-13.82-13.88-7.67 0-13.18 5.78-13.18 13.82 0 3.9 3.78 9.3 8.02 11.43 4.03 2.03 5.16 2.1 10.17.72zm-8.86-5.86c-3.92-2.43-5.1-6.75-2.94-10.9 1.73-3.35 3.36-4.2 8-4.2 6.8 0 10.33 9.1 5.35 13.75-3.4 3.16-6.76 3.6-10.4 1.35zm30.2-2.55c4.38-4.37 2.9-15.12-2.8-20.37-1.9-1.76-3.44-2.24-6.38-2-5.06.42-5.33 2.38-1.8 13.1 3.95 12.03 6.27 14 10.98 9.27zm-45.8.2c1.57-1.97 6.26-16.97 6.26-19.98 0-5.84-9.22-4.4-13.2 2.07-2.97 4.8-3.18 13.97-.4 17.05 2.12 2.34 5.83 2.77 7.34.85zm30-21.38c3.27-.87 3.1-6.22-.27-9.4-3.37-3.16-13.56-4-18.36-1.53-5.06 2.62-6.57 9.76-2.3 10.88 2.62.7 18.42.73 20.95.05zm-213.83-74.8c-12.4-3.44-25.66-14-31.67-25.28-10.68-20.06-7.26-43.04 8.87-59.5 14.07-14.4 34.5-19.3 53.32-12.83 10.92 3.76 22 12.9 27.67 22.8 1.3 2.3 2.62 4.22 2.9 4.22.27 0 1.58-1.9 2.9-4.2 5.55-9.73 15.9-18.28 27.6-22.83 8.66-3.36 25.34-3.36 34 0 11.9 4.63 21.82 12.9 27.93 23.33l2.8 4.77 3.63-6.16c8.75-14.8 26.55-24.84 44.18-24.88 21.93-.06 42.95 16.08 49.36 37.9 3.58 12.2 1.28 28.82-5.46 39.58-14.64 23.37-43.62 31.32-68.4 18.76-6.32-3.2-16.15-12.6-20.04-19.16-3.3-5.57-4.06-6.05-5-3.13-1.37 4.34-9.7 14.07-15.7 18.35-9.3 6.65-15.56 8.84-26.86 9.43-11.35.6-17.93-.63-26.77-5-7.62-3.74-17.56-13.13-21.17-20-1.37-2.6-2.72-4.74-3-4.74-.27.02-1.34 1.77-2.36 3.9-4.62 9.65-16.4 19.44-28.53 23.72-7.6 2.7-22.2 3.14-30.2.94zm31.46-11.36c31.7-14.82 32.5-60 1.33-75.14-21.4-10.38-46.7-2.02-56.95 18.8-2.85 5.8-3.25 7.66-3.55 16.58-.4 11.43 1.36 18.15 6.74 25.98 3.1 4.5 9.47 10.22 14.06 12.63 11.4 5.96 27.08 6.44 38.36 1.16zm-28.07-2.65c-13.98-4.36-24.36-16.32-26.24-30.23-2.7-19.77 10.63-37.64 30.77-41.3 11.83-2.13 23.06 1.72 32.32 11.1 7.4 7.52 10.17 14.36 10.23 25.38.06 11-3.24 18.27-12.02 26.48-5.1 4.76-7.65 6.34-12.96 7.98-7.48 2.3-15.9 2.53-22.1.6zm6.77-9.58c1.22-.66 1.93-2.1 1.93-3.92 0-2.4-1.1-3.7-6.76-7.8-11.24-8.18-12.35-8.54-14.8-4.8-5.55 8.47 10.1 21.62 19.63 16.52zm18.55-.6c6.03-2.85 9.87-10.72 7.44-15.25-2.16-4.05-6.9-2.3-17.8 6.56-4.36 3.53-5.43 6.75-3.06 9.12 1.72 1.72 9.4 1.48 13.42-.42zm-9.1-12.8c9.24-3.87 10.15-18.8 1.44-23.93-3.27-1.94-10.45-2.12-13.93-.36-3.64 1.84-7.03 7.45-7.03 11.62 0 10.38 9.78 16.73 19.5 12.66zm-11.6-6.5c-3.67-3.66-3.84-7.78-.47-11.42 5.18-5.6 14.55-1.9 14.55 5.72 0 2.63-.73 4.07-3.08 6.04-4.03 3.4-7.37 3.3-11-.32zm31.07-.86c4.93-4 2.84-17.63-3.34-21.68-3.36-2.2-9.02-1.68-9.5.88-.4 2.1 3.32 15.57 5.5 19.85 1.6 3.18 4.18 3.52 7.33.96zm-45.26-.45c1.44-1.8 6.26-16.86 6.26-19.52 0-3.42-3.78-4.77-8.2-2.92-7.6 3.2-10.6 18.8-4.4 22.94 1.73 1.15 5.26.88 6.34-.5zm30.33-21.78c3.9-2.1 1.76-8.3-3.62-10.55-6.7-2.8-17-.97-19.37 3.43-1.6 2.98-1.32 5.92.67 7.07 2.3 1.34 19.83 1.38 22.32.05zm95.58 57.64c25.63-6.82 38.2-35.15 26.34-59.27-14.88-30.2-60.12-30.2-75 0-11.8 24 .54 52.23 25.9 59.22 6.18 1.7 16.45 1.73 22.75.06zM169 120.67c-7.16-2.38-11.96-5.38-16.68-10.42-5.82-6.22-8.36-11.16-9.8-19.06-2.9-15.98 5.17-31.2 20.54-38.8 10.83-5.36 21.05-5.36 31.88 0 23.1 11.4 28.2 39.37 10.6 58-6.85 7.23-14.9 10.86-25.04 11.3-4.43.18-9.14-.24-11.5-1.02zm6.28-10.22c4.06-2.84 2.86-5.72-4.68-11.23-8.9-6.48-10.77-7.44-13.1-6.7-4.4 1.4-3.68 9.5 1.26 14.26 5.4 5.2 12.18 6.73 16.52 3.68zm19.33-.62c7.73-4.34 10.2-15.85 3.6-16.63-1.95-.24-4.84 1.23-10.68 5.4-6.53 4.7-8.02 6.24-8.02 8.38 0 1.44.54 3.16 1.2 3.82 1.97 1.97 9.63 1.43 13.9-.98zM185 97.56c5.2-2.17 7.7-6.85 7.2-13.47-.34-4.72-.87-5.86-4.03-8.76-3.2-2.94-4.3-3.34-9.17-3.34s-5.96.4-9.17 3.34c-3.16 2.9-3.7 4.04-4.04 8.75-.32 4.22.04 6.12 1.66 8.7 3.53 5.63 10.78 7.6 17.55 4.76zm-11.58-6.48C167.78 85.44 171.12 77 179 77c7.87 0 11.22 8.44 5.58 14.08-3.8 3.8-7.36 3.8-11.16 0zm29.53.3c2.3-.87 4.55-5.68 4.53-9.58-.03-4.5-3.27-11.28-6.33-13.3-1.43-.93-3.93-1.5-5.83-1.32-2.8.27-3.37.76-3.64 3.1-.32 2.8 2.86 13.77 5.48 18.97 1.4 2.77 2.8 3.28 5.8 2.13zm-43.35-2.56c1.66-3.1 5.9-16.74 5.9-18.98 0-3.05-4.03-4.27-8.27-2.5-5.1 2.14-8.1 8.2-7.5 15.28.23 2.9 1 5.96 1.72 6.82 1.95 2.36 6.75 2 8.15-.62zm29.97-20.85c3.9-2.1 1.76-8.3-3.62-10.55-6.7-2.8-17-.97-19.37 3.43-1.6 2.98-1.32 5.92.67 7.07 2.3 1.34 19.83 1.38 22.32.05zm102.3 55.24c21.7-10.14 30.57-35.45 20-57.02-11.62-23.8-46.2-30.2-65.74-12.2-9.9 9.14-14.13 19.8-13.44 33.92.86 17.92 11.3 31.5 28.56 37.22 8.92 2.96 21.95 2.14 30.6-1.9zm-28.08-2.65c-9.92-3.1-17.82-9.9-23-19.76-2.5-4.76-2.78-6.32-2.8-15.3 0-8.95.3-10.6 2.82-15.74 11.56-23.54 42.5-28.54 60.12-9.7 12.23 13.06 13.76 31.13 3.87 45.7-8.84 13.05-26.37 19.37-41 14.8zm6.77-9.58c1.23-.67 1.93-2.1 1.93-3.97 0-2.4-1-3.68-5.52-7-11.77-8.7-14.58-9.5-16.45-4.6-3.47 9.16 11 20.4 20.04 15.57zm20.73-1.94c4.9-3.55 7.25-9.44 5.38-13.53-1.65-3.63-4.9-3.17-11.77 1.66-8.48 5.97-10.4 7.9-10.4 10.47 0 3 2.46 4.3 8.1 4.34 3.54.02 5.54-.65 8.7-2.94zm-11.44-11.4c5.1-2.14 7.64-6.05 7.64-11.8 0-9.04-4.58-13.83-13.2-13.82-10.63 0-17 10.6-11.97 19.94 3.3 6.16 10.68 8.55 17.53 5.68zm-11.44-6.55c-3.62-3.63-3.72-6.97-.33-11 1.96-2.34 3.4-3.08 6.03-3.08 8.9 0 11.6 11.63 3.7 15.84-3.54 1.87-6.3 1.36-9.4-1.76zm31.62-1.53c4.5-4.5 2.8-15.78-3.12-20.43-3.84-3.02-9.78-2.64-10.24.66-.4 2.9 5.55 20.94 7.13 21.58 2.44 1 3.85.58 6.24-1.8zm-44.2-2.8c5.52-15.5 5.93-19.2 2.23-20.14-9.68-2.42-17.82 14.65-10.8 22.65.85.96 2.78 1.75 4.3 1.75 2.35 0 3-.64 4.28-4.25zm29.48-18.62c.8-.5 1.2-2.2 1-4.2-.24-2.52-1.17-3.94-3.72-5.65-6.3-4.24-18.4-2.33-20.96 3.32-1.5 3.27-1.44 3.96.43 5.83 1.23 1.23 3.82 1.57 11.75 1.56 5.6-.02 10.78-.4 11.5-.87z"/><path fill="#8a8f9d" d="M60 444.54c-28.05-5.25-50.5-25.56-58.18-52.62C.1 385.82 0 377.17 0 223 0 70.1.1 60.12 1.78 54.03 7.53 33.2 21.05 17.17 41 7.5 57.1-.33 51.1 0 179.4 0 303 0 299.83-.13 313.65 5.5c9.05 3.67 17.67 9.63 25 17.28 7.86 8.18 12.78 16.16 16.52 26.73l2.82 8 .27 162.23c.3 180.9.7 169.84-6.7 184.77-7.44 15.06-18.77 26.36-33.57 33.5-16.55 8-6.15 7.4-135.5 7.64-91.75.17-116.94-.06-122.5-1.1zm242.88-5.5c23.78-6.1 42.62-24.44 49.28-48.04 1.75-6.18 1.84-14.32 1.84-168 0-180.87.6-165.98-7.26-182-5.37-10.98-17.73-23.12-29.24-28.73-16.93-8.26-6.73-7.64-133-8.03-80.57-.25-114.76-.03-120.45.8-26.83 3.83-47.27 20.2-56.37 45.13L5 57.5v331l3.16 8.2c8.46 21.94 24.57 36.26 47.58 42.3 6.93 1.8 12.56 1.9 123.35 1.95 112.28.05 116.33 0 123.78-1.92zM76.44 410.95c-27.4-4.13-47.16-30.35-43.26-57.42 4.06-28.2 31.63-48.56 59.13-43.64 14.4 2.57 28.7 12.18 35.7 24 1.65 2.78 3.22 5.06 3.5 5.06.27 0 1.85-2.3 3.5-5.08 4.25-7.2 13.7-15.6 22-19.54 23.62-11.22 51.15-3.14 65.64 19.27l4.16 6.44 3-5.27c4.52-7.9 13.43-16.08 22.08-20.24 19.76-9.5 41.52-6.07 57.6 9.08 10.84 10.25 16.02 22.18 16.02 36.98 0 30.88-27.57 54.62-58.5 50.38-14.36-1.97-30.3-12.7-37.26-25.07-1.5-2.7-2.97-4.9-3.24-4.9-.28 0-1.52 1.9-2.76 4.25-5.67 10.66-17.14 20.06-29.1 23.83-9.08 2.88-22.2 2.88-31.3 0-12-3.8-24.02-13.63-29.28-23.96l-2.23-4.38-3.13 5.1c-11.3 18.33-31.8 28.2-52.26 25.12zm25.28-12.68c32.16-15.06 32.66-59.9.85-75.57-6.25-3.06-7.04-3.2-18.55-3.2-11.5 0-12.3.14-18.6 3.22-8.02 3.92-15.95 11.98-19.72 20.03-2.46 5.24-2.7 6.8-2.7 17.75 0 11.12.2 12.42 2.8 17.7 3.84 7.83 10.45 14.86 17.5 18.62 8 4.26 12.1 5.13 22.7 4.85 7.7-.2 9.97-.7 15.72-3.4zm-29.14-2.86c-6.32-2.3-10.95-5.45-15.92-10.85-16.4-17.82-10.5-47.2 11.5-57.27 21.64-9.9 46.02 1.7 51.92 24.7 4.16 16.25-4.42 33.88-20.28 41.64-7.12 3.5-20.17 4.34-27.22 1.78zm28-10.94c4.73-3.02 7.45-8.63 6.24-12.86-1.3-4.6-4.4-4.58-11.14.05-8.8 6.04-11.18 8.33-11.18 10.8 0 5.68 8.65 6.76 16.1 2zm-20 1.5c1.2-.66 1.92-2.1 1.92-3.9 0-2.36-1.18-3.7-7.12-8.02-9.6-7.02-11.85-7.82-14.12-5-2.97 3.66-1.67 8.9 3.4 13.63 4.3 4 11.7 5.52 15.9 3.27zm9.2-13.34c5.2-2.2 7.05-5.03 7.52-11.57.4-5.53.24-6.06-3-9.6-2.88-3.13-4.23-3.8-8.45-4.2C77 346.4 70.5 352 70.5 360.5c0 9.98 9.8 16.15 19.28 12.14zm-11.36-6.56c-3.62-3.63-3.72-6.97-.33-11 1.96-2.34 3.4-3.08 6.03-3.08 7.9 0 11.33 9.34 5.3 14.4-4.04 3.4-7.38 3.3-11-.32zm31.07-.87c3.24-2.62 3.8-9.63 1.2-15.46-2.42-5.5-5.86-8-10.38-7.56-2.78.27-3.37.77-3.63 3.05-.3 2.58 3.45 15.4 5.8 19.76 1.33 2.48 4.08 2.57 7 .2zm-45.26-.45c1.73-2.18 6.42-17.6 6.08-19.97-.25-1.78-1.06-2.35-3.74-2.6-4.72-.45-7.7 1.4-10.07 6.3-3.83 7.92-1.7 17.52 3.9 17.52 1.57 0 3.3-.56 3.84-1.25zm30.68-21.36c1.82-.7 2.08-4.6.5-7.55-2.17-4.06-12.25-6.2-18.32-3.9-5.55 2.12-8.4 7.85-5.4 10.85 1.26 1.26 20.22 1.74 23.22.6zm101.8 54.9c13.05-6.13 21.43-17.15 23.8-31.3 3-17.85-6.54-36.25-22.95-44.28-6.3-3.08-7.1-3.22-18.57-3.22-10.94 0-12.5.24-17.75 2.7-16.78 7.86-26.84 26.84-23.75 44.8 2.8 16.25 12.46 27.54 28.5 33.26 3.78 1.35 7.3 1.7 14.5 1.48 8.2-.26 10.42-.73 16.22-3.45zm-30.07-3.24c-6.1-2.26-6.88-2.77-13.48-9-12.12-11.43-14.62-28-6.5-43.2 11.4-21.4 41.07-25.67 58.36-8.38 11.17 11.17 14.17 28.4 7.28 41.9-3.16 6.2-11.45 14.3-17.7 17.3-7.65 3.66-20.13 4.28-27.95 1.38zm28.73-10.35c6.64-3.98 8.92-15.7 3.22-16.53-4.17-.6-19.1 10.55-19.1 14.28 0 5.56 8.4 6.76 15.88 2.26zm-19.45.73c1.67-1.67 2-4.23.8-6-1.03-1.54-14.34-10.97-16.63-11.8-2.5-.9-5.6 1.95-5.6 5.13 0 4.27 3.08 9.17 7.37 11.75 4.83 2.9 11.64 3.35 14.06.93zm9.08-12.87c5.16-2.15 7.7-6.86 7.22-13.38-.33-4.36-.97-5.9-3.58-8.5-2.92-2.92-3.7-3.18-9.64-3.18-5.93 0-6.72.26-9.64 3.18-6.35 6.35-4.47 18.4 3.4 21.84 4.2 1.82 7.97 1.83 12.25.04zm-11.42-6.15c-2.35-1.96-3.08-3.4-3.08-6.03 0-7.6 8.93-11.17 14.36-5.73 3.58 3.58 3.48 7.67-.28 11.44-3.63 3.62-6.97 3.73-11 .33zm29.37-.02c2.3-.87 4.55-5.68 4.53-9.58-.03-4.5-3.27-11.28-6.33-13.3-1.43-.93-3.93-1.5-5.83-1.32-2.8.27-3.37.76-3.64 3.1-.32 2.8 4.23 18.14 6.08 20.47 1.1 1.38 2.73 1.58 5.2.63zm-43.7-1.63c1.55-1.92 6.45-18.46 6.07-20.47-.42-2.23-6.18-2.96-9.48-1.2-3.73 2-6.67 9.18-6.1 14.95.25 2.7 1.03 5.6 1.73 6.44 1.53 1.85 6.4 2.02 7.8.28zm31.6-22.95c1.66-2.63-.37-6.82-4.33-8.94-8.18-4.37-21.02-.44-21.02 6.44 0 4.22 1.7 4.78 13.37 4.48 8.98-.23 11.1-.58 11.98-1.98zm95.72 58.6c16.4-4.87 28.35-19.6 29.63-36.6 1.34-17.8-7.76-33.7-23.5-41.1-5.73-2.68-8.1-3.2-16.36-3.53-7.9-.32-10.8 0-16 1.72-7.6 2.53-14.93 7.87-20.1 14.63-8.56 11.23-10.26 29.35-4 42.73 5.15 11 15.92 20.04 27 22.66 6.16 1.45 17.52 1.2 23.33-.53zm-25.18-5.75c-9.78-4.02-15.95-9.6-20.58-18.65-2.54-4.95-2.82-6.5-2.82-15.5 0-8.92.3-10.6 2.8-15.68 3.7-7.56 12.8-15.97 20.35-18.8 7.1-2.64 17.86-2.84 24.9-.45 23.86 8.1 32.9 37.07 17.72 56.85-9.97 13-27.92 18.18-42.38 12.23zm28.26-9.27c5.65-2.84 9.26-10.85 6.9-15.27-1.7-3.16-5.06-2.57-11.65 2.06-8.44 5.94-10.4 7.9-10.4 10.4 0 5.07 7.8 6.52 15.16 2.82zm-19.1.6c1.23-.67 1.94-2.1 1.94-3.93 0-2.42-1.13-3.7-7.04-8-10.3-7.5-13.2-8.18-14.97-3.5-3.45 9.02 11.12 20.2 20.07 15.42zm9.9-13.46c4.9-2.53 7.04-6.18 7-11.9-.06-8.74-4.7-13.6-12.96-13.6-10.83-.02-17.24 10.48-12.17 19.92 3.33 6.2 11.84 8.83 18.13 5.58zm-12.04-6.44c-3.62-3.63-3.72-6.97-.33-11 6.37-7.6 17.4-.08 13.78 9.38-.76 1.97-5.5 4.54-8.4 4.54-1.18 0-3.45-1.3-5.06-2.92zm32-1.7c3.98-5.06 2.14-15.83-3.43-20.2-4.37-3.44-10.5-2.7-10.5 1.24 0 2.1 5.14 18.4 6.5 20.57 1.2 1.93 5.34 1.02 7.43-1.63zm-44.6-2.63c.82-2.34 2.24-6.37 3.15-8.96.92-2.6 1.53-5.98 1.35-7.5-.28-2.46-.8-2.84-4.2-3.12-4.92-.4-8.87 3.08-10.63 9.37-2.26 8 .42 14.45 6 14.45 2.44 0 3.04-.6 4.32-4.25zm29.1-18.36c1.82-.7 2.08-4.6.5-7.55-1.45-2.7-6.87-4.85-12.24-4.85-8.06 0-15.94 8.15-11.22 11.6 1.98 1.44 19.67 2.06 22.96.8zM70.62 275.4c-17.72-4.76-33.27-21.24-37.02-39.22-3.5-16.8 1.57-33 14.32-45.8 16.27-16.3 39.53-20.06 60-9.7 6.37 3.24 17.62 14.02 20.72 19.86 1.3 2.44 2.64 4.44 3 4.44.33 0 1.22-1.46 1.96-3.25 2.32-5.62 15.6-18.08 22.9-21.5 24.55-11.48 52.45-3.14 66.7 19.95l3.68 5.96 2.45-4.83c3.23-6.4 14.33-17.15 21.18-20.55 24-11.88 51.96-4.7 66.35 17.02 2.44 3.7 5.22 8.95 6.18 11.7 2.23 6.37 3.04 20.63 1.55 27.54-3.86 18.02-19.1 33.68-37.58 38.6-11.08 2.96-26.56 1.1-36.93-4.4-6.35-3.38-18.38-15.33-21.2-21.05l-2.1-4.32-3 5.3c-6.2 10.96-18.47 20.5-31.2 24.23-6.98 2.06-20.16 2.06-27.14 0-12.68-3.72-25.6-13.63-30.97-23.77-1.35-2.55-2.68-4.63-2.96-4.63-.28 0-1.63 2.13-3 4.74-5.37 10.17-18.06 19.9-30.93 23.67-6.7 1.97-19.67 1.98-26.96.02zm24.42-8.96c31.04-8.03 41.8-47.66 18.98-69.96-20.63-20.16-55.07-14.44-67.72 11.26-3.15 6.4-3.3 7.2-3.3 18.22 0 10.87.18 11.9 3.17 18.22 8.67 18.3 28.8 27.46 48.87 22.26zm-23.66-6.07c-2.54-.9-6.82-3.26-9.5-5.28-21.3-16.04-18.35-49.63 5.4-61.33 6.2-3.07 7.38-3.3 16.7-3.3 8.74 0 10.74.34 15.64 2.64 7.6 3.56 12.9 8.6 16.98 16.1 3.25 6 3.4 6.72 3.4 16.76 0 9.45-.28 11.07-2.76 16.13-3.28 6.67-10.96 14.18-17.52 17.14-6.3 2.84-21.63 3.44-28.34 1.12zm29.14-9.95c6.4-4.37 8.9-11.68 5.32-15.62-1.54-1.7-1.53-1.83.05-1.83.93 0 2.8-1.1 4.14-2.45 1.97-1.97 2.46-3.48 2.46-7.55 0-5.95-1.7-9.74-6.04-13.38-3.7-3.1-7-3.35-9.4-.68-1.7 1.86-1.65 2.3.97 10.25 1.5 4.56 3.34 9.48 4.06 10.9 1.2 2.4 1.1 2.7-1.06 3.7-3.15 1.44-14.68 9.88-16.4 12-1.07 1.34-1.48 1.4-1.87.36-.8-2.12-16.4-13.16-18.6-13.16-1.86 0-1.88-.1-.32-1.83 1.5-1.68 5.4-11.85 7-18.35.82-3.36-1.4-5.82-5.3-5.82-5.82 0-11.22 7.43-11.22 15.46 0 4.92 1.55 7.94 4.86 9.44 2 .92 2.14 1.36 1.16 3.5-2.37 5.2 1.72 12.84 8.82 16.48 3.6 1.85 9.77 1.4 11.83-.9 1.8-1.97 1.88-1.97 3.92-.12 1.14 1.04 2.75 2.15 3.58 2.47 2.6 1 8.36-.38 12.02-2.88zm-8.92-12.72c9.44-6.3 8.5-19.36-1.72-24.22-8.74-4.14-19.4 2.3-19.67 11.9-.32 11.33 12.15 18.5 21.4 12.33zm-12.76-5.2c-2.57-1.8-3.46-5.88-2.13-9.7 1.18-3.35 3.5-4.83 7.62-4.83 4.07 0 7.13 2.8 7.83 7.18.5 3.06.16 4.1-2 6.25-2.94 2.95-7.97 3.44-11.3 1.1zm17-24.6c4.46-6.38-7-13.7-17.17-10.97-6.37 1.7-10.35 8.47-6.97 11.84.78.8 4.92 1.2 11.94 1.2 9.72 0 10.88-.2 12.2-2.06zm94.2 58.53c25.65-6.64 38.12-34.35 26.57-59.04-9.66-20.67-36-29.08-57.3-18.3-19.8 9.98-27.96 34.88-18.2 55.5 8.38 17.72 29.1 26.97 48.94 21.84zm-23.04-5.8c-9.3-3.05-16.9-10-21.4-19.6-2.23-4.77-2.6-6.9-2.6-15.08 0-8.73.27-10.07 3.26-16.14 3.8-7.7 9.2-13 17.12-16.7 4.9-2.3 6.9-2.64 15.62-2.64 8.7 0 10.72.34 15.62 2.64 7.9 3.7 13.33 9 17.12 16.7 3 6.07 3.26 7.4 3.26 16.14 0 8.22-.36 10.3-2.66 15.2-3.57 7.6-9.52 13.84-16.55 17.33-4.95 2.46-7.2 2.93-15.3 3.18-5.93.2-11-.2-13.5-1zm23.45-7.64c1.9-.55 5.14-2.66 7.23-4.7 4.56-4.44 5.8-9.16 3.4-12.82-1.46-2.24-1.46-2.5-.06-2.5.86 0 2.67-1.1 4.02-2.45 4.64-4.64 2.82-15.54-3.48-20.85-3.8-3.2-7.07-3.45-9.53-.73-1.72 1.9-1.68 2.3.93 10.75 1.5 4.83 3.32 9.73 4.06 10.9 1.22 1.9 1.1 2.23-1.05 3.2-3.6 1.65-16.26 11.06-16.75 12.46-.28.8-1.08.46-2.33-1-3.05-3.55-15.68-12.28-17.78-12.28-1.78 0-1.8-.14-.34-1.76 1.74-1.92 6.7-16.5 6.7-19.8.04-5.4-6.56-6.06-11.5-1.13-6.53 6.55-6.7 17.77-.35 21.64 1.8 1.1 2.6 2.1 1.95 2.5-.6.38-1.08 2.44-1.08 4.6 0 4.34 4.04 9.9 9.1 12.5 4.14 2.15 10.2 1.88 12.4-.55 1.8-2 1.88-2 3.92-.14 3.52 3.2 5.5 3.6 10.53 2.16zm-3.87-15.3c2.07-1.4 4.12-4.07 5.3-6.93 1.87-4.5 1.87-4.85.2-9.22-4.52-11.84-19.56-12.73-25.37-1.5-6.5 12.54 8.15 25.55 19.88 17.65zm-13.2-5.6c-1.78-1.45-2.34-2.9-2.34-6.12 0-5.06 2.92-8 7.96-8s7.95 2.94 7.95 8c0 5.07-2.9 8-7.95 8-1.8 0-4.33-.85-5.62-1.9zm16.92-23.32c2.2-2.2 1.38-6.47-1.77-9.12-7.55-6.35-23.03-2.8-23.03 5.3 0 4.42 1.56 5.02 13 5.02 6.9 0 11.02-.42 11.8-1.2zm94.66 57.67c16.57-4.32 27.85-16.58 30.74-33.43 3.95-23-10.93-43.8-34.44-48.14-17.87-3.3-36.93 6.45-45.04 23.03-3.06 6.24-3.22 7.15-3.22 18.1 0 11.02.14 11.8 3.32 18.25 8.95 18.18 28.97 27.3 48.64 22.2zm-22.62-5.86c-11.58-4.13-19.48-12.32-22.97-23.8-5.97-19.66 4.7-39.84 24.02-45.45 8.28-2.42 20-1.48 27.44 2.18 7.44 3.67 14.84 11.67 17.6 19 2.86 7.7 2.82 19.36-.1 27.18-3 8-12.14 17.15-20.13 20.14-6.72 2.5-19.87 2.9-25.86.77zm27.8-9.7c6.55-4.04 9.38-12 5.7-16.07-1.55-1.7-1.52-1.83.35-1.83 4.6 0 8.04-7.54 6.32-13.92-1.3-4.78-6.24-10.84-9.54-11.67-3.48-.87-6.48 1.2-6.48 4.46 0 2.72 3.9 15.37 5.8 18.73.76 1.37-.27 2.48-5.7 6.15-3.62 2.46-7.98 5.8-9.67 7.4l-3.08 2.9-1.92-2.13c-3.13-3.46-15.66-11.92-17.65-11.92-1.76 0-1.76-.12.1-2.75 1.06-1.5 3.13-6.44 4.6-10.94 3.1-9.55 2.52-12.3-2.55-12.3-6.53 0-11.93 7.06-11.93 15.6 0 4.07.46 5.1 3.64 8.1 2.72 2.56 3.35 3.7 2.5 4.56-2.93 2.93.2 10.72 6.03 15.04 1.48 1.1 4.9 2.2 7.64 2.46 4.2.4 5.32.12 7.22-1.78 2.05-2.05 2.33-2.1 3.2-.55 2.27 4.06 9.3 4.27 15.42.48zm-9.68-12.38c11.8-6.1 9.44-23.66-3.48-26.1-5.07-.94-8.37.24-12.66 4.53-3.35 3.35-3.82 4.4-3.82 8.57 0 10.85 10.67 17.8 19.96 13zM268.5 232c-2.02-2.02-2.76-8.32-1.24-10.6 2.6-3.87 9.36-4.37 12.78-.94 5.14 5.13 1.64 13.54-5.6 13.54-2.6 0-4.62-.68-5.94-2zm17.43-23.57c.86-.86 1.57-2.26 1.57-3.1 0-2.67-6.4-8.12-10.42-8.88-7.46-1.4-16.58 3.52-16.58 8.96 0 3.72 2.45 4.54 13.68 4.57 7.95.02 10.52-.3 11.75-1.54zM70.4 134.56c-12.4-3.43-25.66-14-31.67-25.27-10.68-20.06-7.26-43.04 8.87-59.5 14.07-14.4 34.5-19.3 53.32-12.83 10.92 3.76 22 12.9 27.67 22.8 1.3 2.3 2.62 4.22 2.9 4.22.27 0 1.58-1.9 2.9-4.2 5.55-9.73 15.9-18.28 27.6-22.83 8.66-3.36 25.34-3.36 34 0 11.9 4.63 21.82 12.9 27.93 23.33l2.8 4.77 3.63-6.16c8.75-14.8 26.55-24.84 44.18-24.88 21.93-.06 42.95 16.08 49.36 37.9 3.58 12.2 1.28 28.82-5.46 39.58-14.64 23.37-43.62 31.32-68.4 18.76-6.32-3.2-16.15-12.6-20.04-19.16-3.3-5.57-4.06-6.05-5-3.13-1.37 4.34-9.7 14.07-15.7 18.35-9.3 6.65-15.56 8.84-26.86 9.43-11.35.6-17.93-.63-26.77-5-7.62-3.74-17.56-13.13-21.17-20-1.37-2.6-2.72-4.74-3-4.74-.27.02-1.34 1.77-2.36 3.9-4.62 9.65-16.4 19.44-28.53 23.72-7.6 2.7-22.2 3.14-30.2.94zm31.46-11.35c31.7-14.82 32.5-60 1.33-75.14-21.4-10.38-46.7-2.02-56.95 18.8-2.85 5.8-3.25 7.66-3.55 16.58-.4 11.43 1.36 18.15 6.74 25.98 3.1 4.5 9.47 10.22 14.06 12.63 11.4 5.96 27.08 6.44 38.36 1.16zm-28.07-2.65c-13.98-4.36-24.36-16.32-26.24-30.23-2.7-19.77 10.63-37.64 30.77-41.3 11.83-2.13 23.06 1.72 32.32 11.1 7.4 7.52 10.17 14.36 10.23 25.38.06 11-3.24 18.27-12.02 26.48-5.1 4.76-7.65 6.34-12.96 7.98-7.48 2.3-15.9 2.53-22.1.6zm6.77-9.58c1.22-.66 1.93-2.1 1.93-3.92 0-2.4-1.1-3.7-6.76-7.8-11.24-8.18-12.35-8.54-14.8-4.8-5.55 8.47 10.1 21.62 19.63 16.52zm18.55-.6c6.03-2.85 9.87-10.72 7.44-15.25-2.16-4.05-6.9-2.3-17.8 6.56-4.36 3.53-5.43 6.75-3.06 9.12 1.72 1.72 9.4 1.48 13.42-.42zm-9.1-12.8c9.24-3.87 10.15-18.8 1.44-23.93-3.27-1.94-10.45-2.12-13.93-.36-3.64 1.84-7.03 7.45-7.03 11.62 0 10.38 9.78 16.73 19.5 12.66zm-11.6-6.5c-3.67-3.66-3.84-7.78-.47-11.42 5.18-5.6 14.55-1.9 14.55 5.72 0 2.63-.73 4.07-3.08 6.04-4.03 3.4-7.37 3.3-11-.32zm31.07-.86c4.93-4 2.84-17.63-3.34-21.68-3.36-2.2-9.02-1.68-9.5.88-.4 2.1 3.32 15.57 5.5 19.85 1.6 3.18 4.18 3.52 7.33.96zm-45.26-.45c1.44-1.8 6.26-16.86 6.26-19.52 0-3.42-3.78-4.77-8.2-2.92-7.6 3.2-10.6 18.8-4.4 22.94 1.73 1.15 5.26.88 6.34-.5zm30.33-21.78c3.9-2.1 1.76-8.3-3.62-10.55-6.7-2.8-17-.97-19.37 3.43-1.6 2.98-1.32 5.92.67 7.07 2.3 1.34 19.83 1.38 22.32.05zm95.58 57.64c25.63-6.82 38.2-35.15 26.34-59.27-14.88-30.2-60.12-30.2-75 0-11.8 24 .54 52.23 25.9 59.22 6.18 1.7 16.45 1.73 22.75.06zM169 120.67c-7.16-2.38-11.96-5.38-16.68-10.42-5.82-6.22-8.36-11.16-9.8-19.06-2.9-15.98 5.17-31.2 20.54-38.8 10.83-5.36 21.05-5.36 31.88 0 23.1 11.4 28.2 39.37 10.6 58-6.85 7.23-14.9 10.86-25.04 11.3-4.43.18-9.14-.24-11.5-1.02zm6.28-10.22c4.06-2.84 2.86-5.72-4.68-11.23-8.9-6.48-10.77-7.44-13.1-6.7-4.4 1.4-3.68 9.5 1.26 14.26 5.4 5.2 12.18 6.73 16.52 3.68zm19.33-.62c7.73-4.34 10.2-15.85 3.6-16.63-1.95-.24-4.84 1.23-10.68 5.4-6.53 4.7-8.02 6.24-8.02 8.38 0 1.44.54 3.16 1.2 3.82 1.97 1.97 9.63 1.43 13.9-.98zM185 97.56c5.2-2.17 7.7-6.85 7.2-13.47-.34-4.72-.87-5.86-4.03-8.76-3.2-2.94-4.3-3.34-9.17-3.34s-5.96.4-9.17 3.34c-3.16 2.9-3.7 4.04-4.04 8.75-.32 4.22.04 6.12 1.66 8.7 3.53 5.63 10.78 7.6 17.55 4.76zm-11.58-6.48C167.78 85.44 171.12 77 179 77c7.87 0 11.22 8.44 5.58 14.08-3.8 3.8-7.36 3.8-11.16 0zm29.53.3c2.3-.87 4.55-5.68 4.53-9.58-.03-4.5-3.27-11.28-6.33-13.3-1.43-.93-3.93-1.5-5.83-1.32-2.8.27-3.37.76-3.64 3.1-.32 2.8 2.86 13.77 5.48 18.97 1.4 2.77 2.8 3.28 5.8 2.13zm-43.35-2.56c1.66-3.1 5.9-16.74 5.9-18.98 0-3.05-4.03-4.27-8.27-2.5-5.1 2.14-8.1 8.2-7.5 15.28.23 2.9 1 5.96 1.72 6.82 1.95 2.36 6.75 2 8.15-.62zm29.97-20.85c3.9-2.1 1.76-8.3-3.62-10.55-6.7-2.8-17-.97-19.37 3.43-1.6 2.98-1.32 5.92.67 7.07 2.3 1.34 19.83 1.38 22.32.05zm102.3 55.24c21.7-10.14 30.57-35.45 20-57.02-11.62-23.8-46.2-30.2-65.74-12.2-9.9 9.14-14.13 19.8-13.44 33.92.86 17.92 11.3 31.5 28.56 37.22 8.92 2.96 21.95 2.14 30.6-1.9zm-28.08-2.65c-9.92-3.1-17.82-9.9-23-19.76-2.5-4.76-2.78-6.32-2.8-15.3 0-8.95.3-10.6 2.82-15.74 11.56-23.54 42.5-28.54 60.12-9.7 12.23 13.06 13.76 31.13 3.87 45.7-8.84 13.05-26.37 19.37-41 14.8zm6.77-9.58c1.23-.67 1.93-2.1 1.93-3.97 0-2.4-1-3.68-5.52-7-11.77-8.7-14.58-9.5-16.45-4.6-3.47 9.16 11 20.4 20.04 15.57zm20.73-1.94c4.9-3.55 7.25-9.44 5.38-13.53-1.65-3.63-4.9-3.17-11.77 1.66-8.48 5.97-10.4 7.9-10.4 10.47 0 3 2.46 4.3 8.1 4.34 3.54.02 5.54-.65 8.7-2.94zm-11.44-11.4c5.1-2.14 7.64-6.05 7.64-11.8 0-9.04-4.58-13.83-13.2-13.82-10.63 0-17 10.6-11.97 19.94 3.3 6.16 10.68 8.55 17.53 5.68zm-11.44-6.55c-3.62-3.63-3.72-6.97-.33-11 1.96-2.34 3.4-3.08 6.03-3.08 8.9 0 11.6 11.63 3.7 15.84-3.54 1.87-6.3 1.36-9.4-1.76zm31.62-1.53c4.5-4.5 2.8-15.78-3.12-20.43-3.84-3.02-9.78-2.64-10.24.66-.4 2.9 5.55 20.94 7.13 21.58 2.44 1 3.85.58 6.24-1.8zm-44.2-2.8c5.52-15.5 5.93-19.2 2.23-20.14-9.68-2.42-17.82 14.65-10.8 22.65.85.96 2.78 1.75 4.3 1.75 2.35 0 3-.64 4.28-4.25zm29.48-18.62c.8-.5 1.2-2.2 1-4.2-.24-2.52-1.17-3.94-3.72-5.65-6.3-4.24-18.4-2.33-20.96 3.32-1.5 3.27-1.44 3.96.43 5.83 1.23 1.23 3.82 1.57 11.75 1.56 5.6-.02 10.78-.4 11.5-.87z"/><path fill="#5f6371" d="M54.5 442.95c-15.77-4.15-29.35-12.82-39.12-25-5.56-6.93-8.57-12.43-12.03-21.97L1 389.5.72 226C.42 44.57.02 55.7 7.02 41.08 17.75 18.72 38.13 4.38 64 .96 69.33.26 109.5 0 184.5.22c112.46.3 112.5.3 120.3 2.52 13.1 3.7 23.04 9.53 32.78 19.22 6.88 6.85 9.4 10.23 12.74 17.04 8.33 17 7.68 1.3 7.68 184 0 154.36-.1 162.82-1.83 168.94-7.02 24.76-23.95 42.04-49.67 50.7-5.22 1.76-11.63 1.86-125 2.06-116.06.2-119.72.16-127-1.75zm248.5-3.3c20.23-6.04 36.47-19.48 45.1-37.33 6.7-13.85 6.36-4.38 6.38-179.9.02-155.1-.03-159.3-1.95-166.8-3.12-12.2-8.2-20.87-17.98-30.72-7.13-7.17-10.13-9.38-18.05-13.27-16.22-7.98-9.3-7.6-137.3-7.6-101.36-.03-114.6.15-121 1.6C32.98 11.3 12.8 30.32 5.84 55 4.1 61.2 4 69.34 4 223.5v162l2.7 8c2.9 8.5 7.8 17.4 12.9 23.36 10.2 11.96 26.94 21.43 42.66 24.12 2.6.45 56.5.73 119.74.63 107.27-.16 115.4-.3 121-1.96zM70.6 409.4c-16.36-4.4-29.02-16.2-34.76-32.42-3.1-8.74-3.23-22.9-.32-32.34 4.2-13.55 15.53-25.83 28.87-31.24 7.92-3.22 22.28-4.35 31.32-2.48 12.76 2.65 26.82 12.87 32.4 23.55 1.58 3.02 3.15 5.5 3.48 5.5.33 0 1.45-1.9 2.5-4.25 2.46-5.5 13.5-16.55 19.97-20 14.58-7.73 35.5-7.72 49.8.03 7.36 4 14.64 11.1 19 18.58l3.86 6.6 2.64-5.2c5.5-10.9 18.34-20.87 31.26-24.3 7.24-1.93 21.18-1.85 27.94.15 20.85 6.2 34.8 23.3 36.57 44.9 2.42 29.22-21.1 54.55-50.6 54.5-18.9-.06-36.42-10.07-44.73-25.56l-3-5.62-3.28 5.8c-16.25 28.8-57.32 34.05-81 10.37-3.04-3.04-6.64-7.66-8.02-10.26-1.37-2.6-2.72-4.73-3-4.7-.27 0-2.07 2.76-4 6.12-10.45 18.25-35.43 28.03-56.9 22.26zm20.22-7.38c20.3-3.33 35.68-21.26 35.68-41.6 0-26.2-24.56-46.5-50.2-41.5-13.18 2.58-25.06 12-30.9 24.46-11.18 23.9 3.6 52.48 30.1 58.24 7 1.52 8.26 1.55 15.32.4zM75 395.66c-10.82-2.8-19.54-10-24.12-19.92-2.5-5.4-2.88-7.43-2.88-15.24 0-13.5 4.75-23.04 14.9-29.93 18.55-12.57 44.23-6.26 53.8 13.2 3.07 6.23 3.3 7.4 3.3 16.72 0 8.9-.3 10.62-2.78 15.66-5.84 11.9-16.93 19.34-30.22 20.3-4.18.3-9-.03-12-.8zm4.03-9.1c1.9-.8 3.47-1.97 3.47-2.6 0-.62 1.38.03 3.08 1.45 1.9 1.62 4.27 2.6 6.25 2.6 6.93-.05 15.67-7.93 15.67-14.15 0-3.52-3.27-7.05-5.73-6.18-2.1.74-11.55 7.52-15.65 11.23-1.9 1.72-3.03 2.2-3.33 1.38-.52-1.42-13.2-10.82-16.83-12.48-2.02-.9-2.82-.8-4.47.7-4.8 4.33-.3 13.64 8.5 17.64 4.87 2.2 4.74 2.2 9.03.4zm13.87-15.6c6.9-6.07 6.97-14.8.16-20.77-6.37-5.6-13.83-5.07-19.5 1.4-2.9 3.28-3.55 5.7-3.08 11.33C71 369.06 77.35 374 84.7 374c3.85 0 5.38-.57 8.2-3.05zm-14.95-5c-2.87-3.18-2.44-8.7.9-11.6 3.05-2.6 5.32-2.92 9-1.25 4.66 2.14 5.9 8.03 2.58 12.27-2.7 3.43-9.6 3.75-12.48.58zm-14.06-.5c.84-.84 2.87-5.68 4.5-10.74 2.53-7.88 2.78-9.5 1.66-11.22-1.77-2.72-4.38-3.05-8.13-1.03-7.3 3.94-10.22 16.84-4.98 22.08 2.84 2.83 4.77 3.1 6.94.92zm46.62-1.2c1.8-2.3 2.1-3.73 1.76-8.52-.47-6.57-2.72-10.37-7.65-12.88-3.67-1.88-6.75-1.43-8.15 1.18-1.02 1.9 3.72 18.7 6.07 21.52 1.9 2.3 5.6 1.7 7.97-1.3zM96.55 341.4c1.88-5.1-4.86-10.63-12.92-10.63-7.6 0-13.13 3.78-13.13 8.97 0 3.77 1.95 4.33 13.87 4.04 10.55-.26 11.46-.44 12.18-2.38zm91.1 60.16c8.6-1.83 13.3-4.3 20.2-10.6 14.37-13.13 17.77-34.96 8.03-51.57-3.15-5.4-11.84-13.57-17.45-16.44-16.65-8.5-34.76-5.8-48.58 7.28-2.92 2.75-6.4 6.87-7.73 9.15-14.12 24.08.14 56.1 27.63 62.1 8.1 1.74 9.9 1.75 17.9.06zm-16.8-5.6c-10.14-2-21.24-11-25.5-20.7-2.88-6.5-3.58-18.25-1.5-25.36 3.38-11.64 11.8-20.2 23.5-23.9 20.27-6.4 41.1 4.25 46.8 23.9 2.07 7.1 1.38 18.85-1.5 25.36-6.77 15.4-24.45 24.14-41.8 20.7zm3.18-9.4c1.9-.8 3.47-1.97 3.47-2.6 0-.62 1.38.03 3.08 1.45 3.9 3.3 8 3.33 13.5.1 4.78-2.8 8.42-7.93 8.42-11.87 0-3.34-3.33-6.8-5.73-5.95-2.43.88-15.5 10.3-16.96 12.25-1.06 1.42-1.3 1.4-2.5-.12-2.54-3.28-16.42-12.8-18.66-12.8-2 0-4.14 3.22-4.14 6.2 0 5.66 5.33 11.85 11.9 13.85 3.7 1.1 3.8 1.1 7.63-.5zm11.27-13.96c9-4.64 10.33-15.77 2.7-22.46-6-5.27-12.8-5.06-18.73.6-3.8 3.62-5.14 8.17-3.84 13 1 3.72 4.97 8.43 8.07 9.56 2.9 1.05 9.13.7 11.8-.7zm-12.03-6.35c-3.8-4.34-2.88-10.97 1.84-13.12 8.83-4.02 16.04 5.82 9.63 13.12-1 1.15-3 1.75-5.73 1.75-2.74 0-4.72-.6-5.73-1.75zm-14.42-1.08c2.33-2.58 6.78-16.1 6.44-19.57-.9-9.02-13.04-3.63-15.72 6.98-1.38 5.5-.12 10.58 3.22 12.92 2.8 1.96 4.03 1.9 6.05-.33zm46.58-.8c4.07-5.2 1.9-16.3-4.03-20.5-3.98-2.82-6.4-3.1-9-1l-2.38 1.94 2.84 8.85c1.57 4.87 3.48 9.86 4.26 11.1 1.94 3.07 5.73 2.9 8.3-.38zm-15.5-20.98c1.78-.7 2.07-4.6.54-7.45-3.58-6.7-20.36-6.7-23.94 0-1.37 2.56-1.3 5.38.17 6.85 1.26 1.26 20.22 1.74 23.22.6zm91.6 58.6c13-2.47 25.34-11.9 31.24-23.9 3.05-6.2 3.23-7.18 3.23-17.58 0-10.34-.2-11.44-3.23-17.83-12.8-27.04-48.7-32.86-69.16-11.22-16.1 17.05-15.76 42 .84 58.58 6.16 6.15 12.75 9.77 21.06 11.58 7.05 1.53 9.54 1.6 16.04.35zm-17-6.54c-11-3.08-19-9.9-23.88-20.34-2.22-4.76-2.62-7-2.6-14.62 0-7.72.4-9.87 2.8-15.1 3.5-7.65 10.3-14.44 18.15-18.1 5.25-2.45 7.2-2.8 15.52-2.8 8.74 0 10.07.27 16.2 3.3 7.4 3.63 13.2 9.46 16.93 17 2.02 4.07 2.34 6.18 2.34 15.7 0 10.1-.23 11.43-2.78 16.3-8.02 15.2-26.38 23.23-42.7 18.66zm7.3-10.45c1.76-1.65 1.96-1.62 4.33.76 8.2 8.18 27.43-8.37 19.68-16.93-1.55-1.7-1.53-1.83.33-1.83 2.5 0 5.87-3.65 6.73-7.3 1.4-5.93-3.56-15.67-9.06-17.76-3.75-1.43-7.34.46-7.34 3.86 0 2.8 3.8 15.07 5.83 18.9.9 1.7.1 2.55-6.93 7.24-4.38 2.93-8.77 6.35-9.75 7.6-1.68 2.14-1.86 2.16-2.9.48-1.33-2.1-16.55-13.02-18.18-13.02-.73 0-.63-.77.3-2.25.8-1.24 2.65-6.2 4.14-11.05 2.6-8.44 2.64-8.9.95-10.75-.97-1.07-2.78-1.95-4.03-1.95-2.76 0-7.96 4.22-9.96 8.07-3.2 6.22-.85 16.3 4.1 17.54 2.32.6 2.4.8 1 2.35-4.3 4.74 1.3 14.5 10.1 17.57 4.38 1.54 8 1.02 10.68-1.5zm10.63-13.62c9-7.58 7.3-19.82-3.32-23.88-11.97-4.57-23.03 8.1-17.1 19.6 3.63 7 14.48 9.28 20.42 4.28zm-14.4-5.6c-4.4-6.3.2-14.56 7.44-13.4 5.94.95 8.7 6.55 5.85 11.94-1.63 3.08-2.78 3.65-7.54 3.67-3.2 0-4.55-.52-5.74-2.22zm18.6-24.24c.9-1.96.8-2.96-.53-4.98-2.8-4.27-7.33-5.95-15.35-5.67-3.97.13-10.28 5.35-10.28 8.5 0 4 1.77 4.6 13.72 4.6 11.06 0 11.35-.06 12.44-2.46zm-213.8-65.96c-15.36-3.5-27.56-13.12-34.55-27.23-3.94-7.97-4.18-8.96-4.6-19.2-.7-16.98 3.3-27.84 14.35-38.88 23.33-23.33 62.64-18.44 80.18 9.97l3.6 5.82 2.87-5.28c9.57-17.53 30.9-27.72 51.85-24.78 14.92 2.1 30.24 12.37 36.6 24.57 1.57 2.98 3.08 5.43 3.35 5.43.28 0 1.6-2.04 2.9-4.54 13.08-24.64 46.85-33.4 71.98-18.68 6.98 4.1 14.73 12.65 18.63 20.58 15.27 31-3.7 67.5-37.83 72.8-20.93 3.26-43.14-7.47-52.67-25.45-2.8-5.28-3.52-5.7-4.38-2.45-1.04 3.96-9.24 13.8-15.27 18.35-17.92 13.5-43.77 13.5-61.7 0-5.9-4.45-12.93-12.76-15.14-17.94l-1.2-2.85-3.1 5.52c-3.68 6.5-11.5 14.6-17.54 18.14-10.9 6.38-26.32 8.85-38.3 6.12zm29.84-11.83c9.16-4.53 15.7-11.2 20.1-20.53 2.97-6.22 3.2-7.5 3.2-17.22 0-9.74-.23-11-3.2-17.27-9.14-19.28-30.8-29.02-50.97-22.9-40.08 12.18-39.97 67.54.17 80.82 2.5.83 7.6 1.23 13.6 1.06 8.8-.24 10.26-.57 17.1-3.95zm-31.32-3.36c-2.54-.9-6.82-3.26-9.5-5.28-21.3-16.04-18.35-49.63 5.4-61.33 6.2-3.07 7.38-3.3 16.7-3.3 8.74 0 10.74.34 15.64 2.64 7.6 3.56 12.9 8.6 16.98 16.1 3.25 6 3.4 6.72 3.4 16.76 0 9.45-.28 11.07-2.76 16.13-3.28 6.67-10.96 14.18-17.52 17.14-6.3 2.84-21.63 3.44-28.34 1.12zm29.14-9.95c6.4-4.37 8.9-11.68 5.32-15.62-1.54-1.7-1.53-1.83.05-1.83.93 0 2.8-1.1 4.14-2.45 1.97-1.97 2.46-3.48 2.46-7.55 0-5.95-1.7-9.74-6.04-13.38-3.7-3.1-7-3.35-9.4-.68-1.7 1.86-1.65 2.3.97 10.25 1.5 4.56 3.34 9.48 4.06 10.9 1.2 2.4 1.1 2.7-1.06 3.7-3.15 1.44-14.68 9.88-16.4 12-1.07 1.34-1.48 1.4-1.87.36-.8-2.12-16.4-13.16-18.6-13.16-1.86 0-1.88-.1-.32-1.83 1.5-1.68 5.4-11.85 7-18.35.82-3.36-1.4-5.82-5.3-5.82-5.82 0-11.22 7.43-11.22 15.46 0 4.92 1.55 7.94 4.86 9.44 2 .92 2.14 1.36 1.16 3.5-2.37 5.2 1.72 12.84 8.82 16.48 3.6 1.85 9.77 1.4 11.83-.9 1.8-1.97 1.88-1.97 3.92-.12 1.14 1.04 2.75 2.15 3.58 2.47 2.6 1 8.36-.38 12.02-2.88zm-8.92-12.72c9.44-6.3 8.5-19.36-1.72-24.22-8.74-4.14-19.4 2.3-19.67 11.9-.32 11.33 12.15 18.5 21.4 12.33zm-12.76-5.2c-2.57-1.8-3.46-5.88-2.13-9.7 1.18-3.35 3.5-4.83 7.62-4.83 4.07 0 7.13 2.8 7.83 7.18.5 3.06.16 4.1-2 6.25-2.94 2.95-7.97 3.44-11.3 1.1zm17-24.6c4.46-6.38-7-13.7-17.17-10.97-6.37 1.7-10.35 8.47-6.97 11.84.78.8 4.92 1.2 11.94 1.2 9.72 0 10.88-.2 12.2-2.06zm100.93 56.33c24.2-11.34 32.12-41.03 16.72-62.54-16.78-23.42-52.23-23.4-69 .03-16.85 23.52-5.73 55.56 22.5 64.9 2.5.83 7.58 1.23 13.5 1.06 8.26-.23 10.38-.68 16.27-3.44zm-29.77-3.6c-9.3-3.05-16.9-10-21.4-19.6-2.23-4.77-2.6-6.9-2.6-15.08 0-8.73.27-10.07 3.26-16.14 3.8-7.7 9.2-13 17.12-16.7 4.9-2.3 6.9-2.64 15.62-2.64 8.7 0 10.72.34 15.62 2.64 7.9 3.7 13.33 9 17.12 16.7 3 6.07 3.26 7.4 3.26 16.14 0 8.22-.36 10.3-2.66 15.2-3.57 7.6-9.52 13.84-16.55 17.33-4.95 2.46-7.2 2.93-15.3 3.18-5.93.2-11-.2-13.5-1zm23.45-7.64c1.9-.55 5.14-2.66 7.23-4.7 4.56-4.44 5.8-9.16 3.4-12.82-1.46-2.24-1.46-2.5-.06-2.5.86 0 2.67-1.1 4.02-2.45 4.64-4.64 2.82-15.54-3.48-20.85-3.8-3.2-7.07-3.45-9.53-.73-1.72 1.9-1.68 2.3.93 10.75 1.5 4.83 3.32 9.73 4.06 10.9 1.22 1.9 1.1 2.23-1.05 3.2-3.6 1.65-16.26 11.06-16.75 12.46-.28.8-1.08.46-2.33-1-3.05-3.55-15.68-12.28-17.78-12.28-1.78 0-1.8-.14-.34-1.76 1.74-1.92 6.7-16.5 6.7-19.8.04-5.4-6.56-6.06-11.5-1.13-6.53 6.55-6.7 17.77-.35 21.64 1.8 1.1 2.6 2.1 1.95 2.5-.6.38-1.08 2.44-1.08 4.6 0 4.34 4.04 9.9 9.1 12.5 4.14 2.15 10.2 1.88 12.4-.55 1.8-2 1.88-2 3.92-.14 3.52 3.2 5.5 3.6 10.53 2.16zm-3.87-15.3c2.07-1.4 4.12-4.07 5.3-6.93 1.87-4.5 1.87-4.85.2-9.22-4.52-11.84-19.56-12.73-25.37-1.5-6.5 12.54 8.15 25.55 19.88 17.65zm-13.2-5.6c-1.78-1.45-2.34-2.9-2.34-6.12 0-5.06 2.92-8 7.96-8s7.95 2.94 7.95 8c0 5.07-2.9 8-7.95 8-1.8 0-4.33-.85-5.62-1.9zm16.92-23.32c2.2-2.2 1.38-6.47-1.77-9.12-7.55-6.35-23.03-2.8-23.03 5.3 0 4.42 1.56 5.02 13 5.02 6.9 0 11.02-.42 11.8-1.2zm96.27 57.6c10.93-3.18 21.2-12.13 26.63-23.2 2.55-5.2 2.8-6.68 2.8-16.7 0-10.3-.2-11.43-3.2-17.72-4.4-9.3-10.95-16-20.02-20.5-6.27-3.08-8.68-3.7-15.68-4.08-13.88-.73-24.03 3.28-33.38 13.16-6.24 6.6-9.76 13.43-11.34 22-3.6 19.5 8.84 40.02 28.33 46.75 6.67 2.3 18.56 2.45 25.87.3zm-24.23-5.8c-11.58-4.13-19.48-12.32-22.97-23.8-5.97-19.66 4.7-39.84 24.02-45.45 8.28-2.42 20-1.48 27.44 2.18 7.44 3.67 14.84 11.67 17.6 19 2.86 7.7 2.82 19.36-.1 27.18-3 8-12.14 17.15-20.13 20.14-6.72 2.5-19.87 2.9-25.86.77zm27.8-9.7c6.55-4.04 9.38-12 5.7-16.07-1.55-1.7-1.52-1.83.35-1.83 4.6 0 8.04-7.54 6.32-13.92-1.3-4.78-6.24-10.84-9.54-11.67-3.48-.87-6.48 1.2-6.48 4.46 0 2.72 3.9 15.37 5.8 18.73.76 1.37-.27 2.48-5.7 6.15-3.62 2.46-7.98 5.8-9.67 7.4l-3.08 2.9-1.92-2.13c-3.13-3.46-15.66-11.92-17.65-11.92-1.76 0-1.76-.12.1-2.75 1.06-1.5 3.13-6.44 4.6-10.94 3.1-9.55 2.52-12.3-2.55-12.3-6.53 0-11.93 7.06-11.93 15.6 0 4.07.46 5.1 3.64 8.1 2.72 2.56 3.35 3.7 2.5 4.56-2.93 2.93.2 10.72 6.03 15.04 1.48 1.1 4.9 2.2 7.64 2.46 4.2.4 5.32.12 7.22-1.78 2.05-2.05 2.33-2.1 3.2-.55 2.27 4.06 9.3 4.27 15.42.48zm-9.68-12.38c11.8-6.1 9.44-23.66-3.48-26.1-5.07-.94-8.37.24-12.66 4.53-3.35 3.35-3.82 4.4-3.82 8.57 0 10.85 10.67 17.8 19.96 13zM268.5 232c-2.02-2.02-2.76-8.32-1.24-10.6 2.6-3.87 9.36-4.37 12.78-.94 5.14 5.13 1.64 13.54-5.6 13.54-2.6 0-4.62-.68-5.94-2zm17.43-23.57c.86-.86 1.57-2.26 1.57-3.1 0-2.67-6.4-8.12-10.42-8.88-7.46-1.4-16.58 3.52-16.58 8.96 0 3.72 2.45 4.54 13.68 4.57 7.95.02 10.52-.3 11.75-1.54zM72 134.6c-17.13-4.23-30.34-16.1-36.1-32.44-3.12-8.83-3.3-23-.44-32.3C42.1 48.4 60.73 35 83.92 35c15.55 0 26.15 4.32 36.6 14.9 3.58 3.63 7.4 8.5 8.5 10.84 1.1 2.33 2.23 4.24 2.53 4.25.3 0 1.5-1.9 2.63-4.25 4.97-10.14 17.1-20.06 29.1-23.76 8.75-2.72 22.68-2.72 31.44 0 12.2 3.76 23.9 13.42 29.43 24.3l2.44 4.8 2.7-5.02c6.07-11.3 15.4-19.23 27.74-23.58 5.5-1.94 8.96-2.46 16.53-2.48 14.92-.03 25.87 4.03 35.57 13.2 29.57 27.97 16.57 76.97-22.88 86.28-12 2.83-24.12 1.42-35.6-4.15-7.18-3.47-17.14-12.98-20.85-19.9l-3.03-5.67-3.28 5.73c-16.52 28.88-57.32 34.16-81 10.5-3.02-3.04-6.62-7.66-8-10.26-1.37-2.6-2.72-4.74-3-4.74-.28 0-1.63 2.13-3 4.74-3.44 6.52-12.32 15.12-19.6 19-10.98 5.8-25.36 7.7-36.9 4.86zm26.17-9.6c10.63-3.67 19.47-11.86 24.7-22.88 2.9-6.1 3.13-7.42 3.13-17.14 0-9.9-.2-10.93-3.3-17.25C109.35 40.66 75 34.7 54.2 55.83c-25 25.42-10.7 65.84 25.3 71.54 4.16.66 13.2-.5 18.67-2.38zm-21.63-4.04c-11.3-2.34-20.83-10-25.88-20.78C48.36 95.28 48 93.2 48 85c0-8.47.32-10.14 2.92-15.44 3.7-7.56 9.58-13.43 17.13-17.14C73.42 49.8 74.97 49.5 84 49.5c8.7 0 10.72.34 15.62 2.64 7.9 3.7 13.33 9 17.12 16.7C119.76 75 120 76.2 120 85.5c0 8.93-.3 10.6-2.8 15.7-3.55 7.23-11.93 15-19.07 17.67-6.55 2.45-15.62 3.33-21.6 2.1zm23.53-11c6.62-4.1 9.47-12.05 5.77-16.13-1.55-1.72-1.52-1.83.43-1.83 3.43 0 6.23-4.58 6.23-10.2 0-5.27-1-7.9-4.38-11.65-4.05-4.5-9.53-5.06-11.6-1.18-.72 1.33-.18 4.32 2.02 11.14 1.64 5.14 3.4 9.73 3.88 10.22.52.53-1.87 2.76-5.76 5.4-3.66 2.48-8.15 5.92-9.98 7.65-2.95 2.8-3.4 2.95-4.26 1.44-1.27-2.25-16.3-12.8-18.25-12.8-2.56 0-4.67 2.96-4.67 6.54 0 3.8 4.35 9.56 9.1 12 3.98 2.07 10.5 1.87 12.74-.38 1.78-1.78 1.92-1.76 4.68.6 3.44 2.97 8.42 2.68 14.05-.8zm-9.6-12.44c6.97-3.6 9.4-10.65 6.16-17.96-1.68-3.8-2.9-5-6.7-6.7C83.7 70.12 79.3 71 74.3 75.97c-3.66 3.67-4.42 5.97-3.8 11.54.96 8.84 11.76 14.26 19.96 10.02zm-11.63-6C74.44 88.45 75.46 80.1 80.5 78c3.2-1.33 8.27-.58 9.98 1.48.6.74 1.36 2.85 1.66 4.68.8 4.9-2.54 8.84-7.5 8.84-2.03 0-4.64-.66-5.8-1.47zM63.92 90.1c.96-1.07 3.02-5.9 4.6-10.76 3.14-9.75 2.7-12.56-2.13-13.1-9.23-1.05-16.3 16.44-9.45 23.3 2.96 2.96 4.67 3.1 6.97.55zm31.45-22c2.33-1.47 1.64-6.26-1.26-8.76-5.93-5.1-16-5.02-21.22.2-2.57 2.56-3.1 6.33-1.18 8.26 1.4 1.4 21.52 1.67 23.67.3zm97.8 56.9c21.03-7.26 32.92-30.5 26.47-51.77-4.33-14.26-16.7-25.8-31.18-29.15-34.38-7.93-63.1 28-47.54 59.46 9.66 19.54 31.62 28.56 52.25 21.45zm-21.4-4c-11.07-2.32-20.8-9.74-25.84-19.72-2.66-5.24-2.93-6.7-2.93-15.78 0-8.75.33-10.7 2.67-15.7 3.4-7.26 10.37-14.22 17.63-17.63 5-2.33 6.95-2.67 15.7-2.67s10.7.34 15.7 2.67c11.95 5.6 19.73 17.08 20.58 30.36 1.34 20.77-12.68 37.07-33.4 38.85-3.23.28-7.78.1-10.1-.38zm21.45-10.1c7.6-3.7 11.27-11.6 7.72-16.68-1.45-2.07-1.42-2.22.43-2.22 3.25 0 6.13-4.64 6.13-9.88 0-5.84-2.54-10.94-6.9-13.85-4.13-2.76-5.2-2.8-8.23-.36L190 69.8l3.3 10.08c1.83 5.54 3.74 10.34 4.26 10.66.52.32-2.42 2.86-6.54 5.64-4.1 2.78-8.7 6.2-10.2 7.58-1.6 1.5-2.88 2.06-3.1 1.4-.6-1.8-16.83-13.16-18.78-13.16-1.62 0-1.63-.13-.12-1.8 1.87-2.07 6.68-16.13 6.68-19.53 0-5.7-6.25-6.35-11.43-1.18-6.65 6.65-6.95 17.48-.58 21.35 2.1 1.3 2.63 2.13 1.95 3.2-.5.8-.93 2.9-.94 4.67 0 3.63 4.45 9.43 9.1 11.83 3.98 2.06 10.5 1.86 12.74-.4 1.78-1.77 1.92-1.76 4.55.5 3.36 2.9 6.7 2.97 12.32.24zm-7.02-13.85c9.16-5.6 9.12-16.6-.1-23.5-8.1-6.05-21.23 1.4-21 11.96.16 7.67 6.17 13.5 13.9 13.5 2.2 0 5.43-.88 7.2-1.95zm-12.93-5.8c-3.8-4.34-2.88-10.97 1.84-13.12 8.83-4.02 16.04 5.82 9.63 13.12-1 1.15-3 1.75-5.73 1.75-2.74 0-4.72-.6-5.73-1.75zM190.3 67.8c1.93-1.93 1.4-5.7-1.2-8.27-5.08-5.1-14.8-5.3-20.97-.45-2.83 2.22-3.55 6.6-1.43 8.72 1.65 1.65 21.95 1.65 23.6 0zm95.7 58c10.47-2.65 21.57-12.07 26.8-22.74 3-6.17 3.2-7.2 3.2-17.56 0-9.93-.27-11.57-2.78-16.93-5.7-12.17-15.7-20.7-28.18-24.1-23.6-6.4-48.13 9.5-52.72 34.2-3.25 17.5 6.93 36.64 23.66 44.47 10 4.68 18.95 5.47 30 2.67zm-19.45-4.9c-11.04-2.15-20.9-10.06-25.87-20.72-2.24-4.8-2.65-7.06-2.66-14.68 0-8.03.33-9.72 3.14-15.66 3.76-7.95 9.48-13.8 17.18-17.53 5-2.42 6.83-2.74 15.66-2.77 8.78-.02 10.7.3 15.67 2.63 7.58 3.55 13.83 9.5 17.4 16.55 2.68 5.32 2.92 6.68 2.93 16.3 0 9.27-.3 11.16-2.65 16.15-4.88 10.4-14.4 17.56-26.32 19.76-6.65 1.24-8.2 1.24-14.48 0zm21.98-10.15c7.64-3.86 11.35-12.46 7.3-16.92-1.54-1.7-1.5-1.83.36-1.83 2.44 0 4.92-2.6 6.35-6.72 3-8.64-7.22-21.93-14.07-18.27-1.25.68-1.98 2.1-1.98 3.86 0 2.8 3.82 15.07 5.9 18.97.98 1.82.72 2.26-2.14 3.64-1.8.86-6.28 4.02-9.97 7.02-3.73 3-7 5-7.34 4.44C271.82 103.1 256.1 92 254.62 92c-2.44 0-5.12 3.15-5.12 6 0 3.47 3.62 8.83 7.92 11.73 4.2 2.84 10.9 3.05 14.1.45 2.2-1.77 2.3-1.76 4.57.5 2.93 2.94 6.7 2.96 12.43.07zm-4.4-16.05c5.8-6.3 5.73-13.27-.16-19.17-8.43-8.42-22.1-3.57-23.22 8.26-.93 9.58 5.02 15.63 14.66 14.9 4.7-.34 5.87-.87 8.73-4zM268.5 91c-1.32-1.32-2-3.33-2-5.93 0-7.25 8.4-10.74 13.54-5.6 5.14 5.12 1.64 13.53-5.6 13.53-2.6 0-4.62-.68-5.94-2zm-15.4.24c1.68-1.13 3.12-4.3 5.87-12.88 2.98-9.34 2.93-8.82.96-10.8-2.32-2.3-5.87-1.9-9.4 1.06-4.12 3.48-6.03 7.4-6.03 12.4 0 7.24 4.7 12.82 8.6 10.22zm33.42-24.28c3.46-6.45-7.63-13.5-17.2-10.9-4.87 1.3-8.82 4.98-8.82 8.2 0 4.16 1.68 4.74 13.66 4.74 10.32 0 11.36-.17 12.36-2.04z"/><path fill="#881d22" d="M54.5 442.95c-15.77-4.15-29.35-12.82-39.12-25-5.56-6.93-8.57-12.43-12.03-21.97L1 389.5.72 226C.42 44.57.02 55.7 7.02 41.08 17.75 18.72 38.13 4.38 64 .96 69.33.26 109.5 0 184.5.22c112.46.3 112.5.3 120.3 2.52 13.1 3.7 23.04 9.53 32.78 19.22 6.88 6.85 9.4 10.23 12.74 17.04 8.33 17 7.68 1.3 7.68 184 0 154.36-.1 162.82-1.83 168.94-7.02 24.76-23.95 42.04-49.67 50.7-5.22 1.76-11.63 1.86-125 2.06-116.06.2-119.72.16-127-1.75zm248.5-3.3c20.23-6.04 36.47-19.48 45.1-37.33 6.7-13.85 6.36-4.38 6.38-179.9.02-155.1-.03-159.3-1.95-166.8-3.12-12.2-8.2-20.87-17.98-30.72-7.13-7.17-10.13-9.38-18.05-13.27-16.22-7.98-9.3-7.6-137.3-7.6-101.36-.03-114.6.15-121 1.6C32.98 11.3 12.8 30.32 5.84 55 4.1 61.2 4 69.34 4 223.5v162l2.7 8c2.9 8.5 7.8 17.4 12.9 23.36 10.2 11.96 26.94 21.43 42.66 24.12 2.6.45 56.5.73 119.74.63 107.27-.16 115.4-.3 121-1.96zM71.5 409.4c-9.32-2.46-16.15-6.4-23.1-13.33-11.26-11.2-15.43-22.16-14.7-38.62.4-9.17.83-10.98 4.1-17.9C44.26 326 56.17 315.8 70.44 311.6c6.98-2.05 20.16-2.05 27.14 0 12.83 3.77 25.53 13.52 30.98 23.78 1.34 2.54 2.67 4.6 2.95 4.56.27-.03 2.52-3.23 5-7.1 9.27-14.5 24.77-22.84 42.5-22.84 17.67 0 32.83 8.17 42.9 23.12 1.98 2.94 3.6 5.92 3.6 6.62 0 2.6 1.76 1.13 3.6-3 2.47-5.5 14.5-17.55 20.97-20.98 10.53-5.58 25.86-7.35 37.3-4.3 24.74 6.58 40.97 30.82 37.34 55.77-3.67 25.26-25.05 43.7-50.74 43.76-17.12.03-35.1-10.25-43.47-24.85-1.93-3.35-3.73-6.1-4-6.12-.28 0-1.8 2.45-3.37 5.47-7.63 14.6-26.5 25.5-44.13 25.5-17.64 0-36.5-10.9-44.13-25.5-1.58-3.02-3.1-5.48-3.37-5.47-.28 0-1.37 1.92-2.43 4.25-2.97 6.52-14.9 17.85-22.57 21.46-11.37 5.34-23.8 6.64-35 3.67zm20.52-7.5c13.22-2.43 25.03-11.5 30.8-23.66 2.98-6.3 3.18-7.44 3.18-17.8 0-10.75-.1-11.24-3.77-18.66-7.85-15.9-23.57-24.84-41.23-23.5-17.9 1.38-32.34 12.75-37.52 29.53-6.16 19.93 2.83 41.08 21.3 50.17 9.64 4.74 17.1 5.82 27.24 3.94zm-17.5-6.44c-10.66-3-19.5-10.68-24.2-21.04-1.78-3.9-2.25-6.8-2.28-13.94-.04-8.2.26-9.62 3.2-15.62 3.87-7.84 10.15-14 18.08-17.67 4.8-2.24 7.1-2.66 14.68-2.68 7.83-.02 9.8.35 15.22 2.86 7.33 3.38 15.26 11.23 18.5 18.33 1.8 3.9 2.2 6.68 2.24 14.8.04 9.52-.12 10.3-3.38 16.3-8.33 15.37-25.93 23.18-42.05 18.66zm7.08-10.05c1.6-1.43 1.92-1.38 3.82.52 6.2 6.2 22.08-2.17 22.08-11.62 0-2-.75-4.46-1.66-5.47-1.55-1.72-1.52-1.83.5-1.83 6.14 0 8.47-11.12 4-19.08-2.73-4.85-8-7.62-11.5-6.03-1.3.6-2.63 1.7-2.92 2.44-.4 1.06 3.94 16.04 6.16 21.2.25.6-2.5 3.02-6.12 5.4-3.62 2.4-7.88 5.6-9.48 7.08-2.88 2.7-2.93 2.7-4.7.74C79.1 375.8 66.33 367 64.7 367c-1.08 0-1.15-.32-.3-1.34 1.4-1.7 6.17-16.23 6.43-19.6l.2-2.56 12.18.3c11.32.3 12.27.17 13.25-1.68 2.28-4.24-2.3-9.9-8.97-11.13-8.46-1.55-16.96 2.5-16.96 8.08 0 2.58-.2 2.7-3.75 2.23-6.75-.9-12.27 5.6-12.48 14.68-.12 5.33 2.15 9.93 5.3 10.75 1.48.4 1.67.9.9 2.32-1.38 2.58-1.2 6.6.43 9.75 4.02 7.78 15.4 11.4 20.7 6.6zm9.8-12.85c8.06-4.16 9.2-16.9 2.07-22.92-4.25-3.57-9.83-4.23-15.32-1.8-9.4 4.16-11 16.13-3.1 23.08 2.93 2.6 4.35 3.1 8.53 3.1 2.76 0 6.28-.65 7.82-1.45zM78.5 366c-5.04-5.04-1.54-13.4 5.6-13.4 7.44 0 10.9 8.98 5.3 13.65-2.88 2.38-8.4 2.25-10.9-.25zm115.33 33.98c8.18-3.06 14.5-7.73 19.32-14.3 14.75-20.03 9.23-48.8-11.8-61.4-27.6-16.5-62.62 1.45-64.6 33.14-1.36 21.86 12.5 40.03 34.02 44.6 6 1.26 16.76.3 23.06-2.04zm-24.3-4.52c-10.7-3-19.14-10.2-23.93-20.4-2.2-4.7-2.6-6.95-2.6-14.56 0-7.8.38-9.83 2.88-15.23 3.48-7.54 10.4-14.34 18.4-18.1 4.88-2.27 7.05-2.67 14.72-2.67 7.66 0 9.85.4 14.67 2.66 25.37 11.9 29.34 45.47 7.33 62.05-8.98 6.78-21.07 9.18-31.47 6.26zm6.9-10.23c1.36-1.68 1.56-1.65 3.82.62 2.06 2.06 3.1 2.32 7.4 1.9 2.75-.25 6.2-1.36 7.67-2.45 6.3-4.66 9.03-12.6 5.64-16.34-1.4-1.55-1.3-1.74 1.3-2.26 3.5-.7 5.24-4.13 5.24-10.3 0-8.3-5.42-14.93-12.06-14.76-3.64.1-3.94-.1-3.94-2.6 0-5.7-8.86-9.76-17.25-7.87-5.3 1.2-8.75 4.32-8.75 7.9 0 2.62-.18 2.72-3.97 2.2-3.54-.47-4.36-.14-7.4 2.9-3.9 3.9-6.1 10.42-5.08 15.17.77 3.64 4.1 7.66 6.32 7.66 1.2 0 1.26.27.33 1.2-.66.66-1.2 3.06-1.2 5.33 0 9.95 16.33 18.66 21.93 11.7zm1.07-5.05c0-1.48-15.8-13.18-17.8-13.18-1.02 0-1.15-.37-.46-1.25 1.5-1.9 6.26-16.9 6.26-19.75v-2.5h12.87c9.75 0 12.76.3 12.4 1.23-.52 1.37 4.5 18.07 6.02 20.05 1.18 1.52 1.76.95-6.8 6.73-3.85 2.6-8.24 5.9-9.75 7.3-1.5 1.42-2.75 2.04-2.75 1.38zm9.12-7.9c1.6-.96 3.85-3.66 5-6 6.88-14.23-11.4-26.93-22.62-15.7-6.12 6.1-5.2 16.86 1.84 21.37 4 2.56 11.72 2.72 15.78.32zm-13.2-6.15c-3.1-2.5-3.18-8.32-.14-11.35 6.32-6.33 16.87 1.2 12.78 9.1-2.36 4.57-8.45 5.65-12.65 2.25zm108.65 35.78c13.6-2.5 24.1-10.38 30.16-22.68 3.7-7.48 3.77-7.82 3.77-19.17 0-10.64-.22-12-2.82-17.3-13.18-26.85-48.3-33.05-69.15-12.2-16.78 16.77-16.3 44.04 1.1 60.48 10.26 9.7 22.96 13.45 36.94 10.88zm-15.23-5.88c-8.98-1.9-17.45-7.62-22.73-15.32-12.42-18.16-5.75-43.1 14.17-52.9 6.06-3 7.53-3.3 15.7-3.3 8.03 0 9.75.35 15.53 3.1 7.92 3.77 14.02 9.7 17.72 17.24 3.92 7.98 4.43 20.06 1.2 28.66-3.1 8.25-12.1 17.3-20.28 20.37-6.8 2.54-15.37 3.4-21.3 2.15zm4.78-10.63c1.6-1.46 1.94-1.42 4.07.6 4.54 4.3 16.12.8 20.2-6.1 2.02-3.4 2.06-9.3.1-11.26-1.34-1.34-1.2-1.54 1.24-1.82 2.07-.24 3.24-1.3 4.65-4.2 1.64-3.38 1.74-4.5.74-8.85-1.5-6.47-4.34-10.35-8.6-11.76-4.63-1.5-7.54.02-7.54 3.97 0 3.4 4.8 18.78 6.1 19.6.47.3-3.22 3.3-8.22 6.67-5 3.38-9.33 6.77-9.62 7.52-.4 1.02-1.34.62-3.64-1.54-4.3-4.02-14.68-11.22-16.18-11.22-.88 0-.74-.94.47-3.32.94-1.82 2.8-6.98 4.15-11.47l2.45-8.14 11.9-.28c13.43-.32 14.96-1.1 12.73-6.47-1.7-4.1-6.2-6.45-12.47-6.5-8.05-.08-13.66 3.6-13.66 8.93 0 1.5-.62 1.8-3.25 1.53-7.1-.75-12.75 6.2-12.75 15.7 0 4.12.48 5.62 2.45 7.6 1.35 1.34 2.94 2.44 3.54 2.44.75 0 .76.58.03 1.94-5.56 10.4 12.34 24.37 21.1 16.45zm10.7-13.42c5.57-3.4 7.8-11.93 4.7-17.94-3.6-6.98-11.65-9.6-18.8-6.15-5.47 2.64-7.72 6.46-7.72 13.12 0 4.73.36 5.58 3.88 9.1 3.55 3.55 4.35 3.88 9.25 3.88 3.62 0 6.45-.66 8.68-2.02zm-13.65-6.3c-3.68-3.9-2.77-9.8 1.9-12.22 4.07-2.1 5.7-1.83 9 1.46 3.46 3.46 3.73 6.8.86 10.45-2.77 3.52-8.6 3.68-11.76.32zm-195.9-90.2c-17.05-3.7-32.1-17.52-37.26-34.18-2.7-8.75-2.7-21.8-.02-30.44 3.72-11.98 12.23-22.4 23.52-28.84 24.04-13.7 56.87-4.52 69.6 19.44 1.3 2.5 2.62 4.54 2.9 4.54.28 0 1.52-1.9 2.76-4.25 8.4-15.78 26.1-26.12 44.74-26.12 18.88 0 35.28 9.6 44.75 26.2l3.04 5.35 2.96-5.53c8.44-15.72 25.5-25.85 43.74-25.96 22.55-.14 40.73 12.4 49.03 33.8 1.9 4.94 2.32 7.86 2.3 16.5-.04 16.02-4.6 26.5-16.2 37.22-24.32 22.47-63.9 15.76-79.44-13.46l-2.5-4.66-3.83 6.57c-10.4 17.75-31.92 27.85-52.07 24.4-14.6-2.5-28.4-11.84-35.3-23.92-1.93-3.35-3.77-6.1-4.1-6.12-.33-.02-1.45 1.88-2.5 4.22-2.8 6.27-13.73 16.9-21.28 20.7-11.23 5.66-22.8 7.16-34.86 4.54zm28.73-10.63c15.65-7.34 25-21.84 25-38.77 0-14.55-6.4-26.62-18.58-35.1-11.37-7.9-28.8-9.27-41.64-3.26-34.52 16.17-32.25 65.23 3.64 78.38 7.85 2.88 24.16 2.24 31.58-1.25zm-30.15-4.7C46 249.93 39.6 218.45 59.08 200c8.04-7.6 12.84-9.42 24.92-9.46 8.98-.03 10.6.25 15.72 2.77 7.5 3.7 13.74 9.9 17.35 17.24 2.6 5.32 2.93 6.98 2.93 15.46 0 8.2-.36 10.28-2.67 15.2-3.27 6.98-9.9 13.77-17 17.43-7.14 3.68-21.72 4.44-28.98 1.52zm27.18-8.4c7.3-3.68 10.9-11.3 7.93-16.8-.8-1.52-.7-1.95.43-1.95 2.87 0 5.6-5 5.6-10.23 0-9.37-5.8-16.4-12.7-15.4-2.37.37-3.05.15-2.67-.85 1.65-4.3-6.4-10.52-13.6-10.52-6.5 0-13.03 4.5-13.03 8.95 0 2.4-.3 2.58-3.76 2.25-6.6-.63-12.37 5.92-12.48 14.18-.1 5.9 1 8.5 4.4 10.58 1.8 1.08 2.57 2.1 1.92 2.5-1.8 1.1-1.2 7.6 1.02 11.2 4 6.47 15.55 9.7 19.74 5.5 1.78-1.78 1.92-1.77 4.55.5 3.4 2.94 6.95 2.96 12.63.1zm-16.03-6.5c0-1.46-15.87-12.25-18-12.25-1.93 0-2-.15-.6-1.53 1.64-1.65 7.92-20.15 7.2-21.3-.22-.36 5.34-.67 12.37-.67 8.7 0 12.64.34 12.36 1.08-.53 1.38 4.4 17.22 6.28 20.17 1.2 1.86 1.2 2.25.1 2.25-.76 0-5.3 2.93-10.1 6.5-8.9 6.65-9.6 7.06-9.6 5.74zm11-8.75c12.02-11.52-1.13-30.3-15.93-22.75-5.17 2.64-7.3 6.18-7.3 12.14 0 5.85 1.8 9.24 6.53 12.2 4.74 2.98 12.72 2.2 16.7-1.6zm-15-5c-3.27-3.48-3.1-8.15.4-11.16 3.66-3.16 7.12-2.97 10.68.58 3.3 3.3 3.56 4.94 1.46 9-2.5 4.86-8.72 5.65-12.53 1.6zm118.28 33.22c7.37-3.36 16.64-12.18 20-19.02 3.92-8.03 5.06-13.86 4.45-22.77-1.04-15.24-9.56-27.77-23.6-34.7-7.32-3.63-7.83-3.73-18.63-3.73-10.8 0-11.3.1-18.64 3.73-14.25 7.04-22.86 19.9-23.67 35.32-.7 13.17 2.68 22.32 11.7 31.76 9.4 9.85 17.26 12.88 32.1 12.4 8.75-.3 11.46-.78 16.28-2.98zm-31.36-5c-7.8-3.3-12.68-7.3-17-13.97-11.95-18.47-5.1-42.63 14.84-52.43 5.13-2.52 6.8-2.82 15.74-2.82 8.86 0 10.63.3 15.53 2.72 7.07 3.47 14.27 10.68 17.74 17.74 2.38 4.85 2.72 6.73 2.73 15.04 0 8.48-.3 10.14-2.92 15.45-3.72 7.58-10.14 14-17.38 17.37-8.2 3.83-21.32 4.23-29.28.9zm28.1-7.97c7.57-3.82 11.54-13.04 7.4-17.18-1.42-1.43-1.38-1.57.44-1.57 3.34 0 6.14-4.63 6.14-10.17 0-9.34-6.35-16.8-13.14-15.45-2.62.52-2.86.33-2.86-2.33 0-3.37-2.1-5.77-6.68-7.7-4.3-1.8-8.4-1.7-13.33.27-4.34 1.73-6 3.84-6 7.6 0 2.12-.36 2.3-4 1.95-3.46-.33-4.44.08-7.4 3.04-6.74 6.74-6.97 17.78-.46 21.74 1.8 1.1 2.6 2.1 1.94 2.5-1.9 1.2-1.2 8.07 1.17 11.56 4.47 6.56 15.4 9.35 19.72 5.03 1.53-1.53 2.14-1.68 2.75-.66 2.4 4.02 8 4.56 14.3 1.38zm-17.14-7.4c-2.42-2.9-15.13-11.35-17.1-11.35-1.7 0-1.75-.17-.44-1.48 1.8-1.8 6.66-16.04 6.66-19.52v-2.5h12.87c9.7 0 12.76.3 12.4 1.22-.54 1.43 4.33 16.78 6.37 20.03 1.22 1.96 1.2 2.25-.08 2.25-.8 0-5.36 2.93-10.1 6.5-4.74 3.58-8.75 6.5-8.92 6.5-.16 0-.9-.74-1.66-1.64zm9.82-6.3c4.63-2.83 6.68-6.52 6.68-12.05 0-7.46-4.3-12.46-11.72-13.67-4.7-.76-7.86.12-11.56 3.24-3.47 2.92-5.56 9.1-4.58 13.54.77 3.48 4.95 8.74 7.9 9.93 3.7 1.5 9.96 1.04 13.28-.98zm-11.8-5.33c-4.5-3.46-4.57-9.26-.15-12.73 3.05-2.42 6.03-2.54 9.1-.4 6.5 4.56 3.54 14.34-4.35 14.34-1.65 0-3.7-.55-4.6-1.22zm118.4 31.45c8.9-4.38 15.97-11.4 20-19.9 3.02-6.4 3.2-7.4 3.2-18.27 0-10.33-.27-12.06-2.6-17-8.1-17-23.07-25.84-41.94-24.76-7.07.4-10.1 1.1-15.4 3.6-16.86 7.88-26.93 26.7-23.86 44.6 2.8 16.43 12.74 28.1 28.8 33.82 3.82 1.37 7.36 1.72 15.06 1.5 9.04-.27 10.73-.63 16.74-3.6zm-32.08-4.25c-7.6-3-16.23-11.35-19.8-19.14-2.43-5.33-2.86-7.56-2.87-14.78 0-7.1.43-9.43 2.65-14.22 3.5-7.53 10.38-14.74 17.52-18.35 5.24-2.66 6.7-2.93 15.78-2.93 8.75 0 10.7.34 15.7 2.67 6.94 3.26 13.72 9.85 17.5 17 2.55 4.86 2.8 6.25 2.8 15.83 0 9.56-.25 10.98-2.8 15.8-3.96 7.53-8.74 12.4-15.93 16.26-5.66 3.04-7.2 3.4-15.77 3.66-7.76.24-10.47-.1-14.78-1.8zm27.32-7.8c5.96-2.7 9.46-7.33 9.46-12.5 0-2.32-.54-4.76-1.2-5.42-.93-.93-.83-1.2.46-1.2.9 0 2.54-.94 3.6-2.1 4.3-4.6 3.43-14.3-1.78-20.13-2.26-2.54-3.62-3.17-6.88-3.22-3.78-.04-4.1-.28-4.68-3.3-.64-3.43-2.96-5.46-8.35-7.34-7.47-2.6-18.17 2.15-18.17 8.07 0 4.6 1.72 5.2 14.43 4.84l11.57-.3v2.5c0 2.8 4.77 17.98 6.1 19.43.5.55-.72 1.83-2.96 3.1-6.25 3.55-15.14 10.44-15.16 11.75 0 .67-.8.27-1.75-.9-2.43-3-15.7-12.38-17.5-12.38-1.25 0-1.2-.58.34-3.75 1-2.06 2.83-7.2 4.06-11.43 2.57-8.84 1.9-10.82-3.62-10.82-6.67 0-11.5 6.73-11.5 16 0 4.07.5 5.6 2.45 7.55 1.35 1.35 2.92 2.45 3.48 2.45.68 0 .65.82-.08 2.42-1.36 3-.4 8.35 2.03 11.25 4.87 5.84 15.2 8.37 19.24 4.72 1.65-1.5 2-1.46 4.47.5 3.26 2.57 6.63 2.63 11.94.22zm-6.6-13.95c6.57-3.52 8.97-12.5 5.06-18.93-7.56-12.4-25.98-7.75-26 6.56 0 2.37.7 5.65 1.55 7.3 3.3 6.4 12.45 8.8 19.4 5.07zm-12.3-6.24c-3.54-2.78-3.63-8.03-.2-11.47 3.3-3.28 7.53-3.2 10.92.18 3.4 3.4 3.46 7.63.18 10.9-3.03 3.04-7.34 3.2-10.9.4zM73.55 134.9c-6.66-1.3-17.93-7.06-23.5-12-6.33-5.64-12.07-14.56-14.58-22.68-2.86-9.28-2.7-22.58.4-31.33 5.54-15.73 19.04-28.26 35-32.5 6.04-1.62 19.26-1.78 25.62-.3 12.16 2.8 26.43 13.56 32 24.15 1.37 2.6 2.76 4.75 3.1 4.75.3 0 1.14-1.24 1.82-2.75 4.08-9.02 16.03-19.77 27.1-24.38 7.5-3.12 27.76-3.4 35.48-.48 11.65 4.4 21.53 12.85 27.97 23.93l2.8 4.82 2.9-5.32c3.86-7.07 12.85-16.03 19.75-19.68C257.8 36.7 264.8 35 274.58 35c10.84 0 19.45 2.5 27.8 8.07 27.33 18.26 30.75 56 7.08 78.33-16.75 15.8-39.15 18.96-59.37 8.36-7.56-3.96-17.4-13.7-20.87-20.67l-2.62-5.26-2.46 4.88c-5.3 10.46-15.78 19.5-28.14 24.3-8.66 3.37-25.34 3.37-34 0-12.16-4.7-23.07-13.96-27.68-23.46-1.22-2.5-2.47-4.55-2.77-4.55-.3.02-1.44 1.93-2.53 4.26-2.82 6.06-14.9 17.85-21.52 21.04-10.9 5.24-22.63 6.83-33.94 4.6zm25.54-10.05c11-4.06 19.4-12.05 24.6-23.4 1.9-4.17 2.26-6.67 2.28-15.95.02-10.3-.18-11.42-3.17-17.72C113.46 48 92.06 38.58 71.2 45c-24.97 7.73-36.73 35.7-25.03 59.58 3.33 6.8 12.56 15.72 19.6 18.94 10.16 4.66 22.94 5.17 33.33 1.33zm-22.6-4.2C64.97 118 56.1 111 50.92 100.45 48.35 95.2 48 93.42 48 85.48c0-8.15.3-9.65 3.25-15.62 9.6-19.5 34.2-26.77 52.12-15.44 5.24 3.32 11.98 11 14.4 16.4 3.16 7.1 3.52 19.1.8 26.33-6.65 17.6-24.45 27.55-42.07 23.5zm21.46-9.2c5.36-2.54 8.7-6.77 9.26-11.7.37-3.26.07-4.82-1.18-6.07-1.58-1.57-1.55-1.68.35-1.68 8.73 0 7.9-19.96-1.05-24.58-1.74-.9-4.3-1.38-5.74-1.1-2.22.46-2.62.17-2.75-1.97-.34-5.7-8.64-10.15-16.5-8.82-5.2.87-9.85 4.83-9.85 8.36 0 2.5-.26 2.67-3.5 2.3-11.3-1.33-18.1 18.8-8.37 24.74 1.8 1.1 2.6 2.1 1.95 2.5-.6.38-1.08 2.25-1.08 4.17 0 8 6.86 14.4 15.4 14.4 3.26 0 5.6-.58 6.83-1.7 1.23-1.12 2.13-1.35 2.58-.67 2.28 3.44 8.5 4.27 13.66 1.83zm-16.5-8C79.4 101 66.26 92 64.68 92c-1.13 0-1.18-.3-.22-1.45 1.4-1.7 7.2-20.47 6.62-21.42-.2-.34 5.36-.63 12.4-.63 8.82 0 12.64.34 12.35 1.1-.58 1.5 5.48 20.16 6.8 20.98.58.36-.8 1.7-3.1 3.02-2.3 1.3-6.84 4.4-10.1 6.88-3.28 2.5-6.12 4.52-6.32 4.52-.2 0-.93-.7-1.64-1.54zm10.6-6.5c4.15-2.55 6.97-9.3 6.02-14.38-2-10.6-15.55-15.07-23.4-7.73-6.27 5.85-6.1 15.4.37 21.07C78 98.5 79.4 99 83.67 99c3.38 0 6.2-.68 8.4-2.04zM78.5 91c-3.26-3.26-3-8.5.6-11.75 3.47-3.1 6.95-2.85 10.6.8 2.54 2.54 2.93 3.56 2.4 6.24-.33 1.76-1.56 4-2.7 4.95C86.5 93.63 81 93.5 78.5 91zm113.62 34.44c23.4-6.5 36.14-35.26 25.6-57.77-12.78-27.32-49.8-33.22-70.1-11.17-17.25 18.7-13.85 49.5 7 63.42 11.43 7.64 23.5 9.4 37.5 5.52zm-20.4-4.45c-6.33-1.33-15.9-6.8-19.92-11.43-1.95-2.24-4.73-6.54-6.18-9.57-2.26-4.74-2.62-6.8-2.62-15 0-8.45.3-10.1 2.8-15 3.88-7.55 10.77-14.3 18.1-17.67 5.26-2.44 7.33-2.83 15.1-2.83 7.76 0 9.82.4 15 2.8 22.57 10.54 28.47 38.6 12.07 57.42-7.4 8.5-23.03 13.63-34.34 11.27zm22.25-10.28c7.33-4.15 10.76-12.6 6.87-16.9-1.55-1.7-1.52-1.82.43-1.82 5.85 0 8.3-11.52 4.07-19.08-2.47-4.38-7.78-7.4-11.43-6.5-2.13.55-2.4.3-2.4-2.3 0-3.77-4.5-7.7-9.87-8.6-7.84-1.32-16.13 3.08-16.13 8.56 0 2.6-.18 2.7-3.97 2.2-3.54-.48-4.36-.15-7.4 2.9-3.9 3.9-6.1 10.4-5.08 15.16.77 3.64 4.1 7.66 6.32 7.66 1.2 0 1.26.27.33 1.2-1.84 1.84-1.42 7.93.8 11.56 2.9 4.8 7.55 7.23 13.7 7.24 4.2 0 5.48-.4 6.7-2.17 1.4-1.98 1.6-2.02 2.2-.42 1.52 3.97 9.02 4.63 14.87 1.32zm-17.2-6.68c-1.44-2.3-15.2-12.04-17-12.04-1.06 0-1.1-.45-.2-2.12 2.03-3.8 5.93-16.16 5.93-18.8V68.5h12.84c10.9 0 12.8.23 12.47 1.5-.3 1.26 3.8 14.8 6.08 20.03.48 1.1-1.17 2.72-6 5.9-3.66 2.4-8.08 5.63-9.82 7.16-2.98 2.6-3.23 2.65-4.3.94zm11.18-8.13c8.98-7.87 5.5-22.32-5.9-24.46-14.75-2.76-23.26 14.6-12 24.47 3 2.65 4.3 3.1 8.95 3.1 4.64 0 5.94-.45 8.95-3.1zm-13.22-3.57c-2.15-.86-4.32-6.12-3.64-8.84.77-3.1 4.9-6.5 7.9-6.5s7.13 3.4 7.9 6.5c.74 2.9-1.5 7.94-3.95 8.88-1.87.72-6.38.7-8.22-.05zm114.37 32.52c11.13-4.1 18.95-11.37 24.12-22.42 2.53-5.4 2.78-6.95 2.78-17.43 0-10.92-.16-11.83-3.22-18.07-8.8-17.97-29.7-27.53-49.26-22.52-31.47 8.1-42.35 46.4-19.9 70.12 11.4 12.06 29.6 16.2 45.48 10.33zm-22.6-4.2c-11.62-2.67-20.2-9.6-25.33-20.5-2.76-5.82-3.15-7.7-3.16-15.17 0-7.6.35-9.23 3.25-15.12 3.85-7.83 10.13-13.97 18.07-17.7 4.9-2.3 6.98-2.66 15.18-2.65 8.38 0 10.18.34 15.22 2.8 7.53 3.7 14.3 10.4 17.6 17.48 2.35 5 2.68 6.96 2.68 15.72 0 9.1-.27 10.53-2.96 15.84-7.48 14.76-24.7 22.96-40.54 19.3zm21.3-9c5.23-2.18 9.7-8 9.7-12.64 0-2.15-.62-4.5-1.37-5.2-1.14-1.07-.85-1.45 1.75-2.3 8.42-2.7 5.98-20.62-3.33-24.48-4.38-1.8-8.06-.1-8.04 3.7.03 3.27 4.43 17.9 5.94 19.7.77.94.4 1.56-1.4 2.4-4.1 1.84-16.54 11.26-16.57 12.5-.02.7-.53.55-1.25-.37-2.1-2.67-14.98-11.97-17.43-12.6-1.76-.43-2.1-.9-1.3-1.84 1.27-1.53 7-18.25 7-20.44 0-1.34 1.64-1.52 11.83-1.25 13.07.35 15-.4 13.76-5.3-.93-3.67-3.9-6.23-8.67-7.52-8.3-2.23-17.93 2.3-17.93 8.43 0 1.9-.47 2.1-3.76 1.8-6.95-.67-12.24 6.14-12.24 15.75 0 4.13.48 5.63 2.45 7.6C248.3 90.9 249.9 92 250.5 92c.75 0 .76.58.03 1.94-2.76 5.17.9 13.37 7.3 16.42 4.47 2.1 11.47 2.13 13.8.03 1.64-1.5 1.98-1.46 4.46.5 3.08 2.42 7.08 2.68 11.7.75zm-5.72-14.53c6-3.66 8.16-12.76 4.46-18.8-3.96-6.52-11.8-8.95-18.52-5.76-5.57 2.64-7.7 6.68-7.26 13.68.38 5.98 2.84 10 7.24 11.8 3.64 1.5 10.86 1.04 14.08-.92zm-13.4-6.43c-4.38-4.67-1.85-12.08 4.53-13.3 2.7-.53 3.72-.14 6.26 2.4 3.73 3.73 3.93 7.4.58 10.75-3.24 3.24-8.4 3.3-11.37.14z"/><path fill="#0f1938" d="M54.5 442.95c-15.77-4.15-29.35-12.82-39.12-25-5.56-6.93-8.57-12.43-12.03-21.97L1 389.5.72 226C.42 44.57.02 55.7 7.02 41.08 17.75 18.72 38.13 4.38 64 .96 69.33.26 109.5 0 184.5.22c112.46.3 112.5.3 120.3 2.52 13.1 3.7 23.04 9.53 32.78 19.22 6.88 6.85 9.4 10.23 12.74 17.04 8.33 17 7.68 1.3 7.68 184 0 154.36-.1 162.82-1.83 168.94-7.02 24.76-23.95 42.04-49.67 50.7-5.22 1.76-11.63 1.86-125 2.06-116.06.2-119.72.16-127-1.75zm248.5-3.3c20.23-6.04 36.47-19.48 45.1-37.33 6.7-13.85 6.36-4.38 6.38-179.9.02-155.1-.03-159.3-1.95-166.8-3.12-12.2-8.2-20.87-17.98-30.72-7.13-7.17-10.13-9.38-18.05-13.27-16.22-7.98-9.3-7.6-137.3-7.6-101.36-.03-114.6.15-121 1.6C32.98 11.3 12.8 30.32 5.84 55 4.1 61.2 4 69.34 4 223.5v162l2.7 8c2.9 8.5 7.8 17.4 12.9 23.36 10.2 11.96 26.94 21.43 42.66 24.12 2.6.45 56.5.73 119.74.63 107.27-.16 115.4-.3 121-1.96zM71.5 409.4c-9.32-2.46-16.15-6.4-23.1-13.33-11.26-11.2-15.43-22.16-14.7-38.62.4-9.17.83-10.98 4.1-17.9C44.26 326 56.17 315.8 70.44 311.6c6.98-2.05 20.16-2.05 27.14 0 12.83 3.77 25.53 13.52 30.98 23.78 1.34 2.54 2.67 4.6 2.95 4.56.27-.03 2.52-3.23 5-7.1 9.27-14.5 24.77-22.84 42.5-22.84 17.67 0 32.83 8.17 42.9 23.12 1.98 2.94 3.6 5.92 3.6 6.62 0 2.6 1.76 1.13 3.6-3 2.47-5.5 14.5-17.55 20.97-20.98 10.53-5.58 25.86-7.35 37.3-4.3 24.74 6.58 40.97 30.82 37.34 55.77-3.67 25.26-25.05 43.7-50.74 43.76-17.12.03-35.1-10.25-43.47-24.85-1.93-3.35-3.73-6.1-4-6.12-.28 0-1.8 2.45-3.37 5.47-7.63 14.6-26.5 25.5-44.13 25.5-17.64 0-36.5-10.9-44.13-25.5-1.58-3.02-3.1-5.48-3.37-5.47-.28 0-1.37 1.92-2.43 4.25-2.97 6.52-14.9 17.85-22.57 21.46-11.37 5.34-23.8 6.64-35 3.67zm20.52-7.5c13.22-2.43 25.03-11.5 30.8-23.66 2.98-6.3 3.18-7.44 3.18-17.8 0-10.75-.1-11.24-3.77-18.66-7.85-15.9-23.57-24.84-41.23-23.5-17.9 1.38-32.34 12.75-37.52 29.53-6.16 19.93 2.83 41.08 21.3 50.17 9.64 4.74 17.1 5.82 27.24 3.94zm-17.5-6.44c-10.66-3-19.5-10.68-24.2-21.04-1.78-3.9-2.25-6.8-2.28-13.94-.04-8.2.26-9.62 3.2-15.62 3.87-7.84 10.15-14 18.08-17.67 4.8-2.24 7.1-2.66 14.68-2.68 7.83-.02 9.8.35 15.22 2.86 7.33 3.38 15.26 11.23 18.5 18.33 1.8 3.9 2.2 6.68 2.24 14.8.04 9.52-.12 10.3-3.38 16.3-8.33 15.37-25.93 23.18-42.05 18.66zm7.08-10.05c1.6-1.43 1.92-1.38 3.82.52 6.2 6.2 22.08-2.17 22.08-11.62 0-2-.75-4.46-1.66-5.47-1.55-1.72-1.52-1.83.5-1.83 6.14 0 8.47-11.12 4-19.08-2.73-4.85-8-7.62-11.5-6.03-1.3.6-2.63 1.7-2.92 2.44-.4 1.06 3.94 16.04 6.16 21.2.25.6-2.5 3.02-6.12 5.4-3.62 2.4-7.88 5.6-9.48 7.08-2.88 2.7-2.93 2.7-4.7.74C79.1 375.8 66.33 367 64.7 367c-1.08 0-1.15-.32-.3-1.34 1.4-1.7 6.17-16.23 6.43-19.6l.2-2.56 12.18.3c11.32.3 12.27.17 13.25-1.68 2.28-4.24-2.3-9.9-8.97-11.13-8.46-1.55-16.96 2.5-16.96 8.08 0 2.58-.2 2.7-3.75 2.23-6.75-.9-12.27 5.6-12.48 14.68-.12 5.33 2.15 9.93 5.3 10.75 1.48.4 1.67.9.9 2.32-1.38 2.58-1.2 6.6.43 9.75 4.02 7.78 15.4 11.4 20.7 6.6zm9.8-12.85c8.06-4.16 9.2-16.9 2.07-22.92-4.25-3.57-9.83-4.23-15.32-1.8-9.4 4.16-11 16.13-3.1 23.08 2.93 2.6 4.35 3.1 8.53 3.1 2.76 0 6.28-.65 7.82-1.45zM78.5 366c-5.04-5.04-1.54-13.4 5.6-13.4 7.44 0 10.9 8.98 5.3 13.65-2.88 2.38-8.4 2.25-10.9-.25zm115.33 33.98c8.18-3.06 14.5-7.73 19.32-14.3 14.75-20.03 9.23-48.8-11.8-61.4-27.6-16.5-62.62 1.45-64.6 33.14-1.36 21.86 12.5 40.03 34.02 44.6 6 1.26 16.76.3 23.06-2.04zm-24.3-4.52c-10.7-3-19.14-10.2-23.93-20.4-2.2-4.7-2.6-6.95-2.6-14.56 0-7.8.38-9.83 2.88-15.23 3.48-7.54 10.4-14.34 18.4-18.1 4.88-2.27 7.05-2.67 14.72-2.67 7.66 0 9.85.4 14.67 2.66 25.37 11.9 29.34 45.47 7.33 62.05-8.98 6.78-21.07 9.18-31.47 6.26zm6.9-10.23c1.36-1.68 1.56-1.65 3.82.62 2.06 2.06 3.1 2.32 7.4 1.9 2.75-.25 6.2-1.36 7.67-2.45 6.3-4.66 9.03-12.6 5.64-16.34-1.4-1.55-1.3-1.74 1.3-2.26 3.5-.7 5.24-4.13 5.24-10.3 0-8.3-5.42-14.93-12.06-14.76-3.64.1-3.94-.1-3.94-2.6 0-5.7-8.86-9.76-17.25-7.87-5.3 1.2-8.75 4.32-8.75 7.9 0 2.62-.18 2.72-3.97 2.2-3.54-.47-4.36-.14-7.4 2.9-3.9 3.9-6.1 10.42-5.08 15.17.77 3.64 4.1 7.66 6.32 7.66 1.2 0 1.26.27.33 1.2-.66.66-1.2 3.06-1.2 5.33 0 9.95 16.33 18.66 21.93 11.7zm1.07-5.05c0-1.48-15.8-13.18-17.8-13.18-1.02 0-1.15-.37-.46-1.25 1.5-1.9 6.26-16.9 6.26-19.75v-2.5h12.87c9.75 0 12.76.3 12.4 1.23-.52 1.37 4.5 18.07 6.02 20.05 1.18 1.52 1.76.95-6.8 6.73-3.85 2.6-8.24 5.9-9.75 7.3-1.5 1.42-2.75 2.04-2.75 1.38zm9.12-7.9c1.6-.96 3.85-3.66 5-6 6.88-14.23-11.4-26.93-22.62-15.7-6.12 6.1-5.2 16.86 1.84 21.37 4 2.56 11.72 2.72 15.78.32zm-13.2-6.15c-3.1-2.5-3.18-8.32-.14-11.35 6.32-6.33 16.87 1.2 12.78 9.1-2.36 4.57-8.45 5.65-12.65 2.25zm108.65 35.78c13.6-2.5 24.1-10.38 30.16-22.68 3.7-7.48 3.77-7.82 3.77-19.17 0-10.64-.22-12-2.82-17.3-13.18-26.85-48.3-33.05-69.15-12.2-16.78 16.77-16.3 44.04 1.1 60.48 10.26 9.7 22.96 13.45 36.94 10.88zm-15.23-5.88c-8.98-1.9-17.45-7.62-22.73-15.32-12.42-18.16-5.75-43.1 14.17-52.9 6.06-3 7.53-3.3 15.7-3.3 8.03 0 9.75.35 15.53 3.1 7.92 3.77 14.02 9.7 17.72 17.24 3.92 7.98 4.43 20.06 1.2 28.66-3.1 8.25-12.1 17.3-20.28 20.37-6.8 2.54-15.37 3.4-21.3 2.15zm4.78-10.63c1.6-1.46 1.94-1.42 4.07.6 4.54 4.3 16.12.8 20.2-6.1 2.02-3.4 2.06-9.3.1-11.26-1.34-1.34-1.2-1.54 1.24-1.82 2.07-.24 3.24-1.3 4.65-4.2 1.64-3.38 1.74-4.5.74-8.85-1.5-6.47-4.34-10.35-8.6-11.76-4.63-1.5-7.54.02-7.54 3.97 0 3.4 4.8 18.78 6.1 19.6.47.3-3.22 3.3-8.22 6.67-5 3.38-9.33 6.77-9.62 7.52-.4 1.02-1.34.62-3.64-1.54-4.3-4.02-14.68-11.22-16.18-11.22-.88 0-.74-.94.47-3.32.94-1.82 2.8-6.98 4.15-11.47l2.45-8.14 11.9-.28c13.43-.32 14.96-1.1 12.73-6.47-1.7-4.1-6.2-6.45-12.47-6.5-8.05-.08-13.66 3.6-13.66 8.93 0 1.5-.62 1.8-3.25 1.53-7.1-.75-12.75 6.2-12.75 15.7 0 4.12.48 5.62 2.45 7.6 1.35 1.34 2.94 2.44 3.54 2.44.75 0 .76.58.03 1.94-5.56 10.4 12.34 24.37 21.1 16.45zm10.7-13.42c5.57-3.4 7.8-11.93 4.7-17.94-3.6-6.98-11.65-9.6-18.8-6.15-5.47 2.64-7.72 6.46-7.72 13.12 0 4.73.36 5.58 3.88 9.1 3.55 3.55 4.35 3.88 9.25 3.88 3.62 0 6.45-.66 8.68-2.02zm-13.65-6.3c-3.68-3.9-2.77-9.8 1.9-12.22 4.07-2.1 5.7-1.83 9 1.46 3.46 3.46 3.73 6.8.86 10.45-2.77 3.52-8.6 3.68-11.76.32zm-195.9-90.2c-17.05-3.7-32.1-17.52-37.26-34.18-2.7-8.75-2.7-21.8-.02-30.44 3.72-11.98 12.23-22.4 23.52-28.84 24.04-13.7 56.87-4.52 69.6 19.44 1.3 2.5 2.62 4.54 2.9 4.54.28 0 1.52-1.9 2.76-4.25 8.4-15.78 26.1-26.12 44.74-26.12 18.88 0 35.28 9.6 44.75 26.2l3.04 5.35 2.96-5.53c8.44-15.72 25.5-25.85 43.74-25.96 22.55-.14 40.73 12.4 49.03 33.8 1.9 4.94 2.32 7.86 2.3 16.5-.04 16.02-4.6 26.5-16.2 37.22-24.32 22.47-63.9 15.76-79.44-13.46l-2.5-4.66-3.83 6.57c-10.4 17.75-31.92 27.85-52.07 24.4-14.6-2.5-28.4-11.84-35.3-23.92-1.93-3.35-3.77-6.1-4.1-6.12-.33-.02-1.45 1.88-2.5 4.22-2.8 6.27-13.73 16.9-21.28 20.7-11.23 5.66-22.8 7.16-34.86 4.54zm28.73-10.63c15.65-7.34 25-21.84 25-38.77 0-14.55-6.4-26.62-18.58-35.1-11.37-7.9-28.8-9.27-41.64-3.26-34.52 16.17-32.25 65.23 3.64 78.38 7.85 2.88 24.16 2.24 31.58-1.25zm95.28-.13c7.37-3.36 16.64-12.18 20-19.02 3.92-8.03 5.06-13.86 4.45-22.77-1.04-15.24-9.56-27.77-23.6-34.7-7.32-3.63-7.83-3.73-18.63-3.73-10.8 0-11.3.1-18.64 3.73-14.25 7.04-22.86 19.9-23.67 35.32-.7 13.17 2.68 22.32 11.7 31.76 9.4 9.85 17.26 12.88 32.1 12.4 8.75-.3 11.46-.78 16.28-2.98zm96.02-.55c8.9-4.38 15.97-11.4 20-19.9 3.02-6.4 3.2-7.4 3.2-18.27 0-10.33-.27-12.06-2.6-17-8.1-17-23.07-25.84-41.94-24.76-7.07.4-10.1 1.1-15.4 3.6-16.86 7.88-26.93 26.7-23.86 44.6 2.8 16.43 12.74 28.1 28.8 33.82 3.82 1.37 7.36 1.72 15.06 1.5 9.04-.27 10.73-.63 16.74-3.6zM73.56 134.9c-6.66-1.3-17.93-7.06-23.5-12-6.33-5.64-12.07-14.56-14.58-22.68-2.86-9.28-2.7-22.58.4-31.33 5.54-15.73 19.04-28.26 35-32.5 6.04-1.62 19.26-1.78 25.62-.3 12.16 2.8 26.43 13.56 32 24.15 1.37 2.6 2.76 4.75 3.1 4.75.3 0 1.14-1.24 1.82-2.75 4.08-9.02 16.03-19.77 27.1-24.38 7.5-3.12 27.76-3.4 35.48-.48 11.65 4.4 21.53 12.85 27.97 23.93l2.8 4.82 2.9-5.32c3.86-7.07 12.85-16.03 19.75-19.68C257.8 36.7 264.8 35 274.58 35c10.84 0 19.45 2.5 27.8 8.07 27.33 18.26 30.75 56 7.08 78.33-16.75 15.8-39.15 18.96-59.37 8.36-7.56-3.96-17.4-13.7-20.87-20.67l-2.62-5.26-2.46 4.88c-5.3 10.46-15.78 19.5-28.14 24.3-8.66 3.37-25.34 3.37-34 0-12.16-4.7-23.07-13.96-27.68-23.46-1.22-2.5-2.47-4.55-2.77-4.55-.3.02-1.44 1.93-2.53 4.26-2.82 6.06-14.9 17.85-21.52 21.04-10.9 5.24-22.63 6.83-33.94 4.6zm25.54-10.05c11-4.06 19.4-12.05 24.6-23.4 1.9-4.17 2.26-6.67 2.28-15.95.02-10.3-.18-11.42-3.17-17.72C113.46 48 92.06 38.58 71.2 45c-24.97 7.73-36.73 35.7-25.03 59.58 3.33 6.8 12.56 15.72 19.6 18.94 10.16 4.66 22.94 5.17 33.33 1.33zm-22.6-4.2C64.97 118 56.1 111 50.92 100.45 48.35 95.2 48 93.42 48 85.48c0-8.15.3-9.65 3.25-15.62 9.6-19.5 34.2-26.77 52.12-15.44 5.24 3.32 11.98 11 14.4 16.4 3.16 7.1 3.52 19.1.8 26.33-6.65 17.6-24.45 27.55-42.07 23.5zm21.46-9.2c5.36-2.54 8.7-6.77 9.26-11.7.37-3.26.07-4.82-1.18-6.07-1.58-1.57-1.55-1.68.35-1.68 8.73 0 7.9-19.96-1.05-24.58-1.74-.9-4.3-1.38-5.74-1.1-2.22.46-2.62.17-2.75-1.97-.34-5.7-8.64-10.15-16.5-8.82-5.2.87-9.85 4.83-9.85 8.36 0 2.5-.26 2.67-3.5 2.3-11.3-1.33-18.1 18.8-8.37 24.74 1.8 1.1 2.6 2.1 1.95 2.5-.6.38-1.08 2.25-1.08 4.17 0 8 6.86 14.4 15.4 14.4 3.26 0 5.6-.58 6.83-1.7 1.23-1.12 2.13-1.35 2.58-.67 2.28 3.44 8.5 4.27 13.66 1.83zm-16.5-8C79.4 101 66.26 92 64.68 92c-1.13 0-1.18-.3-.22-1.45 1.4-1.7 7.2-20.47 6.62-21.42-.2-.34 5.36-.63 12.4-.63 8.82 0 12.64.34 12.35 1.1-.58 1.5 5.48 20.16 6.8 20.98.58.36-.8 1.7-3.1 3.02-2.3 1.3-6.84 4.4-10.1 6.88-3.28 2.5-6.12 4.52-6.32 4.52-.2 0-.93-.7-1.64-1.54zm10.6-6.5c4.15-2.55 6.97-9.3 6.02-14.38-2-10.6-15.55-15.07-23.4-7.73-6.27 5.85-6.1 15.4.37 21.07C78 98.5 79.4 99 83.67 99c3.38 0 6.2-.68 8.4-2.04zM78.5 91c-3.26-3.26-3-8.5.6-11.75 3.47-3.1 6.95-2.85 10.6.8 2.54 2.54 2.93 3.56 2.4 6.24-.33 1.76-1.56 4-2.7 4.95C86.5 93.63 81 93.5 78.5 91zm113.62 34.44c23.4-6.5 36.14-35.26 25.6-57.77-12.78-27.32-49.8-33.22-70.1-11.17-17.25 18.7-13.85 49.5 7 63.42 11.43 7.64 23.5 9.4 37.5 5.52zm-20.4-4.45c-6.33-1.33-15.9-6.8-19.92-11.43-1.95-2.24-4.73-6.54-6.18-9.57-2.26-4.74-2.62-6.8-2.62-15 0-8.45.3-10.1 2.8-15 3.88-7.55 10.77-14.3 18.1-17.67 5.26-2.44 7.33-2.83 15.1-2.83 7.76 0 9.82.4 15 2.8 22.57 10.54 28.47 38.6 12.07 57.42-7.4 8.5-23.03 13.63-34.34 11.27zm22.25-10.28c7.33-4.15 10.76-12.6 6.87-16.9-1.55-1.7-1.52-1.82.43-1.82 5.85 0 8.3-11.52 4.07-19.08-2.47-4.38-7.78-7.4-11.43-6.5-2.13.55-2.4.3-2.4-2.3 0-3.77-4.5-7.7-9.87-8.6-7.84-1.32-16.13 3.08-16.13 8.56 0 2.6-.18 2.7-3.97 2.2-3.54-.48-4.36-.15-7.4 2.9-3.9 3.9-6.1 10.4-5.08 15.16.77 3.64 4.1 7.66 6.32 7.66 1.2 0 1.26.27.33 1.2-1.84 1.84-1.42 7.93.8 11.56 2.9 4.8 7.55 7.23 13.7 7.24 4.2 0 5.48-.4 6.7-2.17 1.4-1.98 1.6-2.02 2.2-.42 1.52 3.97 9.02 4.63 14.87 1.32zm-17.2-6.68c-1.44-2.3-15.2-12.04-17-12.04-1.06 0-1.1-.45-.2-2.12 2.03-3.8 5.93-16.16 5.93-18.8V68.5h12.84c10.9 0 12.8.23 12.47 1.5-.3 1.26 3.8 14.8 6.08 20.03.48 1.1-1.17 2.72-6 5.9-3.66 2.4-8.08 5.63-9.82 7.16-2.98 2.6-3.23 2.65-4.3.94zm11.18-8.13c8.98-7.87 5.5-22.32-5.9-24.46-14.75-2.76-23.26 14.6-12 24.47 3 2.65 4.3 3.1 8.95 3.1 4.64 0 5.94-.45 8.95-3.1zm-13.22-3.57c-2.15-.86-4.32-6.12-3.64-8.84.77-3.1 4.9-6.5 7.9-6.5s7.13 3.4 7.9 6.5c.74 2.9-1.5 7.94-3.95 8.88-1.87.72-6.38.7-8.22-.05zm114.37 32.52c11.13-4.1 18.95-11.37 24.12-22.42 2.53-5.4 2.78-6.95 2.78-17.43 0-10.92-.16-11.83-3.22-18.07-8.8-17.97-29.7-27.53-49.26-22.52-31.47 8.1-42.35 46.4-19.9 70.12 11.4 12.06 29.6 16.2 45.48 10.33zm-22.6-4.2c-11.62-2.67-20.2-9.6-25.33-20.5-2.76-5.82-3.15-7.7-3.16-15.17 0-7.6.35-9.23 3.25-15.12 3.85-7.83 10.13-13.97 18.07-17.7 4.9-2.3 6.98-2.66 15.18-2.65 8.38 0 10.18.34 15.22 2.8 7.53 3.7 14.3 10.4 17.6 17.48 2.35 5 2.68 6.96 2.68 15.72 0 9.1-.27 10.53-2.96 15.84-7.48 14.76-24.7 22.96-40.54 19.3zm21.3-9c5.23-2.18 9.7-8 9.7-12.64 0-2.15-.62-4.5-1.37-5.2-1.14-1.07-.85-1.45 1.75-2.3 8.42-2.7 5.98-20.62-3.33-24.48-4.38-1.8-8.06-.1-8.04 3.7.03 3.27 4.43 17.9 5.94 19.7.77.94.4 1.56-1.4 2.4-4.1 1.84-16.54 11.26-16.57 12.5-.02.7-.53.55-1.25-.37-2.1-2.67-14.98-11.97-17.43-12.6-1.76-.43-2.1-.9-1.3-1.84 1.27-1.53 7-18.25 7-20.44 0-1.34 1.64-1.52 11.83-1.25 13.07.35 15-.4 13.76-5.3-.93-3.67-3.9-6.23-8.67-7.52-8.3-2.23-17.93 2.3-17.93 8.43 0 1.9-.47 2.1-3.76 1.8-6.95-.67-12.24 6.14-12.24 15.75 0 4.13.48 5.63 2.45 7.6C248.3 90.9 249.9 92 250.5 92c.75 0 .76.58.03 1.94-2.76 5.17.9 13.37 7.3 16.42 4.47 2.1 11.47 2.13 13.8.03 1.64-1.5 1.98-1.46 4.46.5 3.08 2.42 7.08 2.68 11.7.75zm-5.72-14.53c6-3.66 8.16-12.76 4.46-18.8-3.96-6.52-11.8-8.95-18.52-5.76-5.57 2.64-7.7 6.68-7.26 13.68.38 5.98 2.84 10 7.24 11.8 3.64 1.5 10.86 1.04 14.08-.92zm-13.4-6.43c-4.38-4.67-1.85-12.08 4.53-13.3 2.7-.53 3.72-.14 6.26 2.4 3.73 3.73 3.93 7.4.58 10.75-3.24 3.24-8.4 3.3-11.37.14z"/><path d="M57 443.53c-26.42-5.76-47.93-26.33-54.53-52.15C.55 383.88.5 379.55.5 223.28.5 43.8 0 56.05 7.78 40c3.37-6.94 5.78-10.15 13.17-17.54 10.03-10 19.12-15.5 32.58-19.62L61 .54l112.5-.3C249.44 0 288.65.25 294.14.97c34.08 4.47 59.45 29.42 63.45 62.4.6 5.1.86 66.23.67 165.12-.34 176.2.36 160.45-7.92 177.5-5.77 11.88-18.58 24.67-30.85 30.8-17.48 8.7-8.9 8.2-140.4 8.12-91.7-.06-117.36-.35-122.1-1.4zm246-3.8c3.3-.96 9.82-3.6 14.5-5.9 11.8-5.73 23.9-17.76 29.76-29.54 7.8-15.7 7.34-3.27 7.02-184.8l-.28-162-2.68-7.33c-3.87-10.6-8.36-17.64-16.34-25.63-8.14-8.17-16.73-13.48-27.98-17.3l-8-2.74H59l-8 2.82C29.75 14.8 13.75 30.76 6.7 51.5l-2.7 8-.3 158c-.22 114 0 160.22.83 165.95 4.17 29.22 27.2 52.4 57.1 57.44 3.04.5 55.26.82 120.37.73 106.1-.15 115.46-.3 121-1.9z"/></g></g></svg>