<svg xmlns="http://www.w3.org/2000/svg" width="358.497" height="445.701" viewBox="0 0 358.49664 445.70145"><g><g><path fill="#c38c8f" d="M59.48 444.4c-16.1-3.03-29.3-10.3-40.74-22.47-8.5-9.03-13.78-18.63-16.76-30.5-1.95-7.72-2-11.37-1.98-168.5C.02 44.27-.4 55.08 6.92 40.36 16.25 21.6 31.04 9.25 51.98 2.7l7.5-2.35h241l8.77 3.14c12.44 4.44 19 8.64 28.84 18.4 6.88 6.85 9.4 10.22 12.73 17 8.3 16.94 7.65 1.3 7.65 183.95 0 154.2-.1 162.84-1.82 169-5.78 20.63-19.27 36.88-38.18 46-16.54 8-6.08 7.4-136 7.64-92.16.16-117.43-.07-123-1.1zm242.88-5.5c12.15-3.12 22.9-9.24 31.62-18.04 8.45-8.5 12.9-15.45 16.83-26.17l2.68-7.35.3-161.5c.3-180.94.77-168.57-7.02-184.28-3.2-6.47-5.9-10.02-12.67-16.73-9.53-9.43-17.64-14.3-30.13-18.14l-7.5-2.3-111.5-.32c-77.06-.22-114.07.02-119.85.78-10.15 1.33-21.8 5.45-29.74 10.5-13.33 8.5-24.65 23.87-29.06 39.5-1.75 6.18-1.84 14.33-1.84 168.5v162l2.72 8c7.76 22.87 25.5 39.38 48.78 45.44 7.22 1.87 11.86 1.95 123.1 2 111.8.05 115.84 0 123.28-1.9zm-69.05-51.5c-19.48-5.5-34.02-19.8-38.82-38.24-1.72-6.57-1.93-20.7-.42-27.28 3.88-16.8 18.27-32.2 35.73-38.2 5.3-1.83 8.84-2.3 17.18-2.3 8.35 0 11.88.47 17.2 2.3 18.03 6.2 31.93 21.44 35.84 39.33 1.74 7.96.8 23.9-1.82 30.64-5.82 15-17.32 26.34-32.72 32.2-7.7 2.94-24.38 3.74-32.17 1.55zm26.56-10.43c12.5-3.9 21.8-11.98 27.44-23.9 3-6.34 3.18-7.36 3.18-18.22 0-10.88-.17-11.86-3.22-18.3-8.83-18.64-30.33-29.2-50.16-24.64-12.6 2.92-24.77 12.78-30.4 24.65-3.04 6.44-3.22 7.42-3.22 18.3 0 10.86.18 11.88 3.2 18.23 3.62 7.66 10.72 15.76 17.07 19.48 10.64 6.24 24.72 7.96 36.1 4.4zm-24.97-5c-10.52-3.37-19.06-10.93-23.8-21.07-2.3-4.87-2.62-6.83-2.62-16.05 0-9.58.26-11.02 2.94-16.47 11.95-24.38 44.36-29.83 63.5-10.67 2.6 2.6 6 7.4 7.6 10.68 2.64 5.42 2.9 6.95 2.94 16.47.02 9.3-.28 11.15-2.6 16.12-8.44 18-29.1 27.03-47.97 21zm28.74-11.2c6-3.72 8.92-11.1 6.3-15.98-1.64-3.1-4.04-2.34-13.25 4.2-10.06 7.13-11.22 9.16-7.17 12.65 2.34 2 3.46 2.3 6.83 1.76 2.22-.34 5.5-1.54 7.28-2.64zm-20.7 1.1c2.16-1.15 3.2-3.47 2.43-5.46-.95-2.46-17.05-13.55-19.68-13.55-3.9 0-5.3 4.5-3.1 9.97 3 7.5 14.05 12.42 20.33 9.06zm11.75-14.98c8.9-5.43 8.22-20-1.13-24.44-9.86-4.68-20.57 1.67-20.58 12.2-.02 8.53 5.56 14.2 13.98 14.2 2.7 0 5.78-.8 7.7-1.97zm-14.26-5.5c-3.7-3.7-3.43-9.55.62-12.96 4.17-3.5 8.28-3.4 12 .34 6.07 6.07 2.44 15.07-6.08 15.07-3 0-4.73-.64-6.54-2.45zm-10.72-12.14c3.45-10.57 3.44-13.07-.1-13.96-6.28-1.58-12.8 5.5-13.45 14.6-.4 5.5-.22 6.07 2.72 9.02 2.9 2.9 3.3 3.03 5.36 1.7 1.53-1 3.24-4.56 5.46-11.36zm44.13 10.24c6.76-7.2.05-24.38-9.15-23.45-5.1.52-5.5 2.63-2.33 12.5 4.4 13.74 6.75 15.98 11.48 10.95zm-15.8-22.68c2.83-1.52 2.42-5.64-.9-8.96-5.27-5.27-17.74-4.9-22.1.65-2.77 3.52-2.68 7.17.18 8.32 3.14 1.26 20.47 1.26 22.82 0zm-91.07-38.6c-43.56-8.36-60.22-60.64-29.1-91.38 10.84-10.72 23.46-15.94 38.64-15.97 39.26-.08 65.85 41.36 49.08 76.48-6.6 13.84-17.6 23.75-31.62 28.54-6.37 2.16-21.17 3.44-27 2.33zm20.47-10.9c8.53-2.22 14.97-6.1 21.02-12.62 16.2-17.52 16.24-42.75.05-59.72-9.72-10.2-21.22-14.75-34.98-13.86-13.5.86-24.58 6.8-32.77 17.56-24.95 32.8 6.53 79.1 46.68 68.64zm-20.47-4.84c-6.9-1.9-11.6-4.48-16.95-9.27-12.2-10.97-15.9-26.96-9.9-43 1.62-4.37 3.83-7.5 8.76-12.44 8.75-8.75 15-11.32 27.58-11.36 8.07-.02 9.7.3 15.75 3.16 8.3 3.92 15.4 10.82 19.32 18.8 2.68 5.48 2.93 6.9 2.93 16.5 0 9.5-.26 11.04-2.83 16.26-8.25 16.82-27.6 26.06-44.67 21.36zm21.28-9.7c8.17-2.25 14.2-11 11.83-17.18-1.68-4.36-5.14-3.6-14.65 3.28-8.62 6.22-10.57 8.94-8.33 11.63 2.6 3.15 5.74 3.8 11.14 2.3zm-15.24-1.76c3.68-2.98 2.05-5.95-6.75-12.24-9.13-6.55-10.77-7.27-13.36-5.9-2.6 1.4-2.6 8.43.04 12.42 4.43 6.72 15.1 9.76 20.08 5.72zm12.58-15.23c2.95-2.73 5.38-7.74 5.38-11.1 0-3.65-3.75-10.27-6.88-12.12-3.64-2.15-11.22-2.24-15.2-.18-8.93 4.62-9.3 19.1-.62 24.55 4.56 2.87 13.6 2.26 17.32-1.16zm-13.87-3.03c-2.8-1.63-4.95-6.7-4.23-9.98.8-3.64 4.87-6.95 8.54-6.95 1.54 0 4.17 1.16 5.87 2.6 2.46 2.05 3.08 3.36 3.08 6.4 0 6.5-7.75 11.13-13.25 7.92zm31.9-3.48c2.35-2.35 2.54-3.16 2.17-9-.47-7.42-2.57-11-8-13.72-4.15-2.06-8.83-1-8.8 2 .03 2.6 5.74 20.27 7.08 21.9 1.76 2.1 4.72 1.65 7.56-1.2zm-44.94-8.45c1.75-5.22 3.2-10.42 3.24-11.55.12-5.22-6.13-6-11.36-1.4-4.2 3.68-6 8.66-5.33 14.6.64 5.7 3.15 8.55 7.18 8.15 2.9-.28 3.2-.76 6.26-9.8zm27.72-13.97c2.8-1.07 3.44-4.53 1.48-8.18-2.34-4.4-12.66-6.23-19.32-3.45-6.2 2.6-8.88 9.75-4.35 11.57 3.06 1.23 19 1.27 22.2.06zm-82.27-43.14c-8.7-1.07-15-3.32-21.85-7.8-29.72-19.34-33.8-60.4-8.4-84.36 7.2-6.8 16-11.78 24.1-13.65 6.66-1.53 21.75-1.3 28.45.46 8.4 2.17 15 6.03 22.64 13.2 22.38 21.06 22.38 56.45 0 77.5-3.68 3.44-8.96 7.48-11.75 9-9.06 4.86-21.85 7.04-33.2 5.64zm16.1-10.36c16.84-3.56 29.98-15.86 34.18-32 6.56-25.15-10-50.07-36.24-54.5-26.07-4.4-51.17 16.94-51.17 43.47 0 20.4 14.9 38.58 35.22 43 8.1 1.75 9.9 1.75 18 .03zm-21.97-6.33c-32.73-11.67-34.8-57.13-3.3-72.1 4.9-2.3 6.72-2.6 16.5-2.6 9.8 0 11.6.3 16.5 2.6 11.73 5.58 19.7 16.04 22.1 29.05 3.08 16.8-6.17 34.27-22.1 41.7-7.43 3.47-21.9 4.13-29.7 1.35zm9.9-10.86c3.3-3 2.13-5.05-6.45-11.36-9.55-7.02-12.45-8.12-14.4-5.44-6.87 9.4 12.1 24.68 20.84 16.8zm19.93-.2c7.07-4.5 9.88-12.15 5.9-16.12-2.5-2.5-3.52-2.12-13.77 5.2-8.95 6.42-10.33 9.2-6.02 12.22 3.47 2.43 8.8 1.92 13.9-1.3zm-8.1-14.16c3.86-2.75 6.33-8.4 5.7-13.08-.73-5.4-4-9.47-9.26-11.48-3.87-1.48-5.12-1.54-8.68-.48-12.98 3.9-14.45 20.57-2.32 26.22 4.78 2.23 10.42 1.77 14.57-1.18zm-12.66-3.43c-4.3-1.86-6.04-6.98-4-11.82 1.8-4.34 5.94-6.04 11.18-4.6 7.57 2.1 8.18 13.42.9 16.47-4.04 1.7-4.1 1.7-8.08-.04zm-16.93-3.8c2.14-3.28 6.76-18.5 6.4-21.05-.25-1.75-1.1-2.26-4.1-2.5-9.66-.8-16.38 16-9.43 23.55 1.13 1.24 2.87 2.25 3.87 2.25s2.46-1 3.27-2.25zm48.5-.38c2.5-3.18 2.83-11.03.62-15.3-4.4-8.5-14.54-11.03-14.54-3.63 0 3.14 3.7 15.24 5.94 19.43 1.6 2.97 5.45 2.72 8-.5zm-15.5-22.94c1.87-1.85 1.84-1.62.6-4.86-3.32-8.75-22.7-8.75-26.04 0-1.23 3.24-1.26 3 .6 4.86 2.28 2.28 22.57 2.28 24.85 0z"/><path fill="#8f93a0" d="M63.48 445.14c-11.98-1.66-27.2-8.17-36.68-15.7-8.03-6.38-15.52-15.77-19.98-25.1-7.3-15.18-6.9-4.1-6.6-184.74L.48 57.35l2.76-8.13c3.56-10.5 10.63-21.2 19.4-29.37 8.6-8 15.7-12.3 27.08-16.36L58.48.34h240l7.47 2.35c25.58 8.03 43.8 26.4 50.72 51.15 1.72 6.16 1.8 15 1.8 168.5 0 182.04.66 166.53-7.6 183.38-7.3 14.87-22.72 28.73-38.75 34.82-13.9 5.28-12.97 5.24-133.64 5.12-61.6-.06-113.35-.3-115-.53zm239.1-6.3c20-5.07 35.33-17.22 44.37-35.2 7.57-15.04 7.13-3.2 6.82-184.3l-.3-162-2.66-7.32c-3.78-10.38-8.3-17.56-15.87-25.2C324.05 13.8 310 6.97 293.8 4.84c-5.72-.75-43.26-1-120.32-.77l-112 .32L54 6.7c-12.62 3.87-20.6 8.7-30.04 18.13-6.37 6.37-9.46 10.42-12.24 16.02-7.8 15.73-7.24 1.24-7.24 182 0 153.68.1 161.82 1.84 168 6.63 23.46 25.33 41.8 48.9 48 6.94 1.8 12.5 1.9 123.35 1.95 113 .05 116.3 0 124-1.95zm-68.96-51.57c-8.82-2.14-17.38-7.12-24.75-14.4-10.7-10.58-15.9-22.98-15.9-38.02 0-15 5.15-27.18 16.08-38.02 29.23-29 78.5-15.94 90.32 23.96 2.1 7.06 2.1 21.05 0 28.12-4.2 14.12-14.7 27.24-26.98 33.7-11.38 5.96-26.08 7.72-38.78 4.65zm27.6-10.5c18.5-6.23 29.76-21.9 29.76-41.43 0-13.86-3.92-23.34-13.34-32.25-8.48-8.03-19.04-12.25-30.66-12.25-11.6 0-22.17 4.22-30.65 12.24-10.18 9.62-13.84 19.3-13.1 34.64.5 10.9 2.44 16.36 8.74 24.7 10.52 13.94 31.92 20.17 49.24 14.34zm-23.5-3.94c-11-2.78-21.02-11.14-26.05-21.75-2.9-6.1-3.2-7.62-3.2-16.25 0-8.73.3-10.07 3.28-16.16 4.18-8.5 12.88-16.75 20.95-19.9 4.4-1.73 7.83-2.27 14.28-2.27 6.46 0 9.9.54 14.3 2.26 8.06 3.16 16.76 11.42 20.94 19.9 3 6.1 3.26 7.44 3.26 16.17 0 8.56-.3 10.18-3.08 16.03-6.36 13.43-18.77 21.87-33.17 22.55-4.26.2-9.43-.05-11.5-.57zm24.3-11.23c5.84-2.95 9.15-7.9 8.76-13.1-.58-7.67-4.35-7.28-16.3 1.66-5.9 4.42-7 5.7-7 8.2 0 5.5 6.98 7.06 14.53 3.24zm-19.1.28c2.23-1.18 3.2-3.5 2.4-5.6-1.07-2.8-16.52-13.43-19.5-13.43-8.22 0-4.6 14.6 4.62 18.6 3.62 1.57 9.95 1.8 12.5.43zm14.18-16.9c3.55-3.56 3.88-4.35 3.88-9.26 0-9.26-5.3-14.87-14-14.87s-13.98 5.6-14 14.87c0 4.9.34 5.7 3.9 9.25 3.67 3.68 4.2 3.88 10.1 3.88 5.9 0 6.44-.2 10.12-3.88zm-16.2-4.05c-2-2-2.92-3.92-2.92-6.08 0-4.3 4.7-9 9-9s9 4.7 9 9-4.7 9-9 9c-2.15 0-4.08-.92-6.07-2.92zm-15.5-.63c2-2 8-20.9 7.25-22.88-.32-.83-1.73-1.8-3.14-2.15-6.76-1.7-13.52 6.04-13.52 15.5 0 6 1.22 8.83 4.32 10.08 3.06 1.23 3.35 1.2 5.1-.55zm47.04.93c4.57-1.75 5.83-11.1 2.43-18.1-2.66-5.5-5.62-7.5-10.56-7.1-4.85.4-5.25 2.4-2.32 11.6 4.45 13.98 5.6 15.47 10.46 13.6zm-14.4-24.4c4.43-2.38 1.26-9.4-5.37-11.9-5.88-2.24-15.24-.35-18.3 3.68-1.9 2.52-1.7 6.97.36 8.17 2.3 1.34 20.83 1.38 23.32.05zm-94.4-39.5c-13-3.3-25.46-12.18-33-23.54-9.93-15-11.32-35.25-3.55-51.63 15.63-32.96 58.6-41.58 85.42-17.12 30.74 28.04 20.44 77.04-19.12 90.86-7.84 2.76-21.9 3.43-29.77 1.44zm31.77-12.78c13.6-6.46 22.3-18.07 24.8-33.12 3.57-21.63-10.6-43.58-31.68-49.03-29.38-7.6-56.47 12.8-56.52 42.62-.03 12.2 4.96 23.8 13.76 32.03 9.27 8.67 18.8 12 32.9 11.44 8.07-.32 10.1-.8 16.75-3.95zm-31.13-3.1c-10.36-3.36-18.5-10.58-23.15-20.48-2.32-4.95-2.64-6.86-2.64-16.14 0-9.85.2-10.94 3.25-17.12 3.86-7.82 10.13-13.96 18.08-17.7 5.08-2.36 6.86-2.65 16.68-2.65 10.13 0 11.47.23 16.95 2.92 7.85 3.86 14 10.16 17.88 18.38 2.88 6.07 3.18 7.6 3.18 16.2s-.3 10.14-3.18 16.23c-3.84 8.1-10.27 14.65-18.1 18.4-4.77 2.3-7.3 2.8-15.22 3.05-6.1.2-11-.2-13.7-1.07zm9.1-10.53c3.26-3.26 1.46-6.15-8.04-12.9-4.8-3.4-9.3-6.17-10.05-6.17-1.08 0-1.06-.43.13-2.25 2.25-3.4 6.57-16.84 6.58-20.4 0-3.37-1.33-4.36-5.83-4.32-8.98.07-14.86 16.43-8.58 23.9 1.43 1.7 3.24 3.07 4.03 3.07 1.2 0 1.15.43-.2 2.5-2.46 3.75-1.1 8.8 3.6 13.52 6.06 6.06 14.03 7.38 18.36 3.05zm16.9 1.58c3.84-1.6 9.43-7.66 10.3-11.16.9-3.5-.26-7.24-2.6-8.5-2.42-1.3-4.74-.13-14.5 7.25-7.93 6-8.96 8.45-4.9 11.64 3.1 2.43 7.1 2.7 11.7.76zm-7.85-14.66c5.93-2.94 8.06-6.37 8.06-13 0-7-2.76-11.16-8.96-13.53-5.7-2.17-10.48-1.3-15.04 2.7-10.02 8.8-3.8 24.9 9.94 25.74 1.06.06 3.76-.8 6-1.9zm-12.44-7c-2.17-2.16-2.7-7.82-1-10.97.54-1.02 2.5-2.36 4.35-2.97 8.48-2.8 15.06 6.35 9.58 13.32-2.67 3.4-9.8 3.76-12.92.63zm33.86-1.53c2.8-3.54 3.46-7.54 2.1-12.58-1.34-5-7.64-11.87-10.9-11.87-3.43 0-6.06 1.87-6.04 4.3 0 2.95 4.73 17.62 6.57 20.45 1.97 3.03 5.76 2.9 8.27-.3zM188.4 206.3c6-5.98-6.05-14.88-16.84-12.44-7.45 1.68-12.58 10.16-7.83 12.93.97.56 6.56 1.04 12.43 1.05 8.4.03 11.02-.3 12.25-1.54zm-83.92-42.55c-20.17-2.37-37.9-16.94-44.7-36.77-3.2-9.37-3.18-23.9.06-33.37C67.5 71.22 87.7 56.84 111.5 56.84c23.8 0 43.95 14.33 51.63 36.74 3.27 9.53 3.27 23.98 0 33.52-8.4 24.56-32.6 39.66-58.64 36.6zm14.5-9.94c13.05-2.13 25.23-10.54 31.22-21.6 14.93-27.5-1.03-60.44-31.68-65.34-18.27-2.92-37.32 6.1-45.75 21.64-16.12 29.7 3.62 64.37 37.7 66.23 1.1.06 4.93-.36 8.5-.94zm-19.05-6.34c-11.66-4.48-21.16-13.34-25-23.32-3.1-8-3.08-19.58 0-27.6 3.14-8.14 12.04-17.48 20.28-21.3 5.6-2.57 7.36-2.9 16.28-2.9 8.93 0 10.68.33 16.28 2.9 8.24 3.82 17.14 13.16 20.27 21.3 3.1 8.02 3.1 19.6 0 27.6-2.95 7.7-11.48 16.88-19.47 20.98-5.33 2.73-7.24 3.15-15.58 3.4-6.3.2-10.7-.16-13.05-1.06zm7.05-9.9c1.82-.92 2.5-2.07 2.5-4.22 0-2.53-1.17-3.82-8.4-9.22-10.98-8.16-15.1-8.22-15.1-.2 0 4.94 3.54 9.94 8.97 12.68 5.03 2.54 8.38 2.8 12.03.96zm22.54-2.16c3.66-2.8 6.46-7.74 6.46-11.4 0-1.06-.84-2.97-1.88-4.25-1.67-2.07-2.17-2.2-4.56-1.1-1.48.67-6.03 3.7-10.12 6.72-6.32 4.67-7.44 5.94-7.44 8.44 0 3.9 2.34 5.2 8.68 4.76 3.77-.26 6.18-1.12 8.86-3.16zm-9.67-13.26c4.08-2.98 6.32-8.07 5.8-13.15-.83-8.17-7.46-13.63-15.53-12.8-14.32 1.45-17.85 20.23-5.06 26.96 4.22 2.22 11 1.75 14.8-1.02zm-10.5-3.07c-6.34-.96-8.93-10.1-4.2-14.84 5.57-5.57 15.23-1.72 15.23 6.07 0 5.76-4.94 9.7-11.02 8.77zM93.7 107.35c1.76-4.95 3.1-10.57 3-12.5-.2-3.34-.4-3.5-4.34-3.8-3.45-.25-4.6.18-7.1 2.68-7.76 7.76-5.97 23.92 2.54 22.93 2.4-.27 3.02-1.24 5.9-9.3zm45.73 7.28c2.07-2.96 2-12-.12-16.5-2.96-6.27-11.97-9.65-14.27-5.36-.77 1.44-.3 4.3 1.98 11.66 1.66 5.36 3.5 10.35 4.12 11.1 1.77 2.13 6.55 1.62 8.3-.9zm-15.13-23.9c1.47-2.35-.74-7.1-4.26-9.2-3.84-2.25-14.25-2.27-18.07 0-2.72 1.6-5 5.1-5 7.67 0 3.13 2.44 3.7 14.4 3.43 9.7-.22 12.1-.58 12.93-1.9z"/><path fill="#7f7f7f" d="M63.48 445.14c-11.98-1.66-27.2-8.17-36.68-15.7-8.03-6.38-15.52-15.77-19.98-25.1-7.3-15.18-6.9-4.1-6.6-184.74L.48 57.35l2.76-8.13c3.56-10.5 10.63-21.2 19.4-29.37 8.6-8 15.7-12.3 27.08-16.36L58.48.34h240l7.47 2.35c25.58 8.03 43.8 26.4 50.72 51.15 1.72 6.16 1.8 15 1.8 168.5 0 182.04.66 166.53-7.6 183.38-7.3 14.87-22.72 28.73-38.75 34.82-13.9 5.28-12.97 5.24-133.64 5.12-61.6-.06-113.35-.3-115-.53zm239.1-6.3c20-5.07 35.33-17.22 44.37-35.2 7.57-15.04 7.13-3.2 6.82-184.3l-.3-162-2.66-7.32c-3.78-10.38-8.3-17.56-15.87-25.2C324.05 13.8 310 6.97 293.8 4.84c-5.72-.75-43.26-1-120.32-.77l-112 .32L54 6.7c-12.62 3.87-20.6 8.7-30.04 18.13-6.37 6.37-9.46 10.42-12.24 16.02-7.8 15.73-7.24 1.24-7.24 182 0 153.68.1 161.82 1.84 168 6.63 23.46 25.33 41.8 48.9 48 6.94 1.8 12.5 1.9 123.35 1.95 113 .05 116.3 0 124-1.95zm-64.66-51c-19.42-3.02-35.57-16.75-42.1-35.8-3.04-8.8-3.25-24.9-.45-33.2 5.98-17.7 19.86-30.95 37.16-35.45 7.53-1.98 21.38-1.98 28.9 0 38.23 9.94 52.16 57.53 25.66 87.6-11.33 12.85-31.17 19.64-49.18 16.84zm18.98-9.53c17.9-4.2 31.22-18.53 34.38-36.93 2.76-16.14-5.12-33.4-19.88-43.57-12.68-8.73-33.36-9.3-47.03-1.32-6.07 3.55-15.1 13.53-18.03 19.9-11.6 25.34 2.45 54.55 29.64 61.66 8.15 2.13 12.8 2.2 20.92.27zm-22.82-6.95c-10.06-3.14-19.72-12.72-23.7-23.5-2.52-6.82-2.27-20.02.52-27.24 3.1-7.98 10.54-15.86 18.9-19.97 6.23-3.07 7.3-3.28 17.18-3.28 9.9 0 10.96.2 17.2 3.28 8.35 4.1 15.8 12 18.9 19.98 2.78 7.23 3.03 20.43.5 27.25-4 10.9-12.48 19.36-23.1 23.1-6.5 2.28-19.72 2.48-26.4.4zm10.03-10.1c3.9-3.53 1.82-6.48-10.43-14.78-3.75-2.54-7.3-4.62-7.87-4.62-.7 0-.68-.46.1-1.38 1.5-1.83 7.08-18.42 7.08-21.1 0-5.6-7.18-6.26-12.3-1.15-7.16 7.17-7.14 19.16.06 22.76 2.8 1.4 3.04 1.8 1.75 2.87-1.9 1.57-1.95 6.27-.1 9.8 4.43 8.54 16.14 12.63 21.7 7.6zm17.18 1.25c4.16-1.73 9.32-7.62 10.2-11.6.87-3.97-1.6-8.05-4.85-8.05-1.27 0-6.1 2.82-10.73 6.27-6.35 4.72-8.5 6.9-8.72 8.9-.6 5.1 6.92 7.48 14.1 4.48zm-9.6-13.7c4-1.53 8.07-5.72 9.38-9.68 3.5-10.57-7-21.25-17.98-18.3-7.05 1.9-12.4 10.65-10.7 17.45.86 3.44 5.46 8.6 9.06 10.18 3.75 1.63 6.56 1.73 10.23.34zm-8.7-6.2c-5.3-2.76-6.27-11.04-1.7-14.24 3-2.1 9-1.9 11.82.4 3.07 2.47 3.27 9.15.36 12.06-2.6 2.6-7.35 3.4-10.48 1.78zm31.93-3.38c4.48-5.68 1.54-18.3-5.2-22.4-4.04-2.46-6.2-2.48-8.63-.05-1.54 1.54-1.75 2.56-1.07 5.25 1.45 5.8 4.6 15.26 5.85 17.6 1.73 3.2 6.38 3 9.06-.4zm-15.48-23.3c2.17-2.4 1.48-4.82-2.45-8.58-2.42-2.32-4.1-2.94-8.85-3.28-7.43-.54-12.65 1.7-14.9 6.43-1.48 3.08-1.46 3.45.24 5.33 1.63 1.8 3.06 2.02 13.02 2.02 9.8 0 11.4-.24 12.94-1.92zm-98.32-39.65c-22.45-6.03-38.37-27.1-38.5-50.92-.04-10.07 1.65-17.1 6.26-26 6.44-12.43 18.3-21.9 32.62-26.06 6.95-2.03 20.47-2.27 27.97-.5 23.6 5.54 40.53 27.3 40.53 52.05 0 23.46-14.05 43-36.28 50.46-6.15 2.08-9.4 2.54-17.4 2.5-5.4-.05-12.24-.73-15.2-1.53zm28.55-9c12.5-3.46 25.33-16.17 29.3-29.03 7.9-25.63-7.6-51.46-34.26-57.02-24.32-5.06-48.37 11.78-52.75 36.94-3.2 18.27 7.08 37.7 24.4 46.2 11.22 5.5 20.98 6.35 33.3 2.92zm-25.38-5.8c-10.36-3.38-18.5-10.6-23.15-20.5-2.32-4.95-2.64-6.86-2.64-16.14 0-9.85.2-10.94 3.25-17.12 3.86-7.82 10.13-13.96 18.08-17.7 5.08-2.36 6.86-2.65 16.68-2.65 10.13 0 11.47.23 16.95 2.92 7.85 3.86 14 10.16 17.88 18.38 2.88 6.07 3.18 7.6 3.18 16.2s-.3 10.14-3.18 16.23c-3.84 8.1-10.27 14.65-18.1 18.4-4.77 2.3-7.3 2.8-15.22 3.05-6.1.2-11-.2-13.7-1.07zm9.1-10.55c3.26-3.26 1.46-6.15-8.04-12.9-4.8-3.4-9.3-6.17-10.05-6.17-1.08 0-1.06-.43.13-2.25 2.25-3.4 6.57-16.84 6.58-20.4 0-3.37-1.33-4.36-5.83-4.32-8.98.07-14.86 16.43-8.58 23.9 1.43 1.7 3.24 3.07 4.03 3.07 1.2 0 1.15.43-.2 2.5-2.46 3.75-1.1 8.8 3.6 13.52 6.06 6.06 14.03 7.38 18.36 3.05zm16.9 1.58c3.84-1.6 9.43-7.66 10.3-11.16.9-3.5-.26-7.24-2.6-8.5-2.42-1.3-4.74-.13-14.5 7.25-7.93 6-8.96 8.45-4.9 11.64 3.1 2.43 7.1 2.7 11.7.76zm-7.85-14.66c5.93-2.94 8.06-6.37 8.06-13 0-7-2.76-11.16-8.96-13.53-5.7-2.17-10.48-1.3-15.04 2.7-10.02 8.8-3.8 24.9 9.94 25.74 1.06.06 3.76-.8 6-1.9zm-12.44-7c-2.17-2.16-2.7-7.82-1-10.97.54-1.02 2.5-2.36 4.35-2.97 8.48-2.8 15.06 6.35 9.58 13.32-2.67 3.4-9.8 3.76-12.92.63zm33.86-1.53c2.8-3.54 3.46-7.55 2.1-12.58-1.34-5-7.64-11.87-10.9-11.87-3.43 0-6.06 1.87-6.04 4.3 0 2.95 4.73 17.62 6.57 20.45 1.97 3.03 5.76 2.9 8.27-.3zM188.4 206.3c6-5.98-6.05-14.88-16.84-12.44-7.45 1.68-12.58 10.16-7.83 12.93.97.56 6.56 1.04 12.43 1.05 8.4.03 11.02-.3 12.25-1.54zM100.5 162.9c-10.56-2.3-22.64-9-29.17-16.15-3.88-4.27-9.34-14.24-11.35-20.75-2.67-8.65-2.67-22.65 0-31.3 2.24-7.25 7.68-16.8 12.35-21.67 4.93-5.14 13.97-10.77 21.42-13.33 9.66-3.32 25.87-3.32 35.53 0 22.1 7.6 35.73 26.94 35.73 50.65 0 23.4-13.02 42.28-34.62 50.17-7.57 2.77-22.57 3.97-29.88 2.38zm22-9.4c20.2-5.38 33.5-22.53 33.5-43.15 0-34-36.04-55.2-66.06-38.87-23.35 12.7-30.33 44.02-14.5 65.06 11.03 14.7 29.97 21.5 47.06 16.96zm-21.27-6.14c-7.43-2.1-10.86-4.06-16.78-9.66-3.27-3.08-6.25-7.2-8.06-11.12-2.56-5.54-2.88-7.32-2.88-16.23 0-8.92.32-10.67 2.9-16.28 3.72-8.05 12.24-16.15 20.32-19.3 4.5-1.77 7.8-2.28 14.78-2.28 7 0 10.3.5 14.8 2.26 8.07 3.16 16.6 11.26 20.3 19.3 2.6 5.62 2.9 7.37 2.9 16.3 0 8.92-.3 10.67-2.9 16.28-3.74 8.1-12.25 16.17-20.3 19.25-7.35 2.8-18.06 3.43-25.07 1.46zm22-8.55c6.87-1.9 12.78-8.64 12.78-14.57 0-3-2.5-6.38-4.75-6.38-1.67 0-15.84 9.8-18.62 12.87l-1.87 2.08-1.92-2.44c-2.9-3.72-15.9-12.5-18.5-12.5-1.33 0-2.96 1.04-3.94 2.54-2.32 3.55-.52 9.24 4.25 13.43 6.6 5.78 13.72 6.78 17.97 2.53 2.03-2.03 2.6-2.2 3.07-.97.58 1.52 4.97 4.34 6.84 4.4.55.03 2.68-.42 4.72-1zm-1.4-18.3c3.48-3.47 3.68-4.04 3.68-10.08 0-5.45-.37-6.8-2.5-9.08-3.43-3.67-7.23-5.5-11.5-5.5-4.26 0-8.06 1.83-11.5 5.5-2.12 2.27-2.5 3.63-2.5 9 0 6.84 1.2 9 7 12.7 2.27 1.46 4.3 1.83 8.33 1.53 4.54-.33 5.87-.93 9-4.07zm-16.36-4.1c-5.4-5.4-1.6-14.55 6.04-14.55 4.88 0 8.5 3.63 8.5 8.5 0 2.48-.76 4.35-2.45 6.05-1.7 1.7-3.57 2.45-6.05 2.45-2.47 0-4.35-.76-6.04-2.45zm31.6.42c1.06-.56 2.6-2.34 3.43-3.95 4.52-8.72-2.67-22.56-11.33-21.8-5.4.45-5.93 2.4-3.17 11.46 4.36 14.3 6.32 16.84 11.07 14.3zm-45.7-2.72c.8-1.5 2.66-6.7 4.16-11.53 2.64-8.45 2.67-8.85.96-10.75-5.4-5.96-16.48 3.47-16.48 14.04 0 4.33 2.1 9.47 4.23 10.32 3.26 1.3 5.78.58 7.15-2.08zm31.42-21.8c4.3-3 2.3-8.6-4.1-11.5-5.3-2.4-10.06-2.4-15.34 0-6.7 3.03-8.44 9.2-3.34 11.76 3.74 1.9 19.98 1.7 22.78-.26z"/><path fill="#4b526a" d="M56.47 443.38c-13.7-2.98-26.37-10.1-36.5-20.47C9.14 411.77 3.03 399.04.94 383.18.25 378 0 321.87.2 217.35.55 39.95-.16 55.87 8.17 38.85c3.34-6.82 5.85-10.18 12.74-17.03C30.44 12.34 39.85 6.72 53 2.7L60.5.4l113-.32c76.3-.22 115.65.03 121.15.75 26 3.42 46.6 18.2 57.36 41.22 6.23 13.33 5.95 4.85 5.97 180.9 0 157.1-.03 160.76-1.98 168.5-3.34 13.2-8.2 21.64-18.5 32-7.34 7.38-10.6 9.84-17.52 13.24-4.67 2.3-12.05 5.06-16.4 6.16-7.7 1.94-11.2 2-124.5 1.9-92.18-.05-117.86-.34-122.6-1.38zm246-3.8c25.08-7.3 43.78-25.8 50.25-49.73 1.65-6.07 1.76-16.94 1.76-167.5 0-153.2-.08-161.3-1.83-167.5-3.16-11.2-9.28-21.58-17.63-29.95-8.63-8.64-17.08-13.92-28.54-17.82l-8-2.73-115.5-.3c-81.3-.2-117.42.05-122 .84C34.5 9.4 11.2 31.32 5.53 57.06 4.08 63.62 3.95 80.52 4.2 225.85l.28 161.5 2.68 7.34c3.97 10.83 8.44 17.77 16.87 26.15 11.06 11 23.3 17.4 38.08 19.9 3.04.5 55.3.83 119.88.74 105.75-.16 114.96-.3 120.5-1.92zm-64.55-51.74c-19.42-3.02-35.57-16.75-42.1-35.8-3.04-8.8-3.25-24.9-.45-33.2 5.98-17.7 19.86-30.95 37.16-35.45 7.53-1.98 21.38-1.98 28.9 0 38.23 9.94 52.16 57.53 25.66 87.6-11.33 12.85-31.17 19.64-49.18 16.84zm18.98-9.53c17.9-4.2 31.22-18.53 34.37-36.93 2.77-16.14-5.1-33.4-19.87-43.57-12.68-8.73-33.36-9.3-47.03-1.32-6.07 3.55-15.1 13.53-18.03 19.9-11.6 25.34 2.45 54.55 29.64 61.66 8.15 2.13 12.8 2.2 20.92.27zm-22.82-6.95c-10.06-3.14-19.72-12.72-23.7-23.5-2.52-6.82-2.27-20.02.52-27.24 3.1-7.98 10.54-15.86 18.9-19.97 6.23-3.07 7.3-3.28 17.18-3.28 9.9 0 10.96.2 17.2 3.28 8.35 4.1 15.8 12 18.9 19.98 2.78 7.23 3.03 20.43.5 27.25-4 10.9-12.48 19.36-23.1 23.1-6.5 2.28-19.72 2.48-26.4.4zm10.03-10.1c3.9-3.53 1.82-6.48-10.43-14.78-3.75-2.54-7.3-4.62-7.87-4.62-.7 0-.68-.46.1-1.38 1.5-1.83 7.08-18.42 7.08-21.1 0-5.6-7.18-6.26-12.3-1.15-7.16 7.17-7.14 19.16.06 22.76 2.8 1.4 3.04 1.8 1.75 2.87-1.9 1.57-1.95 6.27-.1 9.8 4.43 8.54 16.14 12.63 21.7 7.6zm17.18 1.25c4.16-1.73 9.32-7.62 10.2-11.6.87-3.97-1.6-8.05-4.85-8.05-1.27 0-6.1 2.82-10.73 6.27-6.35 4.72-8.5 6.9-8.72 8.9-.6 5.1 6.92 7.48 14.1 4.48zm-9.6-13.7c4-1.53 8.07-5.72 9.38-9.68 3.5-10.57-7-21.25-17.98-18.3-7.05 1.9-12.4 10.65-10.7 17.45.86 3.44 5.46 8.6 9.06 10.18 3.75 1.63 6.56 1.73 10.23.34zm-8.7-6.2c-5.3-2.76-6.27-11.04-1.7-14.24 3-2.1 9-1.9 11.82.4 3.07 2.47 3.27 9.15.36 12.06-2.6 2.6-7.35 3.4-10.48 1.78zm31.93-3.38c4.48-5.68 1.54-18.3-5.2-22.4-4.04-2.46-6.2-2.48-8.63-.05-1.54 1.54-1.75 2.56-1.07 5.25 1.45 5.8 4.6 15.26 5.85 17.6 1.73 3.2 6.38 3 9.06-.4zm-15.48-23.3c2.17-2.4 1.48-4.82-2.45-8.58-2.42-2.32-4.1-2.94-8.85-3.28-7.43-.54-12.65 1.7-14.9 6.43-1.48 3.08-1.46 3.45.24 5.33 1.63 1.8 3.06 2.02 13.02 2.02 9.8 0 11.4-.24 12.94-1.92zm-98.32-39.65c-22.45-6.03-38.37-27.1-38.5-50.92-.04-10.07 1.65-17.1 6.26-26 6.44-12.43 18.3-21.9 32.62-26.06 6.95-2.03 20.47-2.27 27.97-.5 23.6 5.54 40.53 27.3 40.53 52.05 0 23.46-14.05 43-36.28 50.46-6.15 2.08-9.4 2.54-17.4 2.5-5.4-.05-12.24-.73-15.2-1.53zm28.55-9c12.5-3.46 25.33-16.17 29.3-29.03 7.9-25.63-7.6-51.46-34.26-57.02-24.32-5.06-48.37 11.78-52.75 36.94-3.2 18.27 7.08 37.7 24.4 46.2 11.22 5.5 20.98 6.35 33.3 2.92zm-26.44-6.33c-7.6-2.82-14.53-8.3-19.05-15.08-4.9-7.35-6.54-13.92-5.96-24 .8-13.73 8.62-25.34 21.3-31.57 5.47-2.7 6.9-2.95 16.5-2.95 9.86 0 10.93.2 17.17 3.28 8.3 4.08 15.78 11.97 18.95 19.98 3.18 8.05 3.18 20.46 0 28.5-3.16 7.97-10.65 15.9-18.86 19.94-5.7 2.8-7.8 3.28-15.67 3.55-7.15.23-10.26-.13-14.4-1.66zm8.32-8.53c2.8-1.17 3.46-1.98 3.46-4.32 0-1.72-.9-3.7-2.25-4.9-4.63-4.16-15.56-11.33-17.28-11.33-1.6 0-1.63-.16-.25-1.75 2.32-2.66 6.96-17.73 6.6-21.45-.3-3.08-.6-3.32-4.37-3.6-7.42-.54-12.45 6.02-12.45 16.25 0 4.66.43 6.07 2.46 8.1 1.35 1.35 3.17 2.45 4.06 2.45 1.45 0 1.46.2.04 2.23-4.07 5.8 1.04 15.1 10.1 18.32 4.93 1.75 5.7 1.75 9.88 0zm20.94-.83c7.3-4.14 10.95-13.38 7-17.76-1.42-1.54-1.3-1.73 1.3-2.25 8.2-1.64 7.34-19.6-1.2-24.8-3.5-2.15-7.62-2.45-9.38-.7-1.94 1.95-1.4 6.02 2.12 16.12l3.3 9.5-6.44 4.25c-9.35 6.15-13.18 9.77-13.18 12.48 0 5.42 9.34 7.2 16.48 3.17zm-7.74-14.28c5.7-3.75 8.03-13.13 4.78-19.4-6.08-11.78-24.1-9.76-27.55 3.1-1.92 7.1 2 14.84 9.03 17.8 3.2 1.32 10.67.5 13.74-1.5zm-14.56-6.76c-4.24-4.5-2.1-11.83 4.13-14.03 2.5-.87 8.28 1.73 9.7 4.37 1.6 3 .4 8.6-2.28 10.46-3.34 2.33-9 1.95-11.56-.8zm18.62-23.9c3.58-3.56-1.16-10.88-8.2-12.66-9.53-2.4-18.6 2.04-18.6 9.1 0 4.2 1.65 4.77 14 4.77 7.7 0 12-.4 12.8-1.2zm-88.3-43.74c-10.56-2.3-22.64-9-29.17-16.15-3.88-4.27-9.34-14.24-11.35-20.75-2.67-8.65-2.67-22.65 0-31.3 2.24-7.25 7.68-16.8 12.35-21.67 4.93-5.14 13.97-10.77 21.42-13.33 9.66-3.32 25.87-3.32 35.53 0 22.1 7.6 35.73 26.94 35.73 50.65 0 23.4-13.02 42.28-34.62 50.17-7.57 2.77-22.57 3.97-29.88 2.38zm22-9.4c20.2-5.38 33.5-22.53 33.5-43.15 0-34-36.04-55.2-66.06-38.87-23.35 12.7-30.33 44.02-14.5 65.06 11.03 14.7 29.97 21.5 47.06 16.96zm-21.27-6.14c-7.43-2.1-10.86-4.06-16.78-9.66-3.27-3.08-6.25-7.2-8.06-11.12-2.56-5.54-2.88-7.32-2.88-16.23 0-8.92.32-10.67 2.9-16.28 3.72-8.05 12.24-16.15 20.32-19.3 4.5-1.77 7.8-2.28 14.78-2.28 7 0 10.3.5 14.8 2.26 8.07 3.16 16.6 11.26 20.3 19.3 2.6 5.62 2.9 7.37 2.9 16.3 0 8.92-.3 10.67-2.9 16.28-3.74 8.1-12.25 16.17-20.3 19.25-7.35 2.8-18.06 3.43-25.07 1.46zm22-8.55c6.87-1.9 12.78-8.64 12.78-14.57 0-3-2.5-6.38-4.75-6.38-1.67 0-15.84 9.8-18.62 12.87l-1.87 2.08-1.92-2.44c-2.9-3.72-15.9-12.5-18.5-12.5-1.33 0-2.96 1.04-3.94 2.54-2.32 3.55-.52 9.24 4.25 13.43 6.6 5.78 13.72 6.78 17.97 2.53 2.03-2.03 2.6-2.2 3.07-.97.58 1.52 4.97 4.34 6.84 4.4.55.03 2.68-.42 4.72-1zm-1.4-18.3c3.48-3.47 3.68-4.04 3.68-10.08 0-5.45-.37-6.8-2.5-9.08-3.43-3.67-7.23-5.5-11.5-5.5-4.26 0-8.06 1.83-11.5 5.5-2.12 2.27-2.5 3.63-2.5 9 0 6.84 1.2 9 7 12.7 2.27 1.46 4.3 1.83 8.33 1.53 4.54-.33 5.87-.93 9-4.07zm-16.36-4.1c-5.4-5.4-1.6-14.55 6.04-14.55 4.88 0 8.5 3.63 8.5 8.5 0 2.48-.76 4.35-2.45 6.05-1.7 1.7-3.57 2.45-6.05 2.45-2.47 0-4.35-.76-6.04-2.45zm31.6.42c1.06-.56 2.6-2.34 3.43-3.95 4.52-8.72-2.67-22.56-11.33-21.8-5.4.45-5.93 2.4-3.17 11.46 4.36 14.3 6.32 16.84 11.07 14.3zm-45.7-2.72c.8-1.5 2.66-6.7 4.16-11.53 2.64-8.45 2.67-8.85.96-10.75-5.4-5.96-16.48 3.47-16.48 14.04 0 4.33 2.1 9.47 4.23 10.32 3.26 1.3 5.78.58 7.15-2.08zm31.42-21.8c4.3-3 2.3-8.6-4.1-11.5-5.3-2.4-10.06-2.4-15.34 0-6.7 3.03-8.44 9.2-3.34 11.76 3.74 1.9 19.98 1.7 22.78-.26z"/><path fill="#881c21" d="M54.98 442.8c-13.52-3.5-23.28-9.1-33.58-19.35-7.5-7.47-9.88-10.62-13.27-17.6-8.3-17.07-7.58-1.23-7.93-178C0 125.2.25 67.67.9 62.65 5.24 29.93 30.53 5.28 64.35.84c5.5-.72 44.6-.97 120.14-.76 111.95.32 112 .32 119.8 2.52 23.57 6.66 43 24.6 50.45 46.62l2.75 8.13.27 162.25c.3 182.17.8 169.65-7.27 185.97-9.36 18.95-28.15 33.35-49.43 37.86-5.4 1.14-27.18 1.38-122.57 1.35-111.4-.03-116.3-.1-123.5-1.97zm241-2c8.58-1.4 18.84-5.02 25.8-9.13 9.02-5.3 20.08-17 24.9-26.32 8.48-16.42 7.8-.53 7.8-182.5 0-150.8-.1-161.93-1.75-168-6.82-25.27-29.07-45.58-54.75-49.96-4.57-.8-40.82-1.04-122.5-.84l-116 .3-8 2.72c-11.25 3.83-19.84 9.14-27.98 17.3-7.97 8-12.47 15.06-16.34 25.64l-2.68 7.33-.28 162c-.3 180.83-.74 168.94 6.74 184.15 9.5 19.32 26.9 32.4 49.04 36.86 8.42 1.7 225.7 2.1 236 .43zm-55.5-52.6c-30.85-4.6-51.57-32.26-46.54-62.1 1.86-11 6.8-20.25 15.32-28.66 11.23-11.08 22.1-15.55 37.87-15.57 15.63-.03 28.76 5.7 39.42 17.23 30.44 32.88 8.8 86-36.28 89.1-3.73.25-8.14.26-9.8 0zm14.62-9.34c16.8-3.12 31.12-16.28 35.33-32.47 5.4-20.7-4.52-42.08-23.92-51.62-6.82-3.35-7.26-3.43-19.5-3.43-12.02 0-12.78.13-19.32 3.23-16.76 7.94-26.83 25.26-25.4 43.74 2.03 26.56 26.58 45.4 52.82 40.54zm-22.22-8.3c-10.25-4.3-16.23-10-20.9-19.9-8.84-18.67-.62-41 18.53-50.38 5.46-2.67 6.9-2.93 16.48-2.93 9.6 0 11.03.26 16.48 2.93 15.54 7.62 24.43 24.5 21.5 40.82-2.28 12.6-10.42 23.26-21.8 28.6-4.67 2.17-7.36 2.7-15.18 2.92-8.1.24-10.3-.06-15.1-2.07zm9.58-7.88c2.85-1.3 4.2-4.8 2.8-7.3-1.18-2.1-17.2-13.53-18.96-13.53-1.12 0-1.1-.4.1-2.25 1.77-2.72 6.55-17.45 6.57-20.25 0-1.9.7-2 13.53-2 10.6 0 13.4.28 13 1.3-.54 1.43 5.13 20 6.72 21.95.55.7 2.27 1.25 3.8 1.25 4.18 0 6.96-4.07 6.96-10.16 0-6.3-1.88-10.73-6.06-14.25-2.73-2.3-4-2.7-7.06-2.3-2.7.35-3.6.15-3.26-.73.26-.67 0-2.42-.55-3.9-3.42-9-23.7-9-27.13 0-.56 1.48-.8 3.22-.56 3.87.33.85-.78 1.05-3.93.7-3.98-.45-4.72-.18-7.83 2.94-3.9 3.9-6.1 10.47-5.25 15.67.65 4 4.15 8.15 6.88 8.15 1.73 0 1.75.15.33 1.58-4.3 4.3-.05 14.5 7.62 18.3 4.84 2.4 8.5 2.68 12.28.95zm21.65-1.7c6.5-4.1 9.5-11.23 6.85-16.2-1.16-2.16-4.95-2.54-8.2-.8-3.2 1.7-14.17 9.92-15 11.22-.4.64-.74 2.02-.75 3.08-.05 6.12 9.38 7.6 17.1 2.7zm-10.5-12.75c10.86-5.15 10.9-21.5.08-26.43-5.5-2.5-8.34-2.43-13.66.3-5.76 2.96-8.3 7.58-7.74 14.08.5 5.65 3 9.5 7.78 11.92 4.28 2.2 9.1 2.23 13.54.13zm-10.76-5.9c-2.9-1.56-5.12-6.53-4.16-9.25.33-.95 1.5-2.74 2.63-3.98 4-4.43 11.8-2.2 14 3.98.98 2.8-1.32 7.73-4.37 9.3-3.48 1.8-4.7 1.8-8.1-.04zm-81.86-66.36c-12.6-4.08-22.35-11.18-29.38-21.38-11.67-16.96-12-41.02-.8-58.32 18.82-29.07 59.25-33.3 83.85-8.78 9.74 9.7 15.33 23.34 15.33 37.35 0 23.85-16.63 45.5-39.54 51.47-8 2.1-22.46 1.9-29.46-.35zm22-7.14c14.72-2.3 27.9-12.17 34.3-25.72 3.03-6.37 3.2-7.38 3.2-18.25 0-10.87-.17-11.87-3.2-18.28-8.74-18.44-28.17-28.96-47.67-25.82-30.5 4.9-46.85 36.3-33.4 64.1 5.78 11.96 18.86 21.78 31.78 23.88 7.6 1.23 7.7 1.23 15 .1zm-19.77-7.9c-7.6-2.8-14.53-8.3-19.05-15.07-4.9-7.35-6.54-13.92-5.96-24 .8-13.73 8.62-25.34 21.3-31.57 5.47-2.7 6.9-2.95 16.5-2.95 9.86 0 10.93.2 17.17 3.28 8.3 4.08 15.78 11.97 18.95 19.98 3.18 8.05 3.18 20.46 0 28.5-3.16 7.97-10.65 15.9-18.86 19.94-5.7 2.8-7.8 3.28-15.67 3.55-7.15.23-10.26-.13-14.4-1.66zm8.32-8.52c2.8-1.17 3.46-1.98 3.46-4.32 0-1.72-.9-3.7-2.25-4.9-4.63-4.16-15.56-11.33-17.28-11.33-1.6 0-1.63-.16-.25-1.75 2.32-2.66 6.96-17.73 6.6-21.45-.3-3.08-.6-3.32-4.37-3.6-7.42-.54-12.45 6.02-12.45 16.25 0 4.66.43 6.07 2.46 8.1 1.35 1.35 3.17 2.45 4.06 2.45 1.45 0 1.46.2.04 2.23-4.07 5.8 1.04 15.1 10.1 18.32 4.93 1.75 5.7 1.75 9.88 0zm20.94-.83c7.3-4.14 10.95-13.38 7-17.76-1.42-1.54-1.3-1.73 1.3-2.25 8.2-1.64 7.34-19.6-1.2-24.8-3.5-2.15-7.62-2.45-9.38-.7-1.94 1.95-1.4 6.02 2.12 16.12l3.3 9.5-6.44 4.25c-9.35 6.15-13.18 9.77-13.18 12.48 0 5.42 9.34 7.2 16.48 3.17zm-7.74-14.28c5.7-3.75 8.03-13.13 4.78-19.4-6.08-11.78-24.1-9.76-27.55 3.1-1.92 7.1 2 14.84 9.03 17.8 3.2 1.32 10.67.5 13.74-1.5zm-14.56-6.76c-4.24-4.5-2.1-11.83 4.13-14.03 2.5-.87 8.28 1.73 9.7 4.37 1.6 3 .4 8.6-2.28 10.46-3.34 2.33-9 1.95-11.56-.8zm18.62-23.9c3.58-3.56-1.16-10.88-8.2-12.66-9.53-2.4-18.6 2.04-18.6 9.1 0 4.2 1.65 4.77 14 4.77 7.7 0 12-.4 12.8-1.2zm-90.15-44.37c-18.53-4.48-35.38-21.3-39.57-39.44-1.32-5.75-1.32-19.2 0-24.95 1.86-8.04 6.87-16.93 13.52-23.98 21.37-22.65 56.44-22.65 77.8 0 10.28 10.88 14.53 21.55 14.58 36.5.05 14.9-4.15 25.3-14.73 36.56-13.15 14-32.87 19.84-51.6 15.3zm24.9-8.97c12.3-3.2 22.42-11.55 28.23-23.3 3.68-7.45 3.72-7.7 3.72-19.65s-.04-12.2-3.72-19.64c-7.68-15.52-22.8-24.85-40.28-24.85-17.73 0-33.2 9.83-40.9 26-2.93 6.16-3.1 7.15-3.1 18.56 0 11.9.05 12.15 3.73 19.6 9.57 19.34 30.95 28.87 52.32 23.3zm-20.93-5.5c-11.08-2.78-21.05-11.04-26.35-21.82-2.46-5-2.76-6.73-2.76-15.63s.3-10.62 2.75-15.62c4.3-8.78 9.8-14.3 18.5-18.6 7.14-3.53 8.22-3.78 16.73-3.78 8.52 0 9.6.25 16.74 3.78 8.75 4.32 14.6 10.2 18.65 18.72 2.28 4.8 2.6 6.8 2.6 15.5s-.32 10.7-2.6 15.5c-6.23 13.15-18.85 21.77-32.96 22.53-4.07.22-9.16-.04-11.3-.57zm24.9-10.52c4.9-2.32 8.48-7.8 8.48-12.96 0-2.24-.54-4.6-1.2-5.27-.93-.93-.86-1.2.33-1.2 2.6 0 6.02-4.6 6.58-8.78.7-5.24-1.2-10.95-5-14.97-2.55-2.68-3.83-3.25-7.4-3.25-3.8 0-4.3-.26-4.3-2.27 0-5.37-6.27-9.73-14-9.73-7.66 0-14 4.36-14 9.63 0 1.95-.4 2.13-3.8 1.67C86.1 89.2 80 96.82 80 106.7c0 6.08 2.8 10.15 6.95 10.15 1.55 0 3.33-.62 3.96-1.4 1.68-2.02 7.3-20.57 6.7-22.13-.4-1.05.1-1.1 2.48-.28 1.65.57 7.67.86 13.45.65 10.06-.38 10.45-.32 10.45 1.7 0 2.66 5.6 19.25 7.1 21.07.9 1.07.82 1.38-.32 1.38-1.63 0-16.47 10.24-18.64 12.86-1 1.2-1.5 1.32-1.83.4-.27-.67-4.26-3.96-8.9-7.3-6.82-4.93-9-6-11.63-5.76-7.4.72-5.2 12.5 3.4 18.07 5.34 3.48 12.54 3.83 15.33.74 1.8-1.98 1.86-1.98 3.9-.13 1.15 1.05 2.76 2.17 3.58 2.5 2.24.88 7.44.02 11.5-1.92zm-7.8-14.4c4.18-2.54 6.3-6.8 6.28-12.73 0-8.85-5.52-14.3-14.5-14.3-8.97 0-14.48 5.45-14.5 14.3 0 9.27 5.36 14.7 14.5 14.7 3.2 0 6.16-.7 8.2-1.96zm-12.22-5.23c-6.58-3.78-5.65-13.02 1.54-15.3 5.1-1.62 11 2.66 10.93 7.94-.06 6.43-6.96 10.5-12.47 7.35z"/><path fill="#0f1938" d="M54.98 442.8c-13.52-3.5-23.28-9.1-33.58-19.35-7.5-7.47-9.88-10.62-13.27-17.6-8.3-17.07-7.58-1.23-7.93-178C0 125.2.25 67.67.9 62.65 5.24 29.93 30.53 5.28 64.35.84c5.5-.72 44.6-.97 120.14-.76 111.95.32 112 .32 119.8 2.52 23.57 6.66 43 24.6 50.45 46.62l2.75 8.13.27 162.25c.3 182.17.8 169.65-7.27 185.97-9.36 18.95-28.15 33.35-49.43 37.86-5.4 1.14-27.18 1.38-122.57 1.35-111.4-.03-116.3-.1-123.5-1.97zm241-2c8.58-1.4 18.84-5.02 25.8-9.13 9.02-5.3 20.08-17 24.9-26.32 8.48-16.42 7.8-.53 7.8-182.5 0-150.8-.1-161.93-1.75-168-6.82-25.27-29.07-45.58-54.75-49.96-4.57-.8-40.82-1.04-122.5-.84l-116 .3-8 2.72c-11.25 3.83-19.84 9.14-27.98 17.3-7.97 8-12.47 15.06-16.34 25.64l-2.68 7.33-.28 162c-.3 180.83-.74 168.94 6.74 184.15 9.5 19.32 26.9 32.4 49.04 36.86 8.42 1.7 225.7 2.1 236 .43zm-55.5-52.6c-30.85-4.6-51.57-32.26-46.54-62.1 1.86-11 6.8-20.25 15.32-28.66 11.23-11.08 22.1-15.55 37.87-15.57 15.63-.03 28.76 5.7 39.42 17.23 30.44 32.88 8.8 86-36.28 89.1-3.73.25-8.14.26-9.8 0zm14.62-9.34c16.8-3.12 31.12-16.28 35.33-32.47 5.4-20.7-4.52-42.08-23.92-51.62-6.82-3.35-7.26-3.43-19.5-3.43-12.02 0-12.78.13-19.32 3.23-16.76 7.94-26.83 25.26-25.4 43.74 2.03 26.56 26.58 45.4 52.82 40.54zm-22.22-8.3c-10.25-4.3-16.23-10-20.9-19.9-8.84-18.67-.62-41 18.53-50.38 5.46-2.67 6.9-2.93 16.48-2.93 9.6 0 11.03.26 16.48 2.93 15.54 7.62 24.43 24.5 21.5 40.82-2.28 12.6-10.42 23.26-21.8 28.6-4.67 2.17-7.36 2.7-15.18 2.92-8.1.24-10.3-.06-15.1-2.07zm9.58-7.88c2.85-1.3 4.2-4.8 2.8-7.3-1.18-2.1-17.2-13.53-18.96-13.53-1.12 0-1.1-.4.1-2.25 1.77-2.72 6.55-17.45 6.57-20.25 0-1.9.7-2 13.53-2 10.6 0 13.4.28 13 1.3-.54 1.43 5.13 20 6.72 21.95.55.7 2.27 1.25 3.8 1.25 4.18 0 6.96-4.07 6.96-10.16 0-6.3-1.88-10.73-6.06-14.25-2.73-2.3-4-2.7-7.06-2.3-2.7.35-3.6.15-3.26-.73.26-.67 0-2.42-.55-3.9-3.42-9-23.7-9-27.13 0-.56 1.48-.8 3.22-.56 3.87.33.85-.78 1.05-3.93.7-3.98-.45-4.72-.18-7.83 2.94-3.9 3.9-6.1 10.47-5.25 15.67.65 4 4.15 8.15 6.88 8.15 1.73 0 1.75.15.33 1.58-4.3 4.3-.05 14.5 7.62 18.3 4.84 2.4 8.5 2.68 12.28.95zm21.65-1.7c6.5-4.1 9.5-11.23 6.85-16.2-1.16-2.16-4.95-2.54-8.2-.8-3.2 1.7-14.17 9.92-15 11.22-.4.64-.74 2.02-.75 3.08-.05 6.12 9.38 7.6 17.1 2.7zm-10.5-12.75c10.86-5.15 10.9-21.5.08-26.43-5.5-2.5-8.34-2.43-13.66.3-5.76 2.96-8.3 7.58-7.74 14.08.5 5.65 3 9.5 7.78 11.92 4.28 2.2 9.1 2.23 13.54.13zm-10.76-5.9c-2.9-1.56-5.12-6.53-4.16-9.25.33-.95 1.5-2.74 2.63-3.98 4-4.43 11.8-2.2 14 3.98.98 2.8-1.32 7.73-4.37 9.3-3.48 1.8-4.7 1.8-8.1-.04zm-81.86-66.36c-12.6-4.08-22.35-11.18-29.38-21.38-11.67-16.96-12-41.02-.8-58.32 18.82-29.07 59.25-33.3 83.85-8.78 9.74 9.7 15.33 23.34 15.33 37.35 0 23.85-16.63 45.5-39.54 51.47-8 2.1-22.46 1.9-29.46-.35zm22-7.14c14.72-2.3 27.9-12.17 34.3-25.72 3.03-6.37 3.2-7.38 3.2-18.25 0-10.87-.17-11.87-3.2-18.28-8.74-18.44-28.17-28.96-47.67-25.82-30.5 4.9-46.85 36.3-33.4 64.1 5.78 11.96 18.86 21.78 31.78 23.88 7.6 1.23 7.7 1.23 15 .1zM98.63 162.27c-18.53-4.48-35.38-21.3-39.57-39.44-1.32-5.75-1.32-19.2 0-24.95 1.86-8.04 6.87-16.93 13.52-23.98 21.37-22.65 56.44-22.65 77.8 0 10.28 10.88 14.53 21.55 14.58 36.5.05 14.9-4.15 25.3-14.73 36.56-13.15 14-32.87 19.84-51.6 15.3zm24.9-8.97c12.3-3.2 22.42-11.55 28.23-23.3 3.68-7.45 3.72-7.7 3.72-19.65s-.04-12.2-3.72-19.64c-7.68-15.52-22.8-24.85-40.28-24.85-17.73 0-33.2 9.83-40.9 26-2.93 6.16-3.1 7.15-3.1 18.56 0 11.9.05 12.15 3.73 19.6 9.57 19.34 30.95 28.87 52.32 23.3zm-20.93-5.5c-11.08-2.78-21.05-11.04-26.35-21.82-2.46-5-2.76-6.73-2.76-15.63s.3-10.62 2.75-15.62c4.3-8.78 9.8-14.3 18.5-18.6 7.14-3.53 8.22-3.78 16.73-3.78 8.52 0 9.6.25 16.74 3.78 8.75 4.32 14.6 10.2 18.65 18.72 2.28 4.8 2.6 6.8 2.6 15.5s-.32 10.7-2.6 15.5c-6.23 13.15-18.85 21.77-32.96 22.53-4.07.22-9.16-.04-11.3-.57zm24.9-10.52c4.9-2.32 8.48-7.8 8.48-12.96 0-2.24-.54-4.6-1.2-5.27-.93-.93-.86-1.2.33-1.2 2.6 0 6.02-4.6 6.58-8.78.7-5.24-1.2-10.95-5-14.97-2.55-2.68-3.83-3.25-7.4-3.25-3.8 0-4.3-.26-4.3-2.27 0-5.37-6.27-9.73-14-9.73-7.66 0-14 4.36-14 9.63 0 1.95-.4 2.13-3.8 1.67C86.1 89.2 80 96.82 80 106.7c0 6.08 2.8 10.15 6.95 10.15 1.55 0 3.33-.62 3.96-1.4 1.68-2.02 7.3-20.57 6.7-22.13-.4-1.05.1-1.1 2.48-.28 1.65.57 7.67.86 13.45.65 10.06-.38 10.45-.32 10.45 1.7 0 2.66 5.6 19.25 7.1 21.07.9 1.07.82 1.38-.32 1.38-1.63 0-16.47 10.24-18.64 12.86-1 1.2-1.5 1.32-1.83.4-.27-.67-4.26-3.96-8.9-7.3-6.82-4.93-9-6-11.63-5.76-7.4.72-5.2 12.5 3.4 18.07 5.34 3.48 12.54 3.83 15.33.74 1.8-1.98 1.86-1.98 3.9-.13 1.15 1.05 2.76 2.17 3.58 2.5 2.24.88 7.44.02 11.5-1.92zm-7.8-14.4c4.18-2.54 6.3-6.8 6.28-12.73 0-8.85-5.52-14.3-14.5-14.3-8.97 0-14.48 5.45-14.5 14.3 0 9.27 5.36 14.7 14.5 14.7 3.2 0 6.16-.7 8.2-1.96zm-12.22-5.23c-6.58-3.78-5.65-13.02 1.54-15.3 5.1-1.62 11 2.66 10.93 7.94-.06 6.43-6.96 10.5-12.47 7.35z"/><path d="M54.98 442.8c-13.52-3.5-23.28-9.1-33.58-19.35-7.5-7.47-9.88-10.62-13.27-17.6-8.3-17.07-7.58-1.23-7.93-178C0 125.2.25 67.67.9 62.65 5.24 29.93 30.53 5.28 64.35.84c5.5-.72 44.6-.97 120.14-.76 111.95.32 112 .32 119.8 2.52 23.57 6.66 43 24.6 50.45 46.62l2.75 8.13.27 162.25c.3 182.17.8 169.65-7.27 185.97-9.36 18.95-28.15 33.35-49.43 37.86-5.4 1.14-27.18 1.38-122.57 1.35-111.4-.03-116.3-.1-123.5-1.97zm241-2c8.58-1.4 18.84-5.02 25.8-9.13 9.02-5.3 20.08-17 24.9-26.32 8.48-16.42 7.8-.53 7.8-182.5 0-150.8-.1-161.93-1.75-168-6.82-25.27-29.07-45.58-54.75-49.96-4.57-.8-40.82-1.04-122.5-.84l-116 .3-8 2.72c-11.25 3.83-19.84 9.14-27.98 17.3-7.97 8-12.47 15.06-16.34 25.64l-2.68 7.33-.28 162c-.3 180.83-.74 168.94 6.74 184.15 9.5 19.32 26.9 32.4 49.04 36.86 8.42 1.7 225.7 2.1 236 .43z"/></g></g></svg>