<svg xmlns="http://www.w3.org/2000/svg" width="358.402" height="445.924" viewBox="0 0 358.40244 445.92358"><g><g><path fill="#c38c8f" d="M62.38 444.92c-23.7-3.48-44.65-18.38-54.83-39-8.23-16.67-7.72-3.78-7.42-186.28L.4 57.4l2.72-8C9.72 29.97 22.55 15.7 41.4 6.87 57.1-.5 50.53-.2 182.4.13l118 .28 7 2.36c25.05 8.4 42.4 26.1 49.17 50.15 1.74 6.2 1.83 14.6 1.83 170.5v164l-2.72 8.03c-8.8 25.92-30.22 44.24-57.27 48.95-7.54 1.32-24.25 1.52-119.88 1.4-61.1-.06-113.38-.45-116.14-.86zm238.02-5.5c3.85-.8 11.27-3.57 16.48-6.14 17.4-8.6 30.3-24.4 35.05-42.98 1.92-7.5 1.97-11.7 1.96-167.8-.03-177.25.38-166.07-6.58-180.17-8.6-17.44-25.14-30.6-45.42-36.14-6.05-1.67-14.46-1.8-122.5-1.8-91.15 0-117.07.3-121 1.3-24.22 6.2-41.58 21.37-50.38 43.97L5.4 56.4v331l2.42 7.4c7.06 21.55 27.5 39.63 50.5 44.63 9.47 2.06 232.2 2.05 242.08 0zm-135-88.55c-20.6-2.3-40.3-9.47-58-21.08-9.9-6.5-28.5-24.93-34.8-34.52-10.04-15.26-17.23-33-20.15-49.75-3.34-19.18-1.5-45.8 4.4-63.62 12.97-39.1 46.32-71.37 85.55-82.8 14.37-4.18 18.6-4.7 38-4.6 18 .08 19.64.25 31 3.24 46.58 12.27 82.83 49.4 93.6 95.86 2.95 12.7 3.68 37.62 1.47 50.3-1.92 11.02-7.08 27.1-11.62 36.18-17.58 35.17-51.3 61-89.7 68.77-11.78 2.37-28.88 3.24-39.75 2.02zm32.25-10.47c50.3-8.15 89.14-45.98 98.9-96.28 2.05-10.6 2.27-30.75.44-41.2-6.08-34.82-27.17-65.17-57.75-83.1-21.25-12.48-45.44-17.9-70.35-15.77-82.24 7.05-132.6 94.58-97.42 169.4 8.6 18.26 25.8 37.93 42.9 49.05 24.73 16.07 54.76 22.53 83.27 17.9zm-41.7-9.62c-37.85-7.93-69.2-36-81.43-72.87-4.63-13.96-6-24.17-5.35-40.32.65-16.48 3.77-29.1 10.7-43.3 33.35-68.28 123.88-83.53 177.6-29.9 14.18 14.16 23.66 30.86 29.22 51.46 2.3 8.6 2.57 11.35 2.55 27.07-.02 15.76-.3 18.5-2.7 27.5-3.17 11.93-11.58 29.42-18.53 38.56-16.9 22.24-41.04 37.2-68.47 42.45-11.25 2.17-31.76 1.87-43.6-.62zm33.32-3.25c6.9-2.88 9.2-9.44 6.6-18.8-2.02-7.27-3.14-7.8-14.77-7.13l-10.3.6-1.83 3.6c-1 2-2.15 5.14-2.56 7-.82 3.87-1.2 3.87 8.76.04 5.56-2.14 5.83-2.15 7.75-.42 3.3 2.97 2.52 6.37-2.5 11.04-2.47 2.3-4.5 4.48-4.5 4.82 0 1.2 10.07.63 13.37-.75zm-42.02-5.87c-.42-.68-1.8-2.77-3.05-4.64-2.78-4.1-2.9-7.13-.44-10.18 1.68-2.07 2.14-2.17 4.87-1.04 1.65.68 4.5 2.8 6.34 4.68 5 5.17 5.93 4.6 5.93-3.6 0-5.8-.3-7.13-1.75-7.63-.96-.32-5.57-2.13-10.25-4l-8.5-3.42-4.23 4.62c-7.38 8.05-8 15.16-1.82 20.98 4.33 4.1 14.95 7.57 12.9 4.23zm77.45-3.74c3.4-1.54 4.72-2.92 6.34-6.58 2.3-5.22 1.95-10.14-.94-12.75-1.64-1.5-2-1.28-5.24 3.1-3.72 5.02-6.12 6.16-8.6 4.1-1.24-1.03-1.43-2.5-.94-6.9.35-3.08.37-5.86.05-6.2-.33-.3-3.5.82-7.03 2.54-6 2.9-6.44 3.34-6.44 6.45 0 5.68 2.13 12.14 5.03 15.24 2.42 2.6 3.47 2.97 8.12 2.95 3.13-.02 7.14-.84 9.65-1.98zm-102.62-15.8c3.42-2.24 6.48-6.14 8.35-10.62.8-1.94 1.47-3.75 1.47-4.02 0-.28-2.28-2.86-5.07-5.73-4.03-4.17-5.25-4.94-5.98-3.8-.5.8-.93 1.9-.94 2.46 0 .56-.47 2.67-1.03 4.7-2.03 7.3-8.3 5.45-9.54-2.8-.36-2.43-1.05-4.65-1.52-4.95-1.62-1-5.07 1.72-6.5 5.14-5 11.96 10.38 26.5 20.78 19.63zm128.15-2.57c4.25-1.78 8.35-6.72 9.7-11.7.86-3.23.74-4.6-.62-7.5-1.9-4-8.76-9.16-13.42-10.1-2.76-.54-3.7-.05-8.05 4.24-4.9 4.8-4.9 4.85-2.68 6.1 1.24.68 3.3 1.26 4.57 1.28 3.63.05 6.18 1.9 6.18 4.45 0 3-1.56 4.25-6.9 5.45-5.6 1.26-6.45 2.2-4.48 5 2.88 4.12 9.63 5.3 15.7 2.77zM197.1 294c48.53-12.42 71.1-68.75 44.33-110.6-18.64-29.15-54.1-41.4-86.84-30-10.5 3.63-17.34 8.16-27.3 18.04-7.38 7.34-9.86 10.62-13.25 17.5-2.3 4.66-5.12 12.3-6.3 16.95-4.16 16.7-1.25 37.8 7.3 52.76 9.86 17.25 26.7 30.16 45.93 35.2 10.15 2.66 26.02 2.7 36.13.13zm-30.16-7.55c-13.66-2.6-28.4-11.5-37.76-22.84-26.4-31.96-15.97-80.5 21.22-98.74 10.42-5.12 17.95-6.95 28.55-6.95 17.94 0 33.35 6.42 46.1 19.17 12.6 12.6 18.85 27.7 18.85 45.66 0 18.33-5.65 31.83-18.97 45.3-7.06 7.14-10 9.32-17.03 12.64-4.67 2.2-10.68 4.53-13.34 5.17-7.9 1.88-19.56 2.13-27.62.6zm17.96-24.04l.5-10 2.92 7.95c2.28 6.2 3.92 8.87 7.5 12.23 2.52 2.36 4.86 4.3 5.2 4.32.33 0 .85-2.96 1.14-6.6.48-6 .2-7.3-2.93-14.25l-3.46-7.64 6.32 6.23c4.8 4.75 7.7 6.7 12.2 8.25 3.26 1.12 6.04 2.03 6.2 2.03.15 0-.65-2.8-1.8-6.24-1.6-4.92-3.33-7.57-8.14-12.5-3.36-3.43-5.84-6.25-5.52-6.25.32 0 3.56 1.36 7.2 3 5.34 2.43 7.97 3 13.64 3 3.86 0 7.02-.37 7.02-.85 0-.47-1.75-2.85-3.9-5.3-3.13-3.54-5.6-5.06-12.5-7.68-4.73-1.8-8.6-3.47-8.6-3.7 0-.24 3.95-.16 8.77.2 8.48.6 8.97.5 15.22-2.65l6.44-3.26-5.87-2.96c-5.47-2.77-6.5-2.95-15.17-2.63-5.12.2-9 .07-8.6-.27.4-.34 4.08-1.86 8.2-3.4 6.02-2.2 8.44-3.77 12.23-7.87l4.72-5.12-6.22-.73c-6.57-.77-7.68-.54-17.23 3.72l-6 2.66 6.22-6.33c4.74-4.82 6.7-7.72 8.25-12.23 1.12-3.25 1.88-6.07 1.7-6.25-.2-.2-3 .57-6.25 1.7-4.53 1.54-7.4 3.5-12.2 8.24l-6.3 6.2 3.63-7.86c3.44-7.46 3.6-8.25 2.94-14.78l-.7-6.9-4.65 4.2c-3.7 3.32-5.4 6.07-8.34 13.27l-3.7 9.08-.04-10.27c-.05-8.94-.4-10.93-2.57-15.25-1.4-2.73-2.74-4.97-3-4.97-.25 0-1.6 2.25-2.98 4.98-2.2 4.3-2.53 6.32-2.58 15.25l-.06 10.28-3.7-9.07c-2.84-7.03-4.65-9.95-7.95-12.9-2.36-2.1-4.53-3.55-4.84-3.24-.32.3-.8 3.18-1.1 6.4-.46 5.06-.12 6.76 2.58 12.7 1.72 3.8 3.12 7.15 3.12 7.47 0 .32-2.6-1.98-5.75-5.1-4.28-4.24-7.26-6.22-11.66-7.73-3.26-1.12-6.08-1.88-6.26-1.7-.2.2.57 3 1.7 6.26 1.54 4.5 3.5 7.4 8.24 12.23l6.22 6.33-6-2.66c-9.83-4.36-10.18-4.44-16.98-3.8l-6.53.6 4.25 4.95c3.52 4.1 5.7 5.5 12.75 8.3l8.5 3.33-9.23.07c-7.92.05-10 .44-14.75 2.77-3.03 1.5-5.52 2.98-5.52 3.32 0 .33 2.66 1.88 5.92 3.43 5.6 2.68 6.4 2.8 14.6 2.13 4.77-.4 8.44-.34 8.16.12-.28.45-4.03 2.14-8.34 3.74-6.23 2.33-8.6 3.82-11.6 7.3-2.05 2.42-3.74 4.8-3.74 5.32 0 .5 3.1.93 6.9.93 5.54 0 8.26-.6 13.65-3 3.7-1.67 6.9-2.87 7.1-2.67.2.2-2.22 2.62-5.4 5.38-4.93 4.3-6.05 5.96-7.9 11.66-1.2 3.66-1.83 6.65-1.4 6.65.4 0 3.4-.9 6.63-2 4.7-1.64 7.03-3.28 11.66-8.26l5.77-6.23-2.6 6c-4.25 9.7-4.63 11.57-3.73 17.93l.83 5.92 5.12-4.92c3.94-3.8 5.78-6.64 8-12.42l2.88-7.5.52 10c.4 7.97 1.02 11 2.97 14.8l2.43 4.78 2.54-4.78c2.06-3.9 2.62-6.63 3.03-14.8zm-6.3-.82c-.38-1-.7-4.04-.7-6.75 0-4.3-.26-4.92-2.06-4.92-1.14 0-2.94-.46-4-1.03-1.66-.88-2.12-.6-3 1.74-2.15 5.62-4.34 9.62-4.7 8.55-.2-.6.63-3.4 1.84-6.2 1.2-2.8 2.02-5.2 1.8-5.32-.2-.12-1.9-1.28-3.73-2.58l-3.36-2.35-4.2 4.1c-2.3 2.26-4.6 4.1-5.1 4.1s1.22-2.16 3.84-4.82c4.32-4.4 4.6-4.97 3.1-6.2-.9-.77-2.03-2.4-2.5-3.62l-.85-2.24-6.17 2.5c-7.96 3.24-9.04 2.24-1.33-1.24 3.25-1.47 5.98-2.7 6.08-2.77.1-.06-.34-2-.96-4.35l-1.13-4.24h-5.75c-3.15 0-6-.44-6.35-1-.4-.6 1.8-1 5.83-1 6.25 0 6.46-.07 6.92-2.74.26-1.5.8-3.5 1.18-4.4.57-1.33-.56-2.24-5.5-4.46-3.42-1.54-5.74-2.95-5.15-3.15.6-.2 3.33.6 6.1 1.8 4.86 2.1 7.12 2 7.12-.27 0-.6.74-1.93 1.64-2.92 1.54-1.7 1.4-2.1-2.5-6.3-2.27-2.48-4.14-4.75-4.14-5.06 0-1.04 6.03 3.9 7.5 6.16l1.48 2.25 4.04-2.64c2.84-1.86 3.85-3.1 3.4-4.2-3.6-8.42-4.45-11.32-3.03-10.14.82.7 2.28 3.35 3.23 5.92.95 2.57 1.82 4.8 1.93 4.97.1.17 2.05-.28 4.32-1 4-1.24 4.12-1.4 4.2-5.78.03-2.48.4-5.4.83-6.47.62-1.56.92-1.1 1.45 2.27.38 2.32.4 5.3.1 6.6-.5 1.98-.17 2.42 2.22 2.83 1.56.26 3.6.8 4.55 1.22 1.4.6 2.23-.4 4.37-5.1 1.44-3.23 2.83-5.32 3.08-4.65.25.66-.48 3.32-1.63 5.9l-2.08 4.72 3.27 2.8c3.9 3.33 4.4 3.42 5.68 1.03.54-1.02 2.7-3.14 4.76-4.73l3.78-2.88-2.27 3.18c-1.25 1.75-3.42 4.1-4.8 5.18l-2.55 2 2.82 3.55c1.56 1.95 3.1 3.54 3.45 3.54.35 0 2.73-.92 5.3-2.06 2.57-1.13 5.17-1.9 5.77-1.7.6.2-1.7 1.62-5.13 3.16-4.94 2.22-6.07 3.13-5.5 4.45.4.92.93 2.9 1.2 4.4.44 2.68.65 2.76 6.9 2.76 4.05 0 6.22.4 5.83 1-.34.56-3.24 1-6.44 1-5.22 0-5.88.25-6.36 2.26-.3 1.24-.83 3.17-1.18 4.3-.55 1.73.18 2.37 4.92 4.34 3.06 1.27 5.56 2.7 5.56 3.16 0 .86-6.16-1-9.8-2.94-1.6-.86-2.3-.4-4.6 3.08l-2.67 4.1 2.85 2.6c1.57 1.44 3.73 3.7 4.8 5.05l1.92 2.44-3-2.1c-1.65-1.15-4.06-3.23-5.37-4.63l-2.37-2.54-3.13 2.2c-1.72 1.2-3.28 2.26-3.48 2.36-.2.1.62 2.74 1.8 5.88 2.82 7.56 1.77 8.25-1.55 1-2.24-4.9-2.94-5.66-4.76-5.17-1.18.33-3.17.6-4.43.6-2.03 0-2.23.4-1.75 3.26.7 4.23-.72 11.08-1.74 8.42zm-4.7-19.67c1.1-1.1 2-3.32 2-5 0-1.65-.9-3.88-2-5-1.1-1.1-3.33-2-5-2-1.66 0-3.9.9-5 2-1.1 1.12-2 3.35-2 5 0 1.68.9 3.9 2 5 1.1 1.12 3.34 2 5 2 1.67 0 3.9-.88 5-2zm20.37-.06c5.3-4.16 2.16-11.93-4.8-11.93-3.93 0-6.58 2.83-6.55 7 .02 3 .8 4.3 3.48 5.82 2.94 1.66 4.9 1.44 7.87-.88zm-9.04-11.97c1.5-1.18 2.88-3.53 3.25-5.55.6-3.23.8-3.38 2.37-1.95 2.63 2.38 8.62 2 10.5-.68 3.46-4.96.67-10.8-5.18-10.8-4.52 0-7.26 2.4-7.3 6.42l-.05 3.1-1.45-2.68c-.8-1.5-2.94-3.16-4.87-3.8-9.6-3.16-16.76 7.97-9.67 15.05 3.56 3.55 8.54 3.9 12.4.87zm-9.45-.96c-.9-.5-2.2-2.33-2.9-4.03-1.12-2.72-1.04-3.4.72-5.77 2.48-3.33 7.6-4.12 10.4-1.6 5.6 5.08-1.7 15.22-8.22 11.4zm-7.88-7c1.1-1.1 2-3.32 2-5 0-1.65-.9-3.88-2-5-1.1-1.1-3.33-2-5-2-1.66 0-3.9.9-5 2-1.1 1.12-2 3.35-2 5 0 1.68.9 3.9 2 5 1.1 1.12 3.34 2 5 2 1.67 0 3.9-.88 5-2zm16.17-11.64c2.17-1.97 2.4-7.17.45-9.86-1.77-2.42-8-2.54-10.33-.2-2.35 2.34-2.23 8.56.2 10.33 2.56 1.88 7.45 1.74 9.67-.27zm-82.03 63.63l2.36-2.04-2.5-1.7c-1.37-.96-3.78-2.98-5.35-4.5-2.65-2.6-2.75-2.96-1.36-5.02 1.3-1.97 2.18-2.2 7.6-1.88 3.35.2 6.1-.05 6.1-.54 0-.5-.9-2.65-2-4.8-1.1-2.17-2-4.5-2-5.18 0-3.78-8.38-3.9-16.78-.27-7.37 3.2-9.05 11.47-4.25 20.88 3.35 6.57 13.2 9.3 18.17 5.04zm170.26-6.03c3.25-2.85 7.26-11.54 6.43-13.92-.18-.53-2.3.37-4.73 2-5.82 3.92-10 3.87-12.16-.15-1.25-2.33.6-6.17 4.97-10.32 4.73-4.5 4.12-5.57-3.15-5.55-3.44 0-6.74.34-7.35.75-.6.4-1.9 3.2-2.9 6.23-.97 3.04-2.65 7.25-3.72 9.38l-1.94 3.87 3.26 3.37c4.07 4.2 10.4 7.4 14.62 7.4 2.16 0 4.35-1 6.68-3.05zM97.63 238.9l4.56-2-.66-6.14c-.35-3.38-.64-8.35-.64-11.05 0-4.7-.15-4.95-3.7-6.43-2.02-.85-5.24-1.8-7.15-2.1-3.96-.65-3.97-.5-.1 8.38 2.53 5.76 2.17 7.95-1.53 9.35-3.48 1.33-6.82-.38-10.16-5.2-2.33-3.36-2.84-3.67-3.66-2.2-1.4 2.5-.08 11.06 2.3 14.9 1.14 1.86 3.3 3.84 4.8 4.42 3.6 1.38 10.32.58 15.93-1.9zM271.9 234c0-.48-1.12-3.3-2.5-6.24-3.17-6.84-3.2-9.57-.07-11 3.7-1.68 7.33-.22 10.35 4.14 3.22 4.66 3.8 4.84 4.65 1.45 1.4-5.53-1.66-14.23-5.98-17.06-3.17-2.1-12.2-1.45-17.83 1.25l-3.88 1.86.63 8c.34 4.4.62 9.44.63 11.2 0 2.9.44 3.34 5.25 5.2 5.73 2.2 8.75 2.6 8.75 1.2zm-171.12-28.95c1.86-.52 3-2.4 5.33-8.65 4.52-12.2 4.55-12.82.65-15.75-5.44-4.07-9.5-5.74-13.93-5.74-3.46 0-4.74.6-7.4 3.42-3.08 3.27-6.47 11.98-5.16 13.28.35.35 1.42-.06 2.4-.9 2.13-1.9 7.74-4.8 9.24-4.8.6 0 2.2 1.13 3.6 2.5 2.92 2.94 2.48 4.3-3.78 11.44-2.87 3.27-3.54 4.63-2.6 5.23 1.5.95 8.24.94 11.66-.02zm166.54-6.24c2.16-.6 5.2-2.35 6.75-3.9 2.44-2.44 2.83-3.62 2.83-8.45 0-8.07-2.8-13.13-8.78-15.77-4.24-1.87-5-1.93-8.68-.66-5.33 1.85-5.5 3.84-.55 6.88 4.35 2.7 5.52 4.82 4.46 8.14-.62 1.97-1.13 2.08-7.07 1.47-3.52-.35-6.4-.3-6.4.13s1.2 3.6 2.65 7.03c2.64 6.22 2.67 6.25 6.75 6.25 2.26 0 5.87-.5 8.02-1.1zM120.44 170.9c4.06-4.13 4.7-5.2 3.46-6-.82-.5-2.22-.94-3.1-.95-.88 0-3.02-.5-4.75-1.12-2.54-.87-3.15-1.64-3.15-3.93 0-3.3.66-3.82 6.87-5.4 5.45-1.4 6.12-3.73 1.97-6.83-3.23-2.4-10.4-2.53-14.82-.24-4.5 2.34-8.52 8.98-8.52 14.13 0 3.5.6 4.9 3.43 7.8 3.23 3.34 10.3 7.58 12.6 7.58.58 0 3.28-2.25 6-5.02zm135.2-5.3c3.07-2.75 3.18-11.44.2-16.25-3.9-6.33-12.52-9.72-17.78-7-3.78 1.95-8.82 8.04-10.25 12.36-1.03 3.14-.86 3.56 3.26 8.16 6.07 6.77 6.67 6.65 8.33-1.63.77-3.9 2.65-5.58 5.7-5.14 2.18.3 3 2.1 5.72 12.62.14.52 2.45-.98 4.83-3.13zm-105.08-15.67c5.9-2.78 6.34-3.2 6.34-6.3 0-5.32-2.75-13.1-5.56-15.75-3.32-3.1-11-3.34-17.3-.5-4.62 2.08-8.14 7.3-8.14 12.07 0 3 2.6 8.5 4.02 8.5.52 0 2.08-1.8 3.45-3.96 3.15-5 5.78-6.52 8.6-5 1.9 1 2 1.67 1.4 7.53-.4 3.52-.35 6.4.07 6.4s3.62-1.34 7.12-3zm70.92.34c7.22-7.8 8.96-15.98 4.42-20.84-1.37-1.48-4.07-3.47-6-4.44-3.73-1.88-9-3.4-9-2.6 0 .27 1.35 2.6 3 5.2 3.4 5.4 3.64 7 1.45 10.13-2.4 3.4-5.66 2.72-11.24-2.3-2.74-2.46-5.2-4.5-5.47-4.5-1.02 0-1.66 6.25-1.08 10.5.6 4.4.66 4.45 6.73 6.5 3.37 1.15 7.25 2.73 8.62 3.5 3.7 2.12 5.8 1.83 8.58-1.16zm-31.9-10.58c1.12-2.34 2.38-5.76 2.8-7.6.7-3.17.6-3.3-1.63-2.62-1.3.4-4.02 1.57-6.06 2.6-6.7 3.38-10.8 2.06-10.8-3.46 0-2.07 1.06-3.93 3.57-6.3 1.97-1.85 4-3.37 4.5-3.37s.93-.44.93-1c0-.55-2.75-1-6.25-.98-6.84 0-11.7 2.15-13.8 6.1-1.58 2.93-.7 13.53 1.45 17.7l1.65 3.2H187.5l2.07-4.26z"/><path fill="#8d919f" d="M60.4 444.4c-16.08-3.03-29.03-9.83-40-21-8.23-8.37-13.5-16.93-17.27-28l-2.73-8-.3-161C-.1 111.9.16 63.55.94 58.9 3.38 44.6 11.2 30.57 22.7 19.8 31.15 11.9 38.3 7.6 49.65 3.54L58.4.4l117-.28c82.5-.2 118.92.04 123.5.82 25.72 4.4 48.06 23.86 56.78 49.47l2.72 8v163.5c0 155.45-.1 163.83-1.83 170-7.9 28.1-31.9 48.88-61.05 52.93-12.18 1.7-225.95 1.3-235.12-.42zm246.78-6.64c20.94-7.14 36.63-22.46 43.9-42.85l2.32-6.5.28-162.5c.3-182.12.8-169.63-7.04-185.27-3.1-6.18-5.98-10.06-11.7-15.7-11.6-11.48-23.6-17.54-39.56-20-4.77-.74-42.88-1-120.48-.78l-113.5.3-7.48 2.3c-12.62 3.88-20.6 8.7-30.05 18.13-6.5 6.5-9.4 10.32-12.2 16.03C4.42 55.87 4.9 42.78 4.9 222.6c0 177.45-.36 166.5 5.9 179.8 8.5 18.1 25.27 31.63 45.32 36.6 6.82 1.67 14.7 1.77 125.28 1.6l118-.2 7.78-2.64zM165.36 350.8c-49.1-5.17-92.52-40.35-108.47-87.9-5.92-17.58-7.76-43.6-4.45-62.6 2.93-16.78 10.12-34.54 20.16-49.75 6.18-9.35 24.83-28.03 34.3-34.36 23.82-15.9 48.83-23.02 77-21.93 32.86 1.27 60.06 12.62 83.56 34.87 20.56 19.46 34.14 44.8 39 72.77 2.2 12.6 1.5 36.6-1.46 49.32-12.4 53.58-58.32 94.02-113.15 99.65-11.34 1.16-14.86 1.15-26.5-.07zm30.04-9.92c36.9-5.25 68.38-26.23 86.98-57.97 27.78-47.38 19.07-108.82-20.8-146.7-22.6-21.45-50.46-32.48-82.17-32.5-33.9-.04-63.5 12.6-86.8 37.08-48.5 51.02-41.8 134.57 14.2 176.7 25.43 19.12 58.05 27.74 88.6 23.4zm-36.87-9.52c-41.64-8.27-75.6-40.24-86.3-81.24-3.1-11.92-4.16-30.98-2.4-43.36 2.72-18.9 11.75-39.07 24.26-54.14 33.8-40.77 89.84-52.17 136.5-27.78 14.78 7.72 30.76 22.02 40.27 36.03 6.24 9.18 12.76 23.58 15.74 34.77 2.33 8.7 2.62 11.66 2.64 26.77.02 15.2-.25 18.04-2.55 26.6-5.65 20.9-15.1 37.42-29.76 51.9-16.4 16.25-36.18 26.67-58.04 30.6-9.54 1.7-31.43 1.63-40.37-.14zm32.04-4.38c2.3-1.05 4.7-2.9 5.36-4.12 1.64-3.07.78-13.57-1.5-18.32l-1.87-3.87-5.08.6c-2.8.35-7.86.63-11.26.63h-6.17l-2.08 5.55c-3.53 9.45-2.86 10.1 6.27 5.9 6.3-2.88 9.16-2.3 10.26 2.1.8 3.15-1.4 6.56-6.05 9.44-1.96 1.2-3.3 2.6-3 3.1 1 1.6 10.78.95 15.12-1.02zm-42.67-4.63c0-.32-1.12-2.04-2.5-3.84-3.82-5-4.17-8.6-1.1-11.5l2.56-2.4 3.9 2.7c2.12 1.5 4.9 3.8 6.18 5.16 1.27 1.35 2.68 2.45 3.14 2.45.45 0 .82-3.6.82-8 0-6.74-.25-8-1.64-8-.9 0-5.4-1.6-10.02-3.6-7.94-3.4-8.5-3.5-10.8-2-3.48 2.27-7.7 9.98-8.28 15.06-.44 3.85-.12 4.73 2.87 7.98 1.86 2 5.17 4.3 7.37 5.07 4.2 1.5 7.5 1.9 7.5.95zm76.37-3.82c6.72-2.8 10.07-10.55 7.5-17.33-.77-2-1.9-3.8-2.5-4-.62-.2-2.75 1.9-4.74 4.67-5.94 8.27-10.22 6.43-9.06-3.88.38-3.35.47-6.1.2-6.1-.27 0-3.48 1.37-7.13 3.02l-6.64 3v4.25c.02 6.3 1.84 11.73 5.02 14.9 2.43 2.45 3.6 2.84 8.44 2.84 3.08 0 7.1-.6 8.9-1.37zm-99.4-18.37c2.03-2.06 4.53-5.9 5.53-8.55l1.82-4.8-4.88-4.95c-2.7-2.73-5.33-4.8-5.87-4.63-.55.18-1.46 2.5-2.03 5.15-.65 3.03-1.84 5.34-3.2 6.25-1.96 1.3-2.4 1.23-4.16-.53-1.08-1.1-2.28-3.85-2.67-6.15-.88-5.26-2.9-6.1-6.33-2.65-2.24 2.23-2.66 3.52-2.62 7.95.1 9.64 6.92 16.6 16.32 16.65 3.73 0 4.9-.54 8.1-3.74zm126.02-.86c4.65-1.86 7.33-5.18 8.9-11.05 1.3-4.74.32-8.38-3.2-12.18-2.8-3-8.93-6.16-11.95-6.16-2.67 0-12.2 8.48-11.25 10 .34.56 2.42 1.3 4.62 1.65 5.4.86 8.35 3.32 7.44 6.2-.53 1.64-2.2 2.6-6.63 3.84-3.26.9-5.93 2.05-5.93 2.55s1.32 2.23 2.93 3.84c3.44 3.43 8.6 3.88 15.06 1.3zm-54.7-5c34.86-7.86 58.4-39.5 56.42-75.85-3.06-56.02-63.38-87.34-112.46-58.4-7.87 4.65-19.1 16.04-24.02 24.38-6.68 11.3-9.43 20.94-10 35-.6 14.6 1.46 24.35 7.92 37.48 3.38 6.9 5.9 10.25 13.3 17.63 7.73 7.75 10.54 9.82 18.57 13.73 5.2 2.53 12.17 5.25 15.47 6.04 8.3 2 25.9 2 34.8 0zm-32.38-8.9c-21.52-5.23-38.92-21.33-45.92-42.5-3.1-9.3-3.77-24.42-1.56-34.37 4.93-22.14 21.32-40.18 42.93-47.27 6.95-2.28 9.87-2.67 20.13-2.7 10.54 0 12.98.32 20 2.74 14.82 5.12 25.26 13 33.43 25.2 9.36 14 13.12 33.15 9.7 49.4-5.04 23.9-24.4 44-47.63 49.46-7.92 1.86-23.5 1.87-31.08.03zm19.2-9.72c3-5.94 3.12-6.6 2.56-14.75l-.6-8.52 3.02 7.98c2.48 6.58 3.9 8.78 8.2 12.64 4.88 4.38 5.24 4.54 5.85 2.53 1.37-4.5.8-12.18-1.26-16.64-4.42-9.56-4.28-9.76 2.3-3.35 4.65 4.52 7.7 6.58 11.62 7.85 2.92.94 5.5 1.52 5.75 1.28.24-.24-.48-3.1-1.6-6.35-1.55-4.5-3.5-7.42-8.25-12.24l-6.22-6.33 6 2.67c9.85 4.38 10.84 4.6 17.4 3.76l6.22-.8-4.83-5.37c-3.97-4.42-6.16-5.88-12.3-8.2l-7.5-2.8 8.73-.06c7.4-.05 9.57-.47 14.25-2.77 3.04-1.5 5.52-2.97 5.52-3.3 0-.32-2.14-1.68-4.75-3.02-3.7-1.88-6.87-2.54-14.25-2.95l-9.5-.52 7.75-2.84c6.5-2.4 8.46-3.68 12.2-8 5.08-5.9 4.72-6.46-4.22-6.58-3.83-.05-7.08.75-11.9 2.93-3.63 1.66-6.87 3-7.2 3-.3 0 2.18-2.8 5.54-6.24 4.5-4.6 6.55-7.64 7.82-11.56.93-2.93 1.46-5.56 1.17-5.85-.3-.3-2.93.23-5.85 1.18-3.92 1.26-7 3.33-11.64 7.85l-6.32 6.13 2.78-6c2.16-4.64 2.86-7.84 3.15-14.24.2-4.53.05-8.25-.3-8.25-.38 0-3 2.04-5.82 4.5-4.25 3.73-5.7 5.94-8.4 12.76l-3.25 8.25.63-8.35c.6-8.04.5-8.63-2.73-15.3l-3.36-6.92-3.23 6.3c-2.8 5.45-3.26 7.34-3.35 14.28l-.1 8-2.7-7.12c-2.17-5.7-3.74-8.06-8-11.87-2.9-2.6-5.46-4.56-5.68-4.34-.22.22-.48 3.54-.57 7.38-.14 5.9.3 8.04 3 13.97l3.16 7-6.3-6.12c-4.64-4.53-7.7-6.6-11.6-7.85-2.94-.95-5.57-1.48-5.86-1.18-.3.3.23 2.92 1.17 5.85 1.3 4 3.35 6.97 8.37 12.1l6.63 6.8-7.8-3.54c-5.9-2.68-9.1-3.53-13-3.48-8.98.12-9.36.7-4.22 6.6 3.74 4.27 5.78 5.6 12.26 7.98l7.76 2.85-10 .5c-7.82.4-10.92 1-14.25 2.78-2.34 1.25-4.25 2.62-4.25 3.05 0 .43 2.14 1.88 4.75 3.2 3.6 1.85 6.94 2.56 13.75 2.96l9 .5-7.5 2.85c-6.18 2.34-8.28 3.74-11.94 8l-4.44 5.16 6.4.8c5.32.67 7.17.48 10.94-1.14 2.5-1.06 6.34-2.68 8.54-3.6l4-1.65-6.26 5.8c-5.08 4.72-6.64 6.93-8.25 11.72-1.1 3.25-2 6.24-2 6.66 0 .4 2.98-.22 6.6-1.4 5.7-1.84 7.33-2.96 11.64-7.94 2.76-3.2 5.2-5.62 5.42-5.4.2.2-.97 3.42-2.64 7.12-2.42 5.4-3.02 8.1-3.02 13.65 0 4.13.42 6.9 1.04 6.9.58 0 3.24-2.03 5.9-4.53 3.62-3.38 5.52-6.28 7.4-11.25l2.55-6.7.05 7.77c.04 6.6.5 8.68 3.07 13.74 1.65 3.3 3.22 5.97 3.48 5.97.26 0 1.9-2.8 3.62-6.22zm-3.92-18.9l-.2-6.6-3.25-.55c-1.8-.3-4.04-.86-5-1.24-1.06-.43-1.75-.24-1.75.47 0 1.62-4.18 11.2-4.67 10.7-.22-.2.55-2.92 1.7-6 2.06-5.5 1.98-7.66-.26-7.66-.6 0-1.95-.74-2.97-1.67-1.76-1.6-2.08-1.45-6.3 2.7-2.45 2.4-4.68 4.13-4.96 3.86-.27-.3 1.47-2.44 3.88-4.8l4.38-4.3-2.46-3.62c-1.35-2-2.58-3.74-2.74-3.9-.16-.16-2.4.64-5 1.8-2.58 1.13-5.23 1.9-5.9 1.67-.66-.23 1.28-1.34 4.3-2.48 5.46-2.06 5.5-2.1 5.22-5.92-.45-6.03-.8-6.5-4.45-5.82-1.8.33-4.4.16-5.77-.4-2.08-.82-1.45-1 3.75-1.05 6.13-.07 6.25-.12 6.27-2.82 0-1.5.28-3.76.6-5 .42-1.52.18-2.25-.75-2.26-.75 0-3.62-1.13-6.37-2.5-5.5-2.72-2.47-2.34 4.2.54l4.18 1.8 2.04-4.13 2.05-4.13-2.8-3.03c-4.94-5.38-5.9-7.2-2.17-4.13 1.93 1.6 4.1 3.74 4.82 4.77 1.3 1.83 1.4 1.83 3.9-.14 1.4-1.1 3.17-2.02 3.92-2.02 1.82 0 1.73-1-.67-7.08-2.77-7-1.8-7.42 1.1-.46 2.37 5.73 2.68 5.9 8.43 4.68 2.92-.62 3.02-.84 3.58-7.63l.57-7 .18 7.26c.15 6.36.4 7.25 2.05 7.25 1.03 0 3.18.27 4.78.6 2.75.54 3.03.27 5.24-5.06 1.28-3.1 2.55-5.42 2.8-5.16.26.26-.47 2.6-1.6 5.18-1.16 2.6-2.08 5.2-2.06 5.83.03.6 1.66 2.15 3.64 3.4l3.6 2.3 2.6-2.86c1.45-1.57 3.72-3.73 5.06-4.8l2.44-1.93-2.23 3.22c-1.22 1.76-3.4 4.13-4.84 5.27l-2.6 2.05 2 2.23c1.1 1.23 2.28 3 2.6 3.95.57 1.6.88 1.6 4.9-.15 6.74-2.9 9.85-3.33 4.3-.57-2.75 1.37-5.62 2.5-6.37 2.5-1 0-1.2.85-.75 3.14.34 1.72.62 3.97.62 5 0 1.6.8 1.87 5.56 1.87 3.7 0 5.34.37 4.9 1.08-.36.6-2.7.95-5.2.8l-4.56-.3-1.17 4.6-1.16 4.62 5.36 2.22c6.84 2.83 6.27 3.75-.64 1.03-6.13-2.42-6.1-2.4-6.1-.67 0 .75-.98 2.6-2.18 4.14l-2.2 2.78 2.45 2.1c1.34 1.17 3.56 3.43 4.93 5.04l2.5 2.93-3-2.08c-1.65-1.16-4.08-3.26-5.4-4.68-1.95-2.08-2.7-2.35-3.87-1.38-.8.66-2.4 1.7-3.58 2.32-2.44 1.27-2.45 1.08.4 8.45 1.15 3.04 1.65 5.06 1.1 4.5-.56-.54-1.86-3.16-2.9-5.8-1.03-2.66-2.18-4.8-2.56-4.77-.4.03-2.48.34-4.66.7l-3.95.62-.36 6.63-.35 6.63-.2-6.6zm-5.2-14.87c4.48-4.46 1.12-12-5.34-12-4.1 0-7 2.9-7 7 0 6.33 7.85 9.5 12.34 5zm20.8-.03c2.7-2.5 2.95-7.98.45-10.22-5.05-4.56-12.25-1.7-12.25 4.84 0 6.56 7.07 9.8 11.8 5.37zm-8.3-13.15c1.38-1.63 2.5-4.08 2.5-5.46v-2.5l2.64 2.08c1.45 1.14 3.4 2.07 4.36 2.07 3.36 0 7-3.9 7-7.5 0-3.72-3.68-7.5-7.32-7.5-2.38 0-6.68 3.7-6.68 5.77 0 1.56-.17 1.5-4.53-1.17l-3.03-1.87 2.78-2.78c1.53-1.53 2.78-3.74 2.78-4.9 0-2.94-4.37-7.04-7.5-7.04-3.22 0-7.5 4.14-7.5 7.24 0 3.03 2.66 6.77 4.8 6.78 1.1 0 .57.7-1.46 1.93-1.74 1.06-3.64 2.74-4.22 3.74-.93 1.6-1.06 1.48-1.1-.94-.05-5.9-8.5-9.2-12.43-4.85-2.3 2.54-2.34 7.64-.1 10.12 2.4 2.64 7.86 2.63 10.5 0 2-2 2-2 2 1.3 0 2.33.83 4.1 2.75 5.9 4.7 4.44 9.8 4.3 13.76-.4zm-11.93-1.38c-.86-.86-1.57-3.1-1.57-4.94 0-5.83 6.86-8.63 11-4.5 2.5 2.5 2.6 7.17.17 9.36-2.3 2.1-7.54 2.14-9.6.08zm-73.12 47.4c3.63-1.64 3.18-3.3-1.83-6.74-5.18-3.57-5.97-5.14-4-7.95 1.3-1.87 2.12-2.03 7.42-1.48 3.8.4 5.96.26 5.96-.4 0-2.74-5.1-12.16-6.9-12.73-4.22-1.33-14.85 1.5-17.94 4.8-5 5.34-2.83 19 3.74 23.4 3.75 2.5 9.46 2.98 13.55 1.1zm169.67-5.56c3.17-1.87 7.88-10.22 7.88-13.96 0-2.97-.67-2.88-5.43.72-4.78 3.62-7.5 3.75-10.55.5l-2.32-2.48 2.73-3.94c1.5-2.16 3.6-4.72 4.65-5.68 3.84-3.47 2.5-4.54-5.3-4.22-7.06.3-7.26.36-8.2 3.3-.5 1.64-2.25 6.1-3.85 9.88l-2.92 6.88 1.96 2.62c2.5 3.34 11.58 8.1 15.45 8.1 1.65 0 4.3-.77 5.92-1.72zM97.2 239.44c1.96-.83 3.84-1.94 4.17-2.47.33-.54.3-5.77-.1-11.64l-.68-10.65-4.1-1.86c-4.3-1.96-9.6-2.52-9.6-1.03 0 .48 1.16 3.4 2.57 6.48 2.8 6.14 2.6 8.78-.84 10.35-3.14 1.43-6 .08-9.77-4.62-1.78-2.2-3.63-3.8-4.1-3.5-.47.3-.86 2.66-.86 5.26 0 5.73 3.46 13.1 7 14.94 2.98 1.55 11.06.92 16.3-1.26zM271.9 234c0-.48-1.12-3.3-2.5-6.24-2.93-6.32-3.04-7.6-.84-10.02 2.85-3.15 5.83-2.24 10.64 3.26l4.45 5.1.64-3.46c.35-1.9.15-5.75-.46-8.57-1.48-6.9-5.27-10.16-11.84-10.16-4.9 0-13.65 2.48-14.68 4.14-.32.52-.26 5.84.12 11.8l.7 10.88 3.63 1.53c6.64 2.8 10.13 3.4 10.13 1.76zm-171.84-28.7c3.13-.53 3.75-1.08 4.26-3.75.33-1.73 1.72-5.54 3.1-8.5 3.07-6.6 3.12-9.2.23-11.86-7.12-6.56-15.96-8.27-21.24-4.12-3.2 2.53-6.44 9.1-6.48 13.14l-.02 2.82 4.44-3.2c4.66-3.34 8.54-4.02 11.06-1.93 2.65 2.2 1.67 5.6-3.17 11-3.7 4.12-4.38 5.37-3.25 6.08 1.65 1.05 5.9 1.16 11.08.3zm168-6.56c2.15-.64 5.02-2.27 6.37-3.63 2.1-2.08 2.47-3.4 2.47-8.57 0-10.9-5-17-13.9-17-4.88 0-8.1 1.52-8.1 3.8 0 .66 2.03 2.62 4.5 4.37 7.77 5.48 5.58 9.77-4.42 8.64-3.34-.38-6.08-.46-6.08-.2 0 .28 1.36 3.48 3 7.13l3.02 6.64h4.63c2.54 0 6.37-.5 8.52-1.16zm-147.28-27.3c2.43-2.52 4.1-5.1 3.82-5.87-.3-.76-2.46-1.68-4.8-2.06-5-.8-6.9-2.1-6.9-4.7 0-2.3 3.37-4.53 8.25-5.42 3.9-.72 4.58-2.06 2.74-5.5-2.44-4.53-14.8-4.32-19.88.34-2.9 2.66-6.07 9.28-6.1 12.7 0 1.37.87 3.94 1.94 5.7 2.1 3.44 11.24 9.27 14.56 9.28 1.1 0 3.97-2 6.36-4.47zm134.48-4.98c2.28-2.12 2.64-3.26 2.64-8.35 0-7.34-2.62-11.72-9-15-4.94-2.53-9.44-2.44-13.6.28-2.82 1.85-8.38 11.17-8.4 14.07 0 2.17 7.74 10.46 9.77 10.46.66 0 1.47-1.22 1.8-2.74 1.25-5.67 2.1-7.63 3.74-8.67 2.58-1.63 5 .4 6.53 5.5.74 2.43 1.5 4.98 1.72 5.66.58 1.86 1.85 1.54 4.8-1.2zm-104.36-16.4l5.5-2.74-.17-6.18c-.33-11.86-6.1-17.4-16.5-15.83-8.7 1.32-13.83 6.8-13.83 14.86 0 3.58 2.35 7.75 4.37 7.75.7 0 2.27-1.8 3.5-4 2.92-5.16 5.14-6.37 8.02-4.36 1.98 1.4 2.12 2.1 1.5 7.46-.78 6.97-.5 7.08 7.6 3.05zm71.57-.4c3.4-4.02 6.38-10.43 6.4-13.75.05-5.7-6.4-11.4-15.22-13.4-3.42-.78-3.52.5-.36 4.73 3.46 4.64 4.04 7.37 2.16 10.23-2.33 3.56-5.02 3.03-10.45-2.05-2.64-2.46-5.27-4.5-5.84-4.5-1.6 0-2.38 4.6-1.68 9.9l.64 4.8 8.64 3.52c11.03 4.5 12.32 4.55 15.7.54zm-32.6-10c2.4-5.55 3.47-10.75 2.2-10.75-.53 0-3.38 1.13-6.32 2.5-6.44 3-9.43 3.16-10.8.58-1.9-3.54-1.1-5.86 3.45-9.86 2.48-2.18 4.5-4.24 4.5-4.58 0-1-11.6-.73-14.4.33-5.1 1.94-6.6 4.53-6.58 11.3.02 4 .72 7.77 1.96 10.5l1.92 4.24H188l1.86-4.24z"/><path fill="#6d6f76" d="M60.4 444.4c-16.08-3.03-29.03-9.83-40-21-8.23-8.37-13.5-16.93-17.27-28l-2.73-8-.3-161C-.1 111.9.16 63.55.94 58.9 3.38 44.6 11.2 30.57 22.7 19.8 31.15 11.9 38.3 7.6 49.65 3.54L58.4.4l117-.28c82.5-.2 118.92.04 123.5.82 25.72 4.4 48.06 23.86 56.78 49.47l2.72 8v163.5c0 155.45-.1 163.83-1.83 170-7.9 28.1-31.9 48.88-61.05 52.93-12.18 1.7-225.95 1.3-235.12-.42zm246.78-6.64c20.94-7.14 36.63-22.46 43.9-42.85l2.32-6.5.28-162.5c.3-182.12.8-169.63-7.04-185.27-3.1-6.18-5.98-10.06-11.7-15.7-11.6-11.48-23.6-17.54-39.56-20-4.77-.74-42.88-1-120.48-.78l-113.5.3-7.48 2.3c-12.62 3.88-20.6 8.7-30.05 18.13-6.5 6.5-9.4 10.32-12.2 16.03C4.42 55.87 4.9 42.78 4.9 222.6c0 177.45-.36 166.5 5.9 179.8 8.5 18.1 25.27 31.63 45.32 36.6 6.82 1.67 14.7 1.77 125.28 1.6l118-.2 7.78-2.64zM160.42 349.8c-41.17-6-77.18-32.1-95.82-69.43-8.54-17.1-12.46-32.33-13.36-51.96-2.3-50.33 24.77-97.3 69.13-119.95 14.67-7.48 29.54-11.77 47.03-13.55 31-3.17 64.05 6.2 89.53 25.4 25.5 19.2 43.42 48.6 49.08 80.6 2.13 11.96 1.65 35.53-.95 47.75-8.54 40.08-33 71.46-69.6 89.32-12.94 6.3-21.8 9.13-36.05 11.46-9.7 1.6-29.3 1.78-38.98.37zm42.98-10.04c36.1-7.1 67.97-32.2 84.06-66.22 17.82-37.68 14.73-81.88-8.13-116.3-32.32-48.64-94.17-67.4-147.08-44.58C101.7 125.83 76.42 153.23 66 184.5c-5.1 15.28-6.4 24.85-5.8 42.4.6 17.5 2.48 26.74 8.3 40.8 22.15 53.63 77.68 83.3 134.9 72.06zm-39.54-7.95c-37.6-4.85-72-31.58-86.52-67.2-11.63-28.53-10.68-61.6 2.58-89.5 13.8-29.07 39.9-50.63 71.64-59.2 11.26-3.06 35.54-3.84 47.7-1.55 49.08 9.24 84.87 48.42 89.6 98.06.96 10.2.14 24.52-1.95 34.1-6.98 32.03-28.06 59.26-57.56 74.4-19.28 9.88-42.95 13.83-65.48 10.9zm27.85-4.9c6.4-3.9 7.58-11.83 3.2-21.7l-1.9-4.3h-22.2l-2.43 5.26c-2.1 4.5-3.3 10.75-2.1 10.75.2 0 2.93-1.1 6.04-2.5 7.36-3.24 10.37-3.24 11.6.02 1.32 3.47-.42 6.84-5.14 9.97-2.12 1.4-3.86 2.98-3.86 3.53 0 .55 2.98.98 6.75.98 5 0 7.6-.52 10.06-2zm-43.8-4c0-.57-1.18-2.82-2.62-5-2.85-4.3-3.35-8.1-1.38-10.48 2.15-2.6 5.35-1.67 10.86 3.15 5.9 5.16 7.1 4.86 7.13-1.78.02-8.2-.75-9.5-6.85-11.7-3.1-1.13-7.83-2.86-10.5-3.86l-4.85-1.83-3.32 3.84c-10.6 12.22-7.66 23.12 7.52 27.74 3.54 1.07 4 1.06 4-.1zm73.35-3.07c2.1-.58 5.42-2.5 7.34-4.27 4.3-3.96 5.5-10.4 2.9-15.48-2-3.85-2.97-3.95-5.3-.55-2.65 3.87-6.07 7.38-7.18 7.38-2.78 0-3.92-3.03-3.4-8.97.6-6.6.08-7.13-4.56-4.52-1.46.83-3.9 1.94-5.43 2.5-2.92 1.03-4.85 4.55-4.22 7.66.22 1.02.66 3.53 1 5.57.63 4.05 4.6 9.48 7.92 10.8 2.9 1.2 6.43 1.15 10.93-.1zM122 302.63c4.05-2.7 9.9-11.06 9.9-14.12 0-2.57-9.3-12.14-10.86-11.17-.58.36-1.36 2.32-1.73 4.37-1.04 5.84-2.2 7.37-5.22 7.02-2.3-.26-2.85-1-3.9-5.27-1.98-8-1.87-7.9-5.18-5.93-9.5 5.6-5.45 21.65 6.56 25.93 5.3 1.9 6.55 1.8 10.44-.8zm131.7-4.57c3.6-2.58 7.2-9.53 7.2-13.96 0-2.24-1.05-4.35-3.56-7.13-3.26-3.6-10.52-8.06-13.15-8.06-.6 0-3.46 2.33-6.35 5.16-4.7 4.6-5.08 5.28-3.58 6.38.92.67 3.45 1.5 5.62 1.85 4.14.66 6.46 3.25 5.4 6.02-.58 1.52-6.13 3.58-9.68 3.6-5.16 0-.37 8.54 5.17 9.2 4.3.5 9.66-.76 12.9-3.06zm-52.08-5c12.7-4.26 20.52-9.17 30.28-19.05 14.5-14.66 21.07-30.52 21.2-51.1.1-17.46-5.1-32.45-16.12-46.3-25.52-32.12-72.88-37.15-104.46-11.1-34.8 28.7-36.56 79.55-3.84 110.5 16 15.15 32.14 21.26 53.9 20.42 7.88-.3 12.16-1.05 19.04-3.36zm-37.8-7.67c-21.52-5.24-38.92-21.33-45.92-42.5-3.1-9.3-3.77-24.42-1.56-34.37 4.93-22.14 21.32-40.18 42.93-47.27 6.95-2.28 9.87-2.67 20.13-2.7 10.54 0 12.98.32 20 2.74 14.82 5.12 25.26 13 33.43 25.2 9.36 14 13.12 33.15 9.7 49.4-5.04 23.9-24.4 44-47.63 49.46-7.92 1.86-23.5 1.87-31.08.03zm19.2-9.72c3-5.94 3.12-6.6 2.56-14.75l-.6-8.52 3.02 7.98c2.48 6.58 3.9 8.78 8.2 12.64 4.88 4.38 5.24 4.54 5.85 2.53 1.37-4.5.8-12.18-1.26-16.64-4.42-9.56-4.28-9.76 2.3-3.35 4.65 4.52 7.7 6.58 11.62 7.85 2.92.94 5.5 1.52 5.75 1.28.24-.24-.48-3.1-1.6-6.35-1.55-4.5-3.5-7.42-8.25-12.24l-6.22-6.33 6 2.67c9.85 4.38 10.84 4.6 17.4 3.76l6.22-.8-4.83-5.37c-3.97-4.42-6.16-5.88-12.3-8.2l-7.5-2.8 8.73-.06c7.4-.05 9.57-.47 14.25-2.77 3.04-1.5 5.52-2.97 5.52-3.3 0-.32-2.14-1.68-4.75-3.02-3.7-1.88-6.87-2.54-14.25-2.95l-9.5-.52 7.75-2.84c6.5-2.4 8.46-3.68 12.2-8 5.08-5.9 4.72-6.46-4.22-6.58-3.83-.05-7.08.75-11.9 2.93-3.63 1.66-6.87 3-7.2 3-.3 0 2.18-2.8 5.54-6.24 4.5-4.6 6.55-7.64 7.82-11.56.93-2.93 1.46-5.56 1.17-5.85-.3-.3-2.93.23-5.85 1.18-3.92 1.26-7 3.33-11.64 7.85l-6.32 6.13 2.78-6c2.16-4.64 2.86-7.84 3.15-14.24.2-4.53.05-8.25-.3-8.25-.38 0-3 2.04-5.82 4.5-4.25 3.73-5.7 5.94-8.4 12.76l-3.25 8.25.63-8.35c.6-8.04.5-8.63-2.73-15.3l-3.36-6.92-3.23 6.3c-2.8 5.45-3.26 7.34-3.35 14.28l-.1 8-2.7-7.12c-2.17-5.7-3.74-8.06-8-11.87-2.9-2.6-5.46-4.56-5.68-4.34-.22.22-.48 3.54-.57 7.38-.14 5.9.3 8.04 3 13.97l3.16 7-6.3-6.12c-4.64-4.53-7.7-6.6-11.6-7.85-2.94-.95-5.57-1.48-5.86-1.18-.3.3.23 2.92 1.17 5.85 1.3 4 3.35 6.97 8.37 12.1l6.63 6.8-7.8-3.54c-5.9-2.68-9.1-3.53-13-3.48-8.98.12-9.36.7-4.22 6.6 3.74 4.27 5.78 5.6 12.26 7.98l7.76 2.85-10 .5c-7.82.4-10.92 1-14.25 2.78-2.34 1.25-4.25 2.62-4.25 3.05 0 .43 2.14 1.88 4.75 3.2 3.6 1.85 6.94 2.56 13.75 2.96l9 .5-7.5 2.85c-6.18 2.34-8.28 3.74-11.94 8l-4.44 5.16 6.4.8c5.32.67 7.17.48 10.94-1.14 2.5-1.06 6.34-2.68 8.54-3.6l4-1.65-6.26 5.8c-5.08 4.72-6.64 6.93-8.25 11.72-1.1 3.25-2 6.24-2 6.66 0 .4 2.98-.22 6.6-1.4 5.7-1.84 7.33-2.96 11.64-7.94 2.76-3.2 5.2-5.62 5.42-5.4.2.2-.97 3.42-2.64 7.12-2.42 5.4-3.02 8.1-3.02 13.65 0 4.13.42 6.9 1.04 6.9.58 0 3.24-2.03 5.9-4.53 3.62-3.38 5.52-6.28 7.4-11.25l2.55-6.7.05 7.77c.04 6.6.5 8.68 3.07 13.74 1.65 3.3 3.22 5.97 3.48 5.97.26 0 1.9-2.8 3.62-6.22zm-3.92-18.9l-.2-6.6-3.25-.55c-1.8-.3-4.04-.86-5-1.24-1.06-.43-1.75-.24-1.75.47 0 1.62-4.18 11.2-4.67 10.7-.22-.2.55-2.92 1.7-6 2.06-5.5 1.98-7.66-.26-7.66-.6 0-1.95-.74-2.97-1.67-1.76-1.6-2.08-1.45-6.3 2.7-2.45 2.4-4.68 4.13-4.96 3.86-.27-.3 1.47-2.44 3.88-4.8l4.38-4.3-2.46-3.62c-1.35-2-2.58-3.74-2.74-3.9-.16-.16-2.4.64-5 1.8-2.58 1.13-5.23 1.9-5.9 1.67-.66-.23 1.28-1.34 4.3-2.48 5.46-2.06 5.5-2.1 5.22-5.92-.45-6.03-.8-6.5-4.45-5.82-1.8.33-4.4.16-5.77-.4-2.08-.82-1.45-1 3.75-1.05 6.13-.07 6.25-.12 6.27-2.82 0-1.5.28-3.76.6-5 .42-1.52.18-2.25-.75-2.26-.75 0-3.62-1.13-6.37-2.5-5.5-2.72-2.47-2.34 4.2.54l4.18 1.8 2.04-4.13 2.05-4.13-2.8-3.03c-4.94-5.38-5.9-7.2-2.17-4.13 1.93 1.6 4.1 3.74 4.82 4.77 1.3 1.83 1.4 1.83 3.9-.14 1.4-1.1 3.17-2.02 3.92-2.02 1.82 0 1.73-1-.67-7.08-2.77-7-1.8-7.42 1.1-.46 2.37 5.73 2.68 5.9 8.43 4.68 2.92-.62 3.02-.84 3.58-7.63l.57-7 .18 7.26c.15 6.36.4 7.25 2.05 7.25 1.03 0 3.18.27 4.78.6 2.75.54 3.03.27 5.24-5.06 1.28-3.1 2.55-5.42 2.8-5.16.26.26-.47 2.6-1.6 5.18-1.16 2.6-2.08 5.2-2.06 5.83.03.6 1.66 2.15 3.64 3.4l3.6 2.3 2.6-2.86c1.45-1.57 3.72-3.73 5.06-4.8l2.44-1.93-2.23 3.22c-1.22 1.76-3.4 4.13-4.84 5.27l-2.6 2.05 2 2.23c1.1 1.23 2.28 3 2.6 3.95.57 1.6.88 1.6 4.9-.15 6.74-2.9 9.85-3.33 4.3-.57-2.75 1.37-5.62 2.5-6.37 2.5-1 0-1.2.85-.75 3.14.34 1.72.62 3.97.62 5 0 1.6.8 1.87 5.56 1.87 3.7 0 5.34.37 4.9 1.08-.36.6-2.7.95-5.2.8l-4.56-.3-1.17 4.6-1.16 4.62 5.36 2.22c6.84 2.83 6.27 3.75-.64 1.03-6.13-2.42-6.1-2.4-6.1-.67 0 .75-.98 2.6-2.18 4.14l-2.2 2.78 2.45 2.1c1.34 1.17 3.56 3.43 4.93 5.04l2.5 2.93-3-2.08c-1.65-1.16-4.08-3.26-5.4-4.68-1.95-2.08-2.7-2.35-3.87-1.38-.8.66-2.4 1.7-3.58 2.32-2.44 1.27-2.45 1.08.4 8.45 1.15 3.04 1.65 5.06 1.1 4.5-.56-.54-1.86-3.16-2.9-5.8-1.03-2.66-2.18-4.8-2.56-4.77-.4.03-2.48.34-4.66.7l-3.95.62-.36 6.63-.35 6.63-.2-6.6zm-5.2-14.87c4.48-4.46 1.12-12-5.34-12-4.1 0-7 2.9-7 7 0 6.33 7.85 9.5 12.34 5zm20.8-.03c2.7-2.5 2.95-7.98.45-10.22-5.05-4.56-12.25-1.7-12.25 4.84 0 6.56 7.07 9.8 11.8 5.37zm-8.3-13.15c1.38-1.63 2.5-4.08 2.5-5.46v-2.5l2.64 2.08c1.45 1.14 3.4 2.07 4.36 2.07 3.36 0 7-3.9 7-7.5 0-3.72-3.68-7.5-7.32-7.5-2.38 0-6.68 3.7-6.68 5.77 0 1.56-.17 1.5-4.53-1.17l-3.03-1.87 2.78-2.78c1.53-1.53 2.78-3.74 2.78-4.9 0-2.94-4.37-7.04-7.5-7.04-3.22 0-7.5 4.14-7.5 7.24 0 3.03 2.66 6.77 4.8 6.78 1.1 0 .57.7-1.46 1.93-1.74 1.06-3.64 2.74-4.22 3.74-.93 1.6-1.06 1.48-1.1-.94-.05-5.9-8.5-9.2-12.43-4.85-2.3 2.54-2.34 7.64-.1 10.12 2.4 2.64 7.86 2.63 10.5 0 2-2 2-2 2 1.3 0 2.33.83 4.1 2.75 5.9 4.7 4.44 9.8 4.3 13.76-.4zm-11.93-1.38c-.86-.86-1.57-3.1-1.57-4.94 0-5.83 6.86-8.63 11-4.5 2.5 2.5 2.6 7.17.17 9.36-2.3 2.1-7.54 2.14-9.6.08zm-72.03 46.96l2.54-1.67-2.2-2.34c-1.2-1.3-3.02-2.62-4.04-2.94-2.48-.78-4.1-4.05-3.3-6.6.63-1.94 1.17-2.05 7-1.45 3.75.4 6.56.26 6.92-.32.33-.53-.3-2.67-1.43-4.75-1.12-2.08-2.03-4.2-2.03-4.72 0-.5-.74-1.75-1.65-2.76-3.36-3.7-14.76-1.6-20.05 3.68-2.83 2.83-3.3 3.98-3.28 8.14.03 5.34 2.57 11.85 5.73 14.66 4.34 3.86 10.87 4.3 15.8 1.08zm170.9-6.88c3.25-3.26 7.35-13.05 6.02-14.38-.3-.3-1.76.25-3.25 1.22-1.48.97-4.2 2.44-6.04 3.26-3 1.34-3.6 1.33-5.75-.08-3.47-2.28-3-4.73 2.2-11.1 3.6-4.4 4.32-5.87 3.26-6.53-1.6-1-5.88-1.1-10.98-.27-3.44.57-3.73.94-6.14 7.74-1.4 3.93-3.14 8.65-3.88 10.5-1.34 3.3-1.3 3.4 2.64 6.87 5.13 4.5 8.96 6.18 14.22 6.23 3.5.04 4.8-.54 7.7-3.45zM94.06 240.88c2.02-.56 4.72-1.87 6-2.9 2.2-1.8 2.3-2.4 1.98-12.2-.4-11.63-.38-11.6-8.9-14.5-6.97-2.37-7.87-1.3-4.72 5.5 3.26 7.04 3.28 10.9.04 11.7-3.67.93-6.17-.28-9.6-4.62-1.73-2.17-3.55-3.95-4.05-3.95s-.92 2.5-.92 5.54c0 13.38 7.35 19 20.17 15.44zm177.83-7.5c0-.85-.9-3.3-2-5.47-2.82-5.52-2.65-9.73.46-11.15 3-1.37 6.04.33 10.1 5.63 1.46 1.93 3.06 3.27 3.55 2.96 1.7-1.04.96-10.68-1.14-15.02-2.06-4.24-6.62-7.4-10.68-7.4-3.28 0-11.98 2.93-14.1 4.75-1.9 1.62-2 2.46-1.36 12.24l.68 10.5 4.5 2.22c5.38 2.64 10 3 10 .75zm-168.57-29.04c.86-.86 1.57-2.24 1.57-3.07 0-.82 1.4-4.87 3.12-9l3.13-7.5-2.88-3.02c-3.67-3.87-11.43-7.84-15.33-7.84-4.74 0-10.68 6-12.64 12.7-.87 3-1.34 5.7-1.03 6 .3.3 2.67-.85 5.26-2.56 5.13-3.4 7.98-3.87 10.83-1.78 2.6 1.9 1.4 5.78-3.5 11.07-2.17 2.37-3.96 4.82-3.96 5.44 0 1.87 13.5 1.5 15.43-.43zm167.35-6.6c7.32-3.48 9.12-10.54 5.08-19.95-1.62-3.77-3.1-5.47-5.96-6.94-5.18-2.64-10.13-2.5-13.47.36l-2.7 2.32 5.14 3.68c8.34 6 6.64 10.13-3.72 9.05-3.38-.35-6.15-.28-6.15.15 0 1.77 5.3 12.08 6.85 13.3 2.13 1.7 9.16.77 14.93-1.98zm-149.5-26.7c5.38-5.5 5.15-6.35-2.2-8-4.2-.94-6.03-2.37-6.06-4.75-.03-1.82 2.24-3.2 6.9-4.26 5.5-1.23 6.6-2.3 5.14-5-1.44-2.7-6.14-5.13-9.94-5.13-12.07 0-21.3 14.33-14.97 23.23 2.76 3.86 10.5 8.78 13.8 8.78 1.73 0 4.08-1.55 7.32-4.85zm118.37-8.32c.94-5.87 4.57-8.66 7.18-5.52.6.7 1.5 3.24 2.04 5.62 1.24 5.5 2.3 6.6 5 5.16 6.87-3.68 6.6-15.62-.5-22.25-8.04-7.52-17.1-6.02-23.4 3.88-4.14 6.55-3.87 8.83 1.72 14.5 5.33 5.42 6.9 5.15 7.95-1.38zm-89.65-12.07c6.32-3.15 6.5-3.36 6.8-7.43.45-6.03-1.4-11.75-4.9-15.25-2.62-2.63-3.78-3.05-8.22-3.04-10.42.05-17.67 6-17.67 14.5 0 4.17 2.2 8.48 4.32 8.48.67 0 2.33-1.8 3.7-4.03 4.74-7.7 10.5-6.06 8.88 2.55-.67 3.57-.42 7.53.46 7.48.08 0 3.07-1.46 6.64-3.25zm72.48-.85c6.7-7.4 8.26-14.63 4.36-20.1-2.37-3.34-11.67-8.12-14.8-7.6-1.85.3-1.8.6 1 4.7 3.28 4.88 3.8 9.14 1.4 11.54-2.48 2.47-4.02 1.93-10.05-3.53-6.52-5.9-7.36-5.53-7.38 3.17-.02 6.55 1.1 8.28 6.47 10 2.18.68 6.23 2.3 9 3.6 2.75 1.27 5.3 2.33 5.64 2.33.34 0 2.3-1.84 4.34-4.1zm-40.8-5.9h6.4l2.46-5.24c2.56-5.5 3.18-9.75 1.43-9.75-.56 0-3.75 1.16-7.07 2.56-6.7 2.8-9.6 2.53-10.48-1.02-.78-3.1.72-5.67 5.57-9.52 2.2-1.75 3.76-3.6 3.45-4.1-.3-.5-2.87-.9-5.7-.9-6.57 0-13.26 3.15-15.4 7.27-2 3.9-1.27 11.17 1.76 17.44l2.2 4.5 4.5-.6c2.46-.35 7.36-.63 10.9-.63z"/><path fill="#a55357" d="M55.3 443.03c-14.76-3.65-30.55-13.36-39.12-24.05-5.33-6.65-11.64-19.28-13.75-27.53C1.1 386.23.9 365.32.9 222.32V59.14l2.28-7.88C9.93 27.98 28.66 9.9 53.46 2.7L61.4.4h118c132.43 0 122.36-.53 139 7.5 19.17 9.27 32.3 25.23 37.52 45.58 1.94 7.57 1.98 11.5 1.98 169.43 0 157.65-.05 161.9-1.97 169.4-5.98 23.4-23.4 41.26-48.53 49.75l-7 2.36-119 .2c-110.6.18-119.5.07-126.1-1.57zm247.1-3.42c25.05-7.35 43.57-25.34 50.17-48.7 1.74-6.17 1.83-14.37 1.83-168.5v-162l-2.9-8.84c-7.45-22.73-28.06-41.34-51.1-46.15-10.58-2.2-232.95-2.18-242.33.03-26.13 6.16-47.6 27.44-52.7 52.25-1.3 6.32-1.47 28.37-1.24 168L4.4 386.4l2.83 8c7.04 19.94 21.75 35.1 41.23 42.48 12.97 4.92 12.3 4.9 133.94 4.7 105.67-.2 114.44-.33 120-1.97zM158 349.38c-46.68-8.2-85.9-42-100.53-86.67-17.07-52.13.74-109.3 44.25-142.05 23.5-17.68 48.05-25.97 77.18-26.04 27.32-.06 49.2 6.57 72.27 21.94 27.4 18.24 46.77 47.25 53.88 80.64 2.6 12.2 3.06 34.85.96 46.73-9.1 51.56-47.84 92.27-99.1 104.15-11.55 2.68-37.22 3.37-48.9 1.32zm43.68-9.07c41.77-7.37 78.76-39.9 91.56-80.56 13.73-43.6 2.48-90.08-29.5-121.96-21.34-21.24-47.55-32.86-77.92-34.52-34.8-1.9-66.64 10.34-91.46 35.16-23 23-34.46 51.16-34.46 84.72 0 33.65 12.58 62.92 37.1 86.3 28.1 26.8 65.4 37.78 104.68 30.86zm-37.26-8.43c-24.34-3.83-45.96-14.7-62.87-31.6-36.88-36.88-42.86-93.95-14.4-137.6 16.33-25.06 42.62-42.67 72-48.25 10.36-1.96 30.26-1.94 40.74.05 32.7 6.2 61.4 27.6 76.73 57.2 10.17 19.67 14.2 39.8 12.2 61-4.58 48.43-39.34 87.35-87.43 97.87-8.56 1.87-28.86 2.6-36.98 1.33zm27.58-5.24c4.77-3.22 6.26-6.78 5.43-13.07-.37-2.83-1.43-6.72-2.36-8.65l-1.68-3.5-11.6-.27-11.6-.28-2.15 5.17c-1.97 4.74-2.9 10.9-1.62 10.9.3 0 3.2-1.13 6.47-2.5 7.2-3.04 8.48-3.1 10.33-.44 2.08 2.96 1.03 5.5-3.95 9.6-2.4 1.96-4.38 3.97-4.38 4.45 0 .5 3.1.88 6.85.88 5.5 0 7.54-.44 10.25-2.27zm-44.1-4.28c0-.87-1.12-3.05-2.5-4.85-3.96-5.2-3-11.6 1.74-11.6 1.02 0 4 2.04 6.66 4.5 2.64 2.5 5.28 4.5 5.85 4.5 1.48 0 2.25-2.5 2.24-7.32-.04-7.28-.74-8.42-6.35-10.26-2.83-.92-6.82-2.52-8.86-3.54-5.03-2.53-6.97-2.35-10 .88-4.67 4.97-6.8 9.48-6.8 14.5 0 6.18 3.44 10.18 11 12.8 6.75 2.32 7 2.33 7 .4zm75.97-3.26c5.86-2.25 9.03-6.86 9.03-13.1 0-4.82-2.1-9.1-4.47-9.1-.75 0-2.3 1.5-3.4 3.33-1.14 1.82-2.9 4.06-3.9 4.98-1.64 1.5-2.07 1.5-3.94.2s-2.05-2.16-1.57-7.48c.3-3.3.15-6-.34-6-.5 0-3.67 1.2-7.07 2.68-7 3.05-7.77 4.6-6.27 12.56 2.35 12.5 9.8 16.57 21.9 11.93zM123.4 302.32c3.13-2.06 8.48-10.96 8.5-14.15 0-2.95-8.35-11.73-10.42-10.94-.83.32-1.8 1.84-2.14 3.38-1.37 6.22-2.17 7.8-4.1 8.1-2.66.38-4.2-1.63-5.65-7.4-.66-2.62-1.76-4.94-2.44-5.16-.7-.23-2.6.94-4.25 2.6-2.45 2.45-3 3.83-3 7.5 0 8.17 3.25 13.38 10.5 16.8 4.53 2.16 8.97 1.9 13-.73zm125.84-1.9c5.67-1.16 11.67-9.25 11.66-15.73 0-4.58-3.1-9.18-8.2-12.14-7.93-4.63-9.33-4.54-14.88.94-6.8 6.7-6.63 7.38 2.36 8.98 7.8 1.38 6.27 7.5-2.24 8.93-2.3.4-4.42 1.35-4.72 2.12-.86 2.26 2.4 6.26 5.94 7.25 3.06.86 4.46.8 10.08-.34zm-50.84-6c14.74-3.88 29.1-13.25 38.6-25.2 11.12-14 16.22-28.84 16.1-46.82-.1-19.52-6.44-36-19.1-49.7-9.27-10.02-19.03-16.34-32.1-20.8-9.25-3.13-28.8-3.9-39.44-1.53-23.3 5.18-44.76 24.3-52.86 47.07-15.26 42.96 10.45 88.66 55.16 98.03 8.18 1.7 25.17 1.2 33.64-1.04zm-34.58-9.04c-21.52-5.24-38.92-21.33-45.92-42.5-3.1-9.3-3.77-24.42-1.56-34.37 4.93-22.14 21.32-40.18 42.93-47.27 6.95-2.28 9.87-2.67 20.13-2.7 10.54 0 12.98.32 20 2.74 14.82 5.12 25.26 13 33.43 25.2 9.36 14 13.12 33.15 9.7 49.4-5.04 23.9-24.4 44-47.63 49.46-7.92 1.86-23.5 1.87-31.08.03zm19.2-9.72c3-5.94 3.12-6.6 2.56-14.75l-.6-8.52 3.02 7.98c2.48 6.58 3.9 8.78 8.2 12.64 4.88 4.38 5.24 4.54 5.85 2.53 1.37-4.5.8-12.18-1.26-16.64-4.42-9.56-4.28-9.76 2.3-3.35 4.65 4.52 7.7 6.58 11.62 7.85 2.92.94 5.5 1.52 5.75 1.28.24-.24-.48-3.1-1.6-6.35-1.55-4.5-3.5-7.42-8.25-12.24l-6.22-6.33 6 2.67c9.85 4.38 10.84 4.6 17.4 3.76l6.22-.8-4.83-5.37c-3.97-4.42-6.16-5.88-12.3-8.2l-7.5-2.8 8.73-.06c7.4-.05 9.57-.47 14.25-2.77 3.04-1.5 5.52-2.97 5.52-3.3 0-.32-2.14-1.68-4.75-3.02-3.7-1.88-6.87-2.54-14.25-2.95l-9.5-.52 7.75-2.84c6.5-2.4 8.46-3.68 12.2-8 5.08-5.9 4.72-6.46-4.22-6.58-3.83-.05-7.08.75-11.9 2.93-3.63 1.66-6.87 3-7.2 3-.3 0 2.18-2.8 5.54-6.24 4.5-4.6 6.55-7.64 7.82-11.56.93-2.93 1.46-5.56 1.17-5.85-.3-.3-2.93.23-5.85 1.18-3.92 1.26-7 3.33-11.64 7.85l-6.32 6.13 2.78-6c2.16-4.64 2.86-7.84 3.15-14.24.2-4.53.05-8.25-.3-8.25-.38 0-3 2.04-5.82 4.5-4.25 3.73-5.7 5.94-8.4 12.76l-3.25 8.25.63-8.35c.6-8.04.5-8.63-2.73-15.3l-3.36-6.92-3.23 6.3c-2.8 5.45-3.26 7.34-3.35 14.28l-.1 8-2.7-7.12c-2.17-5.7-3.74-8.06-8-11.87-2.9-2.6-5.46-4.56-5.68-4.34-.22.22-.48 3.54-.57 7.38-.14 5.9.3 8.04 3 13.97l3.16 7-6.3-6.12c-4.64-4.53-7.7-6.6-11.6-7.85-2.94-.95-5.57-1.48-5.86-1.18-.3.3.23 2.92 1.17 5.85 1.3 4 3.35 6.97 8.37 12.1l6.63 6.8-7.8-3.54c-5.9-2.68-9.1-3.53-13-3.48-8.98.12-9.36.7-4.22 6.6 3.74 4.27 5.78 5.6 12.26 7.98l7.76 2.85-10 .5c-7.82.4-10.92 1-14.25 2.78-2.34 1.25-4.25 2.62-4.25 3.05 0 .43 2.14 1.88 4.75 3.2 3.6 1.85 6.94 2.56 13.75 2.96l9 .5-7.5 2.85c-6.18 2.34-8.28 3.74-11.94 8l-4.44 5.16 6.4.8c5.32.67 7.17.48 10.94-1.14 2.5-1.06 6.34-2.68 8.54-3.6l4-1.65-6.26 5.8c-5.08 4.72-6.64 6.93-8.25 11.72-1.1 3.25-2 6.24-2 6.66 0 .4 2.98-.22 6.6-1.4 5.7-1.84 7.33-2.96 11.64-7.94 2.76-3.2 5.2-5.62 5.42-5.4.2.2-.97 3.42-2.64 7.12-2.42 5.4-3.02 8.1-3.02 13.65 0 4.13.42 6.9 1.04 6.9.58 0 3.24-2.03 5.9-4.53 3.62-3.38 5.52-6.28 7.4-11.25l2.55-6.7.05 7.77c.04 6.6.5 8.68 3.07 13.74 1.65 3.3 3.22 5.97 3.48 5.97.26 0 1.9-2.8 3.62-6.22zm-3.92-18.9l-.2-6.6-3.25-.55c-1.8-.3-4.04-.86-5-1.24-1.06-.43-1.75-.24-1.75.47 0 1.62-4.18 11.2-4.67 10.7-.22-.2.55-2.92 1.7-6 2.06-5.5 1.98-7.66-.26-7.66-.6 0-1.95-.74-2.97-1.67-1.76-1.6-2.08-1.45-6.3 2.7-2.45 2.4-4.68 4.13-4.96 3.86-.27-.3 1.47-2.44 3.88-4.8l4.38-4.3-2.46-3.62c-1.35-2-2.58-3.74-2.74-3.9-.16-.16-2.4.64-5 1.8-2.58 1.13-5.23 1.9-5.9 1.67-.66-.23 1.28-1.34 4.3-2.48 5.46-2.06 5.5-2.1 5.22-5.92-.45-6.03-.8-6.5-4.45-5.82-1.8.33-4.4.16-5.77-.4-2.08-.82-1.45-1 3.75-1.05 6.13-.07 6.25-.12 6.27-2.82 0-1.5.28-3.76.6-5 .42-1.52.18-2.25-.75-2.26-.75 0-3.62-1.13-6.37-2.5-5.5-2.72-2.47-2.34 4.2.54l4.18 1.8 2.04-4.13 2.05-4.13-2.8-3.03c-4.94-5.38-5.9-7.2-2.17-4.13 1.93 1.6 4.1 3.74 4.82 4.77 1.3 1.83 1.4 1.83 3.9-.14 1.4-1.1 3.17-2.02 3.92-2.02 1.82 0 1.73-1-.67-7.08-2.77-7-1.8-7.42 1.1-.46 2.37 5.73 2.68 5.9 8.43 4.68 2.92-.62 3.02-.84 3.58-7.63l.57-7 .18 7.26c.15 6.36.4 7.25 2.05 7.25 1.03 0 3.18.27 4.78.6 2.75.54 3.03.27 5.24-5.06 1.28-3.1 2.55-5.42 2.8-5.16.26.26-.47 2.6-1.6 5.18-1.16 2.6-2.08 5.2-2.06 5.83.03.6 1.66 2.15 3.64 3.4l3.6 2.3 2.6-2.86c1.45-1.57 3.72-3.73 5.06-4.8l2.44-1.93-2.23 3.22c-1.22 1.76-3.4 4.13-4.84 5.27l-2.6 2.05 2 2.23c1.1 1.23 2.28 3 2.6 3.95.57 1.6.88 1.6 4.9-.15 6.74-2.9 9.85-3.33 4.3-.57-2.75 1.37-5.62 2.5-6.37 2.5-1 0-1.2.85-.75 3.14.34 1.72.62 3.97.62 5 0 1.6.8 1.87 5.56 1.87 3.7 0 5.34.37 4.9 1.08-.36.6-2.7.95-5.2.8l-4.56-.3-1.17 4.6-1.16 4.62 5.36 2.22c6.84 2.83 6.27 3.75-.64 1.03-6.13-2.42-6.1-2.4-6.1-.67 0 .75-.98 2.6-2.18 4.14l-2.2 2.78 2.45 2.1c1.34 1.17 3.56 3.43 4.93 5.04l2.5 2.93-3-2.08c-1.65-1.16-4.08-3.26-5.4-4.68-1.95-2.08-2.7-2.35-3.87-1.38-.8.66-2.4 1.7-3.58 2.32-2.44 1.27-2.45 1.08.4 8.45 1.15 3.04 1.65 5.06 1.1 4.5-.56-.54-1.86-3.16-2.9-5.8-1.03-2.66-2.18-4.8-2.56-4.77-.4.03-2.48.34-4.66.7l-3.95.62-.36 6.63-.35 6.63-.2-6.6zm-5.2-14.87c4.48-4.46 1.12-12-5.34-12-4.1 0-7 2.9-7 7 0 6.33 7.85 9.5 12.34 5zm20.8-.03c2.7-2.5 2.95-7.98.45-10.22-5.05-4.56-12.25-1.7-12.25 4.84 0 6.56 7.07 9.8 11.8 5.37zm-8.3-13.15c1.38-1.63 2.5-4.08 2.5-5.46v-2.5l2.64 2.08c1.45 1.14 3.4 2.07 4.36 2.07 3.36 0 7-3.9 7-7.5 0-3.72-3.68-7.5-7.32-7.5-2.38 0-6.68 3.7-6.68 5.77 0 1.56-.17 1.5-4.53-1.17l-3.03-1.87 2.78-2.78c1.53-1.53 2.78-3.74 2.78-4.9 0-2.94-4.37-7.04-7.5-7.04-3.22 0-7.5 4.14-7.5 7.24 0 3.03 2.66 6.77 4.8 6.78 1.1 0 .57.7-1.46 1.93-1.74 1.06-3.64 2.74-4.22 3.74-.93 1.6-1.06 1.48-1.1-.94-.05-5.9-8.5-9.2-12.43-4.85-2.3 2.54-2.34 7.64-.1 10.12 2.4 2.64 7.86 2.63 10.5 0 2-2 2-2 2 1.3 0 2.33.83 4.1 2.75 5.9 4.7 4.44 9.8 4.3 13.76-.4zm-11.93-1.38c-.86-.86-1.57-3.1-1.57-4.94 0-5.83 6.86-8.63 11-4.5 2.5 2.5 2.6 7.17.17 9.36-2.3 2.1-7.54 2.14-9.6.08zm-71.87 47.03c3.18-2.08 2.93-2.9-1.85-6.14-5.43-3.68-6.65-5.64-4.85-7.8 1.12-1.36 2.43-1.55 7.08-1 3.37.38 5.94.26 6.3-.32.33-.52-.75-3.94-2.4-7.57l-3-6.62h-4.8c-6.4 0-13.7 2.6-16.18 5.74-4.12 5.24-1.46 20.35 4.1 23.33 5.93 3.17 11.17 3.3 15.6.4zm170.8-6.76c3.4-3.4 7.22-13.37 5.7-14.88-.44-.45-2.7.6-5.05 2.32-4.5 3.3-8.15 3.94-10.64 1.88-2.53-2.1-1.7-4.88 3-9.9 2.48-2.65 4.5-5.28 4.5-5.85 0-2.13-6.33-2.94-12.82-1.64-2.65.53-3.34 1.38-5.07 6.25-1.08 3.1-2.78 7.75-3.77 10.34l-1.78 4.7 2.97 3.14c4.33 4.55 9.28 6.86 14.83 6.9 4.2.05 5.3-.4 8.15-3.25zM94.84 240.8c7.52-2.24 7.9-3.03 7.3-15.25l-.5-10.87-4.43-1.96c-5.42-2.4-11.3-3.46-11.3-2.04 0 .57 1.12 3.44 2.5 6.38 2.75 5.92 3.1 8.85 1.3 10.65-2.84 2.86-7.44.67-11.7-5.55-1.24-1.8-2.67-3-3.17-2.7-.5.32-.93 3.27-.93 6.56 0 6.4 2.54 12.96 5.74 14.83 2.34 1.36 10.63 1.35 15.2-.02zm178.06-6.3c0-.2-1.12-2.8-2.5-5.74-3.18-6.85-3.26-10.63-.25-11.75 3.3-1.22 5.87.1 9.25 4.7 4.3 5.85 5.5 5.44 5.5-1.9 0-6.46-1.78-11.48-5.17-14.55-3.03-2.73-13-2.4-19.26.63l-4.8 2.33.6 5.1c.34 2.82.62 7.87.62 11.24v6.12l4.75 2.1c4.13 1.8 11.25 2.93 11.25 1.75zm-169.02-30.84c4.63-11.15 6.98-18.3 6.5-19.8-1.22-3.85-11.76-9.95-17.2-9.94-6.28 0-12.16 6.5-13.8 15.3-.87 4.58.15 4.7 5.68.7 4.68-3.4 7.36-3.76 10-1.35 2.7 2.43 2.32 3.73-2.66 9.34-6.4 7.22-6.1 8 3.02 8 6.86 0 7.6-.2 8.46-2.24zm166.68-5.42c5.62-2.6 6.85-4.8 6.8-12.2-.07-10.67-4.02-15.87-12.8-16.86-4.3-.5-10.66 1.7-10.66 3.67 0 .5 1.9 2.38 4.25 4.2 6.26 4.87 6.72 5.75 4.27 8.2-1.1 1.1-2.95 1.34-7.5.93-3.3-.3-6.02-.15-6.02.34 0 2.3 5.6 13.38 6.96 13.77 2.55.73 11.33-.5 14.7-2.06zM121.3 171c2.66-2.7 4.54-5.37 4.2-5.95-.37-.58-2.34-1.34-4.38-1.7-5.88-.98-7-1.42-7.6-2.98-1.27-3.33 1.52-5.47 9.13-6.97 4.1-.8 4.16-2.74.2-6.7-2.9-2.88-3.4-3.03-8.96-2.52-7.04.64-11.2 3.24-14.02 8.78-3.02 5.9-2.62 11.15 1.17 15.47 3.64 4.15 9.24 7.37 12.9 7.44 1.74.03 4.03-1.48 7.36-4.86zM239 165.4c.4-1.64.98-4.18 1.3-5.63.65-2.82 2.7-4.14 5.07-3.24 1.38.53 2.64 3.57 3.98 9.63 1.44 6.5 9.57.04 9.57-7.6 0-9.58-7.6-17.6-16.7-17.63-5-.02-10.2 3.93-13.36 10.1-2.8 5.5-2.45 7.48 2.3 12.95 4.78 5.47 6.8 5.84 7.84 1.43zm-88.72-14.5l6.64-3-.02-5.75c-.03-6.58-2.6-13.15-6.1-15.6-5.7-4-20.28-.62-23.4 5.42-2.8 5.4-1.1 16.94 2.48 16.94.47 0 2.47-2.24 4.45-5 3.76-5.2 5.47-5.97 7.92-3.53 1.16 1.16 1.26 2.4.48 6.05-.86 4.04-.62 7.5.53 7.5.22 0 3.38-1.36 7.03-3.02zm71.8-.17c4.3-4.6 6.84-10.13 6.84-14.9 0-3.47-.62-4.77-3.77-7.93-3.47-3.46-9.1-5.97-13.48-5.98-2.38 0-2.18.85 1.28 5.42 3.42 4.52 3.8 8.5 1.06 11-2.35 2.1-4.3 1.27-10.7-4.63-2.37-2.17-4.78-3.67-5.35-3.3-1.1.66-1.42 10.53-.46 14.1.4 1.5 2.18 2.6 6.23 3.87 3.12.98 7.25 2.6 9.17 3.62 4.8 2.5 5.76 2.38 9.17-1.27zm-39.54-6.8l6.12-.02 2.13-5.12c3.82-9.2 2.57-11.7-4.1-8.24-6.05 3.12-8.7 3.44-10.82 1.32-1.07-1.07-1.95-2.66-1.95-3.52 0-1.7 3.98-5.97 7.92-8.5 3.45-2.23 1.82-3.93-3.73-3.92-6.6 0-11.44 1.56-14.27 4.57-3.38 3.6-3.4 13.87-.05 20.3l2.3 4.37 5.16-.62c2.84-.34 7.9-.62 11.28-.63z"/><path fill="#871a1f" d="M55.3 443.03c-14.76-3.65-30.55-13.36-39.12-24.05-5.33-6.65-11.64-19.28-13.75-27.53C1.1 386.23.9 365.32.9 222.32V59.14l2.28-7.88C9.93 27.98 28.66 9.9 53.46 2.7L61.4.4h118c132.43 0 122.36-.53 139 7.5 19.17 9.27 32.3 25.23 37.52 45.58 1.94 7.57 1.98 11.5 1.98 169.43 0 157.65-.05 161.9-1.97 169.4-5.98 23.4-23.4 41.26-48.53 49.75l-7 2.36-119 .2c-110.6.18-119.5.07-126.1-1.57zm247.1-3.42c25.05-7.35 43.57-25.34 50.17-48.7 1.74-6.17 1.83-14.37 1.83-168.5v-162l-2.9-8.84c-7.45-22.73-28.06-41.34-51.1-46.15-10.58-2.2-232.95-2.18-242.33.03-26.13 6.16-47.6 27.44-52.7 52.25-1.3 6.32-1.47 28.37-1.24 168L4.4 386.4l2.83 8c7.04 19.94 21.75 35.1 41.23 42.48 12.97 4.92 12.3 4.9 133.94 4.7 105.67-.2 114.44-.33 120-1.97zM158 349.38c-46.68-8.2-85.9-42-100.53-86.67-17.07-52.13.74-109.3 44.25-142.05 23.5-17.68 48.05-25.97 77.18-26.04 27.32-.06 49.2 6.57 72.27 21.94 27.4 18.24 46.77 47.25 53.88 80.64 2.6 12.2 3.06 34.85.96 46.73-9.1 51.56-47.84 92.27-99.1 104.15-11.55 2.68-37.22 3.37-48.9 1.32zm43.68-9.07c41.77-7.37 78.76-39.9 91.56-80.56 13.73-43.6 2.48-90.08-29.5-121.96-21.34-21.24-47.55-32.86-77.92-34.52-34.8-1.9-66.64 10.34-91.46 35.16-23 23-34.46 51.16-34.46 84.72 0 33.65 12.58 62.92 37.1 86.3 28.1 26.8 65.4 37.78 104.68 30.86zm-37.26-8.43c-24.34-3.83-45.96-14.7-62.87-31.6-36.88-36.88-42.86-93.95-14.4-137.6 16.33-25.06 42.62-42.67 72-48.25 10.36-1.96 30.26-1.94 40.74.05 32.7 6.2 61.4 27.6 76.73 57.2 10.17 19.67 14.2 39.8 12.2 61-4.58 48.43-39.34 87.35-87.43 97.87-8.56 1.87-28.86 2.6-36.98 1.33zm27.58-5.24c4.77-3.22 6.26-6.78 5.43-13.07-.37-2.83-1.43-6.72-2.36-8.65l-1.68-3.5-11.6-.27-11.6-.28-2.15 5.17c-1.97 4.74-2.9 10.9-1.62 10.9.3 0 3.2-1.13 6.47-2.5 7.2-3.04 8.48-3.1 10.33-.44 2.08 2.96 1.03 5.5-3.95 9.6-2.4 1.96-4.38 3.97-4.38 4.45 0 .5 3.1.88 6.85.88 5.5 0 7.54-.44 10.25-2.27zm-44.1-4.28c0-.87-1.12-3.05-2.5-4.85-3.96-5.2-3-11.6 1.74-11.6 1.02 0 4 2.04 6.66 4.5 2.64 2.5 5.28 4.5 5.85 4.5 1.48 0 2.25-2.5 2.24-7.32-.04-7.28-.74-8.42-6.35-10.26-2.83-.92-6.82-2.52-8.86-3.54-5.03-2.53-6.97-2.35-10 .88-4.67 4.97-6.8 9.48-6.8 14.5 0 6.18 3.44 10.18 11 12.8 6.75 2.32 7 2.33 7 .4zm75.97-3.26c5.86-2.25 9.03-6.86 9.03-13.1 0-4.82-2.1-9.1-4.47-9.1-.75 0-2.3 1.5-3.4 3.33-1.14 1.82-2.9 4.06-3.9 4.98-1.64 1.5-2.07 1.5-3.94.2s-2.05-2.16-1.57-7.48c.3-3.3.15-6-.34-6-.5 0-3.67 1.2-7.07 2.68-7 3.05-7.77 4.6-6.27 12.56 2.35 12.5 9.8 16.57 21.9 11.93zM123.4 302.32c3.13-2.06 8.48-10.96 8.5-14.15 0-2.95-8.35-11.73-10.42-10.94-.83.32-1.8 1.84-2.14 3.38-1.37 6.22-2.17 7.8-4.1 8.1-2.66.38-4.2-1.63-5.65-7.4-.66-2.62-1.76-4.94-2.44-5.16-.7-.23-2.6.94-4.25 2.6-2.45 2.45-3 3.83-3 7.5 0 8.17 3.25 13.38 10.5 16.8 4.53 2.16 8.97 1.9 13-.73zm125.84-1.9c5.67-1.16 11.67-9.25 11.66-15.73 0-4.58-3.1-9.18-8.2-12.14-7.93-4.63-9.33-4.54-14.88.94-6.8 6.7-6.63 7.38 2.36 8.98 7.8 1.38 6.27 7.5-2.24 8.93-2.3.4-4.42 1.35-4.72 2.12-.86 2.26 2.4 6.26 5.94 7.25 3.06.86 4.46.8 10.08-.34zm-50.84-6c14.74-3.88 29.1-13.25 38.6-25.2 11.12-14 16.22-28.84 16.1-46.82-.1-19.52-6.44-36-19.1-49.7-9.27-10.02-19.03-16.34-32.1-20.8-9.25-3.13-28.8-3.9-39.44-1.53-23.3 5.18-44.76 24.3-52.86 47.07-15.26 42.96 10.45 88.66 55.16 98.03 8.18 1.7 25.17 1.2 33.64-1.04zm-30.5-8.15c-19.03-3.63-37.3-17.25-45.74-34.08-10.18-20.35-9.55-43.13 1.73-62.3 14.2-24.2 43.24-36.4 70.9-29.85 2.53.6 8.43 2.9 13.1 5.12 16.9 8 30.6 25.73 34.62 44.74 6.6 31.28-12.82 64.3-43.6 74.17-6.4 2.05-24.93 3.37-31.02 2.2zm15.12-10.6c2.97-5.88 3.1-6.68 2.57-14.25l-.58-8.02 2.96 7.5c2.33 5.9 4.08 8.54 8.2 12.32 5.04 4.63 5.24 4.72 5.87 2.5 1.63-5.76.85-12.63-2.2-19.46l-3.07-6.85 5.07 5.68c4.24 4.75 6.15 6.03 11.63 7.86 3.6 1.2 6.8 1.93 7.1 1.63.3-.3-.4-3.37-1.57-6.8-1.75-5.2-3.18-7.27-8.35-12.05l-6.25-5.77 7.9 3.53c7.4 3.3 8.36 3.48 14.76 2.85 3.76-.37 6.82-.96 6.8-1.3-.03-.34-1.94-2.72-4.25-5.3-3.16-3.5-6.05-5.4-11.7-7.7l-7.5-3 8.28-.07c7.23-.04 9.07-.44 14.47-3.17l6.18-3.13-5.46-2.83c-4.8-2.5-6.62-2.85-14.97-2.94l-9.5-.1 8.04-3.2c6.28-2.5 9-4.24 12.44-8 5.4-5.93 4.6-6.88-5.48-6.42-5.03.24-8.7 1.1-13 3.1l-6 2.77 6.18-5.82c4.95-4.66 6.53-6.92 7.9-11.32.94-3 1.92-6.04 2.16-6.7.3-.8-2.17-.35-6.9 1.24-6.3 2.13-8.07 3.3-12.57 8.22l-5.24 5.75 3-6.72c2.44-5.52 2.97-8.06 2.97-14.25 0-4.13-.34-7.52-.77-7.52-.42 0-3.05 2-5.84 4.45-4.2 3.68-5.56 5.75-7.84 12-1.52 4.16-2.92 7.56-3.1 7.56-.2 0-.1-3.7.22-8.25.56-7.85.43-8.6-2.56-14.5-1.73-3.43-3.36-6.24-3.62-6.24-.26 0-1.83 2.7-3.48 5.98-2.56 5.07-3.03 7.15-3.07 13.75l-.05 7.78-2.83-6.98c-2.14-5.27-4.03-8.04-7.67-11.25-2.67-2.34-5.15-4.26-5.54-4.26-.38 0-.86 3.05-1.07 6.76-.33 5.72.04 7.73 2.4 13.16 1.56 3.52 2.64 6.58 2.43 6.8-.2.2-2.37-1.88-4.8-4.65-3.68-4.2-5.6-5.43-11.7-7.52-4.68-1.6-7.15-2.04-6.85-1.26.25.66 1.3 3.85 2.3 7.08 1.54 4.85 2.9 6.8 7.9 11.32 6.1 5.54 5.77 5.68-3.48 1.43-2.95-1.36-6.56-2.08-10.5-2.08-9.03 0-9.63.86-4.58 6.62 3.43 3.9 5.83 5.47 12.42 8.05l8.16 3.22-9.23.03c-7.96.04-9.98.4-14.75 2.75-3.03 1.5-5.52 2.97-5.52 3.3 0 .3 2.5 1.8 5.52 3.28 4.68 2.3 6.87 2.72 14.25 2.78l8.73.06-7.72 3c-6.33 2.48-8.46 3.9-11.87 7.98-2.28 2.74-3.95 5.18-3.7 5.42.25.25 3.8.57 7.88.7 6.38.23 8.26-.13 13.42-2.55l6-2.83-5.65 5.82c-4.3 4.42-6.08 7.18-7.43 11.55-.98 3.16-1.54 5.97-1.26 6.25.28.3 3.18-.4 6.43-1.52 4.25-1.46 7.37-3.48 11.15-7.22 2.9-2.85 5.25-4.9 5.25-4.56 0 .34-1.12 3.02-2.5 5.96-1.9 4.1-2.48 7-2.5 12.44 0 3.9.3 7.36.63 7.7.35.36 2.96-1.34 5.8-3.77 4.22-3.6 5.6-5.66 7.62-11.22l2.45-6.8.52 8c.4 6.1 1.17 9.26 3.26 13.26 1.52 2.9 2.97 5.25 3.22 5.25.26 0 1.9-2.8 3.62-6.22zm-3.92-19.02c-.18-5.98-.42-6.75-2.17-6.75-5.8 0-21.03-10.63-21.03-14.68 0-1.7-.94-1.65-5.48.25-2.06.86-3.94 1.36-4.2 1.1-.24-.24 1.58-1.22 4.05-2.16 4.16-1.58 4.43-1.9 3.57-4.16-.52-1.35-.94-3.6-.94-4.98 0-2.38-.22-2.5-3.95-1.86-2.24.38-4.72.22-5.75-.38-1.4-.82-.6-1.05 3.82-1.08l5.6-.03.64-4.58c.36-2.63 1.94-6.55 3.7-9.15l3.07-4.55-4.3-4.6-4.33-4.6 4.72 4.42c4.4 4.13 4.85 4.32 6.5 2.82 2.46-2.2 10.94-5.75 13.82-5.75 2.23 0 2.4-.4 2.72-6.74l.35-6.75.2 6.76c.2 6.42.32 6.75 2.62 6.75 2.9 0 11.4 3.53 13.86 5.76 1.66 1.5 2.1 1.3 6.5-2.82l4.72-4.43-4.3 4.6-4.3 4.6 2.7 4.1 2.7 4.12 3.6-1.55c6.13-2.62 6.87-2.52 1.35.2-4.54 2.23-5.1 2.83-4.25 4.44.55 1.04 1 3.04 1 4.45 0 2.45.25 2.56 5.75 2.6 4.6.02 5.38.24 3.9 1.1-1.03.6-3.57.8-5.65.48-3.66-.6-3.8-.5-4.24 2.64-.25 1.78-.77 3.97-1.16 4.85-.55 1.27.5 2.1 4.88 3.9 3.08 1.23 5.4 2.46 5.14 2.7-.25.26-2.57-.48-5.16-1.62-5.88-2.6-6.17-2.6-7 .16-.4 1.24-1.4 3.05-2.26 4.03-1.44 1.63-1.22 2.13 2.87 6.5l4.43 4.7-4.72-4.42c-4.48-4.2-4.82-4.34-6.58-2.75-1.02.93-2.27 1.7-2.78 1.7-3.1.05-3.46 1.7-1.43 6.46 1.12 2.63 1.88 4.97 1.67 5.18-.2.2-1.34-1.93-2.52-4.75-1.73-4.2-2.46-5-3.9-4.4-.96.43-2.97.97-4.45 1.23-2.58.45-2.73.78-3.06 7.1l-.35 6.65-.2-6.74zm-5.03-14.4c2.13-1.93 2.5-8.28.58-10.2-1-1.03-.7-1.07 1.57-.2 1.55.58 3.82.8 5.03.5 2.06-.52 2.2-.26 1.82 3.55-.48 5.12 1.78 8 6.26 8 4.93 0 7.57-2.43 7.57-6.97 0-3.03-.6-4.34-2.73-6.02-1.6-1.24-3.65-1.96-4.95-1.7-1.88.35-2.08.14-1.27-1.37.52-.98.95-2.74.95-3.9 0-2 .14-2.04 2.22-.57 5.22 3.65 11.78.32 11.78-6 0-8.18-11.15-10.45-14.04-2.85l-.94 2.5-2.87-2.14-2.88-2.13 2.37-2.36c4.64-4.64 1.37-12.46-5.2-12.46-6.93 0-10.3 8.6-5.03 12.76l2.42 1.9-3.4 2.72c-3.38 2.68-3.42 2.7-3.42.5 0-5.5-8.6-8.16-12.5-3.85-2.35 2.58-2.35 7.4 0 9.97 2.25 2.5 8.1 2.7 10.67.36 1.73-1.57 1.83-1.5 1.83 1.06 0 1.5.47 3.6 1.04 4.66.93 1.73.68 1.93-2.35 1.93-4.15 0-7.03 2.88-7.03 7 0 1.65.82 3.9 1.82 5 2.25 2.5 8.1 2.7 10.67.36zm.5-15.18c-2.26-2.48-2.1-6.74.33-9.17 2.56-2.54 5.05-2.52 8.37.1 2.98 2.33 3.36 5.42 1.08 8.7-1.97 2.8-7.42 3-9.8.38zM165 256.9c-.02-.8.83-3.06 1.88-5 2.44-4.44 2.44-2.75 0 2.5-1.02 2.2-1.86 3.34-1.88 2.5zm-9.7-10.85c1.62-1.7 3.15-2.9 3.4-2.65.68.68-1.82 3.45-4.24 4.7-1.57.8-1.37.32.85-2.05zm-6.42-35.64c-1.37-.77-2.05-1.42-1.5-1.42.55 0 2.13.65 3.5 1.43 1.38.8 2.05 1.44 1.5 1.44-.55 0-2.12-.64-3.5-1.43zm17.63-17.47c-2.26-5.64-1.9-6.48.46-1.12 1.07 2.43 1.77 4.58 1.55 4.8-.22.22-1.13-1.43-2.02-3.67zm23.96 1.98c.35-1.36 1.3-3.6 2.06-5l1.42-2.5-.67 2.5c-.35 1.4-1.28 3.64-2.06 5l-1.4 2.5.65-2.5zm-87.9 79.47c3.18-2.08 2.93-2.9-1.85-6.14-5.43-3.68-6.65-5.64-4.85-7.8 1.12-1.36 2.43-1.55 7.08-1 3.37.38 5.94.26 6.3-.32.33-.52-.75-3.94-2.4-7.57l-3-6.62h-4.8c-6.4 0-13.7 2.6-16.18 5.74-4.12 5.24-1.46 20.35 4.1 23.33 5.93 3.17 11.17 3.3 15.6.4zm170.8-6.76c3.4-3.4 7.22-13.37 5.7-14.88-.44-.45-2.7.6-5.05 2.32-4.5 3.3-8.15 3.94-10.65 1.88-2.53-2.1-1.7-4.88 3-9.9 2.48-2.65 4.5-5.28 4.5-5.85 0-2.13-6.33-2.94-12.82-1.64-2.66.53-3.34 1.38-5.07 6.25-1.08 3.1-2.78 7.75-3.77 10.34l-1.78 4.7 2.97 3.14c4.33 4.55 9.28 6.86 14.83 6.9 4.2.05 5.3-.4 8.15-3.25zM94.84 240.8c7.52-2.24 7.9-3.03 7.3-15.25l-.5-10.87-4.43-1.96c-5.42-2.4-11.3-3.46-11.3-2.04 0 .57 1.12 3.44 2.5 6.38 2.75 5.92 3.1 8.85 1.3 10.65-2.84 2.86-7.44.67-11.7-5.55-1.24-1.8-2.67-3-3.17-2.7-.5.32-.93 3.27-.93 6.56 0 6.4 2.54 12.96 5.74 14.83 2.34 1.36 10.63 1.35 15.2-.02zm178.06-6.3c0-.2-1.12-2.8-2.5-5.74-3.18-6.85-3.26-10.63-.25-11.75 3.3-1.22 5.87.1 9.25 4.7 4.3 5.85 5.5 5.44 5.5-1.9 0-6.46-1.78-11.48-5.17-14.55-3.03-2.73-13-2.4-19.26.63l-4.8 2.33.6 5.1c.34 2.82.62 7.87.62 11.24v6.12l4.75 2.1c4.13 1.8 11.25 2.93 11.25 1.75zm-169.02-30.84c4.63-11.15 6.98-18.3 6.5-19.8-1.22-3.85-11.76-9.95-17.2-9.94-6.28 0-12.16 6.5-13.8 15.3-.87 4.58.15 4.7 5.68.7 4.68-3.4 7.36-3.76 10-1.35 2.7 2.43 2.32 3.73-2.66 9.34-6.4 7.22-6.1 8 3.02 8 6.86 0 7.6-.2 8.46-2.24zm166.68-5.42c5.62-2.6 6.85-4.8 6.8-12.2-.07-10.67-4.02-15.87-12.8-16.86-4.3-.5-10.66 1.7-10.66 3.67 0 .5 1.9 2.38 4.25 4.2 6.26 4.87 6.72 5.75 4.27 8.2-1.1 1.1-2.95 1.34-7.5.93-3.3-.3-6.02-.15-6.02.34 0 2.3 5.6 13.38 6.96 13.77 2.55.73 11.33-.5 14.7-2.06zM121.3 171c2.66-2.7 4.54-5.37 4.2-5.95-.37-.58-2.34-1.34-4.38-1.7-5.88-.98-7-1.42-7.6-2.98-1.27-3.33 1.52-5.47 9.13-6.97 4.1-.8 4.16-2.74.2-6.7-2.9-2.88-3.4-3.03-8.96-2.52-7.04.64-11.2 3.24-14.02 8.78-3.02 5.9-2.62 11.15 1.17 15.47 3.64 4.15 9.24 7.37 12.9 7.44 1.74.03 4.03-1.48 7.36-4.86zM239 165.4c.4-1.64.98-4.18 1.3-5.63.65-2.82 2.7-4.14 5.07-3.24 1.38.53 2.64 3.57 3.98 9.63 1.44 6.5 9.57.04 9.57-7.6 0-9.58-7.6-17.6-16.7-17.63-5-.02-10.2 3.93-13.36 10.1-2.8 5.5-2.45 7.48 2.3 12.95 4.78 5.47 6.8 5.84 7.84 1.43zm-88.72-14.5l6.64-3-.02-5.75c-.03-6.58-2.6-13.15-6.1-15.6-5.7-4-20.28-.62-23.4 5.42-2.8 5.4-1.1 16.94 2.48 16.94.47 0 2.47-2.24 4.45-5 3.76-5.2 5.47-5.97 7.92-3.53 1.16 1.16 1.26 2.4.48 6.05-.86 4.04-.62 7.5.53 7.5.22 0 3.38-1.36 7.03-3.02zm71.8-.17c4.3-4.6 6.84-10.13 6.84-14.9 0-3.47-.62-4.77-3.77-7.93-3.47-3.46-9.1-5.97-13.48-5.98-2.38 0-2.18.85 1.28 5.42 3.42 4.52 3.8 8.5 1.06 11-2.35 2.1-4.3 1.27-10.7-4.63-2.37-2.17-4.78-3.67-5.35-3.3-1.1.66-1.42 10.53-.46 14.1.4 1.5 2.18 2.6 6.23 3.87 3.12.98 7.25 2.6 9.17 3.62 4.8 2.5 5.76 2.38 9.17-1.27zm-39.54-6.8l6.12-.02 2.13-5.12c3.82-9.2 2.57-11.7-4.1-8.24-6.05 3.12-8.7 3.44-10.82 1.32-1.07-1.07-1.95-2.66-1.95-3.52 0-1.7 3.98-5.97 7.92-8.5 3.45-2.23 1.82-3.93-3.73-3.92-6.6 0-11.44 1.56-14.27 4.57-3.38 3.6-3.4 13.87-.05 20.3l2.3 4.37 5.16-.62c2.84-.34 7.9-.62 11.28-.63z"/><path fill="#0f1938" d="M55.3 443.03c-14.76-3.65-30.55-13.36-39.12-24.05-5.33-6.65-11.64-19.28-13.75-27.53C1.1 386.23.9 365.32.9 222.32V59.14l2.28-7.88C9.93 27.98 28.66 9.9 53.46 2.7L61.4.4h118c132.43 0 122.36-.53 139 7.5 19.17 9.27 32.3 25.23 37.52 45.58 1.94 7.57 1.98 11.5 1.98 169.43 0 157.65-.05 161.9-1.97 169.4-5.98 23.4-23.4 41.26-48.53 49.75l-7 2.36-119 .2c-110.6.18-119.5.07-126.1-1.57zm247.1-3.42c25.05-7.35 43.57-25.34 50.17-48.7 1.74-6.17 1.83-14.37 1.83-168.5v-162l-2.9-8.84c-7.45-22.73-28.06-41.34-51.1-46.15-10.58-2.2-232.95-2.18-242.33.03-26.13 6.16-47.6 27.44-52.7 52.25-1.3 6.32-1.47 28.37-1.24 168L4.4 386.4l2.83 8c7.04 19.94 21.75 35.1 41.23 42.48 12.97 4.92 12.3 4.9 133.94 4.7 105.67-.2 114.44-.33 120-1.97zM158 349.38c-46.68-8.2-85.9-42-100.53-86.67-17.07-52.13.74-109.3 44.25-142.05 23.5-17.68 48.05-25.97 77.18-26.04 27.32-.06 49.2 6.57 72.27 21.94 27.4 18.24 46.77 47.25 53.88 80.64 2.6 12.2 3.06 34.85.96 46.73-9.1 51.56-47.84 92.27-99.1 104.15-11.55 2.68-37.22 3.37-48.9 1.32zm43.68-9.07c41.77-7.37 78.76-39.9 91.56-80.56 13.73-43.6 2.48-90.08-29.5-121.96-21.34-21.24-47.55-32.86-77.92-34.52-34.8-1.9-66.64 10.34-91.46 35.16-23 23-34.46 51.16-34.46 84.72 0 33.65 12.58 62.92 37.1 86.3 28.1 26.8 65.4 37.78 104.68 30.86zm-37.26-8.43c-24.34-3.83-45.96-14.7-62.87-31.6-36.88-36.88-42.86-93.95-14.4-137.6 16.33-25.06 42.62-42.67 72-48.25 10.36-1.96 30.26-1.94 40.74.05 32.7 6.2 61.4 27.6 76.73 57.2 10.17 19.67 14.2 39.8 12.2 61-4.58 48.43-39.34 87.35-87.43 97.87-8.56 1.87-28.86 2.6-36.98 1.33zm27.58-5.24c4.77-3.22 6.26-6.78 5.43-13.07-.37-2.83-1.43-6.72-2.36-8.65l-1.68-3.5-11.6-.27-11.6-.28-2.15 5.17c-1.97 4.74-2.9 10.9-1.62 10.9.3 0 3.2-1.13 6.47-2.5 7.2-3.04 8.48-3.1 10.33-.44 2.08 2.96 1.03 5.5-3.95 9.6-2.4 1.96-4.38 3.97-4.38 4.45 0 .5 3.1.88 6.85.88 5.5 0 7.54-.44 10.25-2.27zm-44.1-4.28c0-.87-1.12-3.05-2.5-4.85-3.96-5.2-3-11.6 1.74-11.6 1.02 0 4 2.04 6.66 4.5 2.64 2.5 5.28 4.5 5.85 4.5 1.48 0 2.25-2.5 2.24-7.32-.04-7.28-.74-8.42-6.35-10.26-2.83-.92-6.82-2.52-8.86-3.54-5.03-2.53-6.97-2.35-10 .88-4.67 4.97-6.8 9.48-6.8 14.5 0 6.18 3.44 10.18 11 12.8 6.75 2.32 7 2.33 7 .4zm75.97-3.26c5.86-2.25 9.03-6.86 9.03-13.1 0-4.82-2.1-9.1-4.47-9.1-.75 0-2.3 1.5-3.4 3.33-1.14 1.82-2.9 4.06-3.9 4.98-1.64 1.5-2.07 1.5-3.94.2s-2.05-2.16-1.57-7.48c.3-3.3.15-6-.34-6-.5 0-3.67 1.2-7.07 2.68-7 3.05-7.77 4.6-6.27 12.56 2.35 12.5 9.8 16.57 21.9 11.93zM123.4 302.32c3.13-2.06 8.48-10.96 8.5-14.15 0-2.95-8.35-11.73-10.42-10.94-.83.32-1.8 1.84-2.14 3.38-1.37 6.22-2.17 7.8-4.1 8.1-2.66.38-4.2-1.63-5.65-7.4-.66-2.62-1.76-4.94-2.44-5.16-.7-.23-2.6.94-4.25 2.6-2.45 2.45-3 3.83-3 7.5 0 8.17 3.25 13.38 10.5 16.8 4.53 2.16 8.97 1.9 13-.73zm125.84-1.9c5.67-1.16 11.67-9.25 11.66-15.73 0-4.58-3.1-9.18-8.2-12.14-7.93-4.63-9.33-4.54-14.88.94-6.8 6.7-6.63 7.38 2.36 8.98 7.8 1.38 6.27 7.5-2.24 8.93-2.3.4-4.42 1.35-4.72 2.12-.86 2.26 2.4 6.26 5.94 7.25 3.06.86 4.46.8 10.08-.34zm-50.84-6c14.74-3.88 29.1-13.25 38.6-25.2 11.12-14 16.22-28.84 16.1-46.82-.1-19.52-6.44-36-19.1-49.7-9.27-10.02-19.03-16.34-32.1-20.8-9.25-3.13-28.8-3.9-39.44-1.53-23.3 5.18-44.76 24.3-52.86 47.07-15.26 42.96 10.45 88.66 55.16 98.03 8.18 1.7 25.17 1.2 33.64-1.04zm-95.8-20.06c3.18-2.08 2.93-2.9-1.85-6.14-5.43-3.68-6.65-5.64-4.85-7.8 1.12-1.36 2.43-1.55 7.08-1 3.37.38 5.94.26 6.3-.32.33-.52-.75-3.94-2.4-7.57l-3-6.62h-4.8c-6.4 0-13.7 2.6-16.18 5.74-4.12 5.24-1.46 20.35 4.1 23.33 5.93 3.17 11.17 3.3 15.6.4zm170.8-6.76c3.4-3.4 7.22-13.37 5.7-14.88-.44-.45-2.7.6-5.05 2.32-4.5 3.3-8.15 3.94-10.64 1.88-2.53-2.1-1.7-4.88 3-9.9 2.48-2.65 4.5-5.28 4.5-5.85 0-2.13-6.33-2.94-12.82-1.64-2.65.53-3.34 1.38-5.07 6.25-1.08 3.1-2.78 7.75-3.77 10.34l-1.78 4.7 2.97 3.14c4.33 4.55 9.28 6.86 14.83 6.9 4.2.05 5.3-.4 8.15-3.25zM94.84 240.8c7.52-2.24 7.9-3.03 7.3-15.25l-.5-10.87-4.43-1.96c-5.42-2.4-11.3-3.46-11.3-2.04 0 .57 1.12 3.44 2.5 6.38 2.75 5.92 3.1 8.85 1.3 10.65-2.84 2.86-7.44.67-11.7-5.55-1.24-1.8-2.67-3-3.17-2.7-.5.32-.93 3.27-.93 6.56 0 6.4 2.54 12.96 5.74 14.83 2.34 1.36 10.63 1.35 15.2-.02zm178.06-6.3c0-.2-1.12-2.8-2.5-5.74-3.18-6.85-3.26-10.63-.25-11.75 3.3-1.22 5.87.1 9.25 4.7 4.3 5.85 5.5 5.44 5.5-1.9 0-6.46-1.78-11.48-5.17-14.55-3.03-2.73-13-2.4-19.26.63l-4.8 2.33.6 5.1c.34 2.82.62 7.87.62 11.24v6.12l4.75 2.1c4.13 1.8 11.25 2.93 11.25 1.75zm-169.02-30.84c4.63-11.15 6.98-18.3 6.5-19.8-1.22-3.85-11.76-9.95-17.2-9.94-6.28 0-12.16 6.5-13.8 15.3-.87 4.58.15 4.7 5.68.7 4.68-3.4 7.36-3.76 10-1.35 2.7 2.43 2.32 3.73-2.66 9.34-6.4 7.22-6.1 8 3.02 8 6.86 0 7.6-.2 8.46-2.24zm166.68-5.42c5.62-2.6 6.85-4.8 6.8-12.2-.07-10.67-4.02-15.87-12.8-16.86-4.3-.5-10.66 1.7-10.66 3.67 0 .5 1.9 2.38 4.25 4.2 6.26 4.87 6.72 5.75 4.27 8.2-1.1 1.1-2.95 1.34-7.5.93-3.3-.3-6.02-.15-6.02.34 0 2.3 5.6 13.38 6.96 13.77 2.55.73 11.33-.5 14.7-2.06zM121.3 171c2.66-2.7 4.54-5.37 4.2-5.95-.37-.58-2.34-1.34-4.38-1.7-5.88-.98-7-1.42-7.6-2.98-1.27-3.33 1.52-5.47 9.13-6.97 4.1-.8 4.16-2.74.2-6.7-2.9-2.88-3.4-3.03-8.96-2.52-7.04.64-11.2 3.24-14.02 8.78-3.02 5.9-2.62 11.15 1.17 15.47 3.64 4.15 9.24 7.37 12.9 7.44 1.74.03 4.03-1.48 7.36-4.86zM239 165.4c.4-1.64.98-4.18 1.3-5.63.65-2.82 2.7-4.14 5.07-3.24 1.38.53 2.64 3.57 3.98 9.63 1.44 6.5 9.57.04 9.57-7.6 0-9.58-7.6-17.6-16.7-17.63-5-.02-10.2 3.93-13.36 10.1-2.8 5.5-2.45 7.48 2.3 12.95 4.78 5.47 6.8 5.84 7.84 1.43zm-88.72-14.5l6.64-3-.02-5.75c-.03-6.58-2.6-13.15-6.1-15.6-5.7-4-20.28-.62-23.4 5.42-2.8 5.4-1.1 16.94 2.48 16.94.47 0 2.47-2.24 4.45-5 3.76-5.2 5.47-5.97 7.92-3.53 1.16 1.16 1.26 2.4.48 6.05-.86 4.04-.62 7.5.53 7.5.22 0 3.38-1.36 7.03-3.02zm71.8-.17c4.3-4.6 6.84-10.13 6.84-14.9 0-3.47-.62-4.77-3.77-7.93-3.47-3.46-9.1-5.97-13.48-5.98-2.38 0-2.18.85 1.28 5.42 3.42 4.52 3.8 8.5 1.06 11-2.35 2.1-4.3 1.27-10.7-4.63-2.37-2.17-4.78-3.67-5.35-3.3-1.1.66-1.42 10.53-.46 14.1.4 1.5 2.18 2.6 6.23 3.87 3.12.98 7.25 2.6 9.17 3.62 4.8 2.5 5.76 2.38 9.17-1.27zm-39.54-6.8l6.12-.02 2.13-5.12c3.82-9.2 2.57-11.7-4.1-8.24-6.05 3.12-8.7 3.44-10.82 1.32-1.07-1.07-1.95-2.66-1.95-3.52 0-1.7 3.98-5.97 7.92-8.5 3.45-2.23 1.82-3.93-3.73-3.92-6.6 0-11.44 1.56-14.27 4.57-3.38 3.6-3.4 13.87-.05 20.3l2.3 4.37 5.16-.62c2.84-.34 7.9-.62 11.28-.63z"/><path d="M57.4 443.44c-25.97-5.66-47.8-25.95-54.46-50.6-2.06-7.63-2.07-8.6-1.8-172.55L1.4 55.4l2.82-7.3c7.2-18.64 19-31.76 36.1-40.07C56.92-.05 47.62.5 174.4.13c80.74-.23 115.27 0 120.95.8 30.18 4.33 54.87 26.34 61.06 54.44 1.38 6.23 1.53 25.75 1.28 170.04l-.28 163-2.82 8c-5.3 14.95-15 27.62-27.52 35.87-8.53 5.62-14.7 8.3-24.66 10.7-7.67 1.85-12.74 1.93-123.5 1.86-91.22-.06-116.76-.35-121.5-1.4zm237.9-2.56c26.4-3.82 48.06-21.77 56.18-46.54l2.92-8.93V222.9c0-154.16-.1-162.82-1.82-168.9-6.75-23.8-25.65-41.94-50.1-48.1-7.66-1.93-11.35-2-122.8-2C53.4 3.9 58.1 3.7 44.07 10 26.44 17.96 13.78 31.85 7.22 50.4l-2.82 8-.27 161.24c-.3 180.24-.72 168.76 6.9 184.2 3.22 6.54 5.98 10.28 12.26 16.6 11.37 11.46 23.5 17.78 39.07 20.4 7.32 1.22 224.45 1.26 232.93.04z"/></g></g></svg>