<svg xmlns="http://www.w3.org/2000/svg" width="358.496" height="445.884" viewBox="0 0 358.49637 445.88364"><g><g><path fill="#c2c5cd" d="M59.48 444.75c-29-5.38-52.3-27.22-58.07-54.48C.26 384.8.03 356.5 0 222.6 0 66.7.05 61.28 1.9 53.98 8.6 27.9 30.46 7.27 57.2 1.77c11.24-2.3 232.77-2.4 243.7-.1 27.13 5.72 48.66 25.96 55.83 52.53 1.64 6.07 1.75 17.2 1.75 169 0 153.98-.1 162.84-1.8 169-5.73 20.46-19.4 36.92-38.2 46-16.52 7.98-6.1 7.4-136 7.63-91.58.17-117.47-.06-123-1.08zm242.9-5.53c22.58-5.77 40.3-21.97 48.46-44.3l2.64-7.22.27-161.23c.3-180.23.73-168.7-6.9-184.27-5.82-11.93-17.76-23.8-29.87-29.73-16.92-8.27-6.66-7.65-133.36-8.02-96.68-.27-114.1-.1-121.5 1.18C39.24 9.6 21.3 22.7 11.36 42.7 3.5 58.5 3.9 48.32 4.24 227.26c.33 176.33-.28 161.47 7.18 176.44 8.7 17.47 24.93 30.38 44.56 35.45 7.2 1.86 12.14 1.94 123.1 2 111.86.04 115.83-.02 123.3-1.93zm-139.9-43.68c-17.2-3.7-33.96-14.2-44.07-27.65-16.12-21.48-20.3-47.9-11.53-72.72 4.06-11.46 8.58-18.45 18.14-28 15.02-15.05 32.2-22.06 53.98-22.06 22.66 0 40.22 7.33 55.66 23.24 37.1 38.2 23.88 102.36-25.3 122.83-14.13 5.87-31.95 7.53-46.85 4.34zm30.98-9.86c31.4-6.65 54.04-36.13 52.2-67.98-2.22-38.45-35.75-66.75-74-62.46-25.14 2.82-46.66 19.7-55.24 43.33-12.74 35.1 6.8 74.36 42.56 85.5 3.58 1.1 7.63 2.2 9 2.44 5.86.98 19.02.55 25.48-.82zm-27.48-7.04c-21.07-4.55-38.95-21.8-44.45-42.94-1.8-6.95-2-20.2-.42-27.7 5.64-26.65 29.9-45.84 57.84-45.8 17.17.04 30.64 5.57 42.57 17.48 11.55 11.53 16.97 25 16.9 42.02-.18 37.44-35.17 64.96-72.42 56.94zm1.9-12.8c1.34-.63 3.78-2.83 5.43-4.88 3.6-4.45 4.66-12.2 2.68-19.28-1.73-6.2-4-5.95-7.02.77-4.4 9.76-9.05 14.3-10.58 10.34-.66-1.72 1.7-6.48 6.3-12.83 1.9-2.6 3.16-5.2 2.82-5.75-2-3.26-14.67 1.7-19.06 7.44-3.46 4.55-4.5 12.65-2.16 17.12 4.3 8.27 13.06 11.14 21.6 7.06zm38.36-.2c7.4-5.5 8.8-16.1 3.04-23.23-5.04-6.25-15.6-10.86-18.8-8.2-1.1.92-.64 2.08 2.57 6.3 2.16 2.86 4.65 6.7 5.53 8.56 1.46 3.06 1.46 3.5.04 4.93-1.43 1.42-1.75 1.4-3.5-.18-1.05-.96-3.54-5.1-5.52-9.22-3.27-6.8-3.78-7.38-5.6-6.4-1.1.58-2.04 1.4-2.06 1.78-.02.4-.44 2.74-.93 5.22-1.7 8.75 2.5 18.5 9.36 21.6 4.2 1.9 12.55 1.3 15.88-1.17zm16.34-30.35c6.68-3.04 10.48-11.22 8.33-17.95-2.64-8.32-11.2-13.22-19.73-11.3-5.08 1.13-11.48 5.14-13.75 8.6-2.64 4.04-1.15 4.8 8.04 4.02 8.6-.72 12.52.23 12.52 3.04 0 2.14-4.25 2.85-13.02 2.17-6.77-.52-7.88-.37-8.46 1.1-.48 1.25.64 2.9 4 5.97 7 6.36 14.44 7.82 22.08 4.35zm-70.3-.72c4.7-2.36 9.7-7.46 9.7-9.9 0-2.02-.27-2.07-7.25-1.28-9.88 1.12-13.97.37-13.56-2.5.3-2.1.78-2.2 10.56-2.2 9.82 0 10.26-.1 10.25-2.15 0-2.5-5.83-7.97-10.64-9.98-10.97-4.58-22.83 1.8-24.1 12.96-.63 5.72 2.98 12.55 7.95 15 4.24 2.1 13 2.12 17.08.05zm33.72-.24c1.92-1 4.54-3.38 5.82-5.25 3.2-4.66 2.74-13.6-.9-17.5-7.7-8.23-20.4-6.92-25.18 2.62-3.72 7.4-.75 16.3 6.67 19.96 5.08 2.5 9.1 2.56 13.6.16zm-13.56-6.6c-3.35-3.34-3.37-9.37-.06-13.22 3.35-3.9 9.46-3.92 13.33-.05 3.88 3.87 3.86 9.98-.04 13.33-3.85 3.3-9.88 3.3-13.22-.06zm30.5-22.02c4.02-2.08 8.78-7.92 9.97-12.22 2.15-7.73-3.55-17.54-11.17-19.25-13.9-3.12-24.2 10.64-19.57 26.13 1.74 5.82 4.02 4.72 8.53-4.14 4.03-7.93 6.42-10.3 8.38-8.34 1.77 1.76.38 5.43-4.64 12.25-3.46 4.7-4.3 6.52-3.48 7.5 1.23 1.5 7.23.52 11.98-1.93zm-35.37 1.1c.3-.75-1.48-4.24-3.93-7.74s-4.55-7.06-4.67-7.88c-.47-3.23.07-4.14 2.26-3.82 1.72.24 3.2 2.28 6.25 8.53 2.6 5.34 4.53 8.14 5.5 8 2.34-.35 4.32-5.63 4.4-11.68.18-16.1-16.83-24.83-27.52-14.13-6.57 6.55-6.47 15.33.26 22.63 5.4 5.87 16.1 9.6 17.45 6.1zm-4.6-107.18c-38.94-8.36-65.34-45.36-60.02-84.16 3.58-26.2 18.7-47.16 42.53-59.04 11.52-5.73 16.47-6.7 34-6.73 15.42 0 16.32.1 24.77 3.13 12.57 4.5 19.03 8.66 29.27 18.87 14.1 14.05 21.13 29.6 22.17 49 1.2 22.8-6.1 41.83-22.23 57.98-11.47 11.46-22.98 17.75-38.42 21-8.8 1.85-23.33 1.84-32.07-.04zm32.25-10.38c37.78-9.66 59.07-47.8 47.3-84.78-6.2-19.5-23.2-36.33-43.04-42.58-5.86-1.85-9.27-2.2-21-2.16-15.98.04-21.77 1.5-33.72 8.55-31.9 18.8-41.92 61.47-21.7 92.5 9.02 13.86 25.6 25.5 41.1 28.86 9.37 2.04 22.18 1.87 31.06-.4zm-29.24-6.56c-21.46-4.84-39.24-22.2-44.6-43.5-2.22-8.83-1.52-25.2 1.45-33.44 6.1-16.97 19.84-30.77 36.43-36.58 7.83-2.74 23.22-3.72 31.96-2.05 16.84 3.24 33.65 16 40.93 31.07 4.77 9.85 6.3 16.56 6.24 27.5-.13 26.07-16.63 48.04-42.14 56.08-7.03 2.22-22.46 2.7-30.28.92zm-.95-11.5c4.02-1.12 9.32-6.13 10.9-10.32 2.4-6.4.2-19.68-3.27-19.68-.8 0-2.43 2.36-3.66 5.25-4 9.4-9.08 14.35-10.62 10.34-.66-1.72 1.7-6.48 6.3-12.83 1.9-2.6 3.16-5.2 2.82-5.75-2-3.26-14.67 1.7-19.06 7.44-6.74 8.84-2.9 22.5 7.16 25.5 3.93 1.18 5.3 1.18 9.43.04zm39.6-.63c2.04-.98 4.46-3.4 6-6.05 4.94-8.4 1.5-18.52-8.17-24-4.92-2.78-10.2-3.8-12-2.3-1.16.96-.74 2.04 2.45 6.32 2.12 2.83 4.62 6.67 5.56 8.53 1.54 3.06 1.56 3.52.15 4.93-1.4 1.42-1.74 1.4-3.58-.27-1.1-1-3.6-5.15-5.53-9.22-3.2-6.7-3.7-7.28-5.5-6.3-1.1.58-2.03 1.4-2.06 1.78-.02.4-.44 2.74-.93 5.22-3.03 15.46 10.4 27.63 23.62 21.37zm18.3-31.34c4.16-2.13 7.44-6.64 8.52-11.73.8-3.8-1.94-10.67-5.58-13.96-6.5-5.9-18.26-4.7-25.97 2.62-5.88 5.6-5.02 6.6 5.43 6.25 8.83-.3 12.65.7 12.65 3.3 0 2.13-4.18 2.84-13.03 2.23-9.52-.65-10.86.7-5.82 5.92 6.88 7.1 16.27 9.22 23.8 5.38zm-70.65-.65c4.7-2.36 9.7-7.46 9.7-9.9 0-2.02-.27-2.07-7.25-1.28-9.88 1.12-13.97.37-13.56-2.5.3-2.1.78-2.2 10.57-2.2 9.8 0 10.25-.1 10.24-2.15 0-2.56-5.6-7.75-10.65-9.86-11.13-4.66-22.8 1.57-24.08 12.83-.64 5.72 2.97 12.55 7.94 15 4.24 2.1 13 2.12 17.08.05zm33.72-.24c13.88-7.37 8.64-28.13-7.12-28.14-5.63 0-10.65 3.06-13.14 8.02-6.52 12.97 7.5 26.9 20.26 20.12zm-13.56-6.6c-2.68-2.67-3.3-8.08-1.37-11.7 1.4-2.62 6.7-4.8 10.1-4.15 7.14 1.36 9.93 11.22 4.5 15.9-3.86 3.3-9.9 3.3-13.23-.06zm30.5-22.02c4.02-2.08 8.78-7.92 9.97-12.22 1.4-5.07-.16-10.5-4.35-15.08-3.02-3.3-3.86-3.65-9.7-4-5.4-.34-6.9-.05-9.87 1.95-6.8 4.56-9.65 14.57-6.82 24 1.74 5.83 4.02 4.73 8.53-4.13 4.03-7.93 6.42-10.3 8.38-8.34 1.77 1.76.38 5.43-4.64 12.25-3.46 4.7-4.3 6.52-3.48 7.5 1.23 1.5 7.23.52 11.98-1.93zm-35.32 1c.3-.82-.76-3.17-2.4-5.25-6.8-8.6-8.47-14.73-3.86-14.08 1.56.2 3.2 2.5 6.12 8.5 2.6 5.34 4.53 8.14 5.5 8 2.34-.35 4.32-5.63 4.4-11.68.13-11.6-8.66-20.1-19.16-18.54-3.7.56-5.53 1.56-8.44 4.6-6.56 6.9-6.36 15.32.53 22.6 5.73 6.03 15.92 9.47 17.32 5.84z"/><path fill="#bebebe" d="M59.48 444.75c-29-5.38-52.3-27.22-58.07-54.48C.26 384.8.03 356.5 0 222.6 0 66.7.05 61.28 1.9 53.98 8.6 27.9 30.46 7.27 57.2 1.77c11.24-2.3 232.77-2.4 243.7-.1 27.13 5.72 48.66 25.96 55.83 52.53 1.64 6.07 1.75 17.2 1.75 169 0 153.98-.1 162.84-1.8 169-5.73 20.46-19.4 36.92-38.2 46-16.52 7.98-6.1 7.4-136 7.63-91.58.17-117.47-.06-123-1.08zm242.9-5.53c22.58-5.77 40.3-21.97 48.46-44.3l2.64-7.22.27-161.23c.3-180.23.73-168.7-6.9-184.27-5.82-11.93-17.76-23.8-29.87-29.73-16.92-8.27-6.66-7.65-133.36-8.02-96.68-.27-114.1-.1-121.5 1.18C39.24 9.6 21.3 22.7 11.36 42.7 3.5 58.5 3.9 48.32 4.24 227.26c.33 176.33-.28 161.47 7.18 176.44 8.7 17.47 24.93 30.38 44.56 35.45 7.2 1.86 12.14 1.94 123.1 2 111.86.04 115.83-.02 123.3-1.93zm-138.54-43.47c-28.78-6-52.02-28.33-59.4-57.05-2.53-9.84-2.35-26.46.4-36.8 7.1-26.62 28.72-47.9 55.64-54.74 10.78-2.74 27.08-2.77 37.65-.06 18.77 4.8 36.88 18.18 46.7 34.48 25.4 42.1 5.26 95.85-41.85 111.7-8.04 2.7-11.26 3.24-21 3.52-7.23.2-13.96-.18-18.14-1.05zm36.78-11.93c26.05-8.45 43.54-31.6 45.05-59.62 1.72-31.86-19.43-60.3-50.3-67.6-8.86-2.1-24.04-2.1-32.42 0-32.9 8.22-54.48 39.6-49.96 72.64 3.1 22.7 15.76 40.8 35.22 50.43 12.17 6.02 19.42 7.58 33.26 7.14 8.48-.26 12.87-.95 19.14-2.98zm-34.08-5.28c-21.76-4.66-40.04-22.35-45.05-43.58-1.93-8.15-1.9-20.8.03-28.27 5.36-20.6 23.16-38.16 43.56-42.97 41.46-9.77 79.92 25.85 72.53 67.18-2.23 12.5-7.3 22.06-16.55 31.32-15 15.02-34.05 20.7-54.54 16.32zm2.94-13.17c6.27-3.6 9.48-16.2 6.4-25.08-1.78-5.1-4.25-3.7-8.6 4.85-4.1 8.07-6.7 10.57-8.3 8.05-1.4-2.2-1.43-2.18 4.13-10.4 4.06-6 4.9-7.9 3.98-9-1.3-1.55-7.2-.65-11.95 1.84-3.03 1.58-7.37 6.03-9.02 9.24-2.53 4.94-.55 16.05 3.47 19.38 4.84 4.02 13.95 4.53 19.9 1.1zm34.9 1.44c10.8-4.5 11.24-22.23.73-29.1-5-3.3-12.65-5.14-14.58-3.53-1.24 1.03-.72 2.25 3.5 8.27 4.73 6.74 6.1 10.93 4 12.23-1.6 1-5.06-3.3-8.3-10.32-1.68-3.66-3.17-6.8-3.3-6.98-.15-.2-1.16.15-2.26.73-2.47 1.32-4.5 9.82-3.57 14.98 2.1 11.93 13 18.22 23.77 13.73zm20.37-32.22c4.25-3.1 7.56-10.5 6.77-15.2-.9-5.3-3.8-9.75-7.74-11.83-4.65-2.47-13.24-2.3-18.3.36-5.42 2.86-9.93 7.72-9.12 9.84.56 1.45 1.76 1.58 9.38 1 6.9-.54 9.16-.38 10.7.78 1.74 1.3 1.8 1.66.52 3.2-1.25 1.5-2.7 1.67-10.77 1.2-7.43-.46-9.45-.3-9.87.82-.9 2.35 3.4 7.15 8.9 9.94 4.32 2.18 6.28 2.58 11.02 2.27 3.67-.24 6.76-1.1 8.5-2.37zm-72-.07c5.32-2.52 10.2-7.77 9.53-10.28-.35-1.36-1.1-1.9-2.17-1.57-.88.3-5.08.64-9.3.78-8.12.28-10.6-.72-9.43-3.8.57-1.5 1.9-1.64 10.56-1.22 8.84.43 9.95.3 10.36-1.27.58-2.26-5.55-8.3-10.53-10.4-4.82-2-12.08-1.96-16.4.1-4.87 2.3-7.68 6.72-8.12 12.77-.46 6.24 1.78 11.1 6.63 14.33 4.25 2.83 13.5 3.12 18.86.58zm32.52.32c5.8-2.47 8.08-5.95 8.47-12.9.62-10.9-4.94-16.3-15.9-15.52-6.33.46-9.66 2.64-12.56 8.2-1.97 3.8-1.24 11.83 1.4 15.42 4.05 5.55 12 7.6 18.6 4.8zm-12.36-7.55c-7.2-7.2.26-18.54 9.6-14.63 4.65 1.94 6.96 6.6 5.5 11.04-2.26 6.83-10 8.68-15.1 3.6zm32-22.86c7.72-4.74 10.8-15.2 6.74-22.94-5.94-11.34-24.03-9.82-29.28 2.45-2.66 6.24-1.08 19.8 2.4 20.53 1.3.27 2.75-1.65 5.77-7.6 4.3-8.47 6.6-10.9 8.53-8.96 1.57 1.57.5 4.23-4.7 11.85-3.45 5.03-4.26 6.9-3.42 7.92 1.52 1.84 8.24.28 13.95-3.23zm-36.44 2.83c.33-.53-1.46-3.8-3.98-7.25-5-6.9-6.34-10.34-4.64-12.04 1.76-1.76 5.64 2.6 8.83 9.92 2.24 5.14 3.2 6.36 4.8 6.12 4.22-.6 5.5-15.03 1.95-21.9-3.78-7.32-12.85-10.52-21-7.42-10 3.83-12.48 18.07-4.65 26.9 3.98 4.47 17 8.42 18.7 5.67zm-4.98-107.5c-23.75-5.23-44.63-22-54.4-43.7-9.16-20.4-8.7-44.8 1.28-64.58 13.14-26.1 39.26-42.25 68.34-42.25 13.27 0 22.48 2.05 33.78 7.52 16.02 7.76 27.97 19.52 35.56 34.98 5 10.2 6.92 17.6 7.64 29.53 2.22 36.98-24.03 70.76-60.9 78.37-9.17 1.9-22.97 1.95-31.3.12zm36.5-11.52c17-5.7 31.32-17.9 38.72-33 9.6-19.6 9.66-40.6.16-60-3.36-6.88-5.8-10.13-12.77-17-13.85-13.67-26.98-18.96-47.16-19-12.67 0-19.52 1.58-30.92 7.16-15.75 7.7-28.83 24-33.6 41.84-2 7.52-2.32 23.95-.58 31.18 6 25.03 23.58 43.15 48.32 49.85 9.94 2.7 28.24 2.2 37.82-1.02zm-33.5-5.5c-21.6-4.77-39.4-21.9-44.92-43.23-2-7.7-2.02-21.14-.05-28.7 5.38-20.63 23.2-38.23 43.6-43.04 13.22-3.1 28.25-1.38 40.83 4.7 8.6 4.18 21.58 16.87 25.8 25.27 8.87 17.6 9.1 35.68.7 53.15-5.05 10.52-15.96 21.52-26.47 26.7-12.65 6.22-26.5 8.03-39.47 5.16zm3-13.33c6.27-3.6 9.48-16.2 6.4-25.08-1.78-5.1-4.25-3.7-8.6 4.85-4.02 7.9-6.43 10.3-8.37 8.37-1.6-1.6-.44-4.4 4.77-11.47 5.1-6.94 5.02-9.65-.3-9-6.85.82-13.96 5.57-16.97 11.35-2.8 5.37-1.06 16.36 3.17 19.86 4.84 4.02 13.95 4.53 19.9 1.1zm35.43 1.07c4.8-2.44 7.28-6.26 7.85-12.1.92-9.6-5.4-17.57-16.02-20.2-3.7-.92-5.08-.9-6.2.03-1.25 1.03-.73 2.25 3.5 8.27 4.72 6.74 6.1 10.93 4 12.23-1.62 1-5.07-3.3-8.3-10.32-1.7-3.66-3.18-6.8-3.32-7-.13-.17-1.14.17-2.24.75-2.47 1.32-4.5 9.82-3.57 14.98 2.15 12.2 13.93 18.66 24.3 13.36zm19.85-31.86c4.25-3.1 7.56-10.5 6.77-15.2-.9-5.3-3.8-9.75-7.74-11.83-4.65-2.47-13.24-2.3-18.3.36-5.42 2.86-9.93 7.72-9.12 9.84.56 1.45 1.76 1.58 9.38 1 6.9-.54 9.16-.38 10.7.78 1.74 1.3 1.8 1.66.52 3.2-1.25 1.5-2.7 1.67-10.77 1.2-7.74-.48-9.44-.3-9.9.93-.92 2.37 2.92 6.6 8.8 9.68 4.55 2.4 6.28 2.78 11.15 2.44 3.64-.26 6.77-1.14 8.5-2.4zm-72.38.23c4.7-1.96 10.57-8.06 9.97-10.35-.44-1.7-1.15-1.78-8.64-1-9.02.96-13.1-.03-12.5-3 .3-1.53 1.62-1.75 10.5-1.7 12.1.06 13.37-1.12 7.42-6.92-6.76-6.58-16.96-8.6-24.15-4.78-9.9 5.27-10.53 20.57-1.1 26.88 4.03 2.68 13.15 3.1 18.5.88zm32.9.02c5.6-2.4 8.04-5.95 8.5-12.48.8-10.84-5.05-16.73-15.83-15.95-6.43.46-9.75 2.6-12.66 8.2-1.97 3.8-1.24 11.83 1.4 15.42 4.05 5.55 12 7.6 18.6 4.8zm-12.36-7.55c-7.2-7.2.26-18.54 9.6-14.63 4.65 1.94 6.96 6.6 5.5 11.04-2.26 6.83-10 8.68-15.1 3.6zm29.68-21.56c8.16-3.6 12.6-12.3 10.44-20.37-2.25-8.35-7.37-11.64-17.03-10.94-4.94.35-6.58.95-9.14 3.36-1.72 1.6-3.74 4.38-4.5 6.15-2.7 6.35-1.1 19.6 2.5 20.55 1.5.4 2.62-1.1 5.74-7.48 3.9-8 6.67-10.9 8.6-8.97 1.43 1.44.26 4.27-4.84 11.72-3.63 5.3-4.3 6.88-3.33 8.03 1.4 1.7 4.3 1.18 11.55-2.04zm-34.12 1.53c.33-.53-1.46-3.8-3.98-7.25-5-6.9-6.34-10.34-4.64-12.04 1.76-1.76 5.64 2.6 8.83 9.92 2.24 5.14 3.2 6.36 4.8 6.12 2.67-.38 4.8-8.5 3.94-15.02-1.57-12.2-13.14-18.98-23.66-13.9-10.04 4.87-11.7 19.55-3.1 27.33 4.73 4.26 16.24 7.4 17.82 4.83z"/><path fill="#878c9b" d="M61.82 445.2c-24-4.13-44-18.56-54.32-39.18-8.13-16.24-7.6-3.1-7.3-186.32l.28-163 2.34-6.5c4.07-11.36 9-19.02 18.07-28.1C30.32 12.68 37.8 8 50.47 3.5l8-2.8h240l7.47 2.34c25.8 8.1 44.43 27.13 50.8 51.84 1.62 6.35 1.73 17.77 1.73 168.32 0 181.55.66 166-7.66 182.97-3.35 6.83-5.9 10.24-13.24 17.6-7.74 7.8-10.5 9.84-18.6 13.78-17.98 8.77-6.77 8.1-137 8.28-63.52.1-117.6-.2-120.16-.64zm240.7-6c13.15-3.38 21.8-8.3 31.57-17.98 6.94-6.88 9.4-10.17 12.76-17.02 7.62-15.56 7.2-4.04 6.9-184.26l-.28-161.24-2.33-7c-5.73-17.22-17.8-31.3-33.42-38.96-17.6-8.64-7.28-8.04-138.75-8.04H62.48L54.53 7c-11.73 3.4-20.97 8.66-29.55 16.84C16.34 32.07 11.08 40.3 7.2 51.7l-2.72 8-.3 158c-.2 114 .02 160.2.84 165.95 3.82 26.8 23.47 48.53 50.2 55.53 6.94 1.82 12.5 1.9 123.35 1.96 113.08.05 116.3 0 123.95-1.95zm-138.68-43.45c-28.78-6-52.02-28.33-59.4-57.05-2.53-9.84-2.35-26.46.4-36.8 7.1-26.62 28.72-47.9 55.64-54.74 10.78-2.74 27.08-2.77 37.65-.06 18.77 4.8 36.88 18.18 46.7 34.48 25.4 42.1 5.26 95.85-41.85 111.7-8.04 2.7-11.26 3.24-21 3.52-7.23.2-13.96-.18-18.14-1.05zm36.78-11.93c26.05-8.45 43.54-31.6 45.05-59.62 1.72-31.86-19.43-60.3-50.3-67.6-8.86-2.1-24.04-2.1-32.42 0-32.9 8.22-54.48 39.6-49.96 72.64 3.1 22.7 15.76 40.8 35.22 50.43 12.17 6.02 19.42 7.58 33.26 7.14 8.48-.26 12.87-.95 19.14-2.98zm-34.08-5.28c-21.76-4.66-40.04-22.35-45.05-43.58-1.93-8.15-1.9-20.8.03-28.27 5.36-20.6 23.16-38.16 43.56-42.97 41.46-9.77 79.92 25.85 72.53 67.18-2.23 12.5-7.3 22.06-16.55 31.32-15 15.02-34.05 20.7-54.54 16.32zm2.94-13.17c6.27-3.6 9.48-16.2 6.4-25.08-1.78-5.1-4.25-3.7-8.6 4.85-4.1 8.07-6.7 10.57-8.3 8.05-1.4-2.2-1.43-2.18 4.13-10.4 4.06-6 4.9-7.9 3.98-9-1.3-1.55-7.2-.65-11.95 1.84-3.03 1.58-7.37 6.03-9.02 9.24-2.53 4.94-.55 16.05 3.47 19.38 4.84 4.02 13.95 4.53 19.9 1.1zm34.9 1.44c10.8-4.5 11.24-22.23.73-29.1-5-3.3-12.65-5.14-14.58-3.53-1.24 1.03-.72 2.25 3.5 8.27 4.73 6.74 6.1 10.93 4 12.23-1.6 1-5.06-3.3-8.3-10.32-1.68-3.66-3.17-6.8-3.3-6.98-.15-.2-1.16.15-2.26.73-2.47 1.32-4.5 9.82-3.57 14.98 2.1 11.93 13 18.22 23.77 13.73zm20.37-32.22c4.25-3.1 7.56-10.5 6.77-15.2-.9-5.3-3.8-9.75-7.74-11.83-4.65-2.47-13.24-2.3-18.3.36-5.42 2.86-9.93 7.72-9.12 9.84.56 1.45 1.76 1.58 9.38 1 6.9-.54 9.16-.38 10.7.78 1.74 1.3 1.8 1.66.52 3.2-1.25 1.5-2.7 1.67-10.77 1.2-7.43-.46-9.45-.3-9.87.82-.9 2.35 3.4 7.15 8.9 9.94 4.32 2.18 6.28 2.58 11.02 2.27 3.67-.24 6.76-1.1 8.5-2.37zm-72-.07c5.32-2.52 10.2-7.77 9.53-10.28-.35-1.36-1.1-1.9-2.17-1.57-.88.3-5.08.64-9.3.78-8.12.28-10.6-.72-9.43-3.8.57-1.5 1.9-1.64 10.56-1.22 8.84.43 9.95.3 10.36-1.27.58-2.26-5.55-8.3-10.53-10.4-4.82-2-12.08-1.96-16.4.1-4.87 2.3-7.68 6.72-8.12 12.77-.46 6.24 1.78 11.1 6.63 14.33 4.25 2.83 13.5 3.12 18.86.58zm32.52.32c5.8-2.47 8.08-5.95 8.47-12.9.62-10.9-4.94-16.3-15.9-15.52-6.33.46-9.66 2.64-12.56 8.2-1.97 3.8-1.24 11.83 1.4 15.42 4.05 5.55 12 7.6 18.6 4.8zm-12.36-7.55c-7.18-7.2.26-18.54 9.6-14.63 4.65 1.94 6.96 6.6 5.5 11.04-2.26 6.83-10 8.68-15.1 3.6zm32-22.86c7.72-4.74 10.8-15.2 6.74-22.94-5.94-11.34-24.03-9.82-29.28 2.45-2.66 6.24-1.08 19.8 2.4 20.53 1.3.27 2.75-1.65 5.77-7.6 4.3-8.47 6.6-10.9 8.53-8.96 1.57 1.57.5 4.23-4.7 11.85-3.45 5.03-4.26 6.9-3.42 7.92 1.52 1.84 8.24.28 13.95-3.23zm-36.44 2.83c.33-.53-1.46-3.8-3.98-7.25-5-6.9-6.34-10.34-4.64-12.04 1.76-1.76 5.64 2.6 8.83 9.92 2.24 5.14 3.2 6.36 4.8 6.12 4.22-.6 5.5-15.03 1.95-21.9-3.78-7.32-12.85-10.52-21-7.42-10 3.83-12.48 18.07-4.65 26.9 3.98 4.47 17 8.42 18.7 5.67zm-4.98-107.5c-23.75-5.23-44.63-22-54.4-43.7-9.16-20.4-8.7-44.8 1.28-64.58 13.14-26.1 39.26-42.25 68.34-42.25 13.27 0 22.48 2.05 33.78 7.52 16.02 7.76 27.97 19.52 35.56 34.98 5 10.2 6.92 17.6 7.64 29.53 2.22 36.98-24.03 70.76-60.9 78.37-9.17 1.9-22.97 1.95-31.3.12zm36.5-11.52c17-5.7 31.32-17.9 38.72-33 9.6-19.6 9.66-40.6.16-60-3.36-6.88-5.8-10.13-12.77-17-13.85-13.67-26.98-18.96-47.15-19-12.68 0-19.52 1.58-30.93 7.16-15.75 7.7-28.83 24-33.6 41.84-2 7.52-2.32 23.95-.58 31.18 6 25.03 23.58 43.15 48.32 49.85 9.94 2.7 28.24 2.2 37.82-1.02zm-33.5-5.5c-21.6-4.77-39.4-21.9-44.92-43.23-2-7.7-2.02-21.14-.05-28.7 5.38-20.63 23.2-38.23 43.6-43.04 13.22-3.1 28.25-1.38 40.83 4.7 8.6 4.18 21.58 16.87 25.8 25.27 8.87 17.6 9.1 35.68.7 53.15-5.05 10.52-15.96 21.52-26.47 26.7-12.65 6.22-26.5 8.03-39.47 5.16zm3-13.33c6.27-3.6 9.48-16.2 6.4-25.08-1.78-5.1-4.25-3.7-8.6 4.85-4.02 7.9-6.43 10.3-8.37 8.37-1.6-1.6-.44-4.4 4.77-11.47 5.1-6.94 5.02-9.65-.3-9-6.85.82-13.96 5.57-16.97 11.35-2.8 5.37-1.06 16.36 3.17 19.86 4.84 4.02 13.95 4.53 19.9 1.1zm35.43 1.07c4.8-2.44 7.28-6.26 7.85-12.1.92-9.6-5.4-17.57-16.02-20.2-3.7-.92-5.08-.9-6.2.03-1.25 1.03-.73 2.25 3.5 8.27 4.72 6.74 6.1 10.93 4 12.23-1.62 1-5.07-3.3-8.3-10.32-1.7-3.66-3.18-6.8-3.32-7-.13-.17-1.14.17-2.24.75-2.47 1.32-4.5 9.82-3.57 14.98 2.15 12.2 13.93 18.66 24.3 13.36zm19.85-31.86c4.25-3.1 7.56-10.5 6.77-15.2-.9-5.3-3.8-9.75-7.74-11.83-4.65-2.47-13.24-2.3-18.3.36-5.42 2.86-9.93 7.72-9.12 9.84.56 1.45 1.76 1.58 9.38 1 6.9-.54 9.16-.38 10.7.78 1.74 1.3 1.8 1.66.52 3.2-1.25 1.5-2.7 1.67-10.77 1.2-7.74-.48-9.44-.3-9.9.93-.92 2.37 2.92 6.6 8.8 9.68 4.55 2.4 6.28 2.78 11.15 2.44 3.64-.26 6.77-1.14 8.5-2.4zm-72.38.23c4.7-1.96 10.57-8.06 9.97-10.35-.44-1.7-1.15-1.78-8.64-1-9.02.96-13.1-.03-12.5-3 .3-1.53 1.62-1.75 10.5-1.7 12.1.06 13.37-1.12 7.42-6.92-6.76-6.58-16.96-8.6-24.15-4.78-9.9 5.27-10.53 20.57-1.1 26.88 4.03 2.68 13.15 3.1 18.5.88zm32.9.02c5.6-2.4 8.04-5.95 8.5-12.48.8-10.84-5.05-16.73-15.83-15.95-6.43.46-9.75 2.6-12.66 8.2-1.97 3.8-1.24 11.83 1.4 15.42 4.05 5.55 12 7.6 18.6 4.8zm-12.36-7.55c-7.18-7.2.26-18.54 9.6-14.63 4.65 1.94 6.96 6.6 5.5 11.04-2.26 6.83-10 8.68-15.1 3.6zm29.68-21.56c8.16-3.6 12.6-12.3 10.44-20.37-2.25-8.35-7.37-11.64-17.03-10.94-4.94.35-6.57.95-9.14 3.36-1.72 1.6-3.74 4.38-4.5 6.15-2.7 6.35-1.1 19.6 2.5 20.55 1.5.4 2.62-1.1 5.74-7.48 3.9-8 6.67-10.9 8.6-8.97 1.43 1.44.26 4.27-4.84 11.72-3.63 5.3-4.3 6.88-3.33 8.03 1.4 1.7 4.3 1.18 11.55-2.04zm-34.12 1.53c.33-.53-1.46-3.8-3.98-7.25-5-6.9-6.34-10.34-4.64-12.04 1.76-1.76 5.64 2.6 8.83 9.92 2.24 5.14 3.2 6.36 4.8 6.12 2.67-.38 4.8-8.5 3.94-15.02-1.57-12.2-13.14-18.98-23.66-13.9-10.04 4.87-11.7 19.55-3.1 27.33 4.73 4.26 16.24 7.4 17.82 4.83z"/><path fill="#7f7f7f" d="M61.82 445.2c-24-4.13-44-18.56-54.32-39.18-8.13-16.24-7.6-3.1-7.3-186.32l.28-163 2.34-6.5c4.07-11.36 9-19.02 18.07-28.1C30.32 12.68 37.8 8 50.47 3.5l8-2.8h240l7.47 2.34c25.8 8.1 44.43 27.13 50.8 51.84 1.62 6.35 1.73 17.77 1.73 168.32 0 181.55.66 166-7.66 182.97-3.35 6.83-5.9 10.24-13.24 17.6-7.74 7.8-10.5 9.84-18.6 13.78-17.98 8.77-6.77 8.1-137 8.28-63.52.1-117.6-.2-120.16-.64zm240.7-6c13.15-3.38 21.8-8.3 31.57-17.98 6.94-6.88 9.4-10.17 12.76-17.02 7.62-15.56 7.2-4.04 6.9-184.26l-.28-161.24-2.33-7c-5.73-17.22-17.8-31.3-33.42-38.96-17.6-8.64-7.28-8.04-138.75-8.04H62.48L54.53 7c-11.73 3.4-20.97 8.66-29.55 16.84C16.34 32.07 11.08 40.3 7.2 51.7l-2.72 8-.3 158c-.2 114 .02 160.2.84 165.95 3.82 26.8 23.47 48.53 50.2 55.53 6.94 1.82 12.5 1.9 123.35 1.96 113.08.05 116.3 0 123.95-1.95zm-133.87-43.14c-16.77-2.15-31.73-9.7-44.34-22.4-6.9-6.95-8.94-9.83-13.2-18.6-6.5-13.45-8.55-23.26-7.84-37.77.6-12.24 2.43-19.7 7.3-29.8 8.97-18.68 25.9-32.76 47.42-39.45 9.83-3.05 30.82-3.32 41-.52 26.57 7.3 47.26 28.1 54.1 54.42 2.63 10.12 2.8 26.93.4 36.75-7.65 31.17-33.46 53.83-65.46 57.5-9.54 1.1-9.82 1.1-19.37-.14zm27.27-10.48c3.06-.77 9.38-3.27 14.05-5.56 16.3-8 29.87-25 34.5-43.28 1.98-7.8 1.95-24.04-.05-31.9-4.78-18.73-18.27-35.1-36.07-43.75-27-13.14-58.55-6.9-79.2 15.66-19.57 21.37-22.6 53.8-7.38 78.93 4.52 7.44 15.06 17.9 22.57 22.37 15.5 9.25 34.03 11.95 51.58 7.5zm-31.48-7.78c-24.4-5.93-42.17-27.18-44.04-52.7-2.04-27.98 16-53.25 43.58-61 6.85-1.94 24.33-1.66 31.45.48 20.35 6.12 35.93 22.1 41.03 42.08 1.94 7.57 1.93 20.2 0 28.43-4.75 20.1-21.74 37.25-42.12 42.5-7.26 1.88-22.57 1.98-29.9.2zm40.67-11.17c6.24-3.22 9.9-11.77 7.82-18.25-1.83-5.7-5.4-9.73-11.1-12.58-5.62-2.8-9.73-3.3-11.6-1.43-.9.9-.38 2.28 2.2 5.88 6.76 9.4 8.33 14.34 4.38 13.77-1.64-.24-3.23-2.43-6.25-8.6-4.6-9.4-6.9-10.46-9.15-4.22-2.87 7.95-1.23 16.82 4.12 22.33 5.46 5.62 12.55 6.74 19.6 3.1zm-37.46-.07c7.62-3.62 11.6-13.2 9.45-22.77-.84-3.74-1.93-5.97-3.27-6.7-1.1-.58-2.15-.92-2.3-.74-.18.2-2.14 4-4.38 8.46-3.75 7.5-6.06 10.14-7.57 8.64-1.45-1.45-.26-4.6 4.3-11.4 4.64-6.9 4.8-7.4 3.05-8.62-3.52-2.46-12.48 1.28-18.2 7.6-7.84 8.7-4.6 22.35 6.25 26.43 3.02 1.14 9.3.68 12.66-.9zm55.48-30.97c3.83-1.94 7.7-6.94 8.44-10.97 2.6-13.78-11.68-23.75-25.08-17.53-5.1 2.36-10.8 8.3-10.32 10.74.32 1.7 1.26 1.83 10.6 1.5 9.66-.32 10.22-.23 10.22 1.65 0 2.86-2.2 3.33-12.14 2.58-7.95-.6-8.86-.5-8.86 1.04 0 2.72 1.63 5.05 5.66 8.13 6.6 5.03 14.92 6.13 21.48 2.84zm-73.45.54c7.06-2.65 13.9-9.28 12.7-12.34-.47-1.26-2.2-1.4-10.45-.9-8.82.53-9.96.4-10.55-1.16-1.14-2.95 1.58-3.7 11.24-3.05 8.2.54 9.2.4 9.83-1.2 1.12-2.88-8.08-10.78-14.27-12.26-16.43-3.94-28.07 13.42-17.45 26.04 4.54 5.4 12.28 7.37 18.97 4.86zm39.8-3.94c8.73-8.45 6.25-21.27-4.92-25.53-6.07-2.32-10.73-1.33-15.73 3.34-7.8 7.3-6.64 18.57 2.47 24.3 2.48 1.56 4.46 1.92 8.95 1.64 4.93-.32 6.26-.86 9.23-3.74zm-13.5-2.7c-6.86-2.54-7.78-13.26-1.37-16.17 6.84-3.12 13.4.6 13.35 7.57-.03 4.45-1.57 6.82-5.36 8.26-2.96 1.12-4.28 1.18-6.62.33zm-8.04-21.74c.97-1.16.22-2.83-3.87-8.66-5.02-7.14-6.08-10.17-4-11.44 1.72-1.07 4.3 2 7.93 9.54 2.74 5.7 3.8 7.02 5.45 6.8 4.1-.6 6.04-13.92 2.92-20.1-3.6-7.1-8.78-10.7-15.43-10.7-9.3 0-16.2 6.78-16.2 15.9 0 8.33 6.14 15.7 15.47 18.63 5.6 1.74 6.3 1.74 7.73.03zm34.87-1.72c2.4-1.16 5.66-3.9 7.25-6.1 5.44-7.5 5.13-15.35-.87-21.66-9.58-10.07-25.74-4-28.53 10.7-1.18 6.17 2.15 16.22 5.38 16.22.5 0 2.4-3.27 4.24-7.25 3.98-8.6 6.3-11.34 8.27-9.7 1.77 1.46.6 4.5-4.7 12.05-3.54 5.03-3.94 6.1-2.8 7.47 1.6 1.92 5.36 1.37 11.76-1.73zM168.4 200.2c-16.5-2.3-31.73-10.1-44.1-22.54-6.9-6.95-8.94-9.82-13.18-18.6-5.8-11.95-8.14-21.82-8.14-34.26 0-20.42 7.94-39.56 22.25-53.67 9.23-9.1 21.56-16.06 34.75-19.64 8.9-2.43 29.9-2.4 39 .06 26.43 7.12 47.27 28.1 54.13 54.52 2.53 9.68 2.75 26.73.48 36.44-6.33 27.05-28.64 49.53-55.6 56.02-8.3 2-21.78 2.76-29.6 1.67zm28.08-10.64c17.2-4.4 34.55-18.5 42.33-34.38 5.5-11.22 7.18-18.3 7.18-30.3 0-19.14-5.47-32.17-19.47-46.3-7.5-7.6-10.44-9.82-17.52-13.2-22.08-10.56-47.1-9.04-66.66 4.06-35.7 23.87-40.64 72.8-10.38 102.7 17.2 17 41.02 23.44 64.54 17.42zm-34-8.26c-23.88-6.96-40.25-27.27-42.08-52.2-2.07-28.36 16.9-54.33 44.58-61.03 8.6-2.08 23.23-1.67 31.5.88 17.7 5.46 31.97 18.92 38.25 36.07 3.3 9 4.12 23.9 1.84 33.56-4.83 20.52-21.7 37.76-42.14 43.1-8 2.07-24.2 1.88-31.95-.38zm39.7-9.28c7.76-2.33 13.14-12.14 10.74-19.64-1.83-5.7-5.4-9.73-11.1-12.58-5.77-2.87-10-3.32-11.7-1.25-.88 1.05-.37 2.36 2.2 5.75 6.7 8.76 8.46 14.3 4.4 13.72-1.7-.25-3.18-2.28-6.22-8.6-3.16-6.58-4.38-8.24-5.9-8-3.94.57-6.02 13.47-3.26 20.1 2.58 6.16 9.3 11.18 15.53 11.6.76.04 3.14-.45 5.3-1.1zm-34.54-1.46c4.45-2.1 7.9-6.7 9.47-12.53 2.04-7.6-1.07-17.83-5.4-17.83-.25 0-1.7 2.8-3.22 6.25-3.44 7.74-6.2 11.75-8.06 11.75-2.74 0-1.44-4.85 3.15-11.68 5.15-7.67 5.02-10.02-.54-9.56-8.08.67-17.43 8.97-18.56 16.48-.7 4.7 1.05 10.46 4.3 14.1 4.06 4.56 12.7 5.94 18.87 3.02zm55.48-30.95c3.84-1.95 7.7-6.95 8.44-10.97 2.5-13.25-11.06-23.44-24-18.03-5.13 2.14-11.73 8.53-11.37 11 .27 2 .77 2.08 10.53 1.74 9.7-.35 10.25-.26 10.25 1.64 0 2.9-2.37 3.4-12.23 2.64-7.84-.6-8.77-.5-8.77 1 0 2.72 1.64 5.06 5.66 8.13 6.73 5.13 14.9 6.22 21.48 2.86zm-68.53-1.98c5.5-3.43 8.73-7.37 7.86-9.63-.53-1.38-2.03-1.53-10.52-1.06-8.8.48-9.98.35-10.58-1.2-1.13-2.95 1.6-3.7 11.25-3.05 8.2.54 9.2.4 9.83-1.2 1.12-2.88-8.08-10.78-14.27-12.26-16.43-3.94-28.07 13.42-17.45 26.04 1.48 1.75 4.06 3.8 5.74 4.56 4.77 2.17 12.64 1.2 18.15-2.22zm34.33-1c9.32-8.4 7.1-21.57-4.38-25.95-6.07-2.32-10.73-1.33-15.73 3.34-10.68 10-3.93 26.18 10.9 26.2 4.63 0 5.74-.43 9.2-3.57zm-12.95-3.13c-6.87-2.54-7.8-13.26-1.38-16.17 6.84-3.12 13.4.6 13.35 7.57-.05 6.76-5.77 10.86-11.97 8.6zm-8.05-21.74c.97-1.16.22-2.83-3.87-8.66-5-7.12-6.08-10.17-4.03-11.43 1.76-1.1 3.95 1.57 8.06 9.74 3.5 7 4.14 7.73 5.86 6.8 1.07-.56 2.4-2.7 2.98-4.77 3.77-13.58-3.95-26.23-16-26.23-9.3 0-16.2 6.78-16.2 15.9 0 8.33 6.14 15.7 15.47 18.63 5.6 1.74 6.3 1.74 7.73.03zm31.3 0c8.53-3.03 14.68-10.7 14.73-18.35.05-6.96-6.05-14.47-12.86-15.83-7.08-1.42-15.1 2.84-18.84 10.02-2.97 5.68-1.68 18.3 2.12 20.83 2.03 1.35 2.53.8 5.9-6.48 3.97-8.6 6.3-11.34 8.26-9.7 1.77 1.46.6 4.5-4.7 12.05-3.43 4.88-3.9 6.12-2.87 7.38 1.52 1.83 3.33 1.85 8.27.1z"/><path fill="#4b526a" d="M56.48 443.73c-23.1-5.04-43.56-22.25-51.57-43.4-5.07-13.4-4.98-10.03-4.66-181.7C.58 39.42-.16 55.96 8.1 39.2 11.45 32.4 14 29 20.9 22.14 30.4 12.64 39.74 7.1 53 3.04L60.5.73l113-.32c78.15-.22 115.6.02 121.37.78 25.45 3.35 46.4 18.32 56.68 40.5 6.9 14.9 6.55 4.23 6.24 184.5l-.3 162.5-2.92 8.4c-7.9 22.67-27.23 40.15-50.98 46.1-7.67 1.94-11.35 2-124.5 1.92-92.1-.07-117.85-.36-122.6-1.4zm246-3.8c3.3-.97 9.83-3.6 14.5-5.88 11.42-5.55 24.7-18.64 30.26-29.85 7.8-15.7 7.18-1.13 7.52-175.5.22-108.8-.02-158.53-.78-164.34-2.1-15.95-8.14-28.23-19.5-39.63-8.15-8.17-16.74-13.48-28-17.3l-8-2.73h-239l-8 2.82c-11.97 4.22-18.1 8.13-27.6 17.6C15.14 33.8 11.4 39.67 6.6 52.2l-2.12 5.5-.28 162c-.3 181.58-.8 169.12 7.05 184.78 3.15 6.32 5.97 10.07 12.2 16.22 4.43 4.4 10.6 9.5 13.72 11.32 6.6 3.88 17.32 7.78 24.94 9.06 3.05.52 55.07.84 119.88.75 105.63-.15 114.97-.3 120.5-1.9zm-133.83-43.87c-16.77-2.15-31.73-9.7-44.34-22.4-6.9-6.95-8.94-9.83-13.2-18.6-6.5-13.45-8.55-23.26-7.84-37.77.6-12.24 2.43-19.7 7.3-29.8 8.97-18.68 25.9-32.76 47.42-39.45 9.83-3.05 30.82-3.32 41-.52 26.57 7.3 47.26 28.1 54.1 54.42 2.63 10.12 2.8 26.93.4 36.75-7.65 31.17-33.46 53.83-65.46 57.5-9.54 1.1-9.82 1.1-19.37-.14zm27.27-10.48c3.06-.77 9.38-3.27 14.05-5.56 16.3-8 29.87-25 34.5-43.28 1.98-7.8 1.95-24.04-.05-31.9-4.78-18.73-18.27-35.1-36.07-43.75-27-13.14-58.55-6.9-79.2 15.66-19.57 21.37-22.6 53.8-7.38 78.93 4.52 7.44 15.06 17.9 22.57 22.37 15.5 9.25 34.03 11.95 51.58 7.5zm-31.48-7.78c-24.4-5.93-42.17-27.18-44.04-52.7-2.04-27.98 16-53.25 43.58-61 6.85-1.94 24.33-1.66 31.45.48 20.35 6.12 35.93 22.1 41.03 42.08 1.94 7.57 1.93 20.2 0 28.43-4.75 20.1-21.74 37.25-42.12 42.5-7.26 1.88-22.57 1.98-29.9.2zm40.67-11.17c6.23-3.22 9.9-11.77 7.82-18.25-1.83-5.7-5.4-9.73-11.1-12.58-5.62-2.8-9.73-3.3-11.6-1.43-.9.9-.38 2.28 2.2 5.88 6.76 9.4 8.33 14.34 4.37 13.77-1.64-.24-3.23-2.43-6.25-8.6-4.6-9.4-6.9-10.46-9.15-4.22-2.87 7.95-1.23 16.82 4.12 22.33 5.46 5.62 12.55 6.74 19.6 3.1zm-37.46-.07c7.62-3.62 11.6-13.2 9.45-22.77-.84-3.74-1.93-5.97-3.27-6.7-1.1-.58-2.15-.92-2.3-.74-.18.2-2.14 4-4.38 8.46-3.75 7.5-6.06 10.14-7.57 8.64-1.45-1.45-.26-4.6 4.3-11.4 4.64-6.9 4.8-7.4 3.04-8.62-3.5-2.46-12.47 1.28-18.18 7.6-7.85 8.7-4.62 22.35 6.24 26.43 3.02 1.14 9.3.68 12.66-.9zm55.48-30.97c3.83-1.94 7.7-6.94 8.44-10.97 2.6-13.78-11.68-23.75-25.08-17.53-5.1 2.36-10.8 8.3-10.33 10.74.33 1.7 1.27 1.83 10.6 1.5 9.67-.32 10.23-.23 10.23 1.65 0 2.86-2.2 3.33-12.14 2.58-7.95-.6-8.86-.5-8.86 1.04 0 2.72 1.63 5.05 5.66 8.13 6.6 5.03 14.92 6.13 21.48 2.84zm-73.45.54c7.06-2.65 13.9-9.28 12.7-12.34-.47-1.26-2.2-1.4-10.45-.9-8.82.53-9.96.4-10.55-1.16-1.14-2.95 1.58-3.7 11.24-3.05 8.2.54 9.2.4 9.83-1.2 1.12-2.88-8.08-10.78-14.27-12.26-16.43-3.94-28.07 13.42-17.45 26.04 4.54 5.4 12.28 7.37 18.97 4.86zm39.8-3.94c8.73-8.45 6.25-21.27-4.92-25.53-6.07-2.32-10.73-1.33-15.73 3.34-7.8 7.3-6.64 18.57 2.47 24.3 2.48 1.56 4.46 1.92 8.95 1.64 4.93-.32 6.26-.86 9.23-3.74zm-13.5-2.7c-6.86-2.54-7.78-13.26-1.37-16.17 6.84-3.12 13.4.6 13.35 7.57-.03 4.45-1.57 6.82-5.36 8.26-2.96 1.12-4.28 1.18-6.62.33zm-8.04-21.74c.97-1.16.22-2.83-3.87-8.66-5.02-7.14-6.08-10.17-4-11.44 1.72-1.07 4.3 2 7.93 9.54 2.74 5.7 3.8 7.02 5.45 6.8 4.1-.6 6.04-13.92 2.92-20.1-3.6-7.1-8.78-10.7-15.43-10.7-9.3 0-16.2 6.78-16.2 15.9 0 8.33 6.14 15.7 15.47 18.63 5.6 1.74 6.3 1.74 7.73.03zm34.87-1.72c2.4-1.16 5.66-3.9 7.25-6.1 5.44-7.5 5.13-15.35-.87-21.66-9.58-10.07-25.74-4-28.53 10.7-1.18 6.17 2.15 16.22 5.38 16.22.5 0 2.4-3.27 4.24-7.25 3.98-8.6 6.3-11.34 8.27-9.7 1.77 1.46.6 4.5-4.7 12.05-3.54 5.03-3.94 6.1-2.8 7.47 1.6 1.92 5.36 1.37 11.76-1.73zM168.4 200.2c-16.5-2.3-31.73-10.1-44.1-22.54-6.9-6.95-8.94-9.82-13.18-18.6-5.8-11.95-8.14-21.82-8.14-34.26 0-20.42 7.94-39.56 22.25-53.67 9.23-9.1 21.56-16.06 34.75-19.64 8.9-2.43 29.9-2.4 39 .06 26.43 7.12 47.27 28.1 54.13 54.52 2.53 9.68 2.75 26.73.48 36.44-6.33 27.05-28.64 49.53-55.6 56.02-8.3 2-21.78 2.76-29.6 1.67zm28.08-10.64c17.2-4.4 34.55-18.5 42.33-34.38 5.5-11.22 7.18-18.3 7.18-30.3 0-19.14-5.47-32.17-19.47-46.3-7.5-7.6-10.44-9.82-17.52-13.2-22.08-10.56-47.1-9.04-66.66 4.06-35.7 23.87-40.64 72.8-10.38 102.7 17.2 17 41.02 23.44 64.54 17.42zm-34-8.26c-23.88-6.96-40.25-27.27-42.08-52.2-2.07-28.36 16.9-54.33 44.58-61.03 8.6-2.08 23.23-1.67 31.5.88 17.7 5.46 31.97 18.92 38.25 36.07 3.3 9 4.12 23.9 1.84 33.56-4.83 20.52-21.7 37.76-42.14 43.1-8 2.07-24.2 1.88-31.95-.38zm39.7-9.28c7.76-2.33 13.14-12.14 10.74-19.64-1.83-5.7-5.4-9.73-11.1-12.58-5.77-2.87-10-3.32-11.7-1.25-.88 1.05-.38 2.36 2.2 5.75 6.7 8.76 8.46 14.3 4.4 13.72-1.7-.25-3.18-2.28-6.22-8.6-3.16-6.58-4.38-8.24-5.9-8-3.94.57-6.02 13.47-3.26 20.1 2.58 6.16 9.3 11.18 15.53 11.6.76.04 3.14-.45 5.3-1.1zm-34.54-1.46c4.45-2.1 7.9-6.7 9.47-12.53 2.04-7.6-1.07-17.83-5.4-17.83-.25 0-1.7 2.8-3.22 6.25-3.44 7.74-6.2 11.75-8.06 11.75-2.74 0-1.44-4.85 3.15-11.68 5.15-7.67 5.02-10.02-.54-9.56-8.08.67-17.43 8.97-18.56 16.48-.7 4.7 1.05 10.46 4.3 14.1 4.06 4.56 12.7 5.94 18.87 3.02zm55.48-30.95c3.84-1.95 7.7-6.95 8.44-10.97 2.5-13.25-11.06-23.44-24-18.03-5.13 2.14-11.73 8.53-11.37 11 .27 2 .77 2.08 10.53 1.74 9.7-.35 10.25-.26 10.25 1.64 0 2.9-2.37 3.4-12.23 2.64-7.84-.6-8.77-.5-8.77 1 0 2.72 1.64 5.06 5.66 8.13 6.73 5.13 14.9 6.22 21.48 2.86zm-68.53-1.98c5.5-3.43 8.73-7.37 7.86-9.63-.53-1.38-2.03-1.53-10.52-1.06-8.8.48-9.98.35-10.58-1.2-1.13-2.95 1.6-3.7 11.25-3.05 8.2.54 9.2.4 9.83-1.2 1.12-2.88-8.08-10.78-14.27-12.26-16.43-3.94-28.07 13.42-17.45 26.04 1.48 1.75 4.06 3.8 5.74 4.56 4.77 2.17 12.64 1.2 18.15-2.22zm34.33-1c9.3-8.4 7.1-21.57-4.38-25.95-6.07-2.32-10.73-1.33-15.73 3.34-10.68 10-3.93 26.18 10.9 26.2 4.63 0 5.74-.43 9.2-3.57zm-12.95-3.13c-6.87-2.54-7.8-13.26-1.38-16.17 6.84-3.12 13.4.6 13.35 7.57-.05 6.76-5.77 10.86-11.97 8.6zm-8.05-21.74c.97-1.16.22-2.83-3.87-8.66-5-7.12-6.08-10.17-4.03-11.43 1.76-1.1 3.95 1.57 8.06 9.74 3.5 7 4.14 7.73 5.86 6.8 1.07-.56 2.4-2.7 2.98-4.77 3.77-13.58-3.95-26.23-16-26.23-9.3 0-16.2 6.78-16.2 15.9 0 8.33 6.14 15.7 15.47 18.63 5.6 1.74 6.3 1.74 7.73.03zm31.3 0c8.53-3.03 14.68-10.7 14.73-18.35.05-6.96-6.05-14.47-12.86-15.83-7.08-1.42-15.1 2.84-18.84 10.02-2.97 5.68-1.68 18.3 2.12 20.83 2.03 1.35 2.53.8 5.9-6.48 3.97-8.6 6.3-11.34 8.26-9.7 1.77 1.46.6 4.5-4.7 12.05-3.43 4.88-3.9 6.12-2.87 7.38 1.52 1.83 3.33 1.85 8.27.1z"/><path fill="#0f1938" d="M55 443.14c-26.24-6.9-45.46-25.5-52.68-50.96C.57 386 .48 377.88.48 223.2c0-152 .12-162.92 1.77-169C7.7 34.05 21.7 17.23 40.48 8.22 57.2.22 48.2.7 178.48.7c131.3 0 123.4-.46 140.48 8.1 16.42 8.2 29.46 23.15 35.7 40.9l2.82 8 .27 162.23c.3 179.4.62 169.66-6.12 183.73-9 18.82-24.4 32-45.65 39.17-5.2 1.76-11.62 1.87-124.5 2.07-115.56.2-119.2.15-126.47-1.76zm240.92-2c27.4-4.45 49.33-23.75 56.73-49.94 1.75-6.2 1.83-14.33 1.83-168 0-180.9.6-166-7.26-182-5.65-11.5-17.75-23.27-30.24-29.4-16.23-7.95-9.25-7.57-137.8-7.6-127.64 0-121.44-.32-136.7 7.03-14.46 6.98-24.87 17.14-31.96 31.2-7 13.9-6.63 3.3-6.32 183.77l.28 162.5 2.64 7.2c4.7 12.84 12.3 23.4 22.36 31 9.65 7.28 21.25 12.4 32.27 14.26 7.36 1.24 226.52 1.22 234.17-.02zm-126.2-44.96c-23.92-2.9-45.53-17.54-57.53-38.98-10.6-18.94-12.1-43.62-3.9-63.96 12.3-30.4 42.43-49.67 74.65-47.74 12.32.74 19.34 2.63 31.03 8.36 8.14 4 10.87 6.03 19.06 14.25 8.2 8.23 10.22 10.95 14.17 19.1 6.05 12.44 8 20.75 7.95 33.96-.16 45.6-39.93 80.52-85.43 75.02zm26.76-10.6c23.1-5.83 41.97-24.75 47.93-48.03 2.04-7.92 2.07-25 .08-32.9-2.35-9.25-8.74-21.3-14.96-28.15-27.34-30.2-75.9-29.44-102.07 1.62-16.95 20.12-20.24 48.88-8.34 73 7.6 15.4 24.76 29.72 40.88 34.12 11.55 3.14 24.9 3.27 36.5.34zm-32.42-7.92c-21.3-5.95-38.1-23.7-42.57-44.96-1.9-9-1.88-13.8.08-23.3 9.42-45.65 66.02-62.66 98.92-29.73 8.12 8.13 13.64 17.8 16.07 28.14 2.14 9.13 1.44 23.52-1.57 32.12-5.77 16.47-19.75 30.46-36.3 36.3-8.22 2.92-26.65 3.68-34.64 1.44zm41.88-11.1c8.66-5.1 10.12-17.65 3-25.77-5.26-6-17.04-10-19.23-6.53-.74 1.2.1 3.02 3.6 7.78 5.17 7.02 6.37 9.87 4.8 11.42-1.7 1.7-4.46-1.5-8.1-9.37-2.68-5.83-3.6-6.96-5.37-6.7-4.42.62-6.15 13.93-2.76 21.3 1 2.2 2.77 4.83 3.9 5.84 5.17 4.6 14.28 5.5 20.17 2.02zm-38.63.27c7.27-3.03 11.4-11.72 10.2-21.4-.63-5.04-3.1-9.23-5.42-9.23-.5 0-2.33 3.03-4.06 6.75-3.32 7.1-6.74 11.55-8.18 10.66-1.84-1.13-.65-4.34 4.2-11.4 4.56-6.6 4.9-7.47 3.5-8.87-1.33-1.33-2.22-1.38-6.3-.3-10.84 2.8-17.78 11.2-16.96 20.5 1 11.2 12.36 17.76 23.03 13.3zm57.47-31.86c6.84-4.12 9.4-15.28 4.96-21.78-3.62-5.34-7.08-7.33-13.56-7.8-4.53-.32-6.75.04-9.88 1.64-6.67 3.4-10.32 7-10.32 10.15v2.8l9.98-.54c8.75-.48 10.06-.34 10.62 1.14.36.92.33 2-.06 2.4-.83.8-14.73.62-18.2-.26-3.77-.94-3.2 4.26.9 8.14 7.65 7.22 17.66 8.83 25.55 4.1zm-74.6 1.05c5.34-1.6 13-8.42 12.62-11.2-.3-2.02-.77-2.1-9.86-1.77-7.5.28-9.8.04-10.76-1.12-.97-1.17-.9-1.72.3-2.73 1.12-.93 3.87-1.08 10.5-.56 7.98.63 9.1.5 9.67-1 .87-2.28-.5-4.28-5.55-8.17-11.2-8.6-24.87-5.84-29.58 5.94-3.03 7.57.3 16.02 7.74 19.7 4.77 2.37 9.2 2.64 14.92.92zm37.82-2.07c9.3-6.37 9.12-19.1-.4-26.2-4-2.97-13.03-2.82-17.42.3-8.9 6.35-8.7 20.22.4 26.22 4.24 2.8 13.08 2.63 17.4-.32zm-12.6-5.15c-5.87-2.6-6.78-10.6-1.67-14.62 3.68-2.9 7.85-2.54 11.33.94 3.6 3.6 3.85 7.92.67 11.48-2.84 3.2-6.4 3.94-10.32 2.2zm-7.44-21.07c1-1.2.28-2.86-3.88-9.08-5.18-7.74-5.94-9.82-4.03-11 1.83-1.13 4.66 2.44 8.05 10.16 2.27 5.18 3.7 7.3 4.66 6.93.76-.3 1.74-.53 2.18-.53 1.5 0 3.3-9.02 2.84-14.43-.84-10.18-7.5-16.57-17.25-16.57-7.93 0-13.48 4.3-15.58 12.13-2.33 8.65 3.93 18.4 14.05 21.9 6.7 2.32 7.42 2.36 8.96.5zm35.4-1.83c2.17-1.2 5.34-3.93 7.04-6.05 2.72-3.38 3.08-4.6 3.08-10.17 0-4.84-.48-7-2.06-9.1-3.36-4.5-7-6.63-12.14-7.13-9.12-.88-15.9 4.26-18.3 13.9-2 7.94 1.02 17.85 5.45 17.85.32 0 2.15-3.23 4.07-7.18 4.32-8.88 6.3-11.23 8.1-9.72 1.57 1.3-.24 5.32-6 13.34-2.8 3.9-3.3 5.24-2.38 6.34 1.55 1.86 7.9.86 13.15-2.08zm-34-105.7c-9.04-1.26-14-2.76-22.88-6.94-19.36-9.1-33.56-25.22-40.12-45.56-3.37-10.45-4.27-26.74-2.04-37.18 6.18-29 27.04-51.07 55.72-58.94 8.9-2.43 29.02-2.5 37.94-.12 3.58.96 10.76 3.83 15.97 6.4 7.94 3.9 10.93 6.1 18.6 13.73 13.53 13.47 20.54 27.7 22.35 45.4 3.9 38.13-21.06 73.14-58.2 81.67-8.4 1.92-19.9 2.57-27.33 1.53zm27.36-10.6c22.74-5.86 40.9-23.73 47.2-46.4 2.54-9.18 2.8-25.65.56-34.54-2.35-9.26-8.74-21.3-14.96-28.16-31.65-34.97-89.34-27.37-110.47 14.55-17.4 34.53-1.54 76.85 34.43 91.85 4.4 1.84 10.17 3.3 18.5 4.72 4.27.72 18.7-.45 24.74-2zm-32.66-7.94c-21.27-5.92-38.1-23.7-42.57-44.96-1.9-9-1.88-13.8.07-23.28 5.28-25.53 25.62-43.64 52.53-46.77 6.58-.76 17.77.78 25.62 3.54 17.56 6.17 32.48 23 36.85 41.6 2.14 9.13 1.44 23.52-1.57 32.12-5.8 16.57-19.5 30.22-36.58 36.47-7.77 2.83-26.25 3.5-34.36 1.26zm42.08-11.2c5.88-3.47 8.74-11.2 6.8-18.43-2.08-7.8-11.72-14.83-20.35-14.83-4.2 0-4.1 2.4.3 8.4 5.45 7.36 6.77 10.3 5.28 11.8-1.78 1.78-4.47-1.28-8.17-9.3-2.68-5.83-3.6-6.96-5.37-6.7-6.12.86-6.02 19.2.14 26.15 4.9 5.5 14.7 6.83 21.37 2.9zm-38.22.27c7-3.62 10.74-11.96 9.57-21.3-.63-5.02-3.1-9.23-5.4-9.23-.5 0-2.45 3.27-4.35 7.27-3.63 7.64-6.3 11.12-7.85 10.18-1.92-1.2-.75-4.38 4.2-11.4 4.66-6.67 4.96-7.4 3.5-8.87-1.4-1.4-2.24-1.44-6.36-.36-10.84 2.82-17.78 11.22-16.96 20.5.75 8.5 7.44 14.68 15.9 14.68 2.7 0 6.18-.66 7.74-1.47zm56.56-31.44c4.82-2.75 7.66-8.6 7.2-14.9-.62-8.8-6.1-14.24-15.14-15-4.56-.37-6.5.02-11.02 2.23-6.07 2.98-9.54 6.65-9.54 10.1 0 2.25.1 2.27 9.98 1.73 8.75-.48 10.06-.34 10.62 1.14.36.92.33 2-.06 2.4-.83.8-14.73.62-18.2-.26-3.77-.94-3.2 4.26.9 8.14 7.6 7.2 17.4 8.9 25.26 4.4zm-74.37.88c5.02-1.4 13.08-8.6 12.7-11.37-.3-2-.8-2.1-9.82-1.8-10.6.32-13.9-.75-10.5-3.4 1.63-1.25 3.63-1.42 10.75-.87 7.52.58 8.82.45 9.36-.94.9-2.37-2.1-6.33-7.3-9.62-8.66-5.5-18.58-4.87-24.18 1.52-12.05 13.7.74 31.55 19 26.48zm37.9-2.23c11.95-8.17 7.25-26.93-7.15-28.43-5.68-.6-12.54 2.82-15.28 7.6-4.06 7.07-1.78 16.67 5.02 21.15 4.22 2.8 13.06 2.63 17.4-.32zm-13.13-5.2c-3.23-1.82-5.22-6.37-4.33-9.92.88-3.5 4.97-6.63 8.66-6.63 4 0 8.78 4.82 8.78 8.86 0 6.33-7.58 10.77-13.1 7.68zm-6.9-21.02c.98-1.2.27-2.86-3.9-9.08-5.23-7.84-5.93-9.8-3.92-11.06 1.64-1.02 5.3 3.9 8.5 11.4 1.87 4.4 3.1 6.12 4.08 5.74.78-.3 1.77-.54 2.2-.54 1.52 0 3.3-9.02 2.85-14.43-.84-10.18-7.5-16.57-17.25-16.57-14.55 0-21.26 16.28-11.35 27.56 5.67 6.47 16 10.3 18.78 6.97zm33.52-.9c6.1-2.83 11.15-8.36 12.06-13.17 2.4-12.77-7.28-22.43-20.07-20.03-5.32 1-10.95 7.04-12.47 13.37-1.57 6.54.07 15.65 3.1 17.28 2.53 1.35 2.52 1.36 7.35-7.92 2.96-5.66 4.53-7.66 6-7.66 3 0 2.05 2.9-3.54 10.95-3.62 5.2-4.58 7.3-3.78 8.26 1.6 1.94 5.73 1.55 11.33-1.06z"/><path d="M55 443.14c-26.24-6.9-45.46-25.5-52.68-50.96C.57 386 .48 377.88.48 223.2c0-152 .12-162.92 1.77-169C7.7 34.05 21.7 17.23 40.48 8.22 57.2.22 48.2.7 178.48.7c131.3 0 123.4-.46 140.48 8.1 16.42 8.2 29.46 23.15 35.7 40.9l2.82 8 .27 162.23c.3 179.4.62 169.66-6.12 183.73-9 18.82-24.4 32-45.65 39.17-5.2 1.76-11.62 1.87-124.5 2.07-115.56.2-119.2.15-126.47-1.76zm240.92-2c27.4-4.45 49.33-23.75 56.73-49.94 1.75-6.2 1.83-14.33 1.83-168 0-180.9.6-166-7.26-182-5.65-11.5-17.75-23.27-30.24-29.4-16.23-7.95-9.25-7.57-137.8-7.6-127.64 0-121.44-.32-136.7 7.03-14.46 6.98-24.87 17.14-31.96 31.2-7 13.9-6.63 3.3-6.32 183.77l.28 162.5 2.64 7.2c4.7 12.84 12.3 23.4 22.36 31 9.65 7.28 21.25 12.4 32.27 14.26 7.36 1.24 226.52 1.22 234.17-.02z"/></g></g></svg>