<svg xmlns="http://www.w3.org/2000/svg" viewBox="0 0 359.17447 445.84744"><g><g><path fill="#e0c5c6" d="M58 444.46c-3.57-.78-8.52-2.15-11-3.05-18-6.58-35.2-23.17-42.1-40.65C-.1 388.1 0 391.85 0 223 0 45.22-.45 56.43 7.58 40.16c8.45-17.1 23-29.58 42.44-36.35L59.5.5h240l9.5 3.3c25.83 9 43.8 28.93 48.57 53.87 2.13 11.12 2.15 319.44.02 330.56-5 26.08-25.04 47.4-52.1 55.43-5.58 1.65-14.14 1.8-123.5 2-97.84.17-118.58-.03-124-1.2zm244-4.8c25.12-6.74 44.93-26.27 50.46-49.75 1.32-5.57 1.52-27.2 1.52-166.9 0-178.13.43-166.36-6.73-181-5.42-11.08-18.67-24.1-30.24-29.72-16.1-7.8-8.08-7.4-140.5-7.08l-118 .3-7.3 2.7c-11.63 4.32-18.1 8.53-27.22 17.72-6.4 6.43-9.45 10.45-12.2 16.08-7.18 14.62-6.75 2.84-6.75 181 0 139.7.2 161.33 1.52 166.9 4.38 18.6 18.2 35.56 35.96 44.1 8.83 4.25 13.74 5.75 22.9 6.97 3.35.45 56.5.73 118.1.62 103.03-.18 112.53-.33 118.5-1.94zm-126-66.9c-5-11.33-6.97-37.1-6.98-91.14v-39.88l-6.26.66c-12.45 1.3-17.1 2.65-19.95 5.7-2.12 2.3-3.54 2.9-6.82 2.9-3.7 0-4.73-.6-9.84-5.75-7.95-8-22.85-26.03-36.06-43.63C77.95 185.45 75 180.52 75 176.37c0-5.55 2.26-15.53 3.64-16.06 3.15-1.2 8.52 2.7 20.87 15.12l13 13.1 27.77-9.38 27.77-9.37-.6-5.13c-2.23-19.2-3.5-22.66-11.46-31.24-12.7-13.7-15.84-20.08-13.82-28.1 1.92-7.62 16.18-18.3 24.44-18.3 4.73 0 13.55 6.2 26.27 18.47 9.87 9.52 14.1 14.9 15.94 20.32 1.48 4.3.48 6.76-5.95 14.48-5.5 6.62-8.2 11.84-9.3 18.06-.6 3.4-.46 3.77 1.14 3.3 18.1-5.3 39.16-9.8 46.37-9.94 10.72-.2 15.33 3.44 37.87 29.8 14.36 16.8 14.37 17.05.57 20.5-5.5 1.4-11.6 3.52-13.58 4.74-5 3.1-11.9 10.68-22.8 25.02-5.13 6.74-10.95 13.6-12.94 15.25-3.37 2.8-4.2 3-11.77 3-7.52 0-8.4-.22-11.9-3-2.8-2.23-4.83-3-7.88-3-2.26-.02-5.2-.32-6.52-.67l-2.4-.65.66 21.4c1.6 50.93 1.88 83.5.8 89.22-.6 3.2-2.83 9.7-4.95 14.5-2.96 6.73-4.33 8.77-6.04 9.02-1.77.26-2.6-.54-4.15-4.07zm-15.74-141.9l8.75-1.22v-21.32c0-16.7-.27-21.32-1.28-21.32-4.8 0-46 8.94-47.32 10.27-.3.3 3.44 5.42 8.3 11.4 4.84 6 10.83 13.92 13.3 17.63 3.9 5.85 4.83 6.68 7 6.26 1.38-.27 6.44-1.03 11.26-1.7zm59.93-15.63c10.4-15.86 15-24.32 16.73-30.88 1.3-4.9.17-8.87-2.8-9.8-1.8-.58-12.6 1.4-34.62 6.3l-8 1.77-.62 10.44c-.35 5.74-.68 16.16-.75 23.15l-.12 12.7 7.26.36c3.98.2 8.6.42 10.25.52 2.82.17 3.6-.74 12.7-14.55z"/><path fill="#bebebe" d="M58 444.46c-3.57-.78-8.52-2.15-11-3.05-18-6.58-35.2-23.17-42.1-40.65C-.1 388.1 0 391.85 0 223 0 45.22-.45 56.43 7.58 40.16c8.45-17.1 23-29.58 42.44-36.35L59.5.5h240l9.5 3.3c25.83 9 43.8 28.93 48.57 53.87 2.13 11.12 2.15 319.44.02 330.56-5 26.08-25.04 47.4-52.1 55.43-5.58 1.65-14.14 1.8-123.5 2-97.84.17-118.58-.03-124-1.2zm244-4.8c25.12-6.74 44.93-26.27 50.46-49.75 1.32-5.57 1.52-27.2 1.52-166.9 0-178.13.43-166.36-6.73-181-5.42-11.08-18.67-24.1-30.24-29.72-16.1-7.8-8.08-7.4-140.5-7.08l-118 .3-7.3 2.7c-11.63 4.32-18.1 8.53-27.22 17.72-6.4 6.43-9.45 10.45-12.2 16.08-7.18 14.62-6.75 2.84-6.75 181 0 139.7.2 161.33 1.52 166.9 4.38 18.6 18.2 35.56 35.96 44.1 8.83 4.25 13.74 5.75 22.9 6.97 3.35.45 56.5.73 118.1.62 103.03-.18 112.53-.33 118.5-1.94zM176.74 373.8c-5.53-11.8-6.84-26.33-7.44-82.55l-.53-49.25h-2.63c-1.45 0-6.83.68-11.96 1.52-8.2 1.33-9.63 1.87-11.84 4.5-1.95 2.3-3.34 2.98-6.17 2.98-3.3 0-4.53-.9-12.16-8.77-12.1-12.5-40.26-48.07-46.72-59.05-2.2-3.76-2.46-5.07-1.93-10 .97-8.82 2.47-13.18 4.55-13.18 3.62 0 13.4 8.44 26.3 22.7l5.6 6.2 27.86-9.3 27.85-9.32-.3-5.9c-.4-8.46-2.07-17.27-4.14-21.88-.98-2.2-4.9-7.4-8.7-11.54-11.32-12.3-14.17-18.23-12.24-25.4C144.1 98.22 158.82 87 166.47 87c7.36 0 35 24.34 41.16 36.25 2.8 5.4 2.1 8.04-3.96 15.35-6.33 7.63-9.08 12.85-10.16 19.3-.7 4.27-.65 4.37 1.64 3.73 8.83-2.48 26.97-6.86 35.5-8.58 13.07-2.64 17.5-1.82 26.3 4.84 5.18 3.9 33.07 36.84 33.07 39.03 0 2.1-2.12 3-13.46 5.56-12.12 2.74-16.35 6.36-32.87 28.12-4.22 5.56-9.9 12.2-12.63 14.75L226.1 250h-8.02c-7.37 0-8.27-.23-11.3-2.85-2.67-2.33-4.54-2.97-10.18-3.48l-6.9-.63.66 21.23c1.58 51.13 1.88 81.42.86 87.85-1.2 7.65-8.8 24.2-11.33 24.67-1 .18-2.2-.95-3.17-3zm-15.97-142.94l8.25-1.26v-21.3c0-20.7-.05-21.3-2.02-21.3-3.23 0-36 6.78-42.18 8.73l-5.63 1.77 8.96 11c4.93 6.05 11.08 14.07 13.65 17.83 4.35 6.33 4.9 6.8 7.7 6.3 1.67-.27 6.74-1.07 11.28-1.77zm60.1-16.17c15.57-23.67 19.7-34.15 15.17-38.67-2.68-2.68-4.53-2.5-28.05 2.82l-16.47 3.73-.62 10.46c-.35 5.75-.68 16.18-.75 23.17l-.12 12.7 7.26.36c3.98.2 8.65.43 10.37.54 3 .2 3.6-.5 13.22-15.1z"/><path fill="#c38c8f" d="M58.37 444.52C43.9 441.34 31.7 434.64 21.03 424c-8.63-8.6-13.9-17.06-17.8-28.5l-2.72-8v-329l2.73-8C7.15 39 12.43 30.56 21.08 22 32.4 10.78 43.65 4.76 59.2 1.58 65.97.2 80.9 0 179.4 0c121.5 0 120.28-.05 133.6 5.34 10 4.03 17.05 8.74 25 16.67 8.63 8.6 13.9 17.06 17.8 28.5l2.73 8 .3 161c.3 180 .68 169.57-6.78 185-8.9 18.4-24.4 31.57-45.5 38.65l-7 2.35-117.5.18c-95.32.15-118.67-.07-123.65-1.16zm235.5-3.56c28.62-3.6 51.82-23.54 58.63-50.42 2.27-8.98 2.28-326.06 0-335.08-5.87-23.32-25.17-42.37-49.12-48.5C295.94 5.07 291.78 5 179.5 5 67.23 5 63.08 5.07 55.64 6.97c-21.93 5.6-39.03 21-47.5 42.8L5.5 56.5l-.26 163.92c-.3 182.9-.82 168.74 6.9 184.47 9.15 18.7 30 33.2 51.72 36 9.9 1.27 219.87 1.33 230 .06zM176.73 373.8c-5.53-11.8-6.84-26.33-7.44-82.55l-.53-49.25h-2.63c-1.45 0-6.83.68-11.96 1.52-8.2 1.33-9.63 1.87-11.84 4.5-1.95 2.3-3.34 2.98-6.17 2.98-3.3 0-4.53-.9-12.16-8.77-12.1-12.5-40.26-48.07-46.72-59.05-2.2-3.76-2.46-5.07-1.93-10 .97-8.82 2.47-13.18 4.55-13.18 3.62 0 13.4 8.44 26.3 22.7l5.6 6.2 27.86-9.3 27.85-9.32-.3-5.9c-.4-8.46-2.07-17.27-4.14-21.88-.98-2.2-4.9-7.4-8.7-11.54-11.32-12.3-14.17-18.23-12.24-25.4C144.1 98.22 158.82 87 166.47 87c7.36 0 35 24.34 41.16 36.25 2.8 5.4 2.1 8.04-3.96 15.35-6.33 7.63-9.08 12.85-10.16 19.3-.7 4.27-.65 4.37 1.64 3.73 8.83-2.48 26.97-6.86 35.5-8.58 13.07-2.64 17.5-1.82 26.3 4.84 5.18 3.9 33.07 36.84 33.07 39.03 0 2.1-2.12 3-13.46 5.56-12.12 2.74-16.35 6.36-32.87 28.12-4.22 5.56-9.9 12.2-12.63 14.75L226.1 250h-8.02c-7.37 0-8.27-.23-11.3-2.85-2.67-2.33-4.54-2.97-10.18-3.48l-6.9-.63.66 21.23c1.58 51.13 1.88 81.42.86 87.85-1.2 7.65-8.8 24.2-11.33 24.67-1 .18-2.2-.95-3.17-3zm-15.97-142.94l8.25-1.26v-21.3c0-20.7-.05-21.3-2.02-21.3-3.23 0-36 6.78-42.18 8.72l-5.63 1.78 8.96 11c4.93 6.05 11.08 14.07 13.65 17.83 4.35 6.33 4.9 6.8 7.7 6.3 1.67-.27 6.74-1.07 11.28-1.77zm60.1-16.17c15.57-23.67 19.7-34.15 15.17-38.67-2.68-2.68-4.53-2.5-28.05 2.82l-16.47 3.73-.62 10.46c-.35 5.75-.68 16.18-.75 23.17l-.12 12.7 7.26.36c3.98.2 8.65.43 10.37.54 3 .2 3.6-.5 13.22-15.1z"/><path fill="#7b7b7b" d="M58.37 444.52C43.9 441.34 31.7 434.64 21.03 424c-8.63-8.6-13.9-17.06-17.8-28.5l-2.72-8v-329l2.73-8C7.15 39 12.43 30.56 21.08 22 32.4 10.78 43.65 4.76 59.2 1.58 65.97.2 80.9 0 179.4 0c121.5 0 120.28-.05 133.6 5.34 10 4.03 17.05 8.74 25 16.67 8.63 8.6 13.9 17.06 17.8 28.5l2.73 8 .3 161c.3 180 .68 169.57-6.78 185-8.9 18.4-24.4 31.57-45.5 38.65l-7 2.35-117.5.18c-95.32.15-118.67-.07-123.65-1.16zm235.5-3.56c28.62-3.6 51.82-23.54 58.63-50.42 2.27-8.98 2.28-326.06 0-335.08-5.87-23.32-25.17-42.37-49.12-48.5C295.94 5.07 291.78 5 179.5 5 67.23 5 63.08 5.07 55.64 6.97c-21.93 5.6-39.03 21-47.5 42.8L5.5 56.5l-.26 163.92c-.3 182.9-.82 168.74 6.9 184.47 9.15 18.7 30 33.2 51.72 36 9.9 1.27 219.87 1.33 230 .06zm-117.3-68.08c-5.28-13.2-6.98-34.66-6.95-87.77l.03-43.37-8.57.62c-11.23.83-15.87 2.22-19.17 5.75-4.63 4.97-8.98 3.58-18.03-5.77-9.97-10.32-33.6-40.08-43.68-55.03-3.67-5.4-4.2-6.9-4.2-11.7 0-7.15 1.84-15.6 3.4-15.6 3.82 0 14.3 8.9 26.9 22.82l5.73 6.32 27.98-9.32 28-9.32V167c0-5.47-2.6-20.14-4.26-24-.83-1.93-5.14-7.5-9.58-12.4-11.5-12.67-14.2-19.52-10.82-27.54 2.9-6.9 18.78-16.9 24.92-15.66 1.7.34 6.28 3.03 10.17 5.98 16.9 12.8 29.26 26.86 30.28 34.44.47 3.47 0 4.45-5.45 11.24-7.35 9.17-9.2 12.67-9.93 18.94l-.58 4.9 6.38-1.95c11.05-3.38 37.36-8.95 42.25-8.95 9.7 0 14.82 3.7 30.54 21.95 15.9 18.46 18.08 21.3 18.1 23.26 0 1.76-1.2 2.2-13 4.84-11.73 2.63-17.03 6.98-31.33 25.73-14.37 18.85-16.92 21.2-23.92 21.92-7.4.75-12.5-.32-15.16-3.2-1.82-1.95-3.62-2.5-10-3.1l-7.8-.7.6 12.4c.32 6.82 1.1 28.15 1.7 47.4 1.4 43.15.78 51.57-4.65 63.7-5.6 12.55-7.12 13.57-9.87 6.68zm-17-141.5l10.7-1.75-.46-21.3c-.24-11.73-.65-21.5-.9-21.76-1.07-1.08-45 8.2-48.48 10.25-.74.44 2.5 5.25 8.96 13.34 5.57 6.97 11.7 15.18 13.63 18.25 1.93 3.08 4.04 5.4 4.68 5.15.65-.24 6-1.22 11.88-2.18zm60.56-15.28c15.68-23.36 20.6-35.43 16.35-40.12-2.54-2.82-5.6-2.57-26.65 2.14l-18.67 4.18-.54 8.1c-.3 4.46-.78 14.9-1.07 23.2l-.52 15.1 9.74.98c5.35.54 10.2.93 10.74.86.56-.06 5.33-6.56 10.63-14.44z"/><path fill="#a55357" d="M64 444.96c-27.06-3.25-49.5-20.72-59.3-46.2l-3.2-8.26-.26-164.92C.94 42.1.44 56.02 7.88 40.5c9-18.8 25.75-32.2 46.9-37.56 7.6-1.92 11.15-1.97 127.27-1.7l119.46.26 8 2.8c21.75 7.64 36.87 22.32 45.18 43.88l2.83 7.32v335l-3.18 8.27c-10.1 26.17-32.17 42.98-60.8 46.3-9.64 1.1-220.18 1-229.5-.1zm242.5-6.18c21.52-7.33 38.33-23.7 45.22-44.07l2.8-8.2v-327l-2.84-8c-8.6-24.3-28.2-41.25-53.3-46.06-11.22-2.14-226.53-2.14-237.74 0-25.1 4.8-44.72 21.75-53.3 46.07l-2.83 8v326l2.9 8.8c7.68 23.47 27.06 40.66 52.1 46.23 4.85 1.08 28.48 1.3 122.5 1.15l116.5-.18 8-2.72zm-129.92-65.9c-5.3-13.2-7-34.66-6.96-87.77l.03-43.37-8.57.62c-11.23.83-15.87 2.22-19.17 5.75-4.63 4.97-8.98 3.58-18.03-5.77-9.97-10.32-33.6-40.08-43.68-55.03-3.67-5.4-4.2-6.9-4.2-11.7 0-7.15 1.84-15.6 3.4-15.6 3.82 0 14.3 8.9 26.9 22.82l5.73 6.32 27.98-9.32 28-9.32V167c0-5.47-2.6-20.14-4.26-24-.83-1.93-5.14-7.5-9.58-12.4-11.5-12.67-14.2-19.52-10.82-27.54 2.9-6.9 18.78-16.9 24.92-15.66 1.7.34 6.28 3.03 10.17 5.98 16.9 12.8 29.26 26.86 30.28 34.44.47 3.47 0 4.45-5.45 11.24-7.35 9.17-9.2 12.67-9.93 18.94l-.58 4.9 6.38-1.95c11.05-3.38 37.36-8.95 42.25-8.95 9.7 0 14.82 3.7 30.54 21.95 15.9 18.46 18.08 21.3 18.1 23.26 0 1.76-1.2 2.2-13 4.84-11.73 2.63-17.03 6.98-31.33 25.73-14.37 18.85-16.92 21.2-23.92 21.92-7.4.75-12.5-.32-15.16-3.2-1.82-1.95-3.62-2.5-10-3.1l-7.8-.7.6 12.4c.32 6.82 1.1 28.15 1.7 47.4 1.4 43.15.78 51.57-4.65 63.7-5.6 12.55-7.12 13.57-9.87 6.68zm-17.02-141.5l10.7-1.75-.45-21.3c-.24-11.73-.65-21.5-.9-21.76-1.07-1.08-45 8.2-48.48 10.25-.74.44 2.5 5.25 8.96 13.34 5.57 6.97 11.7 15.18 13.63 18.25 1.93 3.08 4.04 5.4 4.68 5.15.65-.24 6-1.22 11.88-2.18zm60.57-15.28c15.68-23.36 20.6-35.43 16.35-40.12-2.54-2.82-5.6-2.57-26.65 2.14l-18.67 4.18-.54 8.1c-.3 4.46-.78 14.9-1.07 23.2l-.52 15.1 9.74.98c5.35.54 10.2.93 10.74.86.56-.06 5.33-6.56 10.63-14.44z"/><path fill="#871a1f" d="M64 444.96c-27.06-3.25-49.5-20.72-59.3-46.2l-3.2-8.26-.26-164.92C.94 42.1.44 56.02 7.88 40.5c9-18.8 25.75-32.2 46.9-37.56 7.6-1.92 11.15-1.97 127.27-1.7l119.46.26 8 2.8c21.75 7.64 36.87 22.32 45.18 43.88l2.83 7.32v335l-3.18 8.27c-10.1 26.17-32.17 42.98-60.8 46.3-9.64 1.1-220.18 1-229.5-.1zm242.5-6.18c21.52-7.33 38.33-23.7 45.22-44.07l2.8-8.2v-327l-2.84-8c-8.6-24.3-28.2-41.25-53.3-46.06-11.22-2.14-226.53-2.14-237.74 0-25.1 4.8-44.72 21.75-53.3 46.07l-2.83 8v326l2.9 8.8c7.68 23.47 27.06 40.66 52.1 46.23 4.85 1.08 28.48 1.3 122.5 1.15l116.5-.18 8-2.72zm-128.9-64.03c-5.96-9.26-9.33-52.78-8.07-104.5l.68-28.25-5.84.04c-3.22.02-8.92.63-12.68 1.35-5.45 1.05-7.4 1.95-9.7 4.46-3.45 3.8-6.3 3.97-11.06.73-6.73-4.6-34.7-38.6-50.07-60.92-4.28-6.22-4.84-7.64-4.84-12.28 0-6.77 2-15.4 3.57-15.4 2.54 0 13.3 9.02 22.63 18.98l9.7 10.34 28.04-9.4L168 170.5v-4.12c0-6.2-2.82-21.13-4.67-24.72-.9-1.74-4.95-6.76-9-11.16-14.5-15.72-15.87-24.7-5.2-33.9 5.8-5 11.58-8.3 15.9-9.1 3.05-.55 4.42-.05 10 3.66 8.4 5.6 29.16 26.14 31.87 31.55 1.16 2.33 2.1 5.25 2.1 6.5 0 1.32-2.5 5.36-5.83 9.43-6.93 8.48-9.34 13.23-9.96 19.58l-.44 4.73 6.87-2c12.14-3.55 37.3-8.93 41.65-8.92 9.32.03 16.57 5.8 35.85 28.5 11.9 14 13.48 16.3 12.2 17.6-.6.58-5.43 2.14-10.73 3.45-13.82 3.43-19.4 7.75-32.5 25.22-16.33 21.75-18.9 23.73-29.94 23.03-5.44-.35-6.77-.82-8.72-3.08-2-2.34-3.3-2.74-10.47-3.34l-8.18-.7.6 12.42c.32 6.82 1.1 28.15 1.72 47.4 1.44 44.35.86 51.1-5.54 64.9-2.45 5.28-4.92 9.6-5.5 9.6-.56 0-1.68-1-2.48-2.25zM159 231.53c5.23-.84 9.9-1.52 10.4-1.53.9 0 .37-42.57-.55-43.48-1.2-1.22-47.22 8.56-49.2 10.46-.46.45 2.84 5.25 7.33 10.67 4.5 5.42 10.7 13.57 13.78 18.1 3.9 5.74 6.1 8.12 7.18 7.8.86-.28 5.84-1.18 11.07-2.02zm61.46-15.28c15.2-23.18 19.77-34.23 16.62-40.1-1.67-3.13-6.37-2.8-27.2 1.85-9.82 2.2-18.05 4-18.28 4-.63 0-1.46 12.5-2.03 30.62l-.5 16.1 9.22 1c5.06.53 9.95 1.04 10.85 1.13 1.1.1 4.9-4.84 11.3-14.6z"/><path d="M64.82 444.98c-17.4-2.08-30.6-8.6-43.34-21.4-10.3-10.37-15.35-18.88-18.5-31.2-1.93-7.5-1.97-11.7-1.96-169.3C1.04 42.7.52 55.75 8.24 40c3.38-6.88 5.9-10.23 13.22-17.55C29.13 14.77 31.96 12.7 40 8.77 56.88.57 49.2 1 179.5 1 309.7 1 302.03.57 318.98 8.7c8.13 3.9 10.76 5.85 18.54 13.68 10.35 10.4 15.37 18.88 18.53 31.23C357.96 61.14 358 65.37 358 223c0 157.64-.04 161.87-1.97 169.4-3.18 12.45-8.15 20.83-18.47 31.16-10.23 10.24-19.78 15.9-33.27 19.7l-7.8 2.2-112.5.16c-61.87.08-115.5-.2-119.18-.64zm234.5-4.42c27.68-5.3 50.3-27.88 54.62-54.56.7-4.36 1.05-58.17 1.06-163.16 0-175.36.4-165.5-7.13-180.84-3.32-6.78-5.9-10.25-12.76-17.12-7.24-7.26-10.1-9.33-18.1-13.2C300.3 3.66 306.6 4 179.5 4S58.73 3.65 42 11.7c-8 3.84-10.86 5.93-18.1 13.18-7 7-9.4 10.2-12.7 17.12C3.6 57.93 4 47.28 4 222.87c0 171.97-.2 165.68 5.9 178.72 3.83 8.17 6.98 12.72 13.36 19.3 9.36 9.63 22.84 17.04 35.64 19.6 10.2 2.03 229.84 2.1 240.43.06z"/></g></g></svg>