<svg xmlns="http://www.w3.org/2000/svg" width="358.006" height="445.45" viewBox="0 0 358.00586 445.45047"><g><g><path fill="#bfbfbf" d="M59.08 444.42c-14.98-2.94-28.14-9.9-38.57-20.4-8.9-8.97-13.34-15.8-17.3-26.68L.5 390 .25 225.24C-.06 42.36-.46 54.2 6.6 39.9 13.54 25.8 24.88 14.64 39.5 7.44 55.7-.5 46.1 0 179 0c133 0 122.85-.54 139.5 7.5 18.68 9 32.47 25.8 37.57 45.76C357.95 60.6 358 65.92 358 222.5c0 157.55-.04 161.88-1.96 169.38-5.56 21.74-21.46 39.57-43.07 48.3-13.42 5.42-10.33 5.3-134.46 5.2-63.24-.05-117-.48-119.42-.96zm242.43-5.2c3.3-.95 10.15-3.76 15.22-6.24 15.96-7.83 27.73-21.34 33.96-38.98l2.83-8V223c0-155.22-.08-163.28-1.83-168.93C344.3 30.14 326 12.52 302.25 6.44 295 4.58 290.1 4.5 179 4.5 67.23 4.5 63.08 4.58 55.64 6.5 33.13 12.23 14.6 29.24 7.3 50.78l-2.8 8.23-.27 160c-.3 174.32-.5 168.07 5.23 181 9.45 21.36 30.92 37.32 54.36 40.4 3.68.5 57.3.82 119.2.72 103.23-.16 112.98-.3 118.5-1.9z"/><path fill="#bebebe" d="M58 443.95c-27.53-5.9-48.7-25.38-55.93-51.44C.02 385.1 0 383.77 0 222.5 0 61.26.03 59.9 2.08 52.5c5.5-19.86 21.3-38 40.48-46.47C57-.37 48.63 0 179.5 0h119l9.06 3.17c12.8 4.48 20.74 9.45 29.95 18.75 8.9 9 13.34 15.85 17.33 26.75L357.5 56l.27 163.8c.3 183.05.8 169.88-6.93 185.52-7.14 14.46-22.25 28.43-37.4 34.6-14.07 5.7-11.3 5.6-135.14 5.5-93.35-.06-114.96-.32-120.3-1.47zm243.5-4.73c3.3-.95 10.15-3.76 15.22-6.24 15.96-7.83 27.73-21.34 33.96-38.98l2.83-8V223c0-155.22-.08-163.28-1.83-168.93C344.3 30.14 326 12.52 302.25 6.44 295 4.58 290.1 4.5 179 4.5 67.23 4.5 63.08 4.58 55.64 6.5 33.13 12.23 14.6 29.24 7.3 50.78l-2.8 8.23-.27 160c-.3 174.32-.5 168.07 5.23 181 9.45 21.36 30.92 37.32 54.36 40.4 3.68.5 57.3.82 119.2.72 103.23-.16 112.98-.3 118.5-1.9z"/><path fill="#7f7f7f" d="M58 443.95c-27.53-5.9-48.7-25.38-55.93-51.44C.02 385.1 0 383.77 0 222.5 0 61.26.03 59.9 2.08 52.5c5.5-19.86 21.3-38 40.48-46.47C57-.37 48.63 0 179.5 0h119l9.06 3.17c12.8 4.48 20.74 9.45 29.95 18.75 8.9 9 13.34 15.85 17.33 26.75L357.5 56l.27 163.8c.3 183.05.8 169.88-6.93 185.52-7.14 14.46-22.25 28.43-37.4 34.6-14.07 5.7-11.3 5.6-135.14 5.5-93.35-.06-114.96-.32-120.3-1.47zm244-4.77c19.32-5.16 37-19.25 44.78-35.67 7.2-15.2 6.73-2.42 6.73-181.5V60l-2.33-7.5c-3.3-10.57-7.5-18-14.56-25.7-7.42-8.1-17.94-15.14-28.32-18.94L300.5 5 182 4.7C50.3 4.4 57.14 4.08 42.35 11.1 28.5 17.67 17.7 28.3 10.94 42c-7.3 14.75-6.9 4.18-6.9 180.5 0 174.85-.32 165.6 6.32 179.48 10.28 21.5 29.52 35.25 53.84 38.47 3.47.46 56.93.76 118.8.65 103.3-.17 113.04-.33 119-1.92z"/><path fill="#404040" d="M63.2 444.46c-9.2-1.23-16.7-3.62-25.2-8.03C20.4 427.27 8.35 412.6 2.35 393 .6 387.3.5 379.26.5 222.5V58l2.9-8.85C10.38 27.92 26.9 11.68 50 3.35L56.5 1 175.95.74C292.64.47 295.57.5 303.44 2.47c13.47 3.35 23.73 9.15 33.7 19.06 7.3 7.26 9.32 10.02 13.15 18.03 2.48 5.2 5.12 11.92 5.86 14.95 1.1 4.5 1.35 35.27 1.35 168.5 0 155.14-.08 163.32-1.83 169.5-5.37 19-19.42 35.97-36.77 44.38-17.72 8.6-7.9 8-135.9 8.22-62.42.1-116.33-.18-119.8-.64zm235.6-4.48c4.56-.9 11.58-3.4 17.2-6.14 8.15-3.95 10.8-5.9 18.5-13.72 6.96-7.04 9.86-10.86 12.76-16.82 7.16-14.7 6.7-2.82 6.73-180.83 0-178.95.55-165.12-7.14-180.96-3.35-6.9-5.76-10.1-12.74-17-9.26-9.17-17-13.92-29.6-18.14l-7-2.35-115-.27C52.66 3.4 58.76 3.1 42.5 10.98c-18.65 9.04-32 25.04-36.94 44.22C4.14 60.76 4 78 4.24 224.7L4.5 388l2.23 6.5c6.2 18.15 21.6 34.4 39.45 41.66 12.94 5.26 10.04 5.14 131.62 5.25 97.88.1 114.34-.1 121-1.42z"/><path fill="#3f3f3f" d="M63.46 444.42c-8.53-1-21.2-5.35-29.1-10-3.2-1.87-9.47-7.02-13.93-11.43-6.7-6.64-8.9-9.68-12.74-17.5-8.2-16.77-7.7-4.92-7.7-183C0 47.54-.3 56.5 6.46 42 15.62 22.34 33.07 8 54.47 2.53 62.12.56 65.44.52 179 .52c112.6 0 116.95.06 124.35 1.95 25.6 6.54 45.63 26.07 52.4 51.04 1.64 6.1 1.76 17.06 1.76 170V387l-2.72 8c-3.8 11.2-9.12 19.8-17.3 28.06-11.92 12.03-26.76 19.17-44.45 21.4-10.12 1.25-218.7 1.23-229.57-.04zm235.34-4.44c4.56-.9 11.58-3.4 17.2-6.14 8.15-3.95 10.8-5.9 18.5-13.72 6.96-7.04 9.86-10.86 12.76-16.82 7.16-14.7 6.7-2.82 6.73-180.83 0-178.95.55-165.12-7.14-180.96-3.35-6.9-5.76-10.1-12.74-17-9.26-9.17-17-13.92-29.6-18.14l-7-2.35-115-.27C52.66 3.4 58.76 3.1 42.5 10.98c-18.65 9.04-32 25.04-36.94 44.22C4.14 60.76 4 78 4.24 224.7L4.5 388l2.23 6.5c6.2 18.15 21.6 34.4 39.45 41.66 12.94 5.26 10.04 5.14 131.62 5.25 97.88.1 114.34-.1 121-1.42z"/><path d="M63.46 444.42c-8.53-1-21.2-5.35-29.1-10-3.2-1.87-9.47-7.02-13.93-11.43-6.7-6.64-8.9-9.68-12.74-17.5-8.2-16.77-7.7-4.92-7.7-183C0 47.54-.3 56.5 6.46 42 15.62 22.34 33.07 8 54.47 2.53 62.12.56 65.44.52 179 .52c112.6 0 116.95.06 124.35 1.95 25.6 6.54 45.63 26.07 52.4 51.04 1.64 6.1 1.76 17.06 1.76 170V387l-2.72 8c-3.8 11.2-9.12 19.8-17.3 28.06-11.92 12.03-26.76 19.17-44.45 21.4-10.12 1.25-218.7 1.23-229.57-.04zm243.05-6.14c21.26-7.24 37.82-23.42 44.78-43.77l2.23-6.5.3-162.5c.23-143.6.1-163.3-1.28-169.5-5.2-23.47-24.02-42.76-49-50.18-5.6-1.66-14.1-1.8-120.97-2.07C59.08 3.45 60.3 3.4 46.7 8.5 32.2 13.98 17.76 27.1 10.94 41 3.5 56.23 4 42.9 4 222.18c0 111.92.34 162.86 1.1 166.54.6 2.92 3.1 9.52 5.57 14.67 7.25 15.1 21.5 27.96 37.38 33.7 12.1 4.36 10.6 4.3 133.46 4.12l117-.2 8-2.72z"/></g></g></svg>