<svg xmlns="http://www.w3.org/2000/svg" width="358.817" height="445.709" viewBox="0 0 358.81662 445.70917"><g><g><path fill="#c2c6c1" d="M59.76 444.83C32.03 440.08 8.8 418.9 1.94 392.1.06 384.75 0 379.42 0 222.84 0 65.2.05 60.97 1.97 53.45 8.3 28.76 27.7 9.64 54 2.2 60.14.45 66.98.35 179 .35c132.9 0 123.33-.5 139.5 7.44 19.07 9.37 32.7 25.8 38.17 46.06 1.63 6.03 1.77 17.52 2.08 162 .2 93.85-.05 159.3-.63 165.1-1.77 17.9-7.7 30.4-20.62 43.4-8.65 8.7-17.8 14.2-31 18.64l-7 2.35-117.5.14c-64.62.07-119.63-.23-122.24-.67zm233.1-4.03c23.47-2.94 44.1-17.2 54.08-37.34 7.55-15.24 7.13-3.8 6.83-183.9l-.27-161.2-2.68-7.35c-3.92-10.7-8.38-17.65-16.82-26.16-8.74-8.8-19.47-14.92-31.62-18.03-7.44-1.9-11.6-1.95-123.38-1.95-111.05 0-115.98.07-123.23 1.93-23.66 6.05-42.22 23.94-49.4 47.64-1.7 5.58-1.83 15.15-2.1 164.36-.35 179.36-.77 168.7 7.27 184.9 10.08 20.3 30.6 34.45 53.96 37.2 10 1.16 217.98 1.1 227.36-.08zm-38.22-99.98c-4.12-1.24-5.9-3.16-13.07-14-3.52-5.35-9.13-12.64-12.48-16.22-3.36-3.58-6.1-7.08-6.1-7.77 0-.98 3.17-1.14 14.25-.72 23 .87 32.35 5.15 39.85 18.23 5.3 9.24 3.2 14.42-7.46 18.35-6.8 2.5-11.5 3.18-15 2.14zm-106-4.98l-3.67-3.23 8.26-5.07c10.1-6.22 24.54-20.22 28.06-27.23 2.6-5.2 6.2-16.3 5.5-17-.23-.22-4.65.08-9.83.66-5.2.57-11.56.9-14.16.72l-4.72-.33-2.14 6c-3.74 10.42-15.52 33.8-19.7 39.08-4.82 6.1-8.5 7.84-15.24 7.2-6.35-.62-12.32-4.56-25.25-16.66L86 310.85h-5.54c-3.48 0-6.92-.7-9.25-1.9-8.48-4.36-18.2-14.3-18.2-18.63 0-2.37 2.5-4.08 3.54-2.42 1.6 2.62 9.2 5.3 14.96 5.27 10.04-.02 31.16-7.2 58.08-19.7 6.65-3.1 12.84-5.62 13.75-5.62.92 0 1.67-.62 1.67-1.38 0-2.03-2.85-9.75-4.58-12.4l-1.5-2.3-6.7 3.57c-3.7 1.96-10.5 6.93-15.1 11.04-8.13 7.22-8.57 7.47-13.5 7.46-3.3 0-6.25-.7-8.3-1.94-3.55-2.16-5.96-5.83-4.66-7.1.46-.44 4.9-2.58 9.86-4.76 4.96-2.17 16.26-7.58 25.1-12l16.1-8.07 1.6-6.28c.86-3.47 1.48-6.4 1.37-6.5-.1-.1-5.04-.5-10.95-.9l-10.74-.73-7.88 7.54c-21.26 20.32-53.3 42-65.44 44.28-3.2.6-3.68.44-3.68-1.23 0-2.43 3.06-5.25 21.5-19.8 8.84-6.97 22.12-18.96 32.32-29.17l17.33-17.34-12-12.75c-19.6-20.85-21.76-23.88-20.98-29.4.22-1.58 1.1-2.46 2.66-2.68 3.62-.52 20.3 11 31.3 21.62l9.66 9.3 3.44-4.3c12.52-15.56 20.64-32.8 15.45-32.8-.73 0-6.7 1.77-13.26 3.93-17.2 5.64-18.77 5.84-21.88 2.72-1.4-1.4-2.56-3.2-2.56-3.95 0-.8 2.93-2.54 6.75-4.04 10.47-4.1 18.22-9.77 31.5-23.06 13.76-13.75 20.17-18.57 25.7-19.3 3.15-.44 4.05-.13 5.4 1.8 1.85 2.64 2.2 12.77.7 19.3-.9 3.83-.78 4.05 5.23 10.76 3.37 3.76 6.45 6.85 6.83 6.85 1.18 0 8.6-12.3 11.22-18.62 3.34-8.02 4.72-15.1 5.23-26.75.34-7.75.9-10.6 2.52-13.25 1.15-1.86 2.53-3.38 3.06-3.38 2.35 0 14.02 15.68 15.82 21.26 1.17 3.62 1.02 4.14-3.55 12.5-2.62 4.82-6.7 12.28-9.05 16.6-4.95 9.1-8.4 13.84-13.3 18.36l-3.5 3.22 3.46 3.78c1.9 2.08 5.7 6.14 8.43 9l4.95 5.23 4.83-7.23c2.95-4.38 5.7-10.08 6.98-14.47 1.17-4 2.56-7.25 3.1-7.25 1.52 0 9.82 6.43 14.55 11.3 3.43 3.5 4.26 5.03 4 7.3-.3 2.63-.75 2.94-4.96 3.43-4.93.57-9.18 3.08-17.2 10.18l-4.84 4.3 16.33 17.2c9 9.48 28.98 29.38 44.43 44.22 26.43 25.4 32.15 31.65 34.4 37.6 1 2.58-.56 3.5-2.55 1.52-1.54-1.52-29.08-13.97-40.26-18.2-27.3-10.3-32.06-14.66-51.74-47.35-28.44-47.24-46.22-75.52-47.46-75.5-.27.02-1.78 3.34-3.34 7.4-5.76 15.02-21.98 39.45-37.6 56.68l-7.47 8.2 3.9-.72c5.5-1.02 11.06-4.05 17.9-9.74 5-4.17 6.44-4.87 9.47-4.62 2.77.24 4.08 1.06 5.85 3.7 1.25 1.87 2.28 4.42 2.28 5.66 0 2.68-4.54 6.8-9.46 8.57-2.72.98-3.9 2.3-5.57 6.16-1.16 2.7-1.96 5.05-1.8 5.22.2.17 4.38-1.44 9.33-3.57s10.18-4.3 11.63-4.8c2.3-.83 2.78-1.8 3.82-7.78 3.08-17.7 3.86-34.15 2-42.26-1.3-5.55-.25-6.87 4-5.1 3.48 1.43 12.46 11.3 14.02 15.42 2.88 7.6.03 18.37-10.88 41.12l-6.84 14.23 6.12-1.4c9.8-2.25 12.1-3.2 19.3-7.98 6.06-4.02 7.32-4.48 11.33-4.12 5.64.5 9.75 2.47 12.26 5.87 3.8 5.1-1.5 8.85-15.66 11.05l-7.23 1.13.35 8.6c.2 4.73.58 10.48.86 12.77l.52 4.18 3.7-.58c6.02-.94 24.38-4.98 28.74-6.33 5.45-1.7 9.88-.7 17.56 3.95 4.95 3 6.4 4.4 6.4 6.22 0 3.24-3.63 3.75-27.6 3.82-10.8.02-21.68.33-24.2.67l-4.55.63-.6 7.62c-1.46 18.02-5 28.5-11.98 35.5-6.74 6.73-21.4 12.83-34.16 14.2-5.84.62-6.22.52-9.75-2.58zm-25.62-22c4.4-3.13 11.3-12.78 15.5-21.6 1.9-4.04 3.48-7.8 3.48-8.38 0-1.25-2.2-.76-14.5 3.2-9.8 3.17-14.68 5.82-27.33 14.78l-8.33 5.9 6.32 3.2c13.05 6.57 18.75 7.24 24.86 2.9zm65.52-39.2c.9-.9 3.14-11.78 4.02-19.54l.7-6.25h-9.56c-9.5 0-9.58.02-11.7 3-2.04 2.86-5.75 5.58-6.54 4.8-.2-.22.73-3.97 2.08-8.34 1.35-4.37 2.46-8.04 2.46-8.14 0-.26-11.97 3.88-19.25 6.65-5.67 2.16-7.38 4.48-4.2 5.7 3.9 1.5 10.1 12.27 11.93 20.7l.6 2.87 14.4-.38c7.9-.2 14.68-.68 15.06-1.06z"/><path fill="#bebebe" d="M59.76 444.83C32.03 440.08 8.8 418.9 1.94 392.1.06 384.75 0 379.42 0 222.84 0 65.2.05 60.97 1.97 53.45 8.3 28.76 27.7 9.64 54 2.2 60.14.45 66.98.35 179 .35c132.9 0 123.33-.5 139.5 7.44 19.07 9.37 32.7 25.8 38.17 46.06 1.63 6.03 1.77 17.52 2.08 162 .2 93.85-.05 159.3-.63 165.1-1.77 17.9-7.7 30.4-20.62 43.4-8.65 8.7-17.8 14.2-31 18.64l-7 2.35-117.5.14c-64.62.07-119.63-.23-122.24-.67zm233.1-4.03c23.47-2.94 44.1-17.2 54.08-37.34 7.55-15.24 7.13-3.8 6.83-183.9l-.27-161.2-2.68-7.35c-3.92-10.7-8.38-17.65-16.82-26.16-8.74-8.8-19.47-14.92-31.62-18.03-7.44-1.9-11.6-1.95-123.38-1.95-111.05 0-115.98.07-123.23 1.93-23.66 6.05-42.22 23.94-49.4 47.64-1.7 5.58-1.83 15.15-2.1 164.36-.35 179.36-.77 168.7 7.27 184.9 10.08 20.3 30.6 34.45 53.96 37.2 10 1.16 217.98 1.1 227.36-.08zm-37.6-99.7c-3.2-.56-7.35-5.05-13.73-14.85-3.05-4.68-8.47-11.62-12.04-15.42-3.58-3.8-6.5-7.37-6.5-7.94 0-1.6 20.33-1.27 28.34.43 10.03 2.12 16.73 5.54 20.87 10.63 8.8 10.8 9.78 15.28 4.48 20.27-4.64 4.37-15.62 7.9-21.42 6.87zM149 335.9c-3.3-3-3.4-3.24-1.6-4.36 23.6-14.76 33.82-25.86 38.14-41.47.96-3.45 1.54-6.47 1.3-6.7-.23-.25-4.68 0-9.88.56-5.2.55-11.63.87-14.28.7l-4.83-.28-1.8 5c-6.53 18.23-16.78 37.15-23.46 43.3-3.88 3.57-5.2 4.2-8.83 4.2-6.86-.03-13.35-3.9-25.77-15.36l-11.5-10.62-5.43-.02c-6.8-.02-12.4-2.62-19.4-9.04-6.43-5.87-9.7-11.35-7.86-13.18 1-1 1.6-1 2.98 0 7.86 5.7 17.65 6.08 32.4 1.3 11.42-3.7 31.05-11.67 40.56-16.46 3.72-1.88 8.7-4 11.1-4.7 4.2-1.27 4.3-1.38 3.67-4.73-.8-4.32-4.6-12.2-5.85-12.2-2.42 0-14.33 7.7-19.94 12.88-8.48 7.86-10.54 9.1-14.95 9.1-4.23 0-9.63-1.93-11.4-4.08-3.23-3.93-2.38-4.63 15.15-12.7 9.35-4.3 20.8-9.83 25.47-12.27l8.47-4.44 1.85-6.35c1-3.5 1.7-6.5 1.52-6.67-.18-.18-5.12-.64-10.98-1.03l-10.67-.72-9.33 8.4c-31.25 28.1-65.98 49.5-67.6 41.7-.25-1.18 4.8-5.8 16.45-15.1 21.2-16.93 34.66-29.07 45.74-41.3l8.72-9.64-2.33-2.63c-1.28-1.43-7-7.54-12.68-13.56C89.35 179.9 84 172.9 84 169.7c0-2.72 1.66-4.86 3.77-4.86 3 0 23.16 14.92 31.4 23.25l8.64 8.74 4.97-6.75c11.24-15.3 16.93-26.27 15.53-29.93-.78-2-2.5-1.7-17.54 3.22-7.8 2.53-14.74 4.27-15.8 3.93-3.1-1-6.18-5.5-4.84-7.13.62-.74 1.7-1.36 2.4-1.36s5.38-2.05 10.4-4.56c8.12-4.07 10.87-6.27 25.36-20.25 9.9-9.55 17.9-16.42 20.43-17.56 8.58-3.85 11.96.18 11.03 13.17-.3 4.24-.83 8.42-1.18 9.3-.43 1.06 1.5 3.88 6.05 8.8l6.68 7.2 2.92-4.3c4-5.92 7.72-13.26 9.87-19.5 2.06-5.97 4.35-23.6 3.74-28.76-.3-2.72.26-4.2 2.7-7.13l3.1-3.7 5.75 6.9c3.15 3.8 6.9 9.27 8.32 12.17l2.6 5.28-2.93 5.72c-9.02 17.7-17.3 31.15-22.44 36.5l-5.6 5.82 7.86 8.7c4.32 4.8 8.23 8.83 8.7 8.98.9.3 6.82-8.24 9.88-14.33 1.1-2.18 2.54-6.32 3.22-9.2.68-2.9 1.58-5.26 2-5.26 1.35 0 13.65 9.75 16.37 13 4.5 5.32 3.08 9-3.43 9-2.73 0-4.98.98-8.6 3.75-9.3 7.08-12.3 9.75-12.3 10.9 0 1.3 44.95 46.8 72.53 73.44 12.72 12.28 18.84 18.95 20.8 22.65 1.54 2.88 2.6 5.24 2.38 5.24-.2 0-6.88-3.1-14.8-6.87-7.92-3.78-20.92-9.44-28.9-12.58-28.4-11.2-31.34-13.93-52.48-49.08-18.85-31.34-32.76-53.9-40-64.9-5.32-8.08-7.5-10.2-7.53-7.33 0 .68-2.42 6.2-5.35 12.24-6.9 14.24-18.96 32.06-31.45 46.5-5.47 6.33-9.56 11.65-9.1 11.83.48.18 3.33-.4 6.34-1.27 3.73-1.08 7.86-3.5 12.92-7.57 8.47-6.82 11.38-7.45 15.2-3.3 5.46 5.86 4.16 9.9-4.6 14.33-3.28 1.66-5.96 3.2-5.96 3.46 0 .25-.86 2.64-1.92 5.33l-1.92 4.87 11.17-4.83c6.14-2.67 11.67-4.84 12.3-4.85 1.2 0 1.7-2.32 3.88-18 1.68-12.08 1.93-27 .55-31.82-1.1-3.82-.47-6.2 1.63-6.2 2.17 0 13.23 10.93 15.43 15.22 3.96 7.75 2.16 15.44-9.65 41.08-5.27 11.44-6.8 15.67-5.6 15.34.9-.24 4.96-1.22 9-2.17 5.42-1.27 9.3-3.04 14.76-6.72 6.92-4.67 7.72-4.96 11.92-4.4 5.72.8 10 3 12.13 6.25 1.6 2.45 1.57 2.65-.74 4.96-2.33 2.32-15.36 6.44-20.42 6.44-2.14 0-2.2.25-1.8 9.75.62 14.75.98 16.35 3.62 15.8 1.2-.27 7.35-1.43 13.64-2.58 6.3-1.16 13-2.76 14.88-3.54 1.88-.8 4.73-1.44 6.33-1.44 3.43 0 15.54 5.9 18.22 8.86 4.6 5.1-.15 6.12-28.87 6.15-10.45 0-20.65.3-22.68.62l-3.67.6-.64 7.64c-1.42 17.13-4.53 26.74-11 33.92-6.98 7.77-21.32 14.2-35.16 15.76-5.57.63-6 .52-9.34-2.5zm-28.08-20.5c5.03-2.6 12.07-11.63 17.15-21.98 2.7-5.54 4.5-10.22 3.94-10.4-1.5-.5-20.82 5.7-26.13 8.4-3.58 1.8-21.87 14.1-23.7 15.92-.62.62 8.65 5.6 14 7.5 6.44 2.33 10.98 2.5 14.75.55zM187 274.95c2.28-.63 2.65-1.54 4.15-10.15.9-5.2 1.7-10.9 1.75-12.64l.1-3.18-9.58-.32-9.57-.3-1.95 3.14c-1.8 2.9-3.76 4.35-5.92 4.35-.47 0 .24-3.25 1.6-7.22 1.34-3.96 2.33-7.54 2.18-7.95-.14-.42-4.53.76-9.76 2.6-13.8 4.87-15 5.4-15 6.65 0 .62 2.2 3.55 4.9 6.5 4.58 5 7.1 9.95 8.55 16.67l.6 2.75 12.72-.1c7-.06 13.86-.4 15.23-.8z"/><path fill="#868f85" d="M57.67 444.23C32.05 438.7 11 419.9 2.83 395.35l-2.33-7v-331l2.76-8.13C10.54 27.72 28.5 10.75 52.5 2.7l7-2.35 115-.3c78.57-.18 117.2.07 121.98.8 23.7 3.67 44.3 18.56 54.58 39.5 8.05 16.4 7.44 1.34 7.44 182.5 0 181.17.6 166.12-7.45 182.5-8.95 18.2-25.76 31.98-46.55 38.18-5.6 1.67-13.82 1.8-123 1.98-100 .18-118 0-123.83-1.27zm245.47-5.1c20.47-5.77 35.78-18.37 44.4-36.5 6.77-14.3 6.43-4.62 6.43-179.78 0-176.36.4-165.78-6.9-180.5-7-14.08-16.64-23.72-30.57-30.52-15.2-7.42-7.65-7.06-140.24-6.75L57.5 5.35 49.08 8.6c-21.15 8.13-35.8 23.47-42.25 44.25l-2.33 7.5v325l2.34 7.5c3.66 11.73 7.88 18.7 16.66 27.6 11.6 11.73 24.46 18.22 40.22 20.3 3.73.48 57.4.8 119.28.72 112.05-.16 112.53-.17 120.14-2.33zm-47.88-98.03c-3.2-.56-7.35-5.05-13.73-14.85-3.05-4.68-8.47-11.62-12.04-15.42-3.58-3.8-6.5-7.37-6.5-7.94 0-1.6 20.33-1.27 28.34.43 10.03 2.12 16.73 5.54 20.87 10.63 8.8 10.8 9.78 15.28 4.48 20.27-4.64 4.37-15.62 7.9-21.42 6.87zM149 335.9c-3.3-3-3.4-3.24-1.6-4.36 23.6-14.76 33.82-25.86 38.14-41.47.96-3.45 1.54-6.47 1.3-6.7-.23-.25-4.68 0-9.88.56-5.2.55-11.63.87-14.28.7l-4.83-.28-1.8 5c-6.53 18.23-16.78 37.15-23.46 43.3-3.88 3.57-5.2 4.2-8.83 4.2-6.86-.03-13.35-3.9-25.77-15.36l-11.5-10.62-5.43-.02c-6.8-.02-12.4-2.62-19.4-9.04-6.43-5.87-9.7-11.35-7.86-13.18 1-1 1.6-1 2.98 0 7.86 5.7 17.65 6.08 32.4 1.3 11.42-3.7 31.05-11.67 40.56-16.46 3.72-1.88 8.7-4 11.1-4.7 4.2-1.27 4.3-1.38 3.67-4.73-.8-4.32-4.6-12.2-5.85-12.2-2.42 0-14.33 7.7-19.94 12.88-8.48 7.86-10.54 9.1-14.95 9.1-4.23 0-9.63-1.93-11.4-4.08-3.23-3.93-2.38-4.63 15.15-12.7 9.35-4.3 20.8-9.83 25.47-12.27l8.47-4.44 1.85-6.35c1-3.5 1.7-6.5 1.52-6.67-.18-.18-5.12-.64-10.98-1.03l-10.67-.72-9.33 8.4c-31.25 28.1-65.98 49.5-67.6 41.7-.25-1.18 4.8-5.8 16.45-15.1 21.2-16.93 34.66-29.07 45.74-41.3l8.72-9.64-2.33-2.63c-1.28-1.43-7-7.54-12.68-13.56C89.35 179.9 84 172.9 84 169.7c0-2.72 1.66-4.86 3.77-4.86 3 0 23.16 14.92 31.4 23.25l8.64 8.74 4.97-6.75c11.24-15.3 16.93-26.27 15.53-29.93-.78-2-2.5-1.7-17.54 3.22-7.8 2.53-14.74 4.27-15.8 3.93-3.1-1-6.18-5.5-4.84-7.13.62-.74 1.7-1.36 2.4-1.36s5.38-2.05 10.4-4.56c8.12-4.07 10.87-6.27 25.36-20.25 9.9-9.55 17.9-16.42 20.43-17.56 8.58-3.85 11.96.18 11.03 13.17-.3 4.24-.83 8.42-1.18 9.3-.43 1.06 1.5 3.88 6.05 8.8l6.68 7.2 2.92-4.3c4-5.92 7.72-13.26 9.87-19.5 2.06-5.97 4.35-23.6 3.74-28.76-.3-2.72.26-4.2 2.7-7.13l3.1-3.7 5.75 6.9c3.15 3.8 6.9 9.27 8.32 12.17l2.6 5.28-2.93 5.72c-9.02 17.7-17.3 31.15-22.44 36.5l-5.6 5.82 7.86 8.7c4.32 4.8 8.23 8.83 8.7 8.98.9.3 6.82-8.24 9.88-14.33 1.1-2.18 2.54-6.32 3.22-9.2.68-2.9 1.58-5.26 2-5.26 1.35 0 13.65 9.75 16.37 13 4.5 5.32 3.08 9-3.43 9-2.73 0-4.98.98-8.6 3.75-9.3 7.08-12.3 9.75-12.3 10.9 0 1.3 44.95 46.8 72.53 73.44 12.72 12.28 18.84 18.95 20.8 22.65 1.54 2.88 2.6 5.24 2.38 5.24-.2 0-6.88-3.1-14.8-6.87-7.92-3.78-20.92-9.44-28.9-12.58-28.4-11.2-31.34-13.93-52.48-49.08-18.85-31.34-32.76-53.9-40-64.9-5.32-8.08-7.5-10.2-7.53-7.33 0 .68-2.42 6.2-5.35 12.24-6.9 14.24-18.96 32.06-31.45 46.5-5.47 6.33-9.56 11.65-9.1 11.83.48.18 3.33-.4 6.34-1.27 3.73-1.08 7.86-3.5 12.92-7.57 8.47-6.82 11.38-7.45 15.2-3.3 5.46 5.86 4.16 9.9-4.6 14.33-3.28 1.66-5.96 3.2-5.96 3.46 0 .25-.86 2.64-1.92 5.33l-1.92 4.87 11.17-4.83c6.14-2.67 11.67-4.84 12.3-4.85 1.2 0 1.7-2.32 3.88-18 1.68-12.08 1.93-27 .55-31.82-1.1-3.82-.47-6.2 1.63-6.2 2.17 0 13.23 10.93 15.43 15.22 3.96 7.75 2.16 15.44-9.65 41.08-5.27 11.44-6.8 15.67-5.6 15.34.9-.24 4.96-1.22 9-2.17 5.42-1.27 9.3-3.04 14.76-6.72 6.92-4.67 7.72-4.96 11.92-4.4 5.72.8 10 3 12.13 6.25 1.6 2.45 1.57 2.65-.74 4.96-2.33 2.32-15.36 6.44-20.42 6.44-2.14 0-2.2.25-1.8 9.75.62 14.75.98 16.35 3.62 15.8 1.2-.27 7.35-1.43 13.64-2.58 6.3-1.16 13-2.76 14.88-3.54 1.88-.8 4.73-1.44 6.33-1.44 3.43 0 15.54 5.9 18.22 8.86 4.6 5.1-.15 6.12-28.87 6.15-10.45 0-20.65.3-22.68.62l-3.67.6-.64 7.64c-1.42 17.13-4.53 26.74-11 33.92-6.98 7.77-21.32 14.2-35.16 15.76-5.57.63-6 .52-9.34-2.5zm-28.08-20.5c5.03-2.6 12.07-11.63 17.15-21.98 2.7-5.54 4.5-10.22 3.94-10.4-1.5-.5-20.82 5.7-26.13 8.4-3.58 1.8-21.87 14.1-23.7 15.92-.62.62 8.65 5.6 14 7.5 6.44 2.33 10.98 2.5 14.75.55zM187 274.95c2.28-.63 2.65-1.54 4.15-10.15.9-5.2 1.7-10.9 1.75-12.64l.1-3.18-9.58-.32-9.57-.3-1.95 3.14c-1.8 2.9-3.76 4.35-5.92 4.35-.47 0 .24-3.25 1.6-7.22 1.34-3.96 2.33-7.54 2.18-7.95-.14-.42-4.53.76-9.76 2.6-13.8 4.87-15 5.4-15 6.65 0 .62 2.2 3.55 4.9 6.5 4.58 5 7.1 9.95 8.55 16.67l.6 2.75 12.72-.1c7-.06 13.86-.4 15.23-.8z"/><path fill="#7f7f7f" d="M57.67 444.23C32.05 438.7 11 419.9 2.83 395.35l-2.33-7v-331l2.76-8.13C10.54 27.72 28.5 10.75 52.5 2.7l7-2.35 115-.3c78.57-.18 117.2.07 121.98.8 23.7 3.67 44.3 18.56 54.58 39.5 8.05 16.4 7.44 1.34 7.44 182.5 0 181.17.6 166.12-7.45 182.5-8.95 18.2-25.76 31.98-46.55 38.18-5.6 1.67-13.82 1.8-123 1.98-100 .18-118 0-123.83-1.27zm245.47-5.1c20.47-5.77 35.78-18.37 44.4-36.5 6.77-14.3 6.43-4.62 6.43-179.78 0-176.36.4-165.78-6.9-180.5-7-14.08-16.64-23.72-30.57-30.52-15.2-7.42-7.65-7.06-140.24-6.75L57.5 5.35 49.08 8.6c-21.15 8.13-35.8 23.47-42.25 44.25l-2.33 7.5v325l2.34 7.5c3.66 11.73 7.88 18.7 16.66 27.6 11.6 11.73 24.46 18.22 40.22 20.3 3.73.48 57.4.8 119.28.72 112.05-.16 112.53-.17 120.14-2.33zM251.8 339.2c-1.47-.96-5.5-6.04-8.92-11.3-3.42-5.25-9.08-12.52-12.55-16.13-3.48-3.62-6.33-7.4-6.33-8.4 0-1.7.84-1.8 12.25-1.22 19.88 1 30.08 4.56 36.66 12.83 9.06 11.36 8.77 17.28-1.07 22.2-7.26 3.63-16.13 4.52-20.02 2zm-103.26-3.85c-1.63-1.33-2.75-2.57-2.5-2.76.25-.2 4.28-2.8 8.94-5.8 16.45-10.58 27.76-24.4 31.38-38.34l1.52-5.9-6.7.64c-3.67.35-10.62.63-15.43.64-7.24 0-8.75.27-8.75 1.56 0 2.18-7.28 19.12-13.16 30.6-8.78 17.2-15.05 22.2-24.86 19.84-6.03-1.45-10.57-4.65-23.27-16.42-9.6-8.9-9.86-9.07-14.2-8.74-3.15.24-5.97-.37-9.72-2.1-9.25-4.3-19.67-15.25-18.18-19.12.83-2.17 1.68-2.05 5.96.86 7.4 5.03 15.5 4.67 33.65-1.5 6.77-2.3 19.28-7.3 27.8-11.16 8.53-3.84 17.6-7.64 20.13-8.44l4.64-1.46-.94-4.16c-1.05-4.7-4.73-11.75-6.12-11.75-2.76 0-14.03 7.37-20.9 13.68-5.55 5.1-8.94 7.44-11.44 7.9-6.4 1.2-15.36-2.96-15.36-7.14 0-.86 1.7-2.24 3.75-3.1 2.06-.83 13.5-6.26 25.43-12.07l21.67-10.55 1.73-6.4c1.04-3.84 1.37-6.77.83-7.3-.5-.5-5.45-1-11-1.15l-10.12-.25-10.4 9.32c-19.4 17.43-37.57 30.5-52.3 37.7-9.1 4.42-14.58 5.53-14.58 2.94 0-.77 7.3-7.22 16.25-14.34 20.3-16.15 35.94-30.33 46.63-42.24 8.15-9.08 8.24-9.23 6.44-11.3-1-1.16-7.14-7.76-13.64-14.66C89 179.44 84 172.77 84 169.37c0-2.36 1.74-4.52 3.65-4.52 3.06 0 23.43 15.02 31.57 23.28l8.7 8.84 6.57-8.8c6.6-8.9 14.5-23.17 14.5-26.2-.06-4.43-1.25-4.4-15.68.3-15.32 5-19.17 5.5-21.66 2.75-2.92-3.23-2-4.78 4.18-7.03 9.54-3.5 17.76-9.58 33.13-24.55 8-7.78 16.17-14.93 18.18-15.88 4.57-2.16 9.2-2.2 10.94-.12 1.5 1.8 1.82 11.45.62 18.43-.77 4.5-.76 4.55 5.5 11.67 3.46 3.92 6.68 7.04 7.17 6.92 1.87-.46 10.62-16.5 13.15-24.12 2.07-6.2 2.78-10.7 3.2-20.1.5-11.24.7-12.3 3.23-15.38l2.7-3.3 5.55 6.88c6.53 8.13 9.78 13.9 9.76 17.38-.02 1.38-2.03 6.12-4.48 10.52-2.46 4.4-6.6 12.02-9.24 16.95-2.87 5.38-7.05 11.28-10.46 14.8l-5.7 5.82 8.13 8.96c4.47 4.93 8.45 8.97 8.86 8.97 1.7 0 10.86-15.35 12.36-20.7.9-3.2 1.84-6.4 2.08-7.13.34-1 1.26-.76 3.7.93 7.16 4.94 13.55 10.98 14.8 14 1.17 2.83 1.12 3.3-.55 4.53-1.04.75-3.4 1.37-5.27 1.37-3.3 0-7.18 2.53-18.02 11.72l-3.28 2.8 21.92 22.48c12.05 12.37 31.9 31.95 44.1 43.5C307.9 274.27 318 285.63 318 289.22c0 .64-5.8-1.63-12.88-5.04-7.08-3.4-19.35-8.74-27.25-11.86-7.9-3.12-17.52-7.32-21.37-9.32-11.97-6.25-15.87-11.15-37.93-47.66-20.94-34.64-36-58.7-40.28-64.34l-2.55-3.35-3.8 9.07c-7.25 17.3-19.13 35.32-36.27 55-8.9 10.2-8.98 10.35-5.6 9.65 5.95-1.23 13.23-5.05 18.9-9.9 3.03-2.6 6.55-4.97 7.84-5.3 5-1.25 9.7 4.15 9 10.32-.26 2.34-1.35 3.38-6.17 5.85-5.7 2.92-8.1 5.82-10.07 12.18-.62 2 .3 1.8 11.62-2.87 6.77-2.78 12.45-5.2 12.64-5.36.2-.17 1.23-5.4 2.32-11.63 1.56-8.94 1.9-14.64 1.62-27.07-.34-15.2-.28-15.75 1.64-15.75 3.27 0 14.24 12 15.6 17.08 2.03 7.5-2.12 21.1-13.22 43.27-2.7 5.42-4.7 10.1-4.4 10.37.27.28 3.8-.28 7.8-1.25 7.45-1.8 12.7-4.2 20.96-9.6 4.52-2.96 4.83-3.02 10.2-1.9 9.52 1.97 13.84 7.88 8.38 11.46-2.23 1.46-10.53 3.78-18.06 5.04l-3.83.64.7 12.7c.4 6.98.9 12.9 1.1 13.13.74.8 25.75-4.15 31.26-6.2 5.15-1.92 5.68-1.94 10.53-.4 6 1.9 14.37 6.96 15.25 9.24.34.9-.02 2-.78 2.5-.77.48-9.5.93-19.4 1-9.9.07-22.27.42-27.5.77l-9.5.65-.68 10.25c-1.08 16.3-5.33 27.98-12.45 34.23-7.6 6.68-24.7 13.05-34.83 12.98-3.8-.02-5.76-.6-8-2.45zm-30.07-18.5c2.53 0 11.5-9.2 15.93-16.32 4.22-6.8 9.1-17.52 8.3-18.3-.48-.5-18.6 5.22-24.3 7.66-5.77 2.46-26.45 17.05-25.76 18.17.28.45 3.63 2.4 7.45 4.32 7.17 3.6 13.42 5.53 15.73 4.84.73-.22 1.92-.4 2.64-.4zm70.73-41.8c1-1 4.9-25.25 4.22-26.33-.3-.48-4.76-.87-9.92-.87-9.25 0-9.4.04-11.06 2.83-1.74 2.94-5.26 5.68-6.15 4.8-.3-.3.43-3.33 1.6-6.77 2.72-8.08 2.7-9.16-.15-8.33-6 1.75-19.5 6.86-21.6 8.18l-2.38 1.5 4.5 4.64c5.2 5.33 8.4 11.2 9.32 17 .4 2.46 1.28 4.24 2.27 4.55 2.35.73 28.47-.34 29.33-1.2z"/><path fill="#485447" d="M63.32 444.77c-16.32-1.94-30.24-8.8-42.45-20.94-7.3-7.27-9.32-10.03-13.15-18.03-2.5-5.2-5.13-11.93-5.87-14.95C.75 386.35.5 355.58.5 222.35v-163l2.34-7.5c3.9-12.5 8.78-20.65 17.65-29.52 9.06-9.07 17.37-14.3 29-18.26l8-2.72 119-.3c133.88-.33 125.27-.78 142 7.3 18.04 8.7 30.74 23.4 36.67 42.5l2.33 7.5v329l-2.33 7.5C347.8 418.6 329.42 436 304.3 443.1l-7.8 2.2-113 .16c-62.15.1-116.23-.22-120.18-.7zm243.18-6.24c23.6-8.3 39.83-25.4 46.22-48.68 1.67-6.12 1.78-16.1 1.78-167 0-179.13.54-165.27-6.97-180.5-6.68-13.57-17.14-23.7-32.03-31.03-16.04-7.9-10-7.58-140-7.26l-115 .3-7 2.33c-12.6 4.22-20.36 8.97-29.6 18.13-6.78 6.7-9.46 10.26-12.67 16.73-7.8 15.7-7.33 3.28-7 184.8l.27 162 2.2 5.76c4.45 11.65 8.6 18.1 17.26 26.83 7.17 7.22 10.06 9.34 18.04 13.23 16.3 7.93 9 7.55 140 7.35l116.5-.18 8-2.82zm-54.7-99.34c-1.47-.96-5.5-6.04-8.92-11.3-3.42-5.25-9.08-12.52-12.55-16.13-3.48-3.62-6.33-7.4-6.33-8.4 0-1.7.84-1.8 12.25-1.22 19.88 1 30.08 4.56 36.66 12.83 9.06 11.36 8.77 17.28-1.07 22.2-7.26 3.63-16.13 4.52-20.02 2zm-103.26-3.85c-1.63-1.33-2.75-2.57-2.5-2.76.25-.2 4.28-2.8 8.94-5.8 16.45-10.58 27.76-24.4 31.38-38.34l1.52-5.9-6.7.64c-3.67.35-10.62.63-15.43.64-7.24 0-8.75.27-8.75 1.56 0 2.18-7.28 19.12-13.16 30.6-8.78 17.2-15.05 22.2-24.86 19.84-6.03-1.45-10.57-4.65-23.27-16.42-9.6-8.9-9.86-9.07-14.2-8.74-3.15.24-5.97-.37-9.72-2.1-9.25-4.3-19.67-15.25-18.18-19.12.83-2.17 1.68-2.05 5.96.86 7.4 5.03 15.5 4.67 33.65-1.5 6.77-2.3 19.28-7.3 27.8-11.16 8.53-3.84 17.6-7.64 20.13-8.44l4.64-1.46-.94-4.16c-1.05-4.7-4.73-11.75-6.12-11.75-2.76 0-14.03 7.37-20.9 13.68-5.55 5.1-8.94 7.44-11.44 7.9-6.4 1.2-15.36-2.96-15.36-7.14 0-.86 1.7-2.24 3.75-3.1 2.06-.83 13.5-6.26 25.43-12.07l21.67-10.55 1.73-6.4c1.04-3.84 1.37-6.77.83-7.3-.5-.5-5.45-1-11-1.15l-10.12-.25-10.4 9.32c-19.4 17.43-37.57 30.5-52.3 37.7-9.1 4.42-14.58 5.53-14.58 2.94 0-.77 7.3-7.22 16.25-14.34 20.3-16.15 35.94-30.33 46.63-42.24 8.15-9.08 8.24-9.23 6.44-11.3-1-1.16-7.14-7.76-13.64-14.66C89 179.44 84 172.77 84 169.37c0-2.36 1.74-4.52 3.65-4.52 3.06 0 23.43 15.02 31.57 23.28l8.7 8.84 6.57-8.8c6.6-8.9 14.5-23.17 14.5-26.2-.06-4.43-1.25-4.4-15.68.3-15.32 5-19.17 5.5-21.66 2.75-2.92-3.23-2-4.78 4.18-7.03 9.54-3.5 17.76-9.58 33.13-24.55 8-7.78 16.17-14.93 18.18-15.88 4.57-2.16 9.2-2.2 10.94-.12 1.5 1.8 1.82 11.45.62 18.43-.77 4.5-.76 4.55 5.5 11.67 3.46 3.92 6.68 7.04 7.17 6.92 1.87-.46 10.62-16.5 13.15-24.12 2.07-6.2 2.78-10.7 3.2-20.1.5-11.24.7-12.3 3.23-15.38l2.7-3.3 5.55 6.88c6.53 8.13 9.78 13.9 9.76 17.38-.02 1.38-2.03 6.12-4.48 10.52-2.46 4.4-6.6 12.02-9.24 16.95-2.87 5.38-7.05 11.28-10.46 14.8l-5.7 5.82 8.13 8.96c4.47 4.93 8.45 8.97 8.86 8.97 1.7 0 10.86-15.35 12.36-20.7.9-3.2 1.84-6.4 2.08-7.13.34-1 1.26-.76 3.7.93 7.16 4.94 13.55 10.98 14.8 14 1.17 2.83 1.12 3.3-.55 4.53-1.04.75-3.4 1.37-5.27 1.37-3.3 0-7.18 2.53-18.02 11.72l-3.28 2.8 21.92 22.48c12.05 12.37 31.9 31.95 44.1 43.5C307.9 274.27 318 285.63 318 289.22c0 .64-5.8-1.63-12.88-5.04-7.08-3.4-19.35-8.74-27.25-11.86-7.9-3.12-17.52-7.32-21.37-9.32-11.97-6.25-15.87-11.15-37.93-47.66-20.94-34.64-36-58.7-40.28-64.34l-2.55-3.35-3.8 9.07c-7.25 17.3-19.13 35.32-36.27 55-8.9 10.2-8.98 10.35-5.6 9.65 5.95-1.23 13.23-5.05 18.9-9.9 3.03-2.6 6.55-4.97 7.84-5.3 5-1.25 9.7 4.15 9 10.32-.26 2.34-1.35 3.37-6.17 5.85-5.7 2.92-8.1 5.82-10.07 12.18-.62 2 .3 1.8 11.62-2.87 6.77-2.78 12.45-5.2 12.64-5.36.2-.17 1.23-5.4 2.32-11.63 1.56-8.94 1.9-14.64 1.62-27.07-.34-15.2-.28-15.75 1.64-15.75 3.27 0 14.24 12 15.6 17.08 2.03 7.5-2.12 21.1-13.22 43.27-2.7 5.42-4.7 10.1-4.4 10.37.27.28 3.8-.28 7.8-1.25 7.45-1.8 12.7-4.2 20.96-9.6 4.52-2.96 4.83-3.02 10.2-1.9 9.52 1.97 13.84 7.88 8.38 11.46-2.23 1.46-10.53 3.78-18.06 5.04l-3.83.64.7 12.7c.4 6.97.9 12.9 1.1 13.13.74.8 25.75-4.15 31.26-6.2 5.15-1.92 5.68-1.94 10.53-.4 6 1.9 14.37 6.96 15.25 9.24.34.9-.02 2-.78 2.5-.77.48-9.5.93-19.4 1-9.9.07-22.27.42-27.5.77l-9.5.65-.68 10.25c-1.08 16.3-5.33 27.98-12.45 34.23-7.6 6.68-24.7 13.05-34.83 12.98-3.8-.02-5.76-.6-8-2.45zm-30.07-18.5c2.53 0 11.5-9.2 15.93-16.32 4.22-6.8 9.1-17.52 8.3-18.3-.48-.5-18.6 5.22-24.3 7.66-5.77 2.46-26.45 17.05-25.76 18.17.28.45 3.63 2.4 7.45 4.32 7.17 3.6 13.42 5.53 15.73 4.84.73-.22 1.92-.4 2.64-.4zm70.73-41.8c1-1 4.9-25.25 4.22-26.33-.3-.48-4.76-.87-9.92-.87-9.25 0-9.4.04-11.06 2.83-1.74 2.94-5.26 5.68-6.15 4.8-.3-.3.43-3.33 1.6-6.77 2.72-8.08 2.7-9.16-.15-8.33-6 1.75-19.5 6.86-21.6 8.18l-2.38 1.5 4.5 4.64c5.2 5.33 8.4 11.2 9.32 17 .4 2.46 1.28 4.24 2.27 4.55 2.35.73 28.47-.34 29.33-1.2z"/><path fill="#0e1f0b" d="M63.66 444.7c-26.4-3.38-49.37-20.97-58.6-44.85-1.58-4.13-3.4-11.1-4.02-15.5-.82-5.8-1.05-51.84-.8-166.5.35-176.9-.26-162 7.34-177.53 6.9-14.1 18.2-25 33.77-32.57C56.43.43 49.7.75 182 1.05l118.5.3 8 2.8c18.85 6.62 33.87 19.5 41.96 35.95 8.03 16.35 7.54 4.38 7.52 183.06-.02 178.62.5 166.23-7.6 182.66-3.85 7.78-6.15 10.92-12.8 17.5-4.47 4.42-10.73 9.57-13.93 11.45-8.37 4.93-20.45 8.92-30.46 10.06-10.82 1.24-219.82 1.13-229.54-.12zM305.5 439c24.13-8.1 40.56-24.88 47.16-48.17 1.75-6.17 1.84-14.26 1.84-167.98 0-153.68-.1-161.82-1.84-168-6.3-22.32-23.42-40.04-46.16-47.78l-8-2.72H180c-111.46 0-118.9.1-125 1.8C34.87 11.8 18 25.8 9.83 43.63c-6.2 13.52-5.88 3.6-5.6 181.95l.27 162.78 2.68 7.33c8.5 23.26 26.86 39.25 51.32 44.7 4.84 1.07 28.56 1.3 123 1.15l117-.18 7-2.35zm-53.2-100.12c-1.9-1.14-6-6.2-9.9-12.1-3.65-5.57-9.3-12.95-12.52-16.4-3.24-3.46-5.88-6.8-5.88-7.4 0-1.43 11.83-1.48 21.5-.1 9.48 1.35 16.45 3.46 20.5 6.2 4.72 3.17 11.7 12 12.9 16.32 1.78 6.5-1.18 9.93-11.66 13.53-7.05 2.43-10.9 2.4-14.95-.05zM149 335.35c-1.3-1.37-2.15-2.7-1.9-2.93.23-.24 4-2.77 8.4-5.64 9.4-6.14 20.26-16.33 24.6-23.1 2.78-4.33 8.48-19.6 7.63-20.44-.18-.18-7.12-.05-15.42.3l-15.07.6-1.17 3.9c-2.26 7.54-13.2 30.4-17.86 37.24-6.06 8.95-9 11.1-15.06 11-6.8-.1-12.86-3.82-25.96-15.94L85.9 309.9l-4.28.58c-3.43.47-5.4.04-9.9-2.15-9.26-4.54-20.23-16.58-17.54-19.26.77-.77 2.22-.33 5.07 1.56 10.3 6.8 28.78 2.56 68.75-15.78 6.88-3.16 13.7-6.02 15.15-6.36 2.53-.6 2.6-.8 1.72-4.75-.92-4.06-3.18-9.23-5.1-11.65-1.5-1.87-11.3 3.72-20.4 11.65-11.04 9.62-12.58 10.44-17.9 9.64-4.5-.68-10.47-4.65-10.47-6.98 0-.68 5.74-3.86 12.75-7.06 7-3.2 18.45-8.66 25.42-12.13l12.67-6.32 1.5-5.27c2.87-10.05 3.67-9.2-9.34-9.83l-11.5-.54-8.07 7.64c-16.7 15.82-38.5 31.72-54.37 39.7-7.87 3.94-14.06 5.43-14.06 3.37 0-1.28 6.92-7.3 22-19.12 13.46-10.58 37.44-32.98 45.2-42.23 2.92-3.5 3.88-5.37 3.23-6.28-.5-.72-6.7-7.47-13.75-15C83.83 173.17 81 168.5 86.06 165.8c1.76-.95 3.5-.14 12.25 5.67 5.6 3.7 14.6 11.02 19.97 16.22 9.26 8.97 9.84 9.36 11.22 7.54 15.83-20.92 22.57-34.4 18.47-36.94-.57-.35-7.3 1.43-14.94 3.94-15.56 5.14-18.16 5.45-21.03 2.6-2.25-2.27-2.65-5-.72-5 1.97 0 15.27-6.6 20.36-10.1 2.5-1.74 10.03-8.67 16.7-15.4 6.7-6.76 14.4-13.68 17.1-15.4 5.44-3.42 10.55-4.04 12.63-1.53 1.48 1.78 1.8 10.18.7 18.42l-.74 5.5 6.5 7 6.5 7 2.48-3c1.38-1.65 4.55-7.05 7.05-12 5.14-10.15 7.36-20.03 7.42-32.95.03-6.88.38-8.45 2.6-11.67l2.6-3.72 3.2 3.68c8.3 9.45 12.63 16.4 12.63 20.3 0 1.88-3.3 8.14-17.54 33.37-1.24 2.2-4.6 6.36-7.48 9.23l-5.22 5.22 6.02 6.77c3.32 3.73 7.32 8 8.88 9.48l2.86 2.7 5.14-7.7c3.2-4.78 5.95-10.47 7.3-14.98l2.14-7.27 5.74 4.42c6.04 4.65 13.16 12 13.16 13.56 0 2.1-3.37 4.07-7 4.07-3.24 0-5.1.98-11.27 5.94-4.07 3.26-7.9 6.56-8.53 7.3-1.55 1.87 23.1 27.84 60.84 64.12 20.54 19.74 29.32 28.86 31.3 32.53 1.54 2.8 2.6 5.1 2.37 5.1-.2 0-6.88-3.1-14.8-6.86-7.92-3.78-21-9.43-29.06-12.55-25.43-9.86-30.33-14.3-47.77-43.18-22.33-37-38.45-63.05-44.37-71.73l-6-8.8-2.7 6.93c-7.25 18.65-24.64 44.7-41.32 61.9-2.78 2.88-4.8 5.48-4.5 5.8.73.7 9.47-1.4 12.9-3.1 1.43-.72 5.03-3.28 8-5.7 9.4-7.65 11.9-8.12 15.9-3.03 4.24 5.4 2.15 9.7-6.7 13.68-3.28 1.48-4.38 2.75-6.25 7.26-1.24 3-2.03 5.7-1.74 6 .27.27 2.24-.35 4.35-1.4 2.12-1.05 7.53-3.37 12.02-5.15 4.5-1.8 8.42-3.88 8.72-4.65 2.02-5.3 3.8-25.3 3.4-38.68-.38-13.95-.3-14.75 1.48-14.75 2.22 0 11.95 9.64 14.42 14.3 3.98 7.48 1.46 17.5-11.1 44.1-3.1 6.55-5.4 12.13-5.12 12.4.28.3 4.4-.44 9.17-1.6 6.6-1.64 10.5-3.37 16.47-7.28l7.82-5.14 5.1 1.22c5.72 1.38 10.96 5.23 10.96 8.06 0 3.3-6.73 6.07-20.32 8.4l-3.83.66.7 12.7c.4 6.97.88 12.88 1.1 13.12.72.8 24.86-3.82 31.56-6.06l6.72-2.24 8.53 4.22c9.3 4.6 11.9 7.35 8.63 9.1-1.1.6-8.26 1.05-16.26 1.05-7.88 0-20 .3-26.93.65l-12.6.64-.63 10.1c-.98 16.02-4.7 26.62-11.77 33.7-6.9 6.92-24.82 13.9-35.62 13.9-3.96 0-5.4-.48-7.28-2.5zm-25.53-21.3c2.18-1.5 6.25-6.12 9.04-10.23 4.96-7.3 11.3-20.5 10.32-21.5-.66-.64-18 4.64-24.64 7.53-2.93 1.27-10.27 5.8-16.3 10.08L90.9 307.7l4.8 2.83c6.9 4.05 17.23 7.44 20.8 6.82 1.65-.3 4.8-1.77 6.97-3.3zM183.5 276l6-.65 1.6-8.07c.9-4.44 1.94-10.62 2.33-13.75l.7-5.68h-10.5c-9.32 0-10.56.2-11.08 1.84-.66 2.07-5.3 6.73-6 6.03-.26-.26.62-4 1.95-8.3l2.42-7.82-2.82.58c-5.67 1.13-23.04 8.07-23.55 9.4-.3.8 1.57 3.48 4.37 6.28 4.73 4.73 9.08 13.33 9.08 17.95 0 1.05.8 2.1 1.75 2.36 2.57.67 16.83.57 23.75-.17z"/><path d="M63.66 444.7c-26.4-3.38-49.37-20.97-58.6-44.85-1.58-4.13-3.4-11.1-4.02-15.5-.82-5.8-1.05-51.84-.8-166.5.35-176.9-.26-162 7.34-177.53 6.9-14.1 18.2-25 33.77-32.57C56.43.43 49.7.75 182 1.05l118.5.3 8 2.8c18.85 6.62 33.87 19.5 41.96 35.95 8.03 16.35 7.54 4.38 7.52 183.06-.02 178.62.5 166.23-7.6 182.66-3.85 7.78-6.15 10.92-12.8 17.5-4.47 4.42-10.73 9.57-13.93 11.45-8.37 4.93-20.45 8.92-30.46 10.06-10.82 1.24-219.82 1.13-229.54-.12zM305.5 439c24.13-8.1 40.56-24.88 47.16-48.17 1.75-6.17 1.84-14.26 1.84-167.98 0-153.68-.1-161.82-1.84-168-6.3-22.32-23.42-40.04-46.16-47.78l-8-2.72H180c-111.46 0-118.9.1-125 1.8C34.87 11.8 18 25.8 9.83 43.63c-6.2 13.52-5.88 3.6-5.6 181.95l.27 162.78 2.68 7.33c8.5 23.26 26.86 39.25 51.32 44.7 4.84 1.07 28.56 1.3 123 1.15l117-.18 7-2.35z"/></g></g></svg>