<svg xmlns="http://www.w3.org/2000/svg" width="358.834" height="445.79" viewBox="0 0 358.83395 445.79004"><g><g><path fill="#c38c8f" d="M56.47 444.38c-20.93-4.56-39.73-19.07-48.98-37.82C-.58 390.26-.1 402.82.2 220.1L.48 57.34l2.76-8.13C10.6 27.46 29.34 9.94 53 2.7L60.5.4l113-.32c76.3-.22 115.65.02 121.15.75 33.82 4.44 59.1 29.08 63.43 61.82.66 5.02.9 62.7.7 165.7-.34 177.33.37 161.42-7.92 178.5-3.4 6.98-5.77 10.13-13.27 17.6-10.42 10.35-20.16 15.92-34 19.4-7.68 1.94-11.2 2-124.5 1.92-92.17-.06-117.85-.35-122.6-1.4zm246-4.8c20.2-5.88 35.64-18.36 44.48-35.94 7.57-15.04 7.13-3.25 6.82-183.8l-.3-161.5-2.66-7.33c-3.86-10.57-8.36-17.62-16.33-25.62-8.14-8.16-16.73-13.47-28-17.3l-8-2.73-115.5-.3c-81.3-.2-117.4.05-122 .83-25.66 4.4-47.9 24.7-54.73 49.97-1.64 6.07-1.76 17.17-1.76 167.5 0 181.4-.67 165.58 7.8 182 4.83 9.32 15.9 21.02 24.9 26.32 6.6 3.9 17.3 7.78 24.93 9.06 3.04.52 55.3.84 119.88.75 105.75-.14 114.96-.3 120.5-1.9zm-141-44.9c-20.76-13.82-48.96-25.32-74.04-30.2-12.05-2.34-18-3.05-34.33-4.1-7.54-.47-9.25-1.62-6.66-4.5 2.12-2.33 9.1-5.08 20.73-8.15 10.35-2.74 36.28-3.38 39.2-.97.93.77 1.34 1.77.9 2.2-.45.45-6.2 1.3-12.8 1.92-6.6.6-12.35 1.46-12.8 1.9-.43.43 1.67 1.07 4.67 1.42 8.53 1 35.08 8 46.14 12.15 11.5 4.3 25.12 10.96 34.13 16.66l6.25 3.94 4.82-3.45c2.65-1.9 9.54-5.95 15.3-9 22.24-11.72 40.23-18.02 59.05-20.67 4.65-.66 9.14-1.4 9.96-1.66.83-.25-3-2.4-8.5-4.74-7.66-3.28-10-4.72-10-6.18 0-1.72.77-1.9 8-1.8 6.8.08 9.45.67 17.5 3.88 14.48 5.77 20.94 9.28 22.2 12.08.8 1.74.83 2.82.1 3.55-.57.57-7.96 1.7-16.42 2.5-43.97 4.12-68 12.82-96.2 34.84-3.22 2.5-6.37 4.5-7 4.47-.65-.05-5.23-2.8-10.18-6.08zm7.5-18c-9.4-6.83-23.2-14.6-29.83-16.8-3.5-1.17-10.37-2.72-15.3-3.45-4.9-.73-9.07-1.5-9.23-1.7-.15-.2-1.5-11.86-3-25.88-3.47-32.7-3.04-30.74-6.5-30.23-4.82.7-4.73-2.3.16-5.88 11.96-8.7 18.9-10.08 37.73-7.4 18.76 2.7 33.17 1.76 53.48-3.44 20.84-5.34 29.6-5.96 43.5-3.1 13.16 2.73 19 5.2 19 8 0 1.85-.6 2.05-6.4 2.05-5.8 0-6.42.2-6.9 2.25-.27 1.24-2.42 14.7-4.77 29.9l-4.26 27.67-11.58 3.7c-6.37 2.02-14.73 5.15-18.58 6.94-7.07 3.3-19.86 11.97-26.75 18.17-2.06 1.86-4.1 3.34-4.5 3.3-.4-.05-3.22-1.9-6.25-4.1zm7.43-6.7c.3-.47-.3-1.62-1.32-2.54-1.54-1.4-1.94-1.44-2.4-.26-.88 2.32 2.46 4.84 3.72 2.8zm-11.57-10.25c-2.2-1.65-4.85-1.05-4.85 1.1 0 1.5 4.47 2.8 5.83 1.7 1.08-.85.9-1.4-.97-2.8zm23.54.86c1.8-1.36 1.74-1.53-1.35-3.73l-3.24-2.3-2.33 2.9-2.34 2.88 2.16 1.67c2.2 1.7 3.2 1.5 7.1-1.43zm-33.4-7.9c0-.4-1-1.44-2.22-2.3-2.1-1.47-2.36-1.42-3.98.7-2.3 2.97-2.25 3.2.96 4.4 2.18.82 3.02.7 4-.5.7-.84 1.25-1.87 1.25-2.3zm20.63-5c-2.04-1.68-2.2-1.64-5.04 1.15l-2.93 2.9 2.34 1.88c2.32 1.9 2.34 1.88 5.04-1.14l2.72-3.04-2.12-1.75zm24.8 1.9l3.6-4.25-3.2-2.73c-3.05-2.6-3.28-2.66-5.1-1-1.07.95-2.8 2.96-3.9 4.47l-1.94 2.74 2.8 2.47c1.56 1.37 3.12 2.5 3.5 2.52.36 0 2.27-1.88 4.24-4.22zm-58.5-7.67c-3.08-2.57-4.16-2.57-6.5.02-1.88 2.08-1.87 2.12 1.08 4.48l3 2.38 2.42-2.42 2.44-2.43-2.43-2.02zm24.08-1.08c0-.5-1-1.6-2.25-2.48-2.12-1.5-2.37-1.45-4.5 1-1.23 1.42-2.25 3-2.25 3.48 0 .5 1.02 1.6 2.25 2.48 2.13 1.5 2.38 1.44 4.5-1 1.24-1.43 2.25-3 2.25-3.48zm58.62 3.33l5.3-1.67-3.7-2.8c-2.05-1.53-4-2.8-4.35-2.82-.34-.02-1.87 1.6-3.38 3.58-2.22 2.9-2.48 3.78-1.37 4.48 1.8 1.13 1.37 1.17 7.5-.76zm-37.2-5.24l3.8-3.9-2.64-1.73c-1.45-.94-2.74-1.54-2.86-1.33-.12.22-1.8 2.12-3.72 4.2-3.38 3.7-3.43 3.87-1.55 5.25 2.64 1.95 2.64 1.95 6.96-2.48zm-58.24-6.64c-2.64-2.3-2.7-2.3-4.62-.42-1.93 1.9-1.93 1.94.43 4.45l2.37 2.53 2.25-2.1 2.24-2.13-2.68-2.33zm83.74 2.33l2.38-2.72-2.4-2c-1.32-1.1-2.87-2-3.46-2.02-1.17-.03-7.05 5.75-6.36 6.27.23.18 1.74 1.32 3.35 2.54 1.6 1.2 3.2 1.86 3.52 1.43.33-.43 1.67-2 2.98-3.5zm-57.92-2.85c0-.4-1.17-1.47-2.6-2.4-2.53-1.67-2.68-1.64-5.56 1.13l-2.96 2.84 2.8 2.22 2.78 2.23 2.77-2.67c1.54-1.46 2.78-2.97 2.78-3.35zm21-1.08l3.34-4.16-2.33-1.88c-2.33-1.88-2.35-1.88-5.68 1.34-3.92 3.8-4.13 5.18-1.1 7.3 1.2.85 2.26 1.55 2.32 1.55.06 0 1.6-1.87 3.45-4.15zm56.04-3.06l.77-4.3-2.94 3.5c-2.7 3.2-2.8 3.6-1.22 4.74 2.16 1.6 2.43 1.27 3.38-3.94zm-32.52-2l2.7-3.2-2.32-1.88c-2.3-1.86-2.33-1.86-5.03 1.46-2.5 3.06-2.6 3.47-1.14 5.08 2.16 2.38 2.7 2.24 5.8-1.45zm-59.33-.47c2.62-2.5 2.7-2.8 1.15-4.5-2.25-2.5-3.5-2.3-6.7 1.03l-2.72 2.85 2.3 1.6c2.98 2.08 2.74 2.12 5.97-.98zm26.8-6.86c0-.62-.9-1.97-2-2.97-2-1.8-2.12-1.76-6.02 2.05l-3.98 3.9 2.76 2.2 2.75 2.22 3.25-3.12c1.8-1.72 3.25-3.64 3.25-4.27zm56.87-1.42c-3.05-2.54-2.98-2.55-6.42 1.05l-2.94 3.08 2.88 2.32 2.88 2.3 2.98-3.38 2.98-3.4-2.36-1.96zm-94.55-5.8c-2.82-2.25-5.3-2.3-10.82-.2-1.82.68-1.6 1.1 2.44 4.87l4.43 4.13 3.37-3.26 3.38-3.27-2.8-2.26zm59 5.97c2.08-2.18 2.4-3.07 1.48-4-1.77-1.77-4.2-1.47-7.2.9-2.57 2.02-2.62 2.22-1 4 2.32 2.56 3.56 2.4 6.72-.9zm-36.38-3.63l2.3-2.44-3.63-.68c-2.43-.45-4.17-.24-5.23.64-1.44 1.2-1.37 1.5.62 3.12 2.84 2.3 3.2 2.27 5.92-.64zm59.3-.83l2.5-3.27-2.3-1.75c-2.28-1.7-2.38-1.68-5 1.77-2.2 2.87-2.45 3.77-1.43 5 1.88 2.28 3.5 1.82 6.23-1.76zm22.03-2.5c.87-.96 1.88-2.95 2.24-4.4.54-2.2.25-2.8-1.6-3.38-1.8-.57-2.83-.04-5.07 2.66l-2.8 3.37 2.1 1.75c1.14.96 2.4 1.75 2.8 1.75.4 0 1.45-.8 2.32-1.75zm-41.02-9.14c17.7-6.53 22.5-7.5 34.6-6.9 10.6.5 11.15.3 11.15-4.25 0-2.62-4.87-3.34-18.37-2.67-9.7.48-12.7 1.1-23.62 4.87l-12.5 4.33h-15c-9.6.02-19.7-.67-28.1-1.9-9.83-1.44-14.42-1.7-18.5-1l-5.4.92-.3 4.38c-.32 4.34-.3 4.37 2.5 3.7 1.54-.38 7.75-.92 13.8-1.2 9.23-.43 12.86-.1 22.5 1.95 17.7 3.8 21.57 3.56 37.25-2.22zm28.27.07c-.8-.8-2.52 1-1.9 2 .4.67.92.56 1.46-.3.45-.73.65-1.5.44-1.7zm-59.52-19.3c-6.76-2.7-10.43-10-8-15.9 2.56-6.15 12.8-12.13 17.97-10.5 1.46.47 2-.06 2.53-2.47.37-1.68 1.77-4.37 3.12-5.96 2.78-3.3 10.32-6.56 13.35-5.77 1.8.47 2.03.06 2.03-3.42 0-5.17 2.16-9.16 6.35-11.75 9.03-5.58 20.65.73 20.65 11.2 0 7.02-8 14.3-14.63 13.33-2.65-.4-3.06-.2-2.66 1.35.25 1-.42 3.82-1.5 6.26-2.35 5.3-7.55 8.9-13.24 9.1-3.6.14-3.96.4-3.97 2.86-.02 3.38-5.3 9.6-9.72 11.44-3.74 1.56-8.7 1.65-12.3.23zm-45.5-8.5c-22.47-6.07-24.87-6.52-37.82-7.07-13.93-.6-16.68-1.4-16.68-4.8 0-2.13 9.82-10.17 16.98-13.9 14.62-7.64 30.35-10.14 45.07-7.17 9.3 1.87 23.33 7.97 26.43 11.47 1.97 2.23 1.97 2.24-.34 6.26-3.24 5.63-6.22 14.65-5.07 15.36 2.54 1.56-.44 6.63-3.75 6.4-.45-.04-11.62-3-24.82-6.56zm20.88-5.13c1.36-4.66 2.55-13.73 1.88-14.4-.42-.4-2.38-1.43-4.37-2.25l-3.6-1.5-.65 6.1c-1.05 10.06-.83 12.6 1.1 13.1 3.6.94 5.14.65 5.64-1.05zm-16.9-4.5c.3-1.24 1.14-5.25 1.9-8.92 1.3-6.5 1.3-6.7-.76-7.24-1.17-.3-3.64-.57-5.5-.58h-3.4l.64 6.14c.36 3.38.64 7.4.64 8.92 0 2.64 1.03 3.46 4.74 3.8.67.08 1.46-.88 1.75-2.12zm-16.46-7c0-2.9.3-6.3.63-7.55.56-2.1.37-2.25-2.27-1.66-6.56 1.46-6.38 1.26-6.38 6.87 0 5.1.13 5.33 3.25 6.33 1.8.58 3.6 1.1 4 1.15.42.05.76-2.26.77-5.15zm-16.84-1.16l.4-3.4-5.04 2.6-5.04 2.63 3.5.66c1.93.36 4.02.7 4.65.8.62.06 1.32-1.42 1.53-3.3zm217.82 12.26c-4.12-.96-13.12-2.73-20-3.92-13.98-2.42-27.06-2.25-37.22.5-3.14.83-6.34 1.3-7.1 1-1.04-.4-1.53-3.92-2-14.23-.88-20.1-4.08-31.2-11.25-39.16-4.87-5.4-16.64-13.16-33.92-22.35-7.7-4.1-15.47-8.3-17.27-9.33-3.28-1.88-5.24-5.84-3.6-7.3.5-.42 12.13-1.4 25.88-2.16 46.87-2.6 52.8-1.95 62.63 6.94 8.56 7.74 11.34 13.53 11.37 23.67.02 11.9-3.64 18.9-16.68 31.8-7.54 7.43-9.86 10.33-9.6 12 .18 1.2.77 2.06 1.3 1.92.55-.15 4.36-1.46 8.48-2.93 10.8-3.83 24.14-3.93 32-.22 3.03 1.43 7.9 4.75 10.8 7.38 5.75 5.2 14.56 16.1 14.03 17.35-.17.43-3.7 0-7.82-.98zm-49.34-45.67c4.88-5.97 9.72-15.22 9.17-17.56-.43-1.87-20.82 21.78-20.82 24.16 0 1.04.3 2.17.64 2.52 1.06 1.06 6.1-3.1 11.02-9.12zm6.34-30.95c0-1.94-7.5-9.65-8.7-8.92-.55.35-4.7 6.47-9.2 13.6l-8.2 12.98 1.65 3.2 1.65 3.18 11.4-11.37c6.27-6.25 11.4-11.96 11.4-12.67zm-28.17-1.4c4.04-5.54 7.58-10.7 7.87-11.46.4-1.07-.78-1.37-5.4-1.37h-5.94l-4.5 9.78-4.5 9.77 2.08 1.68c1.15.92 2.3 1.7 2.58 1.7.28 0 3.8-4.53 7.83-10.1zm-17.92-5.58l3.13-6.25h-4.75c-6.14.03-7.3.86-7.94 5.63-.48 3.65-.3 4.02 2.83 5.52 1.85.88 3.4 1.55 3.5 1.48.06-.07 1.53-2.94 3.25-6.38zm-18.12-4.06c.26-.8-.92-1.18-3.44-1.16-3.83.04-3.83.04-1.34 1.47 2.77 1.57 4.18 1.48 4.78-.3zm113.14 58.03c-4.52-4.04-5.17-10.58-1.5-14.95 5.35-6.35 13.77-6.4 19.05-.13 2.87 3.4 3.25 7.56 1.1 11.75-3.45 6.64-13.02 8.34-18.65 3.32zm-221.34-5.8c-.87-.86-1.57-1.87-1.57-2.24 0-3.54 14.24-18.45 23.03-24.13 8.93-5.78 14.72-7.42 23.87-6.8 9.52.66 20.13 4.24 35.08 11.83 17.86 9.06 21.2 11.42 20.82 14.7l-.32 2.72-20.5.6c-11.27.34-23.42 1.1-27 1.72-8.46 1.43-32.15 3.17-43.17 3.17-6.55 0-9.06-.37-10.24-1.56zm20.8-9.17c-1.26-5.34-1.77-5.45-5.87-1.26l-3.92 4h5.22c5.2 0 5.22 0 4.57-2.74zm20.62-4.13c0-7.9-.93-12.12-2.68-12.12-2.7 0-11.42 4.28-11 5.4.24.6 1.24 3.7 2.24 6.85l1.8 5.75H129.98v-5.88zm21.66 2.52c.1-.1.47-2.22.84-4.76l.7-4.6-3.85-1.52c-2.12-.84-5.37-1.86-7.22-2.26l-3.37-.73.7 5.86c1.14 9.78 1 9.6 6.9 8.82 2.83-.4 5.23-.76 5.3-.83zm18.26-1.03c-.23-.2-2.33-1.34-4.67-2.52l-4.25-2.14v2.53c0 2.33.35 2.52 4.67 2.52 2.57 0 4.48-.17 4.25-.38zm-100.68 6.38c-4.07-2.48-6.76-7.8-5.82-11.52 3.1-12.32 23.13-12.1 26.24.3 1.5 6.02-5.64 13.2-13.16 13.2-2.23 0-5.44-.87-7.26-1.98zm204.35-3.08c-3.5-4.17-3.4-8.27.34-12 1.62-1.6 3.9-2.92 5.06-2.92 3.82 0 7.8 2.82 8.97 6.34 3.05 9.23-8.16 15.93-14.36 8.57zm-84.98-6.88c-4.97-4.96-20.98-13.2-39.98-20.54-18-6.97-25.5-11.8-31.24-20.2-6.6-9.67-8.78-16.26-8.84-26.8-.05-7.56.33-9.8 2.35-13.9 4.8-9.77 20.5-21.6 28.67-21.6 6.77 0 5.5 3.5-3.12 8.55-3.52 2.07-6.16 4.13-5.87 4.6.3.47 3.65.85 7.46.85 6.35 0 6.94-.18 6.94-2.07 0-4.8 4.55-8 6.7-4.68.44.7.86 6.87.92 13.75.08 9.52.63 14.4 2.3 20.5 4.68 17 9.87 24.95 29.6 45.33 10.03 10.37 13.48 14.58 13.48 16.45 0 2.35-1.65 3.76-4.33 3.7-.64-.03-2.92-1.8-5.06-3.94zM166.85 194c-7.83-10.54-11.3-14.6-12.25-14.33-.6.18-3.74 1.5-6.96 2.93l-5.84 2.6 12.84 5.2c7.07 2.88 13 5.27 13.22 5.33.2.07-.25-.7-1-1.73zm-22.23-19.56l7.14-2.68-1-3.3-1.02-3.3-11.84 4.6-11.84 4.56 2.56 2.67c2.38 2.47 2.8 2.57 5.7 1.4 1.75-.7 6.38-2.48 10.3-3.96zm-9.4-14.23c9.57-2.2 11.75-3.02 11.75-4.46 0-.98-.33-1.96-.75-2.2-.98-.54-28.2 1.93-28.9 2.63-.3.3 0 2.2.66 4.2 1 3.03 1.57 3.56 3.34 3.1 1.18-.3 7.43-1.78 13.9-3.26zm9.75-19.85v-4.5h-9.37c-12.66 0-15.38.65-17.16 4.08-.8 1.55-1.46 3.3-1.46 3.87 0 .68 4.9 1.05 14 1.05h14v-4.5zm146.82 76.43c-4.06-3.03-5.36-8-3.25-12.44 3.3-6.95 11.07-8.5 16.9-3.4 2.93 2.58 3.53 3.8 3.53 7.08 0 5-1.28 7.4-4.98 9.32-4 2.07-9 1.84-12.2-.56zm-250.52-9.9c-6.93-4.22-8.12-11.4-2.77-16.76 3.27-3.26 3.9-3.5 8.36-3.06 5.66.55 9.43 3 11.66 7.6 4.7 9.68-7.35 18.25-17.24 12.23zm53.47-3c-7.37-5.8-5.5-16.54 3.48-19.94 5.2-1.96 12.22 2.56 13.35 8.6 1.3 6.84-3.86 13.3-10.6 13.3-2.2 0-4.75-.8-6.23-1.96zm-25.37-6.43c-3.85-3.85-4.4-7.74-1.83-12.73 1.9-3.65 7.46-6.24 11.5-5.35 4.4.96 7.94 5.8 7.9 10.8-.04 9.86-10.6 14.23-17.57 7.28zm208.26 1.27c-1-.6-2.48-2.6-3.26-4.47-1.23-2.94-1.23-3.86 0-6.82 3.26-7.78 13.3-7.55 16.6.38 1.5 3.63.04 8.2-3.36 10.6-2.43 1.7-7.34 1.85-9.98.32zm26.73-3.16c-7-6.4-5-17.2 3.84-20.54 4.78-1.82 8.25-.9 12.44 3.3 2.77 2.76 3.34 4.08 3.34 7.68-.02 11.28-11.58 16.92-19.6 9.56zm-251.1-14.9c-3.7-.98-7.76-5.85-8.73-10.46-1.48-6.97 4.98-14.27 11.37-12.87 1.53.34 4.3 2.2 6.18 4.12 3 3.1 3.4 4.13 3.4 8.85 0 8-5.03 12.28-12.2 10.37zm227.9-3.84c-3.87-2.36-6.56-8-5.7-11.93 1.47-6.68 10.26-10.8 16.34-7.64 8.22 4.24 7.96 16.1-.42 20.07-4.24 2-6.24 1.9-10.2-.5zm-204.14-9.6c-7.96-6.7-8-17.02-.1-23.67 7.56-6.36 18.6-.84 19.82 9.9 1.37 12.18-11.2 20.96-19.72 13.78zm135.1-27.12c-.52-.96-2.1-3.95-3.53-6.63l-2.6-4.88 4 .52c2.2.3 4.16.24 4.38-.12.22-.36.7-5.6 1.1-11.65l.7-11-5.34 5.14c-4.97 4.76-14.45 10.1-15.72 8.82-1-1 2.98-7.17 11.06-17.14 10.62-13.1 10.72-13.3 5.84-12-3.5.94-4.2.78-7.5-1.75-3.73-2.83-5.86-6.66-5.3-9.5.16-.87 2.1-2.15 4.28-2.84 2.2-.7 5.94-2 8.32-2.88 4.25-1.57 4.33-1.68 3.67-5.2-.38-1.97-1.77-4.87-3.1-6.45-2.62-3.12-3.8-6.5-3.24-9.4.27-1.42 1.87-2.05 7.34-2.9 3.84-.6 7.97-1.4 9.18-1.8 3.3-1.1 8 1.74 8.8 5.3.78 3.6-.5 6.2-3.92 8.04-3.27 1.76-3.74 7.05-.63 7.05 1.07 0 3.16 1.04 4.64 2.32 2.32 2 2.6 2.82 2.04 5.86-.53 2.9-1.38 3.86-4.72 5.37-3.7 1.67-4.02 2.1-3.48 4.76.32 1.62.58 3.33.58 3.8 0 .5.9.9 2 .9 3.08 0 6 3.55 6 7.3 0 4.16-1.55 5.73-4.98 5.04l-2.7-.54-.63 13.33c-.73 15.17-1.2 16.27-9.25 21.6-5.7 3.76-6.05 3.84-7.3 1.5zm63.2-2.74c-4.4-1.86-10.45-7.57-14.97-14.12l-3.84-5.58-1.5 2.34c-2.96 4.63-8.7 9.05-17.4 13.4-14.4 7.23-15.2 5.88-3.7-6.1 13.6-14.17 16.77-23.72 17.73-53.45.78-23.85 2.25-27.3 9.13-21.52 4.73 3.98 5.62 7.3 4.36 16.27-.6 4.26-1.36 11.57-1.7 16.25-.34 4.67-1.03 10.7-1.54 13.4l-.92 4.88 5.6 6.94c3.1 3.82 8.4 8.95 11.77 11.4 12.15 8.8 16.63 12.7 16.63 14.47 0 2.83-1.52 3.1-7.53 1.36-5-1.46-5.8-1.47-7.3-.12-1.42 1.3-2.12 1.32-4.8.18zm-32.47-40.52c-4.03-2.36-7.42-12.28-5.75-16.8.92-2.45 4.96-3 6.68-.93 1.45 1.75 4.17 9.8 4.2 12.4 0 3.22-3.12 6.5-5.12 5.34zm21.12-5.2c0-.76 3.04-5.1 6.75-9.68 3.72-4.57 7.47-9.5 8.34-10.96 2.1-3.55 4.36-3.8 7.35-.8 3.76 3.75 4.28 7.26 1.5 10.2-1.25 1.35-2.6 2.45-2.98 2.45-.38 0-4.24 1.98-8.57 4.4-9.36 5.23-12.4 6.3-12.4 4.38z"/><path fill="#8c948b" d="M54.98 443.8c-26.25-6.8-46.6-26.9-53-52.36-1.95-7.74-2-11.4-1.98-168C.02 46.84-.3 56.26 6.34 42.38 17.42 19.25 38.37 4.24 64.34.83c5.5-.73 44.7-.97 120.64-.75l112.5.32 7.48 2.3c13.42 4.1 22.55 9.6 32.6 19.6 7.4 7.37 9.86 10.62 13.25 17.55 8.34 17 7.68 1.37 7.68 183.5 0 153.7-.1 162.33-1.82 168.5-6.93 24.72-24.83 42.95-50.68 51.64-5.2 1.74-11.72 1.85-124.5 2.05-115.1.2-119.24.15-126.5-1.74zm248.5-4.3c20.24-6.05 35.46-18.6 44.1-36.34 6.7-13.82 6.37-4.27 6.4-180.4 0-155.6-.04-159.78-1.97-167.3-6.43-25.2-28.2-45.17-54.02-49.58-4.57-.78-40.82-1.02-122.5-.82l-116 .3-8 2.7C29 15.74 12.56 32.77 6.32 54.87c-1.75 6.18-1.84 14.34-1.84 169v162.5l2.73 8c6.8 19.95 20.36 34.3 39.86 42.18 13 5.25 10.7 5.17 134.92 4.94 107.72-.2 115.9-.32 121.5-2zm-141.9-45.14c-31.44-20.4-66.78-31.7-105.83-33.88-4.8-.27-9.17-.76-9.7-1.1-3.6-2.22 5.3-7.28 19.63-11.16 8.34-2.25 11.98-2.66 24.4-2.76 11.2-.08 14.98.22 16.3 1.3.92.77 1.32 1.77.87 2.23-.46.44-6.44 1.3-13.3 1.9-6.85.58-12.83 1.42-13.27 1.86-.44.44 1.8 1.1 5 1.48 7.06.82 27.35 5.73 38 9.2 13.22 4.3 28.47 11.16 38.75 17.42 5.4 3.3 9.97 6 10.15 6 .2 0 3.5-2.05 7.33-4.53 8-5.18 29.26-15.9 39.58-19.98 8.95-3.53 27.05-8.1 35.77-9.02 3.72-.4 6.96-1.03 7.2-1.4.23-.4-3.58-2.4-8.46-4.47-12.98-5.5-14.55-8.6-4.35-8.6 9.8 0 36.98 10.78 40.76 16.18 2.52 3.6.16 4.92-10.57 5.9-26.9 2.5-44.5 5.7-58.3 10.6-11.64 4.15-27.75 13.05-38.7 21.4-5.7 4.3-10.57 7.85-10.85 7.85-.27 0-4.96-2.9-10.4-6.44zm4.33-20.18c-16.74-11.46-28.27-15.98-47.97-18.83l-3.55-.52-2.8-26.74c-1.52-14.72-2.97-27.47-3.2-28.36-.3-1.08-1.2-1.46-2.8-1.15-7.32 1.38-1.22-6.34 8.9-11.3 7.24-3.53 13.34-3.97 27.44-1.96 19.2 2.74 34.36 1.8 55.06-3.4 19.43-4.9 26.84-5.74 37-4.2 21.03 3.2 33.87 11.1 18.05 11.1-5.22 0-5.88.24-6.36 2.26-.3 1.24-2.45 14.7-4.8 29.9l-4.3 27.66-7.54 2.17c-18.95 5.45-33.65 13.08-47.62 24.73l-6.06 5.06-9.43-6.44zm10.63-4.4c1.05-1.7-2.76-4-4.38-2.65-1.1.92-1.03 1.34.44 2.42 2.15 1.58 3.06 1.63 3.93.23zm-10-7c.74-1.2-2.27-4.93-4-4.93-.63 0-1.7.55-2.37 1.23-.97.96-.75 1.6 1.05 2.97 2.62 2.02 4.38 2.26 5.32.74zm20.62-1.05l2.97-2.1-2.24-2.4c-2.83-3-3.97-3-6.9.1-2.26 2.43-2.27 2.56-.5 4.5 2.28 2.53 3 2.52 6.67-.1zm-32.68-6.86c1.73-1.9 1.7-2.05-.6-3.97-3.03-2.52-3.1-2.52-5.8.37l-2.28 2.4 2.84 1.56c3.66 1.98 3.7 1.98 5.83-.36zm21.5-7.04c-3-2.33-3.76-2.17-6.42 1.4l-2.05 2.75 2.5 1.9c2.48 1.9 2.5 1.9 5.48-1.1l3-3-2.5-1.95zm24.76 1.86c1.8-2.24 3.25-4.36 3.25-4.7 0-.36-1.54-1.7-3.4-2.96l-3.4-2.32-4.1 4.32-4.1 4.3 3.22 2.76c1.77 1.5 3.68 2.73 4.25 2.7.57-.03 2.5-1.88 4.28-4.1zm-58.95-8.06c-1.8-1.5-3.58-2.75-3.93-2.76-.35-.02-1.4 1.14-2.34 2.57-1.65 2.53-1.62 2.68 1.1 5.5l2.77 2.9 2.86-2.73 2.85-2.74-3.3-2.74zm22.67 2.24l2.84-2.96-2.4-2c-3.1-2.58-3.04-2.6-6.38.9l-2.84 2.96 2.4 2c3.1 2.58 3.03 2.6 6.37-.9zm60.13.4c2.97-.87 5.4-1.74 5.4-1.95 0-.2-1.87-1.67-4.17-3.26l-4.16-2.9-2.94 3.35c-2.8 3.2-3.13 6.33-.65 6.33.62 0 3.56-.7 6.53-1.57zm-37.25-4.8c3.42-4.18 3.5-4.46 1.8-6-1-.9-2.28-1.63-2.87-1.63-1.1 0-7.28 6.55-7.28 7.7 0 .92 3.18 4.3 4.04 4.3.4 0 2.34-1.97 4.3-4.38zm-58-7.34l-2.8-2.22-2.34 2.2-2.36 2.2 2.7 2.33 2.7 2.32 2.44-2.3 2.44-2.3-2.8-2.23zm83.28 3.14l2.73-3.58-2.92-2.4c-1.6-1.3-3.2-2.4-3.55-2.4-.34-.03-1.88 1.6-3.42 3.6l-2.8 3.66 2.93 2.34c1.6 1.3 3.24 2.34 3.62 2.34.4 0 1.93-1.6 3.43-3.56zm-59.22-.76l2.1-2.83-2.87-2.5-2.87-2.48-2.87 2.75c-3.46 3.32-3.53 4-.63 6.45 2.9 2.43 4.54 2.1 7.15-1.4zm23.15-3.72l3.95-4.06-2.5-1.92c-3.44-2.65-4.03-2.5-7.82 2.07l-3.33 4 2.33 1.94c1.28 1.07 2.57 1.96 2.87 1.98.3 0 2.33-1.8 4.5-4.02zm55.52-2.78c.3-2.3.3-4.15 0-4.12-.3.03-1.62 1.4-2.9 3.03-1.94 2.44-2.14 3.25-1.1 4.48 1.94 2.37 3.38 1.15 4-3.38zm-89.1-5.6c0-.6-1.08-1.83-2.36-2.76-2.27-1.64-2.43-1.6-5.55 1.62l-3.2 3.3 2.73 2.17 2.74 2.15 2.83-2.7c1.56-1.5 2.82-3.2 2.8-3.8zm56.23 3.74c3.36-3.22 3.5-4.4.7-6.15-1.92-1.18-2.48-.98-5.54 2l-3.4 3.3 2.27 1.75c2.9 2.24 2.68 2.27 5.98-.9zm-34.28-4.45l3.4-4.1-2.4-1.85c-1.33-1.02-2.66-1.87-2.96-1.88-.3 0-2.25 1.72-4.33 3.85l-3.76 3.87 2.7 2.12c1.5 1.17 3 2.12 3.33 2.1.34 0 2.15-1.85 4.03-4.1zm61.06-2.9c0-.32-1.3-1.55-2.9-2.73l-2.92-2.16-3.13 3.58-3.13 3.57 3.3 2.44 3.3 2.42 2.73-3.28c1.5-1.8 2.74-3.54 2.76-3.85zm-38.3-.2c3.35-3.72 3.65-4.8 1.73-6.2-2.27-1.65-7-.2-8.5 2.6-.83 1.56-.58 2.3 1.28 3.86 2.93 2.44 3.05 2.44 5.48-.26zm-57.92-7.5c-2.2-2.36-4.6-2.5-10.9-.66-2.5.72-1.22 3.55 2.96 6.6l3.68 2.66 3.25-3.1 3.24-3.13-2.23-2.38zm22.17 2.85c1.82-2.53 1.88-2.97.5-3.5-2.54-.97-5.92-.7-7.2.6-.93.92-.7 1.7.97 3.5 2.77 2.95 3.25 2.9 5.74-.6zm60.08-6.1l-2.5-1.92-3.42 3.4-3.43 3.4 2.43 2 2.42 2 3.5-3.48 3.5-3.48-2.5-1.92zm22.3.68c3.4-6.55-.48-9.22-5.6-3.88-3.27 3.4-3.3 3.87-.45 6.25 2.9 2.42 3.72 2.1 6.04-2.37zm-43.55-6.8c19-7.27 22.43-8.02 35.25-7.68l11.5.3.32-3.22c.4-4.24-1.38-4.66-17.1-4.04-11.1.42-13.42.87-25.22 4.83-12.95 4.34-13.05 4.36-27.5 4.38-9.15.02-19.3-.68-27.53-1.9-9.86-1.44-14.37-1.68-18.5-.98l-5.47.93-.3 4.38c-.32 4.34-.3 4.37 2.5 3.7 1.54-.38 7.75-.9 13.8-1.18 9.2-.4 12.8-.1 22 1.94 17.02 3.75 23.27 3.5 36.25-1.47zm30.33-.7c-.63-.2-1.9-.08-2.83.28-1.43.56-1.46.8-.25 1.55.9.55 1.97.45 2.83-.27.97-.8 1.05-1.28.26-1.54zm-64.68-22.58c-2.96-2.97-3.4-4.04-3.4-8.42 0-8.5 6.6-14.18 16.47-14.18 4.03 0 4.54-.25 4.54-2.25 0-6.23 6.94-11.75 14.75-11.75 3.77 0 3.83-.06 3.44-3.4-1.38-11.74 13.88-18.92 22.7-10.7 8.43 7.9 2.28 22.1-9.56 22.1-4.33 0-4.36.02-4.36 3.6 0 7.26-6.62 13.4-14.46 13.4-3 0-3.54.34-3.54 2.25 0 3.3-3.5 8.47-7.24 10.75-2.34 1.44-5.03 2-9.6 2-5.9 0-6.6-.25-9.76-3.4zm-36.4-4.2c-26.6-7.08-33.38-8.32-45.6-8.37-8.64-.03-10.33-.3-11.82-1.95-2.4-2.64-1.06-4.8 6.5-10.47 13.05-9.82 25.85-14.04 42.42-14 9.38 0 12.2.42 19 2.78 9.55 3.3 18.1 8 19.6 10.77.82 1.56.7 2.42-.52 3.76-2.63 2.92-6.5 15.48-5.37 17.5.7 1.26.5 2.25-.78 3.66-.96 1.06-2 1.9-2.34 1.86-.33-.04-9.82-2.53-21.1-5.53zm18.42-15.6l.7-4.7-4.16-2.12c-2.28-1.17-4.28-1.98-4.44-1.8-.16.18-.7 4.46-1.2 9.52l-.88 9.2 3.53.86c3.43.85 3.57.77 4.64-2.7.6-1.95 1.4-5.67 1.8-8.25zm-17.36-2.02c1.8-9.8 1.8-9.78-5.14-9.78-4.44 0-4.35-.3-3.27 11.2.47 4.95 1.06 6.82 2.24 7.15 3.94 1.08 4.56.22 6.17-8.57zm-17.83-2.03c.26-4 .4-7.33.36-7.43-.06-.1-2.12.25-4.6.78l-4.48.95.35 5.47c.32 5.17.5 5.52 3.5 6.38 1.73.5 3.44.96 3.8 1 .34.06.83-3.16 1.08-7.15zm-17.03.75c.23-1.93.17-3.5-.14-3.48-.3 0-2.77 1.32-5.5 2.92l-4.94 2.9 3.94.4c2.17.23 4.46.5 5.1.58.6.1 1.3-1.4 1.53-3.33zm215.8 11.9c-22.5-5.66-43.05-6.72-55.8-2.88-7.56 2.27-8.2 1.5-8.2-10 0-16.7-3.92-32.98-9.95-41.32-3.7-5.1-18-14.56-38.04-25.14-17.4-9.18-20.04-11.17-18.38-13.8.92-1.47 3.35-1.86 15-2.42 7.63-.37 21.62-1.23 31.07-1.9 15.6-1.13 18.05-1.08 26.5.55 6.05 1.17 10.17 2.54 11.75 3.9 12.13 10.5 15.58 16.65 15.53 27.62-.03 6.04-.55 8.57-2.7 13-3.37 6.94-11.92 17.3-18.57 22.5-3.75 2.93-5.13 4.7-5.16 6.58-.02 1.42.18 2.8.45 3.07.26.26 4.43-.88 9.25-2.54 7.25-2.5 10.32-3 17.76-3 10.08.02 13.74 1.33 22.66 8.08 4.87 3.68 16.84 17.45 16.84 19.37 0 .53-.1.9-.25.84-.13-.06-4.52-1.18-9.75-2.5zm-43.52-49.9c3.4-5.25 5.95-11.76 5.33-13.6-.2-.62-4.96 4.22-10.58 10.74-7.27 8.42-10.22 12.6-10.22 14.43 0 1.42.32 2.9.7 3.28 1 1.02 11-9.03 14.77-14.85zm-6.37-15.6l9.87-10.62-2.7-3.47c-1.48-1.9-3.7-4.2-4.9-5.1-2.16-1.65-2.28-1.52-10.78 11.9-4.72 7.47-8.6 13.95-8.6 14.4 0 .46.8 2.2 1.75 3.85 2.1 3.65 1.16 4.3 15.36-10.96zm-18.16-13.12c4.44-5.9 8.06-10.96 8.06-11.25 0-.3-2.84-.53-6.3-.53h-6.33l-4.7 9.73-4.7 9.74 2.27 1.74c1.25.96 2.57 1.64 2.95 1.52.38-.13 4.32-5.06 8.75-10.95zm-19.4-3.53c1.6-3.16 3.08-6.1 3.28-6.5.2-.4-2.15-.75-5.2-.75-6 0-7.08.88-7.76 6.26-.28 2.2.28 3.18 2.64 4.7 1.65 1.04 3.25 1.94 3.55 1.98.3.04 1.86-2.52 3.48-5.68zm-17.76-5.06c.26-.8-.92-1.18-3.44-1.16-3.83.04-3.83.04-1.34 1.47 2.77 1.57 4.18 1.48 4.78-.3zm114.58 58.88c-4.14-2.52-5.95-7.73-4.36-12.56 1.66-5.03 5.3-7.5 11-7.5s9.35 2.47 11 7.5c2.42 7.3-3.03 14.48-11 14.48-1.92 0-4.9-.86-6.64-1.92zm-222.74-6.9c-1.82-2.05-1.82-2.2-.07-4.9 3.2-4.9 13.77-15.37 20.17-19.95 3.42-2.45 8.82-5.37 12-6.5 13.24-4.7 32.77.75 59.8 16.66 8.7 5.12 9.58 5.9 9.3 8.34l-.32 2.68-21 .64c-11.55.35-25.95 1.35-32 2.2-6.05.87-18.87 1.88-28.5 2.24-16.95.65-17.55.6-19.38-1.43zm20.86-9.42c-1.1-5.16-2.14-5.47-5.97-1.75-1.94 1.86-3.52 3.75-3.52 4.2 0 .44 2.3.8 5.08.8h5.08l-.68-3.25zm20.37-6c-.38-4.54-.72-8.6-.77-9-.14-1.35-4.5-.75-8.83 1.22-2.33 1.06-4.25 2.13-4.25 2.37 0 .24.92 3.4 2.04 7.04l2.05 6.6h10.44l-.7-8.24zm21.8 4.93c.1-.1.48-2.3.87-4.9.8-5.32 1.1-5.03-9.16-8.08l-4.97-1.48.88 6.64c1.3 9.87 1 9.5 6.98 8.7 2.87-.37 5.3-.76 5.4-.87zm15.35-3.18c-5.67-3.04-6-3.04-6 0 0 2.35.3 2.5 5.25 2.45l5.25-.04-4.5-2.4zm-96.66 8.56c-2.3-1.03-4.66-2.8-5.25-3.9-1.37-2.56-1.4-8.7-.06-11.2 1.56-2.9 6.33-4.95 11.5-4.95 8.03 0 12.43 3.75 12.46 10.6.03 5.2-2.8 8.98-7.77 10.36-5 1.4-6.04 1.3-10.88-.9zm204.3-2.12c-2.14-1.68-2.64-2.9-2.64-6.5 0-5.78 2.5-8.43 7.97-8.43 5.18 0 8.03 2.92 8.03 8.23 0 7.5-7.54 11.28-13.36 6.7zm-84.5-7.28c-4.88-5.04-16.44-11.22-34.98-18.7-23.46-9.47-25.33-10.4-30.94-15.45-6.4-5.74-10.75-12.57-13.9-21.73-4.93-14.4-1.8-26.56 9.54-36.92 9.58-8.76 23.14-13.95 23.14-8.87 0 1.36-2.06 3.3-6.5 6.1-3.57 2.25-6.5 4.5-6.5 5s3.3.92 7.3.92h7.3l.95-3.17c1.23-4.07 3.7-5.7 5.9-3.87 1.37 1.14 1.53 2.67.98 9.45-.8 9.84.6 19.5 4.58 31.88 4.27 13.3 9.84 21 31.25 43.3 5.37 5.6 9.75 10.8 9.75 11.6 0 1.7-1.94 3.82-3.5 3.82-.6 0-2.56-1.5-4.35-3.35zm-25.85-27.48c-2.63-3.2-5.7-7.07-6.8-8.57l-2-2.74-7 3.2-7 3.2 3 1.36c4.72 2.1 22.93 9.24 23.8 9.32.43.04-1.37-2.56-4-5.76zm-14.97-17.08c2.3-.9 2.7-1.5 2.13-3.34-1.43-4.7-1.56-4.7-13.4-.1-6.3 2.44-11.7 4.68-12 4.98-.3.3.76 1.6 2.37 2.87l2.9 2.33 7.6-2.82c4.17-1.55 8.85-3.32 10.4-3.92zm-13.73-12.66c11.7-2.64 12.07-2.8 11.6-5.16-.4-2.12-.87-2.37-3.57-1.9-1.7.28-7.17.8-12.12 1.13-15.3 1.05-15.88 1.36-13.3 7 .86 1.92 1.74 2.5 3.24 2.14 1.14-.27 7.5-1.7 14.15-3.22zm9.4-19.93v-4.5h-10.74c-12.2.03-14.98.97-16.93 5.75l-1.32 3.25h29v-4.5zm148.5 77.1c-6.85-2.98-7.33-14.2-.76-17.72 1.4-.74 4.35-1.3 6.6-1.23 10.5.27 13.37 15.82 3.57 19.24-4.02 1.4-5.65 1.35-9.4-.3zM41.94 206.6c-3.53-1.78-4.76-3.1-5.87-6.3-1.2-3.47-1.2-4.47 0-7 1.95-4.1 7.7-6.77 12.6-5.85 10.95 2.05 14.28 16 4.76 19.98-4.6 1.92-6.28 1.8-11.5-.83zm53.8-2.3c-3.6-1.98-4.77-4.38-4.77-9.96 0-6.37 3.94-10.5 10-10.5 6.07 0 10 4.13 10 10.5 0 5.67-1.17 8.03-4.98 10-3.63 1.88-6.72 1.86-10.24-.05zm-23.55-4.92c-4.5-2-6.66-7.17-5.23-12.46 1.26-4.7 4.6-7.07 9.92-7.07 5.67 0 9.13 3.22 9.8 9.14.45 4 .16 4.95-2.35 7.7-3.4 3.76-7.65 4.7-12.15 2.68zm206.18-.96c-3.4-1.48-4.4-3.22-4.4-7.72 0-4.13 1.4-6.36 4.95-7.83 5.9-2.44 12.05 1.34 12.05 7.4 0 4.8-.82 6.44-4.07 8.12-3.4 1.76-4.52 1.76-8.52.02zm27.92-1.52c-4.17-2.54-5.32-4.88-5.3-10.74.03-5.1 1.76-8.2 5.67-10.2 3.2-1.62 9.52-1.36 12.2.52 2.53 1.77 5.1 7.04 5.1 10.44 0 3.84-3.04 8.73-6.46 10.35-4.38 2.08-7.33 2-11.2-.37zM50.75 179.28c-5.3-2.88-7.4-11.35-4.3-17.36 1.67-3.24 3.32-4.07 8.04-4.07 7.13 0 12.54 8.37 10.44 16.18-1.7 6.35-7.93 8.65-14.2 5.25zm228.16-4.35c-2.4-2.4-2.92-3.77-2.92-7.58 0-3.8.53-5.18 2.93-7.58 2.45-2.44 3.74-2.92 7.87-2.92 3.95 0 5.45.5 7.47 2.52 7.17 7.18 2.34 18.48-7.9 18.48-3.65 0-5.07-.56-7.43-2.92zm-199.84-6.8c-5.37-2.8-7.36-6.25-7.36-12.78 0-6.62 2.02-10.06 7.54-12.8 12.84-6.4 23.6 12.1 13.35 22.93-3.95 4.17-8.8 5.12-13.54 2.65zm130.67-32.77c-1.5-3-2.75-5.7-2.75-6.02 0-.32 1.54-.3 3.42.06 4.72.88 5.58-1.17 5.58-13.2v-9.78l-4.75 4.6c-4.46 4.3-14.94 10.47-16 9.4-.84-.83 4.67-9.4 11.16-17.4 3.42-4.22 7-8.84 7.93-10.28l1.7-2.6-4.78.45c-5.8.54-9.5-1.87-11.3-7.4-1.45-4.34-1.3-4.46 8.78-7.48 7.17-2.14 7.25-2.2 7.25-5.58 0-2.23-1-4.68-2.88-7.1-2.94-3.78-4.52-8.96-3.3-10.84.38-.58 3.38-1.36 6.68-1.73 3.3-.37 7.7-.94 9.8-1.26 5.05-.77 7.7 1.54 7.7 6.72 0 3.2-.5 4.08-3.33 5.82-2.85 1.77-3.26 2.5-2.87 5.15.33 2.24.86 2.9 1.97 2.5.83-.33 2.58.1 3.88.95 1.82 1.2 2.35 2.45 2.35 5.5 0 3.6-.35 4.14-4 6-3.63 1.85-4 2.4-4 5.94 0 3.5.3 3.96 2.94 4.53 3.88.86 5.32 2.77 5.45 7.3l.1 3.72-4.16-.08-4.17-.08-.32 13.75c-.35 15.17-1.3 17.86-7.4 20.8-1.6.78-3.07 1.8-3.25 2.25-.18.47-1.3.84-2.5.82-1.6-.02-2.87-1.43-4.92-5.47zm81 2.9c-1.55-1.55-8.83-2.37-10.7-1.2-3.9 2.42-12.57-3.67-19.27-13.54l-4.1-6.05-1.6 2.44c-2.88 4.46-8.5 8.88-16.4 12.94-7 3.58-12.68 5.1-12.68 3.4 0-.35 3.77-4.6 8.37-9.42 8.96-9.4 11.6-13.83 14.68-24.6 2.1-7.35 4.2-32.16 3.3-38.9-.3-2.2-.03-5.9.6-8.24 1-3.74 1.47-4.23 4.04-4.23 2.12 0 3.6.9 5.43 3.3 3.03 3.97 3.2 6.1 1.7 19.7-.64 5.77-1.62 14.72-2.17 19.88l-1 9.38 3.97 5.13c4.73 6.12 8.86 10.1 15.58 15.05 14.72 10.8 16.97 13.4 12.92 14.96-1.94.75-1.94.75-2.67.02zM240.5 94.53c-3.55-5.44-4.74-15.28-1.95-16.34 3.3-1.28 6.02 1.24 7.34 6.8 1.74 7.3 1.2 11.26-1.6 11.66-1.44.2-2.74-.52-3.8-2.13zm23.5-2.96c.02-.67 3.62-5.7 8-11.17 4.4-5.46 7.98-10.3 7.98-10.75 0-.44 1.1-.8 2.47-.8 4.56 0 9.14 7.36 6.53 10.5-1.3 1.57-17.53 10.62-22.25 12.4-2.07.8-2.74.75-2.72-.18z"/><path fill="#a55357" d="M59.48 444.4c-27.98-5.26-49.9-25.37-57.24-52.55-1.64-6.07-1.76-17.2-1.76-169C.48 68.87.58 60 2.3 53.85 9.16 29.3 26.65 11.65 52 3.7l7.48-2.35h241l8.77 3.13c11.15 4 18.4 8.32 26.57 15.87 8.28 7.64 15.4 18.5 18.9 28.87l2.76 8.13.27 162.74c.3 181.2.7 170.06-6.6 185.25-8.8 18.38-25 31.6-46.67 38.12-5.6 1.7-13.4 1.82-122 2.02-92.16.15-117.43-.07-123-1.1zm242.88-4.52c24.02-6.14 43.55-25.2 50.3-49.03 1.74-6.2 1.82-14.3 1.82-167.5 0-180.2.58-165.77-7.22-181.5-2.83-5.7-5.88-9.66-12.75-16.53-9.95-9.97-17.7-14.7-30.53-18.63l-7.5-2.3-112-.33c-80.1-.24-114.25 0-119.94.8-16.47 2.37-30.2 9.28-41.55 20.92C15.43 33.54 10.9 40.74 7.16 51l-2.68 7.35-.28 161.5c-.3 180.27-.74 168.43 6.74 183.65 8.86 18 25.12 31.1 45.04 36.3 7.22 1.87 11.86 1.94 123.1 2 111.8.05 115.84-.02 123.28-1.92zm-140-45.18c-32.73-21.42-70.2-33.33-110.37-35.1-11.78-.53-5.3-6.03 12.6-10.72 18.66-4.9 44.94-4.98 41.95-.14-.37.6-2.5 1.1-4.7 1.1-5.7 0-23.1 2.1-24.74 3-.76.4 1.78 1.04 5.84 1.44 8.65.85 30.9 6.22 44.04 10.63 11.9 4 29.63 12.32 38.63 18.14l6.88 4.44 6.5-4.4c9.36-6.35 34.75-18.57 47.1-22.68 9.8-3.27 30.63-7.55 36.7-7.55 3.87 0 1.84-1.34-8.3-5.48-13.88-5.67-15.12-8.14-3.95-7.87 7.2.18 16 2.82 28.4 8.52 9.37 4.3 12.05 6.28 12.05 8.88 0 2.46-1.95 2.97-15.5 4.04-41.02 3.23-68.78 12.88-93.8 32.58-4.4 3.48-8.8 6.33-9.73 6.33-.94 0-5.25-2.32-9.6-5.15zm6.54-18.7c-17.3-12.28-29.7-17.8-45.6-20.23l-8.2-1.25-.55-3.58c-.75-4.87-5.57-49.5-5.57-51.58 0-1.32-.6-1.54-2.9-1.03-1.75.38-3.18.2-3.6-.5-1.77-2.86 11-11.03 20.36-13.04 4.23-.92 7.74-.74 19.53.97 22.34 3.23 28.15 2.86 54.22-3.46 24.56-5.96 32.44-6.16 50.67-1.3 13.3 3.56 16.02 8.35 4.4 7.7l-6.1-.35-4.68 29.8c-2.6 16.4-4.86 29.92-5.05 30.06-.2.15-5.77 2-12.37 4.14-16.08 5.2-25 9.86-37.3 19.47-5.65 4.43-10.64 8.05-11.07 8.05-.43 0-3.23-1.73-6.2-3.85zm7.63-6.22c1-1.63-2.75-4-4.3-2.72-.96.8-1 1.4-.14 2.42 1.35 1.64 3.5 1.78 4.43.3zm-11.02-9.9c-2.14-2.38-3.82-2.58-5.43-.64-.9 1.1-.57 1.82 1.63 3.44 2.4 1.76 2.98 1.85 4.22.64 1.24-1.22 1.2-1.68-.4-3.44zm22.4-2.75c-3.4-2.86-3.7-2.85-7.03.33l-2.73 2.62 2.6 2.24 2.62 2.25 3.62-2.6 3.63-2.57-2.7-2.27zm-33.74-1.94c2.4-2.2 2.3-2.8-.77-4.82-2.5-1.63-2.7-1.6-5 .56-1.33 1.24-2.42 2.6-2.42 3 0 .6 3.9 2.45 5.93 2.83.24.04 1.25-.67 2.26-1.58zm21.92-7.44c-2.87-2.37-3.83-2.15-6.53 1.48l-2.07 2.77 2.43 2 2.44 1.96 3.07-3.1 3.08-3.12-2.4-1.98zm27.86-2.47c.04-.98-5.2-5.45-6.38-5.45-.28 0-2.32 1.9-4.53 4.25l-4.03 4.25 3.74 3.2 3.74 3.23 3.7-4.22c2.05-2.3 3.74-4.7 3.76-5.27zm-62.1-3.7c-4.03-3.37-4.2-3.38-6.33-.15-1.65 2.53-1.62 2.68 1.1 5.5l2.77 2.9 2.88-2.75 2.88-2.75-3.28-2.75zm22.7 2.2l2.94-3.07-2.5-1.92c-3.22-2.46-3.12-2.48-6.55 1.1l-2.94 3.07 2.5 1.92c3.2 2.46 3.1 2.48 6.54-1.1zm64.96-1.13c.32-.32-1.3-1.95-3.56-3.63L221.8 336l-2.9 3.3c-3.18 3.6-3.47 4.6-1.85 6.22.76.76 2.64.6 6.47-.6 2.97-.92 5.66-1.93 5.98-2.25zm-42.05-3.34l3.7-4.52-2.33-1.95-2.34-1.95-4.32 4.5-4.33 4.5 2.33 1.94c1.28 1.07 2.6 1.96 2.95 1.98.36 0 2.3-2 4.35-4.5zm-58.12-7.2l-2.8-2.2-2.34 2.2-2.36 2.2 2.7 2.32 2.7 2.32 2.44-2.3 2.44-2.3-2.8-2.23zm83.07 3.64c1.42-1.7 2.58-3.46 2.58-3.93 0-.84-5.28-5-6.35-5-.3 0-1.8 1.64-3.3 3.63l-2.77 3.63 2.96 2.37c1.63 1.3 3.26 2.37 3.63 2.37.36 0 1.82-1.38 3.25-3.07zm-59.02-1.25l2.1-2.83-2.88-2.5-2.88-2.48-3.38 3.27-3.37 3.26 2.76 2.27c3.4 2.82 4.95 2.6 7.65-1zm22.8-3.37c2.1-2.04 3.8-3.98 3.8-4.32 0-.33-1.28-1.55-2.85-2.7l-2.85-2.12-3.8 4.56-3.8 4.54 2.4 1.85c1.32 1.02 2.6 1.86 2.86 1.88.25 0 2.17-1.65 4.25-3.68zm55.82.95c0-.96.3-3.55.63-5.75l.62-4-3.48 3.96-3.5 3.97 2.1 1.76c2.7 2.24 3.6 2.26 3.63.07zm-90.7-11.97l-2.78-2.22-3.32 3.23-3.33 3.22 2.7 2.32 2.68 2.3 3.42-3.3 3.43-3.32-2.8-2.22zm58.54 5.37l3.25-3.35-2.67-1.74c-2.63-1.72-2.7-1.7-6.1 1.6l-3.45 3.34 2.16 1.76c2.87 2.32 3.04 2.28 6.8-1.6zm-34.94-3.8l3.4-4.1-2.4-1.85c-1.33-1.02-2.66-1.87-2.96-1.88-.3 0-2.25 1.72-4.33 3.85l-3.76 3.87 2.7 2.12c1.5 1.17 3 2.12 3.33 2.1.34 0 2.15-1.85 4.03-4.1zm58.75.53l2.76-3.63-2.95-2.4-2.97-2.4-3.37 3.65-3.36 3.63 2.87 2.35c1.6 1.3 3.2 2.36 3.58 2.38.4.03 1.95-1.58 3.47-3.57zm-35.47-4.07c3.32-3.18 3.5-4.4.84-6.06-2.52-1.57-6.47-.17-8.1 2.86-1 1.9-.84 2.45 1.2 4.02 3 2.32 2.75 2.35 6.06-.82zm-58.27-7.22c-2.47-2.07-5.48-2.43-9.92-1.2-3.58 1-3.08 3.46 1.45 7.06l3.94 3.13 3.48-3.48 3.5-3.5-2.44-2zm22 3.27c2.78-3.5 2.65-4.03-1.17-4.64-2.3-.36-3.8.02-5.17 1.34-1.9 1.82-1.88 1.88.5 3.87 3.13 2.6 3.4 2.58 5.85-.56zm60.16-6.46l-2.43-2-3.57 3.6-3.58 3.6 2.5 1.9 2.5 1.93 3.5-3.52 3.5-3.5-2.42-2zm21.86 2.2c1.13-1.6 2.06-4.07 2.06-5.5 0-3.7-3.55-3.42-7.7.6l-3.3 3.22 2.75 2.26c3.54 2.9 3.73 2.88 6.2-.58zm-36.44-2.1c.34-.54.15-1-.44-1-.58 0-1.06.46-1.06 1 0 .56.2 1 .45 1 .24 0 .7-.44 1.05-1zm-5-6.4c16.93-6.5 26.02-8.24 36.48-7 8.85 1.04 8.75 1.1 9.24-4.1l.28-2.98-8-.87c-10.75-1.17-20.83.36-36.4 5.5-12.32 4.1-12.88 4.18-25.6 4.07-7.15-.06-16.37-.6-20.5-1.23-11.95-1.76-27.16-2.32-30.3-1.1-2.57 1-2.73 1.4-2.1 4.85.93 5.2.96 5.22 5.16 3.97 6.87-2.04 24.58-1.26 37.24 1.64 14.9 3.42 19.27 3.07 34.5-2.77zm28.5.9c1.07-1.27.78-1.5-2-1.5-2.77 0-3.06.23-2 1.5.7.83 1.6 1.5 2 1.5.42 0 1.32-.67 2-1.5zm-64.6-23.9c-2.96-2.96-3.4-4.03-3.4-8.4 0-8.5 6.6-14.2 16.47-14.2 4.03 0 4.54-.24 4.54-2.24 0-6.23 6.94-11.75 14.75-11.75 3.77 0 3.83-.06 3.44-3.4-1.38-11.74 13.88-18.92 22.7-10.7 8.43 7.9 2.28 22.1-9.56 22.1-4.33 0-4.36.02-4.36 3.6 0 7.26-6.62 13.4-14.46 13.4-3 0-3.54.34-3.54 2.25 0 3.3-3.5 8.47-7.24 10.75-2.34 1.44-5.03 2-9.6 2-5.9 0-6.6-.25-9.76-3.4zm-40.9-5.63c-20.84-5.63-32.06-7.6-47-8.2-5.7-.24-6-.38-6.3-2.96-.27-2.3.6-3.4 6-7.36 18.24-13.44 39.48-17.85 59.7-12.4 9.2 2.48 21.46 8.87 21.96 11.44.2 1-.54 3.44-1.63 5.43-2.84 5.18-4.58 11-4.65 15.6-.06 3.7-.28 4-3.07 4.2-1.65.12-12.9-2.46-25-5.74zm21.03-3.2c.26-.7 1.08-4.54 1.83-8.55l1.37-7.3-3.82-1.95c-2.1-1.07-4.26-1.95-4.8-1.95-1.07 0-1.65 2.83-2.6 12.7l-.6 6.22 3.3.95c4.54 1.3 4.8 1.3 5.33-.12zm-15.05-13.1c.9-4.9 1.5-9 1.34-9.15-.18-.15-2.68-.6-5.57-.98l-5.25-.7v8.96c0 5.97.42 9.3 1.25 10 1.6 1.28 5.05 2.05 5.92 1.3.36-.32 1.4-4.57 2.3-9.44zm-18.1.7c1.46-10.68 1.16-11.18-5.62-9.3-4.04 1.12-4.3 1.9-3.1 9.14.6 3.73.74 3.82 6.97 4.66.6.08 1.4-1.94 1.75-4.5zm-16.37-1.85c0-1.93-.33-3.5-.75-3.5-1.04.02-11.25 5.93-11.25 6.52 0 .26 2.7.48 6 .48h6v-3.5zm217 11.9c-21.5-5.4-43.4-6.9-55.66-3.82-9.5 2.38-9.26 2.6-9.8-10.08-.77-18.83-4.56-33.45-10.57-40.73-3.85-4.67-21.34-16.44-33.37-22.46-5-2.5-12.16-6.33-15.9-8.5-6-3.5-6.78-4.28-6.5-6.64l.3-2.67 17-.6c9.35-.35 24.23-.98 33.06-1.4 11.9-.6 17.86-.46 23 .5 17.58 3.32 28.76 20.43 24.92 38.15-1.83 8.48-10.94 21.18-20.33 28.34-4.36 3.32-5.15 4.42-5.15 7.2 0 1.83.2 3.3.45 3.3.24 0 4.6-1.4 9.72-3.1 8.36-2.8 10.2-3.07 18.8-2.7 8.26.33 10.26.78 14.95 3.35 5.97 3.25 15.46 12.22 20.16 19.05 3.3 4.8 3.18 4.87-5.08 2.8zm-52.83-41.15c3.57-3.7 7.65-8.78 9.08-11.25 2.46-4.3 5.1-12 4.35-12.74-.27-.26-14.06 15.2-21.18 23.75-1.25 1.5-.82 7 .54 7 .4 0 3.64-3.04 7.2-6.75zm9.74-36.42c-.53-.98-2.6-3.37-4.62-5.33-2.92-2.84-3.9-3.3-4.83-2.28-2.12 2.33-16.47 25.66-16.47 26.78 0 .6.75 2.54 1.66 4.3l1.65 3.2 11.76-12.46c9.68-10.23 11.6-12.77 10.83-14.22zm-26.93-.93c4.48-6.1 7.95-11.3 7.7-11.54-.24-.24-3.08-.53-6.3-.65l-5.9-.2-4.82 9.98-4.83 9.97 2.2 1.78c1.2.97 2.55 1.77 3 1.77.43 0 4.46-5 8.95-11.1zm-19-3.87c1.66-3.3 3-6.44 3-7 0-1.1-10.93-.33-12.1.85-.36.34-.94 2.3-1.3 4.36-.62 3.44-.42 3.88 2.62 5.73 1.8 1.1 3.62 2 4.02 2.02.4 0 2.1-2.7 3.75-5.97zm-18-4.03c1.02-1.87.78-2-3.7-1.96l-4.8.03 3.5 1.92c1.94 1.05 3.6 1.93 3.73 1.96.12.03.7-.85 1.28-1.95zm114.37 58.07c-4.14-2.52-5.95-7.73-4.36-12.56 1.66-5.03 5.3-7.5 11-7.5s9.35 2.47 11 7.5c2.42 7.3-3.03 14.48-11 14.48-1.92 0-4.9-.86-6.64-1.92zm-222.8-7c-1.63-2.62.98-6.78 9.75-15.54 7.23-7.24 10.87-10.02 17.13-13.1 7.35-3.63 8.56-3.92 16-3.84 12.3.14 26.7 5.48 49.3 18.24 8.13 4.6 10.52 7.3 8.35 9.47-.7.7-7.54 1.17-18.84 1.3-10.28.1-22.4.9-28.76 1.84-14.4 2.14-51.9 3.3-52.94 1.63zm20.3-5.96c1.27-.8.9-5.92-.6-8.45-.5-.88-9.26 7.2-9.26 8.56 0 1.06 8.15.98 9.86-.1zm21.94-1.6c.16-.15-.06-4.26-.5-9.14l-.8-8.87-2.9.3c-3.4.38-10.6 3.84-10.6 5.1 0 .5.93 3.9 2.07 7.58l2.07 6.7 5.18-.7c2.85-.4 5.32-.83 5.48-.97zm21.08-3.36c.47-.9 1.1-3.32 1.42-5.36l.56-3.7-5.38-2.02c-7.27-2.7-10.48-3.46-10.47-2.43 0 1.34 2 13.73 2.38 14.85.6 1.7 10.52.53 11.48-1.35zm20.12.37c0-.5-9.5-5.52-10.46-5.52-.3 0-.54 1.35-.54 3 0 2.97.06 3 5.5 3 3.03 0 5.5-.22 5.5-.48zM70.32 226.9c-2.3-1.03-4.66-2.8-5.25-3.9-1.37-2.56-1.4-8.7-.06-11.2 1.56-2.9 6.33-4.95 11.5-4.95 8.03 0 12.43 3.75 12.46 10.6.03 5.2-2.8 8.98-7.77 10.36-5 1.4-6.04 1.3-10.88-.9zm204.3-2.12c-2.14-1.68-2.64-2.9-2.64-6.5 0-5.78 2.5-8.43 7.97-8.43 5.18 0 8.03 2.92 8.03 8.23 0 7.5-7.54 11.28-13.36 6.7zm-86.42-8.86c-5.54-5.04-18.48-11.7-36.26-18.62-18.36-7.16-22.44-9.3-28.78-14.98-3.82-3.44-6.28-6.9-9.12-12.84-8.93-18.67-7.5-31.32 4.9-43.64 6.32-6.27 13.74-10.6 19.85-11.58 3.84-.6 4.18-.5 4.18 1.5 0 1.4-1.1 2.8-3.1 3.9-1.7.92-4.96 3.04-7.25 4.7l-4.15 3 8 .6c4.4.32 8.17.45 8.37.3.2-.17.67-1.8 1.04-3.6.56-2.8 1.1-3.3 3.5-3.3h2.84l.22 14.5c.42 27.4 5.86 38.25 34 67.73 11.97 12.53 13.56 15.5 8.52 15.98-1.7.17-3.85-1-6.78-3.66zm-20.88-22.32c-1.68-1.8-4.98-5.85-7.33-9.02-4.77-6.42-4.67-6.4-13.36-2.03-2.67 1.34-4.56 2.73-4.2 3.1.56.55 26.2 10.95 27.5 11.13.24.04-.94-1.4-2.62-3.18zm-24.84-17.78c4.95-1.83 9.17-3.45 9.37-3.6.5-.38-.65-4.56-1.7-6.16-.64-1-3.4-.27-12.22 3.18-6.27 2.45-11.54 4.9-11.72 5.43-.4 1.26 4.83 5.37 6.22 4.86.58-.2 5.1-1.88 10.06-3.7zm-7.7-15.03c12.55-2.96 13.24-3.25 12.62-5.3-.37-1.18-.8-2.3-.96-2.5-.62-.7-30.46 2.24-30.46 3 0 2.3 3.33 8.67 4.34 8.32.64-.23 7.14-1.82 14.45-3.53zm10.2-19.95v-5h-24.94L118 139.8c-1.1 2.2-2.02 4.44-2.02 5 0 .68 5.13 1.05 14.5 1.05h14.5v-5zm148.48 76.6c-6.84-2.98-7.32-14.2-.75-17.72 1.4-.74 4.35-1.3 6.6-1.23 10.5.27 13.37 15.82 3.57 19.24-4.02 1.4-5.65 1.35-9.4-.3zM41.96 206.6c-3.54-1.78-4.77-3.1-5.88-6.3-1.2-3.47-1.2-4.47 0-7 1.95-4.1 7.7-6.77 12.6-5.85 10.95 2.05 14.28 16 4.76 19.98-4.6 1.92-6.28 1.8-11.5-.83zm53.8-2.3c-3.62-1.98-4.78-4.38-4.78-9.96 0-6.37 3.94-10.5 10-10.5 6.07 0 10 4.13 10 10.5 0 5.67-1.17 8.03-4.98 10-3.63 1.88-6.72 1.86-10.24-.05zm-23.56-4.92c-4.5-2-6.66-7.17-5.23-12.46 1.26-4.7 4.6-7.07 9.92-7.07 5.67 0 9.13 3.22 9.8 9.14.45 4 .16 4.95-2.35 7.7-3.4 3.76-7.65 4.7-12.15 2.68zm206.18-.96c-3.4-1.48-4.4-3.22-4.4-7.72 0-4.13 1.4-6.36 4.95-7.83 5.9-2.44 12.05 1.34 12.05 7.4 0 4.8-.82 6.44-4.07 8.12-3.4 1.76-4.52 1.76-8.52.02zm27.92-1.52c-4.17-2.54-5.32-4.88-5.3-10.74.03-5.1 1.76-8.2 5.67-10.2 3.2-1.62 9.52-1.36 12.2.52 2.53 1.77 5.1 7.04 5.1 10.44 0 3.84-3.04 8.73-6.46 10.35-4.38 2.08-7.33 2-11.2-.37zM50.75 179.28c-5.3-2.88-7.4-11.35-4.3-17.36 1.67-3.24 3.32-4.07 8.04-4.07 7.13 0 12.54 8.37 10.44 16.18-1.7 6.35-7.93 8.65-14.2 5.25zm228.16-4.35c-2.4-2.4-2.92-3.77-2.92-7.58 0-3.8.53-5.18 2.93-7.58 2.45-2.44 3.74-2.92 7.87-2.92 3.95 0 5.45.5 7.47 2.52 7.17 7.18 2.34 18.48-7.9 18.48-3.65 0-5.07-.56-7.43-2.92zm-199.84-6.8c-5.37-2.8-7.36-6.25-7.36-12.78 0-6.62 2.02-10.06 7.54-12.8 12.84-6.4 23.6 12.1 13.35 22.93-3.95 4.17-8.8 5.12-13.54 2.65zm130.67-32.77c-1.5-3-2.75-5.7-2.75-6.02 0-.32 1.54-.3 3.42.06 4.72.88 5.58-1.17 5.58-13.2v-9.78l-4.75 4.6c-4.46 4.3-14.94 10.47-16 9.4-.84-.83 4.67-9.4 11.16-17.4 3.42-4.22 7-8.84 7.93-10.28l1.7-2.6-4.78.45c-5.8.54-9.5-1.87-11.3-7.4-1.45-4.34-1.3-4.46 8.78-7.48 7.17-2.14 7.25-2.2 7.25-5.58 0-2.23-1-4.68-2.88-7.1-2.94-3.78-4.52-8.96-3.3-10.84.38-.58 3.38-1.36 6.68-1.73 3.3-.37 7.7-.94 9.8-1.26 5.05-.77 7.7 1.54 7.7 6.72 0 3.2-.5 4.08-3.33 5.82-2.85 1.77-3.26 2.5-2.87 5.15.33 2.24.86 2.9 1.97 2.5.83-.33 2.58.1 3.88.95 1.82 1.2 2.35 2.45 2.35 5.5 0 3.6-.35 4.14-4 6-3.63 1.85-4 2.4-4 5.94 0 3.5.3 3.96 2.94 4.53 3.88.86 5.32 2.77 5.45 7.3l.1 3.72-4.16-.08-4.17-.08-.32 13.75c-.35 15.17-1.3 17.86-7.4 20.8-1.6.78-3.07 1.8-3.25 2.25-.18.47-1.3.84-2.5.82-1.6-.02-2.87-1.43-4.92-5.47zm81 2.9c-1.55-1.55-8.83-2.37-10.7-1.2-3.9 2.42-12.57-3.67-19.27-13.54l-4.1-6.05-1.6 2.44c-2.88 4.46-8.5 8.88-16.4 12.94-7 3.58-12.68 5.1-12.68 3.4 0-.35 3.77-4.6 8.37-9.42 8.96-9.4 11.6-13.83 14.68-24.6 2.1-7.35 4.2-32.16 3.3-38.9-.3-2.2-.03-5.9.6-8.24 1-3.74 1.47-4.23 4.04-4.23 2.12 0 3.6.9 5.43 3.3 3.03 3.97 3.2 6.1 1.7 19.7-.64 5.77-1.62 14.72-2.17 19.88l-1 9.38 3.97 5.13c4.73 6.12 8.86 10.1 15.58 15.05 14.72 10.8 16.97 13.4 12.92 14.96-1.94.75-1.94.75-2.67.02zM240.5 94.53c-3.55-5.44-4.74-15.28-1.95-16.34 3.3-1.28 6.02 1.24 7.34 6.8 1.74 7.3 1.2 11.26-1.6 11.66-1.44.2-2.74-.52-3.8-2.13zm23.5-2.96c.02-.67 3.62-5.7 8-11.17 4.4-5.46 7.98-10.3 7.98-10.75 0-.44 1.1-.8 2.47-.8 4.56 0 9.14 7.36 6.53 10.5-1.3 1.57-17.53 10.62-22.25 12.4-2.07.8-2.74.75-2.72-.18z"/><path fill="#696e68" d="M59.48 444.4c-27.98-5.26-49.9-25.37-57.24-52.55-1.64-6.07-1.76-17.2-1.76-169C.48 68.87.58 60 2.3 53.85 9.16 29.3 26.65 11.65 52 3.7l7.48-2.35h241l8.77 3.13c11.15 4 18.4 8.32 26.57 15.87 8.28 7.64 15.4 18.5 18.9 28.87l2.76 8.13.27 162.74c.3 181.2.7 170.06-6.6 185.25-8.8 18.38-25 31.6-46.67 38.12-5.6 1.7-13.4 1.82-122 2.02-92.16.15-117.43-.07-123-1.1zm242.88-4.52c24.02-6.14 43.55-25.2 50.3-49.03 1.74-6.2 1.82-14.3 1.82-167.5 0-180.2.58-165.77-7.22-181.5-2.83-5.7-5.88-9.66-12.75-16.53-9.95-9.97-17.7-14.7-30.53-18.63l-7.5-2.3-112-.33c-80.1-.24-114.25 0-119.94.8-16.47 2.37-30.2 9.28-41.55 20.92C15.43 33.54 10.9 40.74 7.16 51l-2.68 7.35-.28 161.5c-.3 180.27-.74 168.43 6.74 183.65 8.86 18 25.12 31.1 45.04 36.3 7.22 1.87 11.86 1.94 123.1 2 111.8.05 115.84-.02 123.28-1.92zm-140-45.18c-32.73-21.42-70.2-33.33-110.37-35.1-11.78-.53-5.3-6.03 12.6-10.72 18.66-4.9 44.94-4.98 41.95-.14-.37.6-2.5 1.1-4.7 1.1-5.7 0-23.1 2.1-24.74 3-.76.4 1.78 1.04 5.84 1.44 8.65.85 30.9 6.22 44.04 10.63 11.9 4 29.63 12.32 38.63 18.14l6.88 4.44 6.5-4.4c9.36-6.35 34.75-18.57 47.1-22.68 9.8-3.27 30.63-7.55 36.7-7.55 3.87 0 1.84-1.34-8.3-5.48-13.88-5.67-15.12-8.14-3.95-7.87 7.2.18 16 2.82 28.4 8.52 9.37 4.3 12.05 6.28 12.05 8.88 0 2.46-1.95 2.97-15.5 4.04-41.02 3.23-68.78 12.88-93.8 32.58-4.4 3.48-8.8 6.33-9.73 6.33-.94 0-5.25-2.32-9.6-5.15zm6.54-18.7c-17.3-12.28-29.7-17.8-45.6-20.23l-8.2-1.25-.55-3.58c-.75-4.87-5.57-49.5-5.57-51.58 0-1.32-.6-1.54-2.9-1.03-1.75.38-3.18.2-3.6-.5-1.77-2.86 11-11.03 20.36-13.04 4.23-.92 7.74-.74 19.53.97 22.34 3.23 28.15 2.86 54.22-3.46 24.56-5.96 32.44-6.16 50.67-1.3 13.3 3.56 16.02 8.35 4.4 7.7l-6.1-.35-4.68 29.8c-2.6 16.4-4.86 29.92-5.05 30.06-.2.15-5.77 2-12.37 4.14-16.08 5.2-25 9.86-37.3 19.47-5.65 4.43-10.64 8.05-11.07 8.05-.43 0-3.23-1.73-6.2-3.85zm7.63-6.22c1-1.63-2.75-4-4.3-2.72-.96.8-1 1.4-.14 2.42 1.35 1.64 3.5 1.78 4.43.3zm-11.02-9.9c-2.14-2.38-3.82-2.58-5.43-.64-.9 1.1-.57 1.82 1.63 3.44 2.4 1.76 2.98 1.85 4.22.64 1.24-1.22 1.2-1.68-.4-3.44zm22.4-2.75c-3.4-2.86-3.7-2.85-7.03.33l-2.73 2.62 2.6 2.24 2.62 2.25 3.62-2.6 3.63-2.57-2.7-2.27zm-33.74-1.94c2.4-2.2 2.3-2.8-.77-4.82-2.5-1.63-2.7-1.6-5 .56-1.33 1.24-2.42 2.6-2.42 3 0 .6 3.9 2.45 5.93 2.83.24.04 1.25-.67 2.26-1.58zm21.92-7.44c-2.87-2.37-3.83-2.15-6.53 1.48l-2.07 2.77 2.43 2 2.44 1.96 3.07-3.1 3.08-3.12-2.4-1.98zm27.86-2.47c.04-.98-5.2-5.45-6.38-5.45-.28 0-2.32 1.9-4.53 4.25l-4.03 4.25 3.74 3.2 3.74 3.23 3.7-4.22c2.05-2.3 3.74-4.7 3.76-5.27zm-62.1-3.7c-4.03-3.37-4.2-3.38-6.33-.15-1.65 2.53-1.62 2.68 1.1 5.5l2.77 2.9 2.88-2.75 2.88-2.75-3.28-2.75zm22.7 2.2l2.94-3.07-2.5-1.92c-3.22-2.46-3.12-2.48-6.55 1.1l-2.94 3.07 2.5 1.92c3.2 2.46 3.1 2.48 6.54-1.1zm64.96-1.13c.32-.32-1.3-1.95-3.56-3.63L221.8 336l-2.9 3.3c-3.18 3.6-3.47 4.6-1.85 6.22.76.76 2.64.6 6.47-.6 2.97-.92 5.66-1.93 5.98-2.25zm-42.05-3.34l3.7-4.52-2.33-1.95-2.34-1.95-4.32 4.5-4.33 4.5 2.33 1.94c1.28 1.07 2.6 1.96 2.95 1.98.36 0 2.3-2 4.35-4.5zm-58.12-7.2l-2.8-2.2-2.34 2.2-2.36 2.2 2.7 2.32 2.7 2.32 2.44-2.3 2.44-2.3-2.8-2.23zm83.07 3.64c1.42-1.7 2.58-3.46 2.58-3.93 0-.84-5.28-5-6.35-5-.3 0-1.8 1.64-3.3 3.63l-2.77 3.63 2.96 2.37c1.63 1.3 3.26 2.37 3.63 2.37.36 0 1.82-1.38 3.25-3.07zm-59.02-1.25l2.1-2.83-2.88-2.5-2.88-2.48-3.38 3.27-3.37 3.26 2.76 2.27c3.4 2.82 4.95 2.6 7.65-1zm22.8-3.37c2.1-2.04 3.8-3.98 3.8-4.32 0-.33-1.28-1.55-2.85-2.7l-2.85-2.12-3.8 4.56-3.8 4.54 2.4 1.85c1.32 1.02 2.6 1.86 2.86 1.88.25 0 2.17-1.65 4.25-3.68zm55.82.95c0-.96.3-3.55.63-5.75l.62-4-3.48 3.96-3.5 3.97 2.1 1.76c2.7 2.24 3.6 2.26 3.63.07zm-90.7-11.97l-2.78-2.22-3.32 3.23-3.33 3.22 2.7 2.32 2.68 2.3 3.42-3.3 3.43-3.32-2.8-2.22zm58.54 5.37l3.25-3.35-2.67-1.74c-2.63-1.72-2.7-1.7-6.1 1.6l-3.45 3.34 2.16 1.76c2.87 2.32 3.04 2.28 6.8-1.6zm-34.94-3.8l3.4-4.1-2.4-1.85c-1.33-1.02-2.66-1.87-2.96-1.88-.3 0-2.25 1.72-4.33 3.85l-3.76 3.87 2.7 2.12c1.5 1.17 3 2.12 3.33 2.1.34 0 2.15-1.85 4.03-4.1zm58.75.53l2.76-3.63-2.95-2.4-2.97-2.4-3.37 3.65-3.36 3.63 2.87 2.35c1.6 1.3 3.2 2.36 3.58 2.38.4.03 1.95-1.58 3.47-3.57zm-35.47-4.07c3.32-3.18 3.5-4.4.84-6.06-2.52-1.57-6.47-.17-8.1 2.86-1 1.9-.84 2.45 1.2 4.02 3 2.32 2.75 2.35 6.06-.82zm-58.27-7.22c-2.47-2.07-5.48-2.43-9.92-1.2-3.58 1-3.08 3.46 1.45 7.06l3.94 3.13 3.48-3.48 3.5-3.5-2.44-2zm22 3.27c2.78-3.5 2.65-4.03-1.17-4.64-2.3-.36-3.8.02-5.17 1.34-1.9 1.82-1.88 1.88.5 3.87 3.13 2.6 3.4 2.58 5.85-.56zm60.16-6.46l-2.43-2-3.57 3.6-3.58 3.6 2.5 1.9 2.5 1.93 3.5-3.52 3.5-3.5-2.42-2zm21.86 2.2c1.13-1.6 2.06-4.07 2.06-5.5 0-3.7-3.55-3.42-7.7.6l-3.3 3.22 2.75 2.26c3.54 2.9 3.73 2.88 6.2-.58zm-36.44-2.1c.34-.54.15-1-.44-1-.58 0-1.06.46-1.06 1 0 .56.2 1 .45 1 .24 0 .7-.44 1.05-1zm-5-6.4c16.93-6.5 26.02-8.24 36.48-7 8.85 1.04 8.75 1.1 9.24-4.1l.28-2.98-8-.87c-10.75-1.17-20.83.36-36.4 5.5-12.32 4.1-12.88 4.18-25.6 4.07-7.15-.06-16.37-.6-20.5-1.23-11.95-1.76-27.16-2.32-30.3-1.1-2.57 1-2.73 1.4-2.1 4.85.93 5.2.96 5.22 5.16 3.97 6.87-2.04 24.58-1.26 37.24 1.64 14.9 3.42 19.27 3.07 34.5-2.77zm28.5.9c1.07-1.27.78-1.5-2-1.5-2.77 0-3.06.23-2 1.5.7.83 1.6 1.5 2 1.5.42 0 1.32-.67 2-1.5zM158.3 279.9c-4-2.43-5.32-4.87-5.3-9.74 0-7.96 7.35-14.24 16.73-14.3 3.83 0 4.25-.25 4.25-2.43 0-2.9 4.14-8.08 8.07-10.12 1.56-.8 4.67-1.45 6.9-1.45 3.82 0 4.03-.15 3.46-2.45-.88-3.53 1.27-9.1 4.58-11.9 8.55-7.2 21.65-1.2 21.4 9.78-.15 7.3-5.64 12.55-13.15 12.56-4.15 0-4.25.1-4.25 3.36 0 6.73-7.4 13.64-14.62 13.65-2.7 0-3.2.43-3.74 3.08-.87 4.36-4.02 8.4-8.02 10.3-4.7 2.23-12.35 2.08-16.3-.33zm-42.82-7.1c-20.84-5.63-32.06-7.6-47-8.2-5.7-.24-6-.38-6.3-2.96-.27-2.3.6-3.4 6-7.36 18.24-13.44 39.48-17.85 59.7-12.4 9.2 2.48 21.46 8.87 21.96 11.44.2 1-.54 3.44-1.63 5.43-2.84 5.18-4.58 11-4.65 15.6-.06 3.7-.28 4-3.07 4.2-1.65.12-12.9-2.46-25-5.74zm21.03-3.2c.26-.7 1.08-4.54 1.83-8.55l1.37-7.3-3.82-1.95c-2.1-1.07-4.26-1.95-4.8-1.95-1.07 0-1.65 2.83-2.6 12.7l-.6 6.22 3.3.95c4.54 1.3 4.8 1.3 5.33-.12zm-15.05-13.1c.9-4.9 1.5-9 1.34-9.15-.18-.15-2.68-.6-5.57-.98l-5.25-.7v8.96c0 5.97.42 9.3 1.25 10 1.6 1.28 5.05 2.05 5.92 1.3.36-.32 1.4-4.57 2.3-9.44zm-18.1.7c1.46-10.68 1.16-11.18-5.62-9.3-4.04 1.12-4.3 1.9-3.1 9.14.6 3.73.74 3.82 6.97 4.66.6.08 1.4-1.94 1.75-4.5zm-16.37-1.85c0-1.93-.33-3.5-.75-3.5-1.04.02-11.25 5.93-11.25 6.52 0 .26 2.7.48 6 .48h6v-3.5zm217 11.9c-21.5-5.4-43.4-6.9-55.66-3.82-9.5 2.38-9.26 2.6-9.8-10.08-.77-18.83-4.56-33.45-10.57-40.73-3.85-4.67-21.34-16.44-33.37-22.46-5-2.5-12.16-6.33-15.9-8.5-6-3.5-6.78-4.28-6.5-6.64l.3-2.67 17-.6c9.35-.35 24.23-.98 33.06-1.4 11.9-.6 17.86-.46 23 .5 17.58 3.32 28.76 20.43 24.92 38.15-1.83 8.48-10.94 21.18-20.33 28.34-4.36 3.32-5.15 4.42-5.15 7.2 0 1.83.2 3.3.45 3.3.24 0 4.6-1.4 9.72-3.1 8.36-2.8 10.2-3.07 18.8-2.7 8.26.33 10.26.78 14.95 3.35 5.97 3.25 15.46 12.22 20.16 19.05 3.3 4.8 3.18 4.87-5.08 2.8zm-52.83-41.15c3.57-3.7 7.65-8.78 9.08-11.25 2.46-4.3 5.1-12 4.35-12.74-.27-.26-14.06 15.2-21.18 23.75-1.25 1.5-.82 7 .54 7 .4 0 3.64-3.04 7.2-6.75zm9.74-36.42c-.53-.98-2.6-3.37-4.62-5.33-2.92-2.84-3.9-3.3-4.83-2.28-2.12 2.33-16.47 25.66-16.47 26.78 0 .6.75 2.54 1.66 4.3l1.65 3.2 11.76-12.46c9.68-10.23 11.6-12.77 10.83-14.22zm-26.93-.93c4.48-6.1 7.95-11.3 7.7-11.54-.24-.24-3.08-.53-6.3-.65l-5.9-.2-4.82 9.98-4.83 9.97 2.2 1.78c1.2.97 2.55 1.77 3 1.77.43 0 4.46-5 8.95-11.1zm-19-3.87c1.66-3.3 3-6.44 3-7 0-1.1-10.93-.33-12.1.85-.36.34-.94 2.3-1.3 4.36-.62 3.44-.42 3.88 2.62 5.73 1.8 1.1 3.62 2 4.02 2.02.4 0 2.1-2.7 3.75-5.97zm-18-4.03c1.02-1.87.78-2-3.7-1.96l-4.8.03 3.5 1.92c1.94 1.05 3.6 1.93 3.73 1.96.12.03.7-.85 1.28-1.95zm117 59.35c-.8-.33-2.7-1.73-4.2-3.12-9.45-8.8 2.37-22.85 14.13-16.77 3.62 1.88 6.27 7.37 5.47 11.36-1.2 6-9.78 10.77-15.4 8.54zm-225.43-8.27c-1.63-2.63.98-6.8 9.75-15.55 7.23-7.24 10.87-10.02 17.13-13.1 7.35-3.63 8.56-3.92 16-3.84 12.3.14 26.7 5.48 49.3 18.24 8.13 4.6 10.52 7.3 8.35 9.47-.7.7-7.54 1.17-18.84 1.3-10.28.1-22.4.9-28.76 1.84-14.4 2.14-51.9 3.3-52.94 1.63zm20.3-5.97c1.27-.8.9-5.92-.6-8.45-.5-.88-9.26 7.2-9.26 8.56 0 1.06 8.15.98 9.86-.1zm21.94-1.6c.16-.15-.06-4.26-.5-9.14l-.8-8.87-2.9.3c-3.4.38-10.6 3.84-10.6 5.1 0 .5.93 3.9 2.07 7.58l2.07 6.7 5.18-.7c2.85-.4 5.32-.83 5.48-.97zm21.08-3.36c.47-.9 1.1-3.32 1.42-5.36l.56-3.7-5.38-2.02c-7.27-2.7-10.48-3.46-10.47-2.43 0 1.34 2 13.73 2.38 14.85.6 1.7 10.52.53 11.48-1.35zm20.12.37c0-.5-9.5-5.52-10.46-5.52-.3 0-.54 1.35-.54 3 0 2.97.06 3 5.5 3 3.03 0 5.5-.22 5.5-.48zm-99.66 6.38c-4.46-1.3-8.34-6.2-8.34-10.58 0-2.67.82-4.34 3.4-6.92 3.08-3.07 3.96-3.4 9.1-3.4 5.15 0 6.03.33 9.1 3.4 4.32 4.32 4.6 9 .84 13.5-2.08 2.47-8.16 5.4-10.44 5-.27-.04-1.92-.5-3.66-1zm202.12-3.36c-3.32-3.33-3.4-9.32-.14-12.38 3.37-3.17 8.93-2.95 11.6.46 6.46 8.2-4.15 19.22-11.46 11.9zm-86.24-8.48c-5.54-5.04-18.48-11.7-36.26-18.62-18.36-7.16-22.44-9.3-28.78-14.98-3.82-3.44-6.28-6.9-9.12-12.84-8.93-18.67-7.5-31.32 4.9-43.64 6.32-6.27 13.74-10.6 19.85-11.58 3.84-.6 4.18-.5 4.18 1.5 0 1.4-1.1 2.8-3.1 3.9-1.7.92-4.96 3.04-7.25 4.7l-4.15 3 8 .6c4.4.32 8.17.45 8.37.3.2-.17.67-1.8 1.04-3.6.56-2.8 1.1-3.3 3.5-3.3h2.84l.22 14.5c.42 27.4 5.86 38.25 34 67.73 11.97 12.53 13.56 15.5 8.52 15.98-1.7.17-3.85-1-6.78-3.66zm-20.88-22.32c-1.68-1.8-4.98-5.85-7.33-9.02-4.77-6.42-4.67-6.4-13.36-2.03-2.67 1.34-4.56 2.73-4.2 3.1.56.55 26.2 10.95 27.5 11.13.24.04-.94-1.4-2.62-3.18zm-24.84-17.78c4.95-1.83 9.17-3.45 9.37-3.6.5-.38-.65-4.56-1.7-6.16-.64-1-3.4-.27-12.22 3.18-6.27 2.45-11.54 4.9-11.72 5.43-.4 1.26 4.83 5.37 6.22 4.86.58-.2 5.1-1.88 10.06-3.7zm-7.7-15.03c12.55-2.96 13.24-3.25 12.62-5.3-.37-1.18-.8-2.3-.96-2.5-.62-.7-30.46 2.24-30.46 3 0 2.3 3.33 8.67 4.34 8.32.64-.23 7.14-1.82 14.45-3.53zm10.2-19.95v-5h-24.94L118 139.8c-1.1 2.2-2.02 4.44-2.02 5 0 .68 5.13 1.05 14.5 1.05h14.5v-5zm149.4 77.07c-3.3-1.4-6.4-6.02-6.4-9.48 0-6.56 6.64-11.36 13.22-9.54 4.57 1.26 6.83 3.9 7.48 8.73.45 3.33.1 4.42-2.33 7.1-3.08 3.43-8.22 4.8-11.98 3.2zm-250.9-10.48c-9.95-4.43-10.52-16.83-.9-19.5 5.06-1.4 8.98-.36 12.98 3.42 2.8 2.63 3.42 3.97 3.42 7.22 0 4.75-3.3 8.68-8.13 9.65-3.93.78-3.8.8-7.37-.8zm53.9-2.53c-6.35-2.67-8.57-12.4-3.98-17.36 6.63-7.16 17.58-2.84 17.58 6.94 0 7.4-7.37 13.06-13.6 10.43zm-24.9-5.6c-5.07-2.7-7.14-7.98-5.05-12.97 4.9-11.75 22.1-6.08 18.96 6.26-1.58 6.16-8.56 9.53-13.9 6.7zm206.86-.42c-5.4-2.24-6.9-9.12-2.98-13.68 4.84-5.63 14.62-2.12 14.62 5.27 0 5.94-6.4 10.57-11.64 8.4zm28.1-1.44c-4.26-1.85-6.46-5.65-6.46-11.16 0-3.93.52-5.14 3.4-8.03 10.07-10.06 24.9 3.35 17 15.38-1.5 2.3-7 5.26-9.6 5.18-.72 0-2.67-.63-4.34-1.36zm-258.1-19.9c-3.03-2.78-3.7-4.14-4.1-8.46-.46-4.7-.25-5.4 2.54-8.18 4.45-4.45 9.33-4.26 13.84.52 4.9 5.2 5.04 12.32.32 16.68-4.13 3.8-8.02 3.63-12.6-.56zm231.75-1.1c-4.85-2.67-6.44-9.13-3.6-14.6 1.9-3.68 4.3-5 9.2-5 4.77 0 8.06 2.23 9.94 6.73 3.85 9.2-6.6 17.85-15.55 12.88zM79 168.15c-9.93-5.13-9.68-20.74.4-25.7 3.54-1.74 4.27-1.78 7.95-.5 7.7 2.68 11.25 11.43 7.8 19.22-3.27 7.4-9.85 10.23-16.15 6.98zm132.93-29.54c-.55-1.24-1.86-3.6-2.9-5.25-2.7-4.24-2.55-4.6 1.8-3.9 3.44.54 3.9.36 4.48-1.75.34-1.3.63-6.6.64-11.8v-9.48l-4.74 4.66c-2.6 2.56-7 5.67-9.75 6.92-2.75 1.24-5.33 2.43-5.75 2.64-2.75 1.38 4-9.07 12.8-19.8 3.4-4.12 6.7-8.5 7.34-9.73 1.1-2.1 1.04-2.17-1.42-1.24-6.12 2.33-11.7.04-14.15-5.8-1.87-4.48-1.04-5.32 8.15-8.2l7.53-2.36v-3.75c0-2.56-.8-4.7-2.56-6.8-5.36-6.37-4.92-12.1.95-12.1 1.8 0 5.82-.5 8.92-1.13 4.83-.98 6-.9 8.16.52 4.63 3.04 2.66 10.47-3.4 12.8-.46.17-.6 1.8-.33 3.6.28 1.87.98 3.12 1.62 2.9.63-.24 2.37.3 3.88 1.16 2.24 1.28 2.75 2.3 2.75 5.34 0 3.4-.4 3.97-4 5.8-3.6 1.85-4 2.42-4 5.88 0 3.47.3 3.93 3.25 4.77 3.82 1.08 6.25 5.24 5.3 9.04-.6 2.34-.96 2.5-4.6 1.92l-3.95-.63v12.77c0 15-1.14 18.17-8.1 22.42-5.47 3.32-6.7 3.4-7.93.58zm79.03-.68c-3.02-1.64-8.9-2.15-10.84-.94-3.98 2.5-12.72-4-19.82-14.68l-3.6-5.4-2.8 3.9c-3.3 4.54-9.4 8.93-18.16 13.08-6.12 2.9-9.8 3.73-9.76 2.22 0-.4 3.58-4.32 7.94-8.68 9.03-9.03 12.03-13.95 15-24.57 2.24-8.04 4.26-32.14 3.36-40.03-.66-5.7 1.7-11.97 4.52-11.97 5.07 0 9.56 8.26 8.1 14.88-.45 2-1.3 9.7-1.9 17.12-.6 7.42-1.47 15.14-1.93 17.15-.84 3.56-.67 3.86 6.68 11.85 4.15 4.5 10.95 10.58 15.12 13.5 4.17 2.93 8.68 6.5 10.03 7.93 2.12 2.27 2.25 2.8 1 4.03-.9.9-2.02 1.12-2.95.62zm-49.73-43.3c-4.53-4.8-5.53-16.77-1.4-16.77 3.73 0 7.6 8.33 6.97 15-.4 4.25-2.6 4.95-5.57 1.78zm22.73-2.7c0-.5 2.82-4.4 6.25-8.64 3.44-4.24 7.27-9.22 8.52-11.07 3.37-5 6.73-4.2 10.14 2.4.9 1.8.82 2.72-.48 4.7-.9 1.36-2.5 2.76-3.6 3.1-1.1.35-4.56 2.15-7.67 4-7.12 4.23-13.17 6.76-13.17 5.53z"/><path fill="#871a1f" d="M63.48 445.13c-23.85-3.3-46.03-19.06-56-39.78-7.56-15.77-7-1-7-182 0-182.1-.65-166.5 7.66-183.46 3.32-6.78 5.85-10.15 12.74-17 9.83-9.77 16.4-13.96 28.84-18.42l8.76-3.13h240l7.5 2.34c20.95 6.53 35.74 18.9 45.06 37.65 7.32 14.7 6.9 3.96 6.93 182.1 0 156.6-.03 160.25-1.98 168-5.56 22-22.5 40.98-43.88 49.1-13.9 5.27-12.97 5.24-133.64 5.1-61.6-.05-113.35-.3-115-.52zm239.1-5.3c24.76-6.27 43.55-24.62 50.14-48.98 1.65-6.08 1.76-16.96 1.76-168 0-153.68-.08-161.82-1.83-168-6-21.22-22-38.52-42.6-46.04-13.84-5.04-15.25-5.1-136.07-4.73l-112.5.33L54 6.7c-12.53 3.83-20.6 8.7-30.07 18.13-9.8 9.75-14.82 18.3-17.97 30.63C4.03 62.98 4 67.16 4 222.76c.02 178.14-.43 166.58 7.18 182.02 8.15 16.53 25.23 30.13 44.03 35.05 6.96 1.82 12.52 1.9 123.37 1.96 113 .05 116.3 0 124-1.96zm-142.1-46.53c-30.47-19.6-65.2-30.9-102-33.2-9.6-.6-12-1.05-12-2.23 0-6.36 40.7-15.3 55.03-12.1 6.42 1.43 6.9 3.45.9 3.83-8.84.56-24 2.47-25.26 3.18-.8.45 1.2 1.03 4.86 1.4 16.16 1.7 47.26 10.65 64.14 18.46 7.36 3.4 15.98 8.27 23.84 13.46 2.44 1.6 2.7 1.52 9.4-2.94 8.1-5.36 28.7-15.8 40.04-20.3 9.6-3.8 25.15-7.64 37.73-9.33l9.27-1.24-11.24-4.87c-11.05-4.77-13.07-6.04-11.72-7.4 1.5-1.5 13.62-.2 20.92 2.25 11.45 3.84 25.32 11.1 26.14 13.67.9 2.9-.6 3.67-8.5 4.36-13.75 1.2-32.4 3.6-39.8 5.1-20.8 4.24-42.18 13.9-59 26.66-5.64 4.28-10.82 7.76-11.5 7.73-.68-.04-5.74-2.96-11.24-6.5zm5.7-19.38c-16.6-11.47-29.26-16.67-45.33-18.6-6.67-.8-5.5 3.26-9.47-33.16-2.53-23.28-2.87-25.13-4.5-24.26-1.85 1-4.9.3-4.9-1.1 0-1.92 11.9-9.17 18.2-11.08l6.77-2.06 15.77 2.2c21.43 3 30.17 2.44 54.26-3.5 21.6-5.35 30.02-5.85 44.6-2.65 16.97 3.72 22.9 8.65 10.4 8.65h-6.48l-4.68 29.84c-2.58 16.4-4.83 29.92-5 30.03-.2.1-4.4 1.46-9.34 3-20.38 6.4-29.65 11.25-43.87 22.96-3.77 3.1-7.15 5.6-7.5 5.57-.34-.05-4.36-2.68-8.93-5.85zm10.6-3.26c.9-.9.8-1.6-.46-3-3.13-3.45-6.6-1.07-3.55 2.44 1.8 2.06 2.4 2.15 4 .56zm-11.43-11.5c-2.6-2.06-2.93-2.1-4.58-.62-2.36 2.14-2.27 2.55.96 4.5 2.56 1.56 2.87 1.56 4.58 0 1.78-1.6 1.75-1.73-.95-3.88zm23.47 1.9l2.33-1.85-3.66-2.78-3.68-2.8-2.87 3.37-2.88 3.35 2.64 2.18c2.8 2.3 3.52 2.17 8.12-1.47zm-33.74-6.4c1.03-1.9.8-2.47-1.67-4.45l-2.84-2.27-2.68 3.2-2.67 3.2 2.65 1.18c4 1.8 5.95 1.57 7.23-.84zm20.42-1.83l2.9-3.02-2.5-2.5-2.5-2.48-3.36 3.47-3.37 3.47 2.4 2c3.1 2.6 3.04 2.6 6.43-.94zm25.73-10.75l-3.75-3.27-4.25 4.63c-2.33 2.54-4.23 4.9-4.2 5.27 0 .36 1.7 1.92 3.74 3.47l3.7 2.83 4.26-4.83 4.25-4.82-3.75-3.27zm-58.73 5.02c1.33-1.5 2.43-2.98 2.45-3.25 0-.28-1.58-1.6-3.53-2.92l-3.55-2.42-2.7 2.73-2.7 2.72 3.5 2.92c1.94 1.6 3.65 2.94 3.8 2.95.18.02 1.4-1.2 2.73-2.72zm22.05-2.75c2.24-2.94 2.47-3.76 1.4-5.06-3.05-3.67-4.72-3.63-7.62.16l-2.77 3.63 2.77 2.37c1.52 1.3 2.94 2.38 3.16 2.38.2 0 1.6-1.58 3.05-3.5zm61.38.02c1.9-.65 3.57-1.6 3.74-2.1.23-.74-5-4.9-7.82-6.2-.34-.18-2.1 1.53-3.87 3.78-3.1 3.93-3.17 4.16-1.37 5.5 1.87 1.4 2.67 1.32 9.33-.98zm-103.95-.02c0-.83-.43-1.5-.96-1.5-.54 0-.7.67-.4 1.5.32.82.76 1.5.97 1.5.2 0 .38-.68.38-1.5zm65.88-4.87l4.3-4.38-3.17-2.25c-1.75-1.23-3.47-1.85-3.85-1.37-.37.48-2.24 2.58-4.17 4.68l-3.5 3.8 2.5 1.92c1.38 1.06 2.75 1.93 3.05 1.95.3 0 2.47-1.95 4.83-4.35zm28.08-7.8c.03-.37-1.56-1.66-3.53-2.88l-3.56-2.2-3.43 3.32c-1.87 1.83-3.42 3.6-3.42 3.97 0 .34 1.66 1.8 3.68 3.25l3.68 2.62 3.28-3.7c1.8-2.05 3.3-4.02 3.32-4.4zm-85.78 5.5c2.38-2.14 2.3-3.1-.43-5.4-2.9-2.4-4.02-2.4-6.25.08-1.77 1.95-1.76 2.08.5 4.5 2.77 2.93 3.72 3.06 6.18.83zm25.82-5.34c0-.34-1.4-1.65-3.1-2.9l-3.1-2.3-3.46 3.36-3.47 3.35 3.27 2.74 3.28 2.74 3.3-3.2c1.8-1.75 3.28-3.46 3.28-3.8zm21.67-7.74l-3.07-2.26-3.8 3.7c-2.1 2.05-3.8 4.27-3.8 4.94 0 .67 1.2 2.17 2.68 3.32l2.67 2.1 4.2-4.76 4.2-4.77-3.08-2.27zm54.7 6c1.25-7.6.86-8.1-2.97-3.76l-3.52 4 2.17 1.75c3.08 2.48 3.6 2.23 4.3-2zm-31.87-10l-2.83-2.45-3.3 3.85-3.3 3.85 2.66 2.37 2.68 2.37 3.46-3.8 3.47-3.78-2.82-2.43zm-59.8 5.56l3.3-3.2-2.17-2.3c-2.87-3.06-3.82-2.93-7.7 1.06l-3.25 3.36 2.82 2.1c1.55 1.16 3.02 2.12 3.27 2.14.25 0 1.93-1.4 3.74-3.16zm-20.6-1.1c-1.27-1.3-2.58-.3-1.63 1.24.37.6 1.13.8 1.7.45.67-.42.66-.98-.06-1.7zm45.8-9.28l-3.3-2.44-3.8 3.7c-2.1 2.05-3.8 4.1-3.8 4.56 0 .46 1.24 1.94 2.75 3.27l2.75 2.43 4.37-4.53 4.36-4.54-3.3-2.45zm58.06 6.97l3.16-3.6-3.27-2.42-3.28-2.4-3.53 3.56-3.54 3.57 3 2.43c1.65 1.34 3.3 2.44 3.65 2.44.36 0 2.07-1.6 3.8-3.6zm-33.74-9.7c-1.98-2.2-5.65-1.55-9.05 1.62l-2.33 2.18L182 319l3.15 2.64 3.35-3.65c3.12-3.4 3.23-3.77 1.7-5.46zm-60.33 3.92l3.27-3.38-2.98-2.13c-1.64-1.17-4.12-2.12-5.5-2.12-3.73 0-7.68 1.74-7.68 3.38 0 1.52 6.78 7.53 8.56 7.6.58 0 2.53-1.5 4.33-3.36zm22.5-2.5c3.04-3.17 2.83-3.55-2.47-4.5-2.8-.5-3.96-.23-5.3 1.25-1.64 1.8-1.6 2 .97 4.02 3.4 2.68 3.5 2.67 6.8-.78zm59.3-.9l3.03-3.75-2.3-1.74c-3.2-2.42-3.94-2.22-7.07 1.9l-2.77 3.6 2.33 1.9c3.1 2.5 3.3 2.45 6.78-1.9zm22.02-2.47c1.12-1.24 2.25-3.7 2.5-5.5.4-3.06.26-3.25-2.64-3.25-2.3 0-3.76.86-5.82 3.43l-2.74 3.44 2.63 2.06c3.28 2.58 3.54 2.57 6.06-.18zm-36.22-2.75c.34-.55.15-1-.44-1-.58 0-1.06.45-1.06 1s.2 1 .45 1c.24 0 .7-.45 1.05-1zm-3.32-6.83c16.5-6.24 25.33-7.83 35.82-6.43 4.13.54 7.55.94 7.62.87.06-.07.4-1.98.74-4.24l.63-4.12-8.98-.7c-11.93-.93-18.1-.07-32.87 4.6-6.8 2.13-15.35 4.3-19 4.83-7.06 1-26.16-.05-37.78-2.08-6.37-1.1-23.7-.9-24.9.3-.34.34-.3 2.7.08 5.27.53 3.52 1.06 4.5 2.17 4.08 3.98-1.52 16.4-2.7 22.24-2.1 3.6.38 11.5 1.75 17.54 3.06 15.5 3.36 20.07 2.95 36.68-3.34zm27.2 1.33c.42-1.14-.2-1.5-2.53-1.5-2.63 0-2.9.22-1.85 1.5.7.82 1.82 1.5 2.52 1.5s1.53-.68 1.85-1.5zM158.3 279.9c-4-2.43-5.32-4.87-5.3-9.74 0-7.97 7.35-14.24 16.73-14.3 3.83 0 4.25-.25 4.25-2.43 0-2.9 4.14-8.08 8.07-10.12 1.56-.8 4.67-1.45 6.9-1.45 3.82 0 4.03-.15 3.46-2.45-.88-3.53 1.27-9.1 4.58-11.9 8.55-7.2 21.65-1.2 21.4 9.78-.15 7.3-5.64 12.55-13.15 12.56-4.15 0-4.25.1-4.25 3.36 0 6.73-7.4 13.64-14.62 13.65-2.7 0-3.2.43-3.74 3.08-.87 4.36-4.02 8.4-8.02 10.3-4.7 2.23-12.35 2.08-16.3-.33zm-38.32-6.1c-26.54-7.1-30.36-7.86-44.65-8.7-11.32-.66-12.86-.97-13.17-2.6-.46-2.35 2.82-5.85 10.2-10.88 19.12-13.06 44.37-15.5 65.2-6.28 7.5 3.32 12.42 7.1 12.42 9.56 0 1.07-.4 1.95-.9 1.95-1.47 0-6.07 14.22-5.83 18 .2 3.08-.06 3.52-2.27 3.7-1.37.1-10.82-2.04-21-4.76zm17.56-8.46c2.73-12.36 2.9-11.3-2.05-13.7-2.47-1.2-4.75-1.9-5.1-1.54-.84.84-2.6 16.84-2 18.37.46 1.23 3.8 2.24 6.56 2 .92-.1 1.9-2.02 2.58-5.13zm-16.12-8.04c1-5.26 1.63-9.7 1.43-9.9-.2-.17-2.73-.64-5.62-1.03l-5.25-.7v9.5c0 9.47.02 9.52 2.75 10.52 1.52.54 3.23 1.03 3.82 1.07.6.04 1.88-4.22 2.87-9.47zm-18.07-.1c.35-2.54.63-5.97.63-7.62 0-2.94-.06-2.98-4.15-2.32-5.43.87-5.85 1.2-5.85 4.52 0 5.7 1.17 8.95 3.37 9.38 5.1 1 5.34.83 6-3.95zm-16.37-2.4v-4.08l-5 2.74c-8.08 4.4-8.3 5.4-1.12 5.4h6.12v-4.07zm221.88 13.6c-.25-.26-7.2-1.83-15.42-3.5-17.4-3.53-34.88-4.13-44.8-1.55-9.84 2.56-9.26 3.18-10.05-10.75-1.16-20.42-5-34.3-11.42-41.12-5.36-5.7-16.56-13.12-32.7-21.64-20.6-10.9-22.6-12.23-22.3-14.95l.3-2.55 17.5-.6c9.63-.35 24.32-.98 32.65-1.42 11.3-.58 17.1-.44 22.74.56 7.08 1.25 8 1.72 14.03 7.17 8.38 7.56 11.7 14.1 11.7 22.92-.02 11.63-5.23 21.14-18.22 33.2-7 6.5-7.9 7.74-7.9 10.9v3.54l7.75-3.1c7-2.8 8.83-3.12 18.75-3.15 9.8-.05 11.55.22 15.95 2.45 5.85 2.96 15.1 11.27 20.04 17.97 1.93 2.64 3.5 5.07 3.5 5.4 0 .73-1.44.84-2.1.17zm-53.24-46.5c2.4-3.05 5.2-7.35 6.24-9.55 2.33-4.98 3.7-10.87 2.38-10.37-.52.2-5.73 5.82-11.56 12.48-10.15 11.58-10.6 12.27-10.03 15.73l.6 3.6 4-3.16c2.2-1.75 5.97-5.68 8.37-8.73zm6.36-30.77c0-1.47-8.23-10.3-9.57-10.26-.5 0-4.83 6.3-9.62 14l-8.7 14 2.1 3.58 2.1 3.57 11.85-11.82c6.52-6.5 11.85-12.38 11.85-13.07zm-20-13.33c0-.88-5.2-1.95-9.45-1.95-3.06 0-3.4.42-7.87 9.75-2.57 5.36-4.68 10.2-4.68 10.77 0 .56 1.22 1.75 2.7 2.65l2.7 1.64 8.3-11.08c4.57-6.1 8.3-11.4 8.3-11.78zm-26.77 6.8c1.8-3.44 3.43-6.62 3.63-7.06.4-.92-12 .2-13 1.18-.35.35-.93 2.43-1.28 4.63-.58 3.63-.38 4.15 2.15 5.66 1.53.92 3.34 1.7 4.02 1.76.68.05 2.7-2.72 4.5-6.16zM198 178.9c0-.3-2.1-.4-4.7-.2l-4.7.38 3.45 1.83c3.18 1.68 3.55 1.7 4.7.2.7-.9 1.25-1.9 1.25-2.2zm116 61.3c-.82-.33-2.7-1.73-4.2-3.12-9.46-8.8 2.36-22.85 14.12-16.77 3.62 1.88 6.27 7.37 5.47 11.36-1.2 6-9.78 10.77-15.4 8.54zm-225.6-8.77c-1-2.6 1.37-6.2 9.66-14.56 9.1-9.2 17.47-14.5 26.4-16.7 6.23-1.53 7.2-1.52 14.85.1 9.73 2.08 23.75 7.75 36.2 14.65 12.25 6.78 15.3 9.3 13.93 11.52-.93 1.53-3.24 1.76-19.5 1.97-11 .14-22.68.9-28.95 1.88-5.77.9-19.82 1.92-31.22 2.26-19 .55-20.78.46-21.38-1.1zm20.23-5.18c1.96-.52 2.05-.9 1.1-4.73-.55-2.3-1.18-4.37-1.4-4.6-.47-.58-9.32 8.1-9.32 9.14 0 .9 6.47 1.04 9.63.2zm22.16-1.84c.17-.17 0-4.4-.37-9.43-.5-6.54-1.08-9.12-2.02-9.12-.73 0-3.8.93-6.86 2.07-6.37 2.4-6.48 2.75-3.4 11.85l2.12 6.3 5.1-.67c2.8-.38 5.25-.82 5.42-1zm20.6-2.6c.97-.9 2.66-9.1 2.06-10.06-.56-.9-14.4-5.25-14.97-4.7-.25.26.05 4.12.68 8.58l1.15 8.1 5.1-.56c2.8-.3 5.5-.92 5.97-1.36zm20.62-.74c0-.44-2.47-2-5.5-3.5l-5.5-2.7v7h5.5c3.03 0 5.5-.37 5.5-.8zm-99.66 6.7c-4.46-1.3-8.34-6.22-8.34-10.6 0-2.66.82-4.33 3.4-6.9 3.08-3.08 3.96-3.4 9.1-3.4 5.15 0 6.03.32 9.1 3.4 4.32 4.3 4.6 9 .84 13.48-2.08 2.48-8.16 5.4-10.44 5-.27-.03-1.92-.48-3.66-1zm202.12-3.37c-3.32-3.33-3.4-9.32-.14-12.38 3.37-3.17 8.93-2.95 11.6.46 6.46 8.2-4.15 19.22-11.46 11.9zm-85.26-7.93c-4.97-5-15.9-10.84-33.7-17.97-20.84-8.37-23.1-9.44-29.15-13.9-9.98-7.33-17.62-22.55-17.7-35.25-.07-9.05 3.08-16.15 10.34-23.3 5.5-5.4 17.55-12.2 21.65-12.2 4.35 0 2.87 3.55-2.9 6.93-6.2 3.63-9.25 5.9-8.66 6.43.23.22 3.92.6 8.2.87 7.7.48 7.77.46 8.33-2.12.3-1.43.73-3.16.94-3.85.5-1.63 5.42-1.63 5.53 0 .04.7.02 6.2-.05 12.25-.1 8.77.37 12.98 2.36 20.77 4.6 17.94 10 26.13 32.36 48.94 8.15 8.3 11.3 12.2 10.87 13.34-.34.9-.62 1.8-.62 2.03 0 .23-1 .4-2.25.4-1.23-.03-3.73-1.54-5.55-3.36zm-22.13-23.37c-1.72-2.06-4.97-6.3-7.22-9.4l-4.1-5.63-6.62 3.04c-3.63 1.68-7 3.38-7.44 3.78-.68.6 24.8 11.52 27.67 11.87.47.05-.56-1.6-2.28-3.65zm-25.07-16.83c5.23-1.97 9.78-3.88 10.12-4.25.35-.37 0-2.16-.77-3.98-1.6-3.82-.58-3.95-16.16 2.08l-10.3 4 2.74 2.86c1.52 1.58 3.24 2.87 3.82 2.86.6 0 5.34-1.6 10.56-3.57zm-9-14.9c16.02-3.67 15.2-3.34 14.42-5.85-.36-1.2-.8-2.32-.96-2.5-.16-.2-7.12.2-15.45.9-15.07 1.23-15.15 1.25-14.58 3.54 1.24 4.92 2.55 7.33 3.78 6.94.7-.22 6.46-1.6 12.78-3.04zm12.6-17.1c-.32-.87-.6-3.12-.6-5v-3.42H132.5c-11.83 0-12.54.1-13.92 2.25-.8 1.24-1.76 3.5-2.14 5l-.67 2.75h15.2c13.48 0 15.16-.18 14.62-1.58zm148.8 73.65c-3.3-1.4-6.4-6.02-6.4-9.48 0-6.56 6.64-11.36 13.22-9.54 4.57 1.26 6.83 3.9 7.48 8.73.45 3.33.1 4.42-2.33 7.1-3.08 3.43-8.22 4.8-11.98 3.2zm-250.9-10.48c-9.95-4.43-10.52-16.83-.9-19.5 5.06-1.4 8.98-.36 12.98 3.42 2.8 2.63 3.42 3.97 3.42 7.22 0 4.75-3.3 8.68-8.13 9.65-3.93.78-3.8.8-7.37-.8zm53.9-2.53c-6.35-2.67-8.57-12.4-3.98-17.36 6.63-7.16 17.58-2.84 17.58 6.94 0 7.4-7.37 13.06-13.6 10.43zm-24.9-5.6c-5.07-2.7-7.14-7.98-5.05-12.97 4.9-11.75 22.1-6.08 18.96 6.26-1.58 6.16-8.56 9.53-13.9 6.7zm206.86-.42c-5.4-2.23-6.9-9.12-2.98-13.67 4.84-5.63 14.62-2.12 14.62 5.27 0 5.94-6.4 10.57-11.64 8.4zm28.1-1.44c-4.26-1.85-6.46-5.65-6.46-11.16 0-3.93.52-5.14 3.4-8.03 10.07-10.06 24.9 3.35 17 15.38-1.5 2.3-7 5.26-9.6 5.18-.72 0-2.67-.63-4.34-1.36zm-258.1-19.9c-3.03-2.78-3.7-4.14-4.1-8.46-.46-4.7-.25-5.4 2.54-8.18 4.45-4.45 9.33-4.26 13.84.52 4.9 5.2 5.04 12.32.32 16.68-4.13 3.8-8.02 3.63-12.6-.56zm231.75-1.1c-4.85-2.67-6.44-9.13-3.6-14.6 1.9-3.68 4.3-5 9.2-5 4.77 0 8.06 2.23 9.94 6.73 3.85 9.2-6.6 17.85-15.55 12.88zM79 168.15c-9.93-5.13-9.68-20.74.4-25.7 3.54-1.74 4.27-1.78 7.95-.5 7.7 2.68 11.25 11.43 7.8 19.22-3.27 7.4-9.85 10.23-16.15 6.98zm132.93-29.54c-.55-1.24-1.86-3.6-2.9-5.25-2.7-4.24-2.55-4.6 1.8-3.9 3.44.54 3.9.36 4.48-1.75.34-1.3.63-6.6.64-11.8v-9.48l-4.74 4.66c-2.6 2.56-7 5.67-9.75 6.92-2.75 1.24-5.33 2.43-5.75 2.64-2.75 1.38 4-9.07 12.8-19.8 3.4-4.12 6.7-8.5 7.34-9.73 1.1-2.1 1.04-2.17-1.42-1.24-6.12 2.33-11.7.04-14.15-5.8-1.87-4.48-1.04-5.32 8.15-8.2l7.53-2.36v-3.75c0-2.56-.8-4.7-2.56-6.8-5.36-6.37-4.92-12.1.95-12.1 1.8 0 5.82-.5 8.92-1.13 4.83-.98 6-.9 8.16.52 4.63 3.04 2.66 10.47-3.4 12.8-.46.17-.6 1.8-.33 3.6.28 1.87.98 3.12 1.62 2.9.63-.24 2.37.3 3.88 1.16 2.24 1.28 2.75 2.3 2.75 5.34 0 3.4-.4 3.97-4 5.8-3.6 1.85-4 2.42-4 5.88 0 3.47.3 3.93 3.25 4.77 3.82 1.08 6.25 5.25 5.3 9.04-.6 2.34-.96 2.5-4.6 1.92l-3.95-.63v12.77c0 15-1.14 18.17-8.1 22.42-5.47 3.32-6.7 3.4-7.93.58zm79.03-.68c-3.02-1.64-8.9-2.15-10.84-.94-3.98 2.5-12.72-4-19.82-14.68l-3.6-5.4-2.8 3.9c-3.3 4.54-9.4 8.93-18.16 13.08-6.12 2.9-9.8 3.73-9.76 2.22 0-.4 3.58-4.32 7.94-8.68 9.03-9.03 12.03-13.95 15-24.57 2.24-8.04 4.26-32.14 3.36-40.03-.66-5.7 1.7-11.97 4.52-11.97 5.07 0 9.56 8.26 8.1 14.88-.45 2-1.3 9.7-1.9 17.12-.6 7.42-1.47 15.14-1.93 17.15-.84 3.56-.67 3.86 6.68 11.85 4.15 4.5 10.95 10.58 15.12 13.5 4.17 2.93 8.68 6.5 10.03 7.93 2.12 2.27 2.25 2.8 1 4.03-.9.9-2.02 1.12-2.95.62zm-49.73-43.3c-4.53-4.8-5.53-16.77-1.4-16.77 3.73 0 7.6 8.33 6.97 15-.4 4.25-2.6 4.95-5.57 1.78zm22.73-2.7c0-.5 2.82-4.4 6.25-8.64 3.44-4.24 7.27-9.22 8.52-11.07 3.37-5 6.73-4.2 10.14 2.4.9 1.8.82 2.72-.48 4.7-.9 1.36-2.5 2.76-3.6 3.1-1.1.35-4.56 2.15-7.67 4-7.12 4.23-13.17 6.76-13.17 5.53z"/><path fill="#0e1f0b" d="M63.48 445.13c-23.85-3.3-46.03-19.06-56-39.78-7.56-15.77-7-1-7-182 0-182.1-.65-166.5 7.66-183.46 3.32-6.78 5.85-10.15 12.74-17 9.83-9.77 16.4-13.96 28.84-18.42l8.76-3.13h240l7.5 2.34c20.95 6.53 35.74 18.9 45.06 37.65 7.32 14.7 6.9 3.96 6.93 182.1 0 156.6-.03 160.25-1.98 168-5.56 22-22.5 40.98-43.88 49.1-13.9 5.27-12.97 5.24-133.64 5.1-61.6-.05-113.35-.3-115-.52zm239.1-5.3c24.76-6.27 43.55-24.62 50.14-48.98 1.65-6.08 1.76-16.96 1.76-168 0-153.68-.08-161.82-1.83-168-6-21.22-22-38.52-42.6-46.04-13.84-5.04-15.25-5.1-136.07-4.73l-112.5.33L54 6.7c-12.53 3.83-20.6 8.7-30.07 18.13-9.8 9.75-14.82 18.3-17.97 30.63C4.03 62.98 4 67.16 4 222.76c.02 178.14-.43 166.58 7.18 182.02 8.15 16.53 25.23 30.13 44.03 35.05 6.96 1.82 12.52 1.9 123.37 1.96 113 .05 116.3 0 124-1.96zm-142.1-46.53c-30.47-19.6-65.2-30.9-102-33.2-9.6-.6-12-1.05-12-2.23 0-6.36 40.7-15.3 55.03-12.1 6.42 1.43 6.9 3.45.9 3.83-8.84.56-24 2.47-25.26 3.18-.8.45 1.2 1.03 4.86 1.4 16.16 1.7 47.26 10.65 64.14 18.46 7.36 3.4 15.98 8.27 23.84 13.46 2.44 1.6 2.7 1.52 9.4-2.94 8.1-5.36 28.7-15.8 40.04-20.3 9.6-3.8 25.15-7.64 37.73-9.33l9.27-1.24-11.24-4.87c-11.05-4.77-13.07-6.04-11.72-7.4 1.5-1.5 13.62-.2 20.92 2.25 11.45 3.84 25.32 11.1 26.14 13.67.9 2.9-.6 3.67-8.5 4.36-13.75 1.2-32.4 3.6-39.8 5.1-20.8 4.24-42.18 13.9-59 26.66-5.64 4.28-10.82 7.76-11.5 7.73-.68-.04-5.74-2.96-11.24-6.5zm5.7-19.38c-16.6-11.47-29.26-16.67-45.33-18.6-6.67-.8-5.5 3.26-9.47-33.16-2.53-23.28-2.87-25.13-4.5-24.26-1.85 1-4.9.3-4.9-1.1 0-1.92 11.9-9.17 18.2-11.08l6.77-2.06 15.77 2.2c21.43 3 30.17 2.44 54.26-3.5 21.6-5.35 30.02-5.85 44.6-2.65 16.97 3.72 22.9 8.65 10.4 8.65h-6.48l-4.68 29.84c-2.58 16.4-4.83 29.92-5 30.03-.2.1-4.4 1.46-9.34 3-20.38 6.4-29.65 11.25-43.87 22.96-3.77 3.1-7.15 5.6-7.5 5.57-.34-.05-4.36-2.68-8.93-5.85zm10.6-3.26c.9-.9.8-1.6-.46-3-3.13-3.45-6.6-1.07-3.55 2.44 1.8 2.06 2.4 2.15 4 .56zm-11.43-11.5c-2.6-2.06-2.93-2.1-4.58-.62-2.36 2.14-2.27 2.55.96 4.5 2.56 1.56 2.87 1.56 4.58 0 1.78-1.6 1.75-1.73-.95-3.88zm23.47 1.9l2.33-1.85-3.66-2.78-3.68-2.8-2.87 3.37-2.88 3.35 2.64 2.18c2.8 2.3 3.52 2.17 8.12-1.47zm-33.74-6.4c1.03-1.9.8-2.47-1.67-4.45l-2.84-2.27-2.68 3.2-2.67 3.2 2.65 1.18c4 1.8 5.95 1.57 7.23-.84zm20.42-1.83l2.9-3.02-2.5-2.5-2.5-2.48-3.36 3.47-3.37 3.47 2.4 2c3.1 2.6 3.04 2.6 6.43-.94zm25.73-10.75l-3.75-3.27-4.25 4.63c-2.33 2.54-4.23 4.9-4.2 5.27 0 .36 1.7 1.92 3.74 3.47l3.7 2.83 4.26-4.83 4.25-4.82-3.75-3.27zm-58.73 5.02c1.33-1.5 2.43-2.98 2.45-3.25 0-.28-1.58-1.6-3.53-2.92l-3.55-2.42-2.7 2.73-2.7 2.72 3.5 2.92c1.94 1.6 3.65 2.94 3.8 2.95.18.02 1.4-1.2 2.73-2.72zm22.05-2.75c2.24-2.94 2.47-3.76 1.4-5.06-3.05-3.67-4.72-3.63-7.62.16l-2.77 3.63 2.77 2.37c1.52 1.3 2.94 2.38 3.16 2.38.2 0 1.6-1.58 3.05-3.5zm61.38.02c1.9-.65 3.57-1.6 3.74-2.1.23-.74-5-4.9-7.82-6.2-.34-.18-2.1 1.53-3.87 3.78-3.1 3.93-3.17 4.16-1.37 5.5 1.87 1.4 2.67 1.32 9.33-.98zm-103.95-.02c0-.83-.43-1.5-.96-1.5-.54 0-.7.67-.4 1.5.32.82.76 1.5.97 1.5.2 0 .38-.68.38-1.5zm65.88-4.87l4.3-4.38-3.17-2.25c-1.75-1.23-3.47-1.85-3.85-1.37-.37.48-2.24 2.58-4.17 4.68l-3.5 3.8 2.5 1.92c1.38 1.06 2.75 1.93 3.05 1.95.3 0 2.47-1.95 4.83-4.35zm28.08-7.8c.03-.37-1.56-1.66-3.53-2.88l-3.56-2.2-3.43 3.32c-1.87 1.83-3.42 3.6-3.42 3.97 0 .34 1.66 1.8 3.68 3.25l3.68 2.62 3.28-3.7c1.8-2.05 3.3-4.02 3.32-4.4zm-85.78 5.5c2.38-2.14 2.3-3.1-.43-5.4-2.9-2.4-4.02-2.4-6.25.08-1.77 1.95-1.76 2.08.5 4.5 2.77 2.93 3.72 3.06 6.18.83zm25.82-5.34c0-.34-1.4-1.65-3.1-2.9l-3.1-2.3-3.46 3.36-3.47 3.35 3.27 2.74 3.28 2.74 3.3-3.2c1.8-1.75 3.28-3.46 3.28-3.8zm21.67-7.74l-3.07-2.26-3.8 3.7c-2.1 2.05-3.8 4.27-3.8 4.94 0 .67 1.2 2.17 2.68 3.32l2.67 2.1 4.2-4.76 4.2-4.77-3.08-2.27zm54.7 6c1.25-7.6.86-8.1-2.97-3.76l-3.52 4 2.17 1.75c3.08 2.48 3.6 2.23 4.3-2zm-31.87-10l-2.83-2.45-3.3 3.85-3.3 3.85 2.66 2.37 2.68 2.37 3.46-3.8 3.47-3.78-2.82-2.43zm-59.8 5.56l3.3-3.2-2.17-2.3c-2.87-3.06-3.82-2.93-7.7 1.06l-3.25 3.36 2.82 2.1c1.55 1.16 3.02 2.12 3.27 2.14.25 0 1.93-1.4 3.74-3.16zm-20.6-1.1c-1.27-1.3-2.58-.3-1.63 1.24.37.6 1.13.8 1.7.45.67-.42.66-.98-.06-1.7zm45.8-9.28l-3.3-2.44-3.8 3.7c-2.1 2.05-3.8 4.1-3.8 4.56 0 .46 1.24 1.94 2.75 3.27l2.75 2.43 4.37-4.53 4.36-4.54-3.3-2.45zm58.06 6.97l3.16-3.6-3.27-2.42-3.28-2.4-3.53 3.56-3.54 3.57 3 2.43c1.65 1.34 3.3 2.44 3.65 2.44.36 0 2.07-1.6 3.8-3.6zm-33.74-9.7c-1.98-2.2-5.65-1.55-9.05 1.62l-2.33 2.18L182 319l3.15 2.64 3.35-3.65c3.12-3.4 3.23-3.77 1.7-5.46zm-60.33 3.92l3.27-3.38-2.98-2.13c-1.64-1.17-4.12-2.12-5.5-2.12-3.73 0-7.68 1.74-7.68 3.38 0 1.52 6.78 7.53 8.56 7.6.58 0 2.53-1.5 4.33-3.36zm22.5-2.5c3.04-3.17 2.83-3.55-2.47-4.5-2.8-.5-3.96-.23-5.3 1.25-1.64 1.8-1.6 2 .97 4.02 3.4 2.68 3.5 2.67 6.8-.78zm59.3-.9l3.03-3.75-2.3-1.74c-3.2-2.42-3.94-2.22-7.07 1.9l-2.77 3.6 2.33 1.9c3.1 2.5 3.3 2.45 6.78-1.9zm22.02-2.47c1.12-1.24 2.25-3.7 2.5-5.5.4-3.06.26-3.25-2.64-3.25-2.3 0-3.76.86-5.82 3.43l-2.74 3.44 2.63 2.06c3.28 2.58 3.54 2.57 6.06-.18zm-36.22-2.75c.34-.55.15-1-.44-1-.58 0-1.06.45-1.06 1s.2 1 .45 1c.24 0 .7-.45 1.05-1zm-3.32-6.83c16.5-6.24 25.33-7.83 35.82-6.43 4.13.54 7.55.94 7.62.87.06-.07.4-1.98.74-4.24l.63-4.12-8.98-.7c-11.93-.93-18.1-.07-32.87 4.6-6.8 2.13-15.35 4.3-19 4.83-7.06 1-26.16-.05-37.78-2.08-6.37-1.1-23.7-.9-24.9.3-.34.34-.3 2.7.08 5.27.53 3.52 1.06 4.5 2.17 4.08 3.98-1.52 16.4-2.7 22.24-2.1 3.6.38 11.5 1.75 17.54 3.06 15.5 3.36 20.07 2.95 36.68-3.34zm27.2 1.33c.42-1.14-.2-1.5-2.53-1.5-2.63 0-2.9.22-1.85 1.5.7.82 1.82 1.5 2.52 1.5s1.53-.68 1.85-1.5zM119.97 273.8c-26.54-7.1-30.36-7.86-44.65-8.7-11.32-.66-12.86-.97-13.17-2.6-.46-2.35 2.82-5.85 10.2-10.88 19.12-13.06 44.37-15.5 65.2-6.28 7.5 3.32 12.42 7.1 12.42 9.56 0 1.07-.4 1.95-.9 1.95-1.47 0-6.07 14.22-5.83 18 .2 3.08-.06 3.52-2.27 3.7-1.37.1-10.82-2.04-21-4.76zm17.56-8.46c2.73-12.36 2.9-11.3-2.05-13.7-2.47-1.2-4.75-1.9-5.1-1.54-.84.84-2.6 16.84-2 18.37.46 1.23 3.8 2.24 6.56 2 .92-.1 1.9-2.02 2.58-5.13zm-16.12-8.04c1-5.26 1.63-9.7 1.43-9.9-.2-.17-2.73-.64-5.62-1.03l-5.25-.7v9.5c0 9.47.02 9.52 2.75 10.52 1.52.54 3.23 1.03 3.82 1.07.6.04 1.88-4.22 2.87-9.47zm-18.07-.1c.35-2.54.63-5.97.63-7.62 0-2.94-.06-2.98-4.15-2.32-5.43.87-5.85 1.2-5.85 4.52 0 5.7 1.17 8.95 3.37 9.38 5.1 1 5.34.83 6-3.95zm-16.37-2.4v-4.08l-5 2.74c-8.08 4.4-8.3 5.4-1.12 5.4h6.12v-4.07zm221.88 13.6c-.25-.26-7.2-1.83-15.42-3.5-17.4-3.53-34.88-4.13-44.8-1.55-9.84 2.56-9.26 3.18-10.05-10.75-1.16-20.42-5-34.3-11.42-41.12-5.36-5.7-16.56-13.12-32.7-21.64-20.6-10.9-22.6-12.23-22.3-14.95l.3-2.55 17.5-.6c9.63-.35 24.32-.98 32.65-1.42 11.3-.58 17.1-.44 22.74.56 7.08 1.25 8 1.72 14.03 7.17 8.38 7.56 11.7 14.1 11.7 22.92-.02 11.63-5.23 21.14-18.22 33.2-7 6.5-7.9 7.74-7.9 10.9v3.54l7.75-3.1c7-2.8 8.83-3.12 18.75-3.15 9.8-.05 11.55.22 15.95 2.45 5.85 2.96 15.1 11.27 20.04 17.97 1.93 2.64 3.5 5.07 3.5 5.4 0 .73-1.44.84-2.1.17zm-53.24-46.5c2.4-3.05 5.2-7.35 6.24-9.55 2.33-4.98 3.7-10.87 2.38-10.37-.52.2-5.73 5.82-11.56 12.48-10.15 11.58-10.6 12.27-10.03 15.73l.6 3.6 4-3.16c2.2-1.75 5.97-5.68 8.37-8.73zm6.36-30.77c0-1.47-8.23-10.3-9.57-10.26-.5 0-4.83 6.3-9.62 14l-8.7 14 2.1 3.58 2.1 3.57 11.85-11.82c6.52-6.5 11.85-12.38 11.85-13.07zm-20-13.33c0-.88-5.2-1.95-9.45-1.95-3.06 0-3.4.42-7.87 9.75-2.57 5.36-4.68 10.2-4.68 10.77 0 .56 1.22 1.75 2.7 2.65l2.7 1.64 8.3-11.08c4.57-6.1 8.3-11.4 8.3-11.78zm-26.77 6.8c1.8-3.44 3.43-6.62 3.63-7.06.4-.92-12 .2-13 1.18-.35.35-.93 2.43-1.28 4.63-.58 3.63-.38 4.15 2.15 5.66 1.53.92 3.34 1.7 4.02 1.76.68.05 2.7-2.72 4.5-6.16zM198 178.9c0-.3-2.1-.4-4.7-.2l-4.7.38 3.45 1.83c3.18 1.68 3.55 1.7 4.7.2.7-.9 1.25-1.9 1.25-2.2zm-109.6 52.53c-1-2.6 1.37-6.2 9.66-14.56 9.1-9.2 17.47-14.5 26.4-16.7 6.23-1.53 7.2-1.52 14.85.1 9.73 2.08 23.75 7.75 36.2 14.65 12.25 6.78 15.3 9.3 13.93 11.52-.93 1.53-3.24 1.76-19.5 1.97-11 .14-22.68.9-28.95 1.88-5.77.9-19.82 1.92-31.22 2.26-19 .55-20.78.46-21.38-1.1zm20.23-5.18c1.96-.52 2.05-.9 1.1-4.73-.55-2.3-1.18-4.37-1.4-4.6-.47-.58-9.32 8.1-9.32 9.14 0 .9 6.47 1.04 9.63.2zm22.16-1.84c.17-.17 0-4.4-.37-9.43-.5-6.54-1.08-9.12-2.02-9.12-.73 0-3.8.93-6.86 2.07-6.37 2.4-6.48 2.75-3.4 11.85l2.12 6.3 5.1-.67c2.8-.38 5.25-.82 5.42-1zm20.6-2.6c.97-.9 2.66-9.1 2.06-10.06-.56-.9-14.4-5.25-14.97-4.7-.25.26.05 4.12.68 8.58l1.15 8.1 5.1-.56c2.8-.3 5.5-.92 5.97-1.36zm20.62-.74c0-.44-2.47-2-5.5-3.5l-5.5-2.7v7h5.5c3.03 0 5.5-.37 5.5-.8zm17.2-4.6c-4.97-5-15.9-10.83-33.7-17.96-20.84-8.37-23.1-9.44-29.15-13.9-9.98-7.33-17.62-22.55-17.7-35.25-.07-9.05 3.08-16.15 10.34-23.3 5.5-5.4 17.55-12.2 21.65-12.2 4.35 0 2.87 3.55-2.9 6.93-6.2 3.63-9.25 5.9-8.66 6.43.23.22 3.92.6 8.2.87 7.7.48 7.77.46 8.33-2.12.3-1.43.73-3.16.94-3.85.5-1.63 5.42-1.63 5.53 0 .04.7.02 6.2-.05 12.25-.1 8.77.37 12.98 2.36 20.77 4.6 17.94 10 26.13 32.36 48.94 8.15 8.3 11.3 12.2 10.87 13.34-.34.9-.62 1.8-.62 2.03 0 .23-1 .4-2.25.4-1.23-.03-3.73-1.54-5.55-3.36zm-22.13-23.36c-1.72-2.06-4.97-6.3-7.22-9.4l-4.1-5.63-6.62 3.04c-3.63 1.68-7 3.38-7.44 3.78-.68.6 24.8 11.52 27.67 11.87.47.05-.56-1.6-2.28-3.65zm-25.07-16.83c5.23-1.97 9.78-3.88 10.12-4.25.35-.37 0-2.16-.77-3.98-1.6-3.82-.58-3.95-16.16 2.08l-10.3 4 2.74 2.86c1.52 1.58 3.24 2.87 3.82 2.86.6 0 5.34-1.6 10.56-3.57zm-9-14.9c16.02-3.67 15.2-3.34 14.42-5.85-.36-1.2-.8-2.32-.96-2.5-.16-.2-7.12.2-15.45.9-15.07 1.23-15.15 1.25-14.58 3.54 1.24 4.92 2.55 7.33 3.78 6.94.7-.22 6.46-1.6 12.78-3.04zm12.6-17.1c-.32-.87-.6-3.12-.6-5v-3.42H132.5c-11.83 0-12.54.1-13.92 2.25-.8 1.24-1.76 3.5-2.14 5l-.67 2.75h15.2c13.48 0 15.16-.18 14.62-1.58z"/><path d="M63.48 445.13c-23.85-3.3-46.03-19.06-56-39.78-7.56-15.77-7-1-7-182 0-182.1-.65-166.5 7.66-183.46 3.32-6.78 5.85-10.15 12.74-17 9.83-9.77 16.4-13.96 28.84-18.42l8.76-3.13h240l7.5 2.34c20.95 6.53 35.74 18.9 45.06 37.65 7.32 14.7 6.9 3.96 6.93 182.1 0 156.6-.03 160.25-1.98 168-5.56 22-22.5 40.98-43.88 49.1-13.9 5.27-12.97 5.24-133.64 5.1-61.6-.05-113.35-.3-115-.52zm239.1-5.3c24.76-6.27 43.55-24.62 50.14-48.98 1.65-6.08 1.76-16.96 1.76-168 0-153.68-.08-161.82-1.83-168-6-21.22-22-38.52-42.6-46.04-13.84-5.04-15.25-5.1-136.07-4.73l-112.5.33L54 6.7c-12.53 3.83-20.6 8.7-30.07 18.13-9.8 9.75-14.82 18.3-17.97 30.63C4.03 62.98 4 67.16 4 222.76c.02 178.14-.43 166.58 7.18 182.02 8.15 16.53 25.23 30.13 44.03 35.05 6.96 1.82 12.52 1.9 123.37 1.96 113 .05 116.3 0 124-1.96z"/></g></g></svg>