<svg xmlns="http://www.w3.org/2000/svg" width="358.779" height="445.792" viewBox="0 0 358.77942 445.79208"><g><g><path fill="#c38c8f" d="M54.87 443.82C29.07 437.12 9.32 418 2.2 392.85c-1.74-6.2-1.83-14.3-1.83-169.5 0-152.47.1-163.42 1.76-169.5C7.58 33.7 21.57 16.9 40.37 7.88 57.1-.14 48.03.35 178.87.35 310.7.35 302.77-.1 319.8 8.42c16.22 8.12 29.26 22.94 35.48 40.3l3.1 8.63.27 162c.3 181.16.7 170.6-6.8 186-8.84 18.2-23.4 30.6-44.48 37.88-5.93 2.05-7.47 2.08-125.5 2.3-115.62.23-119.75.17-127-1.7zm240.93-3.03c22.83-3.7 42.08-17.64 51.5-37.28 2.42-5.04 4.98-11.42 5.68-14.17 1.6-6.32 2.53-309.77.97-323.68-2.63-23.63-16.04-42.8-37.27-53.27-15.98-7.88-9.22-7.5-137.1-7.53-128.3-.02-120.9-.44-137.64 7.74-17.37 8.5-30.37 24.35-35.1 42.8C4.92 63 4.88 66.8 4.9 223.27c.02 177.26-.4 166.08 6.57 180.18 9.5 19.24 29.28 33.7 51.18 37.38 7.36 1.24 225.52 1.2 233.17-.03zm-133.43-57.07c-18.7-12.37-42.8-23.13-63.5-28.38-12.8-3.25-34.2-6.48-43-6.5-7.3-.03-9.38-.86-8.4-3.37.93-2.45 7-5.28 17.64-8.23 16.27-4.5 45.97-4.5 44.47 0-.36 1.07-3.94 1.63-20.03 3.08-4.3.4-7.65.88-7.44 1.08.2.22 4.98 1.28 10.6 2.37 28.02 5.43 55.6 15.9 75.17 28.53l6.5 4.2 3.95-2.86c5.86-4.25 31.7-17.05 42.55-21.1 12.28-4.55 19.54-6.4 33.57-8.5l11.43-1.7-10.08-4.37c-5.55-2.4-10.35-5.03-10.66-5.84-.93-2.45 1.88-3.42 8.37-2.88 7.6.63 16 3.4 28.15 9.32 9.84 4.78 13.4 8.16 11.27 10.72-1.23 1.47-2.78 1.7-24.05 3.57-36.15 3.17-61.27 12.34-86.57 31.6-3.9 2.96-7.94 5.34-9 5.3-1.06-.05-5.98-2.76-10.93-6.04zm4.2-20.36c-18-12.2-27.97-16.43-42.77-18.1-3.24-.37-6.28-1.18-6.76-1.8-.63-.82-6.32-51.98-6.2-55.7.02-.3-1.27-.38-2.85-.15-3.88.57-4.84-1.38-2.12-4.28 3.46-3.7 15.42-9.52 20.85-10.16 2.93-.35 11.06.32 20.27 1.67 20.1 2.94 28.06 2.46 51.37-3.1 15.8-3.78 19.33-4.3 29-4.22 16.25.12 34 5.24 34 9.82 0 1.8-.6 1.98-6.25 1.83-5.67-.16-6.3.03-6.75 2-.27 1.2-2.54 14.53-5.04 29.63-2.5 15.12-4.77 27.7-5.03 27.95-.26.27-4.1 1.52-8.5 2.8-19.3 5.57-30.4 11.17-44.4 22.4l-8.25 6.6-10.6-7.18zm11.67-4.32c.28-.44-.35-1.33-1.4-1.98-1.98-1.24-3.6-.07-2.47 1.78.74 1.2 3.18 1.32 3.87.2zm-11-9.34c-1.9-2.1-3.92-2.4-4.96-.7-1.06 1.7 3.72 4.98 5.35 3.64 1.04-.87.96-1.43-.4-2.93zm22.1-2.6c-3.23-2.82-3.6-2.8-6.44.22l-2.33 2.47 2.36 1.9c2.32 1.88 2.4 1.87 5.66-.22l3.3-2.13-2.57-2.25zm-33.04-3.17c1.66-1.84 1.63-2-.88-3.64-2.54-1.67-2.7-1.65-5.1.6l-2.5 2.34 2.78 1.22c3.73 1.66 3.72 1.66 5.7-.53zm20.98-2l2.8-2.9-2.58-1.68c-2.5-1.64-2.64-1.6-5.07 1.16l-2.5 2.85 2.08 1.75c1.15.96 2.18 1.75 2.3 1.75.1 0 1.45-1.3 2.98-2.9zm25.44-9.47l-3.2-2.9-4 4.3-4.03 4.32 3.43 2.9 3.44 2.9 3.77-4.32 3.77-4.3-3.18-2.9zm-58.07 3.13l2.12-2.28-3.5-2.4-3.5-2.4-2.2 2.22-2.2 2.23 2.8 2.44c3.45 3 3.82 3.02 6.48.2zm21.58-2.6l2.73-2.86-2.65-1.73c-2.58-1.7-2.7-1.67-5.48 1l-2.84 2.72 2.2 1.83c2.85 2.4 2.85 2.38 6.05-.95zm60.3 1.26l5.48-1.6-4.12-3.03-4.14-3.05-2.84 3.4c-2.05 2.43-2.55 3.72-1.8 4.62 1.26 1.55.87 1.57 7.44-.34zm-37.2-5.37l3.86-3.97-2.4-1.92-2.37-1.92-3.7 4.14c-3.38 3.8-3.55 4.27-2.1 5.88 2.1 2.37 2.28 2.3 6.7-2.2zm27.5-7.1c.03-.32-1.25-1.53-2.83-2.7l-2.87-2.1-3.2 3.3-3.2 3.3 3.32 2.62 3.32 2.62 2.72-3.24c1.5-1.8 2.73-3.5 2.74-3.8zm-85.1 3.7l2.22-2.36-2.63-1.73c-2.48-1.6-2.72-1.6-4.55.04-1.9 1.72-1.9 1.78.26 4.08 1.2 1.28 2.25 2.33 2.34 2.33.08 0 1.15-1.06 2.36-2.36zm23.46-1.46l2.68-2.8-3.1-2.3-3.1-2.3-2.97 2.86-2.96 2.85 2.62 2.25c3.32 2.85 3.58 2.83 6.83-.56zm23.53-4.35l3.35-3.66-2.66-1.75c-2.64-1.74-2.7-1.72-6.52 2.02l-3.86 3.77 2.66 2.3c1.47 1.27 2.9 2 3.17 1.63.28-.37 2-2.32 3.86-4.34zm55.15.9c0-1.24.3-3.35.67-4.7.6-2.23.37-2.14-2.47 1-2.82 3.12-2.97 3.57-1.48 4.7 2.4 1.8 3.27 1.55 3.28-1zm-31.23-9.92c-2.22-1.67-2.38-1.63-5.56 1.45l-3.3 3.17 2.3 1.72c2.2 1.68 2.36 1.63 5.55-1.44l3.28-3.18-2.28-1.72zm-59.56-1.05l-2.24-2.23-3.17 3.17-3.2 3.17 2.44 2 2.43 2 2.97-2.94 2.98-2.94-2.23-2.23zm84.77-.88c0-.37-1.18-1.44-2.63-2.4-2.58-1.68-2.68-1.65-5.74 1.4l-3.13 3.13 3 2.46 3 2.46 2.75-3.18c1.5-1.76 2.75-3.5 2.75-3.87zm-61.04 2.5c3-3.44 3.08-3.7 1.44-5.5-2.4-2.64-3.52-2.4-7.36 1.56l-3.35 3.47 2.4 2c1.33 1.1 2.7 2.03 3.06 2.05.37.02 2.08-1.6 3.83-3.57zm23.97-4.58c2.3-2.9 2.34-3.15.65-4.38-2.05-1.5-4.16-.98-7.28 1.83l-2.2 1.98 2.2 1.85c2.96 2.47 3.8 2.3 6.63-1.28zm-59.55-1.7l2.75-2.87-2.72-2.14c-1.5-1.18-3.44-1.93-4.32-1.67-.88.24-2.83.75-4.34 1.1-3.6.87-3.47 2.2.5 5.6 4.1 3.5 4.76 3.5 8.13-.02zm22-5.4c-2.87-.58-4.14-.4-5.32.8-1.42 1.43-1.33 1.75.94 3.47 2.5 1.9 2.5 1.9 5.3-.8l2.82-2.68-3.76-.78zm60.08 3.32c2.38-2.5 2.63-3.23 1.57-4.5-1.86-2.25-3.3-1.92-6.53 1.45-2.8 2.93-2.83 3.04-.94 4.47 2.6 1.97 2.65 1.96 5.9-1.43zm24.54-7.5c0-3.6-2.9-4.03-6.16-.9-3.42 3.3-3.48 4-.58 6.4 2.22 1.87 2.28 1.87 4.5-.63 1.24-1.4 2.25-3.58 2.25-4.87zm-43.6-4.48c17.2-6.33 23.26-7.5 35.55-6.8l9.84.53.6-3.06c.35-1.7.38-3.3.1-3.6-.3-.28-5.6-.72-11.82-.95-12-.46-16.1.28-35.67 6.45-7.48 2.36-10.06 2.67-21.5 2.6-7.82-.04-18.6-.9-27-2.2-13.08-1.97-22.37-2.05-25.2-.2-.54.36-.78 2.38-.53 4.5.4 3.35.73 3.74 2.6 3.18 1.17-.35 6.85-.86 12.63-1.14 9.1-.43 12.3-.1 24 2.46 18.93 4.13 20.56 4.05 36.4-1.78zm29.1.93c.78-1.26-.54-1.26-2.5 0-1.3.84-1.27.97.2 1 .92 0 1.96-.45 2.3-1zm26.5 26.35c0-.35 3.85-4.65 8.57-9.54 11.87-12.3 16.44-22.67 16.42-37.2 0-4.9-3.1-20.04-4.34-21.3-.33-.32-8.78 2.22-18.78 5.65-20.67 7.12-31.54 8.8-36.33 5.67-1.4-.92-2.53-2.22-2.53-2.9 0-.67 4.62-3.92 10.25-7.2 7.9-4.63 12.67-8.4 20.82-16.5 12.98-12.9 16.45-19.04 16.4-29.02-.07-10.72-5.7-18.44-18.15-24.97-13.45-7.03-25.98-20.13-30.3-31.66-2.47-6.62-3.76-16.8-2.25-17.73 2.07-1.3 4.23.68 10.06 9.2 8.8 12.78 13.13 17.28 28.8 29.82 28.4 22.7 30.48 32.2 12.63 57.8-3.08 4.4-7.15 9.94-9.05 12.28-3.85 4.74-3.74 4.92 1.57 2.7 7.08-3 24.58-7.45 29.2-7.45 3.37 0 5.85.78 9.13 2.86 5.55 3.53 10.9 9.84 10.9 12.88 0 2.96-2.1 2.92-8.76-.2-2.9-1.34-6.9-2.75-8.92-3.13-3.14-.6-3.57-.45-3.02.98 1.33 3.45 1.92 28.15.82 34-1.52 8.04-7.22 19.47-12.2 24.45-5.5 5.52-20.93 13.27-20.93 10.52zm-155.12-4.33c-5.14-2.75-12.4-11.2-14.4-16.77-1.08-3.05-1.87-9.27-2.2-17.4l-.54-12.67-9.36.56-9.37.55v-2.7c0-2.38.82-3.1 6.38-5.62 3.5-1.6 8.42-3.4 10.9-4.03 3.6-.9 4.7-1.7 5.2-3.7.34-1.4 2.16-5.77 4.04-9.73l3.4-7.2-5.55-5.72c-3.06-3.15-6.7-8.24-8.1-11.3-2.3-5-2.5-6.43-2.04-14.5.96-16.58 8.64-27.53 27.38-38.98 9.3-5.7 9.33-5.74 6.9-14.82-2.16-8-2-10 .8-10 3.2 0 6.34 3.63 8.43 9.7l1.77 5.08 12-4.97c15.68-6.5 31.5-11.8 35.18-11.8 4.02 0 12.32 5.37 12.32 7.97 0 1.35-.66 2.02-1.97 2.02-5.5 0-33.56 8.25-44.05 12.95l-11.48 5.15.32 13.33c.3 12.03.08 14.02-2.1 20.32-2 5.72-2.3 7.94-1.7 12.36.93 6.7 2.6 10.42 5.55 12.35 1.25.83 8.26 3.84 15.57 6.7 11.6 4.5 13.94 5.82 18.37 10.26 7.4 7.43 9.63 12.66 9.26 21.75-.4 10.04-2.12 9.77-7.4-1.15-5.06-10.5-9.52-14.74-19.48-18.5-12.77-4.82-19.18-8.55-25.2-14.64-3.2-3.2-6.38-5.85-7.1-5.85-.7 0-2.16 1.6-3.2 3.58l-1.9 3.57 2.44 2c1.34 1.1 9.93 5.77 19.07 10.4 16.67 8.42 24.72 14.13 27.5 19.52 1.7 3.3 1.94 7.93.4 7.93-.6 0-4.3-2.1-8.26-4.66-3.94-2.57-13.53-7.7-21.3-11.4-7.76-3.7-16.66-8.35-19.76-10.34-3.1-1.98-5.8-3.6-6-3.6-.53 0-5.4 11.27-5.78 13.36-.25 1.43.62 2.16 3.67 3.1 12.76 3.87 27.1 15.47 19.25 15.55-1.24.02-7.3-.98-13.45-2.2-6.16-1.25-11.53-1.93-11.92-1.53-1.28 1.28 3.6 23 6.6 29.45 1.6 3.4 4.32 7.98 6.05 10.14 5.3 6.6 2.33 10.12-5.15 6.13zm8.2-103.3c7.4-14.37 8.92-19.48 8.92-29.88 0-4.87-.28-8.85-.62-8.85-1.3 0-10.32 7.2-13.72 10.96-6.5 7.2-8.16 11.5-8.13 21.05.02 7.17.46 9.44 2.82 14.5 3.3 7.12 2.96 7.37 10.74-7.77zm79.22 54.1c.94-7.02 7-14.35 18.3-22.12 22.82-15.7 28.42-20.74 25.32-22.82-4.03-2.7-16.25 2.8-28.43 12.74-16.42 13.4-19.44 15.38-23.6 15.38-3.8 0-3.84-.05-3.3-3.25 1.02-5.8 6.3-15.4 10.7-19.47 4.9-4.5 14.82-10.5 27.2-16.46l8.5-4.06-2.07-2.62c-1.13-1.45-2.97-4.1-4.1-5.88-1.82-2.92-2.5-3.25-6.68-3.22-8.63.04-22.4 4.53-23.6 7.7-.4 1.02 1.1 3.1 4.43 6.16 5.6 5.14 6.27 7.68 2.47 9.13-4.56 1.73-12.82-3-16.05-9.22-5.37-10.32 3.86-17.66 25.1-19.98l10.23-1.12.53-7.72c.6-8.6 1.9-11.98 4.66-11.98 3.04 0 5.03 5.7 4.9 14.1-.1 6.04.42 8.78 2.85 14.9 2 5.08 3.43 7.4 4.4 7.15.78-.2 3.93-.6 7-.87 5.2-.5 5.73-.33 7.75 2.23 3.12 3.97 3 12.9-.24 19.3-3.17 6.27-8.64 11.17-23.65 21.23-6.8 4.55-16.33 12.04-21.17 16.62-10.17 9.64-12.3 10.4-11.46 4.15zm-29.58-32.13c-8.32-8.44-11.36-9.94-19.9-9.86-5.88.05-7-.23-8.3-2.1-2.13-3.02-1.9-9.6.43-13.44 3.24-5.3 9.17-7.78 18.54-7.72 15.45.1 19.53 4.5 20.28 21.87.48 11.1-.54 16.88-3.06 17.37-.98.18-4.27-2.33-8-6.13zm-2.87-20.02c1.56-1.9-.82-5-3.14-4.12-1.72.66-2.35 3.5-1.07 4.78 1.08 1.08 3 .77 4.2-.66zm7.5-16.13c-.3-.82.4-2.8 1.56-4.44 3-4.2 6.02-11.2 6.05-13.96.03-3.64-2.8-8.75-5.58-10-5.45-2.5-12.5-.63-21.77 5.76-2.4 1.66-4.66 2.73-5 2.4-2.8-2.8 3.85-10.97 11.63-14.34 7.2-3.12 18-3.73 22.72-1.28 7.97 4.15 10.6 15.43 5.8 25.02-4.14 8.3-13.78 15.07-15.4 10.83zm-27.22-.87c-4.13-5 14.76-23.68 23.96-23.68 3.38 0 6.9 2.67 6.9 5.23 0 2.87-7.3 9.68-15.8 14.72-8 4.76-13.14 6.03-15.05 3.73zm122.1-53.86c-.68-.67-1.23-1.83-1.23-2.57 0-1.05-1.36-1.2-6.25-.72-3.44.34-7.55 1.12-9.15 1.73-2.52.97-3.12.83-4.7-1.1-2.4-3-3.22-9.24-2.72-20.86l.43-9.64-2.06 2.88c-2.83 3.97-9.22 9.94-18.23 17.02-6.84 5.38-4.24-1.6 7.1-19.05 2.5-3.85 4.56-7.5 4.56-8.1 0-.6-1.12-1.6-2.5-2.22-1.38-.63-3.28-2.77-4.23-4.76-1.58-3.32-1.6-3.7-.1-4.8.9-.64 4.75-2 8.6-2.98 6.05-1.6 7.15-2.23 8.46-5 1.33-2.8 1.32-3.5-.03-6.35-1.25-2.62-1.3-3.48-.24-4.75.7-.85 2.07-1.55 3.04-1.55.96 0 2.3-.67 3-1.5 1.04-1.26.88-1.5-.98-1.5-3.17 0-9.26-6.35-8.86-9.22.3-2 1.17-2.4 7.1-3.28 5.9-.87 7.13-1.42 9.33-4.25 2.92-3.73 5.3-4.1 7.9-1.25 2.1 2.3 3.78 2.45 9.88.82 3.8-1.02 4.78-.94 7.07.56 3.2 2.1 3.97 3.82 3.15 7.1-.66 2.6-2.8 3.47-13.83 5.57-3.16.6-6.03 1.55-6.38 2.13-.42.67.37.83 2.23.46 9.46-1.9 9.8-1.87 12.28.76 2.04 2.17 2.26 3 1.46 5.78-.62 2.16-1.7 3.42-3.28 3.8-2.15.5-2.2.67-.7 1.92 1.24 1.03 3.4 1.2 8.6.73 6.73-.64 7.03-.57 10.47 2.45 1.95 1.7 3.52 3.85 3.5 4.75-.05 2.93-2.8 5.44-6.68 6.08l-3.78.62 8 6.25c13.43 10.48 18.33 14.64 18.94 16.08.92 2.1-1.48 4.36-3.86 3.62-7.03-2.16-9.66-2.46-11.53-1.3-2.52 1.6-7.4-.64-13.3-6.1l-4.23-3.9.3 12.65c.23 10.6 0 13.2-1.5 16.08-1.84 3.5-2.6 4.06-7.8 5.8-1.65.57-3.7 1.32-4.53 1.67-.84.35-2.08.1-2.75-.58zm-4.48-13.47l5.25-.63v-7.52l-5.62 1.47c-3.1.8-6.24 1.24-7 .94-1-.38-1.38.4-1.38 2.94 0 3.86.02 3.87 8.75 2.82zm-1.5-15.9c2.44-.44 4.3-.24 5.26.56 1.28 1.06 1.5.6 1.5-3.4 0-5.25-.36-5.4-7.4-3-3.28 1.13-5.04 2.38-5.68 4.07-1.26 3.32-1.2 3.53.82 2.94.96-.28 3.44-.8 5.5-1.18zm10.2-16c5.76-3.42 2.67-4.06-9.22-1.94-10.24 1.82-13.23 2.87-13.23 4.63 0 .73 2.9.84 9.25.35 7-.55 10.2-1.3 13.2-3.06zm-7.53-16.07c.84-.26 1.04-.8.5-1.33-1.3-1.25-6.2-.13-6.84 1.57-.52 1.36 1.53 1.28 6.33-.24z"/><path fill="#8d958c" d="M57.37 444.38c-23.22-5.06-44.48-23-52.57-44.38-5.08-13.4-5-10.08-4.67-181.2C.46 39.5-.27 55.75 8.15 39.34c3.13-6.1 6.25-10.15 13.16-17.06C31.34 12.26 40.35 6.84 53.9 2.7L61.37.4l112.5-.32c77.4-.22 115.1.02 120.82.77 25.63 3.37 47.18 18.86 57.74 41.52 6.83 14.64 6.52 5.4 6.2 184.48l-.27 161.5-2.93 8.4c-8 22.9-28.1 41.12-51.98 47.12-7.68 1.92-11.36 1.98-124 1.9-91.7-.06-117.35-.35-122.1-1.4zm246-4.8c3.3-.96 9.82-3.6 14.5-5.88 11.42-5.55 23.8-17.75 29.23-28.85 7.83-15.97 7.2-1.15 7.55-174.5.2-102.06-.04-158.3-.72-164.67-1.8-16.76-7.77-29.5-19.14-40.8-7.83-7.76-16.5-13.08-27.43-16.8l-8-2.73-116-.3c-81.56-.2-117.92.05-122.48.83C36.92 9.98 17.4 26.1 8.52 49.16l-3.16 8.2-.28 162.5c-.32 182.07-.8 169.64 7 185.22 4.76 9.5 15.7 21.2 24.93 26.6 6.64 3.88 17.36 7.78 24.96 9.06 3.03.5 55.26.83 120.37.74 106.1-.15 115.46-.3 121-1.9zm-141-56.3c-29.74-19.4-67.6-32.1-101.43-34.1-5.8-.33-11.42-1.04-12.45-1.57-1.8-.9-1.77-1.06.5-3.26 3.08-3 14.82-7.12 25.6-9 15.67-2.73 34.83-1.62 34.44 2-.1.98-3.54 1.5-20.67 3.08-7 .66-7.56.85-4.5 1.5 40.27 8.77 63.72 17.3 83.4 30.35l6.9 4.58 5.6-3.72c21.98-14.6 52.3-26.07 77.56-29.38l9.6-1.25-9.28-3.92c-15.17-6.4-16.92-10.44-4-9.25 7.43.7 17.46 4.14 29.43 10.14 8.22 4.12 11.63 7.22 10.3 9.37-1 1.6-7.45 2.78-18.66 3.44-37.73 2.2-66.2 11.92-91.47 31.2-4.6 3.5-8.93 6.36-9.62 6.35-.7-.02-5.76-2.96-11.26-6.55zm6-19.04c-17.62-12.1-26.87-16.25-41.03-18.4-4.38-.65-8.65-1.53-9.47-1.95-1.17-.6-2.1-6.65-4.2-27.16-1.46-14.5-2.7-27.18-2.74-28.16-.05-1.34-.62-1.63-2.4-1.18-1.42.36-2.78.02-3.52-.88-1-1.2-.34-2.08 3.74-5.07 10.9-8 19.2-9.77 33.63-7.16 12.97 2.34 27.72 3 36.5 1.64 4.12-.64 14.2-2.73 22.36-4.65 20.3-4.77 26.6-5.16 39.64-2.5 10.46 2.16 21 6.1 21 7.87 0 2.12-3.08 3.25-8.1 2.97l-5.3-.3-4.95 29.7-4.95 29.7-7.1 2.1c-21.23 6.25-33.07 12.18-47.52 23.84-3.52 2.84-6.67 5.14-7 5.1-.32-.02-4.18-2.52-8.58-5.54zm10.1-4.54c1.08-1.76-2.6-4.1-4.28-2.7-1.12.92-1.04 1.35.4 2.45 2.2 1.66 2.96 1.7 3.86.25zm-11.6-10.83c-2.3-1.74-2.63-1.76-4.26-.3-1.67 1.54-1.62 1.7 1 3.43 2.46 1.62 2.9 1.64 4.26.28 1.35-1.36 1.24-1.73-.98-3.4zm22.4 2.53l2.9-2.37-2.9-2.54-2.9-2.54-3 3-3 3 2.36 1.95c2.92 2.4 3 2.4 6.55-.5zm-32.67-7.5c1.05-1.67.85-2.24-1.44-4.03l-2.66-2.1-2.23 2.8-2.23 2.78 2.17 1.22c3.13 1.75 5.02 1.55 6.4-.67zm21.02-1.93l2.13-2.88-2.25-2.13-2.26-2.12-2.86 2.98c-2.78 2.9-2.8 3.04-1.03 5 2.46 2.72 3.75 2.55 6.27-.86zm24.7-1.87c1.93-2.06 3.5-4.23 3.52-4.8.02-.6-1.37-2.1-3.07-3.37l-3.1-2.3-3.9 3.82c-2.15 2.1-3.9 4.2-3.9 4.65 0 .97 5.13 5.67 6.23 5.72.4.02 2.3-1.66 4.23-3.72zm-58.65-9.43l-3.3-2.72-2.46 2.43-2.45 2.43 2.9 3.03 2.9 3.03 2.86-2.74 2.87-2.74-3.3-2.7zm23.03-2.44l-2.63-2.63-3.08 3.37-3.08 3.38 2.72 2.24 2.72 2.22 2.98-2.98 3-3-2.64-2.6zm60.2 6.02l5.4-1.6-3.47-2.87c-1.9-1.58-4-2.9-4.66-2.9-1.7-.04-6.6 6.66-5.83 7.93.87 1.42 2.23 1.33 8.56-.55zm-37.5-5.02l3.8-4.62-2.42-1.82c-2.4-1.82-2.44-1.8-6.16 1.82-2.06 2-3.75 4.2-3.75 4.83 0 .88 3 3.7 4.63 4.37.07.03 1.83-2.03 3.9-4.57zm24.66-3.07c3.53-3.38 3.52-4.66-.04-7.2l-2.84-2.02-3.38 3.5-3.4 3.47 3 2.45c1.63 1.33 3.17 2.45 3.4 2.47.26.02 1.72-1.18 3.26-2.66zm-81.6-.4c1.88-2.08 1.87-2.13-1.07-4.47l-2.98-2.38-2.34 2.2-2.35 2.2 2.82 2.27c3.45 2.75 3.55 2.75 5.9.15zm22.9-6.66c-3.32-2.86-3.55-2.84-6.93.7l-2.82 2.93 2.9 2.5 2.87 2.5 3.3-3.2 3.3-3.18-2.6-2.25zm24.1-4.88l-2.9-2.53-3.8 4.32-3.8 4.33 2.7 2.24 2.7 2.22 4-4.04 4-4.04-2.9-2.52zm54.8 4.13l.65-5-3.05 3.5-3.06 3.5 2.17 1.78c1.2.97 2.28 1.65 2.4 1.5.14-.16.53-2.53.9-5.28zm-32.13-2.97l2.77-3.46-2.6-1.7c-2.5-1.65-2.64-1.62-5.7 1.43-3.05 3.06-3.08 3.16-1.27 5.16 2.54 2.82 3.6 2.6 6.8-1.42zm-58.94-6.25l-2.8-2.22-3.32 3.23-3.33 3.22 2.7 2.32 2.68 2.3 3.43-3.3 3.42-3.32-2.8-2.22zm-21.65 4.53c-.32-.8-.56-.56-.6.6-.05 1.06.2 1.65.52 1.32.33-.33.37-1.2.08-1.92zm46.5-8.5l-2.68-2.2-4 4-4 4 2.75 2.4 2.76 2.4 3.93-4.2 3.95-4.2-2.7-2.2zm59.82 4.03c0-.72-1.16-2.06-2.57-3-2.5-1.63-2.64-1.6-5.75 1.55l-3.18 3.22 2.98 2.4 2.97 2.42 2.78-2.67c1.52-1.46 2.77-3.23 2.77-3.94zm-35.68-6.55c-1.95-2.14-4.7-1.6-8.15 1.56l-2.32 2.13 2.8 2.23 2.8 2.24 3.26-3.16c3.05-2.97 3.15-3.27 1.6-5zm-61.14 3.5c3.4-3.23 3.45-3.93.56-6.37-1.58-1.32-3.15-1.72-5.25-1.33-7.88 1.45-8.35 2.7-2.75 7.27 2.06 1.7 3.95 3.08 4.2 3.1.24.02 1.7-1.18 3.24-2.66zm83.12-8.63c-2.35-1.84-2.46-1.84-4.45-.04-3.88 3.5-4.35 5.5-1.76 7.44 2.3 1.74 2.38 1.7 5.47-1.87l3.14-3.63-2.4-1.9zM154.23 303l2.74-2.87-3.8-.62c-5.14-.82-7.54 1.32-4.83 4.32 2.37 2.62 2.63 2.58 5.9-.83zm83.85-7.16c.65-4.42-2.8-4.77-7-.7l-3.33 3.2 2.68 2.32 2.7 2.3 2.26-2.13c1.24-1.17 2.45-3.42 2.68-5zm-44.56-4.36c16.84-6.6 23.5-7.97 35.53-7.33l10.7.56.65-3c.36-1.64.35-3.3-.02-3.67-.37-.37-7.05-.68-14.85-.68-14.03 0-14.3.04-28.16 4.5-13.47 4.3-14.44 4.47-25.5 4.34-6.33-.08-18.53-1.14-27.12-2.34-11.73-1.65-16.97-1.98-21-1.32l-5.38.87.32 3.97c.17 2.18.46 4.1.64 4.3.18.17 2.93-.16 6.1-.75 9.28-1.7 18-1.2 32.43 1.95 17.2 3.75 23.12 3.52 35.65-1.4zm29.9 1.3c.9-1.48.04-2.1-1.9-1.35-.9.35-1.4 1.03-1.1 1.53.76 1.2 2.2 1.13 3-.18zm27.12 25.4c-.37-.36 2.9-4.18 7.3-8.48 9.5-9.3 13.42-15.77 15.65-25.76 1.9-8.56 1.43-20.35-1.15-28.9-1.58-5.25-1.64-5.3-4.8-4.63-1.75.4-10.16 3.15-18.68 6.15-17.96 6.3-27.38 7.7-32.87 4.87-1.8-.93-3.1-2.22-2.88-2.88.2-.65 4.5-3.66 9.53-6.7 22.08-13.27 35.9-29.03 37.83-43.17.8-5.95-1.64-14.22-5.64-19.06-1.78-2.13-6.83-5.77-11.8-8.5-11.2-6.13-25.6-20-29.5-28.4-3.35-7.18-5.6-19.32-3.9-21.02 1.65-1.65 4.3.9 10.53 10.17 6.7 9.96 16.02 19.53 28.2 29 17.85 13.85 23.8 21.9 23.82 32.2 0 8.5-4.6 16.78-22.2 39.8-1.88 2.45-1.63 2.4 11.22-1.86 15.17-5.03 23.74-6.2 28.3-3.82 3.76 1.94 12.08 10.26 12.93 12.9 1.2 3.82-1.15 4.24-7.56 1.36-3.35-1.5-7.7-3-9.7-3.3-3.47-.57-3.6-.48-3 1.8.37 1.33.95 8.26 1.3 15.4.5 10.4.3 14.3-1 19.4-2.3 8.9-8.14 19.5-13.18 23.94-6.4 5.64-17.2 11.1-18.78 9.5zm-155.17-4.4c-12.14-6.45-17.46-17.72-17.5-37.1v-9.7l-8.98.58c-8.04.52-9.05.4-9.67-1.22-.47-1.2 0-2.36 1.4-3.5 2.34-1.9 13.22-6.53 17.42-7.42 1.63-.35 2.94-1.45 3.34-2.82.35-1.24 2.24-5.72 4.2-9.97l3.55-7.72-5.94-6.35c-7.47-8-9.63-12.43-10.14-20.9-1.08-17.67 8.36-31.57 30.04-44.26l6.47-3.8-1.5-6.62c-2.23-9.87-2.14-12.57.43-12.93 2.7-.4 5.8 3.42 8.12 9.96.94 2.68 1.95 4.75 2.24 4.6 4.46-2.18 33.47-13.2 39.2-14.86 7.53-2.2 7.76-2.22 11.7-.44 4.8 2.17 8.88 6.2 7.54 7.47-.5.5-4.76 1.66-9.43 2.6-13.2 2.66-27.17 7.1-37.8 12.03l-9.7 4.5.34 12.77c.32 11.46.1 13.52-2.12 20.22-2.07 6.2-2.35 8.37-1.7 12.95 1.6 11.14 2.6 12.17 17 17.68 14.24 5.46 18.06 7.63 23.33 13.25 6.6 7.04 8.84 12.45 8.47 20.32-.43 8.84-2.3 8.28-7.5-2.25-4.94-10-8.96-13.9-17.6-17.06-12.1-4.45-21.42-9.75-27.05-15.43-3-3.03-6.16-5.52-6.98-5.52-.83 0-2.52 1.63-3.75 3.63l-2.25 3.62 2.4 1.84c1.33 1 8.5 4.82 15.92 8.47 16.7 8.2 26.3 14.5 30.1 19.74 2.66 3.7 3.98 9.7 2.1 9.7-.43 0-4.37-2.27-8.74-5.07-4.38-2.8-14.46-8.2-22.4-12.02-7.95-3.82-16.6-8.32-19.22-10-2.6-1.68-5.18-2.8-5.7-2.5-.96.6-6.13 12.9-6.13 14.6 0 .56 1.08 1 2.4 1 3.3 0 15.68 6.52 20.12 10.58 6.24 5.73 3.1 6.74-10.72 3.43-4.57-1.1-9.55-2-11.06-2-3.38 0-3.45 1.04-.84 13.5 2.52 12.06 5.43 19.4 10.18 25.73 5.86 7.8 4.23 10.8-3.6 6.67zm7.2-101.76c7.15-13.1 9.25-20.08 9.28-30.92 0-5.1-.36-9.25-.83-9.25-1.42 0-8.95 5.8-13.1 10.08-8.07 8.3-10.7 18.96-7.63 30.92.9 3.56 2.37 7.57 3.24 8.9 1.56 2.38 1.64 2.4 3.03.52.8-1.05 3.48-5.67 6-10.25zm79.65 55.3c-.95-2.47 2.42-9.93 6.66-14.75 2.15-2.44 9.43-8.2 16.2-12.83 13.4-9.17 22.25-16.98 21.57-19.06-.24-.73-2-1.46-3.9-1.63-5.18-.44-17.73 6.36-28.38 15.38-11.85 10.03-17.18 13.42-21.07 13.42h-3.17l.87-4.66c1.1-5.98 4.6-11.9 10.32-17.54 4.53-4.46 21.47-14.66 31.2-18.8l5.17-2.18-4.67-5.9c-4.58-5.8-4.75-5.9-9.73-5.9-8-.04-23.43 5.32-23.43 8.13 0 .62 2.25 3.33 5 6.04 2.75 2.7 5 5.53 5 6.27 0 1.97-5.02 3.46-7.98 2.36-6.24-2.3-12.03-8.95-12.03-13.8 0-8.5 10.08-13.83 29.25-15.5l7.75-.68.08-5.16c.1-7.27 2.05-14.08 4.1-14.47 3.27-.62 5.27 4.45 5.46 13.83.15 7.08.72 9.93 3.1 15.57 1.93 4.56 3.4 6.8 4.35 6.56.78-.18 3.67-.57 6.42-.85 7.15-.75 9.65 1.45 10.28 9.06 1 12.07-4.4 19.02-26.18 33.6-7.64 5.1-17.58 12.82-22.1 17.16-4.52 4.34-8.52 7.9-8.9 7.9-.36 0-.93-.7-1.25-1.55zm-29.34-34.95c-7.93-8-11.63-9.86-19.5-9.77-7.8.1-10.5-2.08-10.5-8.42 0-3.56.62-5.03 3.6-8.33 6.32-7 17.52-8.73 28.32-4.4 3.5 1.4 4.7 2.58 6.4 6.3 3.8 8.48 3.3 31.1-.7 31.1-.65 0-4.08-2.92-7.62-6.48zm-2.6-20.15c.72-1.88-1.02-4.37-3.07-4.37-1.7 0-2.76 2.44-1.97 4.5.77 2 4.26 1.92 5.05-.13zm-19.75-16.04c-2.5-2.5 2.46-11.9 8.94-17 5.9-4.63 9.85-6.33 14.73-6.33 8.8 0 8.76 5.53-.1 12.53-6.1 4.83-18.38 11.47-21.2 11.47-.93 0-2-.3-2.37-.67zm26.34-.34c0-.56 1.6-3.45 3.58-6.42 6.35-9.55 5.44-18.43-2.25-22.08-3.02-1.43-3.95-1.46-8.22-.2-2.64.77-7.3 3.05-10.3 5.06-7.97 5.28-9.9 4.6-5.85-2.06 2.74-4.5 8.46-7.98 16.24-9.9 15.3-3.78 24.5 2.04 24.72 15.66.14 8.95-8.43 20.95-14.97 20.95-1.63 0-2.96-.46-2.96-1zm94.5-56.02c-.66-2.06-1.15-2.18-6.36-1.63-3.1.32-7.47.88-9.72 1.23-3.84.6-4.15.46-5.32-2.37-.85-2.05-1.15-7.33-.92-16.6.18-7.5.3-13.6.24-13.6-.04 0-1.78 2.47-3.87 5.5-2.07 3.02-4.16 5.5-4.62 5.5-.47 0-2.33 1.45-4.14 3.24-4.75 4.68-10.8 9.06-11.53 8.33-.88-.9 2.9-8.3 9.87-19.23 3.33-5.24 5.9-9.6 5.73-9.7-6.1-3-8.84-6.57-7.58-9.86.3-.8 4-2.47 8.25-3.72 7.02-2.1 7.82-2.6 9.16-5.8 1.05-2.5 1.16-3.84.4-4.6-.58-.6-1.06-2.28-1.06-3.76 0-2.1.6-2.84 2.74-3.38 4.74-1.2 5.8-4.53 1.44-4.53-4.23 0-8.9-5.9-7.53-9.5.38-.96 1.92-1.5 4.35-1.5 6.65 0 10.1-1.12 11.05-3.58 1.76-4.64 7.32-5.2 9.7-.96.64 1.18 1.53 1.25 4.78.36 6.58-1.78 10.57-1.43 12.64 1.13 4.34 5.35 1.34 8.43-9.86 10.13-4.94.76-8.4 1.78-8.72 2.6-.6 1.57 2.1 1.7 7.9.35 5.02-1.16 7.53.72 7.53 5.65 0 2.62-.56 3.62-2.5 4.5-2.38 1.1-2.43 1.25-.83 3 1.46 1.62 2.64 1.8 8.76 1.24 6.3-.56 7.37-.4 9.82 1.55 5.03 3.98 2.66 11.03-3.7 11.03-2.5 0-2.65.18-1.42 1.68.75.92 4.97 4.35 9.37 7.6 11.17 8.3 15.5 12.4 15.5 14.66 0 2.96-1.46 3.27-7.02 1.45-4.17-1.36-5.53-1.44-7.4-.44-1.94 1.04-2.96.9-6.48-.9-2.3-1.17-5.87-3.65-7.92-5.5l-3.73-3.37.02 13.16c.03 11.48-.23 13.6-2.02 16.64-1.5 2.53-3 3.7-5.5 4.2-1.9.4-4.65 1-6.1 1.35-2.17.53-2.78.24-3.36-1.58zm.25-12.08c2.12-.8 2.25-1.4 2.25-10.43 0-11.46-.83-13.65-4.75-12.5-7.5 2.17-10.25 3.92-10.25 6.5 0 2.8.6 2.94 6.43 1.6 4.8-1.12 7.57.1 7.57 3.36 0 3.34-2.07 4.64-8.43 5.3l-5.57.57v7.43l5.25-.5c2.9-.26 6.26-.86 7.5-1.32zm-4.87-28.45c4-.4 7.58-1.3 8.22-2.08.63-.75 2-1.37 3.02-1.37s1.87-.42 1.87-.94c0-1.4-2.24-2.53-4.5-2.26-15.88 1.9-26.26 5.67-20.3 7.36 1.27.36 2.8.5 3.45.32.63-.18 4.33-.64 8.23-1.03zm3.05-19.05c.24-.24-.06-.93-.68-1.54-1.46-1.46-5.86-.3-6.65 1.76-.54 1.38-.08 1.52 3.14.92 2.08-.4 3.96-.9 4.2-1.13z"/><path fill="#7f7f7f" d="M57.37 444.38c-23.22-5.06-44.48-23-52.57-44.38-5.08-13.4-5-10.08-4.67-181.2C.46 39.5-.27 55.75 8.15 39.34c3.13-6.1 6.25-10.15 13.16-17.06C31.34 12.26 40.35 6.84 53.9 2.7L61.37.4l112.5-.32c77.4-.22 115.1.02 120.82.77 25.63 3.37 47.18 18.86 57.74 41.52 6.83 14.64 6.52 5.4 6.2 184.48l-.27 161.5-2.93 8.4c-8 22.9-28.1 41.12-51.98 47.12-7.68 1.92-11.36 1.98-124 1.9-91.7-.06-117.35-.35-122.1-1.4zm246-4.8c3.3-.96 9.82-3.6 14.5-5.88 11.42-5.55 23.8-17.75 29.23-28.85 7.83-15.97 7.2-1.15 7.55-174.5.2-102.06-.04-158.3-.72-164.67-1.8-16.76-7.77-29.5-19.14-40.8-7.83-7.76-16.5-13.08-27.43-16.8l-8-2.73-116-.3c-81.56-.2-117.92.05-122.48.83C36.92 9.98 17.4 26.1 8.52 49.16l-3.16 8.2-.28 162.5c-.32 182.07-.8 169.64 7 185.22 4.76 9.5 15.7 21.2 24.93 26.6 6.64 3.88 17.36 7.78 24.96 9.06 3.03.5 55.26.83 120.37.74 106.1-.15 115.46-.3 121-1.9zm-141-56.38c-29.32-19.4-64-31.26-100.8-34.5-11.6-1-13.74-1.45-13.5-2.77 1.2-6.55 43.18-14.82 56.6-11.15 5.28 1.44 5.07 3.48-.38 3.8-8.5.54-26.5 2.54-26.12 2.92.23.22 4.4 1.05 9.3 1.84 11.07 1.8 29.25 6.47 41 10.56 11.58 4.03 31.56 13.63 39.3 18.9l6.14 4.16 7.22-4.5c10.2-6.35 34.57-17.94 45.23-21.5 7.56-2.53 20.9-5.3 37.5-7.83l3.5-.53-6.5-2.85c-17.6-7.7-19.7-9.9-9.5-9.9 7.9 0 17.66 3.02 31.25 9.66 7.13 3.5 9.4 5.1 9.87 7 .33 1.34.34 2.7.02 3.03-.32.32-5 .98-10.37 1.47-49.15 4.43-72.03 11.84-98.54 31.94-5 3.8-9.58 6.9-10.17 6.9-.58 0-5.56-3-11.06-6.64zm8-17.8c-17.1-12.4-29.46-17.97-45.63-20.56l-7.63-1.22-.54-4.14c-.3-2.27-1.5-14.03-2.67-26.13-2.68-27.8-2.48-26.85-5.6-26.07-1.78.45-2.65.15-3.1-1.03-.78-2 1.93-4.3 9.97-8.47 9.1-4.7 13.15-5.1 29.2-2.76 20.15 2.93 34.17 2.24 54-2.65 18.84-4.66 31.25-5.52 43.5-3.02 12.22 2.48 19 5.2 19 7.57 0 1.7-.75 1.93-6.35 1.93h-6.36l-4.9 29.63c-4.33 26.26-5.1 29.73-6.9 30.4-1.1.44-7.12 2.42-13.38 4.43-16.54 5.3-25.27 10.08-38.93 21.27-3.54 2.9-6.72 5.26-7.06 5.23-.35-.02-3.33-2-6.63-4.4zm8.06-5.64c.37-.6-.03-1.8-.9-2.67-1.3-1.3-1.83-1.35-3.12-.28-1.4 1.17-1.38 1.43.2 2.63 2.18 1.65 2.96 1.7 3.83.3zm-9.56-8.92c0-.42-1.08-1.46-2.4-2.32-2.2-1.45-2.5-1.43-4.08.3-1.62 1.78-1.56 1.95 1.13 3.37 2.72 1.4 5.34.75 5.34-1.36zm20.5.55l3-2.47-3-2.48-3-2.48-3 3-3 3 2.36 1.94c2.97 2.45 3.02 2.45 6.64-.5zm-33.97-11.47l-2.57-2.57-2.4 3-2.4 3 3.17 1.7c3.06 1.64 3.23 1.63 4.97-.43 1.75-2.07 1.73-2.2-.77-4.7zm22.2-2.84l-2.1-2.28-3.24 3.13-3.23 3.14 2.67 2.33 2.67 2.35 2.68-3.22 2.7-3.2-2.14-2.27zm28.23-1.75c.03-.55-1.35-2.15-3.07-3.57l-3.12-2.57-4.35 4.58-4.36 4.57 3.72 3.18 3.7 3.18 3.72-4.17c2.03-2.3 3.73-4.63 3.75-5.18zm-62.16-4.67l-3.3-2.7-2.66 2.53-2.65 2.55 3.16 2.83 3.17 2.84 2.8-2.67 2.8-2.67-3.3-2.7zm22.93-2.55l-2.72-2.72-2.96 3.48-2.96 3.47 2.7 2.24 2.7 2.22 2.98-2.98 3-3-2.74-2.7zm62.77 5.75l3-1.17-3.5-2.9c-1.93-1.6-4.02-2.9-4.66-2.92-1.2-.03-6.33 5.55-6.33 6.88 0 2.5 5.3 2.54 11.5.12zm-39.94-4.67l3.8-4.63-2.34-1.9-2.36-1.9-4.4 4.3-4.37 4.28 2.8 2.25c1.54 1.23 2.86 2.24 2.93 2.25.07 0 1.84-2.1 3.93-4.64zm25.44-3.85c3.3-3.4 3.33-3.54 1.44-5-2.56-2.03-5.56-3.74-5.77-3.32-.1.18-1.5 1.8-3.13 3.6l-2.97 3.3 2.97 2.42c1.63 1.34 3.22 2.45 3.52 2.47.3.02 2.08-1.54 3.95-3.47zm-82.42.4c1.88-2.06 1.86-2.12-.96-4.55l-2.88-2.47-2.44 2.3-2.45 2.3 2.82 2.26c3.45 2.75 3.55 2.75 5.9.16zm22.36-1.15l2.92-3.25-2.1-2.25c-2.76-2.96-3.8-2.84-7.3.8l-2.9 3.02 2.98 2.43c1.63 1.34 3.1 2.45 3.23 2.47.15.02 1.58-1.43 3.18-3.22zm25.32-10.42c-1.5-1.24-3.04-2.27-3.38-2.3-.35 0-2.26 1.96-4.26 4.4l-3.62 4.42 2.68 2.1 2.68 2.12 4.33-4.25 4.32-4.24-2.75-2.25zm54.12 6.55c.35-1.72.6-4.08.6-5.25-.03-1.9-.34-1.8-3.07 1.22-2.9 3.2-2.96 3.43-1.32 5.25 2.38 2.62 3.07 2.4 3.8-1.22zm-32.17-5.27c2.58-3.23 2.62-3.46.92-5-2.47-2.23-3.34-2.05-6.62 1.37-2.78 2.9-2.8 3.04-1.03 5 2.5 2.78 3.6 2.56 6.72-1.37zm-58.88-6.33l-2.8-2.22-3.32 3.23-3.33 3.22 2.7 2.32 2.68 2.3 3.43-3.3 3.42-3.32-2.8-2.22zm-20.87 5.8c.3-.52.1-1.22-.45-1.57-.55-.34-1 .07-1 .93 0 1.75.6 2 1.45.62zm45.77-9.8l-2.73-2.25-4 4.04-4 4.04 2.75 2.4 2.76 2.4 3.97-4.2 3.98-4.2-2.73-2.24zm57.8 1.46l-3.08-2.76-3.2 3.63-3.17 3.62 2.84 2.44 2.83 2.44 3.43-3.3 3.43-3.33-3.1-2.76zm-33.57-4.22c-2.46-1.9-6.13-1.13-8.56 1.77-1.8 2.16-1.8 2.24.88 4.44l2.7 2.22 3.48-3.47c3.38-3.38 3.42-3.5 1.5-4.97zm-60.58 3.1l3.27-3.38-3.1-2.2c-2.43-1.74-3.9-2.08-6.84-1.58-6.82 1.15-7.13 1.97-2.4 6.48 2.35 2.23 4.62 4.05 5.03 4.05.43 0 2.25-1.52 4.05-3.38zm82.44-7.95c-2.36-1.85-2.48-1.85-4.47-.05-3.9 3.52-4.37 5.54-1.8 7.62 2.32 1.88 2.33 1.88 5.5-1.9l3.17-3.77-2.4-1.9zm-59.9 5.4l2.8-2.94-3.7-.7c-2.76-.53-4.1-.3-5.3.9-1.46 1.45-1.44 1.76.24 3.62 2.37 2.62 2.62 2.58 5.96-.9zm81.88-2.63c1-1.38 1.9-3.72 2-5.22.28-4.13-3.1-4.08-7.15.1l-3.3 3.4 2.7 2.14c3.36 2.65 3.53 2.63 5.75-.42zM196 290.78c17.1-6.1 24.73-7.44 35.37-6.17 8.84 1.06 9.46.78 9.48-4.35l.02-3.1-9.04-.64c-11.7-.82-20.36.47-34.22 5.1-11.18 3.73-11.3 3.75-27.23 3.67-10.2-.06-19.36-.7-25.25-1.75-9.6-1.73-18.73-2.12-24.13-1.04-2.75.54-3.13 1.03-3.13 3.9 0 5.77.6 6.36 5.3 5.25 7.92-1.85 21.47-1.26 34.7 1.52 20.47 4.3 19.27 4.38 38.14-2.37zm27.87 1.57c1.06-1.28.77-1.5-2-1.5s-3.07.22-2 1.5c.68.83 1.58 1.5 2 1.5.4 0 1.3-.67 2-1.5zm34.22 17.13c6.57-6.45 9.35-10.06 12.1-15.75 5.86-12.03 6.56-24.9 2.18-39.55l-1.54-5.17-7.24 2.3c-3.98 1.24-12.63 4.1-19.23 6.33-14.56 4.93-22.62 6.04-27.93 3.82-2.06-.87-3.57-2.1-3.36-2.74.22-.64 4.6-3.7 9.75-6.82 12.12-7.33 20.6-14.33 27.5-22.7 8.17-9.9 10.04-14.27 10.04-23.4 0-6.7-.36-8.16-3.02-12.47-3.28-5.3-7.8-9-17.62-14.45-8.02-4.44-20.7-16.43-24.2-22.9-3.62-6.63-5.64-13.55-5.65-19.35-.02-7.8 3.1-5.82 11.44 7.25 4.35 6.8 15.83 18.27 27.55 27.5 11.43 8.97 17.88 15.43 20.52 20.55 2.5 4.84 3.04 13.83 1.16 19.34-1.6 4.74-10.73 18.98-18.3 28.58-2.36 3-4.2 5.54-4.1 5.63.12.1 5.4-1.54 11.74-3.63 17.8-5.86 22.82-6.7 28.1-4.62 2.4.94 5.6 2.8 7.1 4.13 2.93 2.57 7.77 9.22 7.77 10.66 0 1.47-4.32.9-8.95-1.2-2.44-1.12-6.1-2.4-8.12-2.85l-3.67-.83.5 17.7c.57 19.54 0 22.82-6.03 34.3-3.65 6.95-8.63 11.64-16.67 15.7-10.9 5.5-11.4 4.04-1.84-5.34zM92.6 311.9c-9.8-6.22-14.17-16.93-14.2-34.87l-.03-10.33-9.5.33c-8.94.3-9.5.2-9.5-1.68 0-2.33 8.6-6.9 16.5-8.78 4.8-1.15 4.93-1.28 7.05-7.2 1.18-3.3 3.18-7.9 4.43-10.17l2.27-4.16-5.3-5.22c-9.64-9.54-12.55-17.75-10.57-29.84 2.4-14.67 9.7-24.2 26.5-34.55 5.3-3.26 9.6-6.2 9.6-6.5 0-.32-.67-3.28-1.46-6.58-1.85-7.6-1.94-12.5-.25-12.5 2.83 0 5.74 3.37 7.8 9.03 1.2 3.28 2.5 5.97 2.88 5.97.38 0 4.9-1.83 10.07-4.06 14.47-6.3 31.74-11.95 36.43-11.95 3.12 0 5.33.8 8.4 3 2.27 1.66 4.14 3.4 4.14 3.9 0 .48-6.2 2.33-13.75 4.1-15.33 3.62-23.27 6.27-35.47 11.87l-8.28 3.8-.04 14.4c-.04 12.7-.33 15.14-2.38 20.32-1.87 4.74-2.2 6.94-1.7 11.33 1.27 10.67 4.03 13.3 20.2 19.3 5.86 2.18 12.16 4.9 14 6.03 5.65 3.5 12.26 11.68 13.9 17.23 2.45 8.24 1.65 17.16-1.37 15.3-.6-.4-2.9-4.46-5.1-9.06-4.96-10.4-8.2-13.17-21.64-18.57-12.42-5-18.6-8.8-23.7-14.58-2.1-2.4-4.67-4.37-5.68-4.37-1.02 0-2.8 1.6-4.07 3.63l-2.25 3.62 2.4 1.88c1.33 1.03 9.84 5.7 18.92 10.37 19.38 10 25.22 14.05 27.97 19.45 4.27 8.36 2.14 9.02-7.96 2.5-3.88-2.52-13.5-7.64-21.4-11.4-7.9-3.75-16.84-8.4-19.87-10.35l-5.5-3.53-3.12 6.74c-3.95 8.57-3.93 9.75.14 10.64 7.6 1.64 21.75 10.42 21.75 13.5 0 2.42.66 2.45-13.8-.55-6.64-1.37-12.33-2.5-12.64-2.5-1.33 0-.38 9.47 1.84 18.2 2.63 10.37 5.72 17.2 10.5 23.2 1.7 2.13 3.1 4.5 3.1 5.24 0 2.34-5.36 1.5-10.27-1.6zm11.85-103.52c7.37-14.7 9.17-22.1 7.76-31.88l-.83-5.86-6 4.62c-7.35 5.66-12.8 12.2-15.04 18.05-2.6 6.86-1.75 18.44 1.94 25.96 3.5 7.1 2.88 7.65 12.18-10.88zm78.42 56.87c0-7.4 6.05-14.24 22.82-25.84 20.8-14.4 25.75-20.58 16.45-20.53-6.75.04-15.25 4.9-29.78 17.05-11.06 9.24-15.3 11.93-18.77 11.93-2.94 0-2.98-.07-2.33-4.08 2.15-13.46 11.6-22.27 37.08-34.6l9.5-4.58-2.97-3.4c-1.64-1.85-3.7-4.77-4.57-6.47l-1.6-3.1-6.52.7c-10.54 1.13-22.3 5.82-22.3 8.88 0 .73 2.24 3.45 5 6.05 5.2 4.94 6.07 6.97 3.4 8-4.52 1.73-12.4-1.67-15.45-6.7-2.12-3.47-2.58-9.68-.93-12.76 2.38-4.45 16.63-8.9 28.6-8.93l6.1-.02.7-7.25c.8-8.75 2.27-13.75 4.02-13.75 2.86 0 4.06 3.44 4.66 13.4.46 7.68 1.25 11.7 3.3 16.75l2.72 6.65 7.93-.54 7.92-.53 1.5 3.6c2.93 7 1.2 15-5.03 23.16-1.45 1.9-9.46 8.08-17.8 13.73-8.33 5.66-18.8 13.77-23.26 18.04-4.46 4.26-8.62 7.75-9.25 7.75-.62 0-1.13-1.17-1.13-2.6zm-30.98-33.87c-7.62-7.7-12.63-10-20.05-9.3-4.5.43-5.28.2-7.02-2-4.3-5.47-1-13.93 7-17.98 7.58-3.82 21.37-2.83 26.64 1.93 3.82 3.44 6.12 17.17 4.65 27.82-1.08 7.86-3.06 7.78-11.23-.47zm-1.22-20.24c-.56-2.84-3.56-3.97-5.48-2.05-1.6 1.6-1.6 1.8.1 3.7 1.43 1.56 2.23 1.77 3.75.95 1.07-.57 1.8-1.74 1.63-2.6zm-20.15-14.96c-2.5-2.5 2.46-11.9 8.94-17 5.9-4.63 9.85-6.33 14.73-6.33 8.8 0 8.76 5.53-.1 12.53-6.1 4.83-18.38 11.47-21.2 11.47-.93 0-2-.3-2.37-.67zm26.34-.34c0-.56 1.6-3.45 3.58-6.42 6.35-9.55 5.44-18.43-2.25-22.08-3.02-1.43-3.95-1.46-8.22-.2-2.64.77-7.3 3.05-10.3 5.06-7.97 5.28-9.9 4.6-5.85-2.06 2.74-4.5 8.46-7.98 16.24-9.9 15.3-3.78 24.5 2.04 24.72 15.67.14 8.95-8.43 20.95-14.97 20.95-1.63 0-2.96-.46-2.96-1zm94.5-56.02c-.66-2.06-1.15-2.18-6.36-1.63-3.1.32-7.47.88-9.72 1.23-3.84.6-4.15.46-5.32-2.37-.85-2.05-1.15-7.33-.92-16.6.18-7.5.3-13.6.24-13.6-.04 0-1.78 2.47-3.87 5.5-2.07 3.02-4.16 5.5-4.62 5.5-.47 0-2.33 1.45-4.14 3.24-4.75 4.68-10.8 9.06-11.53 8.33-.88-.9 2.9-8.3 9.87-19.23 3.33-5.24 5.9-9.6 5.73-9.7-6.1-3-8.84-6.57-7.58-9.86.3-.8 4-2.47 8.25-3.72 7.02-2.1 7.82-2.6 9.16-5.8 1.05-2.5 1.16-3.84.4-4.6-.58-.6-1.06-2.28-1.06-3.76 0-2.1.6-2.84 2.74-3.38 4.74-1.2 5.8-4.53 1.44-4.53-4.23 0-8.9-5.9-7.53-9.5.38-.96 1.92-1.5 4.35-1.5 6.65 0 10.1-1.12 11.05-3.58 1.76-4.64 7.32-5.2 9.7-.96.64 1.18 1.53 1.25 4.78.36 6.58-1.78 10.57-1.43 12.64 1.13 4.34 5.35 1.34 8.43-9.86 10.13-4.94.76-8.4 1.78-8.72 2.6-.6 1.57 2.1 1.7 7.9.35 5.02-1.16 7.53.72 7.53 5.65 0 2.62-.56 3.62-2.5 4.5-2.38 1.1-2.43 1.25-.83 3 1.46 1.62 2.64 1.8 8.76 1.24 6.3-.56 7.37-.4 9.82 1.55 5.03 3.98 2.66 11.03-3.7 11.03-2.5 0-2.65.18-1.42 1.68.75.92 4.97 4.35 9.37 7.6 11.17 8.3 15.5 12.4 15.5 14.66 0 2.96-1.46 3.27-7.02 1.45-4.17-1.36-5.53-1.44-7.4-.44-1.94 1.04-2.96.9-6.48-.9-2.3-1.17-5.87-3.65-7.92-5.5l-3.73-3.37.02 13.16c.03 11.48-.23 13.6-2.02 16.64-1.5 2.53-3 3.7-5.5 4.2-1.9.4-4.65 1-6.1 1.35-2.17.53-2.78.24-3.36-1.58zm.25-12.08c2.12-.8 2.25-1.4 2.25-10.43 0-11.46-.83-13.65-4.75-12.5-7.5 2.17-10.25 3.92-10.25 6.5 0 2.8.6 2.94 6.43 1.6 4.8-1.12 7.57.1 7.57 3.36 0 3.34-2.07 4.64-8.43 5.3l-5.57.57v7.43l5.25-.5c2.9-.26 6.26-.86 7.5-1.32zm-4.87-28.45c4-.4 7.58-1.3 8.22-2.08.63-.75 2-1.37 3.02-1.37s1.87-.42 1.87-.94c0-1.4-2.24-2.53-4.5-2.26-15.88 1.9-26.26 5.67-20.3 7.36 1.27.36 2.8.5 3.45.32.63-.18 4.33-.64 8.23-1.03zm3.05-19.05c.24-.24-.06-.93-.68-1.54-1.46-1.46-5.86-.3-6.65 1.76-.54 1.38-.08 1.52 3.14.92 2.08-.4 3.96-.9 4.2-1.13z"/><path fill="#495547" d="M61.7 444.84c-29.46-5.06-51.8-25-58.85-52.56C.9 384.7.87 380.82.9 223.44.9 43.96.45 55.54 7.94 40.07c3.33-6.88 5.8-10.23 12.77-17.23C30.25 13.26 38.27 8.2 50.7 3.97l7.67-2.62h241l7.5 2.34c23.9 7.46 40.82 23.7 48.4 46.47 3.48 10.4 3.7 21.92 3.38 180.18-.36 175.1.34 159.53-7.96 176.5-3.34 6.8-5.9 10.22-12.76 17.08-7.12 7.13-10.2 9.38-18.07 13.25-17.94 8.8-6.67 8.12-137.5 8.3-63.8.1-118.1-.2-120.67-.64zm246.07-6.42c22.63-7.9 41-28.06 45.6-50.07 1.25-5.97 1.47-30.22 1.48-165.6.02-154.87-.03-158.76-1.96-166.33-5.2-20.32-18.28-36.12-37.34-45.12-15.66-7.4-6.9-6.95-136.2-6.95h-116l-7.95 2.3c-20.08 5.82-36.03 18.97-44.5 36.7-6.97 14.58-6.53 2.45-6.53 180.5v161.5l2.9 8.86c7.23 22.05 26.05 39.65 48.83 45.65 7 1.84 11.85 1.9 125.27 1.7l118-.2 8.4-2.93zm-145.4-55.22c-29.32-19.4-64-31.26-100.8-34.5-11.6-1-13.74-1.45-13.5-2.77 1.2-6.55 43.18-14.82 56.6-11.15 5.28 1.44 5.07 3.48-.38 3.8-8.5.54-26.5 2.54-26.12 2.92.23.22 4.4 1.05 9.3 1.84 11.07 1.8 29.25 6.47 41 10.56 11.58 4.03 31.56 13.63 39.3 18.9l6.14 4.16 7.22-4.5c10.2-6.35 34.57-17.94 45.23-21.5 7.56-2.53 20.9-5.3 37.5-7.83l3.5-.53-6.5-2.85c-17.6-7.7-19.7-9.9-9.5-9.9 7.9 0 17.66 3.02 31.25 9.66 7.13 3.5 9.4 5.1 9.87 7 .33 1.34.34 2.7.02 3.03-.32.32-5 .98-10.37 1.47-49.15 4.43-72.03 11.84-98.54 31.94-5 3.8-9.58 6.9-10.17 6.9-.58 0-5.56-3-11.06-6.64zm8-17.8c-17.1-12.4-29.46-17.97-45.63-20.56l-7.63-1.22-.54-4.14c-.3-2.27-1.5-14.03-2.67-26.13-2.68-27.8-2.48-26.85-5.6-26.07-1.78.45-2.65.15-3.1-1.03-.78-2 1.93-4.3 9.97-8.47 9.1-4.7 13.15-5.1 29.2-2.76 20.15 2.93 34.17 2.24 54-2.65 18.84-4.66 31.25-5.52 43.5-3.02 12.22 2.48 19 5.2 19 7.57 0 1.7-.75 1.93-6.35 1.93h-6.36l-4.9 29.63c-4.33 26.26-5.1 29.73-6.9 30.4-1.1.44-7.12 2.42-13.38 4.43-16.54 5.3-25.27 10.08-38.93 21.27-3.54 2.9-6.72 5.26-7.06 5.23-.35-.02-3.33-2-6.63-4.4zm8.06-5.64c.37-.6-.03-1.8-.9-2.67-1.3-1.3-1.83-1.35-3.12-.28-1.4 1.17-1.38 1.43.2 2.63 2.18 1.65 2.96 1.7 3.83.3zm-9.56-8.92c0-.42-1.08-1.46-2.4-2.32-2.2-1.45-2.5-1.43-4.08.3-1.62 1.78-1.56 1.95 1.13 3.37 2.72 1.4 5.34.75 5.34-1.36zm20.5.55l3-2.47-3-2.48-3-2.48-3 3-3 3 2.36 1.94c2.97 2.45 3.02 2.45 6.64-.5zm-33.97-11.47l-2.57-2.57-2.4 3-2.4 3 3.17 1.7c3.06 1.64 3.23 1.63 4.97-.43 1.75-2.07 1.73-2.2-.77-4.7zm22.2-2.84l-2.1-2.28-3.24 3.13-3.23 3.14 2.67 2.33 2.67 2.35 2.68-3.22 2.7-3.2-2.14-2.27zm28.23-1.75c.03-.55-1.35-2.15-3.07-3.57l-3.12-2.57-4.35 4.58-4.36 4.57 3.72 3.18 3.7 3.18 3.72-4.17c2.03-2.3 3.73-4.63 3.75-5.18zm-62.16-4.67l-3.3-2.7-2.66 2.53-2.65 2.55 3.16 2.83 3.17 2.84 2.8-2.67 2.8-2.67-3.3-2.7zm22.93-2.55l-2.72-2.72-2.96 3.48-2.96 3.47 2.7 2.24 2.7 2.22 2.98-2.98 3-3-2.74-2.7zm62.77 5.75l3-1.17-3.5-2.9c-1.93-1.6-4.02-2.9-4.66-2.92-1.2-.03-6.33 5.55-6.33 6.88 0 2.5 5.3 2.54 11.5.12zm-39.94-4.67l3.8-4.63-2.34-1.9-2.36-1.9-4.4 4.3-4.37 4.28 2.8 2.25c1.54 1.23 2.86 2.24 2.93 2.25.07 0 1.84-2.1 3.93-4.64zm25.44-3.85c3.3-3.4 3.33-3.54 1.44-5-2.56-2.03-5.56-3.74-5.77-3.32-.1.18-1.5 1.8-3.13 3.6l-2.97 3.3 2.97 2.42c1.63 1.34 3.22 2.45 3.52 2.47.3.02 2.08-1.54 3.95-3.47zm-82.42.4c1.88-2.06 1.86-2.12-.96-4.55l-2.88-2.47-2.44 2.3-2.45 2.3 2.82 2.26c3.45 2.75 3.55 2.75 5.9.16zm22.36-1.15l2.92-3.25-2.1-2.25c-2.76-2.96-3.8-2.84-7.3.8l-2.9 3.02 2.98 2.43c1.63 1.34 3.1 2.45 3.23 2.47.15.02 1.58-1.43 3.18-3.22zm25.32-10.42c-1.5-1.24-3.04-2.27-3.38-2.3-.35 0-2.26 1.96-4.26 4.4l-3.62 4.42 2.68 2.1 2.68 2.12 4.33-4.25 4.32-4.24-2.75-2.25zm54.12 6.55c.35-1.72.6-4.08.6-5.25-.03-1.9-.34-1.8-3.07 1.22-2.9 3.2-2.96 3.43-1.32 5.25 2.38 2.62 3.07 2.4 3.8-1.22zm-32.17-5.27c2.58-3.23 2.62-3.46.92-5-2.47-2.23-3.34-2.05-6.62 1.37-2.78 2.9-2.8 3.04-1.03 5 2.5 2.78 3.6 2.56 6.72-1.37zm-58.88-6.33l-2.8-2.22-3.32 3.23-3.33 3.22 2.7 2.32 2.68 2.3 3.43-3.3 3.42-3.32-2.8-2.22zm-20.87 5.8c.3-.52.1-1.22-.45-1.57-.55-.34-1 .07-1 .93 0 1.75.6 2 1.45.62zm45.77-9.8l-2.73-2.25-4 4.04-4 4.04 2.75 2.4 2.76 2.4 3.97-4.2 3.98-4.2-2.73-2.24zm57.8 1.46l-3.08-2.76-3.2 3.62-3.17 3.63 2.84 2.44 2.83 2.44 3.43-3.3 3.43-3.33-3.1-2.76zm-33.57-4.22c-2.46-1.9-6.13-1.13-8.56 1.77-1.8 2.16-1.8 2.24.88 4.44l2.7 2.22 3.48-3.47c3.38-3.38 3.42-3.5 1.5-4.97zm-60.58 3.1l3.27-3.38-3.1-2.2c-2.43-1.74-3.9-2.08-6.84-1.58-6.82 1.15-7.13 1.97-2.4 6.48 2.35 2.23 4.62 4.05 5.03 4.05.43 0 2.25-1.52 4.05-3.38zm82.44-7.95c-2.36-1.85-2.48-1.85-4.47-.05-3.9 3.52-4.37 5.54-1.8 7.62 2.32 1.88 2.33 1.88 5.5-1.9l3.17-3.77-2.4-1.9zm-59.9 5.4l2.8-2.94-3.7-.7c-2.76-.53-4.1-.3-5.3.9-1.46 1.45-1.44 1.76.24 3.62 2.37 2.62 2.62 2.58 5.96-.9zm81.88-2.63c1-1.38 1.9-3.72 2-5.22.28-4.13-3.1-4.08-7.15.1l-3.3 3.4 2.7 2.14c3.36 2.65 3.53 2.63 5.75-.42zM196 290.78c17.1-6.1 24.73-7.44 35.37-6.17 8.84 1.06 9.46.78 9.48-4.35l.02-3.1-9.04-.64c-11.7-.82-20.36.47-34.23 5.1-11.18 3.73-11.3 3.75-27.23 3.67-10.2-.06-19.36-.7-25.25-1.75-9.6-1.73-18.73-2.12-24.13-1.04-2.75.54-3.13 1.03-3.13 3.9 0 5.77.6 6.36 5.3 5.25 7.92-1.85 21.47-1.26 34.7 1.52 20.47 4.3 19.27 4.38 38.14-2.37zm27.87 1.57c1.06-1.28.77-1.5-2-1.5s-3.07.22-2 1.5c.68.83 1.58 1.5 2 1.5.4 0 1.3-.67 2-1.5zm34.22 17.13c6.57-6.45 9.35-10.06 12.1-15.75 5.86-12.03 6.56-24.9 2.18-39.55l-1.54-5.17-7.24 2.3c-3.98 1.24-12.63 4.1-19.23 6.33-14.56 4.93-22.62 6.04-27.93 3.82-2.06-.87-3.57-2.1-3.36-2.74.22-.64 4.6-3.7 9.75-6.82 12.12-7.33 20.6-14.34 27.5-22.7 8.17-9.9 10.04-14.27 10.04-23.4 0-6.7-.36-8.16-3.02-12.47-3.28-5.3-7.8-9-17.62-14.45-8.02-4.44-20.7-16.43-24.2-22.9-3.62-6.63-5.64-13.55-5.65-19.35-.02-7.8 3.1-5.82 11.44 7.25 4.35 6.8 15.83 18.26 27.55 27.5 11.43 8.97 17.88 15.43 20.52 20.55 2.5 4.84 3.04 13.83 1.16 19.34-1.6 4.74-10.73 18.98-18.3 28.58-2.36 3-4.2 5.54-4.1 5.63.12.1 5.4-1.54 11.74-3.63 17.8-5.87 22.82-6.7 28.1-4.62 2.4.94 5.6 2.8 7.1 4.12 2.93 2.58 7.77 9.23 7.77 10.67 0 1.47-4.32.9-8.95-1.2-2.44-1.12-6.1-2.4-8.12-2.85l-3.67-.83.5 17.7c.57 19.54 0 22.82-6.03 34.3-3.65 6.95-8.63 11.64-16.67 15.7-10.9 5.5-11.4 4.04-1.84-5.34zM92.6 311.9c-9.8-6.22-14.17-16.93-14.2-34.87l-.03-10.33-9.5.33c-8.94.3-9.5.2-9.5-1.68 0-2.33 8.6-6.9 16.5-8.78 4.8-1.15 4.93-1.28 7.05-7.2 1.18-3.3 3.18-7.9 4.43-10.17l2.27-4.16-5.3-5.22c-9.64-9.54-12.55-17.75-10.57-29.84 2.4-14.67 9.7-24.2 26.5-34.55 5.3-3.26 9.6-6.2 9.6-6.5 0-.32-.67-3.28-1.46-6.58-1.85-7.6-1.94-12.5-.25-12.5 2.83 0 5.74 3.37 7.8 9.03 1.2 3.28 2.5 5.97 2.88 5.97.38 0 4.9-1.83 10.07-4.06 14.47-6.3 31.74-11.95 36.43-11.95 3.12 0 5.33.8 8.4 3 2.27 1.66 4.14 3.4 4.14 3.9 0 .48-6.2 2.33-13.75 4.1-15.33 3.62-23.27 6.27-35.47 11.87l-8.28 3.8-.04 14.4c-.04 12.7-.33 15.14-2.38 20.32-1.87 4.74-2.2 6.94-1.7 11.33 1.27 10.67 4.03 13.3 20.2 19.3 5.86 2.18 12.16 4.9 14 6.03 5.65 3.5 12.26 11.68 13.9 17.23 2.45 8.24 1.65 17.16-1.37 15.3-.6-.4-2.9-4.46-5.1-9.06-4.96-10.4-8.2-13.17-21.64-18.57-12.42-5-18.6-8.8-23.7-14.58-2.1-2.4-4.67-4.37-5.68-4.37-1.02 0-2.8 1.6-4.07 3.63l-2.25 3.62 2.4 1.88c1.33 1.03 9.84 5.7 18.92 10.37 19.38 10 25.22 14.05 27.97 19.45 4.27 8.36 2.14 9.02-7.96 2.5-3.88-2.52-13.5-7.64-21.4-11.4-7.9-3.75-16.84-8.4-19.87-10.35l-5.5-3.53-3.12 6.74c-3.95 8.57-3.93 9.75.14 10.64 7.6 1.64 21.75 10.42 21.75 13.5 0 2.42.66 2.45-13.8-.55-6.64-1.37-12.33-2.5-12.64-2.5-1.33 0-.38 9.47 1.84 18.2 2.63 10.37 5.72 17.2 10.5 23.2 1.7 2.13 3.1 4.5 3.1 5.24 0 2.34-5.36 1.5-10.27-1.6zm11.85-103.52c7.37-14.7 9.17-22.1 7.76-31.88l-.83-5.86-6 4.62c-7.35 5.66-12.8 12.2-15.04 18.05-2.6 6.86-1.75 18.44 1.94 25.96 3.5 7.1 2.88 7.65 12.18-10.88zm78.42 56.87c0-7.4 6.05-14.24 22.82-25.84 20.8-14.4 25.75-20.58 16.45-20.53-6.75.04-15.25 4.9-29.78 17.05-11.06 9.24-15.3 11.93-18.77 11.93-2.94 0-2.98-.07-2.33-4.08 2.15-13.46 11.6-22.27 37.08-34.6l9.5-4.58-2.97-3.4c-1.64-1.85-3.7-4.77-4.57-6.47l-1.6-3.1-6.52.7c-10.54 1.13-22.3 5.82-22.3 8.88 0 .73 2.24 3.45 5 6.05 5.2 4.94 6.07 6.97 3.4 8-4.52 1.73-12.4-1.67-15.45-6.7-2.12-3.47-2.58-9.68-.93-12.76 2.38-4.45 16.63-8.9 28.6-8.93l6.1-.02.7-7.25c.8-8.75 2.27-13.75 4.02-13.75 2.86 0 4.06 3.44 4.66 13.4.46 7.68 1.25 11.7 3.3 16.75l2.72 6.65 7.93-.54 7.92-.53 1.5 3.6c2.93 7 1.2 15-5.03 23.16-1.45 1.9-9.46 8.08-17.8 13.73-8.33 5.66-18.8 13.77-23.26 18.04-4.46 4.26-8.62 7.75-9.25 7.75-.62 0-1.13-1.17-1.13-2.6zm-30.98-33.87c-7.62-7.7-12.63-10-20.05-9.3-4.5.43-5.28.2-7.02-2-4.3-5.47-1-13.93 7-17.98 7.58-3.82 21.37-2.83 26.64 1.93 3.82 3.44 6.12 17.17 4.65 27.82-1.08 7.86-3.06 7.78-11.23-.47zm-1.22-20.24c-.56-2.84-3.56-3.97-5.48-2.05-1.6 1.6-1.6 1.8.1 3.7 1.43 1.56 2.23 1.77 3.75.95 1.07-.57 1.8-1.74 1.63-2.6zm-20.42-15.72c-1.56-4.05 5.77-13.82 15-19.97 7.42-4.96 17.85-2.66 14.7 3.24-2.7 5-19.34 16.45-25.85 17.75-2.47.5-3.35.26-3.84-1.03zm26.6.57c0-.5.85-1.95 1.87-3.26 10.05-12.87 7.17-26.7-5.45-26.2-4.46.16-8.3 1.8-15.1 6.45-6.76 4.62-8.32 3.27-3.82-3.35 1.66-2.45 4.66-4.73 9.05-6.9 5.52-2.7 7.7-3.23 13.77-3.25 12.52-.06 17.1 4.32 17.16 16.42.03 5.6-.4 7.22-2.84 10.93-4.15 6.25-8.6 10-11.85 10-1.53 0-2.78-.4-2.78-.86zm94.47-56.46c-.7-2.76-1.5-2.8-12.76-.62-2.64.5-5.44.93-6.2.93-2.58 0-3.73-7.1-3.36-20.7l.37-13.03-3.15 4.6c-3.04 4.47-11.37 12.28-18.1 17-5.8 4.05-3.95-.05 9.82-21.78 2.73-4.33 3.13-5.52 1.94-5.92-3-1-7.16-6.12-6.83-8.4.26-1.9 1.57-2.62 7.82-4.4 6.33-1.77 7.8-2.6 9.38-5.3 1.53-2.6 1.67-3.66.75-5.68-1.94-4.25-1.4-6.02 2.1-7.03 3.8-1.08 5.12-4.35 1.78-4.35-3.4 0-6.07-1.9-7.5-5.33-1.66-3.94-.5-5.66 3.86-5.68 7.15-.02 10.23-1.1 11.3-3.94 1.47-3.88 4.96-4.54 7.8-1.48 1.86 2 2.86 2.32 5.64 1.8 1.87-.36 4.17-1.05 5.12-1.53 2.37-1.22 8.4 1.4 9.23 4.02.36 1.13.16 2.97-.44 4.08-1.18 2.2-1.94 2.45-12.52 4.33-5.04.9-7.08 1.7-7.3 2.9-.28 1.4.2 1.5 3.48.75 6.37-1.48 10.12-1.14 11.27 1 2.06 3.84.62 8.04-3.2 9.32-.98.33-.94.8.18 2.18 1.25 1.5 2.52 1.65 9.03 1.07 7.17-.63 7.7-.53 10.3 1.87 4.98 4.62 2.55 10.6-4.34 10.66l-3.43.03 3.5 3c1.92 1.66 6.42 5.12 10 7.7 11.2 8.05 16.1 13.84 13.2 15.63-.44.27-3.44-.38-6.66-1.45-5.35-1.77-6.02-1.8-7.6-.36-1.57 1.42-2.05 1.42-4.68.06-1.6-.83-5.2-3.32-8-5.54l-5.1-4.02.54 10.7c.8 15.8-1.25 21.56-8.37 23.4-8.57 2.2-8.2 2.2-8.87-.48zm-2.2-11.2l4.74-.6-.02-10.7c0-5.88-.4-11.32-.9-12.08-.73-1.17-1.97-1.02-7.48.93-6.1 2.14-6.6 2.54-6.6 5.25 0 2.83.12 2.9 3.75 2.26 2.06-.36 4.46-.86 5.33-1.12 2.28-.66 5.24 2.97 4.45 5.47-.68 2.14-5.8 4.1-10.78 4.1-2.55 0-2.75.3-2.75 4.08 0 3.9.1 4.06 2.75 3.57 1.5-.3 4.9-.8 7.5-1.15zM247.6 99.4c4-.45 7.74-1.42 8.37-2.18.63-.75 1.76-1.37 2.52-1.37 1.53 0 1.72-.9.55-2.74-.77-1.2-4.1-.8-20.18 2.32-3.14.6-6 2.73-6 4.45 0 .77 4.96.6 14.73-.47zm2.02-18.55c1.2 0 1.26-.28.25-1.5-1.5-1.8-5.14-1.96-6.8-.3-2.1 2.1-1.3 3.07 1.92 2.43 1.7-.35 3.8-.63 4.62-.63z"/><path fill="#871b20" d="M60.37 444.4c-23.95-4.44-43.92-19.75-53.6-41.12C.56 389.64.9 399.5.86 223.26c0-156.98.05-161.3 1.97-168.8 3.2-12.52 9.17-22.84 18.7-32.33 7-6.95 9.87-9 18.55-13.2C57.65.44 50.36.86 179.75.86c97.84 0 115 .22 121.16 1.5 26.47 5.58 47.8 25.28 55.14 50.96l2.3 8.05v161.5c0 151.93-.1 161.92-1.78 168.5-6.37 24.9-25.65 44.15-52.2 52.12-5.62 1.68-13.5 1.82-121.5 2.02-91.2.16-117-.07-122.5-1.1zm240.87-4.04c19.78-4.2 38.34-18.78 47.08-37 6.92-14.45 6.55-4.17 6.53-180.2-.02-177.2.42-165.97-7.13-181.3-5.92-12-17.84-23.88-29.85-29.74-17.1-8.34-6.9-7.77-138-7.77-108.7 0-116.97.12-123.5 1.8C32 12.37 12.72 31.08 6.14 54.9c-1.66 6.04-1.77 16.34-1.77 167.93 0 176.6-.36 165.75 5.97 179.5 8.6 18.65 24.98 32.13 45.53 37.45 7.2 1.87 11.96 1.94 123 1.98 97.4.03 116.57-.2 122.37-1.42zM161.87 382.7c-12.1-8.02-32.68-18.38-45.04-22.68-16.8-5.83-39.05-10.28-58.73-11.74-5.1-.38-9.56-1.14-9.9-1.7-1.05-1.7 3.77-4.5 12.5-7.3 14.88-4.75 35.72-6.8 44.48-4.36 4.8 1.34 4.3 3.36-.9 3.65-7.46.42-26.5 2.53-26.13 2.9.2.2 4.4 1.06 9.3 1.9 28.9 5 58.4 15.74 78.52 28.6 4.18 2.7 7.92 4.88 8.32 4.88.38 0 2.65-1.33 5.02-2.97 6.18-4.25 23.47-13.2 34.55-17.9 15.14-6.4 28.3-9.76 49.42-12.63l4.92-.67-10.43-4.53c-11.3-4.9-13.2-6.05-12.36-7.4 1.03-1.7 12.32-.92 19.02 1.28 8.93 2.93 26.6 11.88 27.88 14.13 1.7 3-1.6 4.4-12.25 5.13-45.05 3.12-71.4 11.86-98.15 32.55-4.27 3.3-8.17 5.96-8.67 5.92-.5-.05-5.64-3.22-11.4-7.06zm8.82-17.5c-18.07-12.8-29.8-18.06-45.47-20.43l-8.15-1.23-.56-4.6c-.3-2.52-1.5-14.5-2.65-26.6-2.58-27.07-2.53-26.8-4.83-25.58-1.13.6-2.3.6-3.23 0-3.22-2.16 11-11.04 20.5-12.8 3.72-.7 8.04-.43 17.5 1.07 18.98 3 35.92 2.18 55.07-2.66 18.22-4.62 30.13-5.5 42.08-3.07 11.14 2.25 19.3 5.52 19.75 7.92.33 1.7-.2 1.84-6.1 1.46l-6.48-.4-4.7 28.53c-2.58 15.7-4.88 29.24-5.12 30.08-.27.96-4.94 2.93-12.68 5.33-16.57 5.16-26.34 10.12-38.44 19.55L177 369.67l-6.3-4.47zm7.95-5.6c.74-.9.4-1.73-1.28-2.97-2.02-1.5-2.46-1.54-3.53-.25-.96 1.16-.95 1.8.03 2.97 1.5 1.83 3.4 1.93 4.78.25zm-10-6.94c.94-.93.72-1.7-.96-3.5-2.56-2.72-4.1-2.9-5.9-.7-1.14 1.35-.97 1.86 1.12 3.46 2.87 2.2 4.1 2.37 5.74.74zm21.06-1.2l3.24-2.37-3.1-2.63c-1.73-1.44-3.5-2.62-3.96-2.62-.46 0-2 1.4-3.43 3.1l-2.6 3.07 2.26 1.88c2.96 2.46 3.75 2.4 7.6-.43zm-32.94-7l2.24-2.38-3.13-2.23-3.13-2.23-2.44 2.3c-3.1 2.9-3.05 3.53.32 5.36 3.6 1.95 3.54 1.96 6.14-.8zm21-2l3.26-3.36-3.15-2.25-3.15-2.24-2.88 3.38-2.88 3.37 2.7 2.25c1.5 1.23 2.73 2.24 2.76 2.25.03 0 1.53-1.52 3.33-3.38zm29.07-7.6c0-.28-1.76-1.75-3.9-3.26l-3.9-2.75-4.17 4.75-4.18 4.75 3.84 3.33 3.85 3.33 4.23-4.82c2.32-2.66 4.23-5.05 4.23-5.33zm-61.9 1.4l2.44-2.57-3.27-2.93c-1.8-1.6-3.63-2.92-4.07-2.92-.45 0-1.9 1.17-3.24 2.6l-2.43 2.6 3.46 2.9c1.9 1.6 3.74 2.9 4.08 2.9.34 0 1.7-1.16 3.04-2.58zm21.82-2.8l3.27-3.36-3.15-2.24-3.14-2.25-2.93 2.82c-1.6 1.54-2.93 3.2-2.93 3.7 0 .9 4 4.64 5.05 4.7.3.02 2.03-1.5 3.83-3.35zm60.87 1.12c2.34-.63 4.24-1.6 4.23-2.2-.04-1.54-8.03-6.9-8.82-5.9-.37.48-2 2.33-3.6 4.12-2.86 3.17-2.9 3.3-1 4.72 1.07.8 2.6 1.23 3.44.94.82-.3 3.4-1.06 5.75-1.68zm-103.3-.66c.32-.5.12-1.2-.44-1.56-.55-.34-1 .07-1 .93 0 1.75.6 2 1.45.62zm65.5-4.52l4.38-4.46-2.42-2c-1.33-1.12-2.73-2.04-3.13-2.06-.4 0-2.5 1.88-4.68 4.22l-3.97 4.25 2.1 2.25c1.17 1.24 2.4 2.25 2.73 2.25.34 0 2.6-2 5-4.45zm-57.63-3.36l2.68-2.8-3.1-2.3-3.08-2.28-2.43 2.28-2.42 2.28 2.7 2.82c1.48 1.54 2.75 2.8 2.82 2.8.07 0 1.33-1.25 2.82-2.8zm83.18-.8l2.75-3.6-2.88-2.36c-3.8-3.1-4.4-3.03-8.25.93l-3.25 3.37 3.13 2.64c4.12 3.48 5.22 3.35 8.5-.96zm-60.32-.08c3.5-3.34 3.45-4.2-.3-7.2l-3.03-2.37-3.5 3.37-3.5 3.38 3.28 2.75c1.82 1.5 3.5 2.75 3.78 2.75.26 0 1.74-1.2 3.28-2.7zm24.06-4.77l3.76-4.4-3.1-2.2-3.1-2.22-4.1 4.1-4.12 4.1 2.38 2.54c1.3 1.4 2.86 2.52 3.45 2.5.58-.02 2.76-2 4.82-4.43zm55.3-.3c.34-2.06.7-4.2.78-4.78.37-2.3-1.2-1.8-3.7 1.18-3.1 3.7-3.2 4.2-.88 5.96 2.64 2 3.1 1.72 3.8-2.36zm-29.58-7.7c-.02-.57-1.08-1.8-2.36-2.74-2.26-1.64-2.42-1.6-6.04 2.12l-3.7 3.8 2.8 2.07 2.83 2.07 3.25-3.13c1.8-1.73 3.23-3.62 3.22-4.2zm-61.24-3.28l-2.74-2.73-3.74 3.74-3.75 3.74 3 2.43 3 2.43 3.48-3.44 3.48-3.44-2.73-2.74zm-21.27 5.8c.3-.5.1-1.2-.45-1.56-.55-.34-1 .07-1 .93 0 1.75.6 2 1.45.62zm45.07-3.24l3.77-4.17-2.7-2.32c-1.5-1.28-3.05-2.33-3.45-2.33-.4 0-2.52 1.8-4.68 4.03l-3.93 4.03 3 2.44c1.63 1.34 3.25 2.46 3.6 2.48.35.02 2.33-1.85 4.4-4.14zm58.98.56l2.75-3.6-2.88-2.36c-1.58-1.3-3.13-2.37-3.44-2.4-.3 0-2.08 1.56-3.96 3.5l-3.43 3.53 3 2.45c3.96 3.24 4.75 3.13 7.98-1.1zm-35.1-5.04c2.78-3.48 2.82-3.7 1.06-5-2.7-1.96-5-1.67-8.17 1.07l-2.8 2.4 2.42 2.6c3.18 3.4 4.02 3.27 7.48-1.07zm-59.6-1.66l3.22-3.3-2.48-2.34c-2.13-2-3.14-2.24-7.1-1.7-5.82.8-6.53 1.26-5.65 3.65.66 1.77 6.78 7 8.2 7 .33 0 2.05-1.5 3.82-3.3zm24.97-5.24c-.34-.34-2.2-.98-4.15-1.42-2.87-.65-3.86-.43-5.28 1.14-1.7 1.86-1.64 2.03 1.2 4.32l2.95 2.4 2.95-2.92c1.62-1.6 2.67-3.18 2.33-3.52zm57.27 2.98l3.45-3.58-2.36-1.92c-3.1-2.53-3.18-2.5-7.1 1.53l-3.35 3.47 2.4 2c1.33 1.1 2.67 2.03 2.97 2.05.3.02 2.1-1.58 4-3.54zm24.6-7.73c.6-3.56.5-3.7-2.33-3.7-1.93 0-3.9.98-5.64 2.8-3.35 3.5-3.35 4.1.06 6.85l2.75 2.23 2.28-2.24c1.25-1.25 2.55-3.92 2.88-5.95zm-38.15 2.3c.34-.55-.1-1-.94-1-.86 0-1.56.45-1.56 1s.42 1 .94 1c.53 0 1.23-.45 1.57-1zm-5.33-6.6c16.87-6.23 26-7.9 36.2-6.58 4.47.58 8.43.74 8.8.36.36-.37.8-2.25 1-4.18l.33-3.5-9-.82c-11.53-1.05-20.8.3-35 5.1-10.95 3.7-11.08 3.72-27 3.63-10.27-.05-19.23-.68-25-1.74-9.3-1.72-18.94-2.13-24.38-1.04-2.82.56-3.13.98-3.12 4.25.03 5.53.8 6.18 6 4.97 8.03-1.86 20.67-1.3 34 1.47 20.52 4.3 20.34 4.3 37.16-1.9zm28.83 1.1c1.07-1.3.7-1.5-2.5-1.5-3.22 0-3.57.2-2.5 1.5.68.83 1.8 1.5 2.5 1.5s1.8-.67 2.5-1.5zm27 25.2c0-.28 3.15-3.55 7-7.27 12.5-12.06 17.14-22.15 17.22-37.43.04-7.72-2.37-21.3-4.12-23.23-.37-.4-9.2 2.14-19.64 5.64-21.94 7.36-28.24 8.47-34.32 6.04-2.28-.92-4.15-2.03-4.15-2.48 0-.45 2.6-2.28 5.75-4.06 17.6-9.92 33.35-24.42 39.15-36.03 3.43-6.85 4.06-13.92 1.9-21.1-1.7-5.74-8.5-12.72-16.7-17.23-19.86-10.88-31.46-25.82-32.85-42.3-.65-7.66.9-8.3 5.3-2.15 15.04 20.92 15 20.88 32.95 35.4 14.92 12.1 18.44 15.86 21.7 23.2 2.4 5.48 2.1 13.88-.74 19.4-2.73 5.3-11.86 18.76-17.4 25.65-2.8 3.44-4.66 6.25-4.18 6.25.5 0 3.83-1.1 7.43-2.46 10.9-4.12 26.54-7.8 30.17-7.12 1.8.34 5.13 1.96 7.4 3.6 3.9 2.82 10.12 10.28 10.12 12.12 0 1.48-3.57.93-8.62-1.32-2.7-1.2-6.53-2.47-8.55-2.85l-3.67-.68.57 16.73c.63 18.58.06 22.33-4.9 32.5-3.72 7.65-8.88 13.2-16 17.28-5.12 2.92-10.83 4.97-10.83 3.9zm-155.5-4.26c-4.86-2.52-11.23-9.4-13.4-14.47-2.64-6.1-4.36-17.33-3.94-25.65l.34-6.6-8.3.6c-9 .63-11.2.24-11.2-2 0-1.66 13.42-8.2 18.52-9.03 2.82-.46 3.53-1.18 5.02-5.16.96-2.56 3.04-7.25 4.63-10.44l2.88-5.78-3.2-2.7c-1.77-1.5-5.13-5.3-7.47-8.48-5.6-7.6-7.08-13.94-5.46-23.36 2.48-14.4 8.63-22.88 23.57-32.52 4.95-3.2 9.82-6.4 10.83-7.1 1.73-1.2 1.75-1.62.25-8.08-2-8.56-2.04-12.7-.17-12.7 2.2 0 6.24 5.46 8.04 10.86l1.63 4.9 11.32-4.8c15.4-6.52 31.57-11.95 35.6-11.95 3.6 0 11.42 4.06 12.32 6.4.4 1.1-1.27 1.82-7.15 3.08-19.42 4.18-32.66 8.62-45.97 15.4l-4.22 2.17.58 11.22c.5 9.8.3 12.18-1.66 18.73-2.72 9.1-2.94 19.03-.53 24.1 1.97 4.17 5.85 6.56 17.63 10.9 4.63 1.7 10.6 4.3 13.25 5.74 8.32 4.52 14.96 13.5 16.33 22.1.76 4.72-.23 11.15-1.7 11.15-.56 0-2.75-3.7-4.86-8.25-4.97-10.67-9.35-14.9-19.55-18.82-12.6-4.86-21.34-9.88-25.2-14.5-4.63-5.53-8.02-7.16-9.84-4.7-3.93 5.27-4.06 6.36-1.04 8.77 1.57 1.25 8.1 4.83 14.48 7.97 20.7 10.13 30.6 17.27 33.07 23.85 2.34 6.18 1.06 6.15-8.97-.22-4.25-2.7-14.65-8.3-23.1-12.4-8.45-4.14-17.26-8.7-19.57-10.14l-4.2-2.6-1.66 3.18c-.9 1.76-2.44 5.5-3.4 8.32l-1.77 5.12 5.62 1.65c5.66 1.67 16.42 7.97 19.03 11.15 2.73 3.34-.1 3.9-9.03 1.8-4.6-1.08-10.3-2.27-12.63-2.65l-4.25-.7v4.14c0 5.83 2.76 18.5 5.5 25.25 1.27 3.14 4.15 8.26 6.4 11.38 2.22 3.13 3.8 6.08 3.52 6.55-.82 1.32-3.6 1.04-6.93-.7zm8.98-103.95c7.03-13.92 8.95-21.37 8.03-31.17-.37-4.03-.92-7.33-1.2-7.33-1.3 0-10.4 7.37-14.24 11.54-6.1 6.62-8.02 11.48-8.04 20.45-.02 8.45 1.2 13.93 4.22 18.87l2.06 3.37 1.8-2.38c1-1.3 4.3-7.32 7.37-13.37zm78.52 55.95c0-2.87 2.14-7.43 5.67-12.07 1.3-1.72 8.64-7.5 16.3-12.86 16.44-11.5 22.03-16.4 22.03-19.36 0-1.86-.57-2.15-4.25-2.15-7.5 0-16.74 5.34-33.9 19.6-8.02 6.66-12.63 9.4-15.8 9.4-2.65 0-2.65-2.33-.02-9.36 3.95-10.56 11.67-17.07 32.94-27.75l12.07-6.07-2.05-2.67c-1.13-1.45-3.23-4.34-4.65-6.4-2.87-4.15-3.5-4.27-13.33-2.68-8.83 1.43-18 5.6-18 8.17 0 1.06 2.36 4.16 5.25 6.87 5.04 4.73 5.17 4.98 3.3 6.4-3.8 2.9-9.07 1.07-14.4-5-4.1-4.67-4.32-9.98-.58-14.42 3.33-3.96 12.98-7.03 24.5-7.8l8.56-.57 1.13-8.94c1.15-9.13 2.38-12.06 4.68-11.17 2.33.9 3.57 5.34 3.57 12.77 0 6.86 1.58 13.4 5 20.78 1.2 2.6 1.4 2.65 8.37 2.13 6.47-.5 7.3-.33 9.13 1.7 1.55 1.72 2 3.58 1.96 8.36-.08 10.93-4.84 16.78-24.4 29.97-7.46 5.02-17.5 12.86-22.33 17.4-4.8 4.56-9.2 8.28-9.75 8.28-.54 0-.98-1.15-.98-2.55zm-30.95-34.4c-7.75-7.73-12.05-9.6-20.33-8.8-4.27.4-5.04.17-6.87-2.14-4.2-5.35-.45-14.2 7.72-18.15 3.85-1.85 5.77-2.13 12.24-1.74 8.82.52 13.46 2.52 15.65 6.75 4.13 8 4.1 31.05-.04 31.05-.78 0-4.55-3.13-8.38-6.95zm-1.7-18.22c1.45-2.33.04-4.83-2.75-4.83-3.3 0-4.63 3.78-2 5.7 2.1 1.54 3.36 1.3 4.74-.87zm-19.96-17.26c-1.56-4.05 5.77-13.82 15-19.97 7.42-4.96 17.85-2.66 14.7 3.24-2.7 5-19.34 16.45-25.85 17.75-2.47.5-3.35.26-3.84-1.03zm26.6.57c0-.5.85-1.95 1.87-3.26 10.05-12.86 7.17-26.7-5.45-26.2-4.46.16-8.3 1.8-15.1 6.45-6.76 4.62-8.32 3.27-3.82-3.35 1.66-2.45 4.66-4.73 9.05-6.9 5.52-2.7 7.7-3.23 13.77-3.25 12.52-.06 17.1 4.32 17.16 16.42.03 5.6-.4 7.22-2.84 10.93-4.15 6.25-8.6 10-11.85 10-1.53 0-2.78-.4-2.78-.86zm94.47-56.46c-.7-2.76-1.5-2.8-12.76-.62-2.64.5-5.44.93-6.2.93-2.58 0-3.73-7.1-3.36-20.7l.37-13.03-3.15 4.6c-3.04 4.47-11.37 12.28-18.1 17-5.8 4.05-3.95-.05 9.82-21.78 2.73-4.33 3.13-5.52 1.94-5.92-3-1-7.16-6.12-6.83-8.4.26-1.9 1.57-2.62 7.82-4.4 6.33-1.77 7.8-2.6 9.38-5.3 1.53-2.6 1.67-3.66.75-5.68-1.94-4.25-1.4-6.02 2.1-7.03 3.8-1.08 5.12-4.35 1.78-4.35-3.4 0-6.07-1.9-7.5-5.33-1.66-3.94-.5-5.66 3.86-5.68 7.15-.02 10.23-1.1 11.3-3.94 1.47-3.88 4.96-4.54 7.8-1.48 1.86 2 2.86 2.32 5.64 1.8 1.87-.36 4.17-1.05 5.12-1.53 2.37-1.22 8.4 1.4 9.23 4.02.36 1.13.16 2.97-.44 4.08-1.18 2.2-1.94 2.45-12.52 4.33-5.04.9-7.08 1.7-7.3 2.9-.28 1.4.2 1.5 3.48.75 6.37-1.48 10.12-1.14 11.27 1 2.06 3.84.62 8.04-3.2 9.32-.98.33-.94.8.18 2.18 1.25 1.5 2.52 1.65 9.03 1.08 7.17-.64 7.7-.54 10.3 1.86 4.98 4.62 2.55 10.6-4.34 10.66l-3.43.03 3.5 3c1.92 1.66 6.42 5.12 10 7.7 11.2 8.05 16.1 13.84 13.2 15.63-.44.27-3.44-.38-6.66-1.45-5.35-1.77-6.02-1.8-7.6-.36-1.57 1.42-2.05 1.42-4.68.06-1.6-.83-5.2-3.32-8-5.54l-5.1-4.02.54 10.7c.8 15.8-1.25 21.56-8.37 23.4-8.57 2.2-8.2 2.2-8.87-.48zm-2.2-11.2l4.74-.6-.02-10.7c0-5.88-.4-11.32-.9-12.08-.73-1.17-1.97-1.02-7.48.93-6.1 2.14-6.6 2.54-6.6 5.25 0 2.83.12 2.9 3.75 2.26 2.06-.36 4.46-.86 5.33-1.12 2.28-.66 5.24 2.97 4.45 5.47-.68 2.14-5.8 4.1-10.78 4.1-2.55 0-2.75.3-2.75 4.08 0 3.9.1 4.06 2.75 3.57 1.5-.3 4.9-.8 7.5-1.15zM247.6 99.4c4-.45 7.74-1.42 8.37-2.18.63-.75 1.76-1.37 2.52-1.37 1.53 0 1.72-.9.55-2.74-.77-1.2-4.1-.8-20.18 2.32-3.14.6-6 2.73-6 4.45 0 .77 4.96.6 14.73-.47zm2.02-18.55c1.2 0 1.26-.28.25-1.5-1.5-1.8-5.14-1.96-6.8-.3-2.1 2.1-1.3 3.07 1.92 2.43 1.7-.35 3.8-.63 4.62-.63z"/><path fill="#0e1f0b" d="M60.37 444.4c-23.95-4.44-43.92-19.75-53.6-41.12C.56 389.64.9 399.5.86 223.26c0-156.98.05-161.3 1.97-168.8 3.2-12.52 9.17-22.84 18.7-32.33 7-6.95 9.87-9 18.55-13.2C57.65.44 50.36.86 179.75.86c97.84 0 115 .22 121.16 1.5 26.47 5.58 47.8 25.28 55.14 50.96l2.3 8.05v161.5c0 151.93-.1 161.92-1.78 168.5-6.37 24.9-25.65 44.15-52.2 52.12-5.62 1.68-13.5 1.82-121.5 2.02-91.2.16-117-.07-122.5-1.1zm240.87-4.04c19.78-4.2 38.34-18.78 47.08-37 6.92-14.45 6.55-4.17 6.53-180.2-.02-177.2.42-165.97-7.13-181.3-5.92-12-17.84-23.88-29.85-29.74-17.1-8.34-6.9-7.77-138-7.77-108.7 0-116.97.12-123.5 1.8C32 12.37 12.72 31.08 6.14 54.9c-1.66 6.04-1.77 16.34-1.77 167.93 0 176.6-.36 165.75 5.97 179.5 8.6 18.65 24.98 32.13 45.53 37.45 7.2 1.87 11.96 1.94 123 1.98 97.4.03 116.57-.2 122.37-1.42zM161.87 382.7c-12.1-8.02-32.68-18.38-45.04-22.68-16.8-5.83-39.05-10.28-58.73-11.74-5.1-.38-9.56-1.14-9.9-1.7-1.05-1.7 3.77-4.5 12.5-7.3 14.88-4.75 35.72-6.8 44.48-4.36 4.8 1.34 4.3 3.36-.9 3.65-7.46.42-26.5 2.53-26.13 2.9.2.2 4.4 1.06 9.3 1.9 28.9 5 58.4 15.74 78.52 28.6 4.18 2.7 7.92 4.88 8.32 4.88.38 0 2.65-1.33 5.02-2.97 6.18-4.25 23.47-13.2 34.55-17.9 15.14-6.4 28.3-9.76 49.42-12.63l4.92-.67-10.43-4.53c-11.3-4.9-13.2-6.05-12.36-7.4 1.03-1.7 12.32-.92 19.02 1.28 8.93 2.93 26.6 11.88 27.88 14.13 1.7 3-1.6 4.4-12.25 5.13-45.05 3.12-71.4 11.86-98.15 32.55-4.27 3.3-8.17 5.96-8.67 5.92-.5-.05-5.64-3.22-11.4-7.06zm8.82-17.5c-18.07-12.8-29.8-18.06-45.47-20.43l-8.15-1.23-.56-4.6c-.3-2.52-1.5-14.5-2.65-26.6-2.58-27.07-2.53-26.8-4.83-25.58-1.13.6-2.3.6-3.23 0-3.22-2.16 11-11.04 20.5-12.8 3.72-.7 8.04-.43 17.5 1.07 18.98 3 35.92 2.18 55.07-2.66 18.22-4.62 30.13-5.5 42.08-3.07 11.14 2.25 19.3 5.52 19.75 7.92.33 1.7-.2 1.84-6.1 1.46l-6.48-.4-4.7 28.53c-2.58 15.7-4.88 29.24-5.12 30.08-.27.96-4.94 2.93-12.68 5.33-16.57 5.16-26.34 10.12-38.44 19.55L177 369.67l-6.3-4.47zm7.95-5.6c.74-.9.4-1.73-1.28-2.97-2.02-1.5-2.46-1.54-3.53-.25-.96 1.16-.95 1.8.03 2.97 1.5 1.83 3.4 1.93 4.78.25zm-10-6.94c.94-.93.72-1.7-.96-3.5-2.56-2.72-4.1-2.9-5.9-.7-1.14 1.35-.97 1.86 1.12 3.46 2.87 2.2 4.1 2.37 5.74.74zm21.06-1.2l3.24-2.37-3.1-2.63c-1.73-1.44-3.5-2.62-3.96-2.62-.46 0-2 1.4-3.43 3.1l-2.6 3.07 2.26 1.88c2.96 2.46 3.75 2.4 7.6-.43zm-32.94-7l2.24-2.38-3.13-2.23-3.13-2.23-2.44 2.3c-3.1 2.9-3.05 3.53.32 5.36 3.6 1.95 3.54 1.96 6.14-.8zm21-2l3.26-3.36-3.15-2.25-3.15-2.24-2.88 3.38-2.88 3.37 2.7 2.25c1.5 1.23 2.73 2.24 2.76 2.25.03 0 1.53-1.52 3.33-3.38zm29.07-7.6c0-.28-1.76-1.75-3.9-3.26l-3.9-2.75-4.17 4.75-4.18 4.75 3.84 3.33 3.85 3.33 4.23-4.82c2.32-2.66 4.23-5.05 4.23-5.33zm-61.9 1.4l2.44-2.57-3.27-2.93c-1.8-1.6-3.63-2.92-4.07-2.92-.45 0-1.9 1.17-3.24 2.6l-2.43 2.6 3.46 2.9c1.9 1.6 3.74 2.9 4.08 2.9.34 0 1.7-1.16 3.04-2.58zm21.82-2.8l3.27-3.36-3.15-2.24-3.14-2.25-2.93 2.82c-1.6 1.54-2.93 3.2-2.93 3.7 0 .9 4 4.64 5.05 4.7.3.02 2.03-1.5 3.83-3.35zm60.87 1.12c2.34-.63 4.24-1.6 4.23-2.2-.04-1.54-8.03-6.9-8.82-5.9-.37.48-2 2.33-3.6 4.12-2.86 3.17-2.9 3.3-1 4.72 1.07.8 2.6 1.23 3.44.94.82-.3 3.4-1.06 5.75-1.68zm-103.3-.66c.32-.5.12-1.2-.44-1.56-.55-.34-1 .07-1 .93 0 1.75.6 2 1.45.62zm65.5-4.52l4.38-4.46-2.42-2c-1.33-1.12-2.73-2.04-3.13-2.06-.4 0-2.5 1.88-4.68 4.22l-3.97 4.25 2.1 2.25c1.17 1.24 2.4 2.25 2.73 2.25.34 0 2.6-2 5-4.45zm-57.63-3.36l2.68-2.8-3.1-2.3-3.08-2.28-2.43 2.28-2.42 2.28 2.7 2.82c1.48 1.54 2.75 2.8 2.82 2.8.07 0 1.33-1.25 2.82-2.8zm83.18-.8l2.75-3.6-2.88-2.36c-3.8-3.1-4.4-3.03-8.25.93l-3.25 3.37 3.13 2.64c4.12 3.48 5.22 3.35 8.5-.96zm-60.32-.08c3.5-3.34 3.45-4.2-.3-7.2l-3.03-2.37-3.5 3.37-3.5 3.38 3.28 2.75c1.82 1.5 3.5 2.75 3.78 2.75.26 0 1.74-1.2 3.28-2.7zm24.06-4.77l3.76-4.4-3.1-2.2-3.1-2.22-4.1 4.1-4.12 4.1 2.38 2.54c1.3 1.4 2.86 2.52 3.45 2.5.58-.02 2.76-2 4.82-4.43zm55.3-.3c.34-2.06.7-4.2.78-4.78.37-2.3-1.2-1.8-3.7 1.18-3.1 3.7-3.2 4.2-.88 5.96 2.64 2 3.1 1.72 3.8-2.36zm-29.58-7.7c-.02-.57-1.08-1.8-2.36-2.74-2.26-1.64-2.42-1.6-6.04 2.12l-3.7 3.8 2.8 2.07 2.83 2.07 3.25-3.13c1.8-1.73 3.23-3.62 3.22-4.2zm-61.24-3.28l-2.74-2.73-3.74 3.74-3.75 3.74 3 2.43 3 2.43 3.48-3.44 3.48-3.44-2.73-2.74zm-21.27 5.8c.3-.5.1-1.2-.45-1.56-.55-.34-1 .07-1 .93 0 1.75.6 2 1.45.62zm45.07-3.24l3.77-4.17-2.7-2.32c-1.5-1.28-3.05-2.33-3.45-2.33-.4 0-2.52 1.8-4.68 4.03l-3.93 4.03 3 2.44c1.63 1.34 3.25 2.46 3.6 2.48.35.02 2.33-1.85 4.4-4.14zm58.98.56l2.75-3.6-2.88-2.36c-1.58-1.3-3.13-2.37-3.44-2.4-.3 0-2.08 1.56-3.96 3.5l-3.43 3.53 3 2.45c3.96 3.24 4.75 3.13 7.98-1.1zm-35.1-5.04c2.78-3.48 2.82-3.7 1.06-5-2.7-1.96-5-1.67-8.17 1.07l-2.8 2.4 2.42 2.6c3.18 3.4 4.02 3.27 7.48-1.07zm-59.6-1.66l3.22-3.3-2.48-2.34c-2.13-2-3.14-2.24-7.1-1.7-5.82.8-6.53 1.26-5.65 3.65.66 1.77 6.78 7 8.2 7 .33 0 2.05-1.5 3.82-3.3zm24.97-5.24c-.34-.34-2.2-.98-4.15-1.42-2.87-.65-3.86-.43-5.28 1.14-1.7 1.86-1.64 2.03 1.2 4.32l2.95 2.4 2.95-2.92c1.62-1.6 2.67-3.18 2.33-3.52zm57.27 2.98l3.45-3.58-2.36-1.92c-3.1-2.53-3.18-2.5-7.1 1.53l-3.35 3.47 2.4 2c1.33 1.1 2.67 2.03 2.97 2.05.3.02 2.1-1.58 4-3.54zm24.6-7.73c.6-3.56.5-3.7-2.33-3.7-1.93 0-3.9.98-5.64 2.8-3.35 3.5-3.35 4.1.06 6.85l2.75 2.23 2.28-2.24c1.25-1.25 2.55-3.92 2.88-5.95zm-38.15 2.3c.34-.55-.1-1-.94-1-.86 0-1.56.45-1.56 1s.42 1 .94 1c.53 0 1.23-.45 1.57-1zm-5.33-6.6c16.87-6.23 26-7.9 36.2-6.58 4.47.58 8.43.74 8.8.36.36-.37.8-2.25 1-4.18l.33-3.5-9-.82c-11.53-1.05-20.8.3-35 5.1-10.95 3.7-11.08 3.72-27 3.63-10.27-.05-19.23-.68-25-1.74-9.3-1.72-18.94-2.13-24.38-1.04-2.82.56-3.13.98-3.12 4.25.03 5.53.8 6.18 6 4.97 8.03-1.86 20.67-1.3 34 1.47 20.52 4.3 20.34 4.3 37.16-1.9zm28.83 1.1c1.07-1.3.7-1.5-2.5-1.5-3.22 0-3.57.2-2.5 1.5.68.83 1.8 1.5 2.5 1.5s1.8-.67 2.5-1.5zm27 25.2c0-.28 3.15-3.55 7-7.27 12.5-12.06 17.14-22.15 17.22-37.43.04-7.72-2.37-21.3-4.12-23.23-.37-.4-9.2 2.14-19.64 5.64-21.94 7.36-28.24 8.47-34.32 6.04-2.28-.92-4.15-2.03-4.15-2.48 0-.45 2.6-2.28 5.75-4.06 17.6-9.92 33.35-24.42 39.15-36.03 3.43-6.85 4.06-13.92 1.9-21.1-1.7-5.74-8.5-12.72-16.7-17.23-19.86-10.88-31.46-25.82-32.85-42.3-.65-7.66.9-8.3 5.3-2.15 15.04 20.92 15 20.88 32.95 35.4 14.92 12.1 18.44 15.86 21.7 23.2 2.4 5.48 2.1 13.88-.74 19.4-2.73 5.3-11.86 18.76-17.4 25.65-2.8 3.44-4.66 6.25-4.18 6.25.5 0 3.83-1.1 7.43-2.46 10.9-4.12 26.54-7.8 30.17-7.12 1.8.34 5.13 1.96 7.4 3.6 3.9 2.82 10.12 10.28 10.12 12.12 0 1.48-3.57.93-8.62-1.32-2.7-1.2-6.53-2.47-8.55-2.85l-3.67-.68.57 16.73c.63 18.58.06 22.33-4.9 32.5-3.72 7.65-8.88 13.2-16 17.28-5.12 2.92-10.83 4.97-10.83 3.9zm-155.5-4.26c-4.86-2.52-11.23-9.4-13.4-14.47-2.64-6.1-4.36-17.33-3.94-25.65l.34-6.6-8.3.6c-9 .63-11.2.24-11.2-2 0-1.66 13.42-8.2 18.52-9.03 2.82-.46 3.53-1.18 5.02-5.16.96-2.56 3.04-7.25 4.63-10.44l2.88-5.78-3.2-2.7c-1.77-1.5-5.13-5.3-7.47-8.48-5.6-7.6-7.08-13.94-5.46-23.36 2.48-14.4 8.63-22.88 23.57-32.52 4.95-3.2 9.82-6.4 10.83-7.1 1.73-1.2 1.75-1.62.25-8.08-2-8.56-2.04-12.7-.17-12.7 2.2 0 6.24 5.46 8.04 10.86l1.63 4.9 11.32-4.8c15.4-6.52 31.57-11.95 35.6-11.95 3.6 0 11.42 4.06 12.32 6.4.4 1.1-1.27 1.82-7.15 3.08-19.42 4.18-32.66 8.62-45.97 15.4l-4.22 2.17.58 11.22c.5 9.8.3 12.18-1.66 18.73-2.72 9.1-2.94 19.03-.53 24.1 1.97 4.17 5.85 6.56 17.63 10.9 4.63 1.7 10.6 4.3 13.25 5.74 8.32 4.52 14.96 13.5 16.33 22.1.76 4.72-.23 11.15-1.7 11.15-.56 0-2.75-3.7-4.86-8.25-4.97-10.67-9.35-14.9-19.55-18.82-12.6-4.86-21.34-9.88-25.2-14.5-4.63-5.53-8.02-7.16-9.84-4.7-3.93 5.27-4.06 6.36-1.04 8.77 1.57 1.25 8.1 4.83 14.48 7.97 20.7 10.13 30.6 17.27 33.07 23.85 2.34 6.18 1.06 6.15-8.97-.22-4.25-2.7-14.65-8.3-23.1-12.4-8.45-4.14-17.26-8.7-19.57-10.14l-4.2-2.6-1.66 3.18c-.9 1.76-2.44 5.5-3.4 8.32l-1.77 5.12 5.62 1.65c5.66 1.67 16.42 7.97 19.03 11.15 2.73 3.34-.1 3.9-9.03 1.8-4.6-1.08-10.3-2.27-12.63-2.65l-4.25-.7v4.14c0 5.83 2.76 18.5 5.5 25.25 1.27 3.14 4.15 8.26 6.4 11.38 2.22 3.13 3.8 6.08 3.52 6.55-.82 1.32-3.6 1.04-6.93-.7zm8.98-103.95c7.03-13.92 8.95-21.37 8.03-31.17-.37-4.03-.92-7.33-1.2-7.33-1.3 0-10.4 7.37-14.24 11.54-6.1 6.62-8.02 11.48-8.04 20.45-.02 8.45 1.2 13.93 4.22 18.87l2.06 3.37 1.8-2.38c1-1.3 4.3-7.32 7.37-13.37zm78.52 55.95c0-2.87 2.14-7.43 5.67-12.07 1.3-1.72 8.64-7.5 16.3-12.86 16.44-11.5 22.03-16.4 22.03-19.36 0-1.86-.57-2.15-4.25-2.15-7.5 0-16.74 5.34-33.9 19.6-8.02 6.66-12.63 9.4-15.8 9.4-2.65 0-2.65-2.33-.02-9.36 3.95-10.56 11.67-17.07 32.94-27.75l12.07-6.07-2.05-2.67c-1.13-1.45-3.23-4.34-4.65-6.4-2.87-4.15-3.5-4.27-13.33-2.68-8.83 1.43-18 5.6-18 8.17 0 1.06 2.36 4.16 5.25 6.87 5.04 4.73 5.17 4.98 3.3 6.4-3.8 2.9-9.07 1.07-14.4-5-4.1-4.67-4.32-9.98-.58-14.42 3.33-3.96 12.98-7.03 24.5-7.8l8.56-.57 1.13-8.94c1.15-9.13 2.38-12.06 4.68-11.17 2.33.9 3.57 5.34 3.57 12.77 0 6.86 1.58 13.4 5 20.78 1.2 2.6 1.4 2.65 8.37 2.13 6.47-.5 7.3-.33 9.13 1.7 1.55 1.72 2 3.58 1.96 8.36-.08 10.93-4.84 16.78-24.4 29.97-7.46 5.02-17.5 12.86-22.33 17.4-4.8 4.56-9.2 8.28-9.75 8.28-.54 0-.98-1.15-.98-2.55zm-30.95-34.4c-7.75-7.73-12.05-9.6-20.33-8.8-4.27.4-5.04.17-6.87-2.14-4.2-5.35-.45-14.2 7.72-18.15 3.85-1.85 5.77-2.13 12.24-1.74 8.82.52 13.46 2.52 15.65 6.75 4.13 8 4.1 31.05-.04 31.05-.78 0-4.55-3.13-8.38-6.95zm-1.7-18.22c1.45-2.33.04-4.83-2.75-4.83-3.3 0-4.63 3.78-2 5.7 2.1 1.54 3.36 1.3 4.74-.87z"/><path d="M60.37 444.4c-23.95-4.44-43.92-19.75-53.6-41.12C.56 389.64.9 399.5.86 223.26c0-156.98.05-161.3 1.97-168.8 3.2-12.52 9.17-22.84 18.7-32.33 7-6.95 9.87-9 18.55-13.2C57.65.44 50.36.86 179.75.86c97.84 0 115 .22 121.16 1.5 26.47 5.58 47.8 25.28 55.14 50.96l2.3 8.05v161.5c0 151.93-.1 161.92-1.78 168.5-6.37 24.9-25.65 44.15-52.2 52.12-5.62 1.68-13.5 1.82-121.5 2.02-91.2.16-117-.07-122.5-1.1zm240.87-4.04c19.78-4.2 38.34-18.78 47.08-37 6.92-14.45 6.55-4.17 6.53-180.2-.02-177.2.42-165.97-7.13-181.3-5.92-12-17.84-23.88-29.85-29.74-17.1-8.34-6.9-7.77-138-7.77-108.7 0-116.97.12-123.5 1.8C32 12.37 12.72 31.08 6.14 54.9c-1.66 6.04-1.77 16.34-1.77 167.93 0 176.6-.36 165.75 5.97 179.5 8.6 18.65 24.98 32.13 45.53 37.45 7.2 1.87 11.96 1.94 123 1.98 97.4.03 116.57-.2 122.37-1.42z"/></g></g></svg>