<svg xmlns="http://www.w3.org/2000/svg" width="358.792" height="445.925" viewBox="0 0 358.79242 445.92505"><g><g><path fill="#c38c8f" d="M55.27 444.08c-24.84-6.1-43.42-23.1-52.07-47.6l-2.82-8v-164C.38 90.9.63 59.44 1.72 54.97c2.18-9 9.63-23.08 15.8-29.9C27.44 14.12 41 6 55.64 2.2 61.85.6 71.7.47 179.38.47S296.9.6 303.1 2.2c21.53 5.54 39.15 19.5 48.33 38.27 8 16.34 7.54 4.68 7.23 186.5l-.28 161.5-2.72 8c-6.6 19.46-19.45 33.74-38.28 42.55-15.58 7.3-9 6.96-138.7 6.88-107.18-.07-116.86-.2-123.4-1.82zm248.1-4.5c24.75-7.44 42.87-25.62 48.96-49.07 1.37-5.25 1.55-24.87 1.55-166.7 0-111.55-.33-162.35-1.1-166.03-.58-2.9-3.1-9.54-5.6-14.73-3.75-7.82-5.92-10.83-12.68-17.6-6.65-6.64-9.92-9.02-17.64-12.83C300.68 4.63 307.63 5 179.38 5 68.66 5 65.14 5.04 57 7c-19.36 4.63-36.7 18.13-44.95 34.98-7.72 15.78-7.17 1.94-7.17 181.04 0 156.7.05 160.82 1.97 168.36 6.6 25.83 29.77 45.92 57.53 49.9 1.65.23 54.75.35 118 .27 107.8-.14 115.37-.26 121-1.96zm-145.5-45.76c-10.52-7-35.53-19.07-48-23.2-18.3-6.02-44.58-10.65-60.57-10.65-8.28 0-10.38-1.54-6.8-5 2.76-2.68 18.25-7.8 28.75-9.5 15.9-2.6 31.63-1.6 31.63 1.98 0 1.63-3.18 2.5-9.2 2.5-2.6.02-8.23.55-12.5 1.2l-7.8 1.18 8.9 1.3c12.18 1.78 34.65 7.58 46.4 11.97 10.74 4.02 28.32 12.64 35.07 17.22l4.38 2.97 4.62-3.3c12.74-9.02 39.16-21.8 53.88-26.07 7.15-2.08 16.06-3.92 29.2-6.06 3.34-.55 3.13-.7-6-4.54-5.2-2.2-10.04-4.23-10.75-4.54-.72-.32-1.16-1.3-1-2.2.45-2.32 10-2.65 17.82-.62 7.76 2 26.76 10.27 29.17 12.68 1 1 1.8 2.7 1.8 3.77 0 2.55-3.67 3.44-20.5 4.96-38.5 3.47-66.28 14.03-92 34.98-2.74 2.24-5.9 4.04-7 4-1.1-.04-5.37-2.32-9.5-5.06zm3.5-20.44c-16.96-11.6-26.1-15.5-41.63-17.82-4.92-.74-9.18-1.57-9.46-1.86-.3-.3-1.85-11.7-3.46-25.37-3.98-33.7-3.4-31.1-6.8-30.6-4.98.74-4.66-2.2.66-6.08 11.94-8.7 18.4-9.9 38.7-7.16 18.68 2.5 28.5 1.72 51.5-4.17 16.32-4.17 19.73-4.73 29-4.72 16.25.03 34 4.93 34 9.4 0 1.76-.7 1.97-6.42 1.97-6.2 0-6.44.1-6.98 2.75-.3 1.5-2.13 13.55-4.07 26.75-1.92 13.2-3.75 25.43-4.04 27.18-.53 3.06-.95 3.3-11.76 6.9-19.64 6.48-28.46 11.28-42.34 23.06-3.48 2.96-6.9 5.34-7.6 5.3-.7-.02-4.88-2.5-9.28-5.52zm9.53-6.88c-1-1.2-1.6-1.3-2.67-.4-1.15.95-1.1 1.35.4 2.44 2.26 1.67 4.04.1 2.27-2.04zm-9.35-6.04c.18-.55-.6-1.6-1.75-2.3-1.67-1.05-2.38-1.06-3.6-.05-1.33 1.12-1.3 1.42.32 2.6 2 1.46 4.5 1.34 5.03-.24zm21.08-.43c1.24-1.03 2.25-2.06 2.25-2.28 0-.22-1.33-1.38-2.94-2.58L179 353l-2.23 3.13c-2.16 3.02-2.17 3.17-.37 4.48 2.44 1.8 3.52 1.7 6.23-.57zm-32.95-6.26c1.7-1.7 1.5-2.36-1.18-4.13-2.23-1.46-2.52-1.4-4.65.86l-2.28 2.42 2.4.96c3.28 1.3 4.3 1.3 5.7-.1zm21.23-7.2c-2-2-2-2-5.04.92l-3.05 2.9 2.3 1.74c2.2 1.66 2.37 1.63 5.05-.93 2.76-2.64 2.76-2.64.76-4.64zm24.98 1.25l3.34-4.16-2.92-2.34c-1.6-1.3-3.17-2.34-3.47-2.34-.3 0-2.27 1.76-4.38 3.92l-3.84 3.93 2.9 2.54c1.58 1.4 3.37 2.55 3.96 2.57.6.02 2.6-1.84 4.42-4.12zm-58.48-2.53c1.74-2.66 1.72-2.72-1.1-4.97l-2.87-2.3-2.3 2.16-2.27 2.14 2.7 2.82c3.32 3.46 3.66 3.47 5.84.13zm22.42-3.25l2.04-2.86-2.67-1.76c-2.65-1.73-2.72-1.7-4.97 1.1l-2.28 2.88 2.1 2.24c2.4 2.54 2.92 2.4 5.77-1.6zm62.1-.3l3.23-1.33-4.16-2.75-4.17-2.76-2.44 2.8c-5.3 6-1.84 7.85 7.5 4.04zm-38.23-9.96c-2.3-1.78-2.36-1.76-6.04 2.44l-3.73 4.23 2.22 1.86c2.2 1.84 2.24 1.82 6.03-2.45l3.82-4.3-2.3-1.8zm-58.42 3.28c1.63-1.8 1.57-2-1.2-3.97-2.92-2.07-2.95-2.07-4.73-.1-1.7 1.9-1.7 2.05.03 3.97 2.26 2.5 3.7 2.53 5.9.1zm84.6-4.9c0-.72-5.22-4.2-6.3-4.2-.25 0-1.64 1.53-3.07 3.4l-2.6 3.42 3.24 2.08 3.24 2.1 2.75-3.03c1.5-1.65 2.75-3.36 2.75-3.78zm-62 3.3c2.26-2.4 2.27-2.55.5-4.5-2.37-2.63-3.34-2.54-6.64.63l-2.75 2.64 2.18 1.83c2.93 2.44 3.92 2.36 6.7-.6zm24.4-10.12l-2.6-2.1-3.75 4.02-3.76 4.04 2.5 2.14 2.48 2.14 3.85-4.06 3.84-4.07-2.57-2.1zm54.6 4.7c0-1.6.26-3.75.6-4.76.3-1-.8-.26-2.47 1.67-2.76 3.17-2.9 3.62-1.4 4.75 2.53 1.9 3.28 1.53 3.28-1.67zm-31.5-8.7c-2.54-1.87-2.7-1.82-5.97 1.58l-2.83 2.96 2.32 1.88c2.3 1.87 2.32 1.87 5.35-1.58 2.92-3.33 2.96-3.5 1.14-4.84zM135.35 324l2.85-2.96-2.42-1.96-2.4-1.97-3.2 3.08-3.18 3.07 2.2 1.83c2.84 2.38 2.83 2.38 6.14-1.07zm24.45-3.92l3.07-3.88-2.62-1.72c-2.6-1.7-2.67-1.68-6.25 1.94l-3.62 3.66 2.36 1.95c1.3 1.07 2.72 1.94 3.16 1.94.45 0 2.2-1.75 3.9-3.9zm61.05-3.14c.02-.3-1.25-1.3-2.82-2.22-2.8-1.65-2.9-1.63-5.75 1.37l-2.9 3.04 3 2.42 3 2.42 2.72-3.25c1.5-1.8 2.74-3.5 2.75-3.8zm-37.4-1.04c2.85-3 2.88-3.1.98-4.5-2.34-1.73-5.45-.97-7.7 1.86-1.53 1.94-1.5 2.18.5 3.86 2.82 2.34 2.8 2.35 6.2-1.22zm-59.2-.8l2.76-2.88-2.7-2.12c-3.12-2.47-2.8-2.43-7.67-1.08-4.6 1.28-4.72 2.65-.5 6.17 4.1 3.43 4.75 3.42 8.13-.1zm22.53-2.52c1.24-1.32 1.88-2.62 1.42-2.9-1.9-1.18-6.16-1.1-7.66.16-1.48 1.22-1.42 1.5.6 3.2 2.87 2.4 2.97 2.38 5.64-.46zm59.43-1.43l2.72-2.83-2.04-1.85c-2-1.8-2.1-1.78-5.5 1.5-3.15 3.06-3.3 3.44-1.72 4.63 2.52 1.9 3.54 1.68 6.55-1.45zm24.2-7.4c.5-2.05.22-2.73-1.4-3.24-1.53-.47-2.82.2-5.06 2.67l-3 3.3 2.63 2.17 2.64 2.17 1.78-2.24c.98-1.23 2.06-3.4 2.42-4.82zm-44.68-3.7c17.24-6.9 24.03-8.4 35.84-7.87 10.74.48 11.32.27 11.32-4.17 0-2.26-3.65-3.03-14.38-3-9.37 0-15.8 1.37-31.12 6.6-10.62 3.62-11.47 3.75-24.5 3.7-7.43 0-19.44-.84-26.7-1.85-9.9-1.36-14.66-1.6-19-.9l-5.8.92v4c0 3.44.28 3.96 2 3.67 1.1-.18 7.62-.53 14.5-.77 10.64-.38 14.2-.08 24 2.02 15.36 3.3 20.7 2.92 33.84-2.34zm29.66.92c.34-.56-.4-1-1.7-.98-1.85 0-2 .2-.8.97 1.86 1.2 1.75 1.2 2.5 0zm49.95-10.1c12.23-12.96 19.93-24.78 19.36-29.72-.27-2.2-1.13-2.93-4.82-4.1-5.48-1.73-15.72-.67-32.83 3.42-13.84 3.3-16.55 2.78-9.6-1.88 34.94-23.43 67.57-30.98 80.54-18.64 3.53 3.37 3.88 4.16 3.88 8.9 0 10.47-6.96 19-24.38 29.83-11.16 6.93-34.98 19.27-37.22 19.27-1.05 0 .78-2.57 5.05-7.1zM77.76 279.23c-.58-1.5-1.96-6.57-3.06-11.25-1.1-4.67-2.15-9-2.33-9.6-.42-1.45-3.24-1.97-21.12-3.92-8.18-.9-15.26-2-15.74-2.46-3.37-3.32 8.27-6.3 22.93-5.86 6.3.18 11.45.15 11.45-.08 0-.23-1.17-6.98-2.6-15-3.45-19.45-2.63-24.1 4.26-24.1 1.88 0 5.1.88 7.13 1.93 5.98 3.1 30.02 22.66 38.78 31.57C128.62 251.83 145 274 142.2 273.95c-1.03-.02-37.62-28.2-45.27-34.85-6.18-5.38-12.84-10.13-14.2-10.13-.46 0-.85 4.44-.85 9.87v9.86l9.75 3.12c9.7 3.1 20.22 8.57 21 10.92.63 1.88-5.66 1.48-18.5-1.17l-11.25-2.33v6.12c-.03 14.53-2.38 20.92-5.12 13.86zm79.45-4.5c-3.9-4-13.52-14.67-21.35-23.75-7.83-9.07-20.87-23.7-28.98-32.5-18.52-20.1-22.64-24.9-26.17-30.44-3.13-4.93-3.42-6.06-1.57-6.05 2.22 0 9.25 5.25 28.58 21.32 17.97 14.95 23.42 20.58 31.16 32.17 6.56 9.83 14.07 18.5 16.04 18.5 2.2 0 3.85-4.54 2.38-6.5-6.5-8.7-6.9-9.7-6.9-17.42 0-4.17.36-8.98.8-10.7.78-3.05.73-3.1-3.42-3.67-6.05-.8-11.94-5.3-14.25-10.87-2.47-6-1.6-10.74 2.9-15.74l3.44-3.78-1.64-4.17c-1.6-4.03-1.75-4.14-5.23-3.53-5.95 1.04-12.17 4.2-15.74 8l-3.38 3.58 2.26 4.07c2.07 3.7 9.85 10.9 13 12.02.7.25 1.05.7.78 1-.28.32-4.1-.82-8.5-2.52-6.53-2.5-9.12-4.2-14.08-9.16-3.34-3.35-7.4-8.34-9-11.1-2.5-4.25-2.92-6.02-2.9-12 .05-10.9 5.5-18.85 17.3-25.3l5.32-2.9-4.13-.67c-4.06-.66-4.4-.47-16.58 8.98-8.25 6.4-12.44 10.3-12.44 11.57 0 5.78-6.03 11.15-12.5 11.15-10.73 0-16.38-11.85-9.43-19.76 3.64-4.15 8.4-5.4 13.82-3.6 3.57 1.17 4.05 1.03 13.4-4.12 5.34-2.93 9.7-5.6 9.7-5.9 0-.32-3.25-1.05-7.24-1.63-6.94-1-7.36-.95-9.78 1.28-5.94 5.5-13.45 5.18-18.44-.75-6.62-7.88.86-20.2 11.27-18.5 3.6.58 8.76 4.66 9.7 7.66.4 1.24 2.74 1.97 9.27 2.9 4.8.7 9.86 1.47 11.24 1.73 2.17.4 1.9-.06-2-3.6-3.84-3.45-4.97-3.96-7.65-3.46-6.83 1.27-15.35-5.17-15.35-11.6 0-5.94 5.75-11 12.5-11 7.64 0 13 4.9 13 11.88 0 3.6.77 5.87 3.38 9.93 1.85 2.9 3.56 5.1 3.78 4.86.22-.22-.1-2.6-.7-5.3-3.32-14.64 5.58-29.1 20.88-33.93 6.6-2.07 19.07-1.54 27.16 1.17 10.42 3.48 24.8 15.1 29.83 24.06.94 1.67 1.2 1.6 3.27-1.04 4.97-6.34 12.7-6.77 18.42-1.05l3.28 3.3 8.85-7.05c10.63-8.45 18.2-15.6 23.53-22.26l3.96-4.92-2.32-1.3c-1.28-.7-3.45-1.3-4.82-1.33-3.83-.1-11.35-2.57-11.8-3.9-.56-1.7 1.86-5.1 13.1-18.38 6.15-7.26 10.67-11.75 11.82-11.75 1.03 0 3.62 1.58 5.75 3.5 4.14 3.74 8.04 4.5 10.13 2 3.16-3.8 11 .23 11 5.68 0 1.6-2.63 6.08-6.97 11.93-3.82 5.17-6.83 9.84-6.68 10.4.16.54 7.12 4.4 15.47 8.58 8.35 4.17 16.87 8.9 18.93 10.52 2.06 1.62 5 3.73 6.5 4.7 3.23 2.05 3.46 3.73.83 6.12-1.5 1.36-2.35 1.5-3.93.65-2.54-1.36-7.83-1.4-8.65-.08-.34.55-1.7 1-3.05 1-3.18 0-20.2-8.9-28.5-14.93l-6.55-4.74-7.7 7.26c-6.18 5.83-10.2 8.52-20.45 13.7-7 3.54-13.95 6.73-15.42 7.08-1.88.44-2.85 1.46-3.3 3.5-1.48 6.8-10.27 10.9-16.6 7.75-4.12-2.07-3.92-2.14-3.92 1.33 0 2.65.45 3.08 4.25 4.07 2.34.6 5.62 1.46 7.3 1.9 2.5.65 3.57.36 5.8-1.56 7.28-6.26 18.65.12 18.65 10.46 0 13.64-20.32 15.7-23.66 2.38-.46-1.83-2.28-3.2-7.1-5.4-3.55-1.6-6.53-2.8-6.6-2.62-.8 1.6-3.8 10.65-3.96 11.8-.13 1.1 2.03 1.92 8.5 3.2 31.8 6.25 43.16 31.3 19.1 42.1-11.63 5.22-24.93 5.7-34.78 1.3-4.66-2.1-13.32-9.1-12.4-10.03.23-.22 3.1.23 6.4 1 8.4 1.98 21.8 1.87 26.17-.2 3.9-1.85 6.82-5.62 6-7.73-.54-1.45-12.65-3.98-24.83-5.18l-6.65-.66-1.97 4.35c-1.08 2.4-3.32 5.64-4.97 7.2-2.86 2.67-3 3.12-2.5 9 .46 5.95.33 6.4-3.2 11.03-3.17 4.16-3.75 5.76-4.2 11.5-.5 6.95 1.22 15.16 3.36 15.88 1.8.6 3.3-6.2 3.97-18 .67-11.88 1.36-12.68 5.12-5.93 4.46 8.04 4.68 14.7 1.25 38.54-3.63 25.24-5.13 30.67-8.47 30.67-.63 0-4.36-3.26-8.27-7.25zm-.78-69.2c4.53-4.53 2.97-9.22-3.72-11.23-5.75-1.73-6.48-1.67-8.82.67-4.72 4.72-.57 13 6.5 13 2.48 0 4.35-.76 6.04-2.45zm7.53-23.47c4.97-4.97 3.07-12.9-3.6-15.1-6.6-2.17-12.5 2.1-12.44 9 .05 4.56 1.55 6.34 6.48 7.68 6.02 1.64 6.42 1.57 9.57-1.58zm45.93-4.6c0-5.97-12.8-15.58-22.72-17.06-4.8-.73-4.32.57-6.2-16.93-.6-5.5-1.66-12.47-2.36-15.5l-1.27-5.5-5.3 4.96c-6.52 6.1-7.02 7.02-9.3 17.03-2.5 11.04-2.5 11.02 2.68 13.52 5.1 2.47 8.64 6.65 10.45 12.3.94 2.94 1.6 3.68 2.88 3.17 7.1-2.84 20.3-.93 27.15 3.94 1.92 1.36 3.6 2.5 3.75 2.52.14.03.25-1.08.25-2.47zm-92.82-2.07c1.7-.88 6.93-1.9 11.64-2.25l8.56-.66.83-3.23c1.17-4.58 7.47-10.8 12.4-12.28l4.14-1.23-1.4-6.13c-2.98-12.9-7.6-18.93-17.74-23.15l-3.9-1.62.47 7.9c.3 5.43 1.17 9.35 2.75 12.62 1.26 2.6 2.12 4.85 1.92 5-.2.15-1.94.9-3.86 1.66-7.18 2.85-15.1 12.25-19.03 22.53-1.1 2.88-.84 2.94 3.2.85zm48.07-54.6l7-5.2-2.24-1.8c-3.38-2.73-12.2-4.95-18.27-4.6l-5.4.3 5.4 8.24c2.95 4.54 5.63 8.25 5.94 8.25.3 0 3.7-2.33 7.56-5.2zm97.3-52.3c2.08-3.03 3.48-5.8 3.12-6.17-1.04-1.03-5.18 1.24-9.7 5.3l-4.1 3.73 2.3 1.28c3.67 2.05 4.35 1.7 8.37-4.13zm-75.97 206.58c-1.5-1.67-1.64-3.27-1.05-12.75.95-14.9 2.9-24.47 6.2-30.55 5.83-10.76 26.96-28.52 42.68-35.88 11.3-5.3 25.18-5.94 35.6-1.67l3.5 1.43-7 2.3c-17.32 5.73-33.08 15.6-46.5 29.1-11.22 11.3-17.2 20.73-23.1 36.44-5.4 14.4-6.57 15.73-10.32 11.6zM203.88 265c0-3.22 17.03-26.95 25.68-35.78 15.3-15.64 37.6-24.22 59.96-23.05 6.67.35 9.4 1.03 14.83 3.7 7 3.46 17.78 12.77 20.83 18l1.8 3.1-3.8-.03c-2.1-.02-6.5-.7-9.8-1.5-11.67-2.8-32.1-1.26-45.84 3.47-3.2 1.12-14.9 7.15-26 13.4-18.6 10.53-35.9 19.67-37.14 19.67-.3 0-.52-.44-.52-.98zm63.47-122.26c-2.7-1.45-15.47-14.85-15.47-16.22 0-.6.7-2.1 1.55-3.33 2.42-3.45 8.7-3.03 15.5 1.03 6.57 3.92 8.17 7.87 5.65 13.9-1.86 4.46-4.45 6.1-7.23 4.6zm-6.8-24.43c-.37-.36-.67-1.84-.67-3.27 0-1.65-1.1-3.58-3-5.25-7.46-6.54.6-13.6 10.03-8.8 6.97 3.56 7.78 9.53 1.7 12.6-1.77.9-4.16 2.48-5.3 3.52-1.14 1.04-2.37 1.6-2.75 1.2z"/><path fill="#8e958d" d="M57.24 444.5c-20.8-4.57-40.34-19.57-49.44-37.98C-.22 390.3.47 406.36.1 227.97-.16 110.9.06 66.47.9 60.97 5.67 30.1 31.17 5.67 63.52 1 72.76-.33 286-.33 295.22 1c28.27 4.1 51.44 23.12 60.5 49.7l2.66 7.77.27 160.98c.3 181.78.77 169.95-7.4 186.47-3.86 7.83-6.12 10.9-13.26 18-9.85 9.77-16.42 13.96-28.86 18.42l-8.76 3.13-118.5.18c-96.06.15-119.66-.07-124.64-1.16zm246.14-4.8c25.4-7.4 45-27.67 49.45-51.23.83-4.36 1.06-50.26.84-168.5l-.3-162.5-2.22-6.5c-6.84-20-22.9-35.65-44-42.85l-7.77-2.65h-240l-8 2.8c-11.04 3.88-20.28 9.6-27.7 17.12-7.43 7.5-11.94 14.66-15.62 24.74l-2.68 7.33L5.1 220.9c-.28 182.4-.82 168.2 6.94 184.07 6.87 14.07 21.47 26.96 36.9 32.57 11.66 4.24 13.08 4.3 133.44 4.1 106.05-.2 115.46-.34 121-1.94zm-144.53-45.6c-31.6-20.26-67.5-31.92-104.15-33.82-6.43-.33-12.23-.94-12.9-1.36-4-2.47 4.9-7.45 20.75-11.6 8-2.08 12.36-2.6 23.4-2.7 10.56-.12 14 .18 15.35 1.3 1.68 1.38 1.67 1.5-.02 2.75-.98.72-4.38 1.3-7.55 1.3s-9.28.53-13.56 1.18l-7.8 1.18 8.78 1.28c28.14 4.13 60.62 15.44 79.64 27.75l7.07 4.58 8.4-5.48c10.97-7.14 34.58-18.64 46.35-22.56 5.12-1.7 15.23-4.2 22.47-5.54 7.23-1.34 13.3-2.57 13.47-2.74.17-.17-3.94-2-9.12-4.04-13.7-5.43-15.35-8.6-4.44-8.6 7.4 0 21.03 4.34 32.3 10.3 13.93 7.36 12.98 10.16-3.96 11.7-44.64 4.05-69.47 12.65-95.7 33.15-4.82 3.76-9.32 6.83-10 6.82-.7 0-4.65-2.2-8.8-4.84zm2.53-21.2c-16.55-11.08-29.2-16.24-43.16-17.6-3.4-.33-6.68-.92-7.3-1.3-.67-.42-2.4-11.46-4.14-26.62-3.74-32.34-3.22-30-6.62-29.95-4.25.06-3.44-2.38 2.22-6.67 10.18-7.74 17.87-9.05 37-6.28 19.2 2.8 26.75 2.15 53.78-4.55 20.47-5.07 25.86-5.57 37.72-3.53 16.13 2.8 23.87 5.87 22.65 9.02-.44 1.16-2.1 1.55-6.6 1.55-5.43 0-6.06.22-6.5 2.25-.26 1.24-2.1 13.28-4.05 26.75-1.97 13.48-3.83 25.92-4.13 27.65-.53 3-1 3.28-10.7 6.34-18.25 5.74-28.77 11.37-43.34 23.2-3.94 3.2-7.3 5.8-7.5 5.8-.17-.02-4.37-2.74-9.32-6.05zm9.44-6.68c-1.62-1.14-2.38-1.2-3.28-.3-1.7 1.74 2.1 4.5 4.03 2.9 1.1-.93.98-1.4-.75-2.6zm-9.03-4.65c.9-1.1.58-1.84-1.6-3.56-2.62-2.05-2.82-2.07-4.06-.37-1.13 1.55-1 2.04.96 3.55 2.78 2.13 3.22 2.17 4.7.4zm20.9-6.23l-3.2-2.37-2.88 2.75-2.87 2.75 2.63 2.25 2.62 2.26 3.46-2.64 3.45-2.63-3.2-2.36zM149.4 350c-2.22-2.46-3.3-2.53-5.7-.37-2.46 2.23-2.3 3.02.93 4.74 2.5 1.34 2.92 1.3 4.68-.43 1.9-1.85 1.9-1.95.1-3.93zm21.4 1.34c2.65-3.37 2.62-3.74-.53-5.43-2.44-1.3-2.77-1.2-5.12 1.54l-2.5 2.92 2.22 1.8c2.93 2.38 3.48 2.3 5.94-.82zm24.83-2.75c3.76-5 3.85-5.44 1.5-7.3-4.52-3.54-4.88-3.5-8.82 1.32l-3.77 4.62 3.42 2.84c1.9 1.56 3.65 2.84 3.93 2.83.27 0 1.96-1.93 3.75-4.3zm-57.75-3.14c2.3-2.45 2.32-2.53.43-4-4.36-3.43-5.05-3.5-7.5-.9l-2.35 2.5 2.96 2.42c3.7 3.02 3.64 3.02 6.48-.02zM160.4 338c-2.45-2.7-3.63-2.57-6.9.84l-2.75 2.87 2.8 2.1 2.83 2.06 2.94-2.9c2.88-2.85 2.9-2.95 1.1-4.95zm61.46 3.76l3.46-1.4-3.95-2.7c-2.18-1.48-4.25-2.7-4.6-2.7-1.35 0-5.97 7.07-5.32 8.13.8 1.28 5.45.7 10.4-1.34zm-39-4l3.46-4.02-2.4-1.94-2.4-1.94-4 4c-3.96 3.96-4 4.06-2.18 6.07 2.52 2.8 3.5 2.5 7.5-2.16zm-58.53-6.6l-2.7-2.3-2.3 2.16-2.3 2.17 2.67 2.3 2.68 2.32 2.32-2.16 2.32-2.17-2.7-2.33zm24.2 2.2l2.33-3.03-3.1-2.3-3.1-2.3-3.15 3.2-3.12 3.16 3 2.43c3.54 2.87 4.1 2.78 7.15-1.18zm59.6.16l2.74-3.32-3.35-2.56-3.36-2.55-3.4 3.5-3.38 3.53 3 2.4c3.8 3.1 4.4 3 7.74-1zm-35.88-10.4l-2.8-2.42-3.8 4.38-3.8 4.4 2.76 2.27 2.78 2.3 3.83-4.27 3.85-4.26-2.8-2.4zm54.97 3.35l.62-5-3.12 3.43-3.13 3.42 2.28 1.85c1.25 1.02 2.38 1.73 2.5 1.58.12-.15.5-2.53.84-5.28zm-31.85-7.68c-1.45-1.15-2.95-1.7-3.33-1.2-.38.48-1.8 2.14-3.16 3.7l-2.48 2.8 2.5 1.93 2.48 1.93 3.3-3.55 3.33-3.54-2.63-2.07zm-59.1 5.3l2.74-2.88-2.73-2.15-2.74-2.16-3.38 3.3-3.38 3.27 2.17 1.75c2.95 2.4 4.12 2.22 7.32-1.12zm25.15-9.1c-2.52-2.77-3.38-2.6-7.67 1.6l-3.7 3.6 2.66 2.34 2.68 2.33 3.94-3.9c3.87-3.84 3.9-3.95 2.1-5.96zm59.24 1.8c-.18-.54-1.52-1.7-2.96-2.58-2.53-1.53-2.72-1.48-5.2 1.33-3.26 3.72-3.24 4.57.13 6.67 2.7 1.7 2.8 1.68 5.55-1.34 1.55-1.7 2.66-3.52 2.48-4.07zm-93.8-4.77c-.03-.3-1.14-1.35-2.48-2.33-1.84-1.34-3.42-1.6-6.55-1.1-5.74.9-6.15 3-1.38 7l3.92 3.3 3.25-3.17c1.8-1.73 3.24-3.4 3.23-3.7zm56.87 3.86c1.9-2.42 2.1-3.27 1.12-4.46-1.8-2.16-4.5-1.8-7.67 1.03l-2.8 2.5 2.36 2c3.1 2.64 4.18 2.47 7-1.08zm-36.88-3.4c2.44-2.6 2.34-2.74-2.67-3.83-1.33-.3-2.82.22-3.8 1.3-1.5 1.67-1.47 1.9.66 3.4 2.95 2.07 3.07 2.05 5.8-.87zm59.43-1.16l2.9-3.64-2.4-1.86c-2.4-1.87-2.4-1.87-5.7 1.84l-3.28 3.72 2.3 1.76c1.25.97 2.5 1.78 2.78 1.8.27 0 1.8-1.62 3.4-3.62zm22.6-3.62c2.55-4.17 2.53-6.45-.07-7.27-2.16-.7-5.26 1.4-7.07 4.8-.75 1.4-.44 2.25 1.34 3.73 3.1 2.6 3.53 2.5 5.82-1.26zm-41.3-8.1c16.3-6.54 23.42-8.05 34.76-7.38 9.94.6 10.54.35 10.54-4.3 0-2.62-4.88-3.36-17.88-2.7-9.16.45-12.6 1.18-25.12 5.3-14.4 4.76-14.6 4.8-27.5 4.73-7.15-.04-18.38-.85-24.95-1.8-11.17-1.63-22.87-1.65-25.45-.06-.6.38-1.1 2.52-1.1 4.75 0 3.92.1 4.03 2.75 3.38 1.5-.37 7.92-.9 14.25-1.17 9.74-.4 13.33-.1 23.5 2.04 16.3 3.44 21.77 3.03 36.2-2.77zm27.8 1.35c.34-.55-.34-1-1.5-1-1.17 0-1.84.45-1.5 1 .34.55 1 1 1.5 1 .48 0 1.16-.45 1.5-1zm46.12-5.25c1.1-1.24 4.6-5.14 7.78-8.67 11.78-13.02 17.8-24.73 14.65-28.52-3.03-3.65-18-2.85-37.34 2-16 4-16.74 3.05-3.87-4.92 12.37-7.63 25.65-14.15 36.45-17.87 7.86-2.7 10.65-3.17 19.2-3.2 8.58-.05 10.7.28 14.85 2.33 5.74 2.83 8.65 7.08 8.62 12.6-.04 9.58-7.8 18.66-25.12 29.46-10.22 6.36-34.35 19.05-36.23 19.05-.53 0-.08-1 1-2.25zM77.48 277.77c-.88-2.36-2.43-7.88-3.44-12.25-2.18-9.42-.7-8.67-21.94-11-8.1-.9-15.28-1.83-15.97-2.06-2.3-.78-1.3-2.44 2.5-4.17 2.93-1.34 6.78-1.72 17.6-1.77l13.82-.06-.5-3c-.28-1.65-1.5-8.6-2.68-15.43-2.95-16.9-1.98-21.07 4.9-21.07 4.5 0 9.5 3.2 26.24 16.74 13.23 10.72 25.66 23.04 33.04 32.77 5.45 7.18 12.13 17.5 11.33 17.5-.8 0-40.1-30.52-45-34.93-5.8-5.24-10.66-8.74-13.28-9.53l-2.3-.7.3 10.2.28 10.2 7.5 2.2c8.68 2.55 18.66 7.42 21.4 10.46 1.9 2.1 1.9 2.1-1.64 2.1-3.16 0-20.5-3.17-25-4.58-1.57-.48-1.77.28-1.82 6.77-.1 14.57-2.4 19.53-5.34 11.62zm80.92-2.05c-3.34-3.44-13.2-14.48-21.9-24.55-8.7-10.06-21.76-24.68-29-32.5-23.66-25.52-30.95-34.76-28.56-36.24 1.5-.92 6.68 2.9 27.32 20.1 20.67 17.22 23.7 20.33 32.64 33.38 3.55 5.2 8.6 11.73 11.2 14.5 4.6 4.88 4.82 5 6.27 3.13 2.13-2.74 1.88-5.38-.84-8.96-5.92-7.78-7.08-14.57-4.16-24.2.82-2.7 1.5-4.9 1.5-4.9s-1.85-.1-4.1-.23c-9.08-.52-15.9-7.4-15.9-16.07 0-4.78 1.1-7.44 4.56-11.2 2.13-2.3 2.22-2.85 1.18-6.75-1.3-4.9-2.32-5.15-10.57-2.7-5.03 1.5-14.15 8.67-14.15 11.13 0 2.1 6.23 9.53 10.53 12.55 2.45 1.73 4.3 3.3 4.1 3.5-.7.68-11.3-3.76-15.84-6.65-5.15-3.27-12.1-11.48-14.9-17.58-2.45-5.34-2.46-15.64 0-21.02 2.34-5.17 10.87-12.84 16.78-15.1 3.77-1.43 4.27-1.9 2.73-2.5-5.24-2.05-7.7-1-20.07 8.66-9.83 7.68-12.3 10.12-12.88 12.72-1.45 6.6-5.34 9.75-12.04 9.75-4.9 0-8.85-2.32-10.77-6.36-2.14-4.53-2.04-7.42.4-11.44 2.93-4.8 7.93-6.64 14.07-5.17 4.8 1.14 4.9 1.1 14.34-4 5.25-2.82 9.75-5.5 10.03-5.95.28-.45-2.88-1.36-7-2.02l-7.5-1.2-3.52 3.06c-5.74 5.04-14.6 4-18.47-2.15-2.9-4.64-2.1-10.37 2-14.03 4.28-3.82 11.53-3.9 15.97-.16 1.7 1.42 3.08 3.2 3.08 3.94 0 .75.44 1.62.97 1.96 1.44.88 23.04 4.26 22.98 3.6-.03-.33-2.16-2.28-4.75-4.34-4.02-3.2-5.4-3.75-9.73-3.75-7.02 0-11.7-3.38-12.88-9.3-1.78-8.85 8.34-15.26 17.8-11.3 4.55 1.9 6.6 5.17 6.6 10.5 0 3.54.86 5.78 4.14 10.8 2.3 3.5 4.3 6.22 4.46 6.05.17-.17-.1-2.1-.6-4.28-4.5-19.4 4.92-34 24.2-37.56 17.18-3.16 38.97 6.47 50 22.1 3.57 5.08 4.37 5.74 4.95 4.16 1.24-3.33 5.87-6.17 10.06-6.17 4.76 0 9.45 2.27 10.3 5 .37 1.1 1.06 2 1.55 2 3.26 0 32.83-27.1 35.95-32.95 1-1.9.76-2.26-2.4-3.58-1.92-.8-4.5-1.47-5.72-1.47-4.3 0-8.85-2.3-8.85-4.46 0-1.13 4.7-7.66 10.66-14.78 9.62-11.5 11-12.75 13.9-12.75 2.44 0 3.98.86 6.3 3.5 3.54 4.03 4.9 4.27 8.4 1.5 3.25-2.55 5.8-2.53 9.1.07 4.47 3.52 3.48 6.5-6.78 20.47l-4.92 6.7 2.17 1.64c2.55 1.9 9.67 5.6 20.18 10.5 6.78 3.16 15.6 8.84 20.27 13.07 1.4 1.27 1.54 2.05.72 3.6-1.18 2.2-4.05 2.54-7.15.9-1.5-.8-2.84-.76-5.13.2-1.7.7-4.15 1.2-5.42 1.1-3.3-.3-16.57-7.15-26.03-13.48l-8.1-5.43-7.6 7.33c-6.5 6.26-9.56 8.3-20.84 13.8-7.27 3.54-14.33 6.58-15.7 6.74-1.9.24-2.6 1.07-3.16 3.8-.4 1.9-1.93 4.53-3.44 5.82-2.7 2.3-6.43 2.57-14.92 1.03-1.63-.3-2 .2-2 2.58 0 2.82.3 3.03 7.27 4.78l7.26 1.83 3.05-2.24c3.5-2.58 9.36-2.97 13.27-.87 2.94 1.56 5.66 6.63 5.66 10.52 0 12.87-19.4 15.97-23.08 3.7-1.07-3.58-1.8-4.22-7.6-6.68-3.5-1.5-6.53-2.56-6.7-2.35-.98 1.27-4.8 13.03-4.36 13.47.3.3 4.3 1.18 8.88 1.97 14.6 2.52 27.98 11.2 30.9 20.05 1.5 4.53.7 10.9-1.82 14.3-6.36 8.56-27.14 13.66-40.72 9.98-5-1.36-12.86-6.28-14.83-9.3l-1.5-2.27 5.17 1.46c2.83.8 9.43 1.5 14.66 1.58 10.83.15 14.98-1.47 18.3-7.15l1.87-3.2-2.8-1.08c-2.94-1.12-18.7-3.6-26.28-4.13-4.37-.33-4.42-.3-5.8 3.86-.8 2.32-3.06 5.68-5.1 7.52-3.48 3.13-3.64 3.54-2.77 7.02 1.15 4.66-.62 11.06-4 14.44-3.42 3.42-4.34 13.66-1.95 21.87 1.54 5.3 1.86 5.74 3.03 4.14 1.8-2.47 3.5-12.87 3.5-21.5 0-3.94.43-7.17.96-7.17 1.9 0 5.93 8.64 7.05 15.1 1.16 6.77 1.13 7.22-2.5 31.9-2.95 19.9-4.98 27-7.75 27-.65 0-3.92-2.8-7.25-6.25zm-1.48-70.3c4.58-4.87 1.88-10.78-5.43-11.88-5.4-.8-7.32-.06-9.2 3.58-1.96 3.8-.27 7.67 4.3 9.97 3.98 1.97 7.42 1.4 10.32-1.68zm7.33-23.32c6.06-6.32 1.35-16.13-7.75-16.13-3.32 0-8.33 4.37-9.1 7.96-.9 4 1.76 8.85 5.25 9.6 1.5.35 3.18.77 3.73.95 2.88.96 5.4.2 7.87-2.38zm45.63-4.65c0-5.48-15.38-17.44-22.5-17.5-3.53-.02-4.25-1.33-4.94-8.98-.85-9.25-3.53-24.98-4.6-27-.64-1.16-2.2-.07-7.23 5-6.25 6.35-6.44 6.7-8.14 15-.95 4.68-1.96 9.3-2.23 10.25-.34 1.24.34 2.05 2.33 2.77 1.55.55 3.9 1.57 5.24 2.24 2.94 1.5 8.08 9.3 8.08 12.26 0 2.08.3 2.13 10.25 1.7 10.18-.43 10.3-.4 16.75 3.07 3.57 1.93 6.6 3.55 6.75 3.6.14.06.25-1.03.25-2.42zm-90.5-2.65c1.65-.53 6.5-1 10.75-1.03 6.94-.06 7.75-.26 7.75-1.97 0-3.07 3.72-9.5 6.73-11.6 1.53-1.08 4.5-2.5 6.6-3.2 3.56-1.15 3.76-1.42 3.17-4.38-1.65-8.28-4.78-15.64-8.1-19.06-3.62-3.72-13.13-9.18-14.18-8.14-.33.33-.57 3.45-.53 6.96.04 4.56.76 7.9 2.55 11.8l2.5 5.44-4.35 2.3c-7.6 4.04-16.3 14.6-18.88 22.95-.65 2.07-.5 2.3 1.1 1.65 1.04-.42 3.23-1.2 4.88-1.72zm49.38-56.7l3.4-2.8-3.02-2.14c-5.16-3.67-18.8-6.42-21.9-4.42-.78.5.67 3.55 4.45 9.4l5.6 8.65 4.04-2.95c2.22-1.6 5.56-4.2 7.42-5.74zm94.08-50.07c6.12-9.02 2.76-9.08-7.62-.14-4.06 3.5-4.1 3.6-2 4.8 3.9 2.18 5.48 1.42 9.62-4.67zm-76.4 207c-1.6-1.76-1.65-3.07-.64-15.93 1.76-22.47 4.83-29.23 19.35-42.68 8.04-7.44 23.73-18.24 31.04-21.37 10.16-4.35 24.47-4.65 34.02-.7l3.16 1.3-5.77 1.7c-21.05 6.18-45.73 23.6-58.2 41.12-5.06 7.1-10.54 17.82-13.02 25.5-2.47 7.65-5.3 13-6.87 13-.72 0-2.1-.87-3.06-1.93zm17.44-9.78c0-1.23 7.02-12.3 12.86-20.28 16.12-22 32.74-33.43 54.64-37.53 13.85-2.6 23.5-1.76 32.83 2.85 7.32 3.6 15.82 10.85 20.57 17.52l2.24 3.15h-3.1c-1.72 0-6.35-.73-10.28-1.63-9.64-2.2-28-1.46-39.74 1.6-9.2 2.37-14.45 4.94-43.5 21.27-19.3 10.85-26.5 14.4-26.5 13.05zm55.94-129.53c-5.07-5.3-6.93-7.98-6.93-9.96-.03-5.36 6.14-6.24 14.6-2.1 6.6 3.24 7.75 5.07 7.14 11.42-1 10.44-5.28 10.62-14.82.64zm1.06-20.18c0-1.5-1.13-3.32-2.93-4.75-3.7-2.94-4.82-6.94-2.57-9.18 2.16-2.17 9.1-2.03 13 .25 2.45 1.43 3.05 2.5 3.3 5.9.3 3.84.08 4.22-3 5.5-1.8.77-3.92 2.14-4.67 3.05-1.94 2.34-3.12 2.05-3.12-.78z"/><path fill="#a55357" d="M57.24 444.5c-20.8-4.57-40.34-19.57-49.44-37.98C-.22 390.3.47 406.36.1 227.97-.16 110.9.06 66.47.9 60.97 5.67 30.1 31.17 5.67 63.52 1 72.76-.33 286-.33 295.22 1c28.27 4.1 51.44 23.12 60.5 49.7l2.66 7.77.27 160.98c.3 181.78.77 169.95-7.4 186.47-3.86 7.83-6.12 10.9-13.26 18-9.85 9.77-16.42 13.96-28.86 18.42l-8.76 3.13-118.5.18c-96.06.15-119.66-.07-124.64-1.16zm246.14-4.8c25.4-7.4 45-27.67 49.45-51.23.83-4.36 1.06-50.26.84-168.5l-.3-162.5-2.22-6.5c-6.84-20-22.9-35.65-44-42.85l-7.77-2.65h-240l-8 2.8c-11.04 3.88-20.28 9.6-27.7 17.12-7.43 7.5-11.94 14.66-15.62 24.74l-2.68 7.33L5.1 220.9c-.28 182.4-.82 168.2 6.94 184.07 6.87 14.07 21.47 26.96 36.9 32.57 11.66 4.24 13.08 4.3 133.44 4.1 106.05-.2 115.46-.34 121-1.94zm-145.5-46.35c-10.3-6.77-33.38-18.15-45.04-22.2-20.9-7.27-41.1-10.73-70.7-12.12-2.14-.1-1.4-2.74 1.26-4.48 3.6-2.36 18.74-7.13 27.03-8.5 8.46-1.43 24.86-1.88 28.7-.8 1.5.4 2.75 1.33 2.75 2.03 0 .9-3.87 1.63-13.16 2.52-15.35 1.46-18.74 2.6-10.76 3.64 27.9 3.6 64.27 16.1 84.48 29.03l5.55 3.55 7.68-5.08c9.75-6.44 33-17.86 44.6-21.9 9.28-3.25 31.08-8.07 36.47-8.07 1.72 0 3.12-.34 3.12-.75 0-.4-4.55-2.55-10.1-4.75-10.05-3.98-12.44-5.85-9.8-7.64 2-1.34 12.27-.14 19.9 2.32 10.58 3.4 24.7 10.37 26 12.82 1.7 3.18.34 4.04-8.13 5.05-4.05.5-13.44 1.62-20.86 2.52-32.3 3.9-57.2 13.82-79.9 31.85-4.56 3.6-8.8 6.56-9.44 6.55-.64 0-5-2.53-9.66-5.6zm7.5-18c-18.04-12.64-30.7-18.2-46.74-20.5l-8.44-1.23-1.16-10.08c-.64-5.54-2.13-18.3-3.32-28.36l-2.16-18.3-2.75.6c-3.76.83-4.63-1.12-1.82-4.12 3.13-3.32 14.94-9.12 20.2-9.9 2.36-.36 7.86-.15 12.24.46 27.32 3.8 32.82 3.5 61.78-3.53 18.42-4.5 19.6-4.65 30.18-4.14 11.6.55 26.28 4.07 29.2 7 2.68 2.66.54 3.9-6.06 3.55l-6.14-.33-4.47 30.2-4.45 30.17-4.54 1.14c-8.35 2.1-25.4 8.98-32 12.92-3.58 2.15-10.45 7.1-15.24 11-4.8 3.88-8.85 7.05-9 7.02-.16-.03-2.53-1.64-5.28-3.56zm5.9-9.08c-2.2-1.6-3.08-1.63-4-.15-1.13 1.83 2.6 4.1 4.36 2.64 1.2-1 1.16-1.37-.36-2.5zm-9.5-4.7c.93-1.1.6-1.84-1.54-3.53-2.5-1.96-2.85-2-4.3-.54-1.42 1.46-1.35 1.77.8 3.54 2.8 2.3 3.52 2.38 5.05.53zm20.76-1.16l3.35-2.54-3.1-2.6-3.08-2.6-3.1 3.1-3.1 3.1 2.43 2.02c3.04 2.53 2.62 2.56 6.6-.47zm-33.1-10.57c-3.08-2.4-3.75-2.35-6.55.62l-2.34 2.5 3.4 1.43c3.17 1.33 3.58 1.3 5.63-.62l2.2-2.06-2.37-1.87zm21.12 1.97c2.95-2.77 2.92-4.2-.1-6.2-2.35-1.52-2.55-1.46-5.05 1.52-2.47 2.94-2.5 3.2-.9 4.98 2.18 2.4 3.23 2.36 6.06-.3zm25.57-3.62l3.75-4.7-2.25-1.78c-5.04-4-5.3-3.97-9.32.92l-3.77 4.62 3.42 2.84c1.9 1.56 3.65 2.83 3.93 2.82.27-.02 2.2-2.14 4.25-4.72zm-58.3-2.65l2.3-2.45-2.88-2.52c-1.58-1.4-3.13-2.54-3.45-2.56-.3 0-1.66 1.14-3 2.56l-2.42 2.6 3 2.4c3.7 2.96 3.64 2.96 6.44-.03zm22.22-8.1l-2.67-2.32-3.3 3.2-3.3 3.17 2.77 2.22 2.8 2.22 3.18-3.1 3.2-3.08-2.68-2.32zm64.12 3.56c.82-.74-5.42-6.03-7.1-6.03-.53 0-2.2 1.64-3.74 3.65-2.58 3.4-2.65 3.73-1.04 4.9 1.4 1.05 2.6 1 6.4-.27 2.57-.85 5.04-1.87 5.47-2.26zm-106.3 2.53c0-.24-.44-.72-1-1.06-.54-.34-1-.14-1 .44 0 .6.46 1.07 1 1.07.56 0 1-.2 1-.44zm66.28-11.9l-2.43-1.92-4.42 4.35-4.43 4.34 2.76 2.2 2.75 2.2 4.1-4.63 4.1-4.64-2.43-1.9zm-57.3 1.42c-.02-.32-1.18-1.4-2.58-2.43-2.5-1.83-2.58-1.82-5 .44l-2.44 2.3 2.78 2.23 2.78 2.2 2.25-2.08c1.24-1.15 2.23-2.36 2.22-2.67zm80.78-5.34l-3.2-2.75-3.53 3.58-3.52 3.58 3.48 2.96 3.5 2.95 3.23-3.76 3.23-3.77-3.2-2.76zm-59.04 5.57l2.38-3.1-3.15-2.23-3.14-2.24-3.17 3.2-3.15 3.2 3 2.43c3.55 2.88 4.1 2.78 7.2-1.26zm26.25-8.18c-.02-.35-1.23-1.5-2.68-2.56l-2.65-1.93-3.84 4.44-3.84 4.43 2.73 2.4 2.74 2.38 3.8-4.27c2.07-2.35 3.76-4.55 3.75-4.9zm52.4 3.75c.35-1.72.6-4.08.6-5.25-.03-1.9-.34-1.8-3.07 1.22-2.9 3.2-2.96 3.43-1.32 5.25 2.38 2.62 3.07 2.4 3.8-1.22zm-90.95-9.7l-2.7-2.3-3.4 3.3-3.43 3.32 2.78 2.22 2.8 2.22 3.32-3.23 3.32-3.23-2.7-2.32zm59.23-.23c-1.36-1.07-2.68-1.95-2.94-1.95-.27 0-1.74 1.65-3.27 3.66l-2.8 3.65 2.4 1.94 2.4 1.93 3.33-3.64 3.35-3.64-2.47-1.94zm-35.38 1.57l3.78-4.3-3.12-1.98-3.1-1.97-3.85 4.1-3.85 4.12 2.7 2.22c1.47 1.2 2.9 2.17 3.18 2.14.27-.03 2.2-2 4.27-4.35zm57.92.78c3.53-3.37 3.52-4.4-.07-7.06l-2.88-2.13-3.05 3.8-3.05 3.78 2.68 2.1c3.4 2.64 3.07 2.67 6.37-.5zm-33.58-10.42c-1.82-1.47-2.45-1.5-4.68-.36-1.42.74-3.22 2.1-4 3.02-1.22 1.5-1.04 1.96 1.53 4l2.92 2.34 3.15-3.66 3.16-3.65-2.1-1.7zm-59.62-.9c-2.56-2-5.6-2.32-10-1.1-3.62 1-3.08 3.57 1.5 7l4 3.02 3.5-3.5 3.5-3.5-2.5-1.93zm22.36 2.15l2.74-2.85-3.75-.6c-2.73-.45-4.25-.17-5.56 1-1.7 1.54-1.7 1.77-.15 3.48 2.28 2.5 3.52 2.32 6.72-1.02zm59.04-.76l2.9-3.64-2.4-1.85c-2.4-1.86-2.4-1.85-5.8 1.77l-3.38 3.63 2.4 1.84c1.3 1 2.6 1.84 2.88 1.85.27 0 1.8-1.6 3.4-3.6zm22.53-3c1.15-1.45 2.08-3.93 2.08-5.5 0-2.33-.44-2.87-2.32-2.87-2.14 0-7.68 4.6-7.68 6.4 0 .87 4.12 4.52 5.18 4.57.37.02 1.6-1.15 2.75-2.6zm-40.66-8.64c15.9-6.32 25-8.1 35.67-6.97 8.88.94 8.8.97 9.3-4.26l.28-3-8-.67c-11.22-.94-20.38.45-35.2 5.33-15.22 5-26.1 5.9-45.06 3.7-13.86-1.6-32.7-1.8-34.17-.33-.57.57-.75 2.7-.4 4.84.6 3.74.7 3.8 4.22 3.25 12.26-1.9 22.7-1.68 34.1.77 17.3 3.7 24.43 3.23 39.27-2.67zm27.74.77c1.05-1.27.84-1.5-1.38-1.5-2.53 0-3.33.96-1.96 2.33 1.04 1.04 1.98.8 3.34-.83zm48.5-7.77c10-11.3 16.93-20.47 19.25-25.52 2.28-4.95 2.33-5.44.83-7.73-.9-1.35-2.78-2.74-4.22-3.1-4.9-1.23-20.85.5-32.83 3.54-6.6 1.68-12.33 2.66-12.8 2.2-1.1-1.12 12.7-9.68 26.78-16.6 19.6-9.66 36.94-13.08 48.82-9.63 16.4 4.77 14.94 22.25-3 35.72-10.2 7.64-31.12 19.5-43.64 24.73l-3.83 1.6 4.64-5.23zM77 275.22c-1.08-3.7-2.52-9.33-3.2-12.48-.78-3.63-1.82-5.9-2.83-6.18-1.55-.44-11.58-1.73-27.42-3.53-8.36-.95-10-1.6-7.64-3.1 3.83-2.47 10.26-3.45 22.04-3.4l12.57.08-2.26-12.56c-2.75-15.2-3-23.3-.8-25.5 3.84-3.83 9.7-1.2 26.26 11.7 12.97 10.12 26.2 22.6 33.46 31.5 5.84 7.2 14.72 20.1 14.72 21.4 0 .97-28.72-21.1-43.2-33.22-5.9-4.93-11.88-9.48-13.3-10.13-4.12-1.88-4.73-.27-3.95 10.38l.7 9.48 5.12 1.27c11.7 2.9 26.4 10.58 24.32 12.67-.44.45-6.97-.42-14.5-1.93-7.53-1.5-14.03-2.73-14.44-2.72-.4 0-.75 4.48-.75 9.94 0 15.1-1.7 17.3-4.88 6.32zm80.92 0c-3.05-3.16-12.56-13.85-21.14-23.75-8.57-9.9-22.24-25.2-30.38-34-16.1-17.4-27.52-31.2-27.52-33.22 0-3.67 5.5.02 28.05 18.8 19.15 15.94 21.1 17.94 31.45 32.42 11.14 15.56 15.75 20.37 17.86 18.62 2.88-2.4 2.92-6.12.1-8.95-6.6-6.58-7.7-14.5-3.94-27.68.5-1.75.05-2.03-3.6-2.23-9.1-.52-15.92-7.4-15.92-16.07 0-4.78 1.08-7.44 4.55-11.2 2.13-2.3 2.22-2.85 1.18-6.75-1.3-4.9-2.32-5.15-10.57-2.7-5.03 1.5-14.15 8.67-14.15 11.13 0 2.1 6.23 9.53 10.53 12.55 2.45 1.73 4.3 3.3 4.1 3.5-.7.68-11.3-3.76-15.84-6.65-5.15-3.27-12.1-11.48-14.9-17.58-2.45-5.34-2.46-15.64 0-21.02 2.34-5.17 10.87-12.84 16.78-15.1 3.77-1.43 4.27-1.9 2.73-2.5-5.24-2.05-7.7-1-20.07 8.66-9.83 7.68-12.3 10.12-12.88 12.72-1.45 6.6-5.34 9.75-12.04 9.75-4.9 0-8.85-2.32-10.77-6.36-2.14-4.53-2.04-7.42.4-11.44 2.93-4.8 7.93-6.64 14.07-5.17 4.8 1.14 4.9 1.1 14.34-4 5.25-2.82 9.75-5.5 10.03-5.95.28-.45-2.88-1.36-7-2.02l-7.5-1.2-3.52 3.06c-5.74 5.04-14.6 4-18.47-2.15-2.9-4.64-2.1-10.37 2-14.03 4.28-3.82 11.53-3.9 15.97-.16 1.7 1.42 3.08 3.2 3.08 3.94 0 .74.44 1.62.97 1.96 1.44.88 23.04 4.26 22.98 3.6-.03-.33-2.16-2.28-4.75-4.34-4.02-3.2-5.4-3.75-9.73-3.75-7.02 0-11.7-3.38-12.88-9.3-1.78-8.85 8.34-15.26 17.8-11.3 4.55 1.9 6.6 5.17 6.6 10.5 0 3.54.86 5.78 4.14 10.8 2.3 3.5 4.3 6.22 4.46 6.05.17-.17-.1-2.1-.6-4.28-4.5-19.4 4.92-34 24.2-37.56 17.18-3.16 38.97 6.47 50 22.1 3.57 5.08 4.37 5.74 4.95 4.16 1.24-3.33 5.87-6.17 10.06-6.17 4.76 0 9.45 2.27 10.3 5 .37 1.1 1.06 2 1.55 2 3.26 0 32.83-27.1 35.95-32.95 1-1.9.76-2.26-2.4-3.58-1.92-.8-4.5-1.47-5.72-1.47-4.3 0-8.85-2.3-8.85-4.46 0-1.13 4.7-7.66 10.66-14.78 9.62-11.5 11-12.75 13.9-12.75 2.44 0 3.98.86 6.3 3.5 3.54 4.03 4.9 4.27 8.4 1.5 3.25-2.55 5.8-2.53 9.1.07 4.47 3.52 3.48 6.5-6.78 20.47l-4.92 6.7 2.17 1.64c2.55 1.9 9.67 5.6 20.18 10.5 6.78 3.16 15.6 8.84 20.27 13.07 1.4 1.27 1.54 2.05.72 3.6-1.18 2.18-4.05 2.54-7.15.9-1.5-.8-2.84-.76-5.13.2-1.7.7-4.15 1.2-5.42 1.1-3.3-.3-16.57-7.15-26.03-13.48l-8.1-5.43-7.6 7.33c-6.5 6.26-9.56 8.3-20.84 13.8-7.27 3.54-14.33 6.58-15.7 6.74-1.9.24-2.6 1.07-3.16 3.8-.4 1.9-1.93 4.53-3.44 5.82-2.7 2.3-6.43 2.57-14.92 1.03-1.63-.3-2 .2-2 2.58 0 2.82.3 3.03 7.27 4.78l7.26 1.83 3.05-2.24c3.5-2.58 9.36-2.97 13.27-.87 2.94 1.56 5.66 6.63 5.66 10.52 0 12.87-19.4 15.97-23.08 3.7-1.07-3.58-1.8-4.22-7.6-6.68-3.5-1.5-6.53-2.56-6.7-2.35-.98 1.27-4.8 13.03-4.36 13.47.3.3 4.3 1.18 8.88 1.97 14.6 2.52 27.98 11.2 30.9 20.05 1.5 4.53.7 10.9-1.82 14.3-6.36 8.56-27.14 13.66-40.72 9.98-5-1.36-12.86-6.28-14.83-9.3l-1.5-2.27 5.17 1.46c2.83.8 9.43 1.5 14.66 1.58 10.83.15 14.98-1.47 18.3-7.15l1.87-3.2-2.8-1.08c-2.94-1.12-18.7-3.6-26.28-4.13-4.37-.33-4.42-.3-5.8 3.86-.8 2.32-3.06 5.68-5.1 7.52-3.48 3.13-3.64 3.54-2.77 7.02 1.18 4.78-.65 11.1-4.25 14.64-2.53 2.5-2.67 3.14-2.65 12.13.02 10.6 1.54 16.02 3.94 14.03 1.7-1.42 3.2-8.57 4.1-19.77.35-4.54 1.05-8 1.56-7.7 2.48 1.55 5.12 9.27 5.6 16.4.56 8.06-3.43 39.54-6.3 49.8-2 7.1-4.12 7-11.38-.5zm-1-69.8c4.58-4.87 1.88-10.78-5.43-11.88-5.4-.8-7.32-.06-9.2 3.58-1.96 3.8-.27 7.67 4.3 9.97 3.98 1.97 7.42 1.4 10.32-1.68zm7.33-23.32c6.06-6.32 1.35-16.13-7.75-16.13-3.32 0-8.33 4.37-9.1 7.96-.9 4 1.76 8.85 5.25 9.6 1.5.35 3.18.77 3.73.95 2.88.96 5.4.2 7.87-2.38zm45.63-4.65c0-5.48-15.38-17.44-22.5-17.5-3.53-.02-4.25-1.33-4.94-8.98-.85-9.25-3.53-24.98-4.6-27-.64-1.16-2.2-.07-7.23 5-6.25 6.35-6.44 6.7-8.14 15-.95 4.68-1.96 9.3-2.23 10.25-.34 1.24.34 2.05 2.33 2.77 1.55.55 3.9 1.57 5.24 2.24 2.94 1.5 8.08 9.3 8.08 12.26 0 2.08.3 2.13 10.25 1.7 10.18-.43 10.3-.4 16.75 3.07 3.57 1.93 6.6 3.55 6.75 3.6.14.06.25-1.03.25-2.42zm-90.5-2.65c1.65-.53 6.5-1 10.75-1.03 6.94-.06 7.75-.26 7.75-1.97 0-3.07 3.72-9.5 6.73-11.6 1.53-1.08 4.5-2.5 6.6-3.2 3.56-1.15 3.76-1.42 3.17-4.38-1.65-8.28-4.78-15.64-8.1-19.06-3.62-3.72-13.13-9.18-14.18-8.14-.33.33-.57 3.45-.53 6.95.04 4.57.76 7.9 2.55 11.8l2.5 5.45-4.35 2.3c-7.6 4.04-16.3 14.6-18.88 22.95-.65 2.07-.5 2.3 1.1 1.65 1.04-.42 3.23-1.2 4.88-1.72zm49.38-56.7l3.4-2.8-3.02-2.14c-5.16-3.67-18.8-6.42-21.9-4.42-.78.5.67 3.55 4.45 9.4l5.6 8.65 4.04-2.95c2.22-1.6 5.56-4.2 7.42-5.74zm94.08-50.07c6.12-9.02 2.76-9.08-7.62-.14-4.06 3.5-4.1 3.6-2 4.8 3.9 2.18 5.48 1.42 9.62-4.67zm-76 207.4c-.96-1.16-1.1-4.6-.6-14.25.82-15.47 1.88-21.1 5.27-28.05 7.02-14.37 35.54-36.3 52.26-40.17 6.13-1.43 19.73-.84 25 1.07l3.4 1.23-7.4 2.7c-16.9 6.2-29.86 14.15-42.18 25.92-13.73 13.1-20.86 23.92-26.6 40.38-1.7 4.83-3.55 9.67-4.12 10.75-1.26 2.36-3.27 2.53-5 .43zm19.44-14.7c5.2-8.78 15.23-22.24 21.87-29.35 14.1-15.1 28.95-22.2 51.15-24.5 10.87-1.13 17.7-.07 26.1 4.04 7.94 3.9 22.14 17.73 20.2 19.68-.32.3-4.55-.27-9.4-1.28-15.95-3.34-37.28-1.65-51.26 4.06-3.06 1.25-13.95 7.04-24.2 12.87-19.84 11.27-34.12 18.72-35.9 18.72-.6 0 .06-1.9 1.44-4.25zm53.54-125c-5.07-5.32-6.93-8-6.93-9.97-.03-5.36 6.14-6.24 14.6-2.1 6.6 3.24 7.75 5.07 7.14 11.42-1 10.44-5.28 10.62-14.82.64zm1.06-20.2c0-1.48-1.13-3.3-2.93-4.74-3.7-2.94-4.82-6.94-2.57-9.18 2.16-2.17 9.1-2.03 13 .25 2.45 1.43 3.05 2.5 3.3 5.9.3 3.84.08 4.22-3 5.5-1.8.77-3.92 2.14-4.67 3.05-1.94 2.34-3.12 2.05-3.12-.78z"/><path fill="#6e716d" d="M57.24 444.5c-20.8-4.57-40.34-19.57-49.44-37.98C-.22 390.3.47 406.36.1 227.97-.16 110.9.06 66.47.9 60.97 5.67 30.1 31.17 5.67 63.52 1 72.76-.33 286-.33 295.22 1c28.27 4.1 51.44 23.12 60.5 49.7l2.66 7.77.27 160.98c.3 181.78.77 169.95-7.4 186.47-3.86 7.83-6.12 10.9-13.26 18-9.85 9.77-16.42 13.96-28.86 18.42l-8.76 3.13-118.5.18c-96.06.15-119.66-.07-124.64-1.16zm246.14-4.8c25.4-7.4 45-27.67 49.45-51.23.83-4.36 1.06-50.26.84-168.5l-.3-162.5-2.22-6.5c-6.84-20-22.9-35.65-44-42.85l-7.77-2.65h-240l-8 2.8c-11.04 3.88-20.28 9.6-27.7 17.12-7.43 7.5-11.94 14.66-15.62 24.74l-2.68 7.33L5.1 220.9c-.28 182.4-.82 168.2 6.94 184.07 6.87 14.07 21.47 26.96 36.9 32.57 11.66 4.24 13.08 4.3 133.44 4.1 106.05-.2 115.46-.34 121-1.94zm-145.5-46.35c-10.3-6.77-33.38-18.15-45.04-22.2-20.9-7.27-41.1-10.73-70.7-12.12-2.14-.1-1.4-2.74 1.26-4.48 3.6-2.36 18.74-7.13 27.03-8.5 8.46-1.43 24.86-1.88 28.7-.8 1.5.4 2.75 1.33 2.75 2.03 0 .9-3.87 1.63-13.16 2.52-15.35 1.46-18.74 2.6-10.76 3.64 27.9 3.6 64.27 16.1 84.48 29.03l5.55 3.55 7.68-5.08c9.75-6.44 33-17.86 44.6-21.9 9.28-3.25 31.08-8.07 36.47-8.07 1.72 0 3.12-.34 3.12-.75 0-.4-4.55-2.55-10.1-4.75-10.05-3.98-12.44-5.85-9.8-7.64 2-1.34 12.27-.14 19.9 2.32 10.58 3.4 24.7 10.37 26 12.82 1.7 3.18.34 4.04-8.13 5.05-4.05.5-13.44 1.62-20.86 2.52-32.3 3.9-57.2 13.82-79.9 31.85-4.56 3.6-8.8 6.56-9.44 6.55-.64 0-5-2.53-9.66-5.6zm7.5-18c-18.04-12.64-30.7-18.2-46.74-20.5l-8.44-1.23-1.16-10.08c-.64-5.54-2.13-18.3-3.32-28.36l-2.16-18.3-2.75.6c-3.76.83-4.63-1.12-1.82-4.12 3.13-3.32 14.94-9.12 20.2-9.9 2.36-.36 7.86-.15 12.24.46 27.32 3.8 32.82 3.5 61.78-3.53 18.42-4.5 19.6-4.65 30.18-4.14 11.6.55 26.28 4.07 29.2 7 2.68 2.66.54 3.9-6.06 3.55l-6.14-.33-4.47 30.2-4.45 30.17-4.54 1.14c-8.35 2.1-25.4 8.98-32 12.92-3.58 2.15-10.45 7.1-15.24 11-4.8 3.88-8.85 7.05-9 7.02-.16-.03-2.53-1.64-5.28-3.56zm5.9-9.08c-2.2-1.6-3.08-1.63-4-.15-1.13 1.83 2.6 4.1 4.36 2.64 1.2-1 1.16-1.37-.36-2.5zm-9.5-4.7c.93-1.1.6-1.84-1.54-3.53-2.5-1.96-2.85-2-4.3-.54-1.42 1.46-1.35 1.77.8 3.54 2.8 2.3 3.52 2.38 5.05.53zm20.76-1.16l3.35-2.54-3.1-2.6-3.08-2.6-3.1 3.1-3.1 3.1 2.43 2.02c3.04 2.53 2.62 2.56 6.6-.47zm-33.1-10.57c-3.08-2.4-3.75-2.35-6.55.62l-2.34 2.5 3.4 1.43c3.17 1.33 3.58 1.3 5.63-.62l2.2-2.06-2.37-1.87zm21.12 1.97c2.95-2.77 2.92-4.2-.1-6.2-2.35-1.52-2.55-1.46-5.05 1.52-2.47 2.94-2.5 3.2-.9 4.98 2.18 2.4 3.23 2.36 6.06-.3zm25.57-3.62l3.75-4.7-2.25-1.78c-5.04-4-5.3-3.97-9.32.92l-3.77 4.62 3.42 2.84c1.9 1.56 3.65 2.83 3.93 2.82.27-.02 2.2-2.14 4.25-4.72zm-58.3-2.65l2.3-2.45-2.88-2.52c-1.58-1.4-3.13-2.54-3.45-2.56-.3 0-1.66 1.14-3 2.56l-2.42 2.6 3 2.4c3.7 2.96 3.64 2.96 6.44-.03zm22.22-8.1l-2.67-2.32-3.3 3.2-3.3 3.17 2.77 2.22 2.8 2.22 3.18-3.1 3.2-3.08-2.68-2.32zm64.12 3.56c.82-.74-5.42-6.03-7.1-6.03-.53 0-2.2 1.64-3.74 3.65-2.58 3.4-2.65 3.73-1.04 4.9 1.4 1.05 2.6 1 6.4-.27 2.57-.85 5.04-1.87 5.47-2.26zm-106.3 2.53c0-.24-.44-.72-1-1.06-.54-.34-1-.14-1 .44 0 .6.46 1.07 1 1.07.56 0 1-.2 1-.44zm66.28-11.9l-2.43-1.92-4.42 4.35-4.43 4.34 2.76 2.2 2.75 2.2 4.1-4.63 4.1-4.64-2.43-1.9zm-57.3 1.42c-.02-.32-1.18-1.4-2.58-2.43-2.5-1.83-2.58-1.82-5 .44l-2.44 2.3 2.78 2.23 2.78 2.2 2.25-2.08c1.24-1.15 2.23-2.36 2.22-2.67zm80.78-5.34l-3.2-2.75-3.53 3.58-3.52 3.58 3.48 2.96 3.5 2.95 3.23-3.76 3.23-3.77-3.2-2.76zm-59.04 5.57l2.38-3.1-3.15-2.23-3.14-2.24-3.17 3.2-3.15 3.2 3 2.43c3.55 2.88 4.1 2.78 7.2-1.26zm26.25-8.18c-.02-.35-1.23-1.5-2.68-2.56l-2.65-1.93-3.84 4.44-3.84 4.43 2.73 2.4 2.74 2.38 3.8-4.27c2.07-2.35 3.76-4.55 3.75-4.9zm52.4 3.75c.35-1.72.6-4.08.6-5.25-.03-1.9-.34-1.8-3.07 1.22-2.9 3.2-2.96 3.43-1.32 5.25 2.38 2.62 3.07 2.4 3.8-1.22zm-90.95-9.7l-2.7-2.3-3.4 3.3-3.43 3.32 2.78 2.22 2.8 2.22 3.32-3.23 3.32-3.23-2.7-2.32zm59.23-.23c-1.36-1.07-2.68-1.95-2.94-1.95-.27 0-1.74 1.65-3.27 3.66l-2.8 3.65 2.4 1.94 2.4 1.93 3.33-3.64 3.35-3.64-2.47-1.94zm-35.38 1.57l3.78-4.3-3.12-1.98-3.1-1.97-3.85 4.1-3.85 4.12 2.7 2.22c1.47 1.2 2.9 2.17 3.18 2.14.27-.03 2.2-2 4.27-4.35zm57.92.78c3.53-3.37 3.52-4.4-.07-7.06l-2.88-2.13-3.05 3.8-3.05 3.78 2.68 2.1c3.4 2.64 3.07 2.67 6.37-.5zm-33.58-10.42c-1.82-1.47-2.45-1.5-4.68-.36-1.42.74-3.22 2.1-4 3.02-1.22 1.5-1.04 1.96 1.53 4l2.92 2.34 3.15-3.66 3.16-3.65-2.1-1.7zm-59.62-.9c-2.56-2-5.6-2.32-10-1.1-3.62 1-3.08 3.57 1.5 7l4 3.02 3.5-3.5 3.5-3.5-2.5-1.93zm22.36 2.15l2.74-2.85-3.75-.6c-2.73-.45-4.25-.17-5.56 1-1.7 1.54-1.7 1.77-.15 3.48 2.28 2.5 3.52 2.32 6.72-1.02zm59.04-.76l2.9-3.64-2.4-1.85c-2.4-1.86-2.4-1.85-5.8 1.77l-3.38 3.63 2.4 1.84c1.3 1 2.6 1.84 2.88 1.85.27 0 1.8-1.6 3.4-3.6zm22.53-3c1.15-1.45 2.08-3.93 2.08-5.5 0-2.33-.44-2.87-2.32-2.87-2.14 0-7.68 4.6-7.68 6.4 0 .87 4.12 4.52 5.18 4.57.37.02 1.6-1.15 2.75-2.6zm-40.66-8.64c15.9-6.32 25-8.1 35.67-6.97 8.88.94 8.8.97 9.3-4.26l.28-3-8-.67c-11.22-.94-20.38.45-35.2 5.33-15.22 5-26.1 5.9-45.06 3.7-13.86-1.6-32.7-1.8-34.17-.33-.57.57-.75 2.7-.4 4.84.6 3.74.7 3.8 4.22 3.25 12.26-1.9 22.7-1.68 34.1.77 17.3 3.7 24.43 3.23 39.27-2.67zm27.74.77c1.05-1.27.84-1.5-1.38-1.5-2.53 0-3.33.96-1.96 2.33 1.04 1.04 1.98.8 3.34-.83zm48.5-7.77c10-11.3 16.93-20.47 19.25-25.52 2.28-4.95 2.33-5.44.83-7.73-.9-1.35-2.78-2.74-4.22-3.1-4.9-1.23-20.85.5-32.83 3.54-6.6 1.68-12.33 2.66-12.8 2.2-1.1-1.12 12.7-9.68 26.78-16.6 19.6-9.66 36.94-13.08 48.82-9.63 16.4 4.77 14.94 22.25-3 35.72-10.2 7.64-31.12 19.5-43.64 24.73l-3.83 1.6 4.64-5.23zM77 275.22c-1.08-3.7-2.52-9.33-3.2-12.48-.78-3.63-1.82-5.9-2.83-6.18-1.55-.44-11.58-1.73-27.42-3.53-8.36-.95-10-1.6-7.64-3.1 3.83-2.47 10.26-3.45 22.04-3.4l12.57.08-2.26-12.56c-2.75-15.2-3-23.3-.8-25.5 3.84-3.83 9.7-1.2 26.26 11.7 12.97 10.12 26.2 22.6 33.46 31.5 5.84 7.2 14.72 20.1 14.72 21.4 0 .97-28.72-21.1-43.2-33.22-5.9-4.93-11.88-9.48-13.3-10.13-4.12-1.88-4.73-.27-3.95 10.38l.7 9.48 5.12 1.27c11.7 2.9 26.4 10.58 24.32 12.67-.44.45-6.97-.42-14.5-1.93-7.53-1.5-14.03-2.73-14.44-2.72-.4 0-.75 4.48-.75 9.94 0 15.1-1.7 17.3-4.88 6.32zm80.92 0c-3.05-3.16-12.56-13.85-21.14-23.75-8.57-9.9-22.24-25.2-30.38-34-16.1-17.4-27.52-31.2-27.52-33.22 0-3.67 5.5.02 28.05 18.8 19.15 15.94 21.1 17.94 31.45 32.42 11.14 15.56 15.75 20.37 17.86 18.62 2.88-2.4 2.92-6.12.1-8.95-6.6-6.58-7.72-14.56-3.94-27.68.5-1.74.05-2.03-3.6-2.28-12.1-.83-19.28-12.35-14.27-22.9.9-1.9 2.7-4.16 3.97-5 2.2-1.44 2.24-1.7.85-4.38-.8-1.57-1.47-3.55-1.47-4.4 0-4.22-14.5.32-20.44 6.4-3.68 3.75-3.8 4.08-2.58 7 .7 1.7 3.8 5.4 6.88 8.2 6.06 5.55 5.24 5.76-4.53 1.2-6.05-2.83-15.98-12.95-19.17-19.54-3-6.2-2.9-14.68.27-21.46 2.63-5.65 9.13-11.5 16.46-14.8 3.58-1.6 4-2.07 2.47-2.68-5.36-2.1-7.9-1.05-20.1 8.35-10.48 8.07-12.1 9.7-13.04 13.25-1.68 6.26-5.27 9.02-11.72 9.02-6.17 0-9.68-2.48-11.56-8.18-3.03-9.2 6.52-17.67 15.62-13.87l3.63 1.52 10.9-6.08c6-3.34 10.9-6.2 10.9-6.38 0-.18-3.88-.87-8.63-1.55-7.74-1.1-8.74-1.06-9.55.4-.5.9-2.23 2.3-3.82 3.12-6.18 3.2-13.65.88-16.5-5.1-1.9-4-1.9-5.75 0-9.4 2.2-4.27 5.3-6 10.8-6 4 0 5.32.5 7.52 2.8 1.47 1.52 3.13 3.57 3.68 4.54.73 1.3 3.53 2.16 10.5 3.23 5.22.8 10.62 1.7 12 1.98 2.08.44 1.67-.22-2.5-3.96-4.5-4.03-5.5-4.5-10-4.53-11.5-.1-17.94-10.33-11.17-17.8 3.4-3.75 8.8-4.84 14.06-2.83 5.5 2.1 7.62 5.18 7.62 11.08 0 3.74.82 5.78 4.65 11.55 2.56 3.85 4.8 6.86 4.97 6.7.17-.18-.35-2.5-1.16-5.18-7.34-24.4 12.65-43.8 39.32-38.18 4 .85 10.3 3.02 13.98 4.83 7.7 3.8 18.17 13.12 21.94 19.56l2.6 4.43 1.27-3.03c2.98-7.07 13.46-8.1 18.93-1.88l3 3.42 5-3.94C232.53 105.15 241.5 97 246.5 91c2.96-3.55 5.38-6.8 5.38-7.22 0-1.28-5.74-3.8-8.63-3.8-4.45 0-9.37-2.2-9.37-4.2 0-1.54 18.64-25.03 21.47-27.04 2.38-1.7 5.92-.64 9.1 2.73 3.78 4 5.58 4.3 9.15 1.5 3.4-2.67 5.85-2.52 8.92.55 3.47 3.47 2.78 5.56-5.67 17.3-6.36 8.85-6.8 9.76-5.2 11 .95.72 7.35 4.03 14.23 7.35 14.9 7.2 28 16.03 28 18.9 0 2.67-2.58 3.46-6.56 2.02-2.67-.98-3.97-.93-6.7.2-2.77 1.16-4.07 1.2-6.93.22-4.86-1.67-15.9-7.88-24.53-13.8l-7.2-4.93-7.3 7.16c-6.2 6.12-9.33 8.2-21.1 14.1-7.6 3.8-14.9 6.9-16.25 6.9-2.06 0-2.44.5-2.44 3.1 0 2.2-.93 3.98-3.2 6.1-2.87 2.68-3.7 2.93-8.25 2.5-2.78-.25-5.95-.63-7.05-.83-1.63-.3-2 .2-2 2.58 0 2.82.3 3.02 7.3 4.8 7.2 1.8 7.35 1.8 9.8-.13 8.27-6.5 20.28.07 19 10.4-.68 5.64-6.03 10.5-11.55 10.5-4.78 0-10.56-4.47-11.54-8.93-.5-2.28-1.78-3.36-6.45-5.46-3.2-1.43-6.27-2.6-6.8-2.6-.56 0-2.07 2.8-3.38 6.24-1.3 3.44-2.5 6.54-2.68 6.9-.18.34 3.85 1.4 8.93 2.33 30.6 5.62 43.44 28.97 22.16 40.26-11.7 6.22-28.5 7.02-38.05 1.82-2.8-1.52-6.55-4.27-8.33-6.1l-3.23-3.34 4.88 1.5c7.36 2.22 19.48 2.9 24.86 1.4 4.55-1.27 10.54-6.6 10.54-9.38 0-1.6-6.52-3.1-21.94-5.13-6.3-.83-11.58-1.5-11.75-1.5-.18 0-.32.7-.32 1.54 0 2.76-3.95 9.37-6.9 11.54-2.6 1.94-2.77 2.4-1.85 5.4 1.45 4.74.13 10.02-3.55 14.22-3.13 3.56-3.2 3.86-3.18 13.23.02 10.66 1.54 16.1 3.94 14.1 1.7-1.42 3.2-8.57 4.1-19.77.35-4.54 1.05-8 1.56-7.7 2.48 1.55 5.12 9.27 5.6 16.4.56 8.06-3.43 39.54-6.3 49.8-2 7.1-4.12 7-11.38-.5zm-3.65-67.64c4.45-1.86 6.22-6.53 4.06-10.7-1.06-2.05-2.25-2.9-4.04-2.9-1.4 0-3.45-.5-4.55-1.08-2.56-1.37-6.53 1.03-7.96 4.8-1.93 5.06 1.24 9.06 8.86 11.2.16.04 1.78-.56 3.6-1.32zm12.1-27.93c1.8-4.3.86-8.2-2.7-11.2-7.25-6.1-18.33.26-16.32 9.4.82 3.7 2.14 4.84 7.67 6.5 5.48 1.64 9.37.03 11.35-4.7zm43.63-.93c.65-6.87-8.47-15-20.5-18.25l-6.28-1.7-1.2-11.65c-1.17-11.3-3.3-22.64-4.48-23.82-.92-.92-10.58 7.6-12.22 10.8-1.1 2.1-5.44 20-5.44 22.36 0 .14 1.4.54 3.13.9 4.75.94 11.65 8.34 12.45 13.34.64 4 .7 4.05 3.78 3.17 8.07-2.3 20.52-.4 26.5 4.06 3.1 2.32 4.1 2.5 4.27.8zM124.17 174c2.98-.48 7.18-.64 9.33-.35 3.9.52 3.9.52 5.1-3.92 1.4-5.2 7.66-11.48 12.4-12.43 1.68-.34 3.26-1.17 3.52-1.85.65-1.7-2.37-13.03-4.67-17.54-2.7-5.28-9.08-10.32-15.63-12.34-1.9-.58-2.23-.18-2.82 3.3-.73 4.3 1.54 15.03 3.94 18.7 1.3 1.96 1.1 2.23-3 4.22-6.83 3.3-12.1 8.75-15.94 16.42-4.43 8.86-4.52 10.12-.58 8.15 1.6-.8 5.37-1.86 8.35-2.35zm40.76-52.57c3.82-3.05 6.95-6 6.95-6.56 0-.55-2.38-2.1-5.28-3.43-5.63-2.57-19-4.43-20.03-2.78-.54.87 9.88 18.3 10.95 18.3.25 0 3.6-2.48 7.4-5.53zm97.97-53c2.34-3.58 4-6.77 3.7-7.08-1.1-1.1-4.76.8-10.33 5.34l-5.65 4.6 3.38 1.8c1.86.98 3.66 1.8 4 1.83.36.02 2.56-2.9 4.9-6.5zm-76.05 207c-.97-1.16-1.12-4.6-.6-14.25.8-15.47 1.87-21.1 5.26-28.05 7.02-14.37 35.54-36.3 52.26-40.17 6.13-1.43 19.73-.84 25 1.07l3.4 1.23-7.4 2.7c-16.9 6.2-29.86 14.15-42.18 25.92-13.73 13.1-20.86 23.92-26.6 40.38-1.7 4.83-3.55 9.67-4.12 10.75-1.26 2.36-3.27 2.53-5 .43zm19.43-14.7c5.2-8.78 15.23-22.24 21.87-29.35 14.1-15.1 28.95-22.2 51.15-24.5 10.87-1.13 17.7-.07 26.1 4.04 7.94 3.9 22.14 17.73 20.2 19.68-.32.3-4.55-.27-9.4-1.28-15.95-3.34-37.28-1.65-51.26 4.06-3.06 1.25-13.95 7.04-24.2 12.87-19.84 11.27-34.12 18.72-35.9 18.72-.6 0 .06-1.9 1.44-4.25zm59.26-119.64c-1.56-1.04-3.65-3.22-4.65-4.87-1-1.64-3.22-3.97-4.92-5.2-1.98-1.4-3.1-3.06-3.1-4.57 0-2.66 3.37-5.5 6.47-5.47 2.8.02 10.56 3.65 13.28 6.2 3 2.82 3.08 9.44.18 13.14-2.45 3.12-3.5 3.23-7.26.75zm-4.66-25.6c0-1.54-1.17-3.65-2.92-5.3-5.6-5.22-4.9-9.04 1.8-9.94 3.04-.4 5.16-.04 7.7 1.32 5.03 2.7 6.06 8.5 1.92 10.78-1.1.6-3.46 2.14-5.25 3.4l-3.25 2.3v-2.55z"/><path fill="#871a1f" d="M61.7 444.96c-16.27-2.8-29.3-9.4-40.32-20.47-8.9-8.92-13.33-15.76-17.32-26.7l-2.68-7.33-.28-164C.8 43.15.34 55.22 7.9 40.17c8.94-17.72 23.8-30 44-36.35l7.48-2.35h240l7.5 2.34c24.88 7.78 42.33 25.36 48.97 49.32 2 7.2 2.03 9.68 2 169.83 0 181.44.5 168.28-7.2 184.02-3.32 6.75-5.95 10.27-12.73 17.1-7.12 7.14-10.13 9.35-18.04 13.23-17.94 8.8-6.67 8.12-137.5 8.3-63.8.1-118.1-.2-120.67-.64zm245.68-6.3c23.5-8.28 41.27-27.96 45.93-50.9 1.4-6.8 1.58-26.13 1.56-165-.02-173.9.33-164.28-6.48-178.62-8.8-18.5-25.55-32.16-46.5-37.9-6.06-1.65-14.47-1.77-122.5-1.77-130.14 0-120.9-.5-137 7.47-14.8 7.32-25.05 17.72-32.15 32.56-6.62 13.84-6.35 6.24-6.35 179.1 0 174.9-.4 164.7 7.13 180.06 8.6 17.5 25.58 31.16 45.2 36.33 6.87 1.8 12.26 1.87 125.18 1.68l118-.2 8-2.82zM158.33 393.3c-32.58-20.67-67.83-31.86-106.15-33.7-10.42-.5-12.03-1.04-10.1-3.38 5.18-6.28 39.7-13.62 53.57-11.4 10.8 1.75 8.2 3.5-7.4 4.97-17.1 1.62-18.77 2.5-7.75 4.1 11.5 1.66 36.54 8.04 47.36 12.05 11.8 4.37 24.2 10.3 32.9 15.73 5.96 3.7 7.7 4.4 9 3.48 12.2-8.56 38.95-22.15 52.53-26.7 9.7-3.25 22.8-6.16 31.88-7.08 3.75-.38 6.45-1.04 6-1.45-.44-.42-5.4-2.66-11.05-4.98-5.64-2.33-10.25-4.8-10.25-5.52 0-3.7 13.2-2.34 25.67 2.6 7.77 3.1 21.33 9.68 21.33 10.37 0 .23.27 1.1.6 1.98.9 2.33-2.5 3.23-17.15 4.55-41.05 3.7-69.37 14.08-94.16 34.53-3.67 3.03-6.96 5.5-7.3 5.5-.33 0-4.62-2.54-9.54-5.66zm3.55-20.43c-16.62-11.47-29.47-16.67-45.56-18.44l-6.05-.67-3.36-28.84c-3.1-26.68-3.5-28.77-5.12-27.9-1.84 1-4.9.32-4.9-1.07 0-1.26 9.33-7.8 14.15-9.9 6.22-2.73 12.35-3.37 20.17-2.12 13.96 2.25 26.97 3.03 35.1 2.1 4.47-.5 16.64-3.03 27.06-5.62 18.17-4.5 19.35-4.67 29.47-4.14 10.93.57 24.66 3.57 28.8 6.28 2 1.3 2.17 1.8 1.1 3.1-1 1.2-2.5 1.4-6.8.92l-5.56-.63-4.5 30.14-4.5 30.14-13.5 4.7c-7.42 2.6-16.2 6.1-19.5 7.8-6.5 3.35-20.52 13.5-24.42 17.67-1.33 1.43-2.68 2.55-3 2.48-.3-.06-4.4-2.75-9.07-5.98zm10.6-4.06c.4-.65-.27-1.95-1.57-3-2.15-1.76-2.35-1.76-3.55-.13-1.04 1.44-.98 1.95.38 3 2.1 1.57 3.83 1.63 4.75.14zm-10.8-7.03c1.72-1.72 1.5-2.36-1.4-4.26-2.43-1.6-2.68-1.58-4.54.1-1.96 1.77-1.95 1.8.33 3.55 2.73 2.1 4 2.24 5.6.62zm20.88-1.05c1.82-1.24 3.3-2.56 3.3-2.93.02-.87-5.5-4.83-6.7-4.83-.5 0-1.95 1.42-3.23 3.14l-2.32 3.16 2.4 1.83c2.97 2.28 2.62 2.3 6.56-.38zm-32.2-7c1.5-2.13 1.44-2.37-1.2-4.5-1.53-1.23-3-2.22-3.28-2.2-.28.04-1.53 1.36-2.8 2.96l-2.27 2.9 2.8 1.5c3.8 2.07 4.9 1.96 6.75-.66zm20.74-2.17l2.72-3.3-2.48-2.3-2.48-2.34-3 2.88c-1.64 1.58-2.98 3.27-2.98 3.77 0 .92 4.08 4.7 5 4.62.27-.02 1.72-1.52 3.22-3.32zm25.07-3.02c2.04-2.44 3.7-4.67 3.7-4.95 0-.28-1.6-1.72-3.54-3.2l-3.54-2.7-3.55 3.4c-5.68 5.45-5.82 6.26-1.6 9.26 2.04 1.45 3.95 2.63 4.25 2.63.3 0 2.22-2 4.27-4.44zm-58.32-2.73l2.34-3.17-2.92-2.32c-3.58-2.86-4.2-2.88-7.1-.14l-2.33 2.2 3.2 3.3c1.78 1.82 3.5 3.3 3.84 3.3.32 0 1.66-1.4 2.95-3.16zm22.4-3.26l2.63-3.43-2.9-2.06c-1.6-1.14-3.16-2.07-3.46-2.07-.3 0-1.74 1.57-3.2 3.5l-2.67 3.5 2.36 1.96c3.3 2.73 4.25 2.55 7.26-1.4zm-42.9 1.5c.3-.5.1-1.2-.46-1.56-.56-.34-1.02.07-1.02.93 0 1.77.6 2.03 1.46.64zm102.1-.7c2.7-.9 5.27-1.94 5.7-2.32.42-.38-1.3-2.16-3.82-3.97-2.5-1.8-4.68-3.13-4.8-2.93-.13.2-1.7 2.08-3.5 4.2-3.08 3.63-3.16 3.93-1.46 5.22 2.28 1.73 2.03 1.74 7.88-.2zM184.7 331.8c-3.36-2.58-4.18-2.32-8.2 2.6l-3.63 4.42 2.75 2.17 2.76 2.16 4.33-4.78 4.34-4.78-2.33-1.8zm-58.93 3.8l2.24-2.4-2.96-2.1c-3.67-2.63-4.4-2.64-6.67-.12-1.77 1.95-1.75 2.1.52 4.5 2.9 3.1 4.04 3.12 6.87.1zm85.1-5.55c0-.62-6.27-5.08-7.14-5.08-.28 0-1.92 1.75-3.63 3.88l-3.12 3.88 3.7 2.66 3.7 2.65 3.25-3.7c1.8-2.04 3.24-3.97 3.24-4.3zm-62.5 3.93l2.87-3-2.36-2.5c-3.03-3.23-3.73-3.16-7.7.7l-3.32 3.2 2.76 2.26c3.6 2.96 4.34 2.9 7.75-.66zm23.8-4.5l3.8-4.3-3.13-2.24-3.12-2.22-3.92 3.83c-2.16 2.1-3.92 4.23-3.92 4.7 0 1.17 4.2 4.67 5.5 4.6.55-.04 2.7-2 4.8-4.38zm55.08-.63c.35-1.72.62-4.3.6-5.75l-.03-2.63-2.94 3.5c-3.45 4.1-3.6 4.83-1.25 6.6 2.53 1.94 2.93 1.75 3.62-1.72zm-91.32-4.43l3.45-3.56-2.5-1.92c-1.38-1.06-2.98-1.93-3.57-1.95-1.18-.03-6.42 5.16-6.42 6.37 0 .8 4.08 4.5 5.05 4.57.3.02 2.1-1.57 4-3.52zm59.4-.14l2.96-3.56-2.33-1.87c-3.04-2.47-3.15-2.45-7.05 1.58l-3.36 3.46 2.4 2c3.23 2.68 3.92 2.53 7.37-1.62zm-80 .76c.32-.5.12-1.2-.44-1.56-.56-.34-1.02.07-1.02.93 0 1.77.6 2.03 1.46.64zm45.26-4.77l3.37-4.1-3.14-2.24-3.15-2.23-4.15 4.2-4.15 4.18 2.86 2.5c1.57 1.36 3.33 2.33 3.9 2.13.6-.18 2.6-2.18 4.45-4.43zm58.63.13c2.73-3.42 2.77-3.62 1-5-4.43-3.48-4.92-3.47-8.45.2l-3.4 3.52 2.8 2.42c3.72 3.22 4.68 3.08 8.05-1.14zm-34.4-9.45c-2.8-2.13-6.56-1.12-9.18 2.48-1.7 2.32-1.67 2.4 1.5 4.45l3.23 2.1 3.4-3.65 3.38-3.64-2.32-1.75zm-60.08 4.65l3.27-3.37-3.2-2.5c-2.8-2.2-3.66-2.38-7.22-1.58-4.94 1.1-5.72 1.56-5.72 3.3 0 1.22 7.54 7.52 9 7.52.33 0 2.08-1.52 3.87-3.37zm22.62-2.62c1.57-1.64 2.6-3.24 2.3-3.55-.3-.3-2.46-.65-4.8-.76-5.65-.27-7.53 2.2-3.94 5.2 3.15 2.62 3.07 2.63 6.44-.9zm59.44-1.6l3.15-3.56-2.63-2.07-2.62-2.07-3.6 3.6c-3.54 3.54-3.57 3.65-1.76 5.65 2.57 2.84 3.86 2.58 7.47-1.54zm21.78-2.66c1.14-1.24 2.26-3.7 2.5-5.5.43-3.07.28-3.24-2.63-3.18-2.2.06-3.85 1-5.84 3.4l-2.76 3.35 2.65 2.08c3.3 2.6 3.56 2.6 6.08-.16zm-35.7-2.75c0-.55-.2-1-.44-1-.25 0-.72.45-1.06 1-.34.55-.14 1 .44 1 .58 0 1.06-.45 1.06-1zm-5.22-5.9c19.3-7.44 25.25-8.6 37.22-7.23 4.12.47 7.55.8 7.6.74.07-.06.4-1.95.75-4.2l.62-4.1-8.73-.6c-11.96-.84-20.54.48-35.24 5.4-14.66 4.9-25.64 5.9-43 3.9-14.8-1.68-29.33-2.36-33.58-1.56l-3.63.68.7 4.7c.38 2.56.77 4.74.85 4.8.1.1 3.3-.5 7.16-1.33 8.36-1.78 20.8-1.18 33.5 1.62 4.67 1.02 11.77 1.9 15.78 1.97 6.45.1 8.72-.46 20-4.8zm29.22-.22c0-.48-1.35-.88-3-.88-3.42 0-3.77.72-1.25 2.56 1.75 1.28 4.25.3 4.25-1.68zm47.58-7.06c11.65-12.2 19.6-23.42 20.86-29.45.76-3.58-1-5.98-5.14-7.02-4.75-1.2-20.74.52-32.8 3.52-6.6 1.64-12.33 2.67-12.73 2.28-.98-.96 17.5-12.05 29.23-17.54 27.54-12.9 47.76-13.52 55.74-1.68 4.1 6.07 2.04 14-5.8 22.5-6.42 6.97-29.56 21.4-46.77 29.2l-7.67 3.5 5.08-5.33zm-186.1-14.2c-.87-2.1-2.52-7.8-3.66-12.7-1.4-6.06-2.58-9.03-3.7-9.37-.9-.28-7.47-1.2-14.62-2.02-21.98-2.56-21.75-2.52-20.55-3.97 2.18-2.63 10.4-4.06 22.77-3.98 11.9.1 12.22.03 11.74-2-1.86-7.8-4.46-24.82-4.46-29.12 0-9.78 5.7-10.92 16.6-3.3 13.6 9.5 31.54 25.03 39.92 34.6 7.73 8.8 20.8 27.13 18.3 25.62-3.35-2-36.97-28.36-44.82-35.12-8.6-7.4-12.3-9.36-14.18-7.48-.66.66-.77 4.4-.32 10.47l.7 9.44 7.72 2.23c11.65 3.35 26.65 12.07 20.8 12.07-.8 0-6.97-1.12-13.72-2.5-6.75-1.37-12.9-2.5-13.64-2.5-1.06 0-1.37 2.27-1.38 10.25-.02 12.16-1.1 15.1-3.5 9.4zm78.92-4.85c-3.9-4-13.33-14.48-20.95-23.28-7.62-8.8-20.45-23.2-28.5-32-21.67-23.68-28.95-32.38-28.95-34.58 0-3.1 4.8.32 30.44 21.62 17.1 14.2 21.58 19.04 31.54 33.95 5.45 8.16 12.05 15.5 13.93 15.5 1.63 0 4.08-3.7 4.08-6.16 0-.58-1.3-2.54-2.88-4.34-1.58-1.8-3.68-5.38-4.66-7.95-1.55-4.05-1.63-5.47-.62-10.84.64-3.4 1.4-7.1 1.7-8.2.5-1.73 0-2.03-3.62-2.27-12.1-.83-19.28-12.35-14.27-22.9.9-1.9 2.7-4.16 3.97-5 2.2-1.44 2.24-1.7.85-4.38-.8-1.57-1.47-3.55-1.47-4.4 0-4.22-14.5.32-20.44 6.4-3.68 3.75-3.8 4.08-2.58 7 .7 1.7 3.8 5.4 6.88 8.2 6.06 5.55 5.24 5.76-4.53 1.2-6.05-2.83-15.98-12.95-19.17-19.54-3-6.2-2.9-14.68.27-21.46 2.63-5.65 9.13-11.5 16.46-14.8 3.58-1.6 4-2.07 2.47-2.68-5.36-2.1-7.9-1.05-20.1 8.35-10.48 8.07-12.1 9.7-13.04 13.25-1.68 6.26-5.27 9.02-11.72 9.02-6.17 0-9.68-2.48-11.56-8.18-3.03-9.2 6.52-17.67 15.62-13.87l3.63 1.52 10.9-6.08c6-3.34 10.9-6.2 10.9-6.38 0-.18-3.88-.87-8.63-1.55-7.74-1.1-8.74-1.06-9.55.4-.5.9-2.23 2.3-3.82 3.12-6.18 3.2-13.65.88-16.5-5.1-1.9-4-1.9-5.75 0-9.4 2.2-4.27 5.3-6 10.8-6 4 0 5.32.5 7.52 2.8 1.47 1.52 3.13 3.57 3.68 4.54.73 1.3 3.53 2.16 10.5 3.23 5.22.8 10.62 1.7 12 1.98 2.08.44 1.67-.22-2.5-3.96-4.5-4.03-5.5-4.5-10-4.53-11.5-.1-17.94-10.33-11.17-17.8 3.4-3.75 8.8-4.84 14.06-2.83 5.5 2.1 7.62 5.18 7.62 11.08 0 3.74.82 5.78 4.65 11.55 2.56 3.85 4.8 6.86 4.97 6.7.17-.18-.35-2.5-1.16-5.18-7.34-24.4 12.65-43.8 39.32-38.18 4 .85 10.3 3.02 13.98 4.83 7.7 3.8 18.17 13.12 21.94 19.56l2.6 4.43 1.27-3.03c2.98-7.07 13.46-8.1 18.93-1.88l3 3.42 5-3.94C232.53 105.15 241.5 97 246.5 91c2.96-3.55 5.38-6.8 5.38-7.22 0-1.28-5.74-3.8-8.63-3.8-4.45 0-9.37-2.2-9.37-4.2 0-1.54 18.64-25.03 21.47-27.04 2.38-1.7 5.92-.64 9.1 2.73 3.78 4 5.58 4.3 9.15 1.5 3.4-2.67 5.85-2.52 8.92.55 3.47 3.47 2.78 5.56-5.67 17.3-6.36 8.85-6.8 9.76-5.2 11 .95.72 7.35 4.03 14.23 7.35 14.9 7.2 28 16.03 28 18.9 0 2.67-2.58 3.46-6.56 2.02-2.67-.98-3.97-.93-6.7.2-2.77 1.16-4.07 1.2-6.93.22-4.86-1.67-15.9-7.88-24.53-13.8l-7.2-4.93-7.3 7.16c-6.2 6.12-9.33 8.2-21.1 14.1-7.6 3.8-14.9 6.9-16.25 6.9-2.06 0-2.44.5-2.44 3.1 0 2.2-.93 3.98-3.2 6.1-2.87 2.68-3.7 2.93-8.25 2.5-2.78-.25-5.95-.63-7.05-.83-1.63-.3-2 .2-2 2.58 0 2.82.3 3.02 7.3 4.8 7.2 1.8 7.35 1.8 9.8-.13 8.27-6.5 20.28.07 19 10.4-.68 5.64-6.03 10.5-11.55 10.5-4.78 0-10.56-4.47-11.54-8.93-.5-2.28-1.78-3.36-6.45-5.46-3.2-1.43-6.27-2.6-6.8-2.6-.56 0-2.07 2.8-3.38 6.24-1.3 3.44-2.5 6.54-2.68 6.9-.18.34 3.85 1.4 8.93 2.33 30.6 5.62 43.44 28.97 22.16 40.26-11.7 6.22-28.5 7.02-38.05 1.82-2.8-1.52-6.55-4.27-8.33-6.1l-3.23-3.34 4.88 1.5c7.36 2.22 19.48 2.9 24.86 1.4 4.55-1.27 10.54-6.6 10.54-9.38 0-1.6-6.52-3.1-21.94-5.13-6.3-.83-11.58-1.5-11.75-1.5-.18 0-.32.7-.32 1.54 0 2.76-3.95 9.37-6.9 11.54-2.6 1.94-2.77 2.4-1.85 5.4 1.47 4.8.16 9.85-3.8 14.57-3.34 4.03-3.45 4.44-3.45 12.6 0 5.1.57 9.8 1.45 11.9 3.1 7.44 5.22 3.1 6.8-13.93 1.07-11.75 1.1-11.87 2.9-9.65 2.62 3.22 4.85 11.5 4.85 17.98 0 7.6-4.84 40.4-6.86 46.57-.9 2.75-2.32 5.12-3.14 5.27-.83.16-4.7-3-8.6-7zm-3-66.17c4.44-1.86 6.2-6.53 4.05-10.7-1.06-2.05-2.25-2.9-4.04-2.9-1.4 0-3.45-.5-4.55-1.08-2.56-1.37-6.53 1.03-7.96 4.8-1.93 5.06 1.24 9.06 8.86 11.2.16.04 1.78-.56 3.6-1.32zm12.1-27.93c1.8-4.3.85-8.2-2.7-11.2-7.26-6.1-18.34.26-16.33 9.4.82 3.7 2.14 4.84 7.67 6.5 5.48 1.64 9.37.03 11.35-4.7zm43.62-.93c.65-6.87-8.47-15-20.5-18.25l-6.28-1.7-1.2-11.65c-1.17-11.3-3.3-22.64-4.48-23.82-.92-.92-10.58 7.6-12.22 10.8-1.1 2.1-5.44 20-5.44 22.36 0 .14 1.4.54 3.13.9 4.75.94 11.65 8.34 12.45 13.34.64 4 .7 4.05 3.78 3.17 8.07-2.3 20.52-.4 26.5 4.06 3.1 2.32 4.1 2.5 4.27.8zm-85.83-4.7c2.98-.5 7.18-.66 9.33-.37 3.9.52 3.9.52 5.1-3.92 1.4-5.2 7.66-11.48 12.4-12.43 1.68-.34 3.26-1.17 3.52-1.85.65-1.7-2.37-13.03-4.67-17.54-2.7-5.28-9.08-10.32-15.63-12.34-1.9-.58-2.23-.18-2.82 3.3-.73 4.3 1.54 15.03 3.94 18.7 1.3 1.96 1.1 2.23-3 4.22-6.83 3.3-12.1 8.75-15.94 16.42-4.43 8.86-4.52 10.12-.58 8.15 1.6-.8 5.37-1.86 8.35-2.34zm40.76-52.6c3.82-3.04 6.95-6 6.95-6.55 0-.55-2.38-2.1-5.28-3.43-5.63-2.57-19-4.43-20.03-2.78-.54.87 9.88 18.3 10.95 18.3.25 0 3.6-2.48 7.4-5.53zm97.97-52.98c2.34-3.6 4-6.78 3.7-7.1-1.1-1.08-4.76.8-10.33 5.35l-5.65 4.6 3.38 1.8c1.86.98 3.66 1.8 4 1.83.36.02 2.56-2.9 4.9-6.5zM187.4 275c-1.65-1.83-1.77-3.24-1.18-14.28.82-15.47 2.8-23.83 7.18-30.46 9.2-13.92 33.4-32.26 48.4-36.7 7-2.05 16.88-2.03 24.36.07l5.92 1.66-8.85 3.17c-14.8 5.3-25.78 11.75-38.14 22.4-13.52 11.62-22 24.16-29.3 43.3-4.66 12.24-5.8 13.7-8.4 10.83zm17.48-10.8c0-1.72 12.06-19.24 18.77-27.27 15.55-18.6 31.4-27.3 54.5-29.88 15.36-1.72 26.33 1.5 36.92 10.85 5.4 4.77 11.3 11.9 10.5 12.7-.3.3-4.52-.27-9.37-1.28-15.63-3.27-35.95-1.83-50.4 3.58-2.98 1.12-15.1 7.48-26.92 14.14-20.9 11.78-32.4 17.93-33.47 17.93-.28 0-.52-.35-.52-.78zm60.66-123.1c-1.56-1.04-3.65-3.22-4.65-4.87-1-1.64-3.22-3.97-4.92-5.2-1.98-1.4-3.1-3.06-3.1-4.57 0-2.66 3.37-5.5 6.47-5.47 2.8.02 10.56 3.65 13.28 6.2 3 2.82 3.08 9.44.18 13.14-2.45 3.12-3.5 3.23-7.26.75zm-4.66-25.6c0-1.54-1.17-3.65-2.92-5.3-5.6-5.22-4.9-9.04 1.8-9.94 3.04-.4 5.16-.04 7.7 1.32 5.03 2.7 6.06 8.5 1.92 10.78-1.1.6-3.46 2.14-5.25 3.4l-3.25 2.3v-2.55z"/><path fill="#0e1f0b" d="M61.7 444.96c-16.27-2.8-29.3-9.4-40.32-20.47-8.9-8.92-13.33-15.76-17.32-26.7l-2.68-7.33-.28-164C.8 43.15.34 55.22 7.9 40.17c8.94-17.72 23.8-30 44-36.35l7.48-2.35h240l7.5 2.34c24.88 7.78 42.33 25.36 48.97 49.32 2 7.2 2.03 9.68 2 169.83 0 181.44.5 168.28-7.2 184.02-3.32 6.75-5.95 10.27-12.73 17.1-7.12 7.14-10.13 9.35-18.04 13.23-17.94 8.8-6.67 8.12-137.5 8.3-63.8.1-118.1-.2-120.67-.64zm245.68-6.3c23.5-8.28 41.27-27.96 45.93-50.9 1.4-6.8 1.58-26.13 1.56-165-.02-173.9.33-164.28-6.48-178.62-8.8-18.5-25.55-32.16-46.5-37.9-6.06-1.65-14.47-1.77-122.5-1.77-130.14 0-120.9-.5-137 7.47-14.8 7.32-25.05 17.72-32.15 32.56-6.62 13.84-6.35 6.24-6.35 179.1 0 174.9-.4 164.7 7.13 180.06 8.6 17.5 25.58 31.16 45.2 36.33 6.87 1.8 12.26 1.87 125.18 1.68l118-.2 8-2.82zM158.33 393.3c-32.58-20.67-67.83-31.86-106.15-33.7-10.42-.5-12.03-1.04-10.1-3.38 5.18-6.28 39.7-13.62 53.57-11.4 10.8 1.75 8.2 3.5-7.4 4.97-17.1 1.62-18.77 2.5-7.75 4.1 11.5 1.66 36.54 8.04 47.36 12.05 11.8 4.37 24.2 10.3 32.9 15.73 5.96 3.7 7.7 4.4 9 3.48 12.2-8.56 38.95-22.15 52.53-26.7 9.7-3.25 22.8-6.16 31.88-7.08 3.75-.38 6.45-1.04 6-1.45-.44-.42-5.4-2.66-11.05-4.98-5.64-2.33-10.25-4.8-10.25-5.52 0-3.7 13.2-2.34 25.67 2.6 7.77 3.1 21.33 9.68 21.33 10.37 0 .23.27 1.1.6 1.98.9 2.33-2.5 3.23-17.15 4.55-41.05 3.7-69.37 14.08-94.16 34.53-3.67 3.03-6.96 5.5-7.3 5.5-.33 0-4.62-2.54-9.54-5.66zm3.55-20.43c-16.62-11.47-29.47-16.67-45.56-18.44l-6.05-.67-3.36-28.84c-3.1-26.68-3.5-28.77-5.12-27.9-1.84 1-4.9.32-4.9-1.07 0-1.26 9.33-7.8 14.15-9.9 6.22-2.73 12.35-3.37 20.17-2.12 13.96 2.25 26.97 3.03 35.1 2.1 4.47-.5 16.64-3.03 27.06-5.62 18.17-4.5 19.35-4.67 29.47-4.14 10.93.57 24.66 3.57 28.8 6.28 2 1.3 2.17 1.8 1.1 3.1-1 1.2-2.5 1.4-6.8.92l-5.56-.63-4.5 30.14-4.5 30.14-13.5 4.7c-7.42 2.6-16.2 6.1-19.5 7.8-6.5 3.35-20.52 13.5-24.42 17.67-1.33 1.43-2.68 2.55-3 2.48-.3-.06-4.4-2.75-9.07-5.98zm10.6-4.06c.4-.65-.27-1.95-1.57-3-2.15-1.76-2.35-1.76-3.55-.13-1.04 1.44-.98 1.95.38 3 2.1 1.57 3.83 1.63 4.75.14zm-10.8-7.03c1.72-1.72 1.5-2.36-1.4-4.26-2.43-1.6-2.68-1.58-4.54.1-1.96 1.77-1.95 1.8.33 3.55 2.73 2.1 4 2.24 5.6.62zm20.88-1.05c1.82-1.24 3.3-2.56 3.3-2.93.02-.87-5.5-4.83-6.7-4.83-.5 0-1.95 1.42-3.23 3.14l-2.32 3.16 2.4 1.83c2.97 2.28 2.62 2.3 6.56-.38zm-32.2-7c1.5-2.13 1.44-2.37-1.2-4.5-1.53-1.23-3-2.22-3.28-2.2-.28.04-1.53 1.36-2.8 2.96l-2.27 2.9 2.8 1.5c3.8 2.07 4.9 1.96 6.75-.66zm20.74-2.17l2.72-3.3-2.48-2.3-2.48-2.34-3 2.88c-1.64 1.58-2.98 3.27-2.98 3.77 0 .92 4.08 4.7 5 4.62.27-.02 1.72-1.52 3.22-3.32zm25.07-3.02c2.04-2.44 3.7-4.67 3.7-4.95 0-.28-1.6-1.72-3.54-3.2l-3.54-2.7-3.55 3.4c-5.68 5.45-5.82 6.26-1.6 9.26 2.04 1.45 3.95 2.63 4.25 2.63.3 0 2.22-2 4.27-4.44zm-58.32-2.73l2.34-3.17-2.92-2.32c-3.58-2.86-4.2-2.88-7.1-.14l-2.33 2.2 3.2 3.3c1.78 1.82 3.5 3.3 3.84 3.3.32 0 1.66-1.4 2.95-3.16zm22.4-3.26l2.63-3.43-2.9-2.06c-1.6-1.14-3.16-2.07-3.46-2.07-.3 0-1.74 1.57-3.2 3.5l-2.67 3.5 2.36 1.96c3.3 2.73 4.25 2.55 7.26-1.4zm-42.9 1.5c.3-.5.1-1.2-.46-1.56-.56-.34-1.02.07-1.02.93 0 1.77.6 2.03 1.46.64zm102.1-.7c2.7-.9 5.27-1.94 5.7-2.32.42-.38-1.3-2.16-3.82-3.97-2.5-1.8-4.68-3.13-4.8-2.93-.13.2-1.7 2.08-3.5 4.2-3.08 3.63-3.16 3.93-1.46 5.22 2.28 1.73 2.03 1.74 7.88-.2zM184.7 331.8c-3.36-2.58-4.18-2.32-8.2 2.6l-3.63 4.42 2.75 2.17 2.76 2.16 4.33-4.78 4.34-4.78-2.33-1.8zm-58.93 3.8l2.24-2.4-2.96-2.1c-3.67-2.63-4.4-2.64-6.67-.12-1.77 1.95-1.75 2.1.52 4.5 2.9 3.1 4.04 3.12 6.87.1zm85.1-5.55c0-.62-6.27-5.08-7.14-5.08-.28 0-1.92 1.75-3.63 3.88l-3.12 3.88 3.7 2.66 3.7 2.65 3.25-3.7c1.8-2.04 3.24-3.97 3.24-4.3zm-62.5 3.93l2.87-3-2.36-2.5c-3.03-3.23-3.73-3.16-7.7.7l-3.32 3.2 2.76 2.26c3.6 2.96 4.34 2.9 7.75-.66zm23.8-4.5l3.8-4.3-3.13-2.24-3.12-2.22-3.92 3.83c-2.16 2.1-3.92 4.23-3.92 4.7 0 1.17 4.2 4.67 5.5 4.6.55-.04 2.7-2 4.8-4.38zm55.08-.63c.35-1.72.62-4.3.6-5.75l-.03-2.63-2.94 3.5c-3.45 4.1-3.6 4.83-1.25 6.6 2.53 1.94 2.93 1.75 3.62-1.72zm-91.32-4.43l3.45-3.56-2.5-1.92c-1.38-1.06-2.98-1.93-3.57-1.95-1.18-.03-6.42 5.16-6.42 6.37 0 .8 4.08 4.5 5.05 4.57.3.02 2.1-1.57 4-3.52zm59.4-.14l2.96-3.56-2.33-1.87c-3.04-2.47-3.15-2.45-7.05 1.58l-3.36 3.46 2.4 2c3.23 2.68 3.92 2.53 7.37-1.62zm-80 .76c.32-.5.12-1.2-.44-1.56-.56-.34-1.02.07-1.02.93 0 1.77.6 2.03 1.46.64zm45.26-4.77l3.37-4.1-3.14-2.24-3.15-2.23-4.15 4.2-4.15 4.18 2.86 2.5c1.57 1.36 3.33 2.33 3.9 2.13.6-.18 2.6-2.18 4.45-4.43zm58.63.13c2.73-3.42 2.77-3.62 1-5-4.43-3.48-4.92-3.47-8.45.2l-3.4 3.52 2.8 2.42c3.72 3.22 4.68 3.08 8.05-1.14zm-34.4-9.45c-2.8-2.13-6.56-1.12-9.18 2.48-1.7 2.32-1.67 2.4 1.5 4.45l3.23 2.1 3.4-3.65 3.38-3.64-2.32-1.75zm-60.08 4.65l3.27-3.37-3.2-2.5c-2.8-2.2-3.66-2.38-7.22-1.58-4.94 1.1-5.72 1.56-5.72 3.3 0 1.22 7.54 7.52 9 7.52.33 0 2.08-1.52 3.87-3.37zm22.62-2.62c1.57-1.64 2.6-3.24 2.3-3.55-.3-.3-2.46-.65-4.8-.76-5.65-.27-7.53 2.2-3.94 5.2 3.15 2.62 3.07 2.63 6.44-.9zm59.44-1.6l3.15-3.56-2.63-2.07-2.62-2.07-3.6 3.6c-3.54 3.54-3.57 3.65-1.76 5.65 2.57 2.84 3.86 2.58 7.47-1.54zm21.78-2.66c1.14-1.24 2.26-3.7 2.5-5.5.43-3.07.28-3.24-2.63-3.18-2.2.06-3.85 1-5.84 3.4l-2.76 3.35 2.65 2.08c3.3 2.6 3.56 2.6 6.08-.16zm-35.7-2.75c0-.55-.2-1-.44-1-.25 0-.72.45-1.06 1-.34.55-.14 1 .44 1 .58 0 1.06-.45 1.06-1zm-5.22-5.9c19.3-7.44 25.25-8.6 37.22-7.23 4.12.47 7.55.8 7.6.74.07-.06.4-1.95.75-4.2l.62-4.1-8.73-.6c-11.96-.84-20.54.48-35.24 5.4-14.66 4.9-25.64 5.9-43 3.9-14.8-1.68-29.33-2.36-33.58-1.56l-3.63.68.7 4.7c.38 2.56.77 4.74.85 4.8.1.1 3.3-.5 7.16-1.33 8.36-1.78 20.8-1.18 33.5 1.62 4.67 1.02 11.77 1.9 15.78 1.97 6.45.1 8.72-.46 20-4.8zm29.22-.22c0-.48-1.35-.88-3-.88-3.42 0-3.77.72-1.25 2.56 1.75 1.28 4.25.3 4.25-1.68zm47.58-7.06c11.65-12.2 19.6-23.42 20.86-29.45.76-3.58-1-5.98-5.14-7.02-4.75-1.2-20.74.52-32.8 3.52-6.6 1.64-12.33 2.67-12.73 2.28-.98-.96 17.5-12.05 29.23-17.54 27.54-12.9 47.76-13.52 55.74-1.68 4.1 6.07 2.04 14-5.8 22.5-6.42 6.97-29.56 21.4-46.77 29.2l-7.67 3.5 5.08-5.33zm-186.1-14.2c-.87-2.1-2.52-7.8-3.66-12.7-1.4-6.06-2.58-9.03-3.7-9.37-.9-.28-7.47-1.2-14.62-2.02-21.98-2.56-21.75-2.52-20.55-3.97 2.18-2.63 10.4-4.06 22.77-3.98 11.9.1 12.22.03 11.74-2-1.86-7.8-4.46-24.82-4.46-29.12 0-9.78 5.7-10.92 16.6-3.3 13.6 9.5 31.54 25.03 39.92 34.6 7.73 8.8 20.8 27.13 18.3 25.62-3.35-2-36.97-28.36-44.82-35.12-8.6-7.4-12.3-9.36-14.18-7.48-.66.66-.77 4.4-.32 10.47l.7 9.44 7.72 2.23c11.65 3.35 26.65 12.07 20.8 12.07-.8 0-6.97-1.12-13.72-2.5-6.75-1.37-12.9-2.5-13.64-2.5-1.06 0-1.37 2.27-1.38 10.25-.02 12.16-1.1 15.1-3.5 9.4zm78.92-4.85c-3.9-4-13.33-14.48-20.95-23.28-7.62-8.8-20.45-23.2-28.5-32-21.67-23.68-28.95-32.38-28.95-34.58 0-3.1 4.8.32 30.44 21.62 17.1 14.2 21.58 19.04 31.54 33.95 5.45 8.16 12.05 15.5 13.93 15.5 1.63 0 4.08-3.7 4.08-6.16 0-.58-1.3-2.54-2.88-4.34-1.58-1.8-3.7-5.42-4.7-8.04-1.7-4.48-1.72-5.2-.22-12.35 2.4-11.4 3.25-13.1 6.56-13.1h2.8l-.38 9.78c-.3 7.3 0 10.7 1.16 13.5 3.22 7.7 5.3 3.54 6.9-13.68 1.08-11.75 1.12-11.87 2.92-9.65 2.6 3.22 4.84 11.5 4.84 17.98 0 7.6-4.84 40.4-6.86 46.57-.9 2.75-2.32 5.12-3.14 5.27-.83.16-4.7-3-8.6-7zM187.4 275c-1.65-1.83-1.77-3.24-1.18-14.28.82-15.47 2.8-23.83 7.18-30.46 9.2-13.92 33.4-32.26 48.4-36.7 7-2.05 16.88-2.03 24.36.07l5.92 1.66-8.85 3.17c-14.8 5.3-25.78 11.75-38.14 22.4-13.52 11.62-22 24.16-29.3 43.3-4.66 12.24-5.8 13.7-8.4 10.83zm17.48-10.8c0-1.72 12.06-19.24 18.77-27.27 15.55-18.6 31.4-27.3 54.5-29.88 15.36-1.72 26.33 1.5 36.92 10.85 5.4 4.77 11.3 11.9 10.5 12.7-.3.3-4.52-.27-9.37-1.28-15.63-3.27-35.95-1.83-50.4 3.58-2.98 1.12-15.1 7.48-26.92 14.14-20.9 11.78-32.4 17.93-33.47 17.93-.28 0-.52-.35-.52-.78z"/><path d="M59.73 444.42c-23.1-4.22-42.32-18.82-52.46-39.85-6.84-14.2-6.48-3.52-6.17-184.6l.28-163.5 2.7-7.3C12.8 25.64 31.74 8.8 56.03 3c8.1-1.95 11.78-2 123.35-2 110.13 0 115.34.07 123 1.9 9.97 2.42 16.13 5.1 24.7 10.74 12.23 8.07 22.35 21.07 27.62 35.5l2.68 7.33.26 164.42c.3 181.94.73 169.06-6.2 183.76-6.95 14.7-18.03 25.88-32.98 33.26-16.14 7.96-7.15 7.45-136.08 7.7-94.87.16-116.34-.04-122.65-1.2zm247.14-5.3c22.72-8.24 37.17-22.36 44.68-43.65l2.83-8 .28-160.5c.3-180.23.73-169.1-7.05-185-3.27-6.68-5.88-10.2-12.2-16.5C323.43 13.53 311.24 7.32 295.3 5 285.96 3.67 72.8 3.67 63.48 5 37.33 8.8 15.46 26.78 7.13 51.35l-2.75 8.13v163.5c0 155.72.1 163.78 1.83 169.44 7.04 22.78 23.45 39.44 45.76 46.46 3.53 1.1 7.54 2.2 8.92 2.44 1.37.23 55.82.37 121 .3l118.5-.13 6.5-2.35z"/></g></g></svg>