<svg xmlns="http://www.w3.org/2000/svg" width="358.496" height="445.806" viewBox="0 0 358.49649 445.80566"><g><g><path fill="#c38c8f" d="M56.48 444.38c-21.05-4.6-39.5-18.8-48.95-37.65C-.63 390.43-.1 403.7.2 219.85l.28-163.5 2.34-6.5c4.08-11.4 9-19.02 18.07-28.06C30.4 12.3 39.73 6.75 53 2.7L60.5.4l113-.32c76.3-.22 115.65.02 121.15.75 30.73 4.03 54.65 24.76 62.13 53.83 1.6 6.2 1.72 18.72 1.72 168.7 0 182.12.66 166.5-7.67 183.5-5.84 11.94-18.64 24.72-30.82 30.8-17.5 8.7-8.84 8.2-140.9 8.1-92.1-.05-117.86-.34-122.6-1.38zm246-4.8c3.3-.96 9.83-3.6 14.5-5.9 12-5.83 23.97-17.8 29.87-29.83 7.63-15.54 7.2-4.07 6.9-183.76l-.27-160.75-2.33-7C344.2 31.45 328 15.4 306.48 8.07l-8-2.72h-239l-8 2.82c-11.28 4-17.8 8-26.47 16.28-8.66 8.28-13.9 16.52-17.8 27.9l-2.72 8-.3 157.5c-.2 113.62.02 159.7.84 165.45 4.17 29.22 27.2 52.4 57.1 57.43 3.02.52 55.27.84 119.86.75 105.75-.14 114.96-.3 120.5-1.9zm-141.94-47.3c-33.5-22-64.7-32.43-107.86-36.03-6.27-.53-6.8-.74-6.5-2.74.4-2.76 5.6-5.32 17.3-8.47 7-1.9 12.34-2.54 24-2.9 15.34-.48 20.5.3 20.5 3.1 0 1.1-2.27 1.6-9.75 2.12-5.36.37-12 1-14.75 1.38l-5 .7 7.98 1.32c25.8 4.26 58.94 16.72 78.24 29.4l7.94 5.24 3.92-2.87c5.54-4.05 31.6-16.82 42.1-20.65 10.72-3.9 27.25-7.76 37.07-8.65 4-.36 7.25-.95 7.25-1.3 0-.38-4.05-2.4-9-4.53-13.24-5.67-14.54-8.55-3.86-8.55 7.42 0 17.34 3.2 30.86 10 7.96 4 10.1 5.52 10.62 7.6.85 3.37-.48 4.15-8.08 4.8-3.32.27-11.9 1-19.04 1.6-35.1 3.02-59.3 11.75-83.7 30.2-4.22 3.18-8.27 5.8-9 5.78-.7 0-5.77-2.95-11.24-6.54zm4.27-20.32c-16.9-11.85-29.02-17.02-43.9-18.7-3.25-.37-5.92-.95-5.93-1.3 0-.33-1.12-12.54-2.5-27.1-1.35-14.6-2.47-27.22-2.47-28.1 0-1.15-.76-1.45-2.9-1.14-7.8 1.15-2.76-5.5 8.2-10.8 8.4-4.03 13.3-4.42 27.2-2.1 24.66 4.06 29.48 3.86 57.56-2.47 19.8-4.46 29.73-4.8 43.3-1.53 12.02 2.9 17.62 5.47 17.62 8.03 0 1.78-.75 2.04-6.68 2.3l-6.68.3-5.27 29.5c-2.9 16.22-5.3 29.57-5.32 29.65-.02.08-2.4.7-5.3 1.4-9.1 2.14-25 7.98-31.3 11.47-3.35 1.86-10.23 6.55-15.3 10.43-5.08 3.88-9.55 7.02-9.94 7-.4-.04-5.07-3.1-10.4-6.84zm11.6-4c.32-.48-.13-1.46-.97-2.15-1.2-.98-1.8-1-2.73-.07-.93.94-.87 1.4.3 2.15 1.87 1.18 2.72 1.2 3.4.08zm-9.82-7.27c.4-.67-.27-1.98-1.57-3.03-1.83-1.5-2.56-1.6-3.75-.63-1.27 1.06-1.17 1.47.74 3.02 2.57 2.1 3.6 2.23 4.58.63zm21.3-.9c1.3-1.1 2.2-2.1 2-2.23-.22-.12-1.58-1.26-3.03-2.54l-2.64-2.3-2.2 3.1c-1.77 2.48-1.96 3.38-1 4.55 1.67 2 4 1.8 6.88-.6zm-31.9-9c0-.4-1.07-1.42-2.37-2.28-2.22-1.46-2.5-1.4-4.6.8l-2.2 2.36 2.84 1.5c2.55 1.35 3.03 1.34 4.6-.07.96-.85 1.74-1.9 1.74-2.3zm22-2.9c0-.3-.96-1.17-2.13-1.9-1.9-1.2-2.42-1.05-4.7 1.22-2.5 2.5-2.5 2.6-.68 4.6l1.86 2.07 2.83-2.72c1.55-1.5 2.82-2.96 2.82-3.28zm22.46 1.2c1.92-2.06 3.5-4.18 3.52-4.7 0-.54-1.2-1.97-2.73-3.2l-2.75-2.2-4.23 4.1-4.23 4.13 3.23 2.77c1.78 1.52 3.34 2.8 3.47 2.8.13.03 1.8-1.64 3.72-3.7zm-58.5-9.57l-3.16-2.84-2.48 2.32-2.48 2.33 3.28 2.74 3.28 2.73 2.37-2.23 2.38-2.23-3.18-2.84zm22.88 2.25l2.34-2.96-2.34-1.93c-2.33-1.93-2.34-1.93-5.26.95l-2.93 2.9 2.43 2c3.05 2.56 2.96 2.57 5.76-.97zm62.9 1l2.5-.97-3.76-2.97c-2.06-1.64-3.9-2.98-4.06-2.98-1.12 0-5.45 7.13-4.9 8.05.74 1.18 5.52.65 10.2-1.13zm-39.9-5c2.72-3.26 3.12-4.28 2.13-5.47-1.86-2.23-3.24-1.78-7.3 2.4l-3.77 3.84 2.3 1.6c1.27.88 2.53 1.62 2.8 1.64.28.02 2-1.78 3.84-4zm25.44-3.4l2.77-3.35-2.66-2.1c-3.4-2.66-3.46-2.65-6.92.96l-2.9 3.02 2.96 2.43c1.65 1.33 3.2 2.4 3.48 2.4.28-.03 1.75-1.55 3.28-3.38zm-83.1-.2c2.4-2.17 2.3-2.78-.76-4.8-2.44-1.6-2.7-1.6-4.52.06-1.9 1.72-1.9 1.78.26 4.08 2.6 2.78 2.68 2.8 5.02.67zm23.82-6.35c-3.2-2.48-3.34-2.46-6.7.53l-2.8 2.5 3 2.48 3 2.48 3-3.03 3-3.03-2.5-1.94zm23.38 1.14l3.8-3.87-3-2.13-3-2.13-3.48 4.18-3.47 4.2 2.15 1.78c1.17.98 2.38 1.8 2.68 1.82.3 0 2.25-1.7 4.33-3.85zm56-3.1l.67-3.5-2.93 3.5c-2.73 3.24-2.82 3.6-1.32 5.3 1.56 1.73 1.64 1.73 2.26 0 .35-1 .95-3.4 1.32-5.3zm-32.33-6.4l-2.16-2.12-3.08 3.42-3.1 3.43 2.37 1.92 2.36 1.9 2.88-3.2 2.88-3.22-2.15-2.13zm-59.58 3.4l2.84-2.95-2.4-1.98-2.42-1.98-2.94 2.9c-2.88 2.85-2.9 2.95-1.1 4.95 2.4 2.64 2.64 2.6 6-.92zm82.87-6.85l-2.64-2.33-3.1 3.12-3.1 3.14 2.94 2.56 2.93 2.55 2.8-3.36 2.8-3.35-2.63-2.33zm-57.55-1.9l-2.2-2.33-3.97 3.96-3.97 3.98 2.42 2 2.43 1.98 3.75-3.63 3.74-3.64-2.2-2.34zm22.72 1.73c2.76-2.9 2.8-3.05.96-4.4-2.17-1.58-4.04-1.14-7.18 1.68l-2.2 1.98 2.2 1.85c2.87 2.4 2.85 2.4 6.2-1.1zm-56.52-5c0-.43-1.17-1.54-2.6-2.48-1.97-1.3-3.7-1.55-7-1.06-5.44.83-5.6 2.4-.68 6.34l3.72 2.98 3.28-2.5c1.8-1.38 3.28-2.85 3.28-3.27zm79.5 1c2.8-2.93 2.83-3.04.94-4.47-2.6-1.98-2.65-1.97-6 1.54-2.86 3-2.88 3.12-1 4.5 2.6 1.92 2.76 1.88 6.07-1.57zm-59.62-.37c1.96-2.1 2.04-2.45.6-3-2.56-.98-5.96-.74-7.2.5-.87.86-.6 1.6 1.04 2.98 2.8 2.34 2.92 2.33 5.56-.48zm84.12-6.8c0-4.1-4.08-3.92-7.1.32l-2.24 3.15 2.32 1.88c2.3 1.86 2.36 1.85 4.68-.32 1.4-1.3 2.34-3.35 2.34-5.02zm-47.5-3.5c21.16-7.67 32.16-9.5 44.68-7.44l4.67.77.64-3.42c.35-1.9.38-3.7.05-4.02-.32-.33-7-.6-14.8-.6-13.88 0-14.52.08-25.74 3.85-10.2 3.44-12.86 3.93-23.5 4.3-8.1.3-15.9-.13-24-1.28-14.98-2.13-26.5-2.88-31.05-2.03-3.43.64-3.5.74-2.85 4.35.37 2.04.78 3.83.9 4 .14.14 4.26-.26 9.16-.92 9.48-1.26 15.6-.57 36.34 4.07 11.84 2.64 14.15 2.5 25.5-1.62zm32 .67c.34-.55-.1-1-1-1s-1.34.45-1 1c.34.55.8 1 1 1 .2 0 .66-.45 1-1zm-65.95-23.9c-1.46-.58-2.4-2.77-3.72-8.7-2.43-10.92-2.36-12.4.56-12.4 1.3 0 2.8.56 3.34 1.25 1.56 2.02 6.28 14.6 6.28 16.72 0 1.58-2.83 4.26-4.18 3.96-.17-.04-1.2-.42-2.27-.84zm-18.35-.96c-.75-.48-2-5.43-2.93-11.53-1.47-9.7-1.48-10.84-.05-12.26 3.04-3.03 5.34-.83 8.66 8.28 3.37 9.25 3.7 11.45 2.1 14.44-1.1 2-5.37 2.6-7.78 1.07zm31.14-1.92c-.63-.4-1.48-4.48-1.88-9.06l-.73-8.33 2.9.32c2.62.3 3.1 1 5.27 7.57 1.94 5.88 2.15 7.5 1.12 8.74-1.33 1.6-4.73 1.98-6.68.74zm11.83-.98c-1.4-2.7-3.46-15.04-2.8-16.74.85-2.23 4.3-1.84 6.06.7.86 1.2 2.5 5.04 3.66 8.53 1.68 5.03 1.86 6.62.9 7.78-1.7 2.05-6.7 1.87-7.8-.28zm15.74.14c-.88-1.05-1.36-4.47-1.38-9.75-.03-7.57.12-8.17 2.1-8.45 1.52-.22 2.7.64 4.12 3 2.5 4.13 3.8 13.42 2.17 15.4-1.56 1.9-5.36 1.77-7-.2zm-91.42-3.77c-4.4-2.4-10.92-5.4-14.5-6.65-7.7-2.74-9-3.6-9-6.07 0-2.34 3.72-3.36 8.76-2.42 5.24.98 22.28 9.9 25.68 13.45 3.2 3.33 2.9 6.08-.65 6.06-1.26 0-5.9-1.97-10.3-4.37zm107.25 2.3c-1.35-.8-1.75-2.35-1.75-6.9 0-6.16.8-7.54 3.83-6.57 2.06.64 5.88 11.3 4.52 12.55-1.6 1.47-4.84 1.92-6.6.9zm9.78-.54c-1.13-1.14-1.53-3-1.32-6.25.27-4.17.57-4.66 2.94-4.94 2.18-.25 2.82.25 3.75 2.9 1.64 4.72 1.36 7.7-.82 8.87-2.5 1.36-2.63 1.34-4.54-.57zM257.4 270c-3.55-1.2-5.57-1.44-6.66-.75-1.95 1.22-4.88-.92-4.5-3.28.2-1.27-.6-1.62-3.74-1.62-3.36 0-4.05-.35-4.3-2.2-.26-1.73-1.97-2.83-8-5.15-15.1-5.78-25.75-7.08-66.7-8.13-36.16-.94-45.03-1.92-58.5-6.5-9.4-3.2-29.97-13.38-45-22.26-9.74-5.75-11.54-7.2-11.8-9.52-.27-2.2.08-2.73 1.72-2.73 2.92 0 18.8 6.5 39.07 16 18.04 8.43 28.27 12.28 35.92 13.52l4.4.7-3.28-5.86c-4.72-8.4-9-13.97-16.36-21.22l-6.46-6.36-6.8 5.16c-3.76 2.83-7.64 5.02-8.63 4.86-2.62-.42-31.56-21-32.05-22.8-.6-2.2.23-4 1.9-4 2.3 0 9.05 3.76 20.1 11.17l10.25 6.9 3.76-3.55 3.75-3.55-4.5-4c-2.47-2.18-8.64-7.24-13.7-11.22-7.56-5.93-9.22-7.72-9.25-9.98-.1-5.4 4.57-3.23 26.5 12.34 23.78 16.9 31.05 24.6 44.85 47.66 2.85 4.75 4.3 6.25 6.04 6.25 1.26 0 4.34.28 6.85.62l4.56.63-.54-4.38c-1.26-10.12-7.1-16.87-24.08-27.72-3.34-2.15-5.24-4.06-5.24-5.3 0-4.38 6.1-3.17 15.93 3.18l6.07 3.92-3.58-5.4c-3.9-5.83-4.13-8.87-.76-9.36 1.58-.22 3.37 1.2 6.8 5.43 7.12 8.72 10.83 17.6 13.65 32.63l1.25 6.75h14.89l-.64-5.25c-.4-3.12-2.46-8.96-5.13-14.4-5.2-10.63-5.62-13.35-2.07-13.35 2.86 0 6.57 4.1 10.32 11.4l2.63 5.1.98-3.3c.73-2.5.53-5.25-.82-11-.97-4.24-1.83-9.05-1.9-10.7-.1-2.55.25-3 2.32-3 2 0 2.8.93 4.54 5.22l2.1 5.22 1.62-2.7c.9-1.46 4.7-6.17 8.46-10.45 6.5-7.38 7.06-7.8 11.03-7.8 3.35 0 4.3.4 4.84 2.07.4 1.3.06 2.74-.93 3.83-1.3 1.43-1.6 4.4-1.6 16.08v14.32l6.26-5.9c3.44-3.24 6.7-6.8 7.28-7.9.57-1.1 1.92-2.13 3-2.3 4.52-.73 4.64-.98 2.4-5.43-3.44-6.8-8.53-12.4-13.5-14.8-4.05-1.97-5.7-2.18-14.04-1.74-8.5.44-9.55.3-10.45-1.37-1.92-3.6.44-5.56 8.25-6.88 13.2-2.23 21.4-.03 29.6 7.9 5.9 5.75 10.66 13.5 13.27 21.63 2.6 8.06 4.72 11.45 9.53 15.1l3.42 2.62 7.26-6.15c10.98-9.32 16.07-11.46 28.4-11.9 8.38-.32 11.48 0 17.75 1.86 7.66 2.28 10.32 4 9.13 5.93-.9 1.48-4.35 1.3-11.66-.57-8.4-2.15-18.8-1.48-24.86 1.6-2.47 1.25-8.58 6.4-13.56 11.4-9 9.06-24.44 28.7-24.44 31.14 0 3.02 3.5 2.04 12.22-3.42 11.5-7.2 16.5-9.2 17.82-7.07 1.85 2.92 1.28 3.54-9.88 10.87-4.48 2.94-8.16 5.74-8.16 6.23 0 1.92 5.04.66 12.5-3.13 8.94-4.54 12.18-4.87 24.3-2.47 10.3 2.04 12.2 2.93 12.2 5.74 0 2.3-.05 2.32-13.25 2.27-12.27-.05-13.65.14-18.75 2.57-7.48 3.56-15.08 4.28-21.6 2.04zm-8.6-31.46c6.2-7.74 6.25-7.85 4.5-10.1-1-1.24-3.98-5.15-6.65-8.68-2.67-3.52-5.26-6.37-5.75-6.3-.5.04-1.28.16-1.75.24-.47.08-1.15 3.86-1.52 8.4-.35 4.54-1.5 12.07-2.53 16.75-1.04 4.67-1.82 8.55-1.74 8.62.1.06 1.5.83 3.15 1.7 2.86 1.5 3.07 1.48 4.5-.6.83-1.22 4.33-5.73 7.8-10.03zm-22.8 5.92c0-.2.9-4.76 2-10.1 1.1-5.36 2-10.7 1.96-11.87-.03-1.9-.38-1.75-3.05 1.35-3.15 3.64-12.24 18.02-11.72 18.52.27.25 8.06 2.1 10.05 2.37.42.06.75-.07.75-.28zm-18.9-16.1c1.12-3.94 2.25-11.84 2.58-18l.58-11-3.6 3.4c-4.96 4.7-10.16 15.08-13.14 26.2-1.38 5.17-2.5 9.93-2.5 10.6-.02.75 2.1 1.3 5.73 1.5 5.55.28 5.8.18 7.07-2.7.72-1.66 2.2-6.16 3.3-10zm-90.17 34.9c-5.45-5.85-14.37-11.47-23.97-15.12-9.54-3.63-12.08-5.64-10.45-8.28 1.82-2.94 16.04.6 26.12 6.5 6.92 4.06 15.38 12.76 15.38 15.82 0 2.16-1.6 3.67-3.9 3.67-.4 0-1.84-1.17-3.17-2.6zm-7.95-68.48c-.86-1.6-.75-2.6.5-4.5 1.84-2.83 1.22-4.53-3.13-8.56-4.26-3.95-6.65-4.9-18.23-7.25l-10.62-2.16v-2.97c0-2.7.73-3.36 8-7.15 4.4-2.3 12.28-5.63 17.5-7.4 5.23-1.8 10.47-3.6 11.66-4.03l2.15-.78-3.07-10c-2.53-8.3-2.84-10.3-1.78-11.58.7-.86 1.97-1.55 2.82-1.55 1.7 0 8.58 4.95 20.45 14.68l7.73 6.35 3.77-7.26c2.07-4 4.73-9.5 5.9-12.26 1.7-3.97 2.7-5.08 4.76-5.33 2.25-.27 2.88.3 4.46 4 1 2.38 2.64 6.8 3.63 9.82.98 3.02 1.9 5.65 2.07 5.84.16.17 3.15-1.04 6.64-2.7 7.68-3.67 14.9-5.7 17.15-4.85 2.13.82 2.2 6.9.15 12.7-.82 2.34-1.5 4.36-1.5 4.5 0 .14 2.82-.76 6.25-2 11.74-4.24 17.75-4.18 17.75.18 0 .8-3.2 5.13-7.14 9.63-10.5 12.03-16.1 21.06-16.25 26.07-.15 5.36-2.18 5.75-8.55 1.66-18.72-12.02-42.94-10.28-63.04 4.5-6.74 4.98-8.45 5.38-10.05 2.38zm11-23c-.56-5.18-1.22-10.4-1.5-11.62l-.47-2.18-8.25 2.8c-4.53 1.56-10.2 3.63-12.6 4.6l-4.36 1.77 7.4 2.14c8.23 2.36 12.9 4.93 17.24 9.47 1.62 1.68 3.07 2.93 3.23 2.76.16-.16-.15-4.54-.7-9.74zm66 3.15c1.1-2.16 4.23-6.88 6.97-10.5l4.98-6.57-4.7 2.4c-4.7 2.4-8.53 5.97-13.5 12.56l-2.6 3.47 2.7 1.2c3.9 1.73 3.96 1.7 6.14-2.57zm-49.77-22.08c-13.43-11.5-13.6-11.6-12.82-9 1.68 5.65 5.6 25.75 5.68 29 .06 3.12.6 2.37 5.07-7l5-10.5-2.92-2.5zm18.97 19.06l4.67-.05 1.08-5.05c1.5-6.97 1.36-13.5-.44-20.36-2.43-9.35-2.8-9.56-6.1-3.46-3.6 6.68-7.48 15.37-10.7 23.94l-2.45 6.58 4.65-.77c2.55-.42 6.73-.8 9.3-.82zm26.02-18.97c1.48-4.15 2.54-7.7 2.36-7.87-.55-.55-7.48 2.6-10.6 4.83-2.9 2.05-2.95 2.24-2.94 11.27v9.18l4.24-4.94c2.73-3.16 5.2-7.6 6.93-12.47zm100.92-12.66c-2.97-.8-7.25-2.26-9.5-3.25-3.55-1.55-4.7-1.63-8.27-.57-5.24 1.54-21.73 2.24-22.16.94-.18-.54 3.74-2.24 8.7-3.78l9.03-2.8-4.2-3.85c-4.74-4.32-8.72-6.7-8.72-5.22 0 1.58-17.97 17.23-19.03 16.58-1.83-1.14-.95-3.3 4.44-10.8 3.98-5.56 5.03-7.68 4-8.08-1.86-.7-1.8-3.6.14-6.38 1.15-1.64 2.56-2.22 5.38-2.22 2.35 0 4.35-.64 5.2-1.66 1.23-1.52 1.15-1.57-.82-.5-3.8 2-6.96 1.36-9.77-1.98-1.45-1.73-2.5-3.85-2.34-4.72.32-1.72 3.8-3.76 7.78-4.57 2.46-.5 2.5-.7 2.78-11.07.36-13.6 2.36-19.6 7-20.97 4.2-1.26 4.12-2.55-.2-2.55-2.55 0-4.03-.75-5.92-3-5.57-6.6-4.3-10 3.72-10 5.34-.02 27.9-2.4 33.14-3.52 2.25-.47 3.7-.1 5.75 1.5 5.05 4 2.26 10.02-4.62 10.02h-2.92l2.57 2c4.42 3.5 6.08 9.72 5.45 20.4-.33 5.45-1.2 10.6-2.1 12.36-1.5 2.87-6.1 7.38-8.85 8.65-1 .47-1.02.73-.05 1.18.68.32 2.25 1.4 3.48 2.4l2.25 1.8-2.2 8.32c-1.2 4.58-2 8.5-1.76 8.74.23.22 5.9 1.5 12.6 2.83 14.7 2.92 18.88 4.5 18.88 7.16 0 2.13-1.83 3.15-5.64 3.15-1.37 0-3.96 1.12-5.77 2.5-3.82 2.92-9.02 3.2-17.48.92zm-12.68-29.24c-.14-.18-1.62.38-3.3 1.25-4.03 2.08-5.73 1.98-7.44-.45-1.2-1.74-1.6-1.82-2.6-.58-1 1.2-.45 1.88 3.1 3.9 8.88 5.07 8.18 5.04 9.4.4.6-2.32.97-4.35.84-4.52zm2.22-7.88c1.78-.94 2.93-2.2 2.65-2.94-.63-1.62-9.76 1.65-12.67 4.56-1.93 1.93-1.9 1.94 2.45 1 2.42-.53 5.82-1.7 7.56-2.6zm-5.4-11.85l7.74-1.82v-20.4l-8.48 2.64c-4.67 1.45-8.5 3.14-8.5 3.76 0 .74 1.9.43 5.47-.88 4.46-1.65 5.76-1.8 7-.76 3.64 3.02 1 6.87-5.3 7.7-3.2.44-4.18.15-5.4-1.57-2.17-3.1-2.8-1.64-2.8 6.65 0 5.54.33 7.32 1.26 6.97.7-.27 4.74-1.3 9-2.3zm-7.66-2.6c-1.98-2.84-1.53-3.38 4.45-5.37 3.98-1.32 5.33-1.4 6.5-.45 2.6 2.16 1.7 4.84-2.17 6.46-4.92 2.05-7 1.9-8.78-.65zm17.2-27.6c1.8-.84 3.1-1.68 2.9-1.88-.94-.95-9.6 1.05-11.77 2.7l-2.42 1.86 4-.6c2.2-.32 5.48-1.26 7.3-2.1zm-137.6 76.55c-.75-.75-1.2-4.5-1.2-10 0-7.7-.2-8.8-1.75-8.82-.96 0-5.57-2.05-10.25-4.53-4.67-2.5-11.8-6.15-15.84-8.14l-7.34-3.62-6.66 1.2c-3.66.68-7.67 1.47-8.9 1.78-3.77.92-2.67-2.04 2-5.37 6.52-4.66 14.3-8.28 19.25-8.96 6.1-.85 14.6 3.4 24.27 12.1 4 3.6 7.83 6.54 8.5 6.52.67-.02 2.8-2.15 4.7-4.74 5.8-7.77 11.26-13.4 15.96-16.4 7.74-4.93 16.83-3.33 25.55 4.5 5.14 4.63 3.9 5.63-7 5.68-9.58.04-14.3 1.9-21.23 8.3-2.62 2.4-6.77 5.83-9.23 7.6l-4.47 3.18-.03 8.8c-.02 5.95-.48 9.34-1.4 10.46-1.63 1.95-3.28 2.1-4.94.45zm.6-43.42c-.4-8.68-.8-10.8-2.2-11.6-4.18-2.33-8.6-7.2-10.1-11.18-4.25-11.1 5.17-21.92 19.1-21.96 7.9-.03 14.2 3.44 18 9.93 5.18 8.82 1.4 18-9.5 23.12l-5.83 2.74-1.74 7.52c-1.86 8.13-3.78 12.03-5.9 12.03-1.02 0-1.47-2.62-1.83-10.62zm13.45-21.53c2.38-2.8 2.27-8.92-.2-11.57-1.08-1.16-3.38-2.4-5.12-2.8-3.82-.84-7.8 1.7-9.2 5.88-2.77 8.33 8.9 15.14 14.53 8.5z"/><path fill="#8c948b" d="M54.98 443.8c-21.27-5.5-38.8-19.58-48.08-38.58-7.3-14.94-6.88-3.9-6.9-182.46C-.02 67.36.05 61.93 1.9 54.62 7.16 34.15 21.14 17.22 40.5 7.9c16.68-8.04 7.7-7.55 138-7.55C310 .35 301.82-.13 319.3 8.6c7.56 3.78 10.8 6.2 18.27 13.67 7.37 7.37 9.86 10.68 13.24 17.58 8.34 17 7.68 1.37 7.68 183.5 0 153.5-.1 162.34-1.8 168.5-6.87 24.55-24.95 42.97-50.7 51.64-5.2 1.74-11.62 1.85-124.5 2.05-115.1.2-119.24.15-126.5-1.74zm240.94-3c15.3-2.5 28.68-9.3 39.06-19.92 7.55-7.72 12.07-14.9 15.82-25.2l2.68-7.33.27-161.73c.23-140.52.07-162.68-1.23-169-3.93-19.05-17.47-36.26-35.54-45.14-16.22-7.98-9.22-7.6-137.8-7.6C53.5 4.84 58.15 4.63 44.14 10.94c-14.86 6.7-25.53 16.93-32.75 31.4-7.9 15.8-7.5 5.48-7.16 185.06.33 176.9-.28 161.97 7.17 176.95 9.4 18.9 28.6 32.8 50.35 36.47 7.36 1.24 226.52 1.2 234.17-.03zM159.98 391.7c-31.6-20.94-64.73-32.1-105-35.38-9.1-.75-10.5-1.77-6.73-5.02 5.83-5.06 25.72-9.47 42.65-9.47 11.78 0 17.53 1.17 16.78 3.42-.36 1.1-4.93 1.76-21.2 3.1l-9 .72 11.02 2.23c30.84 6.25 59.16 17.2 77.45 29.92l6.3 4.38 6.12-4c7.4-4.8 29.1-15.4 40.1-19.55 10.57-3.98 22.63-6.9 35.5-8.57l10.5-1.36-8.98-4.2c-14.22-6.66-15.66-9.1-5.43-9.1 6.78 0 14.47 2.33 26.85 8.1 9.3 4.36 15.06 8.3 15.06 10.34 0 2.83-3.23 3.68-17.65 4.62-28.72 1.88-49.35 6.5-67.35 15.06-12.14 5.78-17.82 9.23-27.35 16.6-3.77 2.9-7.37 5.25-8 5.2-.63-.04-5.87-3.2-11.65-7.04zm8.07-17.86c-9.34-7.02-20.73-13.7-27.36-16.02-6.85-2.4-18.65-5-22.78-5-1.62 0-2.94-.33-2.95-.74 0-.4-1.12-12.68-2.5-27.25-1.35-14.58-2.47-27.23-2.47-28.1 0-1.15-.7-1.5-2.33-1.18-1.28.24-2.84-.2-3.5-1-1-1.2-.58-1.95 2.26-4.1 5.14-3.93 12.58-7.43 18.42-8.7 4.25-.9 7.32-.74 17.4.92 24.55 4.04 30.9 3.8 58.23-2.3 8.25-1.86 17.48-3.65 20.5-4 6.3-.7 20.23 1.42 29.74 4.55 12.04 3.96 13.66 8.42 2.82 7.75-4.97-.3-5.7-.1-6.12 1.65-.26 1.1-2.68 14.53-5.38 29.84-2.7 15.3-5.05 27.93-5.23 28.04-.17.12-4.76 1.47-10.2 3-18.67 5.3-30.63 11.27-44.04 22.04-3.8 3.06-7.2 5.54-7.5 5.5-.32-.05-3.47-2.26-7-4.92zm7.87-7.77c-1.62-1.14-2.37-1.2-3.27-.3-1.7 1.74 2.1 4.48 4.02 2.9 1.12-.93.98-1.4-.75-2.6zm11.56-5.82l3-2.5-2.9-2.55-2.9-2.54-3.02 3-3.03 3.04 2.43 2.02c3 2.5 2.8 2.53 6.42-.48zm-20.75.42c.86-.86.52-1.64-1.38-3.13-2.33-1.84-2.65-1.87-4.15-.37-1.5 1.5-1.47 1.74.33 3.1 2.38 1.8 3.7 1.9 5.2.4zm-11.86-8.04c1.22-1.95 1.13-2.38-.87-4-2.9-2.36-3.47-2.3-5.4.66-1.56 2.38-1.52 2.52 1.13 3.96 3.58 1.94 3.54 1.94 5.14-.62zm21.07-1.26c2.5-2.66 2.24-4.84-.75-6.44-1.57-.83-2.46-.46-4.8 2l-2.9 3 2.5 1.93c3.16 2.42 3.2 2.42 5.94-.5zm25.42-2.96l3.62-4.42-3.08-2.58c-1.7-1.43-3.4-2.6-3.8-2.6-.4 0-2.5 1.85-4.66 4.1l-3.96 4.07 3.47 2.93c1.9 1.6 3.76 2.92 4.13 2.92.36 0 2.3-2 4.28-4.4zm-58.7-3.76c2.97-2.78 2.94-3-.76-5.74l-3.1-2.28-2.4 2.28-2.44 2.28 2.7 2.8c1.48 1.56 2.92 2.83 3.2 2.83.27 0 1.54-.98 2.8-2.17zm22.65-2.65l2.7-2.8-2.53-2.4-2.54-2.38-3.22 3.25-3.22 3.26 2.37 1.95c3.04 2.5 3.25 2.48 6.46-.87zm60.17 1.6c2.48-.65 4.5-1.5 4.5-1.87 0-.37-1.6-1.9-3.6-3.42l-3.6-2.75-3.64 3.65c-3.03 3.04-3.4 3.82-2.15 4.6 1.97 1.27 3.1 1.24 8.5-.2zm-37-5.76c2.13-2.2 3.7-4.1 3.45-4.26-.24-.15-1.44-1.12-2.67-2.15-2.23-1.88-2.25-1.88-6.16 2.5-3.62 4.05-3.8 4.54-2.37 6.15 2.27 2.54 3.4 2.2 7.74-2.23zm25.14-3.6l2.73-3.57-2.92-2.4c-1.6-1.3-3.23-2.4-3.6-2.4-.4-.03-1.96 1.58-3.48 3.57l-2.76 3.63 2.96 2.37c1.63 1.3 3.28 2.37 3.66 2.37.4 0 1.93-1.6 3.43-3.56zm-83.12-.42c1.75-1.93 1.75-2.07 0-4-2.2-2.44-3.3-2.5-5.68-.33-1.8 1.62-1.78 1.74.34 4 2.67 2.84 3.05 2.86 5.34.33zm23.44-1.2l2.44-3.08-2.82-2.43-2.82-2.42-3.3 3.18-3.27 3.18 2.67 2.36c3.43 3.02 4.16 2.94 7.1-.78zm23.44-3.67l3.77-3.87-2.76-2.16-2.77-2.18-4.06 4.1-4.06 4.1 2.37 1.94c1.3 1.07 2.66 1.95 3.04 1.95.37 0 2.38-1.74 4.46-3.87zm55.94-2.5c.6-3.84.58-3.85-1.45-2-3.62 3.27-4.35 5.54-2.3 7.05 2.22 1.6 2.87.73 3.75-5.05zm-32.46-1.98l3.25-3.35-2.7-1.76c-2.63-1.74-2.7-1.72-5.73 1.3-3 3-3.03 3.1-1.22 5.1 2.4 2.67 2.58 2.63 6.4-1.3zm-58.53-1.47l2.7-2.8-2.4-2.28c-2.68-2.5-4.5-2.08-8.1 1.88-1.96 2.17-1.96 2.18.5 4.07 3.3 2.54 4.14 2.44 7.3-.87zm81.88-.87c3.43-3.3 3.46-4.3.2-6.67-2.57-1.87-2.57-1.87-6 1.44l-3.4 3.32 2.75 2.26c1.5 1.24 2.95 2.27 3.2 2.3.24 0 1.7-1.18 3.25-2.66zm-58.27-2.04c1.7-2.05 3.08-4.02 3.08-4.38 0-.36-1.17-1.43-2.6-2.37-2.6-1.7-2.66-1.67-6.56 2.13l-3.94 3.85 2.6 2.25c1.44 1.24 3 2.25 3.5 2.25.47 0 2.24-1.68 3.93-3.73zm25.27-5.63c2.48-4.63-4.9-5.84-8.86-1.46-1.76 1.96-1.73 2.07 1.16 4.37 2.8 2.24 3.06 2.28 4.83.67 1.02-.93 2.32-2.54 2.87-3.58zm-60.7-.63c2.78-2.9 2.8-3.04 1.03-5-2.82-3.1-12.55-2.45-12.48.85.03 1.47 6.34 7.13 7.94 7.13.36 0 1.94-1.34 3.5-2.98zm81.97-1.72l2.96-3.55-2.37-1.9-2.37-1.93-3.33 3.23-3.34 3.23 2.16 2.3c1.2 1.28 2.43 2.3 2.75 2.25.33-.04 1.9-1.67 3.54-3.63zm-60.13-3.92c-3.18-.94-4.12-.86-5.65.48-1.76 1.54-1.72 1.7.98 3.85l2.8 2.24 2.86-2.73 2.83-2.72-3.82-1.12zm82.74 1.37c1.03-1.24 1.9-3.5 1.9-5 .06-3.8-3.67-3.7-7.42.2l-2.84 2.98 2.4 2c3.08 2.57 3.7 2.55 5.96-.18zm-39.35-10.34c18-6.1 26.2-7.34 36.78-5.6 3.3.54 6.08.92 6.17.84.08-.08.46-1.8.84-3.8l.67-3.65-9.84-.74c-12-.9-20.6.32-34 4.77-9.66 3.22-10.16 3.28-26.85 3.17-11.4-.08-19.62-.65-25-1.75-8.2-1.7-24.07-2.2-26.18-.87-.76.5-1 2.24-.63 4.88l.55 4.12 3.63-1.05c7-2.05 23.6-1.08 37.13 2.15 6.88 1.64 14.24 3.02 16.36 3.06 2.22.04 10.87-2.3 20.35-5.52zm26.78 2.6c.36-.6-.57-1-2.2-1-2.17.02-2.46.24-1.3 1 1.93 1.23 2.74 1.23 3.5 0zm-66.53-24.34c-1.97-.98-2.75-2.73-4.27-9.5-2.1-9.24-1.78-11.46 1.52-11 1.72.26 2.97 2.06 5.44 7.83 1.76 4.12 3.23 8.5 3.27 9.7.1 3.04-2.86 4.5-5.95 2.97zm-18.9-1.08c-.7-.84-1.96-6.1-2.82-11.7-1.5-9.75-1.5-10.23.28-11.53 1.03-.74 2.22-1.35 2.65-1.35 1.4 0 3.68 4.32 6.48 12.27 3.32 9.43 2.72 13.04-2.25 13.53-1.84.18-3.57-.3-4.32-1.2zm31.64-1.84c-1.28-.94-1.76-3.1-1.95-8.75-.26-7.4-.23-7.5 2.23-7.5 2.57 0 2.5-.16 6.55 12.64.57 1.77-1.92 4.85-3.93 4.85-.68 0-2-.56-2.9-1.25zm11.44-.5c-.5-.96-1.43-4.83-2.08-8.6-.9-5.2-.9-7.17 0-8.24.64-.78 1.55-1.4 2-1.4 3.4 0 9.74 14.6 7.86 18.1-1.3 2.46-6.52 2.55-7.78.14zm16.4.4c-2.63-1.9-3.54-15.6-1.17-17.55 3.07-2.56 6.86 2.8 7.97 11.3.9 6.94-2.1 9.7-6.8 6.26zm-92.06-4.18c-4.4-2.44-11.23-5.62-15.18-7.06-7.4-2.7-9.26-4.57-7.12-7.14 2.07-2.5 9.32-.9 19.6 4.3 11.33 5.74 17.1 10.64 15.2 12.92-1.87 2.27-3.75 1.82-12.5-3.02zm117.62 1.9c-4.3-3.02-1.7-13.5 2.66-10.74 3.46 2.18 4.06 10.45.85 11.68-.76.3-2.34-.13-3.5-.94zm-10.92-.57c-1.85-1.86-1.55-11.73.38-12.47 2.22-.85 4.3 1.57 5.9 6.9 1 3.34 1.06 4.83.24 5.65-1.47 1.47-5 1.43-6.52-.08zm50.3-.5c-1.1-.2-3.67-1.1-5.72-2-3.08-1.3-4-1.36-5.3-.28-1.75 1.46-3.08.55-3.66-2.52-.32-1.63-1.06-1.95-4-1.72-3.17.25-3.72-.06-4.6-2.6-.88-2.5-2.18-3.25-10.6-6.04-15.08-5-25.42-6.17-63.62-7.15-46.16-1.2-51.62-2.22-76.85-14.5-20.16-9.82-39.15-21.28-39.15-23.63 0-1.06.65-2.18 1.44-2.48 1.78-.7 15.62 4.73 34.06 13.3 22.6 10.54 29.57 13.35 36.8 14.87 3.76.8 7.28 1.45 7.82 1.45 1.7 0-6-13.45-11.54-20.2-2.92-3.52-7.17-7.9-9.45-9.7l-4.13-3.28-7 5.2c-4.52 3.34-7.58 4.96-8.63 4.56-3-1.14-30.48-20.94-31.35-22.57-.5-.9-.5-2.22-.05-2.95 1.3-2.1 5.73-.05 19.57 9l12.4 8.13 4-3.34c2.22-1.85 4.04-3.62 4.05-3.95 0-.33-6.3-5.7-14.04-11.9-11-8.85-13.98-11.76-13.74-13.4.22-1.58.9-2.04 2.8-1.84 4.72.5 37.84 24.1 47.82 34.1 5.5 5.48 19.47 25.2 22.25 31.4.9 2.02 1.96 2.75 3.94 2.75 1.5 0 4.84.3 7.46.65l4.75.65-.64-3.4c-2.4-12.48-3.94-14.5-19.77-25.88-10.24-7.36-12.14-10.65-5.97-10.36 3 .15 6.42 1.88 15.62 7.9 3.25 2.14 3.16 1.85-1.7-5.32-1.9-2.8-2.67-4.95-2.26-6.25.95-3.03 2.84-2.4 7.27 2.4 8.2 8.88 11.7 16.5 14.8 32.14l1.7 8.48h15l-.67-5.75c-.44-3.83-2.2-8.85-5.24-15-4.43-8.98-4.97-12.25-2.02-12.25 2.07 0 7.9 6.84 10.68 12.54l2.42 4.95.95-4.4c.73-3.48.48-6.23-1.26-13.36-1.67-6.85-1.92-9.33-1.05-10.37 2.1-2.54 3.68-1.42 6 4.22 2.32 5.57 2.35 5.6 3.84 3.25.83-1.3 4.04-5.05 7.14-8.35 3.1-3.3 6.16-7 6.8-8.25.9-1.74 2.05-2.25 5.02-2.25 5.06 0 6.9 2.1 4.75 5.38-1.2 1.84-1.63 5.83-1.86 17.26l-.32 14.85 6.63-6.57c3.65-3.62 7.15-7.56 7.8-8.75.78-1.5 2.1-2.18 4.12-2.18 1.63 0 2.96-.5 2.96-1.13 0-2.38-6.2-11.83-10.06-15.3-5.6-5.08-8.03-5.76-19.23-5.4-7.83.24-10 0-10.75-1.2-1.3-2.04-1.22-2.43.85-4.3 1.98-1.8 10.25-3.67 16.14-3.67 14.36 0 28.14 12.76 34.54 31.98 2.12 6.36 3.47 8.65 7.04 11.94 2.43 2.25 5.02 4.08 5.75 4.08.74 0 2.66-1.4 4.28-3.1 4.78-5.06 15.14-12 20.12-13.5 9.23-2.78 27.1-1.15 35.58 3.24 6.43 3.3.25 5.47-8.38 2.9-6.2-1.83-17.18-2.03-22-.4-7.75 2.65-17 10.74-28.53 24.97-7 8.63-14.36 18.88-14.36 19.97 0 .43.92 1.06 2.03 1.42 1.45.46 4.3-.8 9.76-4.3 13.46-8.6 18.53-10.68 19.5-7.96.85 2.37-1.2 4.44-10.2 10.34-4.98 3.25-9.05 6.25-9.06 6.66-.04 1.9 6.35.38 14.04-3.35 7.98-3.9 8.8-4.08 14.94-3.5 3.58.32 9.65 1.38 13.5 2.34 6.34 1.58 7 2 7 4.25v2.5L298.3 265c-11.76-.36-12.4-.28-19 2.66-6.6 2.94-13.7 4.33-17.82 3.5zm-18.62-24.55c1.64-2.34 5.24-6.95 8-10.25l5-6-2.8-3c-1.56-1.65-4.86-5.8-7.33-9.2-5.8-7.97-7.24-7.22-8.14 4.2-.36 4.4-1.32 10.92-2.13 14.5-.82 3.57-1.72 7.5-2 8.7-.38 1.68.17 2.6 2.25 3.72 3.83 2.08 3.8 2.1 7.14-2.67zm-15.5-8.5c.83-3.7 1.82-9.23 2.2-12.25l.7-5.5-2.73 2.5c-2.5 2.3-12.55 17.55-12.55 19.07 0 .57 6.6 2.5 9.67 2.8.66.08 1.84-2.8 2.7-6.62zm-22-4c3.34-10.25 4.62-17.9 4.62-27.6v-7.96l-2.05 1.86c-6.45 5.84-14.28 23.06-16.42 36.14l-.67 4.2 5.33.37c2.93.2 5.62.46 6 .56.36.1 1.8-3.3 3.2-7.56zm-91.6 26.14c-6.62-5.92-13.18-9.65-23.57-13.4-6.43-2.34-8.73-4.54-7.24-6.95 1.4-2.26 10.2-.53 19.54 3.84 8.62 4.04 19.73 13.17 21.04 17.28.6 1.9-1 4.83-2.64 4.83-.46 0-3.67-2.53-7.13-5.6zm-4.2-64.96c-1.96-1.96-1.98-2.9-.08-4.8 2.18-2.17 1.88-3.72-1.55-7.88-3.3-4.02-10.03-6.66-22.43-8.82-6.68-1.16-8.92-2.64-8.35-5.52.45-2.28 16.84-10.35 29.33-14.45 5.5-1.8 10.16-3.4 10.36-3.55.2-.15-1.06-4.5-2.78-9.68-1.72-5.17-2.86-10.1-2.53-10.98 1.73-4.52 6.17-2.28 22.38 11.26 4.64 3.87 8.77 6.7 9.2 6.27 1.26-1.3 10.52-19.62 11.13-22.03.36-1.43 1.32-2.25 2.64-2.25 2.98 0 5.36 4.42 10.6 19.68.27.8 2.14.26 5.7-1.65 6.68-3.57 16.1-6.52 18.2-5.7 2.1.8 2.16 7.44.1 12.32-2.18 5.26-1.95 5.5 3.26 3.46 2.62-1.03 7.4-2.46 10.63-3.18 5.45-1.2 5.98-1.17 7.25.57 2 2.73 1.86 3.1-3.43 8.8-11.4 12.3-18.6 23.3-18.65 28.55-.06 5.46-2.15 5.85-9.04 1.7-9-5.45-15.3-7.05-27.5-7.03-8.25.02-11.9.5-17.12 2.3-7.2 2.46-16.88 7.9-20.93 11.75-3 2.84-4.23 3-6.37.86zm10.3-24.53c-.63-5.72-1.42-10.92-1.76-11.56-.56-1.08-11.56 2.14-22.62 6.6l-3 1.2 7.2 2.3c8.2 2.62 14.7 6.16 18.22 9.95 1.34 1.43 2.58 2.44 2.77 2.25.2-.2-.18-5.03-.8-10.75zm67.9 1.85c2.2-3.44 5.43-8.17 7.2-10.5l3.2-4.27-2.82 1.07c-5.68 2.16-9.68 5.38-14.03 11.3l-4.43 6.02 2.3 1.28c3.72 2.06 4.38 1.68 8.58-4.9zm-53.1-21.34c-2.6-2.36-6.42-5.62-8.48-7.25l-3.73-2.95 2.7 10.65c1.5 5.86 3.03 13.8 3.43 17.65l.72 7 5.06-10.4 5.05-10.4-4.73-4.3zm20.47 20.65c5.6-.06 5.8-.45 6.52-12.05.44-7.16.15-9.7-1.87-16l-2.4-7.5-5.63 11.5c-3.1 6.32-6.76 14.7-8.12 18.58l-2.48 7.08 4.67-.76c2.56-.43 6.75-.8 9.3-.83zm26.62-19.7l2.86-8.16-2.3.88c-3.9 1.48-8.72 4.1-10.57 5.7-1.43 1.26-1.75 3.24-1.75 10.98v9.45l4.46-5.35c3-3.6 5.4-8.02 7.3-13.5zm102.73-11.83c-3.3-.72-8.33-2.2-11.18-3.3-4.82-1.84-5.64-1.88-11.34-.56-3.4.8-9.6 1.3-13.8 1.14l-7.68-.3 7.3-2.3c4.02-1.25 8.46-2.72 9.87-3.26l2.57-.97-4.76-4.22c-2.62-2.33-5.3-4.54-5.92-4.92-.67-.4-4.68 2.63-9.6 7.25-7.9 7.43-11.4 9.83-12.6 8.63-.76-.75 2.4-6.56 6.8-12.43 2.15-2.9 3.42-5.25 2.82-5.25-.65 0-.97-1.5-.8-3.72.3-3.56.53-3.77 4.82-4.6 2.48-.46 5.18-1.55 6-2.4 1.34-1.4 1.3-1.5-.34-.92-4.95 1.75-6.34 1.68-9-.4-2.14-1.7-2.7-2.88-2.46-5.27.27-2.76.8-3.2 4.8-4.18l4.5-1.1.6-11.45c.8-15.03 3.5-21.8 8.15-20.36 1.16.36 1.75 0 1.75-1.02 0-1.1-.95-1.57-3.1-1.57-3.92 0-8.9-5-8.9-8.94v-2.7l18.25-1.8c10.04-.96 19.03-2.18 19.98-2.68 4.55-2.4 11.07 3.02 9.02 7.5-.9 1.98-2.44 2.52-11.4 4-7.63 1.27-10.86 2.26-12.34 3.8l-2 2.07 4.5-.68c2.48-.37 5.54-1.35 6.8-2.18 1.28-.83 3.75-1.37 5.5-1.2 5.08.5 6.7 4.88 6.7 18.1 0 12.22-1.1 15.93-5.94 20-3.2 2.7-7.6 3.6-8.23 1.7-.53-1.63-9.24 1.77-11.94 4.65l-2.38 2.53 4-.73c2.2-.4 5.22-1.33 6.7-2.08 3.7-1.88 7.84-1.68 10.7.52l2.4 1.84-2.23 8.25c-1.23 4.54-1.85 8.62-1.4 9.07.46.44 5.86 1.75 12 2.9 14.64 2.75 18.83 4.23 18.83 6.65 0 1.44-.84 1.98-3.45 2.23-1.9.18-5.1 1.63-7.15 3.25-4.1 3.24-6.26 3.45-15.4 1.44zM269 115.75c.62-2.26.9-4.32.64-4.58-.26-.26-1.84.24-3.5 1.1-4.05 2.1-5.75 2-7.46-.44-1.32-1.88-1.5-1.9-2.8-.34-.83.98-1 1.82-.4 2.03.55.2 3.25 1.7 6 3.32 2.75 1.63 5.32 2.97 5.72 2.98.4 0 1.2-1.83 1.8-4.08zm-3.6-24c8.34-2.08 8.35-2.1 8.96-5.74.88-5.34.76-15.95-.2-16.54-.9-.55-16.27 4.07-17.3 5.2-1.25 1.35-2.1 19.2-.9 19.2.6 0 4.85-.95 9.44-2.1zm-6.22-2.1c-2.5-2.5-1.27-4.4 4-6.08 3.8-1.2 5.53-1.36 6.5-.57 2.52 2.1 1.44 4.58-2.72 6.24-4.8 1.92-6.2 2-7.78.4zm.05-8.94c-2.5-2.5-1.4-4.55 3.13-5.82 2.4-.67 5.23-1.06 6.25-.87 2.55.5 3 4.45.68 5.7-3.38 1.8-8.72 2.34-10.05 1zm-121.05 56.95c-.75-.75-1.2-4.48-1.2-9.95v-8.76l-3.62-1c-2-.55-9.08-4.06-15.75-7.8-13.18-7.4-15.83-7.94-28.38-5.9-4.33.72-5.18.62-4.74-.5.8-2.13 9.46-7.68 15.55-10 11.2-4.27 19.54-1.5 33.47 11.12 3.03 2.74 6.1 5 6.8 5 .72 0 3.4-2.88 5.97-6.38 9.17-12.5 18.17-18.4 26.03-17.1 4.75.8 8.72 2.6 13.43 6.14 5.36 4 4.37 5.33-4 5.34-9.86 0-13.9 1.32-20.03 6.55-2.87 2.46-8.03 6.57-11.47 9.14l-6.25 4.67v8.4c0 10.8-2.08 14.77-5.8 11.05zm.8-43.05V84.35l-4.66-3.5c-6.37-4.78-8.56-9.1-8.06-15.8.7-9.16 6.3-14.08 17.13-14.94 3.55-.28 7.82 0 9.8.66 4.7 1.54 10.54 7.55 11.96 12.27 2.3 7.72-3.32 17.1-11.9 19.86-2.08.65-4.13 1.5-4.56 1.9-.43.4-1.68 4.47-2.78 9.07-2.07 8.68-3.24 10.98-5.56 10.98-1.08 0-1.38-2.2-1.38-10.25zm11.84-20.35c7.1-4.98 3.13-16.4-5.7-16.4-2.07 0-3.73.92-5.55 3.08-4.1 4.86-3.18 10.45 2.2 13.36 3.56 1.93 6.25 1.9 9.05-.05z"/><path fill="#7f7f7f" d="M54.98 443.8c-21.27-5.5-38.8-19.58-48.08-38.58-7.3-14.94-6.88-3.9-6.9-182.46C-.02 67.36.05 61.93 1.9 54.62 7.16 34.15 21.14 17.22 40.5 7.9c16.68-8.04 7.7-7.55 138-7.55C310 .35 301.82-.13 319.3 8.6c7.56 3.78 10.8 6.2 18.27 13.67 7.37 7.37 9.86 10.68 13.24 17.58 8.34 17 7.68 1.37 7.68 183.5 0 153.5-.1 162.34-1.8 168.5-6.87 24.55-24.95 42.97-50.7 51.64-5.2 1.74-11.62 1.85-124.5 2.05-115.1.2-119.24.15-126.5-1.74zm240.94-3c15.3-2.5 28.68-9.3 39.06-19.92 7.55-7.72 12.07-14.9 15.82-25.2l2.68-7.33.27-161.73c.23-140.52.07-162.68-1.23-169-3.93-19.05-17.47-36.26-35.54-45.14-16.22-7.98-9.22-7.6-137.8-7.6C53.5 4.84 58.15 4.63 44.14 10.94c-14.86 6.7-25.53 16.93-32.75 31.4-7.9 15.8-7.5 5.48-7.16 185.06.33 176.9-.28 161.97 7.17 176.95 9.4 18.9 28.6 32.8 50.35 36.47 7.36 1.24 226.52 1.2 234.17-.03zm-136.44-49.5c-21.76-14.66-48.2-25.82-73.27-30.96-13.05-2.68-26.34-4.48-33.2-4.5-14.63-.06-3.7-7.6 17.48-12.06 6.72-1.42 30.48-1.86 34.83-.64 5.9 1.64 2.17 3.2-9.44 3.93-6.3.4-13.25 1.1-15.42 1.56-3.83.8-3.64.9 5.54 2.56 28.58 5.16 60.28 17.03 78.85 29.5 3.1 2.1 6.12 4.07 6.7 4.4.57.34 3.04-.75 5.5-2.42 6.2-4.2 24.15-13.13 36.82-18.32 12.84-5.25 23.2-7.98 39.42-10.38l12.2-1.8-8-3.64c-11.6-5.28-13-6.1-13-7.73 0-4.5 16.78-.98 33.2 6.97 12.03 5.84 15.8 9 13.45 11.34-.58.6-8.6 1.66-17.84 2.4-42.33 3.36-65.3 10.97-91.57 30.34-5.22 3.85-9.9 6.98-10.36 6.93-.47-.04-5.8-3.4-11.86-7.48zm7.1-18.42c-16.4-12.02-25.23-16.16-41.18-19.32l-10.08-2-2.22-25.6c-2.8-32.2-2.56-31.02-5.9-30.8-7.27.5.52-7.12 11.6-11.33 6.6-2.52 12.03-2.5 27.9.12 17.88 2.94 29.78 2.3 50.78-2.7 14.05-3.34 17.47-3.8 28-3.75 12.42.05 23.43 2.2 31.44 6.1 5.94 2.9 4.7 4.8-3 4.54l-6.58-.2-5.23 29.7c-2.88 16.34-5.54 29.97-5.92 30.3-.38.32-4.52 1.6-9.2 2.85-17.65 4.7-28.5 10.15-44.08 22.2-4.18 3.2-7.78 5.8-8 5.76-.23-.05-3.97-2.7-8.3-5.88zm9.34-6.8c-1.62-1.12-2.37-1.2-3.27-.28-1.7 1.74 2.1 4.48 4.02 2.9 1.12-.93.98-1.4-.75-2.6zm-10.54-8.5c-2.4-1.87-2.66-1.9-4.23-.32-1.56 1.58-1.5 1.8.83 3.57 2.26 1.72 2.64 1.75 4.22.33 1.62-1.48 1.58-1.7-.82-3.57zm22.2 2.9l3.5-2.38-3.2-2.7-3.22-2.7-3 3.03-3.03 3 2.43 2.03c1.33 1.1 2.56 2.04 2.73 2.06.15 0 1.86-1.04 3.78-2.34zm-32.77-7.73c1.13-1.78 1.06-2.38-.4-4-.95-1.04-2.32-1.9-3.05-1.9-1.28 0-5.02 4.74-4.25 5.38 1.1.93 4.5 2.56 5.4 2.6.55 0 1.6-.92 2.3-2.08zm20.87-1.07c2.85-2.68 2.9-4 .27-6.37-2-1.8-2.1-1.77-5.25 1.4l-3.22 3.23 2.5 1.94c3.12 2.4 2.9 2.42 5.7-.2zm25.9-3.36c3.57-4.37 3.64-4.6 1.8-6.02-5-3.92-5.4-3.9-9.77.5l-4.12 4.15 3.27 2.95c1.8 1.62 3.68 2.95 4.18 2.95.5 0 2.6-2.04 4.63-4.53zm-58.9-3.64c2.98-2.8 2.93-3.26-.75-5.88l-3.06-2.18-2.45 2.3-2.44 2.3 2.7 2.8c1.48 1.56 2.92 2.83 3.2 2.83.27 0 1.54-.98 2.8-2.17zm83.2-.92c2.27-.67 4.1-1.58 4.1-2.02 0-.43-1.6-2-3.55-3.5l-3.57-2.73-3.65 3.66c-3.55 3.55-3.6 3.7-1.68 5.14 1.08.82 2.48 1.3 3.1 1.1.64-.23 3-.96 5.26-1.64zm-60.56-1.73l2.7-2.8-2.53-2.4-2.54-2.38-3.22 3.25-3.22 3.26 2.37 1.95c3.04 2.5 3.25 2.48 6.46-.87zm-42.82-.18c.34-.55.15-1-.44-1-.58 0-1.06.45-1.06 1s.2 1 .45 1c.24 0 .7-.45 1.05-1zm65.7-3.7c2.1-2.04 3.8-4 3.8-4.4 0-.36-1.15-1.43-2.55-2.35-2.54-1.66-2.6-1.63-6.4 2.64-3.55 3.97-3.74 4.45-2.3 6.06 2.22 2.48 3.18 2.23 7.46-1.95zm25.22-3.38c1.42-1.7 2.58-3.4 2.58-3.8 0-.4-1.42-1.8-3.16-3.1l-3.17-2.33-2.83 3.17c-3.5 3.9-3.5 4.48-.2 7.08 3.4 2.68 3.7 2.64 6.78-1zm-57.44-5c0-.3-1.1-1.63-2.5-2.93l-2.5-2.36-3.48 3.37-3.47 3.37 3.24 2.76 3.24 2.76 2.73-3.2c1.5-1.75 2.74-3.45 2.76-3.77zm-25.36 3.97l2.24-2.1-2.68-2.32-2.68-2.32-2.25 2.1-2.26 2.1 2.18 2.33c2.66 2.83 2.67 2.83 5.45.2zm46.7-4.7l3.72-3.8-2.55-2.4-2.55-2.4-4.16 4.16c-4.1 4.1-4.13 4.2-2.3 6.2 2.55 2.84 3.57 2.6 7.84-1.76zm55.68 1.93c0-1.03.3-3.4.66-5.25l.65-3.37-2.26 2c-3.78 3.34-4.58 5.64-2.5 7.17 2.5 1.82 3.44 1.67 3.44-.55zm-32.1-6.53l3.32-3.4-2.66-1.75c-2.62-1.73-2.7-1.7-6.13 1.63l-3.47 3.37 2.28 1.75c3 2.3 2.88 2.33 6.7-1.6zm-58.08-6.28c-2.84-3.03-3.86-2.92-7.38.77l-2.94 3.08 3 2.4 2.97 2.4 3.26-3.17 3.27-3.16-2.17-2.3zm82.07 3.3l3.27-3.36-3.15-2.25-3.17-2.25-3.43 3.33-3.43 3.33 2.76 2.26c1.5 1.24 3 2.27 3.3 2.3.3 0 2.03-1.5 3.84-3.35zm-59-1.15c3.78-4.28 3.8-4.76.5-6.93-2.58-1.7-2.65-1.67-6.55 2.13l-3.94 3.85 2.6 2.25c1.44 1.24 3 2.25 3.46 2.25.46 0 2.23-1.6 3.94-3.54zm25.28-5.75c.67-1.25.6-2.28-.22-3.26-1.77-2.14-4.48-1.76-7.64 1.06l-2.82 2.5 2.97 2.46c2.8 2.32 3.07 2.36 4.84.75 1.02-.93 2.3-2.52 2.85-3.52zm-60.65-.72l2.9-3.02-2.6-2.6c-2.52-2.5-2.8-2.56-7.7-1.38-2.82.68-5.12 1.75-5.12 2.38 0 1.34 7 7.56 8.57 7.6.58.03 2.36-1.3 3.95-2.97zm81.9-1.62l2.9-3.48-2.17-2.16-2.16-2.17-3.67 3.67-3.67 3.67 2.43 2.02c1.33 1.1 2.65 2 2.92 1.98.28-.02 1.8-1.6 3.4-3.53zm-57.16-3.44c-.42-.38-2.13-1-3.82-1.34-2.3-.5-3.48-.17-4.8 1.28-1.67 1.84-1.63 2 .98 4.06l2.72 2.14 2.84-2.72c1.56-1.5 2.5-3.03 2.08-3.42zm82.23-3.78c.7-2.7.72-2.67-2.04-3.5-1.5-.47-2.94.3-5.47 2.9l-3.43 3.53 2.98 2.4 2.98 2.4 2.2-2.68c1.2-1.47 2.45-3.74 2.8-5.04zm-42.02-5.38l15.03-5.25 14.5-.1 14.5-.1.6-3.6.57-3.6-5.4-.67c-11.33-1.42-25.93.12-38.27 4.02-17.43 5.52-28.72 5.68-57.56.86-7.65-1.28-11.5-1.46-16-.75l-5.94.95v9l4-.5c10.33-1.3 27.05-.28 37.5 2.27 15.74 3.84 18.88 3.62 36.47-2.52zm27.28 1.5c.27-.8-.54-1.25-2.16-1.25-2.53 0-3.3.96-1.88 2.37 1 1.03 3.55.33 4.03-1.12zm-84.86-24.46c-1.75-1.4-5.2-19.82-4.2-22.42.35-.9 1.57-1.36 3.14-1.17 2.28.26 2.97 1.38 5.8 9.3 2.7 7.5 3.34 12.12 2 14.17-.7 1.05-5.47 1.14-6.73.12zm17.3.34c-1.7-1.07-5.5-18.23-4.3-19.42.5-.5 1.68-.74 2.64-.55 2.12.42 9.08 16.85 8.16 19.24-.65 1.7-4.3 2.13-6.5.74zm26.15-1.88c-.65-.42-1.83-4.24-2.63-8.5-1.2-6.3-1.23-8.03-.18-9.47 1.22-1.67 1.4-1.66 3.35.12 2.6 2.35 6.3 12.1 5.9 15.52-.2 1.92-.93 2.65-2.8 2.84-1.36.15-3-.08-3.65-.5zm15.45-.5c-1.07-.84-1.8-3.7-2.25-8.82-.56-6.32-.4-7.8.95-8.92 3.38-2.8 7.43 4.84 7.5 14.13.02 4.58-2.83 6.24-6.2 3.6zm-93.6-5.24c-5.66-3-12.75-6.22-15.74-7.16-4.64-1.46-5.45-2.08-5.45-4.15 0-2.35.2-2.43 5.75-2 4.03.3 7.96 1.54 13.1 4.14 11.4 5.74 16.33 9.44 15.96 11.98-.18 1.18-1 2.26-1.82 2.4-.82.12-6.13-2.22-11.8-5.22zm64.48 4.82c-.37-.36-.67-4.22-.67-8.57 0-7.55.1-7.88 2.2-7.57 1.73.25 2.57 1.6 4 6.32 2.7 9.06 2.48 10.5-1.53 10.5-1.83 0-3.63-.3-4-.67zm43.6-3.08c-.37-.96-.7-3.77-.72-6.25-.04-4.12.16-4.5 2.4-4.5 2.05 0 2.7.77 3.9 4.65.8 2.56 1.17 5.37.83 6.25-.84 2.18-5.56 2.07-6.4-.15zm10.4 1.08c-.37-.36-.67-2.85-.67-5.53 0-3.6.43-5.03 1.65-5.5 2.4-.92 4.35 2.38 4.35 7.4 0 3.84-.25 4.3-2.33 4.3-1.28 0-2.63-.3-3-.67zm34.83-2.8c-1.75-.84-4.34-1.2-6.25-.87-2.98.53-3.25.36-3.25-2.04 0-2.68-.53-2.95-5.25-2.64-2.12.14-2.75-.26-2.75-1.77 0-1.38-1.38-2.54-4.75-3.95-17.4-7.33-30.03-9.02-76.75-10.26-36.96-.98-41.78-1.66-58-8.12-15.97-6.37-48.5-24.33-50.87-28.1-.77-1.24-.76-2.03.06-2.85 1.46-1.46 11.36 2.3 36.32 13.77 23.58 10.84 28.96 12.96 37.25 14.67 5.03 1.05 6.75 1.1 6.75.24 0-2.95-11-18.76-17.64-25.34-4.03-4-7.7-7.25-8.16-7.25-.47 0-3.5 2-6.77 4.47-3.25 2.46-6.94 4.5-8.2 4.5-3.35.04-32.22-20.62-32.22-23.06 0-4.3 5.18-2.25 20.7 8.22 5.62 3.78 10.48 6.87 10.82 6.87.97 0 8.48-6.26 8.48-7.08 0-.4-6.3-5.77-14-11.92-13.8-11.03-16.97-15-11.95-15 3.07 0 7.1 2.35 21.95 12.8 25.2 17.73 32.1 24.62 43.65 43.76 7.76 12.85 7.28 12.45 14.84 12.45 6.44 0 6.5-.03 6.5-2.75 0-9.04-5.6-16.34-20.08-26.26-5.9-4.04-8.92-6.74-8.92-8 0-1.02.34-2.08.76-2.34 1.15-.7 7.9 1.86 12.04 4.58 2.04 1.34 5.02 3.3 6.63 4.33l2.94 1.9-3.68-5.74c-2.02-3.16-3.68-6.6-3.68-7.67 0-5.55 5.54-1.73 12.15 8.37 4.4 6.73 8.4 18.33 9.42 27.42l.7 6.15h16.4l-.83-6.1c-.56-4.08-2.34-9-5.44-15-4.42-8.55-5-11.9-2.1-11.9 2.13 0 6.44 5.1 10.13 12l3.42 6.4.7-3.76c.8-4.23.25-10.4-1.65-18.9-1-4.36-1.02-6.02-.13-6.9 1.78-1.78 3.86.5 5.8 6.3l1.66 5 3.3-4.82c1.8-2.66 5.17-6.63 7.48-8.83 2.3-2.2 4.6-5.04 5.1-6.3.77-2 1.5-2.27 5.15-2 3.65.26 4.3.65 4.6 2.74.2 1.34-.26 2.9-1 3.5-1.02.8-1.35 4.68-1.35 16.1v15.06l6.3-6.3c3.48-3.47 6.74-6.3 7.26-6.3.52 0 .94-.86.94-1.9 0-2.12 2.23-3.35 4.5-2.48 5.35 2.06.03-10-7.55-17.08-5.76-5.4-10.5-6.8-21.32-6.37-8.08.32-8.12.3-8.12-2.18 0-3.42 4.6-4.88 15.5-4.92 6.24-.03 9.6.46 12.64 1.84 9.1 4.13 17.3 14.34 21.68 26.9 3.04 8.77 5.66 12.82 10.55 16.33l3.63 2.6 6.5-5.92c3.58-3.25 9.42-7.36 12.98-9.12 6.14-3.04 7.06-3.2 17.5-3.15 9.07.05 12.25.5 17.95 2.52 9.14 3.25 10.05 5.4 1.96 4.62-3.23-.3-8.13-1.07-10.88-1.68-11.57-2.6-21.6 1.28-33.26 12.82-7.57 7.5-18.14 20.4-23.74 28.95-2.7 4.1-2.72 4.33-.95 5.63 2 1.47 1.2 1.85 15.02-7 4.48-2.86 12.26-6.4 14.06-6.4.22 0 .38 1.05.38 2.35 0 1.88-2.1 3.8-10.1 9.26l-10.1 6.9 4.15.3c3.22.24 5.53-.45 10.35-3.12 8.55-4.72 10.45-5 21.52-3.13 11.02 1.86 14.5 3.2 15 5.75.32 1.65-.65 1.78-12.57 1.6-12.32-.16-13.16-.05-18.33 2.6-6.57 3.36-18.46 4.4-23.42 2.03zm-13.3-22.78c1.5-2.34 4.92-6.9 7.62-10.16l4.9-5.9-6.1-7.68c-3.37-4.22-6.57-8.45-7.12-9.4-.86-1.5-1.24-1.53-2.87-.34-1.44 1.07-2.04 3.4-2.7 10.48-.46 5-1.53 12.08-2.38 15.73-1.97 8.52-2 8.2 1.2 9.95 4 2.17 4.5 2 7.47-2.68zm-15.15-9.9c.92-4.2 1.9-9.82 2.2-12.5l.55-4.85-4.15 4.6c-4.1 4.57-12.72 18.03-12.03 18.8.58.65 7.7 1.92 9.82 1.75 1.58-.12 2.26-1.6 3.6-7.8zm-23.06-.53c3.6-9.63 5-17.4 4.96-27.82l-.03-10-3.98 4.4c-2.2 2.42-5.55 7.6-7.47 11.5-3.38 6.87-8.74 25.32-7.8 26.85.25.4 3.1.75 6.32.75h5.87l2.13-5.68zm-90 25.13c-5.48-5.73-11.62-9.52-21.94-13.57-7.35-2.9-9.62-4.23-9.87-5.82-.44-2.87 1.9-3.47 8.06-2.04 8.9 2.04 19.33 7.62 25.8 13.8 6.78 6.45 8.23 10.48 3.95 10.98-1.8.2-3.48-.72-6-3.34zm-5.32-66.12c-1.13-1.13-.74-3.6.84-5.34 1.35-1.5 1.2-2.1-1.58-5.92-3.77-5.2-8.9-7.62-21.2-9.96-9.83-1.88-12.26-3.56-9.68-6.7 2.02-2.46 17.6-9.64 29.2-13.45 5.36-1.76 9.74-3.74 9.74-4.4 0-.66-1.12-4.5-2.5-8.55-5.28-15.53-2.57-16.77 12.2-5.6 5.4 4.06 10.9 8.56 12.23 10 1.34 1.43 2.92 2.6 3.52 2.6 1.23 0 11.56-19.97 11.56-22.34 0-.83 1-1.83 2.2-2.2 3.03-.97 4.73 1.44 8.23 11.62 1.6 4.64 3.02 8.58 3.16 8.77.15.17 2.22-.8 4.6-2.15 5.53-3.16 17.45-7.06 19.36-6.33 2.03.78 1.84 5.6-.46 12.15-1.06 3.02-1.75 5.48-1.53 5.48.22 0 3.84-1.13 8.05-2.5 4.2-1.38 9.4-2.5 11.53-2.5 3.46 0 3.88.27 3.88 2.45 0 1.6-2.13 4.83-6.1 9.25-9.47 10.5-16.77 22.13-16.57 26.33.25 4.72-2.57 5.03-8.95 1-18.28-11.62-44.38-9.28-63.03 5.64-3.95 3.15-7.18 4.15-8.67 2.66zm11.33-16.08c0-3.65-2.08-20.64-2.6-21.17-.47-.5-14.87 4.27-21.8 7.2l-4.88 2.1 8.45 2.62c8.3 2.6 17.45 7.82 18.5 10.6.92 2.37 2.33 1.55 2.33-1.35zm69.2-9.63c2.58-3.92 5.68-8.4 6.9-9.96l2.2-2.83-6.05 3.06c-5.7 2.87-10.17 7.24-14.7 14.33l-1.72 2.7 3.35 1.44c2.93 1.25 3.46 1.24 4.33-.1.55-.83 3.12-4.72 5.7-8.63zm-55.26-4.1l4.36-9.6-2.83-2.96c-5.04-5.24-14.92-12.57-14.07-10.42 1.18 2.97 5.36 22.25 6.12 28.22.37 2.9.98 5.06 1.37 4.82.38-.23 2.65-4.75 5.05-10.04zm17.78 7.5l7.2-.02 1.1-4.1c1.88-6.95 1.43-18.06-1.03-25.44-1.2-3.64-2.57-6.25-3.02-5.8-2.56 2.65-15.97 32.9-15.97 36.03 0 .3 1.02.28 2.25-.05 1.24-.33 5.5-.6 9.47-.62zm23.4-9.08c2.15-2.66 4.65-7.6 6.2-12.25l2.58-7.8-2.2.63c-4.2 1.22-13.2 7.3-13.1 8.9.03.86.16 5.28.27 9.82.16 6.7.43 7.96 1.42 6.7.67-.87 2.84-3.57 4.83-6zm108.38-23.43c-3.3-.72-8.33-2.2-11.18-3.3-4.82-1.84-5.64-1.88-11.34-.56-3.4.8-9.6 1.3-13.8 1.14l-7.68-.3 7.3-2.3c4.02-1.25 8.46-2.72 9.87-3.26l2.57-.97-4.76-4.22c-2.62-2.33-5.3-4.54-5.92-4.92-.67-.4-4.68 2.63-9.6 7.25-7.9 7.43-11.4 9.83-12.6 8.63-.76-.75 2.4-6.56 6.8-12.43 2.15-2.9 3.42-5.25 2.82-5.25-.65 0-.97-1.5-.8-3.72.3-3.56.53-3.77 4.82-4.6 2.48-.46 5.18-1.55 6-2.4 1.34-1.4 1.3-1.5-.34-.92-4.95 1.75-6.34 1.68-9-.4-2.14-1.7-2.7-2.88-2.46-5.27.27-2.76.8-3.2 4.8-4.18l4.5-1.1.6-11.45c.8-15.03 3.5-21.8 8.15-20.36 1.16.36 1.75 0 1.75-1.02 0-1.1-.95-1.57-3.1-1.57-3.92 0-8.9-5-8.9-8.94v-2.7l18.25-1.8c10.04-.96 19.03-2.18 19.98-2.68 4.55-2.4 11.07 3.02 9.02 7.5-.9 1.98-2.44 2.52-11.4 4-7.63 1.27-10.86 2.26-12.34 3.8l-2 2.07 4.5-.68c2.48-.37 5.54-1.35 6.8-2.18 1.28-.83 3.75-1.37 5.5-1.2 5.08.5 6.7 4.88 6.7 18.1 0 12.22-1.1 15.93-5.94 20-3.2 2.7-7.6 3.6-8.23 1.7-.53-1.63-9.24 1.77-11.94 4.65l-2.38 2.53 4-.73c2.2-.4 5.22-1.33 6.7-2.08 3.7-1.88 7.84-1.68 10.7.52l2.4 1.84-2.23 8.25c-1.23 4.54-1.85 8.62-1.4 9.07.46.44 5.86 1.75 12 2.9 14.64 2.75 18.83 4.23 18.83 6.65 0 1.44-.84 1.98-3.45 2.23-1.9.18-5.1 1.63-7.15 3.25-4.1 3.24-6.26 3.45-15.4 1.44zM269 115.75c.62-2.26.9-4.32.64-4.58-.26-.26-1.84.24-3.5 1.1-4.05 2.1-5.75 2-7.46-.44-1.32-1.88-1.5-1.9-2.8-.34-.83.98-1 1.82-.4 2.03.55.2 3.25 1.7 6 3.32 2.75 1.63 5.32 2.97 5.72 2.98.4 0 1.2-1.83 1.8-4.08zm-3.6-24c8.34-2.08 8.35-2.1 8.96-5.74.88-5.34.76-15.95-.2-16.54-.9-.55-16.27 4.07-17.3 5.2-1.25 1.35-2.1 19.2-.9 19.2.6 0 4.85-.95 9.44-2.1zm-6.22-2.1c-2.5-2.5-1.27-4.4 4-6.08 3.8-1.2 5.53-1.36 6.5-.57 2.52 2.1 1.44 4.58-2.72 6.24-4.8 1.92-6.2 2-7.78.4zm.05-8.94c-2.5-2.5-1.4-4.55 3.13-5.82 2.4-.67 5.23-1.06 6.25-.87 2.55.5 3 4.45.68 5.7-3.38 1.8-8.72 2.34-10.05 1zm-121.05 56.95c-.75-.75-1.2-4.48-1.2-9.95v-8.76l-3.62-1c-2-.55-9.08-4.06-15.75-7.8-13.18-7.4-15.83-7.94-28.38-5.9-4.33.72-5.18.62-4.74-.5.8-2.13 9.46-7.68 15.55-10 11.2-4.27 19.54-1.5 33.47 11.12 3.03 2.74 6.1 5 6.8 5 .72 0 3.4-2.88 5.97-6.38 9.17-12.5 18.17-18.4 26.03-17.1 4.75.8 8.72 2.6 13.43 6.14 5.36 4 4.37 5.33-4 5.34-9.86 0-13.9 1.32-20.03 6.55-2.87 2.46-8.03 6.57-11.47 9.14l-6.25 4.67v8.4c0 10.8-2.08 14.77-5.8 11.05zm.8-43.05V84.35l-4.66-3.5c-6.37-4.78-8.56-9.1-8.06-15.8.7-9.16 6.3-14.08 17.13-14.94 3.55-.28 7.82 0 9.8.66 4.7 1.54 10.54 7.55 11.96 12.27 2.3 7.72-3.32 17.1-11.9 19.86-2.08.65-4.13 1.5-4.56 1.9-.43.4-1.68 4.47-2.78 9.07-2.07 8.68-3.24 10.98-5.56 10.98-1.08 0-1.38-2.2-1.38-10.25zm11.84-20.35c7.1-4.98 3.13-16.4-5.7-16.4-2.07 0-3.73.92-5.55 3.08-4.1 4.86-3.18 10.45 2.2 13.36 3.56 1.93 6.25 1.9 9.05-.05z"/><path fill="#495547" d="M59.48 444.4c-27.87-5.16-49.55-24.7-57.16-51.57C.57 386.66.48 378.53.48 223.35c0-181.93-.54-167.77 6.98-183C14.6 25.9 24.8 16 40.48 8.35c16.1-7.83 10-7.5 138.9-7.5 97.24 0 115.53.22 121.5 1.48 25.45 5.35 45.14 22.57 53.78 47.03l2.82 8 .27 162.72c.3 181.5.7 170.37-6.7 185.27-7.57 15.22-17.6 25.22-32.57 32.48-16.5 8-6.05 7.42-136 7.66-91.46.15-117.48-.08-123-1.1zm242.75-4.5c24.18-6.17 43.66-25.12 50.42-49.05 1.75-6.2 1.83-14.3 1.83-167.5 0-180.3.6-165.47-7.25-181.5-5.4-11.06-18.67-24.1-30.25-29.74-16.94-8.25-6.68-7.63-133.36-8C60.5 3.76 60.97 3.75 46.98 9.4c-18.9 7.7-34.3 24.1-40.28 42.95l-2.22 7v328l2.32 7c5.97 18.03 20.44 33.97 37.8 41.66 2.4 1.07 7.63 2.8 11.63 3.84 6.92 1.8 12.55 1.9 122.84 1.95 111.12.05 115.9-.03 123.16-1.9zm-142.75-48.6c-21.76-14.66-48.2-25.82-73.27-30.96-13.05-2.68-26.34-4.48-33.2-4.5-14.63-.06-3.7-7.6 17.48-12.06 6.72-1.42 30.48-1.86 34.83-.64 5.9 1.64 2.17 3.2-9.44 3.93-6.3.4-13.25 1.1-15.42 1.56-3.83.8-3.64.9 5.54 2.56 28.58 5.16 60.28 17.03 78.85 29.5 3.1 2.1 6.12 4.07 6.7 4.4.57.34 3.04-.75 5.5-2.42 6.2-4.2 24.15-13.13 36.82-18.32 12.84-5.25 23.2-7.98 39.42-10.38l12.2-1.8-8-3.64c-11.6-5.28-13-6.1-13-7.73 0-4.5 16.78-.98 33.2 6.97 12.03 5.84 15.8 9 13.45 11.34-.58.6-8.6 1.66-17.84 2.4-42.33 3.36-65.3 10.97-91.57 30.34-5.22 3.85-9.9 6.98-10.36 6.93-.47-.04-5.8-3.4-11.86-7.48zm7.1-18.42c-16.4-12.02-25.23-16.16-41.18-19.32l-10.08-2-2.22-25.6c-2.8-32.2-2.56-31.02-5.9-30.8-7.27.5.52-7.12 11.6-11.33 6.6-2.52 12.03-2.5 27.9.12 17.88 2.94 29.78 2.3 50.78-2.7 14.05-3.34 17.47-3.8 28-3.75 12.42.05 23.43 2.2 31.44 6.1 5.94 2.9 4.7 4.8-3 4.54l-6.58-.2-5.23 29.7c-2.88 16.34-5.54 29.97-5.92 30.3-.38.32-4.52 1.6-9.2 2.85-17.65 4.7-28.5 10.15-44.08 22.2-4.18 3.2-7.78 5.8-8 5.76-.23-.05-3.97-2.7-8.3-5.88zm9.34-6.8c-1.62-1.12-2.37-1.2-3.27-.28-1.7 1.74 2.1 4.48 4.02 2.9 1.12-.93.98-1.4-.75-2.6zm-10.54-8.5c-2.4-1.87-2.66-1.9-4.23-.32-1.56 1.58-1.5 1.8.83 3.57 2.26 1.72 2.64 1.75 4.22.33 1.62-1.48 1.58-1.7-.82-3.57zm22.2 2.9l3.5-2.38-3.2-2.7-3.22-2.7-3 3.03-3.03 3 2.43 2.03c1.33 1.1 2.56 2.04 2.73 2.06.15 0 1.86-1.04 3.78-2.34zm-32.77-7.73c1.13-1.78 1.06-2.38-.4-4-.95-1.04-2.32-1.9-3.05-1.9-1.28 0-5.02 4.74-4.25 5.38 1.1.93 4.5 2.56 5.4 2.6.55 0 1.6-.92 2.3-2.08zm20.87-1.07c2.85-2.68 2.9-4 .27-6.37-2-1.8-2.1-1.77-5.25 1.4l-3.22 3.23 2.5 1.94c3.12 2.4 2.9 2.42 5.7-.2zm25.9-3.36c3.57-4.37 3.64-4.6 1.8-6.02-5-3.92-5.4-3.9-9.77.5l-4.12 4.15 3.27 2.95c1.8 1.62 3.68 2.95 4.18 2.95.5 0 2.6-2.04 4.63-4.53zm-58.9-3.64c2.98-2.8 2.93-3.26-.75-5.88l-3.06-2.18-2.45 2.3-2.44 2.3 2.7 2.8c1.48 1.56 2.92 2.83 3.2 2.83.27 0 1.54-.98 2.8-2.17zm83.2-.92c2.27-.67 4.1-1.58 4.1-2.02 0-.43-1.6-2-3.55-3.5l-3.57-2.73-3.65 3.66c-3.55 3.55-3.6 3.7-1.68 5.14 1.08.82 2.48 1.3 3.1 1.1.64-.23 3-.96 5.26-1.64zm-60.56-1.73l2.7-2.8-2.53-2.4-2.54-2.38-3.22 3.25-3.22 3.26 2.37 1.95c3.04 2.5 3.25 2.48 6.46-.87zm-42.82-.18c.34-.55.15-1-.44-1-.58 0-1.06.45-1.06 1s.2 1 .45 1c.24 0 .7-.45 1.05-1zm65.7-3.7c2.1-2.04 3.8-4 3.8-4.4 0-.36-1.15-1.43-2.55-2.35-2.54-1.66-2.6-1.63-6.4 2.64-3.55 3.97-3.74 4.45-2.3 6.06 2.22 2.48 3.18 2.23 7.46-1.95zm25.22-3.38c1.42-1.7 2.58-3.4 2.58-3.8 0-.4-1.42-1.8-3.16-3.1l-3.17-2.33-2.83 3.17c-3.5 3.9-3.5 4.48-.2 7.08 3.4 2.68 3.7 2.64 6.78-1zm-57.44-5c0-.3-1.1-1.63-2.5-2.93l-2.5-2.36-3.48 3.37-3.47 3.37 3.24 2.76 3.24 2.76 2.73-3.2c1.5-1.75 2.74-3.45 2.76-3.77zm-25.36 3.97l2.24-2.1-2.68-2.32-2.68-2.32-2.25 2.1-2.26 2.1 2.18 2.33c2.66 2.83 2.67 2.83 5.45.2zm46.7-4.7l3.72-3.8-2.55-2.4-2.55-2.4-4.16 4.16c-4.1 4.1-4.13 4.2-2.3 6.2 2.55 2.84 3.57 2.6 7.84-1.76zm55.68 1.93c0-1.03.3-3.4.66-5.25l.65-3.37-2.26 2c-3.78 3.34-4.58 5.64-2.5 7.17 2.5 1.82 3.44 1.67 3.44-.55zm-32.1-6.53l3.32-3.4-2.66-1.75c-2.62-1.73-2.7-1.7-6.13 1.63l-3.47 3.37 2.28 1.75c3 2.3 2.88 2.33 6.7-1.6zm-58.08-6.28c-2.84-3.03-3.86-2.92-7.38.77l-2.94 3.08 3 2.4 2.97 2.4 3.26-3.17 3.27-3.16-2.17-2.3zm82.07 3.3l3.27-3.36-3.15-2.25-3.17-2.25-3.43 3.33-3.43 3.33 2.76 2.26c1.5 1.24 3 2.27 3.3 2.3.3 0 2.03-1.5 3.84-3.35zm-59-1.15c3.78-4.28 3.8-4.76.5-6.93-2.58-1.7-2.65-1.67-6.55 2.13l-3.94 3.85 2.6 2.25c1.44 1.24 3 2.25 3.46 2.25.46 0 2.23-1.6 3.94-3.54zm25.28-5.75c.67-1.25.6-2.28-.22-3.26-1.77-2.14-4.48-1.76-7.64 1.06l-2.82 2.5 2.97 2.46c2.8 2.32 3.07 2.36 4.84.75 1.02-.93 2.3-2.52 2.85-3.52zm-60.65-.72l2.9-3.02-2.6-2.6c-2.52-2.5-2.8-2.56-7.7-1.38-2.82.68-5.12 1.75-5.12 2.38 0 1.34 7 7.56 8.57 7.6.58.03 2.36-1.3 3.95-2.97zm81.9-1.62l2.9-3.48-2.17-2.16-2.16-2.17-3.67 3.67-3.67 3.67 2.43 2.02c1.33 1.1 2.65 2 2.92 1.98.28-.02 1.8-1.6 3.4-3.53zm-57.16-3.44c-.42-.38-2.13-1-3.82-1.34-2.3-.5-3.48-.17-4.8 1.28-1.67 1.84-1.63 2 .98 4.06l2.72 2.14 2.84-2.72c1.56-1.5 2.5-3.03 2.08-3.42zm82.23-3.78c.7-2.7.72-2.67-2.04-3.5-1.5-.47-2.94.3-5.47 2.9l-3.43 3.53 2.98 2.4 2.98 2.4 2.2-2.68c1.2-1.47 2.45-3.74 2.8-5.04zm-42.02-5.38l15.03-5.25 14.5-.1 14.5-.1.6-3.6.57-3.6-5.4-.67c-11.33-1.42-25.93.12-38.27 4.02-17.43 5.52-28.72 5.68-57.56.86-7.65-1.28-11.5-1.46-16-.75l-5.94.95v9l4-.5c10.33-1.3 27.05-.28 37.5 2.27 15.74 3.84 18.88 3.62 36.47-2.52zm27.28 1.5c.27-.8-.54-1.25-2.16-1.25-2.53 0-3.3.96-1.88 2.37 1 1.03 3.55.33 4.03-1.12zm-84.86-24.46c-1.75-1.4-5.2-19.82-4.2-22.42.35-.9 1.57-1.36 3.14-1.17 2.28.26 2.97 1.38 5.8 9.3 2.7 7.5 3.34 12.12 2 14.17-.7 1.05-5.47 1.14-6.73.12zm17.3.34c-1.7-1.07-5.5-18.23-4.3-19.42.5-.5 1.68-.74 2.64-.55 2.12.42 9.08 16.85 8.16 19.24-.65 1.7-4.3 2.13-6.5.74zm26.15-1.88c-.65-.42-1.83-4.24-2.63-8.5-1.2-6.3-1.23-8.03-.18-9.47 1.22-1.67 1.4-1.66 3.35.12 2.6 2.35 6.3 12.1 5.9 15.52-.2 1.92-.93 2.65-2.8 2.84-1.36.15-3-.08-3.65-.5zm15.45-.5c-1.07-.84-1.8-3.7-2.25-8.82-.56-6.32-.4-7.8.95-8.92 3.38-2.8 7.43 4.84 7.5 14.13.02 4.58-2.83 6.24-6.2 3.6zm-93.6-5.24c-5.66-3-12.75-6.22-15.74-7.16-4.64-1.46-5.45-2.08-5.45-4.15 0-2.35.2-2.43 5.75-2 4.03.3 7.96 1.54 13.1 4.14 11.4 5.74 16.33 9.44 15.96 11.98-.18 1.18-1 2.26-1.82 2.4-.82.12-6.13-2.22-11.8-5.22zm64.48 4.82c-.37-.36-.67-4.22-.67-8.57 0-7.55.1-7.88 2.2-7.57 1.73.25 2.57 1.6 4 6.32 2.7 9.06 2.48 10.5-1.53 10.5-1.83 0-3.63-.3-4-.67zm43.6-3.08c-.37-.96-.7-3.77-.72-6.25-.04-4.12.16-4.5 2.4-4.5 2.05 0 2.7.77 3.9 4.65.8 2.56 1.17 5.37.83 6.25-.84 2.18-5.56 2.07-6.4-.15zm10.4 1.08c-.37-.36-.67-2.85-.67-5.53 0-3.6.43-5.03 1.65-5.5 2.4-.92 4.35 2.38 4.35 7.4 0 3.84-.25 4.3-2.33 4.3-1.28 0-2.63-.3-3-.67zm34.83-2.8c-1.75-.84-4.34-1.2-6.25-.87-2.98.53-3.25.36-3.25-2.04 0-2.68-.53-2.95-5.25-2.64-2.12.14-2.75-.26-2.75-1.77 0-1.38-1.38-2.54-4.75-3.95-17.4-7.33-30.03-9.02-76.75-10.26-36.96-.98-41.78-1.66-58-8.12-15.97-6.37-48.5-24.33-50.87-28.1-.77-1.24-.76-2.03.06-2.85 1.46-1.46 11.36 2.3 36.32 13.77 23.58 10.84 28.96 12.96 37.25 14.67 5.03 1.05 6.75 1.1 6.75.24 0-2.95-11-18.76-17.64-25.34-4.03-4-7.7-7.25-8.16-7.25-.47 0-3.5 2-6.77 4.47-3.25 2.46-6.94 4.5-8.2 4.5-3.35.04-32.22-20.62-32.22-23.06 0-4.3 5.18-2.25 20.7 8.22 5.62 3.78 10.48 6.87 10.82 6.87.97 0 8.48-6.26 8.48-7.08 0-.4-6.3-5.77-14-11.92-13.8-11.03-16.97-15-11.95-15 3.07 0 7.1 2.35 21.95 12.8 25.2 17.73 32.1 24.62 43.65 43.76 7.76 12.85 7.28 12.45 14.84 12.45 6.44 0 6.5-.03 6.5-2.75 0-9.04-5.6-16.34-20.08-26.26-5.9-4.04-8.92-6.74-8.92-8 0-1.02.34-2.08.76-2.34 1.15-.7 7.9 1.86 12.04 4.58 2.04 1.34 5.02 3.3 6.63 4.33l2.94 1.9-3.68-5.74c-2.02-3.16-3.68-6.6-3.68-7.67 0-5.55 5.54-1.73 12.15 8.37 4.4 6.73 8.4 18.33 9.42 27.42l.7 6.15h16.4l-.83-6.1c-.56-4.08-2.34-9-5.44-15-4.42-8.55-5-11.9-2.1-11.9 2.13 0 6.44 5.1 10.13 12l3.42 6.4.7-3.76c.8-4.23.25-10.4-1.65-18.9-1-4.36-1.02-6.02-.13-6.9 1.78-1.78 3.86.5 5.8 6.3l1.66 5 3.3-4.82c1.8-2.66 5.17-6.63 7.48-8.83 2.3-2.2 4.6-5.04 5.1-6.3.77-2 1.5-2.27 5.15-2 3.65.26 4.3.65 4.6 2.74.2 1.34-.26 2.9-1 3.5-1.02.8-1.35 4.68-1.35 16.1v15.06l6.3-6.3c3.48-3.47 6.74-6.3 7.26-6.3.52 0 .94-.86.94-1.9 0-2.12 2.23-3.35 4.5-2.48 5.35 2.06.03-10-7.55-17.08-5.76-5.4-10.5-6.8-21.32-6.37-8.08.32-8.12.3-8.12-2.18 0-3.42 4.6-4.88 15.5-4.92 6.24-.03 9.6.46 12.64 1.84 9.1 4.13 17.3 14.34 21.68 26.9 3.04 8.77 5.66 12.82 10.55 16.33l3.63 2.6 6.5-5.92c3.58-3.25 9.42-7.36 12.98-9.12 6.14-3.04 7.06-3.2 17.5-3.15 9.07.05 12.25.5 17.95 2.52 9.14 3.25 10.05 5.4 1.96 4.62-3.23-.3-8.13-1.07-10.88-1.68-11.57-2.6-21.6 1.28-33.26 12.82-7.57 7.5-18.14 20.4-23.74 28.95-2.7 4.1-2.72 4.33-.95 5.63 2 1.47 1.2 1.85 15.02-7 4.48-2.86 12.26-6.4 14.06-6.4.22 0 .38 1.05.38 2.35 0 1.88-2.1 3.8-10.1 9.26l-10.1 6.9 4.15.3c3.22.24 5.53-.45 10.35-3.12 8.55-4.72 10.45-5 21.52-3.13 11.02 1.86 14.5 3.2 15 5.75.32 1.65-.65 1.78-12.57 1.6-12.32-.16-13.16-.05-18.33 2.6-6.57 3.36-18.46 4.4-23.42 2.03zm-13.3-22.78c1.5-2.34 4.92-6.9 7.62-10.16l4.9-5.9-6.1-7.68c-3.37-4.22-6.57-8.45-7.12-9.4-.86-1.5-1.24-1.53-2.87-.34-1.44 1.07-2.04 3.4-2.7 10.48-.46 5-1.53 12.08-2.38 15.73-1.97 8.52-2 8.2 1.2 9.95 4 2.17 4.5 2 7.47-2.68zm-15.15-9.9c.92-4.2 1.9-9.82 2.2-12.5l.55-4.85-4.15 4.6c-4.1 4.57-12.72 18.03-12.03 18.8.58.65 7.7 1.92 9.82 1.75 1.58-.12 2.26-1.6 3.6-7.8zm-23.06-.53c3.6-9.63 5-17.4 4.96-27.82l-.03-10-3.98 4.4c-2.2 2.42-5.55 7.6-7.47 11.5-3.38 6.87-8.74 25.32-7.8 26.85.25.4 3.1.75 6.32.75h5.87l2.13-5.68zm-90 25.13c-5.48-5.73-11.62-9.52-21.94-13.57-7.35-2.9-9.62-4.23-9.87-5.82-.44-2.87 1.9-3.47 8.06-2.04 8.9 2.04 19.33 7.62 25.8 13.8 6.78 6.45 8.23 10.48 3.95 10.98-1.8.2-3.48-.72-6-3.34zm-5.32-66.12c-1.13-1.13-.74-3.6.84-5.34 1.35-1.5 1.2-2.1-1.58-5.92-3.77-5.2-8.9-7.62-21.2-9.96-9.83-1.88-12.26-3.56-9.68-6.7 2.02-2.46 17.6-9.64 29.2-13.45 5.36-1.76 9.74-3.74 9.74-4.4 0-.66-1.12-4.5-2.5-8.55-5.28-15.53-2.57-16.77 12.2-5.6 5.4 4.06 10.9 8.56 12.23 10 1.34 1.43 2.92 2.6 3.52 2.6 1.23 0 11.56-19.97 11.56-22.34 0-.83 1-1.83 2.2-2.2 3.03-.97 4.73 1.44 8.23 11.62 1.6 4.64 3.02 8.58 3.16 8.77.15.17 2.22-.8 4.6-2.15 5.53-3.16 17.45-7.06 19.36-6.33 2.03.78 1.84 5.6-.46 12.15-1.06 3.02-1.75 5.48-1.53 5.48.22 0 3.84-1.13 8.05-2.5 4.2-1.38 9.4-2.5 11.53-2.5 3.46 0 3.88.27 3.88 2.45 0 1.6-2.13 4.83-6.1 9.25-9.47 10.5-16.77 22.13-16.57 26.33.25 4.72-2.57 5.03-8.95 1-18.28-11.62-44.38-9.28-63.03 5.64-3.95 3.15-7.18 4.15-8.67 2.66zm11.33-16.08c0-3.65-2.08-20.64-2.6-21.17-.47-.5-14.87 4.27-21.8 7.2l-4.88 2.1 8.45 2.62c8.3 2.6 17.45 7.82 18.5 10.6.92 2.37 2.33 1.55 2.33-1.35zm69.2-9.63c2.58-3.92 5.68-8.4 6.9-9.96l2.2-2.83-6.05 3.06c-5.7 2.87-10.17 7.24-14.7 14.33l-1.72 2.7 3.35 1.44c2.93 1.25 3.46 1.24 4.33-.1.55-.83 3.12-4.72 5.7-8.63zm-55.26-4.1l4.36-9.6-2.83-2.96c-5.04-5.24-14.92-12.57-14.07-10.42 1.18 2.97 5.36 22.25 6.12 28.22.37 2.9.98 5.06 1.37 4.82.38-.23 2.65-4.75 5.05-10.04zm17.78 7.5l7.2-.02 1.1-4.1c1.88-6.95 1.43-18.06-1.03-25.44-1.2-3.64-2.57-6.25-3.02-5.8-2.56 2.65-15.97 32.9-15.97 36.03 0 .3 1.02.28 2.25-.05 1.24-.33 5.5-.6 9.47-.62zm23.4-9.08c2.15-2.66 4.65-7.6 6.2-12.25l2.58-7.8-2.2.63c-4.2 1.22-13.2 7.3-13.1 8.9.03.86.16 5.28.27 9.82.16 6.7.43 7.96 1.42 6.7.67-.87 2.84-3.57 4.83-6zm108.3-23.44c-3.36-.72-8.34-2.28-11.06-3.45-4.74-2.03-5.22-2.06-10.87-.6-5.42 1.42-22.5 2.24-21.3 1.03.3-.3 3.8-1.44 7.82-2.55 12.2-3.38 12.18-3.36 5.9-9-2.98-2.67-5.8-4.86-6.24-4.9-.46 0-4.87 3.68-9.82 8.22-4.94 4.54-9.4 8.4-9.92 8.58-3.23 1.15 1.15-7.88 6.78-13.97 2.08-2.23 2.26-2.92 1.22-4.6-.68-1.07-.94-3.08-.6-4.46.53-2.1 1.4-2.62 5.3-3.15 4.55-.64 7.36-2.06 7.36-3.72 0-.46-1.58-.17-3.52.64-2.8 1.17-3.98 1.23-5.75.3-5.54-2.97-6.37-8.1-1.57-9.77 1.74-.6 3.92-1.1 4.87-1.1 1.5 0 1.77-1.52 2.2-11.75.32-7.32 1.1-13.13 2.06-15.42 1.55-3.66 4.84-6.38 6.15-5.07.38.38 1.1.03 1.62-.78 1.5-2.35 1.12-3.15-1.1-2.45-4.47 1.42-10.94-4.04-10.94-9.2 0-1.72 1.7-2.06 18.16-3.7 10-1 19.15-2.26 20.36-2.8 2.8-1.3 8.04 1.2 9.02 4.3 1.16 3.65-2.13 5.6-12.45 7.38-6.15 1.06-10.32 2.34-12 3.7l-2.6 2.07 5.5-.7c3.04-.38 6.55-1.37 7.82-2.2 3.35-2.17 6.3-1.34 8.9 2.53 2.03 3.02 2.28 4.6 2.28 14.36 0 9.47-.3 11.52-2.2 14.9-2.97 5.3-8.15 8.53-11.12 6.96-2.8-1.47-11.42 1.62-13.57 4.86-1.44 2.15-1.4 2.17 2.46 1.5 2.16-.38 5.23-1.32 6.83-2.08 3.82-1.83 6.16-1.75 9.68.33 3.3 1.95 3.43 2.55 1.53 7.92-.74 2.13-1.67 5.7-2.05 7.95l-.7 4.07 13.8 2.7c13.66 2.67 18.82 4.66 18.06 6.94-.2.66-2.34 1.46-4.74 1.78-2.4.33-4.54 1.12-4.76 1.75-.2.63-.96 1.15-1.68 1.15-.7 0-1.85.67-2.54 1.5-1.48 1.8-4.42 1.8-12.6 0zm-15.4-24.6c.62-2.27.87-4.36.56-4.67-.3-.3-2.4.27-4.66 1.3l-4.1 1.84-1.9-2.44c-1.6-2.08-2.05-2.22-2.9-.95-.54.82-1 1.73-1 2-.02.6 11.1 6.94 12.2 6.98.4 0 1.2-1.83 1.8-4.08zm-3.18-23.85c4.04-1.04 7.6-2.14 7.9-2.45 1.16-1.16 1.53-19.32.4-20.02-.62-.38-4.95.57-9.63 2.1-8.16 2.7-8.5 2.94-8.52 5.82 0 1.65-.3 6.04-.65 9.75-.75 7.93-1.02 7.8 10.5 4.8zm-6.3-2.4c-2.7-1.97-1.43-3.9 3.76-5.82 3.73-1.38 4.85-1.45 6.28-.4 2.18 1.6 1.3 4.3-1.8 5.45-5.2 1.95-6.46 2.07-8.24.77zm0-9.27c-2.38-2.37-1.45-3.65 3.82-5.3 4.16-1.28 4.88-1.28 6.2.06 2.22 2.2.87 4.4-3.47 5.7-4.8 1.45-4.63 1.46-6.56-.47zm-120.8 57.54c-1.43-.84-1.75-2.54-1.8-9.72l-.08-8.7-16.78-8.4c-18.36-9.2-17.74-9.07-32.58-6.5l-4 .68 2.47-2.7c1.36-1.47 6.03-4.45 10.37-6.63 13.58-6.8 20.63-5.12 36.25 8.58 3.42 3 6.9 5.47 7.75 5.47.85 0 4.25-3.5 7.56-7.75 11.7-15.07 20.7-18.98 31.34-13.6 3.22 1.63 9.76 7.22 9.76 8.33 0 .43-4.16.98-9.25 1.22-10.06.47-15.14 2.34-19.75 7.3-1.37 1.46-5.53 4.93-9.25 7.68l-6.75 5v8.48c0 7.83-1.03 12.4-2.78 12.32-.4-.02-1.5-.5-2.47-1.05zm.26-43.85c0-6.7-.4-11.07-1-11.07-1.6 0-9-7.1-10.56-10.13-1.83-3.53-1.84-9.2-.03-12.67 6.16-11.86 25.06-13.74 33.8-3.37 8 9.53 4.5 20.44-8.44 26.15-4.14 1.83-4.85 2.6-5.78 6.3-2.65 10.5-4.55 15.23-6.25 15.54-1.58.3-1.75-.74-1.75-10.75zm13.5-21.27c2.2-2.6 2.6-3.86 2.14-6.75-1.74-10.92-17.64-10.5-17.64.48 0 4.96 4.45 9.47 9.34 9.47 2.7 0 4.1-.73 6.17-3.2z"/><path fill="#881c21" d="M61.82 444.84c-29.2-5-52.1-25.4-59.58-53C.6 385.78.48 374.87.48 223.35c0-132.4.25-163 1.35-167.5.74-3.02 3.4-9.77 5.88-15 3.86-8.04 5.86-10.8 13.17-18.08 9.46-9.44 16.94-14.13 29.6-18.6l8-2.8h240l7.5 2.33c20.97 6.53 36.98 20.12 45.56 38.65 6.9 14.9 6.55 4.3 6.24 184l-.3 162-2.8 8c-4.24 11.98-8.14 18.1-17.6 27.6-7.17 7.2-10.15 9.37-18.1 13.25-17.95 8.77-6.74 8.1-137 8.28-63.5.1-117.6-.2-120.15-.64zm240.7-5c13.5-3.45 21.78-8.22 32-18.45 6.86-6.9 9.9-10.84 12.73-16.55 7.8-15.73 7.17-1.1 7.5-176C355 119.7 354.76 69.83 354 64c-3-22.9-16.26-41.8-36.22-51.6-17.63-8.65-7.3-8.05-138.78-8.05H62.48l-7.95 2.3c-12.86 3.73-20.95 8.5-30.67 18.15-8.7 8.65-12.45 14.5-17.26 27.05l-2.12 5.5-.28 162.5c-.3 182.14-.8 169.63 7.04 185.3 8.1 16.16 25.4 29.82 43.97 34.68 6.96 1.82 12.52 1.9 123.37 1.96 113.07.05 116.3 0 123.95-1.96zm-142.22-48.4c-13.36-8.8-31.3-18.06-44.32-22.9-17.4-6.44-47.86-12.66-62.28-12.7-14.73-.05-7.23-5.95 14.27-11.23 10.52-2.58 33.97-3.13 37.92-.88 3.6 2.05 1.28 2.76-11.42 3.53-6.05.37-12.57 1.03-14.5 1.46-3.35.76-3.2.85 3.5 2.03 29.46 5.2 60.06 16.53 80.22 29.68 6.88 4.5 9.02 5.45 10.24 4.6 5-3.53 21.98-12.7 30.58-16.5 19.96-8.83 35.8-13.22 54.8-15.2 3.74-.38 6.44-1 6-1.4-.46-.38-5.24-2.65-10.63-5.04-5.4-2.4-10.07-4.77-10.4-5.3-2.02-3.28 9.4-3.07 19.42.36 10.53 3.6 26.3 11.85 27.2 14.22.47 1.22.48 2.6.02 3.1-.46.5-8.62 1.5-18.14 2.25-32.2 2.54-51.44 7.35-71.87 17.97-5.87 3.05-14 8.04-18.06 11.1-4.06 3.06-8.3 6.15-9.4 6.88-1.8 1.18-3.13.58-13.17-6.02zm3.68-20.83c-6.32-4.32-14.2-9.2-17.5-10.8-5.97-2.94-17.9-6.26-26.54-7.4l-4.55-.6-2.3-26.73c-1.26-14.7-2.52-27.55-2.8-28.56-.32-1.17-1.15-1.67-2.3-1.36-1 .25-2.4.06-3.16-.44-1.82-1.22 3.23-5.57 10.94-9.42 4.8-2.4 6.95-2.86 13.7-2.9 4.4 0 13.18.8 19.5 1.83 15.9 2.6 28.8 1.84 49-2.82 20.46-4.72 29.68-5.32 42.02-2.76 11.9 2.47 20.2 5.9 19.75 8.12-.27 1.3-1.5 1.56-6.55 1.32-3.95-.18-6.22.1-6.22.8 0 1.17-10.13 58.37-10.4 58.7-.1.1-5.53 1.82-12.1 3.8-18.96 5.76-27.88 10.37-42.5 21.96l-6.5 5.16-11.5-7.87zm12.93-2.16c.94-1.12.7-1.74-1.1-3-2-1.4-2.42-1.4-3.74-.1-1.3 1.32-1.26 1.66.47 2.97 2.46 1.87 2.93 1.88 4.38.14zm-9.82-7.2c1.16-1.4.95-1.94-1.6-3.97-2.7-2.17-3.06-2.22-4.7-.73-2.37 2.14-2.28 2.54.95 4.55 3.43 2.1 3.7 2.12 5.35.13zm20.54-.47c1.85-1.15 3.36-2.4 3.36-2.8 0-.96-5.6-5.12-6.9-5.12-.52 0-1.97 1.42-3.2 3.15l-2.24 3.15 2.28 1.85c2.82 2.28 2.6 2.3 6.7-.23zm-32.1-7.97c1.83-2.02 1.8-2.1-1.08-4.43l-2.96-2.37-2.75 2.6c-1.5 1.45-2.75 2.9-2.75 3.24 0 .65 4.7 2.72 6.6 2.9.6.06 1.93-.8 2.95-1.94zm20.93-1.92l2.84-2.96-2.4-2c-3.1-2.58-3.04-2.6-6.4.9-2.78 2.92-2.8 3.05-1.03 5 2.45 2.72 3.63 2.56 6.98-.94zm24.47-1.28c2.2-2.34 4.03-4.7 4.04-5.25 0-.55-1.53-2.24-3.42-3.75l-3.45-2.75-4.52 4.75-4.52 4.75 3.7 3.2c2.05 1.78 3.82 3.24 3.94 3.26.12.03 2.02-1.86 4.22-4.2zm-58.55-10.84l-3.7-2.95-2.35 2.2c-3.1 2.9-2.97 3.84.9 7.08l3.26 2.74 2.8-3.06 2.8-3.05-3.7-2.94zm23.05 3.4l2.94-3.52-2.44-1.87c-3.28-2.52-4.1-2.4-7.38 1.02l-2.8 2.93 2.87 2.53c1.6 1.4 3.1 2.5 3.38 2.5.28-.04 1.83-1.64 3.44-3.6zM225 344.2c3.3-.93 5.98-1.98 5.98-2.34 0-.37-1.98-2.1-4.4-3.84l-4.43-3.17-3.18 4.02c-2.6 3.3-2.97 4.3-1.97 5.5 1.5 1.8.8 1.82 8-.18zm-102.02-2.3c0-.5-.45-1.2-1-1.55-.55-.34-1 .08-1 .94 0 .85.45 1.55 1 1.55s1-.42 1-.94zm65.45-3.82c3.7-4.15 3.77-4.33 2.03-6.25-.98-1.1-2.26-1.98-2.84-1.98-1.3 0-8.64 7.06-8.64 8.3 0 1.03 4.24 4.73 5.07 4.4.3-.1 2.28-2.12 4.38-4.47zm25-2.98c1.93-2.06 3.5-3.98 3.52-4.25 0-.28-1.58-1.6-3.53-2.92l-3.56-2.42-3.66 3.67-3.66 3.66 3.47 2.97c1.92 1.63 3.6 3 3.72 3 .13.03 1.8-1.64 3.72-3.7zm-82.76-.42c2.96-2.8 2.9-3.27-.57-5.75l-2.88-2.05-2.7 2.1-2.67 2.12 2.75 2.87c1.52 1.6 2.98 2.88 3.26 2.88.27 0 1.54-.98 2.8-2.17zm23.8-7.3c-1.64-1.36-3.23-2.47-3.52-2.5-.3 0-2.1 1.32-4 2.97l-3.47 3 3.48 3 3.47 3.02 3.53-3.53 3.52-3.52-3-2.45zm23.4 2.1l4.28-4.38-3-2.12c-1.63-1.17-3.4-2.13-3.95-2.13-.54 0-2.58 1.96-4.54 4.35l-3.56 4.35 2.7 2.1c1.47 1.14 2.93 2.1 3.23 2.14.3.02 2.47-1.92 4.83-4.32zM233 332.1c0-.96.3-3.44.63-5.5.76-4.6-.28-4.65-4-.17l-2.85 3.43 2.35 1.96c2.94 2.45 3.85 2.5 3.87.28zm-31.56-13.2l-2.6-2.55-3.5 4-3.5 4 2.8 2.38 2.77 2.4 3.33-3.84 3.3-3.85-2.6-2.55zm-59.4 4.4l3.44-3.56-2.5-1.92c-3.33-2.57-3.87-2.5-7.62 1.15l-3.2 3.1 2.66 2.37c1.46 1.3 2.9 2.36 3.22 2.38.3 0 2.1-1.57 4-3.53zm82.82-7.8l-3.14-2.86-3.62 3.67-3.62 3.68 3.5 3 3.5 2.97 3.26-3.8 3.25-3.8-3.14-2.85zm-57.06-1.35c-2.92-3.1-3.8-2.94-8.25 1.63l-3.84 3.93 2.9 2.52 2.88 2.5 4.24-4.13 4.24-4.15-2.16-2.3zm-46.7 7.4c-1.3-1.28-2.6-.3-1.65 1.25.37.6 1.13.8 1.7.45.67-.42.66-.98-.06-1.7zm68.94-5.27c3.33-3.45 3.38-3.62 1.5-5-2.82-2.08-5-1.77-8.55 1.22l-3.17 2.65 2.83 2.32c1.55 1.27 3.07 2.32 3.38 2.34.3.03 2.1-1.56 4-3.52zm-56.06-5.4c0-.36-1.37-1.67-3.05-2.9-2.32-1.73-3.8-2.1-6.25-1.62-8.25 1.65-8.6 2.74-2.5 7.8l4.18 3.48 3.8-3.06c2.1-1.7 3.82-3.36 3.82-3.7zm79.06 1.4l3.44-3.54-2.5-1.92c-1.37-1.06-2.74-1.94-3.05-1.95-.3 0-2.1 1.58-4 3.54l-3.45 3.56 2.5 1.92c1.38 1.06 2.75 1.94 3.06 1.95.3 0 2.1-1.58 4-3.54zm-59.57-.42c1.58-1.64 2.66-3.2 2.4-3.46-.26-.26-2.4-.6-4.8-.76-5.74-.4-7.68 2.07-4.04 5.1 3.15 2.63 3.08 2.64 6.44-.88zm83.92-6.26c1.14-5.8-3.97-6.5-8.08-1.13l-2.76 3.62 2.84 2.43 2.83 2.44 2.27-2.13c1.24-1.17 2.54-3.53 2.9-5.24zm-37.92 1.25c.34-.55-.08-1-.94-1-.85 0-1.56.45-1.56 1s.43 1 .95 1c.5 0 1.2-.45 1.55-1zm-9.74-5.13c20.8-7.44 23.73-8.05 37.23-7.7l12.48.33.6-3.66c.55-3.44.4-3.7-2.36-4.26-1.64-.32-8.03-.6-14.23-.6-9.12 0-12.85.5-19.62 2.5-20.2 6.05-24.62 6.78-36.6 6.08-6.2-.36-16.55-1.52-23-2.6-12.48-2.05-17.46-2.33-23.52-1.33-3.74.6-3.75.6-3.75 5.6 0 4.93.03 4.98 2.75 4.32 1.52-.37 7.48-.9 13.25-1.16 9.2-.44 12.05-.13 23 2.45 16.78 3.97 22.7 3.97 33.76.02zm31.77-1.7c-3.37-.4-4.17.33-2.5 2.33 1.14 1.4 1.47 1.37 3.25-.23 1.95-1.75 1.94-1.77-.74-2.1zm-83.46-23.12c-.9-.56-2.12-4.9-3.18-11.22-1.84-10.97-1.4-13.2 2.4-12.63 2.73.42 9.07 17.75 7.77 21.2-1.24 3.23-4.26 4.38-7 2.65zm17.3.18c-1.8-1.14-5.62-18.37-4.35-19.63 1.93-1.94 4.3.83 7.82 9.2 2.83 6.72 3.22 8.43 2.18 9.68-1.35 1.63-3.8 1.95-5.67.75zm26.42-2.48c-.88-.7-2.26-4.53-3.07-8.55-1.3-6.46-1.3-7.47.02-8.8 2.32-2.3 4.84.63 7.43 8.68 1.8 5.63 1.97 7.06.9 8.35-1.58 1.9-3.15 2-5.3.32zm15.4-.5c-1.68-1.42-2.12-3.15-2.37-9.25-.3-7.07-.2-7.52 1.88-7.8 2.88-.42 5.28 4.16 6.04 11.5.42 4.1.2 5.72-.84 6.38-1.95 1.24-2.4 1.16-4.73-.83zm-92.04-3.96c-4.6-2.53-11.57-5.78-15.5-7.22-5.6-2.07-7.2-3.1-7.46-4.85-.3-2.03.1-2.22 4.46-2.22 9.04 0 31.7 13.06 30.07 17.32-.94 2.43-2.28 2.08-11.58-3.03zm62.53 4.04c-.37-.36-.67-4.2-.67-8.5 0-5.98.33-7.83 1.38-7.83.76 0 1.84.56 2.4 1.25 1.58 1.92 4.47 12.67 3.84 14.3-.55 1.45-5.7 2.03-6.95.78zm43.72-2.77c-.3-.78-.63-3.6-.72-6.24-.15-4.24.1-4.85 2-5.12 1.87-.27 2.46.53 3.97 5.3 1.53 4.9 1.58 5.76.32 6.56-2.18 1.38-4.95 1.14-5.57-.5zm10.32.83c-.4-.4-.72-2.9-.72-5.58 0-3.6.43-5.03 1.65-5.5 2.47-.94 4.5 2.55 4.15 7.2-.23 3.15-.73 4.06-2.34 4.3-1.12.15-2.36-.04-2.75-.42zm35.44-2.9c-1.84-.8-4.76-1.35-6.5-1.22-2.6.2-3.2-.15-3.47-2-.34-2.35-.9-2.58-5.44-2.28-2.18.14-2.75-.25-2.75-1.93 0-1.57-1.22-2.65-4.7-4.14-15.22-6.52-32.32-8.77-75.3-9.9-35.53-.96-41.4-1.65-55-6.54-14.57-5.25-54.4-26.78-55.68-30.1-2-5.24 6.42-2.5 39.68 12.87 20.9 9.65 27.4 12.16 34.5 13.3 2.2.34 4.82.85 5.82 1.12 1.58.44 1.47-.17-.9-4.83-4.3-8.53-9.72-15.84-17.14-23.13l-6.9-6.8-6.64 5.05c-3.66 2.76-7.46 5.03-8.45 5.03-1 0-7.87-4.28-15.3-9.52-16.32-11.5-17-12.06-17-13.97 0-3.7 7.47-.35 22.63 10.15l9.3 6.46 4.53-4.17 4.52-4.17-9.3-7.64c-5.12-4.2-11.4-9.23-13.96-11.15-4.44-3.33-6.6-6.46-5.3-7.74 1.56-1.56 9.54 2.8 23.97 13.13 25.14 17.98 32.54 25.53 44.16 45.12 2.6 4.4 5.44 8.56 6.3 9.25.86.7 4.3 1.25 7.85 1.25 6.1 0 6.3-.08 6.3-2.56 0-10.03-4.85-16.48-20.25-26.9-5.98-4.04-8.75-6.53-8.75-7.86 0-3.26 6.53-1.4 14.75 4.22 4 2.72 7.25 4.62 7.25 4.22 0-.4-1.56-3.18-3.47-6.18-4.73-7.44-4.58-11.78.3-8.37 7.18 5.03 16.27 24.2 17.77 37.48l.67 5.95h16.38l-.74-6.25c-.52-4.47-2.02-8.74-5.27-15.03-4.34-8.4-4.93-11.72-2.08-11.72 1.88 0 7.08 6.58 10.2 12.9 2.17 4.43 2.77 5.05 3.38 3.5 1.28-3.27.97-10.63-.76-18.03-2.72-11.64 0-14.25 4.46-4.28l2.72 6.1 3.84-5.58c2.12-3.07 5.48-7.1 7.48-8.94 2-1.85 4.14-4.22 4.75-5.27 1.27-2.2 3.52-2.83 6.96-1.97 2.56.64 3.24 3.35 1.33 5.27-.7.68-1.2 7.1-1.35 16.95l-.24 15.85 7.34-7.23c4.04-3.98 7.34-7.67 7.34-8.2 0-1.22 3.53-3.2 4.3-2.44.3.3 1.27.15 2.13-.33 1.4-.78 1.27-1.53-1.12-6.34-1.5-3-4.78-7.52-7.3-10.05-5.57-5.57-11.23-7.25-22.72-6.74-7.35.33-7.8.23-8.1-1.83-.45-3.26 2.98-4.55 13.54-5.1 11.87-.63 16 .86 23.72 8.52 6.84 6.78 9.75 11.5 13.06 21.25 2.76 8.1 6.22 13.25 10.76 16l3.03 1.85 7.6-6.43c4.2-3.54 9.44-7.33 11.68-8.43 5.83-2.86 14.9-4.3 22.6-3.6 7.4.68 18.96 4.42 19.6 6.36.55 1.7-3.57 1.6-12.77-.33-14.9-3.12-23.8.1-37 13.36-8.58 8.6-25 29.57-25 31.93 0 .67.83 1.66 1.84 2.2 1.45.78 3.47-.07 9.75-4.1 13.87-8.93 20.98-11.34 19.12-6.47-.32.8-5 4.54-10.4 8.3l-9.82 6.85 4.32.3c3.42.26 5.82-.46 11.5-3.4 8.3-4.32 11.55-4.58 24.68-1.9 8.9 1.8 11 2.8 11 5.2 0 1.18-2.2 1.4-12.75 1.2-12.38-.23-12.95-.14-19.9 2.93-8.05 3.55-15.46 4.13-21.2 1.64zM243.1 247.1c1.75-2.6 5.4-7.33 8.1-10.5l4.9-5.73-6.73-8.76c-3.7-4.8-7.14-9.2-7.63-9.75-1.9-2.13-4.75 3.45-4.78 9.36 0 3.1-.9 9.68-2 14.6s-1.98 9.68-1.98 10.57c0 1.22 3.77 4 6.7 4.92.12.02 1.65-2.1 3.4-4.7zm-14.8-11.75c3.4-17.78 3.24-18.52-2.6-11.25-3.85 4.8-11.84 17.96-11.25 18.55.2.2 2.78.93 5.7 1.6 3.7.84 5.53.9 5.98.15.35-.58 1.33-4.65 2.18-9.05zm-21.94-2.5c2.48-7.25 2.97-10.42 3.3-21.5l.4-13-4.52 4.83c-6.78 7.23-12.3 20.34-14.95 35.46l-.58 3.3 6.72-.3 6.72-.3 2.9-8.5zm-91.38 27.8c-6.43-5.86-12.26-9.37-21.45-12.9-8.77-3.38-10.55-4.46-10.55-6.46 0-5.92 22.23 2.03 33.67 12.04 4.74 4.14 7.98 9.53 6.6 10.92-1.4 1.4-4.07.23-8.27-3.6zm-5.33-65.47c-1.15-1.15-.73-3.6.94-5.45 1.47-1.64 1.43-2-.52-4.75-4.07-5.72-7.7-7.87-16.94-10.04-4.9-1.15-10.07-2.1-11.5-2.1-3.22 0-5.12-3-3.37-5.3 1.84-2.43 15.9-9.08 27.96-13.23 5.92-2.03 10.75-4.16 10.75-4.73 0-.56-1.18-4.98-2.63-9.8-4.87-16.25-1.5-15.96 19.7 1.7l8.84 7.35 5.54-10.34c3.05-5.7 5.54-11.03 5.54-11.86 0-2.1 2.43-3.93 4.3-3.22 1.66.65 4.5 6.73 7.26 15.62l1.76 5.67 5.1-2.83c2.8-1.55 7.9-3.83 11.32-5.05 9.5-3.4 11.2-.92 7.26 10.53-1.1 3.2-2 5.88-2 5.97 0 .1 3.72-1.1 8.25-2.66 9.2-3.13 15.04-3.35 15.57-.56.2 1.03-2.4 4.88-6.4 9.46-10.4 11.9-16.52 21.84-16.2 26.2.24 3-.06 3.64-1.84 3.9-1.17.16-3.8-.83-5.83-2.2-8.97-6.1-23.33-9.2-35.05-7.55-11.63 1.64-19.95 5.08-29.1 12.06-4.9 3.75-7.3 4.64-8.73 3.22zm11.33-16.6c0-4.26-1.97-20.04-2.6-20.65-.56-.58-15.77 4.3-22.03 7.08-2.5 1.1-4.33 2.2-4.1 2.46.25.24 3.38 1.25 6.96 2.24 7.33 2.03 14.1 5.68 17.7 9.55 3.2 3.43 4.08 3.28 4.08-.68zm65.46-3.24c1.45-2.48 4.9-7.5 7.64-11.12 2.75-3.63 4.85-6.76 4.66-6.95-.95-.95-10.7 4.83-13.85 8.2-3.66 3.94-7.92 9.72-7.92 10.75 0 .6 5.03 3.52 6.16 3.6.36 0 1.84-2 3.3-4.48zM137.6 160.2l2.28-5.18-8.56-7.14c-4.7-3.92-8.73-6.97-8.94-6.76-.2.2.7 4.64 2.04 9.86 1.32 5.22 2.97 13.22 3.67 17.77l1.26 8.3 2.97-5.86c1.63-3.22 4-8.17 5.26-11zm22.56 11.78c.37-.35 1.13-3.93 1.68-7.97 1.1-8.06.18-16.52-2.55-23.34-1.54-3.84-1.73-3.97-3.06-2.2-3.37 4.48-15.26 31.18-15.26 34.26 0 .97 18.1.27 19.18-.74zm21.73-19.06c1.68-4.64 2.9-8.58 2.73-8.76-.7-.7-7.4 2.18-11.5 4.97-3.9 2.65-4.3 3.26-3.75 5.96.33 1.65.6 5.98.62 9.62l.03 6.63 4.4-5c3.07-3.48 5.34-7.56 7.46-13.43zm102.5-12.56c-3.36-.72-8.34-2.28-11.06-3.45-4.74-2.03-5.22-2.06-10.87-.6-5.42 1.42-22.5 2.24-21.3 1.03.3-.3 3.8-1.44 7.82-2.55 12.2-3.38 12.18-3.36 5.9-9-2.98-2.67-5.8-4.86-6.24-4.9-.46 0-4.87 3.68-9.82 8.22-4.94 4.54-9.4 8.4-9.92 8.58-3.23 1.15 1.15-7.88 6.78-13.97 2.08-2.23 2.26-2.92 1.22-4.6-.68-1.07-.94-3.08-.6-4.46.53-2.1 1.4-2.62 5.3-3.15 4.55-.64 7.36-2.06 7.36-3.72 0-.46-1.58-.17-3.52.64-2.8 1.17-3.98 1.23-5.75.3-5.54-2.97-6.37-8.1-1.57-9.77 1.74-.6 3.92-1.1 4.87-1.1 1.5 0 1.77-1.52 2.2-11.75.32-7.32 1.1-13.13 2.06-15.42 1.55-3.66 4.84-6.38 6.15-5.07.38.38 1.1.03 1.62-.78 1.5-2.35 1.12-3.15-1.1-2.45-4.47 1.42-10.94-4.04-10.94-9.2 0-1.72 1.7-2.06 18.16-3.7 10-1 19.15-2.26 20.36-2.8 2.8-1.3 8.04 1.2 9.02 4.3 1.16 3.65-2.13 5.6-12.45 7.38-6.15 1.06-10.32 2.34-12 3.7l-2.6 2.07 5.5-.7c3.04-.38 6.55-1.37 7.82-2.2 3.35-2.17 6.3-1.34 8.9 2.53 2.03 3.02 2.28 4.6 2.28 14.36 0 9.47-.3 11.52-2.2 14.9-2.97 5.3-8.15 8.53-11.12 6.96-2.8-1.47-11.42 1.62-13.57 4.86-1.44 2.15-1.4 2.17 2.46 1.5 2.16-.38 5.23-1.32 6.83-2.08 3.82-1.83 6.16-1.75 9.68.33 3.3 1.95 3.43 2.55 1.53 7.92-.74 2.13-1.67 5.7-2.05 7.95l-.7 4.07 13.8 2.7c13.66 2.67 18.82 4.66 18.06 6.94-.2.66-2.34 1.46-4.74 1.78-2.4.33-4.54 1.12-4.76 1.75-.2.63-.96 1.15-1.68 1.15-.7 0-1.85.67-2.54 1.5-1.48 1.8-4.42 1.8-12.6 0zm-15.4-24.6c.62-2.27.87-4.36.56-4.67-.3-.3-2.4.27-4.66 1.3l-4.1 1.84-1.9-2.44c-1.6-2.08-2.05-2.22-2.9-.95-.54.82-1 1.73-1 2-.02.6 11.1 6.94 12.2 6.98.4 0 1.2-1.83 1.8-4.08zm-3.18-23.85c4.04-1.04 7.6-2.14 7.9-2.45 1.16-1.16 1.53-19.32.4-20.02-.62-.38-4.95.57-9.63 2.1-8.16 2.7-8.5 2.94-8.52 5.82 0 1.65-.3 6.04-.65 9.75-.75 7.93-1.02 7.8 10.5 4.8zm-6.3-2.4c-2.7-1.97-1.43-3.9 3.76-5.82 3.73-1.38 4.85-1.45 6.28-.4 2.18 1.6 1.3 4.3-1.8 5.45-5.2 1.95-6.46 2.07-8.24.77zm0-9.27c-2.38-2.37-1.45-3.65 3.82-5.3 4.16-1.28 4.88-1.28 6.2.06 2.22 2.2.87 4.4-3.47 5.7-4.8 1.45-4.63 1.46-6.56-.47zm-120.8 57.54c-1.43-.84-1.75-2.54-1.8-9.72l-.08-8.7-16.78-8.4c-18.36-9.2-17.74-9.07-32.58-6.5l-4 .68 2.47-2.7c1.36-1.47 6.03-4.45 10.37-6.63 13.58-6.8 20.63-5.12 36.25 8.58 3.42 3 6.9 5.47 7.75 5.47.85 0 4.25-3.5 7.56-7.75 11.7-15.07 20.7-18.98 31.34-13.6 3.22 1.63 9.76 7.22 9.76 8.33 0 .43-4.16.98-9.25 1.22-10.06.47-15.14 2.34-19.75 7.3-1.37 1.46-5.53 4.93-9.25 7.68l-6.75 5v8.48c0 7.83-1.03 12.4-2.78 12.32-.4-.02-1.5-.5-2.47-1.05zm.26-43.85c0-6.7-.4-11.07-1-11.07-1.6 0-9-7.1-10.56-10.13-1.83-3.53-1.84-9.2-.03-12.67 6.16-11.86 25.06-13.74 33.8-3.37 8 9.53 4.5 20.44-8.44 26.15-4.14 1.83-4.85 2.6-5.78 6.3-2.65 10.5-4.55 15.23-6.25 15.54-1.58.3-1.75-.74-1.75-10.75zm13.5-21.27c2.2-2.6 2.6-3.86 2.14-6.75-1.74-10.92-17.64-10.5-17.64.48 0 4.96 4.45 9.47 9.34 9.47 2.7 0 4.1-.73 6.17-3.2z"/><path fill="#0e1f0b" d="M61.82 444.84c-29.2-5-52.1-25.4-59.58-53C.6 385.78.48 374.87.48 223.35c0-132.4.25-163 1.35-167.5.74-3.02 3.4-9.77 5.88-15 3.86-8.04 5.86-10.8 13.17-18.08 9.46-9.44 16.94-14.13 29.6-18.6l8-2.8h240l7.5 2.33c20.97 6.53 36.98 20.12 45.56 38.65 6.9 14.9 6.55 4.3 6.24 184l-.3 162-2.8 8c-4.24 11.98-8.14 18.1-17.6 27.6-7.17 7.2-10.15 9.37-18.1 13.25-17.95 8.77-6.74 8.1-137 8.28-63.5.1-117.6-.2-120.15-.64zm240.7-5c13.5-3.45 21.78-8.22 32-18.45 6.86-6.9 9.9-10.84 12.73-16.55 7.8-15.73 7.17-1.1 7.5-176C355 119.7 354.76 69.83 354 64c-3-22.9-16.26-41.8-36.22-51.6-17.63-8.65-7.3-8.05-138.78-8.05H62.48l-7.95 2.3c-12.86 3.73-20.95 8.5-30.67 18.15-8.7 8.65-12.45 14.5-17.26 27.05l-2.12 5.5-.28 162.5c-.3 182.14-.8 169.63 7.04 185.3 8.1 16.16 25.4 29.82 43.97 34.68 6.96 1.82 12.52 1.9 123.37 1.96 113.07.05 116.3 0 123.95-1.96zm-142.22-48.4c-13.36-8.8-31.3-18.06-44.32-22.9-17.4-6.44-47.86-12.66-62.28-12.7-14.73-.05-7.23-5.95 14.27-11.23 10.52-2.58 33.97-3.13 37.92-.88 3.6 2.05 1.28 2.76-11.42 3.53-6.05.37-12.57 1.03-14.5 1.46-3.35.76-3.2.85 3.5 2.03 29.46 5.2 60.06 16.53 80.22 29.68 6.88 4.5 9.02 5.45 10.24 4.6 5-3.53 21.98-12.7 30.58-16.5 19.96-8.83 35.8-13.22 54.8-15.2 3.74-.38 6.44-1 6-1.4-.46-.38-5.24-2.65-10.63-5.04-5.4-2.4-10.07-4.77-10.4-5.3-2.02-3.28 9.4-3.07 19.42.36 10.53 3.6 26.3 11.85 27.2 14.22.47 1.22.48 2.6.02 3.1-.46.5-8.62 1.5-18.14 2.25-32.2 2.54-51.44 7.35-71.87 17.97-5.87 3.05-14 8.04-18.06 11.1-4.06 3.06-8.3 6.15-9.4 6.88-1.8 1.18-3.13.58-13.17-6.02zm3.68-20.83c-6.32-4.32-14.2-9.2-17.5-10.8-5.97-2.94-17.9-6.26-26.54-7.4l-4.55-.6-2.3-26.73c-1.26-14.7-2.52-27.55-2.8-28.56-.32-1.17-1.15-1.67-2.3-1.36-1 .25-2.4.06-3.16-.44-1.82-1.22 3.23-5.57 10.94-9.42 4.8-2.4 6.95-2.86 13.7-2.9 4.4 0 13.18.8 19.5 1.83 15.9 2.6 28.8 1.84 49-2.82 20.46-4.72 29.68-5.32 42.02-2.76 11.9 2.47 20.2 5.9 19.75 8.12-.27 1.3-1.5 1.56-6.55 1.32-3.95-.18-6.22.1-6.22.8 0 1.17-10.13 58.37-10.4 58.7-.1.1-5.53 1.82-12.1 3.8-18.96 5.76-27.88 10.37-42.5 21.96l-6.5 5.16-11.5-7.87zm12.93-2.16c.94-1.12.7-1.74-1.1-3-2-1.4-2.42-1.4-3.74-.1-1.3 1.32-1.26 1.66.47 2.97 2.46 1.87 2.93 1.88 4.38.14zm-9.82-7.2c1.16-1.4.95-1.94-1.6-3.97-2.7-2.17-3.06-2.22-4.7-.73-2.37 2.14-2.28 2.54.95 4.55 3.43 2.1 3.7 2.12 5.35.13zm20.54-.47c1.85-1.15 3.36-2.4 3.36-2.8 0-.96-5.6-5.12-6.9-5.12-.52 0-1.97 1.42-3.2 3.15l-2.24 3.15 2.28 1.85c2.82 2.28 2.6 2.3 6.7-.23zm-32.1-7.97c1.83-2.02 1.8-2.1-1.08-4.43l-2.96-2.37-2.75 2.6c-1.5 1.45-2.75 2.9-2.75 3.24 0 .65 4.7 2.72 6.6 2.9.6.06 1.93-.8 2.95-1.94zm20.93-1.92l2.84-2.96-2.4-2c-3.1-2.58-3.04-2.6-6.4.9-2.78 2.92-2.8 3.05-1.03 5 2.45 2.72 3.63 2.56 6.98-.94zm24.47-1.28c2.2-2.34 4.03-4.7 4.04-5.25 0-.55-1.53-2.24-3.42-3.75l-3.45-2.75-4.52 4.75-4.52 4.75 3.7 3.2c2.05 1.78 3.82 3.24 3.94 3.26.12.03 2.02-1.86 4.22-4.2zm-58.55-10.84l-3.7-2.95-2.35 2.2c-3.1 2.9-2.97 3.84.9 7.08l3.26 2.74 2.8-3.06 2.8-3.05-3.7-2.94zm23.05 3.4l2.94-3.52-2.44-1.87c-3.28-2.52-4.1-2.4-7.38 1.02l-2.8 2.93 2.87 2.53c1.6 1.4 3.1 2.5 3.38 2.5.28-.04 1.83-1.64 3.44-3.6zM225 344.2c3.3-.93 5.98-1.98 5.98-2.34 0-.37-1.98-2.1-4.4-3.84l-4.43-3.17-3.18 4.02c-2.6 3.3-2.97 4.3-1.97 5.5 1.5 1.8.8 1.82 8-.18zm-102.02-2.3c0-.5-.45-1.2-1-1.55-.55-.34-1 .08-1 .94 0 .85.45 1.55 1 1.55s1-.42 1-.94zm65.45-3.82c3.7-4.15 3.77-4.33 2.03-6.25-.98-1.1-2.26-1.98-2.84-1.98-1.3 0-8.64 7.06-8.64 8.3 0 1.03 4.24 4.73 5.07 4.4.3-.1 2.28-2.12 4.38-4.47zm25-2.98c1.93-2.06 3.5-3.98 3.52-4.25 0-.28-1.58-1.6-3.53-2.92l-3.56-2.42-3.66 3.67-3.66 3.66 3.47 2.97c1.92 1.63 3.6 3 3.72 3 .13.03 1.8-1.64 3.72-3.7zm-82.76-.42c2.96-2.8 2.9-3.27-.57-5.75l-2.88-2.05-2.7 2.1-2.67 2.12 2.75 2.87c1.52 1.6 2.98 2.88 3.26 2.88.27 0 1.54-.98 2.8-2.17zm23.8-7.3c-1.64-1.36-3.23-2.47-3.52-2.5-.3 0-2.1 1.32-4 2.97l-3.47 3 3.48 3 3.47 3.02 3.53-3.53 3.52-3.52-3-2.45zm23.4 2.1l4.28-4.38-3-2.12c-1.63-1.17-3.4-2.13-3.95-2.13-.54 0-2.58 1.96-4.54 4.35l-3.56 4.35 2.7 2.1c1.47 1.14 2.93 2.1 3.23 2.14.3.02 2.47-1.92 4.83-4.32zM233 332.1c0-.96.3-3.44.63-5.5.76-4.6-.28-4.65-4-.17l-2.85 3.43 2.35 1.96c2.94 2.45 3.85 2.5 3.87.28zm-31.56-13.2l-2.6-2.55-3.5 4-3.5 4 2.8 2.38 2.77 2.4 3.33-3.84 3.3-3.85-2.6-2.55zm-59.4 4.4l3.44-3.56-2.5-1.92c-3.33-2.57-3.87-2.5-7.62 1.15l-3.2 3.1 2.66 2.37c1.46 1.3 2.9 2.36 3.22 2.38.3 0 2.1-1.57 4-3.53zm82.82-7.8l-3.14-2.86-3.62 3.67-3.62 3.68 3.5 3 3.5 2.97 3.26-3.8 3.25-3.8-3.14-2.85zm-57.06-1.35c-2.92-3.1-3.8-2.94-8.25 1.63l-3.84 3.93 2.9 2.52 2.88 2.5 4.24-4.13 4.24-4.15-2.16-2.3zm-46.7 7.4c-1.3-1.28-2.6-.3-1.65 1.25.37.6 1.13.8 1.7.45.67-.42.66-.98-.06-1.7zm68.94-5.27c3.33-3.45 3.38-3.62 1.5-5-2.82-2.08-5-1.77-8.55 1.22l-3.17 2.65 2.83 2.32c1.55 1.27 3.07 2.32 3.38 2.34.3.03 2.1-1.56 4-3.52zm-56.06-5.4c0-.36-1.37-1.67-3.05-2.9-2.32-1.73-3.8-2.1-6.25-1.62-8.25 1.65-8.6 2.74-2.5 7.8l4.18 3.48 3.8-3.06c2.1-1.7 3.82-3.36 3.82-3.7zm79.06 1.4l3.44-3.54-2.5-1.92c-1.37-1.06-2.74-1.94-3.05-1.95-.3 0-2.1 1.58-4 3.54l-3.45 3.56 2.5 1.92c1.38 1.06 2.75 1.94 3.06 1.95.3 0 2.1-1.58 4-3.54zm-59.57-.42c1.58-1.64 2.66-3.2 2.4-3.46-.26-.26-2.4-.6-4.8-.76-5.74-.4-7.68 2.07-4.04 5.1 3.15 2.63 3.08 2.64 6.44-.88zm83.92-6.26c1.14-5.8-3.97-6.5-8.08-1.13l-2.76 3.62 2.84 2.43 2.83 2.44 2.27-2.13c1.24-1.17 2.54-3.53 2.9-5.24zm-37.92 1.25c.34-.55-.08-1-.94-1-.85 0-1.56.45-1.56 1s.43 1 .95 1c.5 0 1.2-.45 1.55-1zm-9.74-5.13c20.8-7.44 23.73-8.05 37.23-7.7l12.48.33.6-3.66c.55-3.44.4-3.7-2.36-4.26-1.64-.32-8.03-.6-14.23-.6-9.12 0-12.85.5-19.62 2.5-20.2 6.05-24.62 6.78-36.6 6.08-6.2-.36-16.55-1.52-23-2.6-12.48-2.05-17.46-2.33-23.52-1.33-3.74.6-3.75.6-3.75 5.6 0 4.93.03 4.98 2.75 4.32 1.52-.37 7.48-.9 13.25-1.16 9.2-.44 12.05-.13 23 2.45 16.78 3.97 22.7 3.97 33.76.02zm31.77-1.7c-3.37-.4-4.17.33-2.5 2.33 1.14 1.4 1.47 1.37 3.25-.23 1.95-1.75 1.94-1.77-.74-2.1zm-83.46-23.12c-.9-.56-2.12-4.9-3.18-11.22-1.84-10.97-1.4-13.2 2.4-12.63 2.73.42 9.07 17.75 7.77 21.2-1.24 3.23-4.26 4.38-7 2.65zm17.3.18c-1.8-1.14-5.62-18.37-4.35-19.63 1.93-1.94 4.3.83 7.82 9.2 2.83 6.72 3.22 8.43 2.18 9.68-1.35 1.63-3.8 1.95-5.67.75zm26.42-2.48c-.88-.7-2.26-4.53-3.07-8.55-1.3-6.46-1.3-7.47.02-8.8 2.32-2.3 4.84.63 7.43 8.68 1.8 5.63 1.97 7.06.9 8.35-1.58 1.9-3.15 2-5.3.32zm15.4-.5c-1.68-1.42-2.12-3.15-2.37-9.25-.3-7.07-.2-7.52 1.88-7.8 2.88-.42 5.28 4.16 6.04 11.5.42 4.1.2 5.72-.84 6.38-1.95 1.24-2.4 1.16-4.73-.83zm-92.04-3.96c-4.6-2.53-11.57-5.78-15.5-7.22-5.6-2.07-7.2-3.1-7.46-4.85-.3-2.03.1-2.22 4.46-2.22 9.04 0 31.7 13.06 30.07 17.32-.94 2.43-2.28 2.08-11.58-3.03zm62.53 4.04c-.37-.36-.67-4.2-.67-8.5 0-5.98.33-7.83 1.38-7.83.76 0 1.84.56 2.4 1.25 1.58 1.92 4.47 12.67 3.84 14.3-.55 1.45-5.7 2.03-6.95.78zm43.72-2.77c-.3-.78-.63-3.6-.72-6.24-.15-4.24.1-4.85 2-5.12 1.87-.27 2.46.53 3.97 5.3 1.53 4.9 1.58 5.76.32 6.56-2.18 1.38-4.95 1.14-5.57-.5zm10.32.83c-.4-.4-.72-2.9-.72-5.58 0-3.6.43-5.03 1.65-5.5 2.47-.94 4.5 2.55 4.15 7.2-.23 3.15-.73 4.06-2.34 4.3-1.12.15-2.36-.04-2.75-.42zm35.44-2.9c-1.84-.8-4.76-1.35-6.5-1.22-2.6.2-3.2-.15-3.47-2-.34-2.35-.9-2.58-5.44-2.28-2.18.14-2.75-.25-2.75-1.93 0-1.57-1.22-2.65-4.7-4.14-15.22-6.52-32.32-8.77-75.3-9.9-35.53-.96-41.4-1.65-55-6.54-14.57-5.25-54.4-26.78-55.68-30.1-2-5.24 6.42-2.5 39.68 12.87 20.9 9.65 27.4 12.16 34.5 13.3 2.2.34 4.82.85 5.82 1.12 1.58.44 1.47-.17-.9-4.83-4.3-8.53-9.72-15.84-17.14-23.13l-6.9-6.8-6.64 5.05c-3.66 2.76-7.46 5.03-8.45 5.03-1 0-7.87-4.28-15.3-9.52-16.32-11.5-17-12.06-17-13.97 0-3.7 7.47-.35 22.63 10.15l9.3 6.46 4.53-4.17 4.52-4.17-9.3-7.64c-5.12-4.2-11.4-9.23-13.96-11.15-4.44-3.33-6.6-6.46-5.3-7.74 1.56-1.56 9.54 2.8 23.97 13.13 25.14 17.98 32.54 25.53 44.16 45.12 2.6 4.4 5.44 8.56 6.3 9.25.86.7 4.3 1.25 7.85 1.25 6.1 0 6.3-.08 6.3-2.56 0-10.03-4.85-16.48-20.25-26.9-5.98-4.04-8.75-6.53-8.75-7.86 0-3.26 6.53-1.4 14.75 4.22 4 2.72 7.25 4.62 7.25 4.22 0-.4-1.56-3.18-3.47-6.18-4.73-7.44-4.58-11.78.3-8.37 7.18 5.03 16.27 24.2 17.77 37.48l.67 5.95h16.38l-.74-6.25c-.52-4.47-2.02-8.74-5.27-15.03-4.34-8.4-4.93-11.72-2.08-11.72 1.88 0 7.08 6.58 10.2 12.9 2.17 4.43 2.77 5.05 3.38 3.5 1.28-3.27.97-10.63-.76-18.03-2.72-11.64 0-14.25 4.46-4.28l2.72 6.1 3.84-5.58c2.12-3.07 5.48-7.1 7.48-8.94 2-1.85 4.14-4.22 4.75-5.27 1.27-2.2 3.52-2.83 6.96-1.97 2.56.64 3.24 3.35 1.33 5.27-.7.68-1.2 7.1-1.35 16.95l-.24 15.85 7.34-7.23c4.04-3.98 7.34-7.67 7.34-8.2 0-1.22 3.53-3.2 4.3-2.44.3.3 1.27.15 2.13-.33 1.4-.78 1.27-1.53-1.12-6.34-1.5-3-4.78-7.52-7.3-10.05-5.57-5.57-11.23-7.25-22.72-6.74-7.35.33-7.8.23-8.1-1.83-.45-3.26 2.98-4.55 13.54-5.1 11.87-.63 16 .86 23.72 8.52 6.84 6.78 9.75 11.5 13.06 21.25 2.76 8.1 6.22 13.25 10.76 16l3.03 1.85 7.6-6.43c4.2-3.54 9.44-7.33 11.68-8.43 5.83-2.86 14.9-4.3 22.6-3.6 7.4.68 18.96 4.42 19.6 6.36.55 1.7-3.57 1.6-12.77-.33-14.9-3.12-23.8.1-37 13.36-8.58 8.6-25 29.57-25 31.93 0 .67.83 1.66 1.84 2.2 1.45.78 3.47-.07 9.75-4.1 13.87-8.93 20.98-11.34 19.12-6.47-.32.8-5 4.54-10.4 8.3l-9.82 6.85 4.32.3c3.42.26 5.82-.46 11.5-3.4 8.3-4.32 11.55-4.58 24.68-1.9 8.9 1.8 11 2.8 11 5.2 0 1.18-2.2 1.4-12.75 1.2-12.38-.23-12.95-.14-19.9 2.93-8.05 3.55-15.46 4.13-21.2 1.64zM243.1 247.1c1.75-2.6 5.4-7.33 8.1-10.5l4.9-5.73-6.73-8.76c-3.7-4.8-7.14-9.2-7.63-9.75-1.9-2.13-4.75 3.45-4.78 9.36 0 3.1-.9 9.68-2 14.6s-1.98 9.68-1.98 10.57c0 1.22 3.77 4 6.7 4.92.12.02 1.65-2.1 3.4-4.7zm-14.8-11.75c3.4-17.78 3.24-18.52-2.6-11.25-3.85 4.8-11.84 17.96-11.25 18.55.2.2 2.78.93 5.7 1.6 3.7.84 5.53.9 5.98.15.35-.58 1.33-4.65 2.18-9.05zm-21.94-2.5c2.48-7.25 2.97-10.42 3.3-21.5l.4-13-4.52 4.83c-6.78 7.23-12.3 20.34-14.95 35.46l-.58 3.3 6.72-.3 6.72-.3 2.9-8.5zm-91.38 27.8c-6.43-5.86-12.26-9.37-21.45-12.9-8.77-3.38-10.55-4.46-10.55-6.46 0-5.92 22.23 2.03 33.67 12.04 4.74 4.14 7.98 9.53 6.6 10.92-1.4 1.4-4.07.23-8.27-3.6zm-5.33-65.47c-1.15-1.15-.73-3.6.94-5.45 1.47-1.64 1.43-2-.52-4.75-4.07-5.72-7.7-7.87-16.94-10.04-4.9-1.15-10.07-2.1-11.5-2.1-3.22 0-5.12-3-3.37-5.3 1.84-2.43 15.9-9.08 27.96-13.23 5.92-2.03 10.75-4.16 10.75-4.73 0-.56-1.18-4.98-2.63-9.8-4.87-16.25-1.5-15.96 19.7 1.7l8.84 7.35 5.54-10.34c3.05-5.7 5.54-11.03 5.54-11.86 0-2.1 2.43-3.93 4.3-3.22 1.66.65 4.5 6.73 7.26 15.62l1.76 5.67 5.1-2.83c2.8-1.55 7.9-3.83 11.32-5.05 9.5-3.4 11.2-.92 7.26 10.53-1.1 3.2-2 5.88-2 5.97 0 .1 3.72-1.1 8.25-2.66 9.2-3.13 15.04-3.35 15.57-.56.2 1.03-2.4 4.88-6.4 9.46-10.4 11.9-16.52 21.84-16.2 26.2.24 3-.06 3.64-1.84 3.9-1.17.16-3.8-.83-5.83-2.2-8.97-6.1-23.33-9.2-35.05-7.55-11.63 1.64-19.95 5.08-29.1 12.06-4.9 3.75-7.3 4.64-8.73 3.22zm11.33-16.6c0-4.26-1.97-20.04-2.6-20.65-.56-.58-15.77 4.3-22.03 7.08-2.5 1.1-4.33 2.2-4.1 2.46.25.24 3.38 1.25 6.96 2.24 7.33 2.03 14.1 5.68 17.7 9.55 3.2 3.43 4.08 3.28 4.08-.68zm65.46-3.24c1.45-2.48 4.9-7.5 7.64-11.12 2.75-3.63 4.85-6.76 4.66-6.95-.95-.95-10.7 4.83-13.85 8.2-3.66 3.94-7.92 9.72-7.92 10.75 0 .6 5.03 3.52 6.16 3.6.36 0 1.84-2 3.3-4.48zM137.6 160.2l2.28-5.18-8.56-7.14c-4.7-3.92-8.73-6.97-8.94-6.76-.2.2.7 4.64 2.04 9.86 1.32 5.22 2.97 13.22 3.67 17.77l1.26 8.3 2.97-5.86c1.63-3.22 4-8.17 5.26-11zm22.56 11.78c.37-.35 1.13-3.93 1.68-7.97 1.1-8.06.18-16.52-2.55-23.34-1.54-3.84-1.73-3.97-3.06-2.2-3.37 4.48-15.26 31.18-15.26 34.26 0 .97 18.1.27 19.18-.74zm21.73-19.06c1.68-4.64 2.9-8.58 2.73-8.76-.7-.7-7.4 2.18-11.5 4.97-3.9 2.65-4.3 3.26-3.75 5.96.33 1.65.6 5.98.62 9.62l.03 6.63 4.4-5c3.07-3.48 5.34-7.56 7.46-13.43z"/><path d="M61.82 444.84c-29.2-5-52.1-25.4-59.58-53C.6 385.78.48 374.87.48 223.35c0-132.4.25-163 1.35-167.5.74-3.02 3.4-9.77 5.88-15 3.86-8.04 5.86-10.8 13.17-18.08 9.46-9.44 16.94-14.13 29.6-18.6l8-2.8h240l7.5 2.33c20.97 6.53 36.98 20.12 45.56 38.65 6.9 14.9 6.55 4.3 6.24 184l-.3 162-2.8 8c-4.24 11.98-8.14 18.1-17.6 27.6-7.17 7.2-10.15 9.37-18.1 13.25-17.95 8.77-6.74 8.1-137 8.28-63.5.1-117.6-.2-120.15-.64zm240.7-5c13.5-3.45 21.78-8.22 32-18.45 6.86-6.9 9.9-10.84 12.73-16.55 7.8-15.73 7.17-1.1 7.5-176C355 119.7 354.76 69.83 354 64c-3-22.9-16.26-41.8-36.22-51.6-17.63-8.65-7.3-8.05-138.78-8.05H62.48l-7.95 2.3c-12.86 3.73-20.95 8.5-30.67 18.15-8.7 8.65-12.45 14.5-17.26 27.05l-2.12 5.5-.28 162.5c-.3 182.14-.8 169.63 7.04 185.3 8.1 16.16 25.4 29.82 43.97 34.68 6.96 1.82 12.52 1.9 123.37 1.96 113.07.05 116.3 0 123.95-1.96z"/></g></g></svg>