<svg xmlns="http://www.w3.org/2000/svg" width="59pt" height="80pt" version="1" viewBox="0 0 59.000000 80.000000"><path d="M14.5 11c-.3 1.1-1.3 2-2.1 2s-1.4.7-1.4 1.6c0 1.1.6 1.5 2 1.1 2.6-.7 3.8 3.4 2 6.8-1.6 2.9-.4 4.8 2.5 4.1 1.4-.4 2.8 0 3.5.9.7.8 1.8 1.5 2.6 1.5 1.7 0 3.4-6.1 2.9-10.2-.3-2.1.1-3.5 1.3-4.4 2.2-1.7.4-3.7-2.9-3.2-2.3.3-2.4.7-2.1 6 .4 6.4-.1 8-2.4 7.1-1.2-.4-1.5-1.9-1.3-6.2.1-3.1-.1-6.4-.5-7.4-1.1-2.3-3.3-2.2-4.1.3zM35.6 17.1c-2.6 1.8-5.9 4.9-7.2 7-4.5 7.3-2.9 24.2 3.6 37.1 1.8 3.6 1.5 5.4-.6 4-.9-.6-3.5-7.6-6.6-18.2-1.2-3.9-4.5-8-6.5-8-.8 0-1.3-1.3-1.3-3.6 0-4.2-1.5-3.7-2.4.8l-.7 3.3-1.5-2.8c-.8-1.5-1.6-2.7-1.9-2.7-.6 0 .7 7.4 1.8 9.4.9 1.9 1 1.9 2.8-.3 1.6-1.9 2.2-2.1 3.4-1.1.8.7 1.5 2.1 1.5 3.1s.5 2.1 1 2.4c.6.3 1 1.1 1 1.7 0 .6-.9.3-1.9-.6-1.1-1-2.5-1.5-3-1.1-2.2 1.3-1 4.2 4 9.4 2.8 2.9 5.5 6.6 6.1 8.1 1 3.1 4.3 4.4 8.3 3.4 2.5-.6 2.7-1 2.9-4.9.1-1.4.8-2 2.3-2 2.7 0 3.4-.7 4.8-5 1-2.7 1-3.5-.1-3.9-.8-.3-1.4-1.4-1.4-2.4s-.5-2.3-1.2-3c-.9-.9-.8-1.2.8-1.3 1-.1 2.5-.1 3.2 0 2.2.3 1.3-1.4-1.9-3.3-1.7-1-3.1-1.6-3.3-1.4-3.8 5.7-4.4 7.8-2.3 7.8 2.1 0 4 4.9 2.6 6.6-.9 1.1-1.5 1.2-2.6.2-1.1-.9-1.6-.9-2.3.2-1.4 2.2-3.6-.4-4.9-5.8-.7-2.6-1.6-6.1-2.1-7.8-3.1-10 .3-19.4 9.5-26.1 4.6-3.4 1.4-2.7-3.9.8z"/></svg>