<?xml version="1.0" standalone="no"?>
<!DOCTYPE svg PUBLIC "-//W3C//DTD SVG 20010904//EN"
 "http://www.w3.org/TR/2001/REC-SVG-20010904/DTD/svg10.dtd">
<svg version="1.0" xmlns="http://www.w3.org/2000/svg"
 width="59.000000pt" height="80.000000pt" viewBox="0 0 59.000000 80.000000"
 preserveAspectRatio="xMidYMid meet">
<metadata>
Created by potrace 1.13, written by Peter Selinger 2001-2015
</metadata>
<g transform="translate(0.000000,80.000000) scale(0.100000,-0.100000)"
fill="#000000" stroke="none">
<path d="M145 690 c-3 -11 -13 -20 -21 -20 -8 0 -14 -7 -14 -16 0 -11 6 -15
20 -11 26 7 38 -34 20 -68 -16 -29 -4 -48 25 -41 14 4 28 0 35 -9 7 -8 18 -15
26 -15 17 0 34 61 29 102 -3 21 1 35 13 44 22 17 4 37 -29 32 -23 -3 -24 -7
-21 -60 4 -64 -1 -80 -24 -71 -12 4 -15 19 -13 62 1 31 -1 64 -5 74 -11 23
-33 22 -41 -3z"/>
<path d="M356 629 c-26 -18 -59 -49 -72 -70 -45 -73 -29 -242 36 -371 18 -36
15 -54 -6 -40 -9 6 -35 76 -66 182 -12 39 -45 80 -65 80 -8 0 -13 13 -13 36 0
42 -15 37 -24 -8 l-7 -33 -15 28 c-8 15 -16 27 -19 27 -6 0 7 -74 18 -94 9
-19 10 -19 28 3 16 19 22 21 34 11 8 -7 15 -21 15 -31 0 -10 5 -21 10 -24 6
-3 10 -11 10 -17 0 -6 -9 -3 -19 6 -11 10 -25 15 -30 11 -22 -13 -10 -42 40
-94 28 -29 55 -66 61 -81 10 -31 43 -44 83 -34 25 6 27 10 29 49 1 14 8 20 23
20 27 0 34 7 48 50 10 27 10 35 -1 39 -8 3 -14 14 -14 24 0 10 -5 23 -12 30
-9 9 -8 12 8 13 10 1 25 1 32 0 22 -3 13 14 -19 33 -17 10 -31 16 -33 14 -38
-57 -44 -78 -23 -78 21 0 40 -49 26 -66 -9 -11 -15 -12 -26 -2 -11 9 -16 9
-23 -2 -14 -22 -36 4 -49 58 -7 26 -16 61 -21 78 -31 100 3 194 95 261 46 34
14 27 -39 -8z"/>
</g>
</svg>
