<svg xmlns="http://www.w3.org/2000/svg" width="66pt" height="83pt" version="1" viewBox="0 0 66.000000 83.000000"><path d="M18 8.4c0 .8.5 1.8 1.1 2.1.6.5.4 1.2-.8 2-2 1.5-1.1 3 2.2 3.8 1.8.4 1.7.5-.3.6-3.5.2-2.1 2.5 1.9 3.2 2.5.5 1.7.7-3.3.8-6.9.1-8.8 1.4-4.5 3 1.2.4 5 .6 8.3.3 3.9-.3 6.4 0 6.8.7 1.2 1.9 3.6 1.2 3.6-.9 0-1.3-1-2.5-2.8-3.3-2.4-1-2.8-1.8-2.7-4.9.1-2.1.4-4.1.8-4.4.4-.4.7-1.6.7-2.6 0-2.8-3.7-2.3-4.4.7-.8 3.1-1.8 3.2-3.1.3C20.3 7.2 18 6.2 18 8.4zM35.7 19.5c1.3 6.6.7 12.8-1.5 17-2.3 4.3-2.7 3.3-1.2-3 .5-2.2.7-4.1.5-4.4-.7-.6-4.5 8.4-5.5 13.2l-.9 4.2.3-5.2c.3-5.9-1.1-6.2-2-.3-.5 2.7-1 3.7-2 3.3-.8-.3-1.4 0-1.4.6s.6 1.1 1.4 1.1c.8 0 1.9 1.5 2.5 3.2.6 1.8 2.7 5.3 4.7 7.8l3.6 4.5-3.1.5c-5.2.8-3 2.5 3.4 2.6 3.3.1 6.9.3 8 .5 1.5.3 2.2-.5 3.3-3.6.7-2.2 2-4.5 2.9-5.2 1.7-1.3 1.3-4.5-1-7.7-1.9-2.6-5.7-1.3-5.7 2 0 1.3-.5 2.4-1.1 2.4-1.6 0-.5-7.4 1.6-10.7 1.5-2.2 2.2-2.5 5.7-2 5.2.7 4.6-1.3-1-3.1-3.8-1.3-4-1.5-3.1-3.8 1.2-3.3 1.2-8.4-.1-8.4-.5 0-1 .9-1 2 0 2-2.6 8-3.4 8-.2 0-.2-1.7.1-3.8.6-4.3-.9-10.9-3.2-13.7-1.4-1.9-1.5-1.7-.8 2z"/></svg>