<?xml version="1.0" standalone="no"?>
<!DOCTYPE svg PUBLIC "-//W3C//DTD SVG 20010904//EN"
 "http://www.w3.org/TR/2001/REC-SVG-20010904/DTD/svg10.dtd">
<svg version="1.0" xmlns="http://www.w3.org/2000/svg"
 width="61.000000pt" height="83.000000pt" viewBox="0 0 61.000000 83.000000"
 preserveAspectRatio="xMidYMid meet">
<metadata>
Created by potrace 1.13, written by Peter Selinger 2001-2015
</metadata>
<g transform="translate(0.000000,83.000000) scale(0.100000,-0.100000)"
fill="#000000" stroke="none">
<path d="M150 722 c0 -4 5 -13 12 -20 9 -9 7 -12 -10 -12 -24 0 -28 -10 -11
-27 9 -9 9 -20 0 -44 -9 -25 -8 -34 1 -40 9 -6 7 -14 -7 -30 -17 -19 -18 -22
-3 -16 10 3 35 -3 58 -15 38 -21 41 -21 58 -5 13 13 17 35 17 85 0 37 4 70 9
73 12 9 -2 29 -20 29 -8 0 -14 7 -14 15 0 20 -26 19 -34 -1 -6 -16 -8 -16 -24
0 -20 17 -32 21 -32 8z"/>
<path d="M385 677 c5 -25 3 -28 -15 -22 -15 5 -20 2 -20 -10 0 -9 9 -19 20
-22 21 -6 21 -15 -2 -76 l-11 -28 -24 22 c-18 17 -26 20 -35 11 -14 -14 19
-55 39 -48 17 7 16 2 -2 -34 -21 -40 -65 -65 -65 -36 0 15 -21 26 -51 26 -26
0 -24 -15 6 -38 l25 -20 -22 -5 c-12 -4 -28 -1 -35 5 -17 14 -44 3 -37 -17 3
-8 12 -15 19 -15 41 0 17 -77 -25 -82 -34 -4 -43 -48 -9 -48 12 0 30 7 39 15
14 13 19 13 38 -1 12 -8 22 -23 22 -32 0 -11 3 -13 11 -5 12 12 58 -7 79 -32
15 -18 -1 -20 -18 -3 -15 15 -24 6 -17 -15 4 -8 22 -18 40 -21 19 -4 53 -18
77 -31 31 -18 46 -21 55 -13 21 17 15 33 -27 64 -45 33 -50 51 -16 63 32 13
42 41 17 48 -12 3 -17 11 -14 19 3 8 -1 22 -10 32 -8 9 -18 27 -21 39 -7 21
-34 39 -44 28 -3 -2 1 -12 9 -22 12 -15 12 -16 -4 -10 -10 4 -26 7 -35 7 -11
0 -13 3 -6 8 18 12 82 174 88 222 4 30 1 55 -9 75 l-15 30 5 -28z"/>
</g>
</svg>
