<?xml version="1.0" standalone="no"?>
<!DOCTYPE svg PUBLIC "-//W3C//DTD SVG 20010904//EN"
 "http://www.w3.org/TR/2001/REC-SVG-20010904/DTD/svg10.dtd">
<svg version="1.0" xmlns="http://www.w3.org/2000/svg"
 width="66.000000pt" height="83.000000pt" viewBox="0 0 66.000000 83.000000"
 preserveAspectRatio="xMidYMid meet">
<metadata>
Created by potrace 1.13, written by Peter Selinger 2001-2015
</metadata>
<g transform="translate(0.000000,83.000000) scale(0.100000,-0.100000)"
fill="#000000" stroke="none">
<path d="M180 746 c0 -8 5 -18 11 -21 6 -5 4 -12 -8 -20 -20 -15 -11 -30 22
-38 18 -4 17 -5 -3 -6 -35 -2 -21 -25 19 -32 25 -5 17 -7 -33 -8 -69 -1 -88
-14 -45 -30 12 -4 50 -6 83 -3 39 3 64 0 68 -7 12 -19 36 -12 36 9 0 13 -10
25 -28 33 -24 10 -28 18 -27 49 1 21 4 41 8 44 4 4 7 16 7 26 0 28 -37 23 -44
-7 -8 -31 -18 -32 -31 -3 -12 26 -35 36 -35 14z"/>
<path d="M357 635 c13 -66 7 -128 -15 -170 -23 -43 -27 -33 -12 30 5 22 7 41
5 44 -7 6 -45 -84 -55 -132 l-9 -42 3 52 c3 59 -11 62 -20 3 -5 -27 -10 -37
-20 -33 -8 3 -14 0 -14 -6 0 -6 6 -11 14 -11 8 0 19 -15 25 -32 6 -18 27 -53
47 -78 l36 -45 -31 -5 c-52 -8 -30 -25 34 -26 33 -1 69 -3 80 -5 15 -3 22 5
33 36 7 22 20 45 29 52 17 13 13 45 -10 77 -19 26 -57 13 -57 -20 0 -13 -5
-24 -11 -24 -16 0 -5 74 16 107 15 22 22 25 57 20 52 -7 46 13 -10 31 -38 13
-40 15 -31 38 12 33 12 84 -1 84 -5 0 -10 -9 -10 -20 0 -20 -26 -80 -34 -80
-2 0 -2 17 1 38 6 43 -9 109 -32 137 -14 19 -15 17 -8 -20z"/>
</g>
</svg>
