<?xml version="1.0" standalone="no"?>
<!DOCTYPE svg PUBLIC "-//W3C//DTD SVG 20010904//EN"
 "http://www.w3.org/TR/2001/REC-SVG-20010904/DTD/svg10.dtd">
<svg version="1.0" xmlns="http://www.w3.org/2000/svg"
 width="66.000000pt" height="93.000000pt" viewBox="0 0 66.000000 93.000000"
 preserveAspectRatio="xMidYMid meet">
<metadata>
Created by potrace 1.13, written by Peter Selinger 2001-2015
</metadata>
<g transform="translate(0.000000,93.000000) scale(0.100000,-0.100000)"
fill="#000000" stroke="none">
<path d="M386 784 c21 -32 20 -89 -3 -131 -17 -31 -33 -43 -33 -24 0 4 -16 25
-35 45 -20 21 -32 43 -28 51 7 19 -64 52 -80 36 -6 -6 -14 -5 -24 5 -24 24
-46 18 -39 -10 4 -17 1 -28 -10 -34 -13 -8 -14 -12 -3 -29 10 -18 9 -26 -9
-58 -22 -36 -22 -36 -2 -30 15 5 20 2 20 -14 0 -26 20 -38 34 -20 6 8 23 14
38 14 19 0 24 -3 16 -12 -11 -14 -2 -33 16 -33 16 0 56 54 56 76 0 13 4 11 19
-7 15 -19 16 -25 5 -36 -32 -33 -84 -101 -84 -112 0 -6 -8 -11 -17 -11 -16 0
-16 -2 3 -18 11 -9 25 -29 32 -44 6 -16 18 -28 27 -28 8 0 15 -7 15 -15 0 -8
-4 -15 -9 -15 -5 0 -7 -9 -4 -20 9 -33 -16 -22 -34 15 -18 38 -39 48 -30 15 3
-11 1 -20 -5 -20 -5 0 -12 9 -15 20 -6 23 -35 26 -53 6 -9 -12 -5 -19 27 -39
78 -49 144 -77 168 -71 24 6 73 -15 94 -40 19 -22 51 -20 51 3 0 20 -43 71
-59 71 -6 0 -15 9 -21 20 -6 11 -17 20 -26 20 -11 0 -12 5 -6 18 5 9 7 23 5
30 -3 7 2 21 12 32 12 13 15 27 10 54 -4 20 -11 38 -15 41 -14 9 -20 -26 -7
-47 9 -16 9 -22 0 -25 -7 -3 -13 -11 -13 -18 0 -8 -10 -19 -21 -26 -27 -14
-69 5 -69 31 0 10 -6 23 -14 30 -8 6 -12 19 -9 28 7 20 39 52 51 52 5 0 15 7
22 15 9 11 16 13 24 5 15 -15 42 -12 56 5 10 12 10 19 -2 33 -18 21 -12 54 10
51 32 -3 42 1 42 17 0 9 -7 22 -16 28 -11 8 -13 20 -9 38 6 24 9 26 31 16 29
-14 50 1 40 27 -5 13 -14 15 -44 11 -34 -6 -39 -4 -54 24 -9 16 -22 30 -28 30
-6 0 -3 -11 6 -26z"/>
</g>
</svg>
