<svg xmlns="http://www.w3.org/2000/svg" width="358.916" height="445.724" viewBox="0 0 358.91638 445.72388"><g><g><path fill="#bfbfbf" d="M58 444.45c-24-5.22-43.58-21.24-52.87-43.3C-.1 388.74 0 392.92 0 222.88 0 45.14-.47 56.75 7.6 40.2 15.87 23.3 30.77 10.45 49.8 3.86L59.5.5h119c98.44 0 119.94.24 124.43 1.4 29.32 7.5 50.66 30.06 55.03 58.1.86 5.55 1.08 49.33.85 168l-.3 160.5-2.8 8c-6.6 18.7-19.1 33-36.2 41.44-16.37 8.07-5.78 7.47-137.5 7.7-98.07.2-118.57 0-124-1.2zm245.3-5.2c19.57-5.52 35.74-18.6 44.1-35.66 7.06-14.43 6.6-1.96 6.6-180.24-.03-178.52.4-166.72-6.75-181.36-5.42-11.08-18.67-24.1-30.24-29.72-16.1-7.8-8.08-7.4-140.5-7.08l-118 .3-7.3 2.7c-10.35 3.85-17.42 8.14-24.9 15.13-7.2 6.75-11 11.83-15.35 20.62-6.22 12.55-5.9 3.2-5.9 179.05 0 178.15-.45 166.38 6.72 181 5.53 11.28 18.8 24.35 30.24 29.8 9.35 4.46 14.2 5.94 23.4 7.17 3.36.45 56.5.74 118.1.65l112-.16 7.8-2.2zM61.7 329.4c-6.07-1.88-12.7-8.23-12.67-12.15.03-4.05 2.95-9.7 9.93-19.25 11.83-16.17 19.35-28.25 23.57-37.86 4-9.06 14.48-37.27 14.48-38.93 0-.4-3.26-3.47-7.26-6.8-8.27-6.9-14.3-15.1-15.32-20.8l-.7-3.9 7.4.6c6.5.5 18.3 3.15 23.02 5.14 1.32.55 1.87-.3 2.85-4.38.66-2.78 1.6-5.06 2.1-5.06s.9 2.7.9 5.98v5.98l7.6 4.27c15.5 8.72 19.38 12.55 17.3 17.1-1.98 4.34-14.37 8.55-21.33 7.25l-3.3-.62-1.18 10.77c-1.47 13.07-3.94 24.75-8.72 41.12-2.93 10.05-3.4 12.8-2.5 14.75.6 1.32 1.9 2.4 2.88 2.4 2.72 0 14.73-6.02 32.5-16.28l15.95-9.22-.65-21c-.36-11.55-1.06-27.16-1.55-34.7-1.05-16.13-1.06-16.14-14.77-36.14-9.8-14.28-13.24-21.32-13.2-26.92.02-4 3.35-11.56 5.43-12.36 2.48-.95 20.62 3.12 26.7 6 11.56 5.47 27.85 23.7 27.85 31.2 0 1.18-2.26 5.26-5.03 9.04-2.76 3.78-5.25 7.78-5.53 8.88-.27 1.1-.37 16.05-.2 33.23l.27 31.22 12.75-7.22L194 243.5V221c-.02-20.82-2-54.03-3.6-60.67-.4-1.55-2.17-5.76-3.96-9.33-1.8-3.58-3.8-9.28-4.47-12.68l-1.2-6.18 3.75-3.32c6.4-5.67 17.5-13.65 22.04-15.85 7.68-3.7 10-3.16 16.76 4.03 12.2 13 19.7 27.74 18.2 35.8-.7 3.72-3.04 6.32-14.86 16.5-4.04 3.5-5.73 5.7-6.1 8-.27 1.77-.63 14.05-.8 27.3l-.3 24.12 5.9-3.6c3.24-2 8.24-5.74 11.12-8.34 5.1-4.6 5.24-4.87 5.86-11.5.83-8.84 2.86-11.67 8.7-12.1 4.95-.36 12.6 2.15 24.06 7.88 15.13 7.58 19.24 13.65 11.84 17.47-1.55.8-15.34 5.7-30.63 10.9-15.28 5.2-30 10.4-32.7 11.62l-4.9 2.18.65 21.14c.77 25 1.77 30.13 6.48 33.3 4.85 3.26 16.94 5.67 25.64 5.1 5.73-.35 8.8-1.22 14.7-4.13 11.14-5.5 22.58-6.53 29.83-2.64 10.47 5.6-1.77 24.27-18.64 28.43-16.56 4.1-55.57 4.7-65.85 1.05-13.82-4.92-16.1-11.47-17.36-49.58l-.63-19.6-12.73 7.02c-11.5 6.33-12.78 7.3-13.2 10.1-3.04 20.4-5.68 30.7-8.62 33.63-3.88 3.9-6.5 1.3-7.4-7.27-.34-3.45-.9-8.66-1.2-11.57l-.58-5.27-15.63 15.5c-23.38 23.2-30.17 28.2-42.35 31.06-8 1.87-23.8 1.82-30.1-.1z"/><path fill="#bebebe" d="M58.37 444.52C43.9 441.34 31.7 434.64 21.03 424c-8.63-8.6-13.9-17.06-17.8-28.5l-2.72-8v-329l2.73-8c3.87-11.38 9.14-19.77 17.84-28.45C32.32 10.82 43.6 4.77 59.2 1.58 65.97.2 80.9 0 179.4 0c121.5 0 120.28-.05 133.6 5.34 10 4.03 17.05 8.74 25 16.67 8.63 8.6 13.9 17.06 17.8 28.5l2.73 8 .28 161c.32 179.98.7 169.58-6.76 185-8.9 18.4-24.4 31.57-45.5 38.65l-7 2.35-117.5.18c-95.32.15-118.67-.07-123.65-1.16zm244.94-5.26c19.57-5.53 35.74-18.6 44.1-35.67 7.06-14.43 6.6-1.96 6.6-180.24-.03-178.52.4-166.72-6.75-181.36-5.42-11.08-18.67-24.1-30.24-29.72-16.1-7.8-8.08-7.4-140.5-7.08l-118 .3-7.3 2.7c-10.35 3.85-17.42 8.14-24.9 15.13-7.2 6.75-11 11.83-15.35 20.62-6.22 12.55-5.9 3.2-5.9 179.05 0 178.15-.45 166.38 6.72 181 5.53 11.28 18.8 24.35 30.24 29.8 9.35 4.46 14.2 5.94 23.4 7.17 3.36.45 56.5.74 118.1.65l112-.16 7.8-2.2zM61.7 329.4c-6.07-1.88-12.7-8.23-12.67-12.15.03-4.05 2.95-9.7 9.93-19.25 11.83-16.17 19.35-28.25 23.57-37.86 4-9.06 14.48-37.27 14.48-38.93 0-.4-3.26-3.47-7.26-6.8-8.27-6.9-14.3-15.1-15.32-20.8l-.7-3.9 7.4.6c6.5.5 18.3 3.15 23.02 5.14 1.32.55 1.87-.3 2.85-4.38.66-2.78 1.6-5.06 2.1-5.06s.9 2.7.9 5.98v5.98l7.6 4.27c15.5 8.72 19.38 12.55 17.3 17.1-1.98 4.34-14.37 8.55-21.33 7.25l-3.3-.62-1.18 10.77c-1.47 13.07-3.94 24.75-8.72 41.12-2.93 10.05-3.4 12.8-2.5 14.75.6 1.32 1.9 2.4 2.88 2.4 2.72 0 14.73-6.02 32.5-16.28l15.95-9.22-.65-21c-.36-11.55-1.06-27.16-1.55-34.7-1.05-16.13-1.06-16.14-14.77-36.14-9.8-14.28-13.24-21.32-13.2-26.92.02-4 3.35-11.56 5.43-12.36 2.48-.95 20.62 3.12 26.7 6 11.56 5.47 27.85 23.7 27.85 31.2 0 1.18-2.26 5.26-5.03 9.04-2.76 3.78-5.25 7.78-5.53 8.88-.27 1.1-.37 16.05-.2 33.23l.27 31.22 12.75-7.22L194 243.5V221c-.02-20.82-2-54.03-3.6-60.67-.4-1.55-2.17-5.76-3.96-9.33-1.8-3.58-3.8-9.28-4.47-12.68l-1.2-6.18 3.75-3.32c6.4-5.67 17.5-13.65 22.04-15.85 7.68-3.7 10-3.16 16.76 4.03 12.2 13 19.7 27.74 18.2 35.8-.7 3.72-3.04 6.32-14.86 16.5-4.04 3.5-5.73 5.7-6.1 8-.27 1.77-.63 14.05-.8 27.3l-.3 24.12 5.9-3.6c3.24-2 8.24-5.74 11.12-8.34 5.1-4.6 5.24-4.87 5.86-11.5.83-8.84 2.86-11.67 8.7-12.1 4.95-.36 12.6 2.15 24.06 7.88 15.13 7.58 19.24 13.65 11.84 17.47-1.55.8-15.34 5.7-30.63 10.9-15.28 5.2-30 10.4-32.7 11.62l-4.9 2.18.65 21.14c.77 25 1.77 30.13 6.48 33.3 4.85 3.26 16.94 5.67 25.64 5.1 5.73-.35 8.8-1.22 14.7-4.13 11.14-5.5 22.58-6.53 29.83-2.64 10.47 5.6-1.77 24.27-18.64 28.43-16.56 4.1-55.57 4.7-65.85 1.05-13.82-4.92-16.1-11.47-17.36-49.58l-.63-19.6-12.73 7.02c-11.5 6.33-12.78 7.3-13.2 10.1-3.04 20.4-5.68 30.7-8.62 33.63-3.88 3.9-6.5 1.3-7.4-7.27-.34-3.45-.9-8.66-1.2-11.57l-.58-5.27-15.63 15.5c-23.38 23.2-30.17 28.2-42.35 31.06-8 1.87-23.8 1.82-30.1-.1z"/><path fill="#7f7f7f" d="M58.37 444.52C43.9 441.34 31.7 434.64 21.03 424c-8.63-8.6-13.9-17.06-17.8-28.5l-2.72-8v-329l2.73-8c3.87-11.38 9.14-19.77 17.84-28.45C32.32 10.82 43.6 4.77 59.2 1.58 65.97.2 80.9 0 179.4 0c121.5 0 120.28-.05 133.6 5.34 10 4.03 17.05 8.74 25 16.67 8.63 8.6 13.9 17.06 17.8 28.5l2.73 8 .28 161c.32 179.98.7 169.58-6.76 185-8.9 18.4-24.4 31.57-45.5 38.65l-7 2.35-117.5.18c-95.32.15-118.67-.07-123.65-1.16zm235.5-3.56c23.3-2.93 43.58-16.82 53.2-36.46 7.45-15.2 6.94-1.84 6.94-181.5 0-180.02.54-166.23-7.1-181.85-7.94-16.22-24.68-29.36-43.52-34.18C295.94 5.07 291.78 5 179.5 5 67.97 5 63.03 5.08 55.78 6.93 31.87 13.05 13.5 30.8 7.07 54 5.03 61.4 5.02 62.7 5.02 223c0 180.12-.54 166.2 7.17 181.95 9.17 18.72 29.95 33.1 52 35.95 9.65 1.26 219.73 1.3 229.7.04zM64 330.13c-7.14-2.36-15-9.14-14.98-12.92 0-3.4 4.98-11.98 14.88-25.7 12.44-17.22 18-27.88 26.5-50.74C96.78 223.66 98 219 96.14 219c-1.52 0-15.1-13.08-18.1-17.45-1.57-2.3-3.2-5.9-3.6-8.02l-.7-3.85 7.38.64c6.34.55 17.53 3.06 23 5.17 1.25.46 1.9-.44 2.9-3.97 1.88-6.73 3-6.5 3.02.66v6.3l6.25 3.4c10.47 5.7 16.74 10.2 18.25 13.12 1.3 2.52 1.25 3-.55 5.3-2.75 3.5-10 6.02-17.52 6.1l-6.34.08-.6 6.5c-1.17 12.07-4.43 28.43-8.47 42.37C98.8 283 97 290 97 290.92c0 2.1 1.93 4.1 3.96 4.06 3.25-.05 13.18-4.94 30.44-15l17.9-10.4-.7-21.54c-.38-11.85-1.12-27.8-1.65-35.48-1.1-15.94-.7-14.93-14.47-35.06-4.52-6.6-9.16-13.87-10.32-16.16-4.2-8.3-3.74-16.56 1.17-21.17 2.07-1.95 2.77-2.04 8.4-1.14 9.03 1.46 18.16 4.5 23.37 7.8 6.9 4.4 19.2 17.04 21.8 22.45 2.85 5.9 2.5 7.5-3.6 15.68l-4.8 6.44-.28 33.3c-.16 18.32-.05 33.3.25 33.3s6.22-3.24 13.16-7.2l12.62-7.18-.52-30.06c-.7-40.8-1.78-50.6-6.8-61.64-2.15-4.7-4.38-11-4.96-14l-1.05-5.42 3.8-3.37c5.8-5.17 17.4-13.7 21.23-15.64 6.2-3.15 8.6-3.45 11.8-1.5 4.06 2.46 15.46 16.95 19.6 24.92 7.07 13.55 5.93 18.52-6.44 28.1-4.35 3.37-8.54 7.33-9.3 8.8-1.04 2.02-1.47 9.14-1.74 28.83-.4 30.13-1.76 27.78 10.95 19.04 8.96-6.16 11.2-8.88 11.2-13.6.02-5.2 1.82-10.9 4.2-13.3 1.72-1.72 2.9-1.97 7.18-1.5 10.02 1.06 32.32 12.24 36.18 18.14 3.28 5 .5 6.48-33.55 17.84-14.02 4.68-28.08 9.65-31.24 11.06L219 242.9l.02 12.8c.02 17.97 1.66 36.15 3.5 38.97 3.48 5.3 16.92 8.96 29.86 8.1 5.6-.36 8.65-1.23 14.3-4.1 6.65-3.36 16.43-5.83 20.2-5.1 5.85 1.12 7.3 1.7 10.05 4.02 3.95 3.3 3.98 6.7.1 12.53-3.5 5.3-9.44 10.28-15.3 12.86-7.17 3.14-28.73 5.3-47.6 4.74-19.08-.55-25.17-1.98-31-7.26-6.07-5.47-7.96-14.96-8.96-44.7l-.66-19.73-12.7 7.02c-11.64 6.43-12.76 7.3-13.2 10.23-3.18 21.07-5.96 30.9-9.7 34.3-2.05 1.85-2.12 1.84-3.9-.35-1.07-1.33-2.05-4.75-2.43-8.5-.35-3.43-.9-8.42-1.2-11.08l-.57-4.83-15.15 14.9c-22.15 21.76-29.87 27.83-39.3 30.85-5.47 1.75-27.42 2.83-31.35 1.53z"/><path fill="#404040" d="M63.67 444.9c-27.22-3.6-49.2-20.83-59.04-46.3l-3.12-8.1-.27-164C.9 43.6.48 55.66 7.9 40.35 16.93 21.77 33.93 8.2 54.84 2.92c7.54-1.9 11.32-1.95 127.22-1.7l119.46.28 8 2.8c21.55 7.57 36.83 22.25 44.88 43.1l3.13 8.1.3 164.5c.33 182.98.75 170.88-6.43 185.6-8.78 18.04-23.93 30.54-44.9 37.08l-8.96 2.8-113.5.15c-62.45.1-116.57-.25-120.33-.74zm242.84-6.12c21.52-7.33 38.33-23.7 45.22-44.07l2.8-8.2v-327l-2.84-8c-8.6-24.3-28.2-41.25-53.3-46.06-11.22-2.14-226.53-2.14-237.74 0-25.1 4.8-44.72 21.75-53.3 46.07l-2.83 8v327l2.83 8c8.43 23.85 27.3 40.5 52.18 46.03 4.85 1.08 28.48 1.3 122.5 1.15l116.5-.18 8-2.72zm-239-108.4c-1.1-.3-3.7-.97-5.8-1.5-2.1-.55-5.58-2.6-7.75-4.55-6.98-6.3-5.52-11.38 8.98-31.22 15.1-20.67 19.12-28.38 29.07-55.74l6.1-16.75-3.3-2.52C83.05 209.03 75 198.93 75 193.23v-3.43l6.26.72c5.32.6 13.68 2.5 22.43 5.04 1.87.55 2.34.07 3.43-3.58 1.02-3.4 1.4-3.85 2-2.35.4 1.03.77 3.46.8 5.4.07 3.4.43 3.74 9.74 9 11.5 6.5 15.34 9.84 15.34 13.3 0 4.88-8.53 8.65-19.6 8.66h-6.1l-.64 9.06c-.8 11.23-3.52 24.8-8.13 40.43C95.8 291.5 96 295 101.6 295c2.93 0 18.72-8.03 34.9-17.74l13-7.8-.26-12.48c-.15-6.86-.75-22.37-1.35-34.46-1.27-25.6-.36-22.88-15-44.58-5.4-8-10.53-16.2-11.37-18.2-2.22-5.33-1.97-13.5.54-17.62l2.07-3.38 6.66.68c8.62.9 20.22 4.8 26.04 8.8 6.6 4.54 16.7 14.94 19.1 19.66 3.26 6.38 2.73 9.32-3.18 17.8l-5.25 7.5-.27 31.17c-.15 17.65.13 31.75.65 32.54.73 1.1 3.47-.1 13.52-5.84l12.6-7.2v-27.18c-.03-16.02-.63-33.3-1.48-42.1-1.3-13.42-1.8-15.64-4.9-22-3.87-7.93-5.6-13.55-5.6-18.24 0-2.76 1-3.98 8-9.55 10.78-8.6 18.03-12.86 23-13.52 3.94-.53 4.3-.34 9.14 4.83 15.54 16.68 22.37 33.05 17.1 41.04-.97 1.46-4.86 5.06-8.67 8-11.06 8.57-10.4 6.38-11.2 37.1-.37 14.73-.37 26.76 0 26.76 1.72 0 17.68-11.32 20.5-14.52 2.6-2.96 3.1-4.38 3.1-8.54 0-15.18 7.43-16.43 30.5-5.13 15.75 7.73 20 13.1 13.45 17.1-1.68 1-11.7 4.66-22.25 8.1-10.56 3.43-25.16 8.5-32.44 11.24l-13.25 5 .04 18.13c.03 19.27 1.12 31.3 3.13 34.52 3.08 4.93 14.5 8.4 27.44 8.35 7.67-.03 8.86-.34 17.07-4.4 8.34-4.1 9.3-4.35 17.38-4.35 9.47 0 13.26 1.56 15 6.14 2.1 5.47-6.12 16.8-15.4 21.3-5.3 2.56-20.9 4.86-38.64 5.7-21.15 1-36.25-1.77-42.7-7.83-4.7-4.4-6.72-16.22-7.88-46.08-.38-9.8-1-17.66-1.37-17.5-.38.15-6.32 3.38-13.2 7.16l-12.53 6.87-1.23 9.42c-1.4 10.7-4.5 22.72-6.72 26.15-2.1 3.23-5.5 2.55-6.55-1.32-.45-1.65-1.1-7.38-1.47-12.73l-.65-9.73-16.64 16.27c-22.72 22.2-29.67 27.4-40.55 30.38-5.32 1.45-22.66 2.58-26 1.7z"/><path fill="#3f3f3f" d="M64.82 444.97c-17.32-2.06-30.5-8.58-43.35-21.43-10.3-10.32-15.33-18.77-18.5-31.15-1.92-7.53-1.96-11.73-1.95-169.3C1.04 42.7.52 55.73 8.24 40c3.38-6.9 5.88-10.2 13.22-17.53 10.4-10.4 20.38-16.1 34.1-19.5 7.88-1.97 10.82-2 127-1.74l118.95.27 6.5 2.34c12.96 4.67 20.05 9.14 29.54 18.63 10.3 10.3 15.33 18.75 18.5 31.14C357.95 61.14 358 65.37 358 223c0 157.64-.04 161.87-1.97 169.4-3.18 12.45-8.15 20.83-18.47 31.16-10.23 10.24-19.78 15.9-33.27 19.7l-7.8 2.2-112.5.16c-61.87.08-115.5-.2-119.18-.65zm241.7-6.2c21.5-7.32 38.3-23.7 45.2-44.06l2.8-8.2v-327l-2.84-8c-8.6-24.3-28.2-41.25-53.3-46.06-11.22-2.14-226.53-2.14-237.74 0-25.1 4.8-44.72 21.75-53.3 46.07l-2.83 8v327l2.83 8c8.43 23.85 27.3 40.5 52.18 46.03 4.85 1.08 28.48 1.3 122.5 1.15l116.5-.18 8-2.72zm-239-108.4c-1.1-.28-3.73-.96-5.82-1.5-2.1-.54-5.58-2.58-7.75-4.54-6.98-6.3-5.52-11.38 8.98-31.22 15.1-20.67 19.12-28.38 29.07-55.74l6.1-16.75-3.3-2.52C83.05 209.03 75 198.93 75 193.23v-3.43l6.26.72c5.32.6 13.68 2.5 22.43 5.04 1.87.55 2.34.07 3.43-3.58 1.02-3.4 1.4-3.85 2-2.35.4 1.03.77 3.46.8 5.4.07 3.4.43 3.74 9.74 9 11.5 6.5 15.34 9.84 15.34 13.3 0 4.88-8.53 8.65-19.6 8.66h-6.1l-.64 9.06c-.8 11.23-3.52 24.8-8.13 40.43C95.8 291.5 96 295 101.6 295c2.93 0 18.72-8.03 34.9-17.74l13-7.8-.26-12.48c-.15-6.86-.75-22.37-1.35-34.46-1.27-25.6-.36-22.88-15-44.58-5.4-8-10.53-16.2-11.37-18.2-2.22-5.33-1.97-13.5.54-17.62l2.07-3.38 6.66.68c8.62.9 20.22 4.8 26.04 8.8 6.6 4.54 16.7 14.94 19.1 19.66 3.26 6.38 2.73 9.32-3.18 17.8l-5.25 7.5-.27 31.17c-.15 17.65.13 31.75.65 32.54.73 1.1 3.47-.1 13.52-5.84l12.6-7.2v-27.18c-.03-16.02-.63-33.3-1.48-42.1-1.3-13.42-1.8-15.64-4.9-22-3.87-7.93-5.6-13.55-5.6-18.24 0-2.76 1-3.98 8-9.55 10.78-8.6 18.03-12.86 23-13.52 3.94-.53 4.3-.34 9.14 4.83 15.54 16.68 22.37 33.05 17.1 41.04-.97 1.46-4.86 5.06-8.67 8-11.06 8.57-10.4 6.38-11.2 37.1-.37 14.73-.37 26.76 0 26.76 1.72 0 17.68-11.32 20.5-14.52 2.6-2.96 3.1-4.38 3.1-8.54 0-15.18 7.43-16.43 30.5-5.13 15.75 7.73 20 13.1 13.45 17.1-1.68 1-11.7 4.66-22.25 8.1-10.56 3.43-25.16 8.5-32.44 11.24l-13.25 5 .04 18.13c.03 19.27 1.12 31.3 3.13 34.52 3.08 4.93 14.5 8.4 27.44 8.35 7.67-.03 8.86-.34 17.07-4.4 8.34-4.1 9.3-4.35 17.38-4.35 9.47 0 13.26 1.56 15 6.14 2.1 5.47-6.12 16.8-15.4 21.3-5.3 2.56-20.9 4.86-38.64 5.7-21.15 1-36.25-1.77-42.7-7.83-4.7-4.4-6.72-16.22-7.88-46.08-.38-9.8-1-17.66-1.37-17.5-.38.15-6.32 3.38-13.2 7.16l-12.53 6.87-1.23 9.42c-1.4 10.7-4.5 22.72-6.72 26.15-2.1 3.23-5.5 2.55-6.55-1.32-.45-1.65-1.1-7.38-1.47-12.73l-.65-9.73-16.64 16.27c-22.72 22.2-29.67 27.4-40.55 30.38-5.32 1.45-22.66 2.58-26 1.7z"/><path d="M64.82 444.97c-17.32-2.06-30.5-8.58-43.35-21.43-10.3-10.32-15.33-18.77-18.5-31.15-1.92-7.53-1.96-11.73-1.95-169.3C1.04 42.7.52 55.73 8.24 40c3.38-6.9 5.88-10.2 13.22-17.53 10.4-10.4 20.38-16.1 34.1-19.5 7.88-1.97 10.82-2 127-1.74l118.95.27 6.5 2.34c12.96 4.67 20.05 9.14 29.54 18.63 10.3 10.3 15.33 18.75 18.5 31.14C357.95 61.14 358 65.37 358 223c0 157.64-.04 161.87-1.97 169.4-3.18 12.45-8.15 20.83-18.47 31.16-10.23 10.24-19.78 15.9-33.27 19.7l-7.8 2.2-112.5.16c-61.87.08-115.5-.2-119.18-.65zm234.5-4.4c27.93-5.35 50.52-28.12 54.68-55.12.73-4.78.98-57.05.78-166.95-.26-152.43-.37-160.26-2.12-165.5-3.77-11.24-8.75-19.2-17.6-28.12-7.24-7.3-10.02-9.32-18.05-13.2-16.9-8.13-10.22-7.78-141-7.46L60.5 4.5l-7 2.35c-12.93 4.34-20.36 8.9-29.64 18.18-6.98 7-9.42 10.26-12.68 17.06C3.58 57.9 4 47.32 4 223c0 137.07.2 158.07 1.54 164.8 5.1 25.72 26.7 47 53.47 52.66 9.86 2.1 229.47 2.18 240.33.1zM66.36 329.96C57.1 328.12 50 322.43 50 316.82c0-4.22 2.7-8.92 14.6-25.5 12.05-16.76 19.42-31.1 27.18-52.83 2.75-7.7 5.3-14.95 5.64-16.12.52-1.73-.58-3.1-6.15-7.6-8.97-7.25-15.28-15.46-16-20.83l-.55-4.13 5.9.73c3.23.4 9.26 1.6 13.4 2.67 11.65 3.02 12.2 2.95 13.52-1.68 1.04-3.66 1.17-3.78 1.78-1.5.36 1.35.66 3.88.67 5.62 0 2.92.65 3.52 8.65 8 11.8 6.62 16.87 11.16 16.04 14.44-1.07 4.23-7.8 7.2-17.42 7.72l-8.27.43v4.78c0 7.9-3.75 27.6-8.05 42.32-2.38 8.14-3.93 15.36-3.75 17.5.28 3.38.56 3.67 3.8 3.93 4.18.33 11.74-3.3 33.93-16.34l15.23-8.94-.6-12.5c-.32-6.87-1.07-22.38-1.65-34.46-.66-13.85-1.54-23.16-2.4-25.2-.73-1.76-5.85-9.9-11.36-18.05-11.88-17.58-14.08-22.1-14.1-28.8-.03-7 2.8-11.5 7.2-11.5 5.42.02 19.75 3.87 25.17 6.77 6.47 3.46 22.06 18.7 24.08 23.5 2.4 5.73 1.9 7.82-3.72 15.8l-5.25 7.43-.3 31c-.18 17.05.05 31.96.5 33.14.77 2.04 1.34 1.83 13.3-5.06l12.5-7.2-.06-32.93c-.08-39.92-1.05-49.75-5.87-59.32-1.88-3.73-4-9.55-4.68-12.93-1.25-6-1.22-6.23 1.16-8.78 7.23-7.75 25.54-19.4 30.54-19.4 1.27-.02 4.25 2.26 7.53 5.73 11.73 12.43 18.87 25.18 18.87 33.72 0 4.78-.2 5.17-5.62 10-3.1 2.77-7.75 7.05-10.35 9.53l-4.73 4.5-.65 18.4c-.35 10.14-.64 22.45-.64 27.37 0 7.93.2 8.87 1.67 8.3 3.76-1.44 15.35-9.84 18.72-13.57 3.17-3.53 3.6-4.63 3.6-9.25 0-6.3 2.73-11.4 6.6-12.36 8.17-2.06 40.4 14.46 40.4 20.7 0 2.73-6.5 5.64-30 13.38-11.27 3.72-25.16 8.56-30.86 10.76l-10.36 4 .5 23.13c.3 13.4 1 24.73 1.67 26.93 2.1 6.82 12.42 10.95 27.55 11.02 8.6.04 9.5-.18 18.43-4.28 12.07-5.57 20.2-6.43 27-2.86 4.97 2.6 6.15 4.87 4.92 9.46-1.24 4.6-9.16 12.88-15.14 15.8-7.8 3.8-22.97 5.83-44.7 5.96-16.6.1-19.23-.13-25.68-2.16-3.95-1.24-8.56-3.42-10.25-4.84-5.3-4.46-7.4-15.92-8.64-47.15-.37-9.5-.9-17.25-1.17-17.25-.26 0-6.22 3.15-13.24 7l-12.75 6.98-.7 6.26c-1.1 9.86-4.24 23.2-6.55 27.74-1.62 3.18-2.62 4.07-4.25 3.83-2.7-.4-3.57-3.5-4.4-16.05-.37-5.36-.9-9.75-1.17-9.75-.28 0-7.75 7.2-16.6 15.97-17.76 17.63-26.9 25.38-33.35 28.24-8.95 3.98-24.22 5.67-33.9 3.76z"/></g></g></svg>