<svg xmlns="http://www.w3.org/2000/svg" width="358.752" height="445.444" viewBox="0 0 358.75192 445.44418"><g><g><path fill="#bfbfbf" d="M57.9 444c-23.18-4.66-41.9-19.27-51.73-40.33-6.66-14.3-6.34-4.33-6.04-184.43L.4 56l2.34-6.5C11.4 25.46 29.37 8.7 53.9 1.84 60.02.13 67.28 0 178.9 0 312.73 0 302-.6 319.82 8.15c7.7 3.8 10.9 6.1 17.5 12.75 12.43 12.5 18.42 24.37 20.57 40.77.75 5.8 1 56.28.78 166.34-.34 177.07.33 161.56-7.77 178.1-6.98 14.3-21.46 27.55-36.9 33.8-14.2 5.75-10.94 5.62-135.3 5.52-90-.08-115.68-.38-120.8-1.4zm235.02-3.55c17.1-2.13 29.04-8 41.5-20.44 9.24-9.23 14.46-18.2 17.5-30.1 1.93-7.52 1.98-11.74 1.98-167.4 0-155.64-.05-159.86-1.97-167.38-5.5-21.54-21.98-39.17-43.9-47.02L299.4 5l-117.76-.26c-130.17-.3-123.67-.6-138.06 6.12C25.88 19.1 13.56 33 7.1 52l-2.7 8v161.5c0 176.64-.36 165.76 5.98 179.5 10.06 21.83 30.75 36.7 55.02 39.53 10.1 1.2 217.98 1.1 227.52-.08zM134.02 339.1c-2.94-1.6-7.1-8.28-7.12-11.34 0-2 .5-2.25 4.4-2.25h4.4l-16.24-33.74c-8.94-18.56-20.43-41.63-25.54-51.25-14.82-27.9-15.04-28.3-14.6-28.74.22-.23 3.77-.86 7.88-1.4 6.68-.9 7.88-.8 11.38 1 4.94 2.5 11.3 9.37 15.36 16.57 1.73 3.07 3.3 5.58 3.48 5.58.18 0 7.45-2.7 16.15-6.02 8.7-3.3 16.3-6.2 16.87-6.4.73-.24.67-3.26-.18-9.7-1.33-10.1-1.75-30.67-.74-35.75.35-1.7 1.2-3.12 1.9-3.12 1.82 0 6.43 5.73 8.5 10.53 2.13 5 4.98 17.3 4.98 21.53 0 2.8 1.72.9 15.66-17.2 8.6-11.2 19.64-24.73 24.5-30.08 4.86-5.35 8.84-10.14 8.84-10.64 0-3.97-27.8-.86-92.5 10.33-26.88 4.65-35.72 5.33-44.6 3.43-5.46-1.17-11.24-5.6-12.33-9.43-.55-1.95 1.03-2.3 36.76-8.25 58.63-9.75 79.57-14.22 122.64-26.2 17.25-4.82 26.07-6.35 31.34-5.46 7.7 1.3 34.93 21.55 40.7 30.27 8.72 13.16-1 17.7-42 19.65-15.14.72-26.66 2.16-31.73 3.96l-3.77 1.35 3 1.08c10.73 3.92 10.95 6.1 1.57 15.56-5.04 5.07-7.68 8.67-9.1 12.37l-1.97 5.24 3.75-1.57c2.06-.86 7.16-3.57 11.34-6 4.16-2.46 8.48-4.46 9.6-4.46 2.97 0 34.17 21.02 41.83 28.2 13.4 12.53 13.07 15.74-4.03 38.8-12.1 16.34-14.17 19.7-27 44-13.26 25.16-17.72 32.33-21.02 33.84-2.42 1.1-10.04 1.68-54.98 4.17-10.45.58-20.8 1.5-23 2-5.6 1.34-11.57 1.18-14.4-.4zm33.62-17.04c.14-.1-.2-2.65-.74-5.63-.55-2.98-3.9-23.6-7.48-45.82-3.57-22.22-6.7-40.6-6.98-40.88-.5-.5-26.85 9.12-29.47 10.74-1.15.72.9 5.5 10.6 24.72 15.15 30.04 20.58 43.63 20.72 51.86l.1 6.03 6.5-.4c3.57-.2 6.6-.5 6.74-.6zm17.85-1.85c.07-.1 1.8-17.52 3.84-38.7 2.03-21.17 4.32-44.3 5.1-51.43.77-7.12 1.28-13.07 1.13-13.22-.3-.3-16.8 3.88-23.67 6.02-3.78 1.18-4.47 1.78-4.32 3.77.1 1.3 2.34 23.23 4.96 48.72l4.77 46.34 4-.64c2.22-.35 4.1-.73 4.2-.85zm22.94-1.34c.93-.36 3.94-5.42 6.7-11.25 22.06-46.9 26.76-59.96 26.76-74.57 0-9.97-1.6-12.85-8.66-15.5-3.7-1.4-9.2-2.4-14.98-2.75-10.58-.64-9.4-1.92-11.78 12.73-1.48 9.06-9.58 84.93-9.58 89.72 0 2.08.46 2.3 4.92 2.3 2.7 0 5.68-.3 6.62-.66zm-11.78-115.14c.2-.58-.13-2.88-.73-5.1-.96-3.54-1.53-4.1-4.67-4.7-3.5-.66-3.82-.44-14.63 10.37l-11.05 11.03 15.37-5.27c8.44-2.9 15.52-5.76 15.7-6.34z"/><path fill="#bebebe" d="M57.93 443.96c-25.64-5.6-46.07-23.5-54.7-47.96L.4 388 .13 225.78c-.3-182.5-.8-169.6 7.4-186.26 3.9-7.84 6.2-10.97 13.3-18.07 7.1-7.13 10.2-9.38 18.07-13.25C56.8-.62 46.08 0 179.4 0c111.13 0 118.38.12 124.5 1.83 25.68 7.2 45.58 26.76 52.68 51.77 1.72 6.08 1.82 14.8 1.82 168.9 0 154.48-.1 162.83-1.83 169-5.76 20.46-20.16 37.6-39.17 46.62-15.46 7.34-5.83 6.84-136 7.06-97.7.16-118.07-.04-123.47-1.22zm235-3.5c17.1-2.14 29.03-8.02 41.48-20.45 9.26-9.23 14.48-18.2 17.53-30.1 1.92-7.52 1.97-11.74 1.97-167.4 0-155.64-.05-159.86-1.97-167.38-5.5-21.54-21.98-39.17-43.9-47.02L299.4 5l-117.76-.26c-130.17-.3-123.67-.6-138.06 6.12C25.88 19.1 13.56 33 7.1 52l-2.7 8v161.5c0 176.64-.36 165.76 5.98 179.5 10.06 21.83 30.75 36.7 55.02 39.53 10.1 1.2 217.98 1.1 227.52-.08zM134 339.1c-2.92-1.6-7.1-8.28-7.1-11.34 0-2 .5-2.25 4.4-2.25h4.4l-16.24-33.74c-8.94-18.56-20.43-41.63-25.54-51.25-14.82-27.9-15.04-28.3-14.6-28.74.22-.23 3.77-.86 7.88-1.4 6.68-.9 7.88-.8 11.38 1 4.94 2.5 11.3 9.37 15.36 16.57 1.73 3.07 3.3 5.58 3.48 5.58.18 0 7.45-2.7 16.15-6.02 8.7-3.3 16.3-6.2 16.87-6.4.73-.24.67-3.26-.18-9.7-1.33-10.1-1.75-30.67-.74-35.75.35-1.7 1.2-3.12 1.9-3.12 1.82 0 6.43 5.73 8.5 10.53 2.13 5 4.98 17.3 4.98 21.53 0 2.8 1.72.9 15.66-17.2 8.6-11.2 19.64-24.73 24.5-30.08 4.86-5.35 8.84-10.14 8.84-10.64 0-3.97-27.8-.86-92.5 10.33-26.88 4.65-35.72 5.33-44.6 3.43-5.46-1.17-11.24-5.6-12.33-9.43-.55-1.95 1.03-2.3 36.76-8.25 58.63-9.75 79.57-14.22 122.64-26.2 17.25-4.82 26.07-6.35 31.34-5.46 7.7 1.3 34.93 21.55 40.7 30.27 8.72 13.16-1 17.7-42 19.65-15.14.72-26.66 2.16-31.73 3.96l-3.77 1.35 3 1.08c10.73 3.92 10.95 6.1 1.57 15.56-5.04 5.07-7.68 8.67-9.1 12.37l-1.97 5.24 3.75-1.57c2.06-.86 7.16-3.57 11.34-6 4.16-2.46 8.48-4.46 9.6-4.46 2.97 0 34.17 21.02 41.83 28.2 13.4 12.53 13.07 15.74-4.03 38.8-12.1 16.34-14.17 19.7-27 44-13.26 25.16-17.72 32.33-21.02 33.84-2.42 1.1-10.04 1.68-54.98 4.17-10.45.58-20.8 1.5-23 2-5.6 1.34-11.57 1.18-14.4-.4zm33.64-17.04c.14-.1-.2-2.65-.74-5.63-.55-2.98-3.9-23.6-7.48-45.82-3.57-22.22-6.7-40.6-6.98-40.88-.5-.5-26.85 9.12-29.47 10.74-1.15.72.9 5.5 10.6 24.72 15.15 30.04 20.58 43.63 20.72 51.86l.1 6.03 6.5-.4c3.57-.2 6.6-.5 6.74-.6zm17.85-1.85c.07-.1 1.8-17.52 3.84-38.7 2.03-21.17 4.32-44.3 5.1-51.43.77-7.12 1.28-13.07 1.13-13.22-.3-.3-16.8 3.88-23.67 6.02-3.78 1.18-4.47 1.78-4.32 3.77.1 1.3 2.34 23.23 4.96 48.72l4.77 46.34 4-.64c2.22-.35 4.1-.73 4.2-.85zm22.94-1.34c.93-.36 3.94-5.42 6.7-11.25 22.06-46.9 26.76-59.96 26.76-74.57 0-9.97-1.6-12.85-8.66-15.5-3.7-1.4-9.2-2.4-14.98-2.75-10.58-.64-9.4-1.92-11.78 12.73-1.48 9.06-9.58 84.93-9.58 89.72 0 2.08.46 2.3 4.92 2.3 2.7 0 5.68-.3 6.62-.66zm-11.78-115.14c.2-.58-.13-2.88-.73-5.1-.96-3.54-1.53-4.1-4.67-4.7-3.5-.66-3.82-.44-14.63 10.37l-11.05 11.03 15.37-5.27c8.44-2.9 15.52-5.76 15.7-6.34z"/><path fill="#7f7f7f" d="M57.93 443.96c-25.64-5.6-46.07-23.5-54.7-47.96L.4 388 .13 225.78c-.3-182.5-.8-169.6 7.4-186.26 3.9-7.84 6.2-10.97 13.3-18.07 7.1-7.13 10.2-9.38 18.07-13.25C56.8-.62 46.08 0 179.4 0c111.13 0 118.38.12 124.5 1.83 25.68 7.2 45.58 26.76 52.68 51.77 1.72 6.08 1.82 14.8 1.82 168.9 0 154.48-.1 162.83-1.83 169-5.76 20.46-20.16 37.6-39.17 46.62-15.46 7.34-5.83 6.84-136 7.06-97.7.16-118.07-.04-123.47-1.22zm245.8-5.26c23.7-7.25 39.98-22.63 47.33-44.7l2.34-7V57L350.3 49c-7-18.1-18.14-30.22-35.08-38.12-14.4-6.7-7.84-6.42-138.56-6.12L58.4 5l-8 2.83C25.08 16.8 8.27 37.03 4.9 62.63c-.76 5.86-1 55.72-.78 165.38.34 175.65-.3 160.5 7.55 176.5 4.34 8.85 16.34 21.52 25.4 26.83 7.4 4.35 17.9 7.94 26.45 9.06 3.8.5 57.23.82 119.88.72l113-.17 7.34-2.25zM132.5 337.46c-3.5-3.07-6.3-9.03-5.1-10.93.33-.56 2.36-1.02 4.5-1.02h3.86l-5.05-10.74c-10.98-23.4-33-67.7-42.12-84.74-11-20.54-11.07-19.36 1.36-19.78 6.13-.2 7.14.05 11.1 2.88 3.67 2.62 11.45 12.17 15.42 18.93.98 1.68 2.26 1.34 18-4.8 9.3-3.62 16.87-6.96 16.78-7.4-2.15-11.16-2.95-45.06-1.1-46.9 1.3-1.32 5.3 2.28 7.94 7.18 3.14 5.8 5.56 13.8 6.58 21.72l.74 5.76 15.2-19.8c8.38-10.88 19.1-24.02 23.8-29.2 11.33-12.4 11.47-12.7 6.44-13.37-8.83-1.2-35.2 2.2-81.94 10.5-34.14 6.08-48.1 6.85-56.23 3.1-4.63-2.14-9.54-7.96-8-9.5.4-.38 11.08-2.34 23.73-4.35 51.46-8.15 90.66-15.98 117.6-23.5 30.7-8.56 37.48-10.12 44.56-10.3l7.16-.17 11.84 8c13.36 9.04 27.8 22.5 28.9 26.96 1.14 4.5-1.26 7.7-7.7 10.27-5.8 2.3-14.4 3.33-44.36 5.27-13.97.9-25.6 2.78-27.2 4.4-.3.27 1.2 1.2 3.3 2.1 4.6 1.9 7.4 4.3 7.4 6.28 0 .8-3.33 4.9-7.4 9.1-5.1 5.26-7.87 9.03-8.9 12.13-.83 2.5-1.4 4.63-1.26 4.77.5.52 7.2-2.67 15.06-7.17 4.4-2.52 8.66-4.58 9.46-4.58 2.8-.02 36.33 23.27 43.12 29.93 10.9 10.72 10.55 15.2-2.66 32.56-12.17 16-16.9 23.44-26.03 40.74-15.22 28.9-18.84 35.13-22.54 38.87-4.2 4.26-1.67 3.93-48.86 6.46-15.13.8-29.53 1.9-32 2.42-8.3 1.74-11.62 1.3-15.4-2.02zm35.1-15.37c.1-.1-.68-5.54-1.75-12.12-1.07-6.58-4.4-27.2-7.38-45.82-3-18.6-5.66-34.07-5.94-34.35-.27-.26-2.22.06-4.32.73-3.6 1.16-26.54 10-27.03 10.4-.13.1 3.4 7.15 7.83 15.64 17.3 33.13 26.56 55.93 25.6 63.02l-.48 3.66 6.64-.5c3.65-.3 6.73-.58 6.84-.67zm17.9-1.9c.12-.1 1.85-17.5 3.86-38.7 2-21.16 4.3-44.3 5.12-51.38.8-7.1 1.3-13.06 1.1-13.27-.44-.44-21.76 4.96-25.98 6.58-2.46.94-2.73 1.45-2.24 4.32.7 4.1 9.54 89.48 9.54 92.1 0 1.7.5 1.84 4.2 1.24 2.33-.38 4.3-.77 4.4-.9zm23.7-1.94c1.97-1.46 18.33-35.98 25.1-52.96 2.6-6.44 5.38-15 6.22-19 2.03-9.62 1.56-22.83-.9-25.54-2.67-2.96-11.16-5.32-21.36-5.96-10.62-.66-9.5-1.9-11.85 12.88-1.53 9.65-9.5 84.5-9.5 89.3 0 2.4.3 2.53 5.3 2.53 2.93 0 6.07-.55 7-1.24zm-13.02-117.9c-.24-4.96-2.1-6.85-6.74-6.85-2.57 0-4.76 1.7-13.3 10.28-5.64 5.64-10.24 10.56-10.24 10.93 0 .38 6.86-1.73 15.25-4.67l15.25-5.35-.22-4.32z"/><path fill="#404040" d="M63.4 444.45c-23.24-2.78-45.63-18.15-55.35-38C-.25 389.5.45 405.34.12 228-.08 117.96.14 67.5.9 61.68 3.02 45.47 9.1 33.3 20.92 21.5 29.58 12.9 38.02 7.6 49.4 3.74l8-2.72 119-.27C310.44.4 302.76 0 318.7 8.05 333.88 15.7 344 25.75 350.87 40c7.5 15.55 7.04 3.85 7.02 182.7-.02 178.28.4 167.26-6.9 182.18-9.28 18.9-25.2 31.78-46.96 37.94-7.6 2.14-8.16 2.15-120.62 2.3-62.15.1-116.15-.2-120-.67zm243-6.26c19.98-7.07 34.3-19.86 42.38-37.84 5.93-13.2 5.62-3.37 5.62-178.35V61l-2.35-7.46c-6.07-19.34-18-33.5-35.7-42.37C301.1 3.53 310.35 4 178.4 4h-118l-7.67 2.63c-12.2 4.16-20.47 9.32-29.35 18.28-9.25 9.36-14.5 18.4-17.5 30.22-1.93 7.52-1.98 11.74-1.98 167.4 0 155.64.05 159.86 1.97 167.38 3.1 12.15 8.2 20.85 18.05 30.74 7.22 7.27 10.06 9.35 18.03 13.2 16.46 7.95 8.97 7.55 139.95 7.35l116.5-.2 8-2.8zm-171.23-99.17c-3.56-1.55-7.26-6.77-7.27-10.26 0-1.84.7-2.35 4-2.88 2.2-.36 4-.73 4-.84 0-1.02-35.2-72.92-40.18-82.05-10-18.34-16.12-30.53-15.6-31.03.24-.25 3.86-.75 8.03-1.1 6.95-.6 7.96-.43 11.92 1.9 4.93 2.9 9.12 7.75 13.76 15.96l3.2 5.7 4.7-1.9c2.56-1.03 10.44-4.05 17.5-6.7l12.84-4.82-.57-3.5c-2.6-16.05-2.98-43.02-.63-44.47 1.55-.96 7.04 5.9 9.13 11.42 1.16 3.06 2.78 9.38 3.6 14.06.8 4.68 1.6 8.63 1.73 8.77.14.14 7.33-8.97 16-20.24 8.65-11.27 18.94-24 22.85-28.26 11.9-13 11.36-12.24 9.7-13.3-4.6-2.9-28.72-.05-89.97 10.6-28.44 4.95-41.9 5.7-50.33 2.85-4.83-1.65-8.96-5.68-8.46-8.24.23-1.12 9.2-2.96 37.88-7.74 48.94-8.16 77.78-14.06 102.42-20.96 43.02-12.03 48.4-12.7 57.56-7.2 14.72 8.87 30.8 22.58 34.12 29.1 3.45 6.75 1.03 10.13-9.3 12.98-6.58 1.83-11.25 2.32-34.88 3.7-19.5 1.12-31.5 3-33.8 5.3-1.17 1.2-.86 1.5 2.1 2.05 5.08.96 8.93 4.27 8.1 6.96-.35 1.18-3.9 5.52-7.87 9.65-6.54 6.8-10.8 14.07-9.2 15.68.72.72 9.97-3.6 16.1-7.52 7.72-4.9 9.15-4.54 26.15 6.8 25.88 17.27 32.98 24.22 32.78 32.05-.14 5.23-2.77 9.97-13.2 23.82-11.06 14.68-14.13 19.52-22.64 35.7-20 38.05-21.9 40.98-27.3 42.4-2.05.55-18.12 1.7-35.72 2.58-17.6.88-35.83 2.25-40.5 3.05-10.03 1.7-8.73 1.72-12.73-.02zM167.74 322c.33-.33-4.48-31.34-13.7-88.5-.6-3.72-1.07-4.43-2.7-4.15-2.24.4-27.33 9.84-29.15 10.98-.88.53 2.6 8.4 12.02 27.22 14.56 29.1 19.7 42.4 19.7 50.85l-.02 5.4 6.7-.7c3.7-.38 6.92-.87 7.14-1.1zm18.58-5.24c.52-3.98 2.32-22.25 9.27-94.14l.6-6.4-3.9.7c-9.3 1.62-25.4 6.88-25.4 8.3 0 2.15 8.92 88.15 9.6 92.54.56 3.67.67 3.75 4.9 3.75h4.3l.62-4.74zm23.76 1.87c1.08-.98 21.18-44.66 25.16-54.66 5.15-12.97 6.96-20.78 7.07-30.5.12-10.3-1.33-13.15-8.24-16.23-3.44-1.53-7.43-2.2-15.26-2.52l-10.6-.45-.66 3.87c-2.34 13.73-4.13 28.35-7.6 62.3-2.16 21.15-3.7 38.8-3.44 39.24.54.87 12.48-.05 13.58-1.05zM182.64 209.9l14.24-4.9v-3.52c.02-4.68-2.2-7.63-6.2-8.23-3.06-.46-4.03.24-14.03 10.08-10 9.8-12.6 13.08-9.5 11.93.68-.26 7.66-2.67 15.5-5.36z"/><path fill="#3f3f3f" d="M63.56 444.4c-29.43-3.87-53.33-24.48-61.33-52.9C.5 385.34.4 377 .4 222.5.4 68.4.5 59.7 2.22 53.6 7.92 33.46 21.16 17.54 40.1 8.04 56.04.02 48.43.4 181.9.74L300.4 1l8 2.73c11.56 3.94 19.9 9.18 29.1 18.3 6.6 6.56 8.94 9.75 12.76 17.5 8.2 16.62 7.7 3.77 7.4 186.24L357.4 388l-2.83 8c-8.27 23.4-26.4 39.92-51.67 47.1-6.13 1.73-13.04 1.85-119.5 2.02-62.32.1-116.07-.23-119.84-.72zm242.84-6.2c19.98-7.07 34.3-19.86 42.38-37.84 5.93-13.2 5.62-3.37 5.62-178.35V61l-2.35-7.46c-6.07-19.34-18-33.5-35.7-42.37C301.1 3.53 310.35 4 178.4 4h-118l-7.67 2.63c-12.2 4.16-20.47 9.32-29.35 18.28-9.25 9.36-14.5 18.4-17.5 30.22-1.93 7.52-1.98 11.74-1.98 167.4 0 155.64.05 159.86 1.97 167.38 3.1 12.15 8.2 20.85 18.05 30.74 7.22 7.27 10.06 9.35 18.03 13.2 16.46 7.95 8.97 7.55 139.95 7.35l116.5-.2 8-2.8zm-171.23-99.17c-3.56-1.55-7.26-6.77-7.27-10.26 0-1.84.7-2.35 4-2.88 2.2-.36 4-.73 4-.84 0-1.02-35.2-72.92-40.18-82.05-10-18.34-16.12-30.53-15.6-31.03.24-.25 3.86-.75 8.03-1.1 6.95-.6 7.96-.43 11.92 1.9 4.93 2.9 9.12 7.75 13.76 15.96l3.2 5.7 4.7-1.9c2.56-1.03 10.44-4.05 17.5-6.7l12.84-4.82-.57-3.5c-2.6-16.05-2.98-43.02-.63-44.47 1.55-.96 7.04 5.9 9.13 11.42 1.16 3.06 2.78 9.4 3.6 14.06.8 4.7 1.6 8.63 1.73 8.77.14.14 7.33-8.97 16-20.24 8.65-11.27 18.94-24 22.85-28.26 11.9-13 11.36-12.24 9.7-13.3-4.6-2.9-28.72-.05-89.97 10.6-28.44 4.95-41.9 5.7-50.33 2.85-4.83-1.65-8.96-5.68-8.46-8.24.23-1.12 9.2-2.96 37.88-7.74 48.94-8.16 77.78-14.06 102.42-20.96 43.02-12.03 48.4-12.7 57.56-7.2 14.72 8.87 30.8 22.58 34.12 29.1 3.45 6.75 1.03 10.13-9.3 12.98-6.58 1.83-11.25 2.32-34.88 3.7-19.5 1.12-31.5 3-33.8 5.3-1.17 1.2-.86 1.5 2.1 2.05 5.08.96 8.93 4.27 8.1 6.96-.35 1.18-3.9 5.53-7.87 9.65-6.54 6.8-10.8 14.07-9.2 15.68.72.72 9.97-3.6 16.1-7.52 7.72-4.9 9.15-4.54 26.15 6.8 25.88 17.27 32.98 24.22 32.78 32.05-.14 5.23-2.77 9.97-13.2 23.82-11.06 14.68-14.13 19.52-22.64 35.7-20 38.05-21.9 40.98-27.3 42.4-2.05.55-18.12 1.7-35.72 2.58-17.6.88-35.83 2.25-40.5 3.05-10.03 1.7-8.73 1.72-12.73-.02zM167.74 322c.33-.33-4.48-31.34-13.7-88.5-.6-3.72-1.07-4.43-2.7-4.15-2.24.4-27.33 9.84-29.15 10.98-.88.53 2.6 8.4 12.02 27.22 14.56 29.1 19.7 42.4 19.7 50.85l-.02 5.4 6.7-.7c3.7-.38 6.92-.87 7.14-1.1zm18.58-5.24c.52-3.98 2.32-22.25 9.27-94.14l.6-6.4-3.9.7c-9.3 1.62-25.4 6.88-25.4 8.3 0 2.15 8.92 88.15 9.6 92.54.56 3.67.67 3.75 4.9 3.75h4.3l.62-4.74zm23.76 1.87c1.08-.98 21.18-44.66 25.16-54.66 5.15-12.97 6.96-20.78 7.07-30.5.12-10.3-1.33-13.15-8.24-16.23-3.44-1.53-7.43-2.2-15.26-2.52l-10.6-.45-.66 3.87c-2.34 13.73-4.13 28.35-7.6 62.3-2.16 21.15-3.7 38.8-3.44 39.24.54.87 12.48-.05 13.58-1.05zM182.64 209.9l14.24-4.9v-3.52c.02-4.68-2.2-7.63-6.2-8.23-3.06-.46-4.03.24-14.03 10.08-10 9.8-12.6 13.08-9.5 11.93.68-.26 7.66-2.67 15.5-5.36z"/><path d="M63.56 444.4c-29.43-3.87-53.33-24.48-61.33-52.9C.5 385.34.4 377 .4 222.5.4 68.4.5 59.7 2.22 53.6 7.92 33.46 21.16 17.54 40.1 8.04 56.04.02 48.43.4 181.9.74L300.4 1l8 2.73c11.56 3.94 19.9 9.18 29.1 18.3 6.6 6.56 8.94 9.75 12.76 17.5 8.2 16.62 7.7 3.77 7.4 186.24L357.4 388l-2.83 8c-8.27 23.4-26.4 39.92-51.67 47.1-6.13 1.73-13.04 1.85-119.5 2.02-62.32.1-116.07-.23-119.84-.72zm236.13-4.45c28.13-5.7 50.23-28.9 54.12-56.82 1.5-10.82 1.5-310.42 0-321.24-3.58-25.76-21.27-46.23-47.76-55.27L298.4 4l-115.5-.27C80.1 3.47 66.52 3.63 59.45 5.05 34.8 10.02 16.6 25.4 7.53 48.9L4.4 57v330l2.3 7c6.36 19.2 21.36 35.05 40.2 42.53 12.34 4.9 10.3 4.82 131.3 4.9 99.35.07 114.76-.12 121.5-1.48zM135.14 338.87c-3.55-1.76-7.25-6.93-7.25-10.14 0-1.6.86-2.2 4-2.72 2.2-.36 4-.8 4-.95 0-2-31.72-66.4-45.73-92.85-5.77-10.9-10.3-20-10.05-20.24.24-.25 3.85-.74 8.02-1.1 6.72-.56 7.98-.38 11.14 1.57 4.58 2.84 10.82 9.95 14.74 16.8 1.7 2.96 3.4 5.24 3.8 5.08.4-.16 8.27-3.2 17.5-6.77l16.8-6.47-.6-4.27c-2.8-20.54-3.04-41.3-.46-42.9 3.05-1.88 9.85 10.48 11.87 21.6 2.64 14.55.55 15.36 17.46-6.73 8.23-10.78 19.37-24.5 24.74-30.48 5.36-6 9.76-11.27 9.76-11.73 0-4.33-25.96-1.85-80 7.64-36.47 6.4-52.98 7.74-60.5 4.86-4.5-1.7-9.88-6.9-9.23-8.88.2-.6 5.73-1.9 12.3-2.92 64.97-10.03 103.2-17.97 148.43-30.84 11.76-3.35 16.22-4.15 23.63-4.27l9.14-.14 8.85 6c11.13 7.56 24.18 18.3 27.15 22.37 3.8 5.23 4.5 8.06 2.67 10.87-3.62 5.52-13.26 7.56-43.63 9.26-10.26.57-21.06 1.5-24 2.04-6.65 1.25-11.8 2.9-11.8 3.8 0 .4 2.24 1.5 4.98 2.47 8.33 2.97 8.3 4.5-.26 13.48-6.86 7.2-12.1 16.2-10.4 17.88.86.87 7.1-1.83 15.16-6.55 3.84-2.25 8.04-4.1 9.33-4.1 3.02 0 32.75 19.78 40.43 26.9 7.96 7.35 10 10.47 9.95 15.1-.07 5.24-1.84 8.38-13.2 23.5-11.07 14.7-15.1 21.3-26.97 44-15.47 29.64-17.96 33.2-24.5 34.9-1.1.3-16.4 1.24-34 2.1-17.6.88-35.83 2.25-40.5 3.05-10.17 1.74-8.8 1.76-12.75-.18zm32.55-16.82c.28-.3-2.72-20.66-6.67-45.28-3.95-24.62-7.17-45.55-7.16-46.5.02-.97-.4-1.76-.9-1.76s-6.7 2.2-13.75 4.9c-18.27 6.95-18.32 6.98-18.32 7.87 0 .44 3.42 7.32 7.6 15.27 16.96 32.25 25.4 52.86 25.4 62.04v5.22l6.64-.62c3.65-.34 6.87-.85 7.16-1.13zm18.66-4.8c.32-2.33 2.16-20.9 4.1-41.24 1.92-20.34 3.93-40.82 4.46-45.5.53-4.67.96-9.8.97-11.37 0-2.77-.14-2.85-3.8-2.27-4.42.7-24.2 6.3-24.95 7.06-.46.46 8.02 86.44 9.3 94.34.5 3.1.75 3.25 4.93 3.25h4.4l.58-4.24zm21.56 2.26c1.75 0 2.94-.63 3.27-1.74.28-.96 4.8-10.84 10.05-21.96 19.57-41.44 24.82-60.33 20.07-72.2-1.65-4.13-4.33-5.92-11.92-8-3.9-1.05-21.5-1.56-21.5-.6 0 .25-.9 6-1.97 12.74-1.08 6.75-3.57 28.24-5.52 47.77-1.95 19.53-3.83 37.72-4.17 40.42l-.63 4.9 4.8-.65c2.62-.36 6-.66 7.52-.66zm-26.07-109.1l15.05-5.12v-3.8c0-5.63-.8-6.84-5.26-8.04l-4.05-1.1-10.86 10.82c-9.63 9.6-11.94 12.35-10.4 12.35.25 0 7.23-2.3 15.5-5.1z"/></g></g></svg>