<svg xmlns="http://www.w3.org/2000/svg" width="358.805" height="445.229" viewBox="0 0 358.80521 445.22913"><g><g><path fill="#bfbfbf" d="M57.98 444.02C30.3 438.4 8.7 418.25 1.92 391.75.05 384.43 0 379.13 0 223.1.02 45.4-.3 54.93 6.33 41.04 13.43 26.2 24.7 14.8 39.48 7.54 55.95-.52 45.92.02 178.98.02c132.9 0 123.33-.5 139.5 7.45 18.84 9.27 32.02 25.02 38.14 45.56 1.68 5.64 1.8 15.7 2.1 163.5.22 99-.03 160.48-.64 165.5-2.14 17.46-8 29.44-20.58 42.03-8.67 8.68-17.9 14.23-31.02 18.63l-7 2.35-117.5.18c-94.04.13-118.8-.1-124-1.16zm235-3.54c29.45-3.82 53.82-25.3 59.5-52.47 2.2-10.5 2.2-320.53 0-330.93-5.04-23.82-25.27-44.24-50.1-50.6-7.45-1.9-11.6-1.96-123.4-1.96C67.14 4.5 63.07 4.58 55.6 6.5 31.96 12.53 13 31.04 6.3 54.58 4.6 60.68 4.5 69.23 4.5 222.5c0 153.16.08 161.84 1.8 167.92 7.72 27.2 30.87 46.8 59.2 50.1 9.44 1.12 218.9 1.07 227.5-.04zm-73.5-75.06c-2.75-.44-9.72-3.22-15.5-6.17-45.57-23.32-50.83-26.3-49.2-27.94 1.28-1.27 14.3-1.3 19.83 0l4.14.94-2.38-3.5c-2.3-3.42-5.36-11.98-5.4-15.16-.03-3.6-1.4-4.2-5.9-2.6-11.17 3.94-21.88 3.72-25.33-.53-3-3.7-2.2-4.66 5-5.88 8.42-1.44 22.47-5.07 23.62-6.1.47-.43.54-4.36.15-8.74l-.7-7.95-10.38 3.36c-13 4.22-19.44 4.46-23.05.85-1.5-1.52-2.4-3.4-2.2-4.7.27-1.8 2.28-2.76 12.8-6.07 6.9-2.15 12.7-4.1 12.9-4.3.2-.2-2.26-3.62-5.5-7.6-3.24-3.98-6.35-7.85-6.93-8.6-.85-1.12-2.66-.65-10.06 2.6-15.35 6.76-31.5 15.2-30.92 16.14.3.5 3.64 5 7.4 10.02 15.2 20.24 29.07 46.84 29.1 55.84.04 8.9-8.62 12.78-18.48 8.3-5.33-2.42-12.6-10.54-21.75-24.32-20.16-30.35-37.3-62.37-38.42-71.72l-.63-5.4 4.15.56c5.8.78 15.67 5.63 22.05 10.85 2.95 2.43 6.18 5 7.17 5.73 1.58 1.17 3.62.34 16.62-6.76 8.16-4.44 16.74-8.8 19.07-9.7 2.34-.9 4.25-2.03 4.25-2.52 0-1.38-8.8-6.62-13.9-8.27-2.52-.82-8.77-2.2-13.87-3.07-12-2.03-13.8-2.77-16.2-6.72-2.45-4-2.7-10.3-.43-11.16 5.6-2.15 23.73 1.44 34.9 6.9 4.1 2.02 10.24 6.35 14.8 10.47 6.26 5.62 8.16 6.84 9.56 6.1.96-.52 11.17-4.17 22.7-8.12 24.36-8.34 27.6-9.62 28.65-11.26 1.16-1.8.96-4.1-.5-6.13-1.28-1.74-1.93-1.7-15.64.93-9.2 1.77-14.8 3.33-15.66 4.37-.75.88-3.5 4.73-6.12 8.54-6.1 8.85-7.58 9.47-5.73 2.38 1.27-4.9 6.45-33.1 6.45-35.15 0-.5-1-.66-2.25-.37-19.07 4.46-35.5 5.98-39.8 3.67-2.42-1.3-2.5-4.17-.2-6.16.97-.82 5.8-2.3 10.75-3.24 9.65-1.87 21.8-5.47 29.2-8.64l4.58-1.96-.6-13.73c-.5-11.62-1.35-16.93-5.53-34.72l-4.93-21 7.6-9.5c11.62-14.5 16.1-19 18.9-19 4.72 0 25.64 23.44 29.78 33.35.83 1.98 1.5 5.2 1.5 7.18 0 4.3-2.65 7-14.24 14.63-6.46 4.25-7.9 5.7-8.7 8.72-3.77 14.44-5.08 20.44-4.56 20.95.32.33 5.43-4.45 11.35-10.6 5.9-6.18 11.1-11.22 11.5-11.22 1.73 0 9.57 4.62 14.77 8.7 6.6 5.16 9.93 10.43 8.27 13.06-2.3 3.65-15.45 10.07-38.4 18.75-13.47 5.12-13.5 5.13-14.64 9.07-.64 2.17-2.27 7.64-3.63 12.16-2.85 9.5-4.08 9.4 10.28.95 13.14-7.72 21.82-13.83 30-21.13 4.13-3.67 9.17-7.55 11.2-8.6 7.2-3.74 15.36-1.63 21.7 5.6 2.58 2.93 3.15 4.37 2.9 7.3-.26 3.15-1 4.1-5.8 7.25-5.4 3.57-14.6 12.63-13.73 13.5.24.25 3.32-.23 6.84-1.05 15.72-3.7 23.92-.43 41.02 16.44 10.72 10.57 16.86 19.76 16.86 25.2 0 7.2-10.44 30.78-30.45 68.8-15 28.5-19.34 35.75-24.68 41.17-4.52 4.6-5.2 4.88-14.37 6.25-1.1.17-4.25-.06-7-.5zm-3.06-33.3c13.4-10.22 35.87-58.15 37.28-79.53.47-7.24.35-7.78-2.54-11.73-4.8-6.58-12.32-9.72-24.38-10.2-11.3-.45-8.6-2.3-22.85 15.75-4.52 5.73-7.37 10.08-6.33 9.68 6.82-2.63 17.3-4.76 21.46-4.36 7.02.68 14.35 4.6 14.73 7.9.26 2.32-.26 2.87-4 4.26-2.38.9-9.27 2.75-15.32 4.14-6.05 1.4-16.1 3.93-22.32 5.63-10.35 2.84-11.28 3.3-10.82 5.22.27 1.16 1.03 4.87 1.68 8.25l1.18 6.15 5.42-2.48c2.98-1.37 9.35-4.7 14.14-7.38 9.5-5.32 13.6-6.05 19.77-3.48 4.06 1.7 5.23 3.9 3.32 6.23-1.66 2-13.5 7.52-28.56 13.27l-11.2 4.27.55 11.64c.32 6.73.13 12.68-.44 14.13-.53 1.38-1.14 2.95-1.35 3.5-.6 1.63 5 2.4 16.23 2.18 9.97-.18 10.8-.36 14.34-3.06zm-36.68-68.9l8.26-3.2 3.13-7.5c1.72-4.14 3.93-9.83 4.9-12.66l1.78-5.15-7.15 2.04c-7.52 2.12-24.87 8-30.43 10.32l-3.27 1.36 4 5.3c2.22 2.9 4.82 7.2 5.78 9.54 1.23 2.98 2.2 4.1 3.25 3.72.83-.3 5.22-2 9.76-3.76z"/><path fill="#bebebe" d="M57.54 443.87c-24.93-5.4-46.32-24.2-54.3-47.73L.48 388V57l3.1-8.6C9.87 30.8 22.93 16.04 39.4 7.96 56.82-.58 46.43 0 179.48 0c111.14 0 118.38.1 124.5 1.83 20.85 5.85 37.95 19.72 47.05 38.18 8.07 16.37 7.45 1.32 7.45 182.5 0 151.64-.1 161.9-1.77 168-5.72 20.95-19.37 37.75-38.22 47.04-16.2 8-5.95 7.42-137 7.64-100.8.16-117.96-.02-123.94-1.3zm235.44-3.4c29.45-3.8 53.82-25.3 59.5-52.46 2.2-10.5 2.2-320.53 0-330.93-5.04-23.82-25.27-44.24-50.1-50.6-7.45-1.9-11.6-1.96-123.4-1.96C67.14 4.5 63.07 4.58 55.6 6.5 31.96 12.53 13 31.04 6.3 54.58 4.6 60.68 4.5 69.23 4.5 222.5c0 153.16.08 161.84 1.8 167.92 7.72 27.2 30.87 46.8 59.2 50.1 9.44 1.12 218.9 1.07 227.5-.04zm-73.5-75.05c-2.75-.44-9.72-3.22-15.5-6.17-45.57-23.32-50.83-26.3-49.2-27.94 1.28-1.27 14.3-1.3 19.83 0l4.14.94-2.38-3.5c-2.3-3.42-5.36-11.98-5.4-15.16-.03-3.6-1.4-4.2-5.9-2.6-11.17 3.94-21.88 3.72-25.33-.53-3-3.7-2.2-4.66 5-5.88 8.42-1.44 22.47-5.07 23.62-6.1.47-.43.54-4.36.15-8.74l-.7-7.95-10.38 3.36c-13 4.22-19.44 4.46-23.05.85-1.5-1.52-2.4-3.4-2.2-4.7.27-1.8 2.28-2.76 12.8-6.07 6.9-2.15 12.7-4.1 12.9-4.3.2-.2-2.26-3.62-5.5-7.6-3.24-3.98-6.35-7.85-6.93-8.6-.85-1.12-2.66-.65-10.06 2.6-15.35 6.76-31.5 15.2-30.92 16.14.3.5 3.64 5 7.4 10.02 15.2 20.24 29.07 46.84 29.1 55.84.04 8.9-8.62 12.78-18.48 8.3-5.33-2.42-12.6-10.54-21.75-24.32-20.16-30.35-37.3-62.37-38.42-71.72l-.63-5.4 4.15.56c5.8.78 15.67 5.63 22.05 10.85 2.95 2.43 6.18 5 7.17 5.73 1.58 1.17 3.62.34 16.62-6.76 8.16-4.44 16.74-8.8 19.07-9.7 2.34-.9 4.25-2.03 4.25-2.52 0-1.38-8.8-6.62-13.9-8.27-2.52-.82-8.77-2.2-13.87-3.07-12-2.03-13.8-2.77-16.2-6.72-2.45-4-2.7-10.3-.43-11.16 5.6-2.15 23.73 1.44 34.9 6.9 4.1 2.02 10.24 6.35 14.8 10.47 6.26 5.62 8.16 6.84 9.56 6.1.96-.52 11.17-4.17 22.7-8.12 24.36-8.34 27.6-9.62 28.65-11.26 1.16-1.8.96-4.1-.5-6.13-1.28-1.74-1.93-1.7-15.64.93-9.2 1.77-14.8 3.33-15.66 4.37-.75.88-3.5 4.73-6.12 8.54-6.1 8.85-7.58 9.47-5.73 2.38 1.27-4.9 6.45-33.1 6.45-35.15 0-.5-1-.66-2.25-.37-19.07 4.46-35.5 5.98-39.8 3.67-2.42-1.3-2.5-4.17-.2-6.16.97-.82 5.8-2.3 10.75-3.24 9.65-1.87 21.8-5.47 29.2-8.64l4.58-1.96-.6-13.73c-.5-11.62-1.35-16.93-5.53-34.72l-4.93-21 7.6-9.5c11.62-14.5 16.1-19 18.9-19 4.72 0 25.64 23.44 29.78 33.35.83 1.98 1.5 5.2 1.5 7.18 0 4.3-2.65 7-14.24 14.63-6.46 4.25-7.9 5.7-8.7 8.72-3.77 14.44-5.08 20.44-4.56 20.95.32.33 5.43-4.45 11.35-10.6 5.9-6.18 11.1-11.22 11.5-11.22 1.73 0 9.57 4.62 14.77 8.7 6.6 5.16 9.93 10.43 8.27 13.06-2.3 3.65-15.45 10.07-38.4 18.75-13.47 5.12-13.5 5.13-14.64 9.07-.64 2.17-2.27 7.64-3.63 12.16-2.85 9.5-4.08 9.4 10.28.95 13.14-7.72 21.82-13.83 30-21.13 4.13-3.67 9.17-7.55 11.2-8.6 7.2-3.74 15.36-1.63 21.7 5.6 2.58 2.93 3.15 4.37 2.9 7.3-.26 3.15-1 4.1-5.8 7.25-5.4 3.57-14.6 12.63-13.73 13.5.24.25 3.32-.23 6.84-1.05 15.72-3.7 23.92-.43 41.02 16.44 10.72 10.57 16.86 19.76 16.86 25.2 0 7.2-10.44 30.78-30.45 68.8-15 28.5-19.34 35.75-24.68 41.17-4.52 4.6-5.2 4.88-14.37 6.25-1.1.17-4.25-.06-7-.5zm-3.06-33.3c13.4-10.22 35.87-58.15 37.28-79.53.47-7.24.35-7.78-2.54-11.73-4.8-6.58-12.32-9.72-24.38-10.2-11.3-.45-8.6-2.3-22.85 15.75-4.52 5.73-7.37 10.08-6.33 9.68 6.82-2.63 17.3-4.76 21.46-4.36 7.02.68 14.35 4.6 14.73 7.9.26 2.32-.26 2.87-4 4.26-2.38.9-9.27 2.75-15.32 4.14-6.05 1.4-16.1 3.93-22.32 5.63-10.35 2.84-11.28 3.3-10.82 5.22.27 1.16 1.03 4.87 1.68 8.25l1.18 6.15 5.42-2.48c2.98-1.37 9.35-4.7 14.14-7.38 9.5-5.32 13.6-6.05 19.77-3.48 4.06 1.7 5.23 3.9 3.32 6.23-1.66 2-13.5 7.52-28.56 13.27l-11.2 4.27.55 11.64c.32 6.73.13 12.68-.44 14.13-.53 1.38-1.14 2.95-1.35 3.5-.6 1.63 5 2.4 16.23 2.18 9.97-.18 10.8-.36 14.34-3.06zm-36.68-68.9l8.26-3.2 3.13-7.5c1.72-4.14 3.93-9.83 4.9-12.66l1.78-5.15-7.15 2.04c-7.52 2.12-24.87 8-30.43 10.32l-3.27 1.36 4 5.3c2.22 2.9 4.82 7.2 5.78 9.54 1.23 2.98 2.2 4.1 3.25 3.72.83-.3 5.22-2 9.76-3.76z"/><path fill="#7f7f7f" d="M57.54 443.87c-24.93-5.4-46.32-24.2-54.3-47.73L.48 388V57l3.1-8.6C9.87 30.8 22.93 16.04 39.4 7.96 56.82-.58 46.43 0 179.48 0c111.14 0 118.38.1 124.5 1.83 20.85 5.85 37.95 19.72 47.05 38.18 8.07 16.37 7.45 1.32 7.45 182.5 0 151.64-.1 161.9-1.77 168-5.72 20.95-19.37 37.75-38.22 47.04-16.2 8-5.95 7.42-137 7.64-100.8.16-117.96-.02-123.94-1.3zm245.6-5.06c25.25-7.14 42.64-24.53 48.86-48.86 1.94-7.57 1.98-11.5 1.98-167.43 0-154.52-.06-159.9-1.93-167.22-5-19.62-17.5-34.98-35.57-43.8-15.18-7.4-7.7-7.03-139.72-6.74L58.48 5l-8 2.82C39.7 11.62 29.46 18.17 22.24 25.9 15.1 33.53 11.1 40.23 7.3 51L4.5 59v326l2.34 7.5c3.5 11.23 8.56 19.57 17.08 28.1 11.24 11.23 24.4 17.78 39.8 19.8 3.74.5 57.4.82 119.28.73 112.05-.16 112.54-.17 120.15-2.32zM220 365.28c-3.02-.45-8.87-2.5-13-4.6-14.68-7.38-47.56-24.77-50.34-26.62-2.52-1.66-2.64-1.98-1.12-2.83 2.2-1.24 14.9-1.06 19.44.27 1.92.55 3.6 1 3.76 1 .15 0-.83-1.68-2.2-3.74-1.34-2.06-3.36-7.08-4.48-11.14-1.1-4.07-2.16-7.53-2.32-7.68-.15-.16-3.43.6-7.27 1.67-3.84 1.1-9.6 2.03-12.78 2.1-5.1.08-6.18-.26-8.76-2.74-1.63-1.55-2.96-3.36-2.96-4.02 0-.72 3.73-1.87 9.42-2.9 5.18-.92 12.04-2.47 15.25-3.44l5.83-1.75-.23-8.32c-.12-4.57-.35-8.43-.5-8.57-.14-.14-4.32 1.1-9.27 2.77-4.95 1.67-11.7 3.24-15 3.5-5.65.45-6.16.3-8.84-2.52-4.7-4.96-3.6-6.1 9.84-10.18 6.6-2 12.57-3.84 13.27-4.08 1.3-.45-12.17-17.93-13.82-17.93-1.27 0-26.46 11.64-34.14 15.77l-6.7 3.6 4 4.78c13.1 15.66 32.58 49.95 33.62 59.24 1.7 15.04-15.14 17.04-27.32 3.23-12.4-14.04-44.36-67.4-49.34-82.34-2.86-8.58-2.76-11.3.4-11.3 5.86 0 18.45 6.8 27.7 14.93l4.4 3.9 9.1-5.17c5-2.83 13.63-7.38 19.2-10.1 5.57-2.74 10.12-5.32 10.12-5.75 0-1.6-8.48-6.86-13.4-8.33-2.8-.84-9.32-2.2-14.5-3.04-11.3-1.83-14.3-3.25-16.46-7.78-3.95-8.3-1.24-11.26 9.42-10.27 14.76 1.37 27.5 7 39.63 17.52l8.18 7.1 8.82-3.33c4.85-1.83 16.6-5.97 26.14-9.2 18.46-6.25 19.84-7.18 18.65-12.63-.78-3.52.02-3.54-20.32.37l-11.35 2.18-4.4 6.57c-5.52 8.28-8.35 11.84-8.37 10.56 0-.54 1.3-7.74 2.9-16 1.6-8.24 3.2-17.27 3.57-20.06l.65-5.08-9.32 2.4c-10.65 2.74-27.88 4.02-32.07 2.38-3.16-1.24-3.6-4.1-1-6.27.97-.8 5.8-2.25 10.75-3.2 11.1-2.18 21.24-5.12 28.2-8.2l5.3-2.35v-10.7c0-11.04-1.85-22.06-7.85-46.65l-2.85-11.7 6.47-8.27c8.33-10.66 18.22-20.8 20.3-20.8 1.94 0 19.2 17.57 23.6 24 4.86 7.15 7.33 12.66 7.33 16.37 0 4.5-3.57 7.66-21.86 19.3-.2.13-1.85 6.45-3.66 14.04l-3.28 13.8L196 154.73l11.84-12.3 3.68 1.54c7.53 3.14 20.46 14.53 20.46 18 0 .8-1 2.43-2.25 3.6-3.23 3.07-22.1 11.97-37.25 17.56-7.15 2.64-13.15 4.9-13.33 5-.2.13-1.45 4.63-2.82 10-1.36 5.38-2.94 10.63-3.5 11.67-.55 1.03-.8 2.08-.56 2.33.58.57 18.1-9.5 27.47-15.82 4-2.67 11.2-8.27 16-12.44 12.6-10.92 16.68-12.26 25.02-8.22 5.07 2.46 10.22 8.93 10.22 12.84 0 2.2-1.26 3.54-6.92 7.4-5.65 3.87-14.08 12.16-14.08 13.87 0 .22 3.04-.4 6.75-1.37 15.83-4.12 23.4-1.43 39.5 14 12.35 11.87 18.84 20.66 19.48 26.44.7 6-4 17.2-22.7 54.2-22.12 43.75-28.68 54.64-35.82 59.55-4.1 2.82-10.03 3.75-17.18 2.7zm-7.9-30.78c6.86-1.9 15.26-12.77 25.13-32.5 10.1-20.15 16.73-41.08 16.75-52.74 0-5.18-.35-6.13-3.52-9.65-5.64-6.23-11.2-8.33-23.57-8.87l-10.6-.46-8.1 10.37c-4.47 5.7-9.26 11.78-10.65 13.5L195 257.3l9-2.9c11.38-3.66 15.36-3.65 23.58.08 5.57 2.53 6.5 3.3 6.23 5.24-.4 2.97-3.43 4.32-16.53 7.4-12.25 2.88-35.45 9.22-36.1 9.87-.24.23.4 4.1 1.44 8.62l1.88 8.2 14.75-7.66c8.1-4.2 15.86-7.65 17.23-7.65 3.6 0 10.27 2.9 11 4.77.34.9-.17 2.37-1.2 3.37-1.86 1.85-19.46 9.6-32.36 14.27l-7.58 2.75.77 4.68c1.28 7.8.96 19.43-.62 22.18-.78 1.38-1.44 2.82-1.46 3.2-.1 1.72 21.47 2.35 27.1.8zm-33.14-70.8l9.48-3.73 4.85-12.32c2.65-6.78 4.62-12.54 4.36-12.8-.62-.62-40.68 12.73-40.68 13.56 0 .36 2.03 3.34 4.5 6.63 2.47 3.3 4.98 7.44 5.57 9.23.6 1.8 1.4 3.24 1.76 3.22.38-.02 4.95-1.72 10.16-3.77z"/><path fill="#404040" d="M63.2 444.42c-16.06-1.9-30.8-9.25-42.73-21.3-8.86-8.96-13.77-17.2-17.64-29.6L.48 386V223C.48 39.74-.17 55.5 8.16 38.5c3.28-6.7 5.85-10.17 12.24-16.5 9.2-9.1 17.53-14.35 29.08-18.3l8-2.7 119-.3c133.88-.34 125.27-.78 142 7.3 17.77 8.56 30.3 22.9 36.67 42l2.33 7 .3 162.5c.3 181.6.73 169.8-6.8 185.5-8.8 18.27-25.5 31.75-46.86 37.8-7.6 2.14-8.1 2.15-120.64 2.3-62.15.1-116.27-.22-120.28-.7zm243.28-6.22c11.23-3.94 20.86-9.93 28.48-17.7 11.34-11.6 17.2-23.96 19.07-40.27.72-6.23.96-59.45.74-164.22-.3-144.08-.44-155.4-2.07-161-5.9-20.2-18.9-35.38-38.22-44.6-15.15-7.22-10.38-7-139-6.68l-115 .3-7 2.34c-12.73 4.27-20.35 8.95-29.52 18.12-9.8 9.8-14.9 18.47-18 30.64-1.93 7.5-1.98 11.74-1.98 167.4 0 155.64.05 159.86 1.98 167.38 3.12 12.2 8.2 20.86 17.98 30.73 7.23 7.28 10 9.32 18.04 13.2 16.54 7.96 9 7.56 140 7.36l116.5-.2 8-2.8zm-90.5-74.04c-2.47-.68-9-3.64-14.5-6.6-5.5-2.96-16.84-8.86-25.2-13.1-8.36-4.27-16.62-8.76-18.36-10-2.83-2-2.98-2.35-1.4-3.23 1.7-.96 14.06-.4 19.6.86l2.65.6-2.87-5.7c-1.6-3.14-3.43-8.36-4.1-11.6-.67-3.24-1.7-5.88-2.27-5.87-.57.02-4.4.92-8.48 2-12.77 3.4-20.77 2.03-22.3-3.8-.42-1.62.5-2 7.13-3 4.18-.6 11.16-2.16 15.52-3.42l7.9-2.3-.22-8.48c-.13-4.67-.4-8.66-.63-8.87-.2-.22-4.74 1.02-10.07 2.74-5.33 1.7-12.07 3.4-15 3.75-4.97.58-5.47.43-8.42-2.5-5.07-5.08-4.56-5.52 12.35-10.66 8.62-2.63 11.6-3.93 10.94-4.8-.5-.65-3.74-4.7-7.2-9.02-5.66-7.02-6.58-7.76-8.93-7.18-1.43.36-10.85 4.65-20.92 9.54l-18.3 8.88 4.93 6.3c7.9 10.07 20 29.06 25.74 40.35 8.96 17.63 9.4 25.88 1.6 29.14-7.17 3-16.15-1.1-23.9-10.93-10.46-13.26-31.42-47.16-41.2-66.64-5.6-11.14-8.87-21.7-7.24-23.33 2.62-2.63 18.52 4.98 28.83 13.8l5.27 4.5 4.17-2.64c4.42-2.8 31.37-16.83 33.9-17.67 1.2-.4 1-.96-1-2.7-4.66-4.13-14.26-7.95-24-9.56-14.52-2.4-17.54-3.8-19.52-8.98-2.74-7.17-2.1-8 6.35-8.35 14.33-.57 29.68 5.45 43 16.84l8.3 7.1 12.7-4.56c6.97-2.52 18.98-6.76 26.68-9.42 15-5.2 15.6-5.68 14.03-11.9-.6-2.43-.84-2.5-6.35-1.93-3.15.33-10.22 1.57-15.7 2.75l-9.97 2.14-5.83 8.97c-3.2 4.93-6.02 8.8-6.23 8.58-.2-.22.7-5.54 2-11.83 3.06-14.55 5.46-29.95 4.67-29.92-.34 0-4 .9-8.12 1.97-11.14 2.9-25.7 4.52-30.5 3.38-3.55-.84-4-1.28-4-3.9 0-2.65.43-3.06 4-3.83 14.3-3.08 26.03-6.23 32.62-8.76l7.6-2.93.63-6.23c.92-9.27-.66-21.13-5.77-43.16-2.5-10.87-4.58-20.14-4.58-20.6 0-2.9 23.23-28.97 25.8-28.97 1.97 0 13.48 11.24 20.5 20 6.66 8.32 10.68 16 10.7 20.4 0 3.68-5 8.6-15.17 14.94l-7.36 4.6-3.25 13.17c-1.8 7.26-3.1 13.36-2.9 13.56.2.2 5.4-4.8 11.5-11.14 6.1-6.33 11.92-11.5 12.9-11.5 4.96.02 20.34 11.83 22.14 17 .9 2.57.74 3.3-1.06 4.97-3.2 2.95-17.1 9.46-35.05 16.4l-16.08 6.2-2.8 10.7c-1.52 5.86-3.27 11.6-3.9 12.75-1.08 2.04-1.04 2.05 2.02.47 4.66-2.4 22.9-13.4 27.86-16.78 2.4-1.63 8.17-6.3 12.84-10.37 10.13-8.82 13.43-10.68 19.03-10.7 8.3 0 18.55 9.45 16.9 15.6-.35 1.26-3.26 3.98-6.7 6.24-5.56 3.67-14.74 13-13.75 14 .23.24 3.1-.27 6.37-1.13 3.7-.96 8.8-1.42 13.46-1.2 7.02.32 7.96.65 14.55 5.03 13.34 8.88 31.42 29.92 31.45 36.6.02 6.26-11.75 32.64-30.57 68.5-22.93 43.7-26.43 47.83-40.42 47.64-2.47-.04-6.52-.6-9-1.28zm-6.1-28.72c4.27-.92 5.88-2 10.8-7.33 7.07-7.6 13.72-18.55 20.45-33.6 9.75-21.86 15.16-42.5 12.93-49.28-1.24-3.74-7-9.7-11.62-12.02-4.68-2.35-14.87-3.86-21.22-3.13l-5.74.65-5.7 7.65c-3.15 4.2-7.87 10.32-10.5 13.6-2.75 3.42-4.02 5.65-3 5.26 7.1-2.73 17-5.1 21.2-5.1 6.37 0 16.5 4.58 16.5 7.43 0 2.8-3.73 4.27-21.5 8.43-8.8 2.06-19.48 4.84-23.75 6.17-6.62 2.07-7.74 2.75-7.7 4.63.03 2.52 2.6 13.67 3.28 14.37.53.52 8.18-3.1 20.98-9.96 4.83-2.57 9.6-4.7 10.57-4.7.98 0 3.88.73 6.46 1.6 3.83 1.3 4.68 2.03 4.68 4 0 2.94-4.07 5.12-25.25 13.48-8.3 3.27-15.25 6.1-15.42 6.27-.16.17.17 4.1.75 8.72 1.2 9.48.48 17.25-1.78 19.5-1.95 1.96-1.73 2.13 4.24 3.27 6.95 1.32 14.5 1.36 20.4.1zm-20-78.82c3.13-6.2 8.42-21.13 7.75-21.8-.62-.62-23.4 6.43-35.6 11.02l-5.94 2.23 3.93 4.97c2.17 2.73 4.9 7.27 6.08 10.1l2.15 5.1 9.92-4c8.74-3.53 10.13-4.43 11.72-7.62z"/><path fill="#3f3f3f" d="M63.65 444.4c-29.56-3.9-53.4-24.43-61.35-52.9-1.72-6.15-1.82-15-1.82-169 0-154.46.1-162.8 1.84-169 5.8-20.65 19.2-36.45 39.02-46.08C56.4.1 49.67.42 181.98.72l118.5.3 8 2.8c18.88 6.62 33.8 19.37 41.9 35.8 8.08 16.34 7.57 3.98 7.57 182.9 0 178.5.48 166.6-7.37 182.5-9.2 18.62-25.78 31.9-47.6 38.07-6.12 1.73-13.03 1.85-119.5 2.02-62.32.1-116.06-.23-119.83-.72zm242.83-6.2c11.23-3.94 20.86-9.93 28.48-17.7 11.34-11.6 17.2-23.96 19.07-40.27.72-6.23.96-59.45.74-164.22-.3-144.08-.44-155.4-2.07-161-5.9-20.2-18.9-35.38-38.22-44.6-15.15-7.22-10.38-7-139-6.68l-115 .3-7 2.34c-12.73 4.27-20.35 8.95-29.52 18.12-9.8 9.8-14.9 18.47-18 30.64-1.93 7.5-1.98 11.74-1.98 167.4 0 155.64.05 159.86 1.98 167.38 3.12 12.2 8.2 20.86 17.98 30.73 7.23 7.28 10 9.32 18.04 13.2 16.54 7.96 9 7.56 140 7.36l116.5-.2 8-2.8zm-90.5-74.04c-2.47-.68-9-3.64-14.5-6.6-5.5-2.96-16.84-8.86-25.2-13.1-8.36-4.27-16.62-8.76-18.36-10-2.83-2-2.98-2.35-1.4-3.23 1.7-.96 14.06-.4 19.6.86l2.65.6-2.87-5.7c-1.6-3.14-3.43-8.36-4.1-11.6-.67-3.24-1.7-5.88-2.27-5.87-.57.02-4.4.92-8.48 2-12.77 3.4-20.77 2.03-22.3-3.8-.42-1.62.5-2 7.13-3 4.18-.6 11.16-2.16 15.52-3.42l7.9-2.3-.22-8.48c-.13-4.67-.4-8.66-.63-8.87-.2-.22-4.74 1.02-10.07 2.74-5.33 1.7-12.07 3.4-15 3.75-4.97.58-5.47.43-8.42-2.5-5.07-5.08-4.56-5.52 12.35-10.66 8.62-2.63 11.6-3.93 10.94-4.8-.5-.65-3.74-4.7-7.2-9.02-5.66-7.02-6.58-7.76-8.93-7.18-1.43.36-10.85 4.65-20.92 9.54l-18.3 8.88 4.93 6.3c7.9 10.07 20 29.06 25.74 40.35 8.96 17.63 9.4 25.88 1.6 29.14-7.17 3-16.15-1.1-23.9-10.93-10.46-13.26-31.42-47.16-41.2-66.64-5.6-11.14-8.87-21.7-7.24-23.33 2.62-2.63 18.52 4.98 28.83 13.8l5.27 4.5 4.17-2.64c4.42-2.8 31.37-16.83 33.9-17.67 1.2-.4 1-.96-1-2.7-4.66-4.13-14.26-7.95-24-9.56-14.52-2.4-17.54-3.8-19.52-8.98-2.74-7.17-2.1-8 6.35-8.35 14.33-.57 29.68 5.45 43 16.84l8.3 7.1 12.7-4.56c6.97-2.52 18.98-6.76 26.68-9.42 15-5.2 15.6-5.68 14.03-11.9-.6-2.43-.84-2.5-6.35-1.93-3.15.33-10.22 1.57-15.7 2.75l-9.97 2.14-5.83 8.97c-3.2 4.93-6.02 8.8-6.23 8.58-.2-.22.7-5.54 2-11.83 3.06-14.55 5.46-29.95 4.67-29.92-.34 0-4 .9-8.12 1.97-11.14 2.9-25.7 4.52-30.5 3.38-3.55-.84-4-1.28-4-3.9 0-2.65.43-3.06 4-3.83 14.3-3.08 26.03-6.23 32.62-8.76l7.6-2.93.63-6.23c.92-9.27-.66-21.13-5.77-43.16-2.5-10.87-4.58-20.14-4.58-20.6 0-2.9 23.23-28.97 25.8-28.97 1.97 0 13.48 11.24 20.5 20 6.66 8.32 10.68 16 10.7 20.4 0 3.68-5 8.6-15.17 14.94l-7.36 4.6-3.25 13.17c-1.8 7.26-3.1 13.36-2.9 13.56.2.2 5.4-4.8 11.5-11.14 6.1-6.33 11.92-11.5 12.9-11.5 4.96.02 20.34 11.83 22.14 17 .9 2.57.74 3.3-1.06 4.97-3.2 2.95-17.1 9.46-35.05 16.4l-16.08 6.2-2.8 10.7c-1.52 5.86-3.27 11.6-3.9 12.75-1.08 2.04-1.04 2.05 2.02.47 4.66-2.4 22.9-13.4 27.86-16.78 2.4-1.63 8.17-6.3 12.84-10.37 10.13-8.82 13.43-10.68 19.03-10.7 8.3 0 18.55 9.45 16.9 15.6-.35 1.26-3.26 3.98-6.7 6.24-5.56 3.67-14.74 13-13.75 14 .23.24 3.1-.27 6.37-1.13 3.7-.96 8.8-1.42 13.46-1.2 7.02.32 7.96.65 14.55 5.03 13.34 8.88 31.42 29.92 31.45 36.6.02 6.26-11.75 32.64-30.57 68.5-22.93 43.7-26.43 47.83-40.42 47.64-2.47-.04-6.52-.6-9-1.28zm-6.1-28.72c4.27-.92 5.88-2 10.8-7.33 7.07-7.6 13.72-18.55 20.45-33.6 9.75-21.86 15.16-42.5 12.93-49.28-1.24-3.74-7-9.7-11.62-12.02-4.68-2.35-14.87-3.86-21.22-3.13l-5.74.65-5.7 7.65c-3.15 4.2-7.87 10.32-10.5 13.6-2.75 3.42-4.02 5.65-3 5.26 7.1-2.73 17-5.1 21.2-5.1 6.37 0 16.5 4.58 16.5 7.43 0 2.8-3.73 4.27-21.5 8.43-8.8 2.06-19.48 4.84-23.75 6.17-6.62 2.07-7.74 2.75-7.7 4.63.03 2.52 2.6 13.67 3.28 14.37.53.52 8.18-3.1 20.98-9.96 4.83-2.57 9.6-4.7 10.57-4.7.98 0 3.88.73 6.46 1.6 3.83 1.3 4.68 2.03 4.68 4 0 2.94-4.07 5.12-25.25 13.48-8.3 3.27-15.25 6.1-15.42 6.27-.16.17.17 4.1.75 8.72 1.2 9.48.48 17.25-1.78 19.5-1.95 1.96-1.73 2.13 4.24 3.27 6.95 1.32 14.5 1.36 20.4.1zm-20-78.82c3.13-6.2 8.42-21.13 7.75-21.8-.62-.62-23.4 6.43-35.6 11.02l-5.94 2.23 3.93 4.97c2.17 2.73 4.9 7.27 6.08 10.1l2.15 5.1 9.92-4c8.74-3.53 10.13-4.43 11.72-7.62z"/><path d="M63.65 444.4c-29.56-3.9-53.4-24.43-61.35-52.9-1.72-6.15-1.82-15-1.82-169 0-154.46.1-162.8 1.84-169 5.8-20.65 19.2-36.45 39.02-46.08C56.4.1 49.67.42 181.98.72l118.5.3 8 2.8c18.88 6.62 33.8 19.37 41.9 35.8 8.08 16.34 7.57 3.98 7.57 182.9 0 178.5.48 166.6-7.37 182.5-9.2 18.62-25.78 31.9-47.6 38.07-6.12 1.73-13.03 1.85-119.5 2.02-62.32.1-116.06-.23-119.83-.72zm236.13-4.45c11.46-2.32 24.32-8.92 32.97-16.93 12.3-11.4 19.3-25.12 21.32-41.88.62-5.13.87-65.94.67-164.63-.3-147.4-.43-156.84-2.13-162.5C345.93 31.77 329 14.4 306.5 6.74l-8-2.72h-118.5c-111.46 0-118.88.12-125 1.83-20.12 5.62-37 19.62-45.16 37.45-6.2 13.53-5.9 3.6-5.6 181.95L4.48 388l2.68 7.34c8.47 23.17 27.02 39.33 51.32 44.7 4.77 1.04 29.34 1.33 119.8 1.4 99.35.06 114.77-.13 121.5-1.5zm-85.07-76.4c-3.17-1-11.04-4.77-17.5-8.34-6.44-3.56-16-8.6-21.22-11.2-5.22-2.6-12.16-6.3-15.42-8.28-5-3-5.62-3.68-4-4.32 3.08-1.2 11.45-.97 17.67.5 3.17.74 5.75 1.13 5.75.87 0-.26-1.1-1.8-2.47-3.4-2.45-2.94-5.03-10.05-6.15-17l-.58-3.6-8.64 2.42c-13.26 3.72-21.86 2.34-23.45-3.76-.42-1.6.02-1.93 2.62-1.93 1.72 0 8.9-1.4 15.97-3.1 10.15-2.45 12.73-3.4 12.28-4.58-.3-.8-.57-5-.57-9.3v-7.8l-10.75 3.5c-12.6 4.12-20 4.72-23.14 1.88-1.17-1.04-2.12-2.93-2.12-4.18 0-2.04 1.34-2.7 13-6.37 7.15-2.26 13-4.35 13-4.66 0-.3-3.2-4.46-7.1-9.23-4.46-5.42-7.7-8.54-8.7-8.32-2.45.52-30.6 13.62-35.72 16.62l-4.57 2.68 3.57 4.68c16.96 22.17 33.82 52.55 33.94 61.17.14 8.25-5.12 12-13.87 9.9-4.08-.98-6.2-2.37-11.1-7.3-9.5-9.54-34.38-48.54-46-72.1-4.9-9.92-8-20.34-6.5-21.83 2.4-2.42 17.93 5.25 27.9 13.77 2.92 2.5 5.52 4.57 5.77 4.57s3.93-1.96 8.17-4.36c4.24-2.4 12.9-6.96 19.2-10.12 6.34-3.16 11.74-5.95 12-6.2 1-.94-6.65-6.34-11.73-8.28-2.9-1.1-10.3-2.9-16.47-3.98-12.6-2.23-15.47-3.8-17.46-9.53-2.2-6.4-1.25-7.52 6.44-7.52 14.57 0 31.02 6.68 43.04 17.46 4 3.6 7.6 6.55 8 6.55.73 0 46.5-15.88 51.5-17.87 2.56-1 2.8-1.5 2.5-5.37-.28-4-.5-4.27-3.55-4.56-2.65-.26-28 4.2-28.8 5.06-.14.14-2.57 3.73-5.4 7.97-2.84 4.25-5.54 7.97-6 8.26-.48.28-.2-2.3.6-5.74 1.7-7.25 6.36-34.08 5.97-34.47-.14-.15-5.08.82-10.98 2.16-19.32 4.36-31.78 4.32-32.43-.1-.46-3.06 1.6-4.15 11.87-6.28 10.55-2.2 21.12-5.3 28.03-8.24l4.62-1.96.6-6.2c.95-9.57-.76-22.4-5.82-43.94l-4.65-19.77 6.8-8.73c8.06-10.35 17.43-20.23 19.2-20.23.68 0 5.47 4.3 10.62 9.52 13.7 13.9 21.65 26.84 20.15 32.82-.57 2.27-10.85 10.57-18.24 14.74l-4.1 2.3-3.16 13.48c-1.73 7.4-2.92 13.7-2.65 13.97.28.28 5.6-4.75 11.8-11.16 6.2-6.4 12-11.66 12.84-11.66 2.36 0 12.8 7.1 17.68 12 5.86 5.9 5.53 8.4-1.7 12.73-6.22 3.7-25.34 11.93-38.06 16.37l-8.7 3.04-1.8 7.7c-.98 4.2-2.6 9.9-3.63 12.6-1.03 2.73-1.7 5.1-1.5 5.3.42.44 17.46-9.3 26.58-15.2 3.58-2.3 9.38-6.62 12.9-9.6 17.12-14.52 19.5-15.76 26.46-13.84 6.8 1.87 14.9 11.2 13.32 15.3-.3.8-3.2 3.26-6.46 5.46-5.6 3.8-15.75 13.95-14.85 14.84.23.23 3.12-.28 6.42-1.14 3.3-.85 9.1-1.55 12.88-1.55 6.14 0 7.58.4 13.33 3.76 11.94 6.94 32 29 33.6 36.94.95 4.8-5.04 19.08-22.58 53.8-24.65 48.8-30.36 57.94-38.43 61.6-5.16 2.35-12.42 2.33-19.86-.04zm.05-29.42c12.48-6.45 35.68-53.2 39.38-79.37 1-7 .9-8.33-.68-11.7-2.16-4.54-9.28-9.94-15.47-11.73-2.47-.7-8.5-1.28-13.42-1.26-8.65.03-9 .12-11 2.9-1.14 1.56-5.8 7.55-10.37 13.3-4.58 5.77-8.14 10.65-7.93 10.86.2.2 2.96-.5 6.1-1.6 3.16-1.07 8.36-2.43 11.57-3 5.1-.94 6.54-.8 11.4 1 3.06 1.16 6.58 2.9 7.82 3.92 2 1.62 2.1 2.03.83 3.55-1.97 2.37-4.33 3.15-21.52 7.1-8.25 1.9-18.66 4.58-23.14 5.94l-8.15 2.47 1.73 8.02c.95 4.4 2.07 8.34 2.5 8.75.4.4 7.47-2.78 15.7-7.08 15.95-8.35 17.15-8.6 24.1-5.04 6.45 3.3 3.02 5.92-19.47 14.95-17.8 7.15-18.27 7.42-18.08 10.13.1 1.53.33 7.13.5 12.44.27 8.65.08 9.97-1.9 12.64l-2.2 3 5.7 1.04c7.62 1.4 22.25.7 25.97-1.2zm-31.1-71.83l5.14-2 4.02-10.14c5-12.6 5.8-15.65 4.13-15.65-2.7 0-39.3 12.13-40.8 13.52-.16.16 1.72 2.93 4.2 6.14 2.47 3.22 5.25 7.74 6.16 10.05l1.66 4.2 5.16-2.05c2.84-1.13 7.48-2.95 10.32-4.05z"/></g></g></svg>