<svg xmlns="http://www.w3.org/2000/svg" width="358.835" height="445.473" viewBox="0 0 358.83469 445.47256"><g><g><path fill="#bfbfbf" d="M54.22 443.54C29.26 436.96 9.72 417.97 2.2 393 .5 387.36.38 377.9.1 227.08-.15 93.84.03 65.77 1.2 59.05 5.92 31.58 25.6 10.58 54.33 2.3l8-2.3h117c111.27 0 117.34.1 124 1.88 21.87 5.86 38.8 19.27 48.1 38.13 7.84 15.9 7.36 4 7.38 182.7.02 179.23.5 167.2-7.52 183.55-8.1 16.46-23.1 29.33-41.96 35.95l-8 2.8-120 .2c-114.54.2-120.32.13-127.12-1.66zm244-3.48c21-4.02 39.02-17.2 48.5-35.48 8.2-15.75 7.5-.56 7.86-175.05.2-94.96-.05-158.82-.64-164.07-.53-4.73-1.93-11.5-3.1-15.03-5.36-16.02-18.58-30.78-34.46-38.45-16.35-7.9-10.16-7.58-140.54-7.26l-115.5.3-8 2.7C30.78 15.08 14 31.67 7.56 52.03l-2.22 7v329l2.68 7.32c8.47 23.18 27.1 39.3 51.5 44.54 10.13 2.17 227.4 2.34 238.7.18zm-119.62-71.7c-1.3-1.3-5.2-7.53-8.67-13.85-10.15-18.47-23.94-39.28-41.37-62.42-1.4-1.86-1.7-1.76-8.84 2.95-9.46 6.26-29.7 16.3-41.88 20.8-13.3 4.92-24.8 8.2-25.7 7.32-1.56-1.57 1.73-4.1 16.7-12.86 16.64-9.75 34.56-21.2 43.52-27.8l5.54-4.1-3.6-4.2c-4.32-5.05-3.14-5.72 4.63-2.66l5.4 2.13 8.75-9.03c4.82-4.97 8.75-9.4 8.73-9.83-.02-.92-40.34-41.98-46.82-47.7-4.73-4.15-8.54-11.45-9.66-18.5l-.7-4.4 4.6.63c5.36.74 10.48 3.17 16.08 7.64 2.18 1.73 4.66 2.95 5.5 2.7 5.26-1.6 54.64-19.98 55.1-20.5.33-.37.4-3.06.16-5.98-.3-3.95-.77-5.2-1.77-4.8-3.64 1.38-17.34 3.68-22.8 3.8-7.97.2-10.12-.58-12.6-4.6-3.48-5.64-3.07-6.03 7.7-7.36 5.35-.66 14-2.23 19.24-3.5l9.5-2.3.3-8.95c.36-11.36-.68-14.15-10.3-27.58-12.83-17.9-18.9-32.92-14.9-36.93 2.1-2.1 63.5 11.18 70.9 15.3 4.4 2.5 5.66 6.18 3.46 10.27-1.32 2.47-8.23 6.5-14.46 8.44-2.2.7-6.1 2.37-8.7 3.75-5.88 3.15-7.47 6.8-8.42 19.35l-.7 9.27 3.4-2.42c1.9-1.33 6.27-5.24 9.76-8.68 7.78-7.7 10.12-8 21.2-2.7 13.85 6.65 14.24 8.58 2.82 13.94-4.48 2.1-14.7 6.43-22.72 9.6-9.4 3.75-14.83 6.44-15.3 7.6-.38 1-.73 3.52-.77 5.62-.08 4.67-1.92 5.1 23.94-5.53 20.7-8.52 26-9.83 31.23-7.77 5.8 2.28 19.22 11.68 24.02 16.82 8.5 9.1 7.5 12.4-6.34 20.7-7.18 4.32-9.24 6.2-14 12.83-7.52 10.5-12.53 20.8-14.53 29.9-2.33 10.58-2.32 10.57-8.22 8.48-4.58-1.63-5.44-1.64-13.64-.12l-8.76 1.63 8.37 5.46c10.27 6.7 25.7 14.18 36.37 17.62 4.4 1.42 17.22 4.86 28.5 7.65 28.54 7.06 34.66 8.96 37.57 11.66 4.53 4.2 2.64 4.64-16.12 3.86-17.07-.7-17.37-.7-22.62 1.77-2.93 1.36-7.98 4.76-11.22 7.54-6.76 5.8-10 6.87-14.75 4.85-7.76-3.32-26.47-21.5-44.18-42.94-11.06-13.4-14.53-16.42-16.05-13.97-.76 1.22 1.26 28.58 2.97 40.2.85 5.78 3.58 20.63 6.07 33 6.7 33.23 6.5 43.63-.92 48.42-4.38 2.83-7.45 2.97-9.98.43zm-16.3-66.1c1.04-6.24 2.46-23.36 3.15-38 .85-18.07.15-18.63-8-6.37-3.07 4.6-8.78 11.8-12.68 15.97l-7.1 7.6 8.2 9.26c8.1 9.16 13.8 14.7 15.17 14.75.4 0 .95-1.44 1.25-3.22zm3.8-66.75c.4 0 .74-4.94.74-11 0-6.04-.25-11-.56-11-.3 0-5.82 1.3-12.25 2.9-6.43 1.58-12.96 3.18-14.52 3.53l-2.82.65 6 6.4c3.28 3.52 6.75 7.72 7.7 9.35l1.76 2.95 6.6-1.9c3.62-1.03 6.93-1.87 7.35-1.87zm31.74-8.06l7.5-1.1 2.35-5.36c1.28-2.95 4.27-8.65 6.63-12.67 2.37-4 4.18-7.42 4.04-7.58-.37-.4-17.28 3.4-28.78 6.47l-9.76 2.6v21.52l5.25-1.38c2.88-.77 8.6-1.9 12.74-2.5zm-53.65-19.48c7.76-2.5 16.03-5.03 18.37-5.62l4.27-1.07v-5.88c0-3.25-.1-5.9-.25-5.9s-4.54 1.5-9.76 3.36c-5.23 1.84-15.93 5.1-23.8 7.24l-14.28 3.88 4.8 4.23c2.62 2.33 5.17 4.25 5.65 4.27.5.02 7.23-2 15-4.5zm46.24-17.24c6.42-5.07 8.66-6.22 12.08-6.2 3.4.03 9.77 2.83 15.65 6.87l4.34 2.97 2.17-4.46c2.7-5.57 2.73-7.58.06-10-1.82-1.64-3.62-1.88-13.25-1.8-9.1.06-12.8.58-20.14 2.8-4.95 1.5-9.42 3.14-9.94 3.65-.5.5-1.13 3.67-1.37 7.03l-.44 6.1 2.95-1.52c1.63-.85 5.18-3.3 7.9-5.44z"/><path fill="#bebebe" d="M54.95 443.46c-25.4-6.65-44.43-24.85-52.27-49.95L.34 386V223.5C.34 90.7.6 60 1.7 55.5c.73-3.02 3.37-9.77 5.86-15 3.9-8.2 5.77-10.73 13.66-18.57 7.47-7.4 10.82-9.9 18.32-13.67C57-.47 48.87 0 179.84 0c115.2 0 115.52 0 123.6 2.17 25.28 6.75 44.1 24 52.2 47.84l2.7 8v329l-2.33 7.5c-3.7 11.98-8.45 19.5-18.64 29.65-7.82 7.8-10.6 9.82-18.6 13.67-16.92 8.12-9.15 7.7-140.12 7.63-111.68-.05-116.6-.13-123.7-2zm243.26-3.4c21.02-4.02 39.04-17.2 48.53-35.48 8.18-15.75 7.5-.56 7.85-175.05.2-94.96-.05-158.82-.64-164.07-.53-4.73-1.93-11.5-3.1-15.03-5.36-16.02-18.58-30.78-34.46-38.45-16.35-7.9-10.16-7.58-140.54-7.26l-115.5.3-8 2.7C30.78 15.08 14 31.67 7.56 52.03l-2.22 7v329l2.68 7.32c8.47 23.18 27.1 39.3 51.5 44.54 10.13 2.17 227.4 2.34 238.7.18zm-119.6-71.7c-1.3-1.3-5.2-7.53-8.67-13.85-10.15-18.47-23.94-39.28-41.37-62.42-1.4-1.86-1.7-1.76-8.84 2.95-9.46 6.26-29.7 16.3-41.88 20.8-13.3 4.92-24.8 8.2-25.7 7.32-1.56-1.57 1.73-4.1 16.7-12.86 16.64-9.75 34.56-21.2 43.52-27.8l5.54-4.1-3.6-4.2c-4.32-5.05-3.14-5.72 4.63-2.66l5.4 2.13 8.75-9.03c4.82-4.97 8.75-9.4 8.73-9.83-.02-.92-40.34-41.98-46.82-47.7-4.73-4.15-8.54-11.45-9.66-18.5l-.7-4.4 4.6.63c5.36.74 10.48 3.17 16.08 7.64 2.18 1.73 4.66 2.95 5.5 2.7 5.26-1.6 54.64-19.98 55.1-20.5.33-.37.4-3.06.16-5.98-.3-3.95-.77-5.2-1.77-4.8-3.64 1.38-17.34 3.68-22.8 3.8-7.97.2-10.12-.58-12.6-4.6-3.48-5.64-3.07-6.03 7.7-7.36 5.35-.66 14-2.23 19.24-3.5l9.5-2.3.3-8.95c.36-11.36-.68-14.15-10.3-27.58-12.83-17.9-18.9-32.92-14.9-36.93 2.1-2.1 63.5 11.18 70.9 15.3 4.4 2.5 5.66 6.18 3.46 10.27-1.32 2.47-8.23 6.5-14.46 8.44-2.2.7-6.1 2.37-8.7 3.75-5.88 3.15-7.47 6.8-8.42 19.35l-.7 9.26 3.4-2.4c1.9-1.34 6.27-5.25 9.76-8.7 7.78-7.68 10.12-7.98 21.2-2.68 13.85 6.64 14.24 8.57 2.82 13.93-4.48 2.1-14.7 6.43-22.72 9.6-9.4 3.75-14.83 6.44-15.3 7.6-.38 1-.73 3.52-.77 5.62-.08 4.67-1.92 5.1 23.94-5.53 20.7-8.52 26-9.83 31.23-7.77 5.8 2.28 19.22 11.68 24.02 16.82 8.5 9.1 7.5 12.4-6.34 20.7-7.18 4.32-9.24 6.2-14 12.83-7.52 10.5-12.53 20.8-14.53 29.9-2.33 10.58-2.32 10.57-8.22 8.48-4.58-1.63-5.44-1.64-13.64-.12l-8.76 1.63 8.37 5.46c10.27 6.7 25.7 14.18 36.37 17.62 4.4 1.42 17.22 4.86 28.5 7.65 28.54 7.06 34.66 8.96 37.57 11.66 4.53 4.2 2.64 4.64-16.12 3.86-17.07-.7-17.37-.7-22.62 1.77-2.93 1.36-7.98 4.76-11.22 7.54-6.76 5.8-10 6.87-14.75 4.85-7.76-3.32-26.47-21.5-44.18-42.94-11.06-13.4-14.53-16.42-16.05-13.97-.76 1.22 1.26 28.58 2.97 40.2.85 5.78 3.58 20.63 6.07 33 6.7 33.23 6.5 43.63-.92 48.42-4.38 2.83-7.45 2.97-9.98.43zm-16.3-66.1c1.04-6.24 2.46-23.36 3.15-38 .85-18.07.15-18.63-8-6.37-3.07 4.6-8.78 11.8-12.68 15.97l-7.1 7.6 8.2 9.26c8.1 9.16 13.8 14.7 15.17 14.75.4 0 .95-1.44 1.25-3.22zm3.8-66.75c.4 0 .74-4.94.74-11 0-6.04-.25-11-.56-11-.3 0-5.82 1.3-12.25 2.9-6.43 1.58-12.96 3.18-14.52 3.53l-2.82.65 6 6.4c3.28 3.52 6.75 7.72 7.7 9.35l1.76 2.95 6.6-1.9c3.62-1.03 6.93-1.87 7.35-1.87zm31.74-8.06l7.5-1.1 2.35-5.36c1.28-2.95 4.27-8.65 6.63-12.67 2.37-4 4.18-7.42 4.04-7.58-.37-.4-17.28 3.4-28.78 6.47l-9.76 2.6v21.52l5.25-1.38c2.88-.77 8.6-1.9 12.74-2.5zm-53.65-19.48c7.76-2.5 16.03-5.03 18.37-5.62l4.27-1.07v-5.88c0-3.25-.1-5.9-.25-5.9s-4.54 1.5-9.76 3.36c-5.23 1.84-15.93 5.1-23.8 7.24l-14.28 3.88 4.8 4.23c2.62 2.33 5.17 4.25 5.65 4.27.5.02 7.23-2 15-4.5zm46.24-17.24c6.42-5.07 8.66-6.22 12.08-6.2 3.4.03 9.77 2.83 15.65 6.87l4.34 2.97 2.17-4.46c2.7-5.57 2.73-7.58.06-10-1.82-1.64-3.62-1.88-13.25-1.8-9.1.06-12.8.58-20.14 2.8-4.95 1.5-9.42 3.14-9.94 3.65-.5.5-1.13 3.67-1.37 7.03l-.44 6.1 2.95-1.52c1.63-.85 5.18-3.3 7.9-5.44z"/><path fill="#7f7f7f" d="M54.95 443.46c-25.4-6.65-44.43-24.85-52.27-49.95L.34 386V223.5C.34 90.7.6 60 1.7 55.5c.73-3.02 3.37-9.77 5.86-15 3.9-8.2 5.77-10.73 13.66-18.57 7.47-7.4 10.82-9.9 18.32-13.67C57-.47 48.87 0 179.84 0c115.2 0 115.52 0 123.6 2.17 25.28 6.75 44.1 24 52.2 47.84l2.7 8v329l-2.33 7.5c-3.7 11.98-8.45 19.5-18.64 29.65-7.82 7.8-10.6 9.82-18.6 13.67-16.92 8.12-9.15 7.7-140.12 7.63-111.68-.05-116.6-.13-123.7-2zm248.9-4.2c24.44-7.5 41.87-24.76 48.7-48.25 1.63-5.57 1.77-17.02 2.07-161 .2-102.06-.04-158.3-.72-164.66-2.95-27.57-19.5-48.03-46.56-57.53l-8-2.8-116.8-.27C68.08 4.46 65.53 4.5 57.16 6.5 34.02 12 16.5 27.8 7.54 51.22L5.34 57l-.28 162.5C4.8 365.76 4.94 382.74 6.4 389.3c5.66 25.7 28.14 46.55 55.2 51.2 2.6.43 56.94.72 120.74.62 105.62-.16 116.5-.33 121.5-1.87zM178.92 367.8c-1.67-1.54-6.24-8.64-10.16-15.8-10.7-19.52-39.3-61.5-41.9-61.5-.54 0-4.03 2.07-7.76 4.6-17.54 11.9-63.35 30.72-66.66 27.4-1.43-1.43-.85-1.85 15.9-11.55 12.75-7.38 41.67-26.04 47.9-30.9 1.82-1.43 1.76-1.65-1.82-6-4.18-5.1-3.8-5.38 3.66-2.55 2.9 1.1 5.63 2 6.08 2 1.35 0 12.28-10.8 15.2-15.02l2.7-3.9-17.45-18.52c-9.58-10.2-21.07-21.67-25.5-25.52-8.43-7.28-12.23-13.2-13.68-21.3-.54-3-.34-3.9.98-4.4 2.76-1.05 11.6 2.4 17.34 6.75 4.6 3.5 5.8 3.98 8.1 3.26 1.47-.47 14.4-5.13 28.74-10.35l26.06-9.5-.54-5.5c-.3-3.02-.6-5.56-.65-5.65-.06-.08-3.94.7-8.6 1.75-12.12 2.7-22.32 2.84-25.08.34-2.12-1.92-4.93-6.57-4.93-8.17 0-.46 4.64-1.38 10.32-2.06 5.68-.66 14.34-2.22 19.25-3.45l8.94-2.24.3-9.77c.3-11-.84-14.76-6.95-22.72-6.63-8.64-12.04-17.17-15.42-24.3-4.53-9.57-5.1-12.7-2.77-15.47l1.84-2.2 19 3.9c39.05 8.02 48.52 10.58 52.34 14.14 5.56 5.18.23 11.9-13.3 16.8-14.9 5.4-16.07 6.95-17.17 22.66l-.67 9.7 2.26-1.2c1.24-.67 5.8-4.6 10.15-8.75 7.63-7.3 8.02-7.52 11.9-7 4.33.58 15.03 5.4 18.9 8.53 1.56 1.27 2.18 2.53 1.76 3.62-.74 1.95-11.65 7.1-31.03 14.67-14.88 5.8-15.63 6.45-15.63 13.47 0 1.9.42 3.44.93 3.44.5 0 8.28-2.98 17.25-6.62 31.82-12.93 31.23-12.8 39.32-9.02 6.45 3.02 20.46 13.6 23.8 17.97 4.36 5.72 4.46 8.22.5 11.97-1.9 1.78-6.2 4.7-9.56 6.5-7.33 3.9-12 9-18.95 20.7-5.72 9.6-7.32 13.54-9.7 23.92-.88 3.8-1.83 7.16-2.12 7.44-.27.3-2.65-.25-5.26-1.2-4.43-1.58-5.34-1.6-13.23-.1-4.65.9-8.6 1.75-8.75 1.9-.54.54 15.17 10.22 22.76 14.04 13.23 6.65 23.97 10.18 51.54 16.98 14.85 3.66 28.8 7.46 31 8.45 4.53 2.02 8.15 5.56 6.64 6.5-.54.32-9.23.48-19.3.34-20.86-.3-22.1.04-32.4 8.82-6.96 5.95-10.28 7.05-14.6 4.84-9.54-4.88-25.6-20.6-44.75-43.78-8.92-10.8-11.8-13.65-13.74-13.65-2.45 0-2.47.1-1.95 6.76.3 3.7.8 10.8 1.12 15.75.8 12.4 2.77 25.17 7.94 51.5 6.94 35.35 6.98 42.33.26 47.36-5.25 3.93-7.2 4.1-10.63.94zm-16.72-64.64c.9-3.54 3.64-38.83 3.64-46.73 0-5.4-.32-6.92-1.46-6.92-1.76 0-2.4.74-7.55 8.65-2.2 3.37-7.4 10.02-11.56 14.77l-7.55 8.64 8.1 9.4c7.98 9.3 13.4 14.55 15 14.55.44 0 1.07-1.05 1.4-2.34zm-1.56-66.18l6.2-1.74v-10.87c0-5.97-.2-10.86-.4-10.86-.58 0-21.28 4.88-25.85 6.1l-3.77.98 6.4 7.35c3.53 4.04 6.94 8.33 7.6 9.54.63 1.2 1.7 1.98 2.4 1.72.66-.27 4-1.26 7.4-2.22zm33.95-8.78c10.97-2.1 11.26-2.24 12.27-5.28.56-1.7 3.5-7.3 6.52-12.4 3-5.12 5.3-9.48 5.1-9.7-.56-.55-18.5 3.34-29.4 6.38l-9.26 2.58v10.97c0 10.04.15 10.9 1.75 10.3.95-.38 6.8-1.65 13-2.85zm-46.1-21.42l18.34-5.72v-5.78c0-3.17-.2-5.77-.47-5.77-.26 0-3.97 1.28-8.25 2.84-4.28 1.55-14.88 4.78-23.56 7.18l-15.78 4.35 4.24 4.32c2.33 2.36 4.9 4.3 5.68 4.3.8 0 9.7-2.57 19.8-5.72zm43.52-16.9c9.02-7 13.5-6.86 24.26.67 3.1 2.17 5.88 3.96 6.15 3.96 1.02 0 4.37-8.57 4.4-11.22.05-7.25-16.86-7.94-38.3-1.56-7.65 2.27-8.7 3.63-8.7 11.38v4.46l3.26-1.64c1.78-.9 5.8-3.6 8.92-6.03z"/><path fill="#404040" d="M58.84 444c-25.9-5.34-45.8-22.3-54.42-46.38l-3.08-8.6V57l2.33-7c6.54-19.72 21.9-36.27 40.8-43.94C58.66.3 55.78.4 182.83.74c130.42.32 120.3-.25 136.5 7.72C337.7 17.5 350.9 33.8 356.56 54.5c1.67 6.1 1.78 16.4 1.78 168.5 0 182 .64 166.54-7.6 183.32-6.83 13.96-20.8 27-35.27 32.94-14.8 6.07-5.54 5.66-133.13 5.88-94.6.17-118.24-.05-123.5-1.14zm242.94-4.1c14-3.42 28.63-12.57 37.86-23.7 5.83-7.06 11.92-19.67 13.74-28.47 1.3-6.3 1.46-28.36 1.23-168L354.35 59l-2.82-8c-7.9-22.38-24.63-37.85-48.38-44.73L295.34 4h-115.5C49.8 4 58.6 3.5 41.84 11.75c-6.9 3.38-10.2 5.88-17.52 13.22-9.85 9.88-13.8 16.3-17.64 28.55L4.34 61v324l2.33 7.5c3.25 10.46 8.26 19 15.85 27.05 9.7 10.3 19.8 16.25 33.82 19.98 6.63 1.77 13.12 1.87 122.94 1.92 103.05.05 116.66-.12 122.5-1.55zm-123.62-72.64c-1.12-1.24-5.44-8.4-9.6-15.92-8.22-14.83-20.86-34.16-33.4-51.05l-7.96-10.72-4.93 3.3c-14.87 9.97-33.1 18.73-53.5 25.68-12.07 4.12-17.25 4.95-16.36 2.63.28-.73 7.12-5.1 15.2-9.7 15.47-8.84 50.24-31.58 50.24-32.87 0-.42-1.66-2.7-3.7-5.07-4-4.7-3.67-4.8 4.57-1.44 1.87.76 4.16 1.4 5.1 1.4 1.77 0 13.34-11.42 16.5-16.27l1.78-2.76-13.87-14.55c-7.62-8-14.9-15.84-16.2-17.44-1.28-1.58-6.38-6.37-11.33-10.64-9.73-8.4-13.4-13.93-14.5-21.86l-.6-4.5 3.38.03c4.3.03 11.12 3.1 16.37 7.4l4.1 3.35 8.95-3.38c4.93-1.86 17.86-6.6 28.72-10.52l19.74-7.14v-5.87c0-4.03-.4-5.86-1.25-5.85-.7 0-5.54.9-10.76 2-11.6 2.4-19.74 2.55-22.78.42-2.37-1.66-5.72-7.27-4.85-8.14.3-.28 4.4-.94 9.12-1.46 4.72-.52 13.4-2.16 19.3-3.64l10.72-2.7-.04-10c-.04-11.67-.8-13.5-11-27.3-8.46-11.4-14.6-23.55-15.22-30.1-.4-4.17-.18-5.18 1.25-5.73 3.37-1.3 61.98 11.4 69.84 15.12 4.28 2.02 5.46 5.1 3.5 9.15-1.55 3.25-6.88 6.5-15.33 9.34-8 2.68-12.08 5.3-13.94 8.9-1.5 2.88-4.17 21.83-3.2 22.8.97.96 5.3-2.2 12.93-9.47 7.4-7.05 8.04-7.43 11.43-6.88 7.13 1.15 21.28 8.94 21.28 11.7 0 1.44-8.97 5.7-28.5 13.56l-18 7.26-.3 6.07-.3 6.08 4.8-1.88c2.64-1.04 12.9-5.17 22.8-9.16 11.35-4.6 19.46-7.3 22-7.35 10.04-.17 34.5 18.35 34.5 26.15 0 4.12-1.83 6.1-9.95 10.8-4.35 2.5-9.54 6.35-11.53 8.55-8.36 9.26-16.45 24.8-19.04 36.63-1.77 8.04-1.87 8.22-4.4 7.62-1.42-.34-3.66-1.16-4.96-1.83-1.9-.96-4.03-.86-10.8.52-4.63.95-8.67 1.98-9 2.3-.7.7 11.08 8.37 20.85 13.57 12.7 6.77 24.52 10.75 53.4 18 15.43 3.88 29.64 7.72 31.57 8.52 3.8 1.6 6.52 4.24 5.45 5.3-.37.38-5.27.53-10.9.34-26.92-.88-27.77-.68-40.18 9.32-8.7 7-11.55 7.3-19.54 1.97-7.7-5.13-26.4-24.28-39.9-40.84-6.28-7.7-11.8-13.95-12.25-13.9-.46.06-1.58.17-2.5.26-1.47.13-1.57 1.5-.96 13.4.86 16.66 3.46 34.7 8.68 60.25 4.87 23.83 6.1 39.33 3.55 44.28-3.05 5.92-10.64 8.02-14.3 3.98zm-15.95-62.54c1.36-2.2 5.2-53.48 4.15-55.2-1.3-2.08-4.6.95-10.35 9.5-3.33 4.94-8.9 12-12.36 15.68l-6.3 6.7 3 3.4c17.76 20.04 20.34 22.4 21.87 19.92zm-2.45-67.18c3.53-1.07 6.8-2.53 7.24-3.24.87-1.4 1.17-20.13.33-20.97-.45-.45-29.36 6.05-30.4 6.83-.2.17 1.45 2.3 3.7 4.73 2.24 2.43 5.73 6.7 7.74 9.5 2 2.8 3.95 5.1 4.3 5.1.37 0 3.56-.9 7.08-1.96zm32.4-8.54c3.96-.78 8.5-1.55 10.08-1.7 2.56-.26 3.46-1.4 8-10.3 2.83-5.5 5.92-11.1 6.87-12.47.96-1.36 1.74-2.98 1.74-3.6 0-1.18-14.1 1.6-30.04 5.9l-8.46 2.3-.9 6.53c-.48 3.6-.55 8.66-.16 11.28.66 4.44.87 4.7 3.2 4.12 1.38-.35 5.73-1.27 9.68-2.06zm-24.3-33.7c0-6.7-.06-6.73-8.6-3.7-3.25 1.14-13.5 4.28-22.8 6.96-9.28 2.68-17.05 5.05-17.26 5.26-.22.2 1.8 2.44 4.5 4.95l4.87 4.56 19.63-6.1 19.64-6.12v-5.8zm18.63-1.25c2.67-1.9 6.6-4.7 8.76-6.22 2.65-1.9 5.04-2.75 7.5-2.7 4.03.12 12.2 3.9 16.83 7.8l3 2.54 2.7-5.96c3.23-7.22 2.6-9.05-3.94-11.55-5.66-2.16-14.07-1.54-27.98 2.08-13.83 3.6-13.5 3.33-13.5 11 0 3.57.4 6.48.88 6.48s3.07-1.55 5.75-3.45z"/><path fill="#3f3f3f" d="M61.08 444.4c-28.27-4.78-51.4-25.68-58.3-52.66C.9 384.44.83 379.02.83 223 .84 67.06.9 61.6 2.77 54.3 8.97 30.08 26.57 12 52.34 3.35l7-2.34 116.5-.28C277.5.48 293.3.64 299.97 1.98c15.1 3.04 27.04 9.5 37.87 20.44 12.1 12.22 18.2 24.97 20.1 41.93.6 5.4.84 68.06.64 164.68-.3 144.94-.44 156.43-2.07 162.46-5.47 20.24-19.1 36.7-38.16 46.06-16.2 7.96-6.1 7.4-136 7.58-64.1.1-118.35-.24-121.26-.73zm240.7-4.5c14-3.42 28.63-12.57 37.86-23.7 5.83-7.06 11.92-19.67 13.74-28.47 1.3-6.3 1.46-28.36 1.23-168L354.35 59l-2.82-8c-7.9-22.38-24.63-37.85-48.38-44.73L295.34 4h-115.5C49.8 4 58.6 3.5 41.84 11.75c-6.9 3.38-10.2 5.88-17.52 13.22-9.85 9.88-13.8 16.3-17.64 28.55L4.34 61v324l2.33 7.5c3.25 10.46 8.26 19 15.85 27.05 9.7 10.3 19.8 16.25 33.82 19.98 6.63 1.77 13.12 1.87 122.94 1.92 103.05.05 116.66-.12 122.5-1.55zm-123.62-72.64c-1.12-1.24-5.44-8.4-9.6-15.92-8.22-14.83-20.86-34.16-33.4-51.05l-7.96-10.72-4.93 3.3c-14.87 9.97-33.1 18.73-53.5 25.68-12.07 4.12-17.25 4.95-16.36 2.63.28-.73 7.12-5.1 15.2-9.7 15.47-8.84 50.24-31.58 50.24-32.87 0-.42-1.66-2.7-3.7-5.07-4-4.7-3.67-4.8 4.57-1.44 1.87.76 4.16 1.4 5.1 1.4 1.77 0 13.34-11.42 16.5-16.27l1.78-2.76-13.87-14.55c-7.62-8-14.9-15.84-16.2-17.44-1.28-1.58-6.38-6.37-11.33-10.64-9.73-8.4-13.4-13.93-14.5-21.86l-.6-4.5 3.38.03c4.3.03 11.12 3.1 16.37 7.4l4.1 3.35 8.95-3.38c4.93-1.86 17.86-6.6 28.72-10.52l19.74-7.14v-5.87c0-4.03-.4-5.86-1.25-5.85-.7 0-5.54.9-10.76 2-11.6 2.4-19.74 2.55-22.78.42-2.37-1.66-5.72-7.27-4.85-8.14.3-.28 4.4-.94 9.12-1.46 4.72-.52 13.4-2.16 19.3-3.64l10.72-2.7-.04-10c-.04-11.67-.8-13.5-11-27.3-8.46-11.4-14.6-23.55-15.22-30.1-.4-4.17-.18-5.18 1.25-5.73 3.37-1.3 61.98 11.4 69.84 15.12 4.28 2.02 5.46 5.1 3.5 9.15-1.55 3.25-6.88 6.5-15.33 9.34-8 2.68-12.08 5.3-13.94 8.9-1.5 2.88-4.17 21.83-3.2 22.8.97.96 5.3-2.2 12.93-9.47 7.4-7.05 8.04-7.43 11.43-6.88 7.13 1.15 21.28 8.94 21.28 11.7 0 1.44-8.97 5.7-28.5 13.56l-18 7.26-.3 6.07-.3 6.08 4.8-1.88c2.64-1.04 12.9-5.17 22.8-9.16 11.35-4.6 19.46-7.3 22-7.35 10.04-.17 34.5 18.35 34.5 26.15 0 4.12-1.83 6.1-9.95 10.8-4.35 2.5-9.54 6.35-11.53 8.55-8.36 9.26-16.45 24.8-19.04 36.63-1.77 8.04-1.87 8.22-4.4 7.62-1.42-.34-3.66-1.16-4.96-1.83-1.9-.96-4.03-.86-10.8.52-4.63.95-8.67 1.98-9 2.3-.7.7 11.08 8.37 20.85 13.57 12.7 6.77 24.52 10.75 53.4 18 15.43 3.88 29.64 7.72 31.57 8.52 3.8 1.6 6.52 4.24 5.45 5.3-.37.38-5.27.53-10.9.34-26.92-.88-27.77-.68-40.18 9.32-8.7 7-11.55 7.3-19.54 1.97-7.7-5.13-26.4-24.28-39.9-40.84-6.28-7.7-11.8-13.95-12.25-13.9-.46.06-1.58.17-2.5.26-1.47.13-1.57 1.5-.96 13.4.86 16.66 3.46 34.7 8.68 60.25 4.87 23.83 6.1 39.33 3.55 44.28-3.05 5.92-10.64 8.02-14.3 3.98zm-15.95-62.54c1.36-2.2 5.2-53.48 4.15-55.2-1.3-2.08-4.6.95-10.35 9.5-3.33 4.94-8.9 12-12.36 15.68l-6.3 6.7 3 3.4c17.76 20.04 20.34 22.4 21.87 19.92zm-2.45-67.18c3.53-1.07 6.8-2.53 7.24-3.24.87-1.4 1.17-20.13.33-20.97-.45-.45-29.36 6.05-30.4 6.83-.2.17 1.45 2.3 3.7 4.73 2.24 2.43 5.73 6.7 7.74 9.5 2 2.8 3.95 5.1 4.3 5.1.37 0 3.56-.9 7.08-1.96zm32.4-8.54c3.96-.78 8.5-1.55 10.08-1.7 2.56-.26 3.46-1.4 8-10.3 2.83-5.5 5.92-11.1 6.87-12.47.96-1.36 1.74-2.98 1.74-3.6 0-1.18-14.1 1.6-30.04 5.9l-8.46 2.3-.9 6.53c-.48 3.6-.55 8.66-.16 11.28.66 4.44.87 4.7 3.2 4.12 1.38-.35 5.73-1.27 9.68-2.06zm-24.3-33.7c0-6.7-.06-6.73-8.6-3.7-3.25 1.14-13.5 4.28-22.8 6.96-9.28 2.68-17.05 5.05-17.26 5.26-.22.2 1.8 2.44 4.5 4.95l4.87 4.56 19.63-6.1 19.64-6.12v-5.8zm18.63-1.25c2.67-1.9 6.6-4.7 8.76-6.22 2.65-1.9 5.04-2.75 7.5-2.7 4.03.12 12.2 3.9 16.83 7.8l3 2.54 2.7-5.96c3.23-7.22 2.6-9.05-3.94-11.55-5.66-2.16-14.07-1.54-27.98 2.08-13.83 3.6-13.5 3.33-13.5 11 0 3.57.4 6.48.88 6.48s3.07-1.55 5.75-3.45z"/><path d="M61.08 444.4c-28.27-4.78-51.4-25.68-58.3-52.66C.9 384.44.83 379.02.83 223 .84 67.06.9 61.6 2.77 54.3 8.97 30.08 26.57 12 52.34 3.35l7-2.34 116.5-.28C277.5.48 293.3.64 299.97 1.98c15.1 3.04 27.04 9.5 37.87 20.44 12.1 12.22 18.2 24.97 20.1 41.93.6 5.4.84 68.06.64 164.68-.3 144.94-.44 156.43-2.07 162.46-5.47 20.24-19.1 36.7-38.16 46.06-16.2 7.96-6.1 7.4-136 7.58-64.1.1-118.35-.24-121.26-.73zm242.14-4.86c12.15-3.1 22.88-9.23 31.62-18.03 8.44-8.5 12.9-15.43 16.82-26.16l2.68-7.33.27-161.72c.3-180.6.74-168.9-6.83-184.53-3.3-6.8-5.77-10.16-12.28-16.64-12.88-12.8-24.9-18.56-43-20.66-6.08-.7-46.34-.94-119.66-.72-124.43.38-114.22-.27-131.8 8.36-18.7 9.17-32.27 27.2-35.77 47.5C4 66.9 3.84 90.54 4.1 227.07c.28 149.82.4 159.27 2.1 164.87 5.76 18.97 18.47 33.95 36.15 42.58 14.7 7.18 7.2 6.8 136.58 6.9 112.84.07 116.84 0 124.3-1.9zm-125.97-73.78c-1.4-2.07-5.27-8.7-8.58-14.75-8.45-15.45-27.8-44.4-39.62-59.34l-1.86-2.34-7.94 5.2c-11.48 7.53-33.9 18.18-49.3 23.43-23.38 7.96-23.6 6.08-.86-7.06 13.84-8 35.48-21.84 45.62-29.2l4.13-3-3.5-4.2c-1.93-2.3-3.5-4.36-3.5-4.57 0-.33 3.15.82 11.58 4.23 1.06.42 19.44-18.02 19.38-19.44-.03-.78-40.72-42.13-48.18-48.96-4.72-4.32-8.78-12.56-8.78-17.8 0-2.12.46-2.45 3.35-2.45 3.7 0 10.82 3.45 16.46 7.98l3.68 2.95 11-4.1c6.05-2.24 18.87-6.9 28.5-10.35l17.5-6.27.3-6.47.3-6.5-7.8 1.86c-4.3 1-11.2 2.13-15.35 2.5-8.97.78-12.77-.66-15.27-5.8l-1.6-3.3 3.2-.65c1.77-.37 6.8-1.16 11.2-1.77 4.4-.6 11.95-2.08 16.76-3.25l8.74-2.14v-8.17c0-11.57-1.85-16.7-9.97-27.63-8.37-11.28-17.04-27.68-17.02-32.2.03-6.24.55-6.38 13.68-3.85 21.86 4.2 48.74 10.34 54.08 12.34 6.55 2.44 8.98 5.6 7.34 9.56-1.5 3.62-5.98 6.55-14.9 9.75-14.5 5.22-15.48 6.43-17.22 21.6-1.47 12.84-1.57 12.36 2.14 10.2 1.7-.98 6.53-5.1 10.7-9.12 7.18-6.9 7.8-7.28 11.14-6.7 4.7.8 17.16 6.9 19.6 9.58 1.87 2.08 1.87 2.16.03 3.5-2.24 1.64-29.22 13.13-38.84 16.53l-6.76 2.4v12.49l6.25-2.37c3.43-1.3 13.66-5.38 22.73-9.08 19.57-8 22.23-8.3 30.65-3.56 13 7.3 24.36 18.04 24.36 23 0 3.34-3.42 6.54-12.75 11.92-8.15 4.68-11.92 9.08-20.12 23.48-3.44 6.03-5.6 11.34-6.74 16.5-.92 4.18-2.06 8.62-2.52 9.86l-.83 2.25-4.8-1.78c-4.5-1.7-5.25-1.7-13.5-.17-4.82.9-8.97 1.84-9.24 2.1-.78.78 14.28 10.28 23.98 15.12 13.45 6.7 21.33 9.28 51.38 16.8 25.85 6.46 36.1 9.96 36.87 12.58.52 1.76-7.96 2.2-19.38 1.03-13.6-1.4-19.22-.15-27.5 6.14-11.28 8.56-12.3 9.2-15 9.2-6.55 0-26.3-17.9-45.72-41.43-5.86-7.1-11.6-14.03-12.72-15.38-1.6-1.9-2.6-2.3-4.4-1.73l-2.33.73.68 13.62c.9 17.67 2.72 30.6 8.27 58.16 4.95 24.63 6.42 40.66 4.13 44.98-1.7 3.18-7.42 7.03-10.45 7.03-1.6 0-3.18-1.2-4.93-3.74zm-14.24-65c.7-4.07 2.02-20.4 3.4-42.05l.66-10.3-2.86.7c-1.57.4-3.02 1.13-3.22 1.64-1.32 3.38-11.32 16.83-17.23 23.16l-7.06 7.56 8.7 9.77c14.17 15.93 16.32 17.1 17.6 9.53zm-3.16-63.03c3.02-.95 6.06-2.1 6.75-2.54.86-.57 1.24-4.1 1.24-11.75 0-6.02-.1-10.94-.25-10.94-.6.02-29.38 7.1-30.62 7.54-.9.33.87 2.85 5.3 7.56 3.67 3.88 7.17 8.15 7.78 9.5 1.3 2.85 2.5 2.94 9.78.63zm26.5-7.36c2.2-.6 7.33-1.63 11.4-2.27l7.4-1.15 4.25-8.2c2.33-4.52 5.67-10.52 7.4-13.34 1.74-2.8 3-5.26 2.82-5.44-.4-.4-23.55 4.75-32.77 7.3-5.84 1.6-6.56 2.07-7.13 4.76-.86 3.98-1 14.42-.25 17.24.7 2.56 1.33 2.66 6.87 1.1zm-40.16-22.3c9.44-2.97 18.17-5.7 19.4-6.05 2.04-.6 2.26-1.27 2.26-7.08 0-3.54-.2-6.43-.46-6.43s-2.85.94-5.75 2.1c-2.9 1.14-13.54 4.48-23.62 7.4-10.07 2.94-18.6 5.6-18.93 5.94-.5.5 8.45 9.37 9.6 9.52.2.02 8.08-2.4 17.5-5.38zm37.96-12.2c1.76-.9 5.67-3.56 8.7-5.88 3.02-2.33 6.55-4.5 7.83-4.8 3.26-.77 9.4 1.6 16.34 6.34l5.92 4.04 1.9-4.3c3.4-7.73 3.47-9.28.52-11.6-5.57-4.38-18.88-3.85-36.56 1.45l-8.94 2.68v6.86c0 3.76.25 6.85.55 6.85.3 0 1.98-.73 3.74-1.64z"/></g></g></svg>